<?xml version="1.0" encoding="utf-8"?>
<!-- Generator: Adobe Illustrator 18.0.0, SVG Export Plug-In . SVG Version: 6.00 Build 0)  -->
<!DOCTYPE svg PUBLIC "-//W3C//DTD SVG 1.1//EN" "http://www.w3.org/Graphics/SVG/1.1/DTD/svg11.dtd">
<svg version="1.1"
	 id="Layer_2" xmlns:dc="http://purl.org/dc/elements/1.1/" xmlns:cc="http://creativecommons.org/ns#" xmlns:rdf="http://www.w3.org/1999/02/22-rdf-syntax-ns#" xmlns:svg="http://www.w3.org/2000/svg"
	 xmlns="http://www.w3.org/2000/svg" xmlns:xlink="http://www.w3.org/1999/xlink" x="0px" y="0px" viewBox="0 0 1024 1024"
	 enable-background="new 0 0 1024 1024" xml:space="preserve">
<path id="path3" fill="#8BC34A" d="M931.4,88.4H531.8c-12.4,0-24.2,5.8-32,15.4L478.2,131c-7.6,9.6-19.4,15.4-31.6,15.4h-354
	C70.2,146.6,52,164.8,52,187.2v727.6c0,11.4,9.2,20.6,20.6,20.6h878.6c11.4,0,20.6-9.2,20.6-20.6V146.6v-17.4
	C972,106.6,953.8,88.4,931.4,88.4z"/>
<path id="path18" fill="#689F38" d="M952,935.6H72c-11,0-20-9-20-20V367c0-22,18-40,40-40h840c22,0,40,18,40,40v548.6
	C972,926.6,963,935.6,952,935.6z"/>
<path id="path132" fill="#FFFFFF" d="M821.2,728.6c39.8-20.6,67-62,67-109.8c0-61.6-45.2-112.8-104.2-122v-48.4c0-0.2,0-0.2,0-0.4
	c0-10.6-8.6-19.4-19.4-19.4s-19.4,8.6-19.4,19.4l0,0v48.8c-59,9.4-104.2,60.4-104.2,122c0,47.8,27.2,89.2,67,109.8l-29.4,207h27
	L756.2,742c2.8,0.2,5.6,0.4,8.4,0.4s5.6-0.2,8.4-0.4l50.6,193.6h27L821.2,728.6z M764.8,699.2c-44.4,0-80.6-36.2-80.6-80.6
	c0-44.4,36.2-80.6,80.6-80.6s80.6,36.2,80.6,80.6C845.2,663.2,809.2,699.2,764.8,699.2z"/>
</svg>
