<?xml version="1.0" encoding="utf-8"?>
<!-- Generator: Adobe Illustrator 18.0.0, SVG Export Plug-In . SVG Version: 6.00 Build 0)  -->
<!DOCTYPE svg PUBLIC "-//W3C//DTD SVG 1.1//EN" "http://www.w3.org/Graphics/SVG/1.1/DTD/svg11.dtd">
<svg version="1.1" id="Layer_1" xmlns="http://www.w3.org/2000/svg" xmlns:xlink="http://www.w3.org/1999/xlink" x="0px" y="0px"
	 viewBox="0 0 512 512" enable-background="new 0 0 512 512" xml:space="preserve">
<path fill="#BFBEBE" d="M256,22C126.8,22,22,126.8,22,256s104.8,234,234,234s234-104.8,234-234S385.2,22,256,22z M118.4,311
	c-30.4,0-55-24.6-55-55c0-30.4,24.6-55,55-55c30.4,0,55,24.6,55,55C173.5,286.4,148.8,311,118.4,311z M256,311
	c-30.4,0-55-24.6-55-55c0-30.4,24.6-55,55-55s55,24.6,55,55C311,286.4,286.4,311,256,311z M393.6,311c-30.4,0-55-24.6-55-55
	c0-30.4,24.6-55,55-55c30.4,0,55,24.6,55,55C448.6,286.4,423.9,311,393.6,311z"/>
<g>
	<circle opacity="0.45" fill="#BFBEBE" cx="118.4" cy="256" r="55"/>
	<circle opacity="0.65" fill="#BFBEBE" cx="256" cy="256" r="55"/>
	<circle opacity="0.9" fill="#BFBEBE" cx="393.6" cy="256" r="55"/>
</g>
</svg>
