<?xml version="1.0" encoding="UTF-8" standalone="no"?>
<svg
   xmlns:dc="http://purl.org/dc/elements/1.1/"
   xmlns:cc="http://creativecommons.org/ns#"
   xmlns:rdf="http://www.w3.org/1999/02/22-rdf-syntax-ns#"
   xmlns:svg="http://www.w3.org/2000/svg"
   xmlns="http://www.w3.org/2000/svg"
   viewBox="0 0 640 640"
   height="640"
   width="640"
   xml:space="preserve"
   version="1.1"
   id="svg8360"><metadata
     id="metadata8366"><rdf:RDF><cc:Work
         rdf:about=""><dc:format>image/svg+xml</dc:format><dc:type
           rdf:resource="http://purl.org/dc/dcmitype/StillImage" /><dc:title></dc:title></cc:Work></rdf:RDF></metadata><defs
     id="defs8364"><clipPath
       id="clipPath8374"
       clipPathUnits="userSpaceOnUse"><path
         id="path8376"
         d="M 0,512 512,512 512,0 0,0 0,512 Z" /></clipPath><clipPath
       id="clipPath8382"
       clipPathUnits="userSpaceOnUse"><path
         id="path8384"
         d="m 18.325,493.744 475.4,0 0,-475.4877 -475.4,0 0,475.4877 z" /></clipPath><clipPath
       id="clipPath8386"
       clipPathUnits="userSpaceOnUse"><path
         id="path8388"
         d="M 448.99,63.029 C 389.293,3.332 122.807,3.332 63.11,63.029 3.413,122.726 3.413,389.312 63.01,449.009 c 59.597,59.696 326.283,59.596 385.98,0 59.697,-59.597 59.597,-326.283 0,-385.98" /></clipPath><radialGradient
       id="radialGradient8394"
       spreadMethod="pad"
       gradientTransform="matrix(237.72188,0,0,237.72188,256.02499,256)"
       gradientUnits="userSpaceOnUse"
       r="1"
       cy="0"
       cx="0"
       fy="0"
       fx="0"><stop
         id="stop8396"
         offset="0"
         style="stop-opacity:1;stop-color:#ffffff" /><stop
         id="stop8398"
         offset="0.8587"
         style="stop-opacity:0.14129854;stop-color:#ffffff" /><stop
         id="stop8400"
         offset="1"
         style="stop-opacity:0;stop-color:#ffffff" /></radialGradient><mask
       id="mask8402"
       height="1"
       width="1"
       y="0"
       x="0"
       maskUnits="userSpaceOnUse"><g
         id="g8404"><g
           id="g8406"><g
             id="g8408"><g
               id="g8410"><path
                 id="path8412"
                 style="fill:url(#radialGradient8394);stroke:none"
                 d="m -32768,32767 65535,0 0,-65535 -65535,0 0,65535 z" /></g></g></g></g></mask><radialGradient
       id="radialGradient8414"
       spreadMethod="pad"
       gradientTransform="matrix(237.72188,0,0,237.72188,256.02499,256)"
       gradientUnits="userSpaceOnUse"
       r="1"
       cy="0"
       cx="0"
       fy="0"
       fx="0"><stop
         id="stop8416"
         offset="0"
         style="stop-opacity:1;stop-color:#010101" /><stop
         id="stop8418"
         offset="0.8587"
         style="stop-opacity:1;stop-color:#010101" /><stop
         id="stop8420"
         offset="1"
         style="stop-opacity:1;stop-color:#010101" /></radialGradient><clipPath
       id="clipPath8444"
       clipPathUnits="userSpaceOnUse"><path
         id="path8446"
         d="m 18.325,493.744 475.4,0 0,-475.4877 -475.4,0 0,475.4877 z" /></clipPath><clipPath
       id="clipPath8448"
       clipPathUnits="userSpaceOnUse"><path
         id="path8450"
         d="M 448.99,63.029 C 389.293,3.332 122.807,3.332 63.11,63.029 3.413,122.726 3.413,389.312 63.01,449.009 c 59.597,59.696 326.283,59.596 385.98,0 59.697,-59.597 59.597,-326.283 0,-385.98" /></clipPath><radialGradient
       id="radialGradient8456"
       spreadMethod="pad"
       gradientTransform="matrix(188.25467,188.36119,-130.35883,130.27895,256.02499,256.04376)"
       gradientUnits="userSpaceOnUse"
       r="1"
       cy="0"
       cx="0"
       fy="0"
       fx="0"><stop
         id="stop8458"
         offset="0"
         style="stop-opacity:1;stop-color:#ffffff" /><stop
         id="stop8460"
         offset="0.8587"
         style="stop-opacity:0.14129854;stop-color:#ffffff" /><stop
         id="stop8462"
         offset="1"
         style="stop-opacity:0;stop-color:#ffffff" /></radialGradient><mask
       id="mask8464"
       height="1"
       width="1"
       y="0"
       x="0"
       maskUnits="userSpaceOnUse"><g
         id="g8466"><g
           id="g8468"><g
             id="g8470"><g
               id="g8472"><path
                 id="path8474"
                 style="fill:url(#radialGradient8456);stroke:none"
                 d="m -32768,32767 65535,0 0,-65535 -65535,0 0,65535 z" /></g></g></g></g></mask><radialGradient
       id="radialGradient8476"
       spreadMethod="pad"
       gradientTransform="matrix(188.25467,188.36119,-130.35883,130.27895,256.02499,256.04376)"
       gradientUnits="userSpaceOnUse"
       r="1"
       cy="0"
       cx="0"
       fy="0"
       fx="0"><stop
         id="stop8478"
         offset="0"
         style="stop-opacity:1;stop-color:#010101" /><stop
         id="stop8480"
         offset="0.8587"
         style="stop-opacity:1;stop-color:#010101" /><stop
         id="stop8482"
         offset="1"
         style="stop-opacity:1;stop-color:#010101" /></radialGradient><clipPath
       id="clipPath8506"
       clipPathUnits="userSpaceOnUse"><path
         id="path8508"
         d="m 18.275,493.694 475.387,0 0,-475.4377 -475.387,0 0,475.4377 z" /></clipPath><clipPath
       id="clipPath8510"
       clipPathUnits="userSpaceOnUse"><path
         id="path8512"
         d="m 63.01,63.029 c 59.697,-59.697 326.183,-59.697 385.88,0 59.697,59.697 59.697,326.183 0,385.88 -59.697,59.696 -326.183,59.696 -385.88,0.1 -59.697,-59.597 -59.597,-326.283 0,-385.98" /></clipPath><radialGradient
       id="radialGradient8518"
       spreadMethod="pad"
       gradientTransform="matrix(-188.28767,188.39421,130.38168,130.30179,255.92499,255.99377)"
       gradientUnits="userSpaceOnUse"
       r="1"
       cy="0"
       cx="0"
       fy="0"
       fx="0"><stop
         id="stop8520"
         offset="0"
         style="stop-opacity:1;stop-color:#ffffff" /><stop
         id="stop8522"
         offset="0.8587"
         style="stop-opacity:0.14129854;stop-color:#ffffff" /><stop
         id="stop8524"
         offset="1"
         style="stop-opacity:0;stop-color:#ffffff" /></radialGradient><mask
       id="mask8526"
       height="1"
       width="1"
       y="0"
       x="0"
       maskUnits="userSpaceOnUse"><g
         id="g8528"><g
           id="g8530"><g
             id="g8532"><g
               id="g8534"><path
                 id="path8536"
                 style="fill:url(#radialGradient8518);stroke:none"
                 d="m -32768,32767 65535,0 0,-65535 -65535,0 0,65535 z" /></g></g></g></g></mask><radialGradient
       id="radialGradient8538"
       spreadMethod="pad"
       gradientTransform="matrix(-188.28767,188.39421,130.38168,130.30179,255.92499,255.99377)"
       gradientUnits="userSpaceOnUse"
       r="1"
       cy="0"
       cx="0"
       fy="0"
       fx="0"><stop
         id="stop8540"
         offset="0"
         style="stop-opacity:1;stop-color:#010101" /><stop
         id="stop8542"
         offset="0.8587"
         style="stop-opacity:1;stop-color:#010101" /><stop
         id="stop8544"
         offset="1"
         style="stop-opacity:1;stop-color:#010101" /></radialGradient><clipPath
       id="clipPath8600"
       clipPathUnits="userSpaceOnUse"><path
         id="path8602"
         d="m 181.573,256 c 0,-41.04 33.387,-74.427 74.427,-74.427 l 0,0 c 41.039,0 74.427,33.387 74.427,74.427 l 0,0 c 0,41.039 -33.388,74.427 -74.427,74.427 l 0,0 c -41.04,0 -74.427,-33.388 -74.427,-74.427" /></clipPath><radialGradient
       id="radialGradient8612"
       spreadMethod="pad"
       gradientTransform="matrix(72.334099,0,0,-72.334099,256,256)"
       gradientUnits="userSpaceOnUse"
       r="1"
       cy="0"
       cx="0"
       fy="0"
       fx="0"><stop
         id="stop8614"
         offset="0"
         style="stop-opacity:1;stop-color:#ffffff" /><stop
         id="stop8616"
         offset="0.41834088"
         style="stop-opacity:1;stop-color:#ffffff" /><stop
         id="stop8618"
         offset="1"
         style="stop-opacity:0;stop-color:#ffffff" /></radialGradient><mask
       id="mask8620"
       height="1"
       width="1"
       y="0"
       x="0"
       maskUnits="userSpaceOnUse"><g
         id="g8622"><g
           id="g8624"><g
             id="g8626"><g
               id="g8628"><path
                 id="path8630"
                 style="fill:url(#radialGradient8612);stroke:none"
                 d="m -32768,32767 65535,0 0,-65535 -65535,0 0,65535 z" /></g></g></g></g></mask><radialGradient
       id="radialGradient8636"
       spreadMethod="pad"
       gradientTransform="matrix(72.334099,0,0,-72.334099,256,256)"
       gradientUnits="userSpaceOnUse"
       r="1"
       cy="0"
       cx="0"
       fy="0"
       fx="0"><stop
         id="stop8638"
         offset="0"
         style="stop-opacity:1;stop-color:#000000" /><stop
         id="stop8640"
         offset="0.41834088"
         style="stop-opacity:1;stop-color:#000000" /><stop
         id="stop8642"
         offset="1"
         style="stop-opacity:1;stop-color:#000000" /></radialGradient><clipPath
       id="clipPath8650"
       clipPathUnits="userSpaceOnUse"><path
         id="path8652"
         d="M 0,512 512,512 512,0 0,0 0,512 Z" /></clipPath><clipPath
       id="clipPath8662"
       clipPathUnits="userSpaceOnUse"><path
         id="path8664"
         d="m 125.185,330.027 258.414,0 0,-197.716 -258.414,0 0,197.716 z" /></clipPath></defs><g
     transform="matrix(1.25,0,0,-1.25,0,640)"
     id="g8368"><g
       id="g8370"><g
         clip-path="url(#clipPath8374)"
         id="g8372"><g
           id="g8378"><g
             id="g8380" /><g
             id="g8422"><g
               style="opacity:0.39999402"
               id="g8424"
               clip-path="url(#clipPath8382)"><g
                 id="g8426"><g
                   id="g8428"
                   clip-path="url(#clipPath8386)"><g
                     id="g8430"><g
                       id="g8432" /><g
                       id="g8434"
                       mask="url(#mask8402)"><g
                         id="g8436"><path
                           id="path8438"
                           style="fill:url(#radialGradient8414);stroke:none"
                           d="M 448.99,63.029 C 389.293,3.332 122.807,3.332 63.11,63.029 3.413,122.726 3.413,389.312 63.01,449.009 c 59.597,59.696 326.283,59.596 385.98,0 59.697,-59.597 59.597,-326.283 0,-385.98" /></g></g></g></g></g></g></g></g><g
           id="g8440"><g
             id="g8442" /><g
             id="g8484"><g
               style="opacity:0.39999402"
               id="g8486"
               clip-path="url(#clipPath8444)"><g
                 id="g8488"><g
                   id="g8490"
                   clip-path="url(#clipPath8448)"><g
                     id="g8492"><g
                       id="g8494" /><g
                       id="g8496"
                       mask="url(#mask8464)"><g
                         id="g8498"><path
                           id="path8500"
                           style="fill:url(#radialGradient8476);stroke:none"
                           d="M 448.99,63.029 C 389.293,3.332 122.807,3.332 63.11,63.029 3.413,122.726 3.413,389.312 63.01,449.009 c 59.597,59.696 326.283,59.596 385.98,0 59.697,-59.597 59.597,-326.283 0,-385.98" /></g></g></g></g></g></g></g></g><g
           id="g8502"><g
             id="g8504" /><g
             id="g8546"><g
               style="opacity:0.39999402"
               id="g8548"
               clip-path="url(#clipPath8506)"><g
                 id="g8550"><g
                   id="g8552"
                   clip-path="url(#clipPath8510)"><g
                     id="g8554"><g
                       id="g8556" /><g
                       id="g8558"
                       mask="url(#mask8526)"><g
                         id="g8560"><path
                           id="path8562"
                           style="fill:url(#radialGradient8538);stroke:none"
                           d="m 63.01,63.029 c 59.697,-59.697 326.183,-59.697 385.88,0 59.697,59.697 59.697,326.183 0,385.88 -59.697,59.696 -326.183,59.696 -385.88,0.1 -59.697,-59.597 -59.597,-326.283 0,-385.98" /></g></g></g></g></g></g></g></g><g
           transform="translate(437.019,232.888)"
           id="g8564"><path
             id="path8566"
             style="fill:#ff65d4;fill-opacity:1;fill-rule:nonzero;stroke:none"
             d="m 0,0 c -14.22,-14.22 -30.671,-24.848 -48.224,-31.893 -21.724,-8.72 -45.138,-11.945 -68.114,-9.676 -14.481,1.43 -28.784,5.047 -42.381,10.843 -7.693,3.279 -15.159,7.253 -22.301,11.929 -4.57,2.992 -9.005,6.274 -13.284,9.838 -3.376,2.812 -6.66,5.791 -9.828,8.959 -3.168,3.168 -6.147,6.451 -8.959,9.828 0.506,-5.546 1.321,-11.003 2.437,-16.35 1.744,-8.357 4.213,-16.447 7.334,-24.205 5.516,-13.713 13.073,-26.384 22.301,-37.635 14.641,-17.851 33.479,-32.126 55.006,-41.322 17.394,-7.43 36.541,-11.547 56.651,-11.547 10.158,0 20.069,1.055 29.635,3.051 30.102,6.282 56.755,21.943 76.779,43.784 C 50.985,-21.922 52.7,42.404 42.206,97.807 41.441,71.71 33.641,45.782 18.798,23.111 13.445,14.937 7.183,7.183 0,0" /></g><g
           transform="translate(74.981,279.112)"
           id="g8568"><path
             id="path8570"
             style="fill:#00bd9b;fill-opacity:1;fill-rule:nonzero;stroke:none"
             d="m 0,0 c 14.22,14.22 30.671,24.848 48.224,31.893 21.724,8.72 45.138,11.945 68.114,9.676 14.481,-1.43 28.784,-5.047 42.381,-10.843 7.693,-3.279 15.159,-7.253 22.301,-11.929 4.57,-2.992 9.005,-6.274 13.284,-9.838 3.376,-2.812 6.66,-5.791 9.828,-8.959 3.168,-3.168 6.147,-6.451 8.959,-9.828 -0.506,5.546 -1.321,11.003 -2.437,16.35 -1.744,8.357 -4.213,16.447 -7.334,24.205 -5.516,13.713 -13.073,26.384 -22.301,37.635 -14.641,17.851 -33.479,32.126 -55.006,41.322 -17.394,7.43 -36.541,11.547 -56.651,11.547 -10.158,0 -20.069,-1.055 -29.635,-3.051 C 9.625,111.898 -17.027,96.237 -37.051,74.396 -50.984,21.922 -52.699,-42.403 -42.206,-97.807 c 0.766,26.097 8.566,52.024 23.408,74.695 C -13.445,-14.937 -7.183,-7.183 0,0" /></g><g
           transform="translate(397.292,114.708)"
           id="g8572"><path
             id="path8574"
             style="fill:#9c56b8;fill-opacity:1;fill-rule:nonzero;stroke:none"
             d="m 0,0 c -9.565,-1.996 -19.477,-3.051 -29.635,-3.051 -20.11,0 -39.257,4.117 -56.651,11.547 -21.527,9.196 -40.364,23.471 -55.006,41.322 -9.228,11.251 -16.784,23.922 -22.301,37.635 -3.121,7.758 -5.59,15.848 -7.334,24.205 -1.116,5.347 -1.93,10.804 -2.437,16.35 -0.399,4.376 -0.614,8.805 -0.614,13.284 0,4.479 0.215,8.909 0.614,13.284 -3.564,-4.28 -6.846,-8.714 -9.838,-13.284 -4.676,-7.142 -8.651,-14.608 -11.929,-22.301 -5.796,-13.597 -9.412,-27.9 -10.843,-42.381 -2.269,-22.976 0.956,-46.389 9.676,-68.114 7.046,-17.553 17.673,-34.004 31.893,-48.224 7.183,-7.183 14.937,-13.445 23.112,-18.797 22.671,-14.842 48.598,-22.642 74.695,-23.408 42.658,8.079 80.025,23.386 102.584,45.946 C 54.42,-17.553 68.012,10.771 76.778,43.784 56.755,21.943 30.102,6.282 0,0" /></g><g
           transform="translate(114.708,397.292)"
           id="g8576"><path
             id="path8578"
             style="fill:#51d88b;fill-opacity:1;fill-rule:nonzero;stroke:none"
             d="m 0,0 c 9.565,1.996 19.477,3.051 29.635,3.051 20.11,0 39.257,-4.117 56.651,-11.547 21.527,-9.196 40.364,-23.471 55.006,-41.322 9.228,-11.251 16.784,-23.922 22.301,-37.635 3.121,-7.758 5.59,-15.848 7.334,-24.205 1.116,-5.347 1.93,-10.804 2.437,-16.35 0.399,-4.376 0.614,-8.805 0.614,-13.284 0,-4.479 -0.215,-8.909 -0.614,-13.284 3.564,4.28 6.846,8.714 9.838,13.284 4.676,7.142 8.651,14.608 11.929,22.301 5.796,13.597 9.412,27.9 10.843,42.381 2.269,22.976 -0.956,46.389 -9.676,68.114 -7.046,17.553 -17.673,34.004 -31.893,48.224 -7.183,7.183 -14.937,13.445 -23.112,18.797 C 118.622,73.367 92.695,81.167 66.598,81.933 23.94,73.854 -13.427,58.547 -35.986,35.987 -54.42,17.553 -68.011,-10.771 -76.777,-43.784 -56.754,-21.943 -30.101,-6.282 0,0" /></g><g
           transform="translate(114.708,114.708)"
           id="g8580"><path
             id="path8582"
             style="fill:#2d98e0;fill-opacity:1;fill-rule:nonzero;stroke:none"
             d="m 0,0 c -1.996,9.565 -3.051,19.477 -3.051,29.635 0,20.11 4.117,39.257 11.547,56.651 9.196,21.527 23.471,40.364 41.322,55.006 11.251,9.228 23.922,16.784 37.635,22.301 7.758,3.121 15.848,5.59 24.205,7.334 5.347,1.116 10.804,1.93 16.35,2.437 4.376,0.399 8.805,0.614 13.284,0.614 4.479,0 8.909,-0.215 13.284,-0.614 -4.28,3.564 -8.714,6.846 -13.284,9.838 -7.142,4.676 -14.608,8.651 -22.301,11.929 -13.597,5.796 -27.9,9.412 -42.381,10.843 -22.976,2.269 -46.389,-0.956 -68.114,-9.676 -17.553,-7.046 -34.004,-17.673 -48.224,-31.893 -7.183,-7.183 -13.445,-14.937 -18.797,-23.112 C -73.367,118.622 -81.167,92.695 -81.933,66.598 -73.854,23.94 -58.547,-13.427 -35.987,-35.986 -17.553,-54.42 10.771,-68.011 43.784,-76.777 21.943,-56.754 6.282,-30.101 0,0" /></g><g
           transform="translate(353.508,474.07)"
           id="g8584"><path
             id="path8586"
             style="fill:#e84c3d;fill-opacity:1;fill-rule:nonzero;stroke:none"
             d="m 0,0 c 21.841,-20.024 37.502,-46.677 43.784,-76.778 1.996,-9.565 3.051,-19.477 3.051,-29.635 0,-20.11 -4.117,-39.257 -11.547,-56.651 -9.196,-21.527 -23.471,-40.364 -41.322,-55.006 -11.251,-9.228 -23.922,-16.784 -37.635,-22.301 -7.758,-3.121 -15.848,-5.59 -24.205,-7.334 -5.347,-1.116 -10.804,-1.93 -16.35,-2.437 -4.376,-0.399 -8.805,-0.614 -13.284,-0.614 -4.479,0 -8.909,0.215 -13.284,0.614 4.28,-3.564 8.714,-6.846 13.284,-9.838 7.142,-4.676 14.608,-8.651 22.301,-11.929 13.597,-5.796 27.9,-9.412 42.381,-10.843 22.976,-2.269 46.389,0.956 68.114,9.676 17.553,7.046 34.004,17.673 48.224,31.893 7.183,7.183 13.445,14.937 18.797,23.112 14.842,22.671 22.643,48.599 23.408,74.696 -8.08,42.657 -23.386,80.024 -45.946,102.583 C 61.337,-22.357 33.013,-8.766 0,0" /></g><g
           transform="translate(232.888,74.981)"
           id="g8588"><path
             id="path8590"
             style="fill:#6659ff;fill-opacity:1;fill-rule:nonzero;stroke:none"
             d="m 0,0 c -14.22,14.22 -24.848,30.671 -31.893,48.224 -8.72,21.724 -11.945,45.138 -9.676,68.114 1.43,14.481 5.047,28.784 10.843,42.381 3.279,7.693 7.253,15.159 11.929,22.301 2.992,4.57 6.274,9.005 9.838,13.284 2.812,3.376 5.791,6.66 8.959,9.828 3.168,3.168 6.451,6.147 9.828,8.959 -5.546,-0.506 -11.003,-1.321 -16.35,-2.437 -8.357,-1.744 -16.447,-4.213 -24.205,-7.334 -13.713,-5.516 -26.384,-13.073 -37.635,-22.301 -17.851,-14.641 -32.126,-33.479 -41.322,-55.006 -7.43,-17.394 -11.547,-36.541 -11.547,-56.651 0,-10.158 1.055,-20.069 3.051,-29.635 6.282,-30.102 21.943,-56.754 43.784,-76.778 C -21.923,-50.984 42.403,-52.699 97.807,-42.206 71.71,-41.44 45.783,-33.64 23.112,-18.798 14.937,-13.445 7.183,-7.183 0,0" /></g><g
           transform="translate(279.112,437.019)"
           id="g8592"><path
             id="path8594"
             style="fill:#f1c50e;fill-opacity:1;fill-rule:nonzero;stroke:none"
             d="m 0,0 c 14.22,-14.22 24.848,-30.671 31.893,-48.224 8.72,-21.724 11.945,-45.138 9.676,-68.114 -1.43,-14.481 -5.047,-28.784 -10.843,-42.381 -3.279,-7.693 -7.253,-15.159 -11.929,-22.301 -2.992,-4.57 -6.274,-9.005 -9.838,-13.284 -2.812,-3.376 -5.791,-6.66 -8.959,-9.828 -3.168,-3.168 -6.451,-6.147 -9.828,-8.959 5.546,0.506 11.003,1.321 16.35,2.437 8.357,1.744 16.447,4.213 24.205,7.334 13.713,5.516 26.384,13.073 37.635,22.301 17.851,14.641 32.126,33.479 41.322,55.006 7.43,17.394 11.547,36.541 11.547,56.651 0,10.158 -1.055,20.069 -3.051,29.635 C 111.898,-9.625 96.237,17.027 74.396,37.051 21.922,50.984 -42.403,52.699 -97.807,42.206 -71.71,41.44 -45.783,33.64 -23.112,18.798 -14.937,13.445 -7.183,7.183 0,0" /></g></g></g><g
       id="g8596"><g
         clip-path="url(#clipPath8600)"
         id="g8598"><g
           id="g8604"><g
             id="g8606" /><g
             mask="url(#mask8620)"
             id="g8632"><g
               id="g8634"><path
                 id="path8644"
                 style="fill:url(#radialGradient8636);stroke:none"
                 d="m 181.573,256 c 0,-41.04 33.387,-74.427 74.427,-74.427 l 0,0 c 41.039,0 74.427,33.387 74.427,74.427 l 0,0 c 0,41.039 -33.388,74.427 -74.427,74.427 l 0,0 c -41.04,0 -74.427,-33.388 -74.427,-74.427" /></g></g></g></g></g><g
       id="g8646"><g
         clip-path="url(#clipPath8650)"
         id="g8648"><g
           transform="translate(320.4269,256)"
           id="g8654"><path
             id="path8656"
             style="fill:#ffffff;fill-opacity:1;fill-rule:nonzero;stroke:none"
             d="m 0,0 c 0,-35.582 -28.845,-64.427 -64.427,-64.427 -35.582,0 -64.427,28.845 -64.427,64.427 0,35.582 28.845,64.427 64.427,64.427 C -28.845,64.427 0,35.582 0,0" /></g><g
           id="g8658"><g
             id="g8660" /><g
             id="g8666"><g
               style="opacity:0.39999402"
               id="g8668"
               clip-path="url(#clipPath8662)"><g
                 id="g8670"
                 transform="translate(352.1407,167.9127)"><path
                   id="path8672"
                   style="fill:#000000;fill-opacity:1;fill-rule:nonzero;stroke:none"
                   d="m 0,0 c -4.659,10.568 -6.133,20.491 -12.965,26.017 -13.202,10.677 -23.684,1.458 -34.497,-11.633 l 16.743,20.275 c 3.039,3.679 3.476,8.301 0.977,10.321 l -2.413,1.952 c -2.498,2.02 -6.981,0.68 -10.019,-2.992 l 0.718,0.869 -164.947,114.435 -0.004,-0.005 c -0.033,0.027 -0.062,0.059 -0.095,0.086 -5.349,4.326 -13.237,3.532 -17.619,-1.774 -4.381,-5.305 -3.597,-13.113 1.753,-17.439 0.033,-0.027 0.069,-0.049 0.103,-0.075 l -0.004,-0.005 146.166,-137.175 0.724,0.877 c -3.037,-3.678 -3.475,-8.3 -0.975,-10.32 l 2.413,-1.952 c 2.5,-2.022 6.989,-0.677 10.028,3.002 l 16.42,19.883 c -10.81,-13.094 -17.854,-25.094 -4.652,-35.771 6.692,-5.412 21.796,-12.232 34.158,-13.729 22.763,-2.757 49.445,8.076 49.445,8.076 C 11.519,-24.275 4.349,-9.862 0,0" /></g></g></g></g><g
           transform="translate(326.8792,226.7829)"
           id="g8674"><path
             id="path8676"
             style="fill:#d1d0cf;fill-opacity:1;fill-rule:nonzero;stroke:none"
             d="m 0,0 c 2.438,-2.477 1.434,-7.42 -2.244,-11.039 l -40.175,-39.538 c -3.677,-3.619 -8.635,-4.545 -11.074,-2.067 l -2.354,2.393 c -2.439,2.477 -1.434,7.42 2.244,11.039 l 40.174,39.537 c 3.678,3.62 8.636,4.546 11.074,2.067 L 0,0 Z" /></g><g
           transform="translate(151.2041,370.9964)"
           id="g8678"><path
             id="path8680"
             style="fill:#d3a585;fill-opacity:1;fill-rule:nonzero;stroke:none"
             d="m 0,0 -0.005,-0.005 c -0.032,0.034 -0.059,0.07 -0.091,0.104 -5.219,5.303 -13.748,5.371 -19.05,0.152 -5.303,-5.218 -5.372,-13.748 -0.153,-19.051 0.033,-0.033 0.069,-0.061 0.102,-0.093 l -0.005,-0.005 140.396,-165.391 20.77,20.439 0.392,0.387 20.77,20.44 L 0,0 Z" /></g><g
           transform="translate(342.62,204.3212)"
           id="g8682"><path
             id="path8684"
             style="fill:#595958;fill-opacity:1;fill-rule:nonzero;stroke:none"
             d="m 0,0 c 6.666,-6.773 7.089,-17.67 10.844,-29.636 3.505,-11.167 9.499,-27.584 30.501,-32.952 0,0 -29.798,-8.574 -53.824,-2.923 -13.049,3.069 -28.411,12.212 -34.939,18.845 -12.887,13.094 -3.944,25.241 9.15,38.127 C -25.174,4.348 -12.887,13.094 0,0" /></g></g></g></g></svg>