<?xml version="1.0" encoding="UTF-8" standalone="no"?>
<svg
   xmlns:dc="http://purl.org/dc/elements/1.1/"
   xmlns:cc="http://creativecommons.org/ns#"
   xmlns:rdf="http://www.w3.org/1999/02/22-rdf-syntax-ns#"
   xmlns:svg="http://www.w3.org/2000/svg"
   xmlns="http://www.w3.org/2000/svg"
   viewBox="0 0 640 640"
   height="640"
   width="640"
   xml:space="preserve"
   version="1.1"
   id="svg10182"><metadata
     id="metadata10188"><rdf:RDF><cc:Work
         rdf:about=""><dc:format>image/svg+xml</dc:format><dc:type
           rdf:resource="http://purl.org/dc/dcmitype/StillImage" /><dc:title></dc:title></cc:Work></rdf:RDF></metadata><defs
     id="defs10186"><clipPath
       id="clipPath10196"
       clipPathUnits="userSpaceOnUse"><path
         id="path10198"
         d="M 0,512 512,512 512,0 0,0 0,512 Z" /></clipPath><clipPath
       id="clipPath10204"
       clipPathUnits="userSpaceOnUse"><path
         id="path10206"
         d="m 18.325,493.744 475.4,0 0,-475.4877 -475.4,0 0,475.4877 z" /></clipPath><clipPath
       id="clipPath10208"
       clipPathUnits="userSpaceOnUse"><path
         id="path10210"
         d="M 448.99,63.029 C 389.293,3.332 122.807,3.332 63.11,63.029 3.413,122.726 3.413,389.312 63.01,449.009 c 59.597,59.696 326.283,59.596 385.98,0 59.697,-59.597 59.597,-326.283 0,-385.98" /></clipPath><radialGradient
       id="radialGradient10216"
       spreadMethod="pad"
       gradientTransform="matrix(237.72188,0,0,237.72188,256.02499,256)"
       gradientUnits="userSpaceOnUse"
       r="1"
       cy="0"
       cx="0"
       fy="0"
       fx="0"><stop
         id="stop10218"
         offset="0"
         style="stop-opacity:1;stop-color:#ffffff" /><stop
         id="stop10220"
         offset="0.8587"
         style="stop-opacity:0.14129854;stop-color:#ffffff" /><stop
         id="stop10222"
         offset="1"
         style="stop-opacity:0;stop-color:#ffffff" /></radialGradient><mask
       id="mask10224"
       height="1"
       width="1"
       y="0"
       x="0"
       maskUnits="userSpaceOnUse"><g
         id="g10226"><g
           id="g10228"><g
             id="g10230"><g
               id="g10232"><path
                 id="path10234"
                 style="fill:url(#radialGradient10216);stroke:none"
                 d="m -32768,32767 65535,0 0,-65535 -65535,0 0,65535 z" /></g></g></g></g></mask><radialGradient
       id="radialGradient10236"
       spreadMethod="pad"
       gradientTransform="matrix(237.72188,0,0,237.72188,256.02499,256)"
       gradientUnits="userSpaceOnUse"
       r="1"
       cy="0"
       cx="0"
       fy="0"
       fx="0"><stop
         id="stop10238"
         offset="0"
         style="stop-opacity:1;stop-color:#010101" /><stop
         id="stop10240"
         offset="0.8587"
         style="stop-opacity:1;stop-color:#010101" /><stop
         id="stop10242"
         offset="1"
         style="stop-opacity:1;stop-color:#010101" /></radialGradient><clipPath
       id="clipPath10266"
       clipPathUnits="userSpaceOnUse"><path
         id="path10268"
         d="m 18.325,493.744 475.4,0 0,-475.4877 -475.4,0 0,475.4877 z" /></clipPath><clipPath
       id="clipPath10270"
       clipPathUnits="userSpaceOnUse"><path
         id="path10272"
         d="M 448.99,63.029 C 389.293,3.332 122.807,3.332 63.11,63.029 3.413,122.726 3.413,389.312 63.01,449.009 c 59.597,59.696 326.283,59.596 385.98,0 59.697,-59.597 59.597,-326.283 0,-385.98" /></clipPath><radialGradient
       id="radialGradient10278"
       spreadMethod="pad"
       gradientTransform="matrix(188.25467,188.36119,-130.35883,130.27895,256.02499,256.04376)"
       gradientUnits="userSpaceOnUse"
       r="1"
       cy="0"
       cx="0"
       fy="0"
       fx="0"><stop
         id="stop10280"
         offset="0"
         style="stop-opacity:1;stop-color:#ffffff" /><stop
         id="stop10282"
         offset="0.8587"
         style="stop-opacity:0.14129854;stop-color:#ffffff" /><stop
         id="stop10284"
         offset="1"
         style="stop-opacity:0;stop-color:#ffffff" /></radialGradient><mask
       id="mask10286"
       height="1"
       width="1"
       y="0"
       x="0"
       maskUnits="userSpaceOnUse"><g
         id="g10288"><g
           id="g10290"><g
             id="g10292"><g
               id="g10294"><path
                 id="path10296"
                 style="fill:url(#radialGradient10278);stroke:none"
                 d="m -32768,32767 65535,0 0,-65535 -65535,0 0,65535 z" /></g></g></g></g></mask><radialGradient
       id="radialGradient10298"
       spreadMethod="pad"
       gradientTransform="matrix(188.25467,188.36119,-130.35883,130.27895,256.02499,256.04376)"
       gradientUnits="userSpaceOnUse"
       r="1"
       cy="0"
       cx="0"
       fy="0"
       fx="0"><stop
         id="stop10300"
         offset="0"
         style="stop-opacity:1;stop-color:#010101" /><stop
         id="stop10302"
         offset="0.8587"
         style="stop-opacity:1;stop-color:#010101" /><stop
         id="stop10304"
         offset="1"
         style="stop-opacity:1;stop-color:#010101" /></radialGradient><clipPath
       id="clipPath10328"
       clipPathUnits="userSpaceOnUse"><path
         id="path10330"
         d="m 18.275,493.694 475.387,0 0,-475.4377 -475.387,0 0,475.4377 z" /></clipPath><clipPath
       id="clipPath10332"
       clipPathUnits="userSpaceOnUse"><path
         id="path10334"
         d="m 63.01,63.029 c 59.697,-59.697 326.183,-59.697 385.88,0 59.697,59.697 59.697,326.183 0,385.88 -59.697,59.696 -326.183,59.696 -385.88,0.1 -59.697,-59.597 -59.597,-326.283 0,-385.98" /></clipPath><radialGradient
       id="radialGradient10340"
       spreadMethod="pad"
       gradientTransform="matrix(-188.28767,188.39421,130.38168,130.30179,255.92499,255.99377)"
       gradientUnits="userSpaceOnUse"
       r="1"
       cy="0"
       cx="0"
       fy="0"
       fx="0"><stop
         id="stop10342"
         offset="0"
         style="stop-opacity:1;stop-color:#ffffff" /><stop
         id="stop10344"
         offset="0.8587"
         style="stop-opacity:0.14129854;stop-color:#ffffff" /><stop
         id="stop10346"
         offset="1"
         style="stop-opacity:0;stop-color:#ffffff" /></radialGradient><mask
       id="mask10348"
       height="1"
       width="1"
       y="0"
       x="0"
       maskUnits="userSpaceOnUse"><g
         id="g10350"><g
           id="g10352"><g
             id="g10354"><g
               id="g10356"><path
                 id="path10358"
                 style="fill:url(#radialGradient10340);stroke:none"
                 d="m -32768,32767 65535,0 0,-65535 -65535,0 0,65535 z" /></g></g></g></g></mask><radialGradient
       id="radialGradient10360"
       spreadMethod="pad"
       gradientTransform="matrix(-188.28767,188.39421,130.38168,130.30179,255.92499,255.99377)"
       gradientUnits="userSpaceOnUse"
       r="1"
       cy="0"
       cx="0"
       fy="0"
       fx="0"><stop
         id="stop10362"
         offset="0"
         style="stop-opacity:1;stop-color:#010101" /><stop
         id="stop10364"
         offset="0.8587"
         style="stop-opacity:1;stop-color:#010101" /><stop
         id="stop10366"
         offset="1"
         style="stop-opacity:1;stop-color:#010101" /></radialGradient><linearGradient
       id="linearGradient10398"
       spreadMethod="pad"
       gradientTransform="matrix(459.99939,0,0,459.99939,26.000477,256)"
       gradientUnits="userSpaceOnUse"
       y2="0"
       x2="1"
       y1="0"
       x1="0"><stop
         id="stop10400"
         offset="0"
         style="stop-opacity:1;stop-color:#1f1f21" /><stop
         id="stop10402"
         offset="1"
         style="stop-opacity:1;stop-color:#1f1f21" /></linearGradient><clipPath
       id="clipPath10410"
       clipPathUnits="userSpaceOnUse"><path
         id="path10412"
         d="M 0,512 512,512 512,0 0,0 0,512 Z" /></clipPath></defs><g
     transform="matrix(1.25,0,0,-1.25,0,640)"
     id="g10190"><g
       id="g10192"><g
         clip-path="url(#clipPath10196)"
         id="g10194"><g
           id="g10200"><g
             id="g10202" /><g
             id="g10244"><g
               style="opacity:0.39999402"
               id="g10246"
               clip-path="url(#clipPath10204)"><g
                 id="g10248"><g
                   id="g10250"
                   clip-path="url(#clipPath10208)"><g
                     id="g10252"><g
                       id="g10254" /><g
                       id="g10256"
                       mask="url(#mask10224)"><g
                         id="g10258"><path
                           id="path10260"
                           style="fill:url(#radialGradient10236);stroke:none"
                           d="M 448.99,63.029 C 389.293,3.332 122.807,3.332 63.11,63.029 3.413,122.726 3.413,389.312 63.01,449.009 c 59.597,59.696 326.283,59.596 385.98,0 59.697,-59.597 59.597,-326.283 0,-385.98" /></g></g></g></g></g></g></g></g><g
           id="g10262"><g
             id="g10264" /><g
             id="g10306"><g
               style="opacity:0.39999402"
               id="g10308"
               clip-path="url(#clipPath10266)"><g
                 id="g10310"><g
                   id="g10312"
                   clip-path="url(#clipPath10270)"><g
                     id="g10314"><g
                       id="g10316" /><g
                       id="g10318"
                       mask="url(#mask10286)"><g
                         id="g10320"><path
                           id="path10322"
                           style="fill:url(#radialGradient10298);stroke:none"
                           d="M 448.99,63.029 C 389.293,3.332 122.807,3.332 63.11,63.029 3.413,122.726 3.413,389.312 63.01,449.009 c 59.597,59.696 326.283,59.596 385.98,0 59.697,-59.597 59.597,-326.283 0,-385.98" /></g></g></g></g></g></g></g></g><g
           id="g10324"><g
             id="g10326" /><g
             id="g10368"><g
               style="opacity:0.39999402"
               id="g10370"
               clip-path="url(#clipPath10328)"><g
                 id="g10372"><g
                   id="g10374"
                   clip-path="url(#clipPath10332)"><g
                     id="g10376"><g
                       id="g10378" /><g
                       id="g10380"
                       mask="url(#mask10348)"><g
                         id="g10382"><path
                           id="path10384"
                           style="fill:url(#radialGradient10360);stroke:none"
                           d="m 63.01,63.029 c 59.697,-59.697 326.183,-59.697 385.88,0 59.697,59.697 59.697,326.183 0,385.88 -59.697,59.696 -326.183,59.696 -385.88,0.1 -59.697,-59.597 -59.597,-326.283 0,-385.98" /></g></g></g></g></g></g></g></g></g></g><g
       id="g10386"><g
         id="g10388"><g
           id="g10394"><g
             id="g10396"><path
               id="path10404"
               style="fill:url(#linearGradient10398);stroke:none"
               d="M 78.721,433.279 C 8.427,362.985 8.427,149.015 78.721,78.721 l 0,0 c 70.294,-70.294 284.264,-70.294 354.558,0 l 0,0 c 70.295,70.294 70.294,284.264 0,354.558 l 0,0 C 398.132,468.426 327.066,486 256,486 l 0,0 C 184.934,486 113.868,468.426 78.721,433.279" /></g></g></g></g><g
       id="g10406"><g
         clip-path="url(#clipPath10410)"
         id="g10408"><g
           transform="translate(422.0173,376.3018)"
           id="g10414"><path
             id="path10416"
             style="fill:#ffffff;fill-opacity:1;fill-rule:nonzero;stroke:none"
             d="m 0,0 27.936,0 2.323,4.685 C 26.02,14.902 21.231,24.124 15.937,32.135 L 0,0 Z" /></g><g
           transform="translate(383.2319,376.3018)"
           id="g10418"><path
             id="path10420"
             style="fill:#ffffff;fill-opacity:1;fill-rule:nonzero;stroke:none"
             d="m 0,0 27.936,0 20.323,40.98 c -2.167,2.686 -4.395,5.21 -6.697,7.512 -4.634,4.633 -10.076,8.995 -16.22,13.067 L 27.936,56.329 0,0 Z" /></g><g
           transform="translate(344.4464,376.3018)"
           id="g10422"><path
             id="path10424"
             style="fill:#ffffff;fill-opacity:1;fill-rule:nonzero;stroke:none"
             d="m 0,0 27.936,0 27.935,56.329 -6.93,13.974 C 38.627,75.496 26.989,80.038 14.285,83.854 L 27.936,56.329 0,0 Z" /></g><g
           transform="translate(305.6609,376.3018)"
           id="g10426"><path
             id="path10428"
             style="fill:#ffffff;fill-opacity:1;fill-rule:nonzero;stroke:none"
             d="M 0,0 27.936,0 55.871,56.329 40.506,87.311 C 30.674,89.769 20.317,91.822 9.535,93.433 L 27.936,56.329 0,0 Z" /></g><g
           transform="translate(266.8754,376.3018)"
           id="g10430"><path
             id="path10432"
             style="fill:#ffffff;fill-opacity:1;fill-rule:nonzero;stroke:none"
             d="M 0,0 27.936,0 55.871,56.329 36.705,94.976 c -9.436,1.106 -19.153,1.878 -29.081,2.31 L 27.936,56.329 0,0 Z" /></g><g
           transform="translate(228.0899,376.3018)"
           id="g10434"><path
             id="path10436"
             style="fill:#ffffff;fill-opacity:1;fill-rule:nonzero;stroke:none"
             d="m 0,0 27.936,0 27.935,56.329 -20.481,41.3 c -2.483,0.043 -4.975,0.069 -7.48,0.069 -6.836,0 -13.592,-0.164 -20.252,-0.482 L 27.936,56.329 0,0 Z" /></g><g
           transform="translate(189.3044,376.3018)"
           id="g10438"><path
             id="path10440"
             style="fill:#ffffff;fill-opacity:1;fill-rule:nonzero;stroke:none"
             d="M 0,0 27.936,0 55.871,56.329 35.916,96.566 C 26.851,95.899 17.996,94.94 9.401,93.702 L 27.936,56.329 0,0 Z" /></g><g
           transform="translate(150.519,376.3018)"
           id="g10442"><path
             id="path10444"
             style="fill:#ffffff;fill-opacity:1;fill-rule:nonzero;stroke:none"
             d="M 0,0 27.936,0 55.871,56.329 38.127,92.108 C 29.382,90.59 20.951,88.775 12.882,86.683 L 27.936,56.329 0,0 Z" /></g><g
           transform="translate(170.3148,476.9589)"
           id="g10446"><path
             id="path10448"
             style="fill:#ffffff;fill-opacity:1;fill-rule:nonzero;stroke:none"
             d="M 0,0 C 0.019,0.004 0.038,0.009 0.057,0.013 0.038,0.009 0.019,0.004 0,0" /></g><g
           transform="translate(111.7335,376.3018)"
           id="g10450"><path
             id="path10452"
             style="fill:#ffffff;fill-opacity:1;fill-rule:nonzero;stroke:none"
             d="M 0,0 27.936,0 55.871,56.329 42.131,84.034 C 33.729,81.533 25.781,78.719 18.376,75.605 L 27.936,56.329 0,0 Z" /></g><g
           transform="translate(111.7335,437.9351)"
           id="g10454"><path
             id="path10456"
             style="fill:#ffffff;fill-opacity:1;fill-rule:nonzero;stroke:none"
             d="m 0,0 c 2.761,0 5,-2.239 5,-5 0,-2.761 -2.239,-5 -5,-5 -2.761,0 -5,2.239 -5,5 0,2.761 2.239,5 5,5 M 17.086,-5.304 9.509,9.973 C -4.263,3.33 -15.815,-4.429 -24.527,-13.141 -36.136,-24.75 -46.055,-41.393 -53.888,-61.633 l 43.038,0 27.936,56.329 z" /></g><g
           transform="translate(53.6014,364.3464)"
           id="g10458"><path
             id="path10460"
             style="fill:#ffffff;fill-opacity:1;fill-rule:nonzero;stroke:none"
             d="m 0,0 404.797,0 c -0.641,1.969 -1.3,3.908 -1.976,5.82 L 1.977,5.82 C 1.3,3.908 0.641,1.969 0,0" /></g></g></g></g></svg>