<?xml version="1.0" encoding="UTF-8" standalone="no"?>
<svg
   xmlns:dc="http://purl.org/dc/elements/1.1/"
   xmlns:cc="http://creativecommons.org/ns#"
   xmlns:rdf="http://www.w3.org/1999/02/22-rdf-syntax-ns#"
   xmlns:svg="http://www.w3.org/2000/svg"
   xmlns="http://www.w3.org/2000/svg"
   xmlns:sodipodi="http://sodipodi.sourceforge.net/DTD/sodipodi-0.dtd"
   xmlns:inkscape="http://www.inkscape.org/namespaces/inkscape"
   viewBox="0 0 640 640"
   height="640"
   width="640"
   xml:space="preserve"
   version="1.1"
   id="svg2"
   inkscape:version="0.91 r13725"
   sodipodi:docname="applications-electronics.svg"><sodipodi:namedview
     pagecolor="#ffffff"
     bordercolor="#666666"
     borderopacity="1"
     objecttolerance="10"
     gridtolerance="10"
     guidetolerance="10"
     inkscape:pageopacity="0"
     inkscape:pageshadow="2"
     inkscape:window-width="728"
     inkscape:window-height="480"
     id="namedview249"
     showgrid="false"
     inkscape:zoom="0.36875"
     inkscape:cx="320"
     inkscape:cy="320"
     inkscape:window-x="0"
     inkscape:window-y="0"
     inkscape:window-maximized="0"
     inkscape:current-layer="svg2" /><metadata
     id="metadata8"><rdf:RDF><cc:Work
         rdf:about=""><dc:format>image/svg+xml</dc:format><dc:type
           rdf:resource="http://purl.org/dc/dcmitype/StillImage" /></cc:Work></rdf:RDF></metadata><defs
     id="defs6"><clipPath
       id="clipPath16"
       clipPathUnits="userSpaceOnUse"><path
         id="path18"
         d="M 0,512 512,512 512,0 0,0 0,512 Z" /></clipPath><clipPath
       id="clipPath24"
       clipPathUnits="userSpaceOnUse"><path
         id="path26"
         d="m 18.325,493.744 475.4,0 0,-475.4877 -475.4,0 0,475.4877 z" /></clipPath><clipPath
       id="clipPath28"
       clipPathUnits="userSpaceOnUse"><path
         id="path30"
         d="M 448.99,63.029 C 389.293,3.332 122.807,3.332 63.11,63.029 3.413,122.726 3.413,389.312 63.01,449.009 c 59.597,59.696 326.283,59.596 385.98,0 59.697,-59.597 59.597,-326.283 0,-385.98" /></clipPath><radialGradient
       id="radialGradient36"
       spreadMethod="pad"
       gradientTransform="matrix(237.72188,0,0,237.72188,256.02499,256)"
       gradientUnits="userSpaceOnUse"
       r="1"
       cy="0"
       cx="0"
       fy="0"
       fx="0"><stop
         id="stop38"
         offset="0"
         style="stop-opacity:1;stop-color:#ffffff" /><stop
         id="stop40"
         offset="0.8587"
         style="stop-opacity:0.14129854;stop-color:#ffffff" /><stop
         id="stop42"
         offset="1"
         style="stop-opacity:0;stop-color:#ffffff" /></radialGradient><mask
       id="mask44"
       height="1"
       width="1"
       y="0"
       x="0"
       maskUnits="userSpaceOnUse"><g
         id="g46"><g
           id="g48"><g
             id="g50"><g
               id="g52"><path
                 id="path54"
                 style="fill:url(#radialGradient36);stroke:none"
                 d="m -32768,32767 65535,0 0,-65535 -65535,0 0,65535 z" /></g></g></g></g></mask><radialGradient
       id="radialGradient56"
       spreadMethod="pad"
       gradientTransform="matrix(237.72188,0,0,237.72188,256.02499,256)"
       gradientUnits="userSpaceOnUse"
       r="1"
       cy="0"
       cx="0"
       fy="0"
       fx="0"><stop
         id="stop58"
         offset="0"
         style="stop-opacity:1;stop-color:#010101" /><stop
         id="stop60"
         offset="0.8587"
         style="stop-opacity:1;stop-color:#010101" /><stop
         id="stop62"
         offset="1"
         style="stop-opacity:1;stop-color:#010101" /></radialGradient><clipPath
       id="clipPath86"
       clipPathUnits="userSpaceOnUse"><path
         id="path88"
         d="m 18.325,493.744 475.4,0 0,-475.4877 -475.4,0 0,475.4877 z" /></clipPath><clipPath
       id="clipPath90"
       clipPathUnits="userSpaceOnUse"><path
         id="path92"
         d="M 448.99,63.029 C 389.293,3.332 122.807,3.332 63.11,63.029 3.413,122.726 3.413,389.312 63.01,449.009 c 59.597,59.696 326.283,59.596 385.98,0 59.697,-59.597 59.597,-326.283 0,-385.98" /></clipPath><radialGradient
       id="radialGradient98"
       spreadMethod="pad"
       gradientTransform="matrix(188.25467,188.36119,-130.35883,130.27895,256.02499,256.04376)"
       gradientUnits="userSpaceOnUse"
       r="1"
       cy="0"
       cx="0"
       fy="0"
       fx="0"><stop
         id="stop100"
         offset="0"
         style="stop-opacity:1;stop-color:#ffffff" /><stop
         id="stop102"
         offset="0.8587"
         style="stop-opacity:0.14129854;stop-color:#ffffff" /><stop
         id="stop104"
         offset="1"
         style="stop-opacity:0;stop-color:#ffffff" /></radialGradient><mask
       id="mask106"
       height="1"
       width="1"
       y="0"
       x="0"
       maskUnits="userSpaceOnUse"><g
         id="g108"><g
           id="g110"><g
             id="g112"><g
               id="g114"><path
                 id="path116"
                 style="fill:url(#radialGradient98);stroke:none"
                 d="m -32768,32767 65535,0 0,-65535 -65535,0 0,65535 z" /></g></g></g></g></mask><radialGradient
       id="radialGradient118"
       spreadMethod="pad"
       gradientTransform="matrix(188.25467,188.36119,-130.35883,130.27895,256.02499,256.04376)"
       gradientUnits="userSpaceOnUse"
       r="1"
       cy="0"
       cx="0"
       fy="0"
       fx="0"><stop
         id="stop120"
         offset="0"
         style="stop-opacity:1;stop-color:#010101" /><stop
         id="stop122"
         offset="0.8587"
         style="stop-opacity:1;stop-color:#010101" /><stop
         id="stop124"
         offset="1"
         style="stop-opacity:1;stop-color:#010101" /></radialGradient><clipPath
       id="clipPath148"
       clipPathUnits="userSpaceOnUse"><path
         id="path150"
         d="m 18.275,493.694 475.387,0 0,-475.4377 -475.387,0 0,475.4377 z" /></clipPath><clipPath
       id="clipPath152"
       clipPathUnits="userSpaceOnUse"><path
         id="path154"
         d="m 63.01,63.029 c 59.697,-59.697 326.183,-59.697 385.88,0 59.697,59.697 59.697,326.183 0,385.88 -59.697,59.696 -326.183,59.696 -385.88,0.1 -59.697,-59.597 -59.597,-326.283 0,-385.98" /></clipPath><radialGradient
       id="radialGradient160"
       spreadMethod="pad"
       gradientTransform="matrix(-188.28767,188.39421,130.38168,130.30179,255.92499,255.99377)"
       gradientUnits="userSpaceOnUse"
       r="1"
       cy="0"
       cx="0"
       fy="0"
       fx="0"><stop
         id="stop162"
         offset="0"
         style="stop-opacity:1;stop-color:#ffffff" /><stop
         id="stop164"
         offset="0.8587"
         style="stop-opacity:0.14129854;stop-color:#ffffff" /><stop
         id="stop166"
         offset="1"
         style="stop-opacity:0;stop-color:#ffffff" /></radialGradient><mask
       id="mask168"
       height="1"
       width="1"
       y="0"
       x="0"
       maskUnits="userSpaceOnUse"><g
         id="g170"><g
           id="g172"><g
             id="g174"><g
               id="g176"><path
                 id="path178"
                 style="fill:url(#radialGradient160);stroke:none"
                 d="m -32768,32767 65535,0 0,-65535 -65535,0 0,65535 z" /></g></g></g></g></mask><radialGradient
       id="radialGradient180"
       spreadMethod="pad"
       gradientTransform="matrix(-188.28767,188.39421,130.38168,130.30179,255.92499,255.99377)"
       gradientUnits="userSpaceOnUse"
       r="1"
       cy="0"
       cx="0"
       fy="0"
       fx="0"><stop
         id="stop182"
         offset="0"
         style="stop-opacity:1;stop-color:#010101" /><stop
         id="stop184"
         offset="0.8587"
         style="stop-opacity:1;stop-color:#010101" /><stop
         id="stop186"
         offset="1"
         style="stop-opacity:1;stop-color:#010101" /></radialGradient><radialGradient
       id="radialGradient218"
       spreadMethod="pad"
       gradientTransform="matrix(230,0,0,-230,256,256)"
       gradientUnits="userSpaceOnUse"
       r="1"
       cy="0"
       cx="0"
       fy="0"
       fx="0"><stop
         id="stop220"
         offset="0"
         style="stop-opacity:1;stop-color:#679a3c" /><stop
         id="stop222"
         offset="1"
         style="stop-opacity:1;stop-color:#096b36" /></radialGradient><clipPath
       id="clipPath230"
       clipPathUnits="userSpaceOnUse"><path
         id="path232"
         d="M 0,512 512,512 512,0 0,0 0,512 Z" /></clipPath></defs><g
     transform="matrix(1.25,0,0,-1.25,0,640)"
     id="g10"><g
       id="g12"><g
         clip-path="url(#clipPath16)"
         id="g14"><g
           id="g20"><g
             id="g22" /><g
             id="g64"><g
               style="opacity:0.39999402"
               id="g66"
               clip-path="url(#clipPath24)"><g
                 id="g68"><g
                   id="g70"
                   clip-path="url(#clipPath28)"><g
                     id="g72"><g
                       id="g74" /><g
                       id="g76"
                       mask="url(#mask44)"><g
                         id="g78"><path
                           id="path80"
                           style="fill:url(#radialGradient56);stroke:none"
                           d="M 448.99,63.029 C 389.293,3.332 122.807,3.332 63.11,63.029 3.413,122.726 3.413,389.312 63.01,449.009 c 59.597,59.696 326.283,59.596 385.98,0 59.697,-59.597 59.597,-326.283 0,-385.98" /></g></g></g></g></g></g></g></g><g
           id="g82"><g
             id="g84" /><g
             id="g126"><g
               style="opacity:0.39999402"
               id="g128"
               clip-path="url(#clipPath86)"><g
                 id="g130"><g
                   id="g132"
                   clip-path="url(#clipPath90)"><g
                     id="g134"><g
                       id="g136" /><g
                       id="g138"
                       mask="url(#mask106)"><g
                         id="g140"><path
                           id="path142"
                           style="fill:url(#radialGradient118);stroke:none"
                           d="M 448.99,63.029 C 389.293,3.332 122.807,3.332 63.11,63.029 3.413,122.726 3.413,389.312 63.01,449.009 c 59.597,59.696 326.283,59.596 385.98,0 59.697,-59.597 59.597,-326.283 0,-385.98" /></g></g></g></g></g></g></g></g><g
           id="g144"><g
             id="g146" /><g
             id="g188"><g
               style="opacity:0.39999402"
               id="g190"
               clip-path="url(#clipPath148)"><g
                 id="g192"><g
                   id="g194"
                   clip-path="url(#clipPath152)"><g
                     id="g196"><g
                       id="g198" /><g
                       id="g200"
                       mask="url(#mask168)"><g
                         id="g202"><path
                           id="path204"
                           style="fill:url(#radialGradient180);stroke:none"
                           d="m 63.01,63.029 c 59.697,-59.697 326.183,-59.697 385.88,0 59.697,59.697 59.697,326.183 0,385.88 -59.697,59.696 -326.183,59.696 -385.88,0.1 -59.697,-59.597 -59.597,-326.283 0,-385.98" /></g></g></g></g></g></g></g></g></g></g><g
       id="g206"><g
         id="g208"><g
           id="g214"><g
             id="g216"><path
               id="path224"
               style="fill:url(#radialGradient218);stroke:none"
               d="M 78.721,433.279 C 8.427,362.985 8.427,149.015 78.721,78.721 l 0,0 c 70.294,-70.294 284.264,-70.294 354.558,0 l 0,0 c 70.294,70.294 70.294,284.264 0,354.558 l 0,0 C 398.132,468.426 327.066,486 256,486 l 0,0 C 184.934,486 113.868,468.426 78.721,433.279" /></g></g></g></g><g
       id="g226"><g
         clip-path="url(#clipPath230)"
         id="g228"><g
           transform="translate(194.4023,337.6354)"
           id="g234"><path
             id="path236"
             style="fill:#ffffff;fill-opacity:1;fill-rule:nonzero;stroke:none"
             d="m 0,0 c -11.049,0 -20.038,-8.989 -20.038,-20.038 l 0,-123.195 c 0,-11.048 8.989,-20.037 20.038,-20.037 l 123.195,0 c 11.048,0 20.038,8.989 20.038,20.037 l 0,123.195 C 143.233,-8.989 134.243,0 123.195,0 L 0,0 Z m 123.195,-167.723 -123.195,0 c -13.504,0 -24.491,10.986 -24.491,24.49 l 0,123.195 c 0,13.504 10.987,24.491 24.491,24.491 l 123.195,0 c 13.504,0 24.49,-10.987 24.49,-24.491 l 0,-123.195 c 0,-13.504 -10.986,-24.49 -24.49,-24.49" /></g><g
           transform="translate(172.1382,308.692)"
           id="g238"><path
             id="path240"
             style="fill:#ffffff;fill-opacity:1;fill-rule:nonzero;stroke:none"
             d="m 0,0 -31.912,0 c -1.229,0 -2.226,0.997 -2.226,2.226 0,1.23 0.997,2.227 2.226,2.227 L 0,4.453 C 1.23,4.453 2.226,3.456 2.226,2.226 2.226,0.997 1.23,0 0,0" /></g><g
           transform="translate(172.1382,301.8269)"
           id="g242"><path
             id="path244"
             style="fill:#ffffff;fill-opacity:1;fill-rule:nonzero;stroke:none"
             d="m 0,0 -31.912,0 c -1.229,0 -2.226,0.997 -2.226,2.226 0,1.23 0.997,2.227 2.226,2.227 L 0,4.453 C 1.23,4.453 2.226,3.456 2.226,2.226 2.226,0.997 1.23,0 0,0" /></g><g
           transform="translate(172.1382,294.9622)"
           id="g246"><path
             id="path248"
             style="fill:#ffffff;fill-opacity:1;fill-rule:nonzero;stroke:none"
             d="m 0,0 -31.912,0 c -1.229,0 -2.226,0.997 -2.226,2.226 0,1.23 0.997,2.227 2.226,2.227 L 0,4.453 C 1.23,4.453 2.226,3.456 2.226,2.226 2.226,0.997 1.23,0 0,0" /></g><g
           transform="translate(172.1382,288.0977)"
           id="g250"><path
             id="path252"
             style="fill:#ffffff;fill-opacity:1;fill-rule:nonzero;stroke:none"
             d="m 0,0 -31.912,0 c -1.229,0 -2.226,0.997 -2.226,2.226 0,1.23 0.997,2.227 2.226,2.227 L 0,4.453 C 1.23,4.453 2.226,3.456 2.226,2.226 2.226,0.997 1.23,0 0,0" /></g><g
           transform="translate(172.1382,281.2325)"
           id="g254"><path
             id="path256"
             style="fill:#ffffff;fill-opacity:1;fill-rule:nonzero;stroke:none"
             d="m 0,0 -31.912,0 c -1.229,0 -2.226,0.997 -2.226,2.226 0,1.23 0.997,2.227 2.226,2.227 L 0,4.453 C 1.23,4.453 2.226,3.456 2.226,2.226 2.226,0.997 1.23,0 0,0" /></g><g
           transform="translate(172.1382,274.3679)"
           id="g258"><path
             id="path260"
             style="fill:#ffffff;fill-opacity:1;fill-rule:nonzero;stroke:none"
             d="m 0,0 -31.912,0 c -1.229,0 -2.226,0.997 -2.226,2.226 0,1.23 0.997,2.227 2.226,2.227 L 0,4.453 C 1.23,4.453 2.226,3.456 2.226,2.226 2.226,0.997 1.23,0 0,0" /></g><g
           transform="translate(172.1382,267.5033)"
           id="g262"><path
             id="path264"
             style="fill:#ffffff;fill-opacity:1;fill-rule:nonzero;stroke:none"
             d="m 0,0 -31.912,0 c -1.229,0 -2.226,0.997 -2.226,2.226 0,1.23 0.997,2.227 2.226,2.227 L 0,4.453 C 1.23,4.453 2.226,3.456 2.226,2.226 2.226,0.997 1.23,0 0,0" /></g><g
           transform="translate(172.1382,260.6382)"
           id="g266"><path
             id="path268"
             style="fill:#ffffff;fill-opacity:1;fill-rule:nonzero;stroke:none"
             d="m 0,0 -31.912,0 c -1.229,0 -2.226,0.997 -2.226,2.226 0,1.23 0.997,2.227 2.226,2.227 L 0,4.453 C 1.23,4.453 2.226,3.456 2.226,2.226 2.226,0.997 1.23,0 0,0" /></g><g
           transform="translate(172.1382,253.7736)"
           id="g270"><path
             id="path272"
             style="fill:#ffffff;fill-opacity:1;fill-rule:nonzero;stroke:none"
             d="m 0,0 -31.912,0 c -1.229,0 -2.226,0.997 -2.226,2.226 0,1.23 0.997,2.227 2.226,2.227 L 0,4.453 C 1.23,4.453 2.226,3.456 2.226,2.226 2.226,0.997 1.23,0 0,0" /></g><g
           transform="translate(172.1382,246.9084)"
           id="g274"><path
             id="path276"
             style="fill:#ffffff;fill-opacity:1;fill-rule:nonzero;stroke:none"
             d="m 0,0 -31.912,0 c -1.229,0 -2.226,0.997 -2.226,2.226 0,1.23 0.997,2.227 2.226,2.227 L 0,4.453 C 1.23,4.453 2.226,3.456 2.226,2.226 2.226,0.997 1.23,0 0,0" /></g><g
           transform="translate(172.1382,240.0444)"
           id="g278"><path
             id="path280"
             style="fill:#ffffff;fill-opacity:1;fill-rule:nonzero;stroke:none"
             d="m 0,0 -31.912,0 c -1.229,0 -2.226,0.997 -2.226,2.226 0,1.23 0.997,2.227 2.226,2.227 L 0,4.453 C 1.23,4.453 2.226,3.456 2.226,2.226 2.226,0.997 1.23,0 0,0" /></g><g
           transform="translate(172.1382,233.1792)"
           id="g282"><path
             id="path284"
             style="fill:#ffffff;fill-opacity:1;fill-rule:nonzero;stroke:none"
             d="m 0,0 -31.912,0 c -1.229,0 -2.226,0.997 -2.226,2.226 0,1.23 0.997,2.227 2.226,2.227 L 0,4.453 C 1.23,4.453 2.226,3.456 2.226,2.226 2.226,0.997 1.23,0 0,0" /></g><g
           transform="translate(172.1382,226.3141)"
           id="g286"><path
             id="path288"
             style="fill:#ffffff;fill-opacity:1;fill-rule:nonzero;stroke:none"
             d="m 0,0 -31.912,0 c -1.229,0 -2.226,0.997 -2.226,2.226 0,1.23 0.997,2.227 2.226,2.227 L 0,4.453 C 1.23,4.453 2.226,3.456 2.226,2.226 2.226,0.997 1.23,0 0,0" /></g><g
           transform="translate(172.1382,219.45)"
           id="g290"><path
             id="path292"
             style="fill:#ffffff;fill-opacity:1;fill-rule:nonzero;stroke:none"
             d="m 0,0 -31.912,0 c -1.229,0 -2.226,0.997 -2.226,2.226 0,1.23 0.997,2.227 2.226,2.227 L 0,4.453 C 1.23,4.453 2.226,3.456 2.226,2.226 2.226,0.997 1.23,0 0,0" /></g><g
           transform="translate(172.1382,212.5849)"
           id="g294"><path
             id="path296"
             style="fill:#ffffff;fill-opacity:1;fill-rule:nonzero;stroke:none"
             d="m 0,0 -31.912,0 c -1.229,0 -2.226,0.997 -2.226,2.226 0,1.23 0.997,2.227 2.226,2.227 L 0,4.453 C 1.23,4.453 2.226,3.456 2.226,2.226 2.226,0.997 1.23,0 0,0" /></g><g
           transform="translate(172.1382,205.7198)"
           id="g298"><path
             id="path300"
             style="fill:#ffffff;fill-opacity:1;fill-rule:nonzero;stroke:none"
             d="m 0,0 -31.912,0 c -1.229,0 -2.226,0.997 -2.226,2.226 0,1.23 0.997,2.227 2.226,2.227 L 0,4.453 C 1.23,4.453 2.226,3.456 2.226,2.226 2.226,0.997 1.23,0 0,0" /></g><g
           transform="translate(172.1382,198.8557)"
           id="g302"><path
             id="path304"
             style="fill:#ffffff;fill-opacity:1;fill-rule:nonzero;stroke:none"
             d="m 0,0 -31.912,0 c -1.229,0 -2.226,0.997 -2.226,2.226 0,1.23 0.997,2.227 2.226,2.227 L 0,4.453 C 1.23,4.453 2.226,3.456 2.226,2.226 2.226,0.997 1.23,0 0,0" /></g><g
           transform="translate(371.7736,308.692)"
           id="g306"><path
             id="path308"
             style="fill:#ffffff;fill-opacity:1;fill-rule:nonzero;stroke:none"
             d="m 0,0 -31.912,0 c -1.23,0 -2.227,0.997 -2.227,2.226 0,1.23 0.997,2.227 2.227,2.227 L 0,4.453 C 1.23,4.453 2.226,3.456 2.226,2.226 2.226,0.997 1.23,0 0,0" /></g><g
           transform="translate(371.7736,301.8269)"
           id="g310"><path
             id="path312"
             style="fill:#ffffff;fill-opacity:1;fill-rule:nonzero;stroke:none"
             d="m 0,0 -31.912,0 c -1.23,0 -2.227,0.997 -2.227,2.226 0,1.23 0.997,2.227 2.227,2.227 L 0,4.453 C 1.23,4.453 2.226,3.456 2.226,2.226 2.226,0.997 1.23,0 0,0" /></g><g
           transform="translate(371.7736,294.9622)"
           id="g314"><path
             id="path316"
             style="fill:#ffffff;fill-opacity:1;fill-rule:nonzero;stroke:none"
             d="m 0,0 -31.912,0 c -1.23,0 -2.227,0.997 -2.227,2.226 0,1.23 0.997,2.227 2.227,2.227 L 0,4.453 C 1.23,4.453 2.226,3.456 2.226,2.226 2.226,0.997 1.23,0 0,0" /></g><g
           transform="translate(371.7736,288.0977)"
           id="g318"><path
             id="path320"
             style="fill:#ffffff;fill-opacity:1;fill-rule:nonzero;stroke:none"
             d="m 0,0 -31.912,0 c -1.23,0 -2.227,0.997 -2.227,2.226 0,1.23 0.997,2.227 2.227,2.227 L 0,4.453 C 1.23,4.453 2.226,3.456 2.226,2.226 2.226,0.997 1.23,0 0,0" /></g><g
           transform="translate(371.7736,281.2325)"
           id="g322"><path
             id="path324"
             style="fill:#ffffff;fill-opacity:1;fill-rule:nonzero;stroke:none"
             d="m 0,0 -31.912,0 c -1.23,0 -2.227,0.997 -2.227,2.226 0,1.23 0.997,2.227 2.227,2.227 L 0,4.453 C 1.23,4.453 2.226,3.456 2.226,2.226 2.226,0.997 1.23,0 0,0" /></g><g
           transform="translate(371.7736,274.3679)"
           id="g326"><path
             id="path328"
             style="fill:#ffffff;fill-opacity:1;fill-rule:nonzero;stroke:none"
             d="m 0,0 -31.912,0 c -1.23,0 -2.227,0.997 -2.227,2.226 0,1.23 0.997,2.227 2.227,2.227 L 0,4.453 C 1.23,4.453 2.226,3.456 2.226,2.226 2.226,0.997 1.23,0 0,0" /></g><g
           transform="translate(371.7736,267.5033)"
           id="g330"><path
             id="path332"
             style="fill:#ffffff;fill-opacity:1;fill-rule:nonzero;stroke:none"
             d="m 0,0 -31.912,0 c -1.23,0 -2.227,0.997 -2.227,2.226 0,1.23 0.997,2.227 2.227,2.227 L 0,4.453 C 1.23,4.453 2.226,3.456 2.226,2.226 2.226,0.997 1.23,0 0,0" /></g><g
           transform="translate(371.7736,260.6382)"
           id="g334"><path
             id="path336"
             style="fill:#ffffff;fill-opacity:1;fill-rule:nonzero;stroke:none"
             d="m 0,0 -31.912,0 c -1.23,0 -2.227,0.997 -2.227,2.226 0,1.23 0.997,2.227 2.227,2.227 L 0,4.453 C 1.23,4.453 2.226,3.456 2.226,2.226 2.226,0.997 1.23,0 0,0" /></g><g
           transform="translate(371.7736,253.7736)"
           id="g338"><path
             id="path340"
             style="fill:#ffffff;fill-opacity:1;fill-rule:nonzero;stroke:none"
             d="m 0,0 -31.912,0 c -1.23,0 -2.227,0.997 -2.227,2.226 0,1.23 0.997,2.227 2.227,2.227 L 0,4.453 C 1.23,4.453 2.226,3.456 2.226,2.226 2.226,0.997 1.23,0 0,0" /></g><g
           transform="translate(371.7736,246.9084)"
           id="g342"><path
             id="path344"
             style="fill:#ffffff;fill-opacity:1;fill-rule:nonzero;stroke:none"
             d="m 0,0 -31.912,0 c -1.23,0 -2.227,0.997 -2.227,2.226 0,1.23 0.997,2.227 2.227,2.227 L 0,4.453 C 1.23,4.453 2.226,3.456 2.226,2.226 2.226,0.997 1.23,0 0,0" /></g><g
           transform="translate(371.7736,240.0444)"
           id="g346"><path
             id="path348"
             style="fill:#ffffff;fill-opacity:1;fill-rule:nonzero;stroke:none"
             d="m 0,0 -31.912,0 c -1.23,0 -2.227,0.997 -2.227,2.226 0,1.23 0.997,2.227 2.227,2.227 L 0,4.453 C 1.23,4.453 2.226,3.456 2.226,2.226 2.226,0.997 1.23,0 0,0" /></g><g
           transform="translate(371.7736,233.1792)"
           id="g350"><path
             id="path352"
             style="fill:#ffffff;fill-opacity:1;fill-rule:nonzero;stroke:none"
             d="m 0,0 -31.912,0 c -1.23,0 -2.227,0.997 -2.227,2.226 0,1.23 0.997,2.227 2.227,2.227 L 0,4.453 C 1.23,4.453 2.226,3.456 2.226,2.226 2.226,0.997 1.23,0 0,0" /></g><g
           transform="translate(371.7736,226.3141)"
           id="g354"><path
             id="path356"
             style="fill:#ffffff;fill-opacity:1;fill-rule:nonzero;stroke:none"
             d="m 0,0 -31.912,0 c -1.23,0 -2.227,0.997 -2.227,2.226 0,1.23 0.997,2.227 2.227,2.227 L 0,4.453 C 1.23,4.453 2.226,3.456 2.226,2.226 2.226,0.997 1.23,0 0,0" /></g><g
           transform="translate(371.7736,219.45)"
           id="g358"><path
             id="path360"
             style="fill:#ffffff;fill-opacity:1;fill-rule:nonzero;stroke:none"
             d="m 0,0 -31.912,0 c -1.23,0 -2.227,0.997 -2.227,2.226 0,1.23 0.997,2.227 2.227,2.227 L 0,4.453 C 1.23,4.453 2.226,3.456 2.226,2.226 2.226,0.997 1.23,0 0,0" /></g><g
           transform="translate(371.7736,212.5849)"
           id="g362"><path
             id="path364"
             style="fill:#ffffff;fill-opacity:1;fill-rule:nonzero;stroke:none"
             d="m 0,0 -31.912,0 c -1.23,0 -2.227,0.997 -2.227,2.226 0,1.23 0.997,2.227 2.227,2.227 L 0,4.453 C 1.23,4.453 2.226,3.456 2.226,2.226 2.226,0.997 1.23,0 0,0" /></g><g
           transform="translate(371.7736,205.7198)"
           id="g366"><path
             id="path368"
             style="fill:#ffffff;fill-opacity:1;fill-rule:nonzero;stroke:none"
             d="m 0,0 -31.912,0 c -1.23,0 -2.227,0.997 -2.227,2.226 0,1.23 0.997,2.227 2.227,2.227 L 0,4.453 C 1.23,4.453 2.226,3.456 2.226,2.226 2.226,0.997 1.23,0 0,0" /></g><g
           transform="translate(371.7736,198.8557)"
           id="g370"><path
             id="path372"
             style="fill:#ffffff;fill-opacity:1;fill-rule:nonzero;stroke:none"
             d="m 0,0 -31.912,0 c -1.23,0 -2.227,0.997 -2.227,2.226 0,1.23 0.997,2.227 2.227,2.227 L 0,4.453 C 1.23,4.453 2.226,3.456 2.226,2.226 2.226,0.997 1.23,0 0,0" /></g><g
           transform="translate(201.0816,138)"
           id="g374"><path
             id="path376"
             style="fill:#ffffff;fill-opacity:1;fill-rule:nonzero;stroke:none"
             d="m 0,0 c -1.23,0 -2.226,0.997 -2.226,2.226 l 0,31.913 c 0,1.229 0.996,2.226 2.226,2.226 1.23,0 2.226,-0.997 2.226,-2.226 l 0,-31.913 C 2.226,0.997 1.23,0 0,0" /></g><g
           transform="translate(207.9467,138)"
           id="g378"><path
             id="path380"
             style="fill:#ffffff;fill-opacity:1;fill-rule:nonzero;stroke:none"
             d="m 0,0 c -1.23,0 -2.226,0.997 -2.226,2.226 l 0,31.913 c 0,1.229 0.996,2.226 2.226,2.226 1.23,0 2.226,-0.997 2.226,-2.226 l 0,-31.913 C 2.226,0.997 1.23,0 0,0" /></g><g
           transform="translate(214.8113,138)"
           id="g382"><path
             id="path384"
             style="fill:#ffffff;fill-opacity:1;fill-rule:nonzero;stroke:none"
             d="m 0,0 c -1.23,0 -2.226,0.997 -2.226,2.226 l 0,31.913 c 0,1.229 0.996,2.226 2.226,2.226 1.23,0 2.226,-0.997 2.226,-2.226 l 0,-31.913 C 2.226,0.997 1.23,0 0,0" /></g><g
           transform="translate(221.6759,138)"
           id="g386"><path
             id="path388"
             style="fill:#ffffff;fill-opacity:1;fill-rule:nonzero;stroke:none"
             d="m 0,0 c -1.23,0 -2.226,0.997 -2.226,2.226 l 0,31.913 c 0,1.229 0.996,2.226 2.226,2.226 1.23,0 2.226,-0.997 2.226,-2.226 l 0,-31.913 C 2.226,0.997 1.23,0 0,0" /></g><g
           transform="translate(228.5411,138)"
           id="g390"><path
             id="path392"
             style="fill:#ffffff;fill-opacity:1;fill-rule:nonzero;stroke:none"
             d="m 0,0 c -1.23,0 -2.226,0.997 -2.226,2.226 l 0,31.913 c 0,1.229 0.996,2.226 2.226,2.226 1.23,0 2.226,-0.997 2.226,-2.226 l 0,-31.913 C 2.226,0.997 1.23,0 0,0" /></g><g
           transform="translate(235.4057,138)"
           id="g394"><path
             id="path396"
             style="fill:#ffffff;fill-opacity:1;fill-rule:nonzero;stroke:none"
             d="m 0,0 c -1.23,0 -2.226,0.997 -2.226,2.226 l 0,31.913 c 0,1.229 0.996,2.226 2.226,2.226 1.23,0 2.226,-0.997 2.226,-2.226 l 0,-31.913 C 2.226,0.997 1.23,0 0,0" /></g><g
           transform="translate(242.2703,138)"
           id="g398"><path
             id="path400"
             style="fill:#ffffff;fill-opacity:1;fill-rule:nonzero;stroke:none"
             d="m 0,0 c -1.23,0 -2.226,0.997 -2.226,2.226 l 0,31.913 c 0,1.229 0.996,2.226 2.226,2.226 1.23,0 2.226,-0.997 2.226,-2.226 l 0,-31.913 C 2.226,0.997 1.23,0 0,0" /></g><g
           transform="translate(249.1354,138)"
           id="g402"><path
             id="path404"
             style="fill:#ffffff;fill-opacity:1;fill-rule:nonzero;stroke:none"
             d="m 0,0 c -1.23,0 -2.226,0.997 -2.226,2.226 l 0,31.913 c 0,1.229 0.996,2.226 2.226,2.226 1.23,0 2.226,-0.997 2.226,-2.226 l 0,-31.913 C 2.226,0.997 1.23,0 0,0" /></g><g
           transform="translate(256,138)"
           id="g406"><path
             id="path408"
             style="fill:#ffffff;fill-opacity:1;fill-rule:nonzero;stroke:none"
             d="m 0,0 c -1.23,0 -2.226,0.997 -2.226,2.226 l 0,31.913 c 0,1.229 0.996,2.226 2.226,2.226 1.23,0 2.226,-0.997 2.226,-2.226 l 0,-31.913 C 2.226,0.997 1.23,0 0,0" /></g><g
           transform="translate(262.8651,138)"
           id="g410"><path
             id="path412"
             style="fill:#ffffff;fill-opacity:1;fill-rule:nonzero;stroke:none"
             d="m 0,0 c -1.23,0 -2.226,0.997 -2.226,2.226 l 0,31.913 c 0,1.229 0.996,2.226 2.226,2.226 1.23,0 2.226,-0.997 2.226,-2.226 l 0,-31.913 C 2.226,0.997 1.23,0 0,0" /></g><g
           transform="translate(269.7292,138)"
           id="g414"><path
             id="path416"
             style="fill:#ffffff;fill-opacity:1;fill-rule:nonzero;stroke:none"
             d="m 0,0 c -1.23,0 -2.226,0.997 -2.226,2.226 l 0,31.913 c 0,1.229 0.996,2.226 2.226,2.226 1.23,0 2.226,-0.997 2.226,-2.226 l 0,-31.913 C 2.226,0.997 1.23,0 0,0" /></g><g
           transform="translate(276.5943,138)"
           id="g418"><path
             id="path420"
             style="fill:#ffffff;fill-opacity:1;fill-rule:nonzero;stroke:none"
             d="m 0,0 c -1.23,0 -2.226,0.997 -2.226,2.226 l 0,31.913 c 0,1.229 0.996,2.226 2.226,2.226 1.23,0 2.226,-0.997 2.226,-2.226 l 0,-31.913 C 2.226,0.997 1.23,0 0,0" /></g><g
           transform="translate(283.4595,138)"
           id="g422"><path
             id="path424"
             style="fill:#ffffff;fill-opacity:1;fill-rule:nonzero;stroke:none"
             d="m 0,0 c -1.23,0 -2.226,0.997 -2.226,2.226 l 0,31.913 c 0,1.229 0.996,2.226 2.226,2.226 1.23,0 2.226,-0.997 2.226,-2.226 l 0,-31.913 C 2.226,0.997 1.23,0 0,0" /></g><g
           transform="translate(290.3235,138)"
           id="g426"><path
             id="path428"
             style="fill:#ffffff;fill-opacity:1;fill-rule:nonzero;stroke:none"
             d="m 0,0 c -1.23,0 -2.226,0.997 -2.226,2.226 l 0,31.913 c 0,1.229 0.996,2.226 2.226,2.226 1.23,0 2.226,-0.997 2.226,-2.226 l 0,-31.913 C 2.226,0.997 1.23,0 0,0" /></g><g
           transform="translate(297.1887,138)"
           id="g430"><path
             id="path432"
             style="fill:#ffffff;fill-opacity:1;fill-rule:nonzero;stroke:none"
             d="m 0,0 c -1.23,0 -2.226,0.997 -2.226,2.226 l 0,31.913 c 0,1.229 0.996,2.226 2.226,2.226 1.23,0 2.226,-0.997 2.226,-2.226 l 0,-31.913 C 2.226,0.997 1.23,0 0,0" /></g><g
           transform="translate(304.0538,138)"
           id="g434"><path
             id="path436"
             style="fill:#ffffff;fill-opacity:1;fill-rule:nonzero;stroke:none"
             d="m 0,0 c -1.23,0 -2.226,0.997 -2.226,2.226 l 0,31.913 c 0,1.229 0.996,2.226 2.226,2.226 1.23,0 2.226,-0.997 2.226,-2.226 l 0,-31.913 C 2.226,0.997 1.23,0 0,0" /></g><g
           transform="translate(310.9179,138)"
           id="g438"><path
             id="path440"
             style="fill:#ffffff;fill-opacity:1;fill-rule:nonzero;stroke:none"
             d="m 0,0 c -1.23,0 -2.226,0.997 -2.226,2.226 l 0,31.913 c 0,1.229 0.996,2.226 2.226,2.226 1.23,0 2.226,-0.997 2.226,-2.226 l 0,-31.913 C 2.226,0.997 1.23,0 0,0" /></g><g
           transform="translate(201.0816,337.6354)"
           id="g442"><path
             id="path444"
             style="fill:#ffffff;fill-opacity:1;fill-rule:nonzero;stroke:none"
             d="m 0,0 c -1.23,0 -2.226,0.997 -2.226,2.226 l 0,31.912 c 0,1.23 0.996,2.227 2.226,2.227 1.23,0 2.226,-0.997 2.226,-2.227 l 0,-31.912 C 2.226,0.997 1.23,0 0,0" /></g><g
           transform="translate(207.9467,337.6354)"
           id="g446"><path
             id="path448"
             style="fill:#ffffff;fill-opacity:1;fill-rule:nonzero;stroke:none"
             d="m 0,0 c -1.23,0 -2.226,0.997 -2.226,2.226 l 0,31.912 c 0,1.23 0.996,2.227 2.226,2.227 1.23,0 2.226,-0.997 2.226,-2.227 l 0,-31.912 C 2.226,0.997 1.23,0 0,0" /></g><g
           transform="translate(214.8113,337.6354)"
           id="g450"><path
             id="path452"
             style="fill:#ffffff;fill-opacity:1;fill-rule:nonzero;stroke:none"
             d="m 0,0 c -1.23,0 -2.226,0.997 -2.226,2.226 l 0,31.912 c 0,1.23 0.996,2.227 2.226,2.227 1.23,0 2.226,-0.997 2.226,-2.227 l 0,-31.912 C 2.226,0.997 1.23,0 0,0" /></g><g
           transform="translate(221.6759,337.6354)"
           id="g454"><path
             id="path456"
             style="fill:#ffffff;fill-opacity:1;fill-rule:nonzero;stroke:none"
             d="m 0,0 c -1.23,0 -2.226,0.997 -2.226,2.226 l 0,31.912 c 0,1.23 0.996,2.227 2.226,2.227 1.23,0 2.226,-0.997 2.226,-2.227 l 0,-31.912 C 2.226,0.997 1.23,0 0,0" /></g><g
           transform="translate(228.5411,337.6354)"
           id="g458"><path
             id="path460"
             style="fill:#ffffff;fill-opacity:1;fill-rule:nonzero;stroke:none"
             d="m 0,0 c -1.23,0 -2.226,0.997 -2.226,2.226 l 0,31.912 c 0,1.23 0.996,2.227 2.226,2.227 1.23,0 2.226,-0.997 2.226,-2.227 l 0,-31.912 C 2.226,0.997 1.23,0 0,0" /></g><g
           transform="translate(235.4057,337.6354)"
           id="g462"><path
             id="path464"
             style="fill:#ffffff;fill-opacity:1;fill-rule:nonzero;stroke:none"
             d="m 0,0 c -1.23,0 -2.226,0.997 -2.226,2.226 l 0,31.912 c 0,1.23 0.996,2.227 2.226,2.227 1.23,0 2.226,-0.997 2.226,-2.227 l 0,-31.912 C 2.226,0.997 1.23,0 0,0" /></g><g
           transform="translate(242.2703,337.6354)"
           id="g466"><path
             id="path468"
             style="fill:#ffffff;fill-opacity:1;fill-rule:nonzero;stroke:none"
             d="m 0,0 c -1.23,0 -2.226,0.997 -2.226,2.226 l 0,31.912 c 0,1.23 0.996,2.227 2.226,2.227 1.23,0 2.226,-0.997 2.226,-2.227 l 0,-31.912 C 2.226,0.997 1.23,0 0,0" /></g><g
           transform="translate(249.1354,337.6354)"
           id="g470"><path
             id="path472"
             style="fill:#ffffff;fill-opacity:1;fill-rule:nonzero;stroke:none"
             d="m 0,0 c -1.23,0 -2.226,0.997 -2.226,2.226 l 0,31.912 c 0,1.23 0.996,2.227 2.226,2.227 1.23,0 2.226,-0.997 2.226,-2.227 l 0,-31.912 C 2.226,0.997 1.23,0 0,0" /></g><g
           transform="translate(256,337.6354)"
           id="g474"><path
             id="path476"
             style="fill:#ffffff;fill-opacity:1;fill-rule:nonzero;stroke:none"
             d="m 0,0 c -1.23,0 -2.226,0.997 -2.226,2.226 l 0,31.912 c 0,1.23 0.996,2.227 2.226,2.227 1.23,0 2.226,-0.997 2.226,-2.227 l 0,-31.912 C 2.226,0.997 1.23,0 0,0" /></g><g
           transform="translate(262.8651,337.6354)"
           id="g478"><path
             id="path480"
             style="fill:#ffffff;fill-opacity:1;fill-rule:nonzero;stroke:none"
             d="m 0,0 c -1.23,0 -2.226,0.997 -2.226,2.226 l 0,31.912 c 0,1.23 0.996,2.227 2.226,2.227 1.23,0 2.226,-0.997 2.226,-2.227 l 0,-31.912 C 2.226,0.997 1.23,0 0,0" /></g><g
           transform="translate(269.7292,337.6354)"
           id="g482"><path
             id="path484"
             style="fill:#ffffff;fill-opacity:1;fill-rule:nonzero;stroke:none"
             d="m 0,0 c -1.23,0 -2.226,0.997 -2.226,2.226 l 0,31.912 c 0,1.23 0.996,2.227 2.226,2.227 1.23,0 2.226,-0.997 2.226,-2.227 l 0,-31.912 C 2.226,0.997 1.23,0 0,0" /></g><g
           transform="translate(276.5943,337.6354)"
           id="g486"><path
             id="path488"
             style="fill:#ffffff;fill-opacity:1;fill-rule:nonzero;stroke:none"
             d="m 0,0 c -1.23,0 -2.226,0.997 -2.226,2.226 l 0,31.912 c 0,1.23 0.996,2.227 2.226,2.227 1.23,0 2.226,-0.997 2.226,-2.227 l 0,-31.912 C 2.226,0.997 1.23,0 0,0" /></g><g
           transform="translate(283.4595,337.6354)"
           id="g490"><path
             id="path492"
             style="fill:#ffffff;fill-opacity:1;fill-rule:nonzero;stroke:none"
             d="m 0,0 c -1.23,0 -2.226,0.997 -2.226,2.226 l 0,31.912 c 0,1.23 0.996,2.227 2.226,2.227 1.23,0 2.226,-0.997 2.226,-2.227 l 0,-31.912 C 2.226,0.997 1.23,0 0,0" /></g><g
           transform="translate(290.3235,337.6354)"
           id="g494"><path
             id="path496"
             style="fill:#ffffff;fill-opacity:1;fill-rule:nonzero;stroke:none"
             d="m 0,0 c -1.23,0 -2.226,0.997 -2.226,2.226 l 0,31.912 c 0,1.23 0.996,2.227 2.226,2.227 1.23,0 2.226,-0.997 2.226,-2.227 l 0,-31.912 C 2.226,0.997 1.23,0 0,0" /></g><g
           transform="translate(297.1887,337.6354)"
           id="g498"><path
             id="path500"
             style="fill:#ffffff;fill-opacity:1;fill-rule:nonzero;stroke:none"
             d="m 0,0 c -1.23,0 -2.226,0.997 -2.226,2.226 l 0,31.912 c 0,1.23 0.996,2.227 2.226,2.227 1.23,0 2.226,-0.997 2.226,-2.227 l 0,-31.912 C 2.226,0.997 1.23,0 0,0" /></g><g
           transform="translate(304.0538,337.6354)"
           id="g502"><path
             id="path504"
             style="fill:#ffffff;fill-opacity:1;fill-rule:nonzero;stroke:none"
             d="m 0,0 c -1.23,0 -2.226,0.997 -2.226,2.226 l 0,31.912 c 0,1.23 0.996,2.227 2.226,2.227 1.23,0 2.226,-0.997 2.226,-2.227 l 0,-31.912 C 2.226,0.997 1.23,0 0,0" /></g><g
           transform="translate(310.9179,337.6354)"
           id="g506"><path
             id="path508"
             style="fill:#ffffff;fill-opacity:1;fill-rule:nonzero;stroke:none"
             d="m 0,0 c -1.23,0 -2.226,0.997 -2.226,2.226 l 0,31.912 c 0,1.23 0.996,2.227 2.226,2.227 1.23,0 2.226,-0.997 2.226,-2.227 l 0,-31.912 C 2.226,0.997 1.23,0 0,0" /></g><g
           transform="translate(258.2835,295.0196)"
           id="g510" /></g></g></g></svg>