<?xml version="1.0" encoding="UTF-8" standalone="no"?>
<svg
   xmlns:dc="http://purl.org/dc/elements/1.1/"
   xmlns:cc="http://creativecommons.org/ns#"
   xmlns:rdf="http://www.w3.org/1999/02/22-rdf-syntax-ns#"
   xmlns:svg="http://www.w3.org/2000/svg"
   xmlns="http://www.w3.org/2000/svg"
   viewBox="0 0 640 640"
   height="640"
   width="640"
   xml:space="preserve"
   version="1.1"
   id="svg6808"><metadata
     id="metadata6814"><rdf:RDF><cc:Work
         rdf:about=""><dc:format>image/svg+xml</dc:format><dc:type
           rdf:resource="http://purl.org/dc/dcmitype/StillImage" /><dc:title></dc:title></cc:Work></rdf:RDF></metadata><defs
     id="defs6812"><clipPath
       id="clipPath6822"
       clipPathUnits="userSpaceOnUse"><path
         id="path6824"
         d="M 0,512 512,512 512,0 0,0 0,512 Z" /></clipPath><clipPath
       id="clipPath6830"
       clipPathUnits="userSpaceOnUse"><path
         id="path6832"
         d="m 18.325,493.744 475.4,0 0,-475.4877 -475.4,0 0,475.4877 z" /></clipPath><clipPath
       id="clipPath6834"
       clipPathUnits="userSpaceOnUse"><path
         id="path6836"
         d="M 448.99,63.029 C 389.293,3.332 122.807,3.332 63.11,63.029 3.413,122.726 3.413,389.312 63.01,449.009 c 59.597,59.696 326.283,59.596 385.98,0 59.697,-59.597 59.597,-326.283 0,-385.98" /></clipPath><radialGradient
       id="radialGradient6842"
       spreadMethod="pad"
       gradientTransform="matrix(237.72188,0,0,237.72188,256.02499,256)"
       gradientUnits="userSpaceOnUse"
       r="1"
       cy="0"
       cx="0"
       fy="0"
       fx="0"><stop
         id="stop6844"
         offset="0"
         style="stop-opacity:1;stop-color:#ffffff" /><stop
         id="stop6846"
         offset="0.8587"
         style="stop-opacity:0.14129854;stop-color:#ffffff" /><stop
         id="stop6848"
         offset="1"
         style="stop-opacity:0;stop-color:#ffffff" /></radialGradient><mask
       id="mask6850"
       height="1"
       width="1"
       y="0"
       x="0"
       maskUnits="userSpaceOnUse"><g
         id="g6852"><g
           id="g6854"><g
             id="g6856"><g
               id="g6858"><path
                 id="path6860"
                 style="fill:url(#radialGradient6842);stroke:none"
                 d="m -32768,32767 65535,0 0,-65535 -65535,0 0,65535 z" /></g></g></g></g></mask><radialGradient
       id="radialGradient6862"
       spreadMethod="pad"
       gradientTransform="matrix(237.72188,0,0,237.72188,256.02499,256)"
       gradientUnits="userSpaceOnUse"
       r="1"
       cy="0"
       cx="0"
       fy="0"
       fx="0"><stop
         id="stop6864"
         offset="0"
         style="stop-opacity:1;stop-color:#010101" /><stop
         id="stop6866"
         offset="0.8587"
         style="stop-opacity:1;stop-color:#010101" /><stop
         id="stop6868"
         offset="1"
         style="stop-opacity:1;stop-color:#010101" /></radialGradient><clipPath
       id="clipPath6892"
       clipPathUnits="userSpaceOnUse"><path
         id="path6894"
         d="m 18.325,493.744 475.4,0 0,-475.4877 -475.4,0 0,475.4877 z" /></clipPath><clipPath
       id="clipPath6896"
       clipPathUnits="userSpaceOnUse"><path
         id="path6898"
         d="M 448.99,63.029 C 389.293,3.332 122.807,3.332 63.11,63.029 3.413,122.726 3.413,389.312 63.01,449.009 c 59.597,59.696 326.283,59.596 385.98,0 59.697,-59.597 59.597,-326.283 0,-385.98" /></clipPath><radialGradient
       id="radialGradient6904"
       spreadMethod="pad"
       gradientTransform="matrix(188.25467,188.36119,-130.35883,130.27895,256.02499,256.04376)"
       gradientUnits="userSpaceOnUse"
       r="1"
       cy="0"
       cx="0"
       fy="0"
       fx="0"><stop
         id="stop6906"
         offset="0"
         style="stop-opacity:1;stop-color:#ffffff" /><stop
         id="stop6908"
         offset="0.8587"
         style="stop-opacity:0.14129854;stop-color:#ffffff" /><stop
         id="stop6910"
         offset="1"
         style="stop-opacity:0;stop-color:#ffffff" /></radialGradient><mask
       id="mask6912"
       height="1"
       width="1"
       y="0"
       x="0"
       maskUnits="userSpaceOnUse"><g
         id="g6914"><g
           id="g6916"><g
             id="g6918"><g
               id="g6920"><path
                 id="path6922"
                 style="fill:url(#radialGradient6904);stroke:none"
                 d="m -32768,32767 65535,0 0,-65535 -65535,0 0,65535 z" /></g></g></g></g></mask><radialGradient
       id="radialGradient6924"
       spreadMethod="pad"
       gradientTransform="matrix(188.25467,188.36119,-130.35883,130.27895,256.02499,256.04376)"
       gradientUnits="userSpaceOnUse"
       r="1"
       cy="0"
       cx="0"
       fy="0"
       fx="0"><stop
         id="stop6926"
         offset="0"
         style="stop-opacity:1;stop-color:#010101" /><stop
         id="stop6928"
         offset="0.8587"
         style="stop-opacity:1;stop-color:#010101" /><stop
         id="stop6930"
         offset="1"
         style="stop-opacity:1;stop-color:#010101" /></radialGradient><clipPath
       id="clipPath6954"
       clipPathUnits="userSpaceOnUse"><path
         id="path6956"
         d="m 18.275,493.694 475.387,0 0,-475.4377 -475.387,0 0,475.4377 z" /></clipPath><clipPath
       id="clipPath6958"
       clipPathUnits="userSpaceOnUse"><path
         id="path6960"
         d="m 63.01,63.029 c 59.697,-59.697 326.183,-59.697 385.88,0 59.697,59.697 59.697,326.183 0,385.88 -59.697,59.696 -326.183,59.696 -385.88,0.1 -59.697,-59.597 -59.597,-326.283 0,-385.98" /></clipPath><radialGradient
       id="radialGradient6966"
       spreadMethod="pad"
       gradientTransform="matrix(-188.28767,188.39421,130.38168,130.30179,255.92499,255.99377)"
       gradientUnits="userSpaceOnUse"
       r="1"
       cy="0"
       cx="0"
       fy="0"
       fx="0"><stop
         id="stop6968"
         offset="0"
         style="stop-opacity:1;stop-color:#ffffff" /><stop
         id="stop6970"
         offset="0.8587"
         style="stop-opacity:0.14129854;stop-color:#ffffff" /><stop
         id="stop6972"
         offset="1"
         style="stop-opacity:0;stop-color:#ffffff" /></radialGradient><mask
       id="mask6974"
       height="1"
       width="1"
       y="0"
       x="0"
       maskUnits="userSpaceOnUse"><g
         id="g6976"><g
           id="g6978"><g
             id="g6980"><g
               id="g6982"><path
                 id="path6984"
                 style="fill:url(#radialGradient6966);stroke:none"
                 d="m -32768,32767 65535,0 0,-65535 -65535,0 0,65535 z" /></g></g></g></g></mask><radialGradient
       id="radialGradient6986"
       spreadMethod="pad"
       gradientTransform="matrix(-188.28767,188.39421,130.38168,130.30179,255.92499,255.99377)"
       gradientUnits="userSpaceOnUse"
       r="1"
       cy="0"
       cx="0"
       fy="0"
       fx="0"><stop
         id="stop6988"
         offset="0"
         style="stop-opacity:1;stop-color:#010101" /><stop
         id="stop6990"
         offset="0.8587"
         style="stop-opacity:1;stop-color:#010101" /><stop
         id="stop6992"
         offset="1"
         style="stop-opacity:1;stop-color:#010101" /></radialGradient></defs><g
     transform="matrix(1.25,0,0,-1.25,0,640)"
     id="g6816"><g
       id="g6818"><g
         clip-path="url(#clipPath6822)"
         id="g6820"><g
           id="g6826"><g
             id="g6828" /><g
             id="g6870"><g
               style="opacity:0.39999402"
               id="g6872"
               clip-path="url(#clipPath6830)"><g
                 id="g6874"><g
                   id="g6876"
                   clip-path="url(#clipPath6834)"><g
                     id="g6878"><g
                       id="g6880" /><g
                       id="g6882"
                       mask="url(#mask6850)"><g
                         id="g6884"><path
                           id="path6886"
                           style="fill:url(#radialGradient6862);stroke:none"
                           d="M 448.99,63.029 C 389.293,3.332 122.807,3.332 63.11,63.029 3.413,122.726 3.413,389.312 63.01,449.009 c 59.597,59.696 326.283,59.596 385.98,0 59.697,-59.597 59.597,-326.283 0,-385.98" /></g></g></g></g></g></g></g></g><g
           id="g6888"><g
             id="g6890" /><g
             id="g6932"><g
               style="opacity:0.39999402"
               id="g6934"
               clip-path="url(#clipPath6892)"><g
                 id="g6936"><g
                   id="g6938"
                   clip-path="url(#clipPath6896)"><g
                     id="g6940"><g
                       id="g6942" /><g
                       id="g6944"
                       mask="url(#mask6912)"><g
                         id="g6946"><path
                           id="path6948"
                           style="fill:url(#radialGradient6924);stroke:none"
                           d="M 448.99,63.029 C 389.293,3.332 122.807,3.332 63.11,63.029 3.413,122.726 3.413,389.312 63.01,449.009 c 59.597,59.696 326.283,59.596 385.98,0 59.697,-59.597 59.597,-326.283 0,-385.98" /></g></g></g></g></g></g></g></g><g
           id="g6950"><g
             id="g6952" /><g
             id="g6994"><g
               style="opacity:0.39999402"
               id="g6996"
               clip-path="url(#clipPath6954)"><g
                 id="g6998"><g
                   id="g7000"
                   clip-path="url(#clipPath6958)"><g
                     id="g7002"><g
                       id="g7004" /><g
                       id="g7006"
                       mask="url(#mask6974)"><g
                         id="g7008"><path
                           id="path7010"
                           style="fill:url(#radialGradient6986);stroke:none"
                           d="m 63.01,63.029 c 59.697,-59.697 326.183,-59.697 385.88,0 59.697,59.697 59.697,326.183 0,385.88 -59.697,59.696 -326.183,59.696 -385.88,0.1 -59.697,-59.597 -59.597,-326.283 0,-385.98" /></g></g></g></g></g></g></g></g><g
           transform="translate(433.2792,78.7208)"
           id="g7012"><path
             id="path7014"
             style="fill:#1a5c84;fill-opacity:1;fill-rule:nonzero;stroke:none"
             d="m 0,0 c -70.294,-70.294 -284.264,-70.294 -354.558,0 -70.295,70.294 -70.295,284.264 0,354.558 70.294,70.295 284.264,70.295 354.558,0 C 70.294,284.264 70.294,70.294 0,0" /></g><g
           transform="translate(298.9932,161.381)"
           id="g7016"><path
             id="path7018"
             style="fill:#ffffff;fill-opacity:1;fill-rule:nonzero;stroke:none"
             d="m 0,0 -17.741,51.989 7.138,0 15.671,-45.924 22.09,0 -14.772,43.287 -0.236,0.694 -0.662,1.943 6.777,0 L 36.005,0 0,0 Z m -85.236,0 17.741,51.989 48.29,0 L -1.464,0 -85.236,0 Z m -1.464,0 -36.007,0 17.741,51.989 7.493,0 -0.663,-1.943 -0.237,-0.694 -14.771,-43.287 22.089,0 15.672,45.924 6.423,0 L -86.7,0 Z m -7.267,84.222 7.493,0 -0.663,-1.943 -0.236,-0.694 -9.627,-28.21 -7.493,0 10.526,30.847 z m 13.728,40.228 7.493,0 -0.663,-1.942 -0.236,-0.693 -12.356,-36.207 -7.493,0 13.255,38.842 z m 18.153,53.197 3.746,-10.979 -13.933,-40.831 -7.494,0 17.681,51.81 z m 36.531,1.541 -3.182,-9.325 -0.757,2.219 -26.998,0 -1.115,-3.268 -3.54,10.374 35.592,0 z m 0.94,-1.543 17.68,-51.808 -6.778,0 -14.291,41.878 3.389,9.93 z m 31.407,-92.037 -6.777,0 -12.355,36.207 -0.237,0.693 -0.663,1.943 6.777,0 13.255,-38.843 z m -27.075,-26.168 1.683,0 5.454,0 1.762,-5.162 0.307,-0.903 -7.136,0 -2.07,6.065 z m -44.669,0 43.204,0 2.069,-6.065 -47.343,0 2.07,6.065 z m -7.889,0 5.455,0 0.968,0 -2.069,-6.065 -6.423,0 0.308,0.903 1.761,5.162 z m 14.88,24.782 -2.424,-7.105 -6.423,0 2.424,7.105 6.423,0 z m 13.554,41.615 -5.776,0 2.888,8.464 2.888,-8.464 z m 1.057,1.2 -3.212,9.411 3.569,10.459 3.212,-9.411 -3.569,-10.459 z m 1.056,-1.2 3.245,9.512 3.246,-9.512 -6.491,0 z m -13.729,-40.229 12.672,37.135 12.672,-37.135 -25.344,0 z m -0.126,-8.491 -2.77,0 2.424,7.105 26.29,0 2.424,-7.106 -2.055,0 0,0.001 -26.313,0 z m 36.972,-0.001 -7.138,0 -2.425,7.106 7.138,0 2.425,-7.106 z m -3.443,10.088 0.545,-1.596 -7.138,0 -13.255,38.843 7.138,0 12.71,-37.247 z m -28.036,37.246 6.423,0 -13.255,-38.842 -6.423,0 0.545,1.597 12.71,37.245 z m 68.448,-71.075 -6.777,0 -9.628,28.211 -0.236,0.693 -0.663,1.943 6.778,0 10.526,-30.847 z M 48.507,0 37.471,0 19.73,51.989 l 16.896,0 0,1.386 -17.369,0 -10.526,30.847 27.895,0 0,1.386 -28.369,0 -13.254,38.843 31.979,0 0,1.386 -32.452,0 -18.206,53.351 37.19,0 0,1.386 -37.129,0 10.098,29.594 -1.312,0.448 -9.787,-28.677 -9.673,28.348 -0.112,0.328 -1.313,-0.448 10.099,-29.593 -35.472,0 10.099,29.594 -1.313,0.448 -9.785,-28.677 -9.787,28.677 -1.311,-0.448 10.099,-29.594 -36.416,0 0,-1.386 36.476,0 -18.206,-53.351 -31.738,0 0,-1.386 31.265,0 -13.255,-38.843 -27.653,0 0,-1.386 27.18,0 -10.526,-30.847 -16.654,0 0,-1.386 16.181,0 L -124.172,0 l -10.321,0 0,-1.386 9.849,0 -6.67,-19.544 1.313,-0.448 6.821,19.992 36.006,0 -6.669,-19.545 1.312,-0.447 6.823,19.992 84.717,0 6.822,-19.991 1.313,0.446 -6.669,19.545 36.005,0 6.822,-19.991 1.313,0.446 -6.67,19.545 10.562,0 0,1.386 z" /></g></g></g></g></svg>