<?xml version="1.0" encoding="UTF-8" standalone="no"?>
<svg
   xmlns:dc="http://purl.org/dc/elements/1.1/"
   xmlns:cc="http://creativecommons.org/ns#"
   xmlns:rdf="http://www.w3.org/1999/02/22-rdf-syntax-ns#"
   xmlns:svg="http://www.w3.org/2000/svg"
   xmlns="http://www.w3.org/2000/svg"
   viewBox="0 0 640 640"
   height="640"
   width="640"
   xml:space="preserve"
   version="1.1"
   id="svg9226"><metadata
     id="metadata9232"><rdf:RDF><cc:Work
         rdf:about=""><dc:format>image/svg+xml</dc:format><dc:type
           rdf:resource="http://purl.org/dc/dcmitype/StillImage" /><dc:title></dc:title></cc:Work></rdf:RDF></metadata><defs
     id="defs9230"><clipPath
       id="clipPath9240"
       clipPathUnits="userSpaceOnUse"><path
         id="path9242"
         d="M 0,512 512,512 512,0 0,0 0,512 Z" /></clipPath><clipPath
       id="clipPath9248"
       clipPathUnits="userSpaceOnUse"><path
         id="path9250"
         d="m 18.275,493.744 475.45,0 0,-475.4877 -475.45,0 0,475.4877 z" /></clipPath><clipPath
       id="clipPath9252"
       clipPathUnits="userSpaceOnUse"><path
         id="path9254"
         d="m 18.275,493.744 475.45,0 0,-475.4877 -475.45,0 0,475.4877 z" /></clipPath><clipPath
       id="clipPath9256"
       clipPathUnits="userSpaceOnUse"><path
         id="path9258"
         d="m 18.325,493.744 475.4,0 0,-475.4877 -475.4,0 0,475.4877 z" /></clipPath><clipPath
       id="clipPath9260"
       clipPathUnits="userSpaceOnUse"><path
         id="path9262"
         d="M 448.99,63.029 C 389.293,3.332 122.807,3.332 63.11,63.029 3.413,122.726 3.413,389.312 63.01,449.009 c 59.597,59.696 326.283,59.596 385.98,0 59.697,-59.597 59.597,-326.283 0,-385.98" /></clipPath><radialGradient
       id="radialGradient9268"
       spreadMethod="pad"
       gradientTransform="matrix(237.72188,0,0,237.72188,256.02499,256)"
       gradientUnits="userSpaceOnUse"
       r="1"
       cy="0"
       cx="0"
       fy="0"
       fx="0"><stop
         id="stop9270"
         offset="0"
         style="stop-opacity:1;stop-color:#ffffff" /><stop
         id="stop9272"
         offset="0.8587"
         style="stop-opacity:0.14129854;stop-color:#ffffff" /><stop
         id="stop9274"
         offset="1"
         style="stop-opacity:0;stop-color:#ffffff" /></radialGradient><mask
       id="mask9276"
       height="1"
       width="1"
       y="0"
       x="0"
       maskUnits="userSpaceOnUse"><g
         id="g9278"><g
           id="g9280"><g
             id="g9282"><g
               id="g9284"><path
                 id="path9286"
                 style="fill:url(#radialGradient9268);stroke:none"
                 d="m -32768,32767 65535,0 0,-65535 -65535,0 0,65535 z" /></g></g></g></g></mask><radialGradient
       id="radialGradient9288"
       spreadMethod="pad"
       gradientTransform="matrix(237.72188,0,0,237.72188,256.02499,256)"
       gradientUnits="userSpaceOnUse"
       r="1"
       cy="0"
       cx="0"
       fy="0"
       fx="0"><stop
         id="stop9290"
         offset="0"
         style="stop-opacity:1;stop-color:#010101" /><stop
         id="stop9292"
         offset="0.8587"
         style="stop-opacity:1;stop-color:#010101" /><stop
         id="stop9294"
         offset="1"
         style="stop-opacity:1;stop-color:#010101" /></radialGradient><clipPath
       id="clipPath9296"
       clipPathUnits="userSpaceOnUse"><path
         id="path9298"
         d="m 18.325,493.744 475.4,0 0,-475.4877 -475.4,0 0,475.4877 z" /></clipPath><clipPath
       id="clipPath9300"
       clipPathUnits="userSpaceOnUse"><path
         id="path9302"
         d="M 448.99,63.029 C 389.293,3.332 122.807,3.332 63.11,63.029 3.413,122.726 3.413,389.312 63.01,449.009 c 59.597,59.696 326.283,59.596 385.98,0 59.697,-59.597 59.597,-326.283 0,-385.98" /></clipPath><radialGradient
       id="radialGradient9308"
       spreadMethod="pad"
       gradientTransform="matrix(188.25467,188.36119,-130.35883,130.27895,256.02499,256.04376)"
       gradientUnits="userSpaceOnUse"
       r="1"
       cy="0"
       cx="0"
       fy="0"
       fx="0"><stop
         id="stop9310"
         offset="0"
         style="stop-opacity:1;stop-color:#ffffff" /><stop
         id="stop9312"
         offset="0.8587"
         style="stop-opacity:0.14129854;stop-color:#ffffff" /><stop
         id="stop9314"
         offset="1"
         style="stop-opacity:0;stop-color:#ffffff" /></radialGradient><mask
       id="mask9316"
       height="1"
       width="1"
       y="0"
       x="0"
       maskUnits="userSpaceOnUse"><g
         id="g9318"><g
           id="g9320"><g
             id="g9322"><g
               id="g9324"><path
                 id="path9326"
                 style="fill:url(#radialGradient9308);stroke:none"
                 d="m -32768,32767 65535,0 0,-65535 -65535,0 0,65535 z" /></g></g></g></g></mask><radialGradient
       id="radialGradient9328"
       spreadMethod="pad"
       gradientTransform="matrix(188.25467,188.36119,-130.35883,130.27895,256.02499,256.04376)"
       gradientUnits="userSpaceOnUse"
       r="1"
       cy="0"
       cx="0"
       fy="0"
       fx="0"><stop
         id="stop9330"
         offset="0"
         style="stop-opacity:1;stop-color:#010101" /><stop
         id="stop9332"
         offset="0.8587"
         style="stop-opacity:1;stop-color:#010101" /><stop
         id="stop9334"
         offset="1"
         style="stop-opacity:1;stop-color:#010101" /></radialGradient><clipPath
       id="clipPath9336"
       clipPathUnits="userSpaceOnUse"><path
         id="path9338"
         d="m 18.275,493.694 475.387,0 0,-475.4377 -475.387,0 0,475.4377 z" /></clipPath><clipPath
       id="clipPath9340"
       clipPathUnits="userSpaceOnUse"><path
         id="path9342"
         d="m 63.01,63.029 c 59.697,-59.697 326.183,-59.697 385.88,0 59.697,59.697 59.697,326.183 0,385.88 -59.697,59.696 -326.183,59.696 -385.88,0.1 -59.697,-59.597 -59.597,-326.283 0,-385.98" /></clipPath><radialGradient
       id="radialGradient9348"
       spreadMethod="pad"
       gradientTransform="matrix(-188.28767,188.39421,130.38168,130.30179,255.92499,255.99377)"
       gradientUnits="userSpaceOnUse"
       r="1"
       cy="0"
       cx="0"
       fy="0"
       fx="0"><stop
         id="stop9350"
         offset="0"
         style="stop-opacity:1;stop-color:#ffffff" /><stop
         id="stop9352"
         offset="0.8587"
         style="stop-opacity:0.14129854;stop-color:#ffffff" /><stop
         id="stop9354"
         offset="1"
         style="stop-opacity:0;stop-color:#ffffff" /></radialGradient><mask
       id="mask9356"
       height="1"
       width="1"
       y="0"
       x="0"
       maskUnits="userSpaceOnUse"><g
         id="g9358"><g
           id="g9360"><g
             id="g9362"><g
               id="g9364"><path
                 id="path9366"
                 style="fill:url(#radialGradient9348);stroke:none"
                 d="m -32768,32767 65535,0 0,-65535 -65535,0 0,65535 z" /></g></g></g></g></mask><radialGradient
       id="radialGradient9368"
       spreadMethod="pad"
       gradientTransform="matrix(-188.28767,188.39421,130.38168,130.30179,255.92499,255.99377)"
       gradientUnits="userSpaceOnUse"
       r="1"
       cy="0"
       cx="0"
       fy="0"
       fx="0"><stop
         id="stop9370"
         offset="0"
         style="stop-opacity:1;stop-color:#010101" /><stop
         id="stop9372"
         offset="0.8587"
         style="stop-opacity:1;stop-color:#010101" /><stop
         id="stop9374"
         offset="1"
         style="stop-opacity:1;stop-color:#010101" /></radialGradient></defs><g
     transform="matrix(1.25,0,0,-1.25,0,640)"
     id="g9234"><g
       id="g9236"><g
         clip-path="url(#clipPath9240)"
         id="g9238"><g
           id="g9244"><g
             id="g9246" /><g
             id="g9376"><g
               id="g9378"
               clip-path="url(#clipPath9248)"><g
                 id="g9380"><g
                   id="g9382" /><g
                   id="g9384"><g
                     id="g9386"
                     clip-path="url(#clipPath9252)"><g
                       id="g9388"><g
                         id="g9390" /><g
                         id="g9392"><g
                           style="opacity:0.39999402"
                           id="g9394"
                           clip-path="url(#clipPath9256)"><g
                             id="g9396"><g
                               id="g9398"
                               clip-path="url(#clipPath9260)"><g
                                 id="g9400"><g
                                   id="g9402" /><g
                                   id="g9404"
                                   mask="url(#mask9276)"><g
                                   id="g9406"><path
                                   id="path9408"
                                   style="fill:url(#radialGradient9288);stroke:none"
                                   d="M 448.99,63.029 C 389.293,3.332 122.807,3.332 63.11,63.029 3.413,122.726 3.413,389.312 63.01,449.009 c 59.597,59.696 326.283,59.596 385.98,0 59.697,-59.597 59.597,-326.283 0,-385.98" /></g></g></g></g></g></g></g></g><g
                       id="g9410"><g
                         id="g9412" /><g
                         id="g9414"><g
                           style="opacity:0.39999402"
                           id="g9416"
                           clip-path="url(#clipPath9296)"><g
                             id="g9418"><g
                               id="g9420"
                               clip-path="url(#clipPath9300)"><g
                                 id="g9422"><g
                                   id="g9424" /><g
                                   id="g9426"
                                   mask="url(#mask9316)"><g
                                   id="g9428"><path
                                   id="path9430"
                                   style="fill:url(#radialGradient9328);stroke:none"
                                   d="M 448.99,63.029 C 389.293,3.332 122.807,3.332 63.11,63.029 3.413,122.726 3.413,389.312 63.01,449.009 c 59.597,59.696 326.283,59.596 385.98,0 59.697,-59.597 59.597,-326.283 0,-385.98" /></g></g></g></g></g></g></g></g><g
                       id="g9432"><g
                         id="g9434" /><g
                         id="g9436"><g
                           style="opacity:0.39999402"
                           id="g9438"
                           clip-path="url(#clipPath9336)"><g
                             id="g9440"><g
                               id="g9442"
                               clip-path="url(#clipPath9340)"><g
                                 id="g9444"><g
                                   id="g9446" /><g
                                   id="g9448"
                                   mask="url(#mask9356)"><g
                                   id="g9450"><path
                                   id="path9452"
                                   style="fill:url(#radialGradient9368);stroke:none"
                                   d="m 63.01,63.029 c 59.697,-59.697 326.183,-59.697 385.88,0 59.697,59.697 59.697,326.183 0,385.88 -59.697,59.696 -326.183,59.696 -385.88,0.1 -59.697,-59.597 -59.597,-326.283 0,-385.98" /></g></g></g></g></g></g></g></g></g></g></g><g
                 id="g9454"
                 transform="translate(433.279,433.279)"><path
                   id="path9456"
                   style="fill:#303030;fill-opacity:1;fill-rule:nonzero;stroke:none"
                   d="m 0,0 c -70.294,70.294 -284.264,70.294 -354.558,0 -70.294,-70.294 -70.294,-284.264 0,-354.558 70.294,-70.294 284.264,-70.294 354.558,0 C 70.294,-284.264 70.295,-70.294 0,0" /></g></g></g></g><g
           transform="translate(361.2026,374.0441)"
           id="g9458"><path
             id="path9460"
             style="fill:#ffffff;fill-opacity:1;fill-rule:nonzero;stroke:none"
             d="m 0,0 -19.334,0 -171.737,0 -19.334,0 c -12.24,0 -22.162,-9.922 -22.162,-22.162 l 0,-19.334 0,-171.737 0,-19.334 c 0,-12.24 9.922,-22.162 22.162,-22.162 l 19.334,0 171.737,0 19.334,0 c 12.24,0 22.162,9.922 22.162,22.162 l 0,19.334 0,171.737 0,19.334 C 22.162,-9.922 12.24,0 0,0" /></g><g
           transform="translate(150.7974,137.9558)"
           id="g9462"><path
             id="path9464"
             style="fill:#ffffff;fill-opacity:1;fill-rule:nonzero;stroke:none"
             d="m 0,0 19.334,0 171.737,0 19.334,0 c 12.24,0 22.162,9.922 22.162,22.162 l 0,19.334 0,171.737 0,19.334 c 0,12.24 -9.922,22.162 -22.162,22.162 l -19.334,0 -171.737,0 -19.334,0 c -12.24,0 -22.162,-9.922 -22.162,-22.162 l 0,-19.334 0,-171.737 0,-19.334 C -22.162,9.922 -12.24,0 0,0" /></g><g
           transform="translate(361.2026,377.3205)"
           id="g9466"><path
             id="path9468"
             style="fill:#e5e5e5;fill-opacity:1;fill-rule:nonzero;stroke:none"
             d="m 0,0 -19.334,0 -171.737,0 -19.334,0 c -12.24,0 -22.162,-9.922 -22.162,-22.162 l 0,-19.334 0,-171.737 0,-19.334 c 0,-12.24 9.922,-22.162 22.162,-22.162 l 19.334,0 171.737,0 19.334,0 c 12.24,0 22.162,9.922 22.162,22.162 l 0,19.334 0,171.737 0,19.334 C 22.162,-9.922 12.24,0 0,0 m 0,-1 c 11.669,0 21.162,-9.493 21.162,-21.162 l 0,-19.334 0,-171.737 0,-19.334 c 0,-11.669 -9.493,-21.162 -21.162,-21.162 l -19.334,0 -171.737,0 -19.334,0 c -11.669,0 -21.162,9.493 -21.162,21.162 l 0,19.334 0,171.737 0,19.334 c 0,11.669 9.493,21.162 21.162,21.162 l 19.334,0 171.737,0 L 0,-1" /></g><g
           transform="translate(361.2026,380.1312)"
           id="g9470"><path
             id="path9472"
             style="fill:#e5e5e5;fill-opacity:1;fill-rule:nonzero;stroke:none"
             d="m 0,0 -19.334,0 -171.737,0 -19.334,0 c -12.24,0 -22.162,-9.922 -22.162,-22.162 l 0,-19.334 0,-171.737 0,-19.334 c 0,-12.24 9.922,-22.162 22.162,-22.162 l 19.334,0 171.737,0 19.334,0 c 12.24,0 22.162,9.922 22.162,22.162 l 0,19.334 0,171.737 0,19.334 C 22.162,-9.922 12.24,0 0,0 m 0,-1 c 11.669,0 21.162,-9.493 21.162,-21.162 l 0,-19.334 0,-171.737 0,-19.334 c 0,-11.669 -9.493,-21.162 -21.162,-21.162 l -19.334,0 -171.737,0 -19.334,0 c -11.669,0 -21.162,9.493 -21.162,21.162 l 0,19.334 0,171.737 0,19.334 c 0,11.669 9.493,21.162 21.162,21.162 l 19.334,0 171.737,0 L 0,-1" /></g><g
           transform="translate(361.2026,384.6857)"
           id="g9474"><path
             id="path9476"
             style="fill:#e5e5e5;fill-opacity:1;fill-rule:nonzero;stroke:none"
             d="m 0,0 -19.334,0 -171.737,0 -19.334,0 c -12.24,0 -22.162,-9.922 -22.162,-22.162 l 0,-19.334 0,-171.737 0,-19.334 c 0,-12.24 9.922,-22.162 22.162,-22.162 l 19.334,0 171.737,0 19.334,0 c 12.24,0 22.162,9.922 22.162,22.162 l 0,19.334 0,171.737 0,19.334 C 22.162,-9.922 12.24,0 0,0 m 0,-1 c 11.669,0 21.162,-9.493 21.162,-21.162 l 0,-19.334 0,-171.737 0,-19.334 c 0,-11.669 -9.493,-21.162 -21.162,-21.162 l -19.334,0 -171.737,0 -19.334,0 c -11.669,0 -21.162,9.493 -21.162,21.162 l 0,19.334 0,171.737 0,19.334 c 0,11.669 9.493,21.162 21.162,21.162 l 19.334,0 171.737,0 L 0,-1" /></g><g
           transform="translate(361.2026,388.233)"
           id="g9478"><path
             id="path9480"
             style="fill:#e5e5e5;fill-opacity:1;fill-rule:nonzero;stroke:none"
             d="m 0,0 -19.334,0 -171.737,0 -19.334,0 c -12.24,0 -22.162,-9.922 -22.162,-22.162 l 0,-19.334 0,-171.737 0,-19.334 c 0,-12.24 9.922,-22.162 22.162,-22.162 l 19.334,0 171.737,0 19.334,0 c 12.24,0 22.162,9.922 22.162,22.162 l 0,19.334 0,171.737 0,19.334 C 22.162,-9.922 12.24,0 0,0 m 0,-1 c 11.669,0 21.162,-9.493 21.162,-21.162 l 0,-19.334 0,-171.737 0,-19.334 c 0,-11.669 -9.493,-21.162 -21.162,-21.162 l -19.334,0 -171.737,0 -19.334,0 c -11.669,0 -21.162,9.493 -21.162,21.162 l 0,19.334 0,171.737 0,19.334 c 0,11.669 9.493,21.162 21.162,21.162 l 19.334,0 171.737,0 L 0,-1" /></g><g
           transform="translate(128.6353,361.2026)"
           id="g9482"><path
             id="path9484"
             style="fill:#ffffff;fill-opacity:1;fill-rule:nonzero;stroke:none"
             d="m 0,0 0,-210.405 c 0,-12.24 9.922,-22.162 22.162,-22.162 l 19.334,0 127.365,127.364 -127.365,127.365 -19.334,0 C 9.922,22.162 0,12.24 0,0" /></g><g
           transform="translate(341.8686,128.6353)"
           id="g9486"><path
             id="path9488"
             style="fill:#f7f7f7;fill-opacity:1;fill-rule:nonzero;stroke:none"
             d="m 0,0 19.334,0 c 12.24,0 22.162,9.922 22.162,22.162 l 0,210.405 c 0,12.24 -9.922,22.162 -22.162,22.162 L 0,254.729 -127.365,127.365 0,0 Z" /></g><g
           transform="translate(383.3647,150.7974)"
           id="g9490"><path
             id="path9492"
             style="fill:#f4f4f4;fill-opacity:1;fill-rule:nonzero;stroke:none"
             d="M 0,0 0,19.334 -127.365,146.699 -254.729,19.334 -254.729,0 c 0,-12.24 9.922,-22.162 22.162,-22.162 l 210.405,0 C -9.922,-22.162 0,-12.24 0,0" /></g><g
           transform="translate(273.8079,232.3118)"
           id="g9494"><path
             id="path9496"
             style="fill:#e8e8e8;fill-opacity:1;fill-rule:nonzero;stroke:none"
             d="m 0,0 109.557,109.557 0,19.334 c 0,12.24 -9.923,22.162 -22.162,22.162 l -210.406,0 c -12.239,0 -22.162,-9.922 -22.162,-22.162 l 0,-19.334 L -35.616,0 C -25.781,-9.835 -9.835,-9.835 0,0" /></g><g
           transform="translate(158.8563,321.7892)"
           id="g9498"><path
             id="path9500"
             style="fill:#000000;fill-opacity:1;fill-rule:nonzero;stroke:none"
             d="m 0,0 -10.074,-10.074 0,-13.747 L 0,-13.747 0,0 Z" /></g><g
           transform="translate(293.135,353.1437)"
           id="g9502"><path
             id="path9504"
             style="fill:#3f8cfc;fill-opacity:1;fill-rule:nonzero;stroke:none"
             d="m 0,0 10.074,10.074 -13.748,0 L -13.748,0 0,0 Z" /></g><g
           transform="translate(270.8401,353.1437)"
           id="g9506"><path
             id="path9508"
             style="fill:#fc354d;fill-opacity:1;fill-rule:nonzero;stroke:none"
             d="m 0,0 10.074,10.074 -13.747,0 L -13.747,0 0,0 Z" /></g><g
           transform="translate(337.7233,353.1437)"
           id="g9510"><path
             id="path9512"
             style="fill:#fc354d;fill-opacity:1;fill-rule:nonzero;stroke:none"
             d="m 0,0 9.612,9.612 c -1.376,0.297 -2.8,0.462 -4.265,0.462 l -9.02,0 L -13.747,0 0,0 Z" /></g><g
           transform="translate(158.8563,343.07)"
           id="g9514"><path
             id="path9516"
             style="fill:#fc354d;fill-opacity:1;fill-rule:nonzero;stroke:none"
             d="m 0,0 c 0,0.362 0.021,0.72 0.059,1.073 l -10.133,-10.133 0,-13.748 L 0,-12.734 0,0 Z" /></g><g
           transform="translate(168.93,353.1437)"
           id="g9518"><path
             id="path9520"
             style="fill:#000000;fill-opacity:1;fill-rule:nonzero;stroke:none"
             d="M 0,0 12.734,0 22.808,10.074 9.06,10.074 -1.073,-0.059 C -0.72,-0.021 -0.362,0 0,0" /></g><g
           transform="translate(352.7408,345.8672)"
           id="g9522"><path
             id="path9524"
             style="fill:#3f8cfc;fill-opacity:1;fill-rule:nonzero;stroke:none"
             d="M 0,0 7.577,7.577 C 5.88,10.393 3.519,12.753 0.703,14.45 L -6.874,6.873 C -3.566,5.915 -0.958,3.307 0,0" /></g><g
           transform="translate(226.2517,353.1437)"
           id="g9526"><path
             id="path9528"
             style="fill:#3f8cfc;fill-opacity:1;fill-rule:nonzero;stroke:none"
             d="m 0,0 10.074,10.074 -13.747,0 L -13.747,0 0,0 Z" /></g><g
           transform="translate(203.9578,353.1437)"
           id="g9530"><path
             id="path9532"
             style="fill:#fc354d;fill-opacity:1;fill-rule:nonzero;stroke:none"
             d="m 0,0 10.074,10.074 -13.747,0 L -13.747,0 0,0 Z" /></g><g
           transform="translate(248.5461,353.1437)"
           id="g9534"><path
             id="path9536"
             style="fill:#000000;fill-opacity:1;fill-rule:nonzero;stroke:none"
             d="m 0,0 0.172,0.172 9.902,9.902 -13.748,0 L -13.748,0 0,0 Z" /></g><g
           transform="translate(353.1442,212.505)"
           id="g9538"><path
             id="path9540"
             style="fill:#3f8cfc;fill-opacity:1;fill-rule:nonzero;stroke:none"
             d="m 0,0 10.074,10.074 0,13.747 L 0,13.747 0,0 Z" /></g><g
           transform="translate(353.1442,190.2106)"
           id="g9542"><path
             id="path9544"
             style="fill:#000000;fill-opacity:1;fill-rule:nonzero;stroke:none"
             d="m 0,0 10.074,10.074 0,13.747 L 0,13.748 0,0 Z" /></g><g
           transform="translate(353.1442,323.9762)"
           id="g9546"><path
             id="path9548"
             style="fill:#000000;fill-opacity:1;fill-rule:nonzero;stroke:none"
             d="m 0,0 10.074,10.074 0,9.02 c 0,1.465 -0.165,2.889 -0.462,4.265 L 0,13.748 0,0 Z" /></g><g
           transform="translate(343.0705,148.7822)"
           id="g9550"><path
             id="path9552"
             style="fill:#3f8cfc;fill-opacity:1;fill-rule:nonzero;stroke:none"
             d="m 0,0 c 11.127,0 20.147,9.02 20.147,20.147 l 0,0.514 L -0.514,0 0,0 Z" /></g><g
           transform="translate(168.93,363.2173)"
           id="g9554"><path
             id="path9556"
             style="fill:#3f8cfc;fill-opacity:1;fill-rule:nonzero;stroke:none"
             d="m 0,0 c -11.127,0 -20.147,-9.02 -20.147,-20.147 l 0,-0.513 L 0.513,0 0,0 Z" /></g><g
           transform="translate(353.1442,168.9295)"
           id="g9558"><path
             id="path9560"
             style="fill:#fc354d;fill-opacity:1;fill-rule:nonzero;stroke:none"
             d="m 0,0 c 0,-0.362 -0.021,-0.719 -0.059,-1.072 l 10.133,10.133 0,13.747 L 0,12.734 0,0 Z" /></g><g
           transform="translate(353.1442,301.6822)"
           id="g9562"><path
             id="path9564"
             style="fill:#fc354d;fill-opacity:1;fill-rule:nonzero;stroke:none"
             d="m 0,0 10.074,10.074 0,13.747 L 0,13.747 0,0 Z" /></g><g
           transform="translate(353.1442,279.3873)"
           id="g9566"><path
             id="path9568"
             style="fill:#3f8cfc;fill-opacity:1;fill-rule:nonzero;stroke:none"
             d="m 0,0 10.074,10.074 0,13.748 L 0,13.748 0,0 Z" /></g><g
           transform="translate(353.1442,234.799)"
           id="g9570"><path
             id="path9572"
             style="fill:#fc354d;fill-opacity:1;fill-rule:nonzero;stroke:none"
             d="m 0,0 10.074,10.074 0,13.747 L 0,13.747 0,0 Z" /></g><g
           transform="translate(353.1442,257.0929)"
           id="g9574"><path
             id="path9576"
             style="fill:#000000;fill-opacity:1;fill-rule:nonzero;stroke:none"
             d="m 0,0 10.074,10.074 0,13.747 L 0,13.748 0,0 Z" /></g><g
           transform="translate(315.4294,353.1437)"
           id="g9578"><path
             id="path9580"
             style="fill:#000000;fill-opacity:1;fill-rule:nonzero;stroke:none"
             d="m 0,0 10.074,10.074 -13.748,0 L -13.748,0 0,0 Z" /></g><g
           transform="translate(343.0705,158.8558)"
           id="g9582"><path
             id="path9584"
             style="fill:#000000;fill-opacity:1;fill-rule:nonzero;stroke:none"
             d="m 0,0 -12.734,0 -10.074,-10.074 13.747,0 L 1.072,0.059 C 0.719,0.021 0.362,0 0,0" /></g><g
           transform="translate(174.2763,158.8558)"
           id="g9586"><path
             id="path9588"
             style="fill:#fc354d;fill-opacity:1;fill-rule:nonzero;stroke:none"
             d="m 0,0 -9.612,-9.612 c 1.376,-0.297 2.801,-0.462 4.266,-0.462 l 9.02,0 L 13.748,0 0,0 Z" /></g><g
           transform="translate(158.8563,232.6131)"
           id="g9590"><path
             id="path9592"
             style="fill:#3f8cfc;fill-opacity:1;fill-rule:nonzero;stroke:none"
             d="m 0,0 -10.074,-10.074 0,-13.748 L 0,-13.748 0,0 Z" /></g><g
           transform="translate(308.0419,158.8558)"
           id="g9594"><path
             id="path9596"
             style="fill:#fc354d;fill-opacity:1;fill-rule:nonzero;stroke:none"
             d="m 0,0 -10.074,-10.074 13.748,0 L 13.748,0 0,0 Z" /></g><g
           transform="translate(158.8563,254.907)"
           id="g9598"><path
             id="path9600"
             style="fill:#000000;fill-opacity:1;fill-rule:nonzero;stroke:none"
             d="m 0,0 -10.074,-10.074 0,-13.747 L 0,-13.747 0,0 Z" /></g><g
           transform="translate(158.8563,188.0237)"
           id="g9602"><path
             id="path9604"
             style="fill:#000000;fill-opacity:1;fill-rule:nonzero;stroke:none"
             d="m 0,0 -10.074,-10.074 0,-9.02 c 0,-1.465 0.165,-2.889 0.462,-4.265 L 0,-13.747 0,0 Z" /></g><g
           transform="translate(158.8563,210.3181)"
           id="g9606"><path
             id="path9608"
             style="fill:#fc354d;fill-opacity:1;fill-rule:nonzero;stroke:none"
             d="m 0,0 -10.074,-10.074 0,-13.747 L 0,-13.748 0,0 Z" /></g><g
           transform="translate(159.2596,166.133)"
           id="g9610"><path
             id="path9612"
             style="fill:#3f8cfc;fill-opacity:1;fill-rule:nonzero;stroke:none"
             d="m 0,0 -7.577,-7.577 c 1.697,-2.816 4.058,-5.176 6.873,-6.874 l 7.577,7.577 C 3.566,-5.915 0.958,-3.308 0,0" /></g><g
           transform="translate(196.5707,158.8558)"
           id="g9614"><path
             id="path9616"
             style="fill:#000000;fill-opacity:1;fill-rule:nonzero;stroke:none"
             d="m 0,0 -10.074,-10.074 13.747,0 L 13.747,0 0,0 Z" /></g><g
           transform="translate(241.1596,158.8558)"
           id="g9618"><path
             id="path9620"
             style="fill:#fc354d;fill-opacity:1;fill-rule:nonzero;stroke:none"
             d="m 0,0 -10.074,-10.074 13.748,0 L 13.748,0 0,0 Z" /></g><g
           transform="translate(158.8563,299.4953)"
           id="g9622"><path
             id="path9624"
             style="fill:#3f8cfc;fill-opacity:1;fill-rule:nonzero;stroke:none"
             d="m 0,0 -10.074,-10.074 0,-13.747 L 0,-13.747 0,0 Z" /></g><g
           transform="translate(218.8647,158.8558)"
           id="g9626"><path
             id="path9628"
             style="fill:#3f8cfc;fill-opacity:1;fill-rule:nonzero;stroke:none"
             d="m 0,0 -10.074,-10.074 13.748,0 L 13.748,0 0,0 Z" /></g><g
           transform="translate(263.454,158.8558)"
           id="g9630"><path
             id="path9632"
             style="fill:#000000;fill-opacity:1;fill-rule:nonzero;stroke:none"
             d="m 0,0 -10.074,-10.074 13.747,0 L 13.747,0 0,0 Z" /></g><g
           transform="translate(285.7479,158.8558)"
           id="g9634"><path
             id="path9636"
             style="fill:#3f8cfc;fill-opacity:1;fill-rule:nonzero;stroke:none"
             d="m 0,0 -10.074,-10.074 13.747,0 L 13.747,0 0,0 Z" /></g><g
           transform="translate(158.8563,277.2014)"
           id="g9638"><path
             id="path9640"
             style="fill:#fc354d;fill-opacity:1;fill-rule:nonzero;stroke:none"
             d="m 0,0 -10.074,-10.074 0,-13.747 L 0,-13.748 0,0 Z" /></g></g></g></g></svg>