<?xml version="1.0" encoding="UTF-8" standalone="no"?>
<svg
   xmlns:dc="http://purl.org/dc/elements/1.1/"
   xmlns:cc="http://creativecommons.org/ns#"
   xmlns:rdf="http://www.w3.org/1999/02/22-rdf-syntax-ns#"
   xmlns:svg="http://www.w3.org/2000/svg"
   xmlns="http://www.w3.org/2000/svg"
   viewBox="0 0 640 640"
   height="640"
   width="640"
   xml:space="preserve"
   version="1.1"
   id="svg7560"><metadata
     id="metadata7566"><rdf:RDF><cc:Work
         rdf:about=""><dc:format>image/svg+xml</dc:format><dc:type
           rdf:resource="http://purl.org/dc/dcmitype/StillImage" /><dc:title></dc:title></cc:Work></rdf:RDF></metadata><defs
     id="defs7564"><clipPath
       id="clipPath7574"
       clipPathUnits="userSpaceOnUse"><path
         id="path7576"
         d="M 0,512 512,512 512,0 0,0 0,512 Z" /></clipPath><clipPath
       id="clipPath7582"
       clipPathUnits="userSpaceOnUse"><path
         id="path7584"
         d="m 18.325,493.744 475.4,0 0,-475.4877 -475.4,0 0,475.4877 z" /></clipPath><clipPath
       id="clipPath7586"
       clipPathUnits="userSpaceOnUse"><path
         id="path7588"
         d="M 448.99,63.029 C 389.293,3.332 122.807,3.332 63.11,63.029 3.413,122.726 3.413,389.312 63.01,449.009 c 59.597,59.696 326.283,59.596 385.98,0 59.697,-59.597 59.597,-326.283 0,-385.98" /></clipPath><radialGradient
       id="radialGradient7594"
       spreadMethod="pad"
       gradientTransform="matrix(237.72188,0,0,237.72188,256.02499,256)"
       gradientUnits="userSpaceOnUse"
       r="1"
       cy="0"
       cx="0"
       fy="0"
       fx="0"><stop
         id="stop7596"
         offset="0"
         style="stop-opacity:1;stop-color:#ffffff" /><stop
         id="stop7598"
         offset="0.8587"
         style="stop-opacity:0.14129854;stop-color:#ffffff" /><stop
         id="stop7600"
         offset="1"
         style="stop-opacity:0;stop-color:#ffffff" /></radialGradient><mask
       id="mask7602"
       height="1"
       width="1"
       y="0"
       x="0"
       maskUnits="userSpaceOnUse"><g
         id="g7604"><g
           id="g7606"><g
             id="g7608"><g
               id="g7610"><path
                 id="path7612"
                 style="fill:url(#radialGradient7594);stroke:none"
                 d="m -32768,32767 65535,0 0,-65535 -65535,0 0,65535 z" /></g></g></g></g></mask><radialGradient
       id="radialGradient7614"
       spreadMethod="pad"
       gradientTransform="matrix(237.72188,0,0,237.72188,256.02499,256)"
       gradientUnits="userSpaceOnUse"
       r="1"
       cy="0"
       cx="0"
       fy="0"
       fx="0"><stop
         id="stop7616"
         offset="0"
         style="stop-opacity:1;stop-color:#010101" /><stop
         id="stop7618"
         offset="0.8587"
         style="stop-opacity:1;stop-color:#010101" /><stop
         id="stop7620"
         offset="1"
         style="stop-opacity:1;stop-color:#010101" /></radialGradient><clipPath
       id="clipPath7644"
       clipPathUnits="userSpaceOnUse"><path
         id="path7646"
         d="m 18.325,493.744 475.4,0 0,-475.4877 -475.4,0 0,475.4877 z" /></clipPath><clipPath
       id="clipPath7648"
       clipPathUnits="userSpaceOnUse"><path
         id="path7650"
         d="M 448.99,63.029 C 389.293,3.332 122.807,3.332 63.11,63.029 3.413,122.726 3.413,389.312 63.01,449.009 c 59.597,59.696 326.283,59.596 385.98,0 59.697,-59.597 59.597,-326.283 0,-385.98" /></clipPath><radialGradient
       id="radialGradient7656"
       spreadMethod="pad"
       gradientTransform="matrix(188.25467,188.36119,-130.35883,130.27895,256.02499,256.04376)"
       gradientUnits="userSpaceOnUse"
       r="1"
       cy="0"
       cx="0"
       fy="0"
       fx="0"><stop
         id="stop7658"
         offset="0"
         style="stop-opacity:1;stop-color:#ffffff" /><stop
         id="stop7660"
         offset="0.8587"
         style="stop-opacity:0.14129854;stop-color:#ffffff" /><stop
         id="stop7662"
         offset="1"
         style="stop-opacity:0;stop-color:#ffffff" /></radialGradient><mask
       id="mask7664"
       height="1"
       width="1"
       y="0"
       x="0"
       maskUnits="userSpaceOnUse"><g
         id="g7666"><g
           id="g7668"><g
             id="g7670"><g
               id="g7672"><path
                 id="path7674"
                 style="fill:url(#radialGradient7656);stroke:none"
                 d="m -32768,32767 65535,0 0,-65535 -65535,0 0,65535 z" /></g></g></g></g></mask><radialGradient
       id="radialGradient7676"
       spreadMethod="pad"
       gradientTransform="matrix(188.25467,188.36119,-130.35883,130.27895,256.02499,256.04376)"
       gradientUnits="userSpaceOnUse"
       r="1"
       cy="0"
       cx="0"
       fy="0"
       fx="0"><stop
         id="stop7678"
         offset="0"
         style="stop-opacity:1;stop-color:#010101" /><stop
         id="stop7680"
         offset="0.8587"
         style="stop-opacity:1;stop-color:#010101" /><stop
         id="stop7682"
         offset="1"
         style="stop-opacity:1;stop-color:#010101" /></radialGradient><clipPath
       id="clipPath7706"
       clipPathUnits="userSpaceOnUse"><path
         id="path7708"
         d="m 18.275,493.694 475.387,0 0,-475.4377 -475.387,0 0,475.4377 z" /></clipPath><clipPath
       id="clipPath7710"
       clipPathUnits="userSpaceOnUse"><path
         id="path7712"
         d="m 63.01,63.029 c 59.697,-59.697 326.183,-59.697 385.88,0 59.697,59.697 59.697,326.183 0,385.88 -59.697,59.696 -326.183,59.696 -385.88,0.1 -59.697,-59.597 -59.597,-326.283 0,-385.98" /></clipPath><radialGradient
       id="radialGradient7718"
       spreadMethod="pad"
       gradientTransform="matrix(-188.28767,188.39421,130.38168,130.30179,255.92499,255.99377)"
       gradientUnits="userSpaceOnUse"
       r="1"
       cy="0"
       cx="0"
       fy="0"
       fx="0"><stop
         id="stop7720"
         offset="0"
         style="stop-opacity:1;stop-color:#ffffff" /><stop
         id="stop7722"
         offset="0.8587"
         style="stop-opacity:0.14129854;stop-color:#ffffff" /><stop
         id="stop7724"
         offset="1"
         style="stop-opacity:0;stop-color:#ffffff" /></radialGradient><mask
       id="mask7726"
       height="1"
       width="1"
       y="0"
       x="0"
       maskUnits="userSpaceOnUse"><g
         id="g7728"><g
           id="g7730"><g
             id="g7732"><g
               id="g7734"><path
                 id="path7736"
                 style="fill:url(#radialGradient7718);stroke:none"
                 d="m -32768,32767 65535,0 0,-65535 -65535,0 0,65535 z" /></g></g></g></g></mask><radialGradient
       id="radialGradient7738"
       spreadMethod="pad"
       gradientTransform="matrix(-188.28767,188.39421,130.38168,130.30179,255.92499,255.99377)"
       gradientUnits="userSpaceOnUse"
       r="1"
       cy="0"
       cx="0"
       fy="0"
       fx="0"><stop
         id="stop7740"
         offset="0"
         style="stop-opacity:1;stop-color:#010101" /><stop
         id="stop7742"
         offset="0.8587"
         style="stop-opacity:1;stop-color:#010101" /><stop
         id="stop7744"
         offset="1"
         style="stop-opacity:1;stop-color:#010101" /></radialGradient><linearGradient
       id="linearGradient7776"
       spreadMethod="pad"
       gradientTransform="matrix(0,460,460,0,256,26)"
       gradientUnits="userSpaceOnUse"
       y2="0"
       x2="1"
       y1="0"
       x1="0"><stop
         id="stop7778"
         offset="0"
         style="stop-opacity:1;stop-color:#fe5f38" /><stop
         id="stop7780"
         offset="1"
         style="stop-opacity:1;stop-color:#fe9105" /></linearGradient><clipPath
       id="clipPath7788"
       clipPathUnits="userSpaceOnUse"><path
         id="path7790"
         d="M 0,512 512,512 512,0 0,0 0,512 Z" /></clipPath></defs><g
     transform="matrix(1.25,0,0,-1.25,0,640)"
     id="g7568"><g
       id="g7570"><g
         clip-path="url(#clipPath7574)"
         id="g7572"><g
           id="g7578"><g
             id="g7580" /><g
             id="g7622"><g
               style="opacity:0.39999402"
               id="g7624"
               clip-path="url(#clipPath7582)"><g
                 id="g7626"><g
                   id="g7628"
                   clip-path="url(#clipPath7586)"><g
                     id="g7630"><g
                       id="g7632" /><g
                       id="g7634"
                       mask="url(#mask7602)"><g
                         id="g7636"><path
                           id="path7638"
                           style="fill:url(#radialGradient7614);stroke:none"
                           d="M 448.99,63.029 C 389.293,3.332 122.807,3.332 63.11,63.029 3.413,122.726 3.413,389.312 63.01,449.009 c 59.597,59.696 326.283,59.596 385.98,0 59.697,-59.597 59.597,-326.283 0,-385.98" /></g></g></g></g></g></g></g></g><g
           id="g7640"><g
             id="g7642" /><g
             id="g7684"><g
               style="opacity:0.39999402"
               id="g7686"
               clip-path="url(#clipPath7644)"><g
                 id="g7688"><g
                   id="g7690"
                   clip-path="url(#clipPath7648)"><g
                     id="g7692"><g
                       id="g7694" /><g
                       id="g7696"
                       mask="url(#mask7664)"><g
                         id="g7698"><path
                           id="path7700"
                           style="fill:url(#radialGradient7676);stroke:none"
                           d="M 448.99,63.029 C 389.293,3.332 122.807,3.332 63.11,63.029 3.413,122.726 3.413,389.312 63.01,449.009 c 59.597,59.696 326.283,59.596 385.98,0 59.697,-59.597 59.597,-326.283 0,-385.98" /></g></g></g></g></g></g></g></g><g
           id="g7702"><g
             id="g7704" /><g
             id="g7746"><g
               style="opacity:0.39999402"
               id="g7748"
               clip-path="url(#clipPath7706)"><g
                 id="g7750"><g
                   id="g7752"
                   clip-path="url(#clipPath7710)"><g
                     id="g7754"><g
                       id="g7756" /><g
                       id="g7758"
                       mask="url(#mask7726)"><g
                         id="g7760"><path
                           id="path7762"
                           style="fill:url(#radialGradient7738);stroke:none"
                           d="m 63.01,63.029 c 59.697,-59.697 326.183,-59.697 385.88,0 59.697,59.697 59.697,326.183 0,385.88 -59.697,59.696 -326.183,59.696 -385.88,0.1 -59.697,-59.597 -59.597,-326.283 0,-385.98" /></g></g></g></g></g></g></g></g></g></g><g
       id="g7764"><g
         id="g7766"><g
           id="g7772"><g
             id="g7774"><path
               id="path7782"
               style="fill:url(#linearGradient7776);stroke:none"
               d="M 78.721,433.279 C 8.427,362.985 8.427,149.015 78.721,78.721 l 0,0 c 70.294,-70.294 284.264,-70.294 354.558,0 l 0,0 c 70.294,70.294 70.294,284.264 0,354.558 l 0,0 C 398.132,468.426 327.066,486 256,486 l 0,0 C 184.934,486 113.868,468.426 78.721,433.279" /></g></g></g></g><g
       id="g7784"><g
         clip-path="url(#clipPath7788)"
         id="g7786"><g
           transform="translate(399.3335,236.8409)"
           id="g7792"><path
             id="path7794"
             style="fill:#8c796f;fill-opacity:1;fill-rule:nonzero;stroke:none"
             d="m 0,0 c 0,-31.199 -24.08,-56.491 -53.783,-56.491 l -179.101,0 c -29.703,0 -53.783,25.292 -53.783,56.491 l 0,30.631 c 0,31.2 24.08,56.491 53.783,56.491 l 179.101,0 C -24.08,87.122 0,61.83 0,30.631 L 0,0 Z" /></g><g
           transform="translate(399.3335,244.5268)"
           id="g7796"><path
             id="path7798"
             style="fill:#ffffff;fill-opacity:1;fill-rule:nonzero;stroke:none"
             d="m 0,0 c 0,-31.199 -24.08,-56.491 -53.783,-56.491 l -179.101,0 c -29.703,0 -53.783,25.292 -53.783,56.491 l 0,30.632 c 0,31.2 24.08,56.491 53.783,56.491 l 179.101,0 C -24.08,87.123 0,61.831 0,30.632 L 0,0 Z" /></g><g
           transform="translate(331.8235,304.6687)"
           id="g7800"><path
             id="path7802"
             style="fill:#f15922;fill-opacity:1;fill-rule:nonzero;stroke:none"
             d="m 0,0 c 7.921,0 14.343,-6.421 14.343,-14.343 0,-7.921 -6.422,-14.342 -14.343,-14.342 -7.921,0 -14.343,6.421 -14.343,14.342 C -14.343,-6.421 -7.921,0 0,0" /></g><g
           transform="translate(331.8235,242.2486)"
           id="g7804"><path
             id="path7806"
             style="fill:#f15922;fill-opacity:1;fill-rule:nonzero;stroke:none"
             d="m 0,0 c 7.921,0 14.343,-6.421 14.343,-14.343 0,-7.921 -6.422,-14.342 -14.343,-14.342 -7.921,0 -14.343,6.421 -14.343,14.342 C -14.343,-6.421 -7.921,0 0,0" /></g><g
           transform="translate(300.6134,273.4586)"
           id="g7808"><path
             id="path7810"
             style="fill:#f15922;fill-opacity:1;fill-rule:nonzero;stroke:none"
             d="m 0,0 c 7.921,0 14.343,-6.421 14.343,-14.343 0,-7.921 -6.422,-14.342 -14.343,-14.342 -7.921,0 -14.343,6.421 -14.343,14.342 C -14.343,-6.421 -7.921,0 0,0" /></g><g
           transform="translate(363.0336,273.4586)"
           id="g7812"><path
             id="path7814"
             style="fill:#f15922;fill-opacity:1;fill-rule:nonzero;stroke:none"
             d="m 0,0 c 7.921,0 14.343,-6.421 14.343,-14.343 0,-7.921 -6.422,-14.342 -14.343,-14.342 -7.921,0 -14.343,6.421 -14.343,14.342 C -14.343,-6.421 -7.921,0 0,0" /></g><g
           transform="translate(211.3866,273.4586)"
           id="g7816"><path
             id="path7818"
             style="fill:#020202;fill-opacity:1;fill-rule:nonzero;stroke:none"
             d="m 0,0 -16.867,0 0,16.867 c 0,7.921 -6.422,14.343 -14.343,14.343 -7.921,0 -14.343,-6.422 -14.343,-14.343 L -45.553,0 -62.42,0 c -7.921,0 -14.343,-6.422 -14.343,-14.343 0,-7.921 6.422,-14.342 14.343,-14.342 l 16.867,0 0,-16.868 c 0,-7.921 6.422,-14.342 14.343,-14.342 7.921,0 14.343,6.421 14.343,14.342 l 0,16.868 16.867,0 c 7.921,0 14.343,6.421 14.343,14.342 C 14.343,-6.422 7.921,0 0,0" /></g></g></g></g></svg>