<?xml version="1.0" encoding="UTF-8" standalone="no"?>
<svg
   xmlns:dc="http://purl.org/dc/elements/1.1/"
   xmlns:cc="http://creativecommons.org/ns#"
   xmlns:rdf="http://www.w3.org/1999/02/22-rdf-syntax-ns#"
   xmlns:svg="http://www.w3.org/2000/svg"
   xmlns="http://www.w3.org/2000/svg"
   viewBox="0 0 640 640"
   height="640"
   width="640"
   xml:space="preserve"
   version="1.1"
   id="svg13368"><metadata
     id="metadata13374"><rdf:RDF><cc:Work
         rdf:about=""><dc:format>image/svg+xml</dc:format><dc:type
           rdf:resource="http://purl.org/dc/dcmitype/StillImage" /><dc:title></dc:title></cc:Work></rdf:RDF></metadata><defs
     id="defs13372"><clipPath
       id="clipPath13382"
       clipPathUnits="userSpaceOnUse"><path
         id="path13384"
         d="M 0,512 512,512 512,0 0,0 0,512 Z" /></clipPath><clipPath
       id="clipPath13390"
       clipPathUnits="userSpaceOnUse"><path
         id="path13392"
         d="m 18.325,493.744 475.4,0 0,-475.4877 -475.4,0 0,475.4877 z" /></clipPath><clipPath
       id="clipPath13394"
       clipPathUnits="userSpaceOnUse"><path
         id="path13396"
         d="M 448.99,63.029 C 389.293,3.332 122.807,3.332 63.11,63.029 3.413,122.726 3.413,389.312 63.01,449.009 c 59.597,59.696 326.283,59.596 385.98,0 59.697,-59.597 59.597,-326.283 0,-385.98" /></clipPath><radialGradient
       id="radialGradient13402"
       spreadMethod="pad"
       gradientTransform="matrix(237.72188,0,0,237.72188,256.02499,256)"
       gradientUnits="userSpaceOnUse"
       r="1"
       cy="0"
       cx="0"
       fy="0"
       fx="0"><stop
         id="stop13404"
         offset="0"
         style="stop-opacity:1;stop-color:#ffffff" /><stop
         id="stop13406"
         offset="0.8587"
         style="stop-opacity:0.14129854;stop-color:#ffffff" /><stop
         id="stop13408"
         offset="1"
         style="stop-opacity:0;stop-color:#ffffff" /></radialGradient><mask
       id="mask13410"
       height="1"
       width="1"
       y="0"
       x="0"
       maskUnits="userSpaceOnUse"><g
         id="g13412"><g
           id="g13414"><g
             id="g13416"><g
               id="g13418"><path
                 id="path13420"
                 style="fill:url(#radialGradient13402);stroke:none"
                 d="m -32768,32767 65535,0 0,-65535 -65535,0 0,65535 z" /></g></g></g></g></mask><radialGradient
       id="radialGradient13422"
       spreadMethod="pad"
       gradientTransform="matrix(237.72188,0,0,237.72188,256.02499,256)"
       gradientUnits="userSpaceOnUse"
       r="1"
       cy="0"
       cx="0"
       fy="0"
       fx="0"><stop
         id="stop13424"
         offset="0"
         style="stop-opacity:1;stop-color:#010101" /><stop
         id="stop13426"
         offset="0.8587"
         style="stop-opacity:1;stop-color:#010101" /><stop
         id="stop13428"
         offset="1"
         style="stop-opacity:1;stop-color:#010101" /></radialGradient><clipPath
       id="clipPath13452"
       clipPathUnits="userSpaceOnUse"><path
         id="path13454"
         d="m 18.325,493.744 475.4,0 0,-475.4877 -475.4,0 0,475.4877 z" /></clipPath><clipPath
       id="clipPath13456"
       clipPathUnits="userSpaceOnUse"><path
         id="path13458"
         d="M 448.99,63.029 C 389.293,3.332 122.807,3.332 63.11,63.029 3.413,122.726 3.413,389.312 63.01,449.009 c 59.597,59.696 326.283,59.596 385.98,0 59.697,-59.597 59.597,-326.283 0,-385.98" /></clipPath><radialGradient
       id="radialGradient13464"
       spreadMethod="pad"
       gradientTransform="matrix(188.25467,188.36119,-130.35883,130.27895,256.02499,256.04376)"
       gradientUnits="userSpaceOnUse"
       r="1"
       cy="0"
       cx="0"
       fy="0"
       fx="0"><stop
         id="stop13466"
         offset="0"
         style="stop-opacity:1;stop-color:#ffffff" /><stop
         id="stop13468"
         offset="0.8587"
         style="stop-opacity:0.14129854;stop-color:#ffffff" /><stop
         id="stop13470"
         offset="1"
         style="stop-opacity:0;stop-color:#ffffff" /></radialGradient><mask
       id="mask13472"
       height="1"
       width="1"
       y="0"
       x="0"
       maskUnits="userSpaceOnUse"><g
         id="g13474"><g
           id="g13476"><g
             id="g13478"><g
               id="g13480"><path
                 id="path13482"
                 style="fill:url(#radialGradient13464);stroke:none"
                 d="m -32768,32767 65535,0 0,-65535 -65535,0 0,65535 z" /></g></g></g></g></mask><radialGradient
       id="radialGradient13484"
       spreadMethod="pad"
       gradientTransform="matrix(188.25467,188.36119,-130.35883,130.27895,256.02499,256.04376)"
       gradientUnits="userSpaceOnUse"
       r="1"
       cy="0"
       cx="0"
       fy="0"
       fx="0"><stop
         id="stop13486"
         offset="0"
         style="stop-opacity:1;stop-color:#010101" /><stop
         id="stop13488"
         offset="0.8587"
         style="stop-opacity:1;stop-color:#010101" /><stop
         id="stop13490"
         offset="1"
         style="stop-opacity:1;stop-color:#010101" /></radialGradient><clipPath
       id="clipPath13514"
       clipPathUnits="userSpaceOnUse"><path
         id="path13516"
         d="m 18.275,493.694 475.387,0 0,-475.4377 -475.387,0 0,475.4377 z" /></clipPath><clipPath
       id="clipPath13518"
       clipPathUnits="userSpaceOnUse"><path
         id="path13520"
         d="m 63.01,63.029 c 59.697,-59.697 326.183,-59.697 385.88,0 59.697,59.697 59.697,326.183 0,385.88 -59.697,59.696 -326.183,59.696 -385.88,0.1 -59.697,-59.597 -59.597,-326.283 0,-385.98" /></clipPath><radialGradient
       id="radialGradient13526"
       spreadMethod="pad"
       gradientTransform="matrix(-188.28767,188.39421,130.38168,130.30179,255.92499,255.99377)"
       gradientUnits="userSpaceOnUse"
       r="1"
       cy="0"
       cx="0"
       fy="0"
       fx="0"><stop
         id="stop13528"
         offset="0"
         style="stop-opacity:1;stop-color:#ffffff" /><stop
         id="stop13530"
         offset="0.8587"
         style="stop-opacity:0.14129854;stop-color:#ffffff" /><stop
         id="stop13532"
         offset="1"
         style="stop-opacity:0;stop-color:#ffffff" /></radialGradient><mask
       id="mask13534"
       height="1"
       width="1"
       y="0"
       x="0"
       maskUnits="userSpaceOnUse"><g
         id="g13536"><g
           id="g13538"><g
             id="g13540"><g
               id="g13542"><path
                 id="path13544"
                 style="fill:url(#radialGradient13526);stroke:none"
                 d="m -32768,32767 65535,0 0,-65535 -65535,0 0,65535 z" /></g></g></g></g></mask><radialGradient
       id="radialGradient13546"
       spreadMethod="pad"
       gradientTransform="matrix(-188.28767,188.39421,130.38168,130.30179,255.92499,255.99377)"
       gradientUnits="userSpaceOnUse"
       r="1"
       cy="0"
       cx="0"
       fy="0"
       fx="0"><stop
         id="stop13548"
         offset="0"
         style="stop-opacity:1;stop-color:#010101" /><stop
         id="stop13550"
         offset="0.8587"
         style="stop-opacity:1;stop-color:#010101" /><stop
         id="stop13552"
         offset="1"
         style="stop-opacity:1;stop-color:#010101" /></radialGradient></defs><g
     transform="matrix(1.25,0,0,-1.25,0,640)"
     id="g13376"><g
       id="g13378"><g
         clip-path="url(#clipPath13382)"
         id="g13380"><g
           id="g13386"><g
             id="g13388" /><g
             id="g13430"><g
               style="opacity:0.39999402"
               id="g13432"
               clip-path="url(#clipPath13390)"><g
                 id="g13434"><g
                   id="g13436"
                   clip-path="url(#clipPath13394)"><g
                     id="g13438"><g
                       id="g13440" /><g
                       id="g13442"
                       mask="url(#mask13410)"><g
                         id="g13444"><path
                           id="path13446"
                           style="fill:url(#radialGradient13422);stroke:none"
                           d="M 448.99,63.029 C 389.293,3.332 122.807,3.332 63.11,63.029 3.413,122.726 3.413,389.312 63.01,449.009 c 59.597,59.696 326.283,59.596 385.98,0 59.697,-59.597 59.597,-326.283 0,-385.98" /></g></g></g></g></g></g></g></g><g
           id="g13448"><g
             id="g13450" /><g
             id="g13492"><g
               style="opacity:0.39999402"
               id="g13494"
               clip-path="url(#clipPath13452)"><g
                 id="g13496"><g
                   id="g13498"
                   clip-path="url(#clipPath13456)"><g
                     id="g13500"><g
                       id="g13502" /><g
                       id="g13504"
                       mask="url(#mask13472)"><g
                         id="g13506"><path
                           id="path13508"
                           style="fill:url(#radialGradient13484);stroke:none"
                           d="M 448.99,63.029 C 389.293,3.332 122.807,3.332 63.11,63.029 3.413,122.726 3.413,389.312 63.01,449.009 c 59.597,59.696 326.283,59.596 385.98,0 59.697,-59.597 59.597,-326.283 0,-385.98" /></g></g></g></g></g></g></g></g><g
           id="g13510"><g
             id="g13512" /><g
             id="g13554"><g
               style="opacity:0.39999402"
               id="g13556"
               clip-path="url(#clipPath13514)"><g
                 id="g13558"><g
                   id="g13560"
                   clip-path="url(#clipPath13518)"><g
                     id="g13562"><g
                       id="g13564" /><g
                       id="g13566"
                       mask="url(#mask13534)"><g
                         id="g13568"><path
                           id="path13570"
                           style="fill:url(#radialGradient13546);stroke:none"
                           d="m 63.01,63.029 c 59.697,-59.697 326.183,-59.697 385.88,0 59.697,59.697 59.697,326.183 0,385.88 -59.697,59.696 -326.183,59.696 -385.88,0.1 -59.697,-59.597 -59.597,-326.283 0,-385.98" /></g></g></g></g></g></g></g></g><g
           transform="translate(433.2791,78.7209)"
           id="g13572"><path
             id="path13574"
             style="fill:#dededd;fill-opacity:1;fill-rule:nonzero;stroke:none"
             d="m 0,0 c -70.294,-70.294 -284.264,-70.294 -354.557,0 -70.295,70.294 -70.295,284.264 0,354.557 70.293,70.295 284.263,70.295 354.557,0 C 70.294,284.264 70.294,70.294 0,0" /></g><g
           transform="translate(278.7526,445.6155)"
           id="g13576"><path
             id="path13578"
             style="fill:#46abe0;fill-opacity:1;fill-rule:nonzero;stroke:none"
             d="m 0,0 -45.507,0 -15.168,-42.723 c -13.896,-3.59 -27.01,-9.131 -39.071,-16.269 l -0.06,0.061 -40.936,19.483 -32.179,-32.179 19.483,-40.936 0.061,-0.06 c -7.138,-12.062 -12.679,-25.177 -16.269,-39.071 l -42.723,-15.169 0,-45.507 42.723,-15.169 c 3.59,-13.896 9.133,-27.01 16.269,-39.071 l -0.061,-0.06 -19.483,-40.933 32.179,-32.179 40.936,19.485 0.06,0.058 c 12.062,-7.137 25.177,-12.676 39.071,-16.269 l 15.168,-42.723 45.507,0 15.169,42.723 c 13.896,3.591 27.01,9.133 39.071,16.269 l 0.06,-0.058 40.936,-19.485 32.179,32.179 -19.485,40.933 -0.058,0.06 c 7.137,12.062 12.676,25.177 16.269,39.071 l 42.723,15.17 0,45.507 -42.723,15.169 c -3.591,13.897 -9.133,27.01 -16.269,39.071 l 0.058,0.06 19.485,40.936 L 95.236,-39.447 54.3,-58.93 54.24,-58.99 c -12.062,7.137 -25.177,12.678 -39.071,16.267 L 0,0 Z m -4.519,-6.4 13.657,-38.464 1.138,-3.205 3.292,-0.85 c 13.054,-3.372 25.641,-8.614 37.413,-15.579 l 4.271,-2.527 2.792,2.789 35.862,17.068 25.788,-25.788 -17.093,-35.911 -2.721,-2.816 2.484,-4.198 c 6.966,-11.773 12.208,-24.361 15.58,-37.413 l 0.851,-3.292 3.204,-1.138 38.465,-13.657 0,-36.469 -38.465,-13.658 -3.203,-1.137 -0.851,-3.291 c -3.378,-13.062 -8.62,-25.65 -15.581,-37.414 l -2.485,-4.201 2.722,-2.815 17.093,-35.908 -25.788,-25.787 -35.911,17.093 -2.816,2.72 -4.198,-2.483 c -11.773,-6.966 -24.36,-12.208 -37.413,-15.581 l -3.292,-0.851 -1.138,-3.204 -13.657,-38.464 -36.469,0 -13.656,38.464 -1.137,3.204 -3.292,0.851 c -13.062,3.378 -25.65,8.62 -37.414,15.581 l -4.195,2.482 -2.817,-2.718 -35.913,-17.094 -25.788,25.787 17.056,35.834 2.825,2.78 -2.55,4.309 c -6.967,11.776 -12.209,24.363 -15.58,37.413 l -0.851,3.293 -3.204,1.138 -38.465,13.656 0,36.469 38.465,13.657 3.204,1.138 0.851,3.292 c 3.373,13.056 8.615,25.643 15.58,37.413 l 2.55,4.309 -2.825,2.78 -17.056,35.836 25.788,25.788 35.838,-17.056 2.78,-2.824 4.308,2.549 c 11.769,6.966 24.356,12.208 37.412,15.581 l 3.293,0.85 1.137,3.205 13.656,38.464 36.469,0" /></g><g
           transform="translate(313.7146,313.5677)"
           id="g13580"><path
             id="path13582"
             style="fill:#f47920;fill-opacity:1;fill-rule:nonzero;stroke:none"
             d="m 0,0 -115.406,0 0,-0.001 c -0.007,0 -0.015,0.001 -0.022,0.001 -31.794,0 -57.568,-25.774 -57.568,-57.568 0,-31.794 25.774,-57.568 57.568,-57.568 0.009,0 0.019,10e-4 0.028,10e-4 l 115.371,0 c 0.01,0 0.019,-10e-4 0.028,-10e-4 31.794,0 57.568,25.774 57.568,57.568 C 57.568,-25.774 31.794,0 0,0" /></g><g
           transform="translate(313.7146,299.8578)"
           id="g13584"><path
             id="path13586"
             style="fill:#edf0f1;fill-opacity:1;fill-rule:nonzero;stroke:none"
             d="M 0,0 C 24.222,0 43.858,-19.636 43.858,-43.858 43.858,-68.08 24.222,-87.716 0,-87.716 c -24.222,0 -43.858,19.636 -43.858,43.858 C -43.858,-19.636 -24.222,0 0,0" /></g></g></g></g></svg>