<?xml version="1.0" encoding="UTF-8" standalone="no"?>
<svg
   xmlns:dc="http://purl.org/dc/elements/1.1/"
   xmlns:cc="http://creativecommons.org/ns#"
   xmlns:rdf="http://www.w3.org/1999/02/22-rdf-syntax-ns#"
   xmlns:svg="http://www.w3.org/2000/svg"
   xmlns="http://www.w3.org/2000/svg"
   viewBox="0 0 640 640"
   height="640"
   width="640"
   xml:space="preserve"
   version="1.1"
   id="svg14128"><metadata
     id="metadata14134"><rdf:RDF><cc:Work
         rdf:about=""><dc:format>image/svg+xml</dc:format><dc:type
           rdf:resource="http://purl.org/dc/dcmitype/StillImage" /><dc:title></dc:title></cc:Work></rdf:RDF></metadata><defs
     id="defs14132"><clipPath
       id="clipPath14142"
       clipPathUnits="userSpaceOnUse"><path
         id="path14144"
         d="M 0,512 512,512 512,0 0,0 0,512 Z" /></clipPath><clipPath
       id="clipPath14150"
       clipPathUnits="userSpaceOnUse"><path
         id="path14152"
         d="m 18.325,493.744 475.4,0 0,-475.4877 -475.4,0 0,475.4877 z" /></clipPath><clipPath
       id="clipPath14154"
       clipPathUnits="userSpaceOnUse"><path
         id="path14156"
         d="M 448.99,63.029 C 389.293,3.332 122.807,3.332 63.11,63.029 3.413,122.726 3.413,389.312 63.01,449.009 c 59.597,59.696 326.283,59.596 385.98,0 59.697,-59.597 59.597,-326.283 0,-385.98" /></clipPath><radialGradient
       id="radialGradient14162"
       spreadMethod="pad"
       gradientTransform="matrix(237.72188,0,0,237.72188,256.02499,256)"
       gradientUnits="userSpaceOnUse"
       r="1"
       cy="0"
       cx="0"
       fy="0"
       fx="0"><stop
         id="stop14164"
         offset="0"
         style="stop-opacity:1;stop-color:#ffffff" /><stop
         id="stop14166"
         offset="0.8587"
         style="stop-opacity:0.14129854;stop-color:#ffffff" /><stop
         id="stop14168"
         offset="1"
         style="stop-opacity:0;stop-color:#ffffff" /></radialGradient><mask
       id="mask14170"
       height="1"
       width="1"
       y="0"
       x="0"
       maskUnits="userSpaceOnUse"><g
         id="g14172"><g
           id="g14174"><g
             id="g14176"><g
               id="g14178"><path
                 id="path14180"
                 style="fill:url(#radialGradient14162);stroke:none"
                 d="m -32768,32767 65535,0 0,-65535 -65535,0 0,65535 z" /></g></g></g></g></mask><radialGradient
       id="radialGradient14182"
       spreadMethod="pad"
       gradientTransform="matrix(237.72188,0,0,237.72188,256.02499,256)"
       gradientUnits="userSpaceOnUse"
       r="1"
       cy="0"
       cx="0"
       fy="0"
       fx="0"><stop
         id="stop14184"
         offset="0"
         style="stop-opacity:1;stop-color:#010101" /><stop
         id="stop14186"
         offset="0.8587"
         style="stop-opacity:1;stop-color:#010101" /><stop
         id="stop14188"
         offset="1"
         style="stop-opacity:1;stop-color:#010101" /></radialGradient><clipPath
       id="clipPath14212"
       clipPathUnits="userSpaceOnUse"><path
         id="path14214"
         d="m 18.325,493.744 475.4,0 0,-475.4877 -475.4,0 0,475.4877 z" /></clipPath><clipPath
       id="clipPath14216"
       clipPathUnits="userSpaceOnUse"><path
         id="path14218"
         d="M 448.99,63.029 C 389.293,3.332 122.807,3.332 63.11,63.029 3.413,122.726 3.413,389.312 63.01,449.009 c 59.597,59.696 326.283,59.596 385.98,0 59.697,-59.597 59.597,-326.283 0,-385.98" /></clipPath><radialGradient
       id="radialGradient14224"
       spreadMethod="pad"
       gradientTransform="matrix(188.25467,188.36119,-130.35883,130.27895,256.02499,256.04376)"
       gradientUnits="userSpaceOnUse"
       r="1"
       cy="0"
       cx="0"
       fy="0"
       fx="0"><stop
         id="stop14226"
         offset="0"
         style="stop-opacity:1;stop-color:#ffffff" /><stop
         id="stop14228"
         offset="0.8587"
         style="stop-opacity:0.14129854;stop-color:#ffffff" /><stop
         id="stop14230"
         offset="1"
         style="stop-opacity:0;stop-color:#ffffff" /></radialGradient><mask
       id="mask14232"
       height="1"
       width="1"
       y="0"
       x="0"
       maskUnits="userSpaceOnUse"><g
         id="g14234"><g
           id="g14236"><g
             id="g14238"><g
               id="g14240"><path
                 id="path14242"
                 style="fill:url(#radialGradient14224);stroke:none"
                 d="m -32768,32767 65535,0 0,-65535 -65535,0 0,65535 z" /></g></g></g></g></mask><radialGradient
       id="radialGradient14244"
       spreadMethod="pad"
       gradientTransform="matrix(188.25467,188.36119,-130.35883,130.27895,256.02499,256.04376)"
       gradientUnits="userSpaceOnUse"
       r="1"
       cy="0"
       cx="0"
       fy="0"
       fx="0"><stop
         id="stop14246"
         offset="0"
         style="stop-opacity:1;stop-color:#010101" /><stop
         id="stop14248"
         offset="0.8587"
         style="stop-opacity:1;stop-color:#010101" /><stop
         id="stop14250"
         offset="1"
         style="stop-opacity:1;stop-color:#010101" /></radialGradient><clipPath
       id="clipPath14274"
       clipPathUnits="userSpaceOnUse"><path
         id="path14276"
         d="m 18.275,493.694 475.387,0 0,-475.4377 -475.387,0 0,475.4377 z" /></clipPath><clipPath
       id="clipPath14278"
       clipPathUnits="userSpaceOnUse"><path
         id="path14280"
         d="m 63.01,63.029 c 59.697,-59.697 326.183,-59.697 385.88,0 59.697,59.697 59.697,326.183 0,385.88 -59.697,59.696 -326.183,59.696 -385.88,0.1 -59.697,-59.597 -59.597,-326.283 0,-385.98" /></clipPath><radialGradient
       id="radialGradient14286"
       spreadMethod="pad"
       gradientTransform="matrix(-188.28767,188.39421,130.38168,130.30179,255.92499,255.99377)"
       gradientUnits="userSpaceOnUse"
       r="1"
       cy="0"
       cx="0"
       fy="0"
       fx="0"><stop
         id="stop14288"
         offset="0"
         style="stop-opacity:1;stop-color:#ffffff" /><stop
         id="stop14290"
         offset="0.8587"
         style="stop-opacity:0.14129854;stop-color:#ffffff" /><stop
         id="stop14292"
         offset="1"
         style="stop-opacity:0;stop-color:#ffffff" /></radialGradient><mask
       id="mask14294"
       height="1"
       width="1"
       y="0"
       x="0"
       maskUnits="userSpaceOnUse"><g
         id="g14296"><g
           id="g14298"><g
             id="g14300"><g
               id="g14302"><path
                 id="path14304"
                 style="fill:url(#radialGradient14286);stroke:none"
                 d="m -32768,32767 65535,0 0,-65535 -65535,0 0,65535 z" /></g></g></g></g></mask><radialGradient
       id="radialGradient14306"
       spreadMethod="pad"
       gradientTransform="matrix(-188.28767,188.39421,130.38168,130.30179,255.92499,255.99377)"
       gradientUnits="userSpaceOnUse"
       r="1"
       cy="0"
       cx="0"
       fy="0"
       fx="0"><stop
         id="stop14308"
         offset="0"
         style="stop-opacity:1;stop-color:#010101" /><stop
         id="stop14310"
         offset="0.8587"
         style="stop-opacity:1;stop-color:#010101" /><stop
         id="stop14312"
         offset="1"
         style="stop-opacity:1;stop-color:#010101" /></radialGradient><radialGradient
       id="radialGradient14344"
       spreadMethod="pad"
       gradientTransform="matrix(407.07846,0,0,-407.07846,252,481.74606)"
       gradientUnits="userSpaceOnUse"
       r="1"
       cy="0"
       cx="0"
       fy="0"
       fx="0"><stop
         id="stop14346"
         offset="0"
         style="stop-opacity:1;stop-color:#faad1b" /><stop
         id="stop14348"
         offset="0.0193388"
         style="stop-opacity:1;stop-color:#faad1b" /><stop
         id="stop14350"
         offset="0.3892"
         style="stop-opacity:1;stop-color:#f26731" /><stop
         id="stop14352"
         offset="0.7239"
         style="stop-opacity:1;stop-color:#e7156f" /><stop
         id="stop14354"
         offset="1"
         style="stop-opacity:1;stop-color:#652f8c" /></radialGradient><clipPath
       id="clipPath14362"
       clipPathUnits="userSpaceOnUse"><path
         id="path14364"
         d="M 0,512 512,512 512,0 0,0 0,512 Z" /></clipPath><clipPath
       id="clipPath14370"
       clipPathUnits="userSpaceOnUse"><path
         id="path14372"
         d="m 89.4207,87.6667 334.9693,0 0,-61.6596 -334.9693,0 0,61.6596 z" /></clipPath><clipPath
       id="clipPath14390"
       clipPathUnits="userSpaceOnUse"><path
         id="path14392"
         d="m 112.666,319.548 286.668,0 0,-143.096 -286.668,0 0,143.096 z" /></clipPath></defs><g
     transform="matrix(1.25,0,0,-1.25,0,640)"
     id="g14136"><g
       id="g14138"><g
         clip-path="url(#clipPath14142)"
         id="g14140"><g
           id="g14146"><g
             id="g14148" /><g
             id="g14190"><g
               style="opacity:0.39999402"
               id="g14192"
               clip-path="url(#clipPath14150)"><g
                 id="g14194"><g
                   id="g14196"
                   clip-path="url(#clipPath14154)"><g
                     id="g14198"><g
                       id="g14200" /><g
                       id="g14202"
                       mask="url(#mask14170)"><g
                         id="g14204"><path
                           id="path14206"
                           style="fill:url(#radialGradient14182);stroke:none"
                           d="M 448.99,63.029 C 389.293,3.332 122.807,3.332 63.11,63.029 3.413,122.726 3.413,389.312 63.01,449.009 c 59.597,59.696 326.283,59.596 385.98,0 59.697,-59.597 59.597,-326.283 0,-385.98" /></g></g></g></g></g></g></g></g><g
           id="g14208"><g
             id="g14210" /><g
             id="g14252"><g
               style="opacity:0.39999402"
               id="g14254"
               clip-path="url(#clipPath14212)"><g
                 id="g14256"><g
                   id="g14258"
                   clip-path="url(#clipPath14216)"><g
                     id="g14260"><g
                       id="g14262" /><g
                       id="g14264"
                       mask="url(#mask14232)"><g
                         id="g14266"><path
                           id="path14268"
                           style="fill:url(#radialGradient14244);stroke:none"
                           d="M 448.99,63.029 C 389.293,3.332 122.807,3.332 63.11,63.029 3.413,122.726 3.413,389.312 63.01,449.009 c 59.597,59.696 326.283,59.596 385.98,0 59.697,-59.597 59.597,-326.283 0,-385.98" /></g></g></g></g></g></g></g></g><g
           id="g14270"><g
             id="g14272" /><g
             id="g14314"><g
               style="opacity:0.39999402"
               id="g14316"
               clip-path="url(#clipPath14274)"><g
                 id="g14318"><g
                   id="g14320"
                   clip-path="url(#clipPath14278)"><g
                     id="g14322"><g
                       id="g14324" /><g
                       id="g14326"
                       mask="url(#mask14294)"><g
                         id="g14328"><path
                           id="path14330"
                           style="fill:url(#radialGradient14306);stroke:none"
                           d="m 63.01,63.029 c 59.697,-59.697 326.183,-59.697 385.88,0 59.697,59.697 59.697,326.183 0,385.88 -59.697,59.696 -326.183,59.696 -385.88,0.1 -59.697,-59.597 -59.597,-326.283 0,-385.98" /></g></g></g></g></g></g></g></g></g></g><g
       id="g14332"><g
         id="g14334"><g
           id="g14340"><g
             id="g14342"><path
               id="path14356"
               style="fill:url(#radialGradient14344);stroke:none"
               d="M 78.721,433.279 C 8.427,362.985 8.427,149.015 78.721,78.721 l 0,0 c 70.294,-70.294 284.264,-70.294 354.558,0 l 0,0 c 70.294,70.294 70.294,284.264 0,354.558 l 0,0 C 398.132,468.426 327.066,486 256,486 l 0,0 C 184.934,486 113.868,468.426 78.721,433.279" /></g></g></g></g><g
       id="g14358"><g
         clip-path="url(#clipPath14362)"
         id="g14360"><g
           id="g14366"><g
             id="g14368" /><g
             id="g14374"><g
               style="opacity:0.19999701"
               id="g14376"
               clip-path="url(#clipPath14370)"><g
                 id="g14378"
                 transform="translate(404.6667,87.6667)"><path
                   id="path14380"
                   style="fill:#ffffff;fill-opacity:1;fill-rule:nonzero;stroke:none"
                   d="M 0,0 C 0,0 -67.76,-15.917 -145.917,-15.917 -228.286,-15.917 -295.333,0 -295.333,0 -305.755,0 -314.367,-8.082 -315.246,-18.286 -239.319,-76.6 -54.415,-76.11 19.723,-16.838 18.193,-7.33 9.922,0 0,0" /></g></g></g></g><g
           transform="translate(81.2227,435.6667)"
           id="g14382"><path
             id="path14384"
             style="fill:#000000;fill-opacity:1;fill-rule:nonzero;stroke:none"
             d="M 0,0 C 0,0 107.364,19.333 174.777,19.333 253.491,19.333 349.555,0 349.555,0 277.685,67.098 71.869,67.098 0,0" /></g><g
           id="g14386"><g
             id="g14388" /><g
             id="g14394"><g
               style="opacity:0.39999402"
               id="g14396"
               clip-path="url(#clipPath14390)"><g
                 id="g14398"
                 transform="translate(327.7067,193.2869)"><path
                   id="path14400"
                   style="fill:#000000;fill-opacity:1;fill-rule:nonzero;stroke:none"
                   d="m 0,0 c -30.176,0 -54.634,24.458 -54.634,54.634 0,30.175 24.458,54.633 54.634,54.633 30.176,0 54.634,-24.458 54.634,-54.633 C 54.634,24.458 30.176,0 0,0 m 0,126.261 -143.413,0 c -39.546,0 -71.628,-32.081 -71.628,-71.627 0,-39.546 32.082,-71.469 71.628,-71.469 l 0.158,0 143.414,0 c 39.546,0 71.468,32.082 71.468,71.627 0,39.388 -32.081,71.469 -71.627,71.469" /></g><g
                 id="g14402"
                 transform="translate(327.7067,290.484)"><path
                   id="path14404"
                   style="fill:#000000;fill-opacity:1;fill-rule:nonzero;stroke:none"
                   d="m 0,0 c -23.505,0 -42.563,-19.058 -42.563,-42.563 0,-23.506 19.058,-42.564 42.563,-42.564 23.505,0 42.563,19.058 42.563,42.564 C 42.563,-19.058 23.505,0 0,0" /></g></g></g></g><g
           transform="translate(327.7067,201.2869)"
           id="g14406"><path
             id="path14408"
             style="fill:#ffffff;fill-opacity:1;fill-rule:nonzero;stroke:none"
             d="m 0,0 c -30.176,0 -54.634,24.458 -54.634,54.634 0,30.175 24.458,54.633 54.634,54.633 30.176,0 54.634,-24.458 54.634,-54.633 C 54.634,24.458 30.176,0 0,0 m 0,126.261 -143.413,0 c -39.546,0 -71.628,-32.081 -71.628,-71.627 0,-39.546 32.082,-71.469 71.628,-71.469 l 0.158,0 143.414,0 c 39.546,0 71.468,32.082 71.468,71.627 0,39.388 -32.081,71.469 -71.627,71.469" /></g><g
           transform="translate(327.7067,298.484)"
           id="g14410"><path
             id="path14412"
             style="fill:#ffffff;fill-opacity:1;fill-rule:nonzero;stroke:none"
             d="m 0,0 c -23.505,0 -42.563,-19.058 -42.563,-42.563 0,-23.506 19.058,-42.564 42.563,-42.564 23.505,0 42.563,19.058 42.563,42.564 C 42.563,-19.058 23.505,0 0,0" /></g></g></g></g></svg>