<?xml version="1.0" encoding="utf-8"?>
<!-- Generator: Adobe Illustrator 18.0.0, SVG Export Plug-In . SVG Version: 6.00 Build 0)  -->
<!DOCTYPE svg PUBLIC "-//W3C//DTD SVG 1.1//EN" "http://www.w3.org/Graphics/SVG/1.1/DTD/svg11.dtd">
<svg version="1.1" id="Layer_1" xmlns="http://www.w3.org/2000/svg" xmlns:xlink="http://www.w3.org/1999/xlink" x="0px" y="0px"
	 viewBox="0 0 512 512" enable-background="new 0 0 512 512" xml:space="preserve">
<g>
	<g>
		<path fill="#FFFFFF" d="M218.8,194.9v35.3c10.5-7.5,23.3-11.9,37.2-11.9s26.7,4.4,37.2,11.9v-35.3v-30.2c0-19.4-15.1-34.8-34-36.5
			c-1.1-0.1-2.1-0.6-3.2-0.6s-2.1,0.5-3.2,0.6c-18.9,1.7-34,17.2-34,36.5V194.9z"/>
		<path fill="#FFFFFF" d="M290.8,130.1c8.8,8.9,14.3,21.1,14.3,34.6v32.2v44.2c6.1,7.2,10.4,15.8,12.8,25.2
			c1.4,5.2,2.3,10.6,2.3,16.2c0,18-7.4,34.2-19.3,45.8c-11.6,11.3-27.4,18.4-44.9,18.4s-33.3-7-44.9-18.4
			c-11.9-11.7-19.3-27.9-19.3-45.8c0-5.6,1-11,2.3-16.2c2.5-9.4,6.8-18,12.8-25.2v-44.2v-32.2c0-13.5,5.5-25.7,14.3-34.6
			c-60,6.5-115.1,29.4-160.5,64.4l39.1,50.7l39.1,50.7l39.1,50.7l39.1,50.7L256,448l39.1-50.7l39.1-50.7l39.1-50.7l39.1-50.7
			l39.1-50.7C406,159.5,350.8,136.6,290.8,130.1z"/>
		<path fill="#FFFFFF" d="M256,307.9c3.2,0,5.8-2.6,5.8-5.8v-21.3c4-2.1,6.8-6.3,6.8-11.2c0-7-5.6-12.6-12.6-12.6
			s-12.6,5.6-12.6,12.6c0,4.9,2.8,9.1,6.8,11.2v21.3C250.2,305.3,252.8,307.9,256,307.9z"/>
	</g>
	<path fill="#FFFFFF" d="M256,66c43,0,85.1,7.1,125.3,21c38.2,13.3,74,32.5,106.3,57.2l-37.8,49.1L410.7,244l-39.1,50.7l-39.1,50.7
		l-39.1,50.7L256,444.7l-37.5-48.6l-39.1-50.7l-39.1-50.7l-39-50.7l-39.1-50.7l-37.8-49.1c32.3-24.7,68-43.9,106.3-57.2
		C170.9,73.1,213,66,256,66 M256,64c-88.3,0-169.6,29.8-234.4,79.9l39.1,50.7l39.1,50.7l39.1,50.7l39.1,50.7l39.1,50.7L256,448
		l39.1-50.7l39.1-50.7l39.1-50.7l39.1-50.7l39.1-50.7l39.1-50.7C425.6,93.8,344.3,64,256,64L256,64z"/>
</g>
<g>
	<path fill="#FFFFFF" d="M256,127.6c0.7,0,1.4,0.2,2,0.4c10.9,0.1,21.7,0.7,32.3,1.8c-8.9-8.6-21-14.1-34.4-14.1
		c-13.4,0-25.5,5.4-34.4,14.1c10.6-1.1,21.4-1.7,32.3-1.8C254.6,127.8,255.3,127.6,256,127.6z"/>
</g>
</svg>
