<?xml version="1.0" encoding="utf-8"?>
<!-- Generator: Adobe Illustrator 18.0.0, SVG Export Plug-In . SVG Version: 6.00 Build 0)  -->
<!DOCTYPE svg PUBLIC "-//W3C//DTD SVG 1.1//EN" "http://www.w3.org/Graphics/SVG/1.1/DTD/svg11.dtd">
<svg version="1.1"
	 id="Layer_2" xmlns:dc="http://purl.org/dc/elements/1.1/" xmlns:cc="http://creativecommons.org/ns#" xmlns:svg="http://www.w3.org/2000/svg" xmlns:rdf="http://www.w3.org/1999/02/22-rdf-syntax-ns#"
	 xmlns="http://www.w3.org/2000/svg" xmlns:xlink="http://www.w3.org/1999/xlink" x="0px" y="0px" viewBox="0 0 512 512"
	 enable-background="new 0 0 512 512" xml:space="preserve">
<g>
	<path id="path3_1_" fill="#d2e8f9" d="M465.7,44.2H265.9c-6.2,0-12.1,2.9-16,7.7l-10.8,13.6c-3.8,4.8-9.7,7.7-15.8,7.7h-177
		C35.1,73.3,26,82.4,26,93.6v363.8c0,5.7,4.6,10.3,10.3,10.3h439.3c5.7,0,10.3-4.6,10.3-10.3V73.3v-8.7
		C486,53.3,476.9,44.2,465.7,44.2z"/>
	<path id="path11_1_" fill="#1acdfb" d="M476,467.8H36c-5.5,0-10-4.5-10-10V183.5c0-11,9-20,20-20h420c11,0,20,9,20,20v274.3
		C486,463.3,481.5,467.8,476,467.8z"/>
	<g opacity="0.15">
		<path fill="#FFFFFF" d="M46.3,73.2c-2.8,0.1-5.5,0.6-7.9,1.7L27.7,85.7c-1,2.4-1.6,5.2-1.6,8v0.7l21.1-21.1L46.3,73.2L46.3,73.2z"
			/>
		<polygon fill="#FFFFFF" points="54.2,73.2 26,101.4 26,108.5 61.3,73.2 		"/>
		<polygon fill="#FFFFFF" points="68.3,73.2 26,115.6 26,122.6 75.4,73.2 		"/>
		<polygon fill="#FFFFFF" points="82.4,73.2 26,129.6 26,136.7 89.5,73.2 		"/>
		<polygon fill="#FFFFFF" points="96.6,73.2 26,143.8 26,150.9 103.7,73.2 		"/>
		<polygon fill="#FFFFFF" points="110.7,73.2 26,157.9 26,164.9 117.8,73.2 		"/>
		<polygon fill="#FFFFFF" points="124.8,73.2 26,172 26,179.1 131.9,73.2 		"/>
		<polygon fill="#FFFFFF" points="138.9,73.2 26,186.1 26,193.1 145.9,73.2 		"/>
		<polygon fill="#FFFFFF" points="153,73.2 26,200.2 26,207.3 160.1,73.2 		"/>
		<polygon fill="#FFFFFF" points="167.1,73.2 26,214.4 26,221.4 174.2,73.2 		"/>
		<polygon fill="#FFFFFF" points="181.2,73.2 26,228.4 26,235.5 188.3,73.2 		"/>
		<polygon fill="#FFFFFF" points="195.4,73.2 26,242.6 26,249.6 202.4,73.2 		"/>
		<polygon fill="#FFFFFF" points="209.5,73.2 26,256.7 26,263.8 216.6,73.2 		"/>
		<path fill="#FFFFFF" d="M249.9,52l-7.8,9.8l15.9-16C254.9,47.2,252.1,49.2,249.9,52z"/>
		<path fill="#FFFFFF" d="M223.6,73.2L26,270.8v7L233.4,70.5C230.4,72.2,227.1,73.2,223.6,73.2z"/>
		<polygon fill="#FFFFFF" points="266.7,44.2 26,284.9 26,292 273.8,44.2 		"/>
		<polygon fill="#FFFFFF" points="280.8,44.2 26,299 26,306.1 287.9,44.2 		"/>
		<polygon fill="#FFFFFF" points="295,44.2 26,313.1 26,320.2 302,44.2 		"/>
		<polygon fill="#FFFFFF" points="309,44.2 26,327.2 26,334.3 316.1,44.2 		"/>
		<polygon fill="#FFFFFF" points="323.1,44.2 26,341.4 26,348.5 330.2,44.2 		"/>
		<polygon fill="#FFFFFF" points="337.3,44.2 26,355.5 26,362.5 344.4,44.2 		"/>
		<polygon fill="#FFFFFF" points="351.4,44.2 26,369.6 26,376.6 358.5,44.2 		"/>
		<polygon fill="#FFFFFF" points="365.5,44.2 26,383.7 26,390.8 372.6,44.2 		"/>
		<polygon fill="#FFFFFF" points="379.6,44.2 26,397.8 26,404.9 386.7,44.2 		"/>
		<polygon fill="#FFFFFF" points="393.8,44.2 26,412 26,419 400.8,44.2 		"/>
		<polygon fill="#FFFFFF" points="407.9,44.2 26,426 26,433.1 415,44.2 		"/>
		<polygon fill="#FFFFFF" points="422,44.2 26,440.1 26,447.2 429,44.2 		"/>
		<path fill="#FFFFFF" d="M436.1,44.2L26,454.3v3.1c0,1.1,0.2,2.3,0.5,3.4L443.1,44.2H436.1z"/>
		<path fill="#FFFFFF" d="M450.2,44.2L29.4,465c1.3,1.2,2.9,2,4.6,2.5L457.2,44.2H450.2z"/>
		<path fill="#FFFFFF" d="M465.8,44.2h-1.5L40.8,467.8h7l423-422.9C469.1,44.5,467.5,44.2,465.8,44.2z"/>
		<path fill="#FFFFFF" d="M475.8,46.9L55,467.8h7L479.8,50C478.6,48.8,477.2,47.8,475.8,46.9z"/>
		<path fill="#FFFFFF" d="M483,53.8l-413.9,414h7.1l409-409C484.6,57,483.9,55.3,483,53.8z"/>
		<polygon fill="#FFFFFF" points="486,64.9 83.2,467.8 90.2,467.8 486,72.1 		"/>
		<polygon fill="#FFFFFF" points="486,79.1 97.2,467.8 104.3,467.8 486,86.2 		"/>
		<polygon fill="#FFFFFF" points="486,93.2 111.4,467.8 118.4,467.8 486,100.2 		"/>
		<polygon fill="#FFFFFF" points="486,107.3 125.5,467.8 132.6,467.8 486,114.4 		"/>
		<polygon fill="#FFFFFF" points="486,121.4 139.6,467.8 146.7,467.8 486,128.5 		"/>
		<polygon fill="#FFFFFF" points="486,135.6 153.8,467.8 160.8,467.8 486,142.6 		"/>
		<polygon fill="#FFFFFF" points="486,149.6 167.9,467.8 174.9,467.8 486,156.7 		"/>
		<polygon fill="#FFFFFF" points="486,163.8 181.9,467.8 189.1,467.8 486,170.9 		"/>
		<polygon fill="#FFFFFF" points="486,177.9 196.1,467.8 203.1,467.8 486,184.9 		"/>
		<polygon fill="#FFFFFF" points="486,192 210.2,467.8 217.2,467.8 486,199.1 		"/>
		<polygon fill="#FFFFFF" points="486,206.1 224.3,467.8 231.4,467.8 486,213.2 		"/>
		<polygon fill="#FFFFFF" points="486,220.2 238.4,467.8 245.5,467.8 486,227.3 		"/>
		<polygon fill="#FFFFFF" points="486,234.4 252.6,467.8 259.6,467.8 486,241.4 		"/>
		<polygon fill="#FFFFFF" points="486,248.4 266.6,467.8 273.7,467.8 486,255.5 		"/>
		<polygon fill="#FFFFFF" points="486,262.5 280.8,467.8 287.9,467.8 486,269.6 		"/>
		<polygon fill="#FFFFFF" points="486,276.7 294.9,467.8 302,467.8 486,283.8 		"/>
		<polygon fill="#FFFFFF" points="486,290.8 309,467.8 316,467.8 486,297.9 		"/>
		<polygon fill="#FFFFFF" points="486,304.9 323.1,467.8 330.2,467.8 486,312 		"/>
		<polygon fill="#FFFFFF" points="486,319 337.2,467.8 344.3,467.8 486,326.1 		"/>
		<polygon fill="#FFFFFF" points="486,333.1 351.4,467.8 358.4,467.8 486,340.2 		"/>
		<polygon fill="#FFFFFF" points="486,347.2 365.5,467.8 372.5,467.8 486,354.4 		"/>
		<polygon fill="#FFFFFF" points="486,361.4 379.5,467.8 386.6,467.8 486,368.5 		"/>
		<polygon fill="#FFFFFF" points="486,375.5 393.7,467.8 400.8,467.8 486,382.5 		"/>
		<polygon fill="#FFFFFF" points="486,389.6 407.8,467.8 414.9,467.8 486,396.6 		"/>
		<polygon fill="#FFFFFF" points="486,403.7 421.9,467.8 429,467.8 486,410.8 		"/>
		<polygon fill="#FFFFFF" points="486,417.9 436,467.8 443.1,467.8 486,424.9 		"/>
		<polygon fill="#FFFFFF" points="486,432 450.1,467.8 457.2,467.8 486,439 		"/>
		<polygon fill="#FFFFFF" points="486,446 464.2,467.8 471.4,467.8 486,453.1 		"/>
		<path fill="#FFFFFF" d="M485.4,460.7l-6.5,6.5C482,466.2,484.4,463.8,485.4,460.7z"/>
	</g>
</g>
<g>
	<g>
		<path fill="#FFFFFF" d="M346.1,258.4H322c-6.6,0-12-5.4-12-12v-24.1c0-6.6,5.4-12,12-12h24.1c6.6,0,12,5.4,12,12v24.1
			C358.1,253,352.7,258.4,346.1,258.4z"/>
		<path fill="#FFFFFF" d="M271,258.4h-30.1c-4.9,0-9-4-9-9v-30.1c0-4.9,4-9,9-9H271c4.9,0,9,4,9,9v30.1
			C280,254.3,276,258.4,271,258.4z"/>
		<path fill="#FFFFFF" d="M190,258.4h-24.1c-6.6,0-12-5.4-12-12v-24.1c0-6.6,5.4-12,12-12H190c6.6,0,12,5.4,12,12v24.1
			C202,253,196.6,258.4,190,258.4z"/>
	</g>
	<g>
		<path fill="#FFFFFF" d="M349.1,336.4H319c-4.9,0-9-4-9-9v-30.1c0-4.9,4-9,9-9h30.1c4.9,0,9,4,9,9v30.1
			C358.1,332.4,354.1,336.4,349.1,336.4z"/>
		<path fill="#FFFFFF" d="M271.1,336.4H241c-4.9,0-9-4-9-9v-30.1c0-4.9,4-9,9-9h30.1c4.9,0,9,4,9,9v30.1
			C280,332.4,276,336.4,271.1,336.4z"/>
		<path fill="#FFFFFF" d="M193,336.4h-30.1c-4.9,0-9-4-9-9v-30.1c0-4.9,4-9,9-9H193c4.9,0,9,4,9,9v30.1
			C202,332.4,197.9,336.4,193,336.4z"/>
	</g>
	<g>
		<path fill="#FFFFFF" d="M346.1,414.5H322c-6.6,0-12-5.4-12-12v-24.1c0-6.6,5.4-12,12-12h24.1c6.6,0,12,5.4,12,12v24.1
			C358.1,409.1,352.7,414.5,346.1,414.5z"/>
		<path fill="#FFFFFF" d="M271.1,414.5H241c-4.9,0-9-4-9-9v-30.1c0-4.9,4-9,9-9h30.1c4.9,0,9,4,9,9v30.1
			C280.1,410.4,276,414.5,271.1,414.5z"/>
		<path fill="#FFFFFF" d="M190,414.5h-24.1c-6.6,0-12-5.4-12-12v-24.1c0-6.6,5.4-12,12-12H190c6.6,0,12,5.4,12,12v24.1
			C202,409.1,196.6,414.5,190,414.5z"/>
	</g>
</g>
<g id="g13" display="none">
	<path id="path15" display="inline" fill="#FFFFFF" d="M277.3,312c-0.5-0.5-1.2-0.4-1.8-0.4c-11.8,0-23.6,0-35.4,0.1
		c-0.7,0-1.3-0.1-1.8,0.3c-0.4,0.8-0.9,1.6-1.4,2.4c-3.6,6-7.2,12-10.9,18c-2.9,4.7-5.7,9.2-8.5,14c-0.5,0.9-0.6,1.4,0.7,1.3
		c0.3,0,0.6,0,0.9,0c25.5,0,51.2-0.1,76.7-0.1c0.9,0,1.7,0,2.8,0c-2-3.4-3.9-6.7-5.9-9.8C287.6,329.1,282.5,320.5,277.3,312z"/>
	<path id="path17" display="inline" fill="#FFFFFF" d="M240,299.8c0.5-0.7,0.1-1.1-0.5-1.5c-5.9-3.9-11.9-7.6-17.8-11.6
		c-0.9-0.6-1.2-0.4-1.7,0.4c-1.3,2.3-2.8,4.7-4.1,7c-4.1,6.8-8.1,13.7-12.3,20.5c-0.6,1-1.2,2.1-1.8,3.1
		c-7.1,12.2-14.3,24.2-21.5,36.4c-0.9,1.7-2,3.3-2.9,4.9c-0.1,0.3-0.7,0.7,0.1,1.1c5.8,3.9,11.6,7.8,17.4,11.8
		c1.1,0.7,1.2,0,1.6-0.7c9.7-16.1,19.4-32.2,29.2-48.2C230.5,315.3,235.2,307.5,240,299.8z"/>
	<path id="path19" display="inline" fill="#FFFFFF" d="M249,244c5.2,12.1,10.7,24,16.4,35.9c0.1,0.1,0.1,0.2,0.2,0.3
		c0.1,0.1,0.1,0.2,0.1,0.4c0.1,0.1,0.1,0.2,0.2,0.3c0.1,0.1,0.1,0.2,0.1,0.4c0.1,0.1,0.1,0.2,0.2,0.3c0.1,0.1,0.1,0.3,0.1,0.4
		c0.1,0.1,0.1,0.2,0.2,0.3c0.1,0.1,0.1,0.3,0.1,0.4c1.3,2.5,2.5,5.1,3.9,7.6h-0.1c0.1,0.1,0.2,0.2,0.3,0.4c0,0.2,0.1,0.4,0.1,0.6
		c0.1,0.1,0.2,0.3,0.4,0.4c0.1,0.1,0.1,0.1,0,0.2c0.1,0.1,0.2,0.3,0.4,0.5c0.1,0.1,0.1,0.1,0,0.2c0.1,0.1,0.2,0.4,0.4,0.5
		c0.1,0.1,0.1,0.1,0,0.2c1,1.2,1.6,2.6,2.3,4c6.3,11.7,12.7,23.3,19.9,34.3c1.3,2,1.3,2,3.3,0.9c3.6-2.1,7.1-4.3,10.8-6.3
		c1.2-0.7,1.2-1.2,0.7-2.3c-2.3-4.2-4.4-8.5-6.6-12.8c-2.5-4.8-5.1-9.7-7.7-14.5c-9.5-17.6-19-35.1-29.5-52.1
		c-3.5-5.6-7.2-11.1-11.7-16c-1.7-1.8-3.6-3.5-5.9-4.4c-2.1-0.9-3.4,0-3.3,2.3c0,0.6,0.1,1.2,0.1,1.7C244.9,233.8,246.8,239,249,244
		z"/>
	<path id="path21" display="inline" fill="#FFFFFF" d="M348.9,311.9c-0.3,0-0.6-0.1-0.9-0.1c-12.7,0-25.5,0.1-38.3,0.1
		c-0.5,0-1.1-0.1-1.5,0.4c0.4,0.9,0.8,1.9,1.3,2.8c5.1,10.4,10.2,20.7,15.2,31.1c0.4,0.9,0.9,1.2,2,1.2c6.8-0.1,13.5-0.1,20.3,0
		c1.6,0,1.9-0.5,1.8-2C348.9,334.3,348.9,323.1,348.9,311.9z"/>
	<path id="path23" display="inline" fill="#FFFFFF" d="M176.4,347.8c1.2,0,2-0.4,2.6-1.5c2.9-4.9,5.9-9.9,8.8-14.8
		c3.9-6.4,7.7-12.8,11.6-19.2c-0.4-0.6-1.1-0.4-1.6-0.4c-3.3,0-6.5,0-9.7-0.1c-7.7-0.1-15.4-0.1-23.1-0.2c-0.7,0-1.5-0.4-1.8,0.6
		c0,0.8,0.1,1.6,0.1,2.4c0,10.3,0.1,20.7,0.1,31.1c0,1.5,0.3,2,1.9,2C168.8,347.6,172.6,347.6,176.4,347.8z"/>
	<path id="path25" display="inline" fill="#FFFFFF" d="M340.5,378c-4.6-7.8-9.6-15.2-15.3-22.3c-0.9-1.1-1.5-1.1-2.7-0.4
		c-3.1,1.9-6.3,3.7-9.5,5.5c-0.5,0.3-0.7,0.3-0.4,0.9c2.1,6.4,4.2,12.7,6.8,18.9c2.4,5.7,4.9,11.5,8.6,16.6c1.7,2.4,3.9,3.8,6.2,3.7
		c5.3,0,9.7-2.7,11.7-6.8c1.2-2.4,1.1-4.8-0.2-7.1C344,384.2,342.3,381,340.5,378z"/>
	<path id="path27" display="inline" fill="#FFFFFF" d="M321.8,349.4c-3.3-6.6-6.7-13.3-10-20c-0.1-0.4-0.3-0.8-0.9-0.7
		c-0.1,0.1-0.3,0.1-0.4,0.2c-4.1,2.4-8.1,4.8-12.3,7.1c-1,0.6-0.7,1.1-0.3,1.8c3.9,6.3,7.6,12.6,11.4,18.9c0.4,0.8,0.8,0.9,1.6,0.4
		c3.4-2.2,6.8-4.3,10.3-6.4C321.9,350.5,322.2,350.2,321.8,349.4z"/>
	<path id="path29" display="inline" fill="#FFFFFF" d="M167.3,398.2c0.1,0.1,0.2,0.1,0.4,0.1c8.5-7.1,17-14.1,25.7-21.3
		c-6.2-4.3-12.2-8.4-18.5-12.8C172.2,375.8,169.8,387,167.3,398.2z"/>
	<path id="path31" display="inline" fill="#FFFFFF" d="M223.3,284.1c0.6,0.2,1.1,0.7,1.6,1c5.2,3.4,10.4,6.9,15.6,10.3
		c0.5,0.3,0.9,1.1,1.6,0c3.3-5.6,6.8-11.2,10.1-16.8c0.1-0.2,0.3-0.4,0.4-0.5c-0.1-0.4-0.3-0.5-0.5-0.7c-5.9-3.9-11.8-7.8-17.7-11.7
		c-0.6-0.4-0.9-0.4-1.4,0.3c-3.4,5.5-6.8,11.1-10.3,16.7C222.3,283.4,222.4,283.8,223.3,284.1z"/>
	<path id="path33" display="inline" fill="#FFFFFF" d="M235.7,263.6c5,3.2,10,6.5,15,9.7c3.2,2.1,3.3,2.1,4.5-1.5
		c0.8-2.3,1.5-4.7,0.2-7.1c-2.6-4.7-6.7-7.2-11.6-7.8c-4.1,0.1-6.5,2.2-8.4,5.2C234.8,262.9,235,263.1,235.7,263.6z"/>
</g>
</svg>
