<?xml version="1.0" encoding="utf-8"?>
<!-- Generator: Adobe Illustrator 18.0.0, SVG Export Plug-In . SVG Version: 6.00 Build 0)  -->
<!DOCTYPE svg PUBLIC "-//W3C//DTD SVG 1.1//EN" "http://www.w3.org/Graphics/SVG/1.1/DTD/svg11.dtd">
<svg version="1.1"
	 id="Layer_2" xmlns:dc="http://purl.org/dc/elements/1.1/" xmlns:cc="http://creativecommons.org/ns#" xmlns:svg="http://www.w3.org/2000/svg" xmlns:rdf="http://www.w3.org/1999/02/22-rdf-syntax-ns#"
	 xmlns="http://www.w3.org/2000/svg" xmlns:xlink="http://www.w3.org/1999/xlink" x="0px" y="0px" viewBox="0 0 512 512"
	 enable-background="new 0 0 512 512" xml:space="preserve">
<g>
	<path id="path3_1_" fill="#d2e8f9" d="M465.7,44.2H265.9c-6.2,0-12.1,2.9-16,7.7l-10.8,13.6c-3.8,4.8-9.7,7.7-15.8,7.7h-177
		C35.1,73.3,26,82.4,26,93.6v363.8c0,5.7,4.6,10.3,10.3,10.3h439.3c5.7,0,10.3-4.6,10.3-10.3V73.3v-8.7
		C486,53.3,476.9,44.2,465.7,44.2z"/>
	<path id="path11" fill="#1acdfb" d="M476,467.8H36c-5.5,0-10-4.5-10-10V183.5c0-11,9-20,20-20h420c11,0,20,9,20,20v274.3
		C486,463.3,481.5,467.8,476,467.8z"/>
	<g opacity="0.15">
		<path fill="#FFFFFF" d="M46.3,73.2c-2.8,0.1-5.5,0.6-7.9,1.7L27.7,85.7c-1,2.4-1.6,5.2-1.6,8v0.7l21.1-21.1L46.3,73.2L46.3,73.2z"
			/>
		<polygon fill="#FFFFFF" points="54.2,73.2 26,101.4 26,108.5 61.3,73.2 		"/>
		<polygon fill="#FFFFFF" points="68.3,73.2 26,115.6 26,122.6 75.4,73.2 		"/>
		<polygon fill="#FFFFFF" points="82.4,73.2 26,129.6 26,136.7 89.5,73.2 		"/>
		<polygon fill="#FFFFFF" points="96.6,73.2 26,143.8 26,150.9 103.7,73.2 		"/>
		<polygon fill="#FFFFFF" points="110.7,73.2 26,157.9 26,164.9 117.8,73.2 		"/>
		<polygon fill="#FFFFFF" points="124.8,73.2 26,172 26,179.1 131.9,73.2 		"/>
		<polygon fill="#FFFFFF" points="138.9,73.2 26,186.1 26,193.1 145.9,73.2 		"/>
		<polygon fill="#FFFFFF" points="153,73.2 26,200.2 26,207.3 160.1,73.2 		"/>
		<polygon fill="#FFFFFF" points="167.1,73.2 26,214.4 26,221.4 174.2,73.2 		"/>
		<polygon fill="#FFFFFF" points="181.2,73.2 26,228.4 26,235.5 188.3,73.2 		"/>
		<polygon fill="#FFFFFF" points="195.4,73.2 26,242.6 26,249.6 202.4,73.2 		"/>
		<polygon fill="#FFFFFF" points="209.5,73.2 26,256.7 26,263.8 216.6,73.2 		"/>
		<path fill="#FFFFFF" d="M249.9,52l-7.8,9.8l15.9-16C254.9,47.2,252.1,49.2,249.9,52z"/>
		<path fill="#FFFFFF" d="M223.6,73.2L26,270.8v7L233.4,70.5C230.4,72.2,227.1,73.2,223.6,73.2z"/>
		<polygon fill="#FFFFFF" points="266.7,44.2 26,284.9 26,292 273.8,44.2 		"/>
		<polygon fill="#FFFFFF" points="280.8,44.2 26,299 26,306.1 287.9,44.2 		"/>
		<polygon fill="#FFFFFF" points="295,44.2 26,313.1 26,320.2 302,44.2 		"/>
		<polygon fill="#FFFFFF" points="309,44.2 26,327.2 26,334.3 316.1,44.2 		"/>
		<polygon fill="#FFFFFF" points="323.1,44.2 26,341.4 26,348.5 330.2,44.2 		"/>
		<polygon fill="#FFFFFF" points="337.3,44.2 26,355.5 26,362.5 344.4,44.2 		"/>
		<polygon fill="#FFFFFF" points="351.4,44.2 26,369.6 26,376.6 358.5,44.2 		"/>
		<polygon fill="#FFFFFF" points="365.5,44.2 26,383.7 26,390.8 372.6,44.2 		"/>
		<polygon fill="#FFFFFF" points="379.6,44.2 26,397.8 26,404.9 386.7,44.2 		"/>
		<polygon fill="#FFFFFF" points="393.8,44.2 26,412 26,419 400.8,44.2 		"/>
		<polygon fill="#FFFFFF" points="407.9,44.2 26,426 26,433.1 415,44.2 		"/>
		<polygon fill="#FFFFFF" points="422,44.2 26,440.1 26,447.2 429,44.2 		"/>
		<path fill="#FFFFFF" d="M436.1,44.2L26,454.3v3.1c0,1.1,0.2,2.3,0.5,3.4L443.1,44.2H436.1z"/>
		<path fill="#FFFFFF" d="M450.2,44.2L29.4,465c1.3,1.2,2.9,2,4.6,2.5L457.2,44.2H450.2z"/>
		<path fill="#FFFFFF" d="M465.8,44.2h-1.5L40.8,467.8h7l423-422.9C469.1,44.5,467.5,44.2,465.8,44.2z"/>
		<path fill="#FFFFFF" d="M475.8,46.9L55,467.8h7L479.8,50C478.6,48.8,477.2,47.8,475.8,46.9z"/>
		<path fill="#FFFFFF" d="M483,53.8l-413.9,414h7.1l409-409C484.6,57,483.9,55.3,483,53.8z"/>
		<polygon fill="#FFFFFF" points="486,64.9 83.2,467.8 90.2,467.8 486,72.1 		"/>
		<polygon fill="#FFFFFF" points="486,79.1 97.2,467.8 104.3,467.8 486,86.2 		"/>
		<polygon fill="#FFFFFF" points="486,93.2 111.4,467.8 118.4,467.8 486,100.2 		"/>
		<polygon fill="#FFFFFF" points="486,107.3 125.5,467.8 132.6,467.8 486,114.4 		"/>
		<polygon fill="#FFFFFF" points="486,121.4 139.6,467.8 146.7,467.8 486,128.5 		"/>
		<polygon fill="#FFFFFF" points="486,135.6 153.8,467.8 160.8,467.8 486,142.6 		"/>
		<polygon fill="#FFFFFF" points="486,149.6 167.9,467.8 174.9,467.8 486,156.7 		"/>
		<polygon fill="#FFFFFF" points="486,163.8 181.9,467.8 189.1,467.8 486,170.9 		"/>
		<polygon fill="#FFFFFF" points="486,177.9 196.1,467.8 203.1,467.8 486,184.9 		"/>
		<polygon fill="#FFFFFF" points="486,192 210.2,467.8 217.2,467.8 486,199.1 		"/>
		<polygon fill="#FFFFFF" points="486,206.1 224.3,467.8 231.4,467.8 486,213.2 		"/>
		<polygon fill="#FFFFFF" points="486,220.2 238.4,467.8 245.5,467.8 486,227.3 		"/>
		<polygon fill="#FFFFFF" points="486,234.4 252.6,467.8 259.6,467.8 486,241.4 		"/>
		<polygon fill="#FFFFFF" points="486,248.4 266.6,467.8 273.7,467.8 486,255.5 		"/>
		<polygon fill="#FFFFFF" points="486,262.5 280.8,467.8 287.9,467.8 486,269.6 		"/>
		<polygon fill="#FFFFFF" points="486,276.7 294.9,467.8 302,467.8 486,283.8 		"/>
		<polygon fill="#FFFFFF" points="486,290.8 309,467.8 316,467.8 486,297.9 		"/>
		<polygon fill="#FFFFFF" points="486,304.9 323.1,467.8 330.2,467.8 486,312 		"/>
		<polygon fill="#FFFFFF" points="486,319 337.2,467.8 344.3,467.8 486,326.1 		"/>
		<polygon fill="#FFFFFF" points="486,333.1 351.4,467.8 358.4,467.8 486,340.2 		"/>
		<polygon fill="#FFFFFF" points="486,347.2 365.5,467.8 372.5,467.8 486,354.4 		"/>
		<polygon fill="#FFFFFF" points="486,361.4 379.5,467.8 386.6,467.8 486,368.5 		"/>
		<polygon fill="#FFFFFF" points="486,375.5 393.7,467.8 400.8,467.8 486,382.5 		"/>
		<polygon fill="#FFFFFF" points="486,389.6 407.8,467.8 414.9,467.8 486,396.6 		"/>
		<polygon fill="#FFFFFF" points="486,403.7 421.9,467.8 429,467.8 486,410.8 		"/>
		<polygon fill="#FFFFFF" points="486,417.9 436,467.8 443.1,467.8 486,424.9 		"/>
		<polygon fill="#FFFFFF" points="486,432 450.1,467.8 457.2,467.8 486,439 		"/>
		<polygon fill="#FFFFFF" points="486,446 464.2,467.8 471.4,467.8 486,453.1 		"/>
		<path fill="#FFFFFF" d="M485.4,460.7l-6.5,6.5C482,466.2,484.4,463.8,485.4,460.7z"/>
	</g>
</g>
<g id="g28">
	<path id="path30" fill="#FFFFFF" d="M375.7,329.2c-0.8,0.3-1.6,0.6-2.3,1c-22.2,13.2-44.3,26.3-66.4,39.6c-2.3,1.3-3.6,1.4-5.9-0.3
		c-14.9-11.4-29.9-22.6-45.2-34.1c-0.6,0.4-1.3,1-2,1.5c-14.3,10.9-28.6,21.9-42.8,33c-1.8,1.4-3,1.3-4.9,0.3
		c-22.6-13.4-45.3-26.5-67.9-39.8c-0.7-0.4-1.5-0.7-2.3-1c0-0.2,0-0.3,0-0.4c0.6-0.3,1.4-0.7,1.9-1.1c16-12.1,32-24.1,48.1-36.3
		c0.7,0.4,1.4,0.8,2.1,1.3c21.9,13.9,43.6,27.8,65.4,41.6c1.7,1.1,2.9,1,4.5-0.1c23-14.5,46.1-28.9,69-43.4c1.5-1,2.4-1,3.8,0.3
		c14.1,12,28.1,23.9,42.2,35.9c0.8,0.6,1.6,1.1,2.4,1.7C375.7,328.8,375.7,329,375.7,329.2z"/>
	<path id="path32" fill="#FFFFFF" d="M375.7,251.4c-0.8,0.5-1.6,1-2.3,1.6c-14.7,12.1-29.3,24.2-44.1,36.4
		c-24.3-14.1-48.6-28.3-73.2-42.6c16.5-13.5,32.6-26.8,48.9-40.2c0.9,0.5,1.7,1,2.6,1.6c22,14,44.1,27.9,66.1,41.8
		c0.6,0.4,1.4,0.6,2.1,1C375.7,251.2,375.7,251.4,375.7,251.4z"/>
	<path id="path34" fill="#FFFFFF" d="M136.5,253.4c24.3-15.7,48.4-31.2,72.5-46.8c15.6,13.4,31.1,26.6,46.8,40.2
		c-0.7,0.5-1.1,1-1.7,1.3c-21.9,14-43.9,27.9-65.8,41.9c-1.1,0.8-2,1-3.3,0.1c-15.7-11.9-31.5-23.8-47.2-35.6
		C137.4,254.1,137,253.9,136.5,253.4z"/>
	<path id="path36" fill="#FFFFFF" d="M329.4,371.2c0,5.6,0.1,10.7-0.1,15.8c0,0.7-0.6,1.6-1.2,2c-23.6,15.5-47.3,31.1-71,46.4
		c-0.6,0.3-1.8,0.3-2.3,0c-23.6-15.5-47.2-31.1-70.8-46.8c-0.6-0.3-1.2-1.1-1.2-1.7c-0.1-5.2-0.1-10.4-0.1-16c1.1,0.6,1.8,1,2.5,1.4
		c7.5,4.3,14.9,8.7,22.4,13.2c1.5,0.9,2.5,0.9,3.9-0.3c14.1-10.8,28.2-21.6,42.2-32.5c1.8-1.4,2.9-1.3,4.7,0.1
		c14.3,10.9,28.7,21.7,43.1,32.5c1.4,1,2.4,1.1,3.9,0.2c7.2-4.3,14.4-8.6,21.7-12.9C327.7,372.1,328.4,371.7,329.4,371.2z"/>
</g>
</svg>
