<?xml version="1.0" encoding="utf-8"?>
<!-- Generator: Adobe Illustrator 18.0.0, SVG Export Plug-In . SVG Version: 6.00 Build 0)  -->
<!DOCTYPE svg PUBLIC "-//W3C//DTD SVG 1.1//EN" "http://www.w3.org/Graphics/SVG/1.1/DTD/svg11.dtd">
<svg version="1.1" id="Layer_2" xmlns="http://www.w3.org/2000/svg" xmlns:xlink="http://www.w3.org/1999/xlink" x="0px" y="0px"
	 viewBox="0 0 512 512" enable-background="new 0 0 512 512" xml:space="preserve">
<path fill="#fed402" d="M465.7,44.2H265.9c-6.2,0-12.1,2.9-16,7.7l-10.8,13.6c-3.8,4.8-9.7,7.7-15.8,7.7H46.3
	C35.1,73.3,26,82.4,26,93.6v363.8c0,5.7,4.6,10.3,10.3,10.3h439.3c5.7,0,10.3-4.6,10.3-10.3V73.3v-8.7
	C486,53.3,476.9,44.2,465.7,44.2z"/>
<radialGradient id="SVGID_1_" cx="232.6667" cy="303.9789" r="308.0308" gradientTransform="matrix(1 0 0 0.7996 0 60.9067)" gradientUnits="userSpaceOnUse">
	<stop  offset="8.866995e-02" style="stop-color:#E0B6D5;stop-opacity:0.5"/>
	<stop  offset="0.3744" style="stop-color:#C0519E;stop-opacity:0.5"/>
	<stop  offset="0.9905" style="stop-color:#000000;stop-opacity:0"/>
</radialGradient>
<path fill="url(#SVGID_1_)" d="M476,467.8H36c-5.5,0-10-4.5-10-10V183.5c0-11,9-20,20-20h420c11,0,20,9,20,20v274.3
	C486,463.3,481.5,467.8,476,467.8z"/>
<g id="Layer_3" opacity="0.6">
	<g>
		<rect x="26" y="212" width="460" height="46.5"/>
		<g>
			<polygon fill="#FFFFFF" points="485.7,256.4 451.9,256.4 485.1,214.1 485.7,214.1 			"/>
			<polygon fill="#FFFFFF" points="445.4,256.4 407.5,256.4 440.7,214.1 478.6,214.1 			"/>
			<polygon fill="#FFFFFF" points="401,256.4 363.1,256.4 396.3,214.1 434.2,214.1 			"/>
			<polygon fill="#FFFFFF" points="356.6,256.4 318.7,256.4 351.9,214.1 389.8,214.1 			"/>
			<polygon fill="#FFFFFF" points="312.2,256.4 274.3,256.4 307.5,214.1 345.4,214.1 			"/>
			<polygon fill="#FFFFFF" points="267.8,256.4 229.9,256.4 263.1,214.1 301,214.1 			"/>
			<polygon fill="#FFFFFF" points="223.4,256.4 185.5,256.4 218.7,214.1 256.6,214.1 			"/>
			<polygon fill="#FFFFFF" points="179,256.4 141.1,256.4 174.3,214.1 212.2,214.1 			"/>
			<polygon fill="#FFFFFF" points="134.6,256.4 96.7,256.4 129.9,214.1 167.8,214.1 			"/>
		</g>
	</g>
	<g>
		<path d="M466,163.5H46c-11,0-20,9-20,20V210h460v-26.5C486,172.5,477,163.5,466,163.5z"/>
		<g>
			<path fill="#FFFFFF" d="M484.8,176.7c0-0.1-0.1-0.2-0.1-0.3c-0.4-1-0.9-2-1.4-3c0-0.1-0.1-0.1-0.1-0.2c-0.4-0.6-0.7-1.2-1.1-1.7
				c0-0.1-0.1-0.1-0.1-0.2c-0.7-0.9-1.4-1.7-2.3-2.5c0,0,0,0,0,0c-0.6-0.5-1.1-1-1.7-1.4c0,0,0,0,0,0c-0.9-0.7-1.9-1.3-3-1.8h-22.9
				l33.2,42.3h0.6V180c-0.1-0.4-0.1-0.7-0.2-1.1c0-0.1,0-0.2-0.1-0.3C485.2,178,485,177.3,484.8,176.7z"/>
			<polygon fill="#FFFFFF" points="445.4,165.6 407.5,165.6 440.7,207.9 478.6,207.9 			"/>
			<polygon fill="#FFFFFF" points="401,165.6 363.1,165.6 396.3,207.9 434.2,207.9 			"/>
			<polygon fill="#FFFFFF" points="356.6,165.6 318.7,165.6 351.9,207.9 389.8,207.9 			"/>
			<polygon fill="#FFFFFF" points="312.2,165.6 274.3,165.6 307.5,207.9 345.4,207.9 			"/>
			<polygon fill="#FFFFFF" points="267.8,165.6 229.9,165.6 263.1,207.9 301,207.9 			"/>
			<polygon fill="#FFFFFF" points="223.4,165.6 185.5,165.6 218.7,207.9 256.6,207.9 			"/>
			<polygon fill="#FFFFFF" points="179,165.6 141.1,165.6 174.3,207.9 212.2,207.9 			"/>
			<polygon fill="#FFFFFF" points="134.6,165.6 96.7,165.6 129.9,207.9 167.8,207.9 			"/>
		</g>
	</g>
</g>
<g id="Layer_3_copy" display="none" opacity="0.75">
	<g display="inline">
		<path d="M26,328.1l460-115.9v-28.7c0-8.8-5.7-16.2-13.5-18.9L26,277.1V328.1z"/>
		<g>
			<path fill="#FFFFFF" d="M461.7,216.1L486,210v-26.4c0-4.7-1.6-9-4.3-12.4L461.7,216.1z"/>
			<path fill="#FFFFFF" d="M475.8,166.1l-36.6,9.2l-23.2,52.3l39.1-9.8l22.5-50.6C476.9,166.7,476.3,166.4,475.8,166.1z"/>
			<polygon fill="#FFFFFF" points="409.1,229.3 370.1,239.2 393.3,186.8 432.4,177 			"/>
			<polygon fill="#FFFFFF" points="363.3,240.9 324.2,250.7 347.5,198.4 386.5,188.5 			"/>
			<polygon fill="#FFFFFF" points="317.5,252.4 278.4,262.2 301.6,209.9 340.7,200.1 			"/>
			<polygon fill="#FFFFFF" points="271.7,263.9 232.6,273.8 255.8,221.5 294.9,211.6 			"/>
			<polygon fill="#FFFFFF" points="225.8,275.5 186.8,285.3 210,233 249.1,223.2 			"/>
			<polygon fill="#FFFFFF" points="180,287 140.9,296.9 164.2,244.5 203.3,234.7 			"/>
			<polygon fill="#FFFFFF" points="134.2,298.6 95.1,308.4 118.4,256.1 157.4,246.2 			"/>
		</g>
	</g>
	<g display="inline">
		<path d="M466,163.5H288.3h-14H46c-11,0-20,9-20,20V226v33.3v17.7l446.5-112.5C470.4,163.9,468.3,163.5,466,163.5z"/>
		<g>
			<path fill="#FFFFFF" d="M438,171l29.4-7.4c-0.5,0-1-0.1-1.5-0.1h-37.6L438,171z"/>
			<polygon fill="#FFFFFF" points="392.2,182.5 431.3,172.7 419.4,163.5 367.7,163.5 			"/>
			<polygon fill="#FFFFFF" points="346.4,194.1 385.5,184.2 358.7,163.5 306.9,163.5 			"/>
			<polygon fill="#FFFFFF" points="339.6,195.8 298,163.5 283.3,163.5 255.3,170.6 300.6,205.6 			"/>
			<polygon fill="#FFFFFF" points="248.6,172.3 209.5,182.1 254.7,217.2 293.8,207.3 			"/>
			<polygon fill="#FFFFFF" points="202.7,183.8 163.7,193.6 208.9,228.7 248,218.9 			"/>
			<polygon fill="#FFFFFF" points="156.9,195.3 117.8,205.2 163.1,240.3 202.2,230.4 			"/>
			<polygon fill="#FFFFFF" points="111.1,206.9 72,216.7 117.3,251.8 156.3,242 			"/>
		</g>
	</g>
</g>
<g opacity="0.28">
	<radialGradient id="SVGID_2_" cx="268.2019" cy="320" r="48" gradientUnits="userSpaceOnUse">
		<stop  offset="4.926108e-03" style="stop-color:#FFFFFF"/>
		<stop  offset="1" style="stop-color:#FFFFFF;stop-opacity:0"/>
	</radialGradient>
	<circle fill="url(#SVGID_2_)" cx="268.2" cy="320" r="48"/>
	<radialGradient id="SVGID_3_" cx="106.3192" cy="239.5" r="45.6808" gradientUnits="userSpaceOnUse">
		<stop  offset="4.926108e-03" style="stop-color:#FFFFFF"/>
		<stop  offset="1" style="stop-color:#FFFFFF;stop-opacity:0"/>
	</radialGradient>
	<circle fill="url(#SVGID_3_)" cx="106.3" cy="239.5" r="45.7"/>
	<radialGradient id="SVGID_4_" cx="324" cy="302" r="45.5" gradientUnits="userSpaceOnUse">
		<stop  offset="4.926108e-03" style="stop-color:#FFFFFF"/>
		<stop  offset="1" style="stop-color:#FFFFFF;stop-opacity:0"/>
	</radialGradient>
	<circle fill="url(#SVGID_4_)" cx="324" cy="302" r="45.5"/>
	<radialGradient id="SVGID_5_" cx="138.6385" cy="315.6455" r="42" gradientUnits="userSpaceOnUse">
		<stop  offset="4.926108e-03" style="stop-color:#FFFFFF"/>
		<stop  offset="1" style="stop-color:#FFFFFF;stop-opacity:0"/>
	</radialGradient>
	<circle fill="url(#SVGID_5_)" cx="138.6" cy="315.6" r="42"/>
	<radialGradient id="SVGID_6_" cx="280" cy="256" r="32.5" gradientUnits="userSpaceOnUse">
		<stop  offset="4.926108e-03" style="stop-color:#FFFFFF"/>
		<stop  offset="1" style="stop-color:#FFFFFF;stop-opacity:0"/>
	</radialGradient>
	<circle fill="url(#SVGID_6_)" cx="280" cy="256" r="32.5"/>
	<radialGradient id="SVGID_7_" cx="316" cy="347.3615" r="22.8404" gradientUnits="userSpaceOnUse">
		<stop  offset="4.926108e-03" style="stop-color:#FFFFFF"/>
		<stop  offset="1" style="stop-color:#FFFFFF;stop-opacity:0"/>
	</radialGradient>
	<circle fill="url(#SVGID_7_)" cx="316" cy="347.4" r="22.8"/>
	<radialGradient id="SVGID_8_" cx="183.4308" cy="261.25" r="21.75" gradientUnits="userSpaceOnUse">
		<stop  offset="4.926108e-03" style="stop-color:#FFFFFF"/>
		<stop  offset="1" style="stop-color:#FFFFFF;stop-opacity:0"/>
	</radialGradient>
	<circle fill="url(#SVGID_8_)" cx="183.4" cy="261.2" r="21.8"/>
	<radialGradient id="SVGID_9_" cx="145" cy="283" r="24" gradientUnits="userSpaceOnUse">
		<stop  offset="4.926108e-03" style="stop-color:#FFFFFF"/>
		<stop  offset="1" style="stop-color:#FFFFFF;stop-opacity:0"/>
	</radialGradient>
	<circle fill="url(#SVGID_9_)" cx="145" cy="283" r="24"/>
	<radialGradient id="SVGID_10_" cx="447" cy="384.5798" r="21" gradientUnits="userSpaceOnUse">
		<stop  offset="4.926108e-03" style="stop-color:#FFFFFF"/>
		<stop  offset="1" style="stop-color:#FFFFFF;stop-opacity:0"/>
	</radialGradient>
	<circle fill="url(#SVGID_10_)" cx="447" cy="384.6" r="21"/>
	<radialGradient id="SVGID_11_" cx="100.25" cy="369" r="22.75" gradientUnits="userSpaceOnUse">
		<stop  offset="4.926108e-03" style="stop-color:#FFFFFF"/>
		<stop  offset="1" style="stop-color:#FFFFFF;stop-opacity:0"/>
	</radialGradient>
	<circle fill="url(#SVGID_11_)" cx="100.2" cy="369" r="22.8"/>
	<radialGradient id="SVGID_12_" cx="205.1808" cy="383.75" r="30.5798" gradientUnits="userSpaceOnUse">
		<stop  offset="4.926108e-03" style="stop-color:#FFFFFF"/>
		<stop  offset="1" style="stop-color:#FFFFFF;stop-opacity:0"/>
	</radialGradient>
	<circle fill="url(#SVGID_12_)" cx="205.2" cy="383.8" r="30.6"/>
	<radialGradient id="SVGID_13_" cx="368.8192" cy="370.2019" r="44.8192" gradientUnits="userSpaceOnUse">
		<stop  offset="4.926108e-03" style="stop-color:#FFFFFF"/>
		<stop  offset="1" style="stop-color:#FFFFFF;stop-opacity:0"/>
	</radialGradient>
	<circle fill="url(#SVGID_13_)" cx="368.8" cy="370.2" r="44.8"/>
	<radialGradient id="SVGID_14_" cx="414.4096" cy="265.5904" r="53.5904" gradientUnits="userSpaceOnUse">
		<stop  offset="4.926108e-03" style="stop-color:#FFFFFF"/>
		<stop  offset="1" style="stop-color:#FFFFFF;stop-opacity:0"/>
	</radialGradient>
	<circle fill="url(#SVGID_14_)" cx="414.4" cy="265.6" r="53.6"/>
	<radialGradient id="SVGID_15_" cx="220.2019" cy="300.5" r="12.8404" gradientUnits="userSpaceOnUse">
		<stop  offset="4.926108e-03" style="stop-color:#FFFFFF"/>
		<stop  offset="1" style="stop-color:#FFFFFF;stop-opacity:0"/>
	</radialGradient>
	<circle fill="url(#SVGID_15_)" cx="220.2" cy="300.5" r="12.8"/>
	<radialGradient id="SVGID_16_" cx="78.6385" cy="320" r="18" gradientUnits="userSpaceOnUse">
		<stop  offset="4.926108e-03" style="stop-color:#FFFFFF"/>
		<stop  offset="1" style="stop-color:#FFFFFF;stop-opacity:0"/>
	</radialGradient>
	<circle fill="url(#SVGID_16_)" cx="78.6" cy="320" r="18"/>
</g>
<g>
	<path opacity="0.4" fill="#383838" enable-background="new    " d="M456.2,467.8l18.6-7.8c2.1-1.2,3.5-3.5,3.5-6
		c0-2.5-1.3-4.7-3.5-6L290.4,314.3c-2.1-1.2-4.8-1.2-6.9,0c-2.1,1.2-3.5,3.5-3.5,6v147.5H456.2z"/>
	<path fill="#FFFFFF" d="M411.4,467.8l62.5-36.1c2.1-1.2,3.5-3.5,3.5-6c0-2.5-1.3-4.7-3.5-6L291.2,314.3c-2.1-1.2-4.8-1.2-6.9,0
		c-2.1,1.2-3.5,3.5-3.5,6v147.5H411.4z"/>
</g>
</svg>
