<?xml version="1.0" encoding="utf-8"?>
<!-- Generator: Adobe Illustrator 18.0.0, SVG Export Plug-In . SVG Version: 6.00 Build 0)  -->
<!DOCTYPE svg PUBLIC "-//W3C//DTD SVG 1.1//EN" "http://www.w3.org/Graphics/SVG/1.1/DTD/svg11.dtd">
<svg version="1.1"
	 id="Layer_2" xmlns:dc="http://purl.org/dc/elements/1.1/" xmlns:cc="http://creativecommons.org/ns#" xmlns:rdf="http://www.w3.org/1999/02/22-rdf-syntax-ns#" xmlns:svg="http://www.w3.org/2000/svg"
	 xmlns="http://www.w3.org/2000/svg" xmlns:xlink="http://www.w3.org/1999/xlink" x="0px" y="0px" viewBox="0 0 1024 1024"
	 enable-background="new 0 0 1024 1024" xml:space="preserve">
<path id="path3" fill="#fed402" d="M931.4,88.4H531.8c-12.4,0-24.2,5.8-32,15.4L478.2,131c-7.6,9.6-19.4,15.4-31.6,15.4h-354
	C70.2,146.6,52,164.8,52,187.2v727.6c0,11.4,9.2,20.6,20.6,20.6h878.6c11.4,0,20.6-9.2,20.6-20.6V146.6v-17.4
	C972,106.6,953.8,88.4,931.4,88.4z"/>
<g id="g5" display="none">
	<polygon id="polygon7" display="inline" fill="#FFFFFF" points="144.2,272.2 92,324.4 92,872.6 932,872.6 932,272.2 	"/>
	<polygon id="polygon9" display="inline" fill="#B2B3B3" points="144.2,324.4 144.2,272.2 92,324.4 	"/>
</g>
<path id="path16" fill="#faa21b" d="M952,935.6H72c-11,0-20-9-20-20V367c0-22,18-40,40-40h840c22,0,40,18,40,40v548.6
	C972,926.6,963,935.6,952,935.6z"/>
<g id="g18" display="none">
	<path id="path20" display="inline" fill="#FFFFFF" d="M642,481.8c-2.2-1.4-4.2-2.6-6.4-4c-41,33.8-81.8,67.4-123.2,101.4
		c62,36.2,123.4,71.8,184.6,107.4c37.4-30.8,74.4-61.4,111.4-91.8c1.8-1.4,3.8-2.6,5.6-3.8c0-0.4,0-0.8,0-1.2
		c-1.8-0.8-3.6-1.4-5.2-2.4C753.2,552.2,697.6,517,642,481.8z"/>
	<path id="path22" display="inline" fill="#FFFFFF" d="M332.6,688.2c3.2,2.4,5.4,1.6,8.2-0.2c55.4-35.2,110.8-70.4,166-105.6
		c1.4-0.8,2.6-2,4.4-3.2c-39.6-34-78.6-67.4-117.8-101.2c-60.8,39.2-121.6,78.4-182.8,118c1.6,1.2,2.2,2,3,2.6
		C253.2,628.2,293,658.2,332.6,688.2z"/>
	<path id="path24" display="inline" fill="#FFFFFF" d="M697,892.8c-2.6,1.4-4.4,2.4-6,3.4c-18.2,10.8-36.6,21.6-54.6,32.6
		c-3.8,2.2-6.2,2.2-9.8-0.4c-36.2-27.4-72.6-54.6-108.6-82c-4.4-3.4-7.2-3.8-11.8-0.2c-35.4,27.4-71,54.6-106.4,82
		c-3.6,2.8-6,2.8-9.8,0.6c-18.6-11.2-37.6-22.2-56.4-33.2c-1.8-1-3.6-2-6.4-3.6c0,14.2-0.2,27.4,0.2,40.4c0,1,0.8,2.2,1.6,3h367
		c0.6-1,1-2,1-2.8C697.2,919.8,697,906.8,697,892.8z"/>
	<path id="path26" display="inline" fill="#FFFFFF" d="M701.4,690.8c-3.4-3-5.8-3-9.6-0.6c-58,36.6-116.2,72.8-174.2,109.4
		c-4.2,2.6-7,2.8-11.4,0.2c-54.8-35.2-110-70-165-105c-1.8-1.2-3.6-2.2-5.2-3.2c-40.6,30.6-81,61-121.4,91.4c-1.4,1.2-3.2,2-4.8,2.8
		c0,0.4,0,0.8,0,1.2c2,0.8,4,1.6,5.8,2.6C272.8,823,329.8,856.4,386.8,890c4.6,2.8,7.8,3,12.2-0.6c35.8-27.8,72-55.4,108-83
		c1.6-1.2,3.4-2.6,5-3.8c38.4,28.8,76.2,57.2,113.8,86c5.6,4.2,9.2,4,14.8,0.6c55.8-33.4,111.6-66.6,167.6-99.8
		c1.8-1,3.8-1.8,5.8-2.6c0-0.4,0-0.8,0-1.2c-2-1.4-4.2-2.8-6-4.4C772.4,751.2,736.8,721.2,701.4,690.8z"/>
</g>
<g id="g28">
	<path id="path30" fill="#FFFFFF" d="M967.2,667.8c-1.8,0.8-3.6,1.4-5.2,2.4c-51.2,30.4-102.2,60.6-153.2,91.2
		c-5.2,3-8.4,3.2-13.6-0.6c-34.4-26.4-69-52.2-104.2-78.6c-1.4,1-3,2.2-4.6,3.4c-33,25.2-66,50.4-98.6,76c-4.2,3.2-7,3-11.2,0.6
		C524.4,731.4,472.2,701,420,670.4c-1.6-1-3.4-1.6-5.2-2.4c0-0.4,0-0.8,0-1c1.4-0.8,3.2-1.6,4.4-2.6c36.8-27.8,73.8-55.6,111-83.6
		c1.6,1,3.2,1.8,4.8,3c50.4,32,100.6,64,150.8,96c4,2.6,6.6,2.4,10.4-0.2c53-33.4,106.2-66.6,159.2-100c3.4-2.2,5.6-2.2,8.8,0.6
		c32.4,27.6,64.8,55.2,97.4,82.8c1.8,1.4,3.8,2.6,5.6,4C967.2,667,967.2,667.4,967.2,667.8z"/>
	<path id="path32" fill="#FFFFFF" d="M967.2,488.6c-1.8,1.2-3.6,2.2-5.2,3.6c-33.8,27.8-67.6,55.8-101.8,84
		c-56-32.6-112-65.2-168.8-98.2c38-31.2,75.2-61.8,112.8-92.8c2,1.2,4,2.4,6,3.6c50.8,32.2,101.6,64.4,152.4,96.4
		c1.4,1,3.2,1.4,4.8,2.2C967.2,488,967.2,488.4,967.2,488.6z"/>
	<path id="path34" fill="#FFFFFF" d="M415.6,493c56-36.2,111.6-72,167.2-107.8c36,30.8,71.6,61.4,107.8,92.6c-1.6,1.2-2.6,2.2-4,3
		C636,513,585.4,545.2,534.8,577.4c-2.6,1.8-4.6,2.4-7.6,0.2c-36.2-27.4-72.6-54.8-108.8-82.2C417.6,494.8,416.8,494.2,415.6,493z"
		/>
	<path id="path36" fill="#FFFFFF" d="M860.4,764.8c0,12.8,0.2,24.6-0.2,36.4c0,1.6-1.4,3.6-2.8,4.6c-54.4,35.8-109,71.6-163.6,107
		c-1.4,0.8-4.2,0.8-5.4,0C634,877,579.6,841,525.2,805c-1.4-0.8-2.8-2.6-2.8-4c-0.2-12-0.2-24-0.2-37c2.6,1.4,4.2,2.2,5.8,3.2
		c17.2,10,34.4,20,51.6,30.4c3.4,2,5.8,2,9-0.6c32.4-25,65-49.8,97.4-75c4.2-3.2,6.8-3,10.8,0.2c33,25.2,66.2,50,99.4,75
		c3.2,2.4,5.6,2.6,9,0.4c16.6-10,33.2-19.8,50-29.8C856.4,766.8,858,766,860.4,764.8z"/>
</g>
</svg>
