<?xml version="1.0" encoding="utf-8"?>
<!-- Generator: Adobe Illustrator 18.0.0, SVG Export Plug-In . SVG Version: 6.00 Build 0)  -->
<!DOCTYPE svg PUBLIC "-//W3C//DTD SVG 1.1//EN" "http://www.w3.org/Graphics/SVG/1.1/DTD/svg11.dtd">
<svg version="1.1"
	 id="Layer_2" xmlns:cc="http://creativecommons.org/ns#" xmlns:svg="http://www.w3.org/2000/svg" xmlns:rdf="http://www.w3.org/1999/02/22-rdf-syntax-ns#" xmlns:dc="http://purl.org/dc/elements/1.1/"
	 xmlns="http://www.w3.org/2000/svg" xmlns:xlink="http://www.w3.org/1999/xlink" x="0px" y="0px" viewBox="0 0 1024 1024"
	 enable-background="new 0 0 1024 1024" xml:space="preserve">
<path id="path3" fill="#fed402" d="M931.4,88.4H531.8c-12.4,0-24.2,5.8-32,15.4L478.2,131c-7.6,9.6-19.4,15.4-31.6,15.4h-354
	C70.2,146.6,52,164.8,52,187.2v727.6c0,11.4,9.2,20.6,20.6,20.6h878.6c11.4,0,20.6-9.2,20.6-20.6V146.6v-17.4
	C972,106.6,953.8,88.4,931.4,88.4z"/>
<path id="path11" fill="#faa21b" d="M952,935.6H72c-11,0-20-9-20-20V367c0-22,18-40,40-40h840c22,0,40,18,40,40v548.6
	C972,926.6,963,935.6,952,935.6z"/>
<path id="path2518" fill="#FFFFFF" d="M676.6,426c-20.6,50.6-33.2,83.8-56.2,133c14.2,15,31.4,32.4,59.6,52
	c-30.2-12.4-50.8-25-66.2-37.8c-29.4,61.4-75.6,149-169.2,317c73.6-42.4,130.6-68.6,183.8-78.6c-2.2-9.8-3.6-20.4-3.4-31.6v-2.4
	c1.2-47.2,25.6-83.4,54.8-81c29,2.4,51.6,42.6,50.4,89.8c-0.2,8.8-1.2,17.4-3,25.4c52.6,10.2,109,36.4,181.6,78.2
	c-14.4-26.4-27-50-39.2-72.6c-19.2-14.8-39.2-34.2-80.2-55.2c28,7.2,48.2,15.8,63.8,25.2C729.2,556.4,719.2,525.8,676.6,426z"/>
</svg>
