<?xml version="1.0" encoding="utf-8"?>
<!-- Generator: Adobe Illustrator 17.0.0, SVG Export Plug-In . SVG Version: 6.00 Build 0)  -->
<!DOCTYPE svg PUBLIC "-//W3C//DTD SVG 1.1//EN" "http://www.w3.org/Graphics/SVG/1.1/DTD/svg11.dtd">
<svg version="1.1" id="Layer_1" xmlns="http://www.w3.org/2000/svg" xmlns:xlink="http://www.w3.org/1999/xlink" x="0px" y="0px"
	 width="512px" height="512px" viewBox="0 0 512 512" enable-background="new 0 0 512 512" xml:space="preserve">
<g>
	<polygon fill="#E2E2E2" points="312.277,428.769 307.518,381.266 204.482,381.266 199.723,428.769 	"/>
	<rect x="174.96" y="427.474" fill="#969696" width="162.08" height="6.236"/>
	<g>
		<path d="M28.776,367.395c0,7.66,6.21,13.87,13.87,13.87h426.708c7.66,0,13.87-6.21,13.87-13.87V92.161
			c0-7.66-6.21-13.87-13.87-13.87H42.646c-7.66,0-13.87,6.21-13.87,13.87V367.395z"/>
		<g>
			<path fill="#0C0C0C" d="M48.443,352.114c0,1.105,0.895,2,2,2h411.114c1.105,0,2-0.895,2-2V107.442c0-1.105-0.895-2-2-2H50.443
				c-1.105,0-2,0.895-2,2V352.114z"/>
		</g>
		<linearGradient id="SVGID_1_" gradientUnits="userSpaceOnUse" x1="257.9814" y1="229.778" x2="483.224" y2="229.778">
			<stop  offset="0" style="stop-color:#FFFFFF"/>
			<stop  offset="1" style="stop-color:#FFFFFF;stop-opacity:0"/>
		</linearGradient>
		<path opacity="0.4" fill="url(#SVGID_1_)" enable-background="new    " d="M469.354,381.266c7.66,0,13.87-6.21,13.87-13.87V92.161
			c0-7.66-6.21-13.87-13.87-13.87H257.981L469.354,381.266z"/>
	</g>
</g>
</svg>
