<?xml version="1.0" encoding="UTF-8" standalone="no"?>
<svg
   xmlns:dc="http://purl.org/dc/elements/1.1/"
   xmlns:cc="http://creativecommons.org/ns#"
   xmlns:rdf="http://www.w3.org/1999/02/22-rdf-syntax-ns#"
   xmlns:svg="http://www.w3.org/2000/svg"
   xmlns="http://www.w3.org/2000/svg"
   viewBox="0 0 640 640"
   height="640"
   width="640"
   xml:space="preserve"
   version="1.1"
   id="svg2"><metadata
     id="metadata8"><rdf:RDF><cc:Work
         rdf:about=""><dc:format>image/svg+xml</dc:format><dc:type
           rdf:resource="http://purl.org/dc/dcmitype/StillImage" /></cc:Work></rdf:RDF></metadata><defs
     id="defs6"><clipPath
       id="clipPath16"
       clipPathUnits="userSpaceOnUse"><path
         id="path18"
         d="M 0,512 512,512 512,0 0,0 0,512 Z" /></clipPath></defs><g
     transform="matrix(1.25,0,0,-1.25,0,640)"
     id="g10"><g
       id="g12"><g
         clip-path="url(#clipPath16)"
         id="g14"><g
           transform="translate(453.8925,62.0531)"
           id="g20"><path
             id="path22"
             style="fill:#656769;fill-opacity:1;fill-rule:nonzero;stroke:none"
             d="m 0,0 0.006,0 -0.008,0.091 c -0.006,0.704 -0.139,27.82 -2.797,67.522 -0.186,-0.592 -12.197,135.515 -16.778,198.06 -3.235,40.813 -6.252,78.843 -8.207,103.472 -3.999,14.059 -16.925,24.359 -32.267,24.359 l -275.683,0 c -15.396,0 -28.358,-10.371 -32.309,-24.505 -1.844,-23.263 -4.56,-57.546 -7.502,-94.702 0,0 -17.26,-207.29 -17.452,-206.689 L -395.791,0 l 0.006,0 c -10e-4,-0.093 -0.006,-0.184 -0.006,-0.276 0,-0.768 0.021,-1.53 0.058,-2.288 l -0.058,-0.807 0.006,0 c -10e-4,-0.085 -0.006,-0.169 -0.006,-0.255 0,-21.398 17.346,-38.745 38.745,-38.745 l 318.307,0 c 21.398,0 38.745,17.347 38.745,38.745 0,0.086 -0.005,0.17 -0.006,0.255 l 0.006,0 -0.008,0.083 c -0.001,0.059 -0.017,0.331 -0.046,0.783 0.035,0.738 0.054,1.481 0.054,2.229 C 0.006,-0.184 0.001,-0.093 0,0" /></g><g
           transform="translate(424.9958,462.8733)"
           id="g24"><path
             id="path26"
             style="fill:#dcdadb;fill-opacity:1;fill-rule:nonzero;stroke:none"
             d="m 0,0 c -0.475,16.335 -15.093,29.446 -33.069,29.446 l -271.854,0 c -17.243,0 -31.399,-12.063 -32.945,-27.463 0,0 -26.278,-331.436 -26.278,-332.733 0,-19.298 17.106,-34.942 38.207,-34.942 l 313.886,0 c 21.102,0 38.208,15.644 38.208,34.942 C 26.155,-329.452 0,0 0,0" /></g><g
           transform="translate(415.1534,97.1722)"
           id="g28"><path
             id="path30"
             style="fill:#f5f5f5;fill-opacity:1;fill-rule:nonzero;stroke:none"
             d="m 0,0 -318.307,0 c -21.398,0 -38.745,-17.347 -38.745,-38.745 0,-21.399 17.347,-38.746 38.745,-38.746 l 318.307,0 c 21.399,0 38.745,17.347 38.745,38.746 C 38.745,-17.347 21.399,0 0,0" /></g><g
           transform="translate(335.9993,291.3536)"
           id="g32"><path
             id="path34"
             style="fill:#100f0d;fill-opacity:1;fill-rule:nonzero;stroke:none"
             d="m 0,0 c -0.506,-0.231 -1.038,-0.417 -1.513,-0.699 -14.808,-8.787 -29.622,-17.563 -44.391,-26.413 -1.493,-0.894 -2.457,-0.947 -3.915,0.169 -9.96,7.623 -20.011,15.126 -30.17,22.771 -0.421,-0.317 -0.865,-0.648 -1.304,-0.985 -9.537,-7.322 -19.094,-14.618 -28.584,-22.002 -1.206,-0.938 -2.017,-0.872 -3.249,-0.145 -15.099,8.905 -30.23,17.758 -45.357,26.616 -0.476,0.279 -1.009,0.461 -1.516,0.689 l 0,0.312 c 0.434,0.251 0.9,0.459 1.297,0.759 10.686,8.041 21.365,16.092 32.135,24.208 0.448,-0.27 0.928,-0.546 1.395,-0.843 14.573,-9.267 29.154,-18.52 43.697,-27.834 1.15,-0.737 1.898,-0.675 3.016,0.03 15.359,9.676 30.761,19.286 46.125,28.955 1.003,0.631 1.612,0.618 2.526,-0.165 C -20.435,17.403 -11.021,9.432 -1.611,1.456 -1.111,1.032 -0.539,0.693 0,0.314 L 0,0 Z" /></g><g
           transform="translate(335.9993,343.2281)"
           id="g36"><path
             id="path38"
             style="fill:#100f0d;fill-opacity:1;fill-rule:nonzero;stroke:none"
             d="m 0,0 c -0.503,-0.341 -1.037,-0.643 -1.504,-1.027 -9.798,-8.075 -19.589,-16.159 -29.487,-24.33 -16.226,9.435 -32.465,18.877 -48.914,28.441 10.98,9.031 21.776,17.911 32.657,26.861 0.576,-0.35 1.15,-0.687 1.711,-1.043 C -30.813,19.586 -16.091,10.267 -1.363,0.958 -0.941,0.691 -0.455,0.525 0.001,0.312 0,0.208 0,0.105 0,0" /></g><g
           transform="translate(176.1504,341.954)"
           id="g40"><path
             id="path42"
             style="fill:#100f0d;fill-opacity:1;fill-rule:nonzero;stroke:none"
             d="M 0,0 C 16.247,10.478 32.322,20.845 48.438,31.239 58.848,22.304 69.193,13.426 79.664,4.439 79.218,4.097 78.886,3.802 78.517,3.567 63.852,-5.759 49.182,-15.076 34.527,-24.414 33.75,-24.909 33.192,-25.112 32.334,-24.462 21.839,-16.508 11.309,-8.598 0.791,-0.674 0.585,-0.52 0.398,-0.341 0,0" /></g><g
           transform="translate(305.0333,263.2567)"
           id="g44"><path
             id="path46"
             style="fill:#100f0d;fill-opacity:1;fill-rule:nonzero;stroke:none"
             d="m 0,0 c 0,-3.695 0.03,-7.128 -0.036,-10.561 -0.009,-0.452 -0.407,-1.056 -0.804,-1.317 -15.781,-10.373 -31.58,-20.719 -47.404,-31.027 -0.38,-0.248 -1.21,-0.237 -1.593,0.014 -15.778,10.377 -31.532,20.793 -47.272,31.229 -0.381,0.252 -0.821,0.77 -0.829,1.171 -0.065,3.468 -0.037,6.939 -0.037,10.703 0.729,-0.399 1.215,-0.65 1.687,-0.927 4.982,-2.918 9.98,-5.808 14.925,-8.786 1.009,-0.607 1.666,-0.573 2.596,0.147 9.386,7.258 18.83,14.444 28.198,21.726 1.223,0.951 1.954,0.871 3.139,-0.031 9.567,-7.28 19.202,-14.47 28.779,-21.735 0.946,-0.718 1.595,-0.725 2.592,-0.117 4.795,2.923 9.645,5.761 14.476,8.626 C -1.146,-0.624 -0.695,-0.386 0,0" /></g></g></g></g></svg>