<?xml version="1.0" encoding="UTF-8" standalone="no"?>
<svg
   xmlns:dc="http://purl.org/dc/elements/1.1/"
   xmlns:cc="http://creativecommons.org/ns#"
   xmlns:rdf="http://www.w3.org/1999/02/22-rdf-syntax-ns#"
   xmlns:svg="http://www.w3.org/2000/svg"
   xmlns="http://www.w3.org/2000/svg"
   viewBox="0 0 640 640"
   height="640"
   width="640"
   xml:space="preserve"
   version="1.1"
   id="svg2"><metadata
     id="metadata8"><rdf:RDF><cc:Work
         rdf:about=""><dc:format>image/svg+xml</dc:format><dc:type
           rdf:resource="http://purl.org/dc/dcmitype/StillImage" /></cc:Work></rdf:RDF></metadata><defs
     id="defs6"><clipPath
       id="clipPath16"
       clipPathUnits="userSpaceOnUse"><path
         id="path18"
         d="M 0,512 512,512 512,0 0,0 0,512 Z" /></clipPath></defs><g
     transform="matrix(1.25,0,0,-1.25,0,640)"
     id="g10"><g
       id="g12"><g
         clip-path="url(#clipPath16)"
         id="g14"><g
           transform="translate(453.8925,62.0531)"
           id="g20"><path
             id="path22"
             style="fill:#656769;fill-opacity:1;fill-rule:nonzero;stroke:none"
             d="m 0,0 0.006,0 -0.008,0.091 c -0.006,0.704 -0.139,27.82 -2.797,67.522 -0.186,-0.592 -12.197,135.515 -16.778,198.06 -3.235,40.813 -6.252,78.843 -8.207,103.472 -3.999,14.059 -16.925,24.359 -32.267,24.359 l -275.683,0 c -15.396,0 -28.358,-10.371 -32.309,-24.505 -1.844,-23.263 -4.56,-57.546 -7.502,-94.702 0,0 -17.26,-207.29 -17.452,-206.689 L -395.791,0 l 0.006,0 c -10e-4,-0.093 -0.006,-0.184 -0.006,-0.276 0,-0.768 0.021,-1.53 0.058,-2.288 l -0.058,-0.807 0.006,0 c -10e-4,-0.085 -0.006,-0.169 -0.006,-0.255 0,-21.398 17.346,-38.745 38.745,-38.745 l 318.307,0 c 21.398,0 38.745,17.347 38.745,38.745 0,0.086 -0.005,0.17 -0.006,0.255 l 0.006,0 -0.008,0.083 c -0.001,0.059 -0.017,0.331 -0.046,0.783 0.035,0.738 0.054,1.481 0.054,2.229 C 0.006,-0.184 0.001,-0.093 0,0" /></g><g
           transform="translate(424.9958,462.8733)"
           id="g24"><path
             id="path26"
             style="fill:#dcdadb;fill-opacity:1;fill-rule:nonzero;stroke:none"
             d="m 0,0 c -0.475,16.335 -15.093,29.446 -33.069,29.446 l -271.854,0 c -17.243,0 -31.399,-12.063 -32.945,-27.463 0,0 -26.278,-331.436 -26.278,-332.733 0,-19.298 17.106,-34.942 38.207,-34.942 l 313.886,0 c 21.102,0 38.208,15.644 38.208,34.942 C 26.155,-329.452 0,0 0,0" /></g><g
           transform="translate(415.1534,97.1722)"
           id="g28"><path
             id="path30"
             style="fill:#f5f5f5;fill-opacity:1;fill-rule:nonzero;stroke:none"
             d="m 0,0 -318.307,0 c -21.398,0 -38.745,-17.347 -38.745,-38.745 0,-21.399 17.347,-38.746 38.745,-38.746 l 318.307,0 c 21.399,0 38.745,17.347 38.745,38.746 C 38.745,-17.347 21.399,0 0,0" /></g><g
           transform="translate(324.7433,260.9522)"
           id="g32"><path
             id="path34"
             style="fill:#ffffff;fill-opacity:1;fill-rule:nonzero;stroke:none"
             d="m 0,0 c -3.757,-8.329 -5.558,-12.046 -10.393,-19.407 -6.752,-10.277 -16.264,-23.075 -28.053,-23.185 -10.478,-0.096 -13.168,6.82 -27.385,6.742 -14.217,-0.079 -17.185,-6.864 -27.664,-6.767 -11.789,0.109 -20.804,11.665 -27.555,21.942 -18.879,28.736 -20.851,62.462 -9.21,80.39 8.275,12.742 21.326,20.199 33.599,20.199 12.495,0 20.352,-6.852 30.683,-6.852 10.021,0 16.127,6.863 30.575,6.863 10.919,0 22.489,-5.945 30.736,-16.228 C -31.682,48.895 -27.294,10.314 0,0" /></g><g
           transform="translate(278.3797,352.3569)"
           id="g36"><path
             id="path38"
             style="fill:#ffffff;fill-opacity:1;fill-rule:nonzero;stroke:none"
             d="M 0,0 C 5.248,6.738 9.235,16.253 7.789,25.977 -0.784,25.388 -10.814,19.93 -16.67,12.819 -21.986,6.363 -26.374,-3.214 -24.664,-12.519 -15.305,-12.809 -5.621,-7.218 0,0" /></g></g></g></g></svg>