<?xml version="1.0" encoding="UTF-8" standalone="no"?>
<svg
   xmlns:dc="http://purl.org/dc/elements/1.1/"
   xmlns:cc="http://creativecommons.org/ns#"
   xmlns:rdf="http://www.w3.org/1999/02/22-rdf-syntax-ns#"
   xmlns:svg="http://www.w3.org/2000/svg"
   xmlns="http://www.w3.org/2000/svg"
   viewBox="0 0 640 640"
   height="640"
   width="640"
   xml:space="preserve"
   version="1.1"
   id="svg2"><metadata
     id="metadata8"><rdf:RDF><cc:Work
         rdf:about=""><dc:format>image/svg+xml</dc:format><dc:type
           rdf:resource="http://purl.org/dc/dcmitype/StillImage" /></cc:Work></rdf:RDF></metadata><defs
     id="defs6"><clipPath
       id="clipPath16"
       clipPathUnits="userSpaceOnUse"><path
         id="path18"
         d="M 0,512 512,512 512,0 0,0 0,512 Z" /></clipPath></defs><g
     transform="matrix(1.25,0,0,-1.25,0,640)"
     id="g10"><g
       id="g12"><g
         clip-path="url(#clipPath16)"
         id="g14"><g
           transform="translate(453.8925,62.0531)"
           id="g20"><path
             id="path22"
             style="fill:#656769;fill-opacity:1;fill-rule:nonzero;stroke:none"
             d="m 0,0 0.006,0 -0.008,0.091 c -0.006,0.704 -0.139,27.82 -2.797,67.522 -0.186,-0.592 -12.197,135.515 -16.778,198.06 -3.235,40.813 -6.252,78.843 -8.207,103.472 -3.999,14.059 -16.925,24.359 -32.267,24.359 l -275.683,0 c -15.396,0 -28.358,-10.371 -32.309,-24.505 -1.844,-23.263 -4.56,-57.546 -7.502,-94.702 0,0 -17.26,-207.29 -17.452,-206.689 L -395.791,0 l 0.006,0 c -10e-4,-0.093 -0.006,-0.184 -0.006,-0.276 0,-0.768 0.021,-1.53 0.058,-2.288 l -0.058,-0.807 0.006,0 c -10e-4,-0.085 -0.006,-0.169 -0.006,-0.255 0,-21.398 17.346,-38.745 38.745,-38.745 l 318.307,0 c 21.398,0 38.745,17.347 38.745,38.745 0,0.086 -0.005,0.17 -0.006,0.255 l 0.006,0 -0.008,0.083 c -0.001,0.059 -0.017,0.331 -0.046,0.783 0.035,0.738 0.054,1.481 0.054,2.229 C 0.006,-0.184 0.001,-0.093 0,0" /></g><g
           transform="translate(424.9958,462.8733)"
           id="g24"><path
             id="path26"
             style="fill:#dcdadb;fill-opacity:1;fill-rule:nonzero;stroke:none"
             d="m 0,0 c -0.475,16.335 -15.093,29.446 -33.069,29.446 l -271.854,0 c -17.243,0 -31.399,-12.063 -32.945,-27.463 0,0 -26.278,-331.436 -26.278,-332.733 0,-19.298 17.106,-34.942 38.207,-34.942 l 313.886,0 c 21.102,0 38.208,15.644 38.208,34.942 C 26.155,-329.452 0,0 0,0" /></g><g
           transform="translate(415.1534,97.1722)"
           id="g28"><path
             id="path30"
             style="fill:#f5f5f5;fill-opacity:1;fill-rule:nonzero;stroke:none"
             d="m 0,0 -318.307,0 c -21.398,0 -38.745,-17.347 -38.745,-38.745 0,-21.399 17.347,-38.746 38.745,-38.746 l 318.307,0 c 21.399,0 38.745,17.347 38.745,38.746 C 38.745,-17.347 21.399,0 0,0" /></g><g
           transform="translate(312.5566,313.5328)"
           id="g32"><path
             id="path34"
             style="fill:#ffffff;fill-opacity:1;fill-rule:nonzero;stroke:none"
             d="m 0,0 c 8.277,0 16.188,-1.596 23.443,-4.493 -1.225,42.333 -35.319,76.424 -77.655,77.642 2.892,-7.249 4.485,-15.152 4.485,-23.421 0,-34.964 -28.445,-63.408 -63.408,-63.408 -8.269,0 -16.172,1.593 -23.422,4.484 1.219,-42.334 35.309,-76.429 77.642,-77.655 -2.897,7.255 -4.493,15.166 -4.493,23.443 C -63.408,-28.444 -34.964,0 0,0" /></g><g
           transform="translate(208.8667,363.2385)"
           id="g36"><path
             id="path38"
             style="fill:#ffffff;fill-opacity:1;fill-rule:nonzero;stroke:none"
             d="m 0,0 c 0,-5.205 -4.219,-9.424 -9.424,-9.424 -2.422,0 -4.625,0.922 -6.294,2.424 -2.311,-2.927 -4.419,-6.021 -6.31,-9.258 3.484,-2.701 7.854,-4.314 12.604,-4.314 11.373,0 20.593,9.221 20.593,20.594 0,4.747 -1.61,9.114 -4.308,12.598 C 3.614,10.725 0.511,8.611 -2.424,6.294 -0.922,4.625 0,2.422 0,0" /></g><g
           transform="translate(291.9857,250.1246)"
           id="g40"><path
             id="path42"
             style="fill:#ffffff;fill-opacity:1;fill-rule:nonzero;stroke:none"
             d="m 0,0 c 0,-4.75 1.612,-9.12 4.313,-12.604 3.237,1.891 6.331,3.999 9.258,6.31 -1.502,1.67 -2.423,3.872 -2.423,6.294 0,5.205 4.219,9.424 9.424,9.424 2.422,0 4.624,-0.922 6.293,-2.424 2.318,2.935 4.432,6.037 6.326,9.285 -3.482,2.698 -7.851,4.308 -12.598,4.308 C 9.22,20.593 0,11.373 0,0" /></g><g
           transform="translate(233.9974,363.2608)"
           id="g44"><path
             id="path46"
             style="fill:#ffffff;fill-opacity:1;fill-rule:nonzero;stroke:none"
             d="m 0,0 c 0,-19.053 -15.501,-34.555 -34.555,-34.555 -6.858,0 -13.249,2.016 -18.63,5.476 -1.752,-4.788 -3.056,-9.792 -3.869,-14.959 6.745,-3.45 14.38,-5.409 22.477,-5.409 27.309,0 49.447,22.138 49.447,49.447 0,8.097 -1.959,15.732 -5.409,22.477 C 4.304,21.665 -0.689,20.365 -5.469,18.618 -2.013,13.24 0,6.853 0,0" /></g><g
           transform="translate(263.1099,250.1246)"
           id="g48"><path
             id="path50"
             style="fill:#ffffff;fill-opacity:1;fill-rule:nonzero;stroke:none"
             d="m 0,0 c 0,-8.106 1.963,-15.75 5.421,-22.501 5.17,0.813 10.177,2.118 14.969,3.871 -3.459,5.38 -5.476,11.772 -5.476,18.63 0,19.053 15.502,34.555 34.555,34.555 6.853,0 13.24,-2.014 18.618,-5.468 1.748,4.782 3.05,9.779 3.861,14.939 -6.752,3.458 -14.395,5.421 -22.502,5.421 C 22.138,49.447 0,27.309 0,0" /></g></g></g></g></svg>