<?xml version="1.0" encoding="UTF-8" standalone="no"?>
<svg
   xmlns:dc="http://purl.org/dc/elements/1.1/"
   xmlns:cc="http://creativecommons.org/ns#"
   xmlns:rdf="http://www.w3.org/1999/02/22-rdf-syntax-ns#"
   xmlns:svg="http://www.w3.org/2000/svg"
   xmlns="http://www.w3.org/2000/svg"
   viewBox="0 0 640 640"
   height="640"
   width="640"
   xml:space="preserve"
   version="1.1"
   id="svg2"><metadata
     id="metadata8"><rdf:RDF><cc:Work
         rdf:about=""><dc:format>image/svg+xml</dc:format><dc:type
           rdf:resource="http://purl.org/dc/dcmitype/StillImage" /></cc:Work></rdf:RDF></metadata><defs
     id="defs6"><clipPath
       id="clipPath16"
       clipPathUnits="userSpaceOnUse"><path
         id="path18"
         d="M 0,512 512,512 512,0 0,0 0,512 Z" /></clipPath></defs><g
     transform="matrix(1.25,0,0,-1.25,0,640)"
     id="g10"><g
       id="g12"><g
         clip-path="url(#clipPath16)"
         id="g14"><g
           transform="translate(453.8925,62.0531)"
           id="g20"><path
             id="path22"
             style="fill:#656769;fill-opacity:1;fill-rule:nonzero;stroke:none"
             d="m 0,0 0.006,0 -0.008,0.091 c -0.006,0.704 -0.139,27.82 -2.797,67.522 -0.186,-0.592 -12.197,135.515 -16.778,198.06 -3.235,40.813 -6.252,78.843 -8.207,103.472 -3.999,14.059 -16.925,24.359 -32.267,24.359 l -275.683,0 c -15.396,0 -28.358,-10.371 -32.309,-24.505 -1.844,-23.263 -4.56,-57.546 -7.502,-94.702 0,0 -17.26,-207.29 -17.452,-206.689 L -395.791,0 l 0.006,0 c -10e-4,-0.093 -0.006,-0.184 -0.006,-0.276 0,-0.768 0.021,-1.53 0.058,-2.288 l -0.058,-0.807 0.006,0 c -10e-4,-0.085 -0.006,-0.169 -0.006,-0.255 0,-21.398 17.346,-38.745 38.745,-38.745 l 318.307,0 c 21.398,0 38.745,17.347 38.745,38.745 0,0.086 -0.005,0.17 -0.006,0.255 l 0.006,0 -0.008,0.083 c -0.001,0.059 -0.017,0.331 -0.046,0.783 0.035,0.738 0.054,1.481 0.054,2.229 C 0.006,-0.184 0.001,-0.093 0,0" /></g><g
           transform="translate(424.9958,462.8733)"
           id="g24"><path
             id="path26"
             style="fill:#dcdadb;fill-opacity:1;fill-rule:nonzero;stroke:none"
             d="m 0,0 c -0.475,16.335 -15.093,29.446 -33.069,29.446 l -271.854,0 c -17.243,0 -31.399,-12.063 -32.945,-27.463 0,0 -26.278,-331.436 -26.278,-332.733 0,-19.298 17.106,-34.942 38.207,-34.942 l 313.886,0 c 21.102,0 38.208,15.644 38.208,34.942 C 26.155,-329.452 0,0 0,0" /></g><g
           transform="translate(415.1534,97.1722)"
           id="g28"><path
             id="path30"
             style="fill:#f5f5f5;fill-opacity:1;fill-rule:nonzero;stroke:none"
             d="m 0,0 -318.307,0 c -21.398,0 -38.745,-17.347 -38.745,-38.745 0,-21.399 17.347,-38.746 38.745,-38.746 l 318.307,0 c 21.399,0 38.745,17.347 38.745,38.746 C 38.745,-17.347 21.399,0 0,0" /></g><g
           transform="translate(253.492,308.3991)"
           id="g32"><path
             id="path34"
             style="fill:#100f0d;fill-opacity:1;fill-rule:nonzero;stroke:none"
             d="M 0,0 C 2.046,4.265 0.47,3.702 -2.435,3.692 L -33.437,3.604 c -3.791,-0.075 -4.56,0.728 -2.983,4.261 0.578,1.295 1.146,2.594 1.72,3.891 l -0.008,-0.138 1.534,3.59 c 3.993,9.096 7.889,18.234 11.723,27.396 1.464,3.5 3.42,6.842 4.472,10.497 l 3.861,9.034 c 1.435,2.945 2.621,6.045 3.937,9.213 l 1.038,2.427 c 0.428,0.972 0.876,1.947 1.358,2.925 C -20.236,75.068 -31.85,70.867 -42.294,63.742 -57.619,53.288 -68.619,39.627 -73.763,21.781 c -0.598,-1.626 -1.401,-3.21 -1.766,-4.885 -7.359,-33.731 6.293,-66.402 35.569,-84.949 l 3.077,-1.949 c 0,0 3.502,34.294 4.195,41.329 4.34,-4.255 11.736,-12.763 11.736,-12.763 C -14.155,-27.232 0,0 0,0" /></g><g
           transform="translate(257.6851,273.9364)"
           id="g36"><path
             id="path38"
             style="fill:#100f0d;fill-opacity:1;fill-rule:nonzero;stroke:none"
             d="M 0,0 C 0.002,-0.201 -0.008,-0.397 -0.03,-0.589 -0.008,-0.397 0.002,-0.201 0,0 m 76.23,50.536 c -0.496,2.188 -0.834,4.42 -1.512,6.549 -6.291,19.755 -18.975,34.481 -37.24,44.507 -3.685,2.022 -3.959,3.748 -3.378,7.72 0.654,4.485 4.382,20.371 4.382,20.371 C 24.535,105.561 10.854,81.897 -3.213,57.565 c 12.983,0 25.058,0.01 37.132,-0.016 1.289,-0.002 3.068,0.618 3.747,-0.519 0.877,-1.464 -0.86,-2.567 -1.637,-3.704 C 30.324,44.977 24.539,36.681 18.826,28.337 12.511,19.114 6.244,9.858 -0.044,0.617 c -2.874,-4.008 -5.689,-8.058 -8.644,-12.008 -1.831,-2.447 -0.825,-3.092 1.734,-3.307 4.761,-0.4 9.51,-0.943 15.322,-1.534 -15.416,-12.607 -30.044,-24.567 -44.671,-36.528 l 14.428,6.151 c 4.784,1.525 6.872,1.832 10.792,1.437 34.165,-3.44 65.861,13.369 81.203,43.045 4.149,8.026 6.114,16.584 7.509,25.581 1.453,9.361 0.413,18.129 -1.399,27.082" /></g></g></g></g></svg>