<?xml version="1.0" encoding="UTF-8" standalone="no"?>
<svg
   xmlns:dc="http://purl.org/dc/elements/1.1/"
   xmlns:cc="http://creativecommons.org/ns#"
   xmlns:rdf="http://www.w3.org/1999/02/22-rdf-syntax-ns#"
   xmlns:svg="http://www.w3.org/2000/svg"
   xmlns="http://www.w3.org/2000/svg"
   viewBox="0 0 640 640"
   height="640"
   width="640"
   xml:space="preserve"
   version="1.1"
   id="svg2"><metadata
     id="metadata8"><rdf:RDF><cc:Work
         rdf:about=""><dc:format>image/svg+xml</dc:format><dc:type
           rdf:resource="http://purl.org/dc/dcmitype/StillImage" /></cc:Work></rdf:RDF></metadata><defs
     id="defs6"><clipPath
       id="clipPath16"
       clipPathUnits="userSpaceOnUse"><path
         id="path18"
         d="M 0,512 512,512 512,0 0,0 0,512 Z" /></clipPath></defs><g
     transform="matrix(1.25,0,0,-1.25,0,640)"
     id="g10"><g
       id="g12"><g
         clip-path="url(#clipPath16)"
         id="g14"><g
           transform="translate(453.8925,62.0531)"
           id="g20"><path
             id="path22"
             style="fill:#656769;fill-opacity:1;fill-rule:nonzero;stroke:none"
             d="m 0,0 0.006,0 -0.008,0.091 c -0.006,0.704 -0.139,27.82 -2.797,67.522 -0.186,-0.592 -12.197,135.515 -16.778,198.06 -3.235,40.813 -6.252,78.843 -8.207,103.472 -3.999,14.059 -16.925,24.359 -32.267,24.359 l -275.683,0 c -15.396,0 -28.358,-10.371 -32.309,-24.505 -1.844,-23.263 -4.56,-57.546 -7.502,-94.702 0,0 -17.26,-207.29 -17.452,-206.689 L -395.791,0 l 0.006,0 c -10e-4,-0.093 -0.006,-0.184 -0.006,-0.276 0,-0.768 0.021,-1.53 0.058,-2.288 l -0.058,-0.807 0.006,0 c -10e-4,-0.085 -0.006,-0.169 -0.006,-0.255 0,-21.398 17.346,-38.745 38.745,-38.745 l 318.307,0 c 21.398,0 38.745,17.347 38.745,38.745 0,0.086 -0.005,0.17 -0.006,0.255 l 0.006,0 -0.008,0.083 c -0.001,0.059 -0.017,0.331 -0.046,0.783 0.035,0.738 0.054,1.481 0.054,2.229 C 0.006,-0.184 0.001,-0.093 0,0" /></g><g
           transform="translate(424.9958,462.8733)"
           id="g24"><path
             id="path26"
             style="fill:#dcdadb;fill-opacity:1;fill-rule:nonzero;stroke:none"
             d="m 0,0 c -0.475,16.335 -15.093,29.446 -33.069,29.446 l -271.854,0 c -17.243,0 -31.399,-12.063 -32.945,-27.463 0,0 -26.278,-331.436 -26.278,-332.733 0,-19.298 17.106,-34.942 38.207,-34.942 l 313.886,0 c 21.102,0 38.208,15.644 38.208,34.942 C 26.155,-329.452 0,0 0,0" /></g><g
           transform="translate(415.1534,97.1722)"
           id="g28"><path
             id="path30"
             style="fill:#f5f5f5;fill-opacity:1;fill-rule:nonzero;stroke:none"
             d="m 0,0 -318.307,0 c -21.398,0 -38.745,-17.347 -38.745,-38.745 0,-21.399 17.347,-38.746 38.745,-38.746 l 318.307,0 c 21.399,0 38.745,17.347 38.745,38.746 C 38.745,-17.347 21.399,0 0,0" /></g><g
           transform="translate(290.9005,339.4641)"
           id="g32"><path
             id="path34"
             style="fill:#100f0d;fill-opacity:1;fill-rule:nonzero;stroke:none"
             d="m 0,0 -17.449,0 c -0.813,0 -1.473,-0.659 -1.473,-1.472 l 0,-17.451 c 0,-0.814 0.66,-1.473 1.473,-1.473 l 4.367,0 c -10e-4,-1.907 -0.004,-5.812 -0.004,-12.552 -0.034,-1.508 -0.644,-3.12 -1.676,-4.439 l -15.787,-14.943 0,62.474 5.726,0 c 0.527,0 1.013,0.281 1.275,0.736 0.264,0.456 0.264,1.018 0,1.473 L -33.622,29.8 c -0.263,0.455 -0.749,0.736 -1.275,0.736 -0.526,0 -1.012,-0.281 -1.275,-0.736 L -46.248,12.353 c -0.263,-0.455 -0.263,-1.017 0,-1.473 0.263,-0.455 0.749,-0.736 1.275,-0.736 l 5.715,0 0,-84.283 -15.783,14.94 c -1.033,1.32 -1.644,2.932 -1.678,4.403 0,6.85 -0.002,11.331 -0.004,13.598 3.536,1.671 5.846,5.24 5.846,9.186 0,5.623 -4.574,10.197 -10.198,10.197 -5.623,0 -10.198,-4.574 -10.198,-10.197 0,-3.947 2.309,-7.516 5.844,-9.186 l -0.003,-13.427 c 0,-4.653 2.569,-9.003 4.999,-11.554 0.04,-0.044 0.082,-0.089 0.128,-0.133 0.287,-0.268 18.052,-17.088 19.375,-18.34 1.027,-1.313 1.636,-2.922 1.671,-4.398 l 0,-8.928 c -6.838,-1.925 -11.685,-8.235 -11.685,-15.441 0,-8.847 7.197,-16.045 16.043,-16.045 8.848,0 16.046,7.198 16.046,16.045 0,7.207 -4.851,13.518 -11.695,15.442 l 0,30.714 c 0.037,1.506 0.648,3.114 1.676,4.426 1.311,1.24 19.145,18.123 19.367,18.331 0.006,0.006 0.012,0.012 0.019,0.018 0.005,0.004 0.009,0.008 0.012,0.012 0.017,0.015 0.032,0.03 0.046,0.045 0.004,0.003 0.008,0.007 0.012,0.01 l 0,10e-4 c 0.026,0.027 0.051,0.053 0.075,0.08 2.419,2.553 4.969,6.889 4.969,11.528 l -0.003,12.416 4.377,0 c 0.813,0 1.472,0.659 1.472,1.473 l 0,17.451 C 1.472,-0.659 0.813,0 0,0" /></g></g></g></g></svg>