<?xml version="1.0" encoding="utf-8"?>
<!-- Generator: Adobe Illustrator 18.0.0, SVG Export Plug-In . SVG Version: 6.00 Build 0)  -->
<!DOCTYPE svg PUBLIC "-//W3C//DTD SVG 1.1//EN" "http://www.w3.org/Graphics/SVG/1.1/DTD/svg11.dtd">
<svg version="1.1" id="Layer_1" xmlns="http://www.w3.org/2000/svg" xmlns:xlink="http://www.w3.org/1999/xlink" x="0px" y="0px"
	 viewBox="0 0 512 512" enable-background="new 0 0 512 512" xml:space="preserve">
<path opacity="0.7" fill="#000000" d="M256,26C129,26,26,129,26,256s103,230,230,230s230-103,230-230S383,26,256,26z M256,357
	c-11.1,0-20.2-9-20.2-20.2c0-11.1,9-20.2,20.2-20.2s20.2,9,20.2,20.2C276.2,348,267.1,357,256,357z M276.2,279.4
	c0,11.1-9,20.2-20.2,20.2s-20.2-9-20.2-20.2V175.2c0-11.1,9-20.2,20.2-20.2s20.2,9,20.2,20.2V279.4z"/>
</svg>
