<?xml version="1.0" encoding="utf-8"?>
<!-- Generator: Adobe Illustrator 18.0.0, SVG Export Plug-In . SVG Version: 6.00 Build 0)  -->
<!DOCTYPE svg PUBLIC "-//W3C//DTD SVG 1.1//EN" "http://www.w3.org/Graphics/SVG/1.1/DTD/svg11.dtd">
<svg version="1.1" id="Layer_1" xmlns="http://www.w3.org/2000/svg" xmlns:xlink="http://www.w3.org/1999/xlink" x="0px" y="0px"
	 viewBox="0 0 512 512" enable-background="new 0 0 512 512" xml:space="preserve">
<path opacity="0.7" fill="#000000" d="M256,26C129,26,26,129,26,256s103,230,230,230s230-103,230-230S383,26,256,26z M391.4,231.1
	l-54.6,53.2c-4.8,4.7-7.8,13.9-6.7,20.5l12.9,75.2c1.1,6.6-2.8,9.5-8.7,6.3l-67.5-35.5c-5.9-3.1-15.6-3.1-21.6,0l-67.5,35.5
	c-5.9,3.1-9.9,0.3-8.7-6.3l12.9-75.2c1.1-6.6-1.9-15.8-6.7-20.5l-54.6-53.2c-4.8-4.7-3.3-9.3,3.3-10.3l75.5-11
	c6.6-1,14.5-6.7,17.4-12.7l33.8-68.4c3-6,7.8-6,10.8,0l33.8,68.4c3,6,10.8,11.7,17.4,12.7l75.5,11
	C394.7,221.8,396.2,226.5,391.4,231.1z"/>
</svg>
