<?xml version="1.0" encoding="utf-8"?>
<!-- Generator: Adobe Illustrator 18.0.0, SVG Export Plug-In . SVG Version: 6.00 Build 0)  -->
<!DOCTYPE svg PUBLIC "-//W3C//DTD SVG 1.1//EN" "http://www.w3.org/Graphics/SVG/1.1/DTD/svg11.dtd">
<svg version="1.1" id="Layer_1" xmlns="http://www.w3.org/2000/svg" xmlns:xlink="http://www.w3.org/1999/xlink" x="0px" y="0px"
	 viewBox="0 0 512 512" enable-background="new 0 0 512 512" xml:space="preserve">
<g opacity="0.7">
	<path fill="#000000" d="M422.3,98.5C376.7,50.5,312.2,24.4,246,27.2c-57.4,2.5-111,26-151.9,66.9c-51.3,51.3-75.3,122.7-64.6,196.5
		c5.3,36.6,19.8,71.5,41.9,101.2C116,451.5,183.4,485,256,485c76.3,0,147-37.1,191.3-102.8c17-25.2,28.5-53.8,33.9-83.7
		C494.5,224.1,472.4,151.4,422.3,98.5z M325.6,322.1c-2.2,2.2-5.7,2.2-7.9,0l-11.6-11.6H205.9l-11.6,11.6c-2.2,2.2-5.7,2.2-7.9,0
		c-2.2-2.2-2.2-5.7,0-7.9l8.3-8.3c-0.5-1.1-0.8-2.3-0.8-3.6V194.5c0-4.5,3.7-8.2,8.2-8.2h107.8c4.5,0,8.2,3.7,8.2,8.2v107.8
		c0,1.3-0.3,2.5-0.8,3.6l8.3,8.3C327.8,316.3,327.8,319.9,325.6,322.1z"/>
	<path fill="#000000" d="M290,248.2l-53-30.6c-0.6-0.4-1.4-0.4-2,0c-0.6,0.4-1,1-1,1.7v47.2v14c0,0.5,0.2,1,0.5,1.3
		c0.1,0.1,0.3,0.3,0.5,0.4c0.3,0.2,0.7,0.3,1,0.3s0.7-0.1,1-0.3l25.9-15l10.1-5.8l17-9.8c0.6-0.4,1-1,1-1.7S290.6,248.6,290,248.2z"
		/>
</g>
</svg>
