<?xml version="1.0" encoding="utf-8"?>
<!-- Generator: Adobe Illustrator 18.0.0, SVG Export Plug-In . SVG Version: 6.00 Build 0)  -->
<!DOCTYPE svg PUBLIC "-//W3C//DTD SVG 1.1//EN" "http://www.w3.org/Graphics/SVG/1.1/DTD/svg11.dtd">
<svg version="1.1" id="Layer_1" xmlns="http://www.w3.org/2000/svg" xmlns:xlink="http://www.w3.org/1999/xlink" x="0px" y="0px"
	 viewBox="0 0 512 512" enable-background="new 0 0 512 512" xml:space="preserve">
<path opacity="0.7" fill="#000000" enable-background="new    " d="M256,26C129,26,26,129,26,256s103,230,230,230s230-103,230-230
	S383,26,256,26z M372.5,208.5L262.9,317.9l0.1,0.1l-14.5,14.5l0,0l0,0c-8,8-21,8-29,0l0,0l0,0l-14.7-14.7l-65.3-65.3c-8-8-8-21,0-29
	s21-8,29,0L234,289l0,0l0.3,0.3L234,289l109.5-109.5c8-8,21-8,29,0S380.5,200.5,372.5,208.5z"/>
</svg>
