<?xml version="1.0" encoding="utf-8"?>
<!-- Generator: Adobe Illustrator 18.0.0, SVG Export Plug-In . SVG Version: 6.00 Build 0)  -->
<!DOCTYPE svg PUBLIC "-//W3C//DTD SVG 1.1//EN" "http://www.w3.org/Graphics/SVG/1.1/DTD/svg11.dtd">
<svg version="1.1" id="Layer_1" xmlns="http://www.w3.org/2000/svg" xmlns:xlink="http://www.w3.org/1999/xlink" x="0px" y="0px"
	 viewBox="0 0 512 512" enable-background="new 0 0 512 512" xml:space="preserve">
<g opacity="0.7">
	<path fill="#000000" d="M256,26C129,26,26,129,26,256s103,230,230,230s230-103,230-230S383,26,256,26z M284.3,357.8
		c-37.1,0-80.7-8.4-81.8-20.7c-0.2-2.1-0.2-4.1-0.1-6c-2.7,0-5.4,0-8,0c-27.7,0-60.1-6.3-61-15.4c-2.9-31.9,48-28.6,48.5-43.9
		c0.5-15.2-16.8-8.3-21.2-43.8c-0.7-6-0.5-14.1,1.9-21.7c3.7-15.5,17.8-27,34.5-27c19.2,0,34.8,15.1,35.5,34
		c0.6,4.6,0.7,9.1,0.3,13.1c-2.5,33-20.9,33.2-21.1,43.1c-0.2,11,22.1,13.3,37.8,23.4c9.9-3.9,17.5-8,17.7-14.8
		c0.7-20.4-22.5-11.1-28.4-58.8c-1-8-0.7-18.9,2.6-29.1c5-20.8,23.8-36.2,46.3-36.2c25.8,0,46.7,20.3,47.6,45.6
		c0.8,6.1,0.9,12.2,0.5,17.6c-3.4,44.3-28,44.5-28.2,57.8c-0.4,22.8,70.8,17.7,70.8,66.2C378.7,355.3,323.5,357.8,284.3,357.8z"/>
	<path fill="#000000" d="M264.8,319c0-12.7-6.5-20.4-15-25.9c-18.7,7.4-45.7,14.3-47.4,38.1C230.6,330.8,264.8,328.4,264.8,319z"/>
</g>
</svg>
