<?xml version="1.0" encoding="utf-8"?>
<!-- Generator: Adobe Illustrator 18.0.0, SVG Export Plug-In . SVG Version: 6.00 Build 0)  -->
<!DOCTYPE svg PUBLIC "-//W3C//DTD SVG 1.1//EN" "http://www.w3.org/Graphics/SVG/1.1/DTD/svg11.dtd">
<svg version="1.1" id="Layer_1" xmlns="http://www.w3.org/2000/svg" xmlns:xlink="http://www.w3.org/1999/xlink" x="0px" y="0px"
	 viewBox="0 0 512 512" enable-background="new 0 0 512 512" xml:space="preserve">
<path opacity="0.7" fill="#000000" d="M256,26C129,26,26,129,26,256s103,230,230,230s230-103,230-230S383,26,256,26z M385.6,204.9
	l-122.1,70.5c-3.3,1.9-7.5-0.5-7.5-4.3v-31c0-2.9-2.5-5.2-5.4-5c-39.4,2.9-70.4,35.8-70.4,75.9c0,42,34.1,76.1,76.1,76.1
	c-60.8,0-110-49.2-110-110c0-59,46.5-107.2,104.9-109.9c2.7-0.1,4.8-2.3,4.8-5v-32.1c0-3.8,4.2-6.3,7.5-4.3l122.1,70.5
	C388.9,198.1,388.9,203,385.6,204.9z"/>
</svg>
