<?xml version="1.0" encoding="utf-8"?>
<!-- Generator: Adobe Illustrator 18.0.0, SVG Export Plug-In . SVG Version: 6.00 Build 0)  -->
<!DOCTYPE svg PUBLIC "-//W3C//DTD SVG 1.1//EN" "http://www.w3.org/Graphics/SVG/1.1/DTD/svg11.dtd">
<svg version="1.1" id="Layer_1" xmlns="http://www.w3.org/2000/svg" xmlns:xlink="http://www.w3.org/1999/xlink" x="0px" y="0px"
	 viewBox="0 0 512 512" enable-background="new 0 0 512 512" xml:space="preserve">
<g opacity="0.7">
	
		<rect x="227.9" y="227.9" transform="matrix(-0.7071 -0.7071 0.7071 -0.7071 256 618.0387)" fill="#000000" width="56.1" height="56.1"/>
	<path fill="#000000" d="M256,26C129,26,26,129,26,256s103,230,230,230s230-103,230-230S383,26,256,26z M355.3,315.6
		c11,11,11,28.7,0,39.7s-28.7,11-39.7,0L256,295.7l-59.6,59.6c-11,11-28.7,11-39.7,0c-11-11-11-28.7,0-39.7l59.6-59.6l-59.6-59.6
		c-11-11-11-28.7,0-39.7c11-11,28.7-11,39.7,0l59.6,59.6l59.6-59.6c11-11,28.7-11,39.7,0s11,28.7,0,39.7L295.7,256L355.3,315.6z"/>
</g>
</svg>
