<?xml version="1.0" encoding="utf-8"?>
<!-- Generator: Adobe Illustrator 18.0.0, SVG Export Plug-In . SVG Version: 6.00 Build 0)  -->
<!DOCTYPE svg PUBLIC "-//W3C//DTD SVG 1.1//EN" "http://www.w3.org/Graphics/SVG/1.1/DTD/svg11.dtd">
<svg version="1.1" id="Layer_1" xmlns="http://www.w3.org/2000/svg" xmlns:xlink="http://www.w3.org/1999/xlink" x="0px" y="0px"
	 viewBox="0 0 512 512" enable-background="new 0 0 512 512" xml:space="preserve">
<path opacity="0.7" fill="#000000" d="M256,26C129,26,26,129,26,256s103,230,230,230s230-103,230-230S383,26,256,26z M298.2,315.2
	c29.5-60.8,18.9-96.9-33.8-119.1c0,48.6,0,85,0,128.8c1.7,53-52.8,56.3-66.1,42.2c-22.5-22.7,5.1-69,58.8-47c0-38.9,0-111.7,0-182.2
	c14.3,34.8,29.9,55.3,39.8,66.6C304.7,213.4,347.7,253.1,298.2,315.2z"/>
</svg>
