<?xml version="1.0" encoding="utf-8"?>
<!-- Generator: Adobe Illustrator 22.0.1, SVG Export Plug-In . SVG Version: 6.00 Build 0)  -->
<svg version="1.1" id="Layer_2_1_" xmlns="http://www.w3.org/2000/svg" xmlns:xlink="http://www.w3.org/1999/xlink" x="0px" y="0px"
	 viewBox="0 0 512 512" style="enable-background:new 0 0 512 512;" xml:space="preserve">
<style type="text/css">
	.st0{fill:#825E46;}
	.st1{fill:url(#SVGID_1_);}
	.st2{fill:url(#SVGID_2_);}
	.st3{fill:url(#SVGID_3_);}
	.st4{display:none;}
	.st5{display:inline;opacity:0.95;enable-background:new    ;}
	.st6{opacity:0.95;fill:#F45C08;enable-background:new    ;}
	.st7{fill:#FFFFFF;}
	.st8{display:inline;}
	.st9{fill:#DBDBDB;}
	.st10{fill:#F9F9F9;}
	.st11{opacity:0.95;fill:#00BDFF;enable-background:new    ;}
	.st12{opacity:0.95;enable-background:new    ;}
</style>
<path class="st0" d="M411,486H101c-41.2,0-75-33.8-75-75V101c0-41.2,33.8-75,75-75h310c41.2,0,75,33.8,75,75v310
	C486,452.2,452.2,486,411,486z"/>
<g>
	<linearGradient id="SVGID_1_" gradientUnits="userSpaceOnUse" x1="256" y1="443" x2="256" y2="227.3">
		<stop  offset="0" style="stop-color:#825E46"/>
		<stop  offset="0.3286" style="stop-color:#73523C"/>
		<stop  offset="0.9622" style="stop-color:#4B3423"/>
		<stop  offset="1" style="stop-color:#483221"/>
	</linearGradient>
	<polygon class="st1" points="68.9,443 256,227.3 443.1,443 	"/>
	<linearGradient id="SVGID_2_" gradientUnits="userSpaceOnUse" x1="220.7" y1="256" x2="447.6" y2="256">
		<stop  offset="0" style="stop-color:#483221"/>
		<stop  offset="0.3122" style="stop-color:#563D2A"/>
		<stop  offset="0.9016" style="stop-color:#7B5942"/>
		<stop  offset="1" style="stop-color:#825E46"/>
	</linearGradient>
	<polygon class="st2" points="447.6,445.4 220.7,256 447.6,66.6 	"/>
	<linearGradient id="SVGID_3_" gradientUnits="userSpaceOnUse" x1="64.4" y1="256" x2="291.3" y2="256">
		<stop  offset="0" style="stop-color:#825E46"/>
		<stop  offset="9.840000e-02" style="stop-color:#7B5942"/>
		<stop  offset="0.6878" style="stop-color:#563D2A"/>
		<stop  offset="1" style="stop-color:#483221"/>
	</linearGradient>
	<polygon class="st3" points="64.4,445.4 291.3,256 64.4,66.6 	"/>
</g>
<g class="st4">
	<g class="st5">
		<circle class="st6" cx="256" cy="250.1" r="129.8"/>
		<path class="st7" d="M253.2,353L253.2,353c-3.4,0-6.8-0.1-10.1-0.3c-1.4-0.1-2.5-1.2-2.4-2.6s1.2-2.5,2.6-2.4
			c3.3,0.1,6.6,0.2,9.9,0.3c1.4,0,2.5,1.2,2.5,2.6C255.8,351.9,254.6,353,253.2,353z M265.2,352.9c-1.4,0-2.5-1.1-2.5-2.5
			s1.1-2.6,2.5-2.6c3.3-0.1,6.6-0.3,9.9-0.5c1.4-0.1,2.6,1,2.7,2.4s-1,2.6-2.4,2.7C272.1,352.6,268.7,352.7,265.2,352.9
			C265.3,352.9,265.3,352.9,265.2,352.9z M231.3,351.9c-0.1,0-0.2,0-0.2,0c-3.4-0.3-6.8-0.7-10-1.1c-1.4-0.2-2.4-1.5-2.2-2.9
			s1.5-2.4,2.9-2.2c3.2,0.4,6.5,0.8,9.8,1.1c1.4,0.1,2.4,1.4,2.3,2.8C233.7,350.9,232.6,351.9,231.3,351.9z M287.2,351.2
			c-1.3,0-2.4-0.9-2.5-2.2c-0.2-1.4,0.8-2.7,2.2-2.8c3.3-0.4,6.6-0.9,9.8-1.4c1.4-0.2,2.7,0.7,2.9,2.1c0.2,1.4-0.7,2.7-2.1,2.9
			c-3.2,0.5-6.6,1-10,1.4C287.4,351.2,287.3,351.2,287.2,351.2z M209.5,348.8c-0.2,0-0.3,0-0.5,0c-3.5-0.7-6.8-1.5-9.9-2.3
			c-1.4-0.4-2.1-1.8-1.8-3.1c0.4-1.4,1.8-2.1,3.1-1.8c3,0.8,6.2,1.6,9.6,2.3c1.4,0.3,2.3,1.6,2,3C211.8,348,210.7,348.8,209.5,348.8
			z M308.8,347.4c-1.1,0-2.2-0.8-2.5-1.9c-0.3-1.4,0.5-2.7,1.9-3.1c3.3-0.8,6.5-1.7,9.4-2.7c1.3-0.5,2.8,0.3,3.2,1.6
			s-0.3,2.8-1.6,3.2c-3,1-6.3,2-9.8,2.8C309.2,347.4,309,347.4,308.8,347.4z M188.4,342.7c-0.3,0-0.7-0.1-1-0.2
			c-3.5-1.5-6.7-3.1-9.3-4.8c-1.2-0.8-1.5-2.3-0.7-3.5s2.3-1.5,3.5-0.7c2.4,1.5,5.2,3,8.5,4.3c1.3,0.5,1.9,2,1.4,3.3
			C190.4,342.1,189.4,342.7,188.4,342.7z M329.4,339.9c-0.9,0-1.8-0.5-2.2-1.3c-0.7-1.2-0.2-2.8,1-3.4c3.1-1.7,5.6-3.5,7.5-5.4
			c1-1,2.6-1,3.6,0s1,2.6,0,3.6c-2.2,2.2-5.1,4.3-8.7,6.2C330.2,339.8,329.8,339.9,329.4,339.9z M171,329.8c-0.8,0-1.6-0.4-2.1-1.1
			c-1.8-2.6-3.4-5.7-5-9.2c-0.6-1.3,0-2.8,1.3-3.3s2.8,0,3.3,1.3c1.4,3.2,2.9,6,4.5,8.4c0.8,1.2,0.5,2.7-0.7,3.5
			C172,329.7,171.5,329.8,171,329.8z M344.2,324.3c-0.4,0-0.8-0.1-1.1-0.3c-1.3-0.6-1.8-2.1-1.1-3.4c1.3-2.6,2.5-5.6,3.7-8.9
			c0.5-1.3,1.9-2,3.2-1.6c1.3,0.5,2,1.9,1.6,3.2c-1.2,3.5-2.5,6.7-3.9,9.6C346,323.8,345.1,324.3,344.2,324.3z M162.4,309.7
			c-1.1,0-2.1-0.7-2.4-1.8c-0.9-3.1-1.7-6.4-2.4-9.9c-0.3-1.4,0.6-2.7,2-3s2.7,0.6,3,2c0.7,3.4,1.5,6.6,2.3,9.5
			c0.4,1.3-0.4,2.7-1.8,3.1C162.8,309.7,162.6,309.7,162.4,309.7z M351.2,303.5c-0.2,0-0.4,0-0.6-0.1c-1.4-0.3-2.2-1.7-1.9-3
			c0.7-3,1.4-6.3,1.9-9.7c0.2-1.4,1.5-2.3,2.9-2.1c1.4,0.2,2.3,1.5,2.1,2.9c-0.6,3.5-1.3,6.8-2,9.9
			C353.4,302.7,352.4,303.5,351.2,303.5z M158,288.2c-1.2,0-2.3-0.9-2.5-2.2c-0.5-3.2-0.9-6.6-1.2-10c-0.1-1.4,0.9-2.6,2.3-2.8
			c1.4-0.1,2.6,0.9,2.8,2.3c0.3,3.3,0.7,6.7,1.2,9.8c0.2,1.4-0.8,2.7-2.2,2.9C158.2,288.2,158.1,288.2,158,288.2z M354.8,281.9
			c-0.1,0-0.2,0-0.3,0c-1.4-0.2-2.4-1.4-2.2-2.8c0.4-3.2,0.7-6.5,0.9-9.9c0.1-1.4,1.3-2.5,2.7-2.4c1.4,0.1,2.5,1.3,2.4,2.7
			c-0.2,3.4-0.5,6.8-0.9,10.1C357.2,280.9,356.1,281.9,354.8,281.9z M155.9,266.3c-1.3,0-2.5-1.1-2.5-2.4c-0.2-3.3-0.3-6.7-0.3-10.1
			c0-1.4,1.1-2.6,2.5-2.6l0,0c1.4,0,2.5,1.1,2.5,2.5c0,3.3,0.1,6.6,0.3,9.9c0.1,1.4-1,2.6-2.4,2.7C156,266.3,156,266.3,155.9,266.3z
			 M356.3,259.9C356.3,259.9,356.2,259.9,356.3,259.9c-1.5,0-2.6-1.2-2.5-2.6c0.1-2.4,0.1-4.8,0.1-7.2c0-0.9,0-1.8,0-2.7
			c0-1.4,1.1-2.5,2.5-2.6l0,0c1.4,0,2.5,1.1,2.5,2.5c0,0.9,0,1.8,0,2.7c0,2.4,0,4.9-0.1,7.4C358.8,258.8,357.7,259.9,356.3,259.9z
			 M155.7,244.3L155.7,244.3c-1.5,0-2.6-1.2-2.5-2.6c0.1-3.4,0.3-6.8,0.5-10.1c0.1-1.4,1.3-2.5,2.7-2.4s2.5,1.3,2.4,2.7
			c-0.2,3.2-0.4,6.6-0.5,9.9C158.2,243.3,157.1,244.3,155.7,244.3z M356,237.9c-1.3,0-2.5-1-2.5-2.4c-0.2-3.3-0.4-6.7-0.7-9.9
			c-0.1-1.4,0.9-2.6,2.3-2.8c1.4-0.1,2.6,0.9,2.8,2.3c0.3,3.3,0.5,6.7,0.7,10.1c0.1,1.4-1,2.6-2.4,2.7
			C356.1,237.9,356,237.9,356,237.9z M157.3,222.4c-0.1,0-0.2,0-0.3,0c-1.4-0.2-2.4-1.4-2.2-2.8c0.4-3.4,0.9-6.8,1.4-10
			c0.2-1.4,1.5-2.3,2.9-2.1s2.3,1.5,2.1,2.9c-0.5,3.1-1,6.4-1.4,9.8C159.7,221.5,158.6,222.4,157.3,222.4z M353.9,216.1
			c-1.2,0-2.3-0.9-2.5-2.2c-0.5-3.4-1.1-6.6-1.7-9.7c-0.3-1.4,0.6-2.7,2-3s2.7,0.6,3,2c0.6,3.2,1.2,6.5,1.7,10
			c0.2,1.4-0.8,2.7-2.1,2.9C354.1,216.1,354,216.1,353.9,216.1z M161,200.8c-0.2,0-0.4,0-0.6-0.1c-1.4-0.3-2.2-1.7-1.9-3.1
			c0.8-3.5,1.8-6.8,2.8-9.8c0.4-1.3,1.9-2.1,3.2-1.6c1.3,0.4,2.1,1.9,1.6,3.2c-1,2.9-1.8,6.1-2.6,9.4
			C163.2,200,162.2,200.8,161,200.8z M349.4,194.6c-1.1,0-2.1-0.7-2.4-1.8c-1-3.3-2-6.4-3.2-9.2c-0.5-1.3,0.1-2.8,1.4-3.3
			s2.8,0.1,3.3,1.4c1.2,2.9,2.3,6.2,3.4,9.7c0.4,1.3-0.4,2.8-1.7,3.1C349.8,194.5,349.6,194.6,349.4,194.6z M168.3,180.1
			c-0.4,0-0.8-0.1-1.2-0.3c-1.2-0.6-1.7-2.2-1.1-3.4c1.8-3.5,3.8-6.5,6-8.8c1-1,2.6-1.1,3.6-0.1s1.1,2.6,0.1,3.6
			c-1.8,2-3.6,4.6-5.2,7.7C170.1,179.6,169.2,180.1,168.3,180.1z M340.4,174.6c-0.8,0-1.6-0.4-2.1-1c-0.9-1.2-1.8-2.3-2.7-3.2
			c-1.1-1.1-2.4-2.1-3.8-3.1c-1.2-0.8-1.4-2.4-0.7-3.5c0.8-1.2,2.4-1.4,3.5-0.7c1.7,1.2,3.3,2.4,4.6,3.7c1.1,1.1,2.2,2.4,3.2,3.8
			c0.8,1.1,0.6,2.7-0.6,3.5C341.5,174.4,340.9,174.6,340.4,174.6z M183.5,164.8c-0.9,0-1.8-0.5-2.3-1.4c-0.6-1.2-0.2-2.8,1.1-3.4
			c2.8-1.4,6-2.8,9.5-4c1.3-0.5,2.8,0.2,3.2,1.6c0.5,1.3-0.2,2.8-1.6,3.2c-3.3,1.2-6.3,2.4-8.9,3.8
			C184.3,164.7,183.9,164.8,183.5,164.8z M322.7,162.2c-0.3,0-0.6-0.1-0.9-0.2c-2.8-1.1-5.9-2.2-9.2-3.1c-1.3-0.4-2.1-1.8-1.7-3.1
			s1.8-2.1,3.1-1.7c3.5,1,6.8,2.1,9.7,3.3c1.3,0.5,1.9,2,1.4,3.3C324.6,161.6,323.7,162.2,322.7,162.2z M204.2,157.6
			c-1.1,0-2.2-0.8-2.5-1.9c-0.3-1.4,0.5-2.7,1.9-3.1c3.1-0.7,6.5-1.4,9.9-2c1.4-0.2,2.7,0.7,2.9,2.1c0.2,1.4-0.7,2.7-2.1,2.9
			c-3.4,0.6-6.6,1.2-9.6,2C204.6,157.6,204.4,157.6,204.2,157.6z M301.5,156.3c-0.2,0-0.3,0-0.5,0c-3.1-0.6-6.4-1.1-9.7-1.6
			c-1.4-0.2-2.4-1.5-2.2-2.9c0.2-1.4,1.5-2.3,2.9-2.2c3.4,0.5,6.8,1,10,1.7c1.4,0.3,2.3,1.6,2,3
			C303.8,155.4,302.7,156.3,301.5,156.3z M225.9,153.9c-1.3,0-2.4-1-2.5-2.2c-0.2-1.4,0.8-2.6,2.2-2.8c3.3-0.4,6.7-0.7,10.1-0.9
			c1.4-0.1,2.6,0.9,2.7,2.3s-0.9,2.6-2.3,2.7c-3.3,0.2-6.6,0.6-9.8,0.9C226.1,153.9,226,153.9,225.9,153.9z M279.8,153.3
			c-0.1,0-0.1,0-0.2,0c-3.2-0.3-6.6-0.5-9.9-0.7c-1.4-0.1-2.5-1.3-2.4-2.7s1.3-2.5,2.7-2.4c3.4,0.2,6.8,0.4,10.1,0.7
			c1.4,0.1,2.4,1.4,2.3,2.7C282.2,152.3,281.1,153.3,279.8,153.3z M247.8,152.4c-1.4,0-2.5-1.1-2.5-2.5s1.1-2.6,2.5-2.6
			c3.3-0.1,6.7-0.1,10.1-0.1c1.4,0,2.5,1.1,2.5,2.6c0,1.4-1.1,2.5-2.5,2.5l0,0C254.5,152.2,251.1,152.3,247.8,152.4L247.8,152.4z"/>
	</g>
	<g class="st8">
		<path class="st9" d="M273,417c0.3,2.2-1.2,4-3.4,4h-27.2c-2.2,0-3.7-1.8-3.4-4l7.7-51.1c0.3-2.2,2.4-4,4.6-4h9.8
			c2.2,0,4.3,1.8,4.6,4L273,417z"/>
		<g>
			<path class="st9" d="M265.4,355.3c0,2.2-1.8,4-4,4h-10.8c-2.2,0-4-1.8-4-4v-10.8c0-2.2,1.8-4,4-4h10.8c2.2,0,4,1.8,4,4V355.3z"/>
			<path class="st10" d="M263,353.9c0,1.6-1.3,3-3,3h-8c-1.6,0-3-1.3-3-3v-8.1c0-1.6,1.3-3,3-3h8.1c1.6,0,3,1.3,3,3v8.1H263z"/>
		</g>
		<path class="st10" d="M269.5,409.4c0.3,1.7-1,3.1-2.7,3.1h-21.6c-1.8,0-3-1.4-2.7-3.1l6.1-40.6c0.3-1.7,1.9-3.1,3.7-3.1h7.8
			c1.8,0,3.4,1.4,3.6,3.1L269.5,409.4z"/>
	</g>
</g>
<circle class="st11" cx="256" cy="256" r="128.9"/>
<g class="st12">
	<g>
		<path class="st7" d="M256,361.2C256,361.2,256,361.2,256,361.2c-3.5,0-6.9-0.2-10.3-0.5c-1.4-0.1-2.4-1.4-2.2-2.7s1.3-2.4,2.7-2.2
			c3.2,0.3,6.5,0.5,9.8,0.5c0,0,0.1,0,0.1,0c1.3,0,2.4,1.1,2.4,2.5C258.5,360.1,257.4,361.2,256,361.2z M266.1,360.7
			c-1.3,0-2.4-1-2.5-2.3c-0.1-1.4,0.9-2.6,2.2-2.7c3.3-0.3,6.5-0.8,9.7-1.4c1.4-0.3,2.7,0.6,2.9,2c0.3,1.4-0.6,2.7-2,2.9
			c-3.4,0.7-6.8,1.2-10.2,1.5C266.2,360.7,266.2,360.7,266.1,360.7z M236,359.3c-0.2,0-0.3,0-0.5,0c-3.4-0.7-6.7-1.5-10-2.5
			c-1.3-0.4-2.1-1.8-1.7-3.1c0.4-1.3,1.8-2.1,3.1-1.7c3.1,0.9,6.3,1.7,9.5,2.4c1.4,0.3,2.2,1.6,2,2.9
			C238.2,358.4,237.2,359.3,236,359.3z M285.8,356.8c-1.1,0-2.1-0.7-2.4-1.8c-0.4-1.3,0.3-2.7,1.7-3.1c3.1-0.9,6.2-2.1,9.3-3.3
			c1.3-0.5,2.7,0.1,3.3,1.4c0.5,1.3-0.1,2.7-1.4,3.3c-3.2,1.3-6.4,2.5-9.7,3.5C286.3,356.8,286.1,356.8,285.8,356.8z M216.7,353.4
			c-0.3,0-0.6-0.1-1-0.2c-3.2-1.3-6.3-2.8-9.3-4.4c-1.2-0.7-1.7-2.2-1-3.4c0.7-1.2,2.2-1.7,3.4-1c2.9,1.5,5.9,3,8.9,4.2
			c1.3,0.5,1.9,2,1.4,3.3C218.6,352.8,217.7,353.4,216.7,353.4z M304.4,349.1c-0.9,0-1.8-0.5-2.2-1.3c-0.7-1.2-0.2-2.7,1-3.4
			c2.9-1.5,5.7-3.2,8.4-5.1c1.1-0.8,2.7-0.5,3.5,0.7c0.8,1.1,0.5,2.7-0.7,3.5c-2.9,1.9-5.8,3.7-8.9,5.3
			C305.2,349,304.8,349.1,304.4,349.1z M199,343.9c-0.5,0-1-0.1-1.4-0.4c-2.9-1.9-5.6-4-8.3-6.2c-1.1-0.9-1.2-2.5-0.3-3.5
			c0.9-1.1,2.5-1.2,3.5-0.3c2.5,2.1,5.2,4,7.9,5.9c1.1,0.8,1.5,2.3,0.7,3.5C200.6,343.5,199.8,343.9,199,343.9z M321.2,337.9
			c-0.7,0-1.4-0.3-1.9-0.9c-0.9-1.1-0.7-2.6,0.3-3.5c2.5-2.1,5-4.3,7.3-6.6c1-1,2.6-1,3.5,0c1,1,1,2.6,0,3.5c-2.4,2.4-5,4.8-7.6,6.9
			C322.3,337.7,321.7,337.9,321.2,337.9z M183.4,331.1c-0.6,0-1.3-0.2-1.8-0.7c-2.4-2.4-4.8-5-6.9-7.6c-0.9-1.1-0.7-2.6,0.3-3.5
			c1.1-0.9,2.6-0.7,3.5,0.3c2.1,2.5,4.3,5,6.6,7.3c1,1,1,2.6,0,3.5C184.7,330.9,184,331.1,183.4,331.1z M335.4,323.6
			c-0.6,0-1.1-0.2-1.6-0.6c-1.1-0.9-1.2-2.5-0.3-3.5c2.1-2.5,4-5.2,5.9-7.9c0.8-1.1,2.3-1.5,3.5-0.7c1.1,0.8,1.5,2.3,0.7,3.5
			c-1.9,2.9-4,5.6-6.2,8.3C336.8,323.3,336.1,323.6,335.4,323.6z M170.6,315.6c-0.8,0-1.6-0.4-2.1-1.1c-1.9-2.9-3.7-5.8-5.3-8.9
			c-0.7-1.2-0.2-2.7,1-3.4c1.2-0.7,2.7-0.2,3.4,1c1.5,2.9,3.2,5.7,5.1,8.4c0.8,1.1,0.5,2.7-0.7,3.5
			C171.6,315.4,171.1,315.6,170.6,315.6z M346.6,306.9c-0.4,0-0.8-0.1-1.2-0.3c-1.2-0.7-1.7-2.2-1-3.4c1.5-2.9,3-5.9,4.2-8.9
			c0.5-1.3,2-1.9,3.3-1.4c1.3,0.5,1.9,2,1.4,3.3c-1.3,3.2-2.8,6.3-4.4,9.3C348.4,306.4,347.5,306.9,346.6,306.9z M161.1,297.8
			c-1,0-1.9-0.6-2.3-1.5c-1.3-3.2-2.5-6.4-3.5-9.7c-0.4-1.3,0.3-2.7,1.7-3.1c1.3-0.4,2.7,0.3,3.1,1.7c0.9,3.1,2.1,6.2,3.3,9.3
			c0.5,1.3-0.1,2.7-1.4,3.3C161.7,297.8,161.4,297.8,161.1,297.8z M354.3,288.3c-0.2,0-0.5,0-0.7-0.1c-1.3-0.4-2.1-1.8-1.7-3.1
			c0.9-3.1,1.7-6.3,2.4-9.5c0.3-1.4,1.6-2.2,2.9-2c1.4,0.3,2.2,1.6,2,2.9c-0.7,3.4-1.5,6.7-2.5,10
			C356.4,287.6,355.4,288.3,354.3,288.3z M155.3,278.6c-1.2,0-2.2-0.8-2.4-2c-0.7-3.4-1.2-6.8-1.5-10.2c-0.1-1.4,0.9-2.6,2.2-2.7
			c1.4-0.1,2.6,0.9,2.7,2.2c0.3,3.3,0.8,6.5,1.4,9.7c0.3,1.4-0.6,2.7-2,2.9C155.6,278.6,155.4,278.6,155.3,278.6z M358.2,268.6
			c-0.1,0-0.2,0-0.2,0c-1.4-0.1-2.4-1.4-2.2-2.7c0.3-3.2,0.5-6.5,0.5-9.8c0-1.4,1.1-2.5,2.5-2.5s2.5,1.1,2.5,2.5v0
			c0,3.4-0.2,6.9-0.5,10.3C360.6,267.6,359.5,268.6,358.2,268.6z M153.3,258.5c-1.4,0-2.5-1.1-2.5-2.5v0c0-3.4,0.2-6.9,0.5-10.3
			c0.1-1.4,1.4-2.4,2.7-2.2c1.4,0.1,2.4,1.4,2.2,2.7c-0.3,3.2-0.5,6.5-0.5,9.8C155.8,257.4,154.7,258.5,153.3,258.5z M358.2,248.4
			c-1.3,0-2.4-1-2.5-2.3c-0.3-3.3-0.8-6.5-1.4-9.7c-0.3-1.4,0.6-2.7,2-2.9c1.4-0.3,2.7,0.6,2.9,2c0.7,3.4,1.2,6.8,1.5,10.2
			c0.1,1.4-0.9,2.6-2.2,2.7C358.4,248.4,358.3,248.4,358.2,248.4z M155.2,238.5c-0.2,0-0.3,0-0.5,0c-1.4-0.3-2.2-1.6-2-2.9
			c0.7-3.4,1.5-6.7,2.5-10c0.4-1.3,1.8-2.1,3.1-1.7c1.3,0.4,2.1,1.8,1.7,3.1c-0.9,3.1-1.7,6.3-2.4,9.5
			C157.5,237.7,156.4,238.5,155.2,238.5z M354.3,228.7c-1.1,0-2.1-0.7-2.4-1.8c-0.9-3.1-2.1-6.2-3.3-9.3c-0.5-1.3,0.1-2.7,1.4-3.3
			c1.3-0.5,2.7,0.1,3.3,1.4c1.3,3.2,2.5,6.4,3.5,9.7c0.4,1.3-0.3,2.7-1.7,3.1C354.8,228.6,354.5,228.7,354.3,228.7z M161.1,219.2
			c-0.3,0-0.6-0.1-1-0.2c-1.3-0.5-1.9-2-1.4-3.3c1.3-3.2,2.8-6.3,4.4-9.3c0.7-1.2,2.2-1.7,3.4-1c1.2,0.7,1.7,2.2,1,3.4
			c-1.5,2.9-3,5.9-4.2,8.9C163,218.6,162.1,219.2,161.1,219.2z M346.6,210.1c-0.9,0-1.8-0.5-2.2-1.3c-1.5-2.9-3.2-5.7-5.1-8.4
			c-0.8-1.1-0.5-2.7,0.7-3.5c1.1-0.8,2.7-0.5,3.5,0.7c1.9,2.9,3.7,5.8,5.3,8.9c0.7,1.2,0.2,2.7-1,3.4
			C347.4,210,347,210.1,346.6,210.1z M170.6,201.5c-0.5,0-1-0.1-1.4-0.4c-1.1-0.8-1.5-2.3-0.7-3.5c1.9-2.9,4-5.6,6.2-8.3
			c0.9-1.1,2.5-1.2,3.5-0.3c1.1,0.9,1.2,2.5,0.3,3.5c-2.1,2.5-4,5.2-5.9,7.9C172.2,201.1,171.4,201.5,170.6,201.5z M335.4,193.3
			c-0.7,0-1.4-0.3-1.9-0.9c-2.1-2.5-4.3-5-6.6-7.3c-1-1-1-2.6,0-3.5c1-1,2.6-1,3.5,0c2.4,2.4,4.8,5,6.9,7.6c0.9,1.1,0.7,2.6-0.3,3.5
			C336.5,193.2,335.9,193.3,335.4,193.3z M183.4,185.9c-0.6,0-1.3-0.2-1.8-0.7c-1-1-1-2.6,0-3.5c2.4-2.4,5-4.8,7.6-6.9
			c1.1-0.9,2.6-0.7,3.5,0.3c0.9,1.1,0.7,2.6-0.3,3.5c-2.5,2.1-5,4.3-7.3,6.6C184.6,185.7,184,185.9,183.4,185.9z M321.1,179.1
			c-0.6,0-1.1-0.2-1.6-0.6c-2.5-2.1-5.2-4.1-7.9-5.9c-1.1-0.8-1.5-2.3-0.7-3.5c0.8-1.1,2.3-1.5,3.5-0.7c2.8,1.9,5.6,4,8.3,6.2
			c1.1,0.9,1.2,2.5,0.3,3.5C322.6,178.8,321.9,179.1,321.1,179.1z M198.9,173.1c-0.8,0-1.6-0.4-2.1-1.1c-0.8-1.1-0.5-2.7,0.7-3.5
			c2.9-1.9,5.8-3.7,8.8-5.3c1.2-0.7,2.7-0.2,3.4,1c0.7,1.2,0.2,2.7-1,3.4c-2.9,1.5-5.7,3.2-8.4,5.1
			C199.9,173,199.4,173.1,198.9,173.1z M304.4,167.9c-0.4,0-0.8-0.1-1.2-0.3c-2.9-1.5-5.9-3-8.9-4.2c-1.3-0.5-1.9-2-1.4-3.3
			c0.5-1.3,2-1.9,3.3-1.4c3.2,1.3,6.3,2.8,9.3,4.4c1.2,0.7,1.7,2.2,1,3.4C306.2,167.4,305.3,167.9,304.4,167.9z M216.7,163.6
			c-1,0-1.9-0.6-2.3-1.5c-0.5-1.3,0.1-2.7,1.4-3.3c3.2-1.3,6.4-2.5,9.7-3.5c1.3-0.4,2.7,0.3,3.1,1.7c0.4,1.3-0.3,2.7-1.7,3.1
			c-3.1,0.9-6.2,2.1-9.3,3.3C217.3,163.5,217,163.6,216.7,163.6z M285.8,160.2c-0.2,0-0.5,0-0.7-0.1c-3.1-0.9-6.3-1.7-9.5-2.4
			c-1.4-0.3-2.2-1.6-2-2.9s1.6-2.2,2.9-2c3.4,0.7,6.7,1.5,10,2.5c1.3,0.4,2.1,1.8,1.7,3.1C287.9,159.5,286.9,160.2,285.8,160.2z
			 M235.9,157.8c-1.2,0-2.2-0.8-2.4-2c-0.3-1.4,0.6-2.7,2-2.9c3.4-0.7,6.8-1.2,10.2-1.5c1.4-0.1,2.6,0.9,2.7,2.2
			c0.1,1.4-0.9,2.6-2.2,2.7c-3.3,0.3-6.5,0.8-9.7,1.4C236.2,157.7,236.1,157.8,235.9,157.8z M266.1,156.3c-0.1,0-0.2,0-0.2,0
			c-3.2-0.3-6.5-0.5-9.8-0.5c-1.4,0-2.5-1.1-2.5-2.5s1.1-2.5,2.5-2.5h0c3.4,0,6.9,0.2,10.3,0.5c1.4,0.1,2.4,1.4,2.2,2.7
			C268.4,155.3,267.3,156.3,266.1,156.3z"/>
	</g>
</g>
<g>
	<path class="st9" d="M273,423c0.3,2.2-1.2,4-3.4,4h-27.2c-2.2,0-3.7-1.8-3.4-4l7.7-51.1c0.3-2.2,2.4-4,4.6-4h9.8
		c2.2,0,4.3,1.8,4.6,4L273,423z"/>
	<g>
		<path class="st9" d="M265.4,361.3c0,2.2-1.8,4-4,4h-10.8c-2.2,0-4-1.8-4-4v-10.8c0-2.2,1.8-4,4-4h10.8c2.2,0,4,1.8,4,4V361.3z"/>
		<path class="st10" d="M263,359.9c0,1.6-1.3,3-3,3h-8c-1.6,0-3-1.3-3-3v-8.1c0-1.6,1.3-3,3-3h8.1c1.6,0,3,1.3,3,3v8.1H263z"/>
	</g>
	<path class="st10" d="M269.5,415.4c0.3,1.7-1,3.1-2.7,3.1h-21.6c-1.8,0-3-1.4-2.7-3.1l6.1-40.6c0.3-1.7,1.9-3.1,3.7-3.1h7.8
		c1.8,0,3.4,1.4,3.6,3.1L269.5,415.4z"/>
</g>
<g>
	<path class="st10" d="M217.2,267.9h-21l-4,12h-12.7l21.6-58.1h11.1l21.7,58.1h-12.7L217.2,267.9z M199.5,258.2H214l-7.3-21.7
		L199.5,258.2z"/>
	<path class="st10" d="M284.1,260.5c-0.5,6.2-2.8,11.2-6.9,14.8c-4.2,3.6-9.6,5.4-16.5,5.4c-7.4,0-13.3-2.5-17.6-7.5
		s-6.4-11.9-6.4-20.6V249c0-5.6,1-10.5,3-14.8s4.8-7.5,8.4-9.8c3.7-2.3,7.9-3.4,12.7-3.4c6.7,0,12.1,1.8,16.2,5.4
		c4.1,3.6,6.5,8.6,7.1,15.1h-12c-0.3-3.7-1.3-6.5-3.1-8.2c-1.8-1.7-4.5-2.5-8.2-2.5c-4,0-7,1.4-9,4.3c-2,2.9-3,7.3-3.1,13.3v4.4
		c0,6.3,1,10.9,2.9,13.8s4.9,4.3,9,4.3c3.7,0,6.5-0.8,8.3-2.5s2.9-4.3,3.1-7.8h12.1V260.5z"/>
	<path class="st10" d="M326.9,254.6h-23v15.6h27v9.6H292v-58.1h38.8v9.7H304v13.8h23v9.4H326.9z"/>
</g>
</svg>
