<?xml version="1.0" encoding="utf-8"?>
<!-- Generator: Adobe Illustrator 18.0.0, SVG Export Plug-In . SVG Version: 6.00 Build 0)  -->
<!DOCTYPE svg PUBLIC "-//W3C//DTD SVG 1.1//EN" "http://www.w3.org/Graphics/SVG/1.1/DTD/svg11.dtd">
<svg version="1.1" id="Layer_1" xmlns="http://www.w3.org/2000/svg" xmlns:xlink="http://www.w3.org/1999/xlink" x="0px" y="0px"
	 viewBox="0 0 512 512" enable-background="new 0 0 512 512" xml:space="preserve">
<g>
	<path fill="#03A9F4" d="M416,8H219h-4.1c-3.7,0-7.3,0.8-10.6,2.3c-2.8,1.3-5.4,2.9-7.6,5.1L83.5,128.6c-2.2,2.2-4,4.7-5.1,7.6
		c-1.5,3.3-2.3,6.9-2.3,10.6l-0.1,5.7V484c0,11,9,20,20,20h320c11,0,20-9,20-20V28C436,17,427,8,416,8z"/>
	<g>
		<linearGradient id="SVGID_1_" gradientUnits="userSpaceOnUse" x1="91.025" y1="271.025" x2="305.025" y2="57.025">
			<stop  offset="0" style="stop-color:#FFFFFF;stop-opacity:0.2"/>
			<stop  offset="1" style="stop-color:#231F20;stop-opacity:0"/>
		</linearGradient>
		<path fill="url(#SVGID_1_)" d="M256,256V8h-37h-4.1c-3.7,0-7.3,0.8-10.6,2.3c-2.8,1.3-5.4,2.9-7.6,5.1L83.5,128.6
			c-2.2,2.2-4,4.7-5.1,7.6c-1.5,3.3-2.3,6.9-2.3,10.6l-0.1,5.7V256H256z"/>
		<linearGradient id="SVGID_2_" gradientUnits="userSpaceOnUse" x1="239" y1="239" x2="447.125" y2="30.875">
			<stop  offset="0" style="stop-color:#FFFFFF;stop-opacity:0.2"/>
			<stop  offset="1" style="stop-color:#231F20;stop-opacity:0"/>
		</linearGradient>
		<path fill="url(#SVGID_2_)" d="M416,8H256v248h180V28C436,17,427,8,416,8z"/>
		<linearGradient id="SVGID_3_" gradientUnits="userSpaceOnUse" x1="64.875" y1="481.125" x2="273" y2="273">
			<stop  offset="0" style="stop-color:#FFFFFF;stop-opacity:0.2"/>
			<stop  offset="1" style="stop-color:#231F20;stop-opacity:0"/>
		</linearGradient>
		<path fill="url(#SVGID_3_)" d="M76,484c0,11,9,20,20,20h160V256H76V484z"/>
		<linearGradient id="SVGID_4_" gradientUnits="userSpaceOnUse" x1="236.0625" y1="484.0625" x2="450.0625" y2="270.0625">
			<stop  offset="0" style="stop-color:#FFFFFF;stop-opacity:0.2"/>
			<stop  offset="1" style="stop-color:#231F20;stop-opacity:0"/>
		</linearGradient>
		<path fill="url(#SVGID_4_)" d="M256,256v248h160c11,0,20-9,20-20V256H256z"/>
	</g>
	<g>
		<linearGradient id="SVGID_5_" gradientUnits="userSpaceOnUse" x1="76" y1="271.025" x2="256" y2="271.025">
			<stop  offset="0" style="stop-color:#FFFFFF;stop-opacity:0.2"/>
			<stop  offset="1" style="stop-color:#231F20;stop-opacity:0"/>
		</linearGradient>
		<path fill="url(#SVGID_5_)" d="M256,256L106,106l-22.5,22.5c-2.2,2.2-4,4.7-5.1,7.6c-1.5,3.3-2.3,6.9-2.3,10.6l-0.1,5.7V436
			L256,256z"/>
		<linearGradient id="SVGID_6_" gradientUnits="userSpaceOnUse" x1="106.05" y1="132" x2="436" y2="132">
			<stop  offset="0" style="stop-color:#FFFFFF;stop-opacity:0.2"/>
			<stop  offset="1" style="stop-color:#231F20;stop-opacity:0"/>
		</linearGradient>
		<path fill="url(#SVGID_6_)" d="M256,256L436,76V28c0-11-9-20-20-20H219h-4.1c-3.7,0-7.3,0.8-10.6,2.3c-2.8,1.3-5.4,2.9-7.6,5.1
			L106,106L256,256z"/>
		<linearGradient id="SVGID_7_" gradientUnits="userSpaceOnUse" x1="76" y1="380" x2="436" y2="380">
			<stop  offset="0" style="stop-color:#FFFFFF;stop-opacity:0.2"/>
			<stop  offset="1" style="stop-color:#231F20;stop-opacity:0"/>
		</linearGradient>
		<path fill="url(#SVGID_7_)" d="M436,484v-48L256,256L76,436v48c0,11,9,20,20,20h320C427,504,436,495,436,484z"/>
		<linearGradient id="SVGID_8_" gradientUnits="userSpaceOnUse" x1="256" y1="256" x2="436" y2="256">
			<stop  offset="0" style="stop-color:#FFFFFF;stop-opacity:0.2"/>
			<stop  offset="1" style="stop-color:#231F20;stop-opacity:0"/>
		</linearGradient>
		<polygon fill="url(#SVGID_8_)" points="436,436 436,76 256,256 		"/>
	</g>
	
		<linearGradient id="SVGID_9_" gradientUnits="userSpaceOnUse" x1="95.8" y1="-70.4" x2="462.7" y2="-437.3" gradientTransform="matrix(0.5 0 0 0.5 0 256)">
		<stop  offset="0" style="stop-color:#0288D1"/>
		<stop  offset="1" style="stop-color:#0288D1;stop-opacity:0"/>
	</linearGradient>
	<path opacity="0.7" fill="url(#SVGID_9_)" enable-background="new    " d="M196.7,15.6L83.5,128.8c-2.2,2.2-4,4.7-5.1,7.6
		c-1.5,3.3-2.3,6.9-2.3,10.6v102l120.6-120.6c4.9-4.9,7.6-11.3,7.6-18.1v-100C201.5,11.6,198.9,13.4,196.7,15.6z"/>
	<path fill="#0288D1" d="M214.9,8c-3.7,0-7.3,0.8-10.6,2.3c-2.8,1.3-5.4,2.9-7.6,5.1L83.5,128.6c-2.2,2.2-4,4.7-5.1,7.6
		c-1.5,3.3-2.3,6.9-2.3,10.6v4.1c0-8.2,6.5-14.7,14.7-14.7h87.8c14.1,0,25.6-11.5,25.6-25.6V22.7c0-8.2,6.5-14.7,14.7-14.7H214.9z"
		/>
</g>
<g display="none">
	<rect x="231.5" y="107.4" display="inline" fill="#FFFFFF" width="24.5" height="24.5"/>
	<rect x="231.5" y="156.4" display="inline" fill="#FFFFFF" width="24.5" height="24.5"/>
	<rect x="231.5" y="205.4" display="inline" fill="#FFFFFF" width="24.5" height="24.5"/>
	<rect x="231.5" y="254.4" display="inline" fill="#FFFFFF" width="24.5" height="24.5"/>
	<g display="inline">
		<rect x="256" y="131.9" fill="#FFFFFF" width="24.5" height="24.5"/>
		<rect x="256" y="180.9" fill="#FFFFFF" width="24.5" height="24.5"/>
		<rect x="256" y="229.9" fill="#FFFFFF" width="24.5" height="24.5"/>
		<rect x="256" y="278.9" fill="#FFFFFF" width="24.5" height="24.5"/>
	</g>
	<rect x="231.5" y="303.4" display="inline" fill="#FFFFFF" width="24.5" height="24.5"/>
	<rect x="256" y="327.6" display="inline" fill="#FFFFFF" width="24.5" height="24.5"/>
	<rect x="231.5" y="352.1" display="inline" fill="#FFFFFF" width="24.5" height="24.5"/>
</g>
<rect x="226" y="8" display="none" fill="#FFFFFF" width="60" height="496"/>
<linearGradient id="SVGID_10_" gradientUnits="userSpaceOnUse" x1="256" y1="504" x2="256" y2="8">
	<stop  offset="0" style="stop-color:#FFFFFF;stop-opacity:0.2"/>
	<stop  offset="0.5" style="stop-color:#FFFFFF"/>
	<stop  offset="1" style="stop-color:#FFFFFF;stop-opacity:0.2"/>
</linearGradient>
<path fill="url(#SVGID_10_)" d="M226,8v496h60V8H226z M280.5,170.4H256v24.5h24.5v24.5H256v24.5h24.5v24.5H256v24.5h24.5v24.5H256
	v24.2h24.5v24.5H256v24.5h-24.5v-24.5H256v-24.2h-24.5v-24.5H256v-24.5h-24.5v-24.5H256v-24.5h-24.5v-24.5H256v-24.5h-24.5v-24.5
	H256v-24.5h-24.5v-24.5H256v24.5h24.5V170.4z"/>
<g id="g108" display="none">
	<g id="g146" transform="translate(270.7294,111.5949)" display="inline">
		<path id="path148" fill="#DBDBDB" d="M4,376.9c0.4,2.4-1.4,4.4-3.8,4.4h-29.8c-2.4,0-4.1-2-3.8-4.4l8.4-56.1
			c0.4-2.4,2.6-4.4,5.1-4.4h10.8c2.4,0,4.7,1.9,5,4.4L4,376.9z"/>
	</g>
	<g id="g150" transform="translate(264.1354,165.0223)" display="inline">
		<path id="path152" fill="#DBDBDB" d="M2.2,255.7c0,2.4-2,4.4-4.4,4.4H-14c-2.4,0-4.4-2-4.4-4.4v-11.9c0-2.4,2-4.4,4.4-4.4h11.9
			c2.4,0,4.4,2,4.4,4.4v11.9H2.2z"/>
	</g>
	<g id="g154" transform="translate(262.0619,166.2135)" display="inline">
		<path id="path156" fill="#F9F9F9" d="M1.7,253c0,1.8-1.4,3.2-3.2,3.2h-8.9c-1.8,0-3.2-1.4-3.2-3.2v-8.9c0-1.8,1.4-3.2,3.2-3.2h8.9
			c1.8,0,3.2,1.4,3.2,3.2V253z"/>
	</g>
	<g id="g158" transform="translate(267.7075,118.2056)" display="inline">
		<path id="path160" fill="#F9F9F9" d="M3.2,361.9c0.3,1.9-1.1,3.5-3,3.5h-23.8c-1.9,0-3.2-1.5-2.9-3.5l6.6-44.6
			c0.3-1.9,2.1-3.4,4-3.4h8.6c1.9,0,3.7,1.6,4,3.4L3.2,361.9z"/>
	</g>
</g>
</svg>
