<?xml version="1.0" encoding="utf-8"?>
<!-- Generator: Adobe Illustrator 18.0.0, SVG Export Plug-In . SVG Version: 6.00 Build 0)  -->
<!DOCTYPE svg PUBLIC "-//W3C//DTD SVG 1.1//EN" "http://www.w3.org/Graphics/SVG/1.1/DTD/svg11.dtd">
<svg version="1.1" id="Layer_1" xmlns="http://www.w3.org/2000/svg" xmlns:xlink="http://www.w3.org/1999/xlink" x="0px" y="0px"
	 viewBox="0 0 512 512" enable-background="new 0 0 512 512" xml:space="preserve">
<g>
	<g>
		<path fill="#FF9D00" d="M415.9,8.1H219h-4.1c-3.7,0-7.3,0.8-10.6,2.3c-2.8,1.3-5.4,2.9-7.6,5.1L83.4,128.6c-2.2,2.2-4,4.7-5.1,7.6
			c-1.5,3.3-2.3,6.9-2.3,10.6l-0.1,5.7V484c0,11,9,20,20,20h320c11,0,20-9,20-20v-456C436,17,427,8.1,415.9,8.1z"/>
		
			<linearGradient id="SVGID_1_" gradientUnits="userSpaceOnUse" x1="80.0528" y1="-572.9625" x2="387.0862" y2="-879.9958" gradientTransform="matrix(0.5977 0 0 0.5977 0 563.3214)">
			<stop  offset="0" style="stop-color:#000000"/>
			<stop  offset="1" style="stop-color:#000000;stop-opacity:0"/>
		</linearGradient>
		<path opacity="0.7" fill="url(#SVGID_1_)" enable-background="new    " d="M196.6,15.6L83.4,128.9c-2.2,2.2-4,4.7-5.1,7.6
			c-1.5,3.3-2.3,6.9-2.3,10.6v102l120.6-120.6c4.9-4.9,7.6-11.3,7.6-18.1V10.3C201.5,11.7,198.8,13.4,196.6,15.6z"/>
		<path d="M214.9,8.1c-3.7,0-7.3,0.8-10.6,2.3c-2.8,1.3-5.4,2.9-7.6,5.1L83.4,128.6c-2.2,2.2-4,4.7-5.1,7.6
			c-1.5,3.3-2.3,6.9-2.3,10.6v4.1c0-8.2,6.5-14.7,14.7-14.7h87.8c14.1,0,25.6-11.5,25.6-25.6V22.7c0-8.2,6.5-14.7,14.7-14.7
			C218.9,8.1,214.9,8.1,214.9,8.1z"/>
	</g>
	<g>
		<path d="M342.9,293.9v-14.2l-13.5-4.8c-1.1-4.4-2.9-8.5-5.1-12.3l6.1-12.9l-10.1-10.1l-12.9,6.1c-3.8-2.2-7.9-4-12.3-5.1
			l-4.8-13.4H276l-4.8,13.4c-4.4,1.1-8.5,2.9-12.3,5.1l-12.9-6.1l-10,10l6.1,12.9c-2.2,3.8-4,7.9-5.1,12.3l-13.4,4.8v14.3l13.4,4.8
			c1.1,4.4,2.9,8.5,5.1,12.3l-6.1,12.9l10.1,10.1l12.9-6.1c3.8,2.2,7.9,4,12.3,5.1l4.8,13.5h14.3l4.8-13.5c4.4-1.1,8.5-2.9,12.3-5.1
			l12.9,6.1l10.1-10.1l-6.1-12.9c2.2-3.8,4-7.9,5.1-12.3L342.9,293.9z M283.2,310.5c-13.2,0-23.9-10.7-23.9-23.9
			c0-13.2,10.7-23.9,23.9-23.9s23.9,10.7,23.9,23.9C307.1,299.9,296.5,310.5,283.2,310.5z"/>
		<path d="M208.5,216.7l-5.4,7.7l5.4,7.9l9.2-2.4c2.2,1.9,4.8,3.6,7.4,4.9l1.5,9.4l9.4,1.8l4.8-8.2c3-0.2,5.9-0.9,8.6-1.9l7.7,5.6
			l7.9-5.4l-2.5-9.2c2-2.2,3.6-4.8,4.9-7.4l9.3-1.5l1.8-9.4l-8.2-4.8c-0.2-3-0.9-5.9-1.9-8.6l5.5-7.7l-5.4-7.9l-9.2,2.4
			c-2.2-1.9-4.8-3.6-7.4-4.9l-1.5-9.4l-9.4-1.8l-4.8,8.2c-3,0.2-5.9,0.9-8.6,1.9l-7.7-5.6l-7.8,5.4l2.4,9.2
			c-1.9,2.2-3.6,4.8-4.9,7.4l-9.4,1.5l-1.8,9.4l8.2,4.8C206.8,211,207.4,214,208.5,216.7z M222.8,202.9c1.6-8.6,9.9-14.4,18.5-12.8
			c8.6,1.6,14.4,9.9,12.8,18.5c-1.6,8.6-9.9,14.4-18.5,12.8C226.9,219.9,221.3,211.6,222.8,202.9z"/>
		<path d="M221.6,277.5l6.6-2.4v-7.1l-6.6-2.4c-0.6-2.2-1.4-4.2-2.6-6l3.1-6.4l-5-5l-6.4,3.1c-1.9-1.1-3.9-2-6.1-2.6l-2.4-6.6h-7.1
			l-2.4,6.6c-2.2,0.6-4.2,1.4-6.1,2.6l-6.4-3.1l-5,5l3.1,6.4c-1.1,1.9-2,4-2.6,6l-6.6,2.4v7.1l6.6,2.4c0.6,2.2,1.4,4.2,2.6,6
			l-3.1,6.4l5,5l6.4-3c1.9,1.1,3.9,2,6.1,2.5l2.4,6.6h7.1l2.4-6.6c2.2-0.5,4.2-1.5,6.1-2.5l6.4,3l5-5l-3.1-6.4
			C220.1,281.6,221.1,279.6,221.6,277.5z M198.6,283.2c-6.5,0-11.9-5.2-11.9-11.9c0-6.5,5.2-11.9,11.9-11.9
			c6.5,0,11.9,5.2,11.9,11.9C210.4,278,205.2,283.2,198.6,283.2z"/>
	</g>
</g>
</svg>
