<?xml version="1.0" encoding="UTF-8" standalone="no"?>
<!-- Generator: Adobe Illustrator 18.0.0, SVG Export Plug-In . SVG Version: 6.00 Build 0)  -->

<svg
   xmlns:dc="http://purl.org/dc/elements/1.1/"
   xmlns:cc="http://creativecommons.org/ns#"
   xmlns:rdf="http://www.w3.org/1999/02/22-rdf-syntax-ns#"
   xmlns:svg="http://www.w3.org/2000/svg"
   xmlns="http://www.w3.org/2000/svg"
   xmlns:sodipodi="http://sodipodi.sourceforge.net/DTD/sodipodi-0.dtd"
   xmlns:inkscape="http://www.inkscape.org/namespaces/inkscape"
   version="1.1"
   id="Layer_1"
   x="0px"
   y="0px"
   viewBox="0 0 512 512"
   style="enable-background:new 0 0 512 512;"
   xml:space="preserve"
   sodipodi:docname="application-software.svg"
   inkscape:version="0.92.3 (2405546, 2018-03-11)"><metadata
   id="metadata22"><rdf:RDF><cc:Work
       rdf:about=""><dc:format>image/svg+xml</dc:format><dc:type
         rdf:resource="http://purl.org/dc/dcmitype/StillImage" /><dc:title></dc:title></cc:Work></rdf:RDF></metadata><defs
   id="defs20" /><sodipodi:namedview
   pagecolor="#ffffff"
   bordercolor="#666666"
   borderopacity="1"
   objecttolerance="10"
   gridtolerance="10"
   guidetolerance="10"
   inkscape:pageopacity="0"
   inkscape:pageshadow="2"
   inkscape:window-width="1138"
   inkscape:window-height="913"
   id="namedview18"
   showgrid="false"
   inkscape:zoom="0.4609375"
   inkscape:cx="259.25424"
   inkscape:cy="256"
   inkscape:window-x="0"
   inkscape:window-y="0"
   inkscape:window-maximized="0"
   inkscape:current-layer="layer1" />
<path
   style="opacity:0.7;"
   d="M446,486H66c-22.1,0-40-17.9-40-40V66c0-22.1,17.9-40,40-40h380c22.1,0,40,17.9,40,40v380  C486,468.1,468.1,486,446,486z"
   id="path2" />
<linearGradient
   id="SVGID_1_"
   gradientUnits="userSpaceOnUse"
   x1="256"
   y1="26"
   x2="256"
   y2="486"
   gradientTransform="matrix(1 0 0 -1 0 512)">
	<stop
   offset="0"
   style="stop-color:#FFFFFF;stop-opacity:0.5"
   id="stop4" />
	<stop
   offset="1"
   style="stop-color:#FFFFFF"
   id="stop6" />
</linearGradient>
<path
   style="fill:url(#SVGID_1_);"
   d="M446,26H66c-22.1,0-40,17.9-40,40v10.1V446c0,22.1,17.9,40,40,40h380c22.1,0,40-17.9,40-40  V76.1V66C486,43.9,468.1,26,446,26z M446,476H66c-16.5,0-30-13.5-30-30V118.9C36,95.2,55.2,76,78.9,76h354.5  c22.3,0,40.6,17,42.7,38.7V446C476,462.5,462.5,476,446,476z"
   id="path9" />

<g
   inkscape:groupmode="layer"
   id="layer1"
   inkscape:label="Layer 1"
   style="display:inline"><g
     transform="matrix(1.1805837,0,0,1.1805837,-46.111369,-38.343612)"
     id="g101"><path
       style="fill:#ffffff"
       inkscape:connector-curvature="0"
       d="m 274.9,243.7 c -0.5,-0.4 -1,-0.3 -1.6,-0.3 -10.5,0 -20.9,0.1 -31.3,0.1 -0.6,0 -1.1,-0.1 -1.6,0.3 -0.4,0.7 -0.8,1.4 -1.2,2.1 -3.2,5.3 -6.4,10.6 -9.7,15.9 -2.6,4.1 -5.1,8.1 -7.5,12.4 -0.4,0.8 -0.5,1.2 0.6,1.1 0.2,0 0.5,0 0.8,0 22.6,0 45.3,0 67.9,-0.1 0.8,0 1.5,0 2.5,0 -1.8,-3 -3.5,-5.9 -5.2,-8.7 -4.7,-7.6 -9.2,-15.3 -13.7,-22.8 z"
       id="path75" /><path
       style="fill:#ffffff"
       inkscape:connector-curvature="0"
       d="m 241.8,232.9 c 0.4,-0.6 0.1,-0.9 -0.4,-1.3 -5.2,-3.4 -10.5,-6.8 -15.8,-10.2 -0.8,-0.5 -1.1,-0.4 -1.5,0.4 -1.1,2.1 -2.4,4.1 -3.6,6.2 -3.6,6.1 -7.2,12.1 -10.9,18.2 -0.5,0.9 -1,1.9 -1.6,2.8 -6.4,10.7 -12.7,21.5 -19,32.2 -0.9,1.5 -1.7,2.9 -2.6,4.4 -0.1,0.3 -0.6,0.5 0.1,1 5.1,3.5 10.3,6.9 15.4,10.5 0.9,0.6 1.1,0 1.4,-0.5 8.6,-14.2 17.2,-28.5 25.9,-42.8 4.1,-7.1 8.3,-14 12.6,-20.9 z"
       id="path77" /><path
       style="fill:#ffffff"
       inkscape:connector-curvature="0"
       d="m 249.7,183.5 c 4.6,10.7 9.4,21.3 14.5,31.8 0,0.1 0.1,0.2 0.2,0.3 0,0.1 0.1,0.2 0.1,0.3 0,0.1 0.1,0.2 0.2,0.3 0,0.1 0.1,0.2 0.1,0.3 0,0.1 0.1,0.2 0.2,0.3 0.1,0.1 0.1,0.2 0.1,0.3 0,0.1 0.1,0.2 0.2,0.3 0,0.1 0.1,0.2 0.1,0.3 1.1,2.2 2.2,4.5 3.5,6.8 v 0 c 0.1,0.1 0.2,0.2 0.2,0.3 0,0.2 0,0.4 0.1,0.6 0.1,0.1 0.2,0.3 0.3,0.4 0,0.1 0,0.1 0,0.2 0.1,0.1 0.2,0.3 0.3,0.4 0,0.1 0,0.1 0,0.2 0.1,0.1 0.2,0.3 0.3,0.4 0,0.1 0,0.1 0,0.2 1,1 1.5,2.3 2.1,3.6 5.5,10.4 11.2,20.6 17.7,30.4 1.1,1.8 1.1,1.8 3,0.8 3.2,-1.9 6.4,-3.8 9.6,-5.5 1,-0.6 1,-1.1 0.5,-2 -2,-3.8 -3.9,-7.6 -5.9,-11.3 -2.2,-4.2 -4.5,-8.6 -6.8,-12.8 -8.4,-15.6 -16.8,-31.1 -26.1,-46.1 -3.1,-4.9 -6.4,-9.9 -10.4,-14.1 -1.5,-1.6 -3.1,-3.1 -5.2,-3.9 -1.9,-0.8 -3,0 -2.9,2 0,0.5 0.1,1 0.1,1.6 0.3,4.6 2.1,9.2 3.9,13.6 z"
       id="path79" /><path
       style="fill:#ffffff"
       inkscape:connector-curvature="0"
       d="m 338.2,243.7 c -0.2,-0.1 -0.5,-0.1 -0.8,-0.1 -11.3,0 -22.6,0.1 -33.9,0.1 -0.4,0 -1,-0.1 -1.2,0.3 0.4,0.9 0.8,1.6 1.1,2.5 4.5,9.2 9,18.3 13.5,27.6 0.4,0.9 0.9,1 1.7,1 6,0 12,-0.1 18,0 1.5,0 1.6,-0.5 1.6,-1.7 0,-9.9 0,-19.8 0,-29.7 z"
       id="path81" /><path
       style="fill:#ffffff"
       inkscape:connector-curvature="0"
       d="m 185.4,275.4 c 1.1,0 1.8,-0.4 2.3,-1.3 2.6,-4.4 5.2,-8.7 7.8,-13.1 3.4,-5.6 6.8,-11.3 10.2,-17 -0.4,-0.5 -0.9,-0.3 -1.4,-0.3 -2.9,-0.1 -5.8,0 -8.6,-0.1 -6.8,-0.1 -13.6,-0.1 -20.4,-0.2 -0.6,0 -1.3,-0.3 -1.6,0.5 0,0.7 0.1,1.4 0.1,2.1 0.1,9.2 0.1,18.3 0.1,27.5 0,1.3 0.2,1.8 1.6,1.7 3.3,0 6.6,0.1 9.9,0.2 z"
       id="path83" /><path
       style="fill:#ffffff"
       inkscape:connector-curvature="0"
       d="m 330.8,302.2 c -4,-6.9 -8.5,-13.5 -13.5,-19.7 -0.8,-1 -1.4,-1 -2.4,-0.4 -2.8,1.7 -5.5,3.3 -8.4,4.9 -0.4,0.2 -0.5,0.3 -0.4,0.9 1.9,5.6 3.7,11.3 6,16.8 2.1,5.1 4.4,10.1 7.6,14.7 1.5,2.1 3.5,3.4 5.5,3.3 4.7,0 8.6,-2.4 10.4,-6.1 1,-2.1 1,-4.2 -0.2,-6.3 -1.5,-2.7 -3,-5.4 -4.6,-8.1 z"
       id="path85" /><path
       style="fill:#ffffff"
       inkscape:connector-curvature="0"
       d="m 314.2,276.9 c -3,-5.9 -6,-11.8 -8.9,-17.7 -0.1,-0.3 -0.2,-0.7 -0.8,-0.6 -0.1,0.1 -0.3,0.1 -0.4,0.2 -3.6,2.1 -7.2,4.2 -10.9,6.3 -0.9,0.5 -0.6,1 -0.2,1.6 3.4,5.5 6.8,11.2 10.1,16.8 0.4,0.7 0.7,0.8 1.4,0.4 3,-1.9 6.1,-3.8 9.1,-5.6 0.7,-0.5 1,-0.8 0.6,-1.4 z"
       id="path87" /><path
       style="fill:#ffffff"
       inkscape:connector-curvature="0"
       d="m 177.4,320.1 c 0.1,0 0.2,0.1 0.3,0.1 7.6,-6.2 15.1,-12.5 22.8,-18.9 -5.5,-3.8 -10.8,-7.5 -16.4,-11.3 -2.3,10.2 -4.5,20.2 -6.7,30.1 z"
       id="path89" /><path
       style="fill:#ffffff"
       inkscape:connector-curvature="0"
       d="m 226.9,219 c 0.5,0.2 0.9,0.6 1.4,0.9 4.6,3.1 9.2,6.1 13.9,9.2 0.4,0.3 0.9,0.9 1.4,0 2.9,-4.9 6,-9.9 9,-14.9 0.1,-0.2 0.2,-0.3 0.4,-0.4 -0.1,-0.3 -0.3,-0.4 -0.4,-0.6 -5.2,-3.4 -10.4,-6.9 -15.7,-10.4 -0.5,-0.3 -0.9,-0.4 -1.2,0.2 -3,4.9 -6.1,9.9 -9.1,14.8 -0.5,0.6 -0.5,1 0.3,1.2 z"
       id="path91" /><path
       style="fill:#ffffff"
       inkscape:connector-curvature="0"
       d="m 237.9,200.9 c 4.4,2.9 8.9,5.8 13.2,8.6 2.9,1.9 2.9,1.9 4,-1.4 0.7,-2.1 1.4,-4.2 0.2,-6.2 -2.3,-4.1 -5.9,-6.4 -10.3,-6.9 -3.6,0.1 -5.8,1.9 -7.4,4.6 -0.4,0.7 -0.3,0.8 0.3,1.3 z"
       id="path93" /><g
       id="g99"><path
         style="opacity:0.8;fill:#ffffff"
         inkscape:connector-curvature="0"
         enable-background="new    "
         d="M 269.5,331.8 H 182 c -3.4,0 -6.2,2.8 -6.2,6.2 0,3.5 2.8,6.2 6.2,6.2 h 87.5 c 3.5,0 6.2,-2.8 6.2,-6.2 -0.1,-3.5 -2.8,-6.2 -6.2,-6.2 z"
         id="path95" /><path
         style="fill:#ffffff"
         inkscape:connector-curvature="0"
         d="m 330,331.8 c 3.5,0 6.2,2.8 6.2,6.2 0,3.5 -2.8,6.2 -6.2,6.2 -0.1,0 -0.2,0 -0.2,0 v 0 H 181.9 c -3.4,0 -6.2,-2.8 -6.2,-6.2 0,-3.5 2.8,-6.2 6.2,-6.2 h 147.8 v 0 c 0.1,0 0.2,0 0.3,0 m 0,-2.2 h -0.1 -0.1 -147.9 c -4.6,0 -8.3,3.7 -8.3,8.3 0,4.6 3.7,8.3 8.3,8.3 h 147.8 0.1 0.1 c 4.6,0 8.3,-3.7 8.3,-8.3 0,-4.6 -3.6,-8.3 -8.2,-8.3 z"
         id="path97" /></g></g></g></svg>