<?xml version="1.0" encoding="UTF-8" standalone="no"?>
<svg
   xmlns:dc="http://purl.org/dc/elements/1.1/"
   xmlns:cc="http://creativecommons.org/ns#"
   xmlns:rdf="http://www.w3.org/1999/02/22-rdf-syntax-ns#"
   xmlns:svg="http://www.w3.org/2000/svg"
   xmlns="http://www.w3.org/2000/svg"
   xml:space="preserve"
   enable-background="new 0 0 512 512"
   viewBox="0 0 512 512"
   y="0px"
   x="0px"
   id="Layer_1"
   version="1.1"><metadata
     id="metadata85"><rdf:RDF><cc:Work
         rdf:about=""><dc:format>image/svg+xml</dc:format><dc:type
           rdf:resource="http://purl.org/dc/dcmitype/StillImage" /><dc:title></dc:title></cc:Work></rdf:RDF></metadata><defs
     id="defs83" /><g
     id="g3"><path
       id="path5"
       d="M416,8H219h-4.1c-3.7,0-7.3,0.8-10.6,2.3c-2.8,1.3-5.4,2.9-7.6,5.1L83.5,128.6c-2.2,2.2-4,4.7-5.1,7.6   c-1.5,3.3-2.3,6.9-2.3,10.6l-0.1,5.7V484c0,11,9,20,20,20h320c11,0,20-9,20-20V28C436,17,427,8,416,8z"
       fill="#ed2624" /><g
       id="g7"><linearGradient
         y2="57.025"
         x2="305.025"
         y1="271.025"
         x1="91.025"
         gradientUnits="userSpaceOnUse"
         id="SVGID_1_"><stop
           id="stop10"
           style="stop-color:#FFFFFF;stop-opacity:0.2"
           offset="0" /><stop
           id="stop12"
           style="stop-color:#FFFFFF;stop-opacity:0"
           offset="1" /></linearGradient><path
         id="path14"
         d="M256,256V8h-37h-4.1c-3.7,0-7.3,0.8-10.6,2.3c-2.8,1.3-5.4,2.9-7.6,5.1L83.5,128.6    c-2.2,2.2-4,4.7-5.1,7.6c-1.5,3.3-2.3,6.9-2.3,10.6l-0.1,5.7V256H256z"
         fill="url(#SVGID_1_)" /><linearGradient
         y2="30.875"
         x2="447.125"
         y1="239"
         x1="239"
         gradientUnits="userSpaceOnUse"
         id="SVGID_2_"><stop
           id="stop17"
           style="stop-color:#FFFFFF;stop-opacity:0.2"
           offset="0" /><stop
           id="stop19"
           style="stop-color:#FFFFFF;stop-opacity:0"
           offset="1" /></linearGradient><path
         id="path21"
         d="M416,8H256v248h180V28C436,17,427,8,416,8z"
         fill="url(#SVGID_2_)" /><linearGradient
         y2="273"
         x2="273"
         y1="481.125"
         x1="64.875"
         gradientUnits="userSpaceOnUse"
         id="SVGID_3_"><stop
           id="stop24"
           style="stop-color:#FFFFFF;stop-opacity:0.2"
           offset="0" /><stop
           id="stop26"
           style="stop-color:#FFFFFF;stop-opacity:0"
           offset="1" /></linearGradient><path
         id="path28"
         d="M76,484c0,11,9,20,20,20h160V256H76V484z"
         fill="url(#SVGID_3_)" /><linearGradient
         y2="270.0625"
         x2="450.0625"
         y1="484.0625"
         x1="236.0625"
         gradientUnits="userSpaceOnUse"
         id="SVGID_4_"><stop
           id="stop31"
           style="stop-color:#FFFFFF;stop-opacity:0.2"
           offset="0" /><stop
           id="stop33"
           style="stop-color:#FFFFFF;stop-opacity:0"
           offset="1" /></linearGradient><path
         id="path35"
         d="M256,256v248h160c11,0,20-9,20-20V256H256z"
         fill="url(#SVGID_4_)" /></g><g
       id="g37"
       display="none"><linearGradient
         y2="271.025"
         x2="256"
         y1="271.025"
         x1="76"
         gradientUnits="userSpaceOnUse"
         id="SVGID_5_"><stop
           id="stop40"
           style="stop-color:#FFFFFF;stop-opacity:0.2"
           offset="0" /><stop
           id="stop42"
           style="stop-color:#FFFFFF;stop-opacity:0"
           offset="1" /></linearGradient><path
         id="path44"
         d="M256,256L106,106l-22.5,22.5c-2.2,2.2-4,4.7-5.1,7.6c-1.5,3.3-2.3,6.9-2.3,10.6    l-0.1,5.7V436L256,256z"
         fill="url(#SVGID_5_)"
         display="inline" /><linearGradient
         y2="132"
         x2="436"
         y1="132"
         x1="106.05"
         gradientUnits="userSpaceOnUse"
         id="SVGID_6_"><stop
           id="stop47"
           style="stop-color:#FFFFFF;stop-opacity:0.2"
           offset="0" /><stop
           id="stop49"
           style="stop-color:#FFFFFF;stop-opacity:0"
           offset="1" /></linearGradient><path
         id="path51"
         d="M256,256L436,76V28c0-11-9-20-20-20H219h-4.1c-3.7,0-7.3,0.8-10.6,2.3    c-2.8,1.3-5.4,2.9-7.6,5.1L106,106L256,256z"
         fill="url(#SVGID_6_)"
         display="inline" /><linearGradient
         y2="380"
         x2="436"
         y1="380"
         x1="76"
         gradientUnits="userSpaceOnUse"
         id="SVGID_7_"><stop
           id="stop54"
           style="stop-color:#FFFFFF;stop-opacity:0.2"
           offset="0" /><stop
           id="stop56"
           style="stop-color:#FFFFFF;stop-opacity:0"
           offset="1" /></linearGradient><path
         id="path58"
         d="M436,484v-48L256,256L76,436v48c0,11,9,20,20,20h320C427,504,436,495,436,484z"
         fill="url(#SVGID_7_)"
         display="inline" /><linearGradient
         y2="256"
         x2="436"
         y1="256"
         x1="256"
         gradientUnits="userSpaceOnUse"
         id="SVGID_8_"><stop
           id="stop61"
           style="stop-color:#FFFFFF;stop-opacity:0.2"
           offset="0" /><stop
           id="stop63"
           style="stop-color:#FFFFFF;stop-opacity:0"
           offset="1" /></linearGradient><polygon
         id="polygon65"
         points="436,436 436,76 256,256   "
         fill="url(#SVGID_8_)"
         display="inline" /></g><linearGradient
       gradientTransform="matrix(0.5 0 0 0.5 0 256)"
       y2="-437.3"
       x2="462.7"
       y1="-70.4"
       x1="95.8"
       gradientUnits="userSpaceOnUse"
       id="SVGID_9_"><stop
         id="stop68"
         style="stop-color:#6f0e10"
         offset="0" /><stop
         id="stop70"
         style="stop-color:#6f0e10;stop-opacity:0"
         offset="1" /></linearGradient><path
       id="path72"
       d="M196.7,15.6L83.5,128.8c-2.2,2.2-4,4.7-5.1,7.6   c-1.5,3.3-2.3,6.9-2.3,10.6v102l120.6-120.6c4.9-4.9,7.6-11.3,7.6-18.1v-100C201.5,11.6,198.9,13.4,196.7,15.6z"
       enable-background="new    "
       fill="url(#SVGID_9_)"
       opacity="0.7" /><path
       id="path74"
       d="M214.9,8c-3.7,0-7.3,0.8-10.6,2.3c-2.8,1.3-5.4,2.9-7.6,5.1L83.5,128.6c-2.2,2.2-4,4.7-5.1,7.6   c-1.5,3.3-2.3,6.9-2.3,10.6v4.1c0-8.2,6.5-14.7,14.7-14.7h87.8c14.1,0,25.6-11.5,25.6-25.6V22.7c0-8.2,6.5-14.7,14.7-14.7H214.9z"
       fill="#6f0e10" /></g><g
     transform="translate(1362.1847,634.98951)"
     id="g3601"><path
       id="path77"
       d="M-1080.8-401.9c-1.5-22.1-29.3-48.8-60.9-48.8c-26.1,0-59.2,24.9-58.9,63.5c0.3,37.3,12.8,57.4,22.2,80.3   l27.8-11.6c-6.4-13.1-14.7-26.2-17.7-32.7c-8.3-18.2-11.3-26.3-10.6-40.2c0.7-13.4,5.3-21.6,13.4-29.5c8.2-7.9,19.3-11.9,32.8-10.1   c28.5,4,37.7,25.6,38.4,36.1c0.6,8.7-5.6,30-27.5,28.9c-15.2-0.7-23.7-9.2-24.7-23.5c-0.8-10.5,9.4-21.1,25.9-15.7   c2.7,0.9,2.7-3.9-0.3-6.3c-7.7-6.2-38.4-3.8-38.3,20.6c0.1,22.7,18.3,37.9,35.8,38C-1086.6-352.9-1079.5-382-1080.8-401.9z"
       fill="#FFFFFF" /><path
       d="   M-1034-450.8c9.4,22.8,21.9,43,22.2,80.3c0.3,38.5-32.8,63.5-58.9,63.5c-31.6,0-59.5-26.7-60.9-48.8c-1.3-20,5.8-49,42.4-48.8   c17.5,0.1,35.7,15.3,35.8,38c0.1,24.5-30.5,26.8-38.3,20.6c-3-2.4-2.9-7.2-0.3-6.3c16.5,5.4,26.7-5.2,25.9-15.7   c-1-14.3-9.5-22.8-24.7-23.5c-21.9-1-28.1,20.3-27.5,28.9c0.7,10.5,9.9,32.2,38.4,36.1c13.5,1.9,24.6-2.2,32.8-10.1   c8.2-7.9,12.7-16.1,13.4-29.5c0.7-13.9-2.3-22-10.6-40.2c-3-6.5-11.2-19.6-17.7-32.8L-1034-450.8z"
       fill="#FFFFFF"
       opacity="0.7"
       id="path3611" /><path
       d="M-1141.8-450.9c-26.1,0-59.1,25-58.8,63.5c0.3,37.3,12.8,57.4,22.3,80.3l27.8-11.6   c-2.5-5.1-5.2-9.9-7.8-14.6h-6.1v-11.1c-1.5-2.7-2.8-5.2-3.7-7c-8.3-18.2-11.3-26.3-10.6-40.2c0.7-13.4,5.3-21.5,13.5-29.4   c8.2-7.9,19.3-12,32.7-10.1c13.5,1.9,22.6,7.7,28.6,14.5h5.7v8.3c2.6,5,3.9,9.8,4.2,13.3c0.2,3.8-1,10.2-4.2,16v19.8   c15.2-9.6,18.6-28.4,17.6-42.5C-1082.3-424.1-1110.2-450.9-1141.8-450.9z"
       fill="#FFFFFF"
       id="path3613" /></g></svg>
