<?xml version="1.0" encoding="utf-8"?>
<!-- Generator: Adobe Illustrator 18.0.0, SVG Export Plug-In . SVG Version: 6.00 Build 0)  -->
<!DOCTYPE svg PUBLIC "-//W3C//DTD SVG 1.1//EN" "http://www.w3.org/Graphics/SVG/1.1/DTD/svg11.dtd">
<svg version="1.1" id="Layer_1" xmlns="http://www.w3.org/2000/svg" xmlns:xlink="http://www.w3.org/1999/xlink" x="0px" y="0px"
	 viewBox="0 0 512 512" enable-background="new 0 0 512 512" xml:space="preserve">
<g>
	<path fill="#E64A19" d="M416,8H297.1H293h-74h-4.1H96c-11,0-20,9-20,20v124.5V484c0,11,9,20,20,20h320c11,0,20-9,20-20V152.5V28
		C436,17,427,8,416,8z"/>
	<g>
		<g>
			<path fill="#FFFFFF" d="M129.7,468h-1.3h-10.8c-0.4,0-0.7,0-1.1,0c-1.4-0.1-2.6,0.9-2.7,2.3c-0.1,1.4,0.9,2.6,2.3,2.7
				c0.5,0,1,0.1,1.5,0.1c0,0,0,0,0,0h0h10.8h1.3c1.4,0,2.5-1.1,2.5-2.5S131,468,129.7,468z"/>
			<path fill="#FFFFFF" d="M107.2,463.7c-0.1-0.1-0.3-0.3-0.4-0.4c-0.2-0.2-0.3-0.3-0.5-0.5c-0.1-0.2-0.3-0.3-0.4-0.5
				c-0.1-0.2-0.3-0.3-0.4-0.5c-0.1-0.2-0.2-0.4-0.4-0.6c-0.1-0.2-0.2-0.3-0.3-0.5c-0.1-0.2-0.2-0.4-0.3-0.6
				c-0.1-0.2-0.2-0.3-0.3-0.5c-0.1-0.2-0.2-0.5-0.3-0.7c-0.1-0.2-0.1-0.3-0.2-0.5c-0.1-0.2-0.2-0.5-0.2-0.7
				c-0.1-0.2-0.1-0.3-0.2-0.5c-0.1-0.2-0.1-0.5-0.2-0.7c0-0.2-0.1-0.4-0.1-0.5c-0.1-0.4-0.1-0.8-0.2-1.2c-0.1-1.4-1.4-2.4-2.7-2.2
				c-1.4,0.1-2.4,1.4-2.2,2.7c0,0.4,0.1,0.8,0.2,1.3c0,0.1,0,0.1,0,0.2c0,0.1,0,0.1,0,0.2c0,0.3,0.1,0.5,0.2,0.8
				c0.1,0.3,0.1,0.6,0.2,0.9c0.1,0.2,0.2,0.5,0.2,0.7c0.1,0.3,0.2,0.6,0.3,0.9c0.1,0.2,0.2,0.5,0.3,0.7c0.1,0.3,0.2,0.6,0.4,0.9
				c0.1,0.2,0.2,0.5,0.4,0.7c0.1,0.3,0.3,0.6,0.4,0.8c0.1,0.2,0.3,0.5,0.4,0.7c0.2,0.2,0.3,0.5,0.5,0.7c0.2,0.2,0.3,0.5,0.5,0.7
				c0.2,0.2,0.3,0.5,0.5,0.7c0.2,0.2,0.4,0.4,0.6,0.7c0.2,0.2,0.4,0.4,0.6,0.6c0,0,0.1,0.1,0.1,0.1c0,0,0.1,0.1,0.1,0.1
				c0.3,0.3,0.6,0.6,0.9,0.9c0.5,0.4,1,0.6,1.6,0.6c0.7,0,1.4-0.3,1.9-0.9c0.9-1.1,0.8-2.6-0.3-3.5
				C107.8,464.2,107.5,464,107.2,463.7z"/>
			<path fill="#FFFFFF" d="M100.3,422.4c1.4,0,2.5-1.1,2.5-2.5v-1.3v-10.8v-1.3c0-1.4-1.1-2.5-2.5-2.5s-2.5,1.1-2.5,2.5v1.3v10.8
				v1.3C97.8,421.3,98.9,422.4,100.3,422.4z"/>
			<path fill="#FFFFFF" d="M153.9,468h-1.3h-10.8h-1.3c-1.4,0-2.5,1.1-2.5,2.5s1.1,2.5,2.5,2.5h1.3h10.8h1.3c1.4,0,2.5-1.1,2.5-2.5
				S155.2,468,153.9,468z"/>
			<path fill="#FFFFFF" d="M100.3,446.6c1.4,0,2.5-1.1,2.5-2.5v-1.3V432v-1.3c0-1.4-1.1-2.5-2.5-2.5s-2.5,1.1-2.5,2.5v1.3v10.8v1.3
				C97.8,445.4,98.9,446.6,100.3,446.6z"/>
			<path fill="#FFFFFF" d="M100.3,398.2c1.4,0,2.5-1.1,2.5-2.5v-1.3v-10.8v-1.3c0-1.4-1.1-2.5-2.5-2.5s-2.5,1.1-2.5,2.5v1.3v10.8
				v1.3C97.8,397.1,98.9,398.2,100.3,398.2z"/>
			<path fill="#FFFFFF" d="M274.8,468h-1.3h-10.8h-1.3c-1.4,0-2.5,1.1-2.5,2.5s1.1,2.5,2.5,2.5h1.3h10.8h1.3c1.4,0,2.5-1.1,2.5-2.5
				S276.1,468,274.8,468z"/>
			<path fill="#FFFFFF" d="M298.9,468h-1.3h-10.8h-1.3c-1.4,0-2.5,1.1-2.5,2.5s1.1,2.5,2.5,2.5h1.3h10.8h1.3c1.4,0,2.5-1.1,2.5-2.5
				S300.3,468,298.9,468z"/>
			<path fill="#FFFFFF" d="M226.4,468h-1.3h-10.8h-1.3c-1.4,0-2.5,1.1-2.5,2.5s1.1,2.5,2.5,2.5h1.3h10.8h1.3c1.4,0,2.5-1.1,2.5-2.5
				S227.8,468,226.4,468z"/>
			<path fill="#FFFFFF" d="M250.6,468h-1.3h-10.8h-1.3c-1.4,0-2.5,1.1-2.5,2.5s1.1,2.5,2.5,2.5h1.3h10.8h1.3c1.4,0,2.5-1.1,2.5-2.5
				S252,468,250.6,468z"/>
			<path fill="#FFFFFF" d="M178,468h-1.3h-10.8h-1.3c-1.4,0-2.5,1.1-2.5,2.5s1.1,2.5,2.5,2.5h1.3h10.8h1.3c1.4,0,2.5-1.1,2.5-2.5
				S179.4,468,178,468z"/>
			<path fill="#FFFFFF" d="M100.3,180.6c1.4,0,2.5-1.1,2.5-2.5v-1.3V166v-1.3c0-1.4-1.1-2.5-2.5-2.5s-2.5,1.1-2.5,2.5v1.3v10.8v1.3
				C97.8,179.4,98.9,180.6,100.3,180.6z"/>
			<path fill="#FFFFFF" d="M323.1,468h-1.3H311h-1.3c-1.4,0-2.5,1.1-2.5,2.5s1.1,2.5,2.5,2.5h1.3h10.8h1.3c1.4,0,2.5-1.1,2.5-2.5
				S324.5,468,323.1,468z"/>
			<path fill="#FFFFFF" d="M100.3,374c1.4,0,2.5-1.1,2.5-2.5v-1.3v-10.8v-1.3c0-1.4-1.1-2.5-2.5-2.5s-2.5,1.1-2.5,2.5v1.3v10.8v1.3
				C97.8,372.9,98.9,374,100.3,374z"/>
			<path fill="#FFFFFF" d="M100.3,156.4c1.4,0,2.5-1.1,2.5-2.5v-1.3v-10.8v-1.3c0-1.4-1.1-2.5-2.5-2.5s-2.5,1.1-2.5,2.5v1.3v10.8
				v1.3C97.8,155.2,98.9,156.4,100.3,156.4z"/>
			<path fill="#FFFFFF" d="M409,56.3c0.2,1.2,1.3,2.1,2.5,2.1c0.1,0,0.3,0,0.4,0c1.4-0.2,2.3-1.5,2-2.9c-0.8-4.6-3.2-8.7-6.7-11.8
				c-1.1-0.9-2.6-0.8-3.5,0.3c-0.9,1.1-0.8,2.6,0.3,3.5C406.6,49.8,408.4,52.9,409,56.3z"/>
			<path fill="#FFFFFF" d="M100.3,228.9c1.4,0,2.5-1.1,2.5-2.5v-1.3v-10.8v-1.3c0-1.4-1.1-2.5-2.5-2.5s-2.5,1.1-2.5,2.5v1.3v10.8
				v1.3C97.8,227.8,98.9,228.9,100.3,228.9z"/>
			<path fill="#FFFFFF" d="M100.3,132.2c1.4,0,2.5-1.1,2.5-2.5v-1.3v-10.8v-1.3c0-1.4-1.1-2.5-2.5-2.5s-2.5,1.1-2.5,2.5v1.3v10.8
				v1.3C97.8,131.1,98.9,132.2,100.3,132.2z"/>
			<path fill="#FFFFFF" d="M100.3,204.7c1.4,0,2.5-1.1,2.5-2.5V201v-10.8v-1.3c0-1.4-1.1-2.5-2.5-2.5s-2.5,1.1-2.5,2.5v1.3V201v1.3
				C97.8,203.6,98.9,204.7,100.3,204.7z"/>
			<path fill="#FFFFFF" d="M100.3,325.6c1.4,0,2.5-1.1,2.5-2.5v-1.3v-10.8v-1.3c0-1.4-1.1-2.5-2.5-2.5s-2.5,1.1-2.5,2.5v1.3v10.8
				v1.3C97.8,324.5,98.9,325.6,100.3,325.6z"/>
			<path fill="#FFFFFF" d="M100.3,349.8c1.4,0,2.5-1.1,2.5-2.5v-1.3v-10.8V334c0-1.4-1.1-2.5-2.5-2.5s-2.5,1.1-2.5,2.5v1.3v10.8v1.3
				C97.8,348.7,98.9,349.8,100.3,349.8z"/>
			<path fill="#FFFFFF" d="M100.3,301.5c1.4,0,2.5-1.1,2.5-2.5v-1.3v-10.8v-1.3c0-1.4-1.1-2.5-2.5-2.5s-2.5,1.1-2.5,2.5v1.3v10.8
				v1.3C97.8,300.3,98.9,301.5,100.3,301.5z"/>
			<path fill="#FFFFFF" d="M100.3,253.1c1.4,0,2.5-1.1,2.5-2.5v-1.3v-10.8v-1.3c0-1.4-1.1-2.5-2.5-2.5s-2.5,1.1-2.5,2.5v1.3v10.8
				v1.3C97.8,252,98.9,253.1,100.3,253.1z"/>
			<path fill="#FFFFFF" d="M100.3,277.3c1.4,0,2.5-1.1,2.5-2.5v-1.3v-10.8v-1.3c0-1.4-1.1-2.5-2.5-2.5s-2.5,1.1-2.5,2.5v1.3v10.8
				v1.3C97.8,276.2,98.9,277.3,100.3,277.3z"/>
			<path fill="#FFFFFF" d="M202.2,468H201h-10.8h-1.3c-1.4,0-2.5,1.1-2.5,2.5s1.1,2.5,2.5,2.5h1.3H201h1.3c1.4,0,2.5-1.1,2.5-2.5
				S203.6,468,202.2,468z"/>
			<path fill="#FFFFFF" d="M411.7,283.1c-1.4,0-2.5,1.1-2.5,2.5v1.3v10.8v1.3c0,1.4,1.1,2.5,2.5,2.5s2.5-1.1,2.5-2.5v-1.3v-10.8
				v-1.3C414.2,284.2,413.1,283.1,411.7,283.1z"/>
			<path fill="#FFFFFF" d="M411.7,234.8c-1.4,0-2.5,1.1-2.5,2.5v1.3v10.8v1.3c0,1.4,1.1,2.5,2.5,2.5s2.5-1.1,2.5-2.5v-1.3v-10.8
				v-1.3C414.2,235.9,413.1,234.8,411.7,234.8z"/>
			<path fill="#FFFFFF" d="M411.7,331.5c-1.4,0-2.5,1.1-2.5,2.5v1.3v10.8v1.3c0,1.4,1.1,2.5,2.5,2.5s2.5-1.1,2.5-2.5v-1.3v-10.8V334
				C414.2,332.6,413.1,331.5,411.7,331.5z"/>
			<path fill="#FFFFFF" d="M411.7,258.9c-1.4,0-2.5,1.1-2.5,2.5v1.3v10.8v1.3c0,1.4,1.1,2.5,2.5,2.5s2.5-1.1,2.5-2.5v-1.3v-10.8
				v-1.3C414.2,260.1,413.1,258.9,411.7,258.9z"/>
			<path fill="#FFFFFF" d="M411.7,307.3c-1.4,0-2.5,1.1-2.5,2.5v1.3v10.8v1.3c0,1.4,1.1,2.5,2.5,2.5s2.5-1.1,2.5-2.5v-1.3v-10.8
				v-1.3C414.2,308.4,413.1,307.3,411.7,307.3z"/>
			<path fill="#FFFFFF" d="M411.7,355.7c-1.4,0-2.5,1.1-2.5,2.5v1.3v10.8v1.3c0,1.4,1.1,2.5,2.5,2.5s2.5-1.1,2.5-2.5v-1.3v-10.8
				v-1.3C414.2,356.8,413.1,355.7,411.7,355.7z"/>
			<path fill="#FFFFFF" d="M411.7,404c-1.4,0-2.5,1.1-2.5,2.5v1.3v10.8v1.3c0,1.4,1.1,2.5,2.5,2.5s2.5-1.1,2.5-2.5v-1.3v-10.8v-1.3
				C414.2,405.2,413.1,404,411.7,404z"/>
			<path fill="#FFFFFF" d="M411.7,379.8c-1.4,0-2.5,1.1-2.5,2.5v1.3v10.8v1.3c0,1.4,1.1,2.5,2.5,2.5s2.5-1.1,2.5-2.5v-1.3v-10.8
				v-1.3C414.2,381,413.1,379.8,411.7,379.8z"/>
			<path fill="#FFFFFF" d="M411.7,210.6c-1.4,0-2.5,1.1-2.5,2.5v1.3v10.8v1.3c0,1.4,1.1,2.5,2.5,2.5s2.5-1.1,2.5-2.5v-1.3v-10.8
				v-1.3C414.2,211.7,413.1,210.6,411.7,210.6z"/>
			<path fill="#FFFFFF" d="M411.7,428.2c-1.4,0-2.5,1.1-2.5,2.5v1.3v10.8v1.3c0,1.4,1.1,2.5,2.5,2.5s2.5-1.1,2.5-2.5v-1.3V432v-1.3
				C414.2,429.3,413.1,428.2,411.7,428.2z"/>
			<path fill="#FFFFFF" d="M411.7,89.7c-1.4,0-2.5,1.1-2.5,2.5v12.1c0,1.4,1.1,2.5,2.5,2.5s2.5-1.1,2.5-2.5V92.2
				C414.2,90.8,413.1,89.7,411.7,89.7z"/>
			<path fill="#FFFFFF" d="M411.7,65.5c-1.4,0-2.5,1.1-2.5,2.5v12.1c0,1.4,1.1,2.5,2.5,2.5s2.5-1.1,2.5-2.5V68
				C414.2,66.6,413.1,65.5,411.7,65.5z"/>
			<path fill="#FFFFFF" d="M411.7,113.8c-1.4,0-2.5,1.1-2.5,2.5v1.3v10.8v1.3c0,1.4,1.1,2.5,2.5,2.5s2.5-1.1,2.5-2.5v-1.3v-10.8
				v-1.3C414.2,115,413.1,113.8,411.7,113.8z"/>
			<path fill="#FFFFFF" d="M411.7,186.4c-1.4,0-2.5,1.1-2.5,2.5v1.3V201v1.3c0,1.4,1.1,2.5,2.5,2.5s2.5-1.1,2.5-2.5V201v-10.8v-1.3
				C414.2,187.5,413.1,186.4,411.7,186.4z"/>
			<path fill="#FFFFFF" d="M411.7,162.2c-1.4,0-2.5,1.1-2.5,2.5v1.3v10.8v1.3c0,1.4,1.1,2.5,2.5,2.5s2.5-1.1,2.5-2.5v-1.3V166v-1.3
				C414.2,163.3,413.1,162.2,411.7,162.2z"/>
			<path fill="#FFFFFF" d="M411.7,138c-1.4,0-2.5,1.1-2.5,2.5v1.3v10.8v1.3c0,1.4,1.1,2.5,2.5,2.5s2.5-1.1,2.5-2.5v-1.3v-10.8v-1.3
				C414.2,139.1,413.1,138,411.7,138z"/>
			<path fill="#FFFFFF" d="M371.5,468h-1.3h-10.8h-1.3c-1.4,0-2.5,1.1-2.5,2.5s1.1,2.5,2.5,2.5h1.3h10.8h1.3c1.4,0,2.5-1.1,2.5-2.5
				S372.9,468,371.5,468z"/>
			<path fill="#FFFFFF" d="M358.1,44h12.1c1.4,0,2.5-1.1,2.5-2.5s-1.1-2.5-2.5-2.5h-12.1c-1.4,0-2.5,1.1-2.5,2.5S356.7,44,358.1,44z
				"/>
			<path fill="#FFFFFF" d="M333.9,44H346c1.4,0,2.5-1.1,2.5-2.5S347.4,39,346,39h-12.1c-1.4,0-2.5,1.1-2.5,2.5S332.5,44,333.9,44z"
				/>
			<path fill="#FFFFFF" d="M382.3,44h12.2c1.4,0,2.5-1.1,2.5-2.5s-1.2-2.5-2.5-2.5h-12.1c-1.4,0-2.5,1.1-2.5,2.5S380.9,44,382.3,44z
				"/>
			<path fill="#FFFFFF" d="M347.3,468h-1.3h-10.8H334c-1.4,0-2.5,1.1-2.5,2.5s1.1,2.5,2.5,2.5h1.3h10.8h1.3c1.4,0,2.5-1.1,2.5-2.5
				S348.7,468,347.3,468z"/>
			<path fill="#FFFFFF" d="M411.8,452.4c-1.4-0.1-2.6,0.9-2.7,2.2c0,0.4-0.1,0.8-0.2,1.2c0,0.2-0.1,0.4-0.1,0.5
				c-0.1,0.2-0.1,0.5-0.2,0.7c0,0.2-0.1,0.3-0.2,0.5c-0.1,0.2-0.2,0.5-0.2,0.7c-0.1,0.2-0.1,0.3-0.2,0.5c-0.1,0.2-0.2,0.5-0.3,0.7
				c-0.1,0.2-0.2,0.3-0.3,0.5c-0.1,0.2-0.2,0.4-0.3,0.6c-0.1,0.2-0.2,0.3-0.3,0.5c-0.1,0.2-0.2,0.4-0.4,0.6
				c-0.1,0.2-0.3,0.3-0.4,0.5c-0.1,0.2-0.3,0.3-0.4,0.5c-0.1,0.2-0.3,0.3-0.5,0.5c-0.1,0.1-0.3,0.3-0.4,0.4
				c-0.3,0.3-0.6,0.6-0.9,0.8c-1.1,0.9-1.2,2.5-0.3,3.5c0.5,0.6,1.2,0.9,1.9,0.9c0.6,0,1.1-0.2,1.6-0.6c0.3-0.3,0.6-0.6,0.9-0.9
				c0,0,0.1-0.1,0.1-0.1c0,0,0.1-0.1,0.1-0.1c0.2-0.2,0.4-0.4,0.6-0.6c0.2-0.2,0.4-0.4,0.6-0.7c0.2-0.2,0.4-0.4,0.5-0.7
				c0.2-0.2,0.4-0.5,0.5-0.7c0.2-0.2,0.3-0.5,0.5-0.7c0.1-0.2,0.3-0.5,0.4-0.7c0.2-0.3,0.3-0.5,0.4-0.8c0.1-0.2,0.2-0.5,0.4-0.7
				c0.1-0.3,0.3-0.6,0.4-0.9c0.1-0.2,0.2-0.5,0.3-0.7c0.1-0.3,0.2-0.6,0.3-0.9c0.1-0.2,0.2-0.5,0.2-0.7c0.1-0.3,0.1-0.6,0.2-0.9
				c0.1-0.3,0.1-0.5,0.2-0.8c0-0.1,0-0.1,0-0.2c0-0.1,0-0.1,0-0.2c0.1-0.4,0.1-0.8,0.2-1.3C414.2,453.8,413.2,452.5,411.8,452.4z"/>
			<path fill="#FFFFFF" d="M395.5,468c-0.4,0-0.7,0-1.1,0h-10.8h-1.3c-1.4,0-2.5,1.1-2.5,2.5s1.1,2.5,2.5,2.5h1.3h10.8h0
				c0,0,0,0,0,0c0.5,0,1,0,1.5-0.1c1.4-0.1,2.4-1.3,2.3-2.7C398.1,468.9,396.9,467.9,395.5,468z"/>
			<path fill="#FFFFFF" d="M274.8,39h-1.3h-10.8h-1.3c-1.4,0-2.5,1.1-2.5,2.5s1.1,2.5,2.5,2.5h1.3h10.8h1.3c1.4,0,2.5-1.1,2.5-2.5
				S276.2,39,274.8,39z"/>
			<path fill="#FFFFFF" d="M323.2,39h-1.3h-10.8h-1.3c-1.4,0-2.5,1.1-2.5,2.5s1.1,2.5,2.5,2.5h1.3h10.8h1.3c1.4,0,2.5-1.1,2.5-2.5
				S324.5,39,323.2,39z"/>
			<path fill="#FFFFFF" d="M100.1,58.4c0.1,0,0.3,0,0.4,0c1.2,0,2.3-0.9,2.5-2.1c0.6-3.4,2.4-6.5,5-8.8c1.1-0.9,1.2-2.5,0.3-3.5
				c-0.9-1.1-2.5-1.2-3.5-0.3c-3.6,3-5.9,7.2-6.7,11.8C97.9,56.8,98.8,58.1,100.1,58.4z"/>
			<path fill="#FFFFFF" d="M100.3,82.6c1.4,0,2.5-1.1,2.5-2.5V68c0-1.4-1.1-2.5-2.5-2.5s-2.5,1.1-2.5,2.5v12.1
				C97.8,81.4,98.9,82.6,100.3,82.6z"/>
			<path fill="#FFFFFF" d="M100.3,106.8c1.4,0,2.5-1.1,2.5-2.5V92.2c0-1.4-1.1-2.5-2.5-2.5s-2.5,1.1-2.5,2.5v12.1
				C97.8,105.6,98.9,106.8,100.3,106.8z"/>
			<path fill="#FFFFFF" d="M202.3,39h-1.3h-10.8h-1.3c-1.4,0-2.5,1.1-2.5,2.5s1.1,2.5,2.5,2.5h1.3h10.8h1.3c1.4,0,2.5-1.1,2.5-2.5
				S203.6,39,202.3,39z"/>
			<path fill="#FFFFFF" d="M153.9,39h-12.1c-1.4,0-2.5,1.1-2.5,2.5s1.1,2.5,2.5,2.5h12.1c1.4,0,2.5-1.1,2.5-2.5S155.3,39,153.9,39z"
				/>
			<path fill="#FFFFFF" d="M129.7,39h-12.1c-1.4,0-2.5,1.1-2.5,2.5s1.1,2.5,2.5,2.5h12.2c1.4,0,2.5-1.1,2.5-2.5S131.1,39,129.7,39z"
				/>
			<path fill="#FFFFFF" d="M178.1,39H166c-1.4,0-2.5,1.1-2.5,2.5s1.1,2.5,2.5,2.5h12.1c1.4,0,2.5-1.1,2.5-2.5S179.5,39,178.1,39z"/>
			<path fill="#FFFFFF" d="M299,39h-1.3h-10.8h-1.3c-1.4,0-2.5,1.1-2.5,2.5s1.1,2.5,2.5,2.5h1.3h10.8h1.3c1.4,0,2.5-1.1,2.5-2.5
				S300.4,39,299,39z"/>
			<path fill="#FFFFFF" d="M250.6,39h-1.3h-10.8h-1.3c-1.4,0-2.5,1.1-2.5,2.5s1.1,2.5,2.5,2.5h1.3h10.8h1.3c1.4,0,2.5-1.1,2.5-2.5
				S252,39,250.6,39z"/>
			<path fill="#FFFFFF" d="M226.4,39h-1.3h-10.8H213c-1.4,0-2.5,1.1-2.5,2.5s1.1,2.5,2.5,2.5h1.3h10.8h1.3c1.4,0,2.5-1.1,2.5-2.5
				S227.8,39,226.4,39z"/>
		</g>
		<g>
			<linearGradient id="SVGID_1_" gradientUnits="userSpaceOnUse" x1="239" y1="239" x2="447.125" y2="30.875">
				<stop  offset="0" style="stop-color:#FFFFFF;stop-opacity:0.2"/>
				<stop  offset="1" style="stop-color:#FFFFFF;stop-opacity:0"/>
			</linearGradient>
			<path fill="url(#SVGID_1_)" d="M416,8H256v248h180V28C436,17,427,8,416,8z"/>
			<linearGradient id="SVGID_2_" gradientUnits="userSpaceOnUse" x1="64.875" y1="481.125" x2="273" y2="273">
				<stop  offset="0" style="stop-color:#FFFFFF;stop-opacity:0.2"/>
				<stop  offset="1" style="stop-color:#FFFFFF;stop-opacity:0"/>
			</linearGradient>
			<path fill="url(#SVGID_2_)" d="M76,484c0,11,9,20,20,20h160V256H76V484z"/>
			<linearGradient id="SVGID_3_" gradientUnits="userSpaceOnUse" x1="236.0625" y1="484.0625" x2="450.0625" y2="270.0625">
				<stop  offset="0" style="stop-color:#FFFFFF;stop-opacity:0.2"/>
				<stop  offset="1" style="stop-color:#FFFFFF;stop-opacity:0"/>
			</linearGradient>
			<path fill="url(#SVGID_3_)" d="M256,256v248h160c11,0,20-9,20-20V256H256z"/>
			
				<linearGradient id="SVGID_4_" gradientUnits="userSpaceOnUse" x1="61.9375" y1="270.0625" x2="275.9375" y2="484.0625" gradientTransform="matrix(1 0 0 -1 0 512)">
				<stop  offset="0" style="stop-color:#FFFFFF;stop-opacity:0.2"/>
				<stop  offset="1" style="stop-color:#FFFFFF;stop-opacity:0"/>
			</linearGradient>
			<path fill="url(#SVGID_4_)" d="M76,28c0-11,9-20,20-20h160v248H76V28z"/>
		</g>
		<g>
			<linearGradient id="SVGID_5_" gradientUnits="userSpaceOnUse" x1="256" y1="504" x2="256" y2="256">
				<stop  offset="0" style="stop-color:#FFFFFF;stop-opacity:0.2"/>
				<stop  offset="1" style="stop-color:#FFFFFF;stop-opacity:0"/>
			</linearGradient>
			<path fill="url(#SVGID_5_)" d="M436,484v-48L256,256L76,436v48c0,11,9,20,20,20h320C427,504,436,495,436,484z"/>
			<linearGradient id="SVGID_6_" gradientUnits="userSpaceOnUse" x1="346" y1="436" x2="346" y2="76">
				<stop  offset="0" style="stop-color:#FFFFFF;stop-opacity:0.2"/>
				<stop  offset="1" style="stop-color:#FFFFFF;stop-opacity:0"/>
			</linearGradient>
			<polygon fill="url(#SVGID_6_)" points="436,436 436,76 256,256 			"/>
			
				<linearGradient id="SVGID_7_" gradientUnits="userSpaceOnUse" x1="256" y1="256" x2="256" y2="504" gradientTransform="matrix(-1 0 0 -1 512 512)">
				<stop  offset="0" style="stop-color:#FFFFFF;stop-opacity:0.2"/>
				<stop  offset="1" style="stop-color:#FFFFFF;stop-opacity:0"/>
			</linearGradient>
			<path fill="url(#SVGID_7_)" d="M76,28v48l180,180L436,76V28c0-11-9-20-20-20H96C85,8,76,17,76,28z"/>
			
				<linearGradient id="SVGID_8_" gradientUnits="userSpaceOnUse" x1="346" y1="76" x2="346" y2="436" gradientTransform="matrix(-1 0 0 -1 512 512)">
				<stop  offset="0" style="stop-color:#FFFFFF;stop-opacity:0.2"/>
				<stop  offset="1" style="stop-color:#FFFFFF;stop-opacity:0"/>
			</linearGradient>
			<polygon fill="url(#SVGID_8_)" points="76,76 76,436 256,256 			"/>
		</g>
	</g>
</g>
<path fill="#FFFFFF" d="M346.2,266.8v-21.6l-20.4-7.2c-1.7-6.6-4.4-12.9-7.8-18.6l0,0l9.3-19.5L312,184.7l-19.5,9.3l0,0
	c-5.7-3.4-12-6.1-18.6-7.8l-7.2-20.4h-21.6l-7.2,20.4c-6.6,1.7-12.9,4.4-18.6,7.8l0,0l-19.5-9.3l-15.2,15.2l9.3,19.5l0,0
	c-3.4,5.7-6.1,12-7.8,18.6l-20.4,7.2v21.6l20.4,7.2c1.7,6.6,4.4,12.9,7.8,18.6l0,0l-9.3,19.5l15.2,15.2l19.5-9.3l0,0
	c5.7,3.4,12,6,18.6,7.8l7.2,20.4h21.6l7.2-20.4c6.6-1.7,12.9-4.4,18.6-7.8l0,0l19.5,9.3l15.2-15.2l-9.3-19.5l0,0
	c3.4-5.7,6-12,7.8-18.6L346.2,266.8z M256,292c-19.9,0-36.1-16.2-36.1-36.1s16.2-36.1,36.1-36.1c20,0,36,16.2,36,36.1
	C292.1,275.9,276,292,256,292z"/>
</svg>
