<?xml version="1.0" encoding="utf-8"?>
<!-- Generator: Adobe Illustrator 18.0.0, SVG Export Plug-In . SVG Version: 6.00 Build 0)  -->
<!DOCTYPE svg PUBLIC "-//W3C//DTD SVG 1.1//EN" "http://www.w3.org/Graphics/SVG/1.1/DTD/svg11.dtd">
<svg version="1.1" id="Layer_1" xmlns="http://www.w3.org/2000/svg" xmlns:xlink="http://www.w3.org/1999/xlink" x="0px" y="0px"
	 viewBox="0 0 512 512" style="enable-background:new 0 0 512 512;" xml:space="preserve">
<path style="opacity:0.7;" d="M446,486H66c-22.1,0-40-17.9-40-40V66c0-22.1,17.9-40,40-40h380c22.1,0,40,17.9,40,40v380
	C486,468.1,468.1,486,446,486z"/>
<linearGradient id="SVGID_1_" gradientUnits="userSpaceOnUse" x1="256" y1="26" x2="256" y2="486" gradientTransform="matrix(1 0 0 -1 0 512)">
	<stop  offset="0" style="stop-color:#FFFFFF;stop-opacity:0.5"/>
	<stop  offset="1" style="stop-color:#FFFFFF"/>
</linearGradient>
<path style="fill:url(#SVGID_1_);" d="M446,26H66c-22.1,0-40,17.9-40,40v10.1V446c0,22.1,17.9,40,40,40h380c22.1,0,40-17.9,40-40
	V76.1V66C486,43.9,468.1,26,446,26z M446,476H66c-16.5,0-30-13.5-30-30V118.9C36,95.2,55.2,76,78.9,76h354.5
	c22.3,0,40.6,17,42.7,38.7V446C476,462.5,462.5,476,446,476z"/>
<g>
	<path style="fill:#FFFFFF;" d="M393.2,261.4H366c-1.3-11.3-4.3-22.3-8.7-32.3l23.3-13.5c2-1.2,2.7-3.8,1.5-5.8l-8-13.9
		c-1.2-2-3.8-2.7-5.8-1.5l-23.4,13.5c-6.5-8.8-14.3-16.6-23.1-23.1l13.9-24c1.2-2,0.5-4.6-1.5-5.8l-13.9-8c-2-1.2-4.6-0.5-5.8,1.5
		l-13.8,24c-10.2-4.5-21.3-7.6-33-8.8V136c0-2.4-1.9-4.3-4.3-4.3h-16.1c-2.4,0-4.3,1.9-4.3,4.3v27.9c-11.3,1.3-22.2,4.3-32.2,8.9
		l-14-24.1c-1.2-2-3.8-2.7-5.8-1.5l-13.9,8c-2,1.2-2.7,3.8-1.5,5.8l14.1,24.4c-8.7,6.5-16.4,14.3-22.9,23L143,194.5
		c-2-1.2-4.6-0.5-5.8,1.5l-8,13.9c-1.2,2-0.5,4.6,1.5,5.8l23.8,13.7c-4.3,10-7.3,20.7-8.5,32h-27.2c-2.4,0-4.3,1.9-4.3,4.3v16.1
		c0,2.4,1.9,4.3,4.3,4.3H146c1.3,11.3,4.2,21.9,8.5,31.9l-23.9,13.6c-2,1.2-2.7,3.8-1.5,5.8l8,13.9c1.2,2,3.8,2.7,5.8,1.5l23.7-13.7
		c6.7,9.1,14.8,17.1,23.9,23.9l-13.3,23c-1.2,2-0.5,4.6,1.5,5.8l13.9,8c2,1.2,4.6,0.5,5.8-1.5l13.3-23.1c9.7,4.3,20.2,7.1,31.2,8.4
		v26.6c0,2.4,1.9,4.3,4.3,4.3h16.1c2.4,0,4.3-1.9,4.3-4.3v-26.5c11.3-1.2,21.9-4,31.9-8.3l13.2,22.9c1.2,2,3.8,2.7,5.8,1.5l13.9-8
		c2-1.2,2.7-3.8,1.5-5.8l-13.1-22.8c9.2-6.7,17.3-14.8,24.1-23.9l23.3,13.5c2,1.2,4.6,0.5,5.8-1.5l8-13.9c1.2-2,0.5-4.6-1.5-5.8
		l-23-13.3c4.4-10.1,7.3-20.8,8.6-32.2h27.2c2.4,0,4.3-1.9,4.3-4.3v-16.1C397.4,263.3,395.6,261.4,393.2,261.4z M341.2,286
		c-0.9,6.8-2.7,13.5-5.3,19.8c-3.1,7.6-7.2,14.8-12.4,21.3c-2,2.6-4.3,5.1-6.7,7.6c-2.6,2.6-5.4,5-8.3,7.3
		c-6.6,5.1-13.8,9.1-21.4,12.1c-6.2,2.4-12.8,4.1-19.5,5c-3.8,0.5-7.8,0.8-11.7,0.8c-4.3,0-8.7-0.3-13-0.9c-6.5-0.9-12.8-2.6-18.8-5
		c-7.6-3-14.8-7.2-21.3-12.3c-2.7-2.1-5.4-4.4-7.8-7c-2.5-2.5-4.8-5.1-6.9-7.8c-5.1-6.6-9.3-13.7-12.3-21.3
		c-2.5-6.2-4.2-12.8-5.2-19.4c-0.6-4-0.9-8.2-0.9-12.3c0-4.2,0.3-8.3,0.9-12.3c0.9-6.7,2.7-13.3,5.2-19.6
		c3.1-7.6,7.2-14.8,12.3-21.3c2.1-2.6,4.3-5.2,6.8-7.7c2.2-2.2,4.5-4.3,7-6.2c6.5-5.2,13.6-9.5,21.1-12.5c6.3-2.6,13-4.4,19.9-5.5
		c4.3-0.6,8.5-0.9,13-0.9c3.9,0,7.8,0.3,11.7,0.8c7.1,0.9,14,2.8,20.6,5.5c7.6,3.1,14.8,7.2,21.2,12.5c2.6,2,5,4.3,7.4,6.6
		c2.4,2.4,4.6,4.9,6.7,7.4c5.2,6.5,9.3,13.6,12.4,21.2c2.6,6.4,4.3,13,5.4,19.9c0.6,4,0.9,8.2,0.9,12.3
		C342.1,277.9,341.8,282,341.2,286z"/>
	<path style="fill:#515151;" d="M256,212.2c33.9,0,61.6,27.6,61.6,61.6S290,335.4,256,335.4s-61.6-27.6-61.6-61.6
		S222,212.2,256,212.2 M256,187.5c-47.6,0-86.1,38.5-86.1,86.1s38.5,86.1,86.1,86.1s86.1-38.5,86.1-86.1S303.5,187.5,256,187.5
		L256,187.5z"/>
</g>
</svg>
