<?xml version="1.0" encoding="utf-8"?>
<!-- Generator: Adobe Illustrator 22.0.1, SVG Export Plug-In . SVG Version: 6.00 Build 0)  -->
<svg version="1.1" id="Layer_1" xmlns="http://www.w3.org/2000/svg" xmlns:xlink="http://www.w3.org/1999/xlink" x="0px" y="0px"
	 viewBox="0 0 512 512" style="enable-background:new 0 0 512 512;" xml:space="preserve">
<path style="fill:#FF8B00;" d="M446,485H66c-22.1,0-40-17.9-40-40V65c0-22.1,17.9-40,40-40h380c22.1,0,40,17.9,40,40v380
	C486,467.1,468.1,485,446,485z"/>
<linearGradient id="SVGID_1_" gradientUnits="userSpaceOnUse" x1="256" y1="485" x2="256" y2="25">
	<stop  offset="0" style="stop-color:#FFFFFF;stop-opacity:0.5"/>
	<stop  offset="1" style="stop-color:#FFFFFF"/>
</linearGradient>
<path style="fill:url(#SVGID_1_);" d="M446,25H66c-22.1,0-40,17.9-40,40v10.1V445c0,22.1,17.9,40,40,40h380c22.1,0,40-17.9,40-40
	V75.1V65C486,42.9,468.1,25,446,25z M446,475H66c-16.5,0-30-13.5-30-30V117.9C36,94.2,55.2,75,78.9,75h354.5
	c22.3,0,40.6,17,42.7,38.7V445C476,461.5,462.5,475,446,475z"/>
<path style="fill:#FFFFFF;" d="M256,361.5c-23.6,0-45.9-9.2-62.6-25.9c-16.7-16.7-25.9-38.9-25.9-62.6s9.2-45.9,25.9-62.6
	s38.9-25.9,62.6-25.9s45.9,9.2,62.6,25.9s25.9,38.9,25.9,62.6s-9.2,45.9-25.9,62.6C301.9,352.3,279.6,361.5,256,361.5z M257.9,222.3
	c-1.2,0-2.1,1-2.1,2.1v12.4c0,0.9-0.7,1.7-1.7,1.7c-22.8,1-40.6,19.7-40.6,42.6c0,23.5,19.1,42.6,42.6,42.6v-0.4
	c-16.1,0-29.2-13.1-29.2-29.2c0-15.2,11.8-28,27-29.1h0.1c1,0,1.7,0.8,1.7,1.7v12c0,1.2,1,2.1,2.1,2.1c0.4,0,0.7-0.1,1-0.3
	l47.1-27.2c0.7-0.4,1.1-1.1,1.1-1.9s-0.4-1.5-1.1-1.9L259,222.6C258.7,222.4,258.3,222.3,257.9,222.3z"/>
</svg>
