<?xml version="1.0" encoding="utf-8"?>
<!-- Generator: Adobe Illustrator 18.0.0, SVG Export Plug-In . SVG Version: 6.00 Build 0)  -->
<!DOCTYPE svg PUBLIC "-//W3C//DTD SVG 1.1//EN" "http://www.w3.org/Graphics/SVG/1.1/DTD/svg11.dtd">
<svg version="1.1" id="Layer_1" xmlns="http://www.w3.org/2000/svg" xmlns:xlink="http://www.w3.org/1999/xlink" x="0px" y="0px"
	 viewBox="0 0 512 512" enable-background="new 0 0 512 512" xml:space="preserve">
<g>
	<path fill="#B7B7B7" d="M415.9,8.1H219h-4.1c-3.7,0-7.3,0.8-10.6,2.3c-2.8,1.3-5.4,2.9-7.6,5.1L83.5,128.6c-2.2,2.2-4,4.7-5.1,7.6
		c-1.5,3.3-2.3,6.9-2.3,10.6l-0.1,5.7v331.4c0,11,9,20,20,20H416c11,0,20-9,20-20V28.1C436,17,427,8.1,415.9,8.1z"/>
	<g>
		
			<linearGradient id="SVGID_1_" gradientUnits="userSpaceOnUse" x1="76.1957" y1="-128.5877" x2="255.161" y2="-307.5531" gradientTransform="matrix(1.1953 0 0 1.1953 0 424.6939)">
			<stop  offset="0" style="stop-color:#FFFFFF;stop-opacity:0.2"/>
			<stop  offset="1" style="stop-color:#FFFFFF;stop-opacity:0"/>
		</linearGradient>
		<path fill="url(#SVGID_1_)" d="M256,256V8.1h-37h-4.1c-3.7,0-7.3,0.8-10.6,2.3c-2.8,1.3-5.4,2.9-7.6,5.1L83.5,128.6
			c-2.2,2.2-4,4.7-5.1,7.6c-1.5,3.3-2.3,6.9-2.3,10.6l-0.1,5.7V256H256z"/>
		
			<linearGradient id="SVGID_2_" gradientUnits="userSpaceOnUse" x1="199.9669" y1="-155.3363" x2="374.0515" y2="-329.4208" gradientTransform="matrix(1.1953 0 0 1.1953 0 424.6939)">
			<stop  offset="0" style="stop-color:#FFFFFF;stop-opacity:0.2"/>
			<stop  offset="1" style="stop-color:#FFFFFF;stop-opacity:0"/>
		</linearGradient>
		<path fill="url(#SVGID_2_)" d="M415.9,8.1H256V256h180V28.1C436,17,427,8.1,415.9,8.1z"/>
		
			<linearGradient id="SVGID_3_" gradientUnits="userSpaceOnUse" x1="54.3017" y1="47.15" x2="228.3774" y2="-126.9258" gradientTransform="matrix(1.1953 0 0 1.1953 0 424.6939)">
			<stop  offset="0" style="stop-color:#FFFFFF;stop-opacity:0.2"/>
			<stop  offset="1" style="stop-color:#FFFFFF;stop-opacity:0"/>
		</linearGradient>
		<path fill="url(#SVGID_3_)" d="M76,483.9c0,11,9,20,20,20h160V256H76V483.9z"/>
		
			<linearGradient id="SVGID_4_" gradientUnits="userSpaceOnUse" x1="197.4871" y1="49.5948" x2="376.4525" y2="-129.3706" gradientTransform="matrix(1.1953 0 0 1.1953 0 424.6939)">
			<stop  offset="0" style="stop-color:#FFFFFF;stop-opacity:0.2"/>
			<stop  offset="1" style="stop-color:#FFFFFF;stop-opacity:0"/>
		</linearGradient>
		<path fill="url(#SVGID_4_)" d="M256,256v247.9h159.9c11,0,20-9,20-20V256H256z"/>
	</g>
	<g>
		
			<linearGradient id="SVGID_5_" gradientUnits="userSpaceOnUse" x1="63.6523" y1="-128.5703" x2="214.1722" y2="-128.5703" gradientTransform="matrix(1.1953 0 0 1.1953 0 424.6939)">
			<stop  offset="0" style="stop-color:#FFFFFF;stop-opacity:0.2"/>
			<stop  offset="1" style="stop-color:#FFFFFF;stop-opacity:0"/>
		</linearGradient>
		<path fill="url(#SVGID_5_)" d="M256,256L106,106l-22.5,22.5c-2.2,2.2-4,4.7-5.1,7.6c-1.5,3.3-2.3,6.9-2.3,10.6l-0.1,5.7V436
			L256,256z"/>
		
			<linearGradient id="SVGID_6_" gradientUnits="userSpaceOnUse" x1="88.704" y1="-244.8715" x2="364.762" y2="-244.8715" gradientTransform="matrix(1.1953 0 0 1.1953 0 424.6939)">
			<stop  offset="0" style="stop-color:#FFFFFF;stop-opacity:0.2"/>
			<stop  offset="1" style="stop-color:#FFFFFF;stop-opacity:0"/>
		</linearGradient>
		<path fill="url(#SVGID_6_)" d="M256,256L436,76V28c0-11-9-20-20-20H219h-4.1c-3.7,0-7.3,0.8-10.6,2.3c-2.8,1.3-5.4,2.9-7.6,5.1
			L106,106L256,256z"/>
		
			<linearGradient id="SVGID_7_" gradientUnits="userSpaceOnUse" x1="63.5824" y1="-37.3906" x2="364.762" y2="-37.3906" gradientTransform="matrix(1.1953 0 0 1.1953 0 424.6939)">
			<stop  offset="0" style="stop-color:#FFFFFF;stop-opacity:0.2"/>
			<stop  offset="1" style="stop-color:#FFFFFF;stop-opacity:0"/>
		</linearGradient>
		<path fill="url(#SVGID_7_)" d="M436,483.9v-48L256,256L76,436v48c0,11,9,20,20,20h319.9C427,503.9,436,495,436,483.9z"/>
		
			<linearGradient id="SVGID_8_" gradientUnits="userSpaceOnUse" x1="214.1722" y1="-141.131" x2="364.762" y2="-141.131" gradientTransform="matrix(1.1953 0 0 1.1953 0 424.6939)">
			<stop  offset="0" style="stop-color:#FFFFFF;stop-opacity:0.2"/>
			<stop  offset="1" style="stop-color:#FFFFFF;stop-opacity:0"/>
		</linearGradient>
		<polygon fill="url(#SVGID_8_)" points="436,436 436,76 256,256 		"/>
	</g>
	
		<linearGradient id="SVGID_9_" gradientUnits="userSpaceOnUse" x1="80.2037" y1="-573.0189" x2="387.1657" y2="-879.9808" gradientTransform="matrix(0.5977 0 0 0.5977 0 563.3214)">
		<stop  offset="0" style="stop-color:#000000"/>
		<stop  offset="1" style="stop-color:#000000;stop-opacity:0"/>
	</linearGradient>
	<path opacity="0.7" fill="url(#SVGID_9_)" enable-background="new    " d="M196.7,15.6L83.5,128.9c-2.2,2.2-4,4.7-5.1,7.6
		c-1.5,3.3-2.3,6.9-2.3,10.6v102l120.6-120.6c4.9-4.9,7.6-11.3,7.6-18.1v-100C201.5,11.7,198.9,13.4,196.7,15.6z"/>
	<path d="M214.9,8.1c-3.7,0-7.3,0.8-10.6,2.3c-2.8,1.3-5.4,2.9-7.6,5.1L83.5,128.6c-2.2,2.2-4,4.7-5.1,7.6
		c-1.5,3.3-2.3,6.9-2.3,10.6v4.1c0-8.2,6.5-14.7,14.7-14.7h87.7c14.1,0,25.6-11.5,25.6-25.6V22.7c0-8.2,6.5-14.7,14.7-14.7
		C218.9,8.1,214.9,8.1,214.9,8.1z"/>
</g>
<g id="Layer_3_1_">
	<g id="Layer_2_2_">
		<polygon points="294.2,197.2 314.8,217.8 225.4,307.3 225.4,307.2 197.2,314.8 204.7,286.6 204.7,286.6 		"/>
	</g>
</g>
</svg>
