<?xml version="1.0" encoding="utf-8"?>
<!-- Generator: Adobe Illustrator 18.0.0, SVG Export Plug-In . SVG Version: 6.00 Build 0)  -->
<!DOCTYPE svg PUBLIC "-//W3C//DTD SVG 1.1//EN" "http://www.w3.org/Graphics/SVG/1.1/DTD/svg11.dtd">
<svg version="1.1" id="Layer_1" xmlns="http://www.w3.org/2000/svg" xmlns:xlink="http://www.w3.org/1999/xlink" x="0px" y="0px"
	 viewBox="0 0 612 792" enable-background="new 0 0 612 792" xml:space="preserve">
<g>
	<path fill="#FF9D00" d="M497.2,99.6H261.8h-4.9c-4.4,0-8.7,1-12.7,2.7c-3.3,1.6-6.5,3.5-9.1,6.1L99.8,243.7
		c-2.6,2.6-4.8,5.6-6.1,9.1c-1.8,3.9-2.7,8.2-2.7,12.7l-0.1,6.8v396.2c0,13.1,10.8,23.9,23.9,23.9h382.5c13.1,0,23.9-10.8,23.9-23.9
		V123.5C521.2,110.3,510.4,99.6,497.2,99.6z"/>
	
		<linearGradient id="SVGID_1_" gradientUnits="userSpaceOnUse" x1="95.8" y1="862.4" x2="462.7" y2="1229.2999" gradientTransform="matrix(0.5977 0 0 -0.5977 0 869.3438)">
		<stop  offset="0" style="stop-color:#000000"/>
		<stop  offset="1" style="stop-color:#000000;stop-opacity:0"/>
	</linearGradient>
	<path opacity="0.7" fill="url(#SVGID_1_)" enable-background="new    " d="M235.1,108.6L99.8,244c-2.6,2.6-4.8,5.6-6.1,9.1
		c-1.8,3.9-2.7,8.2-2.7,12.7v121.9l144.2-144.2c5.9-5.9,9.1-13.5,9.1-21.6V102.3C240.9,103.9,237.7,106,235.1,108.6z"/>
	<path d="M256.9,99.6c-4.4,0-8.7,1-12.7,2.7c-3.3,1.6-6.5,3.5-9.1,6.1L99.8,243.7c-2.6,2.6-4.8,5.6-6.1,9.1
		c-1.8,3.9-2.7,8.2-2.7,12.7v4.9c0-9.8,7.8-17.6,17.6-17.6h104.9c16.9,0,30.6-13.7,30.6-30.6V117.1c0-9.8,7.8-17.6,17.6-17.6
		C261.7,99.6,256.9,99.6,256.9,99.6z"/>
</g>
<g>
	<path d="M409.9,441.2v-17l-16.1-5.7c-1.3-5.3-3.5-10.2-6.1-14.7l7.3-15.4l-12.1-12.1l-15.4,7.3c-4.5-2.6-9.4-4.8-14.7-6.1l-5.7-16
		h-17.1l-5.7,16c-5.3,1.3-10.2,3.5-14.7,6.1l-15.4-7.3l-12,12l7.3,15.4c-2.6,4.5-4.8,9.4-6.1,14.7l-16,5.7v17.1l16,5.7
		c1.3,5.3,3.5,10.2,6.1,14.7l-7.3,15.4l12.1,12.1l15.4-7.3c4.5,2.6,9.4,4.8,14.7,6.1l5.7,16.1h17.1l5.7-16.1
		c5.3-1.3,10.2-3.5,14.7-6.1l15.4,7.3l12.1-12.1l-7.3-15.4c2.6-4.5,4.8-9.4,6.1-14.7L409.9,441.2z M338.6,461.1
		c-15.8,0-28.6-12.8-28.6-28.6c0-15.8,12.8-28.6,28.6-28.6c15.8,0,28.6,12.8,28.6,28.6C367.1,448.4,354.4,461.1,338.6,461.1z"/>
	<path d="M249.3,349l-6.5,9.2l6.5,9.4l11-2.9c2.6,2.3,5.7,4.3,8.8,5.9l1.8,11.2l11.2,2.2l5.7-9.8c3.6-0.2,7.1-1.1,10.3-2.3l9.2,6.7
		l9.4-6.5l-3-11c2.4-2.6,4.3-5.7,5.9-8.8l11.1-1.8l2.2-11.2l-9.8-5.7c-0.2-3.6-1.1-7.1-2.3-10.3l6.6-9.2l-6.5-9.4l-11,2.9
		c-2.6-2.3-5.7-4.3-8.8-5.9l-1.8-11.2l-11.2-2.2l-5.7,9.8c-3.6,0.2-7.1,1.1-10.3,2.3l-9.2-6.7l-9.3,6.5l2.9,11
		c-2.3,2.6-4.3,5.7-5.9,8.8l-11.2,1.8l-2.2,11.2l9.8,5.7C247.3,342.2,248,345.7,249.3,349z M266.4,332.5
		c1.9-10.3,11.8-17.2,22.1-15.3c10.3,1.9,17.2,11.8,15.3,22.1c-1.9,10.3-11.8,17.2-22.1,15.3C271.3,352.8,264.6,342.9,266.4,332.5z"
		/>
	<path d="M264.9,421.6l7.9-2.9v-8.5l-7.9-2.9c-0.7-2.6-1.7-5-3.1-7.2l3.7-7.6l-6-6l-7.6,3.7c-2.3-1.3-4.7-2.4-7.3-3.1l-2.9-7.9h-8.5
		l-2.9,7.9c-2.6,0.7-5,1.7-7.3,3.1l-7.6-3.7l-6,6l3.7,7.6c-1.3,2.3-2.4,4.8-3.1,7.2l-7.9,2.9v8.5l7.9,2.9c0.7,2.6,1.7,5,3.1,7.2
		l-3.7,7.6l6,6l7.6-3.6c2.3,1.3,4.7,2.4,7.3,3l2.9,7.9h8.5l2.9-7.9c2.6-0.6,5-1.8,7.3-3l7.6,3.6l6-6l-3.7-7.6
		C263.1,426.5,264.3,424.1,264.9,421.6z M237.4,428.5c-7.8,0-14.2-6.2-14.2-14.2c0-7.8,6.2-14.2,14.2-14.2c7.8,0,14.2,6.2,14.2,14.2
		S245.3,428.5,237.4,428.5z"/>
</g>
</svg>
