<?xml version="1.0" encoding="utf-8"?>
<!-- Generator: Adobe Illustrator 18.0.0, SVG Export Plug-In . SVG Version: 6.00 Build 0)  -->
<!DOCTYPE svg PUBLIC "-//W3C//DTD SVG 1.1//EN" "http://www.w3.org/Graphics/SVG/1.1/DTD/svg11.dtd">
<svg version="1.1" id="Layer_1" xmlns="http://www.w3.org/2000/svg" xmlns:xlink="http://www.w3.org/1999/xlink" x="0px" y="0px"
	 viewBox="0 0 512 512" enable-background="new 0 0 512 512" xml:space="preserve">
<g>
	<path fill="#2196F3" d="M416,8H219h-4.1c-3.7,0-7.3,0.8-10.6,2.3c-2.8,1.3-5.4,2.9-7.6,5.1L83.5,128.6c-2.2,2.2-4,4.7-5.1,7.6
		c-1.5,3.3-2.3,6.9-2.3,10.6l-0.1,5.7V484c0,11,9,20,20,20h320c11,0,20-9,20-20V28C436,17,427,8,416,8z"/>
	<g>
		<linearGradient id="SVGID_1_" gradientUnits="userSpaceOnUse" x1="91.025" y1="271.025" x2="305.025" y2="57.025">
			<stop  offset="0" style="stop-color:#FFFFFF;stop-opacity:0.2"/>
			<stop  offset="1" style="stop-color:#FFFFFF;stop-opacity:0"/>
		</linearGradient>
		<path fill="url(#SVGID_1_)" d="M256,256V8h-37h-4.1c-3.7,0-7.3,0.8-10.6,2.3c-2.8,1.3-5.4,2.9-7.6,5.1L83.5,128.6
			c-2.2,2.2-4,4.7-5.1,7.6c-1.5,3.3-2.3,6.9-2.3,10.6l-0.1,5.7V256H256z"/>
		<linearGradient id="SVGID_2_" gradientUnits="userSpaceOnUse" x1="239" y1="239" x2="447.125" y2="30.875">
			<stop  offset="0" style="stop-color:#FFFFFF;stop-opacity:0.2"/>
			<stop  offset="1" style="stop-color:#FFFFFF;stop-opacity:0"/>
		</linearGradient>
		<path fill="url(#SVGID_2_)" d="M416,8H256v248h180V28C436,17,427,8,416,8z"/>
		<linearGradient id="SVGID_3_" gradientUnits="userSpaceOnUse" x1="64.875" y1="481.125" x2="273" y2="273">
			<stop  offset="0" style="stop-color:#FFFFFF;stop-opacity:0.2"/>
			<stop  offset="1" style="stop-color:#FFFFFF;stop-opacity:0"/>
		</linearGradient>
		<path fill="url(#SVGID_3_)" d="M76,484c0,11,9,20,20,20h160V256H76V484z"/>
		<linearGradient id="SVGID_4_" gradientUnits="userSpaceOnUse" x1="236.0625" y1="484.0625" x2="450.0625" y2="270.0625">
			<stop  offset="0" style="stop-color:#FFFFFF;stop-opacity:0.2"/>
			<stop  offset="1" style="stop-color:#FFFFFF;stop-opacity:0"/>
		</linearGradient>
		<path fill="url(#SVGID_4_)" d="M256,256v248h160c11,0,20-9,20-20V256H256z"/>
	</g>
	<g>
		<linearGradient id="SVGID_5_" gradientUnits="userSpaceOnUse" x1="76" y1="271.025" x2="256" y2="271.025">
			<stop  offset="0" style="stop-color:#FFFFFF;stop-opacity:0.2"/>
			<stop  offset="1" style="stop-color:#FFFFFF;stop-opacity:0"/>
		</linearGradient>
		<path fill="url(#SVGID_5_)" d="M256,256L106,106l-22.5,22.5c-2.2,2.2-4,4.7-5.1,7.6c-1.5,3.3-2.3,6.9-2.3,10.6l-0.1,5.7V436
			L256,256z"/>
		<linearGradient id="SVGID_6_" gradientUnits="userSpaceOnUse" x1="106.05" y1="132" x2="436" y2="132">
			<stop  offset="0" style="stop-color:#FFFFFF;stop-opacity:0.2"/>
			<stop  offset="1" style="stop-color:#FFFFFF;stop-opacity:0"/>
		</linearGradient>
		<path fill="url(#SVGID_6_)" d="M256,256L436,76V28c0-11-9-20-20-20H219h-4.1c-3.7,0-7.3,0.8-10.6,2.3c-2.8,1.3-5.4,2.9-7.6,5.1
			L106,106L256,256z"/>
		<linearGradient id="SVGID_7_" gradientUnits="userSpaceOnUse" x1="76" y1="380" x2="436" y2="380">
			<stop  offset="0" style="stop-color:#FFFFFF;stop-opacity:0.2"/>
			<stop  offset="1" style="stop-color:#FFFFFF;stop-opacity:0"/>
		</linearGradient>
		<path fill="url(#SVGID_7_)" d="M436,484v-48L256,256L76,436v48c0,11,9,20,20,20h320C427,504,436,495,436,484z"/>
		<linearGradient id="SVGID_8_" gradientUnits="userSpaceOnUse" x1="256" y1="256" x2="436" y2="256">
			<stop  offset="0" style="stop-color:#FFFFFF;stop-opacity:0.2"/>
			<stop  offset="1" style="stop-color:#FFFFFF;stop-opacity:0"/>
		</linearGradient>
		<polygon fill="url(#SVGID_8_)" points="436,436 436,76 256,256 		"/>
	</g>
	<g>
		<g>
			<g>
				<polygon fill="#5B5B5B" points="353.3,354.7 347.3,354.7 347.3,351.9 350.5,351.9 350.5,348.7 353.3,348.7 				"/>
				<path fill="#5B5B5B" d="M342.7,354.7h-9.1v-2.8h9.1V354.7z M329,354.7h-9.1v-2.8h9.1V354.7z M315.3,354.7h-9.1v-2.8h9.1V354.7z
					 M301.6,354.7h-9.1v-2.8h9.1V354.7z M287.9,354.7h-9.1v-2.8h9.1V354.7z M274.3,354.7h-9.1v-2.8h9.1V354.7z M260.6,354.7h-9.1
					v-2.8h9.1V354.7z M246.9,354.7h-9.1v-2.8h9.1V354.7z M233.2,354.7h-9.1v-2.8h9.1V354.7z M219.5,354.7h-9.1v-2.8h9.1V354.7z
					 M205.8,354.7h-9.1v-2.8h9.1V354.7z M192.1,354.7H183v-2.8h9.1V354.7z M178.4,354.7h-9.1v-2.8h9.1V354.7z"/>
				<polygon fill="#5B5B5B" points="164.7,354.7 158.7,354.7 158.7,348.7 161.5,348.7 161.5,351.9 164.7,351.9 				"/>
				<path fill="#5B5B5B" d="M161.5,344.1h-2.8V335h2.8V344.1z M161.5,330.4h-2.8v-9.1h2.8V330.4z M161.5,316.7h-2.8v-9.1h2.8V316.7z
					 M161.5,303h-2.8v-9.1h2.8V303z M161.5,289.3h-2.8v-9.1h2.8V289.3z M161.5,275.7h-2.8v-9.1h2.8V275.7z M161.5,262h-2.8v-9.1h2.8
					V262z M161.5,248.3h-2.8v-9.1h2.8V248.3z M161.5,234.6h-2.8v-9.1h2.8V234.6z M161.5,220.9h-2.8v-9.1h2.8V220.9z M161.5,207.2
					h-2.8v-9.1h2.8V207.2z M161.5,193.5h-2.8v-9.1h2.8V193.5z M161.5,179.8h-2.8v-9.1h2.8V179.8z"/>
				<polygon fill="#5B5B5B" points="161.5,166.1 158.7,166.1 158.7,160.1 164.7,160.1 164.7,162.9 161.5,162.9 				"/>
				<path fill="#5B5B5B" d="M342.7,162.9h-9.1v-2.8h9.1V162.9z M329,162.9h-9.1v-2.8h9.1V162.9z M315.3,162.9h-9.1v-2.8h9.1V162.9z
					 M301.6,162.9h-9.1v-2.8h9.1V162.9z M287.9,162.9h-9.1v-2.8h9.1V162.9z M274.3,162.9h-9.1v-2.8h9.1V162.9z M260.6,162.9h-9.1
					v-2.8h9.1V162.9z M246.9,162.9h-9.1v-2.8h9.1V162.9z M233.2,162.9h-9.1v-2.8h9.1V162.9z M219.5,162.9h-9.1v-2.8h9.1V162.9z
					 M205.8,162.9h-9.1v-2.8h9.1V162.9z M192.1,162.9H183v-2.8h9.1V162.9z M178.4,162.9h-9.1v-2.8h9.1V162.9z"/>
				<polygon fill="#5B5B5B" points="353.3,166.1 350.5,166.1 350.5,162.9 347.3,162.9 347.3,160.1 353.3,160.1 				"/>
				<path fill="#5B5B5B" d="M353.3,344.1h-2.8V335h2.8V344.1z M353.3,330.4h-2.8v-9.1h2.8V330.4z M353.3,316.7h-2.8v-9.1h2.8V316.7z
					 M353.3,303h-2.8v-9.1h2.8V303z M353.3,289.3h-2.8v-9.1h2.8V289.3z M353.3,275.7h-2.8v-9.1h2.8V275.7z M353.3,262h-2.8v-9.1h2.8
					V262z M353.3,248.3h-2.8v-9.1h2.8V248.3z M353.3,234.6h-2.8v-9.1h2.8V234.6z M353.3,220.9h-2.8v-9.1h2.8V220.9z M353.3,207.2
					h-2.8v-9.1h2.8V207.2z M353.3,193.5h-2.8v-9.1h2.8V193.5z M353.3,179.8h-2.8v-9.1h2.8V179.8z"/>
				<path fill="#5B5B5B" d="M351.9,182.7h-8.9v-2.8h8.9V182.7z M339.3,182.7H330v-2.8h9.3V182.7z M326.3,182.7h-9.3v-2.8h9.3V182.7z
					 M313.2,182.7h-9.3v-2.8h9.3V182.7z M300.1,182.7h-9.3v-2.8h9.3V182.7z M287,182.7h-9.3v-2.8h9.3V182.7z M274,182.7h-9.3v-2.8
					h9.3V182.7z M260.9,182.7h-9.3v-2.8h9.3V182.7z M247.8,182.7h-9.3v-2.8h9.3V182.7z M234.8,182.7h-9.3v-2.8h9.3V182.7z
					 M221.7,182.7h-9.3v-2.8h9.3V182.7z M208.6,182.7h-9.3v-2.8h9.3V182.7z M195.5,182.7h-9.3v-2.8h9.3V182.7z M182.5,182.7h-9.3
					v-2.8h9.3V182.7z M169.4,182.7h-9.3v-2.8h9.3V182.7z"/>
			</g>
			<g>
				<g>
					<polygon fill="#5B5B5B" points="343.3,344.7 337.2,344.7 337.2,341.9 340.5,341.9 340.5,338.6 343.3,338.6 					"/>
					<path fill="#5B5B5B" d="M333.6,344.7h-9v-2.8h9V344.7z M321.1,344.7h-9v-2.8h9V344.7z M308.5,344.7h-9v-2.8h9V344.7z"/>
					<polygon fill="#5B5B5B" points="296,344.7 289.9,344.7 289.9,338.6 292.7,338.6 292.7,341.9 296,341.9 					"/>
					<polygon fill="#5B5B5B" points="292.7,331.2 289.9,331.2 289.9,325.1 296,325.1 296,327.9 292.7,327.9 					"/>
					<path fill="#5B5B5B" d="M333.6,327.9h-9v-2.8h9V327.9z M321.1,327.9h-9v-2.8h9V327.9z M308.5,327.9h-9v-2.8h9V327.9z"/>
					<polygon fill="#5B5B5B" points="343.3,331.2 340.5,331.2 340.5,327.9 337.2,327.9 337.2,325.1 343.3,325.1 					"/>
				</g>
				<g>
					<polygon fill="#5B5B5B" points="281.2,344.7 275.1,344.7 275.1,341.9 278.4,341.9 278.4,338.6 281.2,338.6 					"/>
					<path fill="#5B5B5B" d="M271.6,344.7h-9v-2.8h9V344.7z M259,344.7h-9v-2.8h9V344.7z M246.5,344.7h-9v-2.8h9V344.7z"/>
					<polygon fill="#5B5B5B" points="233.9,344.7 227.8,344.7 227.8,338.6 230.6,338.6 230.6,341.9 233.9,341.9 					"/>
					<polygon fill="#5B5B5B" points="230.6,331.2 227.8,331.2 227.8,325.1 233.9,325.1 233.9,327.9 230.6,327.9 					"/>
					<path fill="#5B5B5B" d="M271.6,327.9h-9v-2.8h9V327.9z M259,327.9h-9v-2.8h9V327.9z M246.5,327.9h-9v-2.8h9V327.9z"/>
					<polygon fill="#5B5B5B" points="281.2,331.2 278.4,331.2 278.4,327.9 275.1,327.9 275.1,325.1 281.2,325.1 					"/>
				</g>
			</g>
		</g>
		<g>
			<g>
				<polygon fill="#1976D2" points="353.3,351.9 347.3,351.9 347.3,349.1 350.5,349.1 350.5,345.9 353.3,345.9 				"/>
				<path fill="#1976D2" d="M342.7,351.9h-9.1v-2.8h9.1V351.9z M329,351.9h-9.1v-2.8h9.1V351.9z M315.3,351.9h-9.1v-2.8h9.1V351.9z
					 M301.6,351.9h-9.1v-2.8h9.1V351.9z M287.9,351.9h-9.1v-2.8h9.1V351.9z M274.3,351.9h-9.1v-2.8h9.1V351.9z M260.6,351.9h-9.1
					v-2.8h9.1V351.9z M246.9,351.9h-9.1v-2.8h9.1V351.9z M233.2,351.9h-9.1v-2.8h9.1V351.9z M219.5,351.9h-9.1v-2.8h9.1V351.9z
					 M205.8,351.9h-9.1v-2.8h9.1V351.9z M192.1,351.9H183v-2.8h9.1V351.9z M178.4,351.9h-9.1v-2.8h9.1V351.9z"/>
				<polygon fill="#1976D2" points="164.7,351.9 158.7,351.9 158.7,345.9 161.5,345.9 161.5,349.1 164.7,349.1 				"/>
				<path fill="#1976D2" d="M161.5,341.3h-2.8v-9.1h2.8V341.3z M161.5,327.6h-2.8v-9.1h2.8V327.6z M161.5,313.9h-2.8v-9.1h2.8V313.9
					z M161.5,300.2h-2.8v-9.1h2.8V300.2z M161.5,286.5h-2.8v-9.1h2.8V286.5z M161.5,272.9h-2.8v-9.1h2.8V272.9z M161.5,259.2h-2.8
					V250h2.8V259.2z M161.5,245.5h-2.8v-9.1h2.8V245.5z M161.5,231.8h-2.8v-9.1h2.8V231.8z M161.5,218.1h-2.8V209h2.8V218.1z
					 M161.5,204.4h-2.8v-9.1h2.8V204.4z M161.5,190.7h-2.8v-9.1h2.8V190.7z M161.5,177h-2.8v-9.1h2.8V177z"/>
				<polygon fill="#1976D2" points="161.5,163.3 158.7,163.3 158.7,157.3 164.7,157.3 164.7,160.1 161.5,160.1 				"/>
				<path fill="#1976D2" d="M342.7,160.1h-9.1v-2.8h9.1V160.1z M329,160.1h-9.1v-2.8h9.1V160.1z M315.3,160.1h-9.1v-2.8h9.1V160.1z
					 M301.6,160.1h-9.1v-2.8h9.1V160.1z M287.9,160.1h-9.1v-2.8h9.1V160.1z M274.3,160.1h-9.1v-2.8h9.1V160.1z M260.6,160.1h-9.1
					v-2.8h9.1V160.1z M246.9,160.1h-9.1v-2.8h9.1V160.1z M233.2,160.1h-9.1v-2.8h9.1V160.1z M219.5,160.1h-9.1v-2.8h9.1V160.1z
					 M205.8,160.1h-9.1v-2.8h9.1V160.1z M192.1,160.1H183v-2.8h9.1V160.1z M178.4,160.1h-9.1v-2.8h9.1V160.1z"/>
				<polygon fill="#1976D2" points="353.3,163.3 350.5,163.3 350.5,160.1 347.3,160.1 347.3,157.3 353.3,157.3 				"/>
				<path fill="#1976D2" d="M353.3,341.3h-2.8v-9.1h2.8V341.3z M353.3,327.6h-2.8v-9.1h2.8V327.6z M353.3,313.9h-2.8v-9.1h2.8V313.9
					z M353.3,300.2h-2.8v-9.1h2.8V300.2z M353.3,286.5h-2.8v-9.1h2.8V286.5z M353.3,272.9h-2.8v-9.1h2.8V272.9z M353.3,259.2h-2.8
					V250h2.8V259.2z M353.3,245.5h-2.8v-9.1h2.8V245.5z M353.3,231.8h-2.8v-9.1h2.8V231.8z M353.3,218.1h-2.8V209h2.8V218.1z
					 M353.3,204.4h-2.8v-9.1h2.8V204.4z M353.3,190.7h-2.8v-9.1h2.8V190.7z M353.3,177h-2.8v-9.1h2.8V177z"/>
				<path fill="#1976D2" d="M351.9,179.9h-8.9v-2.8h8.9V179.9z M339.3,179.9H330v-2.8h9.3V179.9z M326.3,179.9h-9.3v-2.8h9.3V179.9z
					 M313.2,179.9h-9.3v-2.8h9.3V179.9z M300.1,179.9h-9.3v-2.8h9.3V179.9z M287,179.9h-9.3v-2.8h9.3V179.9z M274,179.9h-9.3v-2.8
					h9.3V179.9z M260.9,179.9h-9.3v-2.8h9.3V179.9z M247.8,179.9h-9.3v-2.8h9.3V179.9z M234.8,179.9h-9.3v-2.8h9.3V179.9z
					 M221.7,179.9h-9.3v-2.8h9.3V179.9z M208.6,179.9h-9.3v-2.8h9.3V179.9z M195.5,179.9h-9.3v-2.8h9.3V179.9z M182.5,179.9h-9.3
					v-2.8h9.3V179.9z M169.4,179.9h-9.3v-2.8h9.3V179.9z"/>
			</g>
			<g>
				<g>
					<polygon fill="#1976D2" points="343.3,341.9 337.2,341.9 337.2,339.1 340.5,339.1 340.5,335.8 343.3,335.8 					"/>
					<path fill="#1976D2" d="M333.6,341.9h-9v-2.8h9V341.9z M321.1,341.9h-9v-2.8h9V341.9z M308.5,341.9h-9v-2.8h9V341.9z"/>
					<polygon fill="#1976D2" points="296,341.9 289.9,341.9 289.9,335.8 292.7,335.8 292.7,339.1 296,339.1 					"/>
					<polygon fill="#1976D2" points="292.7,328.4 289.9,328.4 289.9,322.3 296,322.3 296,325.1 292.7,325.1 					"/>
					<path fill="#1976D2" d="M333.6,325.1h-9v-2.8h9V325.1z M321.1,325.1h-9v-2.8h9V325.1z M308.5,325.1h-9v-2.8h9V325.1z"/>
					<polygon fill="#1976D2" points="343.3,328.4 340.5,328.4 340.5,325.1 337.2,325.1 337.2,322.3 343.3,322.3 					"/>
				</g>
				<g>
					<polygon fill="#1976D2" points="281.2,341.9 275.1,341.9 275.1,339.1 278.4,339.1 278.4,335.8 281.2,335.8 					"/>
					<path fill="#1976D2" d="M271.6,341.9h-9v-2.8h9V341.9z M259,341.9h-9v-2.8h9V341.9z M246.5,341.9h-9v-2.8h9V341.9z"/>
					<polygon fill="#1976D2" points="233.9,341.9 227.8,341.9 227.8,335.8 230.6,335.8 230.6,339.1 233.9,339.1 					"/>
					<polygon fill="#1976D2" points="230.6,328.4 227.8,328.4 227.8,322.3 233.9,322.3 233.9,325.1 230.6,325.1 					"/>
					<path fill="#1976D2" d="M271.6,325.1h-9v-2.8h9V325.1z M259,325.1h-9v-2.8h9V325.1z M246.5,325.1h-9v-2.8h9V325.1z"/>
					<polygon fill="#1976D2" points="281.2,328.4 278.4,328.4 278.4,325.1 275.1,325.1 275.1,322.3 281.2,322.3 					"/>
				</g>
			</g>
		</g>
	</g>
	
		<linearGradient id="SVGID_9_" gradientUnits="userSpaceOnUse" x1="95.8" y1="-70.4" x2="462.7" y2="-437.3" gradientTransform="matrix(0.5 0 0 0.5 0 256)">
		<stop  offset="0" style="stop-color:#000000"/>
		<stop  offset="1" style="stop-color:#000000;stop-opacity:0"/>
	</linearGradient>
	<path opacity="0.7" fill="url(#SVGID_9_)" enable-background="new    " d="M196.7,15.6L83.5,128.8c-2.2,2.2-4,4.7-5.1,7.6
		c-1.5,3.3-2.3,6.9-2.3,10.6v102l120.6-120.6c4.9-4.9,7.6-11.3,7.6-18.1v-100C201.5,11.6,198.9,13.4,196.7,15.6z"/>
	<path fill="#000000" d="M214.9,8c-3.7,0-7.3,0.8-10.6,2.3c-2.8,1.3-5.4,2.9-7.6,5.1L83.5,128.6c-2.2,2.2-4,4.7-5.1,7.6
		c-1.5,3.3-2.3,6.9-2.3,10.6v4.1c0-8.2,6.5-14.7,14.7-14.7h87.8c14.1,0,25.6-11.5,25.6-25.6V22.7c0-8.2,6.5-14.7,14.7-14.7H214.9z"
		/>
</g>
</svg>
