<?xml version="1.0" encoding="utf-8"?>
<!-- Generator: Adobe Illustrator 22.0.1, SVG Export Plug-In . SVG Version: 6.00 Build 0)  -->
<svg version="1.1" id="Layer_2" xmlns="http://www.w3.org/2000/svg" xmlns:xlink="http://www.w3.org/1999/xlink" x="0px" y="0px"
	 viewBox="0 0 512 512" enable-background="new 0 0 512 512" xml:space="preserve">
<path fill="#825E46" d="M411,486H101c-41.25,0-75-33.75-75-75V101c0-41.25,33.75-75,75-75h310c41.25,0,75,33.75,75,75v310
	C486,452.25,452.25,486,411,486z"/>
<g>
	<linearGradient id="SVGID_1_" gradientUnits="userSpaceOnUse" x1="256" y1="443.0137" x2="256" y2="227.272">
		<stop  offset="0" style="stop-color:#825E46"/>
		<stop  offset="0.3286" style="stop-color:#73523C"/>
		<stop  offset="0.9622" style="stop-color:#4B3423"/>
		<stop  offset="1" style="stop-color:#483221"/>
	</linearGradient>
	<polygon fill="url(#SVGID_1_)" points="68.934,443.014 256,227.272 443.066,443.014 	"/>
	<linearGradient id="SVGID_2_" gradientUnits="userSpaceOnUse" x1="220.7082" y1="256" x2="447.5698" y2="256">
		<stop  offset="0" style="stop-color:#483221"/>
		<stop  offset="0.3122" style="stop-color:#563D2A"/>
		<stop  offset="0.9016" style="stop-color:#7B5942"/>
		<stop  offset="1" style="stop-color:#825E46"/>
	</linearGradient>
	<polygon fill="url(#SVGID_2_)" points="447.57,445.439 220.708,256 447.57,66.561 	"/>
	<linearGradient id="SVGID_3_" gradientUnits="userSpaceOnUse" x1="64.4302" y1="256" x2="291.2918" y2="256">
		<stop  offset="0" style="stop-color:#825E46"/>
		<stop  offset="0.0984" style="stop-color:#7B5942"/>
		<stop  offset="0.6878" style="stop-color:#563D2A"/>
		<stop  offset="1" style="stop-color:#483221"/>
	</linearGradient>
	<polygon fill="url(#SVGID_3_)" points="64.43,445.439 291.292,256 64.43,66.561 	"/>
</g>
<g display="none">
	<g display="inline" opacity="0.95" enable-background="new    ">
		<circle opacity="0.95" fill="#F45C08" enable-background="new    " cx="256" cy="250.081" r="129.794"/>
		<path fill="#FFFFFF" d="M253.249,352.989c-0.008,0-0.017,0-0.025,0c-3.367-0.033-6.762-0.127-10.088-0.279
			c-1.399-0.063-2.482-1.25-2.418-2.649c0.064-1.4,1.229-2.492,2.65-2.418c3.266,0.149,6.599,0.241,9.906,0.273
			c1.401,0.014,2.525,1.16,2.512,2.561C255.771,351.869,254.638,352.989,253.249,352.989z M265.239,352.852
			c-1.361,0-2.488-1.081-2.533-2.452c-0.046-1.4,1.051-2.573,2.451-2.62c3.326-0.11,6.65-0.28,9.881-0.507
			c1.401-0.095,2.61,0.955,2.708,2.353c0.098,1.397-0.956,2.61-2.353,2.708c-3.292,0.231-6.68,0.404-10.067,0.517
			C265.296,352.852,265.268,352.852,265.239,352.852z M231.291,351.894c-0.078,0-0.156-0.003-0.235-0.011
			c-3.416-0.314-6.794-0.698-10.04-1.138c-1.388-0.189-2.36-1.467-2.171-2.855c0.189-1.388,1.471-2.36,2.855-2.172
			c3.173,0.432,6.477,0.806,9.821,1.115c1.395,0.128,2.421,1.363,2.293,2.757C233.693,350.906,232.587,351.894,231.291,351.894z
			 M287.151,351.215c-1.266,0-2.361-0.946-2.516-2.235c-0.166-1.391,0.826-2.653,2.217-2.82c3.344-0.4,6.631-0.872,9.77-1.402
			c1.386-0.237,2.691,0.698,2.924,2.078c0.234,1.382-0.697,2.691-2.078,2.924c-3.22,0.544-6.59,1.027-10.014,1.438
			C287.353,351.209,287.251,351.215,287.151,351.215z M209.534,348.793c-0.165,0-0.334-0.016-0.503-0.05
			c-3.47-0.699-6.799-1.483-9.896-2.332c-1.351-0.371-2.146-1.767-1.775-3.117c0.371-1.351,1.769-2.143,3.117-1.775
			c2.985,0.818,6.199,1.576,9.555,2.251c1.373,0.276,2.262,1.614,1.986,2.987C211.776,347.962,210.717,348.793,209.534,348.793z
			 M308.789,347.387c-1.14,0-2.177-0.775-2.461-1.932c-0.334-1.36,0.497-2.735,1.858-3.068c3.344-0.821,6.502-1.735,9.388-2.714
			c1.329-0.452,2.766,0.26,3.217,1.586s-0.26,2.767-1.586,3.217c-3.023,1.026-6.323,1.981-9.808,2.837
			C309.193,347.362,308.989,347.387,308.789,347.387z M188.448,342.678c-0.323,0-0.651-0.062-0.968-0.193
			c-3.53-1.46-6.654-3.065-9.286-4.773c-1.175-0.762-1.51-2.333-0.748-3.508c0.762-1.176,2.334-1.509,3.508-0.748
			c2.373,1.539,5.221,2.999,8.465,4.341c1.294,0.536,1.91,2.019,1.374,3.313C190.388,342.087,189.444,342.678,188.448,342.678z
			 M329.406,339.911c-0.9,0-1.772-0.48-2.231-1.326c-0.668-1.232-0.212-2.771,1.018-3.44c3.085-1.675,5.608-3.484,7.498-5.373
			c0.991-0.991,2.596-0.991,3.587,0c0.991,0.991,0.991,2.596,0,3.587c-2.235,2.235-5.15,4.336-8.663,6.245
			C330.23,339.812,329.815,339.911,329.406,339.911z M171.032,329.843c-0.809,0-1.604-0.385-2.095-1.104
			c-1.773-2.591-3.44-5.693-4.954-9.222c-0.552-1.288,0.043-2.779,1.331-3.332c1.288-0.55,2.778,0.044,3.331,1.331
			c1.385,3.227,2.892,6.04,4.479,8.358c0.791,1.156,0.495,2.735-0.66,3.526C172.024,329.7,171.526,329.843,171.032,329.843z
			 M344.18,324.313c-0.379,0-0.765-0.086-1.128-0.267c-1.254-0.624-1.766-2.146-1.141-3.4c1.305-2.623,2.535-5.626,3.657-8.926
			c0.452-1.326,1.892-2.038,3.218-1.585c1.327,0.451,2.036,1.891,1.585,3.218c-1.195,3.513-2.514,6.727-3.919,9.552
			C346.009,323.797,345.112,324.313,344.18,324.313z M162.372,309.739c-1.106,0-2.123-0.729-2.439-1.847
			c-0.872-3.081-1.68-6.407-2.401-9.885c-0.284-1.372,0.597-2.715,1.969-2.999c1.369-0.281,2.714,0.597,2.998,1.969
			c0.697,3.36,1.476,6.568,2.315,9.534c0.382,1.347-0.402,2.749-1.75,3.131C162.833,309.707,162.601,309.739,162.372,309.739z
			 M351.217,303.533c-0.189,0-0.381-0.022-0.574-0.066c-1.365-0.316-2.215-1.678-1.899-3.043c0.705-3.047,1.351-6.293,1.92-9.652
			c0.235-1.38,1.545-2.311,2.925-2.077c1.381,0.234,2.31,1.544,2.077,2.925c-0.586,3.457-1.251,6.804-1.98,9.947
			C353.414,302.741,352.371,303.533,351.217,303.533z M157.977,288.212c-1.244,0-2.33-0.915-2.509-2.183
			c-0.456-3.238-0.853-6.614-1.182-10.037c-0.134-1.395,0.888-2.633,2.283-2.767c1.395-0.13,2.633,0.888,2.767,2.282
			c0.322,3.349,0.71,6.651,1.155,9.815c0.195,1.387-0.771,2.67-2.158,2.865C158.213,288.204,158.094,288.212,157.977,288.212z
			 M354.82,281.856c-0.093,0-0.188-0.005-0.283-0.016c-1.392-0.155-2.396-1.409-2.24-2.801c0.357-3.209,0.656-6.523,0.89-9.851
			c0.098-1.398,1.305-2.452,2.709-2.352c1.397,0.099,2.45,1.311,2.352,2.709c-0.239,3.395-0.545,6.778-0.91,10.055
			C357.194,280.897,356.095,281.856,354.82,281.856z M155.947,266.326c-1.344,0-2.465-1.055-2.531-2.412
			c-0.163-3.321-0.269-6.712-0.314-10.077c-0.018-1.401,1.102-2.551,2.503-2.57c0.011,0,0.023,0,0.034,0
			c1.386,0,2.518,1.114,2.536,2.503c0.044,3.305,0.147,6.635,0.308,9.895c0.069,1.399-1.01,2.589-2.409,2.658
			C156.031,266.325,155.989,266.326,155.947,266.326z M356.291,259.924c-0.022,0-0.045,0-0.067-0.001
			c-1.4-0.037-2.506-1.201-2.469-2.602c0.062-2.397,0.094-4.833,0.094-7.241c0.001-0.89-0.003-1.776-0.012-2.662
			c-0.014-1.401,1.111-2.548,2.511-2.562c0.009,0,0.018,0,0.027,0c1.389,0,2.522,1.119,2.535,2.511
			c0.009,0.905,0.013,1.81,0.012,2.716c0,2.448-0.033,4.929-0.096,7.37C358.79,258.832,357.662,259.924,356.291,259.924z
			 M155.736,244.346c-0.025,0-0.051-0.001-0.076-0.001c-1.4-0.041-2.502-1.21-2.461-2.61c0.1-3.373,0.261-6.763,0.481-10.075
			c0.093-1.398,1.306-2.454,2.699-2.363c1.398,0.093,2.456,1.301,2.363,2.699c-0.216,3.25-0.375,6.577-0.472,9.889
			C158.23,243.259,157.103,244.346,155.736,244.346z M355.999,237.945c-1.34,0-2.459-1.049-2.53-2.402
			c-0.177-3.337-0.416-6.658-0.71-9.87c-0.128-1.395,0.9-2.63,2.295-2.757c1.392-0.12,2.63,0.9,2.756,2.295
			c0.3,3.276,0.544,6.662,0.724,10.064c0.074,1.398-0.999,2.593-2.398,2.667C356.09,237.944,356.045,237.945,355.999,237.945z
			 M157.293,222.421c-0.097,0-0.195-0.005-0.294-0.017c-1.392-0.161-2.389-1.419-2.229-2.81c0.395-3.426,0.863-6.796,1.391-10.017
			c0.226-1.383,1.529-2.321,2.913-2.094c1.383,0.226,2.32,1.531,2.094,2.913c-0.515,3.143-0.971,6.433-1.358,9.779
			C159.661,221.468,158.564,222.421,157.293,222.421z M353.881,216.07c-1.239,0-2.323-0.909-2.507-2.172
			c-0.49-3.367-1.052-6.636-1.67-9.715c-0.275-1.374,0.614-2.71,1.987-2.986c1.375-0.271,2.711,0.614,2.986,1.987
			c0.636,3.168,1.214,6.526,1.716,9.983c0.202,1.386-0.758,2.673-2.144,2.875C354.126,216.061,354.002,216.07,353.881,216.07z
			 M161.006,200.764c-0.195,0-0.393-0.022-0.591-0.07c-1.362-0.325-2.203-1.693-1.879-3.056c0.831-3.486,1.758-6.791,2.754-9.823
			c0.437-1.332,1.872-2.058,3.201-1.618c1.331,0.437,2.056,1.87,1.618,3.201c-0.952,2.9-1.84,6.068-2.639,9.418
			C163.193,199.98,162.154,200.764,161.006,200.764z M349.358,194.571c-1.099,0-2.111-0.719-2.434-1.827
			c-0.97-3.328-2.04-6.416-3.18-9.18c-0.535-1.294,0.081-2.778,1.376-3.312c1.3-0.534,2.779,0.083,3.312,1.377
			c1.21,2.931,2.341,6.193,3.363,9.695c0.391,1.344-0.38,2.753-1.725,3.145C349.832,194.539,349.593,194.571,349.358,194.571z
			 M168.252,180.065c-0.394,0-0.794-0.092-1.167-0.286c-1.243-0.645-1.727-2.177-1.081-3.42c1.828-3.521,3.842-6.479,5.982-8.792
			c0.952-1.027,2.556-1.089,3.585-0.139c1.028,0.952,1.09,2.556,0.139,3.585c-1.833,1.981-3.584,4.566-5.205,7.684
			C170.054,179.566,169.169,180.065,168.252,180.065z M340.417,174.603c-0.786,0-1.56-0.364-2.056-1.049
			c-0.863-1.191-1.762-2.256-2.67-3.164c-1.077-1.077-2.369-2.137-3.841-3.149c-1.154-0.793-1.448-2.372-0.654-3.527
			c0.795-1.155,2.373-1.447,3.527-0.653c1.728,1.187,3.26,2.446,4.556,3.742c1.097,1.097,2.171,2.367,3.19,3.776
			c0.822,1.134,0.569,2.72-0.566,3.542C341.453,174.447,340.933,174.603,340.417,174.603z M183.514,164.84
			c-0.917,0-1.803-0.499-2.255-1.371c-0.644-1.244-0.158-2.774,1.086-3.419c2.794-1.447,5.997-2.807,9.517-4.042
			c1.322-0.465,2.77,0.232,3.233,1.554c0.464,1.322-0.232,2.769-1.554,3.233c-3.297,1.157-6.279,2.422-8.864,3.76
			C184.305,164.748,183.907,164.84,183.514,164.84z M322.657,162.195c-0.313,0-0.631-0.058-0.939-0.181
			c-2.783-1.111-5.885-2.153-9.22-3.099c-1.347-0.382-2.13-1.785-1.748-3.132c0.382-1.347,1.782-2.131,3.133-1.748
			c3.501,0.994,6.77,2.093,9.716,3.269c1.301,0.519,1.935,1.994,1.416,3.296C324.618,161.59,323.665,162.195,322.657,162.195z
			 M204.214,157.606c-1.148,0-2.188-0.784-2.466-1.949c-0.324-1.363,0.517-2.731,1.88-3.055c3.136-0.747,6.482-1.431,9.942-2.034
			c1.386-0.238,2.694,0.684,2.934,2.063c0.24,1.38-0.684,2.694-2.063,2.934c-3.359,0.585-6.602,1.248-9.638,1.971
			C204.605,157.584,204.408,157.606,204.214,157.606z M301.525,156.254c-0.161,0-0.325-0.015-0.489-0.048
			c-3.091-0.603-6.363-1.15-9.724-1.624c-1.387-0.196-2.352-1.479-2.157-2.866c0.195-1.387,1.472-2.347,2.866-2.157
			c3.448,0.486,6.809,1.048,9.988,1.668c1.374,0.269,2.271,1.601,2.003,2.975C303.775,155.414,302.714,156.254,301.525,156.254z
			 M225.872,153.899c-1.271,0-2.368-0.953-2.517-2.247c-0.161-1.392,0.838-2.649,2.23-2.809c3.269-0.376,6.652-0.695,10.053-0.946
			c1.402-0.109,2.613,0.946,2.716,2.343c0.103,1.397-0.946,2.613-2.343,2.716c-3.333,0.246-6.646,0.558-9.847,0.926
			C226.067,153.894,225.969,153.899,225.872,153.899z M279.755,153.253c-0.074,0-0.15-0.003-0.225-0.01
			c-3.23-0.284-6.552-0.512-9.874-0.676c-1.399-0.069-2.477-1.26-2.408-2.659c0.069-1.399,1.268-2.485,2.659-2.408
			c3.385,0.168,6.773,0.4,10.066,0.69c1.396,0.123,2.427,1.353,2.305,2.749C282.162,152.259,281.055,153.253,279.755,153.253z
			 M247.796,152.351c-1.366,0-2.494-1.087-2.534-2.462c-0.041-1.4,1.061-2.569,2.461-2.61c3.322-0.097,6.716-0.135,10.083-0.115
			c1.401,0.008,2.529,1.15,2.522,2.551c-0.008,1.396-1.142,2.522-2.536,2.522c-0.005,0-0.01,0-0.015,0
			c-3.31-0.019-6.642,0.018-9.904,0.113C247.847,152.35,247.822,152.351,247.796,152.351z"/>
	</g>
	<g display="inline">
		<path fill="#DBDBDB" d="M273.028,417.025c0.315,2.179-1.228,3.961-3.429,3.961h-27.215c-2.201,0-3.736-1.781-3.41-3.958
			l7.651-51.098c0.326-2.177,2.394-3.958,4.595-3.958h9.841c2.201,0,4.26,1.782,4.575,3.961L273.028,417.025z"/>
		<g>
			<path fill="#DBDBDB" d="M265.405,355.259c0,2.201-1.801,4.002-4.002,4.002h-10.806c-2.201,0-4.002-1.801-4.002-4.002v-10.806
				c0-2.201,1.801-4.002,4.002-4.002h10.806c2.201,0,4.002,1.801,4.002,4.002V355.259z"/>
			<path fill="#F9F9F9" d="M263.008,353.882c0,1.64-1.342,2.982-2.982,2.982h-8.052c-1.64,0-2.982-1.342-2.982-2.982v-8.052
				c0-1.64,1.342-2.982,2.982-2.982h8.052c1.64,0,2.982,1.342,2.982,2.982V353.882z"/>
		</g>
		<path fill="#F9F9F9" d="M269.535,409.383c0.251,1.732-0.976,3.148-2.726,3.148h-21.632c-1.75,0-2.969-1.416-2.71-3.146
			l6.081-40.615c0.259-1.73,1.903-3.146,3.652-3.146h7.822c1.75,0,3.386,1.417,3.637,3.148L269.535,409.383z"/>
	</g>
</g>
<circle opacity="0.95" fill="#0AD6F2" enable-background="new    " cx="256" cy="256" r="128.85"/>
<g opacity="0.95" enable-background="new    ">
	
		<circle fill="none" stroke="#FFFFFF" stroke-width="5" stroke-linecap="round" stroke-linejoin="round" stroke-dasharray="10.0859,10.0859" cx="256" cy="256" r="102.73"/>
</g>
<g>
	<path fill="#DBDBDB" d="M273.028,423.025c0.315,2.179-1.228,3.961-3.429,3.961h-27.215c-2.201,0-3.736-1.781-3.41-3.958
		l7.651-51.098c0.326-2.177,2.394-3.958,4.595-3.958h9.841c2.201,0,4.26,1.782,4.575,3.961L273.028,423.025z"/>
	<g>
		<path fill="#DBDBDB" d="M265.405,361.259c0,2.201-1.801,4.002-4.002,4.002h-10.806c-2.201,0-4.002-1.801-4.002-4.002v-10.806
			c0-2.201,1.801-4.002,4.002-4.002h10.806c2.201,0,4.002,1.801,4.002,4.002V361.259z"/>
		<path fill="#F9F9F9" d="M263.008,359.882c0,1.64-1.342,2.982-2.982,2.982h-8.052c-1.64,0-2.982-1.342-2.982-2.982v-8.052
			c0-1.64,1.342-2.982,2.982-2.982h8.052c1.64,0,2.982,1.342,2.982,2.982V359.882z"/>
	</g>
	<path fill="#F9F9F9" d="M269.535,415.383c0.251,1.732-0.976,3.148-2.726,3.148h-21.632c-1.75,0-2.969-1.416-2.71-3.146
		l6.081-40.615c0.259-1.73,1.903-3.146,3.652-3.146h7.822c1.75,0,3.386,1.417,3.637,3.148L269.535,415.383z"/>
</g>
<g>
	<path fill="#FFFFFF" d="M198.803,274.521h24.225v9.165h-35.634v-55.371h11.409V274.521z"/>
	<path fill="#FFFFFF" d="M274.635,283.686h-11.409v-23.73h-22.248v23.73h-11.409v-55.371h11.409v22.438h22.248v-22.438h11.409
		V283.686z"/>
	<path fill="#FFFFFF" d="M296.692,274.521h27.914v9.165h-42.175v-6.693l27.382-39.437h-27.344v-9.241h41.528v6.541L296.692,274.521z
		"/>
</g>
</svg>
