<?xml version="1.0" encoding="utf-8"?>
<!-- Generator: Adobe Illustrator 18.0.0, SVG Export Plug-In . SVG Version: 6.00 Build 0)  -->
<!DOCTYPE svg PUBLIC "-//W3C//DTD SVG 1.1//EN" "http://www.w3.org/Graphics/SVG/1.1/DTD/svg11.dtd">
<svg version="1.1" id="Layer_1" xmlns="http://www.w3.org/2000/svg" xmlns:xlink="http://www.w3.org/1999/xlink" x="0px" y="0px"
	 viewBox="0 0 512 512" enable-background="new 0 0 512 512" xml:space="preserve">
<g>
	<path fill="#F4F4F4" d="M416,8H219h-4.1c-3.7,0-7.3,0.8-10.6,2.3c-2.8,1.3-5.4,2.9-7.6,5.1L83.5,128.6c-2.2,2.2-4,4.7-5.1,7.6
		c-1.5,3.3-2.3,6.9-2.3,10.6l-0.1,5.7V484c0,11,9,20,20,20h320c11,0,20-9,20-20V28C436,17,427,8,416,8z"/>
	<g>
		<path fill="#FF65D4" d="M436,428.6V316.1c-5.4,2.8-10.9,5.4-16.5,7.6c-26.8,10.7-55.6,14.7-83.9,11.9
			c-17.8-1.8-35.4-6.2-52.2-13.4c-9.5-4-18.7-8.9-27.5-14.7c-5.6-3.7-11.1-7.7-16.4-12.1c-4.2-3.5-8.2-7.1-12.1-11
			c-3.9-3.9-7.6-7.9-11-12.1c0.6,6.8,1.6,13.6,3,20.1c2.1,10.3,5.2,20.3,9,29.8c6.8,16.9,16.1,32.5,27.5,46.3
			c18,22,41.2,39.6,67.7,50.9c21.4,9.2,45,14.2,69.8,14.2c12.5,0,24.7-1.3,36.5-3.8C432,429.6,434,429.1,436,428.6z"/>
		<path fill="#00BD9B" d="M283.5,189.7c-6.8-16.9-16.1-32.5-27.5-46.3c-18-22-41.2-39.6-67.7-50.9c-17.1-7.3-35.6-12-55-13.6
			l-49.7,49.7c-2.2,2.2-4,4.7-5.1,7.6c-1.5,3.3-2.3,6.9-2.3,10.6l-0.1,5.7v43.4c5.4-2.8,10.9-5.4,16.5-7.6
			c26.8-10.7,55.6-14.7,83.9-11.9c17.8,1.8,35.4,6.2,52.2,13.4c9.5,4,18.7,8.9,27.5,14.7c5.6,3.7,11.1,7.7,16.4,12.1
			c4.2,3.5,8.2,7.1,12.1,11c3.9,3.9,7.6,7.9,11,12.1c-0.6-6.8-1.6-13.6-3-20.1C290.3,209.2,287.3,199.3,283.5,189.7z"/>
		<path fill="#9C56B8" d="M430,430c-11.8,2.5-24,3.8-36.5,3.8c-24.8,0-48.3-5.1-69.8-14.2c-26.5-11.3-49.7-28.9-67.7-50.9
			c-11.4-13.9-20.7-29.5-27.5-46.3c-3.8-9.6-6.9-19.5-9-29.8c-1.4-6.6-2.4-13.3-3-20.1c-0.5-5.4-0.8-10.8-0.8-16.4s0.3-11,0.8-16.4
			c-4.4,5.3-8.4,10.7-12.1,16.4c-5.8,8.8-10.7,18-14.7,27.5c-7.1,16.7-11.6,34.4-13.4,52.2c-2.8,28.3,1.2,57.1,11.9,83.9
			c8.7,21.6,21.8,41.9,39.3,59.4c8.8,8.8,18.4,16.6,28.5,23.1c1,0.7,2,1.3,3.1,1.9h157c11,0,20-9,20-20v-55.4
			C434,429.1,432,429.6,430,430z"/>
		<path fill="#51D88B" d="M214.9,8c-3.7,0-7.3,0.8-10.6,2.3c-2.8,1.3-5.4,2.9-7.6,5.1l-63.5,63.5c19.4,1.6,37.9,6.3,55,13.6
			c26.5,11.3,49.7,28.9,67.7,50.9c11.4,13.9,20.7,29.5,27.5,46.3c3.8,9.6,6.9,19.5,9,29.8c1.4,6.6,2.4,13.3,3,20.1
			c0.5,5.4,0.8,10.8,0.8,16.4s-0.3,11-0.8,16.4c4.4-5.3,8.4-10.7,12.1-16.4c5.8-8.8,10.7-18,14.7-27.5c7.1-16.7,11.6-34.4,13.4-52.2
			c2.8-28.3-1.2-57.1-11.9-83.9c-8.7-21.6-21.8-41.9-39.3-59.4c-8.8-8.8-18.4-16.6-28.5-23.1c-1-0.7-2-1.3-3.1-1.9h-34H214.9z"/>
		<path fill="#2D98E0" d="M228.5,189.7c-16.7-7.1-34.4-11.6-52.2-13.4c-28.3-2.8-57.1,1.2-83.9,11.9c-5.6,2.2-11.1,4.8-16.5,7.6V484
			c0,11,9,20,20,20h20.8c-16.9-21.2-29-46.4-34.8-74c-2.5-11.8-3.8-24-3.8-36.5c0-24.8,5.1-48.3,14.2-69.8
			c11.3-26.5,28.9-49.7,50.9-67.7c13.9-11.4,29.5-20.7,46.3-27.5c9.6-3.8,19.5-6.9,29.8-9c6.6-1.4,13.3-2.4,20.1-3
			c5.4-0.5,10.8-0.8,16.4-0.8s11,0.3,16.4,0.8c-5.3-4.4-10.7-8.4-16.4-12.1C247.2,198.6,238,193.7,228.5,189.7z"/>
		<path fill="#E84C3D" d="M436,316.1V28c0-11-9-20-20-20h-20.8c16.9,21.2,29,46.4,34.8,74c2.5,11.8,3.8,24,3.8,36.5
			c0,24.8-5.1,48.3-14.2,69.8c-11.3,26.5-28.9,49.7-50.9,67.7c-13.9,11.4-29.5,20.7-46.3,27.5c-9.6,3.8-19.5,6.9-29.8,9
			c-6.6,1.4-13.3,2.4-20.1,3c-5.4,0.5-10.8,0.8-16.4,0.8s-11-0.3-16.4-0.8c5.3,4.4,10.7,8.4,16.4,12.1c8.8,5.8,18,10.7,27.5,14.7
			c16.7,7.1,34.4,11.6,52.2,13.4c28.3,2.8,57.1-1.2,83.9-11.9C425.1,321.5,430.6,319,436,316.1z"/>
		<path fill="#6659FF" d="M82,430c5.7,27.5,17.9,52.7,34.8,74H259c-1-0.6-2-1.3-3.1-1.9c-10.1-6.6-19.6-14.3-28.5-23.2
			c-17.5-17.5-30.6-37.8-39.3-59.4c-10.7-26.8-14.7-55.6-11.9-83.9c1.8-17.8,6.2-35.4,13.4-52.2c4-9.5,8.9-18.7,14.7-27.5
			c3.7-5.6,7.7-11.1,12.1-16.4c3.5-4.2,7.1-8.2,11-12.1c3.9-3.9,7.9-7.6,12.1-11c-6.8,0.6-13.6,1.6-20.1,3
			c-10.3,2.1-20.3,5.2-29.8,9c-16.9,6.8-32.5,16.1-46.3,27.5c-22,18-39.6,41.2-50.9,67.7c-9.2,21.4-14.2,45-14.2,69.8
			C78.2,406,79.5,418.2,82,430z"/>
		<path fill="#F1C50E" d="M433.8,118.5c0-12.5-1.3-24.7-3.8-36.5c-5.7-27.5-17.9-52.7-34.8-74H252.9c1,0.6,2,1.3,3.1,1.9
			c10.1,6.6,19.6,14.3,28.5,23.2c17.5,17.5,30.6,37.8,39.3,59.4c10.7,26.8,14.7,55.6,11.9,83.9c-1.8,17.8-6.2,35.4-13.4,52.2
			c-4,9.5-8.9,18.7-14.7,27.5c-3.7,5.6-7.7,11.1-12.1,16.4c-3.5,4.2-7.1,8.2-11,12.1c-3.9,3.9-7.9,7.6-12.1,11
			c6.8-0.6,13.6-1.6,20.1-3c10.3-2.1,20.3-5.2,29.8-9c16.9-6.8,32.5-16.1,46.3-27.5c22-18,39.6-41.2,50.9-67.7
			C428.7,166.8,433.8,143.3,433.8,118.5z"/>
	</g>
	<g>
		<linearGradient id="SVGID_1_" gradientUnits="userSpaceOnUse" x1="91.025" y1="271.025" x2="305.025" y2="57.025">
			<stop  offset="0" style="stop-color:#FFFFFF;stop-opacity:0.2"/>
			<stop  offset="1" style="stop-color:#FFFFFF;stop-opacity:0"/>
		</linearGradient>
		<path fill="url(#SVGID_1_)" d="M256,256V8h-37h-4.1c-3.7,0-7.3,0.8-10.6,2.3c-2.8,1.3-5.4,2.9-7.6,5.1L83.5,128.6
			c-2.2,2.2-4,4.7-5.1,7.6c-1.5,3.3-2.3,6.9-2.3,10.6l-0.1,5.7V256H256z"/>
		<linearGradient id="SVGID_2_" gradientUnits="userSpaceOnUse" x1="239" y1="239" x2="447.125" y2="30.875">
			<stop  offset="0" style="stop-color:#FFFFFF;stop-opacity:0.2"/>
			<stop  offset="1" style="stop-color:#FFFFFF;stop-opacity:0"/>
		</linearGradient>
		<path fill="url(#SVGID_2_)" d="M416,8H256v248h180V28C436,17,427,8,416,8z"/>
		<linearGradient id="SVGID_3_" gradientUnits="userSpaceOnUse" x1="64.875" y1="481.125" x2="273" y2="273">
			<stop  offset="0" style="stop-color:#FFFFFF;stop-opacity:0.2"/>
			<stop  offset="1" style="stop-color:#FFFFFF;stop-opacity:0"/>
		</linearGradient>
		<path fill="url(#SVGID_3_)" d="M76,484c0,11,9,20,20,20h160V256H76V484z"/>
		<linearGradient id="SVGID_4_" gradientUnits="userSpaceOnUse" x1="236.0625" y1="484.0625" x2="450.0625" y2="270.0625">
			<stop  offset="0" style="stop-color:#FFFFFF;stop-opacity:0.2"/>
			<stop  offset="1" style="stop-color:#FFFFFF;stop-opacity:0"/>
		</linearGradient>
		<path fill="url(#SVGID_4_)" d="M256,256v248h160c11,0,20-9,20-20V256H256z"/>
	</g>
	<g display="none">
		<linearGradient id="SVGID_5_" gradientUnits="userSpaceOnUse" x1="76" y1="271.025" x2="256" y2="271.025">
			<stop  offset="0" style="stop-color:#FFFFFF;stop-opacity:0.2"/>
			<stop  offset="1" style="stop-color:#FFFFFF;stop-opacity:0"/>
		</linearGradient>
		<path display="inline" fill="url(#SVGID_5_)" d="M256,256L106,106l-22.5,22.5c-2.2,2.2-4,4.7-5.1,7.6c-1.5,3.3-2.3,6.9-2.3,10.6
			l-0.1,5.7V436L256,256z"/>
		<linearGradient id="SVGID_6_" gradientUnits="userSpaceOnUse" x1="106.05" y1="132" x2="436" y2="132">
			<stop  offset="0" style="stop-color:#FFFFFF;stop-opacity:0.2"/>
			<stop  offset="1" style="stop-color:#FFFFFF;stop-opacity:0"/>
		</linearGradient>
		<path display="inline" fill="url(#SVGID_6_)" d="M256,256L436,76V28c0-11-9-20-20-20H219h-4.1c-3.7,0-7.3,0.8-10.6,2.3
			c-2.8,1.3-5.4,2.9-7.6,5.1L106,106L256,256z"/>
		<linearGradient id="SVGID_7_" gradientUnits="userSpaceOnUse" x1="76" y1="380" x2="436" y2="380">
			<stop  offset="0" style="stop-color:#FFFFFF;stop-opacity:0.2"/>
			<stop  offset="1" style="stop-color:#FFFFFF;stop-opacity:0"/>
		</linearGradient>
		<path display="inline" fill="url(#SVGID_7_)" d="M436,484v-48L256,256L76,436v48c0,11,9,20,20,20h320C427,504,436,495,436,484z"/>
		<linearGradient id="SVGID_8_" gradientUnits="userSpaceOnUse" x1="256" y1="256" x2="436" y2="256">
			<stop  offset="0" style="stop-color:#FFFFFF;stop-opacity:0.2"/>
			<stop  offset="1" style="stop-color:#FFFFFF;stop-opacity:0"/>
		</linearGradient>
		<polygon display="inline" fill="url(#SVGID_8_)" points="436,436 436,76 256,256 		"/>
	</g>
	
		<linearGradient id="SVGID_9_" gradientUnits="userSpaceOnUse" x1="95.8" y1="-70.4" x2="462.7" y2="-437.3" gradientTransform="matrix(0.5 0 0 0.5 0 256)">
		<stop  offset="0" style="stop-color:#BFBFBF"/>
		<stop  offset="1" style="stop-color:#BFBFBF;stop-opacity:0"/>
	</linearGradient>
	<path opacity="0.7" fill="url(#SVGID_9_)" enable-background="new    " d="M196.7,15.6L83.5,128.8c-2.2,2.2-4,4.7-5.1,7.6
		c-1.5,3.3-2.3,6.9-2.3,10.6v102l120.6-120.6c4.9-4.9,7.6-11.3,7.6-18.1v-100C201.5,11.6,198.9,13.4,196.7,15.6z"/>
	<path fill="#EAEAEA" d="M214.9,8c-3.7,0-7.3,0.8-10.6,2.3c-2.8,1.3-5.4,2.9-7.6,5.1L83.5,128.6c-2.2,2.2-4,4.7-5.1,7.6
		c-1.5,3.3-2.3,6.9-2.3,10.6v4.1c0-8.2,6.5-14.7,14.7-14.7h87.8c14.1,0,25.6-11.5,25.6-25.6V22.7c0-8.2,6.5-14.7,14.7-14.7H214.9z"
		/>
</g>
<g>
	<g>
		<radialGradient id="SVGID_10_" cx="256" cy="256" r="66.8971" gradientUnits="userSpaceOnUse">
			<stop  offset="0" style="stop-color:#000000"/>
			<stop  offset="1" style="stop-color:#000000;stop-opacity:0"/>
		</radialGradient>
		<path fill="url(#SVGID_10_)" d="M256,324.8c-38,0-68.8-30.9-68.8-68.8s30.9-68.8,68.8-68.8s68.8,30.9,68.8,68.8
			S294,324.8,256,324.8z"/>
		<circle fill="#E2E2E2" cx="256" cy="256" r="59.6"/>
	</g>
	<g>
		<g>
			<path d="M150.4,195.2c-10.3,17.9-16.2,38.7-16.2,60.8s5.9,42.9,16.2,60.8c0,0,47.5-14.1,61.6-22.4c12.5-7.4,43.7-38.4,43.7-38.4
				s-31.7-30.6-44.2-38C197.7,210,150.4,195.2,150.4,195.2z"/>
			<path d="M361.6,195.2c0,0-46.8,15.1-60.4,22.9c-12.7,7.3-44.9,37.9-44.9,37.9s32,30.6,44.7,38c13.6,7.9,60.6,22.8,60.6,22.8
				c10.3-17.9,16.2-38.7,16.2-60.8S371.9,213.1,361.6,195.2z"/>
		</g>
		
			<linearGradient id="SVGID_11_" gradientUnits="userSpaceOnUse" x1="319.6646" y1="1022.73" x2="420.0094" y2="1022.73" gradientTransform="matrix(1 0 0 1 -164.27 -766.73)">
			<stop  offset="0" style="stop-color:#343334"/>
			<stop  offset="0.325" style="stop-color:#272627"/>
			<stop  offset="0.925" style="stop-color:#050505"/>
			<stop  offset="1" style="stop-color:#000000"/>
		</linearGradient>
		<path fill="url(#SVGID_11_)" d="M155.4,256c0-6.1,7.5-11,40.5-11s59.8,11,59.8,11s-26.8,11-59.8,11S155.4,262.1,155.4,256z"/>
		
			<linearGradient id="SVGID_12_" gradientUnits="userSpaceOnUse" x1="-420.3806" y1="1022.73" x2="-320.0357" y2="1022.73" gradientTransform="matrix(-1 0 0 1 -63.7751 -766.73)">
			<stop  offset="0" style="stop-color:#343334"/>
			<stop  offset="0.325" style="stop-color:#272627"/>
			<stop  offset="0.925" style="stop-color:#050505"/>
			<stop  offset="1" style="stop-color:#000000"/>
		</linearGradient>
		<path fill="url(#SVGID_12_)" d="M356.6,256c0-6.1-7.5-11-40.5-11s-59.8,11-59.8,11s26.8,11,59.8,11S356.6,262.1,356.6,256z"/>
		
			<linearGradient id="SVGID_13_" gradientUnits="userSpaceOnUse" x1="420.2697" y1="1038.7137" x2="420.2697" y2="1006.7469" gradientTransform="matrix(1 0 0 1 -164.27 -766.73)">
			<stop  offset="0" style="stop-color:#000000"/>
			<stop  offset="0.5277" style="stop-color:#020202"/>
			<stop  offset="0.7996" style="stop-color:#0A0A0A"/>
			<stop  offset="0.8776" style="stop-color:#0E0E0E"/>
		</linearGradient>
		<path fill="url(#SVGID_13_)" d="M272,268.1c0,2.2-1.8,3.9-3.9,3.9h-24.1c-2.2,0-3.9-1.8-3.9-3.9v-24.1c0-2.2,1.8-3.9,3.9-3.9h24.1
			c2.2,0,3.9,1.8,3.9,3.9V268.1z"/>
	</g>
</g>
</svg>
