<?xml version="1.0" encoding="utf-8"?>
<!-- Generator: Adobe Illustrator 18.0.0, SVG Export Plug-In . SVG Version: 6.00 Build 0)  -->
<!DOCTYPE svg PUBLIC "-//W3C//DTD SVG 1.1//EN" "http://www.w3.org/Graphics/SVG/1.1/DTD/svg11.dtd">
<svg version="1.1" id="Layer_1" xmlns="http://www.w3.org/2000/svg" xmlns:xlink="http://www.w3.org/1999/xlink" x="0px" y="0px"
	 viewBox="0 0 512 512" enable-background="new 0 0 512 512" xml:space="preserve">
<g>
	<path fill="#8a173d" d="M416,8H219h-4.1c-3.7,0-7.3,0.8-10.6,2.3c-2.8,1.3-5.4,2.9-7.6,5.1L83.5,128.6c-2.2,2.2-4,4.7-5.1,7.6
		c-1.5,3.3-2.3,6.9-2.3,10.6l-0.1,5.7V484c0,11,9,20,20,20h320c11,0,20-9,20-20V28C436,17,427,8,416,8z"/>
	<g>
		<linearGradient id="SVGID_1_" gradientUnits="userSpaceOnUse" x1="91.025" y1="271.025" x2="305.025" y2="57.025">
			<stop  offset="0" style="stop-color:#FFFFFF;stop-opacity:0.2"/>
			<stop  offset="1" style="stop-color:#FFFFFF;stop-opacity:0"/>
		</linearGradient>
		<path fill="url(#SVGID_1_)" d="M256,256V8h-37h-4.1c-3.7,0-7.3,0.8-10.6,2.3c-2.8,1.3-5.4,2.9-7.6,5.1L83.5,128.6
			c-2.2,2.2-4,4.7-5.1,7.6c-1.5,3.3-2.3,6.9-2.3,10.6l-0.1,5.7V256H256z"/>
		<linearGradient id="SVGID_2_" gradientUnits="userSpaceOnUse" x1="239" y1="239" x2="447.125" y2="30.875">
			<stop  offset="0" style="stop-color:#FFFFFF;stop-opacity:0.2"/>
			<stop  offset="1" style="stop-color:#FFFFFF;stop-opacity:0"/>
		</linearGradient>
		<path fill="url(#SVGID_2_)" d="M416,8H256v248h180V28C436,17,427,8,416,8z"/>
		<linearGradient id="SVGID_3_" gradientUnits="userSpaceOnUse" x1="64.875" y1="481.125" x2="273" y2="273">
			<stop  offset="0" style="stop-color:#FFFFFF;stop-opacity:0.2"/>
			<stop  offset="1" style="stop-color:#FFFFFF;stop-opacity:0"/>
		</linearGradient>
		<path fill="url(#SVGID_3_)" d="M76,484c0,11,9,20,20,20h160V256H76V484z"/>
		<linearGradient id="SVGID_4_" gradientUnits="userSpaceOnUse" x1="236.0625" y1="484.0625" x2="450.0625" y2="270.0625">
			<stop  offset="0" style="stop-color:#FFFFFF;stop-opacity:0.2"/>
			<stop  offset="1" style="stop-color:#FFFFFF;stop-opacity:0"/>
		</linearGradient>
		<path fill="url(#SVGID_4_)" d="M256,256v248h160c11,0,20-9,20-20V256H256z"/>
	</g>
	<g>
		<linearGradient id="SVGID_5_" gradientUnits="userSpaceOnUse" x1="76" y1="271.025" x2="256" y2="271.025">
			<stop  offset="0" style="stop-color:#FFFFFF;stop-opacity:0.2"/>
			<stop  offset="1" style="stop-color:#FFFFFF;stop-opacity:0"/>
		</linearGradient>
		<path fill="url(#SVGID_5_)" d="M256,256L106,106l-22.5,22.5c-2.2,2.2-4,4.7-5.1,7.6c-1.5,3.3-2.3,6.9-2.3,10.6l-0.1,5.7V436
			L256,256z"/>
		<linearGradient id="SVGID_6_" gradientUnits="userSpaceOnUse" x1="106.05" y1="132" x2="436" y2="132">
			<stop  offset="0" style="stop-color:#FFFFFF;stop-opacity:0.2"/>
			<stop  offset="1" style="stop-color:#FFFFFF;stop-opacity:0"/>
		</linearGradient>
		<path fill="url(#SVGID_6_)" d="M256,256L436,76V28c0-11-9-20-20-20H219h-4.1c-3.7,0-7.3,0.8-10.6,2.3c-2.8,1.3-5.4,2.9-7.6,5.1
			L106,106L256,256z"/>
		<linearGradient id="SVGID_7_" gradientUnits="userSpaceOnUse" x1="76" y1="380" x2="436" y2="380">
			<stop  offset="0" style="stop-color:#FFFFFF;stop-opacity:0.2"/>
			<stop  offset="1" style="stop-color:#FFFFFF;stop-opacity:0"/>
		</linearGradient>
		<path fill="url(#SVGID_7_)" d="M436,484v-48L256,256L76,436v48c0,11,9,20,20,20h320C427,504,436,495,436,484z"/>
		<linearGradient id="SVGID_8_" gradientUnits="userSpaceOnUse" x1="256" y1="256" x2="436" y2="256">
			<stop  offset="0" style="stop-color:#FFFFFF;stop-opacity:0.2"/>
			<stop  offset="1" style="stop-color:#FFFFFF;stop-opacity:0"/>
		</linearGradient>
		<polygon fill="url(#SVGID_8_)" points="436,436 436,76 256,256 		"/>
	</g>
	
		<linearGradient id="SVGID_9_" gradientUnits="userSpaceOnUse" x1="95.8" y1="-70.4" x2="462.7" y2="-437.3" gradientTransform="matrix(0.5 0 0 0.5 0 256)">
		<stop  offset="0" style="stop-color:#e52566"/>
		<stop  offset="1" style="stop-color:#e52566;stop-opacity:0"/>
	</linearGradient>
	<path opacity="0.7" fill="url(#SVGID_9_)" enable-background="new    " d="M196.7,15.6L83.5,128.8c-2.2,2.2-4,4.7-5.1,7.6
		c-1.5,3.3-2.3,6.9-2.3,10.6v102l120.6-120.6c4.9-4.9,7.6-11.3,7.6-18.1v-100C201.5,11.6,198.9,13.4,196.7,15.6z"/>
	<path fill="#e52566" d="M214.9,8c-3.7,0-7.3,0.8-10.6,2.3c-2.8,1.3-5.4,2.9-7.6,5.1L83.5,128.6c-2.2,2.2-4,4.7-5.1,7.6
		c-1.5,3.3-2.3,6.9-2.3,10.6v4.1c0-8.2,6.5-14.7,14.7-14.7h87.8c14.1,0,25.6-11.5,25.6-25.6V22.7c0-8.2,6.5-14.7,14.7-14.7H214.9z"
		/>
</g>
<g>
	<g>
		<g>
			<path fill="#FFFFFF" d="M134.8,259.8h-7.5c-2.1,0-3.8-1.7-3.8-3.8c0-2.1,1.7-3.8,3.8-3.8h7.5c2.1,0,3.8,1.7,3.8,3.8
				C138.6,258,136.9,259.8,134.8,259.8z"/>
			<path fill="#FFFFFF" d="M366.5,259.8H351c-2,0-3.8-1.7-3.8-3.8c0-2.1,1.7-3.8,3.8-3.8h15.5c2,0,3.8,1.7,3.8,3.8
				C370.2,258,368.6,259.8,366.5,259.8z M340.8,259.8h-15.5c-2,0-3.8-1.7-3.8-3.8c0-2.1,1.7-3.8,3.8-3.8h15.5c2,0,3.8,1.7,3.8,3.8
				C344.5,258,342.9,259.8,340.8,259.8z M315,259.8h-15.5c-2,0-3.8-1.7-3.8-3.8c0-2.1,1.7-3.8,3.8-3.8H315c2,0,3.8,1.7,3.8,3.8
				C318.8,258,317.1,259.8,315,259.8z M289.2,259.8h-15.5c-2,0-3.8-1.7-3.8-3.8c0-2.1,1.7-3.8,3.8-3.8h15.5c2,0,3.8,1.7,3.8,3.8
				C293,258,291.4,259.8,289.2,259.8z M263.5,259.8h-15.4c-2.1,0-3.8-1.7-3.8-3.8c0-2.1,1.7-3.8,3.8-3.8h15.4c2,0,3.8,1.7,3.8,3.8
				C267.3,258,265.6,259.8,263.5,259.8z M237.8,259.8h-15.4c-2.1,0-3.8-1.7-3.8-3.8c0-2.1,1.7-3.8,3.8-3.8h15.4
				c2.1,0,3.8,1.7,3.8,3.8C241.6,258,239.9,259.8,237.8,259.8z M212.1,259.8h-15.4c-2.1,0-3.8-1.7-3.8-3.8c0-2.1,1.7-3.8,3.8-3.8
				h15.4c2.1,0,3.8,1.7,3.8,3.8C215.8,258,214.1,259.8,212.1,259.8z M186.3,259.8h-15.4c-2.1,0-3.8-1.7-3.8-3.8
				c0-2.1,1.7-3.8,3.8-3.8h15.4c2.1,0,3.8,1.7,3.8,3.8C190.1,258,188.4,259.8,186.3,259.8z M160.6,259.8h-15.4
				c-2.1,0-3.8-1.7-3.8-3.8c0-2.1,1.7-3.8,3.8-3.8h15.4c2.1,0,3.8,1.7,3.8,3.8C164.3,258,162.6,259.8,160.6,259.8z"/>
			<path fill="#FFFFFF" d="M384.3,259.8h-7.5c-2,0-3.8-1.7-3.8-3.8c0-2.1,1.7-3.8,3.8-3.8h7.5c2,0,3.8,1.7,3.8,3.8
				C388,258,386.4,259.8,384.3,259.8z"/>
		</g>
	</g>
	<g id="g108">
		<g id="g146" transform="translate(270.7294,111.5949)">
			<path id="path148" fill="#DBDBDB" d="M113.9,217.9c0.4,2.4-1.4,4.4-3.8,4.4H80.3c-2.4,0-4.1-2-3.8-4.4l8.4-56.1
				c0.4-2.4,2.6-4.4,5.1-4.4h10.8c2.4,0,4.7,1.9,5,4.4L113.9,217.9z"/>
		</g>
		<g id="g150" transform="translate(264.1354,165.0223)">
			<path id="path152" fill="#DBDBDB" d="M112.1,96.7c0,2.4-2,4.4-4.4,4.4H95.9c-2.4,0-4.4-2-4.4-4.4V84.8c0-2.4,2-4.4,4.4-4.4h11.9
				c2.4,0,4.4,2,4.4,4.4v11.9H112.1z"/>
		</g>
		<g id="g154" transform="translate(262.0619,166.2135)">
			<path id="path156" fill="#F9F9F9" d="M111.6,94c0,1.8-1.4,3.2-3.2,3.2h-8.9c-1.8,0-3.2-1.4-3.2-3.2v-8.9c0-1.8,1.4-3.2,3.2-3.2
				h8.9c1.8,0,3.2,1.4,3.2,3.2V94z"/>
		</g>
		<g id="g158" transform="translate(267.7075,118.2056)">
			<path id="path160" fill="#F9F9F9" d="M113.1,202.9c0.3,1.9-1.1,3.5-3,3.5H86.3c-1.9,0-3.2-1.5-2.9-3.5l6.6-44.6
				c0.3-1.9,2.1-3.4,4-3.4h8.6c1.9,0,3.7,1.6,4,3.4L113.1,202.9z"/>
		</g>
	</g>
</g>
</svg>
