<?xml version="1.0" encoding="utf-8"?>
<!-- Generator: Adobe Illustrator 18.0.0, SVG Export Plug-In . SVG Version: 6.00 Build 0)  -->
<!DOCTYPE svg PUBLIC "-//W3C//DTD SVG 1.1//EN" "http://www.w3.org/Graphics/SVG/1.1/DTD/svg11.dtd">
<svg version="1.1" id="Layer_1" xmlns="http://www.w3.org/2000/svg" xmlns:xlink="http://www.w3.org/1999/xlink" x="0px" y="0px"
	 viewBox="0 0 512 512" enable-background="new 0 0 512 512" xml:space="preserve">
<g>
	<path fill="#9E9E9E" d="M416,8H219h-4.1c-3.7,0-7.3,0.8-10.6,2.3c-2.8,1.3-5.4,2.9-7.6,5.1L83.5,128.6c-2.2,2.2-4,4.7-5.1,7.6
		c-1.5,3.3-2.3,6.9-2.3,10.6l-0.1,5.7V484c0,11,9,20,20,20h320c11,0,20-9,20-20V28C436,17,427,8,416,8z"/>
	<g>
		<linearGradient id="SVGID_1_" gradientUnits="userSpaceOnUse" x1="91.025" y1="271.025" x2="305.025" y2="57.025">
			<stop  offset="0" style="stop-color:#FFFFFF;stop-opacity:0.2"/>
			<stop  offset="1" style="stop-color:#FFFFFF;stop-opacity:0"/>
		</linearGradient>
		<path fill="url(#SVGID_1_)" d="M256,256V8h-37h-4.1c-3.7,0-7.3,0.8-10.6,2.3c-2.8,1.3-5.4,2.9-7.6,5.1L83.5,128.6
			c-2.2,2.2-4,4.7-5.1,7.6c-1.5,3.3-2.3,6.9-2.3,10.6l-0.1,5.7V256H256z"/>
		<linearGradient id="SVGID_2_" gradientUnits="userSpaceOnUse" x1="239" y1="239" x2="447.125" y2="30.875">
			<stop  offset="0" style="stop-color:#FFFFFF;stop-opacity:0.2"/>
			<stop  offset="1" style="stop-color:#FFFFFF;stop-opacity:0"/>
		</linearGradient>
		<path fill="url(#SVGID_2_)" d="M416,8H256v248h180V28C436,17,427,8,416,8z"/>
		<linearGradient id="SVGID_3_" gradientUnits="userSpaceOnUse" x1="64.875" y1="481.125" x2="273" y2="273">
			<stop  offset="0" style="stop-color:#FFFFFF;stop-opacity:0.2"/>
			<stop  offset="1" style="stop-color:#FFFFFF;stop-opacity:0"/>
		</linearGradient>
		<path fill="url(#SVGID_3_)" d="M76,484c0,11,9,20,20,20h160V256H76V484z"/>
		<linearGradient id="SVGID_4_" gradientUnits="userSpaceOnUse" x1="236.0625" y1="484.0625" x2="450.0625" y2="270.0625">
			<stop  offset="0" style="stop-color:#FFFFFF;stop-opacity:0.2"/>
			<stop  offset="1" style="stop-color:#FFFFFF;stop-opacity:0"/>
		</linearGradient>
		<path fill="url(#SVGID_4_)" d="M256,256v248h160c11,0,20-9,20-20V256H256z"/>
	</g>
	<g>
		<linearGradient id="SVGID_5_" gradientUnits="userSpaceOnUse" x1="76" y1="271.025" x2="256" y2="271.025">
			<stop  offset="0" style="stop-color:#FFFFFF;stop-opacity:0.2"/>
			<stop  offset="1" style="stop-color:#FFFFFF;stop-opacity:0"/>
		</linearGradient>
		<path fill="url(#SVGID_5_)" d="M256,256L106,106l-22.5,22.5c-2.2,2.2-4,4.7-5.1,7.6c-1.5,3.3-2.3,6.9-2.3,10.6l-0.1,5.7V436
			L256,256z"/>
		<linearGradient id="SVGID_6_" gradientUnits="userSpaceOnUse" x1="106.05" y1="132" x2="436" y2="132">
			<stop  offset="0" style="stop-color:#FFFFFF;stop-opacity:0.2"/>
			<stop  offset="1" style="stop-color:#FFFFFF;stop-opacity:0"/>
		</linearGradient>
		<path fill="url(#SVGID_6_)" d="M256,256L436,76V28c0-11-9-20-20-20H219h-4.1c-3.7,0-7.3,0.8-10.6,2.3c-2.8,1.3-5.4,2.9-7.6,5.1
			L106,106L256,256z"/>
		<linearGradient id="SVGID_7_" gradientUnits="userSpaceOnUse" x1="76" y1="380" x2="436" y2="380">
			<stop  offset="0" style="stop-color:#FFFFFF;stop-opacity:0.2"/>
			<stop  offset="1" style="stop-color:#FFFFFF;stop-opacity:0"/>
		</linearGradient>
		<path fill="url(#SVGID_7_)" d="M436,484v-48L256,256L76,436v48c0,11,9,20,20,20h320C427,504,436,495,436,484z"/>
		<linearGradient id="SVGID_8_" gradientUnits="userSpaceOnUse" x1="256" y1="256" x2="436" y2="256">
			<stop  offset="0" style="stop-color:#FFFFFF;stop-opacity:0.2"/>
			<stop  offset="1" style="stop-color:#FFFFFF;stop-opacity:0"/>
		</linearGradient>
		<polygon fill="url(#SVGID_8_)" points="436,436 436,76 256,256 		"/>
	</g>
	
		<linearGradient id="SVGID_9_" gradientUnits="userSpaceOnUse" x1="95.8" y1="-70.4" x2="462.7" y2="-437.3" gradientTransform="matrix(0.5 0 0 0.5 0 256)">
		<stop  offset="0" style="stop-color:#000000"/>
		<stop  offset="1" style="stop-color:#000000;stop-opacity:0"/>
	</linearGradient>
	<path opacity="0.7" fill="url(#SVGID_9_)" enable-background="new    " d="M196.7,15.6L83.5,128.8c-2.2,2.2-4,4.7-5.1,7.6
		c-1.5,3.3-2.3,6.9-2.3,10.6v102l120.6-120.6c4.9-4.9,7.6-11.3,7.6-18.1v-100C201.5,11.6,198.9,13.4,196.7,15.6z"/>
	<path fill="#000000" d="M214.9,8c-3.7,0-7.3,0.8-10.6,2.3c-2.8,1.3-5.4,2.9-7.6,5.1L83.5,128.6c-2.2,2.2-4,4.7-5.1,7.6
		c-1.5,3.3-2.3,6.9-2.3,10.6v4.1c0-8.2,6.5-14.7,14.7-14.7h87.8c14.1,0,25.6-11.5,25.6-25.6V22.7c0-8.2,6.5-14.7,14.7-14.7H214.9z"
		/>
</g>
<g id="Layer_1_1_">
	<path opacity="0.8" fill="#000000" enable-background="new    " d="M298.9,290.6l-8.4-24.5l-0.2-0.5l-10.5-30.8l-0.2-0.6
		l-13.2-38.6h-21l-13.2,38.6l-0.2,0.6l-10.5,30.8l-0.2,0.5l-8.4,24.5l-0.2,0.5L201.3,325h17.1l12.8-37.5l1.4-4h4.2H275h4.2l1.4,4
		l12.8,37.5h17.1L299,291.2L298.9,290.6z M266.2,269.6h-20.4h-8.3l2.7-7.9l10.2-30l5.6-16.4l5.6,16.4l10.2,30l2.7,7.9H266.2
		L266.2,269.6z"/>
	<path fill="#000000" d="M327.2,329.6h-8.6l-13.8-40.5H318v-1h-13.5l-8.1-24H318v-1h-22.1l-10.4-30.2h24.9v-1.1h-25.2L271,190.2h29
		v-1.1h-28.9l7.9-23l-1-0.3l-7.6,22.3l-7.5-22.1l-0.1-0.2l-1,0.3l7.9,23H242l7.9-23l-1-0.3l-7.6,22.2l-7.6-22.3l-1,0.3l7.9,23H212
		v1.1h28.4l-14.1,41.6h-24.7v1.1h24.3L215.6,263H194v1h21.1l-8.1,24h-12.9v1h12.6l-13.8,40.5h-8.1v1h7.8l-5.2,15.2l1,0.3l5.3-15.5
		h28.1l-5.2,15.2l1,0.3l5.3-15.5h65.9L294,346l1-0.3l-5.1-15.1h28l5.3,15.5l1-0.3l-5.2-15.2h8.2L327.2,329.6L327.2,329.6
		L327.2,329.6L327.2,329.6z M223.1,329.6l13.8-40.5h37.6l13.8,40.5H223.1z M193.9,329.6l13.8-40.5h28.1L222,329.6H193.9z M294.8,263
		h-28l-10.3-30.2h28L294.8,263z M256.5,231.8l13.8-40.3l13.8,40.3H256.5z M269.5,190.2l-13.9,40.6l-13.9-40.6L269.5,190.2
		L269.5,190.2L269.5,190.2z M237.3,288.1l8.2-24H266l8.2,24H237.3z M255.1,232.8L244.7,263h-28.1l10.3-30.2H255.1L255.1,232.8z
		 M245.9,263l9.9-28.9l9.9,28.9H245.9z M244.4,264l-8.1,24h-28.1l8.1-24H244.4z M295.1,264l8.1,24h-28l-8.2-24H295.1z M227.4,231.7
		l13.8-40.3l13.8,40.3H227.4L227.4,231.7z M289.5,329.6l-13.8-40.5h28l13.8,40.5H289.5z"/>
</g>
</svg>
