<?xml version="1.0" encoding="utf-8"?>
<!-- Generator: Adobe Illustrator 18.0.0, SVG Export Plug-In . SVG Version: 6.00 Build 0)  -->
<!DOCTYPE svg PUBLIC "-//W3C//DTD SVG 1.1//EN" "http://www.w3.org/Graphics/SVG/1.1/DTD/svg11.dtd">
<svg version="1.1" id="Layer_1" xmlns="http://www.w3.org/2000/svg" xmlns:xlink="http://www.w3.org/1999/xlink" x="0px" y="0px"
	 viewBox="0 0 612 792" enable-background="new 0 0 612 792" xml:space="preserve">
<g>
	<path fill="#6F0E10" d="M497.2,99.6H261.8h-4.9c-4.4,0-8.7,1-12.7,2.7c-3.3,1.6-6.5,3.5-9.1,6.1L99.8,243.7
		c-2.6,2.6-4.8,5.6-6.1,9.1c-1.8,3.9-2.7,8.2-2.7,12.7l-0.1,6.8v396.2c0,13.1,10.8,23.9,23.9,23.9h382.5c13.1,0,23.9-10.8,23.9-23.9
		V123.5C521.2,110.3,510.4,99.6,497.2,99.6z"/>
	<g display="none">
		
			<linearGradient id="SVGID_1_" gradientUnits="userSpaceOnUse" x1="91.025" y1="520.975" x2="305.025" y2="734.975" gradientTransform="matrix(1.1953 0 0 -1.1953 0 1036.6875)">
			<stop  offset="0" style="stop-color:#FFFFFF;stop-opacity:0.2"/>
			<stop  offset="1" style="stop-color:#FFFFFF;stop-opacity:0"/>
		</linearGradient>
		<path display="inline" fill="url(#SVGID_1_)" d="M306,396V99.6h-44.2h-4.9c-4.4,0-8.7,1-12.7,2.7c-3.3,1.6-6.5,3.5-9.1,6.1
			L99.8,243.7c-2.6,2.6-4.8,5.6-6.1,9.1c-1.8,3.9-2.7,8.2-2.7,12.7l-0.1,6.8V396H306z"/>
		
			<linearGradient id="SVGID_2_" gradientUnits="userSpaceOnUse" x1="239" y1="553" x2="447.125" y2="761.125" gradientTransform="matrix(1.1953 0 0 -1.1953 0 1036.6875)">
			<stop  offset="0" style="stop-color:#FFFFFF;stop-opacity:0.2"/>
			<stop  offset="1" style="stop-color:#FFFFFF;stop-opacity:0"/>
		</linearGradient>
		<path display="inline" fill="url(#SVGID_2_)" d="M497.2,99.6H306V396h215.2V123.5C521.2,110.3,510.4,99.6,497.2,99.6z"/>
		
			<linearGradient id="SVGID_3_" gradientUnits="userSpaceOnUse" x1="64.875" y1="310.875" x2="273" y2="519" gradientTransform="matrix(1.1953 0 0 -1.1953 0 1036.6875)">
			<stop  offset="0" style="stop-color:#FFFFFF;stop-opacity:0.2"/>
			<stop  offset="1" style="stop-color:#FFFFFF;stop-opacity:0"/>
		</linearGradient>
		<path display="inline" fill="url(#SVGID_3_)" d="M90.8,668.5c0,13.1,10.8,23.9,23.9,23.9H306V396H90.8V668.5z"/>
		
			<linearGradient id="SVGID_4_" gradientUnits="userSpaceOnUse" x1="236.0625" y1="307.9375" x2="450.0625" y2="521.9375" gradientTransform="matrix(1.1953 0 0 -1.1953 0 1036.6875)">
			<stop  offset="0" style="stop-color:#FFFFFF;stop-opacity:0.2"/>
			<stop  offset="1" style="stop-color:#FFFFFF;stop-opacity:0"/>
		</linearGradient>
		<path display="inline" fill="url(#SVGID_4_)" d="M306,396v296.4h191.2c13.1,0,23.9-10.8,23.9-23.9V396H306z"/>
	</g>
	<g>
		
			<linearGradient id="SVGID_5_" gradientUnits="userSpaceOnUse" x1="76" y1="521" x2="256" y2="521" gradientTransform="matrix(1.1953 0 0 -1.1953 0 1036.6875)">
			<stop  offset="0" style="stop-color:#FFFFFF;stop-opacity:0.2"/>
			<stop  offset="1" style="stop-color:#FFFFFF;stop-opacity:0"/>
		</linearGradient>
		<path fill="url(#SVGID_5_)" d="M306,396L126.7,216.7l-26.9,26.9c-2.6,2.6-4.8,5.6-6.1,9.1c-1.8,3.9-2.7,8.2-2.7,12.7l-0.1,6.8v339
			L306,396z"/>
		
			<linearGradient id="SVGID_6_" gradientUnits="userSpaceOnUse" x1="106" y1="660" x2="436" y2="660" gradientTransform="matrix(1.1953 0 0 -1.1953 0 1036.6875)">
			<stop  offset="0" style="stop-color:#FFFFFF;stop-opacity:0.2"/>
			<stop  offset="1" style="stop-color:#FFFFFF;stop-opacity:0"/>
		</linearGradient>
		<path fill="url(#SVGID_6_)" d="M306,396l215.2-215.2v-57.4c0-13.1-10.8-23.9-23.9-23.9H261.8h-4.9c-4.4,0-8.7,1-12.7,2.7
			c-3.3,1.6-6.5,3.5-9.1,6.1L126.7,216.7L306,396z"/>
		
			<linearGradient id="SVGID_7_" gradientUnits="userSpaceOnUse" x1="76" y1="412" x2="436" y2="412" gradientTransform="matrix(1.1953 0 0 -1.1953 0 1036.6875)">
			<stop  offset="0" style="stop-color:#FFFFFF;stop-opacity:0.2"/>
			<stop  offset="1" style="stop-color:#FFFFFF;stop-opacity:0"/>
		</linearGradient>
		<path fill="url(#SVGID_7_)" d="M521.2,668.5v-57.4L306,396L90.8,611.2v57.4c0,13.1,10.8,23.9,23.9,23.9h382.5
			C510.4,692.4,521.2,681.7,521.2,668.5z"/>
		
			<linearGradient id="SVGID_8_" gradientUnits="userSpaceOnUse" x1="256" y1="536" x2="436" y2="536" gradientTransform="matrix(1.1953 0 0 -1.1953 0 1036.6875)">
			<stop  offset="0" style="stop-color:#FFFFFF;stop-opacity:0.2"/>
			<stop  offset="1" style="stop-color:#FFFFFF;stop-opacity:0"/>
		</linearGradient>
		<polygon fill="url(#SVGID_8_)" points="521.2,611.2 521.2,180.8 306,396 		"/>
	</g>
	
		<linearGradient id="SVGID_9_" gradientUnits="userSpaceOnUse" x1="95.8" y1="862.4" x2="462.7" y2="1229.2999" gradientTransform="matrix(0.5977 0 0 -0.5977 0 869.3438)">
		<stop  offset="0" style="stop-color:#ED2624"/>
		<stop  offset="1" style="stop-color:#ED2624;stop-opacity:0"/>
	</linearGradient>
	<path opacity="0.7" fill="url(#SVGID_9_)" enable-background="new    " d="M235.1,108.6L99.8,244c-2.6,2.6-4.8,5.6-6.1,9.1
		c-1.8,3.9-2.7,8.2-2.7,12.7v121.9l144.2-144.2c5.9-5.9,9.1-13.5,9.1-21.6V102.3C240.9,103.9,237.7,106,235.1,108.6z"/>
	<path fill="#ED2624" d="M256.9,99.6c-4.4,0-8.7,1-12.7,2.7c-3.3,1.6-6.5,3.5-9.1,6.1L99.8,243.7c-2.6,2.6-4.8,5.6-6.1,9.1
		c-1.8,3.9-2.7,8.2-2.7,12.7v4.9c0-9.8,7.8-17.6,17.6-17.6h104.9c16.9,0,30.6-13.7,30.6-30.6V117.1c0-9.8,7.8-17.6,17.6-17.6
		C261.7,99.6,256.9,99.6,256.9,99.6z"/>
</g>
<g id="g3678" transform="matrix(0.88700147,0,0,0.88700147,118.08895,-9.9496564)">
	<g>
		<path fill="#FFFFFF" d="M266.7,385.7c0,0-83.3,20.8-43.5,66.7c11.7,13.5-3.1,25.7-3.1,25.7s29.9-15.4,16.1-34.7
			C223.5,425.5,213.8,416.5,266.7,385.7z"/>
		<path fill="#FFFFFF" d="M212.4,400.3c49.2-38.8,24-64.2,24-64.2l0,0c10.3,40.2-36,52.4-52.6,77.3c-11.4,17,5.5,35.4,28.7,56.2
			C203.3,449.1,172.8,431.5,212.4,400.3z"/>
	</g>
	<g>
		<path fill="#FFFFFF" d="M180.1,524.2c-37.4,10.5,22.8,32,70.4,11.7c-7.8-3-13.4-6.6-13.4-6.6c-21.3,4.1-31.1,4.3-50.4,2.2
			C170.8,529.6,180.1,524.2,180.1,524.2z"/>
		<path fill="#FFFFFF" d="M244.7,503.9c-28.2,5.4-44.5,5.3-65,3.1c-16-1.7-5.5-9.4-5.5-9.4c-41.2,13.6,23,29.2,80.6,12.4
			C248.6,507.7,244.7,503.9,244.7,503.9z"/>
		<path fill="#FFFFFF" d="M174.2,497.6L174.2,497.6L174.2,497.6z"/>
		<path fill="#FFFFFF" d="M286.2,543.9c0,0,6.9,5.6-7.5,10.2c-27.5,8.4-114.4,10.9-138.7,0.2c-8.7-3.8,7.7-9,12.7-10.2
			c5.3-1.2,8.5-1,8.5-1c-9.7-6.8-62.4,13.3-26.9,19.1C231.5,578.1,311.4,555.3,286.2,543.9z"/>
		<path fill="#FFFFFF" d="M252.9,484.8c4.7-3.1,11.1-6,11.1-6s-18.4,3.2-36.7,4.8c-22.4,1.9-46.4,2.3-58.5,0.6
			c-28.6-3.8,15.7-14.3,15.7-14.3s-17.2-1.2-38.4,9.1C121.3,491.1,207.9,496.6,252.9,484.8z"/>
		<path fill="#FFFFFF" d="M263.9,514.3c-0.2,0.6-1,1.2-1,1.2c61-16,38.6-56.5,9.4-46.3c-2.5,1-3.8,3-3.8,3s1.7-0.6,5.3-1.4
			C288.4,467.8,309.4,490.6,263.9,514.3z"/>
		<path fill="#FFFFFF" d="M265.4,570.3c-37.4,7.1-83.6,6.2-110.9,1.7c0,0,5.6,4.7,34.4,6.6c43.9,2.7,111-1.7,112.7-22.2
			C301.6,556.2,298.7,564.1,265.4,570.3z"/>
	</g>
</g>
</svg>
