<?xml version="1.0" encoding="utf-8"?>
<!-- Generator: Adobe Illustrator 18.0.0, SVG Export Plug-In . SVG Version: 6.00 Build 0)  -->
<!DOCTYPE svg PUBLIC "-//W3C//DTD SVG 1.1//EN" "http://www.w3.org/Graphics/SVG/1.1/DTD/svg11.dtd">
<svg version="1.1" id="Layer_1" xmlns="http://www.w3.org/2000/svg" xmlns:xlink="http://www.w3.org/1999/xlink" x="0px" y="0px"
	 viewBox="0 0 612 792" enable-background="new 0 0 612 792" xml:space="preserve">
<g>
	<path fill="#7B8435" d="M497.2,99.6H261.8h-4.9c-4.4,0-8.7,1-12.7,2.7c-3.3,1.6-6.5,3.5-9.1,6.1L99.8,243.7
		c-2.6,2.6-4.8,5.6-6.1,9.1c-1.8,3.9-2.7,8.2-2.7,12.7l-0.1,6.8v396.2c0,13.1,10.8,23.9,23.9,23.9h382.5c13.1,0,23.9-10.8,23.9-23.9
		V123.5C521.2,110.3,510.4,99.6,497.2,99.6z"/>
	<g>
		
			<linearGradient id="SVGID_1_" gradientUnits="userSpaceOnUse" x1="91.025" y1="520.975" x2="305.025" y2="734.975" gradientTransform="matrix(1.1953 0 0 -1.1953 0 1036.6875)">
			<stop  offset="0" style="stop-color:#FFFFFF;stop-opacity:0.2"/>
			<stop  offset="1" style="stop-color:#231F20;stop-opacity:0"/>
		</linearGradient>
		<path fill="url(#SVGID_1_)" d="M306,396V99.6h-44.2h-4.9c-4.4,0-8.7,1-12.7,2.7c-3.3,1.6-6.5,3.5-9.1,6.1L99.8,243.7
			c-2.6,2.6-4.8,5.6-6.1,9.1c-1.8,3.9-2.7,8.2-2.7,12.7l-0.1,6.8V396H306z"/>
		
			<linearGradient id="SVGID_2_" gradientUnits="userSpaceOnUse" x1="239" y1="553" x2="447.125" y2="761.125" gradientTransform="matrix(1.1953 0 0 -1.1953 0 1036.6875)">
			<stop  offset="0" style="stop-color:#FFFFFF;stop-opacity:0.2"/>
			<stop  offset="1" style="stop-color:#231F20;stop-opacity:0"/>
		</linearGradient>
		<path fill="url(#SVGID_2_)" d="M497.2,99.6H306V396h215.2V123.5C521.2,110.3,510.4,99.6,497.2,99.6z"/>
		
			<linearGradient id="SVGID_3_" gradientUnits="userSpaceOnUse" x1="64.875" y1="310.875" x2="273" y2="519" gradientTransform="matrix(1.1953 0 0 -1.1953 0 1036.6875)">
			<stop  offset="0" style="stop-color:#FFFFFF;stop-opacity:0.2"/>
			<stop  offset="1" style="stop-color:#231F20;stop-opacity:0"/>
		</linearGradient>
		<path fill="url(#SVGID_3_)" d="M90.8,668.5c0,13.1,10.8,23.9,23.9,23.9H306V396H90.8V668.5z"/>
		
			<linearGradient id="SVGID_4_" gradientUnits="userSpaceOnUse" x1="236.0625" y1="307.9375" x2="450.0625" y2="521.9375" gradientTransform="matrix(1.1953 0 0 -1.1953 0 1036.6875)">
			<stop  offset="0" style="stop-color:#FFFFFF;stop-opacity:0.2"/>
			<stop  offset="1" style="stop-color:#231F20;stop-opacity:0"/>
		</linearGradient>
		<path fill="url(#SVGID_4_)" d="M306,396v296.4h191.2c13.1,0,23.9-10.8,23.9-23.9V396H306z"/>
	</g>
	<g>
		
			<linearGradient id="SVGID_5_" gradientUnits="userSpaceOnUse" x1="76" y1="521" x2="256" y2="521" gradientTransform="matrix(1.1953 0 0 -1.1953 0 1036.6875)">
			<stop  offset="0" style="stop-color:#FFFFFF;stop-opacity:0.2"/>
			<stop  offset="1" style="stop-color:#231F20;stop-opacity:0"/>
		</linearGradient>
		<path fill="url(#SVGID_5_)" d="M306,396L126.7,216.7l-26.9,26.9c-2.6,2.6-4.8,5.6-6.1,9.1c-1.8,3.9-2.7,8.2-2.7,12.7l-0.1,6.8v339
			L306,396z"/>
		
			<linearGradient id="SVGID_6_" gradientUnits="userSpaceOnUse" x1="106" y1="660" x2="436" y2="660" gradientTransform="matrix(1.1953 0 0 -1.1953 0 1036.6875)">
			<stop  offset="0" style="stop-color:#FFFFFF;stop-opacity:0.2"/>
			<stop  offset="1" style="stop-color:#231F20;stop-opacity:0"/>
		</linearGradient>
		<path fill="url(#SVGID_6_)" d="M306,396l215.2-215.2v-57.4c0-13.1-10.8-23.9-23.9-23.9H261.8h-4.9c-4.4,0-8.7,1-12.7,2.7
			c-3.3,1.6-6.5,3.5-9.1,6.1L126.7,216.7L306,396z"/>
		
			<linearGradient id="SVGID_7_" gradientUnits="userSpaceOnUse" x1="76" y1="412" x2="436" y2="412" gradientTransform="matrix(1.1953 0 0 -1.1953 0 1036.6875)">
			<stop  offset="0" style="stop-color:#FFFFFF;stop-opacity:0.2"/>
			<stop  offset="1" style="stop-color:#231F20;stop-opacity:0"/>
		</linearGradient>
		<path fill="url(#SVGID_7_)" d="M521.2,668.5v-57.4L306,396L90.8,611.2v57.4c0,13.1,10.8,23.9,23.9,23.9h382.5
			C510.4,692.4,521.2,681.7,521.2,668.5z"/>
		
			<linearGradient id="SVGID_8_" gradientUnits="userSpaceOnUse" x1="256" y1="536" x2="436" y2="536" gradientTransform="matrix(1.1953 0 0 -1.1953 0 1036.6875)">
			<stop  offset="0" style="stop-color:#FFFFFF;stop-opacity:0.2"/>
			<stop  offset="1" style="stop-color:#231F20;stop-opacity:0"/>
		</linearGradient>
		<polygon fill="url(#SVGID_8_)" points="521.2,611.2 521.2,180.8 306,396 		"/>
	</g>
	
		<linearGradient id="SVGID_9_" gradientUnits="userSpaceOnUse" x1="95.8" y1="862.4" x2="462.7" y2="1229.2999" gradientTransform="matrix(0.5977 0 0 -0.5977 0 869.3438)">
		<stop  offset="0" style="stop-color:#CDDA49"/>
		<stop  offset="1" style="stop-color:#CDDA49;stop-opacity:0"/>
	</linearGradient>
	<path opacity="0.7" fill="url(#SVGID_9_)" enable-background="new    " d="M235.1,108.6L99.8,244c-2.6,2.6-4.8,5.6-6.1,9.1
		c-1.8,3.9-2.7,8.2-2.7,12.7v121.9l144.2-144.2c5.9-5.9,9.1-13.5,9.1-21.6V102.3C240.9,103.9,237.7,106,235.1,108.6z"/>
	<path fill="#CDDA49" d="M256.9,99.6c-4.4,0-8.7,1-12.7,2.7c-3.3,1.6-6.5,3.5-9.1,6.1L99.8,243.7c-2.6,2.6-4.8,5.6-6.1,9.1
		c-1.8,3.9-2.7,8.2-2.7,12.7v4.9c0-9.8,7.8-17.6,17.6-17.6h104.9c16.9,0,30.6-13.7,30.6-30.6V117.1c0-9.8,7.8-17.6,17.6-17.6
		C261.7,99.6,256.9,99.6,256.9,99.6z"/>
</g>
<g display="none">
	<rect x="276.7" y="218.4" display="inline" fill="#FFFFFF" width="29.3" height="29.3"/>
	<rect x="276.7" y="276.9" display="inline" fill="#FFFFFF" width="29.3" height="29.3"/>
	<rect x="276.7" y="335.5" display="inline" fill="#FFFFFF" width="29.3" height="29.3"/>
	<rect x="276.7" y="394.1" display="inline" fill="#FFFFFF" width="29.3" height="29.3"/>
	<g display="inline">
		<rect x="306" y="247.7" fill="#FFFFFF" width="29.3" height="29.3"/>
		<rect x="306" y="306.2" fill="#FFFFFF" width="29.3" height="29.3"/>
		<rect x="306" y="364.8" fill="#FFFFFF" width="29.3" height="29.3"/>
		<rect x="306" y="423.4" fill="#FFFFFF" width="29.3" height="29.3"/>
	</g>
	<rect x="276.7" y="452.7" display="inline" fill="#FFFFFF" width="29.3" height="29.3"/>
	<rect x="306" y="481.6" display="inline" fill="#FFFFFF" width="29.3" height="29.3"/>
	<rect x="276.7" y="510.9" display="inline" fill="#FFFFFF" width="29.3" height="29.3"/>
</g>
<rect x="270.1" y="99.6" display="none" fill="#FFFFFF" width="71.7" height="592.9"/>
<linearGradient id="SVGID_10_" gradientUnits="userSpaceOnUse" x1="256" y1="288" x2="256" y2="784" gradientTransform="matrix(1.1953 0 0 -1.1953 0 1036.6875)">
	<stop  offset="0" style="stop-color:#FFFFFF;stop-opacity:0.2"/>
	<stop  offset="0.5" style="stop-color:#FFFFFF"/>
	<stop  offset="1" style="stop-color:#FFFFFF;stop-opacity:0.2"/>
</linearGradient>
<path fill="url(#SVGID_10_)" d="M270.1,99.6v592.9h71.7V99.6H270.1z M335.3,293.7H306V323h29.3v29.3H306v29.3h29.3v29.3H306v29.3
	h29.3v29.3H306v28.9h29.3v29.3H306v29.3h-29.3v-29.3H306v-28.9h-29.3v-29.3H306v-29.3h-29.3v-29.3H306v-29.3h-29.3v-29.3H306V323
	h-29.3v-29.3H306v-29.3h-29.3v-29.3H306v29.3h29.3V293.7z"/>
<g id="g108" display="none">
	<g id="g146" transform="translate(270.7294,111.5949)" display="inline">
		<path id="path148" fill="#DBDBDB" d="M57.7,562.3c0.5,2.9-1.7,5.3-4.5,5.3H17.5c-2.9,0-4.9-2.4-4.5-5.3l10-67.1
			c0.5-2.9,3.1-5.3,6.1-5.3H42c2.9,0,5.6,2.3,6,5.3L57.7,562.3z"/>
	</g>
	<g id="g150" transform="translate(264.1354,165.0223)" display="inline">
		<path id="path152" fill="#DBDBDB" d="M54.2,427.9c0,2.9-2.4,5.3-5.3,5.3H34.9c-2.9,0-5.3-2.4-5.3-5.3v-14.2c0-2.9,2.4-5.3,5.3-5.3
			h14.2c2.9,0,5.3,2.4,5.3,5.3v14.2L54.2,427.9L54.2,427.9z"/>
	</g>
	<g id="g154" transform="translate(262.0619,166.2135)" display="inline">
		<path id="path156" fill="#F9F9F9" d="M53.2,424.9c0,2.2-1.7,3.8-3.8,3.8H38.8c-2.2,0-3.8-1.7-3.8-3.8v-10.6c0-2.2,1.7-3.8,3.8-3.8
			h10.6c2.2,0,3.8,1.7,3.8,3.8V424.9z"/>
	</g>
	<g id="g158" transform="translate(267.7075,118.2056)" display="inline">
		<path id="path160" fill="#F9F9F9" d="M56.1,545.7c0.4,2.3-1.3,4.2-3.6,4.2H24.1c-2.3,0-3.8-1.8-3.5-4.2l7.9-53.3
			c0.4-2.3,2.5-4.1,4.8-4.1h10.3c2.3,0,4.4,1.9,4.8,4.1L56.1,545.7z"/>
	</g>
</g>
</svg>
