<?xml version="1.0" encoding="utf-8"?>
<!-- Generator: Adobe Illustrator 18.0.0, SVG Export Plug-In . SVG Version: 6.00 Build 0)  -->
<!DOCTYPE svg PUBLIC "-//W3C//DTD SVG 1.1//EN" "http://www.w3.org/Graphics/SVG/1.1/DTD/svg11.dtd">
<svg version="1.1" id="Layer_1" xmlns="http://www.w3.org/2000/svg" xmlns:xlink="http://www.w3.org/1999/xlink" x="0px" y="0px"
	 viewBox="0 0 612 792" enable-background="new 0 0 612 792" xml:space="preserve">
<g>
	<path d="M497.2,99.6H355.1h-4.9h-88.5h-4.9H114.8c-13.1,0-23.9,10.8-23.9,23.9v148.8v396.2c0,13.1,10.8,23.9,23.9,23.9h382.5
		c13.1,0,23.9-10.8,23.9-23.9V272.3V123.5C521.2,110.3,510.4,99.6,497.2,99.6z"/>
	<g>
		<g>
			
				<linearGradient id="SVGID_1_" gradientUnits="userSpaceOnUse" x1="239" y1="553" x2="447.125" y2="761.125" gradientTransform="matrix(1.1953 0 0 -1.1953 0 1036.6875)">
				<stop  offset="0" style="stop-color:#FFFFFF;stop-opacity:0.2"/>
				<stop  offset="1" style="stop-color:#FFFFFF;stop-opacity:0"/>
			</linearGradient>
			<path fill="url(#SVGID_1_)" d="M497.2,99.6H306V396h215.2V123.5C521.2,110.3,510.4,99.6,497.2,99.6z"/>
			
				<linearGradient id="SVGID_2_" gradientUnits="userSpaceOnUse" x1="64.875" y1="310.875" x2="273" y2="519" gradientTransform="matrix(1.1953 0 0 -1.1953 0 1036.6875)">
				<stop  offset="0" style="stop-color:#FFFFFF;stop-opacity:0.2"/>
				<stop  offset="1" style="stop-color:#FFFFFF;stop-opacity:0"/>
			</linearGradient>
			<path fill="url(#SVGID_2_)" d="M90.8,668.5c0,13.1,10.8,23.9,23.9,23.9H306V396H90.8V668.5z"/>
			
				<linearGradient id="SVGID_3_" gradientUnits="userSpaceOnUse" x1="236.0625" y1="307.9375" x2="450.0625" y2="521.9375" gradientTransform="matrix(1.1953 0 0 -1.1953 0 1036.6875)">
				<stop  offset="0" style="stop-color:#FFFFFF;stop-opacity:0.2"/>
				<stop  offset="1" style="stop-color:#FFFFFF;stop-opacity:0"/>
			</linearGradient>
			<path fill="url(#SVGID_3_)" d="M306,396v296.4h191.2c13.1,0,23.9-10.8,23.9-23.9V396H306z"/>
			
				<linearGradient id="SVGID_4_" gradientUnits="userSpaceOnUse" x1="61.9375" y1="521.9375" x2="275.9375" y2="307.9375" gradientTransform="matrix(1.1953 0 0 1.1953 0 -244.6875)">
				<stop  offset="0" style="stop-color:#FFFFFF;stop-opacity:0.2"/>
				<stop  offset="1" style="stop-color:#FFFFFF;stop-opacity:0"/>
			</linearGradient>
			<path fill="url(#SVGID_4_)" d="M90.8,123.5c0-13.1,10.8-23.9,23.9-23.9H306V396H90.8V123.5z"/>
		</g>
		<g>
			
				<linearGradient id="SVGID_5_" gradientUnits="userSpaceOnUse" x1="256" y1="288" x2="256" y2="536" gradientTransform="matrix(1.1953 0 0 -1.1953 0 1036.6875)">
				<stop  offset="0" style="stop-color:#FFFFFF;stop-opacity:0.2"/>
				<stop  offset="1" style="stop-color:#FFFFFF;stop-opacity:0"/>
			</linearGradient>
			<path fill="url(#SVGID_5_)" d="M521.2,668.5v-57.4L306,396L90.8,611.2v57.4c0,13.1,10.8,23.9,23.9,23.9h382.5
				C510.4,692.4,521.2,681.7,521.2,668.5z"/>
			
				<linearGradient id="SVGID_6_" gradientUnits="userSpaceOnUse" x1="346" y1="356" x2="346" y2="716" gradientTransform="matrix(1.1953 0 0 -1.1953 0 1036.6875)">
				<stop  offset="0" style="stop-color:#FFFFFF;stop-opacity:0.2"/>
				<stop  offset="1" style="stop-color:#FFFFFF;stop-opacity:0"/>
			</linearGradient>
			<polygon fill="url(#SVGID_6_)" points="521.2,611.2 521.2,180.8 306,396 			"/>
			
				<linearGradient id="SVGID_7_" gradientUnits="userSpaceOnUse" x1="256" y1="536" x2="256" y2="288" gradientTransform="matrix(-1.1953 0 0 1.1953 612 -244.6875)">
				<stop  offset="0" style="stop-color:#FFFFFF;stop-opacity:0.2"/>
				<stop  offset="1" style="stop-color:#FFFFFF;stop-opacity:0"/>
			</linearGradient>
			<path fill="url(#SVGID_7_)" d="M90.8,123.5v57.4L306,396l215.2-215.2v-57.4c0-13.1-10.8-23.9-23.9-23.9H114.8
				C101.6,99.6,90.8,110.3,90.8,123.5z"/>
			
				<linearGradient id="SVGID_8_" gradientUnits="userSpaceOnUse" x1="346" y1="716" x2="346" y2="356" gradientTransform="matrix(-1.1953 0 0 1.1953 612 -244.6875)">
				<stop  offset="0" style="stop-color:#FFFFFF;stop-opacity:0.2"/>
				<stop  offset="1" style="stop-color:#FFFFFF;stop-opacity:0"/>
			</linearGradient>
			<polygon fill="url(#SVGID_8_)" points="90.8,180.8 90.8,611.2 306,396 			"/>
		</g>
	</g>
</g>
<path fill="#FFFFFF" d="M413.8,408.9v-25.8l-24.4-8.6c-2-7.9-5.3-15.4-9.3-22.2l0,0l11.1-23.3l-18.3-18.2l-23.3,11.1l0,0
	c-6.8-4.1-14.3-7.3-22.2-9.3l-8.6-24.4H293l-8.6,24.4c-7.9,2-15.4,5.3-22.2,9.3l0,0l-23.3-11.1l-18.2,18.2l11.1,23.3l0,0
	c-4.1,6.8-7.3,14.3-9.3,22.2l-24.4,8.6v25.8l24.4,8.6c2,7.9,5.3,15.4,9.3,22.2l0,0l-11.1,23.3l18.2,18.2l23.3-11.1l0,0
	c6.8,4.1,14.3,7.2,22.2,9.3l8.6,24.4h25.8l8.6-24.4c7.9-2,15.4-5.3,22.2-9.3l0,0l23.3,11.1l18.2-18.2L380,439.7l0,0
	c4.1-6.8,7.2-14.3,9.3-22.2L413.8,408.9z M306,439c-23.8,0-43.2-19.4-43.2-43.2s19.4-43.2,43.2-43.2c23.9,0,43,19.4,43,43.2
	C349.2,419.8,329.9,439,306,439z"/>
</svg>
