<?xml version="1.0" encoding="utf-8"?>
<!-- Generator: Adobe Illustrator 18.0.0, SVG Export Plug-In . SVG Version: 6.00 Build 0)  -->
<!DOCTYPE svg PUBLIC "-//W3C//DTD SVG 1.1//EN" "http://www.w3.org/Graphics/SVG/1.1/DTD/svg11.dtd">
<svg version="1.1" id="Layer_1" xmlns="http://www.w3.org/2000/svg" xmlns:xlink="http://www.w3.org/1999/xlink" x="0px" y="0px"
	 viewBox="0 0 512 512" enable-background="new 0 0 512 512" xml:space="preserve">
<g>
	<path fill="#ee6623" d="M416,8H219h-4.1c-3.7,0-7.3,0.8-10.6,2.3c-2.8,1.3-5.4,2.9-7.6,5.1L83.5,128.6c-2.2,2.2-4,4.7-5.1,7.6
		c-1.5,3.3-2.3,6.9-2.3,10.6l-0.1,5.7V484c0,11,9,20,20,20h320c11,0,20-9,20-20V28C436,17,427,8,416,8z"/>
	<g>
		<linearGradient id="SVGID_1_" gradientUnits="userSpaceOnUse" x1="91.025" y1="271.025" x2="305.025" y2="57.025">
			<stop  offset="0" style="stop-color:#FFFFFF;stop-opacity:0.2"/>
			<stop  offset="1" style="stop-color:#FFFFFF;stop-opacity:0"/>
		</linearGradient>
		<path fill="url(#SVGID_1_)" d="M256,256V8h-37h-4.1c-3.7,0-7.3,0.8-10.6,2.3c-2.8,1.3-5.4,2.9-7.6,5.1L83.5,128.6
			c-2.2,2.2-4,4.7-5.1,7.6c-1.5,3.3-2.3,6.9-2.3,10.6l-0.1,5.7V256H256z"/>
		<linearGradient id="SVGID_2_" gradientUnits="userSpaceOnUse" x1="239" y1="239" x2="447.125" y2="30.875">
			<stop  offset="0" style="stop-color:#FFFFFF;stop-opacity:0.2"/>
			<stop  offset="1" style="stop-color:#FFFFFF;stop-opacity:0"/>
		</linearGradient>
		<path fill="url(#SVGID_2_)" d="M416,8H256v248h180V28C436,17,427,8,416,8z"/>
		<linearGradient id="SVGID_3_" gradientUnits="userSpaceOnUse" x1="64.875" y1="481.125" x2="273" y2="273">
			<stop  offset="0" style="stop-color:#FFFFFF;stop-opacity:0.2"/>
			<stop  offset="1" style="stop-color:#FFFFFF;stop-opacity:0"/>
		</linearGradient>
		<path fill="url(#SVGID_3_)" d="M76,484c0,11,9,20,20,20h160V256H76V484z"/>
		<linearGradient id="SVGID_4_" gradientUnits="userSpaceOnUse" x1="236.0625" y1="484.0625" x2="450.0625" y2="270.0625">
			<stop  offset="0" style="stop-color:#FFFFFF;stop-opacity:0.2"/>
			<stop  offset="1" style="stop-color:#FFFFFF;stop-opacity:0"/>
		</linearGradient>
		<path fill="url(#SVGID_4_)" d="M256,256v248h160c11,0,20-9,20-20V256H256z"/>
	</g>
	<g>
		<linearGradient id="SVGID_5_" gradientUnits="userSpaceOnUse" x1="76" y1="271.025" x2="256" y2="271.025">
			<stop  offset="0" style="stop-color:#FFFFFF;stop-opacity:0.2"/>
			<stop  offset="1" style="stop-color:#FFFFFF;stop-opacity:0"/>
		</linearGradient>
		<path fill="url(#SVGID_5_)" d="M256,256L106,106l-22.5,22.5c-2.2,2.2-4,4.7-5.1,7.6c-1.5,3.3-2.3,6.9-2.3,10.6l-0.1,5.7V436
			L256,256z"/>
		<linearGradient id="SVGID_6_" gradientUnits="userSpaceOnUse" x1="106.05" y1="132" x2="436" y2="132">
			<stop  offset="0" style="stop-color:#FFFFFF;stop-opacity:0.2"/>
			<stop  offset="1" style="stop-color:#FFFFFF;stop-opacity:0"/>
		</linearGradient>
		<path fill="url(#SVGID_6_)" d="M256,256L436,76V28c0-11-9-20-20-20H219h-4.1c-3.7,0-7.3,0.8-10.6,2.3c-2.8,1.3-5.4,2.9-7.6,5.1
			L106,106L256,256z"/>
		<linearGradient id="SVGID_7_" gradientUnits="userSpaceOnUse" x1="76" y1="380" x2="436" y2="380">
			<stop  offset="0" style="stop-color:#FFFFFF;stop-opacity:0.2"/>
			<stop  offset="1" style="stop-color:#FFFFFF;stop-opacity:0"/>
		</linearGradient>
		<path fill="url(#SVGID_7_)" d="M436,484v-48L256,256L76,436v48c0,11,9,20,20,20h320C427,504,436,495,436,484z"/>
		<linearGradient id="SVGID_8_" gradientUnits="userSpaceOnUse" x1="256" y1="256" x2="436" y2="256">
			<stop  offset="0" style="stop-color:#FFFFFF;stop-opacity:0.2"/>
			<stop  offset="1" style="stop-color:#FFFFFF;stop-opacity:0"/>
		</linearGradient>
		<polygon fill="url(#SVGID_8_)" points="436,436 436,76 256,256 		"/>
	</g>
	
		<linearGradient id="SVGID_9_" gradientUnits="userSpaceOnUse" x1="95.8" y1="-70.4" x2="462.7" y2="-437.3" gradientTransform="matrix(0.5 0 0 0.5 0 256)">
		<stop  offset="0" style="stop-color:#ed1c27"/>
		<stop  offset="1" style="stop-color:#ed1c27;stop-opacity:0"/>
	</linearGradient>
	<path opacity="0.7" fill="url(#SVGID_9_)" enable-background="new    " d="M196.7,15.6L83.5,128.8c-2.2,2.2-4,4.7-5.1,7.6
		c-1.5,3.3-2.3,6.9-2.3,10.6v102l120.6-120.6c4.9-4.9,7.6-11.3,7.6-18.1v-100C201.5,11.6,198.9,13.4,196.7,15.6z"/>
	<path fill="#ed1c27" d="M214.9,8c-3.7,0-7.3,0.8-10.6,2.3c-2.8,1.3-5.4,2.9-7.6,5.1L83.5,128.6c-2.2,2.2-4,4.7-5.1,7.6
		c-1.5,3.3-2.3,6.9-2.3,10.6v4.1c0-8.2,6.5-14.7,14.7-14.7h87.8c14.1,0,25.6-11.5,25.6-25.6V22.7c0-8.2,6.5-14.7,14.7-14.7H214.9z"
		/>
</g>
<g id="g3678" transform="matrix(0.88700147,0,0,0.88700147,118.08895,-9.9496564)">
	<g>
		<path fill="#FFFFFF" d="M201.3,239.7c0,0-69.7,17.4-36.4,55.7c9.9,11.3-2.6,21.5-2.6,21.5s24.9-12.9,13.5-29
			C165.2,272.9,157,265.4,201.3,239.7z"/>
		<path fill="#FFFFFF" d="M155.8,251.8c41.2-32.5,20.1-53.7,20.1-53.7l0,0c8.6,33.6-30.1,43.8-44,64.7c-9.4,14.2,4.6,29.5,24,47
			C148.3,292.7,122.8,277.9,155.8,251.8z"/>
	</g>
	<g>
		<path fill="#FFFFFF" d="M128.8,355.5c-31.3,8.7,19,26.8,58.9,9.8c-6.6-2.5-11.2-5.5-11.2-5.5c-17.8,3.4-26,3.6-42.1,1.8
			C121,360,128.8,355.5,128.8,355.5z"/>
		<path fill="#FFFFFF" d="M182.9,338.4c-23.5,4.5-37.2,4.4-54.4,2.6c-13.3-1.4-4.6-7.9-4.6-7.9c-34.5,11.4,19.2,24.4,67.3,10.4
			C186.1,341.7,182.9,338.4,182.9,338.4z"/>
		<path fill="#FFFFFF" d="M123.9,333.2L123.9,333.2L123.9,333.2z"/>
		<path fill="#FFFFFF" d="M217.6,371.9c0,0,5.8,4.8-6.4,8.4c-23,7-95.7,9-115.9,0.3c-7.3-3.1,6.4-7.5,10.6-8.5c4.4-1,7-0.8,7-0.8
			c-8.1-5.7-52.2,11.2-22.4,16C171.9,400.5,238.7,381.4,217.6,371.9z"/>
		<path fill="#FFFFFF" d="M189.8,322.5c3.9-2.6,9.3-5,9.3-5s-15.4,2.8-30.7,4c-18.8,1.6-38.9,1.9-48.9,0.5
			c-23.9-3.2,13.1-12,13.1-12s-14.4-1-32,7.6C79.7,327.8,152.2,332.4,189.8,322.5z"/>
		<path fill="#FFFFFF" d="M198.9,347.2c-0.2,0.5-0.8,1-0.8,1c51-13.4,32.3-47.3,7.9-38.7c-2.1,0.8-3.2,2.5-3.2,2.5s1.4-0.5,4.4-1.1
			C219.4,308.3,237.1,327.3,198.9,347.2z"/>
		<path fill="#FFFFFF" d="M200.3,394.1c-31.3,5.9-69.9,5.2-92.8,1.5c0,0,4.7,3.9,28.8,5.5c36.7,2.3,92.9-1.3,94.2-18.6
			C230.5,382.3,228,388.9,200.3,394.1z"/>
	</g>
</g>
</svg>
