<?xml version="1.0" encoding="utf-8"?>
<!-- Generator: Adobe Illustrator 18.0.0, SVG Export Plug-In . SVG Version: 6.00 Build 0)  -->
<!DOCTYPE svg PUBLIC "-//W3C//DTD SVG 1.1//EN" "http://www.w3.org/Graphics/SVG/1.1/DTD/svg11.dtd">
<svg version="1.1" id="Layer_1" xmlns="http://www.w3.org/2000/svg" xmlns:xlink="http://www.w3.org/1999/xlink" x="0px" y="0px"
	 viewBox="0 0 512 512" enable-background="new 0 0 512 512" xml:space="preserve">
<g>
	<path fill="#FFC107" d="M416,8H219h-4.1c-3.7,0-7.3,0.8-10.6,2.3c-2.8,1.3-5.4,2.9-7.6,5.1L83.5,128.6c-2.2,2.2-4,4.7-5.1,7.6
		c-1.5,3.3-2.3,6.9-2.3,10.6l-0.1,5.7V484c0,11,9,20,20,20h320c11,0,20-9,20-20V28C436,17,427,8,416,8z"/>
	<g>
		<linearGradient id="SVGID_1_" gradientUnits="userSpaceOnUse" x1="91.025" y1="271.025" x2="305.025" y2="57.025">
			<stop  offset="0" style="stop-color:#FFFFFF;stop-opacity:0.2"/>
			<stop  offset="1" style="stop-color:#FFFFFF;stop-opacity:0"/>
		</linearGradient>
		<path fill="url(#SVGID_1_)" d="M256,256V8h-37h-4.1c-3.7,0-7.3,0.8-10.6,2.3c-2.8,1.3-5.4,2.9-7.6,5.1L83.5,128.6
			c-2.2,2.2-4,4.7-5.1,7.6c-1.5,3.3-2.3,6.9-2.3,10.6l-0.1,5.7V256H256z"/>
		<linearGradient id="SVGID_2_" gradientUnits="userSpaceOnUse" x1="239" y1="239" x2="447.125" y2="30.875">
			<stop  offset="0" style="stop-color:#FFFFFF;stop-opacity:0.2"/>
			<stop  offset="1" style="stop-color:#FFFFFF;stop-opacity:0"/>
		</linearGradient>
		<path fill="url(#SVGID_2_)" d="M416,8H256v248h180V28C436,17,427,8,416,8z"/>
		<linearGradient id="SVGID_3_" gradientUnits="userSpaceOnUse" x1="64.875" y1="481.125" x2="273" y2="273">
			<stop  offset="0" style="stop-color:#FFFFFF;stop-opacity:0.2"/>
			<stop  offset="1" style="stop-color:#FFFFFF;stop-opacity:0"/>
		</linearGradient>
		<path fill="url(#SVGID_3_)" d="M76,484c0,11,9,20,20,20h160V256H76V484z"/>
		<linearGradient id="SVGID_4_" gradientUnits="userSpaceOnUse" x1="236.0625" y1="484.0625" x2="450.0625" y2="270.0625">
			<stop  offset="0" style="stop-color:#FFFFFF;stop-opacity:0.2"/>
			<stop  offset="1" style="stop-color:#FFFFFF;stop-opacity:0"/>
		</linearGradient>
		<path fill="url(#SVGID_4_)" d="M256,256v248h160c11,0,20-9,20-20V256H256z"/>
	</g>
	<g display="none">
		<linearGradient id="SVGID_5_" gradientUnits="userSpaceOnUse" x1="76" y1="271.025" x2="256" y2="271.025">
			<stop  offset="0" style="stop-color:#FFFFFF;stop-opacity:0.2"/>
			<stop  offset="1" style="stop-color:#FFFFFF;stop-opacity:0"/>
		</linearGradient>
		<path display="inline" fill="url(#SVGID_5_)" d="M256,256L106,106l-22.5,22.5c-2.2,2.2-4,4.7-5.1,7.6c-1.5,3.3-2.3,6.9-2.3,10.6
			l-0.1,5.7V436L256,256z"/>
		<linearGradient id="SVGID_6_" gradientUnits="userSpaceOnUse" x1="106.05" y1="132" x2="436" y2="132">
			<stop  offset="0" style="stop-color:#FFFFFF;stop-opacity:0.2"/>
			<stop  offset="1" style="stop-color:#FFFFFF;stop-opacity:0"/>
		</linearGradient>
		<path display="inline" fill="url(#SVGID_6_)" d="M256,256L436,76V28c0-11-9-20-20-20H219h-4.1c-3.7,0-7.3,0.8-10.6,2.3
			c-2.8,1.3-5.4,2.9-7.6,5.1L106,106L256,256z"/>
		<linearGradient id="SVGID_7_" gradientUnits="userSpaceOnUse" x1="76" y1="380" x2="436" y2="380">
			<stop  offset="0" style="stop-color:#FFFFFF;stop-opacity:0.2"/>
			<stop  offset="1" style="stop-color:#FFFFFF;stop-opacity:0"/>
		</linearGradient>
		<path display="inline" fill="url(#SVGID_7_)" d="M436,484v-48L256,256L76,436v48c0,11,9,20,20,20h320C427,504,436,495,436,484z"/>
		<linearGradient id="SVGID_8_" gradientUnits="userSpaceOnUse" x1="256" y1="256" x2="436" y2="256">
			<stop  offset="0" style="stop-color:#FFFFFF;stop-opacity:0.2"/>
			<stop  offset="1" style="stop-color:#FFFFFF;stop-opacity:0"/>
		</linearGradient>
		<polygon display="inline" fill="url(#SVGID_8_)" points="436,436 436,76 256,256 		"/>
	</g>
	<g>
		<circle fill="#232323" cx="256" cy="256" r="111.7"/>
		
			<linearGradient id="SVGID_9_" gradientUnits="userSpaceOnUse" x1="144.3336" y1="255" x2="367.6664" y2="255" gradientTransform="matrix(1 0 0 1 0 1)">
			<stop  offset="0" style="stop-color:#000000;stop-opacity:0"/>
			<stop  offset="0.1132" style="stop-color:#030303;stop-opacity:0.2264"/>
			<stop  offset="0.1813" style="stop-color:#0B0B0B;stop-opacity:0.3626"/>
			<stop  offset="0.2375" style="stop-color:#191919;stop-opacity:0.475"/>
			<stop  offset="0.2872" style="stop-color:#2E2E2E;stop-opacity:0.5744"/>
			<stop  offset="0.3326" style="stop-color:#484848;stop-opacity:0.6652"/>
			<stop  offset="0.3749" style="stop-color:#686868;stop-opacity:0.7498"/>
			<stop  offset="0.4148" style="stop-color:#8F8F8F;stop-opacity:0.8297"/>
			<stop  offset="0.4528" style="stop-color:#BBBBBB;stop-opacity:0.9057"/>
			<stop  offset="0.4881" style="stop-color:#EDEDED;stop-opacity:0.9761"/>
			<stop  offset="0.5" style="stop-color:#FFFFFF"/>
			<stop  offset="0.5119" style="stop-color:#EDEDED;stop-opacity:0.9761"/>
			<stop  offset="0.5472" style="stop-color:#BBBBBB;stop-opacity:0.9057"/>
			<stop  offset="0.5852" style="stop-color:#8F8F8F;stop-opacity:0.8297"/>
			<stop  offset="0.6251" style="stop-color:#686868;stop-opacity:0.7498"/>
			<stop  offset="0.6674" style="stop-color:#484848;stop-opacity:0.6652"/>
			<stop  offset="0.7128" style="stop-color:#2E2E2E;stop-opacity:0.5744"/>
			<stop  offset="0.7625" style="stop-color:#191919;stop-opacity:0.475"/>
			<stop  offset="0.8187" style="stop-color:#0B0B0B;stop-opacity:0.3626"/>
			<stop  offset="0.8868" style="stop-color:#030303;stop-opacity:0.2264"/>
			<stop  offset="1" style="stop-color:#000000;stop-opacity:0"/>
		</linearGradient>
		<circle fill="url(#SVGID_9_)" cx="256" cy="256" r="111.7"/>
		
			<linearGradient id="SVGID_10_" gradientUnits="userSpaceOnUse" x1="327.04" y1="-520.9601" x2="484.96" y2="-363.0399" gradientTransform="matrix(1 0 0 -1 -150 -186)">
			<stop  offset="0" style="stop-color:#000000;stop-opacity:0"/>
			<stop  offset="0.3254" style="stop-color:#030303;stop-opacity:0.6509"/>
			<stop  offset="0.5" style="stop-color:#2A2A2A"/>
			<stop  offset="0.6705" style="stop-color:#030303;stop-opacity:0.6589"/>
			<stop  offset="1" style="stop-color:#000000;stop-opacity:0"/>
		</linearGradient>
		<circle fill="url(#SVGID_10_)" cx="256" cy="256" r="111.7"/>
		<path d="M256,370c-62.8,0-114-51.1-114-114s51.1-114,114-114s114,51.1,114,114S318.8,370,256,370z M256,146.6
			c-60.3,0-109.4,49.1-109.4,109.4S195.7,365.4,256,365.4S365.4,316.3,365.4,256C365.4,195.7,316.3,146.6,256,146.6z"/>
		<circle cx="256" cy="256" r="56.7"/>
		<circle fill="#FFA000" cx="256" cy="256" r="44.9"/>
		<circle opacity="0.2" fill="#666666" enable-background="new    " cx="256" cy="256" r="36.1"/>
		<circle cx="256" cy="256" r="14.2"/>
		<path d="M256,322.8c-36.8,0-66.8-30-66.8-66.8c0-36.8,30-66.8,66.8-66.8s66.8,30,66.8,66.8S292.8,322.8,256,322.8z M256,190.1
			c-36.3,0-65.9,29.6-65.9,65.9c0,36.3,29.6,65.9,65.9,65.9c36.3,0,65.9-29.6,65.9-65.9C321.9,219.7,292.3,190.1,256,190.1z"/>
		<path d="M256,344.5c-48.8,0-88.5-39.7-88.5-88.5c0-48.8,39.7-88.5,88.5-88.5c48.8,0,88.5,39.7,88.5,88.5
			C344.5,304.8,304.8,344.5,256,344.5z M256,168.4c-48.3,0-87.6,39.3-87.6,87.6c0,48.3,39.3,87.6,87.6,87.6
			c48.3,0,87.6-39.3,87.6-87.6C343.6,207.7,304.3,168.4,256,168.4z"/>
	</g>
	
		<linearGradient id="SVGID_11_" gradientUnits="userSpaceOnUse" x1="95.8" y1="-70.4" x2="462.7" y2="-437.3" gradientTransform="matrix(0.5 0 0 0.5 0 256)">
		<stop  offset="0" style="stop-color:#FFA000"/>
		<stop  offset="1" style="stop-color:#FFA000;stop-opacity:0"/>
	</linearGradient>
	<path opacity="0.7" fill="url(#SVGID_11_)" enable-background="new    " d="M196.7,15.6L83.5,128.8c-2.2,2.2-4,4.7-5.1,7.6
		c-1.5,3.3-2.3,6.9-2.3,10.6v102l120.6-120.6c4.9-4.9,7.6-11.3,7.6-18.1v-100C201.5,11.6,198.9,13.4,196.7,15.6z"/>
	<path fill="#FFA000" d="M214.9,8c-3.7,0-7.3,0.8-10.6,2.3c-2.8,1.3-5.4,2.9-7.6,5.1L83.5,128.6c-2.2,2.2-4,4.7-5.1,7.6
		c-1.5,3.3-2.3,6.9-2.3,10.6v4.1c0-8.2,6.5-14.7,14.7-14.7h87.8c14.1,0,25.6-11.5,25.6-25.6V22.7c0-8.2,6.5-14.7,14.7-14.7H214.9z"
		/>
</g>
</svg>
