<?xml version="1.0" encoding="utf-8"?>
<!-- Generator: Adobe Illustrator 18.0.0, SVG Export Plug-In . SVG Version: 6.00 Build 0)  -->
<!DOCTYPE svg PUBLIC "-//W3C//DTD SVG 1.1//EN" "http://www.w3.org/Graphics/SVG/1.1/DTD/svg11.dtd">
<svg version="1.1" id="Layer_1" xmlns="http://www.w3.org/2000/svg" xmlns:xlink="http://www.w3.org/1999/xlink" x="0px" y="0px"
	 viewBox="0 0 512 512" enable-background="new 0 0 512 512" xml:space="preserve">
<g>
	<g>
		<path fill="#4A00FF" d="M415.9,8.1H219h-4.1c-3.7,0-7.3,0.8-10.6,2.3c-2.8,1.3-5.4,2.9-7.6,5.1L83.5,128.6c-2.2,2.2-4,4.7-5.1,7.6
			c-1.5,3.3-2.3,6.9-2.3,10.6l-0.1,5.7v331.4c0,11,9,20,20,20H416c11,0,20-9,20-20V28.1C436,17,427,8.1,415.9,8.1z"/>
		<g>
			
				<linearGradient id="SVGID_1_" gradientUnits="userSpaceOnUse" x1="76.1957" y1="-128.5877" x2="255.161" y2="-307.5531" gradientTransform="matrix(1.1953 0 0 1.1953 0 424.6939)">
				<stop  offset="0" style="stop-color:#FFFFFF;stop-opacity:0.2"/>
				<stop  offset="1" style="stop-color:#FFFFFF;stop-opacity:0"/>
			</linearGradient>
			<path fill="url(#SVGID_1_)" d="M256,256V8.1h-37h-4.1c-3.7,0-7.3,0.8-10.6,2.3c-2.8,1.3-5.4,2.9-7.6,5.1L83.5,128.6
				c-2.2,2.2-4,4.7-5.1,7.6c-1.5,3.3-2.3,6.9-2.3,10.6l-0.1,5.7V256H256z"/>
			
				<linearGradient id="SVGID_2_" gradientUnits="userSpaceOnUse" x1="199.9669" y1="-155.3363" x2="374.0515" y2="-329.4208" gradientTransform="matrix(1.1953 0 0 1.1953 0 424.6939)">
				<stop  offset="0" style="stop-color:#FFFFFF;stop-opacity:0.2"/>
				<stop  offset="1" style="stop-color:#FFFFFF;stop-opacity:0"/>
			</linearGradient>
			<path fill="url(#SVGID_2_)" d="M415.9,8.1H256V256h180V28.1C436,17,427,8.1,415.9,8.1z"/>
			
				<linearGradient id="SVGID_3_" gradientUnits="userSpaceOnUse" x1="54.3017" y1="47.15" x2="228.3774" y2="-126.9258" gradientTransform="matrix(1.1953 0 0 1.1953 0 424.6939)">
				<stop  offset="0" style="stop-color:#FFFFFF;stop-opacity:0.2"/>
				<stop  offset="1" style="stop-color:#FFFFFF;stop-opacity:0"/>
			</linearGradient>
			<path fill="url(#SVGID_3_)" d="M76,483.9c0,11,9,20,20,20h160V256H76V483.9z"/>
			
				<linearGradient id="SVGID_4_" gradientUnits="userSpaceOnUse" x1="197.4871" y1="49.5948" x2="376.4525" y2="-129.3706" gradientTransform="matrix(1.1953 0 0 1.1953 0 424.6939)">
				<stop  offset="0" style="stop-color:#FFFFFF;stop-opacity:0.2"/>
				<stop  offset="1" style="stop-color:#FFFFFF;stop-opacity:0"/>
			</linearGradient>
			<path fill="url(#SVGID_4_)" d="M256,256v247.9h159.9c11,0,20-9,20-20V256H256z"/>
		</g>
		<g>
			
				<linearGradient id="SVGID_5_" gradientUnits="userSpaceOnUse" x1="63.6523" y1="-128.5703" x2="214.1722" y2="-128.5703" gradientTransform="matrix(1.1953 0 0 1.1953 0 424.6939)">
				<stop  offset="0" style="stop-color:#FFFFFF;stop-opacity:0.2"/>
				<stop  offset="1" style="stop-color:#FFFFFF;stop-opacity:0"/>
			</linearGradient>
			<path fill="url(#SVGID_5_)" d="M256,256L106,106l-22.5,22.5c-2.2,2.2-4,4.7-5.1,7.6c-1.5,3.3-2.3,6.9-2.3,10.6l-0.1,5.7V436
				L256,256z"/>
			
				<linearGradient id="SVGID_6_" gradientUnits="userSpaceOnUse" x1="88.704" y1="-244.8715" x2="364.762" y2="-244.8715" gradientTransform="matrix(1.1953 0 0 1.1953 0 424.6939)">
				<stop  offset="0" style="stop-color:#FFFFFF;stop-opacity:0.2"/>
				<stop  offset="1" style="stop-color:#FFFFFF;stop-opacity:0"/>
			</linearGradient>
			<path fill="url(#SVGID_6_)" d="M256,256L436,76V28c0-11-9-20-20-20H219h-4.1c-3.7,0-7.3,0.8-10.6,2.3c-2.8,1.3-5.4,2.9-7.6,5.1
				L106,106L256,256z"/>
			
				<linearGradient id="SVGID_7_" gradientUnits="userSpaceOnUse" x1="63.5824" y1="-37.3906" x2="364.762" y2="-37.3906" gradientTransform="matrix(1.1953 0 0 1.1953 0 424.6939)">
				<stop  offset="0" style="stop-color:#FFFFFF;stop-opacity:0.2"/>
				<stop  offset="1" style="stop-color:#FFFFFF;stop-opacity:0"/>
			</linearGradient>
			<path fill="url(#SVGID_7_)" d="M436,483.9v-48L256,256L76,436v48c0,11,9,20,20,20h319.9C427,503.9,436,495,436,483.9z"/>
			
				<linearGradient id="SVGID_8_" gradientUnits="userSpaceOnUse" x1="214.1722" y1="-141.131" x2="364.762" y2="-141.131" gradientTransform="matrix(1.1953 0 0 1.1953 0 424.6939)">
				<stop  offset="0" style="stop-color:#FFFFFF;stop-opacity:0.2"/>
				<stop  offset="1" style="stop-color:#FFFFFF;stop-opacity:0"/>
			</linearGradient>
			<polygon fill="url(#SVGID_8_)" points="436,436 436,76 256,256 			"/>
		</g>
		
			<linearGradient id="SVGID_9_" gradientUnits="userSpaceOnUse" x1="80.2037" y1="-573.0189" x2="387.1657" y2="-879.9808" gradientTransform="matrix(0.5977 0 0 0.5977 0 563.3214)">
			<stop  offset="0" style="stop-color:#FFFFFF"/>
			<stop  offset="1" style="stop-color:#FFFFFF;stop-opacity:0"/>
		</linearGradient>
		<path opacity="0.7" fill="url(#SVGID_9_)" enable-background="new    " d="M196.7,15.6L83.5,128.9c-2.2,2.2-4,4.7-5.1,7.6
			c-1.5,3.3-2.3,6.9-2.3,10.6v102l120.6-120.6c4.9-4.9,7.6-11.3,7.6-18.1v-100C201.5,11.7,198.9,13.4,196.7,15.6z"/>
		<path fill="#FFFFFF" d="M214.9,8.1c-3.7,0-7.3,0.8-10.6,2.3c-2.8,1.3-5.4,2.9-7.6,5.1L83.5,128.6c-2.2,2.2-4,4.7-5.1,7.6
			c-1.5,3.3-2.3,6.9-2.3,10.6v4.1c0-8.2,6.5-14.7,14.7-14.7h87.7c14.1,0,25.6-11.5,25.6-25.6V22.7c0-8.2,6.5-14.7,14.7-14.7
			C218.9,8.1,214.9,8.1,214.9,8.1z"/>
	</g>
	<g>
		<path fill="#232323" d="M335.9,227.6c36.5,0,70.8,10,100.1,27.4V484c0,11-9,20-20,20H156.2c-10.9-24.4-16.9-51.5-16.9-79.9
			C139.4,315.6,227.4,227.6,335.9,227.6z"/>
		
			<linearGradient id="SVGID_10_" gradientUnits="userSpaceOnUse" x1="175.9189" y1="181.5325" x2="672.2919" y2="181.5325" gradientTransform="matrix(-0.5977 0 0 0.5977 541.1467 257.3214)">
			<stop  offset="0" style="stop-color:#000000;stop-opacity:0"/>
			<stop  offset="0.1132" style="stop-color:#030303;stop-opacity:0.2264"/>
			<stop  offset="0.1813" style="stop-color:#0B0B0B;stop-opacity:0.3626"/>
			<stop  offset="0.2375" style="stop-color:#191919;stop-opacity:0.475"/>
			<stop  offset="0.2872" style="stop-color:#2E2E2E;stop-opacity:0.5744"/>
			<stop  offset="0.3326" style="stop-color:#484848;stop-opacity:0.6652"/>
			<stop  offset="0.3749" style="stop-color:#686868;stop-opacity:0.7498"/>
			<stop  offset="0.4148" style="stop-color:#8F8F8F;stop-opacity:0.8297"/>
			<stop  offset="0.4528" style="stop-color:#BBBBBB;stop-opacity:0.9057"/>
			<stop  offset="0.4881" style="stop-color:#EDEDED;stop-opacity:0.9761"/>
			<stop  offset="0.5" style="stop-color:#FFFFFF"/>
			<stop  offset="0.5119" style="stop-color:#EDEDED;stop-opacity:0.9761"/>
			<stop  offset="0.5472" style="stop-color:#BBBBBB;stop-opacity:0.9057"/>
			<stop  offset="0.5852" style="stop-color:#8F8F8F;stop-opacity:0.8297"/>
			<stop  offset="0.6251" style="stop-color:#686868;stop-opacity:0.7498"/>
			<stop  offset="0.6674" style="stop-color:#484848;stop-opacity:0.6652"/>
			<stop  offset="0.7128" style="stop-color:#2E2E2E;stop-opacity:0.5744"/>
			<stop  offset="0.7625" style="stop-color:#191919;stop-opacity:0.475"/>
			<stop  offset="0.8187" style="stop-color:#0B0B0B;stop-opacity:0.3626"/>
			<stop  offset="0.8868" style="stop-color:#030303;stop-opacity:0.2264"/>
			<stop  offset="1" style="stop-color:#000000;stop-opacity:0"/>
		</linearGradient>
		<path fill="url(#SVGID_10_)" d="M335.9,227.6c36.5,0,70.8,10,100.1,27.4V484c0,11-9,20-20,20H156.2
			c-10.9-24.4-16.9-51.5-16.9-79.9C139.4,315.6,227.4,227.6,335.9,227.6z"/>
		
			<linearGradient id="SVGID_11_" gradientUnits="userSpaceOnUse" x1="164.129" y1="8.0397" x2="606.4142" y2="450.3255" gradientTransform="matrix(-0.5977 0 0 0.5977 541.1467 257.3214)">
			<stop  offset="0" style="stop-color:#000000;stop-opacity:0"/>
			<stop  offset="0.3254" style="stop-color:#030303;stop-opacity:0.6509"/>
			<stop  offset="0.5" style="stop-color:#2A2A2A"/>
			<stop  offset="0.6705" style="stop-color:#030303;stop-opacity:0.6589"/>
			<stop  offset="1" style="stop-color:#000000;stop-opacity:0"/>
		</linearGradient>
		<path fill="url(#SVGID_11_)" d="M335.9,227.6c36.5,0,70.8,10,100.1,27.4V484c0,11-9,20-20,20H156.2
			c-10.9-24.4-16.9-51.5-16.9-79.9C139.4,315.6,227.4,227.6,335.9,227.6z"/>
		<path d="M335.9,223.5c36.5,0,70.6,9.8,100.1,26.8v9.4c-29.2-17.9-63.5-28.1-100.1-28.1c-106.1,0-192.5,86.4-192.5,192.5
			c0,28.5,6.2,55.5,17.4,79.9h-8.9c-10.6-24.5-16.6-51.5-16.6-79.9C135.3,313.5,225.3,223.5,335.9,223.5z"/>
		<path d="M335.9,324.3c55.1,0,99.9,44.7,99.9,99.9c0,32.6-15.7,61.6-39.9,79.9H276c-24.2-18.2-39.9-47.2-39.9-79.9
			C236.1,369,280.8,324.3,335.9,324.3z"/>
		<circle fill="#FFFFFF" cx="335.9" cy="424" r="79"/>
		<circle opacity="0.2" fill="#E5E5E5" enable-background="new    " cx="335.9" cy="424" r="63.5"/>
		<circle cx="335.9" cy="424" r="25"/>
		<g>
			<path d="M335.9,306.5c42.2,0,79.4,22.4,100.1,55.9v3.1c-20.1-34.4-57.5-57.5-100.1-57.5c-64,0-116,52-116,116
				c0,30.9,12.1,59,31.9,79.9h-2.2c-19.4-21-31.4-49-31.4-79.9C218.2,359.3,271,306.5,335.9,306.5z"/>
			<path d="M420.4,503.4c6-6.3,11.1-13.3,15.5-20.8v1.3c0,0.7,0,1.4-0.1,2c-3.6,5.9-7.8,11.4-12.4,16.5
				C422.4,502.8,421.4,503.2,420.4,503.4z"/>
		</g>
		<path d="M180.1,424.2c0,29.1,8,56.5,22,79.8h1.9c-14.2-23.3-22.3-50.6-22.3-79.8c0-85.1,69.2-154.2,154.2-154.2
			c38.1,0,73.1,14,100.1,37v-2.2c-27.1-22.8-62-36.5-100.1-36.5C250,268.3,180.1,338.2,180.1,424.2z"/>
	</g>
	<g>
		
			<linearGradient id="SVGID_12_" gradientUnits="userSpaceOnUse" x1="360.9966" y1="-1.4587" x2="540.5823" y2="-1.4587" gradientTransform="matrix(0.5977 0 0 0.5977 0 257.3214)">
			<stop  offset="0" style="stop-color:#FFFFFF;stop-opacity:0"/>
			<stop  offset="1" style="stop-color:#FFFFFF;stop-opacity:0.5"/>
		</linearGradient>
		<path fill="url(#SVGID_12_)" d="M321.3,264l-99.9-67.9c-1.1-0.6-2.6-0.6-3.8,0c-1.1,0.6-1.9,1.9-1.9,3.2v114.3
			c0,1.4,0.7,2.5,1.9,3.2c0.6,0.4,1.2,0.5,1.9,0.5c0.6,0,1.3-0.1,1.9-0.5l99.9-46.5c1.1-0.6,1.9-1.9,1.9-3.2
			C323.2,265.9,322.5,264.7,321.3,264z"/>
		<path fill="#FFFFFF" d="M320.4,252.2l-98.9-57.1c-1.1-0.6-2.6-0.6-3.8,0c-1.1,0.6-1.9,1.9-1.9,3.2v114.3c0,1.4,0.7,2.5,1.9,3.2
			c0.6,0.4,1.2,0.5,1.9,0.5c0.6,0,1.3-0.1,1.9-0.5l98.9-57.1c1.1-0.6,1.9-1.9,1.9-3.2C322.2,254.1,321.5,252.9,320.4,252.2z"/>
	</g>
</g>
</svg>
