<?xml version="1.0" encoding="utf-8"?>
<!-- Generator: Adobe Illustrator 18.0.0, SVG Export Plug-In . SVG Version: 6.00 Build 0)  -->
<!DOCTYPE svg PUBLIC "-//W3C//DTD SVG 1.1//EN" "http://www.w3.org/Graphics/SVG/1.1/DTD/svg11.dtd">
<svg version="1.1" id="Layer_1" xmlns="http://www.w3.org/2000/svg" xmlns:xlink="http://www.w3.org/1999/xlink" x="0px" y="0px"
	 viewBox="0 0 512 512" enable-background="new 0 0 512 512" xml:space="preserve">
<g>
	<path fill="#617d8a" d="M416,8H219h-4.1c-3.7,0-7.3,0.8-10.6,2.3c-2.8,1.3-5.4,2.9-7.6,5.1L83.5,128.6c-2.2,2.2-4,4.7-5.1,7.6
		c-1.5,3.3-2.3,6.9-2.3,10.6l-0.1,5.7V484c0,11,9,20,20,20h320c11,0,20-9,20-20V28C436,17,427,8,416,8z"/>
	<g>
		<linearGradient id="SVGID_1_" gradientUnits="userSpaceOnUse" x1="91.025" y1="271.025" x2="305.025" y2="57.025">
			<stop  offset="0" style="stop-color:#FFFFFF;stop-opacity:0.2"/>
			<stop  offset="1" style="stop-color:#FFFFFF;stop-opacity:0"/>
		</linearGradient>
		<path fill="url(#SVGID_1_)" d="M256,256V8h-37h-4.1c-3.7,0-7.3,0.8-10.6,2.3c-2.8,1.3-5.4,2.9-7.6,5.1L83.5,128.6
			c-2.2,2.2-4,4.7-5.1,7.6c-1.5,3.3-2.3,6.9-2.3,10.6l-0.1,5.7V256H256z"/>
		<linearGradient id="SVGID_2_" gradientUnits="userSpaceOnUse" x1="239" y1="239" x2="447.125" y2="30.875">
			<stop  offset="0" style="stop-color:#FFFFFF;stop-opacity:0.2"/>
			<stop  offset="1" style="stop-color:#FFFFFF;stop-opacity:0"/>
		</linearGradient>
		<path fill="url(#SVGID_2_)" d="M416,8H256v248h180V28C436,17,427,8,416,8z"/>
		<linearGradient id="SVGID_3_" gradientUnits="userSpaceOnUse" x1="64.875" y1="481.125" x2="273" y2="273">
			<stop  offset="0" style="stop-color:#FFFFFF;stop-opacity:0.2"/>
			<stop  offset="1" style="stop-color:#FFFFFF;stop-opacity:0"/>
		</linearGradient>
		<path fill="url(#SVGID_3_)" d="M76,484c0,11,9,20,20,20h160V256H76V484z"/>
		<linearGradient id="SVGID_4_" gradientUnits="userSpaceOnUse" x1="236.0625" y1="484.0625" x2="450.0625" y2="270.0625">
			<stop  offset="0" style="stop-color:#FFFFFF;stop-opacity:0.2"/>
			<stop  offset="1" style="stop-color:#FFFFFF;stop-opacity:0"/>
		</linearGradient>
		<path fill="url(#SVGID_4_)" d="M256,256v248h160c11,0,20-9,20-20V256H256z"/>
	</g>
	<g>
		<path opacity="0.5" fill="#FFFFFF" enable-background="new    " d="M335.6,265.5v-19.2l-18-6.4c-1.5-5.9-3.9-11.4-6.9-16.4l0,0
			l8.2-17.2l-13.6-13.6l-17.2,8.2l0,0c-5-3-10.6-5.4-16.5-6.9l-6.4-17.9H246l-6.5,17.9c-5.9,1.6-11.4,3.9-16.4,6.9l0,0l-17.2-8.2
			l-13.6,13.6l8.2,17.2l0,0c-3,5.1-5.4,10.6-6.9,16.4l-17.9,6.4v19.2l18,6.4c1.6,5.9,3.9,11.4,6.9,16.5l0,0l-8.2,17.3l13.6,13.6
			l17.2-8.2l0,0c5.1,3,10.6,5.4,16.4,6.9l6.4,18h19.1l6.4-18c5.9-1.5,11.4-3.9,16.5-6.9l0,0l17.2,8.2l13.6-13.6l-8.2-17.2l0,0
			c3-5,5.4-10.6,6.9-16.5L335.6,265.5z M255.7,288c-17.6,0-32-14.3-32-32s14.3-32,32-32s32,14.3,32,32S273.4,288,255.7,288z"/>
		<g>
			<polygon fill="#FFFFFF" points="338.1,267.5 338.1,260.7 333,260.7 333,263.8 330.1,264.9 331.9,269.6 			"/>
			<rect x="333" y="252.4" fill="#FFFFFF" width="5" height="7.3"/>
			<polygon fill="#FFFFFF" points="338.1,244.6 331.9,242.4 330.1,247.1 333,248.2 333,251.3 338.1,251.3 			"/>
			
				<rect x="323" y="240.7" transform="matrix(-0.9424 -0.3346 0.3346 -0.9424 553.0932 581.7944)" fill="#FFFFFF" width="7.3" height="5.1"/>
			<path fill="#FFFFFF" d="M319,236l-0.5-1.4l-4.9,1.6l0.5,1.4c0.4,0.9,0.6,2,0.9,3l0.3,1.3l5.9,2.1l1.8-4.8l-3.4-1.2
				C319.5,237.4,319.2,236.7,319,236z"/>
			<path fill="#FFFFFF" d="M311.6,230.9c0.5,1.2,1,2.2,1.4,3.4l0.5,1.4l4.9-1.8l-2.7-6.4l-4.7,2.1L311.6,230.9z"/>
			<path fill="#FFFFFF" d="M308.6,222.1l-1.1,1.1l0.5,0.9l0.5,0.8c0.5,0.9,1.1,1.8,1.5,2.7l0.8,1.4l4.5-2.4l-1.1-2
				c-0.1-0.4-0.5-0.8-0.6-1.2l1.5-3.2l-4.6-2.2L308.6,222.1z"/>
			
				<rect x="311.3" y="212.3" transform="matrix(-0.4297 0.903 -0.903 -0.4297 644.2654 22.8633)" fill="#FFFFFF" width="7.3" height="5.1"/>
			<polygon fill="#FFFFFF" points="313.8,204.6 315.9,206.8 314.5,209.6 319.2,211.8 322,205.8 317.2,201.1 			"/>
			
				<rect x="308.4" y="197" transform="matrix(0.7071 0.7071 -0.7071 0.7071 232.4946 -162.2421)" fill="#FFFFFF" width="7.3" height="5"/>
			<polygon fill="#FFFFFF" points="300,192.5 302.1,197.1 304.9,195.8 307,197.9 310.6,194.4 306,189.6 			"/>
			
				<rect x="294.3" y="193.1" transform="matrix(0.4297 0.903 -0.903 0.4297 346.9596 -155.8051)" fill="#FFFFFF" width="5.1" height="7.3"/>
			<path fill="#FFFFFF" d="M288.2,198.1c-0.1-0.1-0.4-0.1-0.5-0.3c-0.5-0.2-0.9-0.5-1.2-0.7l-1.4-0.8l-2.3,4.6l1.4,0.8
				c0.9,0.5,1.9,1.1,2.8,1.6l1.8,0.9l1.1-1.2l4-1.9l-2.2-4.6L288.2,198.1z"/>
			<path fill="#FFFFFF" d="M279.4,193.9l-1.4-0.5l-1.9,4.7l1.5,0.6c1.1,0.4,2.1,0.9,3.4,1.4l1.4,0.6l2.1-4.6l-1.4-0.7
				C281.7,194.8,280.5,194.4,279.4,193.9z"/>
			<path fill="#FFFFFF" d="M273.6,191.9l-1.2-3.4l-4.8,1.8l2.1,5.9l0.8,0.1l5,1.4l1.5-4.8l-1.4-0.5
				C275,192.4,274.3,192.1,273.6,191.9z"/>
			
				<rect x="264.8" y="182.6" transform="matrix(0.3346 0.9424 -0.9424 0.3346 353.1206 -129.7946)" fill="#FFFFFF" width="7.3" height="5.1"/>
			<polygon fill="#FFFFFF" points="260.4,178.6 263.5,178.6 264.5,181.5 269.2,179.9 267.1,173.6 260.4,173.6 			"/>
			<rect x="252.1" y="173.6" fill="#FFFFFF" width="7.3" height="5.1"/>
			<polygon fill="#FFFFFF" points="242.1,179.9 246.8,181.4 247.9,178.6 250.9,178.6 250.9,173.6 244.2,173.6 			"/>
			
				<rect x="240.4" y="181.4" transform="matrix(0.9424 0.3346 -0.3346 0.9424 75.8999 -70.617)" fill="#FFFFFF" width="5.1" height="7.3"/>
			<path fill="#FFFFFF" d="M237.8,191.9c-0.7,0.1-1.3,0.4-2.1,0.6l-1.4,0.5l1.6,4.8l1.4-0.4c0.7-0.1,1.4-0.4,2.1-0.6l1.1-0.3
				l1.3-0.3l2.1-5.9l-4.8-1.8L237.8,191.9z"/>
			<path fill="#FFFFFF" d="M227.1,195.9l2.1,4.7l1.4-0.6c1.1-0.5,2.2-0.9,3.4-1.4l1.4-0.6l-1.9-4.7L227.1,195.9z"/>
			<path fill="#FFFFFF" d="M224.3,197.4c-0.4,0.1-0.8,0.4-1.2,0.6l-3.2-1.6l-2.1,4.6l3.9,1.9l1.1,1.2l1.8-0.9l0.1-0.1
				c0.9-0.6,1.8-1.1,2.7-1.6l1.4-0.7l-2.3-4.6L224.3,197.4z"/>
			
				<rect x="210.9" y="194.4" transform="matrix(0.9029 0.4298 -0.4298 0.9029 105.4718 -73.0891)" fill="#FFFFFF" width="7.2" height="5"/>
			<polygon fill="#FFFFFF" points="200.6,194.4 204.3,197.9 206.4,195.8 209.3,197.1 211.4,192.5 205.4,189.6 			"/>
			
				<rect x="196.8" y="195.7" transform="matrix(0.7071 0.7071 -0.7071 0.7071 199.3478 -82.4996)" fill="#FFFFFF" width="5" height="7.3"/>
			<polygon fill="#FFFFFF" points="189.4,205.8 192.2,211.8 196.8,209.6 195.4,206.8 197.6,204.6 194.1,201.1 			"/>
			
				<rect x="192.8" y="212.3" transform="matrix(0.4299 0.9029 -0.9029 0.4299 305.9971 -54.8921)" fill="#FFFFFF" width="7.3" height="5.1"/>
			<path fill="#FFFFFF" d="M200.8,218.1l-4.6,2.2l1.6,3.2c-0.1,0.1-0.1,0.1-0.1,0.2c-0.3,0.5-0.6,1.1-0.9,1.6l-0.7,1.4l4.6,2.3
				l0.7-1.4c0.3-0.6,0.6-1.1,0.9-1.6c0.1-0.4,0.4-0.8,0.6-1.1l0.9-1.6l-1.1-1.1L200.8,218.1z"/>
			<path fill="#FFFFFF" d="M198.3,234.2c0.4-1.1,0.8-2.1,1.4-3.3l0.8-1.4l-4.8-2.1l-0.6,1.4c-0.6,1.2-1.1,2.4-1.6,3.6l-0.6,1.4
				l4.7,1.9L198.3,234.2z"/>
			<path fill="#FFFFFF" d="M190.1,244l5.9-2.1l0.1-0.8l1.4-5l-4.8-1.6l-0.5,1.4c-0.2,0.7-0.4,1.4-0.6,2.1l-3.4,1.2L190.1,244z"/>
			
				<rect x="182.2" y="239.6" transform="matrix(0.3346 0.9424 -0.9424 0.3346 352.1648 -12.2228)" fill="#FFFFFF" width="5.1" height="7.3"/>
			<polygon fill="#FFFFFF" points="173.2,244.6 173.2,251.3 178.4,251.3 178.4,248.2 181.2,247.1 179.4,242.4 			"/>
			<rect x="173.2" y="252.4" fill="#FFFFFF" width="5.1" height="7.3"/>
			<polygon fill="#FFFFFF" points="173.2,267.5 179.4,269.6 181.2,264.9 178.4,263.8 178.4,260.7 173.2,260.7 			"/>
			
				<rect x="181.2" y="266.2" transform="matrix(-0.9424 -0.3345 0.3345 -0.9424 269.1675 583.8628)" fill="#FFFFFF" width="7.3" height="5.1"/>
			<path fill="#FFFFFF" d="M192.2,276l0.5,1.4l4.9-1.5l-0.6-1.5c-0.4-1-0.6-2-0.9-3l-0.3-1.3L190,268l-1.8,4.8l3.4,1.2
				C191.8,274.6,192.1,275.3,192.2,276z"/>
			<path fill="#FFFFFF" d="M195.6,284.7l4.6-2.2l-0.6-1.4c-0.5-1.2-0.9-2.2-1.4-3.4l-0.6-1.5l-4.8,1.9L195.6,284.7z"/>
			<path fill="#FFFFFF" d="M202.9,290l1.1-1.1l-0.9-1.6H203c-0.6-0.9-1.1-1.8-1.6-2.7l-0.7-1.4l-4.6,2.3l1.1,2
				c0.1,0.4,0.4,0.8,0.6,1.2l-1.6,3.2l4.6,2.2L202.9,290z"/>
			
				<rect x="192.9" y="294.6" transform="matrix(0.4296 -0.903 0.903 0.4296 -156.228 346.9444)" fill="#FFFFFF" width="7.2" height="5"/>
			<polygon fill="#FFFFFF" points="197.6,307.5 195.4,305.2 196.8,302.4 192.2,300.2 189.4,306.2 194.1,310.9 			"/>
			
				<rect x="195.5" y="310.1" transform="matrix(-0.7071 -0.7071 0.7071 -0.7071 118.9588 674.4354)" fill="#FFFFFF" width="7.3" height="5"/>
			<polygon fill="#FFFFFF" points="211.4,319.5 209.3,314.9 206.4,316.2 204.3,314 200.6,317.6 205.4,322.4 			"/>
			
				<rect x="212.1" y="311.5" transform="matrix(-0.4296 -0.903 0.903 -0.4296 22.2753 644.3024)" fill="#FFFFFF" width="5" height="7.2"/>
			<path fill="#FFFFFF" d="M223.1,314c0.1,0.1,0.4,0.1,0.6,0.3c0.4,0.2,0.9,0.5,1.2,0.7l1.4,0.8l2.4-4.5l-1.4-0.8
				c-0.9-0.5-1.9-1.1-2.8-1.5l-1.8-0.9l-1.1,1.1l-4,1.9l2.2,4.6L223.1,314z"/>
			<path fill="#FFFFFF" d="M232.1,318.1l1.4,0.5l1.8-4.8l-1.4-0.5c-1.1-0.4-2.1-0.9-3.4-1.4l-1.4-0.6l-2.1,4.6l1.4,0.6
				C229.6,317.2,230.9,317.6,232.1,318.1z"/>
			<path fill="#FFFFFF" d="M237.8,320l1.2,3.4l4.8-1.8l-2.1-5.9l-0.8-0.1l-5-1.5l-1.6,4.8l1.4,0.5
				C236.4,319.6,237.1,319.9,237.8,320z"/>
			
				<rect x="239.2" y="324.4" transform="matrix(-0.3346 -0.9424 0.9424 -0.3346 16.0295 665.2147)" fill="#FFFFFF" width="7.3" height="5.1"/>
			<polygon fill="#FFFFFF" points="250.9,333.4 247.9,333.4 246.8,330.5 242.1,332 244.2,338.5 250.9,338.5 			"/>
			<rect x="252.1" y="333.4" fill="#FFFFFF" width="7.3" height="5"/>
			<polygon fill="#FFFFFF" points="269.2,332 264.5,330.5 263.5,333.4 260.4,333.4 260.4,338.5 267.1,338.5 			"/>
			
				<rect x="264.8" y="324.3" transform="matrix(-0.3345 0.9424 -0.9424 -0.3345 666.2451 183.2981)" fill="#FFFFFF" width="7.3" height="5.1"/>
			<path fill="#FFFFFF" d="M273.5,320c0.7-0.1,1.3-0.4,2-0.6l1.4-0.5l-1.5-4.9l-1.5,0.5c-1,0.4-2,0.6-3,0.9l-1.3,0.3l-2.1,5.9
				l4.8,1.8L273.5,320z"/>
			<path fill="#FFFFFF" d="M279.4,318.1c1.1-0.4,2.2-0.9,3.5-1.5l1.4-0.6l-2-4.7l-1.4,0.6c-1.2,0.5-2.2,1-3.4,1.4l-1.5,0.5l1.9,4.7
				L279.4,318.1z"/>
			<path fill="#FFFFFF" d="M286.4,314.9c0.6-0.3,1.2-0.7,1.8-1.1l3.1,1.5l2.2-4.6l-4-1.9l-1.1-1.1l-1,0.5l-0.8,0.5
				c-0.9,0.5-1.8,1.1-2.7,1.5l-1.4,0.7l2.3,4.6L286.4,314.9z"/>
			
				<rect x="293.1" y="312.6" transform="matrix(-0.9029 -0.4298 0.4298 -0.9029 429.2256 727.0828)" fill="#FFFFFF" width="7.2" height="5"/>
			<polygon fill="#FFFFFF" points="310.6,317.6 307,314 304.9,316.2 302.1,314.9 300,319.5 306,322.4 			"/>
			
				<rect x="309.7" y="308.8" transform="matrix(-0.7071 -0.7071 0.7071 -0.7071 311.9672 754.0434)" fill="#FFFFFF" width="5" height="7.3"/>
			<polygon fill="#FFFFFF" points="322,306.2 319.2,300.2 314.5,302.4 315.9,305.2 313.8,307.4 317.2,310.9 			"/>
			
				<rect x="311.2" y="294.5" transform="matrix(-0.4296 -0.903 0.903 -0.4296 181.8339 708.8121)" fill="#FFFFFF" width="7.2" height="5"/>
			<path fill="#FFFFFF" d="M310.5,293.9l4.6-2.1l-1.5-3.2c0.1-0.1,0.1-0.4,0.3-0.5c0.2-0.5,0.5-0.9,0.7-1.2l0.8-1.4l-4.5-2.3
				l-0.8,1.4c-0.5,0.9-1.1,1.9-1.5,2.8l-0.9,1.8l1.1,1.1L310.5,293.9z"/>
			<path fill="#FFFFFF" d="M313,277.9c-0.4,1.1-0.9,2.1-1.4,3.4l-0.6,1.4l4.6,2l0.6-1.4c0.6-1.3,1.1-2.5,1.5-3.6l0.5-1.4l-4.6-1.9
				L313,277.9z"/>
			<path fill="#FFFFFF" d="M321.3,268l-5.9,2.1l-0.1,0.8l-1.5,5l4.8,1.5l0.5-1.4c0.2-0.7,0.5-1.4,0.6-2l3.4-1.2L321.3,268z"/>
			
				<rect x="323.9" y="265.2" transform="matrix(-0.3347 -0.9423 0.9423 -0.3347 182.3833 666.3015)" fill="#FFFFFF" width="5" height="7.2"/>
			<path fill="#FFFFFF" d="M241.6,224.5c-2.2,0.9-4.3,2.2-6.3,3.6l-1.2,0.9l2.9,4.1l1.2-0.9c1.6-1.2,3.5-2.2,5.3-3l1.4-0.6l-2.1-4.7
				L241.6,224.5z"/>
			<path fill="#FFFFFF" d="M221.4,259.7c0.3,2.6,0.8,4.9,1.4,7l0.5,1.4l4.9-1.4l-0.5-1.5c-0.6-1.9-1.1-3.9-1.3-6l-0.1-1.5l-5.1,0.5
				L221.4,259.7z"/>
			<path fill="#FFFFFF" d="M285.6,273.1c1.2-2.1,2.2-4.3,2.9-6.6l0.5-1.5l-4.9-1.5l-0.5,1.5c-0.5,1.8-1.4,3.7-2.5,5.6l-0.8,1.4
				l4.4,2.5L285.6,273.1z"/>
			<path fill="#FFFFFF" d="M230.1,232.9c-1.4,1.6-2.9,3.6-4.2,5.8l-0.8,1.4l4.4,2.6l0.8-1.4c0.9-1.8,2.1-3.4,3.6-4.9l1.1-1.1
				l-3.8-3.4L230.1,232.9z"/>
			<path fill="#FFFFFF" d="M226.4,252.9c0.1-2.1,0.6-4.1,1.3-5.9l0.6-1.4l-4.9-1.6l-0.5,1.4c-0.8,2.3-1.2,4.7-1.4,7l-0.1,1.6
				l5.1,0.5L226.4,252.9z"/>
			<path fill="#FFFFFF" d="M246.9,222.6l1.1,4.9l1.4-0.3c2-0.4,4.1-0.7,6.1-0.7l1.4-0.1v-5h-1.6c-2.4,0-4.9,0.2-7.1,0.8L246.9,222.6
				z"/>
			<path fill="#FFFFFF" d="M260.2,226.9l1.5,0.3c2,0.4,4,1.1,5.9,1.9l1.4,0.6l2-4.7l-1.4-0.6c-2-0.9-4.3-1.6-6.9-2.2l-1.5-0.3
				L260.2,226.9z"/>
			<path fill="#FFFFFF" d="M257.4,290.5v-5.1h-1.6c-2,0-4-0.2-6.1-0.6l-1.4-0.3l-1.1,4.9l1.4,0.3c2.2,0.5,4.8,0.8,7.1,0.8
				L257.4,290.5L257.4,290.5z"/>
			<path fill="#FFFFFF" d="M269.9,287.5l1.4-0.6l-2-4.7l-1.4,0.7c-1.9,0.9-3.8,1.5-5.8,1.9l-1.5,0.3l1.1,5l1.5-0.3
				C265.6,289.1,267.9,288.4,269.9,287.5z"/>
			<path fill="#FFFFFF" d="M277.6,275.6c-1.4,1.5-2.9,2.9-4.6,4.1l-1.2,0.9l3,4l1.2-0.9c1.9-1.4,3.7-3,5.4-4.8l1.1-1.1l-3.8-3.5
				L277.6,275.6z"/>
			<path fill="#FFFFFF" d="M241.6,287.5l1.4,0.6l2.1-4.7l-1.4-0.6c-2.1-0.9-3.9-1.9-5.3-3l-1.2-0.9l-3,4.1l1.3,0.9
				C237.4,285.5,239.5,286.6,241.6,287.5z"/>
			<path fill="#FFFFFF" d="M230,279.1l0.9,1.1l3.9-3.4l-1.1-1.2c-1.2-1.4-2.4-3-3.6-5l-0.8-1.3l-4.4,2.5l0.8,1.4
				C227,275.4,228.4,277.4,230,279.1z"/>
			<path fill="#FFFFFF" d="M277.5,236.2l1.1,1.2l3.8-3.4l-1.1-1.1c-1.6-1.8-3.4-3.4-5.4-4.8l-1.2-0.9l-3,4.1l1.2,0.9
				C274.8,233.6,276.3,234.9,277.5,236.2z"/>
			<path fill="#FFFFFF" d="M290,259.5c0.1-1.2,0.1-2.3,0.1-3.5c0-1.2,0-2.5-0.1-3.7l-0.1-1.6l-5,0.5l0.1,1.6
				c0.1,1.1,0.1,2.1,0.1,3.1c0,0.9,0,2-0.1,2.9l-0.1,1.5l5,0.5L290,259.5z"/>
			<path fill="#FFFFFF" d="M283.6,246.9l0.5,1.4l4.9-1.6l-0.5-1.4c-0.8-2.4-1.8-4.6-3-6.6l-0.8-1.3l-4.4,2.6l0.8,1.4
				C282.1,243,283,244.9,283.6,246.9z"/>
			<path fill="#FFFFFF" d="M175.7,355.7c-0.9-0.8-2.1-1.6-3-2.5l-1.2-1.1l-3.4,4l5.6,4.6l3.1-4L175.7,355.7z"/>
			<path fill="#FFFFFF" d="M382.5,275.6c-0.1,1.4-0.5,2.8-0.7,3.9l-0.3,1.5l5,0.9l0.2-1.5c0.1-0.6,0.2-1.3,0.3-1.9
				c0.1-0.7,0.2-1.4,0.4-2.1l0.3-1.5l-5.1-0.8L382.5,275.6z"/>
			<path fill="#FFFFFF" d="M182.1,360.5c-1.2-0.9-2.2-1.6-3.1-2.2l-1.2-0.9l-3.1,4l1.2,0.9c1.1,0.8,2.2,1.6,3.3,2.5l0.9-1.2l0,0
				l-0.9,1.2l1.3,0.9l2.9-4.2L182.1,360.5z"/>
			<path fill="#FFFFFF" d="M169.7,350.7c-0.9-0.9-1.9-1.8-2.9-2.6l-1.1-1.1l-3.6,3.6l5.2,4.9l3.4-3.9L169.7,350.7z"/>
			<path fill="#FFFFFF" d="M188.7,365c-1.1-0.7-2.2-1.4-3.4-2.1L184,362l-2.9,4.2l1.3,0.9c0.8,0.5,1.6,1.1,2.5,1.6l2.2,1.4l2.9-4.2
				L188.7,365z"/>
			<path fill="#FFFFFF" d="M164.1,345.2c-0.9-0.9-1.8-1.9-2.7-2.9l-1.1-1.1l-3.8,3.5l4.9,5.2l3.6-3.5L164.1,345.2z"/>
			<path fill="#FFFFFF" d="M158.8,339.4c-0.6-0.6-1.1-1.2-1.6-1.9c-0.3-0.4-0.6-0.8-0.9-1.1l-0.9-1.2l-3.9,3.1l0.9,1.2
				c0.9,1.1,1.8,2.1,2.6,3.1l0.9,1.1l3.9-3.2L158.8,339.4z"/>
			<path fill="#FFFFFF" d="M376.8,298.5c-0.5,1.5-0.9,2.6-1.3,3.7l-0.5,1.4l4.8,1.9l0.9-2.2c0.4-1,0.8-2,1.1-3.1l0.5-1.4l-4.8-1.8
				L376.8,298.5z"/>
			<path fill="#FFFFFF" d="M194.7,368.5c-0.9-0.5-1.8-1-2.6-1.5l-1.4-0.8l-2.6,4.4l1.3,0.8c0.9,0.6,2.1,1.3,3.6,2l1.3,0.7l2.6-4.4
				L194.7,368.5z"/>
			<path fill="#FFFFFF" d="M153.8,333.2c-0.7-0.9-1.4-1.9-2.2-3.1l-0.9-1.3l-4.1,3l0.9,1.2c0.8,1.1,1.6,2.2,2.4,3.3l0.9,1.2l3.9-3.1
				L153.8,333.2z"/>
			<path fill="#FFFFFF" d="M374,305.9c-0.5,1.1-1.1,2.3-1.5,3.5l-0.6,1.4l4.6,2.2l3-6.6l-4.7-2L374,305.9z"/>
			<path fill="#FFFFFF" d="M379.9,288.6l4.9,1.3l0.4-1.5c0.3-1.2,0.6-2.6,1-3.9l0.5-1.5l-5-1.1L379.9,288.6z"/>
			<path fill="#FFFFFF" d="M136.1,301l-4.7,1.9l0.6,1.4c0.6,1.5,1.1,2.7,1.6,3.9l0.6,1.4l4.6-2L136.1,301z"/>
			<path fill="#FFFFFF" d="M370.6,313.1c-0.6,1.2-1.2,2.5-1.9,3.5L368,318l4.5,2.3l0.8-1.3c0.6-1.1,1.3-2.3,1.9-3.8l0.6-1.4
				l-4.5-2.1L370.6,313.1z"/>
			<path fill="#FFFFFF" d="M379.2,290.9c-0.5,1.5-0.8,2.6-1.2,3.8l-0.5,1.5l4.8,1.5l0.5-1.4c0.4-1.1,0.7-2.2,1.1-3.4l0.6-2.1
				l-4.9-1.4L379.2,290.9z"/>
			<path fill="#FFFFFF" d="M294.9,378c-1,0.3-2,0.6-3,0.9l-2.2,0.7l1.4,4.9l1.5-0.5c1.3-0.4,2.6-0.8,4-1.2l1.4-0.5l-1.5-4.9
				L294.9,378z"/>
			<path fill="#FFFFFF" d="M309.5,372.3c-1.3,0.6-2.5,1.1-3.5,1.5l-1.5,0.6l2,4.8l6.6-3l-2.2-4.6L309.5,372.3z"/>
			<path fill="#FFFFFF" d="M282,381.4l1.1,5l2.1-0.5c1.1-0.2,2.2-0.5,3.4-0.9l1.4-0.5l-1.2-4.8L282,381.4z"/>
			<path fill="#FFFFFF" d="M302.5,375.4c-0.8,0.2-1.5,0.5-2.2,0.8c-0.5,0.1-1.1,0.4-1.5,0.5l-1.5,0.5l1.8,4.8l1.4-0.5
				c1.2-0.5,2.5-0.9,3.9-1.4l1.5-0.5L304,375L302.5,375.4z"/>
			<path fill="#FFFFFF" d="M279.6,381.8c-1.2,0.2-2.5,0.5-3.9,0.7l-1.5,0.2l0.8,5l1.5-0.1c1.4-0.1,2.8-0.5,4-0.7l1.5-0.3l-0.9-5
				L279.6,381.8z"/>
			<path fill="#FFFFFF" d="M348,345.2c-0.6,0.6-1.2,1.2-1.9,1.9c-0.3,0.3-0.6,0.6-0.9,0.9l-1.1,1.1l3.5,3.5l5-5L349,344L348,345.2z"
				/>
			<path fill="#FFFFFF" d="M323.5,365c-0.5,0.3-1.1,0.7-1.6,1c-0.5,0.4-1.2,0.7-1.8,1.1l-1.3,0.8l2.5,4.4l1.4-0.8
				c1.1-0.7,2.2-1.4,3.4-2l1.3-0.8l-2.6-4.4L323.5,365z"/>
			<path fill="#FFFFFF" d="M336.2,355.8c-1.1,0.9-2.1,1.6-3.1,2.5l-1.2,0.9l3.1,4l1.2-0.9c1.1-0.8,2.1-1.6,3.3-2.6l1.1-1l-3.1-3.9
				L336.2,355.8z"/>
			<path fill="#FFFFFF" d="M311.9,371.4l2.2,4.6l1.4-0.8c0.5-0.3,1.2-0.6,1.8-0.9c0.6-0.3,1.2-0.6,1.8-0.9l1.4-0.8l-2.3-4.5
				L311.9,371.4z"/>
			<path fill="#FFFFFF" d="M342.3,350.6c-1,0.9-2,1.8-2.9,2.6l-1.1,1l3.3,3.9l1.2-1.1c1-0.9,2-1.8,3.1-2.8l1.1-1.1l-3.5-3.8
				L342.3,350.6z"/>
			<path fill="#FFFFFF" d="M330,360.5c-1,0.8-2.1,1.5-3.2,2.2l-1.3,0.9l2.9,4.2l1.9-1.2c1-0.7,1.9-1.3,2.9-2l1.2-0.9l-3-4L330,360.5
				z"/>
			<path fill="#FFFFFF" d="M353.2,339.4c-0.5,0.5-0.9,1-1.3,1.5c-0.5,0.5-0.9,1-1.4,1.5l-1,1.1l3.8,3.5l1.3-1.5
				c0.8-0.9,1.6-1.8,2.5-2.6l1.1-1.2l-4-3.4L353.2,339.4z"/>
			<path fill="#FFFFFF" d="M244.3,383.5l-1.6-0.1l-0.5,5l1.6,0.1c1.3,0.1,2.7,0.2,4.1,0.3h1.6l0.3-5h-1.6
				C246.9,383.8,245.6,383.6,244.3,383.5z"/>
			<path fill="#FFFFFF" d="M358.2,333.2c-0.4,0.5-0.8,1.1-1.2,1.5c-0.5,0.5-0.9,1.1-1.2,1.6l-0.9,1.2l3.9,3.1l1-1.2
				c0.5-0.6,1-1.2,1.5-1.9c0.4-0.5,0.7-0.9,1.1-1.3l1-1.2l-4-3.1L358.2,333.2z"/>
			<path fill="#FFFFFF" d="M236.5,382.5l-1.4-0.2l-0.8,5l1.6,0.2c1.3,0.1,2.6,0.4,4,0.5l1.6,0.1l0.6-5l-3.4-0.5
				C237.8,382.8,237.1,382.7,236.5,382.5z"/>
			<path fill="#FFFFFF" d="M224.9,380.3c-0.7-0.1-1.4-0.5-2.1-0.6c-0.6-0.1-1.1-0.3-1.6-0.5l-1.4-0.5l-1.4,4.9l1.4,0.5
				c1.4,0.4,2.7,0.8,3.9,1.1l1.4,0.4l1.2-4.8L224.9,380.3z"/>
			<path fill="#FFFFFF" d="M228.8,381.1l-1.6-0.4l-1.1,5l1.4,0.4c1.3,0.3,2.6,0.5,4,0.8l1.4,0.2l0.7-3.5l0.2-1.5l-1.4-0.3
				C231.3,381.6,230,381.4,228.8,381.1z"/>
			<path fill="#FFFFFF" d="M141.4,313.1c-0.4-0.9-0.9-1.8-1.3-2.6l-1.1-2.2l-4.6,2.2l0.6,1.4c0.6,1.2,1.1,2.5,1.8,3.7l0.8,1.4
				l4.6-2.3L141.4,313.1z"/>
			<path fill="#FFFFFF" d="M145.1,320.1c-0.8-1.2-1.4-2.3-1.9-3.4l-0.8-1.4l-4.6,2.3l0.8,1.4c0.6,1.2,1.4,2.5,2,3.5l0.8,1.3l4.6-2.5
				L145.1,320.1z"/>
			<path fill="#FFFFFF" d="M149.3,326.8c-0.8-1.1-1.6-2.5-2.1-3.3l-0.8-1.3l-4.4,2.6l0.8,1.3c0.8,1.2,1.4,2.5,2.2,3.5l0.9,1.2
				l4.4-2.8L149.3,326.8z"/>
			<path fill="#FFFFFF" d="M366.9,320c-0.6,1.1-1.4,2.2-2,3.4l-0.8,1.3l4.3,2.6l0.8-1.3c0.8-1.2,1.5-2.5,2.1-3.6l0.7-1.3l-4.4-2.5
				L366.9,320z"/>
			<path fill="#FFFFFF" d="M362.8,326.8c-0.4,0.5-0.8,1.1-1.1,1.6c-0.4,0.5-0.8,1.1-1.2,1.6l-0.8,1.2l4,3l0.9-1.4
				c0.8-1.1,1.5-2.2,2.2-3.3l0.9-1.3l-4.2-2.9L362.8,326.8z"/>
			<path fill="#FFFFFF" d="M252.2,384h-1.6l-0.1,5h1.6c1.4,0,2.7,0,4,0h1.6v-5H256C254.8,384,253.5,384,252.2,384z"/>
			<path fill="#FFFFFF" d="M271.8,383c-1.2,0.1-2.5,0.3-3.5,0.4l-1.8,0.1l0.5,5l1.9-0.1c1.2-0.1,2.5-0.2,3.7-0.5l1.5-0.1l-0.6-5
				L271.8,383z"/>
			<path fill="#FFFFFF" d="M263.5,383.8c-1.2,0-2.3,0.1-3.4,0.1l-1.6,0.1l0.1,5h1.5c1.4,0,2.8,0,4.2-0.1l1.5-0.1l-0.3-5H263.5z"/>
			<path fill="#FFFFFF" d="M260,128.1l1.5,0.1l0.1-5.1l-1.5-0.1c-1.4-0.1-2.8-0.1-4.1-0.1h-1.8v5.1h1.8
				C257.2,127.9,258.6,127.9,260,128.1z"/>
			<path fill="#FFFFFF" d="M175.6,156.3c1.2-0.9,2.2-1.8,3.1-2.3l1.4-0.9L177,149l-1.2,0.9c-1.2,0.9-2.2,1.6-3.3,2.6l-1.2,0.9
				l3.1,3.9L175.6,156.3z"/>
			<path fill="#FFFFFF" d="M169.6,161.5c0.9-0.9,2-1.8,3-2.7l1.1-0.9l-3.3-3.9l-1.2,1.1c-0.5,0.4-0.9,0.9-1.4,1.3s-1.1,0.9-1.6,1.4
				l-1.1,1.1l3.4,3.7L169.6,161.5z"/>
			<path fill="#FFFFFF" d="M182.4,151.3c0.9-0.6,1.9-1.3,2.8-1.9l1.4-0.9l-2-3l-0.9-1.3l-1.3,0.9c-1.1,0.8-2.2,1.4-3.4,2.2l-1.2,0.9
				l2.9,4.1L182.4,151.3z"/>
			<path fill="#FFFFFF" d="M239.9,128.9c0.7-0.1,1.4-0.1,2.1-0.2c0.7-0.1,1.3-0.1,1.9-0.1l1.6-0.1l-0.5-5.1l-1.9,0.2
				c-1.2,0.1-2.5,0.2-3.8,0.4l-1.4,0.2l0.6,5L239.9,128.9z"/>
			<path fill="#FFFFFF" d="M153.8,178.9c0.8-1.1,1.6-2.1,2.4-3.3l0.9-1.2l-3.9-3.1l-0.9,1.2c-0.4,0.5-0.8,1.1-1.2,1.6
				c-0.4,0.6-0.9,1.1-1.2,1.6l-0.9,1.2l4.1,3.1L153.8,178.9z"/>
			<path fill="#FFFFFF" d="M162.2,168.7l-3.8-3.4l-1.1,1.2c-0.3,0.3-0.6,0.7-0.9,0.9c-0.6,0.7-1.2,1.4-1.8,2.1l-0.9,1.2l3.9,3.3
				L162.2,168.7z"/>
			<path fill="#FFFFFF" d="M188.5,147.2c0.8-0.5,1.6-1.1,2.4-1.4c0.3-0.1,0.6-0.4,0.9-0.6l1.3-0.8l-2.6-4.4l-1.4,0.8
				c-0.9,0.5-1.8,1.1-2.6,1.6l-2.2,1.4l2.6,4.4L188.5,147.2z"/>
			<path fill="#FFFFFF" d="M217.8,133.8c0.9-0.3,2-0.6,3-0.9l1.4-0.5l-1.4-4.8l-1.4,0.4c-1.3,0.4-2.6,0.8-3.9,1.2l-1.4,0.5l1.6,4.8
				L217.8,133.8z"/>
			<path fill="#FFFFFF" d="M224.5,131.9c1.2-0.3,2.6-0.6,3.9-0.9l1.6-0.3l-1.1-5.1l-1.6,0.4c-0.6,0.1-1.3,0.3-2,0.4
				c-0.7,0.2-1.4,0.3-2,0.5l-1.6,0.4l1.2,4.9L224.5,131.9z"/>
			<path fill="#FFFFFF" d="M232.2,130.2c1.2-0.2,2.6-0.5,3.9-0.7l1.6-0.2l-0.8-5l-1.4,0.2c-1.4,0.2-2.8,0.4-4.1,0.7l-1.4,0.3l0.9,5
				L232.2,130.2z"/>
			<path fill="#FFFFFF" d="M384,252c0,1.3,0,2.6,0,3.9v1.6h5v-1.6c0-1.4,0-2.8,0-4.1v-1.6l-5,0.1V252z"/>
			<path fill="#FFFFFF" d="M195.3,143.2c1.2-0.6,2.3-1.2,3.6-1.9l1.4-0.7L198,136l-1.4,0.6c-0.9,0.4-1.9,0.9-2.8,1.4l-2.2,1.2
				l2.3,4.6L195.3,143.2z"/>
			<path fill="#FFFFFF" d="M203.1,139.3c0.9-0.4,1.8-0.8,2.7-1.2l1.4-0.6l-2.1-4.8l-6.6,2.9l2.2,4.6L203.1,139.3z"/>
			<path fill="#FFFFFF" d="M209.5,136.6c1.2-0.5,2.4-0.9,3.6-1.3l1.6-0.4L213,130l-1.4,0.5c-1.2,0.4-2.4,0.9-3.9,1.4l-1.4,0.6
				l1.9,4.7L209.5,136.6z"/>
			<path fill="#FFFFFF" d="M149.2,185.4c0.8-1.1,1.4-2.2,2.2-3.2l0.9-1.2l-4.1-3l-0.9,1.4c-0.4,0.6-0.8,1.1-1.1,1.6
				c-0.4,0.6-0.8,1.1-1.2,1.6l-0.9,1.3l4.2,2.9L149.2,185.4z"/>
			<path fill="#FFFFFF" d="M164,167c0.9-0.9,1.8-1.9,2.8-2.8l1.2-1.1l-3.6-3.6l-1.1,1.1c-0.3,0.3-0.6,0.6-0.9,0.9
				c-0.6,0.6-1.3,1.3-2,2l-1.1,1.1l3.6,3.6L164,167z"/>
			<path fill="#FFFFFF" d="M128.5,268c-0.1-1.3-0.2-2.6-0.3-3.9l-0.1-1.5l-5.1,0.3l0.1,1.5c0.1,1.4,0.2,2.7,0.3,4l0.1,1.5l5-0.5V268
				z"/>
			<path fill="#FFFFFF" d="M145.1,192.1c0.8-1.2,1.4-2.2,2.1-3.4l0.9-1.4l-4.4-2.6l-0.8,1.2c-0.8,1.2-1.4,2.3-2.1,3.5l-0.8,1.4
				l4.4,2.6L145.1,192.1z"/>
			<path fill="#FFFFFF" d="M201.7,372c-0.9-0.5-1.8-0.9-2.6-1.3l-1.4-0.8l-2.2,4.6l1.4,0.7c0.4,0.1,0.8,0.4,1.2,0.5
				c0.8,0.4,1.6,0.8,2.5,1.2l1.4,0.6l2.1-4.6L201.7,372z"/>
			<path fill="#FFFFFF" d="M128,252.1c0-1.2,0.1-2.6,0.1-3.9l0.1-1.6l-5.2-0.3l-0.3,7.2l5.2,0.1L128,252.1L128,252.1z"/>
			<path fill="#FFFFFF" d="M135.2,298.8c-0.3-0.8-0.6-1.5-0.8-2.2c-0.1-0.5-0.3-0.9-0.5-1.4l-0.5-1.4l-4.9,1.5l0.5,1.5
				c0.4,1.2,0.9,2.5,1.3,3.9l0.5,1.5l4.9-1.8L135.2,298.8z"/>
			<path fill="#FFFFFF" d="M130.9,283.5c-0.3-1.2-0.6-2.6-0.8-3.9l-0.3-1.5l-5,0.9l0.4,2c0.2,1.2,0.4,2.3,0.8,3.5l0.4,1.5l5-1.1
				L130.9,283.5z"/>
			<path fill="#FFFFFF" d="M132.9,291.2c-0.4-1.5-0.8-2.6-1.1-3.8l-0.4-1.5l-4.8,1.2l0.4,1.5c0.3,1.4,0.7,2.6,1.1,4l0.4,1.5l4.9-1.4
				L132.9,291.2z"/>
			<path fill="#FFFFFF" d="M128,260.1c-0.1-1.3-0.1-2.6-0.1-4v-1.6h-5.1v1.6c0,1.4,0,2.8,0.1,4.1l0.1,1.5l5.1-0.1L128,260.1z"/>
			<path fill="#FFFFFF" d="M138.1,206.2c0.4-1.1,0.9-2.2,1.6-3.6l0.7-1.4l-4.6-2.2l-0.6,1.4c-0.6,1.3-1.2,2.6-1.8,3.9l-0.6,1.4
				l4.7,2.1L138.1,206.2z"/>
			<path fill="#FFFFFF" d="M135.1,213.6c0.3-0.9,0.8-2.3,1.3-3.7l0.6-1.4l-4.8-1.9l-0.9,2.2c-0.4,0.9-0.8,2-1.1,3l-0.5,1.4l4.8,1.8
				L135.1,213.6z"/>
			<path fill="#FFFFFF" d="M141.3,199.1c0.4-0.9,1.1-2.2,1.8-3.4l0.9-1.4l-4.6-2.4l-0.8,1.4c-0.6,1.2-1.2,2.3-1.9,3.6l-0.7,1.4
				l4.6,2.2L141.3,199.1z"/>
			<path fill="#FFFFFF" d="M130.9,228.8c0.2-1.2,0.6-2.6,0.9-3.9l0.4-1.4l-4.8-1.3l-0.4,1.6c-0.2,0.7-0.3,1.3-0.5,2
				c-0.1,0.7-0.3,1.3-0.4,2l-0.4,1.6l5,1.1L130.9,228.8z"/>
			<path fill="#FFFFFF" d="M129.4,236.6c0.1-1.4,0.4-2.7,0.7-3.9l0.3-1.6l-5-0.9l-0.4,2.1c-0.2,1.2-0.4,2.3-0.6,3.5l-0.2,1.4l5,0.8
				L129.4,236.6z"/>
			<path fill="#FFFFFF" d="M128.5,244.3c0.1-1.2,0.2-2.5,0.4-3.9l0.2-1.6l-5.1-0.6l-0.2,1.4c-0.2,1.4-0.3,2.7-0.4,4.1l-0.1,1.6
				l5.1,0.5L128.5,244.3z"/>
			<path fill="#FFFFFF" d="M133,220.3c0.3-0.9,0.6-2,0.9-2.9l0.5-1.4l-4.9-1.6l-0.5,1.4c-0.4,1.4-0.8,2.6-1.2,3.9l-0.4,1.4l4.9,1.4
				L133,220.3z"/>
			<path fill="#FFFFFF" d="M129.5,275.8c-0.1-0.7-0.1-1.3-0.3-2l-0.5-3.5l-5,0.6l0.2,1.6c0.2,1.3,0.4,2.6,0.6,3.9l0.2,1.5l5-0.8
				L129.5,275.8z"/>
			<path fill="#FFFFFF" d="M362.8,185.3c0.8,1.1,1.5,2.2,2.1,3.3l0.8,1.4l4.2-2.7l-0.8-1.3c-0.8-1.2-1.5-2.4-2.2-3.4l-0.9-1.3
				l-4.2,2.9L362.8,185.3z"/>
			<path fill="#FFFFFF" d="M367,191.9c0.1,0.3,0.4,0.7,0.5,1.1c0.5,0.8,0.9,1.6,1.3,2.4l0.8,1.4l4.5-2.3l-0.8-1.4
				c-0.6-1.2-1.4-2.4-2-3.6l-0.8-1.4l-4.4,2.6L367,191.9z"/>
			<path fill="#FFFFFF" d="M358.2,178.9c0.7,0.9,1.4,1.9,2.2,3.1l0.9,1.2l4.2-2.9l-0.9-1.3c-0.8-1.1-1.6-2.2-2.5-3.4l-0.9-1.2
				l-4,3.1L358.2,178.9z"/>
			<path fill="#FFFFFF" d="M376,211.1l4.8-1.9l-0.9-2.2c-0.4-0.9-0.8-2-1.2-2.9l-0.6-1.4l-4.6,2L376,211.1z"/>
			<path fill="#FFFFFF" d="M376.8,213.4c0.4,0.9,0.6,1.8,0.9,2.7c0.1,0.3,0.1,0.6,0.3,0.9l0.5,1.4l4.9-1.6l-0.5-1.4
				c-0.5-1.3-0.9-2.6-1.3-3.9l-0.5-1.4l-4.9,1.8L376.8,213.4z"/>
			<path fill="#FFFFFF" d="M353.3,172.7c0.2,0.3,0.5,0.7,0.8,0.9c0.6,0.7,1.2,1.4,1.6,2.1l1,1.2l4-3.3l-1.1-1.2
				c-0.9-0.9-1.8-2.1-2.6-3l-1-1.2l-3.9,3.3L353.3,172.7z"/>
			<path fill="#FFFFFF" d="M370.6,198.9c0.5,0.9,0.9,1.8,1.3,2.6l1.1,2.2l4.6-2.1l-0.6-1.4c-0.5-1.3-1.1-2.5-1.8-3.7l-0.7-1.4
				l-4.6,2.2L370.6,198.9z"/>
			<path fill="#FFFFFF" d="M384.1,258.2v1.5c0,1.4-0.1,2.7-0.1,4v1.5l5,0.3l0.3-7.2L384.1,258.2z"/>
			<path fill="#FFFFFF" d="M348,167c0.9,0.9,1.8,1.9,2.6,2.9l1.1,1.2l3.9-3.4l-4.9-5.2l-3.6,3.6L348,167z"/>
			<path fill="#FFFFFF" d="M383.5,268.1c-0.1,1.2-0.2,2.5-0.4,3.5l-0.2,1.5l5.1,0.6l0.1-1.6c0-0.7,0.1-1.4,0.2-2.1
				c0-0.6,0.1-1.3,0.1-1.9l0.1-1.5l-5-0.5L383.5,268.1z"/>
			<path fill="#FFFFFF" d="M209.8,375.4c-0.8-0.2-1.6-0.6-2.4-0.9c-0.4-0.1-0.9-0.4-1.2-0.5l-1.4-0.5l-2,4.6l1.4,0.6
				c0.9,0.5,2.1,0.9,3,1.2l2.2,0.9l1.9-4.9L209.8,375.4z"/>
			<path fill="#FFFFFF" d="M217.4,378c-1.3-0.5-2.6-0.9-3.9-1.3l-1.4-0.5l-1.8,4.8l1.4,0.5c1.2,0.5,2.5,0.9,3.7,1.2l1.6,0.5l1.8-4.8
				L217.4,378z"/>
			<path fill="#FFFFFF" d="M379.1,220.9c0.3,1.1,0.7,2.3,1.1,3.8l0.4,1.6l4.9-1.3l-0.4-1.4c-0.3-1.4-0.7-2.6-1.1-3.9l-0.5-1.4
				l-4.9,1.4L379.1,220.9z"/>
			<path fill="#FFFFFF" d="M342.4,161.5c0.9,0.9,1.9,1.8,2.9,2.6l1.1,1.1l3.6-3.6l-5.2-4.9l-3.5,3.8L342.4,161.5z"/>
			<path fill="#FFFFFF" d="M316.5,143.1c0.6,0.4,1.2,0.7,1.8,0.9c0.5,0.3,1.2,0.6,1.8,0.9l1.4,0.8l2.3-4.6l-1.2-0.8
				c-1-0.6-2.1-1.3-3.5-2.1l-1.4-0.8l-2.3,4.6L316.5,143.1z"/>
			<path fill="#FFFFFF" d="M287.2,131.8c0.7,0.1,1.4,0.4,2.1,0.6c0.5,0.1,1.1,0.3,1.6,0.4l1.5,0.4l1.4-4.9l-1.5-0.4
				c-1.4-0.4-2.7-0.8-4-1.1l-1.4-0.4l-1.2,4.8L287.2,131.8z"/>
			<path fill="#FFFFFF" d="M283.4,130.9l1.5,0.4l1.1-5l-1.5-0.4c-1.2-0.2-2.3-0.5-3.5-0.8l-2-0.4l-0.9,5l1.5,0.3
				C280.8,130.3,282.1,130.6,283.4,130.9z"/>
			<path fill="#FFFFFF" d="M294.8,133.9c0.6,0.2,1.3,0.4,1.9,0.7c0.6,0.1,1.2,0.4,1.9,0.6l1.4,0.5l1.8-4.8l-1.5-0.5
				c-1.2-0.4-2.5-0.9-3.9-1.3l-1.5-0.5l-1.5,4.8L294.8,133.9z"/>
			<path fill="#FFFFFF" d="M275.6,129.5l1.5,0.1l0.8-5l-1.5-0.2c-1.3-0.2-2.6-0.4-4-0.6l-1.6-0.2l-0.6,5l3.5,0.5
				C274.3,129.3,275,129.4,275.6,129.5z"/>
			<path fill="#FFFFFF" d="M383.5,244.1c0.1,1.2,0.2,2.6,0.3,3.9v1.6l5-0.3v-1.6c0-1.4-0.1-2.7-0.3-4.1l-0.1-1.6l-5,0.5L383.5,244.1
				z"/>
			<path fill="#FFFFFF" d="M302.3,136.6c0.8,0.2,1.5,0.6,2.5,0.9c0.5,0.1,0.9,0.4,1.2,0.5l1.4,0.6l2-4.6l-1.4-0.6
				c-1-0.4-2-0.9-3-1.2l-2.2-0.9l-2,4.8L302.3,136.6z"/>
			<path fill="#FFFFFF" d="M267.9,128.5l1.5,0.1l0.5-5.1l-1.5-0.1c-1.3-0.1-2.7-0.2-4-0.3l-1.5-0.1l-0.3,5l1.5,0.1
				C265.2,128.2,266.5,128.4,267.9,128.5z"/>
			<path fill="#FFFFFF" d="M336.4,156.4c1,0.8,2,1.6,3,2.5l1.2,1.1l3.2-3.9l-1.1-0.9c-1-0.9-2.1-1.8-3.1-2.6l-1.2-0.9l-3.2,4
				L336.4,156.4z"/>
			<path fill="#FFFFFF" d="M330,151.6c1.2,0.9,2.2,1.6,3.1,2.2l1.2,0.9l3.1-3.9l-1.2-0.9c-1.1-0.8-2.2-1.6-3.4-2.4l-1.2-0.9l-3,4.1
				L330,151.6z"/>
			<path fill="#FFFFFF" d="M381.1,228.6c0.3,1.2,0.5,2.6,0.8,3.9l0.3,1.6l5-0.9l-0.4-2.1c-0.2-1.2-0.5-2.3-0.8-3.5l-0.4-1.4l-5,1.1
				L381.1,228.6z"/>
			<path fill="#FFFFFF" d="M310.4,140.1c0.9,0.4,1.8,0.9,2.6,1.3l1.4,0.8l2.3-4.6l-1.4-0.7c-0.4-0.1-0.8-0.4-1.2-0.6
				c-0.8-0.4-1.6-0.8-2.5-1.2l-1.4-0.6l-2.2,4.6L310.4,140.1z"/>
			<path fill="#FFFFFF" d="M382.8,238.1c0.1,0.7,0.1,1.4,0.3,2.1l0.1,1.4l5-0.6l-0.1-1.6c-0.1-0.7-0.1-1.4-0.3-2.1
				c0-0.7-0.1-1.3-0.2-2l-0.1-1.6l-5,0.8L382.8,238.1z"/>
			<path fill="#FFFFFF" d="M323.5,147.1c1.1,0.7,2.2,1.4,3.3,2.1l1.3,0.9l2.8-4.2l-1.2-0.9c-1-0.7-1.9-1.3-2.9-1.9l-1.9-1.2
				l-2.6,4.4L323.5,147.1z"/>
			<path fill="#FFFFFF" d="M247.9,128.2c1.2-0.1,2.5-0.1,3.7-0.1l1.9-0.1l-0.1-5.1l-7.2,0.3l0.3,5.1L247.9,128.2z"/>
			<path fill="#FFFFFF" d="M341.6,231.9l-0.4-1.4l-5.1,1.4l0.5,1.4c0.5,1.6,0.8,2.9,1.1,4.1l0.3,1.4l5.1-1.1l-0.3-1.6
				C342.4,234.7,342,233.3,341.6,231.9z"/>
			<path fill="#FFFFFF" d="M339,245.6l0.1,1.6l5.1-0.6l-0.1-1.4c-0.1-1.4-0.4-3-0.6-4.4l-0.2-1.6l-5.1,0.9l0.3,1.6
				C338.7,242.8,338.9,244.1,339,245.6z"/>
			<path fill="#FFFFFF" d="M171.1,284.6l0.5,1.4l4.9-1.6l-0.4-1.4c-0.4-1.3-0.9-2.6-1.2-4l-0.4-1.5l-5.1,1.4l0.4,1.5
				C170.2,281.8,170.6,283.3,171.1,284.6z"/>
			<path fill="#FFFFFF" d="M188.8,197.1c-0.8,0.9-1.6,1.8-2.2,2.6c-0.2,0.2-0.4,0.6-0.7,0.8l-0.9,1.2l4.1,3.4l0.9-1.2
				c0.9-1.2,1.8-2.2,2.6-3.1l1.1-1.2l-3.9-3.4L188.8,197.1z"/>
			<path fill="#FFFFFF" d="M183.2,204c-0.9,1.4-1.8,2.6-2.5,3.7l-0.9,1.3l4.4,2.9l0.9-1.3c0.8-1.2,1.6-2.5,2.3-3.5l0.9-1.2l-4.2-3
				L183.2,204z"/>
			<path fill="#FFFFFF" d="M174.3,219.4c-0.6,1.4-1.2,2.7-1.8,4.1l-0.6,1.4l4.9,2l0.6-1.4c0.4-1.1,0.9-2.5,1.6-3.8l0.8-1.4l-4.9-2.1
				L174.3,219.4z"/>
			<path fill="#FFFFFF" d="M178.4,211.4c-0.8,1.3-1.4,2.6-2.1,3.9l-0.8,1.4l4.7,2.4l0.7-1.4c0.8-1.4,1.4-2.6,2-3.6l0.8-1.4l-4.6-2.6
				L178.4,211.4z"/>
			<path fill="#FFFFFF" d="M170.9,227.8c-0.6,1.6-0.9,2.9-1.4,4.3l-0.4,1.4l5.1,1.4l0.4-1.4c0.4-1.3,0.8-2.6,1.2-4l0.5-1.4l-4.9-1.6
				L170.9,227.8z"/>
			<path fill="#FFFFFF" d="M167.1,244.9c-0.1,1.4-0.3,2.8-0.4,4.1l-0.1,1.9l5.2,0.4l0.1-2.1c0.1-1.2,0.2-2.4,0.4-3.6l0.1-1.6
				l-5.2-0.6L167.1,244.9z"/>
			<path fill="#FFFFFF" d="M168.7,236.2c-0.4,1.6-0.7,3-0.9,4.3l-0.2,1.6l5.1,0.9l0.3-1.8c0.2-1.2,0.4-2.6,0.8-3.7l0.4-1.6l-5.2-1.2
				L168.7,236.2z"/>
			<path fill="#FFFFFF" d="M216.8,175.6c-1.3,0.6-2.6,1.4-3.9,2l-1.4,0.8l2.6,4.6l1.4-0.8c1.2-0.7,2.4-1.4,3.7-1.9l1.4-0.7l-2.2-4.7
				L216.8,175.6z"/>
			<path fill="#FFFFFF" d="M233.4,169.6c-1.4,0.4-2.9,0.8-4.2,1.2l-1.4,0.4l1.4,4.9l1.4-0.4c0.4-0.1,0.8-0.2,1.2-0.4
				c0.9-0.2,1.9-0.6,2.9-0.8l1.6-0.4l-1.4-5.1L233.4,169.6z"/>
			<path fill="#FFFFFF" d="M251.1,166.8c-1.6,0.1-3,0.1-4.4,0.3l-1.6,0.1l0.4,5.2l1.6-0.1c1.4-0.1,2.8-0.2,4.2-0.3l1.6-0.1l-0.3-5.2
				L251.1,166.8z"/>
			<path fill="#FFFFFF" d="M194.9,190.6c-1.1,0.9-2.1,2-3.3,3.2l-1.1,1.1l2.6,2.6l1.1,1.1l1.1-1.1c0.9-0.9,2-2,3-2.9l1.1-1.1
				l-3.6-3.8L194.9,190.6z"/>
			<path fill="#FFFFFF" d="M224.9,172.2c-1.4,0.5-2.8,1.1-4.1,1.6l-1.4,0.6l2.1,4.8l1.4-0.6c1.1-0.4,2.5-1.1,3.9-1.4l1.4-0.5l-1.8-5
				L224.9,172.2z"/>
			<path fill="#FFFFFF" d="M201.7,184.9c-0.9,0.8-2.2,1.8-3.4,2.8l-1.2,0.9l3.4,4.1l1.2-0.9c1.1-0.9,2.2-1.8,3.3-2.6l1.2-0.9
				L203,184L201.7,184.9z"/>
			<path fill="#FFFFFF" d="M208.9,179.9c-1.2,0.8-2.5,1.6-3.6,2.4l-1.3,0.9l2.9,4.3l1.3-0.9c0.5-0.3,0.9-0.6,1.4-0.9
				c0.7-0.4,1.4-0.9,2.1-1.4l1.2-0.8l-2.6-4.4L208.9,179.9z"/>
			<polygon fill="#FFFFFF" points="166.4,260 171.7,259.8 171.7,252.6 166.4,252.4 			"/>
			<path fill="#FFFFFF" d="M251.4,345.2h1.6l0.1-5.2h-1.6c-1.4,0-2.9-0.1-4.2-0.3l-1.6-0.1l-0.4,5.2l1.9,0.1
				C248.6,345,249.9,345.1,251.4,345.2z"/>
			<path fill="#FFFFFF" d="M188.8,315.1l1.1,1.2l3.9-3.5l-0.9-1.1c-0.9-1.1-1.9-2.1-2.6-3.2l-0.9-1.2l-4.1,3.4l0.9,1.2
				C186.9,312.8,187.9,314,188.8,315.1z"/>
			<path fill="#FFFFFF" d="M181.4,305.6c0.6,0.9,1.2,1.8,1.8,2.6l0.9,1.2l4.2-3l-0.9-1.2c-0.2-0.4-0.6-0.8-0.8-1.2
				c-0.6-0.8-1.1-1.5-1.6-2.2l-0.9-1.3l-4.4,2.9l0.9,1.3C181,304.9,181.2,305.2,181.4,305.6z"/>
			<path fill="#FFFFFF" d="M193.4,320c0.6,0.5,1.1,1.1,1.6,1.5l1.1,1.1l3.6-3.9l-1.2-1.1c-0.9-0.9-2.1-1.9-3-2.9l-1.1-1.1l-3.9,3.6
				l1.2,1.1C192.4,319,192.9,319.5,193.4,320z"/>
			<path fill="#FFFFFF" d="M217,336.5l1.4,0.6l2.4-4.6l-1.4-0.7c-1.2-0.5-2.4-1.2-3.8-1.9l-1.4-0.8l-1.8,3.3l-0.7,1.4l1.4,0.8
				C214.4,335.1,215.7,335.9,217,336.5z"/>
			<path fill="#FFFFFF" d="M201.9,327.2l1.2,0.9l3.1-4.2L205,323c-1.1-0.9-2.2-1.8-3.3-2.6l-1.2-1l-3.3,4l1.2,1
				C199.6,325.4,200.7,326.4,201.9,327.2z"/>
			<path fill="#FFFFFF" d="M225.2,340l1.4,0.5l1.8-4.9l-2.2-0.9c-0.9-0.4-2.1-0.8-3-1.2l-1.4-0.6l-2.1,4.8l1.4,0.6
				C222.4,338.9,223.9,339.4,225.2,340z"/>
			<path fill="#FFFFFF" d="M209.2,332.2l1.3,0.8l2.7-4.4l-1.3-0.8c-1.3-0.8-2.5-1.6-3.5-2.3l-1.3-0.9l-3,4.4l1.4,0.9
				C206.7,330.6,208,331.5,209.2,332.2z"/>
			<path fill="#FFFFFF" d="M264.6,344.8c1.8-0.1,3.2-0.4,4.6-0.6l1.4-0.3l-0.8-5.1l-1.5,0.2c-1.4,0.2-2.8,0.5-4.1,0.5l-1.5,0.1
				l0.5,5.2L264.6,344.8z"/>
			<path fill="#FFFFFF" d="M174.4,292.9l0.7,1.4l4.8-2.1l-0.7-1.4c-0.6-1.1-1.1-2.3-1.6-3.9l-0.6-1.5l-4.9,2l0.6,1.4
				C173.2,290,173.8,291.5,174.4,292.9z"/>
			<path fill="#FFFFFF" d="M178.4,300.8l0.8,1.3l4.6-2.5l-1.2-2.2c-0.5-0.9-1.1-1.9-1.6-2.9l-0.7-1.4l-4.7,2.5l0.8,1.4
				C176.9,298.1,177.6,299.5,178.4,300.8z"/>
			<path fill="#FFFFFF" d="M168.7,275.9l0.3,1.5l5.1-1.1l-0.5-2.1c-0.2-1.2-0.5-2.3-0.8-3.5l-0.2-1.5l-5.1,0.9l0.2,1.5
				C168.1,273.1,168.4,274.5,168.7,275.9z"/>
			<path fill="#FFFFFF" d="M233.8,342.5l1.4,0.4l1.4-5l-1.4-0.4c-1.2-0.3-2.6-0.7-4.1-1.2l-1.4-0.5l-1.6,5l1.4,0.5
				C230.9,341.8,232.4,342.1,233.8,342.5z"/>
			<path fill="#FFFFFF" d="M239.4,343.9c0.9,0.1,2.1,0.4,3.1,0.5l1.4,0.1l0.8-5l-1.8-0.3c-1.4-0.2-2.6-0.5-3.9-0.7l-1.4-0.2
				l-1.1,5.1l1.6,0.2C238.6,343.6,239.1,343.6,239.4,343.9z"/>
			<path fill="#FFFFFF" d="M260.2,345.1l1.5-0.1l-0.3-5.2h-1.5c-1.4,0-2.8,0.1-4.2,0.1h-1.6v5.2h1.6
				C257.2,345.2,258.8,345.2,260.2,345.1z"/>
			<path fill="#FFFFFF" d="M167.1,267.2l0.1,1.5l5.2-0.6l-0.1-1.5c-0.1-1.4-0.3-2.9-0.4-4.2l-0.1-1.5l-5.2,0.5l0.1,1.9
				C166.9,264.5,166.9,265.9,167.1,267.2z"/>
			<path fill="#FFFFFF" d="M335.1,215.2l-0.8-1.4l-4.6,2.4l1.1,2.1c0.5,0.9,1,2,1.4,3l0.6,1.4l4.8-2.1l-0.6-1.4
				C336.4,217.7,335.7,216.4,335.1,215.2z"/>
			<path fill="#FFFFFF" d="M338.8,223.4l-0.5-1.4l-4.9,2l0.6,1.4c0.5,1.2,1,2.5,1.4,3.9l0.5,1.4l4.9-1.6l-0.5-1.4
				C339.9,226.2,339.4,224.8,338.8,223.4z"/>
			<path fill="#FFFFFF" d="M330.6,304.5c0.8-1.2,1.6-2.5,2.3-3.9l0.7-1.3l-4.5-2.5l-0.8,1.4c-0.5,1-1.2,2-1.9,3l-1.2,1.9l4.4,2.9
				L330.6,304.5z"/>
			<path fill="#FFFFFF" d="M325.4,311.7c0.8-1,1.9-2.2,2.8-3.6l0.8-1.2l-4.2-3l-0.9,1.2c-0.9,1.1-1.6,2.2-2.5,3.3l-1,1.2l4,3.3
				L325.4,311.7z"/>
			<path fill="#FFFFFF" d="M330.6,207.6l-0.9-1.3l-4.4,2.9l0.8,1.3c0.8,1.2,1.5,2.4,2.2,3.6l0.8,1.3l4.5-2.7l-0.8-1.3
				C332.2,210.1,331.5,208.9,330.6,207.6z"/>
			<path fill="#FFFFFF" d="M335.1,296.8c0.6-1.2,1.2-2.5,2-4l0.6-1.4l-4.8-2.1l-0.6,1.4c-0.5,1-0.9,2-1.4,3l-1.1,2.1l4.6,2.5
				L335.1,296.8z"/>
			<path fill="#FFFFFF" d="M319.6,318.2c1-1.1,2-2.1,3-3.3l1.1-1.2l-4-3.5l-1,1.2c-0.8,1-1.8,2-2.8,3l-1.1,1.1l3.9,3.6L319.6,318.2z
				"/>
			<path fill="#FFFFFF" d="M313.1,324.4c0.5-0.5,1.1-1,1.6-1.4c0.5-0.5,1.1-1,1.6-1.5l1.2-1.1l-3.6-4l-1.1,1.1c-1,0.9-2,1.9-3.1,2.8
				l-1.2,1l3.4,4L313.1,324.4z"/>
			<path fill="#FFFFFF" d="M339.1,287.7c0.4-1.1,0.8-2.1,1.2-3.2l0.6-1.5l-5-1.6l-0.5,1.4c-0.5,1.4-1,2.7-1.5,4l-0.5,1.4l4.9,2
				L339.1,287.7z"/>
			<path fill="#FFFFFF" d="M345,253.7c0-1.4-0.1-2.9-0.2-4.4l-0.1-1.6l-5.2,0.4l0.3,7.3l3.8-0.1l1.5-0.1L345,253.7z"/>
			<path fill="#FFFFFF" d="M259.9,172.1l1.5,0.1l0.3-5.2l-1.5-0.1c-1.5-0.1-3-0.1-4.4-0.1H254v5.2h1.8
				C257,171.9,258.5,172,259.9,172.1z"/>
			<path fill="#FFFFFF" d="M237.3,173.9l1.4-0.2c1.4-0.2,2.9-0.5,4.2-0.8l1.4-0.2l-0.8-5.1l-1.4,0.1c-1.4,0.1-2.9,0.4-4.4,0.8
				l-1.4,0.3L237.3,173.9z"/>
			<path fill="#FFFFFF" d="M341.6,280.1c0.4-1.4,0.8-2.9,1.1-4.2l0.3-1.5l-5.1-1.2l-0.4,1.5c-0.2,1.2-0.6,2.5-1.1,4l-0.5,1.5l5,1.4
				L341.6,280.1z"/>
			<path fill="#FFFFFF" d="M325.4,200.3l-1-1.2l-4,3.4l1,1.2c1,1.2,1.8,2.2,2.5,3.3l0.9,1.4l4.2-3.2l-0.9-1.2
				C327.3,202.7,326.5,201.5,325.4,200.3z"/>
			<path fill="#FFFFFF" d="M343.6,271.5c0.2-1.3,0.5-2.9,0.7-4.4l0.1-1.5l-5.2-0.6l-0.2,2c-0.1,1.2-0.3,2.5-0.5,3.6l-0.2,1.5
				l5.1,0.9L343.6,271.5z"/>
			<path fill="#FFFFFF" d="M344.6,262.7c0.1-1.5,0.1-3,0.1-4.5v-1.5l-5.2-0.1v1.6c0,1.4,0,2.8-0.1,4.1l-0.1,1.5l5.2,0.5L344.6,262.7
				z"/>
			<path fill="#FFFFFF" d="M298.4,177.6l-1.4-0.7l-2.5,4.6l1.4,0.8c1.2,0.7,2.5,1.4,3.6,2.1l1.3,0.8l2.6-4.4l-1.2-0.8
				C300.9,179,299.6,178.2,298.4,177.6z"/>
			<path fill="#FFFFFF" d="M290.4,173.6L289,173l-2.1,4.8l1.4,0.6c1.2,0.6,2.5,1.2,3.9,1.8l1.4,0.7l2.5-4.8l-2.5-1.1
				C292.5,174.6,291.5,174.1,290.4,173.6z"/>
			<path fill="#FFFFFF" d="M264.5,167.1L263,167l-0.5,5.2l7.3,0.9l0.6-5.2l-1.4-0.2C267.5,167.4,266,167.2,264.5,167.1z"/>
			<path fill="#FFFFFF" d="M306,182.2l-1.3-0.9l-3,4.3l1.3,0.9c1.1,0.8,2.2,1.6,3.4,2.4l1.2,0.9l3.3-4.2l-1.3-0.9
				C308.5,184.1,307.4,183.2,306,182.2z"/>
			<path fill="#FFFFFF" d="M273.4,168.6l-1.5-0.3l-1.1,5.2l1.5,0.3c1.4,0.2,2.8,0.6,4,0.9l1.5,0.4l1.4-5.1l-1.5-0.4
				C276.3,169.2,274.8,168.9,273.4,168.6z"/>
			<path fill="#FFFFFF" d="M313,187.6l-1.2-0.9l-3.4,4.1l1.2,0.9c1.1,0.9,2.1,1.9,3.1,2.8l1.2,1.1l3.5-3.9l-1.1-1.1
				C315.2,189.6,314.1,188.6,313,187.6z"/>
			<path fill="#FFFFFF" d="M281.9,170.7l-1.5-0.4l-1.5,5l1.4,0.4c1.3,0.4,2.6,0.9,4,1.4l1.5,0.6l1.6-4.9l-1.4-0.5
				C284.8,171.6,283.4,171.1,281.9,170.7z"/>
			<path fill="#FFFFFF" d="M320.4,194.6c-0.2-0.2-0.5-0.5-0.8-0.8l-1.1-1.1l-3.8,3.6l1.1,1.1c0.9,0.9,2,2.1,2.9,3.1l1.1,1.2l3.9-3.4
				l-1-1.2C321.9,196.1,321.1,195.3,320.4,194.6z"/>
			<path fill="#FFFFFF" d="M273.4,343.5c1-0.1,2-0.4,2.9-0.6c0.5-0.1,0.9-0.1,1.4-0.3l1.6-0.4l-1.4-5.1l-1.5,0.3
				c-0.7,0.1-1.4,0.3-2,0.5c-0.7,0.1-1.4,0.3-2.1,0.5l-1.5,0.3l1.1,5L273.4,343.5z"/>
			<path fill="#FFFFFF" d="M290.4,338.3c1.4-0.5,2.7-1.2,4-1.9l1.4-0.7l-2.2-4.6l-1.4,0.5c-0.7,0.3-1.3,0.5-2,0.9
				c-0.6,0.3-1.3,0.5-1.9,0.9l-1.4,0.6l2.1,4.8L290.4,338.3z"/>
			<path fill="#FFFFFF" d="M298.5,334.4c1.1-0.6,2.5-1.4,3.9-2.2l1.2-0.8l-2.6-4.5l-1.3,0.8c-1.2,0.8-2.5,1.5-3.6,2.1l-1.4,0.8
				l2.5,4.6L298.5,334.4z"/>
			<path fill="#FFFFFF" d="M306,329.8c1.1-0.8,2.2-1.6,3.6-2.6l1.2-0.9l-3.1-4.1l-2,1.4c-0.9,0.6-1.8,1.3-2.7,1.9l-1.3,0.9l3,4.3
				L306,329.8z"/>
			<path fill="#FFFFFF" d="M282,341.3c1.2-0.4,2.7-0.9,4.2-1.4l1.4-0.5l-1.8-4.9l-1.5,0.5c-1.2,0.5-2.6,0.9-4,1.4l-1.4,0.5l1.5,5
				L282,341.3z"/>
			<path fill="#FFFFFF" d="M210.4,229.8c-0.6,1.1-1.4,2.4-2,3.8l-0.6,1.4l4.6,2.2l0.7-1.4c0.6-1.1,1.1-2.2,1.8-3.4l0.8-1.4l-4.4-2.6
				L210.4,229.8z"/>
			<path fill="#FFFFFF" d="M204.4,245.6c-0.2,1.4-0.4,2.8-0.6,4.1l-0.1,1.6l5,0.6l0.1-1.4c0.1-1.2,0.4-2.6,0.6-3.9l0.2-1.4l-5-0.9
				L204.4,245.6z"/>
			<path fill="#FFFFFF" d="M206.9,237.4c-0.5,1.4-0.9,2.6-1.4,4l-0.4,1.4l4.9,1.4l0.4-1.4c0.3-1.1,0.8-2.3,1.2-3.7l0.5-1.4l-4.7-1.8
				L206.9,237.4z"/>
			<path fill="#FFFFFF" d="M262.8,203.9l-0.8,5l2.1,0.4c1.1,0.1,2.1,0.4,3.1,0.7l1.5,0.4l1.2-5l-1.5-0.4c-1.4-0.3-2.7-0.6-4-0.8
				L262.8,203.9z"/>
			<path fill="#FFFFFF" d="M204.9,268l4.9-1.1l-0.3-1.5c-0.2-1.2-0.4-2.5-0.6-3.9l-0.1-1.5l-5,0.6l0.1,1.5c0.1,1.4,0.4,2.8,0.7,4.1
				l1.6-0.2l-1.6,0.2L204.9,268z"/>
			<path fill="#FFFFFF" d="M251.6,203.6c-1.4,0.1-2.8,0.2-4.2,0.5l-1.4,0.2l0.8,4.9l1.4-0.1c1.2-0.1,2.6-0.4,3.9-0.5l1.6-0.1
				l-0.5-5.1L251.6,203.6z"/>
			<path fill="#FFFFFF" d="M215.3,222.9c-1.1,1.3-1.9,2.4-2.6,3.4l-0.9,1.3l4.2,2.8l0.9-1.2c0.8-0.9,1.6-2.1,2.2-3.1l0.9-1.2
				l-3.9-3.1L215.3,222.9z"/>
			<path fill="#FFFFFF" d="M221.1,216.8c-1.2,1.1-2.2,2.1-3.1,2.9l-1.1,1.1l3.6,3.4l1.1-1.1c0.9-0.9,1.9-1.8,2.9-2.6l1.2-1.1
				l-3.4-3.8L221.1,216.8z"/>
			<path fill="#FFFFFF" d="M227.9,211.7c-1.2,0.8-2.3,1.6-3.4,2.4l-1.3,0.9l3.1,4.1l1.2-0.9c0.9-0.8,2-1.4,3.1-2.2l1.2-0.9l-2.6-4.2
				L227.9,211.7z"/>
			<path fill="#FFFFFF" d="M272.5,206.1l-1.5-0.5l-1.5,4.8l1.4,0.5c1.2,0.4,2.5,0.9,3.6,1.4l1.5,0.6l1.9-4.6l-1.4-0.6
				C275.2,207.1,273.9,206.6,272.5,206.1z"/>
			<path fill="#FFFFFF" d="M280.2,209.5l-1.4-0.7l-2.3,4.6l1.4,0.8c1.1,0.6,2.2,1.3,3.4,1.9l1.3,0.8l2.6-4.3l-1.2-0.8
				C282.8,210.9,281.5,210.1,280.2,209.5z"/>
			<path fill="#FFFFFF" d="M280.4,302.4c1.2-0.6,2.5-1.4,3.6-2.1l1.2-0.9l-2.6-4.2l-1.3,0.8c-1.1,0.7-2.1,1.4-3.4,1.9l-1.4,0.8
				l2.3,4.5L280.4,302.4z"/>
			<path fill="#FFFFFF" d="M269.5,301.2l1.5,4.8l1.5-0.5c1.3-0.5,2.6-0.9,4-1.5l1.4-0.6l-2-4.7l-1.4,0.6c-1.2,0.5-2.3,0.9-3.5,1.4
				L269.5,301.2z"/>
			<path fill="#FFFFFF" d="M287.5,214.1l-1.2-0.9l-3.1,4.1l1.3,0.9c1,0.7,1.9,1.4,2.9,2.3l1.2,0.9l3.4-3.7l-1.1-1.1
				C289.7,215.8,288.5,214.9,287.5,214.1z"/>
			<path fill="#FFFFFF" d="M299.1,226.1l-0.9-1.2l-4.2,2.8l0.9,1.3c0.8,1.1,1.4,2.2,2,3.3l0.8,1.2l4.5-2.5l-0.8-1.4
				C300.6,228.4,299.9,227.2,299.1,226.1z"/>
			<path fill="#FFFFFF" d="M293.7,219.6l-1.1-1.1L289,222l1,1.1c0.3,0.3,0.6,0.7,0.9,0.9c0.6,0.7,1.2,1.3,1.6,1.9l1,1.2l4-3.1
				l-1-1.2C295.6,221.8,294.7,220.7,293.7,219.6z"/>
			<path fill="#FFFFFF" d="M308,262.1c0.1-1.4,0.2-2.8,0.3-4.2v-1.5l-5-0.1v1.5c0,1.3-0.1,2.6-0.3,3.9l-0.1,1.5l5,0.6L308,262.1z"/>
			<path fill="#FFFFFF" d="M303.3,233.4l-0.7-1.4l-4.5,2.1l0.9,1.9c0.5,0.9,0.9,2,1.2,2.9l0.5,1.6l4.8-1.9l-0.5-1.4
				C304.4,235.9,303.9,234.6,303.3,233.4z"/>
			<path fill="#FFFFFF" d="M264.4,307.8c1.4-0.2,2.8-0.5,4.1-0.9l1.4-0.5l-1.2-4.9l-1.5,0.4c-1.1,0.3-2.5,0.6-3.6,0.8l-1.5,0.2
				l0.8,5L264.4,307.8z"/>
			<path fill="#FFFFFF" d="M306.3,270.5c0.4-1.3,0.8-2.7,1.1-4.1l0.2-1.5l-5-0.9l-0.3,1.5c-0.2,1.3-0.5,2.5-0.9,3.7l-0.5,1.5
				l4.9,1.4L306.3,270.5z"/>
			<path fill="#FFFFFF" d="M299.1,285.6c0.8-1.2,1.5-2.5,2.2-3.5l0.8-1.4l-4.5-2.5l-0.8,1.4c-0.5,1.1-1.3,2.1-2,3.2l-0.9,1.3
				l4.2,2.9L299.1,285.6z"/>
			<path fill="#FFFFFF" d="M293.8,292.2c0.9-1,1.9-2,2.8-3.1l1.1-1.2l-4-3.4l-1,1.3c-0.8,1-1.6,1.9-2.5,2.9l-1.1,1.1l3.7,3.5
				L293.8,292.2z"/>
			<path fill="#FFFFFF" d="M287.5,297.8c1.2-0.9,2.5-2,3.2-2.6l1.2-1.1l-3.5-3.8l-1.1,1c-0.9,0.8-1.9,1.6-3,2.5l-1.2,0.9l3.1,4
				L287.5,297.8z"/>
			<path fill="#FFFFFF" d="M303.3,278.4c0.7-1.3,1.2-2.6,1.6-4l0.5-1.5l-4.8-1.8l-0.5,1.5c-0.5,1.2-1,2.5-1.5,3.5l-0.7,1.4l4.6,2.2
				L303.3,278.4z"/>
			<path fill="#FFFFFF" d="M251.8,308.2l1.6,0.1l0.3-5l-1.4-0.1c-1.3-0.1-2.6-0.3-3.9-0.5l-1.4-0.2l-0.8,4.9l1.4,0.2
				C249,308,250.4,308,251.8,308.2z"/>
			<path fill="#FFFFFF" d="M243.4,306.8l1.6,0.4l1.1-4.9l-1.4-0.4c-1.3-0.3-2.6-0.7-3.6-1.1l-1.4-0.5l-1.6,4.9l1.4,0.5
				C240.6,306.1,242,306.5,243.4,306.8z"/>
			<path fill="#FFFFFF" d="M234.7,303.9l2.1,0.9l2.1-4.8l-1.4-0.6c-1.1-0.5-2.2-1-3.4-1.6l-1.4-0.8l-2.3,4.5l1.4,0.8
				C232.6,303,233.8,303.4,234.7,303.9z"/>
			<path fill="#FFFFFF" d="M306.3,241.3l-0.5-1.4l-4.9,1.4l0.5,1.4c0.4,1.2,0.6,2.4,0.9,3.7l0.3,1.6l5-1.1l-0.5-2.1
				C306.9,243.6,306.6,242.4,306.3,241.3z"/>
			<path fill="#FFFFFF" d="M227.9,300.3l1.4,0.9l2.6-4.4l-1.3-0.8c-1.2-0.8-2.2-1.4-3.1-2.1l-1.2-1l-2.9,4l1.2,0.9
				C225.7,298.9,226.9,299.7,227.9,300.3z"/>
			<path fill="#FFFFFF" d="M206.9,274.6l0.6,1.5l4.7-1.9l-0.5-1.4c-0.4-1.1-0.9-2.5-1.2-3.6l-0.4-1.5l-4.9,1.4l0.4,1.5
				C205.9,271.9,206.4,273.2,206.9,274.6z"/>
			<path fill="#FFFFFF" d="M215.4,289.1l0.9,1.2l3.9-3.1l-0.9-1.2c-0.8-1-1.6-2.1-2.2-3.1l-0.9-1.2l-4.2,2.9l0.9,1.3
				C213.6,286.9,214.5,288,215.4,289.1z"/>
			<path fill="#FFFFFF" d="M210.6,282.2l0.8,1.4l4.4-2.6l-0.8-1.3c-0.6-1-1.2-2.1-1.8-3.4l-0.7-1.4l-4.6,2.2l0.7,1.4
				C209.2,279.7,209.9,281,210.6,282.2z"/>
			<path fill="#FFFFFF" d="M221.1,295.2l1.2,1.1l3.3-3.9l-1.1-1c-0.9-0.8-1.9-1.8-2.8-2.6l-1.1-1.1l-3.5,3.5l1.1,1.1
				C219,293.2,220.1,294.1,221.1,295.2z"/>
			<path fill="#FFFFFF" d="M208.7,259.4l-0.1-1.5c-0.1-0.6-0.1-1.2-0.1-1.9c0-0.3,0-0.6,0-0.9s0.1-0.7,0.1-0.9v-1.4l-4.9-0.1
				l-0.1,1.4c-0.1,0.8-0.1,1.4-0.1,2.1c0,0.4,0,0.8,0.1,1.2c0,0.3,0,0.7,0,1v1.6L208.7,259.4z"/>
			<path fill="#FFFFFF" d="M257.5,308.4c0.9,0,1.9,0,2.9-0.1l1.5-0.1l-0.5-5l-1.5,0.1c-1.2,0.1-2.5,0.1-3.9,0.1h-1.6v5.1h1.6
				C256.5,308.4,257,308.4,257.5,308.4z"/>
			<path fill="#FFFFFF" d="M307.7,248l-5,0.6l0.1,1.4c0.1,1.2,0.2,2.6,0.3,3.9v1.6l5-0.3v-1.6c0-1.4-0.1-2.8-0.3-4.2L307.7,248z"/>
			<path fill="#FFFFFF" d="M235.2,207.6c-1.2,0.6-2.6,1.2-3.8,1.8l-1.4,0.7l2.3,4.6l1.4-0.8c0.9-0.6,2.1-1.1,3.5-1.6l1.4-0.6
				l-2.1-4.7L235.2,207.6z"/>
			<path fill="#FFFFFF" d="M255.9,203.5h-1.6v5h1.6c1.2,0,2.6,0.1,3.9,0.1l1.6,0.1l0.3-5.1l-1.5-0.1
				C258.8,203.6,257.4,203.5,255.9,203.5z"/>
			<path fill="#FFFFFF" d="M243.2,205c-1.2,0.3-2.6,0.8-4,1.2l-1.4,0.5l1.6,4.9l1.4-0.5c1.2-0.4,2.5-0.8,3.8-1.2l1.4-0.4l-1.2-4.9
				L243.2,205z"/>
		</g>
	</g>
	
		<linearGradient id="SVGID_5_" gradientUnits="userSpaceOnUse" x1="95.8" y1="-70.4" x2="462.7" y2="-437.3" gradientTransform="matrix(0.5 0 0 0.5 0 256)">
		<stop  offset="0" style="stop-color:#3b4c53"/>
		<stop  offset="1" style="stop-color:#3b4c53;stop-opacity:0"/>
	</linearGradient>
	<path opacity="0.7" fill="url(#SVGID_5_)" enable-background="new    " d="M196.7,15.6L83.5,128.8c-2.2,2.2-4,4.7-5.1,7.6
		c-1.5,3.3-2.3,6.9-2.3,10.6v102l120.6-120.6c4.9-4.9,7.6-11.3,7.6-18.1v-100C201.5,11.6,198.9,13.4,196.7,15.6z"/>
	<path fill="#3b4c53" d="M214.9,8c-3.7,0-7.3,0.8-10.6,2.3c-2.8,1.3-5.4,2.9-7.6,5.1L83.5,128.6c-2.2,2.2-4,4.7-5.1,7.6
		c-1.5,3.3-2.3,6.9-2.3,10.6v4.1c0-8.2,6.5-14.7,14.7-14.7h87.8c14.1,0,25.6-11.5,25.6-25.6V22.7c0-8.2,6.5-14.7,14.7-14.7H214.9z"
		/>
</g>
</svg>
