<?xml version="1.0" encoding="utf-8"?>
<!-- Generator: Adobe Illustrator 18.0.0, SVG Export Plug-In . SVG Version: 6.00 Build 0)  -->
<!DOCTYPE svg PUBLIC "-//W3C//DTD SVG 1.1//EN" "http://www.w3.org/Graphics/SVG/1.1/DTD/svg11.dtd">
<svg version="1.1" id="Layer_1" xmlns="http://www.w3.org/2000/svg" xmlns:xlink="http://www.w3.org/1999/xlink" x="0px" y="0px"
	 viewBox="0 0 512 512" enable-background="new 0 0 512 512" xml:space="preserve">
<g>
	<path fill="#FF9800" d="M416,8H219h-4.1c-3.7,0-7.3,0.8-10.6,2.3c-2.8,1.3-5.4,2.9-7.6,5.1L83.5,128.6c-2.2,2.2-4,4.7-5.1,7.6
		c-1.5,3.3-2.3,6.9-2.3,10.6l-0.1,5.7V484c0,11,9,20,20,20h320c11,0,20-9,20-20V28C436,17,427,8,416,8z"/>
	<g display="none">
		<linearGradient id="SVGID_1_" gradientUnits="userSpaceOnUse" x1="91.025" y1="271.025" x2="305.025" y2="57.025">
			<stop  offset="0" style="stop-color:#FFFFFF;stop-opacity:0.2"/>
			<stop  offset="1" style="stop-color:#FFFFFF;stop-opacity:0"/>
		</linearGradient>
		<path display="inline" fill="url(#SVGID_1_)" d="M256,256V8h-37h-4.1c-3.7,0-7.3,0.8-10.6,2.3c-2.8,1.3-5.4,2.9-7.6,5.1
			L83.5,128.6c-2.2,2.2-4,4.7-5.1,7.6c-1.5,3.3-2.3,6.9-2.3,10.6l-0.1,5.7V256H256z"/>
		<linearGradient id="SVGID_2_" gradientUnits="userSpaceOnUse" x1="239" y1="239" x2="447.125" y2="30.875">
			<stop  offset="0" style="stop-color:#FFFFFF;stop-opacity:0.2"/>
			<stop  offset="1" style="stop-color:#FFFFFF;stop-opacity:0"/>
		</linearGradient>
		<path display="inline" fill="url(#SVGID_2_)" d="M416,8H256v248h180V28C436,17,427,8,416,8z"/>
		<linearGradient id="SVGID_3_" gradientUnits="userSpaceOnUse" x1="64.875" y1="481.125" x2="273" y2="273">
			<stop  offset="0" style="stop-color:#FFFFFF;stop-opacity:0.2"/>
			<stop  offset="1" style="stop-color:#FFFFFF;stop-opacity:0"/>
		</linearGradient>
		<path display="inline" fill="url(#SVGID_3_)" d="M76,484c0,11,9,20,20,20h160V256H76V484z"/>
		<linearGradient id="SVGID_4_" gradientUnits="userSpaceOnUse" x1="236.0625" y1="484.0625" x2="450.0625" y2="270.0625">
			<stop  offset="0" style="stop-color:#FFFFFF;stop-opacity:0.2"/>
			<stop  offset="1" style="stop-color:#FFFFFF;stop-opacity:0"/>
		</linearGradient>
		<path display="inline" fill="url(#SVGID_4_)" d="M256,256v248h160c11,0,20-9,20-20V256H256z"/>
	</g>
	<g>
		<linearGradient id="SVGID_5_" gradientUnits="userSpaceOnUse" x1="76" y1="271.025" x2="256" y2="271.025">
			<stop  offset="0" style="stop-color:#FFFFFF;stop-opacity:0.2"/>
			<stop  offset="1" style="stop-color:#FFFFFF;stop-opacity:0"/>
		</linearGradient>
		<path fill="url(#SVGID_5_)" d="M256,256L106,106l-22.5,22.5c-2.2,2.2-4,4.7-5.1,7.6c-1.5,3.3-2.3,6.9-2.3,10.6l-0.1,5.7V436
			L256,256z"/>
		<linearGradient id="SVGID_6_" gradientUnits="userSpaceOnUse" x1="106.05" y1="132" x2="436" y2="132">
			<stop  offset="0" style="stop-color:#FFFFFF;stop-opacity:0.2"/>
			<stop  offset="1" style="stop-color:#FFFFFF;stop-opacity:0"/>
		</linearGradient>
		<path fill="url(#SVGID_6_)" d="M256,256L436,76V28c0-11-9-20-20-20H219h-4.1c-3.7,0-7.3,0.8-10.6,2.3c-2.8,1.3-5.4,2.9-7.6,5.1
			L106,106L256,256z"/>
		<linearGradient id="SVGID_7_" gradientUnits="userSpaceOnUse" x1="76" y1="380" x2="436" y2="380">
			<stop  offset="0" style="stop-color:#FFFFFF;stop-opacity:0.2"/>
			<stop  offset="1" style="stop-color:#FFFFFF;stop-opacity:0"/>
		</linearGradient>
		<path fill="url(#SVGID_7_)" d="M436,484v-48L256,256L76,436v48c0,11,9,20,20,20h320C427,504,436,495,436,484z"/>
		<linearGradient id="SVGID_8_" gradientUnits="userSpaceOnUse" x1="256" y1="256" x2="436" y2="256">
			<stop  offset="0" style="stop-color:#FFFFFF;stop-opacity:0.2"/>
			<stop  offset="1" style="stop-color:#FFFFFF;stop-opacity:0"/>
		</linearGradient>
		<polygon fill="url(#SVGID_8_)" points="436,436 436,76 256,256 		"/>
	</g>
	
		<linearGradient id="SVGID_9_" gradientUnits="userSpaceOnUse" x1="95.8" y1="-70.4" x2="462.7" y2="-437.3" gradientTransform="matrix(0.5 0 0 0.5 0 256)">
		<stop  offset="0" style="stop-color:#F57C00"/>
		<stop  offset="1" style="stop-color:#F57C00;stop-opacity:0"/>
	</linearGradient>
	<path opacity="0.7" fill="url(#SVGID_9_)" enable-background="new    " d="M196.7,15.6L83.5,128.8c-2.2,2.2-4,4.7-5.1,7.6
		c-1.5,3.3-2.3,6.9-2.3,10.6v102l120.6-120.6c4.9-4.9,7.6-11.3,7.6-18.1v-100C201.5,11.6,198.9,13.4,196.7,15.6z"/>
	<path fill="#F57C00" d="M214.9,8c-3.7,0-7.3,0.8-10.6,2.3c-2.8,1.3-5.4,2.9-7.6,5.1L83.5,128.6c-2.2,2.2-4,4.7-5.1,7.6
		c-1.5,3.3-2.3,6.9-2.3,10.6v4.1c0-8.2,6.5-14.7,14.7-14.7h87.8c14.1,0,25.6-11.5,25.6-25.6V22.7c0-8.2,6.5-14.7,14.7-14.7H214.9z"
		/>
</g>
<g>
	<path fill="#000000" d="M231.2,255.8c0,0.2,0,0.3,0,0.5c0,9.2,7.4,0,16.6,0c9.2,0,16.6,9.2,16.6,0c0-9.2-7.4-16.6-16.6-16.6
		c-6.7,0-12.4,3.9-15,9.6c0.6,0.7,1.2,1.5,1.9,2.2C233.5,253,232.4,254.5,231.2,255.8z"/>
	<path fill="#000000" d="M292,239.7c-12.3,0-22.2,9.9-22.2,22.2c0,12.3,9.9,0,22.2,0c12.3,0,22.2,12.3,22.2,0
		C314.2,249.6,304.3,239.7,292,239.7z"/>
	<path fill="#000000" d="M294.3,227.2c-60.8,0-75.5-42.4-75.5-42.4c0,22.3,0.5,45.5,12.1,62c3.2-6.1,9.5-10.2,16.8-10.2
		c10.5,0,18.9,8.5,18.9,18.9c0,10.5-8.5,18.9-18.9,18.9c-9.7,0-17.6-7.2-18.8-16.6c-15.2,13.4-39.6,8.4-55.3,3
		c1.1-2.2,1.8-4.8,1.8-7.4c0-9.2-7.4-16.6-16.6-16.6c-9.2,0-16.6,7.4-16.6,16.6s7.4,16.6,16.6,16.6c0.6,0,1.2,0,1.8-0.1
		c3,12.6,9.7,24.4,20.4,34c0.1,0,32.6,16.7,58.4,1.5c14.7-8.6,20.2-10.1,24.9-2.6c4.2,6.6-6.6,14.2-16.6,16.3
		c-39,7.8-65.9-14.5-66.7-15.2c15.6,14,39.5,23.2,72.1,23.2c31.9,0,74-19.3,78.9-59.3c18.8-2.1,37.7-27.3,37.7-79.1
		C369.8,188.8,336,227.2,294.3,227.2z M154.9,246.8c0-3.7,3-6.6,6.6-6.6c3.7,0,6.6,3,6.6,6.6c0,3.7-3,6.6-6.6,6.6
		C157.8,253.5,154.9,250.5,154.9,246.8z M292,287.2c-14,0-25.4-11.4-25.4-25.4c0-14,11.4-25.4,25.4-25.4c14,0,25.4,11.4,25.4,25.4
		C317.4,275.8,306,287.2,292,287.2z"/>
	<path fill="#000000" d="M181,304C181,304,181,304,181,304C181,304,181,304,181,304L181,304z"/>
	<path fill="#000000" d="M231.2,255.8c0.1-2.3,0.6-4.5,1.6-6.5c-0.6-0.8-1.2-1.6-1.8-2.4c-1.4,2.6-2.1,5.6-2.1,8.7
		c0,0.8,0.1,1.6,0.2,2.4C229.7,257.2,230.4,256.5,231.2,255.8z"/>
</g>
</svg>
