<?xml version="1.0" encoding="utf-8"?>
<!-- Generator: Adobe Illustrator 18.0.0, SVG Export Plug-In . SVG Version: 6.00 Build 0)  -->
<!DOCTYPE svg PUBLIC "-//W3C//DTD SVG 1.1//EN" "http://www.w3.org/Graphics/SVG/1.1/DTD/svg11.dtd">
<svg version="1.1" id="Layer_1" xmlns="http://www.w3.org/2000/svg" xmlns:xlink="http://www.w3.org/1999/xlink" x="0px" y="0px"
	 viewBox="0 0 512 512" enable-background="new 0 0 512 512" xml:space="preserve">
<g>
	<path fill="#00b8b2" d="M416,8H219h-4.1c-3.7,0-7.3,0.8-10.6,2.3c-2.8,1.3-5.4,2.9-7.6,5.1L83.5,128.6c-2.2,2.2-4,4.7-5.1,7.6
		c-1.5,3.3-2.3,6.9-2.3,10.6l-0.1,5.7V484c0,11,9,20,20,20h320c11,0,20-9,20-20V28C436,17,427,8,416,8z"/>
	<g>
		<linearGradient id="SVGID_1_" gradientUnits="userSpaceOnUse" x1="91.025" y1="271.025" x2="305.025" y2="57.025">
			<stop  offset="0" style="stop-color:#FFFFFF;stop-opacity:0.2"/>
			<stop  offset="1" style="stop-color:#231F20;stop-opacity:0"/>
		</linearGradient>
		<path fill="url(#SVGID_1_)" d="M256,256V8h-37h-4.1c-3.7,0-7.3,0.8-10.6,2.3c-2.8,1.3-5.4,2.9-7.6,5.1L83.5,128.6
			c-2.2,2.2-4,4.7-5.1,7.6c-1.5,3.3-2.3,6.9-2.3,10.6l-0.1,5.7V256H256z"/>
		<linearGradient id="SVGID_2_" gradientUnits="userSpaceOnUse" x1="239" y1="239" x2="447.125" y2="30.875">
			<stop  offset="0" style="stop-color:#FFFFFF;stop-opacity:0.2"/>
			<stop  offset="1" style="stop-color:#231F20;stop-opacity:0"/>
		</linearGradient>
		<path fill="url(#SVGID_2_)" d="M416,8H256v248h180V28C436,17,427,8,416,8z"/>
		<linearGradient id="SVGID_3_" gradientUnits="userSpaceOnUse" x1="64.875" y1="481.125" x2="273" y2="273">
			<stop  offset="0" style="stop-color:#FFFFFF;stop-opacity:0.2"/>
			<stop  offset="1" style="stop-color:#231F20;stop-opacity:0"/>
		</linearGradient>
		<path fill="url(#SVGID_3_)" d="M76,484c0,11,9,20,20,20h160V256H76V484z"/>
		<linearGradient id="SVGID_4_" gradientUnits="userSpaceOnUse" x1="236.0625" y1="484.0625" x2="450.0625" y2="270.0625">
			<stop  offset="0" style="stop-color:#FFFFFF;stop-opacity:0.2"/>
			<stop  offset="1" style="stop-color:#231F20;stop-opacity:0"/>
		</linearGradient>
		<path fill="url(#SVGID_4_)" d="M256,256v248h160c11,0,20-9,20-20V256H256z"/>
	</g>
	<g>
		<linearGradient id="SVGID_5_" gradientUnits="userSpaceOnUse" x1="76" y1="271.025" x2="256" y2="271.025">
			<stop  offset="0" style="stop-color:#FFFFFF;stop-opacity:0.2"/>
			<stop  offset="1" style="stop-color:#231F20;stop-opacity:0"/>
		</linearGradient>
		<path fill="url(#SVGID_5_)" d="M256,256L106,106l-22.5,22.5c-2.2,2.2-4,4.7-5.1,7.6c-1.5,3.3-2.3,6.9-2.3,10.6l-0.1,5.7V436
			L256,256z"/>
		<linearGradient id="SVGID_6_" gradientUnits="userSpaceOnUse" x1="106.05" y1="132" x2="436" y2="132">
			<stop  offset="0" style="stop-color:#FFFFFF;stop-opacity:0.2"/>
			<stop  offset="1" style="stop-color:#231F20;stop-opacity:0"/>
		</linearGradient>
		<path fill="url(#SVGID_6_)" d="M256,256L436,76V28c0-11-9-20-20-20H219h-4.1c-3.7,0-7.3,0.8-10.6,2.3c-2.8,1.3-5.4,2.9-7.6,5.1
			L106,106L256,256z"/>
		<linearGradient id="SVGID_7_" gradientUnits="userSpaceOnUse" x1="76" y1="380" x2="436" y2="380">
			<stop  offset="0" style="stop-color:#FFFFFF;stop-opacity:0.2"/>
			<stop  offset="1" style="stop-color:#231F20;stop-opacity:0"/>
		</linearGradient>
		<path fill="url(#SVGID_7_)" d="M436,484v-48L256,256L76,436v48c0,11,9,20,20,20h320C427,504,436,495,436,484z"/>
		<linearGradient id="SVGID_8_" gradientUnits="userSpaceOnUse" x1="256" y1="256" x2="436" y2="256">
			<stop  offset="0" style="stop-color:#FFFFFF;stop-opacity:0.2"/>
			<stop  offset="1" style="stop-color:#231F20;stop-opacity:0"/>
		</linearGradient>
		<polygon fill="url(#SVGID_8_)" points="436,436 436,76 256,256 		"/>
	</g>
	
		<linearGradient id="SVGID_9_" gradientUnits="userSpaceOnUse" x1="95.8" y1="-70.4" x2="462.7" y2="-437.3" gradientTransform="matrix(0.5 0 0 0.5 0 256)">
		<stop  offset="0" style="stop-color:#FFFFFF"/>
		<stop  offset="1" style="stop-color:#FFFFFF;stop-opacity:0"/>
	</linearGradient>
	<path opacity="0.7" fill="url(#SVGID_9_)" enable-background="new    " d="M196.7,15.6L83.5,128.8c-2.2,2.2-4,4.7-5.1,7.6
		c-1.5,3.3-2.3,6.9-2.3,10.6v102l120.6-120.6c4.9-4.9,7.6-11.3,7.6-18.1v-100C201.5,11.6,198.9,13.4,196.7,15.6z"/>
	<path fill="#FFFFFF" d="M214.9,8c-3.7,0-7.3,0.8-10.6,2.3c-2.8,1.3-5.4,2.9-7.6,5.1L83.5,128.6c-2.2,2.2-4,4.7-5.1,7.6
		c-1.5,3.3-2.3,6.9-2.3,10.6v4.1c0-8.2,6.5-14.7,14.7-14.7h87.8c14.1,0,25.6-11.5,25.6-25.6V22.7c0-8.2,6.5-14.7,14.7-14.7H214.9z"
		/>
</g>
<g>
	<path fill="#FFFFFF" d="M135,263.6v18.2h-10.6v-51.5h20.1c3.9,0,7.3,0.7,10.2,2.1c2.9,1.4,5.2,3.4,6.8,6c1.6,2.6,2.4,5.6,2.4,8.9
		c0,5-1.7,9-5.2,11.9c-3.5,2.9-8.2,4.4-14.4,4.4H135z M135,255h9.5c2.8,0,4.9-0.7,6.4-2c1.5-1.3,2.2-3.2,2.2-5.7
		c0-2.5-0.7-4.6-2.2-6.1c-1.5-1.6-3.5-2.4-6.2-2.4H135V255z"/>
	<path fill="#FFFFFF" d="M194,271.1h-18.6l-3.5,10.6h-11.3l19.2-51.5h9.8l19.3,51.5h-11.3L194,271.1z M178.2,262.5h12.9l-6.5-19.3
		L178.2,262.5z"/>
	<path fill="#FFFFFF" d="M240.4,268.2c0-2-0.7-3.5-2.1-4.6c-1.4-1.1-4-2.2-7.6-3.4c-3.7-1.2-6.6-2.4-8.7-3.5
		c-5.9-3.2-8.8-7.4-8.8-12.8c0-2.8,0.8-5.3,2.4-7.5c1.6-2.2,3.8-3.9,6.8-5.1c2.9-1.2,6.2-1.8,9.9-1.8c3.7,0,7,0.7,9.8,2
		c2.9,1.3,5.1,3.2,6.7,5.6c1.6,2.4,2.4,5.2,2.4,8.3h-10.6c0-2.4-0.7-4.2-2.2-5.5c-1.5-1.3-3.6-2-6.3-2c-2.6,0-4.6,0.5-6.1,1.6
		c-1.4,1.1-2.2,2.5-2.2,4.3c0,1.7,0.8,3.1,2.5,4.2c1.7,1.1,4.2,2.2,7.5,3.2c6,1.8,10.4,4.1,13.2,6.8c2.8,2.7,4.1,6,4.1,10.1
		c0,4.5-1.7,8-5.1,10.5c-3.4,2.5-7.9,3.8-13.6,3.8c-4,0-7.6-0.7-10.8-2.2c-3.3-1.5-5.7-3.4-7.5-6c-1.7-2.5-2.6-5.5-2.6-8.8h10.7
		c0,5.7,3.4,8.5,10.2,8.5c2.5,0,4.5-0.5,5.9-1.5C239.7,271.5,240.4,270.1,240.4,268.2z"/>
	<path fill="#FFFFFF" d="M298.7,264.6c-0.4,5.5-2.4,9.9-6.1,13.1c-3.7,3.2-8.6,4.8-14.6,4.8c-6.6,0-11.8-2.2-15.6-6.7
		s-5.7-10.6-5.7-18.3v-3.1c0-5,0.9-9.3,2.6-13.1c1.7-3.8,4.2-6.7,7.5-8.7c3.2-2,7-3,11.3-3c5.9,0,10.7,1.6,14.4,4.8
		c3.6,3.2,5.7,7.7,6.3,13.4h-10.6c-0.3-3.3-1.2-5.7-2.8-7.2c-1.6-1.5-4-2.2-7.3-2.2c-3.5,0-6.2,1.3-7.9,3.8
		c-1.8,2.5-2.7,6.5-2.7,11.8v3.9c0,5.6,0.8,9.6,2.5,12.2c1.7,2.6,4.3,3.9,8,3.9c3.3,0,5.7-0.7,7.3-2.2c1.6-1.5,2.5-3.8,2.8-7H298.7z
		"/>
	<path fill="#FFFFFF" d="M334.7,271.1h-18.6l-3.5,10.6h-11.3l19.2-51.5h9.8l19.3,51.5h-11.3L334.7,271.1z M319,262.5h12.9l-6.5-19.3
		L319,262.5z"/>
	<path fill="#FFFFFF" d="M365,273.2h22.5v8.5h-33.2v-51.5H365V273.2z"/>
</g>
</svg>
