<?xml version="1.0" encoding="utf-8"?>
<!-- Generator: Adobe Illustrator 18.0.0, SVG Export Plug-In . SVG Version: 6.00 Build 0)  -->
<!DOCTYPE svg PUBLIC "-//W3C//DTD SVG 1.1//EN" "http://www.w3.org/Graphics/SVG/1.1/DTD/svg11.dtd">
<svg version="1.1" id="Layer_1" xmlns="http://www.w3.org/2000/svg" xmlns:xlink="http://www.w3.org/1999/xlink" x="0px" y="0px"
	 viewBox="0 0 512 512" enable-background="new 0 0 512 512" xml:space="preserve">
<g>
	<g>
		<path fill="#DEE9F3" d="M415.9,8.1H219h-4.1c-3.7,0-7.3,0.8-10.6,2.3c-2.8,1.3-5.4,2.9-7.6,5.1L83.5,128.6c-2.2,2.2-4,4.7-5.1,7.6
			c-1.5,3.3-2.3,6.9-2.3,10.6l-0.1,5.7v331.4c0,11,9,20,20,20H416c11,0,20-9,20-20V28.1C436,17,427,8.1,415.9,8.1z"/>
		<g>
			
				<linearGradient id="SVGID_1_" gradientUnits="userSpaceOnUse" x1="76.1957" y1="-128.5877" x2="255.161" y2="-307.5531" gradientTransform="matrix(1.1953 0 0 1.1953 0 424.6939)">
				<stop  offset="0" style="stop-color:#FFFFFF;stop-opacity:0.2"/>
				<stop  offset="1" style="stop-color:#FFFFFF;stop-opacity:0"/>
			</linearGradient>
			<path fill="url(#SVGID_1_)" d="M256,256V8.1h-37h-4.1c-3.7,0-7.3,0.8-10.6,2.3c-2.8,1.3-5.4,2.9-7.6,5.1L83.5,128.6
				c-2.2,2.2-4,4.7-5.1,7.6c-1.5,3.3-2.3,6.9-2.3,10.6l-0.1,5.7V256H256z"/>
			
				<linearGradient id="SVGID_2_" gradientUnits="userSpaceOnUse" x1="199.9669" y1="-155.3363" x2="374.0515" y2="-329.4208" gradientTransform="matrix(1.1953 0 0 1.1953 0 424.6939)">
				<stop  offset="0" style="stop-color:#FFFFFF;stop-opacity:0.2"/>
				<stop  offset="1" style="stop-color:#FFFFFF;stop-opacity:0"/>
			</linearGradient>
			<path fill="url(#SVGID_2_)" d="M415.9,8.1H256V256h180V28.1C436,17,427,8.1,415.9,8.1z"/>
			
				<linearGradient id="SVGID_3_" gradientUnits="userSpaceOnUse" x1="54.3017" y1="47.15" x2="228.3774" y2="-126.9258" gradientTransform="matrix(1.1953 0 0 1.1953 0 424.6939)">
				<stop  offset="0" style="stop-color:#FFFFFF;stop-opacity:0.2"/>
				<stop  offset="1" style="stop-color:#FFFFFF;stop-opacity:0"/>
			</linearGradient>
			<path fill="url(#SVGID_3_)" d="M76,483.9c0,11,9,20,20,20h160V256H76V483.9z"/>
			
				<linearGradient id="SVGID_4_" gradientUnits="userSpaceOnUse" x1="197.4871" y1="49.5948" x2="376.4525" y2="-129.3706" gradientTransform="matrix(1.1953 0 0 1.1953 0 424.6939)">
				<stop  offset="0" style="stop-color:#FFFFFF;stop-opacity:0.2"/>
				<stop  offset="1" style="stop-color:#FFFFFF;stop-opacity:0"/>
			</linearGradient>
			<path fill="url(#SVGID_4_)" d="M256,256v247.9h159.9c11,0,20-9,20-20V256H256z"/>
		</g>
		<g>
			
				<linearGradient id="SVGID_5_" gradientUnits="userSpaceOnUse" x1="63.6523" y1="-128.5703" x2="214.1722" y2="-128.5703" gradientTransform="matrix(1.1953 0 0 1.1953 0 424.6939)">
				<stop  offset="0" style="stop-color:#FFFFFF;stop-opacity:0.2"/>
				<stop  offset="1" style="stop-color:#FFFFFF;stop-opacity:0"/>
			</linearGradient>
			<path fill="url(#SVGID_5_)" d="M256,256L106,106l-22.5,22.5c-2.2,2.2-4,4.7-5.1,7.6c-1.5,3.3-2.3,6.9-2.3,10.6l-0.1,5.7V436
				L256,256z"/>
			
				<linearGradient id="SVGID_6_" gradientUnits="userSpaceOnUse" x1="88.704" y1="-244.8715" x2="364.762" y2="-244.8715" gradientTransform="matrix(1.1953 0 0 1.1953 0 424.6939)">
				<stop  offset="0" style="stop-color:#FFFFFF;stop-opacity:0.2"/>
				<stop  offset="1" style="stop-color:#FFFFFF;stop-opacity:0"/>
			</linearGradient>
			<path fill="url(#SVGID_6_)" d="M256,256L436,76V28c0-11-9-20-20-20H219h-4.1c-3.7,0-7.3,0.8-10.6,2.3c-2.8,1.3-5.4,2.9-7.6,5.1
				L106,106L256,256z"/>
			
				<linearGradient id="SVGID_7_" gradientUnits="userSpaceOnUse" x1="63.5824" y1="-37.3906" x2="364.762" y2="-37.3906" gradientTransform="matrix(1.1953 0 0 1.1953 0 424.6939)">
				<stop  offset="0" style="stop-color:#FFFFFF;stop-opacity:0.2"/>
				<stop  offset="1" style="stop-color:#FFFFFF;stop-opacity:0"/>
			</linearGradient>
			<path fill="url(#SVGID_7_)" d="M436,483.9v-48L256,256L76,436v48c0,11,9,20,20,20h319.9C427,503.9,436,495,436,483.9z"/>
			
				<linearGradient id="SVGID_8_" gradientUnits="userSpaceOnUse" x1="214.1722" y1="-141.131" x2="364.762" y2="-141.131" gradientTransform="matrix(1.1953 0 0 1.1953 0 424.6939)">
				<stop  offset="0" style="stop-color:#FFFFFF;stop-opacity:0.2"/>
				<stop  offset="1" style="stop-color:#FFFFFF;stop-opacity:0"/>
			</linearGradient>
			<polygon fill="url(#SVGID_8_)" points="436,436 436,76 256,256 			"/>
		</g>
		
			<linearGradient id="SVGID_9_" gradientUnits="userSpaceOnUse" x1="80.2037" y1="-573.0189" x2="387.1657" y2="-879.9808" gradientTransform="matrix(0.5977 0 0 0.5977 0 563.3214)">
			<stop  offset="0" style="stop-color:#1F77F3"/>
			<stop  offset="1" style="stop-color:#1F77F3;stop-opacity:0"/>
		</linearGradient>
		<path opacity="0.7" fill="url(#SVGID_9_)" enable-background="new    " d="M196.7,15.6L83.5,128.9c-2.2,2.2-4,4.7-5.1,7.6
			c-1.5,3.3-2.3,6.9-2.3,10.6v102l120.6-120.6c4.9-4.9,7.6-11.3,7.6-18.1v-100C201.5,11.7,198.9,13.4,196.7,15.6z"/>
		<path fill="#1F77F3" d="M214.9,8.1c-3.7,0-7.3,0.8-10.6,2.3c-2.8,1.3-5.4,2.9-7.6,5.1L83.5,128.6c-2.2,2.2-4,4.7-5.1,7.6
			c-1.5,3.3-2.3,6.9-2.3,10.6v4.1c0-8.2,6.5-14.7,14.7-14.7h87.7c14.1,0,25.6-11.5,25.6-25.6V22.7c0-8.2,6.5-14.7,14.7-14.7
			C218.9,8.1,214.9,8.1,214.9,8.1z"/>
	</g>
	<g>
		<g>
			<path fill="#1F77F3" d="M346.2,204.3h-93.1v-13.8h93.1V204.3L346.2,204.3z"/>
			<path fill="#1F77F3" d="M346.2,235h-93.1v-15.6h93.1V235L346.2,235z"/>
			<path fill="#1F77F3" d="M346.2,263.8h-93.1v-15.6h93.1V263.8L346.2,263.8z"/>
			<path fill="#1F77F3" d="M346.2,292.7H165.8V277h180.5L346.2,292.7L346.2,292.7z"/>
			<path fill="#1F77F3" d="M282,321.5H165.8v-15.6h116.3L282,321.5L282,321.5z"/>
		</g>
		<g>
			<g>
				<path fill="#1F77F3" d="M190.1,218.9c-0.4,0-0.8,0.4-0.8,0.8c-0.2,1.4-0.4,4.6,1.2,6.3c1.7,1.7,4.9,1.5,6.3,1.2
					c0.4,0,0.8-0.4,0.8-0.8c0.2-1.4,0.4-4.6-1.2-6.3C194.8,218.4,191.5,218.7,190.1,218.9z"/>
			</g>
			<g>
				<path fill="#1F77F3" d="M214.6,218.9c-1.4-0.2-4.6-0.5-6.3,1.2c-1.7,1.7-1.4,4.9-1.2,6.3c0.1,0.4,0.4,0.8,0.8,0.8
					c1.4,0.2,4.6,0.5,6.3-1.2c1.7-1.7,1.4-4.9,1.2-6.3C215.4,219.3,215.1,219,214.6,218.9z"/>
			</g>
			<g>
				<path fill="#1F77F3" d="M165.8,190.5v73.4H177h50.9H239v-73.4H165.8z M206.1,243c-2.1,2.1-5.6,2.1-7.6,0
					c-5.4-5.5-14.7-12.9-14.7-23c0-10.2,8.3-18.5,18.5-18.5s18.5,8.3,18.5,18.5C220.9,230.8,211.6,237.6,206.1,243z M227.6,258
					h-50.5c1.1-8.4,6.1-15.5,13.1-19.3c1.4,1.5,2.9,2.9,4.1,4.1c0.8,0.8,1.5,1.5,2.1,2.1c1.6,1.5,3.6,2.4,5.8,2.4
					c2.1,0,4.2-0.9,5.8-2.4c0.8-0.8,1.6-1.6,2.6-2.5c1.2-1.2,2.6-2.5,3.9-3.9C221.8,242.5,226.8,249.6,227.6,258z"/>
			</g>
		</g>
	</g>
</g>
</svg>
