<?xml version="1.0" encoding="utf-8"?>
<!-- Generator: Adobe Illustrator 18.0.0, SVG Export Plug-In . SVG Version: 6.00 Build 0)  -->
<!DOCTYPE svg PUBLIC "-//W3C//DTD SVG 1.1//EN" "http://www.w3.org/Graphics/SVG/1.1/DTD/svg11.dtd">
<svg version="1.1" id="Layer_1" xmlns="http://www.w3.org/2000/svg" xmlns:xlink="http://www.w3.org/1999/xlink" x="0px" y="0px"
	 viewBox="0 0 512 512" enable-background="new 0 0 512 512" xml:space="preserve">
<g>
	<path fill="#ee6623" d="M416,8H219h-4.1c-3.7,0-7.3,0.8-10.6,2.3c-2.8,1.3-5.4,2.9-7.6,5.1L83.5,128.6c-2.2,2.2-4,4.7-5.1,7.6
		c-1.5,3.3-2.3,6.9-2.3,10.6l-0.1,5.7V484c0,11,9,20,20,20h320c11,0,20-9,20-20V28C436,17,427,8,416,8z"/>
	<g>
		<linearGradient id="SVGID_1_" gradientUnits="userSpaceOnUse" x1="91.025" y1="271.025" x2="305.025" y2="57.025">
			<stop  offset="0" style="stop-color:#FFFFFF;stop-opacity:0.2"/>
			<stop  offset="1" style="stop-color:#FFFFFF;stop-opacity:0"/>
		</linearGradient>
		<path fill="url(#SVGID_1_)" d="M256,256V8h-37h-4.1c-3.7,0-7.3,0.8-10.6,2.3c-2.8,1.3-5.4,2.9-7.6,5.1L83.5,128.6
			c-2.2,2.2-4,4.7-5.1,7.6c-1.5,3.3-2.3,6.9-2.3,10.6l-0.1,5.7V256H256z"/>
		<linearGradient id="SVGID_2_" gradientUnits="userSpaceOnUse" x1="239" y1="239" x2="447.125" y2="30.875">
			<stop  offset="0" style="stop-color:#FFFFFF;stop-opacity:0.2"/>
			<stop  offset="1" style="stop-color:#FFFFFF;stop-opacity:0"/>
		</linearGradient>
		<path fill="url(#SVGID_2_)" d="M416,8H256v248h180V28C436,17,427,8,416,8z"/>
		<linearGradient id="SVGID_3_" gradientUnits="userSpaceOnUse" x1="64.875" y1="481.125" x2="273" y2="273">
			<stop  offset="0" style="stop-color:#FFFFFF;stop-opacity:0.2"/>
			<stop  offset="1" style="stop-color:#FFFFFF;stop-opacity:0"/>
		</linearGradient>
		<path fill="url(#SVGID_3_)" d="M76,484c0,11,9,20,20,20h160V256H76V484z"/>
		<linearGradient id="SVGID_4_" gradientUnits="userSpaceOnUse" x1="236.0625" y1="484.0625" x2="450.0625" y2="270.0625">
			<stop  offset="0" style="stop-color:#FFFFFF;stop-opacity:0.2"/>
			<stop  offset="1" style="stop-color:#FFFFFF;stop-opacity:0"/>
		</linearGradient>
		<path fill="url(#SVGID_4_)" d="M256,256v248h160c11,0,20-9,20-20V256H256z"/>
	</g>
	<g>
		<linearGradient id="SVGID_5_" gradientUnits="userSpaceOnUse" x1="76" y1="271.025" x2="256" y2="271.025">
			<stop  offset="0" style="stop-color:#FFFFFF;stop-opacity:0.2"/>
			<stop  offset="1" style="stop-color:#FFFFFF;stop-opacity:0"/>
		</linearGradient>
		<path fill="url(#SVGID_5_)" d="M256,256L106,106l-22.5,22.5c-2.2,2.2-4,4.7-5.1,7.6c-1.5,3.3-2.3,6.9-2.3,10.6l-0.1,5.7V436
			L256,256z"/>
		<linearGradient id="SVGID_6_" gradientUnits="userSpaceOnUse" x1="106.05" y1="132" x2="436" y2="132">
			<stop  offset="0" style="stop-color:#FFFFFF;stop-opacity:0.2"/>
			<stop  offset="1" style="stop-color:#FFFFFF;stop-opacity:0"/>
		</linearGradient>
		<path fill="url(#SVGID_6_)" d="M256,256L436,76V28c0-11-9-20-20-20H219h-4.1c-3.7,0-7.3,0.8-10.6,2.3c-2.8,1.3-5.4,2.9-7.6,5.1
			L106,106L256,256z"/>
		<linearGradient id="SVGID_7_" gradientUnits="userSpaceOnUse" x1="76" y1="380" x2="436" y2="380">
			<stop  offset="0" style="stop-color:#FFFFFF;stop-opacity:0.2"/>
			<stop  offset="1" style="stop-color:#FFFFFF;stop-opacity:0"/>
		</linearGradient>
		<path fill="url(#SVGID_7_)" d="M436,484v-48L256,256L76,436v48c0,11,9,20,20,20h320C427,504,436,495,436,484z"/>
		<linearGradient id="SVGID_8_" gradientUnits="userSpaceOnUse" x1="256" y1="256" x2="436" y2="256">
			<stop  offset="0" style="stop-color:#FFFFFF;stop-opacity:0.2"/>
			<stop  offset="1" style="stop-color:#FFFFFF;stop-opacity:0"/>
		</linearGradient>
		<polygon fill="url(#SVGID_8_)" points="436,436 436,76 256,256 		"/>
	</g>
	
		<linearGradient id="SVGID_9_" gradientUnits="userSpaceOnUse" x1="95.8" y1="-70.4" x2="462.7" y2="-437.3" gradientTransform="matrix(0.5 0 0 0.5 0 256)">
		<stop  offset="0" style="stop-color:#ed1c27"/>
		<stop  offset="1" style="stop-color:#ed1c27;stop-opacity:0"/>
	</linearGradient>
	<path opacity="0.7" fill="url(#SVGID_9_)" enable-background="new    " d="M196.7,15.6L83.5,128.8c-2.2,2.2-4,4.7-5.1,7.6
		c-1.5,3.3-2.3,6.9-2.3,10.6v102l120.6-120.6c4.9-4.9,7.6-11.3,7.6-18.1v-100C201.5,11.6,198.9,13.4,196.7,15.6z"/>
	<path fill="#ed1c27" d="M214.9,8c-3.7,0-7.3,0.8-10.6,2.3c-2.8,1.3-5.4,2.9-7.6,5.1L83.5,128.6c-2.2,2.2-4,4.7-5.1,7.6
		c-1.5,3.3-2.3,6.9-2.3,10.6v4.1c0-8.2,6.5-14.7,14.7-14.7h87.8c14.1,0,25.6-11.5,25.6-25.6V22.7c0-8.2,6.5-14.7,14.7-14.7H214.9z"
		/>
</g>
<g>
	<path fill="#FFFFFF" d="M274.9,243.7c-0.5-0.4-1-0.3-1.6-0.3c-10.5,0-20.9,0.1-31.3,0.1c-0.6,0-1.1-0.1-1.6,0.3
		c-0.4,0.7-0.8,1.4-1.2,2.1c-3.2,5.3-6.4,10.6-9.7,15.9c-2.6,4.1-5.1,8.1-7.5,12.4c-0.4,0.8-0.5,1.2,0.6,1.1c0.2,0,0.5,0,0.8,0
		c22.6,0,45.3,0,67.9-0.1c0.8,0,1.5,0,2.5,0c-1.8-3-3.5-5.9-5.2-8.7C283.9,258.9,279.4,251.2,274.9,243.7z"/>
	<path fill="#FFFFFF" d="M241.8,232.9c0.4-0.6,0.1-0.9-0.4-1.3c-5.2-3.4-10.5-6.8-15.8-10.2c-0.8-0.5-1.1-0.4-1.5,0.4
		c-1.1,2.1-2.4,4.1-3.6,6.2c-3.6,6.1-7.2,12.1-10.9,18.2c-0.5,0.9-1,1.9-1.6,2.8c-6.4,10.7-12.7,21.5-19,32.2
		c-0.9,1.5-1.7,2.9-2.6,4.4c-0.1,0.3-0.6,0.5,0.1,1c5.1,3.5,10.3,6.9,15.4,10.5c0.9,0.6,1.1,0,1.4-0.5c8.6-14.2,17.2-28.5,25.9-42.8
		C233.3,246.7,237.5,239.8,241.8,232.9z"/>
	<path fill="#FFFFFF" d="M249.7,183.5c4.6,10.7,9.4,21.3,14.5,31.8c0,0.1,0.1,0.2,0.2,0.3c0,0.1,0.1,0.2,0.1,0.3s0.1,0.2,0.2,0.3
		c0,0.1,0.1,0.2,0.1,0.3s0.1,0.2,0.2,0.3s0.1,0.2,0.1,0.3s0.1,0.2,0.2,0.3c0,0.1,0.1,0.2,0.1,0.3c1.1,2.2,2.2,4.5,3.5,6.8l0,0
		c0.1,0.1,0.2,0.2,0.2,0.3c0,0.2,0,0.4,0.1,0.6c0.1,0.1,0.2,0.3,0.3,0.4c0,0.1,0,0.1,0,0.2c0.1,0.1,0.2,0.3,0.3,0.4
		c0,0.1,0,0.1,0,0.2c0.1,0.1,0.2,0.3,0.3,0.4c0,0.1,0,0.1,0,0.2c1,1,1.5,2.3,2.1,3.6c5.5,10.4,11.2,20.6,17.7,30.4
		c1.1,1.8,1.1,1.8,3,0.8c3.2-1.9,6.4-3.8,9.6-5.5c1-0.6,1-1.1,0.5-2c-2-3.8-3.9-7.6-5.9-11.3c-2.2-4.2-4.5-8.6-6.8-12.8
		c-8.4-15.6-16.8-31.1-26.1-46.1c-3.1-4.9-6.4-9.9-10.4-14.1c-1.5-1.6-3.1-3.1-5.2-3.9c-1.9-0.8-3,0-2.9,2c0,0.5,0.1,1,0.1,1.6
		C246.1,174.5,247.9,179.1,249.7,183.5z"/>
	<path fill="#FFFFFF" d="M338.2,243.7c-0.2-0.1-0.5-0.1-0.8-0.1c-11.3,0-22.6,0.1-33.9,0.1c-0.4,0-1-0.1-1.2,0.3
		c0.4,0.9,0.8,1.6,1.1,2.5c4.5,9.2,9,18.3,13.5,27.6c0.4,0.9,0.9,1,1.7,1c6,0,12-0.1,18,0c1.5,0,1.6-0.5,1.6-1.7
		C338.2,263.5,338.2,253.6,338.2,243.7z"/>
	<path fill="#FFFFFF" d="M185.4,275.4c1.1,0,1.8-0.4,2.3-1.3c2.6-4.4,5.2-8.7,7.8-13.1c3.4-5.6,6.8-11.3,10.2-17
		c-0.4-0.5-0.9-0.3-1.4-0.3c-2.9-0.1-5.8,0-8.6-0.1c-6.8-0.1-13.6-0.1-20.4-0.2c-0.6,0-1.3-0.3-1.6,0.5c0,0.7,0.1,1.4,0.1,2.1
		c0.1,9.2,0.1,18.3,0.1,27.5c0,1.3,0.2,1.8,1.6,1.7C178.8,275.2,182.1,275.3,185.4,275.4z"/>
	<path fill="#FFFFFF" d="M330.8,302.2c-4-6.9-8.5-13.5-13.5-19.7c-0.8-1-1.4-1-2.4-0.4c-2.8,1.7-5.5,3.3-8.4,4.9
		c-0.4,0.2-0.5,0.3-0.4,0.9c1.9,5.6,3.7,11.3,6,16.8c2.1,5.1,4.4,10.1,7.6,14.7c1.5,2.1,3.5,3.4,5.5,3.3c4.7,0,8.6-2.4,10.4-6.1
		c1-2.1,1-4.2-0.2-6.3C333.9,307.6,332.4,304.9,330.8,302.2z"/>
	<path fill="#FFFFFF" d="M314.2,276.9c-3-5.9-6-11.8-8.9-17.7c-0.1-0.3-0.2-0.7-0.8-0.6c-0.1,0.1-0.3,0.1-0.4,0.2
		c-3.6,2.1-7.2,4.2-10.9,6.3c-0.9,0.5-0.6,1-0.2,1.6c3.4,5.5,6.8,11.2,10.1,16.8c0.4,0.7,0.7,0.8,1.4,0.4c3-1.9,6.1-3.8,9.1-5.6
		C314.3,277.8,314.6,277.5,314.2,276.9z"/>
	<path fill="#FFFFFF" d="M177.4,320.1c0.1,0,0.2,0.1,0.3,0.1c7.6-6.2,15.1-12.5,22.8-18.9c-5.5-3.8-10.8-7.5-16.4-11.3
		C181.8,300.2,179.6,310.2,177.4,320.1z"/>
	<path fill="#FFFFFF" d="M226.9,219c0.5,0.2,0.9,0.6,1.4,0.9c4.6,3.1,9.2,6.1,13.9,9.2c0.4,0.3,0.9,0.9,1.4,0c2.9-4.9,6-9.9,9-14.9
		c0.1-0.2,0.2-0.3,0.4-0.4c-0.1-0.3-0.3-0.4-0.4-0.6c-5.2-3.4-10.4-6.9-15.7-10.4c-0.5-0.3-0.9-0.4-1.2,0.2c-3,4.9-6.1,9.9-9.1,14.8
		C226.1,218.4,226.1,218.8,226.9,219z"/>
	<path fill="#FFFFFF" d="M237.9,200.9c4.4,2.9,8.9,5.8,13.2,8.6c2.9,1.9,2.9,1.9,4-1.4c0.7-2.1,1.4-4.2,0.2-6.2
		c-2.3-4.1-5.9-6.4-10.3-6.9c-3.6,0.1-5.8,1.9-7.4,4.6C237.2,200.3,237.3,200.4,237.9,200.9z"/>
	<g>
		<path opacity="0.8" fill="#FFFFFF" enable-background="new    " d="M269.5,331.8H182c-3.4,0-6.2,2.8-6.2,6.2
			c0,3.5,2.8,6.2,6.2,6.2h87.5c3.5,0,6.2-2.8,6.2-6.2C275.6,334.5,272.9,331.8,269.5,331.8z"/>
		<path fill="#FFFFFF" d="M330,331.8c3.5,0,6.2,2.8,6.2,6.2c0,3.5-2.8,6.2-6.2,6.2c-0.1,0-0.2,0-0.2,0l0,0H181.9
			c-3.4,0-6.2-2.8-6.2-6.2c0-3.5,2.8-6.2,6.2-6.2h147.8l0,0C329.8,331.8,329.9,331.8,330,331.8 M330,329.6h-0.1h-0.1H181.9
			c-4.6,0-8.3,3.7-8.3,8.3c0,4.6,3.7,8.3,8.3,8.3h147.8h0.1h0.1c4.6,0,8.3-3.7,8.3-8.3S334.6,329.6,330,329.6L330,329.6z"/>
	</g>
</g>
</svg>
