<?xml version="1.0" encoding="utf-8"?>
<!-- Generator: Adobe Illustrator 22.0.1, SVG Export Plug-In . SVG Version: 6.00 Build 0)  -->
<svg version="1.1" id="Layer_1" xmlns="http://www.w3.org/2000/svg" xmlns:xlink="http://www.w3.org/1999/xlink" x="0px" y="0px"
	 viewBox="0 0 512 512" style="enable-background:new 0 0 512 512;" xml:space="preserve">
<g>
	<path style="fill:#FF9800;" d="M416,8H219h-4.1c-3.7,0-7.3,0.8-10.6,2.3c-2.8,1.3-5.4,2.9-7.6,5.1L83.5,128.6
		c-2.2,2.2-4,4.7-5.1,7.6c-1.5,3.3-2.3,6.9-2.3,10.6l-0.1,5.7V484c0,11,9,20,20,20h320c11,0,20-9,20-20V28C436,17,427,8,416,8z"/>
	<g>
		
			<linearGradient id="SVGID_1_" gradientUnits="userSpaceOnUse" x1="91.025" y1="79.025" x2="305.025" y2="-134.975" gradientTransform="matrix(1 0 0 1 0 192)">
			<stop  offset="0" style="stop-color:#FFFFFF;stop-opacity:0.2"/>
			<stop  offset="1" style="stop-color:#FFFFFF;stop-opacity:0"/>
		</linearGradient>
		<path style="fill:url(#SVGID_1_);" d="M256,256V8h-37h-4.1c-3.7,0-7.3,0.8-10.6,2.3c-2.8,1.3-5.4,2.9-7.6,5.1L83.5,128.6
			c-2.2,2.2-4,4.7-5.1,7.6c-1.5,3.3-2.3,6.9-2.3,10.6l-0.1,5.7V256H256z"/>
		
			<linearGradient id="SVGID_2_" gradientUnits="userSpaceOnUse" x1="239" y1="47" x2="447.125" y2="-161.125" gradientTransform="matrix(1 0 0 1 0 192)">
			<stop  offset="0" style="stop-color:#FFFFFF;stop-opacity:0.2"/>
			<stop  offset="1" style="stop-color:#FFFFFF;stop-opacity:0"/>
		</linearGradient>
		<path style="fill:url(#SVGID_2_);" d="M416,8H256v248h180V28C436,17,427,8,416,8z"/>
		
			<linearGradient id="SVGID_3_" gradientUnits="userSpaceOnUse" x1="64.875" y1="289.125" x2="273" y2="81" gradientTransform="matrix(1 0 0 1 0 192)">
			<stop  offset="0" style="stop-color:#FFFFFF;stop-opacity:0.2"/>
			<stop  offset="1" style="stop-color:#FFFFFF;stop-opacity:0"/>
		</linearGradient>
		<path style="fill:url(#SVGID_3_);" d="M76,484c0,11,9,20,20,20h160V256H76V484z"/>
		
			<linearGradient id="SVGID_4_" gradientUnits="userSpaceOnUse" x1="236.0625" y1="292.0625" x2="450.0625" y2="78.0625" gradientTransform="matrix(1 0 0 1 0 192)">
			<stop  offset="0" style="stop-color:#FFFFFF;stop-opacity:0.2"/>
			<stop  offset="1" style="stop-color:#FFFFFF;stop-opacity:0"/>
		</linearGradient>
		<path style="fill:url(#SVGID_4_);" d="M256,256v248h160c11,0,20-9,20-20V256H256z"/>
	</g>
	<g style="display:none;">
		
			<linearGradient id="SVGID_5_" gradientUnits="userSpaceOnUse" x1="76" y1="79" x2="256" y2="79" gradientTransform="matrix(1 0 0 1 0 192)">
			<stop  offset="0" style="stop-color:#FFFFFF;stop-opacity:0.2"/>
			<stop  offset="1" style="stop-color:#FFFFFF;stop-opacity:0"/>
		</linearGradient>
		<path style="display:inline;fill:url(#SVGID_5_);" d="M256,256L106,106l-22.5,22.5c-2.2,2.2-4,4.7-5.1,7.6
			c-1.5,3.3-2.3,6.9-2.3,10.6l-0.1,5.7V436L256,256z"/>
		
			<linearGradient id="SVGID_6_" gradientUnits="userSpaceOnUse" x1="106" y1="-60" x2="436" y2="-60" gradientTransform="matrix(1 0 0 1 0 192)">
			<stop  offset="0" style="stop-color:#FFFFFF;stop-opacity:0.2"/>
			<stop  offset="1" style="stop-color:#FFFFFF;stop-opacity:0"/>
		</linearGradient>
		<path style="display:inline;fill:url(#SVGID_6_);" d="M256,256L436,76V28c0-11-9-20-20-20H219h-4.1c-3.7,0-7.3,0.8-10.6,2.3
			c-2.8,1.3-5.4,2.9-7.6,5.1L106,106L256,256z"/>
		
			<linearGradient id="SVGID_7_" gradientUnits="userSpaceOnUse" x1="76" y1="188" x2="436" y2="188" gradientTransform="matrix(1 0 0 1 0 192)">
			<stop  offset="0" style="stop-color:#FFFFFF;stop-opacity:0.2"/>
			<stop  offset="1" style="stop-color:#FFFFFF;stop-opacity:0"/>
		</linearGradient>
		<path style="display:inline;fill:url(#SVGID_7_);" d="M436,484v-48L256,256L76,436v48c0,11,9,20,20,20h320
			C427,504,436,495,436,484z"/>
		
			<linearGradient id="SVGID_8_" gradientUnits="userSpaceOnUse" x1="256" y1="64" x2="436" y2="64" gradientTransform="matrix(1 0 0 1 0 192)">
			<stop  offset="0" style="stop-color:#FFFFFF;stop-opacity:0.2"/>
			<stop  offset="1" style="stop-color:#FFFFFF;stop-opacity:0"/>
		</linearGradient>
		<polygon style="display:inline;fill:url(#SVGID_8_);" points="436,436 436,76 256,256 		"/>
	</g>
	
		<linearGradient id="SVGID_9_" gradientUnits="userSpaceOnUse" x1="24.8" y1="-358.4" x2="391.7" y2="-725.2999" gradientTransform="matrix(0.5 0 0 0.5 35.5 400)">
		<stop  offset="0" style="stop-color:#F57C00"/>
		<stop  offset="1" style="stop-color:#F57C00;stop-opacity:0"/>
	</linearGradient>
	<path style="opacity:0.7;fill:url(#SVGID_9_);enable-background:new    ;" d="M196.7,15.6L83.5,128.8c-2.2,2.2-4,4.7-5.1,7.6
		c-1.5,3.3-2.3,6.9-2.3,10.6v102l120.6-120.6c4.9-4.9,7.6-11.3,7.6-18.1v-100C201.5,11.6,198.9,13.4,196.7,15.6z"/>
	<path style="fill:#F57C00;" d="M214.9,8c-3.7,0-7.3,0.8-10.6,2.3c-2.8,1.3-5.4,2.9-7.6,5.1L83.5,128.6c-2.2,2.2-4,4.7-5.1,7.6
		c-1.5,3.3-2.3,6.9-2.3,10.6v4.1c0-8.2,6.5-14.7,14.7-14.7h87.8c14.1,0,25.6-11.5,25.6-25.6V22.7c0-8.2,6.5-14.7,14.7-14.7
		C218.9,8,214.9,8,214.9,8z"/>
</g>
<g>
	<g>
		<rect x="144.8" y="326.5" style="fill:#FFFFFF;" width="222.2" height="19.4"/>
		<rect x="144.8" y="363.1" style="fill:#FFFFFF;" width="222.2" height="19.4"/>
	</g>
	<g>
		<rect x="144.6" y="398.8" style="fill:#FFFFFF;" width="111.4" height="19.4"/>
	</g>
	<g>
		<rect x="256.2" y="256.1" style="fill:#FFFFFF;" width="110.9" height="19.4"/>
		<rect x="144.8" y="291.3" style="fill:#FFFFFF;" width="222.4" height="19.4"/>
	</g>
</g>
<g>
	<path style="fill:#FFFFFF;" d="M274.8,225.4h41.4V241h-60.8v-94.5h19.5V225.4z"/>
</g>
</svg>
