<?xml version="1.0" encoding="utf-8"?>
<!-- Generator: Adobe Illustrator 18.0.0, SVG Export Plug-In . SVG Version: 6.00 Build 0)  -->
<!DOCTYPE svg PUBLIC "-//W3C//DTD SVG 1.1//EN" "http://www.w3.org/Graphics/SVG/1.1/DTD/svg11.dtd">
<svg version="1.1" id="Layer_1" xmlns="http://www.w3.org/2000/svg" xmlns:xlink="http://www.w3.org/1999/xlink" x="0px" y="0px"
	 viewBox="0 0 512 512" enable-background="new 0 0 512 512" xml:space="preserve">
<g>
	<g>
		<path fill="#4b92cf" d="M416,8H219h-4.1c-3.7,0-7.3,0.8-10.6,2.3c-2.8,1.3-5.4,2.9-7.6,5.1L83.5,128.6c-2.2,2.2-4,4.7-5.1,7.6
			c-1.5,3.3-2.3,6.9-2.3,10.6l-0.1,5.7V484c0,11,9,20,20,20h320c11,0,20-9,20-20V28C436,17,427,8,416,8z"/>
		<path opacity="0.5" fill="#FFFFFF" enable-background="new    " d="M415.2,73.5l20.8,39.1v-5l-18.6-35.1c2.5-1.7,4.4-4.3,5.5-7.4
			l13.1,2.9v-2.5l-12.6-2.8c0-0.6,0.1-1.2,0.1-1.8c0-7.6-6.2-13.7-13.7-13.7c-2.8,0-5.4,0.9-7.7,2.4L352.5,8h-3.8l51.4,43.2
			c-1.9,1.8-3.2,4.2-3.8,6.8L292.8,44.5L305.3,8h-2.6l-12.3,36.2l-72.5-9.5c0-0.3,0-0.5,0-0.9c0-2.3-0.4-4.3-1.3-6.3L255.6,8h-5.4
			l-34.7,17.4c-2.8-4.9-8.1-8.1-14.2-8.1c-3.4,0-6.6,1-9.3,2.8l-4.4,4.4c-1.2,1.8-2.1,3.8-2.5,5.9l-3.1-0.4l-2.2,2.2l4.9,0.6
			c0,0.2,0,0.5,0,0.9c0,2.2,0.4,4.3,1.2,6.3l-27.7,13.9l-5.6,5.6l34.3-17.2c0.9,1.4,1.9,2.7,3,3.8l-41.4,52.5
			c-2.6-1.8-5.7-2.8-9.2-2.8c-7.8,0-14.3,5.4-16,12.7l-16.9-2.7l-2.1,2.1l18.7,3.1c-0.1,0.4-0.1,1-0.1,1.4c0,8.3,6.2,15.2,14.1,16.2
			l-1.2,16.1L95.1,117l-1.8,1.8l42.1,28.5l-5.8,77.1l-22.5,6.2l-27.7-96.4c-0.3,0.6-0.6,1.3-0.9,2c-0.2,0.5-0.4,1-0.6,1.4l27,93.6
			l-28.8,8v2.5l29.5-8.1l13.4,46.6c-3.1,1.1-5.8,3.1-8,5.6L76,259.8v3.2l33.4,24.9c-1.9,3-3,6.5-3,10.3c0,7,3.8,13.2,9.5,16.5
			l-36.8,75.7c-1-0.5-2-0.9-3.1-1.2V421c3.9-0.9,7.3-3.2,9.6-6.4l67.3,41.4c-0.8,1.6-1.3,3.4-1.3,5.3c0,1.5,0.3,2.9,0.8,4.2
			l-66,32.6c-2-3.5-5.3-6.1-9.1-7.4c1.9,5.2,5.8,9.4,10.8,11.5c-0.2-0.7-0.3-1.3-0.6-1.9l66-32.6c2.2,3.5,6,5.7,10.3,5.7
			c1.5,0,2.8-0.2,4.1-0.8l14.8,31.2h2.7L170,471.8c2.6-1.6,4.5-4,5.4-7l65.5,12.4l-5.4,26.8h2.5l5.3-26.3l54.3,10.4
			c0,0.5-0.1,1.2-0.1,1.9c0,4.1,1.4,7.8,3.9,10.6l-3.4,3.4h3.5l1.6-1.5c0.6,0.6,1.3,1.1,2,1.5h17.5c3.1-1.9,5.5-4.8,6.7-8.3
			l28.1,8.3h8.8l-35.9-10.6c0.2-1.1,0.4-2.3,0.4-3.5c0-2.2-0.4-4.2-1.2-6.1l79.1-38.6c1.8,2.4,4.3,4.2,7,5.4l-20.8,45.9
			c-1.7-0.6-3.7-1.1-5.6-1.1c-6.2,0-11.6,3.5-14.4,8.6h28.9c-0.8-1.5-1.8-2.8-3-3.9l35-42.4v-3.8l-37,44.7c-0.5-0.3-1.1-0.6-1.6-1.1
			l20.8-46c1.5,0.4,3,0.8,4.7,0.8c5.2,0,9.9-2.2,13.2-5.8v-24.7c-1.4-1.5-3-2.8-4.7-3.7l4.7-13.6v-7.7l-7.1,20.2
			c-1.9-0.8-4-1.1-6.3-1.1c-0.5,0-1.1,0-1.6,0l-13.7-84c1.9-0.6,3.5-2.1,4.3-3.8l24.4,8.1v-2.7l-23.7-7.8c0-0.3,0.1-0.6,0.1-1.1
			c0-1.7-0.5-3.4-1.6-4.7L436,293v-3.6l-26.9,28.7c-1-0.6-2.2-1.1-3.2-1.3l-2.8-83.8l33-2.1v-2.4l-33.1,2.1l-1.2-37.5
			c5.2-0.5,9.7-3.6,12.4-7.9l21.8,11v-2.8l-20.6-10.4c0.9-1.9,1.2-4.1,1.2-6.4c0-8.2-6-15-13.9-16.2l7.3-85.8
			C411.9,74.6,413.6,74.3,415.2,73.5z M396.5,65.1c0.5,1.9,1.6,3.7,2.9,5.1l-49.4,70.2l-64.7-45.5c0.9-1.5,1.3-3.2,1.3-5.1
			c0-0.3,0-0.8,0-1.1L396.5,65.1z M272.8,380l125.6-51.3c0.5,0.9,1.1,1.5,1.8,2.1l-45.1,82.5l-82-26.8c0.2-1,0.3-1.8,0.3-2.8
			C273.3,382.4,273.1,381.1,272.8,380z M155.9,110.8l109.7-18c0.8,2.4,2.2,4.5,4.3,6l-45.7,87.6c-1.9-0.9-4.2-1.3-6.5-1.3
			c-3.8,0-7.1,1.3-9.9,3.4l-56.5-64.6c2.9-3,4.8-7,4.8-11.6C155.9,111.6,155.9,111.1,155.9,110.8z M281.1,191.6l-3.5-91.3
			c2.5-0.4,4.7-1.6,6.3-3.5l64.7,45.5l-31.2,44.4L281.1,191.6z M315.5,189.5l-27.6,39.2c-1.6-0.9-3.5-1.5-5.5-1.6l-1.3-33
			L315.5,189.5z M273.9,249.7l-41.6,64.4c-2.3-1.2-4.9-1.9-7.6-1.9l-5-94.4c4.8-0.5,8.8-3.1,11.4-6.8l39.1,23.5
			c-0.8,1.6-1.3,3.5-1.3,5.4C269,243.8,270.9,247.4,273.9,249.7z M275.9,251c0.9,0.4,1.7,0.9,2.7,1.1l-10.9,74.4l-26.8,0.5
			c-0.4-4.8-2.9-8.9-6.5-11.6L275.9,251z M271.5,232.2l-39.1-23.5c1.1-2.2,1.7-4.8,1.7-7.4c0-0.2,0-0.5,0-0.9l44.6-6l1.2,32.7
			C276.5,227.7,273.4,229.5,271.5,232.2z M278.6,192l-44.8,6c-0.9-4.4-3.7-8.2-7.5-10.6L272,99.7c1,0.3,1.9,0.5,3,0.6L278.6,192z
			 M217.4,217.9l5,94.4c-6.1,0.8-11,4.8-13.2,10.3L144,302.1c0.2-1.3,0.4-2.5,0.4-3.8c0-4.4-1.5-8.4-4-11.7l67-72.1
			C210.2,216.5,213.6,217.8,217.4,217.9z M140.7,309.2l52.6,33.3l-49,24L133,315.5C136,314.1,138.8,311.9,140.7,309.2z M142,307.2
			c0.4-1,0.9-1.9,1.2-2.9l65.2,20.6c-0.2,1.2-0.4,2.5-0.4,3.8c0,2.2,0.4,4.2,1.2,6.2l-13.2,6.5L142,307.2z M210.2,336.9
			c1.5,2.5,3.7,4.7,6.3,6.1l-4,8.8l-14.2-9L210.2,336.9z M218.7,344.1c1.8,0.6,3.7,1.1,5.7,1.1c2.9,0,5.6-0.8,8-2.1l20,30.5
			c-0.8,0.6-1.5,1.3-2.2,2.2l-35.7-22.7L218.7,344.1z M234.5,341.7c3.8-2.8,6.2-7.3,6.5-12.2l26.4-0.5l-6.2,42c-0.2,0-0.4,0-0.6,0
			c-2.2,0-4.2,0.5-6,1.5L234.5,341.7z M269.9,328.8l127.5-2.8c0,0.1,0,0.2,0,0.3l-125.6,51.3c-1.6-3.2-4.7-5.6-8.2-6.5L269.9,328.8z
			 M397.3,323.6l-127.1,2.8l10.9-74c0.2,0,0.4,0,0.5,0c3.9,0,7.4-1.7,9.6-4.4l106.6,73.4C397.6,322.1,397.3,322.7,397.3,323.6z
			 M289.9,230.2l28.9-41.1l65-8.7c1.5,7.3,7.8,12.8,15.5,13.1l1.3,37.5l-106.3,6.7C293.7,234.7,292.2,232,289.9,230.2z M383.4,177
			c0,0.3,0,0.6,0,1l-62.8,8.4l29.9-42.5l35.2,24.7C384.3,171,383.4,173.9,383.4,177z M291.9,46.9l104,13.5c0,0.2,0,0.4,0,0.5
			c0,0.6,0,1.2,0.1,1.7L286,86.4c-0.9-2.7-2.9-5-5.5-6.3L291.9,46.9z M217.4,37.2l72,9.4l-11.2,32.7c-0.8-0.2-1.5-0.2-2.3-0.2
			c-3,0-5.7,1.3-7.8,3.4l-53-39.7C216.2,41.2,216.9,39.2,217.4,37.2z M191.9,47.5c2.7,1.7,5.8,2.8,9.2,2.8c5,0,9.4-2.2,12.4-5.6
			l53,39.7c-0.9,1.5-1.4,3.4-1.4,5.4c0,0.1,0,0.3,0,0.4l-109.8,18c-0.8-3.2-2.5-6.2-4.9-8.3L191.9,47.5z M139.4,128.6
			c3.8,0,7.1-1.2,10-3.4l56.6,64.5c-0.4,0.4-0.9,0.9-1.2,1.3l-66.6-45L139.4,128.6z M137.9,148.9l65.5,44.3
			c-1.4,2.4-2.3,5.2-2.3,8.2c0,1.1,0.1,2.2,0.3,3.2l-69.3,19.1L137.9,148.9z M132,226.3l70.2-19.4c0.8,2.2,1.9,4.1,3.4,5.6l-66.8,72
			c-2.8-2.8-6.6-4.7-10.7-5.2L132,226.3z M107.8,233l21.7-6l-3.9,52.1h-0.2c-1.4,0-2.7,0.2-4.1,0.4L107.8,233z M85.5,395.3
			c-1.2-1.6-2.6-2.9-4.2-4.1l36.9-75.6c2.2,0.9,4.7,1.4,7.1,1.4c1.8,0,3.6-0.2,5.2-0.8l11.4,51.4L85.5,395.3z M154.2,454l-67.3-41.4
			c1.2-2.3,1.8-4.9,1.8-7.6c0-2.7-0.8-5.4-1.9-7.6l55.6-27.3l17.5,79.6C157.7,450.5,155.6,452,154.2,454z M167.8,449.7
			c-1.2-0.4-2.5-0.6-3.9-0.6c-0.5,0-1,0-1.4,0.1l-17.6-80.1l50.9-25l15.7,10L167.8,449.7z M241.6,475L176,462.5
			c0.1-0.4,0.1-0.8,0.1-1.1c0-4.5-2.4-8.4-6.1-10.6l43.5-95.4l35.5,22.5c-0.9,1.7-1.4,3.8-1.4,5.7c0,6.2,4.3,11.3,10,12.4L241.6,475
			z M298.4,485.8l-54.3-10.4l16.1-78.9c0.1,0,0.2,0,0.4,0c1.6,0,3.2-0.3,4.7-0.9l40.6,80.3C302.2,478.1,299.5,481.6,298.4,485.8z
			 M314.2,473.5c-2.3,0-4.3,0.4-6.3,1.2l-40.6-80.3c2.2-1.3,3.9-3.4,4.9-5.7l81.4,26.6L321.1,475C319,474.1,316.7,473.5,314.2,473.5
			z M328.5,481.8c-1.3-2.2-3.1-4.1-5.3-5.5l32.8-60.1l48.7,15.9c0,0.6-0.1,1.3-0.1,2.1c0,3.4,0.9,6.5,2.5,9.2L328.5,481.8z
			 M418.9,416.5c-6.6,1.5-11.9,6.6-13.5,13.1l-48.1-15.7l44.9-82.1c0.9,0.2,1.7,0.4,2.6,0.4L418.9,416.5z M403.3,317.1
			c-1.6,0.3-3,1.1-4.1,2.2l-106.4-73.4c0.9-1.6,1.5-3.6,1.6-5.7l106.2-6.7L403.3,317.1z M400.1,160.5H400c-5.2,0-9.7,2.4-12.8,6.1
			L352,141.8l49.3-69.9c1.7,1.3,3.8,2.4,6.1,2.7L400.1,160.5z"/>
		<g>
			<linearGradient id="SVGID_1_" gradientUnits="userSpaceOnUse" x1="91.025" y1="271.025" x2="305.025" y2="57.025">
				<stop  offset="0" style="stop-color:#FFFFFF;stop-opacity:0.2"/>
				<stop  offset="1" style="stop-color:#FFFFFF;stop-opacity:0"/>
			</linearGradient>
			<path fill="url(#SVGID_1_)" d="M256,256V8h-37h-4.1c-3.7,0-7.3,0.8-10.6,2.3c-2.8,1.3-5.4,2.9-7.6,5.1L83.5,128.6
				c-2.2,2.2-4,4.7-5.1,7.6c-1.5,3.3-2.3,6.9-2.3,10.6l-0.1,5.7V256H256z"/>
			<linearGradient id="SVGID_2_" gradientUnits="userSpaceOnUse" x1="239" y1="239" x2="447.125" y2="30.875">
				<stop  offset="0" style="stop-color:#FFFFFF;stop-opacity:0.2"/>
				<stop  offset="1" style="stop-color:#FFFFFF;stop-opacity:0"/>
			</linearGradient>
			<path fill="url(#SVGID_2_)" d="M416,8H256v248h180V28C436,17,427,8,416,8z"/>
			<linearGradient id="SVGID_3_" gradientUnits="userSpaceOnUse" x1="64.875" y1="481.125" x2="273" y2="273">
				<stop  offset="0" style="stop-color:#FFFFFF;stop-opacity:0.2"/>
				<stop  offset="1" style="stop-color:#FFFFFF;stop-opacity:0"/>
			</linearGradient>
			<path fill="url(#SVGID_3_)" d="M76,484c0,11,9,20,20,20h160V256H76V484z"/>
			<linearGradient id="SVGID_4_" gradientUnits="userSpaceOnUse" x1="236.0625" y1="484.0625" x2="450.0625" y2="270.0625">
				<stop  offset="0" style="stop-color:#FFFFFF;stop-opacity:0.2"/>
				<stop  offset="1" style="stop-color:#FFFFFF;stop-opacity:0"/>
			</linearGradient>
			<path fill="url(#SVGID_4_)" d="M256,256v248h160c11,0,20-9,20-20V256H256z"/>
		</g>
		<g>
			<linearGradient id="SVGID_5_" gradientUnits="userSpaceOnUse" x1="76" y1="271.025" x2="256" y2="271.025">
				<stop  offset="0" style="stop-color:#FFFFFF;stop-opacity:0.2"/>
				<stop  offset="1" style="stop-color:#FFFFFF;stop-opacity:0"/>
			</linearGradient>
			<path fill="url(#SVGID_5_)" d="M256,256L106,106l-22.5,22.5c-2.2,2.2-4,4.7-5.1,7.6c-1.5,3.3-2.3,6.9-2.3,10.6l-0.1,5.7V436
				L256,256z"/>
			<linearGradient id="SVGID_6_" gradientUnits="userSpaceOnUse" x1="106.05" y1="132" x2="436" y2="132">
				<stop  offset="0" style="stop-color:#FFFFFF;stop-opacity:0.2"/>
				<stop  offset="1" style="stop-color:#FFFFFF;stop-opacity:0"/>
			</linearGradient>
			<path fill="url(#SVGID_6_)" d="M256,256L436,76V28c0-11-9-20-20-20H219h-4.1c-3.7,0-7.3,0.8-10.6,2.3c-2.8,1.3-5.4,2.9-7.6,5.1
				L106,106L256,256z"/>
			<linearGradient id="SVGID_7_" gradientUnits="userSpaceOnUse" x1="76" y1="380" x2="436" y2="380">
				<stop  offset="0" style="stop-color:#FFFFFF;stop-opacity:0.2"/>
				<stop  offset="1" style="stop-color:#FFFFFF;stop-opacity:0"/>
			</linearGradient>
			<path fill="url(#SVGID_7_)" d="M436,484v-48L256,256L76,436v48c0,11,9,20,20,20h320C427,504,436,495,436,484z"/>
			<linearGradient id="SVGID_8_" gradientUnits="userSpaceOnUse" x1="256" y1="256" x2="436" y2="256">
				<stop  offset="0" style="stop-color:#FFFFFF;stop-opacity:0.2"/>
				<stop  offset="1" style="stop-color:#FFFFFF;stop-opacity:0"/>
			</linearGradient>
			<polygon fill="url(#SVGID_8_)" points="436,436 436,76 256,256 			"/>
		</g>
		<g id="g15">
			<path id="path17" fill="#FBA919" d="M147.9,411.8c0,12.1-16.6,20.5-16.6,20.5c4.9-14.2-11.6-22.3-11.6-34.5
				c0-12.2,15.7-20.9,15.7-20.9C133.9,396.7,147.9,399.7,147.9,411.8z"/>
			<path fill="#F15D22" d="M329.2,385.5c30.5-80.8-68.4-152.3-68.4-152.3s51.8,85-63.1,155.3C153.8,415.2,117.6,458,98,503.2
				c0.2,0.3,0.4,0.5,0.5,0.8h250.2C321.7,479.5,305.2,449.1,329.2,385.5z"/>
			<path id="path21" fill="#F15D22" d="M210.9,276.8c0,22.6-31,38.2-31,38.2c9-26.4-21.6-41.7-21.6-64.3s29.4-39.1,29.4-39.1
				C184.5,248.8,210.9,254.2,210.9,276.8z"/>
			<path fill="#F47920" d="M411.7,504c1.3-6.7,3.3-14,6-22.1c20.4-60.3-48.6-118.1-48.6-118.1s16.1,80.3-66.9,113.3
				c-17.2,6.8-32.1,16-44.6,26.9H411.7z"/>
			<path id="path25" fill="#EF9324" d="M210.9,450.2c0,25.4,34.9,43.1,34.9,43.1c-10.1-29.8,24.4-47.1,24.4-72.5
				c0-25.4-33.2-43.9-33.2-43.9C240.6,418.8,210.9,424.8,210.9,450.2z"/>
			<path id="path33" fill="#F15D22" d="M352.9,279.4c0,14.6,20,24.8,20,24.8c-5.9-17.1,14-27,14-41.6c0-14.6-19-25.3-19-25.3
				C369.8,261.5,352.9,264.9,352.9,279.4z"/>
		</g>
		
			<linearGradient id="SVGID_9_" gradientUnits="userSpaceOnUse" x1="95.8" y1="-70.4" x2="462.7" y2="-437.3" gradientTransform="matrix(0.5 0 0 0.5 0 256)">
			<stop  offset="0" style="stop-color:#195b90"/>
			<stop  offset="1" style="stop-color:#195b90;stop-opacity:0"/>
		</linearGradient>
		<path opacity="0.7" fill="url(#SVGID_9_)" enable-background="new    " d="M196.7,15.6L83.5,128.8c-2.2,2.2-4,4.7-5.1,7.6
			c-1.5,3.3-2.3,6.9-2.3,10.6v102l120.6-120.6c4.9-4.9,7.6-11.3,7.6-18.1v-100C201.5,11.6,198.9,13.4,196.7,15.6z"/>
		<path fill="#195b90" d="M214.9,8c-3.7,0-7.3,0.8-10.6,2.3c-2.8,1.3-5.4,2.9-7.6,5.1L83.5,128.6c-2.2,2.2-4,4.7-5.1,7.6
			c-1.5,3.3-2.3,6.9-2.3,10.6v4.1c0-8.2,6.5-14.7,14.7-14.7h87.8c14.1,0,25.6-11.5,25.6-25.6V22.7c0-8.2,6.5-14.7,14.7-14.7H214.9z"
			/>
	</g>
</g>
</svg>
