<?xml version="1.0" encoding="utf-8"?>
<!-- Generator: Adobe Illustrator 18.0.0, SVG Export Plug-In . SVG Version: 6.00 Build 0)  -->
<!DOCTYPE svg PUBLIC "-//W3C//DTD SVG 1.1//EN" "http://www.w3.org/Graphics/SVG/1.1/DTD/svg11.dtd">
<svg version="1.1" id="Layer_1" xmlns="http://www.w3.org/2000/svg" xmlns:xlink="http://www.w3.org/1999/xlink" x="0px" y="0px"
	 viewBox="0 0 512 512" enable-background="new 0 0 512 512" xml:space="preserve">
<g>
	<path fill="#F44336" d="M416,8H219h-4.1c-3.7,0-7.3,0.8-10.6,2.3c-2.8,1.3-5.4,2.9-7.6,5.1L83.5,128.6c-2.2,2.2-4,4.7-5.1,7.6
		c-1.5,3.3-2.3,6.9-2.3,10.6l-0.1,5.7V484c0,11,9,20,20,20h320c11,0,20-9,20-20V28C436,17,427,8,416,8z"/>
	<g>
		<linearGradient id="SVGID_1_" gradientUnits="userSpaceOnUse" x1="91.025" y1="271.025" x2="305.025" y2="57.025">
			<stop  offset="0" style="stop-color:#FFFFFF;stop-opacity:0.2"/>
			<stop  offset="1" style="stop-color:#FFFFFF;stop-opacity:0"/>
		</linearGradient>
		<path fill="url(#SVGID_1_)" d="M256,256V8h-37h-4.1c-3.7,0-7.3,0.8-10.6,2.3c-2.8,1.3-5.4,2.9-7.6,5.1L83.5,128.6
			c-2.2,2.2-4,4.7-5.1,7.6c-1.5,3.3-2.3,6.9-2.3,10.6l-0.1,5.7V256H256z"/>
		<linearGradient id="SVGID_2_" gradientUnits="userSpaceOnUse" x1="239" y1="239" x2="447.125" y2="30.875">
			<stop  offset="0" style="stop-color:#FFFFFF;stop-opacity:0.2"/>
			<stop  offset="1" style="stop-color:#FFFFFF;stop-opacity:0"/>
		</linearGradient>
		<path fill="url(#SVGID_2_)" d="M416,8H256v248h180V28C436,17,427,8,416,8z"/>
		<linearGradient id="SVGID_3_" gradientUnits="userSpaceOnUse" x1="64.875" y1="481.125" x2="273" y2="273">
			<stop  offset="0" style="stop-color:#FFFFFF;stop-opacity:0.2"/>
			<stop  offset="1" style="stop-color:#FFFFFF;stop-opacity:0"/>
		</linearGradient>
		<path fill="url(#SVGID_3_)" d="M76,484c0,11,9,20,20,20h160V256H76V484z"/>
		<linearGradient id="SVGID_4_" gradientUnits="userSpaceOnUse" x1="236.0625" y1="484.0625" x2="450.0625" y2="270.0625">
			<stop  offset="0" style="stop-color:#FFFFFF;stop-opacity:0.2"/>
			<stop  offset="1" style="stop-color:#FFFFFF;stop-opacity:0"/>
		</linearGradient>
		<path fill="url(#SVGID_4_)" d="M256,256v248h160c11,0,20-9,20-20V256H256z"/>
	</g>
	
		<linearGradient id="SVGID_5_" gradientUnits="userSpaceOnUse" x1="95.8" y1="-70.4" x2="462.7" y2="-437.3" gradientTransform="matrix(0.5 0 0 0.5 0 256)">
		<stop  offset="0" style="stop-color:#D32F2F"/>
		<stop  offset="1" style="stop-color:#D32F2F;stop-opacity:0"/>
	</linearGradient>
	<path opacity="0.7" fill="url(#SVGID_5_)" enable-background="new    " d="M196.7,15.6L83.5,128.8c-2.2,2.2-4,4.7-5.1,7.6
		c-1.5,3.3-2.3,6.9-2.3,10.6v102l120.6-120.6c4.9-4.9,7.6-11.3,7.6-18.1v-100C201.5,11.6,198.9,13.4,196.7,15.6z"/>
	<path fill="#D32F2F" d="M214.9,8c-3.7,0-7.3,0.8-10.6,2.3c-2.8,1.3-5.4,2.9-7.6,5.1L83.5,128.6c-2.2,2.2-4,4.7-5.1,7.6
		c-1.5,3.3-2.3,6.9-2.3,10.6v4.1c0-8.2,6.5-14.7,14.7-14.7h87.8c14.1,0,25.6-11.5,25.6-25.6V22.7c0-8.2,6.5-14.7,14.7-14.7H214.9z"
		/>
</g>
<g>
	<path fill="#FFFFFF" d="M165.6,259.6v12.7h-6v-32.5h9.9c2.2,0,4.1,0.2,5.7,0.7c1.6,0.5,2.9,1.1,3.9,1.9c1,0.8,1.8,1.8,2.2,3
		c0.5,1.1,0.7,2.4,0.7,3.8c0,1.1-0.2,2.1-0.5,3.1c-0.3,1-0.8,1.9-1.4,2.7c-0.6,0.8-1.4,1.5-2.2,2.1c-0.9,0.6-1.9,1.1-3,1.4
		c0.8,0.4,1.4,1.1,2,1.9l8.1,12h-5.4c-0.5,0-1-0.1-1.3-0.3c-0.4-0.2-0.7-0.5-0.9-0.9l-6.8-10.4c-0.3-0.4-0.5-0.7-0.8-0.8
		c-0.3-0.2-0.8-0.2-1.4-0.2L165.6,259.6L165.6,259.6L165.6,259.6z M165.6,255.2h3.8c1.1,0,2.1-0.1,3-0.4c0.8-0.3,1.5-0.7,2.1-1.2
		c0.5-0.5,1-1.1,1.2-1.8c0.3-0.7,0.4-1.4,0.4-2.3c0-1.7-0.5-2.9-1.6-3.8c-1.1-0.9-2.7-1.3-5-1.3h-3.9V255.2z"/>
	<path fill="#FFFFFF" d="M209.3,239.7v4.8h-14.4v9h11.4v4.7h-11.4v9.2h14.4v4.8h-20.5v-32.5H209.3L209.3,239.7z"/>
	<path fill="#FFFFFF" d="M243.2,272.3h-4.7c-0.5,0-1-0.1-1.3-0.4c-0.3-0.3-0.6-0.6-0.7-1l-2.4-6.6h-13.5l-2.4,6.6
		c-0.1,0.3-0.4,0.7-0.7,0.9c-0.4,0.3-0.8,0.4-1.3,0.4h-4.7l12.8-32.5h6.2L243.2,272.3z M222.1,260h10.4l-4-10.8
		c-0.2-0.5-0.4-1-0.6-1.7c-0.2-0.7-0.4-1.4-0.6-2.1c-0.2,0.8-0.4,1.5-0.6,2.1c-0.2,0.7-0.4,1.2-0.6,1.7L222.1,260z"/>
	<path fill="#FFFFFF" d="M275.4,256c0,2.4-0.4,4.6-1.2,6.6c-0.8,2-1.9,3.7-3.4,5.2c-1.4,1.4-3.2,2.6-5.2,3.4c-2,0.8-4.3,1.2-6.7,1.2
		h-12.4v-32.5h12.4c2.5,0,4.7,0.4,6.7,1.2c2,0.8,3.8,1.9,5.2,3.4c1.4,1.4,2.6,3.1,3.4,5.1C275,251.4,275.4,253.6,275.4,256z
		 M269.2,256c0-1.8-0.2-3.4-0.7-4.8c-0.5-1.4-1.2-2.6-2-3.6c-0.9-1-2-1.7-3.2-2.3c-1.3-0.5-2.7-0.8-4.3-0.8h-6.3v22.9h6.3
		c1.6,0,3-0.3,4.3-0.8c1.3-0.5,2.3-1.3,3.2-2.3c0.9-1,1.6-2.2,2-3.6C269,259.4,269.2,257.8,269.2,256z"/>
	<path fill="#FFFFFF" d="M307.1,260.3c0.2,0.5,0.4,1,0.6,1.6c0.2-0.5,0.4-1.1,0.7-1.6c0.2-0.5,0.5-1,0.7-1.5l9.6-18
		c0.1-0.2,0.2-0.4,0.4-0.5c0.1-0.1,0.3-0.2,0.4-0.3c0.2-0.1,0.3-0.1,0.5-0.1c0.2,0,0.4,0,0.7,0h4.6v32.5h-5.3v-21c0-0.4,0-0.8,0-1.3
		c0-0.5,0.1-0.9,0.1-1.4l-9.8,18.4c-0.2,0.4-0.5,0.7-0.9,1c-0.4,0.2-0.8,0.3-1.3,0.3h-0.8c-0.5,0-0.9-0.1-1.3-0.3
		c-0.4-0.2-0.7-0.6-0.9-1l-10-18.5c0.1,0.5,0.1,1,0.1,1.5c0,0.5,0,0.9,0,1.3v21h-5.3v-32.5h4.6c0.3,0,0.5,0,0.7,0
		c0.2,0,0.4,0.1,0.5,0.1c0.2,0.1,0.3,0.2,0.4,0.3c0.1,0.1,0.3,0.3,0.4,0.5l9.7,18.1C306.7,259.2,306.9,259.7,307.1,260.3z"/>
	<path fill="#FFFFFF" d="M352.4,239.7v4.8H338v9h11.4v4.7H338v9.2h14.4v4.8h-20.5v-32.5H352.4L352.4,239.7z"/>
</g>
</svg>
