<?xml version="1.0" encoding="utf-8"?>
<!-- Generator: Adobe Illustrator 18.0.0, SVG Export Plug-In . SVG Version: 6.00 Build 0)  -->
<!DOCTYPE svg PUBLIC "-//W3C//DTD SVG 1.1//EN" "http://www.w3.org/Graphics/SVG/1.1/DTD/svg11.dtd">
<svg version="1.1" id="Layer_1" xmlns="http://www.w3.org/2000/svg" xmlns:xlink="http://www.w3.org/1999/xlink" x="0px" y="0px"
	 viewBox="0 0 512 512" enable-background="new 0 0 512 512" xml:space="preserve">
<g>
	<path fill="#26bdd3" d="M416,8H219h-4.1c-3.7,0-7.3,0.8-10.6,2.3c-2.8,1.3-5.4,2.9-7.6,5.1L83.5,128.6c-2.2,2.2-4,4.7-5.1,7.6
		c-1.5,3.3-2.3,6.9-2.3,10.6l-0.1,5.7V484c0,11,9,20,20,20h320c11,0,20-9,20-20V28C436,17,427,8,416,8z"/>
	<g>
		<linearGradient id="SVGID_1_" gradientUnits="userSpaceOnUse" x1="91.025" y1="271.025" x2="305.025" y2="57.025">
			<stop  offset="0" style="stop-color:#FFFFFF;stop-opacity:0.2"/>
			<stop  offset="1" style="stop-color:#FFFFFF;stop-opacity:0"/>
		</linearGradient>
		<path fill="url(#SVGID_1_)" d="M256,256V8h-37h-4.1c-3.7,0-7.3,0.8-10.6,2.3c-2.8,1.3-5.4,2.9-7.6,5.1L83.5,128.6
			c-2.2,2.2-4,4.7-5.1,7.6c-1.5,3.3-2.3,6.9-2.3,10.6l-0.1,5.7V256H256z"/>
		<linearGradient id="SVGID_2_" gradientUnits="userSpaceOnUse" x1="239" y1="239" x2="447.125" y2="30.875">
			<stop  offset="0" style="stop-color:#FFFFFF;stop-opacity:0.2"/>
			<stop  offset="1" style="stop-color:#FFFFFF;stop-opacity:0"/>
		</linearGradient>
		<path fill="url(#SVGID_2_)" d="M416,8H256v248h180V28C436,17,427,8,416,8z"/>
		<linearGradient id="SVGID_3_" gradientUnits="userSpaceOnUse" x1="64.875" y1="481.125" x2="273" y2="273">
			<stop  offset="0" style="stop-color:#FFFFFF;stop-opacity:0.2"/>
			<stop  offset="1" style="stop-color:#FFFFFF;stop-opacity:0"/>
		</linearGradient>
		<path fill="url(#SVGID_3_)" d="M76,484c0,11,9,20,20,20h160V256H76V484z"/>
		<linearGradient id="SVGID_4_" gradientUnits="userSpaceOnUse" x1="236.0625" y1="484.0625" x2="450.0625" y2="270.0625">
			<stop  offset="0" style="stop-color:#FFFFFF;stop-opacity:0.2"/>
			<stop  offset="1" style="stop-color:#FFFFFF;stop-opacity:0"/>
		</linearGradient>
		<path fill="url(#SVGID_4_)" d="M256,256v248h160c11,0,20-9,20-20V256H256z"/>
	</g>
	
		<linearGradient id="SVGID_5_" gradientUnits="userSpaceOnUse" x1="95.8" y1="-70.4" x2="462.7" y2="-437.3" gradientTransform="matrix(0.5 0 0 0.5 0 256)">
		<stop  offset="0" style="stop-color:#3fa6de"/>
		<stop  offset="1" style="stop-color:#3fa6de;stop-opacity:0"/>
	</linearGradient>
	<path opacity="0.7" fill="url(#SVGID_5_)" enable-background="new    " d="M196.7,15.6L83.5,128.8c-2.2,2.2-4,4.7-5.1,7.6
		c-1.5,3.3-2.3,6.9-2.3,10.6v102l120.6-120.6c4.9-4.9,7.6-11.3,7.6-18.1v-100C201.5,11.6,198.9,13.4,196.7,15.6z"/>
	<path fill="#3fa6de" d="M214.9,8c-3.7,0-7.3,0.8-10.6,2.3c-2.8,1.3-5.4,2.9-7.6,5.1L83.5,128.6c-2.2,2.2-4,4.7-5.1,7.6
		c-1.5,3.3-2.3,6.9-2.3,10.6v4.1c0-8.2,6.5-14.7,14.7-14.7h87.8c14.1,0,25.6-11.5,25.6-25.6V22.7c0-8.2,6.5-14.7,14.7-14.7H214.9z"
		/>
</g>
<g>
	<path fill="#FFFFFF" d="M225.2,268.9c0-2.8-0.9-5-2.9-7c-1.9-1.9-5.1-3.6-9.8-5.1c-6.4-1.9-11-4.4-13.9-7.6
		c-2.9-3.1-4.4-7.1-4.4-11.9c0-4.9,1.4-8.9,4.3-12.1c2.9-3.1,6.8-5,11.8-5.6v-9.8h6.6v9.9c5,0.7,8.9,2.8,11.7,6.3s4.2,8.4,4.2,14.4
		h-8.2c0-4.2-1-7.6-3-10.1s-4.7-3.8-8.1-3.8c-3.6,0-6.2,0.9-8.1,2.8s-2.8,4.4-2.8,7.7c0,3.1,1,5.5,3,7.3s5.2,3.4,9.8,4.9
		s8.1,3.1,10.6,4.9c2.6,1.8,4.4,3.9,5.6,6.2s1.8,5.1,1.8,8.3c0,5-1.5,9.1-4.6,12.2c-3.1,3-7.2,4.9-12.8,5.5v8.6h-6.6v-8.5
		c-5.6-0.5-9.9-2.5-13.1-6s-4.7-8.1-4.7-14h8.3c0,4.1,1.1,7.4,3.2,9.6c2.2,2.2,5.2,3.4,9.2,3.4c3.9,0,7-1,9.2-2.8
		C224.1,274.7,225.2,272.1,225.2,268.9z"/>
	<path fill="#FFFFFF" d="M266.7,302c-5.3-1.5-9.2-4-11.9-7.4c-2.6-3.4-4-8-4-13.5v-8.9c0-7.2-3.1-10.9-9.5-10.9v-6.5
		c6.4,0,9.5-3.6,9.5-10.9v-9.3c0.1-5.4,1.4-9.9,4-13.2c2.6-3.4,6.6-5.8,11.9-7.3l1.7,5.1c-6.2,2-9.4,7.2-9.4,15.6v9.1
		c0,6.8-2.5,11.5-7.5,14.1c5,2.7,7.5,7.5,7.5,14.3v9.2c0.1,8.2,3.2,13.3,9.4,15.2L266.7,302z"/>
	<path fill="#FFFFFF" d="M293,296.9c6-2,9.2-6.9,9.4-14.8v-9.9c0-6.9,2.7-11.6,8.1-14.1c-5.4-2.4-8.1-7.1-8.1-14.1v-9.1
		c0-8.4-3.1-13.6-9.4-15.6l1.7-5.1c5.3,1.5,9.2,3.9,11.9,7.2s4,7.8,4,13.3v9.4c0,7.1,3.1,10.7,9.5,10.7v6.5c-6.4,0-9.5,3.6-9.5,10.9
		v9c0,5.6-1.4,10.1-4,13.5c-2.7,3.4-6.6,5.8-11.9,7.3L293,296.9z"/>
</g>
</svg>
