<?xml version="1.0" encoding="utf-8"?>
<!-- Generator: Adobe Illustrator 18.0.0, SVG Export Plug-In . SVG Version: 6.00 Build 0)  -->
<!DOCTYPE svg PUBLIC "-//W3C//DTD SVG 1.1//EN" "http://www.w3.org/Graphics/SVG/1.1/DTD/svg11.dtd">
<svg version="1.1" id="Layer_1" xmlns="http://www.w3.org/2000/svg" xmlns:xlink="http://www.w3.org/1999/xlink" x="0px" y="0px"
	 viewBox="0 0 512 512" enable-background="new 0 0 512 512" xml:space="preserve">
<g>
	<path fill="#03A9F4" d="M416,8H219h-4.1c-3.7,0-7.3,0.8-10.6,2.3c-2.8,1.3-5.4,2.9-7.6,5.1L83.5,128.6c-2.2,2.2-4,4.7-5.1,7.6
		c-1.5,3.3-2.3,6.9-2.3,10.6l-0.1,5.7V484c0,11,9,20,20,20h320c11,0,20-9,20-20V28C436,17,427,8,416,8z"/>
	<g>
		<path fill="#FFFFFF" d="M394.4,473h-10.8c-1.4,0-2.5-1.1-2.5-2.5s1.1-2.5,2.5-2.5h10.8c0.4,0,0.7,0,1.1,0c1.4-0.1,2.6,0.9,2.7,2.3
			c0.1,1.4-0.9,2.6-2.3,2.7C395.4,473,394.9,473,394.4,473z M371.5,473h-12.1c-1.4,0-2.5-1.1-2.5-2.5s1.1-2.5,2.5-2.5h12.1
			c1.4,0,2.5,1.1,2.5,2.5S372.9,473,371.5,473z M347.3,473h-12.1c-1.4,0-2.5-1.1-2.5-2.5s1.1-2.5,2.5-2.5h12.1
			c1.4,0,2.5,1.1,2.5,2.5S348.7,473,347.3,473z M323.1,473H311c-1.4,0-2.5-1.1-2.5-2.5s1.1-2.5,2.5-2.5h12.1c1.4,0,2.5,1.1,2.5,2.5
			S324.5,473,323.1,473z M298.9,473h-12.1c-1.4,0-2.5-1.1-2.5-2.5s1.1-2.5,2.5-2.5h12.1c1.4,0,2.5,1.1,2.5,2.5S300.3,473,298.9,473z
			 M274.8,473h-12.1c-1.4,0-2.5-1.1-2.5-2.5s1.1-2.5,2.5-2.5h12.1c1.4,0,2.5,1.1,2.5,2.5S276.1,473,274.8,473z M250.6,473h-12.1
			c-1.4,0-2.5-1.1-2.5-2.5s1.1-2.5,2.5-2.5h12.1c1.4,0,2.5,1.1,2.5,2.5S252,473,250.6,473z M226.4,473h-12.1c-1.4,0-2.5-1.1-2.5-2.5
			s1.1-2.5,2.5-2.5h12.1c1.4,0,2.5,1.1,2.5,2.5S227.8,473,226.4,473z M202.2,473h-12.1c-1.4,0-2.5-1.1-2.5-2.5s1.1-2.5,2.5-2.5h12.1
			c1.4,0,2.5,1.1,2.5,2.5S203.6,473,202.2,473z M178,473h-12.1c-1.4,0-2.5-1.1-2.5-2.5s1.1-2.5,2.5-2.5H178c1.4,0,2.5,1.1,2.5,2.5
			S179.4,473,178,473z M153.9,473h-12.1c-1.4,0-2.5-1.1-2.5-2.5s1.1-2.5,2.5-2.5h12.1c1.4,0,2.5,1.1,2.5,2.5S155.2,473,153.9,473z
			 M129.7,473h-12.1c-1.4,0-2.5-1.1-2.5-2.5s1.1-2.5,2.5-2.5h12.1c1.4,0,2.5,1.1,2.5,2.5S131,473,129.7,473z M106.5,468.9
			c-0.6,0-1.1-0.2-1.6-0.6c-3.6-3-6-7.2-6.8-11.8c-0.2-1.4,0.7-2.7,2-2.9c1.4-0.2,2.7,0.7,2.9,2c0.6,3.4,2.4,6.5,5.1,8.8
			c1.1,0.9,1.2,2.5,0.3,3.5C107.9,468.6,107.2,468.9,106.5,468.9z M406.5,468.1c-0.6,0-1.3-0.3-1.8-0.8c-1-1-0.9-2.6,0-3.5
			c2.5-2.4,4.1-5.7,4.4-9.1c0.1-1.4,1.4-2.4,2.7-2.2c1.4,0.1,2.4,1.4,2.2,2.7c-0.5,4.6-2.5,8.9-5.9,12.2
			C407.7,467.8,407.1,468.1,406.5,468.1z M100.3,446.6c-1.4,0-2.5-1.1-2.5-2.5V432c0-1.4,1.1-2.5,2.5-2.5s2.5,1.1,2.5,2.5v12.1
			C102.8,445.4,101.7,446.6,100.3,446.6z M411.7,445.3c-1.4,0-2.5-1.1-2.5-2.5v-12.1c0-1.4,1.1-2.5,2.5-2.5s2.5,1.1,2.5,2.5v12.1
			C414.2,444.2,413.1,445.3,411.7,445.3z M100.3,422.4c-1.4,0-2.5-1.1-2.5-2.5v-12.1c0-1.4,1.1-2.5,2.5-2.5s2.5,1.1,2.5,2.5v12.1
			C102.8,421.3,101.7,422.4,100.3,422.4z M411.7,421.1c-1.4,0-2.5-1.1-2.5-2.5v-12.1c0-1.4,1.1-2.5,2.5-2.5s2.5,1.1,2.5,2.5v12.1
			C414.2,420,413.1,421.1,411.7,421.1z M100.3,398.2c-1.4,0-2.5-1.1-2.5-2.5v-12.1c0-1.4,1.1-2.5,2.5-2.5s2.5,1.1,2.5,2.5v12.1
			C102.8,397.1,101.7,398.2,100.3,398.2z M411.7,396.9c-1.4,0-2.5-1.1-2.5-2.5v-12.1c0-1.4,1.1-2.5,2.5-2.5s2.5,1.1,2.5,2.5v12.1
			C414.2,395.8,413.1,396.9,411.7,396.9z M100.3,374c-1.4,0-2.5-1.1-2.5-2.5v-12.1c0-1.4,1.1-2.5,2.5-2.5s2.5,1.1,2.5,2.5v12.1
			C102.8,372.9,101.7,374,100.3,374z M411.7,372.8c-1.4,0-2.5-1.1-2.5-2.5v-12.1c0-1.4,1.1-2.5,2.5-2.5s2.5,1.1,2.5,2.5v12.1
			C414.2,371.6,413.1,372.8,411.7,372.8z M100.3,349.8c-1.4,0-2.5-1.1-2.5-2.5v-12.1c0-1.4,1.1-2.5,2.5-2.5s2.5,1.1,2.5,2.5v12.1
			C102.8,348.7,101.7,349.8,100.3,349.8z M411.7,348.6c-1.4,0-2.5-1.1-2.5-2.5V334c0-1.4,1.1-2.5,2.5-2.5s2.5,1.1,2.5,2.5v12.1
			C414.2,347.5,413.1,348.6,411.7,348.6z M100.3,325.6c-1.4,0-2.5-1.1-2.5-2.5v-12.1c0-1.4,1.1-2.5,2.5-2.5s2.5,1.1,2.5,2.5v12.1
			C102.8,324.5,101.7,325.6,100.3,325.6z M411.7,324.4c-1.4,0-2.5-1.1-2.5-2.5v-12.1c0-1.4,1.1-2.5,2.5-2.5s2.5,1.1,2.5,2.5v12.1
			C414.2,323.3,413.1,324.4,411.7,324.4z M100.3,301.5c-1.4,0-2.5-1.1-2.5-2.5v-12.1c0-1.4,1.1-2.5,2.5-2.5s2.5,1.1,2.5,2.5V299
			C102.8,300.3,101.7,301.5,100.3,301.5z M411.7,300.2c-1.4,0-2.5-1.1-2.5-2.5v-12.1c0-1.4,1.1-2.5,2.5-2.5s2.5,1.1,2.5,2.5v12.1
			C414.2,299.1,413.1,300.2,411.7,300.2z M100.3,277.3c-1.4,0-2.5-1.1-2.5-2.5v-12.1c0-1.4,1.1-2.5,2.5-2.5s2.5,1.1,2.5,2.5v12.1
			C102.8,276.2,101.7,277.3,100.3,277.3z M411.7,276c-1.4,0-2.5-1.1-2.5-2.5v-12.1c0-1.4,1.1-2.5,2.5-2.5s2.5,1.1,2.5,2.5v12.1
			C414.2,274.9,413.1,276,411.7,276z M100.3,253.1c-1.4,0-2.5-1.1-2.5-2.5v-12.1c0-1.4,1.1-2.5,2.5-2.5s2.5,1.1,2.5,2.5v12.1
			C102.8,252,101.7,253.1,100.3,253.1z M411.7,251.8c-1.4,0-2.5-1.1-2.5-2.5v-12.1c0-1.4,1.1-2.5,2.5-2.5s2.5,1.1,2.5,2.5v12.1
			C414.2,250.7,413.1,251.8,411.7,251.8z M100.3,228.9c-1.4,0-2.5-1.1-2.5-2.5v-12.1c0-1.4,1.1-2.5,2.5-2.5s2.5,1.1,2.5,2.5v12.1
			C102.8,227.8,101.7,228.9,100.3,228.9z M411.7,227.7c-1.4,0-2.5-1.1-2.5-2.5v-12.1c0-1.4,1.1-2.5,2.5-2.5s2.5,1.1,2.5,2.5v12.1
			C414.2,226.5,413.1,227.7,411.7,227.7z M100.3,204.7c-1.4,0-2.5-1.1-2.5-2.5v-12.1c0-1.4,1.1-2.5,2.5-2.5s2.5,1.1,2.5,2.5v12.1
			C102.8,203.6,101.7,204.7,100.3,204.7z M411.7,203.5c-1.4,0-2.5-1.1-2.5-2.5v-12.1c0-1.4,1.1-2.5,2.5-2.5s2.5,1.1,2.5,2.5V201
			C414.2,202.4,413.1,203.5,411.7,203.5z M100.3,180.6c-1.4,0-2.5-1.1-2.5-2.5V166c0-1.4,1.1-2.5,2.5-2.5s2.5,1.1,2.5,2.5v12.1
			C102.8,179.4,101.7,180.6,100.3,180.6z M411.7,179.3c-1.4,0-2.5-1.1-2.5-2.5v-12.1c0-1.4,1.1-2.5,2.5-2.5s2.5,1.1,2.5,2.5v12.1
			C414.2,178.2,413.1,179.3,411.7,179.3z M100.3,156.4c-1.4,0-2.5-1.1-2.5-2.5v-12.1c0-1.4,1.1-2.5,2.5-2.5s2.5,1.1,2.5,2.5v12.1
			C102.8,155.2,101.7,156.4,100.3,156.4z M411.7,155.1c-1.4,0-2.5-1.1-2.5-2.5v-12.1c0-1.4,1.1-2.5,2.5-2.5s2.5,1.1,2.5,2.5v12.1
			C414.2,154,413.1,155.1,411.7,155.1z M100.3,132.2c-1.4,0-2.5-1.1-2.5-2.5v-12.1c0-1.4,1.1-2.5,2.5-2.5s2.5,1.1,2.5,2.5v12.1
			C102.8,131.1,101.7,132.2,100.3,132.2z M411.7,130.9c-1.4,0-2.5-1.1-2.5-2.5v-12.1c0-1.4,1.1-2.5,2.5-2.5s2.5,1.1,2.5,2.5v12.1
			C414.2,129.8,413.1,130.9,411.7,130.9z M411.7,106.8c-1.4,0-2.5-1.1-2.5-2.5V92.2c0-1.4,1.1-2.5,2.5-2.5s2.5,1.1,2.5,2.5v12.1
			C414.2,105.6,413.1,106.8,411.7,106.8z M411.7,82.6c-1.4,0-2.5-1.1-2.5-2.5V68c0-1.4,1.1-2.5,2.5-2.5s2.5,1.1,2.5,2.5v12.1
			C414.2,81.4,413.1,82.6,411.7,82.6z M411.4,58.4c-1.2,0-2.3-0.9-2.5-2.1c-0.6-3.4-2.4-6.5-5-8.8c-1.1-0.9-1.2-2.5-0.3-3.5
			c0.9-1.1,2.5-1.2,3.5-0.3c3.6,3,5.9,7.2,6.7,11.8c0.2,1.4-0.7,2.7-2,2.9C411.7,58.4,411.6,58.4,411.4,58.4z M394.5,44h-12.2
			c-1.4,0-2.5-1.1-2.5-2.5s1.1-2.5,2.5-2.5h12.1c1.4,0,2.5,1.1,2.5,2.5S395.8,44,394.5,44z M370.2,44h-12.1c-1.4,0-2.5-1.1-2.5-2.5
			s1.1-2.5,2.5-2.5h12.1c1.4,0,2.5,1.1,2.5,2.5S371.6,44,370.2,44z M346,44h-12.1c-1.4,0-2.5-1.1-2.5-2.5s1.1-2.5,2.5-2.5H346
			c1.4,0,2.5,1.1,2.5,2.5S347.4,44,346,44z M321.8,44h-12.1c-1.4,0-2.5-1.1-2.5-2.5s1.1-2.5,2.5-2.5h12.1c1.4,0,2.5,1.1,2.5,2.5
			S323.2,44,321.8,44z M297.7,44h-12.1c-1.4,0-2.5-1.1-2.5-2.5s1.1-2.5,2.5-2.5h12.1c1.4,0,2.5,1.1,2.5,2.5S299,44,297.7,44z
			 M273.5,44h-12.1c-1.4,0-2.5-1.1-2.5-2.5s1.1-2.5,2.5-2.5h12.1c1.4,0,2.5,1.1,2.5,2.5S274.9,44,273.5,44z M249.3,44h-12.1
			c-1.4,0-2.5-1.1-2.5-2.5s1.1-2.5,2.5-2.5h12.1c1.4,0,2.5,1.1,2.5,2.5S250.7,44,249.3,44z M225.1,44H213c-1.4,0-2.5-1.1-2.5-2.5
			s1.1-2.5,2.5-2.5h12.1c1.4,0,2.5,1.1,2.5,2.5S226.5,44,225.1,44z M200.9,44h-12.1c-1.4,0-2.5-1.1-2.5-2.5s1.1-2.5,2.5-2.5h12.1
			c1.4,0,2.5,1.1,2.5,2.5S202.3,44,200.9,44z"/>
	</g>
	<g>
		<linearGradient id="SVGID_1_" gradientUnits="userSpaceOnUse" x1="91.025" y1="271.025" x2="305.025" y2="57.025">
			<stop  offset="0" style="stop-color:#FFFFFF;stop-opacity:0.2"/>
			<stop  offset="1" style="stop-color:#FFFFFF;stop-opacity:0"/>
		</linearGradient>
		<path fill="url(#SVGID_1_)" d="M256,256V8h-37h-4.1c-3.7,0-7.3,0.8-10.6,2.3c-2.8,1.3-5.4,2.9-7.6,5.1L83.5,128.6
			c-2.2,2.2-4,4.7-5.1,7.6c-1.5,3.3-2.3,6.9-2.3,10.6l-0.1,5.7V256H256z"/>
		<linearGradient id="SVGID_2_" gradientUnits="userSpaceOnUse" x1="239" y1="239" x2="447.125" y2="30.875">
			<stop  offset="0" style="stop-color:#FFFFFF;stop-opacity:0.2"/>
			<stop  offset="1" style="stop-color:#FFFFFF;stop-opacity:0"/>
		</linearGradient>
		<path fill="url(#SVGID_2_)" d="M416,8H256v248h180V28C436,17,427,8,416,8z"/>
		<linearGradient id="SVGID_3_" gradientUnits="userSpaceOnUse" x1="64.875" y1="481.125" x2="273" y2="273">
			<stop  offset="0" style="stop-color:#FFFFFF;stop-opacity:0.2"/>
			<stop  offset="1" style="stop-color:#FFFFFF;stop-opacity:0"/>
		</linearGradient>
		<path fill="url(#SVGID_3_)" d="M76,484c0,11,9,20,20,20h160V256H76V484z"/>
		<linearGradient id="SVGID_4_" gradientUnits="userSpaceOnUse" x1="236.0625" y1="484.0625" x2="450.0625" y2="270.0625">
			<stop  offset="0" style="stop-color:#FFFFFF;stop-opacity:0.2"/>
			<stop  offset="1" style="stop-color:#FFFFFF;stop-opacity:0"/>
		</linearGradient>
		<path fill="url(#SVGID_4_)" d="M256,256v248h160c11,0,20-9,20-20V256H256z"/>
	</g>
	<g display="none">
		<linearGradient id="SVGID_5_" gradientUnits="userSpaceOnUse" x1="76" y1="271.025" x2="256" y2="271.025">
			<stop  offset="0" style="stop-color:#FFFFFF;stop-opacity:0.2"/>
			<stop  offset="1" style="stop-color:#FFFFFF;stop-opacity:0"/>
		</linearGradient>
		<path display="inline" fill="url(#SVGID_5_)" d="M256,256L106,106l-22.5,22.5c-2.2,2.2-4,4.7-5.1,7.6c-1.5,3.3-2.3,6.9-2.3,10.6
			l-0.1,5.7V436L256,256z"/>
		<linearGradient id="SVGID_6_" gradientUnits="userSpaceOnUse" x1="106.05" y1="132" x2="436" y2="132">
			<stop  offset="0" style="stop-color:#FFFFFF;stop-opacity:0.2"/>
			<stop  offset="1" style="stop-color:#FFFFFF;stop-opacity:0"/>
		</linearGradient>
		<path display="inline" fill="url(#SVGID_6_)" d="M256,256L436,76V28c0-11-9-20-20-20H219h-4.1c-3.7,0-7.3,0.8-10.6,2.3
			c-2.8,1.3-5.4,2.9-7.6,5.1L106,106L256,256z"/>
		<linearGradient id="SVGID_7_" gradientUnits="userSpaceOnUse" x1="76" y1="380" x2="436" y2="380">
			<stop  offset="0" style="stop-color:#FFFFFF;stop-opacity:0.2"/>
			<stop  offset="1" style="stop-color:#FFFFFF;stop-opacity:0"/>
		</linearGradient>
		<path display="inline" fill="url(#SVGID_7_)" d="M436,484v-48L256,256L76,436v48c0,11,9,20,20,20h320C427,504,436,495,436,484z"/>
		<linearGradient id="SVGID_8_" gradientUnits="userSpaceOnUse" x1="256" y1="256" x2="436" y2="256">
			<stop  offset="0" style="stop-color:#FFFFFF;stop-opacity:0.2"/>
			<stop  offset="1" style="stop-color:#FFFFFF;stop-opacity:0"/>
		</linearGradient>
		<polygon display="inline" fill="url(#SVGID_8_)" points="436,436 436,76 256,256 		"/>
	</g>
	<linearGradient id="SVGID_9_" gradientUnits="userSpaceOnUse" x1="253.8758" y1="396.25" x2="434.0772" y2="396.25">
		<stop  offset="0" style="stop-color:#FFFFFF;stop-opacity:0.5"/>
		<stop  offset="1" style="stop-color:#FFFFFF;stop-opacity:0.1"/>
	</linearGradient>
	<path display="none" fill="url(#SVGID_9_)" d="M434.1,288.5h-71.7c-19.7,0-48,4.7-68.8,21.8c-15.6,13.5-23.3,32.1-23.3,48.8
		c0,28.4,21.8,57.2,60.4,57.2c3.6,0,7.6-0.4,11.6-0.7c-1.8,4.4-3.6,8-3.6,14.2c0,11.3,5.8,18.2,10.9,24.8
		c-16.4,1.1-47,2.9-69.5,16.8c-15.5,9.2-23.2,21.5-26.3,32.6h30.6c2.4-22.6,23.5-30.6,31-33.3c15.3-5.1,34.9-5.9,38.2-5.9
		c3.6,0,5.5,0,8.4,0.4c22.7,16.1,34.8,25.6,38.5,38.8H416c3.6,0,7.1-1,10-2.7c0-0.7,0.1-1.4,0.1-2.1c0-25.2-14.5-37.6-30.6-51.1
		l-13.1-10.2c-4-3.3-9.5-7.7-9.5-15.7c0-8,5.5-13.1,10.2-17.9c15.3-12,30.5-24.8,30.5-51.8c0-27.7-17.4-42.3-25.8-49.2h22.5
		L434.1,288.5z M372.6,396c-5.8,5.8-15.6,10.2-24.7,10.2c-31.3,0-45.5-40.5-45.5-64.9c0-9.5,1.8-19.3,8-27c5.8-7.3,16-12,25.5-12
		c30.2,0,45.8,40.8,45.8,67.1C381.7,375.9,381,387.6,372.6,396z"/>
	
		<linearGradient id="SVGID_10_" gradientUnits="userSpaceOnUse" x1="95.8" y1="-70.4" x2="462.7" y2="-437.3" gradientTransform="matrix(0.5 0 0 0.5 0 256)">
		<stop  offset="0" style="stop-color:#0288D1"/>
		<stop  offset="1" style="stop-color:#0288D1;stop-opacity:0"/>
	</linearGradient>
	<path opacity="0.7" fill="url(#SVGID_10_)" enable-background="new    " d="M196.7,15.6L83.5,128.8c-2.2,2.2-4,4.7-5.1,7.6
		c-1.5,3.3-2.3,6.9-2.3,10.6v102l120.6-120.6c4.9-4.9,7.6-11.3,7.6-18.1v-100C201.5,11.6,198.9,13.4,196.7,15.6z"/>
	<path fill="#0288D1" d="M214.9,8c-3.7,0-7.3,0.8-10.6,2.3c-2.8,1.3-5.4,2.9-7.6,5.1L83.5,128.6c-2.2,2.2-4,4.7-5.1,7.6
		c-1.5,3.3-2.3,6.9-2.3,10.6v4.1c0-8.2,6.5-14.7,14.7-14.7h87.8c14.1,0,25.6-11.5,25.6-25.6V22.7c0-8.2,6.5-14.7,14.7-14.7H214.9z"
		/>
</g>
<g>
	<g>
		<rect x="217.9" y="326.5" fill="#000000" enable-background="new    " width="149.1" height="19.4"/>
		<rect x="217.9" y="363.1" fill="#000000" enable-background="new    " width="149.1" height="19.4"/>
	</g>
	<g>
		<rect x="144.6" y="398.8" fill="#000000" enable-background="new    " width="111.4" height="19.4"/>
		<rect x="144.6" y="326.5" fill="#000000" enable-background="new    " width="56.1" height="56.1"/>
	</g>
	<g>
		<rect x="256.2" y="256.1" fill="#000000" enable-background="new    " width="110.9" height="19.4"/>
		<rect x="144.8" y="291.3" fill="#000000" enable-background="new    " width="222.4" height="19.4"/>
	</g>
</g>
</svg>
