<?xml version="1.0" encoding="utf-8"?>
<!-- Generator: Adobe Illustrator 22.0.1, SVG Export Plug-In . SVG Version: 6.00 Build 0)  -->
<svg version="1.1" id="Layer_1" xmlns="http://www.w3.org/2000/svg" xmlns:xlink="http://www.w3.org/1999/xlink" x="0px" y="0px"
	 viewBox="0 0 512 512" enable-background="new 0 0 512 512" xml:space="preserve">
<path fill="#CCC2B0" d="M446,486H66c-22,0-40-18-40-40V66c0-22,18-40,40-40h380c22,0,40,18,40,40v380C486,468,468,486,446,486z"/>
<g>
	<rect x="387.1" y="326" fill="#3B97D3" width="98.9" height="70"/>
	<rect x="387.1" y="256" fill="#69C186" width="98.9" height="70"/>
	<rect x="387.1" y="186" fill="#F0C519" width="98.9" height="70"/>
	<rect x="387.1" y="116" fill="#E74D3D" width="98.9" height="70"/>
</g>
<linearGradient id="SVGID_1_" gradientUnits="userSpaceOnUse" x1="26" y1="256" x2="414" y2="256">
	<stop  offset="0" style="stop-color:#D8CFC4"/>
	<stop  offset="1" style="stop-color:#E3DCC9"/>
</linearGradient>
<path fill="url(#SVGID_1_)" d="M374,486H66c-22,0-40-18-40-40V66c0-22,18-40,40-40h308c22.1,0,40,17.9,40,40v380
	C414,468.1,396.1,486,374,486z"/>
<g>
	<g id="g290" transform="translate(256,393.1064)">
		<path id="path292" fill="#FFFFFF" d="M-36-269.3c-73,0-132.2,59.2-132.2,132.2S-109-4.9-36-4.9S96.2-64.1,96.2-137.1
			S37-269.3-36-269.3 M-36-251c30.4,0,59,11.8,80.5,33.4c21.5,21.5,33.4,50.1,33.4,80.5s-11.8,59-33.4,80.5C23-35-5.6-23.2-36-23.2
			S-95-35-116.5-56.6c-21.5-21.5-33.4-50.1-33.4-80.5s11.8-59,33.4-80.5C-95-239.2-66.4-251-36-251"/>
	</g>
	<g id="g294" transform="translate(270.9363,251.2259)" opacity="0.75">
		<path id="path296" fill="#FFFFFF" d="M-31.4,58.1c0.3-14.9,28-15.2,31.8-65c0.5-6.1,0.4-13-0.5-19.8C-1.1-55.2-24.7-78-53.7-78
			c-25.3,0-46.5,17.4-52.1,40.8c-3.7,11.5-4,23.7-2.9,32.7c6.6,53.6,32.7,43.1,31.9,66.1c-0.5,13.8-28.2,17.6-49.4,28.7
			c20.8,18.4,47.2,28.4,75.2,28.4c27.3,0,53.1-9.6,73.6-27C-0.7,77.9-31.7,74.1-31.4,58.1"/>
	</g>
</g>
<g>
	<g>
		<g display="none">
			<g display="inline">
				<path fill="#FFFCF1" d="M-157.4-1.827c-1,0.2-1.9-0.5-2.1-1.4l-0.9-5.2c-0.2-1,0.5-1.9,1.4-2.1c1-0.2,1.9,0.5,2.1,1.4l0.9,5.2
					C-155.8-2.927-156.4-2.027-157.4-1.827z"/>
			</g>
			<g display="inline">
				<path fill="#FFFCF1" d="M-94.3,356.073c-1,0.2-1.9-0.5-2.1-1.4l-1.8-10.3c-0.2-1,0.5-1.9,1.4-2.1c1-0.2,1.9,0.5,2.1,1.4
					l1.8,10.3C-92.7,354.973-93.3,355.873-94.3,356.073z M-97.6,337.273c-1,0.2-1.9-0.5-2.1-1.4l-1.8-10.3c-0.2-1,0.5-1.9,1.4-2.1
					c1-0.2,1.9,0.5,2.1,1.4l1.8,10.3C-96,336.173-96.7,337.073-97.6,337.273z M-100.9,318.373c-1,0.2-1.9-0.5-2.1-1.4l-1.8-10.3
					c-0.2-1,0.5-1.9,1.4-2.1c1-0.2,1.9,0.5,2.1,1.4l1.8,10.3C-99.3,317.273-100,318.273-100.9,318.373z M-104.3,299.573
					c-1,0.2-1.9-0.5-2.1-1.4l-1.8-10.3c-0.2-1,0.5-1.9,1.4-2.1c1-0.2,1.9,0.5,2.1,1.4l1.8,10.3
					C-102.7,298.473-103.3,299.373-104.3,299.573z M-107.6,280.773c-1,0.2-1.9-0.5-2.1-1.4l-1.8-10.3c-0.2-1,0.5-1.9,1.4-2.1
					s1.9,0.5,2.1,1.4l1.8,10.3C-106,279.673-106.6,280.573-107.6,280.773z M-110.9,261.873c-1,0.2-1.9-0.5-2.1-1.4l-1.8-10.3
					c-0.2-1,0.5-1.9,1.4-2.1s1.9,0.5,2.1,1.4l1.8,10.3C-109.3,260.773-109.9,261.773-110.9,261.873z M-114.2,243.073
					c-1,0.2-1.9-0.5-2.1-1.4l-1.8-10.3c-0.2-1,0.5-1.9,1.4-2.1c1-0.2,1.9,0.5,2.1,1.4l1.8,10.3
					C-112.6,241.973-113.3,242.873-114.2,243.073z M-117.6,224.173c-1,0.2-1.9-0.5-2.1-1.4l-1.8-10.3c-0.2-1,0.5-1.9,1.4-2.1
					s1.9,0.5,2.1,1.4l1.8,10.3C-115.9,223.173-116.6,224.073-117.6,224.173z M-120.9,205.373c-1,0.2-1.9-0.5-2.1-1.4l-1.8-10.3
					c-0.2-1,0.5-1.9,1.4-2.1c1-0.2,1.9,0.5,2.1,1.4l1.8,10.3C-119.3,204.273-119.9,205.173-120.9,205.373z M-124.2,186.573
					c-1,0.2-1.9-0.5-2.1-1.4l-1.8-10.3c-0.2-1,0.5-1.9,1.4-2.1c1-0.2,1.9,0.5,2.1,1.4l1.8,10.3
					C-122.6,185.473-123.2,186.373-124.2,186.573z M-127.5,167.673c-1,0.2-1.9-0.5-2.1-1.4l-1.8-10.3c-0.2-1,0.5-1.9,1.4-2.1
					c1-0.2,1.9,0.5,2.1,1.4l1.8,10.3C-125.9,166.573-126.6,167.573-127.5,167.673z M-130.8,148.873c-1,0.2-1.9-0.5-2.1-1.4
					l-1.8-10.3c-0.2-1,0.5-1.9,1.4-2.1c1-0.2,1.9,0.5,2.1,1.4l1.8,10.3C-129.2,147.773-129.9,148.673-130.8,148.873z
					 M-134.2,130.073c-1,0.2-1.9-0.5-2.1-1.4l-1.8-10.3c-0.2-1,0.5-1.9,1.4-2.1c1-0.2,1.9,0.5,2.1,1.4l1.8,10.3
					C-132.5,128.973-133.2,129.873-134.2,130.073z M-137.5,111.173c-1,0.2-1.9-0.5-2.1-1.4l-1.8-10.3c-0.2-1,0.5-1.9,1.4-2.1
					s1.9,0.5,2.1,1.4l1.8,10.3C-135.9,110.073-136.5,110.973-137.5,111.173z M-140.8,92.373c-1,0.2-1.9-0.5-2.1-1.4l-1.8-10.3
					c-0.2-1,0.5-1.9,1.4-2.1c1-0.2,1.9,0.5,2.1,1.4l1.8,10.3C-139.2,91.273-139.8,92.173-140.8,92.373z M-144.1,73.473
					c-1,0.2-1.9-0.5-2.1-1.4l-1.8-10.3c-0.2-1,0.5-1.9,1.4-2.1c1-0.2,1.9,0.5,2.1,1.4l1.8,10.3
					C-142.5,72.373-143.2,73.373-144.1,73.473z M-147.4,54.673c-1,0.2-1.9-0.5-2.1-1.4l-1.8-10.3c-0.2-1,0.5-1.9,1.4-2.1
					c1-0.2,1.9,0.5,2.1,1.4l1.8,10.3C-145.8,53.573-146.5,54.473-147.4,54.673z M-150.8,35.873c-1,0.2-1.9-0.5-2.1-1.4l-1.8-10.3
					c-0.2-1,0.5-1.9,1.4-2.1c1-0.2,1.9,0.5,2.1,1.4l1.8,10.3C-149.2,34.773-149.8,35.673-150.8,35.873z M-154.1,16.973
					c-1,0.2-1.9-0.5-2.1-1.4l-1.8-10.3c-0.2-1,0.5-1.9,1.4-2.1s1.9,0.5,2.1,1.4l1.8,10.3C-152.5,15.873-153.1,16.873-154.1,16.973z"
					/>
			</g>
			<g display="inline">
				<path fill="#FFFCF1" d="M-91.9,369.873c-1,0.2-1.9-0.5-2.1-1.4l-0.9-5.2c-0.2-1,0.5-1.9,1.4-2.1s1.9,0.5,2.1,1.4l0.9,5.2
					C-90.3,368.773-90.9,369.773-91.9,369.873z"/>
			</g>
		</g>
	</g>
</g>
</svg>
