<?xml version="1.0" encoding="utf-8"?>
<!-- Generator: Adobe Illustrator 18.0.0, SVG Export Plug-In . SVG Version: 6.00 Build 0)  -->
<!DOCTYPE svg PUBLIC "-//W3C//DTD SVG 1.1//EN" "http://www.w3.org/Graphics/SVG/1.1/DTD/svg11.dtd">
<svg version="1.1" id="Layer_1" xmlns="http://www.w3.org/2000/svg" xmlns:xlink="http://www.w3.org/1999/xlink" x="0px" y="0px"
	 viewBox="0 0 612 792" enable-background="new 0 0 612 792" xml:space="preserve">
<g>
	<path fill="#CD8440" d="M497.2,99.6H261.8h-4.9c-4.4,0-8.7,1-12.7,2.7c-3.3,1.6-6.5,3.5-9.1,6.1L99.8,243.7
		c-2.6,2.6-4.8,5.6-6.1,9.1c-1.8,3.9-2.7,8.2-2.7,12.7l-0.1,6.8v396.2c0,13.1,10.8,23.9,23.9,23.9h382.5c13.1,0,23.9-10.8,23.9-23.9
		V123.5C521.2,110.3,510.4,99.6,497.2,99.6z"/>
	<g>
		
			<linearGradient id="SVGID_1_" gradientUnits="userSpaceOnUse" x1="91.025" y1="520.975" x2="305.025" y2="734.975" gradientTransform="matrix(1.1953 0 0 -1.1953 0 1036.6875)">
			<stop  offset="0" style="stop-color:#FFFFFF;stop-opacity:0.2"/>
			<stop  offset="1" style="stop-color:#FFFFFF;stop-opacity:0"/>
		</linearGradient>
		<path fill="url(#SVGID_1_)" d="M306,396V99.6h-44.2h-4.9c-4.4,0-8.7,1-12.7,2.7c-3.3,1.6-6.5,3.5-9.1,6.1L99.8,243.7
			c-2.6,2.6-4.8,5.6-6.1,9.1c-1.8,3.9-2.7,8.2-2.7,12.7l-0.1,6.8V396H306z"/>
		
			<linearGradient id="SVGID_2_" gradientUnits="userSpaceOnUse" x1="239" y1="553" x2="447.125" y2="761.125" gradientTransform="matrix(1.1953 0 0 -1.1953 0 1036.6875)">
			<stop  offset="0" style="stop-color:#FFFFFF;stop-opacity:0.2"/>
			<stop  offset="1" style="stop-color:#FFFFFF;stop-opacity:0"/>
		</linearGradient>
		<path fill="url(#SVGID_2_)" d="M497.2,99.6H306V396h215.2V123.5C521.2,110.3,510.4,99.6,497.2,99.6z"/>
		
			<linearGradient id="SVGID_3_" gradientUnits="userSpaceOnUse" x1="64.875" y1="310.875" x2="273" y2="519" gradientTransform="matrix(1.1953 0 0 -1.1953 0 1036.6875)">
			<stop  offset="0" style="stop-color:#FFFFFF;stop-opacity:0.2"/>
			<stop  offset="1" style="stop-color:#FFFFFF;stop-opacity:0"/>
		</linearGradient>
		<path fill="url(#SVGID_3_)" d="M90.8,668.5c0,13.1,10.8,23.9,23.9,23.9H306V396H90.8V668.5z"/>
		
			<linearGradient id="SVGID_4_" gradientUnits="userSpaceOnUse" x1="236.0625" y1="307.9375" x2="450.0625" y2="521.9375" gradientTransform="matrix(1.1953 0 0 -1.1953 0 1036.6875)">
			<stop  offset="0" style="stop-color:#FFFFFF;stop-opacity:0.2"/>
			<stop  offset="1" style="stop-color:#FFFFFF;stop-opacity:0"/>
		</linearGradient>
		<path fill="url(#SVGID_4_)" d="M306,396v296.4h191.2c13.1,0,23.9-10.8,23.9-23.9V396H306z"/>
	</g>
	
		<linearGradient id="SVGID_5_" gradientUnits="userSpaceOnUse" x1="95.8" y1="862.4" x2="462.7" y2="1229.2999" gradientTransform="matrix(0.5977 0 0 -0.5977 0 869.3438)">
		<stop  offset="0" style="stop-color:#FDC688"/>
		<stop  offset="1" style="stop-color:#FDC688;stop-opacity:0"/>
	</linearGradient>
	<path opacity="0.7" fill="url(#SVGID_5_)" enable-background="new    " d="M235.1,108.6L99.8,244c-2.6,2.6-4.8,5.6-6.1,9.1
		c-1.8,3.9-2.7,8.2-2.7,12.7v121.9l144.2-144.2c5.9-5.9,9.1-13.5,9.1-21.6V102.3C240.9,103.9,237.7,106,235.1,108.6z"/>
	<path fill="#FDC688" d="M256.9,99.6c-4.4,0-8.7,1-12.7,2.7c-3.3,1.6-6.5,3.5-9.1,6.1L99.8,243.7c-2.6,2.6-4.8,5.6-6.1,9.1
		c-1.8,3.9-2.7,8.2-2.7,12.7v4.9c0-9.8,7.8-17.6,17.6-17.6h104.9c16.9,0,30.6-13.7,30.6-30.6V117.1c0-9.8,7.8-17.6,17.6-17.6
		C261.7,99.6,256.9,99.6,256.9,99.6z"/>
</g>
<path id="path212" fill="#FFFFFF" d="M320.1,411.7c0.2-10.8,20.3-11,23.1-47.1c0.4-4.4,0.2-9.4-0.4-14.3
	C342.1,329.5,325,313,304,313c-18.3,0-33.7,12.6-37.8,29.5c-2.6,8.4-2.9,17.2-2.2,23.7c4.8,38.8,23.7,31.3,23.2,47.9
	c-0.6,16.7-56.3,13.1-53.1,48.1c1,9.9,36.5,16.9,66.7,16.9c31.9,0,77-2,77-13.4C378,426.1,319.9,430.2,320.1,411.7"/>
</svg>
