<?xml version="1.0" encoding="utf-8"?>
<!-- Generator: Adobe Illustrator 18.0.0, SVG Export Plug-In . SVG Version: 6.00 Build 0)  -->
<!DOCTYPE svg PUBLIC "-//W3C//DTD SVG 1.1//EN" "http://www.w3.org/Graphics/SVG/1.1/DTD/svg11.dtd">
<svg version="1.1" id="Layer_2" xmlns="http://www.w3.org/2000/svg" xmlns:xlink="http://www.w3.org/1999/xlink" x="0px" y="0px"
	 viewBox="0 0 612 792" enable-background="new 0 0 612 792" xml:space="preserve">
<path fill="#DEE9F3" d="M556.7,142.8H317.8c-7.4,0-14.5,3.5-19.1,9.2l-12.9,16.3c-4.5,5.7-11.6,9.2-18.9,9.2H55.3
	c-13.4,0.1-24.3,11-24.3,24.4v434.9c0,6.8,5.5,12.3,12.3,12.3h525.1c6.8,0,12.3-5.5,12.3-12.3V177.6v-10.4
	C580.9,153.7,570,142.8,556.7,142.8z"/>
<path id="path18" fill="#1ACDFB" d="M569,649.2H43c-6.6,0-12-5.4-12-12V309.3c0-13.1,10.8-23.9,23.9-23.9h502
	c13.1,0,23.9,10.8,23.9,23.9v327.9C580.9,643.8,575.5,649.2,569,649.2z"/>
<radialGradient id="SVGID_1_" cx="232.6667" cy="488.0211" r="308.0308" gradientTransform="matrix(1.1953 0 0 -0.9558 0 919.7739)" gradientUnits="userSpaceOnUse">
	<stop  offset="8.866995e-02" style="stop-color:#E0B6D5;stop-opacity:0.5"/>
	<stop  offset="0.3744" style="stop-color:#C0519E;stop-opacity:0.5"/>
	<stop  offset="0.9905" style="stop-color:#000000;stop-opacity:0"/>
</radialGradient>
<path fill="url(#SVGID_1_)" d="M569,649.2H43c-6.6,0-12-5.4-12-12V309.3c0-13.1,10.8-23.9,23.9-23.9h502c13.1,0,23.9,10.8,23.9,23.9
	v327.9C580.9,643.8,575.5,649.2,569,649.2z"/>
<g id="Layer_3" opacity="0.6">
	<g>
		<rect x="31.1" y="343.4" width="549.8" height="55.6"/>
		<g>
			<polygon fill="#FFFFFF" points="580.6,396.5 540.2,396.5 579.8,345.9 580.6,345.9 			"/>
			<polygon fill="#FFFFFF" points="532.4,396.5 487.1,396.5 526.8,345.9 572.1,345.9 			"/>
			<polygon fill="#FFFFFF" points="479.3,396.5 434,396.5 473.7,345.9 519,345.9 			"/>
			<polygon fill="#FFFFFF" points="426.2,396.5 380.9,396.5 420.6,345.9 465.9,345.9 			"/>
			<polygon fill="#FFFFFF" points="373.2,396.5 327.9,396.5 367.6,345.9 412.9,345.9 			"/>
			<polygon fill="#FFFFFF" points="320.1,396.5 274.8,396.5 314.5,345.9 359.8,345.9 			"/>
			<polygon fill="#FFFFFF" points="267,396.5 221.7,396.5 261.4,345.9 306.7,345.9 			"/>
			<polygon fill="#FFFFFF" points="214,396.5 168.7,396.5 208.3,345.9 253.6,345.9 			"/>
			<polygon fill="#FFFFFF" points="160.9,396.5 115.6,396.5 155.3,345.9 200.6,345.9 			"/>
		</g>
	</g>
	<g>
		<path d="M557,285.4H55c-13.1,0-23.9,10.8-23.9,23.9V341h549.8v-31.7C580.9,296.2,570.2,285.4,557,285.4z"/>
		<g>
			<path fill="#FFFFFF" d="M579.5,301.2c0-0.1-0.1-0.2-0.1-0.4c-0.5-1.2-1.1-2.4-1.7-3.6c0-0.1-0.1-0.1-0.1-0.2
				c-0.5-0.7-0.8-1.4-1.3-2c0-0.1-0.1-0.1-0.1-0.2c-0.8-1.1-1.7-2-2.7-3l0,0c-0.7-0.6-1.3-1.2-2-1.7l0,0c-1.1-0.8-2.3-1.6-3.6-2.2
				h-27.4l39.7,50.6h0.7v-33.3c-0.1-0.5-0.1-0.8-0.2-1.3c0-0.1,0-0.2-0.1-0.4C580,302.8,579.7,301.9,579.5,301.2z"/>
			<polygon fill="#FFFFFF" points="532.4,287.9 487.1,287.9 526.8,338.5 572.1,338.5 			"/>
			<polygon fill="#FFFFFF" points="479.3,287.9 434,287.9 473.7,338.5 519,338.5 			"/>
			<polygon fill="#FFFFFF" points="426.2,287.9 380.9,287.9 420.6,338.5 465.9,338.5 			"/>
			<polygon fill="#FFFFFF" points="373.2,287.9 327.9,287.9 367.6,338.5 412.9,338.5 			"/>
			<polygon fill="#FFFFFF" points="320.1,287.9 274.8,287.9 314.5,338.5 359.8,338.5 			"/>
			<polygon fill="#FFFFFF" points="267,287.9 221.7,287.9 261.4,338.5 306.7,338.5 			"/>
			<polygon fill="#FFFFFF" points="214,287.9 168.7,287.9 208.3,338.5 253.6,338.5 			"/>
			<polygon fill="#FFFFFF" points="160.9,287.9 115.6,287.9 155.3,338.5 200.6,338.5 			"/>
		</g>
	</g>
</g>
<g id="Layer_3_copy" display="none" opacity="0.75">
	<g display="inline">
		<path d="M31.1,482.2l549.8-138.5v-34.3c0-10.5-6.8-19.4-16.1-22.6L31.1,421.2V482.2z"/>
		<g>
			<path fill="#FFFFFF" d="M551.9,348.3l29-7.3v-31.6c0-5.6-1.9-10.8-5.1-14.8L551.9,348.3z"/>
			<path fill="#FFFFFF" d="M568.7,288.5l-43.7,11l-27.7,62.5l46.7-11.7l26.9-60.5C570,289.3,569.3,288.9,568.7,288.5z"/>
			<polygon fill="#FFFFFF" points="489,364.1 442.4,375.9 470.1,313.3 516.9,301.6 			"/>
			<polygon fill="#FFFFFF" points="434.3,378 387.5,389.7 415.4,327.1 462,315.3 			"/>
			<polygon fill="#FFFFFF" points="379.5,391.7 332.8,403.4 360.5,340.9 407.2,329.2 			"/>
			<polygon fill="#FFFFFF" points="324.8,405.4 278,417.3 305.8,354.8 352.5,342.9 			"/>
			<polygon fill="#FFFFFF" points="269.9,419.3 223.3,431 251,368.5 297.8,356.8 			"/>
			<polygon fill="#FFFFFF" points="215.2,433.1 168.4,444.9 196.3,382.3 243,370.5 			"/>
			<polygon fill="#FFFFFF" points="160.4,446.9 113.7,458.6 141.5,396.1 188.1,384.3 			"/>
		</g>
	</g>
	<g display="inline">
		<path d="M557,285.4H344.6h-16.7H55c-13.1,0-23.9,10.8-23.9,23.9v50.8v39.8v21.2l533.7-134.5C562.3,285.9,559.8,285.4,557,285.4z"
			/>
		<g>
			<path fill="#FFFFFF" d="M523.5,294.4l35.1-8.8c-0.6,0-1.2-0.1-1.8-0.1H512L523.5,294.4z"/>
			<polygon fill="#FFFFFF" points="468.8,308.1 515.5,296.4 501.3,285.4 439.5,285.4 			"/>
			<polygon fill="#FFFFFF" points="414.1,322 460.8,310.2 428.8,285.4 366.8,285.4 			"/>
			<polygon fill="#FFFFFF" points="405.9,324 356.2,285.4 338.6,285.4 305.2,293.9 359.3,335.8 			"/>
			<polygon fill="#FFFFFF" points="297.2,296 250.4,307.7 304.4,349.6 351.2,337.8 			"/>
			<polygon fill="#FFFFFF" points="242.3,309.7 195.7,321.4 249.7,363.4 296.4,351.7 			"/>
			<polygon fill="#FFFFFF" points="187.5,323.4 140.8,335.3 195,377.2 241.7,365.4 			"/>
			<polygon fill="#FFFFFF" points="132.8,337.3 86.1,349 140.2,391 186.8,379.3 			"/>
		</g>
	</g>
</g>
<g opacity="0.28">
	
		<radialGradient id="SVGID_2_" cx="268.2" cy="472" r="48" gradientTransform="matrix(1.1953 0 0 -1.1953 0 1036.6875)" gradientUnits="userSpaceOnUse">
		<stop  offset="4.926108e-03" style="stop-color:#FFFFFF"/>
		<stop  offset="1" style="stop-color:#FFFFFF;stop-opacity:0"/>
	</radialGradient>
	<circle fill="url(#SVGID_2_)" cx="320.6" cy="472.5" r="57.4"/>
	
		<radialGradient id="SVGID_3_" cx="106.3" cy="552.5" r="45.7" gradientTransform="matrix(1.1953 0 0 -1.1953 0 1036.6875)" gradientUnits="userSpaceOnUse">
		<stop  offset="4.926108e-03" style="stop-color:#FFFFFF"/>
		<stop  offset="1" style="stop-color:#FFFFFF;stop-opacity:0"/>
	</radialGradient>
	<circle fill="url(#SVGID_3_)" cx="127.1" cy="376.3" r="54.6"/>
	
		<radialGradient id="SVGID_4_" cx="324" cy="490" r="45.5" gradientTransform="matrix(1.1953 0 0 -1.1953 0 1036.6875)" gradientUnits="userSpaceOnUse">
		<stop  offset="4.926108e-03" style="stop-color:#FFFFFF"/>
		<stop  offset="1" style="stop-color:#FFFFFF;stop-opacity:0"/>
	</radialGradient>
	<circle fill="url(#SVGID_4_)" cx="387.3" cy="451" r="54.4"/>
	
		<radialGradient id="SVGID_5_" cx="138.6" cy="476.4" r="42" gradientTransform="matrix(1.1953 0 0 -1.1953 0 1036.6875)" gradientUnits="userSpaceOnUse">
		<stop  offset="4.926108e-03" style="stop-color:#FFFFFF"/>
		<stop  offset="1" style="stop-color:#FFFFFF;stop-opacity:0"/>
	</radialGradient>
	<circle fill="url(#SVGID_5_)" cx="165.7" cy="467.2" r="50.2"/>
	
		<radialGradient id="SVGID_6_" cx="280" cy="536" r="32.5" gradientTransform="matrix(1.1953 0 0 -1.1953 0 1036.6875)" gradientUnits="userSpaceOnUse">
		<stop  offset="4.926108e-03" style="stop-color:#FFFFFF"/>
		<stop  offset="1" style="stop-color:#FFFFFF;stop-opacity:0"/>
	</radialGradient>
	<circle fill="url(#SVGID_6_)" cx="334.7" cy="396" r="38.8"/>
	
		<radialGradient id="SVGID_7_" cx="316" cy="444.6" r="22.8597" gradientTransform="matrix(1.1953 0 0 -1.1953 0 1036.6875)" gradientUnits="userSpaceOnUse">
		<stop  offset="4.926108e-03" style="stop-color:#FFFFFF"/>
		<stop  offset="1" style="stop-color:#FFFFFF;stop-opacity:0"/>
	</radialGradient>
	<circle fill="url(#SVGID_7_)" cx="377.7" cy="505.3" r="27.3"/>
	
		<radialGradient id="SVGID_8_" cx="183.4" cy="530.75" r="21.7653" gradientTransform="matrix(1.1953 0 0 -1.1953 0 1036.6875)" gradientUnits="userSpaceOnUse">
		<stop  offset="4.926108e-03" style="stop-color:#FFFFFF"/>
		<stop  offset="1" style="stop-color:#FFFFFF;stop-opacity:0"/>
	</radialGradient>
	<circle fill="url(#SVGID_8_)" cx="219.2" cy="402.2" r="26.1"/>
	
		<radialGradient id="SVGID_9_" cx="145" cy="509" r="24" gradientTransform="matrix(1.1953 0 0 -1.1953 0 1036.6875)" gradientUnits="userSpaceOnUse">
		<stop  offset="4.926108e-03" style="stop-color:#FFFFFF"/>
		<stop  offset="1" style="stop-color:#FFFFFF;stop-opacity:0"/>
	</radialGradient>
	<circle fill="url(#SVGID_9_)" cx="173.3" cy="428.3" r="28.7"/>
	
		<radialGradient id="SVGID_10_" cx="447" cy="407.4" r="21" gradientTransform="matrix(1.1953 0 0 -1.1953 0 1036.6875)" gradientUnits="userSpaceOnUse">
		<stop  offset="4.926108e-03" style="stop-color:#FFFFFF"/>
		<stop  offset="1" style="stop-color:#FFFFFF;stop-opacity:0"/>
	</radialGradient>
	<circle fill="url(#SVGID_10_)" cx="534.3" cy="549.7" r="25.1"/>
	
		<radialGradient id="SVGID_11_" cx="100.25" cy="423" r="22.75" gradientTransform="matrix(1.1953 0 0 -1.1953 0 1036.6875)" gradientUnits="userSpaceOnUse">
		<stop  offset="4.926108e-03" style="stop-color:#FFFFFF"/>
		<stop  offset="1" style="stop-color:#FFFFFF;stop-opacity:0"/>
	</radialGradient>
	<circle fill="url(#SVGID_11_)" cx="119.8" cy="531.1" r="27.3"/>
	
		<radialGradient id="SVGID_12_" cx="205.2" cy="408.2" r="30.6" gradientTransform="matrix(1.1953 0 0 -1.1953 0 1036.6875)" gradientUnits="userSpaceOnUse">
		<stop  offset="4.926108e-03" style="stop-color:#FFFFFF"/>
		<stop  offset="1" style="stop-color:#FFFFFF;stop-opacity:0"/>
	</radialGradient>
	<circle fill="url(#SVGID_12_)" cx="245.3" cy="548.8" r="36.6"/>
	
		<radialGradient id="SVGID_13_" cx="368.8" cy="421.8" r="44.8" gradientTransform="matrix(1.1953 0 0 -1.1953 0 1036.6875)" gradientUnits="userSpaceOnUse">
		<stop  offset="4.926108e-03" style="stop-color:#FFFFFF"/>
		<stop  offset="1" style="stop-color:#FFFFFF;stop-opacity:0"/>
	</radialGradient>
	<circle fill="url(#SVGID_13_)" cx="440.8" cy="532.5" r="53.5"/>
	
		<radialGradient id="SVGID_14_" cx="414.4" cy="526.4" r="53.6" gradientTransform="matrix(1.1953 0 0 -1.1953 0 1036.6875)" gradientUnits="userSpaceOnUse">
		<stop  offset="4.926108e-03" style="stop-color:#FFFFFF"/>
		<stop  offset="1" style="stop-color:#FFFFFF;stop-opacity:0"/>
	</radialGradient>
	<circle fill="url(#SVGID_14_)" cx="495.3" cy="407.5" r="64.1"/>
	
		<radialGradient id="SVGID_15_" cx="220.2" cy="491.5" r="12.8414" gradientTransform="matrix(1.1953 0 0 -1.1953 0 1036.6875)" gradientUnits="userSpaceOnUse">
		<stop  offset="4.926108e-03" style="stop-color:#FFFFFF"/>
		<stop  offset="1" style="stop-color:#FFFFFF;stop-opacity:0"/>
	</radialGradient>
	<circle fill="url(#SVGID_15_)" cx="263.2" cy="449.2" r="15.3"/>
	
		<radialGradient id="SVGID_16_" cx="78.6385" cy="472" r="18" gradientTransform="matrix(1.1953 0 0 -1.1953 0 1036.6875)" gradientUnits="userSpaceOnUse">
		<stop  offset="4.926108e-03" style="stop-color:#FFFFFF"/>
		<stop  offset="1" style="stop-color:#FFFFFF;stop-opacity:0"/>
	</radialGradient>
	<circle fill="url(#SVGID_16_)" cx="94" cy="472.5" r="21.5"/>
</g>
<g>
	<path opacity="0.4" fill="#383838" enable-background="new    " d="M545.3,649.2l22.2-9.3c2.5-1.4,4.2-4.2,4.2-7.2
		s-1.6-5.6-4.2-7.2L347.1,465.7c-2.5-1.4-5.7-1.4-8.2,0s-4.2,4.2-4.2,7.2v176.3H545.3z"/>
	<path fill="#FFFFFF" d="M491.8,649.2l74.7-43.2c2.5-1.4,4.2-4.2,4.2-7.2s-1.6-5.6-4.2-7.2l-218.4-126c-2.5-1.4-5.7-1.4-8.2,0
		s-4.2,4.2-4.2,7.2v176.3H491.8z"/>
</g>
</svg>
