<?xml version="1.0" encoding="utf-8"?>
<!-- Generator: Adobe Illustrator 18.0.0, SVG Export Plug-In . SVG Version: 6.00 Build 0)  -->
<!DOCTYPE svg PUBLIC "-//W3C//DTD SVG 1.1//EN" "http://www.w3.org/Graphics/SVG/1.1/DTD/svg11.dtd">
<svg version="1.1" id="Layer_1" xmlns="http://www.w3.org/2000/svg" xmlns:xlink="http://www.w3.org/1999/xlink" x="0px" y="0px"
	 viewBox="0 0 512 512" enable-background="new 0 0 512 512" xml:space="preserve">
<g>
	<path fill="#FFFFFF" d="M256,346.7c-17.5,0-33.3-7-44.9-18.4c-12,4.5-23.3,10.6-33.2,18.3l39.1,50.7C227.7,389,241.3,384,256,384
		c14.7,0,28.3,5,39.1,13.3l39.1-50.7c-10-7.7-21.2-13.8-33.2-18.3C289.3,339.7,273.5,346.7,256,346.7z"/>
	<path fill="#FFFFFF" d="M216.9,397.3L256,448l39.1-50.7C284.3,389,270.7,384,256,384C241.3,384,227.7,389,216.9,397.3z"/>
</g>
<g>
	<g>
		<path fill="#FFFFFF" d="M255.9,66c43,0,85.1,7.1,125.3,21c38.2,13.3,74,32.5,106.3,57.2l-37.8,49.1L410.6,244l-39.1,50.7
			l-39.1,50.7l-39.1,50.7l-37.4,48.6l-37.5-48.6l-39.1-50.7l-39.1-50.7l-39-50.7l-39.1-50.7l-37.8-49.1
			c32.3-24.7,68-43.9,106.3-57.2C170.8,73.1,212.9,66,255.9,66 M255.9,64c-88.3,0-169.6,29.8-234.4,79.9l39.1,50.7l39.1,50.7
			l39.1,50.7l39.1,50.7l39.1,50.7l38.9,50.6l39.1-50.7l39.1-50.7l39.1-50.7l39.1-50.7l39.1-50.7l39.1-50.7
			C425.5,93.8,344.2,64,255.9,64L255.9,64z"/>
	</g>
	<g>
		<path fill="#FFFFFF" d="M256,127.6c0.7,0,1.4,0.2,2,0.4c10.9,0.1,21.7,0.7,32.3,1.8c-8.9-8.6-21-14.1-34.4-14.1
			c-13.4,0-25.5,5.4-34.4,14.1c10.6-1.1,21.4-1.7,32.3-1.8C254.6,127.8,255.3,127.6,256,127.6z"/>
		<path fill="#FFFFFF" d="M259.2,128.2c18.9,1.7,34,17.1,34,36.5v30c4,0.6,8,1.3,11.9,2v-32c0-13.4-5.5-25.6-14.2-34.5
			c0,0-0.1,0-0.1,0c-0.1-0.1-0.3-0.3-0.4-0.4c-10.6-1.1-21.4-1.7-32.3-1.8C258.4,128.1,258.8,128.2,259.2,128.2z"/>
		<path fill="#FFFFFF" d="M221.1,130.2c-8.7,8.9-14.2,21-14.2,34.5v32c3.9-0.8,7.9-1.4,11.9-2v-30c0-19.3,15.1-34.8,34-36.5
			c0.4,0,0.8-0.1,1.2-0.2c-10.9,0.1-21.7,0.7-32.3,1.8c-0.1,0.1-0.3,0.3-0.4,0.4C221.2,130.2,221.1,130.2,221.1,130.2z"/>
		<path fill="#FFFFFF" d="M293.2,194.9v35.3c-10.5-7.5-23.3-11.9-37.2-11.9c-13.9,0-26.7,4.4-37.2,11.9v-35.3v-0.2
			c-4,0.6-8,1.3-11.9,2v0.2v44.2c-6,7.2-10.3,15.7-12.8,25.1c19.4-6.6,40.2-10.2,61.9-10.2c21.6,0,42.5,3.6,61.9,10.2
			c-2.4-9.4-6.7-17.9-12.8-25.1v-44.2v-0.2c-3.9-0.8-7.9-1.4-11.9-2V194.9z"/>
		<path fill="#FFFFFF" d="M194.1,266.2c0,0,0,0.1,0,0.1c-1.3,5.2-2.3,10.6-2.3,16.2c0,17.8,7.4,34,19.2,45.7c14-5.3,29.2-8.2,45-8.2
			c15.8,0,31,2.9,45,8.2c11.8-11.6,19.2-27.7,19.2-45.7c0-5.6-0.9-11-2.3-16.2c0,0,0-0.1,0-0.1c-19.4-6.6-40.2-10.2-61.9-10.2
			C234.4,256,213.5,259.6,194.1,266.2z M268.6,269.6c0,4.9-2.8,9.1-6.8,11.2v21.3c0,3.2-2.6,5.8-5.8,5.8c-3.2,0-5.8-2.6-5.8-5.8
			v-21.3c-4-2.1-6.8-6.3-6.8-11.2c0-7,5.6-12.6,12.6-12.6S268.6,262.6,268.6,269.6z"/>
	</g>
</g>
</svg>
