<?xml version="1.0" encoding="utf-8"?>
<!-- Generator: Adobe Illustrator 18.0.0, SVG Export Plug-In . SVG Version: 6.00 Build 0)  -->
<!DOCTYPE svg PUBLIC "-//W3C//DTD SVG 1.1//EN" "http://www.w3.org/Graphics/SVG/1.1/DTD/svg11.dtd">
<svg version="1.1" id="Layer_1" xmlns="http://www.w3.org/2000/svg" xmlns:xlink="http://www.w3.org/1999/xlink" x="0px" y="0px"
	 viewBox="0 0 512 512" enable-background="new 0 0 512 512" xml:space="preserve">
<path fill="#888888" d="M256,24c49.1,0,96.2,15.4,136.2,44.5c19.6,14.3,36.8,31.4,51.1,51c14.5,19.8,25.7,41.6,33.2,64.9
	c7.6,23.3,11.4,47.4,11.4,71.7c0,24.2-3.8,48.4-11.4,71.7c-7.5,23.2-18.7,45.1-33.2,64.9c-14.3,19.5-31.5,36.7-51.1,51
	c-40,29.1-87.1,44.5-136.2,44.5s-96.2-15.4-136.2-44.5c-19.6-14.3-36.8-31.4-51.1-51c-14.5-19.8-25.7-41.6-33.2-64.9
	C27.8,304.4,24,280.2,24,256c0-24.2,3.8-48.4,11.4-71.7c7.5-23.2,18.7-45.1,33.2-64.9c14.3-19.5,31.5-36.7,51.1-51
	C159.8,39.4,206.9,24,256,24 M256,430.4c36.9,0,72.3-11.6,102.4-33.5c14.7-10.7,27.7-23.6,38.4-38.3c10.9-14.9,19.3-31.3,25-48.7
	c5.7-17.5,8.6-35.7,8.6-53.9c0-18.2-2.9-36.3-8.6-53.9c-5.7-17.4-14.1-33.8-25-48.7c-10.7-14.7-23.7-27.6-38.4-38.3
	C328.3,93.2,292.9,81.6,256,81.6s-72.3,11.6-102.4,33.5c-14.7,10.7-27.7,23.6-38.4,38.3c-10.9,14.9-19.3,31.3-25,48.7
	c-5.7,17.5-8.6,35.7-8.6,53.9c0,18.2,2.9,36.3,8.6,53.9c5.7,17.4,14.1,33.8,25,48.7c10.7,14.7,23.7,27.6,38.4,38.3
	C183.7,418.8,219.1,430.4,256,430.4 M256,22c-51.4,0-98.8,16.8-137.4,44.9c-39.5,28.7-69.7,69.4-85.1,116.8
	C26.1,206.5,22,230.8,22,256s4.1,49.5,11.5,72.3c15.4,47.4,45.6,88.1,85.1,116.8c38.6,28.1,86,44.9,137.4,44.9s98.8-16.8,137.4-44.9
	c39.5-28.7,69.7-69.4,85.1-116.8c7.4-22.8,11.5-47,11.5-72.3s-4.1-49.5-11.5-72.3c-15.4-47.4-45.6-88.1-85.1-116.8
	C354.8,38.8,307.4,22,256,22L256,22z M256,428.4c-37.8,0-72.7-12.4-101.2-33.1c-29.1-21.2-51.3-51.1-62.7-86
	c-5.5-16.8-8.5-34.7-8.5-53.2s3-36.5,8.5-53.2c11.4-34.9,33.6-64.8,62.7-86C183.3,96,218.2,83.6,256,83.6s72.7,12.4,101.2,33.1
	c29.1,21.2,51.3,51.1,62.7,86c5.5,16.8,8.5,34.7,8.5,53.2s-3,36.5-8.5,53.2c-11.4,34.9-33.6,64.8-62.7,86
	C328.7,416,293.8,428.4,256,428.4L256,428.4z"/>
<g>
	<circle opacity="0.5" fill="#32C5F4" cx="166.9" cy="256" r="35.6"/>
	<circle opacity="0.75" fill="#32C5F4" cx="256" cy="256" r="35.6"/>
	<circle fill="#32C5F4" cx="345.1" cy="256" r="35.6"/>
</g>
</svg>
