<?xml version="1.0" encoding="utf-8"?>
<!-- Generator: Adobe Illustrator 18.0.0, SVG Export Plug-In . SVG Version: 6.00 Build 0)  -->
<!DOCTYPE svg PUBLIC "-//W3C//DTD SVG 1.1//EN" "http://www.w3.org/Graphics/SVG/1.1/DTD/svg11.dtd">
<svg version="1.1" id="Layer_1" xmlns="http://www.w3.org/2000/svg" xmlns:xlink="http://www.w3.org/1999/xlink" x="0px" y="0px"
	 viewBox="0 0 512 512" enable-background="new 0 0 512 512" xml:space="preserve">
<g>
	<path fill="#888888" d="M256,22C126.8,22,22,126.8,22,256s104.8,234,234,234s234-104.8,234-234S385.2,22,256,22z M135.2,384
		c-41.9-41.9-43.5-108.8-3.6-152.5c1.6-1.8,1.6-4.5-0.1-6.2l-22.7-22.7c-2.1-2.1-2.1-5.7,0-7.8c0.7-0.7,1.5-1.2,2.4-1.4l136.2-36.5
		c2-0.6,4,0,5.4,1.4c1.4,1.4,1.9,3.5,1.4,5.4l-36.5,136.2c-0.3,0.8-0.7,1.7-1.4,2.4c-2.1,2.1-5.7,2.1-7.8,0l-21.9-21.9
		c-1.8-1.8-4.6-1.8-6.4,0c-0.1,0.1-0.1,0.1-0.2,0.2c-25.7,29.8-24,74.9,3.9,102.7c29.5,29.5,77.4,29.5,106.9,0l0.7,0.7
		C248.4,427.1,178.3,427.1,135.2,384z M380.5,286.7l22.7,22.7c2.1,2.1,2.1,5.7,0,7.8c-0.7,0.7-1.5,1.2-2.4,1.4l-136.2,36.5
		c-2,0.6-4,0-5.4-1.4c-1.4-1.4-1.9-3.5-1.4-5.4l36.5-136.2c0.3-0.8,0.7-1.7,1.4-2.4c2.1-2.1,5.7-2.1,7.8,0l21.9,21.9
		c1.8,1.8,4.6,1.8,6.4,0c0.1-0.1,0.1-0.1,0.2-0.2c25.7-29.8,24-74.9-3.9-102.7c-29.5-29.5-77.4-29.5-106.9,0l-0.7-0.7
		c43.1-43.1,113.2-43.1,156.3,0c41.9,41.9,43.5,108.8,3.6,152.5C378.7,282.3,378.8,285.1,380.5,286.7z"/>
	<g display="none">
		<path display="inline" fill="#888888" d="M183.9,383.3c-27.9-27.9-29.6-73-3.9-102.7c0.1-0.1,0.1-0.1,0.2-0.2
			c1.8-1.8,4.6-1.8,6.4,0l21.9,21.9c2.1,2.1,5.7,2.1,7.8,0c0.7-0.7,1.1-1.6,1.4-2.4l36.5-136.2c0.5-1.9,0-4-1.4-5.4
			c-1.4-1.4-3.4-2-5.4-1.4l-136.2,36.5c-0.9,0.2-1.7,0.7-2.4,1.4c-2.1,2.1-2.1,5.7,0,7.8l22.7,22.7c1.7,1.7,1.8,4.5,0.1,6.2
			c-39.9,43.7-38.3,110.7,3.6,152.5c43.1,43.1,113.2,43.1,156.3,0l-0.7-0.7C261.3,412.8,213.4,412.8,183.9,383.3z"/>
		<path display="inline" fill="#888888" d="M376.8,128c-43.1-43.1-113.2-43.1-156.3,0l0.7,0.7c29.5-29.5,77.4-29.5,106.9,0
			c27.9,27.9,29.6,73,3.9,102.7c-0.1,0.1-0.1,0.1-0.2,0.2c-1.8,1.8-4.6,1.8-6.4,0l-21.9-21.9c-2.1-2.1-5.7-2.1-7.8,0
			c-0.7,0.7-1.1,1.6-1.4,2.4l-36.5,136.2c-0.5,1.9,0,4,1.4,5.4c1.4,1.4,3.4,2,5.4,1.4l136.2-36.5c0.9-0.2,1.7-0.7,2.4-1.4
			c2.1-2.1,2.1-5.7,0-7.8l-22.7-22.7c-1.7-1.7-1.8-4.5-0.1-6.2C420.3,236.8,418.6,169.9,376.8,128z"/>
	</g>
</g>
</svg>
