<?xml version="1.0" encoding="utf-8"?>
<!-- Generator: Adobe Illustrator 18.0.0, SVG Export Plug-In . SVG Version: 6.00 Build 0)  -->
<!DOCTYPE svg PUBLIC "-//W3C//DTD SVG 1.1//EN" "http://www.w3.org/Graphics/SVG/1.1/DTD/svg11.dtd">
<svg version="1.1" id="Layer_1" xmlns="http://www.w3.org/2000/svg" xmlns:xlink="http://www.w3.org/1999/xlink" x="0px" y="0px"
	 viewBox="0 0 512 512" enable-background="new 0 0 512 512" xml:space="preserve">
<g>
	<circle fill="#888888" cx="166.9" cy="256" r="35.6"/>
	<circle fill="#888888" cx="256" cy="256" r="35.6"/>
	<circle fill="#888888" cx="345.1" cy="256" r="35.6"/>
</g>
<path fill="#888888" d="M478.5,183.7c-15.4-47.4-45.6-88.1-85.1-116.8C354.8,38.8,307.4,22,256,22s-98.8,16.8-137.4,44.9
	c-39.5,28.7-69.7,69.4-85.1,116.8C26.1,206.5,22,230.8,22,256s4.1,49.5,11.5,72.3c15.4,47.4,45.6,88.1,85.1,116.8
	c38.6,28.1,86,44.9,137.4,44.9s98.8-16.8,137.4-44.9c39.5-28.7,69.7-69.4,85.1-116.8c7.4-22.8,11.5-47,11.5-72.3
	S485.9,206.5,478.5,183.7z M357.2,395.3c-28.5,20.7-63.4,33.1-101.2,33.1s-72.7-12.4-101.2-33.1c-29.1-21.2-51.3-51.1-62.7-86
	c-5.5-16.8-8.5-34.7-8.5-53.2s3-36.5,8.5-53.2c11.4-34.9,33.6-64.8,62.7-86C183.3,96,218.2,83.6,256,83.6s72.7,12.4,101.2,33.1
	c29.1,21.2,51.3,51.1,62.7,86c5.5,16.8,8.5,34.7,8.5,53.2s-3,36.5-8.5,53.2C408.5,344.1,386.2,374.1,357.2,395.3z"/>
</svg>
