<?xml version="1.0" encoding="utf-8"?>
<!-- Generator: Adobe Illustrator 18.0.0, SVG Export Plug-In . SVG Version: 6.00 Build 0)  -->
<!DOCTYPE svg PUBLIC "-//W3C//DTD SVG 1.1//EN" "http://www.w3.org/Graphics/SVG/1.1/DTD/svg11.dtd">
<svg version="1.1" id="Layer_1" xmlns="http://www.w3.org/2000/svg" xmlns:xlink="http://www.w3.org/1999/xlink" x="0px" y="0px"
	 viewBox="0 0 512 512" enable-background="new 0 0 512 512" xml:space="preserve">
<path fill="#888888" d="M256,64c-88.3,0-169.6,29.8-234.4,79.9l39.1,50.7l39.1,50.7l39.1,50.7l39.1,50.7l39.1,50.7L256,448
	l39.1-50.7l39.1-50.7l39.1-50.7l39.1-50.7l39.1-50.7l39.1-50.7C425.6,93.8,344.3,64,256,64z M291.6,345.1c0,19.7-16,35.6-35.6,35.6
	s-35.6-16-35.6-35.6c0-8.3,2.8-15.9,7.6-22c6.5-8.3,16.6-13.6,28-13.6s21.5,5.3,28,13.6C288.8,329.1,291.6,336.8,291.6,345.1z
	 M291.6,258.6h-0.5c0,0.2,0,0.4-0.1,0.6c-1.7,18.1-16.5,32.4-35,32.4s-33.4-14.3-35-32.4c0-0.2,0-0.4-0.1-0.6h-0.5v-64.1v-27.6h0
	c0-19.7,16-35.6,35.6-35.6s35.6,16,35.6,35.6h0v27.6V258.6z"/>
</svg>
