<?xml version="1.0" encoding="utf-8"?>
<!-- Generator: Adobe Illustrator 18.0.0, SVG Export Plug-In . SVG Version: 6.00 Build 0)  -->
<!DOCTYPE svg PUBLIC "-//W3C//DTD SVG 1.1//EN" "http://www.w3.org/Graphics/SVG/1.1/DTD/svg11.dtd">
<svg version="1.1" id="Layer_1" xmlns="http://www.w3.org/2000/svg" xmlns:xlink="http://www.w3.org/1999/xlink" x="0px" y="0px"
	 viewBox="0 0 512 512" enable-background="new 0 0 512 512" xml:space="preserve">
<path fill="#888888" d="M256,64c-88.3,0-169.6,29.8-234.4,79.9l39.1,50.7l39.1,50.7l39.1,50.7l39.1,50.7l39.1,50.7L256,448
	l39.1-50.7l39.1-50.7l39.1-50.7l39.1-50.7l39.1-50.7l39.1-50.7C425.6,93.8,344.3,64,256,64z M291.5,259.3
	c-1.7,18.1-16.9,32.4-35.5,32.4s-33.8-14.2-35.5-32.4c-0.1-1.1-0.2-2.2-0.2-3.3c0-19.7,16-35.6,35.6-35.6s35.6,16,35.6,35.6
	C291.6,257.1,291.6,258.2,291.5,259.3z M166.9,291.6c-5.9,0-11.5-1.5-16.5-4c-11.4-5.9-19.2-17.9-19.2-31.6
	c0-19.7,16-35.6,35.6-35.6c19.7,0,35.6,16,35.6,35.6c0,2.7-0.3,5.3-0.9,7.8C198.1,279.7,183.9,291.6,166.9,291.6z M361.5,287.6
	c-4.9,2.6-10.5,4-16.5,4c-17,0-31.2-11.9-34.8-27.8c-0.6-2.5-0.9-5.1-0.9-7.8c0-19.7,16-35.6,35.6-35.6c19.7,0,35.6,16,35.6,35.6
	C380.7,269.7,372.9,281.7,361.5,287.6z"/>
</svg>
