<?xml version="1.0" encoding="utf-8"?>
<!-- Generator: Adobe Illustrator 18.0.0, SVG Export Plug-In . SVG Version: 6.00 Build 0)  -->
<!DOCTYPE svg PUBLIC "-//W3C//DTD SVG 1.1//EN" "http://www.w3.org/Graphics/SVG/1.1/DTD/svg11.dtd">
<svg version="1.1" id="Layer_1" xmlns="http://www.w3.org/2000/svg" xmlns:xlink="http://www.w3.org/1999/xlink" x="0px" y="0px"
	 viewBox="0 0 512 512" enable-background="new 0 0 512 512" xml:space="preserve">
<path fill="#888888" d="M490.5,143.8c-65-50-146.3-79.8-234.6-79.8S86.3,93.8,21.5,143.9l39.1,50.7l39.1,50.7l39.1,50.7l39.1,50.7
	l39,50.6c0,0,0,0,0,0l7.3,9.5l31.7,41.2l0.1-0.1l0,0.1l39.1-50.7l39.1-50.7c0,0,0,0-0.1,0l39.1-50.7l39.1-50.7h0l39.1-50.7l0,0v0
	L490.5,143.8z M256,128c-72.9,0-140.1,24.4-193.8,65.4l-0.1-0.1l-37.8-49.1c32.3-24.7,68-43.9,106.3-57.2
	c40.2-13.9,82.3-21,125.3-21s85.1,7.1,125.3,21c38.2,13.3,74,32.5,106.3,57.2l-37.8,49C395.9,152.3,328.9,128,256,128z"/>
</svg>
