<?xml version="1.0" encoding="UTF-8" standalone="no"?>
<svg
   xmlns:dc="http://purl.org/dc/elements/1.1/"
   xmlns:cc="http://creativecommons.org/ns#"
   xmlns:rdf="http://www.w3.org/1999/02/22-rdf-syntax-ns#"
   xmlns:svg="http://www.w3.org/2000/svg"
   xmlns="http://www.w3.org/2000/svg"
   xml:space="preserve"
   enable-background="new 0 0 512 512"
   viewBox="0 0 512 512"
   y="0px"
   x="0px"
   id="Layer_1"
   version="1.1"><metadata
     id="metadata11"><rdf:RDF><cc:Work
         rdf:about=""><dc:format>image/svg+xml</dc:format><dc:type
           rdf:resource="http://purl.org/dc/dcmitype/StillImage" /><dc:title></dc:title></cc:Work></rdf:RDF></metadata><defs
     id="defs9" /><g
     id="_x3C_Path_x3E__1_"><path
       id="path4"
       d="M435.8,491H76.2C45.8,491,21,466.2,21,435.8V76.2C21,45.8,45.8,21,76.2,21h359.6   c30.4,0,55.2,24.8,55.2,55.2v359.6C491,466.2,466.2,491,435.8,491z M76.2,23C46.9,23,23,46.9,23,76.2v359.6   c0,29.3,23.9,53.2,53.2,53.2h359.6c29.3,0,53.2-23.9,53.2-53.2V76.2c0-29.3-23.9-53.2-53.2-53.2H76.2z M341.2,429H170.8   c-9.4,0-17.1-7.7-17.1-17.1v-38.6c0-8.3-6.8-15.1-15.1-15.1h-38.6c-9.4,0-17.1-7.7-17.1-17.1V100.1c0-9.4,7.7-17.1,17.1-17.1h311.8   c9.4,0,17.1,7.7,17.1,17.1v241.1c0,9.4-7.7,17.1-17.1,17.1h-38.6c-8.3,0-15.1,6.8-15.1,15.1v38.6C358.3,421.3,350.6,429,341.2,429z    M100.1,85C91.8,85,85,91.8,85,100.1v241.1c0,8.3,6.8,15.1,15.1,15.1h38.6c9.4,0,17.1,7.7,17.1,17.1v38.6c0,8.3,6.8,15.1,15.1,15.1   h170.4c8.3,0,15.1-6.8,15.1-15.1v-38.6c0-9.4,7.7-17.1,17.1-17.1h38.6c8.3,0,15.1-6.8,15.1-15.1V100.1c0-8.3-6.8-15.1-15.1-15.1   H100.1z"
       fill="#888888" /></g><path
     d="  M252.2,152.1c34.1-1.9,64.4,24.3,66.3,58.5c0,29.1-7.9,40-33.1,59.1c-4,3-6.8,5.2-7.8,6.5c-1,1.3-0.6,0.7-0.6,0.6  c0.1,11-9.8,20.8-20.8,20.8s-20.9-9.8-20.8-20.8c0-10.4,4.7-19.6,9.7-26c5.1-6.4,10.2-10.7,14.9-14.3c4.2-3.3,9.6-8,14.3-13.6  c1.9-2.3,2.7-6.4,2.6-9.1v-0.6c-0.7-11.7-10.4-20.1-22.1-19.5c-11.7,0.7-20.1,9.1-19.5,20.8h-41.6C191.8,180.3,218,154,252.2,152.1  L252.2,152.1z M256,318.4c11.5,0,20.8,9.3,20.8,20.8c0,11.5-9.3,20.8-20.8,20.8c-11.5,0-20.8-9.3-20.8-20.8  C235.3,327.7,244.6,318.4,256,318.4z"
     fill="#888888"
     id="_x3C_Path_x3E__2_" /></svg>