<?xml version="1.0" encoding="utf-8"?>
<!-- Generator: Adobe Illustrator 18.0.0, SVG Export Plug-In . SVG Version: 6.00 Build 0)  -->
<!DOCTYPE svg PUBLIC "-//W3C//DTD SVG 1.1//EN" "http://www.w3.org/Graphics/SVG/1.1/DTD/svg11.dtd">
<svg version="1.1" id="Layer_1" xmlns="http://www.w3.org/2000/svg" xmlns:xlink="http://www.w3.org/1999/xlink" x="0px" y="0px"
	 viewBox="0 0 512 512" enable-background="new 0 0 512 512" xml:space="preserve">
<g>
	<path fill="#888888" d="M218.8,194.9v35.3c10.5-7.5,23.3-11.9,37.2-11.9c13.9,0,26.7,4.4,37.2,11.9v-35.3
		c-12.2-1.8-24.5-2.9-37.2-2.9S231,193.1,218.8,194.9z"/>
	<path fill="#888888" d="M256,257.1c-7,0-12.6,5.6-12.6,12.6c0,4.9,2.8,9.1,6.8,11.2v21.3c0,3.2,2.6,5.8,5.8,5.8s5.8-2.6,5.8-5.8
		v-21.3c4-2.1,6.8-6.3,6.8-11.2C268.6,262.7,263,257.1,256,257.1z"/>
	<path fill="#888888" d="M255.9,64c-88.3,0-169.6,29.8-234.4,79.9l39.1,50.7l39.1,50.7l39.1,50.7l39.1,50.7l39,50.6c0,0,0,0,0,0
		l7.3,9.5l31.7,41.2l0-0.1l0,0.1l39.1-50.7l39.1-50.7c0,0,0,0-0.1,0l39.1-50.7l39.1-50.7l39.1-50.7l39.1-50.7
		C425.5,93.8,344.2,64,255.9,64z M353.8,282.8c2.3,1.3,4.5,2.7,6.7,4.1C358.2,285.5,356,284.1,353.8,282.8z M449.7,193.3L410.6,244
		c-30.5-23.1-66.5-39.5-105.5-47.1v44.2c6.1,7.2,10.4,15.8,12.8,25.2c1.4,5.2,2.3,10.6,2.3,16.2c0,18-7.4,34.2-19.3,45.8
		c0,0,0,0,0.1,0c-11.7,11.4-27.5,18.4-45,18.4c-17.5,0-33.3-7-44.9-18.4c0,0,0,0-0.1,0c0,0,0,0,0.1,0
		c-11.9-11.7-19.3-27.9-19.3-45.8c0-5.6,0.9-11,2.3-16.2c-19.5,6.7-37.7,16.3-53.8,28.5l0,0c16.1-12.2,34.3-21.9,53.8-28.5
		c2.5-9.4,6.8-18,12.8-25.2v-44.2c-39.1,7.6-75.1,24-105.6,47.2l-0.1-0.1l-39.1-50.7l-37.8-49.1c32.3-24.7,68-43.9,106.3-57.2
		c40.2-13.9,82.3-21,125.3-21s85.1,7.1,125.3,21c38.2,13.3,74,32.5,106.3,57.2L449.7,193.3z"/>
	<path fill="#888888" d="M290.8,130.2c-0.1-0.1-0.3-0.3-0.4-0.4c0,0-0.1,0-0.1,0c-8.9-8.6-21-14.1-34.4-14.1
		c-13.4,0-25.5,5.4-34.4,14.1c10.6-1.1,21.4-1.7,32.3-1.8c0.8-0.2,1.5-0.4,2.2-0.4s1.4,0.2,2,0.4c0,0,0.1,0,0.1,0
		c0.3,0.1,0.7,0.2,1.1,0.2c18.9,1.7,34,17.1,34,36.5v30c4,0.6,8,1.3,11.9,2v-32c0-13.4-5.5-25.6-14.2-34.5H290.8z"/>
	<path fill="#888888" d="M218.8,164.7c0-19.3,15.1-34.8,34-36.5c0.4,0,0.8-0.1,1.2-0.2c-10.9,0.1-21.7,0.7-32.3,1.8
		c-0.1,0.1-0.3,0.3-0.4,0.4c-0.1,0-0.2,0-0.2,0c-8.7,8.9-14.2,21-14.2,34.5v32c3.9-0.8,7.9-1.4,11.9-2V164.7z"/>
</g>
</svg>
