<?xml version="1.0" encoding="utf-8"?>
<!-- Generator: Adobe Illustrator 18.0.0, SVG Export Plug-In . SVG Version: 6.00 Build 0)  -->
<!DOCTYPE svg PUBLIC "-//W3C//DTD SVG 1.1//EN" "http://www.w3.org/Graphics/SVG/1.1/DTD/svg11.dtd">
<svg version="1.1" id="Layer_1" xmlns="http://www.w3.org/2000/svg" xmlns:xlink="http://www.w3.org/1999/xlink" x="0px" y="0px"
	 viewBox="0 0 512 512" enable-background="new 0 0 512 512" xml:space="preserve">
<path fill="#888888" d="M152.8,183.9v92.9c-12.8,15.1-21.8,33.3-27,53c-2.9,10.9-4.9,22.2-4.9,34.1c0,37.8,15.6,71.9,40.7,96.4
	C186,484.2,219.2,499,256,499c36.8,0,70-14.8,94.4-38.6c25-24.5,40.7-58.6,40.7-96.4c0-11.8-2-23.1-4.9-34.1
	c-5.2-19.7-14.2-37.9-27-53v-92.9v-67.7c0-28.4-11.5-54-30-72.7C310.5,24.7,284.6,13,256,13s-54.5,11.7-73.2,30.5
	c-18.5,18.7-30,44.3-30,72.7V183.9z M268.2,360.4v44.8c0,6.7-5.5,12.2-12.2,12.2c-6.7,0-12.2-5.5-12.2-12.2v-44.8
	c-8.5-4.4-14.3-13.3-14.3-23.5c0-14.6,11.9-26.5,26.5-26.5s26.5,11.9,26.5,26.5C282.5,347.2,276.7,356,268.2,360.4z M177.8,179.7
	v-63.5c0-40.7,31.7-73.3,71.5-76.8c2.3-0.2,4.3-1.4,6.7-1.4s4.4,1.1,6.7,1.4c39.8,3.6,71.5,36.1,71.5,76.8v63.5v74.2
	c-22.1-15.7-49-25-78.2-25s-56.1,9.3-78.2,25V179.7z"/>
</svg>
