<?xml version="1.0" encoding="utf-8"?>
<!-- Generator: Adobe Illustrator 18.0.0, SVG Export Plug-In . SVG Version: 6.00 Build 0)  -->
<!DOCTYPE svg PUBLIC "-//W3C//DTD SVG 1.1//EN" "http://www.w3.org/Graphics/SVG/1.1/DTD/svg11.dtd">
<svg version="1.1" id="Layer_1" xmlns="http://www.w3.org/2000/svg" xmlns:xlink="http://www.w3.org/1999/xlink" x="0px" y="0px"
	 viewBox="0 0 512 512" enable-background="new 0 0 512 512" xml:space="preserve">
<path fill="#888888" d="M290.2,435.3L290.2,435.3c0-7.6,5.1-14.3,12.4-16.4c27.2-7.9,52.1-22.8,72.4-43.8
	c30.3-31.2,47.1-73.3,46.7-116.7c-0.3-43.8-17.6-84.9-48.6-115.9c-31.3-31.3-73-48.6-117.2-48.6c-44.3,0-85.9,17.2-117.2,48.6
	c-31,31-48.2,72.1-48.6,115.9c-0.3,43.5,16.5,85.5,46.7,116.7c20.3,21,45.2,35.9,72.4,43.8c7.3,2.1,12.4,8.8,12.4,16.4v0
	c0,11.3-10.9,19.6-21.8,16.4C116.7,427.4,55.8,350.4,56,259.2c0.2-110.8,89.6-199.8,200.4-199.6c110.3,0.2,199.6,89.7,199.6,200
	c0,91-60.8,167.8-143.9,192C301.2,454.8,290.2,446.7,290.2,435.3z"/>
<g>
	<circle fill="#888888" cx="256" cy="173.1" r="17.1"/>
	<path fill="#888888" d="M256,210.7L256,210.7c-9.4,0-17.1,7.7-17.1,17.1v111.1c0,9.4,7.7,17.1,17.1,17.1h0
		c9.4,0,17.1-7.7,17.1-17.1V227.8C273.1,218.4,265.4,210.7,256,210.7z"/>
</g>
</svg>
