<?xml version="1.0" encoding="UTF-8" standalone="no"?>
<svg
   xmlns:dc="http://purl.org/dc/elements/1.1/"
   xmlns:cc="http://creativecommons.org/ns#"
   xmlns:rdf="http://www.w3.org/1999/02/22-rdf-syntax-ns#"
   xmlns:svg="http://www.w3.org/2000/svg"
   xmlns="http://www.w3.org/2000/svg"
   viewBox="0 0 640 640"
   height="640"
   width="640"
   xml:space="preserve"
   version="1.1"
   id="svg2"><metadata
     id="metadata8"><rdf:RDF><cc:Work
         rdf:about=""><dc:format>image/svg+xml</dc:format><dc:type
           rdf:resource="http://purl.org/dc/dcmitype/StillImage" /></cc:Work></rdf:RDF></metadata><defs
     id="defs6"><clipPath
       id="clipPath16"
       clipPathUnits="userSpaceOnUse"><path
         id="path18"
         d="M 0,512 512,512 512,0 0,0 0,512 Z" /></clipPath><clipPath
       id="clipPath24"
       clipPathUnits="userSpaceOnUse"><path
         id="path26"
         d="m 18.325,493.744 475.4,0 0,-475.4877 -475.4,0 0,475.4877 z" /></clipPath><clipPath
       id="clipPath28"
       clipPathUnits="userSpaceOnUse"><path
         id="path30"
         d="M 448.99,63.029 C 389.293,3.332 122.807,3.332 63.11,63.029 3.413,122.726 3.413,389.312 63.01,449.009 c 59.597,59.696 326.283,59.596 385.98,0 59.697,-59.597 59.597,-326.283 0,-385.98" /></clipPath><radialGradient
       id="radialGradient36"
       spreadMethod="pad"
       gradientTransform="matrix(237.72188,0,0,237.72188,256.02499,256)"
       gradientUnits="userSpaceOnUse"
       r="1"
       cy="0"
       cx="0"
       fy="0"
       fx="0"><stop
         id="stop38"
         offset="0"
         style="stop-opacity:1;stop-color:#ffffff" /><stop
         id="stop40"
         offset="0.8587"
         style="stop-opacity:0.14129854;stop-color:#ffffff" /><stop
         id="stop42"
         offset="1"
         style="stop-opacity:0;stop-color:#ffffff" /></radialGradient><mask
       id="mask44"
       height="1"
       width="1"
       y="0"
       x="0"
       maskUnits="userSpaceOnUse"><g
         id="g46"><g
           id="g48"><g
             id="g50"><g
               id="g52"><path
                 id="path54"
                 style="fill:url(#radialGradient36);stroke:none"
                 d="m -32768,32767 65535,0 0,-65535 -65535,0 0,65535 z" /></g></g></g></g></mask><radialGradient
       id="radialGradient56"
       spreadMethod="pad"
       gradientTransform="matrix(237.72188,0,0,237.72188,256.02499,256)"
       gradientUnits="userSpaceOnUse"
       r="1"
       cy="0"
       cx="0"
       fy="0"
       fx="0"><stop
         id="stop58"
         offset="0"
         style="stop-opacity:1;stop-color:#010101" /><stop
         id="stop60"
         offset="0.8587"
         style="stop-opacity:1;stop-color:#010101" /><stop
         id="stop62"
         offset="1"
         style="stop-opacity:1;stop-color:#010101" /></radialGradient><clipPath
       id="clipPath86"
       clipPathUnits="userSpaceOnUse"><path
         id="path88"
         d="m 18.325,493.744 475.4,0 0,-475.4877 -475.4,0 0,475.4877 z" /></clipPath><clipPath
       id="clipPath90"
       clipPathUnits="userSpaceOnUse"><path
         id="path92"
         d="M 448.99,63.029 C 389.293,3.332 122.807,3.332 63.11,63.029 3.413,122.726 3.413,389.312 63.01,449.009 c 59.597,59.696 326.283,59.596 385.98,0 59.697,-59.597 59.597,-326.283 0,-385.98" /></clipPath><radialGradient
       id="radialGradient98"
       spreadMethod="pad"
       gradientTransform="matrix(188.25467,188.36119,-130.35883,130.27895,256.02499,256.04376)"
       gradientUnits="userSpaceOnUse"
       r="1"
       cy="0"
       cx="0"
       fy="0"
       fx="0"><stop
         id="stop100"
         offset="0"
         style="stop-opacity:1;stop-color:#ffffff" /><stop
         id="stop102"
         offset="0.8587"
         style="stop-opacity:0.14129854;stop-color:#ffffff" /><stop
         id="stop104"
         offset="1"
         style="stop-opacity:0;stop-color:#ffffff" /></radialGradient><mask
       id="mask106"
       height="1"
       width="1"
       y="0"
       x="0"
       maskUnits="userSpaceOnUse"><g
         id="g108"><g
           id="g110"><g
             id="g112"><g
               id="g114"><path
                 id="path116"
                 style="fill:url(#radialGradient98);stroke:none"
                 d="m -32768,32767 65535,0 0,-65535 -65535,0 0,65535 z" /></g></g></g></g></mask><radialGradient
       id="radialGradient118"
       spreadMethod="pad"
       gradientTransform="matrix(188.25467,188.36119,-130.35883,130.27895,256.02499,256.04376)"
       gradientUnits="userSpaceOnUse"
       r="1"
       cy="0"
       cx="0"
       fy="0"
       fx="0"><stop
         id="stop120"
         offset="0"
         style="stop-opacity:1;stop-color:#010101" /><stop
         id="stop122"
         offset="0.8587"
         style="stop-opacity:1;stop-color:#010101" /><stop
         id="stop124"
         offset="1"
         style="stop-opacity:1;stop-color:#010101" /></radialGradient><clipPath
       id="clipPath148"
       clipPathUnits="userSpaceOnUse"><path
         id="path150"
         d="m 18.275,493.694 475.387,0 0,-475.4377 -475.387,0 0,475.4377 z" /></clipPath><clipPath
       id="clipPath152"
       clipPathUnits="userSpaceOnUse"><path
         id="path154"
         d="m 63.01,63.029 c 59.697,-59.697 326.183,-59.697 385.88,0 59.697,59.697 59.697,326.183 0,385.88 -59.697,59.696 -326.183,59.696 -385.88,0.1 -59.697,-59.597 -59.597,-326.283 0,-385.98" /></clipPath><radialGradient
       id="radialGradient160"
       spreadMethod="pad"
       gradientTransform="matrix(-188.28767,188.39421,130.38168,130.30179,255.92499,255.99377)"
       gradientUnits="userSpaceOnUse"
       r="1"
       cy="0"
       cx="0"
       fy="0"
       fx="0"><stop
         id="stop162"
         offset="0"
         style="stop-opacity:1;stop-color:#ffffff" /><stop
         id="stop164"
         offset="0.8587"
         style="stop-opacity:0.14129854;stop-color:#ffffff" /><stop
         id="stop166"
         offset="1"
         style="stop-opacity:0;stop-color:#ffffff" /></radialGradient><mask
       id="mask168"
       height="1"
       width="1"
       y="0"
       x="0"
       maskUnits="userSpaceOnUse"><g
         id="g170"><g
           id="g172"><g
             id="g174"><g
               id="g176"><path
                 id="path178"
                 style="fill:url(#radialGradient160);stroke:none"
                 d="m -32768,32767 65535,0 0,-65535 -65535,0 0,65535 z" /></g></g></g></g></mask><radialGradient
       id="radialGradient180"
       spreadMethod="pad"
       gradientTransform="matrix(-188.28767,188.39421,130.38168,130.30179,255.92499,255.99377)"
       gradientUnits="userSpaceOnUse"
       r="1"
       cy="0"
       cx="0"
       fy="0"
       fx="0"><stop
         id="stop182"
         offset="0"
         style="stop-opacity:1;stop-color:#010101" /><stop
         id="stop184"
         offset="0.8587"
         style="stop-opacity:1;stop-color:#010101" /><stop
         id="stop186"
         offset="1"
         style="stop-opacity:1;stop-color:#010101" /></radialGradient><linearGradient
       id="linearGradient218"
       spreadMethod="pad"
       gradientTransform="matrix(460,0,0,-460,26,256)"
       gradientUnits="userSpaceOnUse"
       y2="0"
       x2="1"
       y1="0"
       x1="0"><stop
         id="stop220"
         offset="0"
         style="stop-opacity:1;stop-color:#1f1f21" /><stop
         id="stop222"
         offset="1"
         style="stop-opacity:1;stop-color:#1f1f21" /></linearGradient><clipPath
       id="clipPath230"
       clipPathUnits="userSpaceOnUse"><path
         id="path232"
         d="M 0,512 512,512 512,0 0,0 0,512 Z" /></clipPath><linearGradient
       id="linearGradient250"
       spreadMethod="pad"
       gradientTransform="matrix(0,300.02472,300.02472,0,256,93.164001)"
       gradientUnits="userSpaceOnUse"
       y2="0"
       x2="1"
       y1="0"
       x1="0"><stop
         id="stop252"
         offset="0"
         style="stop-opacity:1;stop-color:#ffffff" /><stop
         id="stop254"
         offset="1"
         style="stop-opacity:1;stop-color:#231f20" /></linearGradient><clipPath
       id="clipPath262"
       clipPathUnits="userSpaceOnUse"><path
         id="path264"
         d="M 0,512 512,512 512,0 0,0 0,512 Z" /></clipPath><linearGradient
       id="linearGradient286"
       spreadMethod="pad"
       gradientTransform="matrix(41.483841,0,0,-41.483841,204.97493,317.79773)"
       gradientUnits="userSpaceOnUse"
       y2="0"
       x2="1"
       y1="0"
       x1="0"><stop
         id="stop288"
         offset="0"
         style="stop-opacity:1;stop-color:#1f1f21" /><stop
         id="stop290"
         offset="1"
         style="stop-opacity:1;stop-color:#1f1f21" /></linearGradient><linearGradient
       id="linearGradient306"
       spreadMethod="pad"
       gradientTransform="matrix(30.513281,0,0,-30.513281,273.65524,316.46973)"
       gradientUnits="userSpaceOnUse"
       y2="0"
       x2="1"
       y1="0"
       x1="0"><stop
         id="stop308"
         offset="0"
         style="stop-opacity:1;stop-color:#1f1f21" /><stop
         id="stop310"
         offset="1"
         style="stop-opacity:1;stop-color:#1f1f21" /></linearGradient><linearGradient
       id="linearGradient326"
       spreadMethod="pad"
       gradientTransform="matrix(38.594749,0,0,-38.594749,268.43033,242.97292)"
       gradientUnits="userSpaceOnUse"
       y2="0"
       x2="1"
       y1="0"
       x1="0"><stop
         id="stop328"
         offset="0"
         style="stop-opacity:1;stop-color:#1f1f21" /><stop
         id="stop330"
         offset="1"
         style="stop-opacity:1;stop-color:#1f1f21" /></linearGradient></defs><g
     transform="matrix(1.25,0,0,-1.25,0,640)"
     id="g10"><g
       id="g12"><g
         clip-path="url(#clipPath16)"
         id="g14"><g
           id="g20"><g
             id="g22" /><g
             id="g64"><g
               style="opacity:0.39999402"
               id="g66"
               clip-path="url(#clipPath24)"><g
                 id="g68"><g
                   id="g70"
                   clip-path="url(#clipPath28)"><g
                     id="g72"><g
                       id="g74" /><g
                       id="g76"
                       mask="url(#mask44)"><g
                         id="g78"><path
                           id="path80"
                           style="fill:url(#radialGradient56);stroke:none"
                           d="M 448.99,63.029 C 389.293,3.332 122.807,3.332 63.11,63.029 3.413,122.726 3.413,389.312 63.01,449.009 c 59.597,59.696 326.283,59.596 385.98,0 59.697,-59.597 59.597,-326.283 0,-385.98" /></g></g></g></g></g></g></g></g><g
           id="g82"><g
             id="g84" /><g
             id="g126"><g
               style="opacity:0.39999402"
               id="g128"
               clip-path="url(#clipPath86)"><g
                 id="g130"><g
                   id="g132"
                   clip-path="url(#clipPath90)"><g
                     id="g134"><g
                       id="g136" /><g
                       id="g138"
                       mask="url(#mask106)"><g
                         id="g140"><path
                           id="path142"
                           style="fill:url(#radialGradient118);stroke:none"
                           d="M 448.99,63.029 C 389.293,3.332 122.807,3.332 63.11,63.029 3.413,122.726 3.413,389.312 63.01,449.009 c 59.597,59.696 326.283,59.596 385.98,0 59.697,-59.597 59.597,-326.283 0,-385.98" /></g></g></g></g></g></g></g></g><g
           id="g144"><g
             id="g146" /><g
             id="g188"><g
               style="opacity:0.39999402"
               id="g190"
               clip-path="url(#clipPath148)"><g
                 id="g192"><g
                   id="g194"
                   clip-path="url(#clipPath152)"><g
                     id="g196"><g
                       id="g198" /><g
                       id="g200"
                       mask="url(#mask168)"><g
                         id="g202"><path
                           id="path204"
                           style="fill:url(#radialGradient180);stroke:none"
                           d="m 63.01,63.029 c 59.697,-59.697 326.183,-59.697 385.88,0 59.697,59.697 59.697,326.183 0,385.88 -59.697,59.696 -326.183,59.696 -385.88,0.1 -59.697,-59.597 -59.597,-326.283 0,-385.98" /></g></g></g></g></g></g></g></g></g></g><g
       id="g206"><g
         id="g208"><g
           id="g214"><g
             id="g216"><path
               id="path224"
               style="fill:url(#linearGradient218);stroke:none"
               d="M 78.721,433.279 C 8.427,362.985 8.427,149.015 78.721,78.721 l 0,0 c 70.294,-70.294 284.264,-70.294 354.558,0 l 0,0 c 70.294,70.294 70.294,284.264 0,354.558 l 0,0 C 398.132,468.426 327.066,486 256,486 l 0,0 C 184.934,486 113.868,468.426 78.721,433.279" /></g></g></g></g><g
       id="g226"><g
         clip-path="url(#clipPath230)"
         id="g228"><g
           transform="translate(255.9949,375.4681)"
           id="g234"><path
             id="path236"
             style="fill:#515150;fill-opacity:1;fill-rule:nonzero;stroke:none"
             d="m 0,0 c -72.942,0 -132.294,-59.342 -132.294,-132.294 0,-72.953 59.342,-132.3 132.294,-132.3 72.952,0 132.299,59.347 132.299,132.3 C 132.299,-59.347 72.958,0 0,0" /></g></g></g><g
       id="g238"><g
         id="g240"><g
           id="g246"><g
             id="g248"><path
               id="path256"
               style="fill:url(#linearGradient250);stroke:none"
               d="m 105.99,243.179 c 0,-82.716 67.293,-150.015 150.005,-150.015 l 0,0 c 82.716,0 150.015,67.299 150.015,150.015 l 0,0 c 0,82.716 -67.294,150.009 -150.015,150.009 l 0,0 c -82.712,0 -150.005,-67.293 -150.005,-150.009 m 35.431,-0.005 c 0,63.178 51.4,114.579 114.574,114.579 l 0,0 c 63.184,0 114.584,-51.401 114.584,-114.579 l 0,0 c 0,-63.184 -51.4,-114.584 -114.584,-114.584 l 0,0 c -63.174,0 -114.574,51.405 -114.574,114.584" /></g></g></g></g><g
       id="g258"><g
         clip-path="url(#clipPath262)"
         id="g260"><g
           transform="translate(255.9949,360.5823)"
           id="g266"><path
             id="path268"
             style="fill:#e2e2e2;fill-opacity:1;fill-rule:nonzero;stroke:none"
             d="m 0,0 c -40.832,0 -74.036,-33.209 -74.036,-74.036 0,-40.821 33.209,-74.04 74.036,-74.04 40.827,0 74.041,33.219 74.041,74.04 C 74.041,-33.214 40.822,0 0,0 m 0,-206.34 c -72.952,0 -132.294,59.347 -132.294,132.299 0,72.953 59.347,132.295 132.294,132.295 72.958,0 132.299,-59.347 132.299,-132.295 C 132.299,-146.993 72.947,-206.34 0,-206.34" /></g><g
           transform="translate(255.9949,389.7117)"
           id="g270"><path
             id="path272"
             style="fill:#ffffff;fill-opacity:1;fill-rule:nonzero;stroke:none"
             d="m 0,0 c 56.979,0 103.17,-46.191 103.17,-103.17 0,-56.979 -46.191,-103.17 -103.17,-103.17 -56.979,0 -103.17,46.191 -103.17,103.17 C -103.17,-46.191 -56.979,0 0,0" /></g></g></g><g
       id="g274"><g
         id="g276"><g
           id="g282"><g
             id="g284"><path
               id="path292"
               style="fill:url(#linearGradient286);stroke:none"
               d="m 224.975,343 c -1.314,0 -2.491,-0.81 -2.96,-2.038 l 0,0 -16.829,-44.069 c -0.791,-2.074 0.739,-4.298 2.96,-4.298 l 0,0 0.027,0 c 1.335,0 2.528,0.839 2.981,2.096 l 0,0 3.235,8.999 c 0.452,1.257 1.644,2.095 2.981,2.095 l 0,0 16.673,0 c 1.331,0 2.52,-0.832 2.977,-2.082 l 0,0 3.292,-9.026 c 0.456,-1.25 1.645,-2.082 2.976,-2.082 l 0,0 c 2.22,0 3.752,2.226 2.958,4.3 l 0,0 -16.858,44.069 c -0.469,1.226 -1.646,2.036 -2.959,2.036 l 0,0 -1.454,0 z m -6.284,-27.532 4.038,11.134 c 1.009,2.781 4.942,2.784 5.955,0.003 l 0,0 4.054,-11.132 c 0.753,-2.067 -0.777,-4.253 -2.976,-4.253 l 0,0 -8.093,0 c -2.197,0 -3.727,2.182 -2.978,4.248" /></g></g></g></g><g
       id="g294"><g
         id="g296"><g
           id="g302"><g
             id="g304"><path
               id="path312"
               style="fill:url(#linearGradient306);stroke:none"
               d="m 286.647,342.873 c -2.902,-0.511 -5.793,-1.603 -8.673,-3.275 l 0,0 c -1.219,-0.702 -2.492,-1.607 -3.82,-2.713 l 0,0 c -0.315,-0.262 -0.499,-0.658 -0.499,-1.068 l 0,0 0,-2.14 c 0,-0.024 0.534,-0.232 1.603,-0.628 l 0,0 2.036,-0.747 c 0.036,-0.012 0.07,-0.027 0.104,-0.042 l 0,0 1.681,-0.776 c 0.053,-0.025 0.105,-0.052 0.154,-0.083 l 0,0 1.04,-0.65 c -0.604,-0.488 -1.079,-0.848 -1.428,-1.08 l 0,0 c -0.834,-0.698 -1.46,-1.671 -1.878,-2.916 l 0,0 c -0.025,-0.075 -0.046,-0.151 -0.062,-0.228 l 0,0 c -0.123,-0.595 -0.185,-1.23 -0.185,-1.907 l 0,0 0,-13.376 c 0,-1.903 0.616,-3.494 1.847,-4.771 l 0,0 c 1.23,-1.278 2.797,-1.916 4.702,-1.916 l 0,0 c 1.811,0 3.356,0.557 4.633,1.672 l 0,0 c 1.37,1.161 2.055,2.624 2.055,4.389 l 0,0 c 0,3.645 -1.15,5.898 -3.448,6.757 l 0,0 c -1.208,0.464 -2.183,0.697 -2.926,0.697 l 0,0 c -0.442,0 -0.801,-0.07 -1.08,-0.209 l 0,0 0,5.782 c 0,2.043 0.371,3.506 1.114,4.389 l 0,0 c 0.836,0.998 2.207,1.974 4.11,2.926 l 0,0 c -0.138,0.116 -0.267,0.244 -0.383,0.383 l 0,0 c -0.487,0.348 -0.848,0.615 -1.079,0.801 l 0,0 -1.879,1.343 c -0.048,0.033 -0.098,0.065 -0.149,0.092 l 0,0 -1.734,0.934 c -0.006,0.003 -0.011,0.005 -0.016,0.008 l 0,0 c -0.966,0.503 -1.016,1.893 -0.061,2.416 l 0,0 c 0.547,0.299 1.106,0.559 1.679,0.78 l 0,0 c 1.857,0.743 3.692,1.115 5.504,1.115 l 0,0 c 2.112,0 4.04,-0.395 5.782,-1.184 l 0,0 c 2.043,-0.906 3.065,-2.904 3.065,-5.992 l 0,0 0,-40.485 c 0,-0.763 0.619,-1.383 1.383,-1.383 l 0,0 2.947,0 c 0.763,0 1.382,0.62 1.382,1.383 l 0,0 0,40.764 c 0,4.784 -1.81,7.918 -5.434,9.405 l 0,0 c -2.879,1.207 -5.921,1.811 -9.125,1.811 l 0,0 c -0.999,0 -1.986,-0.093 -2.962,-0.278 m -5.886,-31.419 c 0,1.858 0.952,2.786 2.856,2.786 l 0,0 c 1.812,0 2.718,-0.928 2.718,-2.786 l 0,0 c 0,-1.998 -0.906,-2.996 -2.718,-2.996 l 0,0 c -1.904,0 -2.856,0.998 -2.856,2.996" /></g></g></g></g><g
       id="g314"><g
         id="g316"><g
           id="g322"><g
             id="g324"><path
               id="path332"
               style="fill:url(#linearGradient326);stroke:none"
               d="m 302.695,269.097 c -0.764,0 -1.383,-0.619 -1.383,-1.383 l 0,0 0,-30.401 c 0,-1.53 -2.117,-1.927 -2.671,-0.501 l 0,0 -5.923,15.226 c -0.459,1.178 -2.128,1.174 -2.581,-0.007 l 0,0 -5.796,-15.11 c -0.549,-1.432 -2.673,-1.039 -2.673,0.494 l 0,0 0,11.271 c 0,1.579 -0.547,3.066 -1.638,4.459 l 0,0 c -1.185,1.486 -2.822,2.228 -4.912,2.228 l 0,0 c -1.579,0 -2.855,-0.372 -3.831,-1.114 l 0,0 c -1.904,-1.441 -2.857,-3.089 -2.857,-4.946 l 0,0 c 0,-2.764 0.709,-4.738 2.125,-5.922 l 0,0 c 1.138,-0.953 2.531,-1.428 4.18,-1.428 l 0,0 c 0.535,0 0.918,0.058 1.15,0.174 l 0,0 0,-23.906 c 0,-0.763 0.618,-1.382 1.382,-1.382 l 0,0 3.853,0 c 0.579,0 1.097,0.361 1.297,0.905 l 0,0 8.595,23.385 c 0.04,0.108 0.065,0.219 0.078,0.333 l 0,0 0.186,1.779 0.253,-1.8 c 0.014,-0.102 0.04,-0.202 0.076,-0.297 l 0,0 8.857,-23.412 c 0.204,-0.538 0.718,-0.893 1.294,-0.893 l 0,0 3.886,0 c 0.764,0 1.383,0.619 1.383,1.382 l 0,0 0,49.483 c 0,0.764 -0.619,1.383 -1.383,1.383 l 0,0 -2.947,0 z m -30.642,-20.62 c 0,1.997 0.905,2.995 2.717,2.995 l 0,0 c 2.267,0 3.151,-1.487 2.651,-4.462 l 0,0 c -0.086,-0.515 -0.583,-1.034 -1.095,-1.14 l 0,0 c -0.577,-0.12 -1.096,-0.18 -1.556,-0.18 l 0,0 c -1.811,0 -2.717,0.929 -2.717,2.787" /></g></g></g></g></g></svg>