<?xml version="1.0" encoding="UTF-8" standalone="no"?>
<svg
   xmlns:dc="http://purl.org/dc/elements/1.1/"
   xmlns:cc="http://creativecommons.org/ns#"
   xmlns:rdf="http://www.w3.org/1999/02/22-rdf-syntax-ns#"
   xmlns:svg="http://www.w3.org/2000/svg"
   xmlns="http://www.w3.org/2000/svg"
   viewBox="0 0 640 640"
   height="640"
   width="640"
   xml:space="preserve"
   version="1.1"
   id="svg2"><metadata
     id="metadata8"><rdf:RDF><cc:Work
         rdf:about=""><dc:format>image/svg+xml</dc:format><dc:type
           rdf:resource="http://purl.org/dc/dcmitype/StillImage" /></cc:Work></rdf:RDF></metadata><defs
     id="defs6"><clipPath
       id="clipPath16"
       clipPathUnits="userSpaceOnUse"><path
         id="path18"
         d="M 0,512 512,512 512,0 0,0 0,512 Z" /></clipPath><clipPath
       id="clipPath24"
       clipPathUnits="userSpaceOnUse"><path
         id="path26"
         d="m 18.325,493.744 475.4,0 0,-475.4877 -475.4,0 0,475.4877 z" /></clipPath><clipPath
       id="clipPath28"
       clipPathUnits="userSpaceOnUse"><path
         id="path30"
         d="M 448.99,63.029 C 389.293,3.332 122.807,3.332 63.11,63.029 3.413,122.726 3.413,389.312 63.01,449.009 c 59.597,59.696 326.283,59.596 385.98,0 59.697,-59.597 59.597,-326.283 0,-385.98" /></clipPath><radialGradient
       id="radialGradient36"
       spreadMethod="pad"
       gradientTransform="matrix(237.72188,0,0,237.72188,256.02499,256)"
       gradientUnits="userSpaceOnUse"
       r="1"
       cy="0"
       cx="0"
       fy="0"
       fx="0"><stop
         id="stop38"
         offset="0"
         style="stop-opacity:1;stop-color:#ffffff" /><stop
         id="stop40"
         offset="0.8587"
         style="stop-opacity:0.14129854;stop-color:#ffffff" /><stop
         id="stop42"
         offset="1"
         style="stop-opacity:0;stop-color:#ffffff" /></radialGradient><mask
       id="mask44"
       height="1"
       width="1"
       y="0"
       x="0"
       maskUnits="userSpaceOnUse"><g
         id="g46"><g
           id="g48"><g
             id="g50"><g
               id="g52"><path
                 id="path54"
                 style="fill:url(#radialGradient36);stroke:none"
                 d="m -32768,32767 65535,0 0,-65535 -65535,0 0,65535 z" /></g></g></g></g></mask><radialGradient
       id="radialGradient56"
       spreadMethod="pad"
       gradientTransform="matrix(237.72188,0,0,237.72188,256.02499,256)"
       gradientUnits="userSpaceOnUse"
       r="1"
       cy="0"
       cx="0"
       fy="0"
       fx="0"><stop
         id="stop58"
         offset="0"
         style="stop-opacity:1;stop-color:#010101" /><stop
         id="stop60"
         offset="0.8587"
         style="stop-opacity:1;stop-color:#010101" /><stop
         id="stop62"
         offset="1"
         style="stop-opacity:1;stop-color:#010101" /></radialGradient><clipPath
       id="clipPath86"
       clipPathUnits="userSpaceOnUse"><path
         id="path88"
         d="m 18.325,493.744 475.4,0 0,-475.4877 -475.4,0 0,475.4877 z" /></clipPath><clipPath
       id="clipPath90"
       clipPathUnits="userSpaceOnUse"><path
         id="path92"
         d="M 448.99,63.029 C 389.293,3.332 122.807,3.332 63.11,63.029 3.413,122.726 3.413,389.312 63.01,449.009 c 59.597,59.696 326.283,59.596 385.98,0 59.697,-59.597 59.597,-326.283 0,-385.98" /></clipPath><radialGradient
       id="radialGradient98"
       spreadMethod="pad"
       gradientTransform="matrix(188.25467,188.36119,-130.35883,130.27895,256.02499,256.04376)"
       gradientUnits="userSpaceOnUse"
       r="1"
       cy="0"
       cx="0"
       fy="0"
       fx="0"><stop
         id="stop100"
         offset="0"
         style="stop-opacity:1;stop-color:#ffffff" /><stop
         id="stop102"
         offset="0.8587"
         style="stop-opacity:0.14129854;stop-color:#ffffff" /><stop
         id="stop104"
         offset="1"
         style="stop-opacity:0;stop-color:#ffffff" /></radialGradient><mask
       id="mask106"
       height="1"
       width="1"
       y="0"
       x="0"
       maskUnits="userSpaceOnUse"><g
         id="g108"><g
           id="g110"><g
             id="g112"><g
               id="g114"><path
                 id="path116"
                 style="fill:url(#radialGradient98);stroke:none"
                 d="m -32768,32767 65535,0 0,-65535 -65535,0 0,65535 z" /></g></g></g></g></mask><radialGradient
       id="radialGradient118"
       spreadMethod="pad"
       gradientTransform="matrix(188.25467,188.36119,-130.35883,130.27895,256.02499,256.04376)"
       gradientUnits="userSpaceOnUse"
       r="1"
       cy="0"
       cx="0"
       fy="0"
       fx="0"><stop
         id="stop120"
         offset="0"
         style="stop-opacity:1;stop-color:#010101" /><stop
         id="stop122"
         offset="0.8587"
         style="stop-opacity:1;stop-color:#010101" /><stop
         id="stop124"
         offset="1"
         style="stop-opacity:1;stop-color:#010101" /></radialGradient><clipPath
       id="clipPath148"
       clipPathUnits="userSpaceOnUse"><path
         id="path150"
         d="m 18.275,493.694 475.387,0 0,-475.4377 -475.387,0 0,475.4377 z" /></clipPath><clipPath
       id="clipPath152"
       clipPathUnits="userSpaceOnUse"><path
         id="path154"
         d="m 63.01,63.029 c 59.697,-59.697 326.183,-59.697 385.88,0 59.697,59.697 59.697,326.183 0,385.88 -59.697,59.696 -326.183,59.696 -385.88,0.1 -59.697,-59.597 -59.597,-326.283 0,-385.98" /></clipPath><radialGradient
       id="radialGradient160"
       spreadMethod="pad"
       gradientTransform="matrix(-188.28767,188.39421,130.38168,130.30179,255.92499,255.99377)"
       gradientUnits="userSpaceOnUse"
       r="1"
       cy="0"
       cx="0"
       fy="0"
       fx="0"><stop
         id="stop162"
         offset="0"
         style="stop-opacity:1;stop-color:#ffffff" /><stop
         id="stop164"
         offset="0.8587"
         style="stop-opacity:0.14129854;stop-color:#ffffff" /><stop
         id="stop166"
         offset="1"
         style="stop-opacity:0;stop-color:#ffffff" /></radialGradient><mask
       id="mask168"
       height="1"
       width="1"
       y="0"
       x="0"
       maskUnits="userSpaceOnUse"><g
         id="g170"><g
           id="g172"><g
             id="g174"><g
               id="g176"><path
                 id="path178"
                 style="fill:url(#radialGradient160);stroke:none"
                 d="m -32768,32767 65535,0 0,-65535 -65535,0 0,65535 z" /></g></g></g></g></mask><radialGradient
       id="radialGradient180"
       spreadMethod="pad"
       gradientTransform="matrix(-188.28767,188.39421,130.38168,130.30179,255.92499,255.99377)"
       gradientUnits="userSpaceOnUse"
       r="1"
       cy="0"
       cx="0"
       fy="0"
       fx="0"><stop
         id="stop182"
         offset="0"
         style="stop-opacity:1;stop-color:#010101" /><stop
         id="stop184"
         offset="0.8587"
         style="stop-opacity:1;stop-color:#010101" /><stop
         id="stop186"
         offset="1"
         style="stop-opacity:1;stop-color:#010101" /></radialGradient><linearGradient
       id="linearGradient218"
       spreadMethod="pad"
       gradientTransform="matrix(459.99939,0,0,-459.99939,26.000477,256)"
       gradientUnits="userSpaceOnUse"
       y2="0"
       x2="1"
       y1="0"
       x1="0"><stop
         id="stop220"
         offset="0"
         style="stop-opacity:1;stop-color:#f7f7f7" /><stop
         id="stop222"
         offset="1"
         style="stop-opacity:1;stop-color:#f7f7f7" /></linearGradient><clipPath
       id="clipPath230"
       clipPathUnits="userSpaceOnUse"><path
         id="path232"
         d="M 0,512 512,512 512,0 0,0 0,512 Z" /></clipPath></defs><g
     transform="matrix(1.25,0,0,-1.25,0,640)"
     id="g10"><g
       id="g12"><g
         clip-path="url(#clipPath16)"
         id="g14"><g
           id="g20"><g
             id="g22" /><g
             id="g64"><g
               style="opacity:0.39999402"
               id="g66"
               clip-path="url(#clipPath24)"><g
                 id="g68"><g
                   id="g70"
                   clip-path="url(#clipPath28)"><g
                     id="g72"><g
                       id="g74" /><g
                       id="g76"
                       mask="url(#mask44)"><g
                         id="g78"><path
                           id="path80"
                           style="fill:url(#radialGradient56);stroke:none"
                           d="M 448.99,63.029 C 389.293,3.332 122.807,3.332 63.11,63.029 3.413,122.726 3.413,389.312 63.01,449.009 c 59.597,59.696 326.283,59.596 385.98,0 59.697,-59.597 59.597,-326.283 0,-385.98" /></g></g></g></g></g></g></g></g><g
           id="g82"><g
             id="g84" /><g
             id="g126"><g
               style="opacity:0.39999402"
               id="g128"
               clip-path="url(#clipPath86)"><g
                 id="g130"><g
                   id="g132"
                   clip-path="url(#clipPath90)"><g
                     id="g134"><g
                       id="g136" /><g
                       id="g138"
                       mask="url(#mask106)"><g
                         id="g140"><path
                           id="path142"
                           style="fill:url(#radialGradient118);stroke:none"
                           d="M 448.99,63.029 C 389.293,3.332 122.807,3.332 63.11,63.029 3.413,122.726 3.413,389.312 63.01,449.009 c 59.597,59.696 326.283,59.596 385.98,0 59.697,-59.597 59.597,-326.283 0,-385.98" /></g></g></g></g></g></g></g></g><g
           id="g144"><g
             id="g146" /><g
             id="g188"><g
               style="opacity:0.39999402"
               id="g190"
               clip-path="url(#clipPath148)"><g
                 id="g192"><g
                   id="g194"
                   clip-path="url(#clipPath152)"><g
                     id="g196"><g
                       id="g198" /><g
                       id="g200"
                       mask="url(#mask168)"><g
                         id="g202"><path
                           id="path204"
                           style="fill:url(#radialGradient180);stroke:none"
                           d="m 63.01,63.029 c 59.697,-59.697 326.183,-59.697 385.88,0 59.697,59.697 59.697,326.183 0,385.88 -59.697,59.696 -326.183,59.696 -385.88,0.1 -59.697,-59.597 -59.597,-326.283 0,-385.98" /></g></g></g></g></g></g></g></g></g></g><g
       id="g206"><g
         id="g208"><g
           id="g214"><g
             id="g216"><path
               id="path224"
               style="fill:url(#linearGradient218);stroke:none"
               d="M 78.721,433.279 C 8.427,362.985 8.427,149.015 78.721,78.721 l 0,0 c 70.294,-70.294 284.264,-70.294 354.558,0 l 0,0 c 70.295,70.294 70.294,284.264 0,354.558 l 0,0 C 398.132,468.426 327.066,486 256,486 l 0,0 C 184.934,486 113.868,468.426 78.721,433.279" /></g></g></g></g><g
       id="g226"><g
         clip-path="url(#clipPath230)"
         id="g228"><g
           transform="translate(171.6411,171.6411)"
           id="g234"><path
             id="path236"
             style="fill:#51d88b;fill-opacity:1;fill-rule:nonzero;stroke:none"
             d="m 0,0 c 0,23.295 9.442,44.385 24.708,59.651 -21.589,0 -43.178,8.236 -59.651,24.708 C -51.415,67.887 -59.651,46.298 -59.651,24.708 -44.385,9.442 -23.295,0 0,0" /></g><g
           transform="translate(112.9912,196.7646)"
           id="g238"><path
             id="path240"
             style="fill:#ffffff;fill-opacity:1;fill-rule:nonzero;stroke:none"
             d="M 0,0 C 15.475,-15.326 35.899,-23.866 57.656,-24.118 57.904,-2.474 66.16,17.883 81.019,33.559 59.429,34.135 39.196,42.691 23.715,57.821 8.51,42.259 0.105,21.778 0,0 m 59.65,-26.124 -1,0 c -22.8,0 -44.236,8.879 -60.358,25.002 l -0.293,0.293 0,0.414 c 0,22.8 8.879,44.235 25.001,60.357 l 0.707,0.707 0.707,-0.707 C 40.159,44.198 61.092,35.527 83.358,35.527 l 2.414,0 -1.707,-1.707 C 68.321,18.075 59.65,-2.858 59.65,-25.124 l 0,-1 z" /></g><g
           transform="translate(231.2918,196.3492)"
           id="g242"><path
             id="path244"
             style="fill:#00bd9b;fill-opacity:1;fill-rule:nonzero;stroke:none"
             d="m 0,0 c -15.266,-15.266 -36.356,-24.708 -59.651,-24.708 0,-23.295 9.442,-44.385 24.708,-59.651 21.59,0 43.179,8.236 59.651,24.708 C 8.236,-43.179 0,-21.589 0,0" /></g><g
           transform="translate(172.647,170.6465)"
           id="g246"><path
             id="path248"
             style="fill:#ffffff;fill-opacity:1;fill-rule:nonzero;stroke:none"
             d="m 0,0 c 0.252,-21.756 8.791,-42.181 24.117,-57.655 21.779,0.105 42.259,8.509 57.822,23.715 C 66.809,-18.459 58.252,1.773 57.676,23.364 42.001,8.504 21.645,0.248 0,0 m 23.702,-59.656 -0.414,0 -0.293,0.293 C 6.873,-43.241 -2.006,-21.806 -2.006,0.994 l 0,1 1,0 c 22.266,0 43.199,8.671 58.944,24.416 l 1.707,1.707 0,-2.414 c 0,-22.265 8.671,-43.199 24.415,-58.944 l 0.707,-0.707 -0.707,-0.707 C 67.938,-50.777 46.502,-59.656 23.702,-59.656" /></g><g
           transform="translate(196.3493,231.2918)"
           id="g250"><path
             id="path252"
             style="fill:#51d88b;fill-opacity:1;fill-rule:nonzero;stroke:none"
             d="m 0,0 c -15.266,-15.266 -24.708,-36.356 -24.708,-59.651 23.295,0 44.385,9.442 59.651,24.708 0,21.59 8.236,43.179 24.708,59.651 C 43.179,8.236 21.589,0 0,0" /></g><g
           transform="translate(196.7656,230.293)"
           id="g254"><path
             id="path256"
             style="fill:#ffffff;fill-opacity:1;fill-rule:nonzero;stroke:none"
             d="m 0,0 c -15.324,-15.474 -23.863,-35.895 -24.119,-57.646 21.753,0.255 42.174,8.794 57.646,24.12 0.087,18.203 5.835,35.52 16.41,49.936 C 35.521,5.835 18.203,0.087 0,0 m -25.125,-59.652 -1,0 0,1 c 0,22.799 8.879,44.235 25.001,60.358 l 0.293,0.293 0.414,0 c 22.266,0 43.2,8.671 58.944,24.415 L 59.941,25 C 44.197,9.256 35.526,-11.677 35.526,-33.943 l 0,-0.414 -0.293,-0.293 C 19.111,-50.773 -2.324,-59.652 -25.125,-59.652" /></g><g
           transform="translate(340.3589,340.3589)"
           id="g258"><path
             id="path260"
             style="fill:#9c56b8;fill-opacity:1;fill-rule:nonzero;stroke:none"
             d="m 0,0 c 0,-23.295 -9.442,-44.385 -24.708,-59.651 21.589,0 43.178,-8.236 59.651,-24.708 16.472,16.472 24.708,38.062 24.708,59.651 C 44.385,-9.442 23.295,0 0,0" /></g><g
           transform="translate(317.9893,281.6768)"
           id="g262"><path
             id="path264"
             style="fill:#ffffff;fill-opacity:1;fill-rule:nonzero;stroke:none"
             d="M 0,0 C 21.591,-0.576 41.823,-9.133 57.305,-24.263 72.51,-8.7 80.914,11.78 81.02,33.56 65.545,48.885 45.12,57.424 23.364,57.676 23.116,36.031 14.86,15.675 0,0 m 57.313,-27.091 -0.708,0.707 C 40.86,-10.64 19.927,-1.969 -2.339,-1.969 l -2.414,0 1.707,1.707 C 12.699,15.483 21.37,36.416 21.37,58.682 l 0,1 1,0 c 22.8,0 44.235,-8.879 60.358,-25.001 l 0.293,-0.293 0,-0.414 c 0,-22.8 -8.879,-44.235 -25.001,-60.358 l -0.707,-0.707 z" /></g><g
           transform="translate(280.7082,315.6507)"
           id="g266"><path
             id="path268"
             style="fill:#ff65d4;fill-opacity:1;fill-rule:nonzero;stroke:none"
             d="m 0,0 c 15.266,15.266 36.356,24.708 59.651,24.708 0,23.295 -9.442,44.385 -24.708,59.651 -21.59,0 -43.179,-8.236 -59.651,-24.708 C -8.236,43.179 0,21.589 0,0" /></g><g
           transform="translate(257.4141,375.293)"
           id="g270"><path
             id="path272"
             style="fill:#ffffff;fill-opacity:1;fill-rule:nonzero;stroke:none"
             d="M 0,0 C 15.13,-15.48 23.687,-35.712 24.263,-57.303 39.938,-42.444 60.295,-34.188 81.939,-33.94 81.688,-12.184 73.147,8.241 57.821,23.716 36.042,23.61 15.563,15.206 0,0 m 22.294,-62.056 0,2.414 c 0,22.266 -8.671,43.199 -24.415,58.943 l -0.707,0.707 0.707,0.707 c 16.122,16.123 37.558,25.002 60.357,25.002 l 0.414,0 0.293,-0.293 C 75.066,9.302 83.945,-12.134 83.945,-34.934 l 0,-1 -1,0 c -22.265,0 -43.199,-8.671 -58.944,-24.415 l -1.707,-1.707 z" /></g><g
           transform="translate(315.6508,280.7082)"
           id="g274"><path
             id="path276"
             style="fill:#9c56b8;fill-opacity:1;fill-rule:nonzero;stroke:none"
             d="m 0,0 c 15.266,15.266 24.708,36.356 24.708,59.651 -23.295,0 -44.385,-9.442 -59.651,-24.708 0,-21.59 -8.236,-43.179 -24.708,-59.651 C -43.179,-8.236 -21.589,0 0,0" /></g><g
           transform="translate(281.707,315.2344)"
           id="g278"><path
             id="path280"
             style="fill:#ffffff;fill-opacity:1;fill-rule:nonzero;stroke:none"
             d="m 0,0 c -0.087,-18.203 -5.835,-35.521 -16.41,-49.937 14.416,10.575 31.733,16.323 49.936,16.41 15.326,15.472 23.865,35.893 24.12,57.646 C 35.895,23.863 15.474,15.324 0,0 m -25,-59.941 -1.414,1.414 c 15.744,15.744 24.415,36.678 24.415,58.944 l 0,0.414 0.293,0.293 c 16.123,16.122 37.559,25.001 60.358,25.001 l 1,0 0,-1 c 0,-22.801 -8.879,-44.236 -25.002,-60.358 l -0.293,-0.293 -0.414,0 c -22.266,0 -43.199,-8.671 -58.943,-24.415" /></g><g
           transform="translate(315.6508,231.2918)"
           id="g282"><path
             id="path284"
             style="fill:#6659ff;fill-opacity:1;fill-rule:nonzero;stroke:none"
             d="m 0,0 c 15.266,-15.266 24.708,-36.356 24.708,-59.651 23.295,0 44.385,9.443 59.651,24.708 0,21.59 -8.236,43.179 -24.708,59.651 C 43.179,8.236 21.589,0 0,0" /></g><g
           transform="translate(317.9893,230.3232)"
           id="g286"><path
             id="path288"
             style="fill:#ffffff;fill-opacity:1;fill-rule:nonzero;stroke:none"
             d="m 0,0 c 14.86,-15.675 23.116,-36.032 23.364,-57.677 21.757,0.252 42.181,8.792 57.656,24.118 C 80.914,-11.78 72.51,8.7 57.305,24.263 41.822,9.133 21.591,0.576 0,0 m 22.37,-59.683 -1,0 0,1 c 0,22.266 -8.671,43.2 -24.416,58.945 l -1.707,1.707 2.414,0 c 22.266,0 43.199,8.671 58.944,24.415 l 0.708,0.707 0.707,-0.707 C 74.142,10.262 83.021,-11.174 83.021,-33.974 l 0,-0.414 -0.293,-0.293 C 66.605,-50.804 45.171,-59.683 22.37,-59.683" /></g><g
           transform="translate(280.7082,196.3492)"
           id="g290"><path
             id="path292"
             style="fill:#2d98e0;fill-opacity:1;fill-rule:nonzero;stroke:none"
             d="m 0,0 c 0,-21.589 -8.236,-43.179 -24.708,-59.651 16.472,-16.472 38.061,-24.708 59.651,-24.708 15.266,15.266 24.708,36.356 24.708,59.651 C 36.356,-24.708 15.266,-15.266 0,0" /></g><g
           transform="translate(257.4141,136.7061)"
           id="g294"><path
             id="path296"
             style="fill:#ffffff;fill-opacity:1;fill-rule:nonzero;stroke:none"
             d="M 0,0 C 15.563,-15.205 36.043,-23.609 57.821,-23.715 73.147,-8.24 81.688,12.184 81.939,33.94 60.295,34.188 39.938,42.444 24.263,57.305 23.687,35.714 15.13,15.482 0,0 m 58.65,-25.716 -0.414,0 c -22.799,0 -44.235,8.879 -60.357,25.001 l -0.707,0.707 0.707,0.707 c 15.744,15.745 24.415,36.679 24.415,58.945 l 0,2.414 1.707,-1.707 C 39.746,44.605 60.68,35.935 82.945,35.935 l 1,0 0,-1 c 0,-22.801 -8.879,-44.236 -25.002,-60.358 l -0.293,-0.293 z" /></g><g
           transform="translate(315.6508,231.2918)"
           id="g298"><path
             id="path300"
             style="fill:#2d98e0;fill-opacity:1;fill-rule:nonzero;stroke:none"
             d="M 0,0 C -21.589,0 -43.179,8.236 -59.651,24.708 -43.179,8.236 -34.943,-13.353 -34.943,-34.943 -19.677,-50.209 1.413,-59.651 24.708,-59.651 24.708,-36.356 15.266,-15.266 0,0" /></g><g
           transform="translate(281.707,196.7666)"
           id="g302"><path
             id="path304"
             style="fill:#ffffff;fill-opacity:1;fill-rule:nonzero;stroke:none"
             d="M 0,0 C 15.473,-15.325 35.894,-23.864 57.646,-24.12 57.391,-2.367 48.852,18.054 33.526,33.526 15.324,33.613 -1.994,39.361 -16.41,49.937 -5.835,35.521 -0.087,18.202 0,0 m 59.652,-26.126 -1,0 c -22.799,0 -44.235,8.879 -60.358,25.002 l -0.293,0.293 0,0.414 c 0,22.266 -8.671,43.199 -24.415,58.943 L -25,59.94 C -9.256,44.196 11.678,35.525 33.943,35.525 l 0.414,0 0.293,-0.293 C 50.773,19.109 59.652,-2.326 59.652,-25.126 l 0,-1 z" /></g><g
           transform="translate(231.2918,196.3492)"
           id="g306"><path
             id="path308"
             style="fill:#00bd9b;fill-opacity:1;fill-rule:nonzero;stroke:none"
             d="M 0,0 C 0,-21.589 8.236,-43.179 24.708,-59.651 41.18,-43.179 49.416,-21.589 49.416,0 34.15,15.266 24.708,36.356 24.708,59.651 24.708,36.356 15.266,15.266 0,0" /></g><g
           transform="translate(232.293,195.9375)"
           id="g310"><path
             id="path312"
             style="fill:#ffffff;fill-opacity:1;fill-rule:nonzero;stroke:none"
             d="M 0,0 C 0.104,-21.776 8.506,-42.254 23.707,-57.816 38.908,-42.254 47.31,-21.776 47.414,0 34.604,12.933 26.423,29.243 23.707,46.914 20.991,29.243 12.81,12.933 0,0 M 23.707,-60.653 23,-59.946 C 6.878,-43.824 -2.001,-22.388 -2.001,0.412 l 0,0.414 0.293,0.293 c 15.744,15.744 24.415,36.678 24.415,58.944 l 2,0 c 0,-22.266 8.671,-43.2 24.415,-58.944 l 0.293,-0.293 0,-0.414 c 0,-22.8 -8.879,-44.235 -25.001,-60.358 l -0.707,-0.707 z" /></g><g
           transform="translate(231.2918,196.3492)"
           id="g314"><path
             id="path316"
             style="fill:#51d88b;fill-opacity:1;fill-rule:nonzero;stroke:none"
             d="M 0,0 C 15.266,15.266 24.708,36.356 24.708,59.651 8.236,43.179 0,21.589 0,0" /></g><g
           transform="translate(254.9634,253.4971)"
           id="g318"><path
             id="path320"
             style="fill:#ffffff;fill-opacity:1;fill-rule:nonzero;stroke:none"
             d="M 0,0 C -14.069,-14.917 -22.035,-34.147 -22.635,-54.645 -8.566,-39.728 -0.6,-20.496 0,0 m -24.671,-59.562 0,2.415 c 0,22.8 8.879,44.236 25.001,60.357 l 1.707,1.707 0,-2.414 c 0,-22.8 -8.879,-44.235 -25.001,-60.357 l -1.707,-1.708 z" /></g><g
           transform="translate(280.7082,196.3492)"
           id="g322"><path
             id="path324"
             style="fill:#00bd9b;fill-opacity:1;fill-rule:nonzero;stroke:none"
             d="M 0,0 C 0,21.589 -8.236,43.179 -24.708,59.651 -24.708,36.356 -15.266,15.266 0,0" /></g><g
           transform="translate(257.0361,253.4971)"
           id="g326"><path
             id="path328"
             style="fill:#ffffff;fill-opacity:1;fill-rule:nonzero;stroke:none"
             d="M 0,0 C 0.601,-20.496 8.566,-39.728 22.636,-54.645 22.035,-34.148 14.069,-14.917 0,0 m 24.672,-59.562 -1.707,1.708 C 6.843,-41.732 -2.036,-20.297 -2.036,2.503 l 0,2.414 1.707,-1.707 c 16.122,-16.122 25.001,-37.558 25.001,-60.357 l 0,-2.415 z" /></g><g
           transform="translate(315.6508,231.2918)"
           id="g330"><path
             id="path332"
             style="fill:#6659ff;fill-opacity:1;fill-rule:nonzero;stroke:none"
             d="M 0,0 C 21.589,0 43.179,8.236 59.651,24.708 43.179,41.18 21.589,49.416 0,49.416 -15.266,34.15 -36.356,24.708 -59.651,24.708 -36.356,24.708 -15.266,15.266 0,0" /></g><g
           transform="translate(269.1484,256)"
           id="g334"><path
             id="path336"
             style="fill:#ffffff;fill-opacity:1;fill-rule:nonzero;stroke:none"
             d="M 0,0 C 17.671,-2.716 33.981,-10.896 46.914,-23.707 68.69,-23.603 89.168,-15.201 104.73,0 89.168,15.201 68.69,23.603 46.914,23.707 33.981,10.897 17.671,2.716 0,0 m 46.502,-25.708 -0.414,0 -0.293,0.293 C 30.051,-9.671 9.117,-1 -13.148,-1 l 0,2 C 9.117,1 30.051,9.671 45.795,25.415 l 0.293,0.293 0.414,0 c 22.8,0 44.236,-8.879 60.358,-25.001 L 107.567,0 106.86,-0.707 C 90.737,-16.829 69.302,-25.708 46.502,-25.708" /></g><g
           transform="translate(315.6508,231.2918)"
           id="g338"><path
             id="path340"
             style="fill:#2d98e0;fill-opacity:1;fill-rule:nonzero;stroke:none"
             d="M 0,0 C -15.266,15.266 -36.356,24.708 -59.651,24.708 -43.179,8.236 -21.589,0 0,0" /></g><g
           transform="translate(258.5029,254.9639)"
           id="g342"><path
             id="path344"
             style="fill:#ffffff;fill-opacity:1;fill-rule:nonzero;stroke:none"
             d="M 0,0 C 14.917,-14.069 34.148,-22.035 54.645,-22.636 39.728,-8.566 20.496,-0.601 0,0 m 59.562,-24.672 -2.415,0 c -22.799,0 -44.235,8.879 -60.357,25.001 l -1.707,1.707 2.414,0 c 22.8,0 44.235,-8.879 60.357,-25.001 l 1.708,-1.707 z" /></g><g
           transform="translate(315.6508,280.7082)"
           id="g346"><path
             id="path348"
             style="fill:#6659ff;fill-opacity:1;fill-rule:nonzero;stroke:none"
             d="M 0,0 C -21.589,0 -43.179,-8.236 -59.651,-24.708 -36.356,-24.708 -15.266,-15.266 0,0" /></g><g
           transform="translate(313.1475,279.6714)"
           id="g350"><path
             id="path352"
             style="fill:#ffffff;fill-opacity:1;fill-rule:nonzero;stroke:none"
             d="M 0,0 C -20.497,-0.6 -39.728,-8.566 -54.645,-22.635 -34.148,-22.035 -14.917,-14.069 0,0 m -57.147,-24.671 -2.415,0 1.708,1.707 C -41.733,-6.842 -20.298,2.037 2.503,2.037 l 2.414,0 L 3.21,0.33 c -16.122,-16.122 -37.558,-25.001 -60.357,-25.001" /></g><g
           transform="translate(196.3493,280.7082)"
           id="g354"><path
             id="path356"
             style="fill:#f1c50e;fill-opacity:1;fill-rule:nonzero;stroke:none"
             d="m 0,0 c -15.266,15.266 -24.708,36.356 -24.708,59.651 -23.295,0 -44.385,-9.443 -59.651,-24.708 0,-21.59 8.236,-43.179 24.708,-59.651 C -43.179,-8.236 -21.589,0 0,0" /></g><g
           transform="translate(112.9912,315.2363)"
           id="g358"><path
             id="path360"
             style="fill:#ffffff;fill-opacity:1;fill-rule:nonzero;stroke:none"
             d="m 0,0 c 0.105,-21.779 8.51,-42.259 23.715,-57.822 15.481,15.13 35.713,23.686 57.304,24.262 C 66.16,-17.884 57.904,2.472 57.656,24.117 35.9,23.864 15.476,15.326 0,0 M 23.707,-60.65 23,-59.943 C 6.878,-43.821 -2.001,-22.385 -2.001,0.415 l 0,0.414 0.293,0.293 C 14.415,17.244 35.85,26.123 58.65,26.123 l 1,0 0,-1 c 0,-22.266 8.671,-43.199 24.415,-58.944 l 1.707,-1.707 -2.414,0 c -22.266,0 -43.199,-8.671 -58.944,-24.415 l -0.707,-0.707 z" /></g><g
           transform="translate(171.6411,340.3589)"
           id="g362"><path
             id="path364"
             style="fill:#e84c3d;fill-opacity:1;fill-rule:nonzero;stroke:none"
             d="m 0,0 c 23.295,0 44.385,-9.442 59.651,-24.708 0,21.589 8.236,43.178 24.708,59.651 C 67.887,51.415 46.298,59.651 24.708,59.651 9.442,44.385 0,23.295 0,0" /></g><g
           transform="translate(172.647,341.353)"
           id="g366"><path
             id="path368"
             style="fill:#ffffff;fill-opacity:1;fill-rule:nonzero;stroke:none"
             d="M 0,0 C 21.645,-0.248 42.001,-8.504 57.676,-23.363 58.252,-1.772 66.809,18.46 81.939,33.94 66.376,49.146 45.896,57.55 24.117,57.656 8.791,42.18 0.252,21.756 0,0 m 59.645,-28.116 -1.707,1.707 C 42.193,-10.665 21.26,-1.994 -1.006,-1.994 l -1,0 0,1 c 0,22.8 8.879,44.235 25.001,60.358 l 0.293,0.293 0.414,0 c 22.8,0 44.236,-8.879 60.358,-25.002 L 84.767,33.948 84.06,33.241 C 68.316,17.497 59.645,-3.436 59.645,-25.702 l 0,-2.414 z" /></g><g
           transform="translate(231.2918,315.6507)"
           id="g370"><path
             id="path372"
             style="fill:#e84c3d;fill-opacity:1;fill-rule:nonzero;stroke:none"
             d="m 0,0 c -15.266,15.266 -36.356,24.708 -59.651,24.708 0,-23.295 9.442,-44.385 24.708,-59.651 21.59,0 43.179,-8.236 59.651,-24.708 C 8.236,-43.179 0,-21.589 0,0" /></g><g
           transform="translate(196.7656,281.707)"
           id="g374"><path
             id="path376"
             style="fill:#ffffff;fill-opacity:1;fill-rule:nonzero;stroke:none"
             d="M 0,0 C 18.203,-0.086 35.521,-5.835 49.937,-16.41 39.362,-1.994 33.614,15.324 33.527,33.527 18.055,48.852 -2.366,57.391 -24.119,57.646 -23.863,35.894 -15.324,15.473 0,0 M 58.527,-26.414 C 42.783,-10.67 21.85,-1.999 -0.417,-1.999 l -0.414,0 -0.293,0.293 c -16.122,16.123 -25.001,37.558 -25.001,60.358 l 0,1 1,0 c 22.8,0 44.236,-8.879 60.358,-25.001 l 0.293,-0.293 0,-0.414 c 0,-22.266 8.671,-43.199 24.415,-58.944 l -1.414,-1.414 z" /></g><g
           transform="translate(196.3493,280.7082)"
           id="g378"><path
             id="path380"
             style="fill:#f1c50e;fill-opacity:1;fill-rule:nonzero;stroke:none"
             d="M 0,0 C -21.589,0 -43.179,-8.236 -59.651,-24.708 -43.179,-41.18 -21.589,-49.416 0,-49.416 15.266,-34.15 36.356,-24.708 59.651,-24.708 36.356,-24.708 15.266,-15.266 0,0" /></g><g
           transform="translate(138.1206,256)"
           id="g382"><path
             id="path384"
             style="fill:#ffffff;fill-opacity:1;fill-rule:nonzero;stroke:none"
             d="M 0,0 C 15.563,-15.201 36.04,-23.603 57.817,-23.707 70.75,-10.896 87.06,-2.716 104.731,0 87.06,2.716 70.75,10.897 57.817,23.707 36.04,23.603 15.563,15.201 0,0 m 58.643,-25.708 -0.414,0 c -22.8,0 -44.236,8.879 -60.358,25.001 L -2.836,0 -2.129,0.707 c 16.122,16.122 37.557,25.001 60.358,25.001 l 0.414,0 0.293,-0.293 C 74.681,9.671 95.614,1 117.879,1 l 0,-2 C 95.614,-1 74.681,-9.671 58.936,-25.415 l -0.293,-0.293 z" /></g><g
           transform="translate(196.3493,231.2918)"
           id="g386"><path
             id="path388"
             style="fill:#f1c50e;fill-opacity:1;fill-rule:nonzero;stroke:none"
             d="M 0,0 C 21.589,0 43.179,8.236 59.651,24.708 36.356,24.708 15.266,15.266 0,0" /></g><g
           transform="translate(253.4976,254.9639)"
           id="g390"><path
             id="path392"
             style="fill:#ffffff;fill-opacity:1;fill-rule:nonzero;stroke:none"
             d="M 0,0 C -20.497,-0.601 -39.728,-8.566 -54.646,-22.636 -34.149,-22.035 -14.918,-14.069 0,0 m -57.148,-24.672 -2.415,0 1.708,1.707 C -41.733,-6.843 -20.297,2.036 2.502,2.036 l 2.415,0 -1.708,-1.707 c -16.122,-16.122 -37.558,-25.001 -60.357,-25.001" /></g><g
           transform="translate(196.3493,280.7082)"
           id="g394"><path
             id="path396"
             style="fill:#e84c3d;fill-opacity:1;fill-rule:nonzero;stroke:none"
             d="M 0,0 C 15.266,-15.266 36.356,-24.708 59.651,-24.708 43.179,-8.236 21.589,0 0,0" /></g><g
           transform="translate(198.8516,279.6714)"
           id="g398"><path
             id="path400"
             style="fill:#ffffff;fill-opacity:1;fill-rule:nonzero;stroke:none"
             d="M 0,0 C 14.918,-14.069 34.149,-22.035 54.646,-22.635 39.728,-8.566 20.497,-0.6 0,0 m 59.563,-24.671 -2.415,0 c -22.799,0 -44.235,8.879 -60.357,25.001 l -1.708,1.707 2.415,0 c 22.8,0 44.235,-8.879 60.357,-25.001 l 1.708,-1.707 z" /></g><g
           transform="translate(280.7082,315.6507)"
           id="g402"><path
             id="path404"
             style="fill:#ff65d4;fill-opacity:1;fill-rule:nonzero;stroke:none"
             d="M 0,0 C 0,21.589 -8.236,43.179 -24.708,59.651 -41.18,43.179 -49.416,21.589 -49.416,0 c 15.266,-15.266 24.708,-36.356 24.708,-59.651 0,23.295 9.442,44.385 24.708,59.651" /></g><g
           transform="translate(232.293,316.0625)"
           id="g406"><path
             id="path408"
             style="fill:#ffffff;fill-opacity:1;fill-rule:nonzero;stroke:none"
             d="M 0,0 C 12.81,-12.933 20.991,-29.243 23.707,-46.914 26.423,-29.243 34.604,-12.933 47.414,0 47.31,21.777 38.908,42.254 23.707,57.816 8.506,42.254 0.104,21.777 0,0 m 24.707,-60.063 -2,0 c 0,22.266 -8.671,43.199 -24.415,58.944 l -0.293,0.293 0,0.414 c 0,22.801 8.879,44.236 25.001,60.358 l 0.707,0.707 0.707,-0.707 C 40.536,43.824 49.415,22.389 49.415,-0.412 l 0,-0.414 -0.293,-0.293 C 33.378,-16.864 24.707,-37.797 24.707,-60.063" /></g><g
           transform="translate(231.2918,315.6507)"
           id="g410"><path
             id="path412"
             style="fill:#ff65d4;fill-opacity:1;fill-rule:nonzero;stroke:none"
             d="M 0,0 C 0,-21.589 8.236,-43.179 24.708,-59.651 24.708,-36.356 15.266,-15.266 0,0" /></g><g
           transform="translate(232.3286,313.1484)"
           id="g414"><path
             id="path416"
             style="fill:#ffffff;fill-opacity:1;fill-rule:nonzero;stroke:none"
             d="M 0,0 C 0.6,-20.497 8.566,-39.728 22.635,-54.646 22.035,-34.149 14.069,-14.918 0,0 m 24.671,-59.563 -1.707,1.708 C 6.842,-41.733 -2.037,-20.298 -2.037,2.502 l 0,2.415 1.707,-1.708 c 16.122,-16.122 25.001,-37.558 25.001,-60.357 l 0,-2.415 z" /></g><g
           transform="translate(280.7082,315.6507)"
           id="g418"><path
             id="path420"
             style="fill:#9c56b8;fill-opacity:1;fill-rule:nonzero;stroke:none"
             d="M 0,0 C -15.266,-15.266 -24.708,-36.356 -24.708,-59.651 -8.236,-43.179 0,-21.589 0,0" /></g><g
           transform="translate(279.6719,313.1484)"
           id="g422"><path
             id="path424"
             style="fill:#ffffff;fill-opacity:1;fill-rule:nonzero;stroke:none"
             d="M 0,0 C -14.069,-14.918 -22.035,-34.149 -22.636,-54.646 -8.566,-39.728 -0.601,-20.497 0,0 m -24.672,-59.563 0,2.415 c 0,22.799 8.879,44.235 25.001,60.357 l 1.707,1.708 0,-2.415 c 0,-22.799 -8.879,-44.235 -25.001,-60.357 l -1.707,-1.708 z" /></g></g></g></g></svg>