<?xml version="1.0" encoding="UTF-8" standalone="no"?>
<svg
   xmlns:dc="http://purl.org/dc/elements/1.1/"
   xmlns:cc="http://creativecommons.org/ns#"
   xmlns:rdf="http://www.w3.org/1999/02/22-rdf-syntax-ns#"
   xmlns:svg="http://www.w3.org/2000/svg"
   xmlns="http://www.w3.org/2000/svg"
   viewBox="0 0 640 640"
   height="640"
   width="640"
   xml:space="preserve"
   version="1.1"
   id="svg2"><metadata
     id="metadata8"><rdf:RDF><cc:Work
         rdf:about=""><dc:format>image/svg+xml</dc:format><dc:type
           rdf:resource="http://purl.org/dc/dcmitype/StillImage" /></cc:Work></rdf:RDF></metadata><defs
     id="defs6"><clipPath
       id="clipPath16"
       clipPathUnits="userSpaceOnUse"><path
         id="path18"
         d="M 0,512 512,512 512,0 0,0 0,512 Z" /></clipPath><clipPath
       id="clipPath24"
       clipPathUnits="userSpaceOnUse"><path
         id="path26"
         d="m 18.325,493.744 475.4,0 0,-475.4877 -475.4,0 0,475.4877 z" /></clipPath><clipPath
       id="clipPath28"
       clipPathUnits="userSpaceOnUse"><path
         id="path30"
         d="M 448.99,63.029 C 389.293,3.332 122.807,3.332 63.11,63.029 3.413,122.726 3.413,389.312 63.01,449.009 c 59.597,59.696 326.283,59.596 385.98,0 59.697,-59.597 59.597,-326.283 0,-385.98" /></clipPath><radialGradient
       id="radialGradient36"
       spreadMethod="pad"
       gradientTransform="matrix(237.72188,0,0,237.72188,256.02499,256)"
       gradientUnits="userSpaceOnUse"
       r="1"
       cy="0"
       cx="0"
       fy="0"
       fx="0"><stop
         id="stop38"
         offset="0"
         style="stop-opacity:1;stop-color:#ffffff" /><stop
         id="stop40"
         offset="0.8587"
         style="stop-opacity:0.14129854;stop-color:#ffffff" /><stop
         id="stop42"
         offset="1"
         style="stop-opacity:0;stop-color:#ffffff" /></radialGradient><mask
       id="mask44"
       height="1"
       width="1"
       y="0"
       x="0"
       maskUnits="userSpaceOnUse"><g
         id="g46"><g
           id="g48"><g
             id="g50"><g
               id="g52"><path
                 id="path54"
                 style="fill:url(#radialGradient36);stroke:none"
                 d="m -32768,32767 65535,0 0,-65535 -65535,0 0,65535 z" /></g></g></g></g></mask><radialGradient
       id="radialGradient56"
       spreadMethod="pad"
       gradientTransform="matrix(237.72188,0,0,237.72188,256.02499,256)"
       gradientUnits="userSpaceOnUse"
       r="1"
       cy="0"
       cx="0"
       fy="0"
       fx="0"><stop
         id="stop58"
         offset="0"
         style="stop-opacity:1;stop-color:#010101" /><stop
         id="stop60"
         offset="0.8587"
         style="stop-opacity:1;stop-color:#010101" /><stop
         id="stop62"
         offset="1"
         style="stop-opacity:1;stop-color:#010101" /></radialGradient><clipPath
       id="clipPath86"
       clipPathUnits="userSpaceOnUse"><path
         id="path88"
         d="m 18.325,493.744 475.4,0 0,-475.4877 -475.4,0 0,475.4877 z" /></clipPath><clipPath
       id="clipPath90"
       clipPathUnits="userSpaceOnUse"><path
         id="path92"
         d="M 448.99,63.029 C 389.293,3.332 122.807,3.332 63.11,63.029 3.413,122.726 3.413,389.312 63.01,449.009 c 59.597,59.696 326.283,59.596 385.98,0 59.697,-59.597 59.597,-326.283 0,-385.98" /></clipPath><radialGradient
       id="radialGradient98"
       spreadMethod="pad"
       gradientTransform="matrix(188.25467,188.36119,-130.35883,130.27895,256.02499,256.04376)"
       gradientUnits="userSpaceOnUse"
       r="1"
       cy="0"
       cx="0"
       fy="0"
       fx="0"><stop
         id="stop100"
         offset="0"
         style="stop-opacity:1;stop-color:#ffffff" /><stop
         id="stop102"
         offset="0.8587"
         style="stop-opacity:0.14129854;stop-color:#ffffff" /><stop
         id="stop104"
         offset="1"
         style="stop-opacity:0;stop-color:#ffffff" /></radialGradient><mask
       id="mask106"
       height="1"
       width="1"
       y="0"
       x="0"
       maskUnits="userSpaceOnUse"><g
         id="g108"><g
           id="g110"><g
             id="g112"><g
               id="g114"><path
                 id="path116"
                 style="fill:url(#radialGradient98);stroke:none"
                 d="m -32768,32767 65535,0 0,-65535 -65535,0 0,65535 z" /></g></g></g></g></mask><radialGradient
       id="radialGradient118"
       spreadMethod="pad"
       gradientTransform="matrix(188.25467,188.36119,-130.35883,130.27895,256.02499,256.04376)"
       gradientUnits="userSpaceOnUse"
       r="1"
       cy="0"
       cx="0"
       fy="0"
       fx="0"><stop
         id="stop120"
         offset="0"
         style="stop-opacity:1;stop-color:#010101" /><stop
         id="stop122"
         offset="0.8587"
         style="stop-opacity:1;stop-color:#010101" /><stop
         id="stop124"
         offset="1"
         style="stop-opacity:1;stop-color:#010101" /></radialGradient><clipPath
       id="clipPath148"
       clipPathUnits="userSpaceOnUse"><path
         id="path150"
         d="m 18.275,493.694 475.387,0 0,-475.4377 -475.387,0 0,475.4377 z" /></clipPath><clipPath
       id="clipPath152"
       clipPathUnits="userSpaceOnUse"><path
         id="path154"
         d="m 63.01,63.029 c 59.697,-59.697 326.183,-59.697 385.88,0 59.697,59.697 59.697,326.183 0,385.88 -59.697,59.696 -326.183,59.696 -385.88,0.1 -59.697,-59.597 -59.597,-326.283 0,-385.98" /></clipPath><radialGradient
       id="radialGradient160"
       spreadMethod="pad"
       gradientTransform="matrix(-188.28767,188.39421,130.38168,130.30179,255.92499,255.99377)"
       gradientUnits="userSpaceOnUse"
       r="1"
       cy="0"
       cx="0"
       fy="0"
       fx="0"><stop
         id="stop162"
         offset="0"
         style="stop-opacity:1;stop-color:#ffffff" /><stop
         id="stop164"
         offset="0.8587"
         style="stop-opacity:0.14129854;stop-color:#ffffff" /><stop
         id="stop166"
         offset="1"
         style="stop-opacity:0;stop-color:#ffffff" /></radialGradient><mask
       id="mask168"
       height="1"
       width="1"
       y="0"
       x="0"
       maskUnits="userSpaceOnUse"><g
         id="g170"><g
           id="g172"><g
             id="g174"><g
               id="g176"><path
                 id="path178"
                 style="fill:url(#radialGradient160);stroke:none"
                 d="m -32768,32767 65535,0 0,-65535 -65535,0 0,65535 z" /></g></g></g></g></mask><radialGradient
       id="radialGradient180"
       spreadMethod="pad"
       gradientTransform="matrix(-188.28767,188.39421,130.38168,130.30179,255.92499,255.99377)"
       gradientUnits="userSpaceOnUse"
       r="1"
       cy="0"
       cx="0"
       fy="0"
       fx="0"><stop
         id="stop182"
         offset="0"
         style="stop-opacity:1;stop-color:#010101" /><stop
         id="stop184"
         offset="0.8587"
         style="stop-opacity:1;stop-color:#010101" /><stop
         id="stop186"
         offset="1"
         style="stop-opacity:1;stop-color:#010101" /></radialGradient><linearGradient
       id="linearGradient218"
       spreadMethod="pad"
       gradientTransform="matrix(0,460,460,0,256,26)"
       gradientUnits="userSpaceOnUse"
       y2="0"
       x2="1"
       y1="0"
       x1="0"><stop
         id="stop220"
         offset="0"
         style="stop-opacity:1;stop-color:#d7cfc4" /><stop
         id="stop222"
         offset="1"
         style="stop-opacity:1;stop-color:#e3dcc9" /></linearGradient><clipPath
       id="clipPath230"
       clipPathUnits="userSpaceOnUse"><path
         id="path232"
         d="M 0,512 512,512 512,0 0,0 0,512 Z" /></clipPath><clipPath
       id="clipPath254"
       clipPathUnits="userSpaceOnUse"><path
         id="path256"
         d="m 408.013,452.325 9.926,0 0,-392.6497 -9.926,0 0,392.6497 z" /></clipPath><clipPath
       id="clipPath258"
       clipPathUnits="userSpaceOnUse"><path
         id="path260"
         d="m 408.013,59.675 c 3.458,2.018 6.778,4.119 9.926,6.319 l 0,380.012 c -3.148,2.2 -6.468,4.301 -9.926,6.319 l 0,-392.65 z" /></clipPath><linearGradient
       id="linearGradient266"
       spreadMethod="pad"
       gradientTransform="matrix(9.9259644,0,0,-9.9259644,408.01282,256)"
       gradientUnits="userSpaceOnUse"
       y2="0"
       x2="1"
       y1="0"
       x1="0"><stop
         id="stop268"
         offset="0"
         style="stop-opacity:1;stop-color:#ffffff" /><stop
         id="stop270"
         offset="1"
         style="stop-opacity:0;stop-color:#ffffff" /></linearGradient><mask
       id="mask272"
       height="1"
       width="1"
       y="0"
       x="0"
       maskUnits="userSpaceOnUse"><g
         id="g274"><g
           id="g276"><g
             id="g278"><g
               id="g280"><path
                 id="path282"
                 style="fill:url(#linearGradient266);stroke:none"
                 d="m -32768,32767 65535,0 0,-65535 -65535,0 0,65535 z" /></g></g></g></g></mask><linearGradient
       id="linearGradient284"
       spreadMethod="pad"
       gradientTransform="matrix(9.9259644,0,0,-9.9259644,408.01282,256)"
       gradientUnits="userSpaceOnUse"
       y2="0"
       x2="1"
       y1="0"
       x1="0"><stop
         id="stop286"
         offset="0"
         style="stop-opacity:1;stop-color:#000000" /><stop
         id="stop288"
         offset="1"
         style="stop-opacity:1;stop-color:#000000" /></linearGradient><clipPath
       id="clipPath312"
       clipPathUnits="userSpaceOnUse"><path
         id="path314"
         d="m 407.888,374.183 78.112,0 0,-224.751 -78.112,0 0,224.751 z" /></clipPath><clipPath
       id="clipPath316"
       clipPathUnits="userSpaceOnUse"><path
         id="path318"
         d="m 467.718,374.183 -59.83,0 0.001,-12.21 63.793,0 c -1.242,4.158 -2.56,8.234 -3.964,12.21" /></clipPath><linearGradient
       id="linearGradient324"
       spreadMethod="pad"
       gradientTransform="matrix(0,10.972127,10.972127,0,439.7847,362.74429)"
       gradientUnits="userSpaceOnUse"
       y2="0"
       x2="1"
       y1="0"
       x1="0"><stop
         id="stop326"
         offset="0"
         style="stop-opacity:0.4;stop-color:#ffffff" /><stop
         id="stop328"
         offset="1"
         style="stop-opacity:0;stop-color:#ffffff" /></linearGradient><mask
       id="mask330"
       height="1"
       width="1"
       y="0"
       x="0"
       maskUnits="userSpaceOnUse"><g
         id="g332"><g
           id="g334"><g
             id="g336"><g
               id="g338"><path
                 id="path340"
                 style="fill:url(#linearGradient324);stroke:none"
                 d="m -32768,32767 65535,0 0,-65535 -65535,0 0,65535 z" /></g></g></g></g></mask><linearGradient
       id="linearGradient342"
       spreadMethod="pad"
       gradientTransform="matrix(0,10.972127,10.972127,0,439.7847,362.74429)"
       gradientUnits="userSpaceOnUse"
       y2="0"
       x2="1"
       y1="0"
       x1="0"><stop
         id="stop344"
         offset="0"
         style="stop-opacity:1;stop-color:#000000" /><stop
         id="stop346"
         offset="1"
         style="stop-opacity:1;stop-color:#000000" /></linearGradient><clipPath
       id="clipPath348"
       clipPathUnits="userSpaceOnUse"><path
         id="path350"
         d="m 485.819,268.24 -77.93,0 0,-12.211 78.111,0 c 0,4.072 -0.065,8.145 -0.181,12.211" /></clipPath><linearGradient
       id="linearGradient356"
       spreadMethod="pad"
       gradientTransform="matrix(0,10.352402,10.352402,0,446.94427,257.46793)"
       gradientUnits="userSpaceOnUse"
       y2="0"
       x2="1"
       y1="0"
       x1="0"><stop
         id="stop358"
         offset="0"
         style="stop-opacity:0.4;stop-color:#ffffff" /><stop
         id="stop360"
         offset="1"
         style="stop-opacity:0;stop-color:#ffffff" /></linearGradient><mask
       id="mask362"
       height="1"
       width="1"
       y="0"
       x="0"
       maskUnits="userSpaceOnUse"><g
         id="g364"><g
           id="g366"><g
             id="g368"><g
               id="g370"><path
                 id="path372"
                 style="fill:url(#linearGradient356);stroke:none"
                 d="m -32768,32767 65535,0 0,-65535 -65535,0 0,65535 z" /></g></g></g></g></mask><linearGradient
       id="linearGradient374"
       spreadMethod="pad"
       gradientTransform="matrix(0,10.352402,10.352402,0,446.94427,257.46793)"
       gradientUnits="userSpaceOnUse"
       y2="0"
       x2="1"
       y1="0"
       x1="0"><stop
         id="stop376"
         offset="0"
         style="stop-opacity:1;stop-color:#000000" /><stop
         id="stop378"
         offset="1"
         style="stop-opacity:1;stop-color:#000000" /></linearGradient><clipPath
       id="clipPath380"
       clipPathUnits="userSpaceOnUse"><path
         id="path382"
         d="m 474.886,161.643 -66.997,0 0,-12.211 63.617,0 c 1.202,3.993 2.327,8.067 3.38,12.211" /></clipPath><linearGradient
       id="linearGradient388"
       spreadMethod="pad"
       gradientTransform="matrix(0,11.896606,11.896606,0,441.38733,149.87027)"
       gradientUnits="userSpaceOnUse"
       y2="0"
       x2="1"
       y1="0"
       x1="0"><stop
         id="stop390"
         offset="0"
         style="stop-opacity:0.4;stop-color:#ffffff" /><stop
         id="stop392"
         offset="1"
         style="stop-opacity:0;stop-color:#ffffff" /></linearGradient><mask
       id="mask394"
       height="1"
       width="1"
       y="0"
       x="0"
       maskUnits="userSpaceOnUse"><g
         id="g396"><g
           id="g398"><g
             id="g400"><g
               id="g402"><path
                 id="path404"
                 style="fill:url(#linearGradient388);stroke:none"
                 d="m -32768,32767 65535,0 0,-65535 -65535,0 0,65535 z" /></g></g></g></g></mask><linearGradient
       id="linearGradient406"
       spreadMethod="pad"
       gradientTransform="matrix(0,11.896606,11.896606,0,441.38733,149.87027)"
       gradientUnits="userSpaceOnUse"
       y2="0"
       x2="1"
       y1="0"
       x1="0"><stop
         id="stop408"
         offset="0"
         style="stop-opacity:1;stop-color:#000000" /><stop
         id="stop410"
         offset="1"
         style="stop-opacity:1;stop-color:#000000" /></linearGradient></defs><g
     transform="matrix(1.25,0,0,-1.25,0,640)"
     id="g10"><g
       id="g12"><g
         clip-path="url(#clipPath16)"
         id="g14"><g
           id="g20"><g
             id="g22" /><g
             id="g64"><g
               style="opacity:0.39999402"
               id="g66"
               clip-path="url(#clipPath24)"><g
                 id="g68"><g
                   id="g70"
                   clip-path="url(#clipPath28)"><g
                     id="g72"><g
                       id="g74" /><g
                       id="g76"
                       mask="url(#mask44)"><g
                         id="g78"><path
                           id="path80"
                           style="fill:url(#radialGradient56);stroke:none"
                           d="M 448.99,63.029 C 389.293,3.332 122.807,3.332 63.11,63.029 3.413,122.726 3.413,389.312 63.01,449.009 c 59.597,59.696 326.283,59.596 385.98,0 59.697,-59.597 59.597,-326.283 0,-385.98" /></g></g></g></g></g></g></g></g><g
           id="g82"><g
             id="g84" /><g
             id="g126"><g
               style="opacity:0.39999402"
               id="g128"
               clip-path="url(#clipPath86)"><g
                 id="g130"><g
                   id="g132"
                   clip-path="url(#clipPath90)"><g
                     id="g134"><g
                       id="g136" /><g
                       id="g138"
                       mask="url(#mask106)"><g
                         id="g140"><path
                           id="path142"
                           style="fill:url(#radialGradient118);stroke:none"
                           d="M 448.99,63.029 C 389.293,3.332 122.807,3.332 63.11,63.029 3.413,122.726 3.413,389.312 63.01,449.009 c 59.597,59.696 326.283,59.596 385.98,0 59.697,-59.597 59.597,-326.283 0,-385.98" /></g></g></g></g></g></g></g></g><g
           id="g144"><g
             id="g146" /><g
             id="g188"><g
               style="opacity:0.39999402"
               id="g190"
               clip-path="url(#clipPath148)"><g
                 id="g192"><g
                   id="g194"
                   clip-path="url(#clipPath152)"><g
                     id="g196"><g
                       id="g198" /><g
                       id="g200"
                       mask="url(#mask168)"><g
                         id="g202"><path
                           id="path204"
                           style="fill:url(#radialGradient180);stroke:none"
                           d="m 63.01,63.029 c 59.697,-59.697 326.183,-59.697 385.88,0 59.697,59.697 59.697,326.183 0,385.88 -59.697,59.696 -326.183,59.696 -385.88,0.1 -59.697,-59.597 -59.597,-326.283 0,-385.98" /></g></g></g></g></g></g></g></g></g></g><g
       id="g206"><g
         id="g208"><g
           id="g214"><g
             id="g216"><path
               id="path224"
               style="fill:url(#linearGradient218);stroke:none"
               d="M 78.721,433.279 C 8.427,362.985 8.427,149.015 78.721,78.721 l 0,0 c 70.294,-70.294 284.264,-70.294 354.558,0 l 0,0 c 70.294,70.294 70.294,284.264 0,354.558 l 0,0 C 398.132,468.426 327.066,486 256,486 l 0,0 C 184.934,486 113.868,468.426 78.721,433.279" /></g></g></g></g><g
       id="g226"><g
         clip-path="url(#clipPath230)"
         id="g228"><g
           transform="translate(408.0128,59.6753)"
           id="g234"><path
             id="path236"
             style="fill:#2d98e0;fill-opacity:1;fill-rule:nonzero;stroke:none"
             d="M 0,0 C 9.671,5.643 18.204,11.983 25.266,19.045 41.991,35.77 54.727,60.636 63.493,89.756 L 0,89.756 0,0 Z" /></g><g
           transform="translate(485.9977,255.7016)"
           id="g238"><path
             id="path240"
             style="fill:#51d88b;fill-opacity:1;fill-rule:nonzero;stroke:none"
             d="m 0,0 -77.985,0 0,-106.071 63.552,0 C -4.842,-74.124 -0.026,-37.074 0,0" /></g><g
           transform="translate(471.6816,361.9726)"
           id="g242"><path
             id="path244"
             style="fill:#f1c50e;fill-opacity:1;fill-rule:nonzero;stroke:none"
             d="m 0,0 -63.669,0 0,-106.071 77.987,0 C 14.326,-69.017 9.546,-31.971 0,0" /></g><g
           transform="translate(433.2792,433.2792)"
           id="g246"><path
             id="path248"
             style="fill:#e84c3d;fill-opacity:1;fill-rule:nonzero;stroke:none"
             d="m 0,0 c -7.062,7.062 -15.595,13.402 -25.266,19.045 l 0,-90.153 63.61,0 C 29.574,-41.818 16.8,-16.8 0,0" /></g><g
           id="g250"><g
             id="g252" /><g
             id="g290"><g
               style="opacity:0.25"
               id="g292"
               clip-path="url(#clipPath254)"><g
                 id="g294"><g
                   id="g296"
                   clip-path="url(#clipPath258)"><g
                     id="g298"><g
                       id="g300" /><g
                       id="g302"
                       mask="url(#mask272)"><g
                         id="g304"><path
                           id="path306"
                           style="fill:url(#linearGradient284);stroke:none"
                           d="m 408.013,59.675 c 3.458,2.018 6.778,4.119 9.926,6.319 l 0,380.012 c -3.148,2.2 -6.468,4.301 -9.926,6.319 l 0,-392.65 z" /></g></g></g></g></g></g></g></g><g
           id="g308"><g
             id="g310" /><g
             id="g412"><g
               style="opacity:0.30000299"
               id="g414"
               clip-path="url(#clipPath312)"><g
                 id="g416"><g
                   id="g418"
                   clip-path="url(#clipPath316)"><g
                     id="g420"><g
                       id="g422" /><g
                       id="g424"
                       mask="url(#mask330)"><g
                         id="g426"><path
                           id="path428"
                           style="fill:url(#linearGradient342);stroke:none"
                           d="m 467.718,374.183 -59.83,0 0.001,-12.21 63.793,0 c -1.242,4.158 -2.56,8.234 -3.964,12.21" /></g></g></g></g></g><g
                 id="g430"><g
                   id="g432"
                   clip-path="url(#clipPath348)"><g
                     id="g434"><g
                       id="g436" /><g
                       id="g438"
                       mask="url(#mask362)"><g
                         id="g440"><path
                           id="path442"
                           style="fill:url(#linearGradient374);stroke:none"
                           d="m 485.819,268.24 -77.93,0 0,-12.211 78.111,0 c 0,4.072 -0.065,8.145 -0.181,12.211" /></g></g></g></g></g><g
                 id="g444"><g
                   id="g446"
                   clip-path="url(#clipPath380)"><g
                     id="g448"><g
                       id="g450" /><g
                       id="g452"
                       mask="url(#mask394)"><g
                         id="g454"><path
                           id="path456"
                           style="fill:url(#linearGradient406);stroke:none"
                           d="m 474.886,161.643 -66.997,0 0,-12.211 63.617,0 c 1.202,3.993 2.327,8.067 3.38,12.211" /></g></g></g></g></g></g></g></g><g
           transform="translate(394.1045,440.397)"
           id="g458"><path
             id="path460"
             style="fill:#8c8c8c;fill-opacity:1;fill-rule:nonzero;stroke:none"
             d="m 0,0 c -1.933,0 -3.5,1.567 -3.5,3.5 l 0,6 c 0,1.933 1.567,3.5 3.5,3.5 1.933,0 3.5,-1.567 3.5,-3.5 l 0,-6 C 3.5,1.567 1.933,0 0,0" /></g><g
           transform="translate(394.1045,416.1519)"
           id="g462"><path
             id="path464"
             style="fill:#8c8c8c;fill-opacity:1;fill-rule:nonzero;stroke:none"
             d="m 0,0 c -1.933,0 -3.5,1.567 -3.5,3.5 l 0,12.123 c 0,1.933 1.567,3.5 3.5,3.5 1.933,0 3.5,-1.567 3.5,-3.5 L 3.5,3.5 C 3.5,1.567 1.933,0 0,0 m 0,-24.245 c -1.933,0 -3.5,1.567 -3.5,3.5 l 0,12.123 c 0,1.933 1.567,3.5 3.5,3.5 1.933,0 3.5,-1.567 3.5,-3.5 l 0,-12.123 c 0,-1.933 -1.567,-3.5 -3.5,-3.5 m 0,-24.244 c -1.933,0 -3.5,1.567 -3.5,3.5 l 0,12.122 c 0,1.933 1.567,3.5 3.5,3.5 1.933,0 3.5,-1.567 3.5,-3.5 l 0,-12.122 c 0,-1.933 -1.567,-3.5 -3.5,-3.5 m 0,-24.245 c -1.933,0 -3.5,1.567 -3.5,3.5 l 0,12.122 c 0,1.933 1.567,3.5 3.5,3.5 1.933,0 3.5,-1.567 3.5,-3.5 l 0,-12.122 c 0,-1.933 -1.567,-3.5 -3.5,-3.5 m 0,-24.245 c -1.933,0 -3.5,1.567 -3.5,3.5 l 0,12.123 c 0,1.933 1.567,3.5 3.5,3.5 1.933,0 3.5,-1.567 3.5,-3.5 l 0,-12.123 c 0,-1.933 -1.567,-3.5 -3.5,-3.5 m 0,-24.245 c -1.933,0 -3.5,1.567 -3.5,3.5 l 0,12.123 c 0,1.933 1.567,3.5 3.5,3.5 1.933,0 3.5,-1.567 3.5,-3.5 l 0,-12.123 c 0,-1.933 -1.567,-3.5 -3.5,-3.5 m 0,-24.244 c -1.933,0 -3.5,1.567 -3.5,3.5 l 0,12.122 c 0,1.933 1.567,3.5 3.5,3.5 1.933,0 3.5,-1.567 3.5,-3.5 l 0,-12.122 c 0,-1.933 -1.567,-3.5 -3.5,-3.5 m 0,-24.245 c -1.933,0 -3.5,1.567 -3.5,3.5 l 0,12.122 c 0,1.933 1.567,3.5 3.5,3.5 1.933,0 3.5,-1.567 3.5,-3.5 l 0,-12.122 c 0,-1.933 -1.567,-3.5 -3.5,-3.5 m 0,-24.245 c -1.933,0 -3.5,1.568 -3.5,3.5 l 0,12.123 c 0,1.932 1.567,3.5 3.5,3.5 1.933,0 3.5,-1.568 3.5,-3.5 l 0,-12.123 c 0,-1.932 -1.567,-3.5 -3.5,-3.5 m 0,-24.245 c -1.933,0 -3.5,1.568 -3.5,3.5 l 0,12.122 c 0,1.933 1.567,3.5 3.5,3.5 1.933,0 3.5,-1.567 3.5,-3.5 l 0,-12.122 c 0,-1.932 -1.567,-3.5 -3.5,-3.5 m 0,-24.245 c -1.933,0 -3.5,1.568 -3.5,3.5 l 0,12.123 c 0,1.933 1.567,3.5 3.5,3.5 1.933,0 3.5,-1.567 3.5,-3.5 l 0,-12.123 c 0,-1.932 -1.567,-3.5 -3.5,-3.5 m 0,-24.244 c -1.933,0 -3.5,1.567 -3.5,3.5 l 0,12.122 c 0,1.933 1.567,3.5 3.5,3.5 1.933,0 3.5,-1.567 3.5,-3.5 l 0,-12.122 c 0,-1.933 -1.567,-3.5 -3.5,-3.5 m 0,-24.245 c -1.933,0 -3.5,1.567 -3.5,3.5 l 0,12.122 c 0,1.933 1.567,3.5 3.5,3.5 1.933,0 3.5,-1.567 3.5,-3.5 l 0,-12.122 c 0,-1.933 -1.567,-3.5 -3.5,-3.5 m 0,-24.245 c -1.933,0 -3.5,1.567 -3.5,3.5 l 0,12.123 c 0,1.933 1.567,3.5 3.5,3.5 1.933,0 3.5,-1.567 3.5,-3.5 l 0,-12.123 c 0,-1.933 -1.567,-3.5 -3.5,-3.5 m 0,-24.244 c -1.933,0 -3.5,1.567 -3.5,3.5 l 0,12.122 c 0,1.932 1.567,3.5 3.5,3.5 1.933,0 3.5,-1.568 3.5,-3.5 l 0,-12.122 c 0,-1.933 -1.567,-3.5 -3.5,-3.5" /></g><g
           transform="translate(394.1045,58.6035)"
           id="g466"><path
             id="path468"
             style="fill:#8c8c8c;fill-opacity:1;fill-rule:nonzero;stroke:none"
             d="m 0,0 c -1.933,0 -3.5,1.567 -3.5,3.5 l 0,6 c 0,1.933 1.567,3.5 3.5,3.5 1.933,0 3.5,-1.567 3.5,-3.5 l 0,-6 C 3.5,1.567 1.933,0 0,0" /></g></g></g></g></svg>