<?xml version="1.0" encoding="UTF-8" standalone="no"?>
<svg
   xmlns:dc="http://purl.org/dc/elements/1.1/"
   xmlns:cc="http://creativecommons.org/ns#"
   xmlns:rdf="http://www.w3.org/1999/02/22-rdf-syntax-ns#"
   xmlns:svg="http://www.w3.org/2000/svg"
   xmlns="http://www.w3.org/2000/svg"
   viewBox="0 0 640 640"
   height="640"
   width="640"
   xml:space="preserve"
   version="1.1"
   id="svg2"><metadata
     id="metadata8"><rdf:RDF><cc:Work
         rdf:about=""><dc:format>image/svg+xml</dc:format><dc:type
           rdf:resource="http://purl.org/dc/dcmitype/StillImage" /></cc:Work></rdf:RDF></metadata><defs
     id="defs6"><clipPath
       id="clipPath16"
       clipPathUnits="userSpaceOnUse"><path
         id="path18"
         d="M 0,512 512,512 512,0 0,0 0,512 Z" /></clipPath><clipPath
       id="clipPath24"
       clipPathUnits="userSpaceOnUse"><path
         id="path26"
         d="m 18.275,493.725 475.45,0 0,-475.45 -475.45,0 0,475.45 z" /></clipPath><clipPath
       id="clipPath40"
       clipPathUnits="userSpaceOnUse"><path
         id="path42"
         d="M 78.721,433.279 C 8.427,362.985 8.427,149.015 78.721,78.721 l 0,0 c 70.294,-70.294 284.264,-70.294 354.558,0 l 0,0 c 70.294,70.294 70.294,284.264 0,354.558 l 0,0 C 398.132,468.426 327.066,486 256,486 l 0,0 C 184.934,486 113.868,468.426 78.721,433.279" /></clipPath><linearGradient
       id="linearGradient48"
       spreadMethod="pad"
       gradientTransform="matrix(0,460,460,0,256,26)"
       gradientUnits="userSpaceOnUse"
       y2="0"
       x2="1"
       y1="0"
       x1="0"><stop
         id="stop50"
         offset="0"
         style="stop-opacity:1;stop-color:#bf2026" /><stop
         id="stop52"
         offset="1"
         style="stop-opacity:1;stop-color:#e42f28" /></linearGradient><clipPath
       id="clipPath60"
       clipPathUnits="userSpaceOnUse"><path
         id="path62"
         d="M 0,512 512,512 512,0 0,0 0,512 Z" /></clipPath><clipPath
       id="clipPath72"
       clipPathUnits="userSpaceOnUse"><path
         id="path74"
         d="m 230.609,255.835 c -5.149,-19.216 6.26,-38.976 25.476,-44.125 l 0,0 c 19.224,-5.151 38.976,6.26 44.127,25.478 l 0,0 c 5.151,19.218 -6.253,38.972 -25.478,44.125 l 0,0 c -3.121,0.836 -6.259,1.236 -9.343,1.236 l 0,0 c -15.908,0.001 -30.466,-10.617 -34.782,-26.714" /></clipPath><linearGradient
       id="linearGradient80"
       spreadMethod="pad"
       gradientTransform="matrix(0,-330.05011,-330.05011,0,265.41101,418.31137)"
       gradientUnits="userSpaceOnUse"
       y2="0"
       x2="1"
       y1="0"
       x1="0"><stop
         id="stop82"
         offset="0"
         style="stop-opacity:1;stop-color:#bf2026" /><stop
         id="stop84"
         offset="1"
         style="stop-opacity:1;stop-color:#e42f28" /></linearGradient></defs><g
     transform="matrix(1.25,0,0,-1.25,0,640)"
     id="g10"><g
       id="g12"><g
         clip-path="url(#clipPath16)"
         id="g14"><g
           id="g20"><g
             id="g22" /><g
             id="g28"><g
               style="opacity:0.39999402"
               id="g30"
               clip-path="url(#clipPath24)"><g
                 id="g32"
                 transform="translate(448.9641,63.0359)"><path
                   id="path34"
                   style="fill:#ffffff;fill-opacity:1;fill-rule:nonzero;stroke:none"
                   d="m 0,0 c -59.681,-59.681 -326.247,-59.681 -385.928,0 -59.681,59.681 -59.681,326.247 0,385.928 59.681,59.681 326.247,59.681 385.928,0 C 59.681,326.247 59.681,59.681 0,0" /></g></g></g></g></g></g><g
       id="g36"><g
         clip-path="url(#clipPath40)"
         id="g38"><g
           id="g44"><g
             id="g46"><path
               id="path54"
               style="fill:url(#linearGradient48);stroke:none"
               d="M 78.721,433.279 C 8.427,362.985 8.427,149.015 78.721,78.721 l 0,0 c 70.294,-70.294 284.264,-70.294 354.558,0 l 0,0 c 70.294,70.294 70.294,284.264 0,354.558 l 0,0 C 398.132,468.426 327.066,486 256,486 l 0,0 C 184.934,486 113.868,468.426 78.721,433.279" /></g></g></g></g><g
       id="g56"><g
         clip-path="url(#clipPath60)"
         id="g58"><g
           transform="translate(345.2802,218.3641)"
           id="g64"><path
             id="path66"
             style="fill:#ffffff;fill-opacity:1;fill-rule:nonzero;stroke:none"
             d="m 0,0 c -0.569,0.771 -1.471,1.853 -2.486,2.894 -10.561,10.837 -18.448,23.633 -22.697,37.806 -0.196,0.658 -0.39,1.317 -0.565,1.978 -0.183,0.665 -0.342,1.344 -0.506,2.018 -3.401,14.391 -2.985,29.423 0.759,44.082 0,0 0.571,2.42 0.718,3.417 3.147,18.522 -8.256,36.729 -26.756,41.689 -18.862,5.053 -38.194,-5.524 -44.361,-23.767 -0.255,-0.68 -0.775,-2.4 -0.78,-2.426 -4.054,-14.37 -11.098,-27.416 -21.05,-38.096 -11.305,-11.867 -25.677,-20.304 -41.79,-24.62 -19.628,-5.259 -31.29,-25.471 -26.029,-45.106 5.268,-19.633 25.448,-31.294 45.09,-26.028 14.656,3.742 29.689,4.166 44.084,0.767 0.672,-0.167 1.346,-0.333 2.014,-0.514 0.671,-0.179 1.336,-0.374 2,-0.563 14.168,-4.253 26.977,-12.136 37.798,-22.702 1.33,-1.331 2.478,-2.269 3.551,-3.027 14.547,-11.086 35.246,-10.236 48.51,3.027 C 10.967,-35.716 11.747,-14.458 0,0" /></g></g></g><g
       id="g68"><g
         clip-path="url(#clipPath72)"
         id="g70"><g
           id="g76"><g
             id="g78"><path
               id="path86"
               style="fill:url(#linearGradient80);stroke:none"
               d="m 230.609,255.835 c -5.149,-19.216 6.26,-38.976 25.476,-44.125 l 0,0 c 19.224,-5.151 38.976,6.26 44.127,25.478 l 0,0 c 5.151,19.218 -6.253,38.972 -25.478,44.125 l 0,0 c -3.121,0.836 -6.259,1.236 -9.343,1.236 l 0,0 c -15.908,0.001 -30.466,-10.617 -34.782,-26.714" /></g></g></g></g></g></svg>