<?xml version="1.0" encoding="UTF-8" standalone="no"?>
<svg
   xmlns:dc="http://purl.org/dc/elements/1.1/"
   xmlns:cc="http://creativecommons.org/ns#"
   xmlns:rdf="http://www.w3.org/1999/02/22-rdf-syntax-ns#"
   xmlns:svg="http://www.w3.org/2000/svg"
   xmlns="http://www.w3.org/2000/svg"
   viewBox="0 0 640 640"
   height="640"
   width="640"
   xml:space="preserve"
   version="1.1"
   id="svg2"><metadata
     id="metadata8"><rdf:RDF><cc:Work
         rdf:about=""><dc:format>image/svg+xml</dc:format><dc:type
           rdf:resource="http://purl.org/dc/dcmitype/StillImage" /></cc:Work></rdf:RDF></metadata><defs
     id="defs6"><clipPath
       id="clipPath16"
       clipPathUnits="userSpaceOnUse"><path
         id="path18"
         d="M 0,512 512,512 512,0 0,0 0,512 Z" /></clipPath><clipPath
       id="clipPath24"
       clipPathUnits="userSpaceOnUse"><path
         id="path26"
         d="m 18.325,493.744 475.4,0 0,-475.4877 -475.4,0 0,475.4877 z" /></clipPath><clipPath
       id="clipPath28"
       clipPathUnits="userSpaceOnUse"><path
         id="path30"
         d="M 448.99,63.029 C 389.293,3.332 122.807,3.332 63.11,63.029 3.413,122.726 3.413,389.312 63.01,449.009 c 59.597,59.696 326.283,59.596 385.98,0 59.697,-59.597 59.597,-326.283 0,-385.98" /></clipPath><radialGradient
       id="radialGradient36"
       spreadMethod="pad"
       gradientTransform="matrix(237.72188,0,0,237.72188,256.02499,256)"
       gradientUnits="userSpaceOnUse"
       r="1"
       cy="0"
       cx="0"
       fy="0"
       fx="0"><stop
         id="stop38"
         offset="0"
         style="stop-opacity:1;stop-color:#ffffff" /><stop
         id="stop40"
         offset="0.8587"
         style="stop-opacity:0.14129854;stop-color:#ffffff" /><stop
         id="stop42"
         offset="1"
         style="stop-opacity:0;stop-color:#ffffff" /></radialGradient><mask
       id="mask44"
       height="1"
       width="1"
       y="0"
       x="0"
       maskUnits="userSpaceOnUse"><g
         id="g46"><g
           id="g48"><g
             id="g50"><g
               id="g52"><path
                 id="path54"
                 style="fill:url(#radialGradient36);stroke:none"
                 d="m -32768,32767 65535,0 0,-65535 -65535,0 0,65535 z" /></g></g></g></g></mask><radialGradient
       id="radialGradient56"
       spreadMethod="pad"
       gradientTransform="matrix(237.72188,0,0,237.72188,256.02499,256)"
       gradientUnits="userSpaceOnUse"
       r="1"
       cy="0"
       cx="0"
       fy="0"
       fx="0"><stop
         id="stop58"
         offset="0"
         style="stop-opacity:1;stop-color:#010101" /><stop
         id="stop60"
         offset="0.8587"
         style="stop-opacity:1;stop-color:#010101" /><stop
         id="stop62"
         offset="1"
         style="stop-opacity:1;stop-color:#010101" /></radialGradient><clipPath
       id="clipPath86"
       clipPathUnits="userSpaceOnUse"><path
         id="path88"
         d="m 18.325,493.744 475.4,0 0,-475.4877 -475.4,0 0,475.4877 z" /></clipPath><clipPath
       id="clipPath90"
       clipPathUnits="userSpaceOnUse"><path
         id="path92"
         d="M 448.99,63.029 C 389.293,3.332 122.807,3.332 63.11,63.029 3.413,122.726 3.413,389.312 63.01,449.009 c 59.597,59.696 326.283,59.596 385.98,0 59.697,-59.597 59.597,-326.283 0,-385.98" /></clipPath><radialGradient
       id="radialGradient98"
       spreadMethod="pad"
       gradientTransform="matrix(188.25467,188.36119,-130.35883,130.27895,256.02499,256.04376)"
       gradientUnits="userSpaceOnUse"
       r="1"
       cy="0"
       cx="0"
       fy="0"
       fx="0"><stop
         id="stop100"
         offset="0"
         style="stop-opacity:1;stop-color:#ffffff" /><stop
         id="stop102"
         offset="0.8587"
         style="stop-opacity:0.14129854;stop-color:#ffffff" /><stop
         id="stop104"
         offset="1"
         style="stop-opacity:0;stop-color:#ffffff" /></radialGradient><mask
       id="mask106"
       height="1"
       width="1"
       y="0"
       x="0"
       maskUnits="userSpaceOnUse"><g
         id="g108"><g
           id="g110"><g
             id="g112"><g
               id="g114"><path
                 id="path116"
                 style="fill:url(#radialGradient98);stroke:none"
                 d="m -32768,32767 65535,0 0,-65535 -65535,0 0,65535 z" /></g></g></g></g></mask><radialGradient
       id="radialGradient118"
       spreadMethod="pad"
       gradientTransform="matrix(188.25467,188.36119,-130.35883,130.27895,256.02499,256.04376)"
       gradientUnits="userSpaceOnUse"
       r="1"
       cy="0"
       cx="0"
       fy="0"
       fx="0"><stop
         id="stop120"
         offset="0"
         style="stop-opacity:1;stop-color:#010101" /><stop
         id="stop122"
         offset="0.8587"
         style="stop-opacity:1;stop-color:#010101" /><stop
         id="stop124"
         offset="1"
         style="stop-opacity:1;stop-color:#010101" /></radialGradient><clipPath
       id="clipPath148"
       clipPathUnits="userSpaceOnUse"><path
         id="path150"
         d="m 18.275,493.694 475.387,0 0,-475.4377 -475.387,0 0,475.4377 z" /></clipPath><clipPath
       id="clipPath152"
       clipPathUnits="userSpaceOnUse"><path
         id="path154"
         d="m 63.01,63.029 c 59.697,-59.697 326.183,-59.697 385.88,0 59.697,59.697 59.697,326.183 0,385.88 -59.697,59.696 -326.183,59.696 -385.88,0.1 -59.697,-59.597 -59.597,-326.283 0,-385.98" /></clipPath><radialGradient
       id="radialGradient160"
       spreadMethod="pad"
       gradientTransform="matrix(-188.28767,188.39421,130.38168,130.30179,255.92499,255.99377)"
       gradientUnits="userSpaceOnUse"
       r="1"
       cy="0"
       cx="0"
       fy="0"
       fx="0"><stop
         id="stop162"
         offset="0"
         style="stop-opacity:1;stop-color:#ffffff" /><stop
         id="stop164"
         offset="0.8587"
         style="stop-opacity:0.14129854;stop-color:#ffffff" /><stop
         id="stop166"
         offset="1"
         style="stop-opacity:0;stop-color:#ffffff" /></radialGradient><mask
       id="mask168"
       height="1"
       width="1"
       y="0"
       x="0"
       maskUnits="userSpaceOnUse"><g
         id="g170"><g
           id="g172"><g
             id="g174"><g
               id="g176"><path
                 id="path178"
                 style="fill:url(#radialGradient160);stroke:none"
                 d="m -32768,32767 65535,0 0,-65535 -65535,0 0,65535 z" /></g></g></g></g></mask><radialGradient
       id="radialGradient180"
       spreadMethod="pad"
       gradientTransform="matrix(-188.28767,188.39421,130.38168,130.30179,255.92499,255.99377)"
       gradientUnits="userSpaceOnUse"
       r="1"
       cy="0"
       cx="0"
       fy="0"
       fx="0"><stop
         id="stop182"
         offset="0"
         style="stop-opacity:1;stop-color:#010101" /><stop
         id="stop184"
         offset="0.8587"
         style="stop-opacity:1;stop-color:#010101" /><stop
         id="stop186"
         offset="1"
         style="stop-opacity:1;stop-color:#010101" /></radialGradient><radialGradient
       id="radialGradient250"
       spreadMethod="pad"
       gradientTransform="matrix(133.23561,0,0,-133.23561,256,351.19052)"
       gradientUnits="userSpaceOnUse"
       r="1"
       cy="0"
       cx="0"
       fy="0"
       fx="0"><stop
         id="stop252"
         offset="0"
         style="stop-opacity:1;stop-color:#744720" /><stop
         id="stop254"
         offset="1"
         style="stop-opacity:1;stop-color:#30251c" /></radialGradient><radialGradient
       id="radialGradient270"
       spreadMethod="pad"
       gradientTransform="matrix(102.92303,0,0,-112.43541,258.25336,247.62877)"
       gradientUnits="userSpaceOnUse"
       r="1"
       cy="0"
       cx="0"
       fy="0"
       fx="0"><stop
         id="stop272"
         offset="0"
         style="stop-opacity:1;stop-color:#ffffff" /><stop
         id="stop274"
         offset="0.0193581"
         style="stop-opacity:1;stop-color:#ffffff" /><stop
         id="stop276"
         offset="0.20215935"
         style="stop-opacity:1;stop-color:#ffffff" /><stop
         id="stop278"
         offset="1"
         style="stop-opacity:1;stop-color:#babcbe" /></radialGradient><clipPath
       id="clipPath286"
       clipPathUnits="userSpaceOnUse"><path
         id="path288"
         d="M 0,512 512,512 512,0 0,0 0,512 Z" /></clipPath></defs><g
     transform="matrix(1.25,0,0,-1.25,0,640)"
     id="g10"><g
       id="g12"><g
         clip-path="url(#clipPath16)"
         id="g14"><g
           id="g20"><g
             id="g22" /><g
             id="g64"><g
               style="opacity:0.39999402"
               id="g66"
               clip-path="url(#clipPath24)"><g
                 id="g68"><g
                   id="g70"
                   clip-path="url(#clipPath28)"><g
                     id="g72"><g
                       id="g74" /><g
                       id="g76"
                       mask="url(#mask44)"><g
                         id="g78"><path
                           id="path80"
                           style="fill:url(#radialGradient56);stroke:none"
                           d="M 448.99,63.029 C 389.293,3.332 122.807,3.332 63.11,63.029 3.413,122.726 3.413,389.312 63.01,449.009 c 59.597,59.696 326.283,59.596 385.98,0 59.697,-59.597 59.597,-326.283 0,-385.98" /></g></g></g></g></g></g></g></g><g
           id="g82"><g
             id="g84" /><g
             id="g126"><g
               style="opacity:0.39999402"
               id="g128"
               clip-path="url(#clipPath86)"><g
                 id="g130"><g
                   id="g132"
                   clip-path="url(#clipPath90)"><g
                     id="g134"><g
                       id="g136" /><g
                       id="g138"
                       mask="url(#mask106)"><g
                         id="g140"><path
                           id="path142"
                           style="fill:url(#radialGradient118);stroke:none"
                           d="M 448.99,63.029 C 389.293,3.332 122.807,3.332 63.11,63.029 3.413,122.726 3.413,389.312 63.01,449.009 c 59.597,59.696 326.283,59.596 385.98,0 59.697,-59.597 59.597,-326.283 0,-385.98" /></g></g></g></g></g></g></g></g><g
           id="g144"><g
             id="g146" /><g
             id="g188"><g
               style="opacity:0.39999402"
               id="g190"
               clip-path="url(#clipPath148)"><g
                 id="g192"><g
                   id="g194"
                   clip-path="url(#clipPath152)"><g
                     id="g196"><g
                       id="g198" /><g
                       id="g200"
                       mask="url(#mask168)"><g
                         id="g202"><path
                           id="path204"
                           style="fill:url(#radialGradient180);stroke:none"
                           d="m 63.01,63.029 c 59.697,-59.697 326.183,-59.697 385.88,0 59.697,59.697 59.697,326.183 0,385.88 -59.697,59.696 -326.183,59.696 -385.88,0.1 -59.697,-59.597 -59.597,-326.283 0,-385.98" /></g></g></g></g></g></g></g></g><g
           transform="translate(433.2792,78.7208)"
           id="g206"><path
             id="path208"
             style="fill:#efcfac;fill-opacity:1;fill-rule:nonzero;stroke:none"
             d="m 0,0 c -70.294,-70.294 -284.264,-70.294 -354.558,0 -70.295,70.294 -70.295,284.264 0,354.558 70.294,70.295 284.264,70.295 354.558,0 C 70.294,284.264 70.294,70.294 0,0" /></g><g
           transform="translate(188.8392,365.8922)"
           id="g210"><path
             id="path212"
             style="fill:#ffffff;fill-opacity:1;fill-rule:nonzero;stroke:none"
             d="m 0,0 c -63.788,32.742 -95.515,1.961 -95.515,1.961 6.151,1.394 11.438,-1.883 14.434,-4.577 -4.05,-0.995 -5.846,-2.616 -5.846,-2.616 7.592,-0.161 10.247,-3.986 12.498,-9.584 0.12,-0.305 0.241,-0.609 0.358,-0.914 0.003,-0.008 0.007,-0.017 0.01,-0.025 0.132,-0.343 0.26,-0.685 0.388,-1.027 0.094,-0.252 0.187,-0.501 0.281,-0.759 0.005,-0.014 0.01,-0.025 0.015,-0.038 8.928,-24.28 9.359,-47.276 9.359,-47.276 1.602,-6.899 10.072,-9.476 15.245,-4.639 l 47.656,44.559 C 4.056,-20.098 6.301,-3.234 0,0" /></g><g
           transform="translate(132.8176,305.1784)"
           id="g214"><path
             id="path216"
             style="fill:#a36f2a;fill-opacity:1;fill-rule:nonzero;stroke:none"
             d="m 0,0 c -0.279,6.673 2.345,39.069 -16.581,61.625 0.271,0.034 30.074,10.053 68.093,-8.707 3.803,-1.175 6.643,-3.516 3.069,-8.8 L 9.114,2.723 C 8.909,2.532 1.639,-5.522 0,0" /></g><g
           transform="translate(323.1608,365.8922)"
           id="g218"><path
             id="path220"
             style="fill:#ffffff;fill-opacity:1;fill-rule:nonzero;stroke:none"
             d="M 0,0 C 63.788,32.742 95.515,1.961 95.515,1.961 89.364,3.355 84.077,0.078 81.082,-2.616 c 4.049,-0.995 5.845,-2.616 5.845,-2.616 -7.592,-0.161 -10.247,-3.986 -12.498,-9.584 -0.12,-0.305 -0.241,-0.609 -0.358,-0.914 -0.003,-0.008 -0.007,-0.017 -0.01,-0.025 -0.132,-0.343 -0.26,-0.685 -0.388,-1.027 -0.094,-0.252 -0.187,-0.501 -0.281,-0.759 -0.005,-0.014 -0.01,-0.025 -0.015,-0.038 -8.928,-24.28 -9.359,-47.276 -9.359,-47.276 -1.602,-6.899 -10.072,-9.476 -15.245,-4.639 L 1.117,-24.935 C -4.056,-20.098 -6.301,-3.234 0,0" /></g><g
           transform="translate(379.1823,305.1784)"
           id="g222"><path
             id="path224"
             style="fill:#a36f2a;fill-opacity:1;fill-rule:nonzero;stroke:none"
             d="m 0,0 c 0.279,6.673 -2.345,39.069 16.581,61.625 -0.271,0.034 -30.074,10.053 -68.093,-8.707 -3.803,-1.175 -6.643,-3.516 -3.069,-8.8 L -9.114,2.723 C -8.909,2.532 -1.639,-5.522 0,0" /></g><g
           transform="translate(296.9042,381.1517)"
           id="g226"><path
             id="path228"
             style="fill:#f6892e;fill-opacity:1;fill-rule:nonzero;stroke:none"
             d="m 0,0 c -19.703,1.107 -33.109,-12.291 -43.273,-12.291 -9.187,0 -20.187,13.433 -39.546,12.798 -66.36,-2.177 -212.199,-212.933 3.171,-234.071 2.263,-9.733 19.023,-17.268 38.703,-17.268 20.292,0 37.19,7.832 38.9,17.842 C 194.733,-209.039 74.016,-4.157 0,0" /></g><g
           transform="translate(295.013,151.5344)"
           id="g230"><path
             id="path232"
             style="fill:#ee2324;fill-opacity:1;fill-rule:nonzero;stroke:none"
             d="m 0,0 c 0,12.232 -19.022,-5.659 -40.569,-5.659 -21.546,0 -37.457,17.891 -37.457,5.659 0,-9.613 17.843,-16.548 39.013,-16.548 C -17.603,-16.548 0,-9.613 0,0" /></g><g
           transform="translate(417.0216,247.2783)"
           id="g234"><path
             id="path236"
             style="fill:#ffffff;fill-opacity:1;fill-rule:nonzero;stroke:none"
             d="m 0,0 c 18.88,0.216 31.476,-22.193 31.476,-22.193 -5.679,91.271 -96.475,64.297 -137.28,35.348 -2.272,4.547 -4.561,10.42 -6.251,16.616 0.268,2.601 0.82,5.013 1.738,7.12 4.38,10.057 17.705,4.953 17.705,4.953 -5.167,5.481 -10.154,8.418 -14.858,9.487 5.651,4.031 14.354,0.701 14.354,0.701 -6.014,6.38 -11.788,9.332 -17.152,9.879 5.579,5.055 15.191,1.378 15.191,1.378 -25.506,27.055 -46.701,-7.494 -50.538,-25.973 -2.246,-10.815 -3.073,-18.841 -0.008,-24.741 -0.013,-0.28 -0.008,-0.544 -0.014,-0.819 -4.842,1.59 -10.01,2.461 -15.385,2.461 -5.334,0 -10.465,-0.858 -15.276,-2.424 -0.006,0.365 -0.002,0.722 -0.019,1.098 3.065,5.9 2.238,13.926 -0.008,24.741 -3.837,18.479 -25.031,53.028 -50.538,25.973 0,0 9.612,3.677 15.191,-1.378 -5.363,-0.547 -11.138,-3.499 -17.152,-9.879 0,0 8.703,3.331 14.354,-0.701 -4.704,-1.069 -9.691,-4.006 -14.858,-9.486 0,0 13.325,5.104 17.705,-4.954 0.918,-2.107 1.47,-4.519 1.738,-7.12 -1.726,-6.327 -4.077,-12.318 -6.395,-16.903 -40.826,28.938 -131.562,55.863 -137.239,-35.377 0,0 12.596,22.409 31.476,22.193 -18.267,-10.467 -29.487,-30.751 -24.496,-65.954 0,0 8.014,25.137 27.068,28.226 -7.486,-11.621 -10.813,-27.911 -7.658,-50.167 0,0 7.255,22.762 24.373,27.631 -5.386,-11.133 -5.266,-28.014 7.234,-44.942 0,0 -0.907,34.859 26.248,27.539 4.363,-1.176 51.868,-21.837 76.491,4.864 8.581,-7.235 19.659,-11.602 31.761,-11.602 12.103,0 23.181,4.367 31.761,11.602 24.624,-26.701 72.129,-6.04 76.492,-4.864 27.155,7.32 24.247,-30.111 24.247,-30.111 13.409,10.5 14.621,36.381 9.234,47.514 17.119,-4.869 24.373,-27.631 24.373,-27.631 3.156,22.256 -0.171,38.546 -7.658,50.167 19.054,-3.089 27.068,-28.226 27.068,-28.226 C 29.486,-30.751 18.267,-10.467 0,0" /></g></g></g><g
       id="g238"><g
         id="g240"><g
           id="g246"><g
             id="g248"><path
               id="path256"
               style="fill:url(#radialGradient250);stroke:none"
               d="m 240.863,278.264 c 0.763,-2.916 -1.174,1.19 -7.017,5.295 l 0,0 c -4.758,3.345 -12.108,6.689 -22.698,6.24 l 0,0 c -29.039,-1.232 -57.59,-47.502 -57.59,-76.906 l 0,0 c 0,-56.577 65.3,-65.086 101.519,-65.086 l 0,0 c 36.218,0 103.365,8.509 103.365,65.086 l 0,0 c 0,30.27 -23.295,72.576 -52.922,75.895 l 0,0 c -13.645,1.529 -22.139,-1.877 -27.228,-5.283 l 0,0 c -5.745,-3.844 -7.154,-7.687 -6.737,-4.436 l 0,0 c 2.002,15.631 -5.472,73.722 -15.555,74.472 l 0,0 c -0.064,0.004 -0.127,0.007 -0.191,0.007 l 0,0 c -10.354,-0.003 -18.186,-62.917 -14.946,-75.284" /></g></g></g></g><g
       id="g258"><g
         id="g260"><g
           id="g266"><g
             id="g268"><path
               id="path280"
               style="fill:url(#radialGradient270);stroke:none"
               d="m 163.916,188.824 c 0,-25.734 39.695,-42.949 90.528,-42.949 l 0,0 c 50.834,0 93.557,21.363 93.557,42.949 l 0,0 c 0,69.673 -71.139,92.042 -92.042,92.042 l 0,0 c -17.842,0 -92.043,-18.998 -92.043,-92.042" /></g></g></g></g><g
       id="g282"><g
         clip-path="url(#clipPath286)"
         id="g284"><g
           transform="translate(284.2352,198.952)"
           id="g290"><path
             id="path292"
             style="fill:#000000;fill-opacity:1;fill-rule:nonzero;stroke:none"
             d="m 0,0 c 0,-15.594 -11.456,-17.611 -27.05,-17.611 -15.594,0 -29.42,2.017 -29.42,17.611 0,12.256 18.252,28.235 28.235,28.235 C -18.253,28.235 0,12.256 0,0" /></g><g
           transform="translate(234.742,263.9413)"
           id="g294"><path
             id="path296"
             style="fill:#ffffff;fill-opacity:1;fill-rule:nonzero;stroke:none"
             d="m 0,0 c 0,-11.408 -9.248,-20.657 -20.657,-20.657 -11.408,0 -20.657,9.249 -20.657,20.657 0,11.408 9.249,20.657 20.657,20.657 C -9.248,20.657 0,11.408 0,0" /></g><g
           transform="translate(214.0852,263.9413)"
           id="g298"><path
             id="path300"
             style="fill:#000000;fill-opacity:1;fill-rule:nonzero;stroke:none"
             d="M 0,0 C -9.246,0 -16.768,-9.246 -16.768,0 -16.768,9.246 -9.246,16.768 0,16.768 9.246,16.768 16.768,9.246 16.768,0 16.768,-9.246 9.246,0 0,0" /></g><g
           transform="translate(318.5716,263.9413)"
           id="g302"><path
             id="path304"
             style="fill:#ffffff;fill-opacity:1;fill-rule:nonzero;stroke:none"
             d="m 0,0 c 0,-11.408 -9.248,-20.657 -20.657,-20.657 -11.408,0 -20.657,9.249 -20.657,20.657 0,11.408 9.249,20.657 20.657,20.657 C -9.248,20.657 0,11.408 0,0" /></g><g
           transform="translate(297.9148,263.9413)"
           id="g306"><path
             id="path308"
             style="fill:#000000;fill-opacity:1;fill-rule:nonzero;stroke:none"
             d="M 0,0 C -9.246,0 -16.768,-9.246 -16.768,0 -16.768,9.246 -9.246,16.768 0,16.768 9.246,16.768 16.768,9.246 16.768,0 16.768,-9.246 9.246,0 0,0" /></g></g></g></g></svg>