<?xml version="1.0" encoding="UTF-8" standalone="no"?>
<svg
   xmlns:dc="http://purl.org/dc/elements/1.1/"
   xmlns:cc="http://creativecommons.org/ns#"
   xmlns:rdf="http://www.w3.org/1999/02/22-rdf-syntax-ns#"
   xmlns:svg="http://www.w3.org/2000/svg"
   xmlns="http://www.w3.org/2000/svg"
   viewBox="0 0 640 640"
   height="640"
   width="640"
   xml:space="preserve"
   version="1.1"
   id="svg2"><metadata
     id="metadata8"><rdf:RDF><cc:Work
         rdf:about=""><dc:format>image/svg+xml</dc:format><dc:type
           rdf:resource="http://purl.org/dc/dcmitype/StillImage" /></cc:Work></rdf:RDF></metadata><defs
     id="defs6"><clipPath
       id="clipPath16"
       clipPathUnits="userSpaceOnUse"><path
         id="path18"
         d="M 0,512 512,512 512,0 0,0 0,512 Z" /></clipPath><clipPath
       id="clipPath24"
       clipPathUnits="userSpaceOnUse"><path
         id="path26"
         d="m 18.325,493.744 475.4,0 0,-475.4877 -475.4,0 0,475.4877 z" /></clipPath><clipPath
       id="clipPath28"
       clipPathUnits="userSpaceOnUse"><path
         id="path30"
         d="M 448.99,63.029 C 389.293,3.332 122.807,3.332 63.11,63.029 3.413,122.726 3.413,389.312 63.01,449.009 c 59.597,59.696 326.283,59.596 385.98,0 59.697,-59.597 59.597,-326.283 0,-385.98" /></clipPath><radialGradient
       id="radialGradient36"
       spreadMethod="pad"
       gradientTransform="matrix(237.72188,0,0,237.72188,256.02499,256)"
       gradientUnits="userSpaceOnUse"
       r="1"
       cy="0"
       cx="0"
       fy="0"
       fx="0"><stop
         id="stop38"
         offset="0"
         style="stop-opacity:1;stop-color:#ffffff" /><stop
         id="stop40"
         offset="0.8587"
         style="stop-opacity:0.14129854;stop-color:#ffffff" /><stop
         id="stop42"
         offset="1"
         style="stop-opacity:0;stop-color:#ffffff" /></radialGradient><mask
       id="mask44"
       height="1"
       width="1"
       y="0"
       x="0"
       maskUnits="userSpaceOnUse"><g
         id="g46"><g
           id="g48"><g
             id="g50"><g
               id="g52"><path
                 id="path54"
                 style="fill:url(#radialGradient36);stroke:none"
                 d="m -32768,32767 65535,0 0,-65535 -65535,0 0,65535 z" /></g></g></g></g></mask><radialGradient
       id="radialGradient56"
       spreadMethod="pad"
       gradientTransform="matrix(237.72188,0,0,237.72188,256.02499,256)"
       gradientUnits="userSpaceOnUse"
       r="1"
       cy="0"
       cx="0"
       fy="0"
       fx="0"><stop
         id="stop58"
         offset="0"
         style="stop-opacity:1;stop-color:#010101" /><stop
         id="stop60"
         offset="0.8587"
         style="stop-opacity:1;stop-color:#010101" /><stop
         id="stop62"
         offset="1"
         style="stop-opacity:1;stop-color:#010101" /></radialGradient><clipPath
       id="clipPath86"
       clipPathUnits="userSpaceOnUse"><path
         id="path88"
         d="m 18.325,493.744 475.4,0 0,-475.4877 -475.4,0 0,475.4877 z" /></clipPath><clipPath
       id="clipPath90"
       clipPathUnits="userSpaceOnUse"><path
         id="path92"
         d="M 448.99,63.029 C 389.293,3.332 122.807,3.332 63.11,63.029 3.413,122.726 3.413,389.312 63.01,449.009 c 59.597,59.696 326.283,59.596 385.98,0 59.697,-59.597 59.597,-326.283 0,-385.98" /></clipPath><radialGradient
       id="radialGradient98"
       spreadMethod="pad"
       gradientTransform="matrix(188.25467,188.36119,-130.35883,130.27895,256.02499,256.04376)"
       gradientUnits="userSpaceOnUse"
       r="1"
       cy="0"
       cx="0"
       fy="0"
       fx="0"><stop
         id="stop100"
         offset="0"
         style="stop-opacity:1;stop-color:#ffffff" /><stop
         id="stop102"
         offset="0.8587"
         style="stop-opacity:0.14129854;stop-color:#ffffff" /><stop
         id="stop104"
         offset="1"
         style="stop-opacity:0;stop-color:#ffffff" /></radialGradient><mask
       id="mask106"
       height="1"
       width="1"
       y="0"
       x="0"
       maskUnits="userSpaceOnUse"><g
         id="g108"><g
           id="g110"><g
             id="g112"><g
               id="g114"><path
                 id="path116"
                 style="fill:url(#radialGradient98);stroke:none"
                 d="m -32768,32767 65535,0 0,-65535 -65535,0 0,65535 z" /></g></g></g></g></mask><radialGradient
       id="radialGradient118"
       spreadMethod="pad"
       gradientTransform="matrix(188.25467,188.36119,-130.35883,130.27895,256.02499,256.04376)"
       gradientUnits="userSpaceOnUse"
       r="1"
       cy="0"
       cx="0"
       fy="0"
       fx="0"><stop
         id="stop120"
         offset="0"
         style="stop-opacity:1;stop-color:#010101" /><stop
         id="stop122"
         offset="0.8587"
         style="stop-opacity:1;stop-color:#010101" /><stop
         id="stop124"
         offset="1"
         style="stop-opacity:1;stop-color:#010101" /></radialGradient><clipPath
       id="clipPath148"
       clipPathUnits="userSpaceOnUse"><path
         id="path150"
         d="m 18.275,493.694 475.387,0 0,-475.4377 -475.387,0 0,475.4377 z" /></clipPath><clipPath
       id="clipPath152"
       clipPathUnits="userSpaceOnUse"><path
         id="path154"
         d="m 63.01,63.029 c 59.697,-59.697 326.183,-59.697 385.88,0 59.697,59.697 59.697,326.183 0,385.88 -59.697,59.696 -326.183,59.696 -385.88,0.1 -59.697,-59.597 -59.597,-326.283 0,-385.98" /></clipPath><radialGradient
       id="radialGradient160"
       spreadMethod="pad"
       gradientTransform="matrix(-188.28767,188.39421,130.38168,130.30179,255.92499,255.99377)"
       gradientUnits="userSpaceOnUse"
       r="1"
       cy="0"
       cx="0"
       fy="0"
       fx="0"><stop
         id="stop162"
         offset="0"
         style="stop-opacity:1;stop-color:#ffffff" /><stop
         id="stop164"
         offset="0.8587"
         style="stop-opacity:0.14129854;stop-color:#ffffff" /><stop
         id="stop166"
         offset="1"
         style="stop-opacity:0;stop-color:#ffffff" /></radialGradient><mask
       id="mask168"
       height="1"
       width="1"
       y="0"
       x="0"
       maskUnits="userSpaceOnUse"><g
         id="g170"><g
           id="g172"><g
             id="g174"><g
               id="g176"><path
                 id="path178"
                 style="fill:url(#radialGradient160);stroke:none"
                 d="m -32768,32767 65535,0 0,-65535 -65535,0 0,65535 z" /></g></g></g></g></mask><radialGradient
       id="radialGradient180"
       spreadMethod="pad"
       gradientTransform="matrix(-188.28767,188.39421,130.38168,130.30179,255.92499,255.99377)"
       gradientUnits="userSpaceOnUse"
       r="1"
       cy="0"
       cx="0"
       fy="0"
       fx="0"><stop
         id="stop182"
         offset="0"
         style="stop-opacity:1;stop-color:#010101" /><stop
         id="stop184"
         offset="0.8587"
         style="stop-opacity:1;stop-color:#010101" /><stop
         id="stop186"
         offset="1"
         style="stop-opacity:1;stop-color:#010101" /></radialGradient><clipPath
       id="clipPath250"
       clipPathUnits="userSpaceOnUse"><path
         id="path252"
         d="m 152.083,359.917 207.834,0 0,-207.834 -207.834,0 0,207.834 z" /></clipPath></defs><g
     transform="matrix(1.25,0,0,-1.25,0,640)"
     id="g10"><g
       id="g12"><g
         clip-path="url(#clipPath16)"
         id="g14"><g
           id="g20"><g
             id="g22" /><g
             id="g64"><g
               style="opacity:0.39999402"
               id="g66"
               clip-path="url(#clipPath24)"><g
                 id="g68"><g
                   id="g70"
                   clip-path="url(#clipPath28)"><g
                     id="g72"><g
                       id="g74" /><g
                       id="g76"
                       mask="url(#mask44)"><g
                         id="g78"><path
                           id="path80"
                           style="fill:url(#radialGradient56);stroke:none"
                           d="M 448.99,63.029 C 389.293,3.332 122.807,3.332 63.11,63.029 3.413,122.726 3.413,389.312 63.01,449.009 c 59.597,59.696 326.283,59.596 385.98,0 59.697,-59.597 59.597,-326.283 0,-385.98" /></g></g></g></g></g></g></g></g><g
           id="g82"><g
             id="g84" /><g
             id="g126"><g
               style="opacity:0.39999402"
               id="g128"
               clip-path="url(#clipPath86)"><g
                 id="g130"><g
                   id="g132"
                   clip-path="url(#clipPath90)"><g
                     id="g134"><g
                       id="g136" /><g
                       id="g138"
                       mask="url(#mask106)"><g
                         id="g140"><path
                           id="path142"
                           style="fill:url(#radialGradient118);stroke:none"
                           d="M 448.99,63.029 C 389.293,3.332 122.807,3.332 63.11,63.029 3.413,122.726 3.413,389.312 63.01,449.009 c 59.597,59.696 326.283,59.596 385.98,0 59.697,-59.597 59.597,-326.283 0,-385.98" /></g></g></g></g></g></g></g></g><g
           id="g144"><g
             id="g146" /><g
             id="g188"><g
               style="opacity:0.39999402"
               id="g190"
               clip-path="url(#clipPath148)"><g
                 id="g192"><g
                   id="g194"
                   clip-path="url(#clipPath152)"><g
                     id="g196"><g
                       id="g198" /><g
                       id="g200"
                       mask="url(#mask168)"><g
                         id="g202"><path
                           id="path204"
                           style="fill:url(#radialGradient180);stroke:none"
                           d="m 63.01,63.029 c 59.697,-59.697 326.183,-59.697 385.88,0 59.697,59.697 59.697,326.183 0,385.88 -59.697,59.696 -326.183,59.696 -385.88,0.1 -59.697,-59.597 -59.597,-326.283 0,-385.98" /></g></g></g></g></g></g></g></g><g
           transform="translate(433.279,78.721)"
           id="g206"><path
             id="path208"
             style="fill:#a8c5ef;fill-opacity:1;fill-rule:nonzero;stroke:none"
             d="m 0,0 c -70.294,-70.294 -284.264,-70.294 -354.558,0 -70.294,70.294 -70.294,284.264 0,354.558 70.294,70.294 284.264,70.294 354.558,0 C 70.294,284.264 70.295,70.294 0,0" /></g><g
           transform="translate(399.4167,256)"
           id="g210"><path
             id="path212"
             style="fill:#061128;fill-opacity:1;fill-rule:nonzero;stroke:none"
             d="m 0,0 c 0,-79.207 -64.21,-143.417 -143.417,-143.417 -79.206,0 -143.416,64.21 -143.416,143.417 0,79.207 64.21,143.417 143.416,143.417 C -64.21,143.417 0,79.207 0,0" /></g><g
           transform="translate(388.5324,256)"
           id="g214"><path
             id="path216"
             style="fill:#ffffff;fill-opacity:1;fill-rule:nonzero;stroke:none"
             d="M 0,0 C 0,1.096 -0.015,2.189 -0.041,3.278 -0.055,3.82 -0.08,4.361 -0.1,4.903 c -0.019,0.535 -0.035,1.07 -0.061,1.604 -0.035,0.718 -0.081,1.437 -0.128,2.155 -0.022,0.343 -0.041,0.687 -0.065,1.029 -0.062,0.841 -0.134,1.681 -0.211,2.522 -0.019,0.207 -0.036,0.415 -0.056,0.622 -0.09,0.938 -0.192,1.875 -0.303,2.811 -0.012,0.101 -0.022,0.203 -0.034,0.304 -0.122,1.008 -0.255,2.014 -0.399,3.02 -0.004,0.027 -0.008,0.055 -0.012,0.083 -0.907,6.281 -2.266,12.51 -4.076,18.634 -0.011,0.035 -0.021,0.07 -0.032,0.105 -0.283,0.954 -0.577,1.904 -0.882,2.852 -0.039,0.121 -0.078,0.242 -0.118,0.363 -0.277,0.856 -0.564,1.708 -0.86,2.559 -0.078,0.227 -0.159,0.453 -0.239,0.679 -0.26,0.738 -0.528,1.474 -0.802,2.208 -0.13,0.348 -0.263,0.695 -0.396,1.041 -0.232,0.607 -0.469,1.212 -0.711,1.816 -0.19,0.474 -0.383,0.947 -0.579,1.418 -0.195,0.472 -0.392,0.943 -0.593,1.412 -0.256,0.599 -0.517,1.195 -0.782,1.789 -0.151,0.338 -0.302,0.675 -0.455,1.012 -0.325,0.714 -0.657,1.424 -0.994,2.13 -0.104,0.217 -0.207,0.434 -0.312,0.651 -0.392,0.809 -0.792,1.615 -1.2,2.415 -0.058,0.114 -0.116,0.228 -0.175,0.342 -0.455,0.887 -0.919,1.768 -1.394,2.642 -0.016,0.031 -0.033,0.062 -0.05,0.092 -3.051,5.612 -6.495,10.979 -10.296,16.064 -0.015,0.02 -0.03,0.039 -0.045,0.059 -0.609,0.814 -1.228,1.621 -1.856,2.421 -0.065,0.082 -0.13,0.163 -0.195,0.245 -0.583,0.739 -1.173,1.473 -1.771,2.199 -0.13,0.158 -0.264,0.314 -0.395,0.472 -0.542,0.652 -1.088,1.301 -1.642,1.942 -0.219,0.253 -0.444,0.503 -0.665,0.755 -0.48,0.546 -0.959,1.093 -1.448,1.631 -0.357,0.394 -0.723,0.782 -1.085,1.172 -0.37,0.398 -0.737,0.8 -1.112,1.194 -0.752,0.789 -1.514,1.572 -2.289,2.348 -0.775,0.775 -1.558,1.537 -2.348,2.289 -0.393,0.375 -0.795,0.741 -1.194,1.111 -0.39,0.363 -0.778,0.729 -1.171,1.086 -0.538,0.488 -1.085,0.968 -1.631,1.447 -0.252,0.222 -0.502,0.447 -0.756,0.666 -0.641,0.554 -1.29,1.1 -1.941,1.642 -0.158,0.131 -0.315,0.264 -0.473,0.395 -0.726,0.598 -1.459,1.187 -2.198,1.77 -0.082,0.065 -0.163,0.131 -0.246,0.195 -0.799,0.628 -1.606,1.247 -2.421,1.856 -0.019,0.015 -0.039,0.03 -0.058,0.045 -5.085,3.801 -10.452,7.246 -16.064,10.297 -0.031,0.016 -0.061,0.033 -0.092,0.05 -0.875,0.474 -1.756,0.938 -2.642,1.394 -0.114,0.058 -0.228,0.116 -0.343,0.174 -0.8,0.408 -1.605,0.808 -2.414,1.2 -0.217,0.105 -0.434,0.209 -0.651,0.312 -0.707,0.338 -1.417,0.669 -2.13,0.994 -0.337,0.154 -0.675,0.305 -1.013,0.455 -0.594,0.265 -1.19,0.526 -1.788,0.783 -0.47,0.2 -0.941,0.397 -1.412,0.592 -0.472,0.196 -0.944,0.39 -1.418,0.58 -0.604,0.242 -1.21,0.478 -1.816,0.71 -0.347,0.133 -0.693,0.266 -1.041,0.396 -0.734,0.274 -1.47,0.542 -2.208,0.803 -0.227,0.08 -0.453,0.16 -0.679,0.239 -0.851,0.295 -1.704,0.582 -2.559,0.86 -0.121,0.039 -0.242,0.079 -0.363,0.118 -0.948,0.304 -1.899,0.599 -2.852,0.881 -0.035,0.011 -0.071,0.021 -0.106,0.032 -6.124,1.81 -12.352,3.169 -18.634,4.077 -0.027,0.004 -0.055,0.007 -0.083,0.011 -1.005,0.145 -2.012,0.277 -3.02,0.399 -0.101,0.012 -0.202,0.023 -0.304,0.035 -0.936,0.11 -1.872,0.212 -2.81,0.303 -0.207,0.02 -0.415,0.036 -0.623,0.055 -0.84,0.077 -1.68,0.15 -2.521,0.211 -0.343,0.025 -0.687,0.043 -1.03,0.065 -0.718,0.047 -1.436,0.094 -2.155,0.129 -0.533,0.026 -1.069,0.041 -1.604,0.061 -0.541,0.02 -1.082,0.045 -1.624,0.058 -1.09,0.026 -2.182,0.041 -3.278,0.041 -1.096,0 -2.189,-0.015 -3.279,-0.041 -0.541,-0.013 -1.083,-0.038 -1.624,-0.058 -0.535,-0.02 -1.071,-0.035 -1.604,-0.061 -0.719,-0.035 -1.437,-0.082 -2.155,-0.129 -0.343,-0.022 -0.687,-0.04 -1.029,-0.065 -0.841,-0.061 -1.682,-0.134 -2.522,-0.211 -0.207,-0.019 -0.416,-0.035 -0.623,-0.055 -0.937,-0.091 -1.874,-0.193 -2.81,-0.303 -0.101,-0.012 -0.203,-0.023 -0.304,-0.035 -1.008,-0.122 -2.015,-0.254 -3.02,-0.399 -0.028,-0.004 -0.055,-0.007 -0.083,-0.011 -6.281,-0.908 -12.51,-2.267 -18.634,-4.077 -0.035,-0.011 -0.071,-0.021 -0.106,-0.032 -0.953,-0.282 -1.904,-0.577 -2.852,-0.881 -0.121,-0.039 -0.242,-0.079 -0.363,-0.118 -0.855,-0.278 -1.708,-0.565 -2.559,-0.86 -0.226,-0.079 -0.452,-0.159 -0.678,-0.239 -0.738,-0.261 -1.474,-0.529 -2.209,-0.803 -0.347,-0.13 -0.694,-0.263 -1.04,-0.396 -0.607,-0.232 -1.213,-0.468 -1.816,-0.71 -0.475,-0.19 -0.947,-0.384 -1.419,-0.58 -0.471,-0.195 -0.942,-0.392 -1.412,-0.592 -0.598,-0.257 -1.194,-0.518 -1.788,-0.783 -0.338,-0.15 -0.676,-0.301 -1.013,-0.455 -0.713,-0.325 -1.423,-0.656 -2.129,-0.994 -0.218,-0.103 -0.435,-0.207 -0.652,-0.312 -0.809,-0.392 -1.614,-0.792 -2.414,-1.2 -0.114,-0.058 -0.229,-0.116 -0.343,-0.174 -0.886,-0.456 -1.767,-0.92 -2.642,-1.394 -0.03,-0.017 -0.061,-0.034 -0.092,-0.05 -5.611,-3.051 -10.979,-6.496 -16.063,-10.297 -0.02,-0.015 -0.04,-0.03 -0.059,-0.045 -0.815,-0.609 -1.622,-1.228 -2.421,-1.856 -0.082,-0.064 -0.164,-0.13 -0.246,-0.195 -0.739,-0.583 -1.472,-1.172 -2.198,-1.77 -0.158,-0.131 -0.315,-0.264 -0.472,-0.395 -0.652,-0.542 -1.301,-1.088 -1.942,-1.642 -0.253,-0.219 -0.503,-0.444 -0.755,-0.666 -0.547,-0.479 -1.093,-0.959 -1.632,-1.447 -0.393,-0.357 -0.781,-0.723 -1.171,-1.086 -0.398,-0.37 -0.8,-0.736 -1.194,-1.111 -0.789,-0.752 -1.573,-1.514 -2.348,-2.289 0,0 65.353,-15.493 117.11,-67.25 C -47.1,21.726 0,0 0,0" /></g><g
           transform="translate(258.017,217.1204)"
           id="g218"><path
             id="path220"
             style="fill:#50a5f9;fill-opacity:1;fill-rule:nonzero;stroke:none"
             d="m 0,0 c -7.201,5.965 -14.402,12.447 -21.426,19.471 -13.764,13.764 -25.462,28.208 -35.22,41.997 -45.943,-7.846 -77.903,-22.588 -77.903,-22.588 0,0 59.336,-38.896 132.532,-38.896 0.675,0 1.345,0.01 2.017,0.016" /></g><g
           transform="translate(262.5068,123.6282)"
           id="g222"><path
             id="path224"
             style="fill:#005cff;fill-opacity:1;fill-rule:nonzero;stroke:none"
             d="m 0,0 c 0.719,0.035 1.437,0.082 2.155,0.129 0.343,0.022 0.687,0.04 1.029,0.065 0.841,0.061 1.682,0.134 2.522,0.211 0.207,0.019 0.415,0.035 0.622,0.055 0.938,0.091 1.875,0.193 2.811,0.303 0.101,0.012 0.203,0.023 0.304,0.035 1.008,0.121 2.015,0.254 3.02,0.399 0.028,0.004 0.055,0.007 0.083,0.011 6.281,0.908 12.51,2.267 18.634,4.077 0.035,0.01 0.07,0.021 0.106,0.031 0.953,0.283 1.903,0.578 2.851,0.882 0.122,0.039 0.242,0.079 0.363,0.118 0.856,0.278 1.709,0.565 2.559,0.86 0.227,0.079 0.453,0.159 0.679,0.239 0.738,0.261 1.474,0.528 2.208,0.803 0.348,0.13 0.695,0.262 1.041,0.395 0.607,0.233 1.212,0.469 1.816,0.711 0.474,0.19 0.947,0.384 1.418,0.579 0.472,0.195 0.943,0.393 1.412,0.593 0.599,0.257 1.195,0.518 1.789,0.783 0.338,0.15 0.676,0.301 1.013,0.454 0.713,0.326 1.423,0.657 2.129,0.995 0.217,0.103 0.435,0.207 0.651,0.312 0.81,0.392 1.615,0.791 2.415,1.2 0.114,0.058 0.228,0.116 0.343,0.174 0.886,0.456 1.767,0.92 2.642,1.394 0.03,0.017 0.061,0.033 0.091,0.05 5.612,3.051 10.979,6.496 16.064,10.297 0.02,0.015 0.039,0.03 0.059,0.044 0.814,0.61 1.621,1.229 2.421,1.856 0.082,0.065 0.163,0.131 0.245,0.196 0.739,0.582 1.473,1.172 2.199,1.77 0.158,0.131 0.314,0.264 0.472,0.395 0.652,0.542 1.301,1.088 1.942,1.642 0.253,0.219 0.503,0.444 0.755,0.665 0.547,0.48 1.093,0.96 1.632,1.448 0.393,0.357 0.781,0.723 1.171,1.085 0.398,0.371 0.8,0.737 1.194,1.112 0.789,0.752 1.573,1.514 2.348,2.289 0,0 -45.84,16.848 -91.698,54.835 -0.672,-0.006 -1.341,-0.016 -2.017,-0.016 -73.195,0 -132.532,38.896 -132.532,38.896 0,-1.096 0.015,-2.189 0.041,-3.279 0.014,-0.541 0.039,-1.082 0.058,-1.624 0.02,-0.535 0.036,-1.071 0.061,-1.604 0.035,-0.719 0.082,-1.437 0.129,-2.155 0.022,-0.343 0.04,-0.687 0.065,-1.029 0.062,-0.841 0.134,-1.682 0.211,-2.522 0.019,-0.207 0.036,-0.415 0.055,-0.622 0.091,-0.938 0.193,-1.875 0.304,-2.811 0.011,-0.101 0.022,-0.203 0.034,-0.304 0.122,-1.008 0.254,-2.015 0.399,-3.02 0.004,-0.028 0.008,-0.055 0.012,-0.083 0.907,-6.281 2.266,-12.51 4.076,-18.634 0.011,-0.035 0.021,-0.07 0.032,-0.106 0.282,-0.953 0.577,-1.903 0.882,-2.852 0.039,-0.121 0.078,-0.241 0.117,-0.362 0.278,-0.856 0.565,-1.709 0.86,-2.559 0.079,-0.227 0.159,-0.453 0.239,-0.679 0.261,-0.738 0.529,-1.474 0.803,-2.208 0.13,-0.348 0.263,-0.695 0.396,-1.041 0.232,-0.607 0.469,-1.212 0.71,-1.816 0.191,-0.475 0.384,-0.947 0.58,-1.418 0.195,-0.472 0.392,-0.943 0.593,-1.413 0.256,-0.598 0.517,-1.194 0.782,-1.788 0.15,-0.338 0.301,-0.676 0.455,-1.013 0.325,-0.713 0.657,-1.423 0.994,-2.129 0.104,-0.217 0.207,-0.435 0.312,-0.651 0.392,-0.81 0.792,-1.615 1.2,-2.415 0.058,-0.114 0.116,-0.228 0.175,-0.343 0.455,-0.886 0.919,-1.767 1.394,-2.642 0.016,-0.03 0.033,-0.061 0.049,-0.091 3.052,-5.612 6.496,-10.979 10.297,-16.064 0.015,-0.02 0.03,-0.039 0.045,-0.059 0.609,-0.814 1.228,-1.621 1.856,-2.421 0.064,-0.082 0.13,-0.163 0.195,-0.245 0.583,-0.739 1.172,-1.473 1.771,-2.199 0.13,-0.158 0.263,-0.314 0.395,-0.472 0.542,-0.652 1.087,-1.301 1.642,-1.942 0.219,-0.253 0.443,-0.503 0.665,-0.755 0.479,-0.547 0.959,-1.093 1.447,-1.632 0.357,-0.393 0.723,-0.781 1.086,-1.171 0.37,-0.398 0.737,-0.8 1.112,-1.194 0.751,-0.789 1.513,-1.573 2.289,-2.348 0.775,-0.775 1.558,-1.537 2.347,-2.289 0.394,-0.375 0.796,-0.741 1.195,-1.112 0.39,-0.362 0.778,-0.728 1.171,-1.085 0.538,-0.488 1.085,-0.968 1.631,-1.448 0.252,-0.221 0.502,-0.446 0.755,-0.665 0.642,-0.554 1.29,-1.1 1.942,-1.642 0.158,-0.131 0.314,-0.264 0.472,-0.395 0.727,-0.598 1.46,-1.188 2.199,-1.77 0.082,-0.065 0.163,-0.131 0.245,-0.196 0.8,-0.627 1.607,-1.246 2.421,-1.856 0.02,-0.014 0.04,-0.029 0.059,-0.044 5.085,-3.801 10.452,-7.246 16.064,-10.297 0.031,-0.017 0.061,-0.033 0.092,-0.05 0.874,-0.474 1.756,-0.938 2.642,-1.394 0.114,-0.058 0.228,-0.116 0.342,-0.174 0.801,-0.409 1.606,-0.808 2.415,-1.2 0.217,-0.105 0.434,-0.209 0.651,-0.312 0.707,-0.338 1.416,-0.669 2.13,-0.995 0.337,-0.153 0.675,-0.304 1.012,-0.454 0.594,-0.265 1.19,-0.526 1.789,-0.783 0.47,-0.2 0.94,-0.398 1.412,-0.593 0.471,-0.195 0.944,-0.389 1.418,-0.579 0.604,-0.242 1.209,-0.478 1.816,-0.711 0.346,-0.133 0.693,-0.265 1.041,-0.395 0.734,-0.275 1.47,-0.542 2.208,-0.803 0.226,-0.08 0.452,-0.16 0.679,-0.239 0.851,-0.295 1.704,-0.582 2.559,-0.86 0.121,-0.039 0.242,-0.079 0.363,-0.118 0.948,-0.304 1.898,-0.599 2.852,-0.882 0.035,-0.01 0.07,-0.021 0.106,-0.031 6.123,-1.81 12.352,-3.169 18.634,-4.077 0.027,-0.004 0.055,-0.007 0.082,-0.011 1.006,-0.145 2.013,-0.278 3.02,-0.399 0.102,-0.012 0.203,-0.023 0.304,-0.035 0.936,-0.11 1.873,-0.212 2.811,-0.303 0.207,-0.02 0.415,-0.036 0.623,-0.055 0.84,-0.077 1.68,-0.15 2.521,-0.211 0.343,-0.025 0.686,-0.043 1.03,-0.065 0.718,-0.047 1.436,-0.094 2.154,-0.129 0.534,-0.026 1.07,-0.042 1.604,-0.061 0.542,-0.02 1.083,-0.045 1.625,-0.058 1.09,-0.027 2.182,-0.042 3.278,-0.042 1.096,0 2.189,0.015 3.278,0.042 0.542,0.013 1.083,0.038 1.625,0.058 C -1.069,-0.042 -0.533,-0.026 0,0" /></g><g
           transform="translate(279.3959,282.4648)"
           id="g226"><path
             id="path228"
             style="fill:#061128;fill-opacity:1;fill-rule:nonzero;stroke:none"
             d="m 0,0 c -7.595,0.58 -15.413,0.906 -23.396,0.906 -19.477,0 -37.972,-1.938 -54.629,-4.783 9.758,-13.789 21.456,-28.232 35.22,-41.997 7.024,-7.024 14.225,-13.506 21.426,-19.47 23.696,0.207 45.268,4.036 63.749,9.223 C 31.808,-37.765 17.888,-17.888 0,0 Z" /></g><g
           transform="translate(201.3705,278.5879)"
           id="g230"><path
             id="path232"
             style="fill:#045dad;fill-opacity:1;fill-rule:nonzero;stroke:none"
             d="m 0,0 c 16.657,2.845 35.153,4.783 54.63,4.783 7.983,0 15.801,-0.326 23.395,-0.906 -51.757,51.757 -117.11,67.25 -117.11,67.25 0,0 12.151,-33.067 39.085,-71.127" /></g><g
           transform="translate(279.3959,282.4648)"
           id="g234"><path
             id="path236"
             style="fill:#031b44;fill-opacity:1;fill-rule:nonzero;stroke:none"
             d="m 0,0 0,0 c 17.888,-17.888 31.808,-37.765 42.37,-56.121 40.986,11.503 66.766,29.656 66.766,29.656 0,0 -47.099,21.726 -109.136,26.465" /></g><g
           transform="translate(236.5911,236.5911)"
           id="g238"><path
             id="path240"
             style="fill:#0098ff;fill-opacity:1;fill-rule:nonzero;stroke:none"
             d="m 0,0 c -13.764,13.764 -25.462,28.208 -35.221,41.997 -26.934,38.06 -39.085,71.126 -39.085,71.126 -0.775,-0.775 -1.537,-1.558 -2.289,-2.347 -0.375,-0.394 -0.741,-0.796 -1.111,-1.195 -0.363,-0.389 -0.729,-0.777 -1.086,-1.171 -0.488,-0.538 -0.968,-1.085 -1.448,-1.631 -0.221,-0.252 -0.446,-0.502 -0.665,-0.755 -0.554,-0.642 -1.1,-1.29 -1.642,-1.942 -0.131,-0.158 -0.264,-0.314 -0.395,-0.472 -0.598,-0.726 -1.188,-1.46 -1.77,-2.199 -0.065,-0.082 -0.131,-0.163 -0.195,-0.245 -0.628,-0.8 -1.247,-1.607 -1.857,-2.421 -0.014,-0.02 -0.029,-0.039 -0.044,-0.059 -3.801,-5.085 -7.246,-10.452 -10.297,-16.064 -0.016,-0.03 -0.033,-0.061 -0.05,-0.092 -0.474,-0.874 -0.938,-1.755 -1.394,-2.642 -0.058,-0.114 -0.116,-0.228 -0.174,-0.342 -0.408,-0.8 -0.808,-1.606 -1.2,-2.415 -0.105,-0.217 -0.209,-0.434 -0.312,-0.651 -0.338,-0.707 -0.669,-1.416 -0.994,-2.13 -0.154,-0.337 -0.305,-0.674 -0.455,-1.012 -0.265,-0.594 -0.526,-1.19 -0.783,-1.789 -0.2,-0.469 -0.397,-0.94 -0.593,-1.412 -0.195,-0.471 -0.389,-0.944 -0.579,-1.418 -0.242,-0.604 -0.478,-1.209 -0.711,-1.816 -0.133,-0.346 -0.265,-0.693 -0.395,-1.041 -0.274,-0.734 -0.542,-1.47 -0.803,-2.208 -0.08,-0.226 -0.16,-0.452 -0.239,-0.679 -0.295,-0.851 -0.582,-1.704 -0.86,-2.559 -0.039,-0.121 -0.079,-0.242 -0.118,-0.363 -0.304,-0.948 -0.599,-1.898 -0.881,-2.852 -0.011,-0.035 -0.022,-0.07 -0.032,-0.105 -1.81,-6.124 -3.169,-12.353 -4.077,-18.634 -0.004,-0.028 -0.007,-0.056 -0.011,-0.083 -0.145,-1.006 -0.278,-2.012 -0.399,-3.02 -0.012,-0.101 -0.023,-0.203 -0.035,-0.304 -0.11,-0.936 -0.212,-1.873 -0.303,-2.811 -0.02,-0.207 -0.036,-0.415 -0.055,-0.623 -0.077,-0.84 -0.15,-1.68 -0.211,-2.521 -0.025,-0.342 -0.043,-0.686 -0.065,-1.029 -0.047,-0.719 -0.094,-1.437 -0.129,-2.155 -0.026,-0.534 -0.041,-1.069 -0.061,-1.604 -0.02,-0.542 -0.045,-1.083 -0.058,-1.625 -0.026,-1.089 -0.041,-2.182 -0.041,-3.278 0,0 59.336,-38.895 132.532,-38.895 0.675,0 1.345,0.009 2.017,0.015 C 14.225,-13.506 7.024,-7.024 0,0" /></g><g
           transform="translate(321.7656,226.3438)"
           id="g242"><path
             id="path244"
             style="fill:#0b56ce;fill-opacity:1;fill-rule:nonzero;stroke:none"
             d="m 0,0 c -18.48,-5.187 -40.052,-9.016 -63.749,-9.223 -0.672,-0.006 -1.341,-0.016 -2.017,-0.016 -73.195,0 -132.532,38.895 -132.532,38.895 0,-1.096 0.015,-2.188 0.041,-3.278 0.014,-0.542 0.039,-1.083 0.059,-1.624 0.019,-0.535 0.035,-1.071 0.061,-1.605 0.035,-0.718 0.081,-1.436 0.128,-2.154 0.022,-0.344 0.041,-0.687 0.065,-1.03 0.062,-0.841 0.134,-1.681 0.211,-2.521 0.019,-0.208 0.036,-0.416 0.056,-0.623 0.09,-0.938 0.192,-1.875 0.303,-2.811 0.012,-0.101 0.022,-0.203 0.034,-0.304 0.122,-1.007 0.255,-2.014 0.399,-3.02 0.004,-0.027 0.008,-0.055 0.012,-0.082 0.907,-6.282 2.266,-12.511 4.076,-18.634 0.011,-0.036 0.021,-0.071 0.032,-0.106 0.283,-0.954 0.577,-1.904 0.882,-2.852 0.039,-0.121 0.078,-0.242 0.118,-0.363 0.277,-0.855 0.564,-1.708 0.86,-2.559 0.078,-0.227 0.159,-0.453 0.239,-0.679 0.26,-0.738 0.528,-1.474 0.802,-2.208 0.13,-0.348 0.263,-0.695 0.396,-1.041 0.232,-0.607 0.469,-1.212 0.711,-1.816 0.19,-0.474 0.383,-0.947 0.579,-1.418 0.195,-0.472 0.392,-0.942 0.593,-1.412 0.256,-0.599 0.517,-1.195 0.782,-1.789 0.151,-0.337 0.302,-0.675 0.455,-1.012 0.325,-0.714 0.657,-1.423 0.994,-2.13 0.104,-0.217 0.207,-0.434 0.312,-0.651 0.392,-0.809 0.792,-1.614 1.2,-2.414 0.058,-0.115 0.116,-0.229 0.175,-0.343 0.455,-0.886 0.919,-1.768 1.394,-2.642 0.016,-0.031 0.033,-0.061 0.05,-0.092 3.051,-5.612 6.495,-10.979 10.296,-16.064 0.015,-0.019 0.03,-0.039 0.045,-0.059 0.609,-0.814 1.228,-1.621 1.856,-2.421 0.065,-0.082 0.13,-0.163 0.195,-0.245 0.583,-0.739 1.173,-1.472 1.771,-2.199 0.13,-0.158 0.264,-0.314 0.395,-0.472 0.542,-0.652 1.088,-1.3 1.642,-1.942 0.219,-0.253 0.444,-0.503 0.665,-0.755 0.48,-0.546 0.959,-1.093 1.448,-1.631 0.357,-0.393 0.723,-0.781 1.085,-1.171 0.37,-0.399 0.737,-0.801 1.112,-1.195 0.752,-0.789 1.514,-1.572 2.289,-2.347 0.775,-0.775 1.558,-1.538 2.348,-2.289 0.393,-0.375 0.795,-0.742 1.194,-1.112 0.39,-0.363 0.778,-0.729 1.171,-1.086 0.538,-0.488 1.085,-0.968 1.631,-1.447 0.252,-0.222 0.502,-0.446 0.756,-0.665 0.641,-0.555 1.29,-1.1 1.941,-1.642 0.158,-0.132 0.315,-0.265 0.473,-0.395 0.726,-0.599 1.459,-1.188 2.198,-1.771 0.082,-0.065 0.163,-0.131 0.245,-0.195 0.8,-0.628 1.607,-1.247 2.421,-1.856 0.02,-0.015 0.04,-0.03 0.059,-0.045 5.085,-3.801 10.452,-7.245 16.064,-10.297 0.031,-0.016 0.061,-0.033 0.092,-0.049 0.875,-0.475 1.756,-0.939 2.642,-1.394 0.114,-0.059 0.228,-0.117 0.343,-0.175 0.8,-0.408 1.605,-0.808 2.414,-1.2 0.217,-0.105 0.434,-0.208 0.651,-0.312 0.707,-0.338 1.417,-0.669 2.13,-0.994 0.337,-0.154 0.675,-0.304 1.013,-0.455 0.594,-0.265 1.19,-0.526 1.788,-0.782 0.47,-0.201 0.941,-0.398 1.412,-0.593 0.472,-0.196 0.944,-0.389 1.418,-0.58 0.604,-0.241 1.21,-0.478 1.816,-0.71 0.347,-0.133 0.693,-0.266 1.041,-0.396 0.734,-0.274 1.47,-0.542 2.208,-0.803 0.227,-0.08 0.453,-0.16 0.679,-0.239 0.851,-0.295 1.704,-0.582 2.559,-0.86 0.121,-0.039 0.242,-0.078 0.363,-0.117 0.948,-0.305 1.899,-0.6 2.852,-0.882 0.035,-0.011 0.071,-0.021 0.106,-0.032 6.124,-1.81 12.352,-3.169 18.634,-4.076 0.027,-0.004 0.055,-0.008 0.083,-0.012 1.005,-0.145 2.012,-0.277 3.02,-0.399 0.101,-0.012 0.202,-0.023 0.304,-0.034 0.936,-0.111 1.872,-0.213 2.81,-0.303 0.207,-0.02 0.415,-0.037 0.623,-0.056 0.84,-0.077 1.68,-0.149 2.521,-0.211 0.343,-0.025 0.687,-0.043 1.03,-0.065 0.718,-0.047 1.436,-0.094 2.155,-0.129 0.533,-0.025 1.069,-0.041 1.604,-0.061 0.541,-0.019 1.082,-0.044 1.624,-0.058 1.09,-0.026 2.182,-0.041 3.278,-0.041 1.096,0 2.189,0.015 3.279,0.041 0.541,0.014 1.083,0.039 1.624,0.058 0.535,0.02 1.071,0.036 1.604,0.061 0.719,0.035 1.437,0.082 2.155,0.129 0.343,0.022 0.687,0.04 1.029,0.065 0.841,0.062 1.682,0.134 2.522,0.211 0.207,0.019 0.415,0.036 0.623,0.056 0.937,0.09 1.874,0.192 2.81,0.303 0.101,0.011 0.203,0.022 0.304,0.034 1.008,0.122 2.015,0.254 3.02,0.399 0.028,0.004 0.055,0.008 0.083,0.012 6.281,0.907 12.51,2.266 18.634,4.076 0.035,0.011 0.071,0.021 0.106,0.032 0.953,0.282 1.904,0.577 2.852,0.882 0.121,0.039 0.242,0.078 0.363,0.117 0.855,0.278 1.708,0.565 2.559,0.86 0.226,0.079 0.452,0.159 0.678,0.239 0.738,0.261 1.474,0.529 2.209,0.803 0.347,0.13 0.694,0.263 1.041,0.396 0.606,0.232 1.212,0.469 1.815,0.71 0.475,0.191 0.947,0.384 1.419,0.58 0.471,0.195 0.942,0.392 1.412,0.593 0.598,0.256 1.194,0.517 1.788,0.782 0.338,0.151 0.676,0.301 1.013,0.455 0.713,0.325 1.423,0.656 2.129,0.994 0.218,0.104 0.435,0.207 0.651,0.312 0.81,0.392 1.615,0.792 2.415,1.2 0.114,0.058 0.229,0.116 0.343,0.175 0.886,0.455 1.767,0.919 2.642,1.394 0.03,0.016 0.061,0.033 0.092,0.049 5.612,3.052 10.979,6.496 16.063,10.297 0.02,0.015 0.04,0.03 0.059,0.045 0.815,0.609 1.622,1.228 2.421,1.856 0.082,0.064 0.164,0.13 0.246,0.195 0.739,0.583 1.472,1.172 2.198,1.771 0.158,0.13 0.315,0.263 0.472,0.395 0.652,0.542 1.301,1.087 1.942,1.642 0.253,0.219 0.503,0.443 0.755,0.665 0.547,0.479 1.093,0.959 1.632,1.447 0.393,0.357 0.781,0.723 1.171,1.086 0.398,0.37 0.8,0.737 1.194,1.112 0.79,0.751 1.573,1.514 2.348,2.289 0.775,0.775 1.537,1.558 2.289,2.347 0.375,0.394 0.742,0.796 1.112,1.195 0.362,0.39 0.728,0.778 1.085,1.171 0.488,0.538 0.968,1.085 1.448,1.631 0.221,0.252 0.446,0.502 0.665,0.755 0.554,0.642 1.1,1.29 1.642,1.942 0.131,0.158 0.265,0.314 0.395,0.472 0.598,0.727 1.188,1.46 1.771,2.199 0.064,0.082 0.13,0.163 0.195,0.245 0.627,0.8 1.246,1.607 1.856,2.421 0.015,0.02 0.03,0.04 0.044,0.059 3.802,5.085 7.246,10.452 10.297,16.064 0.017,0.031 0.033,0.061 0.05,0.092 0.475,0.874 0.939,1.756 1.394,2.642 0.058,0.114 0.116,0.228 0.175,0.343 0.408,0.8 0.807,1.605 1.2,2.414 0.104,0.217 0.208,0.434 0.311,0.651 0.338,0.707 0.669,1.416 0.995,2.13 0.153,0.337 0.304,0.675 0.454,1.012 0.265,0.594 0.527,1.19 0.783,1.789 0.201,0.47 0.398,0.94 0.593,1.412 0.195,0.471 0.389,0.944 0.579,1.418 0.242,0.604 0.478,1.209 0.711,1.816 0.133,0.346 0.265,0.693 0.396,1.041 0.274,0.734 0.541,1.47 0.802,2.208 0.08,0.226 0.16,0.452 0.239,0.679 0.296,0.851 0.583,1.704 0.86,2.559 0.039,0.121 0.079,0.242 0.118,0.363 0.304,0.948 0.599,1.898 0.882,2.852 0.01,0.035 0.021,0.07 0.031,0.106 1.81,6.123 3.169,12.352 4.077,18.634 0.004,0.027 0.008,0.055 0.011,0.082 0.145,1.006 0.278,2.013 0.399,3.02 0.012,0.101 0.023,0.203 0.035,0.304 0.111,0.936 0.212,1.873 0.303,2.811 0.02,0.207 0.036,0.415 0.055,0.623 0.078,0.84 0.15,1.68 0.211,2.521 0.025,0.343 0.043,0.686 0.066,1.03 0.046,0.718 0.093,1.436 0.128,2.154 0.026,0.534 0.042,1.07 0.061,1.605 0.02,0.541 0.045,1.082 0.058,1.624 0.027,1.09 0.042,2.182 0.042,3.278 C 66.767,29.656 40.986,11.503 0,0" /></g><g
           id="g246"><g
             id="g248" /><g
             id="g254"><g
               style="opacity:0.39999402"
               id="g256"
               clip-path="url(#clipPath250)"><g
                 id="g258"
                 transform="translate(359.9167,256)"><path
                   id="path260"
                   style="fill:#8dbbff;fill-opacity:1;fill-rule:nonzero;stroke:none"
                   d="m 0,0 c 0,-57.392 -46.525,-103.917 -103.917,-103.917 -57.391,0 -103.916,46.525 -103.916,103.917 0,57.392 46.525,103.917 103.916,103.917 C -46.525,103.917 0,57.392 0,0" /></g></g></g></g></g></g></g></svg>