<?xml version="1.0" encoding="UTF-8" standalone="no"?>
<svg
   xmlns:dc="http://purl.org/dc/elements/1.1/"
   xmlns:cc="http://creativecommons.org/ns#"
   xmlns:rdf="http://www.w3.org/1999/02/22-rdf-syntax-ns#"
   xmlns:svg="http://www.w3.org/2000/svg"
   xmlns="http://www.w3.org/2000/svg"
   viewBox="0 0 640 640"
   height="640"
   width="640"
   xml:space="preserve"
   version="1.1"
   id="svg2"><metadata
     id="metadata8"><rdf:RDF><cc:Work
         rdf:about=""><dc:format>image/svg+xml</dc:format><dc:type
           rdf:resource="http://purl.org/dc/dcmitype/StillImage" /></cc:Work></rdf:RDF></metadata><defs
     id="defs6"><clipPath
       id="clipPath16"
       clipPathUnits="userSpaceOnUse"><path
         id="path18"
         d="M 0,512 512,512 512,0 0,0 0,512 Z" /></clipPath><clipPath
       id="clipPath24"
       clipPathUnits="userSpaceOnUse"><path
         id="path26"
         d="m 18.325,493.744 475.4,0 0,-475.4877 -475.4,0 0,475.4877 z" /></clipPath><clipPath
       id="clipPath28"
       clipPathUnits="userSpaceOnUse"><path
         id="path30"
         d="M 448.99,63.029 C 389.293,3.332 122.807,3.332 63.11,63.029 3.413,122.726 3.413,389.312 63.01,449.009 c 59.597,59.696 326.283,59.596 385.98,0 59.697,-59.597 59.597,-326.283 0,-385.98" /></clipPath><radialGradient
       id="radialGradient36"
       spreadMethod="pad"
       gradientTransform="matrix(237.72188,0,0,237.72188,256.02499,256)"
       gradientUnits="userSpaceOnUse"
       r="1"
       cy="0"
       cx="0"
       fy="0"
       fx="0"><stop
         id="stop38"
         offset="0"
         style="stop-opacity:1;stop-color:#ffffff" /><stop
         id="stop40"
         offset="0.8587"
         style="stop-opacity:0.14129854;stop-color:#ffffff" /><stop
         id="stop42"
         offset="1"
         style="stop-opacity:0;stop-color:#ffffff" /></radialGradient><mask
       id="mask44"
       height="1"
       width="1"
       y="0"
       x="0"
       maskUnits="userSpaceOnUse"><g
         id="g46"><g
           id="g48"><g
             id="g50"><g
               id="g52"><path
                 id="path54"
                 style="fill:url(#radialGradient36);stroke:none"
                 d="m -32768,32767 65535,0 0,-65535 -65535,0 0,65535 z" /></g></g></g></g></mask><radialGradient
       id="radialGradient56"
       spreadMethod="pad"
       gradientTransform="matrix(237.72188,0,0,237.72188,256.02499,256)"
       gradientUnits="userSpaceOnUse"
       r="1"
       cy="0"
       cx="0"
       fy="0"
       fx="0"><stop
         id="stop58"
         offset="0"
         style="stop-opacity:1;stop-color:#010101" /><stop
         id="stop60"
         offset="0.8587"
         style="stop-opacity:1;stop-color:#010101" /><stop
         id="stop62"
         offset="1"
         style="stop-opacity:1;stop-color:#010101" /></radialGradient><clipPath
       id="clipPath86"
       clipPathUnits="userSpaceOnUse"><path
         id="path88"
         d="m 18.325,493.744 475.4,0 0,-475.4877 -475.4,0 0,475.4877 z" /></clipPath><clipPath
       id="clipPath90"
       clipPathUnits="userSpaceOnUse"><path
         id="path92"
         d="M 448.99,63.029 C 389.293,3.332 122.807,3.332 63.11,63.029 3.413,122.726 3.413,389.312 63.01,449.009 c 59.597,59.696 326.283,59.596 385.98,0 59.697,-59.597 59.597,-326.283 0,-385.98" /></clipPath><radialGradient
       id="radialGradient98"
       spreadMethod="pad"
       gradientTransform="matrix(188.25467,188.36119,-130.35883,130.27895,256.02499,256.04376)"
       gradientUnits="userSpaceOnUse"
       r="1"
       cy="0"
       cx="0"
       fy="0"
       fx="0"><stop
         id="stop100"
         offset="0"
         style="stop-opacity:1;stop-color:#ffffff" /><stop
         id="stop102"
         offset="0.8587"
         style="stop-opacity:0.14129854;stop-color:#ffffff" /><stop
         id="stop104"
         offset="1"
         style="stop-opacity:0;stop-color:#ffffff" /></radialGradient><mask
       id="mask106"
       height="1"
       width="1"
       y="0"
       x="0"
       maskUnits="userSpaceOnUse"><g
         id="g108"><g
           id="g110"><g
             id="g112"><g
               id="g114"><path
                 id="path116"
                 style="fill:url(#radialGradient98);stroke:none"
                 d="m -32768,32767 65535,0 0,-65535 -65535,0 0,65535 z" /></g></g></g></g></mask><radialGradient
       id="radialGradient118"
       spreadMethod="pad"
       gradientTransform="matrix(188.25467,188.36119,-130.35883,130.27895,256.02499,256.04376)"
       gradientUnits="userSpaceOnUse"
       r="1"
       cy="0"
       cx="0"
       fy="0"
       fx="0"><stop
         id="stop120"
         offset="0"
         style="stop-opacity:1;stop-color:#010101" /><stop
         id="stop122"
         offset="0.8587"
         style="stop-opacity:1;stop-color:#010101" /><stop
         id="stop124"
         offset="1"
         style="stop-opacity:1;stop-color:#010101" /></radialGradient><clipPath
       id="clipPath148"
       clipPathUnits="userSpaceOnUse"><path
         id="path150"
         d="m 18.275,493.694 475.387,0 0,-475.4377 -475.387,0 0,475.4377 z" /></clipPath><clipPath
       id="clipPath152"
       clipPathUnits="userSpaceOnUse"><path
         id="path154"
         d="m 63.01,63.029 c 59.697,-59.697 326.183,-59.697 385.88,0 59.697,59.697 59.697,326.183 0,385.88 -59.697,59.696 -326.183,59.696 -385.88,0.1 -59.697,-59.597 -59.597,-326.283 0,-385.98" /></clipPath><radialGradient
       id="radialGradient160"
       spreadMethod="pad"
       gradientTransform="matrix(-188.28767,188.39421,130.38168,130.30179,255.92499,255.99377)"
       gradientUnits="userSpaceOnUse"
       r="1"
       cy="0"
       cx="0"
       fy="0"
       fx="0"><stop
         id="stop162"
         offset="0"
         style="stop-opacity:1;stop-color:#ffffff" /><stop
         id="stop164"
         offset="0.8587"
         style="stop-opacity:0.14129854;stop-color:#ffffff" /><stop
         id="stop166"
         offset="1"
         style="stop-opacity:0;stop-color:#ffffff" /></radialGradient><mask
       id="mask168"
       height="1"
       width="1"
       y="0"
       x="0"
       maskUnits="userSpaceOnUse"><g
         id="g170"><g
           id="g172"><g
             id="g174"><g
               id="g176"><path
                 id="path178"
                 style="fill:url(#radialGradient160);stroke:none"
                 d="m -32768,32767 65535,0 0,-65535 -65535,0 0,65535 z" /></g></g></g></g></mask><radialGradient
       id="radialGradient180"
       spreadMethod="pad"
       gradientTransform="matrix(-188.28767,188.39421,130.38168,130.30179,255.92499,255.99377)"
       gradientUnits="userSpaceOnUse"
       r="1"
       cy="0"
       cx="0"
       fy="0"
       fx="0"><stop
         id="stop182"
         offset="0"
         style="stop-opacity:1;stop-color:#010101" /><stop
         id="stop184"
         offset="0.8587"
         style="stop-opacity:1;stop-color:#010101" /><stop
         id="stop186"
         offset="1"
         style="stop-opacity:1;stop-color:#010101" /></radialGradient></defs><g
     transform="matrix(1.25,0,0,-1.25,0,640)"
     id="g10"><g
       id="g12"><g
         clip-path="url(#clipPath16)"
         id="g14"><g
           id="g20"><g
             id="g22" /><g
             id="g64"><g
               style="opacity:0.39999402"
               id="g66"
               clip-path="url(#clipPath24)"><g
                 id="g68"><g
                   id="g70"
                   clip-path="url(#clipPath28)"><g
                     id="g72"><g
                       id="g74" /><g
                       id="g76"
                       mask="url(#mask44)"><g
                         id="g78"><path
                           id="path80"
                           style="fill:url(#radialGradient56);stroke:none"
                           d="M 448.99,63.029 C 389.293,3.332 122.807,3.332 63.11,63.029 3.413,122.726 3.413,389.312 63.01,449.009 c 59.597,59.696 326.283,59.596 385.98,0 59.697,-59.597 59.597,-326.283 0,-385.98" /></g></g></g></g></g></g></g></g><g
           id="g82"><g
             id="g84" /><g
             id="g126"><g
               style="opacity:0.39999402"
               id="g128"
               clip-path="url(#clipPath86)"><g
                 id="g130"><g
                   id="g132"
                   clip-path="url(#clipPath90)"><g
                     id="g134"><g
                       id="g136" /><g
                       id="g138"
                       mask="url(#mask106)"><g
                         id="g140"><path
                           id="path142"
                           style="fill:url(#radialGradient118);stroke:none"
                           d="M 448.99,63.029 C 389.293,3.332 122.807,3.332 63.11,63.029 3.413,122.726 3.413,389.312 63.01,449.009 c 59.597,59.696 326.283,59.596 385.98,0 59.697,-59.597 59.597,-326.283 0,-385.98" /></g></g></g></g></g></g></g></g><g
           id="g144"><g
             id="g146" /><g
             id="g188"><g
               style="opacity:0.39999402"
               id="g190"
               clip-path="url(#clipPath148)"><g
                 id="g192"><g
                   id="g194"
                   clip-path="url(#clipPath152)"><g
                     id="g196"><g
                       id="g198" /><g
                       id="g200"
                       mask="url(#mask168)"><g
                         id="g202"><path
                           id="path204"
                           style="fill:url(#radialGradient180);stroke:none"
                           d="m 63.01,63.029 c 59.697,-59.697 326.183,-59.697 385.88,0 59.697,59.697 59.697,326.183 0,385.88 -59.697,59.696 -326.183,59.696 -385.88,0.1 -59.697,-59.597 -59.597,-326.283 0,-385.98" /></g></g></g></g></g></g></g></g><g
           transform="translate(433.279,78.721)"
           id="g206"><path
             id="path208"
             style="fill:#a8c5ef;fill-opacity:1;fill-rule:nonzero;stroke:none"
             d="m 0,0 c -70.294,-70.294 -284.264,-70.294 -354.558,0 -70.294,70.294 -70.294,284.264 0,354.558 70.294,70.294 284.264,70.294 354.558,0 C 70.294,284.264 70.295,70.294 0,0" /></g><g
           transform="translate(399.4167,256)"
           id="g210"><path
             id="path212"
             style="fill:#061128;fill-opacity:1;fill-rule:nonzero;stroke:none"
             d="m 0,0 c 0,-79.207 -64.21,-143.417 -143.417,-143.417 -79.206,0 -143.416,64.21 -143.416,143.417 0,79.207 64.21,143.417 143.416,143.417 C -64.21,143.417 0,79.207 0,0" /></g><g
           transform="translate(256,278.3706)"
           id="g214"><path
             id="path216"
             style="fill:#02244c;fill-opacity:1;fill-rule:nonzero;stroke:none"
             d="m 0,0 c -14.852,0 -30.222,-1.157 -45.798,-3.443 9.388,-12.626 19.43,-24.307 29.924,-34.801 6.137,-6.136 12.749,-12.179 19.673,-17.983 18.022,0.304 36.255,2.768 54.315,7.334 -11,18.203 -23.405,34.366 -36.951,48.138 C 14.04,-0.254 6.93,0 0,0" /></g><g
           transform="translate(256,288.3706)"
           id="g218"><path
             id="path220"
             style="fill:#3d8bfc;fill-opacity:1;fill-rule:nonzero;stroke:none"
             d="M 0,0 C 3.303,0 6.644,-0.056 10.007,-0.167 -26.208,31.947 -66.834,47.693 -85.078,53.604 -79.781,41.655 -69.054,19.736 -52.343,-4.334 -34.547,-1.457 -16.956,0 0,0" /></g><g
           transform="translate(377.6201,255.0918)"
           id="g222"><path
             id="path224"
             style="fill:#0b56ce;fill-opacity:1;fill-rule:nonzero;stroke:none"
             d="M 0,0 C -14.687,5.683 -46.43,16.5 -85.427,21.104 -73.813,8.106 -63.113,-6.625 -53.5,-22.863 -28.774,-15.513 -9.986,-5.802 0,0" /></g><g
           transform="translate(233.0552,233.0557)"
           id="g226"><path
             id="path228"
             style="fill:#83b6ff;fill-opacity:1;fill-rule:nonzero;stroke:none"
             d="m 0,0 c -12.685,12.685 -24.718,27.033 -35.766,42.644 -19.762,27.925 -31.587,52.952 -36.708,64.91 -0.157,-0.179 -1.112,-1.265 -1.112,-1.265 -0.533,-0.617 -1.059,-1.241 -1.582,-1.872 l -0.378,-0.451 c -0.576,-0.699 -1.143,-1.404 -1.71,-2.123 l -0.182,-0.228 c -0.604,-0.77 -1.2,-1.546 -1.83,-2.388 -3.66,-4.896 -6.994,-10.097 -9.9,-15.442 l -0.056,-0.103 c -0.457,-0.843 -0.903,-1.691 -1.339,-2.54 l -0.17,-0.333 c -0.393,-0.77 -0.777,-1.544 -1.154,-2.322 l -0.301,-0.627 c -0.324,-0.679 -0.643,-1.362 -0.957,-2.051 -0.147,-0.322 -0.292,-0.645 -0.437,-0.972 -0.254,-0.571 -0.505,-1.145 -0.751,-1.719 -0.193,-0.451 -0.383,-0.903 -0.573,-1.362 -0.188,-0.454 -0.374,-0.909 -0.555,-1.359 -0.232,-0.582 -0.46,-1.164 -0.685,-1.753 l -0.379,-0.994 c -0.264,-0.707 -0.521,-1.416 -0.774,-2.13 l -0.228,-0.649 c -0.285,-0.819 -0.561,-1.64 -0.853,-2.539 l -0.088,-0.27 c -0.293,-0.914 -0.577,-1.829 -0.849,-2.747 l -0.03,-0.101 c -1.729,-5.85 -3.049,-11.883 -3.92,-17.912 l -0.014,-0.099 c -0.139,-0.968 -0.267,-1.936 -0.384,-2.909 l -0.033,-0.292 c -0.107,-0.9 -0.205,-1.802 -0.292,-2.702 l -0.053,-0.601 c -0.074,-0.807 -0.145,-1.616 -0.203,-2.427 l -0.064,-1.001 c -0.044,-0.688 -0.089,-1.376 -0.123,-2.058 -0.017,-0.359 -0.029,-0.719 -0.042,-1.08 l -0.035,-0.961 c -0.014,-0.357 -0.029,-0.714 -0.037,-1.072 -0.004,-0.131 -0.007,-0.261 -0.01,-0.392 C -93.81,19.234 -46.548,-7.293 11.167,-10.61 7.311,-7.123 3.578,-3.578 0,0" /></g><g
           transform="translate(258.0605,212.1201)"
           id="g230"><path
             id="path232"
             style="fill:#298aff;fill-opacity:1;fill-rule:nonzero;stroke:none"
             d="m 0,0 -0.569,-0.006 c -0.496,-0.005 -0.992,-0.01 -1.492,-0.01 -58.931,0 -108.386,24.265 -127.211,34.887 l 0.021,-0.32 c 0.058,-0.81 0.128,-1.618 0.203,-2.426 l 0.052,-0.599 c 0.088,-0.902 0.185,-1.803 0.294,-2.72 l 0.032,-0.28 c 0.116,-0.969 0.244,-1.938 0.37,-2.818 l 0.025,-0.166 c 0.874,-6.049 2.193,-12.082 3.922,-17.932 l 0.031,-0.101 c 0.272,-0.919 0.556,-1.833 0.846,-2.738 l 0.116,-0.356 c 0.267,-0.822 0.543,-1.644 0.827,-2.463 l 0.231,-0.652 c 0.251,-0.711 0.508,-1.419 0.769,-2.117 l 0.383,-1.008 c 0.224,-0.584 0.451,-1.167 0.681,-1.74 0.183,-0.456 0.369,-0.913 0.561,-1.374 0.188,-0.454 0.377,-0.907 0.568,-1.353 0.247,-0.576 0.498,-1.149 0.754,-1.724 0.144,-0.323 0.289,-0.646 0.436,-0.97 0.314,-0.687 0.633,-1.37 0.958,-2.051 l 0.299,-0.625 c 0.377,-0.778 0.761,-1.553 1.158,-2.329 l 0.163,-0.322 c 0.439,-0.852 0.885,-1.701 1.342,-2.542 l 0.049,-0.09 c 2.913,-5.36 6.247,-10.561 9.952,-15.516 0.586,-0.784 1.182,-1.56 1.784,-2.327 l 0.191,-0.239 c 0.56,-0.711 1.128,-1.417 1.692,-2.103 l 0.392,-0.468 c 0.521,-0.628 1.046,-1.252 1.578,-1.867 l 0.67,-0.76 c 0.451,-0.514 0.903,-1.029 1.364,-1.537 0.241,-0.265 0.485,-0.527 0.73,-0.789 l 0.315,-0.339 c 0,0 0.829,-0.896 1.068,-1.148 0.724,-0.76 1.459,-1.515 2.204,-2.26 0.747,-0.746 1.501,-1.481 2.261,-2.204 0.265,-0.252 0.533,-0.5 0.802,-0.748 l 0.35,-0.324 c 0,0 0.864,-0.806 1.124,-1.043 0.517,-0.469 1.042,-0.93 1.576,-1.398 l 0.724,-0.637 c 0.615,-0.533 1.238,-1.057 1.878,-1.587 l 0.445,-0.373 c 0.699,-0.576 1.405,-1.143 2.108,-1.699 l 0.243,-0.193 c 0.771,-0.604 1.547,-1.2 2.387,-1.828 4.894,-3.66 10.094,-6.993 15.445,-9.902 l 0.1,-0.054 c 0.843,-0.458 1.692,-0.904 2.509,-1.325 l 0.364,-0.185 c 0.77,-0.393 1.546,-0.777 2.313,-1.15 l 0.633,-0.303 c 0.682,-0.326 1.367,-0.645 2.048,-0.957 l 0.984,-0.44 c 0.568,-0.255 1.138,-0.504 1.716,-0.751 0.451,-0.194 0.904,-0.383 1.355,-0.571 0.455,-0.188 0.911,-0.375 1.359,-0.554 0.583,-0.233 1.167,-0.462 1.811,-0.708 l 0.942,-0.359 c 0.707,-0.263 1.415,-0.521 2.128,-0.773 l 0.651,-0.229 c 0.818,-0.284 1.638,-0.56 2.453,-0.824 l 0.357,-0.116 c 0.913,-0.294 1.828,-0.577 2.746,-0.85 l 0.099,-0.029 c 5.846,-1.729 11.879,-3.048 17.87,-3.915 l 0.141,-0.019 c 0.969,-0.139 1.939,-0.267 2.885,-0.382 l 0.313,-0.035 c 0.902,-0.106 1.804,-0.205 2.693,-0.291 l 0.613,-0.053 c 0.809,-0.076 1.618,-0.145 2.433,-0.205 l 0.991,-0.062 c 0.69,-0.045 1.378,-0.091 2.061,-0.124 0.359,-0.017 1.999,-0.075 1.999,-0.075 0.373,-0.016 0.746,-0.031 1.113,-0.039 1.05,-0.027 2.102,-0.04 3.157,-0.04 1.056,0 2.108,0.013 3.153,0.039 0.373,0.009 0.746,0.024 1.119,0.04 l 0.448,0.017 c 0,0 1.191,0.041 1.543,0.058 0.688,0.033 1.374,0.078 2.072,0.124 l 0.992,0.062 c 0.81,0.06 1.62,0.129 2.44,0.206 l 0.587,0.05 c 0.903,0.088 1.806,0.187 2.719,0.294 l 0.276,0.032 c 0.972,0.117 1.941,0.245 2.988,0.394 6.054,0.876 12.087,2.195 17.885,3.909 l 0.148,0.044 c 0.918,0.273 1.833,0.556 2.741,0.848 l 0.354,0.115 c 0.823,0.267 1.642,0.543 2.472,0.831 l 0.644,0.227 c 0.709,0.25 1.417,0.508 2.124,0.771 l 1.001,0.381 c 0.584,0.225 1.168,0.453 1.74,0.681 0.458,0.184 0.914,0.371 1.37,0.56 0.453,0.188 0.905,0.377 1.36,0.572 0.573,0.245 1.143,0.494 1.72,0.752 l 0.966,0.433 c 0.689,0.316 1.376,0.636 2.054,0.959 l 0.624,0.3 c 0.78,0.378 1.554,0.762 2.345,1.165 l 0.306,0.155 c 0.853,0.44 1.703,0.886 2.545,1.343 l 0.09,0.049 c 5.361,2.915 10.562,6.249 15.512,9.949 0.785,0.588 1.561,1.184 2.331,1.788 l 0.237,0.189 c 0.712,0.561 1.417,1.127 2.111,1.699 l 0.464,0.389 c 0.627,0.52 1.249,1.043 1.864,1.576 l 0.812,0.714 c 0.497,0.437 0.995,0.874 1.483,1.317 0.252,0.229 1.503,1.393 1.503,1.393 0.261,0.241 0.522,0.482 0.775,0.723 0.761,0.725 1.516,1.46 2.259,2.202 0.747,0.748 1.483,1.503 2.203,2.259 0.244,0.257 0.485,0.518 0.725,0.777 0,0 1.166,1.254 1.394,1.505 0.447,0.492 0.885,0.991 1.324,1.491 l 0.709,0.805 c 0.532,0.615 1.055,1.237 1.592,1.885 l 0.369,0.438 c 0.575,0.7 1.141,1.405 1.697,2.109 l 0.194,0.244 c 0.605,0.77 1.2,1.547 1.828,2.386 3.661,4.895 6.995,10.096 9.91,15.458 l 0.048,0.09 c 0.457,0.841 0.904,1.691 1.324,2.506 l 0.185,0.366 c 0.393,0.769 0.777,1.544 1.153,2.32 l 0.299,0.623 c 0.326,0.683 0.646,1.369 0.957,2.05 l 0.441,0.983 c 0.255,0.569 0.504,1.139 0.75,1.715 0.193,0.451 0.383,0.903 0.57,1.356 0.19,0.457 0.376,0.913 0.556,1.359 0.232,0.583 0.461,1.167 0.685,1.752 l 0.381,1.002 c 0.264,0.706 0.522,1.413 0.805,2.215 l 0.197,0.564 c 0.284,0.817 0.561,1.637 0.828,2.464 l 0.113,0.345 c 0.293,0.913 0.576,1.827 0.849,2.746 l 0.029,0.1 c 1.729,5.845 3.048,11.878 3.915,17.866 l 0.019,0.145 c 0.14,0.968 0.268,1.939 0.382,2.879 l 0.035,0.319 c 0.106,0.901 0.205,1.803 0.292,2.695 l 0.053,0.609 c 0.075,0.81 0.144,1.619 0.204,2.434 l 0.004,0.055 C 114.297,28.244 93.281,17.331 65.056,9.409 43.484,3.355 21.597,0.189 0,0" /></g></g></g></g></svg>