<?xml version="1.0" encoding="UTF-8" standalone="no"?>
<svg
   xmlns:dc="http://purl.org/dc/elements/1.1/"
   xmlns:cc="http://creativecommons.org/ns#"
   xmlns:rdf="http://www.w3.org/1999/02/22-rdf-syntax-ns#"
   xmlns:svg="http://www.w3.org/2000/svg"
   xmlns="http://www.w3.org/2000/svg"
   viewBox="0 0 640 640"
   height="640"
   width="640"
   xml:space="preserve"
   version="1.1"
   id="svg2"><metadata
     id="metadata8"><rdf:RDF><cc:Work
         rdf:about=""><dc:format>image/svg+xml</dc:format><dc:type
           rdf:resource="http://purl.org/dc/dcmitype/StillImage" /></cc:Work></rdf:RDF></metadata><defs
     id="defs6"><clipPath
       id="clipPath16"
       clipPathUnits="userSpaceOnUse"><path
         id="path18"
         d="M 0,512 512,512 512,0 0,0 0,512 Z" /></clipPath><clipPath
       id="clipPath24"
       clipPathUnits="userSpaceOnUse"><path
         id="path26"
         d="m 18.325,493.744 475.4,0 0,-475.4877 -475.4,0 0,475.4877 z" /></clipPath><clipPath
       id="clipPath28"
       clipPathUnits="userSpaceOnUse"><path
         id="path30"
         d="M 448.99,63.029 C 389.293,3.332 122.807,3.332 63.11,63.029 3.413,122.726 3.413,389.312 63.01,449.009 c 59.597,59.696 326.283,59.596 385.98,0 59.697,-59.597 59.597,-326.283 0,-385.98" /></clipPath><radialGradient
       id="radialGradient36"
       spreadMethod="pad"
       gradientTransform="matrix(237.72188,0,0,237.72188,256.02499,256)"
       gradientUnits="userSpaceOnUse"
       r="1"
       cy="0"
       cx="0"
       fy="0"
       fx="0"><stop
         id="stop38"
         offset="0"
         style="stop-opacity:1;stop-color:#ffffff" /><stop
         id="stop40"
         offset="0.8587"
         style="stop-opacity:0.14129854;stop-color:#ffffff" /><stop
         id="stop42"
         offset="1"
         style="stop-opacity:0;stop-color:#ffffff" /></radialGradient><mask
       id="mask44"
       height="1"
       width="1"
       y="0"
       x="0"
       maskUnits="userSpaceOnUse"><g
         id="g46"><g
           id="g48"><g
             id="g50"><g
               id="g52"><path
                 id="path54"
                 style="fill:url(#radialGradient36);stroke:none"
                 d="m -32768,32767 65535,0 0,-65535 -65535,0 0,65535 z" /></g></g></g></g></mask><radialGradient
       id="radialGradient56"
       spreadMethod="pad"
       gradientTransform="matrix(237.72188,0,0,237.72188,256.02499,256)"
       gradientUnits="userSpaceOnUse"
       r="1"
       cy="0"
       cx="0"
       fy="0"
       fx="0"><stop
         id="stop58"
         offset="0"
         style="stop-opacity:1;stop-color:#010101" /><stop
         id="stop60"
         offset="0.8587"
         style="stop-opacity:1;stop-color:#010101" /><stop
         id="stop62"
         offset="1"
         style="stop-opacity:1;stop-color:#010101" /></radialGradient><clipPath
       id="clipPath86"
       clipPathUnits="userSpaceOnUse"><path
         id="path88"
         d="m 18.325,493.744 475.4,0 0,-475.4877 -475.4,0 0,475.4877 z" /></clipPath><clipPath
       id="clipPath90"
       clipPathUnits="userSpaceOnUse"><path
         id="path92"
         d="M 448.99,63.029 C 389.293,3.332 122.807,3.332 63.11,63.029 3.413,122.726 3.413,389.312 63.01,449.009 c 59.597,59.696 326.283,59.596 385.98,0 59.697,-59.597 59.597,-326.283 0,-385.98" /></clipPath><radialGradient
       id="radialGradient98"
       spreadMethod="pad"
       gradientTransform="matrix(188.25467,188.36119,-130.35883,130.27895,256.02499,256.04376)"
       gradientUnits="userSpaceOnUse"
       r="1"
       cy="0"
       cx="0"
       fy="0"
       fx="0"><stop
         id="stop100"
         offset="0"
         style="stop-opacity:1;stop-color:#ffffff" /><stop
         id="stop102"
         offset="0.8587"
         style="stop-opacity:0.14129854;stop-color:#ffffff" /><stop
         id="stop104"
         offset="1"
         style="stop-opacity:0;stop-color:#ffffff" /></radialGradient><mask
       id="mask106"
       height="1"
       width="1"
       y="0"
       x="0"
       maskUnits="userSpaceOnUse"><g
         id="g108"><g
           id="g110"><g
             id="g112"><g
               id="g114"><path
                 id="path116"
                 style="fill:url(#radialGradient98);stroke:none"
                 d="m -32768,32767 65535,0 0,-65535 -65535,0 0,65535 z" /></g></g></g></g></mask><radialGradient
       id="radialGradient118"
       spreadMethod="pad"
       gradientTransform="matrix(188.25467,188.36119,-130.35883,130.27895,256.02499,256.04376)"
       gradientUnits="userSpaceOnUse"
       r="1"
       cy="0"
       cx="0"
       fy="0"
       fx="0"><stop
         id="stop120"
         offset="0"
         style="stop-opacity:1;stop-color:#010101" /><stop
         id="stop122"
         offset="0.8587"
         style="stop-opacity:1;stop-color:#010101" /><stop
         id="stop124"
         offset="1"
         style="stop-opacity:1;stop-color:#010101" /></radialGradient><clipPath
       id="clipPath148"
       clipPathUnits="userSpaceOnUse"><path
         id="path150"
         d="m 18.275,493.694 475.387,0 0,-475.4377 -475.387,0 0,475.4377 z" /></clipPath><clipPath
       id="clipPath152"
       clipPathUnits="userSpaceOnUse"><path
         id="path154"
         d="m 63.01,63.029 c 59.697,-59.697 326.183,-59.697 385.88,0 59.697,59.697 59.697,326.183 0,385.88 -59.697,59.696 -326.183,59.696 -385.88,0.1 -59.697,-59.597 -59.597,-326.283 0,-385.98" /></clipPath><radialGradient
       id="radialGradient160"
       spreadMethod="pad"
       gradientTransform="matrix(-188.28767,188.39421,130.38168,130.30179,255.92499,255.99377)"
       gradientUnits="userSpaceOnUse"
       r="1"
       cy="0"
       cx="0"
       fy="0"
       fx="0"><stop
         id="stop162"
         offset="0"
         style="stop-opacity:1;stop-color:#ffffff" /><stop
         id="stop164"
         offset="0.8587"
         style="stop-opacity:0.14129854;stop-color:#ffffff" /><stop
         id="stop166"
         offset="1"
         style="stop-opacity:0;stop-color:#ffffff" /></radialGradient><mask
       id="mask168"
       height="1"
       width="1"
       y="0"
       x="0"
       maskUnits="userSpaceOnUse"><g
         id="g170"><g
           id="g172"><g
             id="g174"><g
               id="g176"><path
                 id="path178"
                 style="fill:url(#radialGradient160);stroke:none"
                 d="m -32768,32767 65535,0 0,-65535 -65535,0 0,65535 z" /></g></g></g></g></mask><radialGradient
       id="radialGradient180"
       spreadMethod="pad"
       gradientTransform="matrix(-188.28767,188.39421,130.38168,130.30179,255.92499,255.99377)"
       gradientUnits="userSpaceOnUse"
       r="1"
       cy="0"
       cx="0"
       fy="0"
       fx="0"><stop
         id="stop182"
         offset="0"
         style="stop-opacity:1;stop-color:#010101" /><stop
         id="stop184"
         offset="0.8587"
         style="stop-opacity:1;stop-color:#010101" /><stop
         id="stop186"
         offset="1"
         style="stop-opacity:1;stop-color:#010101" /></radialGradient><clipPath
       id="clipPath214"
       clipPathUnits="userSpaceOnUse"><path
         id="path216"
         d="M 71.0005,438 441,438 441,68 71.0005,68 l 0,370 z" /></clipPath><clipPath
       id="clipPath234"
       clipPathUnits="userSpaceOnUse"><path
         id="path236"
         d="m 143.413,280.837 225.174,0 0,-52.971 -225.174,0 0,52.971 z" /></clipPath></defs><g
     transform="matrix(1.25,0,0,-1.25,0,640)"
     id="g10"><g
       id="g12"><g
         clip-path="url(#clipPath16)"
         id="g14"><g
           id="g20"><g
             id="g22" /><g
             id="g64"><g
               style="opacity:0.39999402"
               id="g66"
               clip-path="url(#clipPath24)"><g
                 id="g68"><g
                   id="g70"
                   clip-path="url(#clipPath28)"><g
                     id="g72"><g
                       id="g74" /><g
                       id="g76"
                       mask="url(#mask44)"><g
                         id="g78"><path
                           id="path80"
                           style="fill:url(#radialGradient56);stroke:none"
                           d="M 448.99,63.029 C 389.293,3.332 122.807,3.332 63.11,63.029 3.413,122.726 3.413,389.312 63.01,449.009 c 59.597,59.696 326.283,59.596 385.98,0 59.697,-59.597 59.597,-326.283 0,-385.98" /></g></g></g></g></g></g></g></g><g
           id="g82"><g
             id="g84" /><g
             id="g126"><g
               style="opacity:0.39999402"
               id="g128"
               clip-path="url(#clipPath86)"><g
                 id="g130"><g
                   id="g132"
                   clip-path="url(#clipPath90)"><g
                     id="g134"><g
                       id="g136" /><g
                       id="g138"
                       mask="url(#mask106)"><g
                         id="g140"><path
                           id="path142"
                           style="fill:url(#radialGradient118);stroke:none"
                           d="M 448.99,63.029 C 389.293,3.332 122.807,3.332 63.11,63.029 3.413,122.726 3.413,389.312 63.01,449.009 c 59.597,59.696 326.283,59.596 385.98,0 59.697,-59.597 59.597,-326.283 0,-385.98" /></g></g></g></g></g></g></g></g><g
           id="g144"><g
             id="g146" /><g
             id="g188"><g
               style="opacity:0.39999402"
               id="g190"
               clip-path="url(#clipPath148)"><g
                 id="g192"><g
                   id="g194"
                   clip-path="url(#clipPath152)"><g
                     id="g196"><g
                       id="g198" /><g
                       id="g200"
                       mask="url(#mask168)"><g
                         id="g202"><path
                           id="path204"
                           style="fill:url(#radialGradient180);stroke:none"
                           d="m 63.01,63.029 c 59.697,-59.697 326.183,-59.697 385.88,0 59.697,59.697 59.697,326.183 0,385.88 -59.697,59.696 -326.183,59.696 -385.88,0.1 -59.697,-59.597 -59.597,-326.283 0,-385.98" /></g></g></g></g></g></g></g></g><g
           transform="translate(433.279,78.721)"
           id="g206"><path
             id="path208"
             style="fill:#0573fa;fill-opacity:1;fill-rule:nonzero;stroke:none"
             d="m 0,0 c -70.294,-70.294 -284.264,-70.294 -354.558,0 -70.294,70.294 -70.294,284.264 0,354.558 70.294,70.294 284.264,70.294 354.558,0 C 70.294,284.264 70.295,70.294 0,0" /></g><g
           id="g210"><g
             id="g212" /><g
             id="g218"><g
               style="opacity:0.19999701"
               id="g220"
               clip-path="url(#clipPath214)"><g
                 id="g222"
                 transform="translate(265.9141,427.8682)"><path
                   id="path224"
                   style="fill:#061831;fill-opacity:1;fill-rule:nonzero;stroke:none"
                   d="m 0,0 c -3.271,0.086 -6.587,0.131 -9.858,0.131 l 0.002,10 c 3.358,0 6.763,-0.046 10.122,-0.135 L 0,0 Z m -24.643,-0.16 -0.396,9.993 c 3.35,0.132 6.754,0.222 10.121,0.266 L -14.787,0.1 c -3.279,-0.043 -6.595,-0.131 -9.856,-0.26 m 39.414,-0.528 c -3.257,0.217 -6.57,0.393 -9.844,0.524 L 5.325,9.828 C 8.688,9.694 12.091,9.512 15.437,9.289 L 14.771,-0.688 Z M -39.4,-1.042 -40.199,8.926 c 3.345,0.268 6.745,0.495 10.105,0.673 l 0.528,-9.987 c -3.27,-0.173 -6.579,-0.393 -9.834,-0.654 m 68.894,-0.936 c -3.24,0.353 -6.54,0.664 -9.809,0.927 l 0.802,9.968 C 23.848,8.646 27.242,8.326 30.574,7.964 l -1.08,-9.942 z m -83.595,-0.554 -1.219,9.926 c 3.316,0.407 6.705,0.775 10.075,1.092 l 0.936,-9.956 c -3.274,-0.308 -6.569,-0.665 -9.792,-1.062 m 98.234,-1.36 C 40.93,-3.4 37.649,-2.947 34.384,-2.544 L 35.606,7.38 C 38.97,6.966 42.35,6.499 45.65,5.992 l -1.517,-9.884 z m -112.839,-0.765 -1.667,9.86 c 3.279,0.554 6.653,1.071 10.026,1.537 l 1.367,-9.907 c -3.274,-0.451 -6.546,-0.953 -9.726,-1.49 M 58.651,-6.475 c -3.158,0.642 -6.409,1.248 -9.663,1.799 l 1.672,9.86 c 3.361,-0.57 6.72,-1.196 9.985,-1.859 l -1.994,-9.8 z M -83.17,-7.47 -85.331,2.293 c 3.247,0.719 6.598,1.399 9.959,2.023 l 1.825,-9.832 c -3.25,-0.603 -6.488,-1.261 -9.623,-1.954 M 72.983,-9.792 c -3.096,0.809 -6.303,1.582 -9.532,2.297 l 2.164,9.763 c 3.349,-0.742 6.679,-1.544 9.896,-2.385 l -2.528,-9.675 z m -170.408,-1.255 -2.721,9.623 c 3.197,0.903 6.515,1.77 9.859,2.573 l 2.337,-9.722 c -3.217,-0.774 -6.404,-1.606 -9.475,-2.474 m 184.462,-2.899 c -2.995,0.997 -6.136,1.962 -9.334,2.868 l 2.727,9.621 c 3.342,-0.947 6.629,-1.957 9.765,-3.001 l -3.158,-9.488 z m -198.398,-1.558 -3.392,9.407 c 3.108,1.121 6.375,2.207 9.71,3.23 l 2.931,-9.561 c -3.18,-0.975 -6.292,-2.01 -9.249,-3.076 m 212.025,-3.589 c -2.862,1.226 -5.899,2.421 -9.027,3.551 l 3.398,9.405 c 3.31,-1.196 6.528,-2.462 9.567,-3.764 l -3.938,-9.192 z m -225.458,-1.928 -4.242,9.057 c 2.99,1.4 6.178,2.766 9.477,4.06 l 3.653,-9.309 c -3.102,-1.217 -6.093,-2.498 -8.888,-3.808 m 238.366,-4.451 c -2.635,1.511 -5.498,2.993 -8.507,4.406 l 4.25,9.051 c 3.253,-1.527 6.359,-3.136 9.23,-4.781 l -4.973,-8.676 z m -250.937,-2.402 -5.393,8.421 c 2.786,1.785 5.837,3.535 9.068,5.202 l 4.584,-8.888 c -2.956,-1.524 -5.734,-3.117 -8.259,-4.735 m 262.522,-5.569 c -2.223,1.876 -4.758,3.731 -7.531,5.512 l 5.404,8.414 c 3.137,-2.015 6.022,-4.129 8.574,-6.282 l -6.447,-7.644 z m -273.432,-3.01 -7.065,7.077 c 2.382,2.378 5.146,4.715 8.213,6.944 l 5.88,-8.088 c -2.648,-1.924 -5.012,-3.921 -7.028,-5.933 m 282.727,-7.105 c -1.928,2.652 -3.924,5.017 -5.932,7.032 l 7.08,7.062 c 2.374,-2.381 4.71,-5.144 6.94,-8.214 l -8.088,-5.88 z m -291.318,-3.792 -8.415,5.402 c 2.013,3.136 4.125,6.022 6.277,8.576 l 7.648,-6.443 c -1.875,-2.226 -3.729,-4.761 -5.51,-7.535 m 298.693,-8.35 c -1.523,2.955 -3.115,5.734 -4.731,8.26 l 8.422,5.39 c 1.784,-2.786 3.533,-5.838 5.198,-9.069 l -8.889,-4.581 z m -305.554,-4.214 -9.053,4.247 c 1.528,3.258 3.136,6.364 4.78,9.233 l 8.676,-4.973 c -1.509,-2.633 -2.99,-5.495 -4.403,-8.507 m 311.477,-8.987 c -1.215,3.099 -2.494,6.089 -3.805,8.888 l 9.057,4.24 c 1.4,-2.993 2.767,-6.182 4.059,-9.478 l -9.311,-3.65 z m -317,-4.443 -9.406,3.398 c 1.196,3.31 2.462,6.528 3.763,9.566 l 9.192,-3.937 c -1.225,-2.861 -2.419,-5.898 -3.549,-9.027 m 321.784,-9.352 c -0.969,3.166 -2.003,6.278 -3.074,9.249 l 9.408,3.39 c 1.125,-3.123 2.212,-6.39 3.229,-9.712 l -9.563,-2.927 z m -326.246,-4.581 -9.622,2.724 c 0.943,3.333 1.953,6.618 3,9.766 l 9.489,-3.156 c -1,-3.006 -1.965,-6.146 -2.867,-9.334 m 330.101,-9.584 c -0.776,3.225 -1.609,6.414 -2.474,9.477 l 9.623,2.719 c 0.901,-3.189 1.767,-6.505 2.573,-9.857 l -9.722,-2.339 z m -333.682,-4.669 -9.764,2.163 c 0.744,3.355 1.546,6.684 2.384,9.895 l 9.676,-2.527 c -0.808,-3.091 -1.58,-6.298 -2.296,-9.531 m 336.736,-9.732 c -0.602,3.248 -1.259,6.486 -1.953,9.623 l 9.764,2.159 c 0.719,-3.248 1.398,-6.599 2.021,-9.96 l -9.832,-1.822 z m -339.554,-4.731 -9.86,1.67 c 0.57,3.366 1.196,6.726 1.859,9.984 l 9.799,-1.993 c -0.641,-3.152 -1.246,-6.402 -1.798,-9.661 m 341.903,-9.835 c -0.449,3.263 -0.951,6.535 -1.489,9.725 l 9.859,1.666 c 0.557,-3.29 1.073,-6.664 1.536,-10.027 l -9.906,-1.364 z m -344.033,-4.771 -9.925,1.223 c 0.415,3.37 0.881,6.749 1.387,10.043 l 9.884,-1.515 c -0.49,-3.198 -0.943,-6.479 -1.346,-9.751 m 345.729,-9.902 c -0.306,3.269 -0.664,6.564 -1.06,9.791 l 9.926,1.219 c 0.408,-3.321 0.775,-6.711 1.091,-10.075 l -9.957,-0.935 z m -347.221,-4.797 -9.968,0.802 c 0.271,3.369 0.591,6.762 0.952,10.085 l 9.941,-1.078 c -0.35,-3.232 -0.662,-6.532 -0.925,-9.809 m 348.301,-9.947 c -0.172,3.27 -0.393,6.579 -0.654,9.835 l 9.969,0.798 c 0.267,-3.345 0.493,-6.744 0.672,-10.103 l -9.987,-0.53 z m -349.187,-4.811 -9.992,0.397 c 0.134,3.37 0.315,6.772 0.538,10.112 l 9.977,-0.666 c -0.216,-3.25 -0.393,-6.562 -0.523,-9.843 m 349.675,-9.968 c -0.043,3.278 -0.13,6.594 -0.259,9.856 l 9.992,0.395 c 0.133,-3.349 0.222,-6.754 0.267,-10.121 l -10,-0.13 z m -349.97,-4.817 -10,0.001 c 10e-4,3.37 0.046,6.776 0.135,10.123 l 9.996,-0.265 c -0.086,-3.26 -0.13,-6.577 -0.131,-9.859 m 359.864,-10.235 -9.996,0.265 c 0.087,3.265 0.131,6.582 0.132,9.859 l 10,-0.003 c -0.001,-3.363 -0.047,-6.769 -0.136,-10.121 m -369.564,-4.945 c -0.133,3.36 -0.223,6.765 -0.266,10.121 l 9.999,0.129 c 0.042,-3.266 0.13,-6.582 0.259,-9.854 l -9.992,-0.396 z m 368.856,-10.227 -9.978,0.668 c 0.217,3.251 0.394,6.562 0.525,9.843 l 9.992,-0.399 c -0.135,-3.37 -0.316,-6.772 -0.539,-10.112 m -367.948,-4.935 c -0.268,3.338 -0.495,6.738 -0.673,10.105 l 9.986,0.529 c 0.174,-3.277 0.394,-6.585 0.655,-9.833 l -9.968,-0.801 z m 366.62,-10.202 -9.941,1.082 c 0.352,3.241 0.665,6.54 0.928,9.809 l 9.968,-0.803 c -0.271,-3.361 -0.592,-6.756 -0.955,-10.088 m -365.088,-4.918 c -0.408,3.324 -0.776,6.713 -1.093,10.075 l 9.956,0.938 c 0.309,-3.268 0.665,-6.563 1.063,-9.792 l -9.926,-1.221 z m 363.117,-10.157 -9.884,1.516 c 0.493,3.215 0.946,6.495 1.347,9.751 l 9.926,-1.225 c -0.414,-3.352 -0.881,-6.73 -1.389,-10.042 m -360.922,-4.896 c -0.558,3.29 -1.075,6.664 -1.538,10.027 l 9.906,1.365 c 0.45,-3.263 0.951,-6.534 1.491,-9.724 l -9.859,-1.668 z m 358.252,-10.1 -9.798,1.996 c 0.641,3.148 1.247,6.398 1.799,9.661 l 9.86,-1.672 c -0.572,-3.37 -1.197,-6.73 -1.861,-9.985 m -355.342,-4.856 c -0.721,3.253 -1.402,6.604 -2.024,9.958 l 9.832,1.826 c 0.602,-3.243 1.26,-6.481 1.955,-9.624 l -9.763,-2.16 z m 351.898,-10.009 -9.674,2.529 c 0.806,3.082 1.579,6.289 2.299,9.531 l 9.762,-2.166 c -0.746,-3.363 -1.549,-6.692 -2.387,-9.894 m -348.179,-4.807 c -0.901,3.186 -1.768,6.502 -2.576,9.857 l 9.723,2.34 c 0.777,-3.227 1.609,-6.415 2.475,-9.474 l -9.622,-2.723 z m 343.836,-9.879 -9.486,3.162 c 0.997,2.994 1.963,6.134 2.869,9.332 l 9.621,-2.726 c -0.947,-3.343 -1.958,-6.63 -3.004,-9.768 m -339.161,-4.728 c -1.121,3.106 -2.208,6.373 -3.232,9.709 l 9.56,2.933 c 0.976,-3.182 2.012,-6.294 3.078,-9.248 l -9.406,-3.394 z m 333.717,-9.676 -9.191,3.939 c 1.225,2.861 2.42,5.897 3.552,9.027 l 9.405,-3.401 c -1.198,-3.31 -2.464,-6.528 -3.766,-9.565 m -327.847,-4.606 c -1.403,2.996 -2.77,6.185 -4.062,9.477 l 9.309,3.652 c 1.214,-3.093 2.495,-6.084 3.808,-8.886 l -9.055,-4.243 z m 320.948,-9.336 -8.674,4.975 c 1.51,2.633 2.992,5.494 4.407,8.506 l 9.051,-4.252 c -1.531,-3.257 -3.14,-6.362 -4.784,-9.229 m -313.456,-4.387 c -1.789,2.79 -3.54,5.841 -5.205,9.068 l 8.888,4.584 c 1.522,-2.95 3.115,-5.727 4.735,-8.254 l -8.418,-5.398 z m 304.449,-8.671 -7.641,6.451 c 1.874,2.22 3.73,4.753 5.514,7.528 l 8.412,-5.408 c -2.019,-3.139 -4.133,-6.022 -6.285,-8.571 m -294.52,-3.906 c -2.379,2.38 -4.717,5.141 -6.949,8.21 l 8.086,5.882 c 1.927,-2.647 3.923,-5.009 5.935,-7.022 l -7.072,-7.07 z m 282.636,-7.024 -5.875,8.092 c 2.65,1.925 5.018,3.92 7.033,5.929 l 7.059,-7.084 c -2.383,-2.374 -5.147,-4.708 -8.217,-6.937 m -270.061,-2.912 c -3.138,2.014 -6.024,4.125 -8.578,6.274 l 6.441,7.651 c 2.225,-1.874 4.76,-3.727 7.536,-5.508 l -5.399,-8.417 z m 256.619,-5.259 -4.579,8.891 c 2.95,1.518 5.728,3.109 8.26,4.728 l 5.389,-8.423 c -2.794,-1.788 -5.846,-3.536 -9.07,-5.196 m -242.899,-2.235 c -3.254,1.525 -6.36,3.133 -9.233,4.777 l 4.969,8.678 c 2.637,-1.51 5.499,-2.99 8.508,-4.4 l -4.244,-9.055 z m 228.765,-4.107 -3.647,9.311 c 3.092,1.211 6.082,2.491 8.889,3.804 l 4.236,-9.059 c -2.999,-1.402 -6.188,-2.767 -9.478,-4.056 m -214.485,-1.766 c -3.322,1.199 -6.542,2.465 -9.569,3.763 l 3.94,9.191 c 2.848,-1.221 5.884,-2.415 9.024,-3.548 l -3.395,-9.406 z m 199.968,-3.268 -2.928,9.563 c 3.179,0.972 6.29,2.007 9.249,3.073 l 3.391,-9.408 c -3.111,-1.121 -6.379,-2.207 -9.712,-3.228 m -185.361,-1.407 c -3.341,0.945 -6.628,1.955 -9.768,3 l 3.158,9.488 c 2.997,-0.998 6.138,-1.962 9.334,-2.867 l -2.724,-9.621 z m 170.605,-2.605 -2.336,9.722 c 3.214,0.773 6.402,1.605 9.476,2.473 l 2.719,-9.623 c -3.2,-0.904 -6.517,-1.77 -9.859,-2.572 m -155.789,-1.118 c -3.355,0.743 -6.685,1.544 -9.897,2.383 l 2.528,9.676 c 3.09,-0.808 6.297,-1.579 9.529,-2.295 l -2.16,-9.764 z m 140.871,-2.045 -1.822,9.832 c 3.236,0.6 6.475,1.256 9.625,1.953 l 2.156,-9.765 c -3.259,-0.721 -6.611,-1.4 -9.959,-2.02 m -125.915,-0.866 c -3.372,0.571 -6.731,1.196 -9.985,1.858 l 1.993,9.799 c 3.147,-0.64 6.397,-1.245 9.66,-1.797 l -1.668,-9.86 z m 110.891,-1.554 -1.361,9.906 c 3.252,0.447 6.523,0.948 9.723,1.488 l 1.666,-9.859 c -3.301,-0.558 -6.675,-1.074 -10.028,-1.535 m -95.838,-0.641 c -3.353,0.413 -6.733,0.879 -10.043,1.386 l 1.512,9.884 c 3.215,-0.492 6.495,-0.944 9.752,-1.344 l -1.221,-9.926 z m 80.738,-1.104 -0.937,9.956 c 3.291,0.31 6.586,0.667 9.794,1.06 l 1.217,-9.926 c -3.3,-0.404 -6.69,-0.771 -10.074,-1.09 m -65.619,-0.43 c -3.374,0.272 -6.768,0.593 -10.086,0.953 l 1.08,9.941 c 3.226,-0.35 6.526,-0.662 9.808,-0.926 l -0.802,-9.968 z m 50.468,-0.682 -0.529,9.986 c 3.295,0.175 6.604,0.395 9.836,0.654 l 0.796,-9.969 c -3.319,-0.266 -6.718,-0.491 -10.103,-0.671 m -35.305,-0.226 c -3.384,0.133 -6.786,0.315 -10.113,0.537 l 0.667,9.978 c 3.237,-0.217 6.549,-0.392 9.842,-0.523 l -0.396,-9.992 z m 20.126,-0.271 -0.129,10 c 3.267,0.042 6.582,0.128 9.856,0.258 l 0.394,-9.992 c -3.361,-0.133 -6.766,-0.222 -10.121,-0.266 m -4.945,-0.031 c -3.376,0 -6.781,0.045 -10.123,0.134 l 0.266,9.996 c 3.253,-0.086 6.569,-0.13 9.857,-0.13 l 0,-10 z" /></g></g></g></g><g
           transform="translate(265.9141,430.8682)"
           id="g226"><path
             id="path228"
             style="fill:#061831;fill-opacity:1;fill-rule:nonzero;stroke:none"
             d="m 0,0 c -3.271,0.086 -6.587,0.131 -9.858,0.131 l 0.002,10 c 3.358,0 6.763,-0.046 10.122,-0.135 L 0,0 Z m -24.643,-0.16 -0.396,9.993 c 3.35,0.132 6.754,0.222 10.121,0.266 L -14.787,0.1 c -3.279,-0.043 -6.595,-0.131 -9.856,-0.26 m 39.414,-0.528 c -3.257,0.217 -6.57,0.393 -9.844,0.524 L 5.325,9.828 C 8.688,9.694 12.091,9.512 15.437,9.289 L 14.771,-0.688 Z M -39.4,-1.042 -40.199,8.926 c 3.345,0.268 6.745,0.495 10.105,0.673 l 0.528,-9.987 c -3.27,-0.173 -6.579,-0.393 -9.834,-0.654 m 68.894,-0.936 c -3.24,0.353 -6.54,0.664 -9.809,0.927 l 0.802,9.968 C 23.848,8.646 27.242,8.326 30.574,7.964 l -1.08,-9.942 z m -83.595,-0.554 -1.219,9.926 c 3.316,0.407 6.705,0.775 10.075,1.092 l 0.936,-9.956 c -3.274,-0.308 -6.569,-0.665 -9.792,-1.062 m 98.234,-1.36 C 40.93,-3.4 37.649,-2.947 34.384,-2.544 L 35.606,7.38 C 38.97,6.966 42.35,6.499 45.65,5.992 l -1.517,-9.884 z m -112.839,-0.765 -1.667,9.86 c 3.279,0.554 6.653,1.071 10.026,1.537 l 1.367,-9.907 c -3.274,-0.451 -6.546,-0.953 -9.726,-1.49 M 58.651,-6.475 c -3.158,0.642 -6.409,1.248 -9.663,1.799 l 1.672,9.86 c 3.361,-0.57 6.72,-1.196 9.985,-1.859 l -1.994,-9.8 z M -83.17,-7.47 -85.331,2.293 c 3.247,0.719 6.598,1.399 9.959,2.023 l 1.825,-9.832 c -3.25,-0.603 -6.488,-1.261 -9.623,-1.954 M 72.983,-9.792 c -3.096,0.809 -6.303,1.582 -9.532,2.297 l 2.164,9.763 c 3.349,-0.742 6.679,-1.544 9.896,-2.385 l -2.528,-9.675 z m -170.408,-1.255 -2.721,9.623 c 3.197,0.903 6.515,1.77 9.859,2.573 l 2.337,-9.722 c -3.217,-0.774 -6.404,-1.606 -9.475,-2.474 m 184.462,-2.899 c -2.995,0.997 -6.136,1.962 -9.334,2.868 l 2.727,9.621 c 3.342,-0.947 6.629,-1.957 9.765,-3.001 l -3.158,-9.488 z m -198.398,-1.558 -3.392,9.407 c 3.108,1.121 6.375,2.207 9.71,3.23 l 2.931,-9.561 c -3.18,-0.975 -6.292,-2.01 -9.249,-3.076 m 212.025,-3.589 c -2.862,1.226 -5.899,2.421 -9.027,3.551 l 3.398,9.405 c 3.31,-1.196 6.528,-2.462 9.567,-3.764 l -3.938,-9.192 z m -225.458,-1.928 -4.242,9.057 c 2.99,1.4 6.178,2.766 9.477,4.06 l 3.653,-9.309 c -3.102,-1.217 -6.093,-2.498 -8.888,-3.808 m 238.366,-4.451 c -2.635,1.511 -5.498,2.993 -8.507,4.406 l 4.25,9.051 c 3.253,-1.527 6.359,-3.136 9.23,-4.781 l -4.973,-8.676 z m -250.937,-2.402 -5.393,8.421 c 2.786,1.785 5.837,3.535 9.068,5.202 l 4.584,-8.888 c -2.956,-1.524 -5.734,-3.117 -8.259,-4.735 m 262.522,-5.569 c -2.223,1.876 -4.758,3.731 -7.531,5.512 l 5.404,8.414 c 3.137,-2.015 6.022,-4.129 8.574,-6.282 l -6.447,-7.644 z m -273.432,-3.01 -7.065,7.077 c 2.382,2.378 5.146,4.715 8.213,6.944 l 5.88,-8.088 c -2.648,-1.924 -5.012,-3.921 -7.028,-5.933 m 282.727,-7.105 c -1.928,2.652 -3.924,5.017 -5.932,7.032 l 7.08,7.062 c 2.374,-2.381 4.71,-5.144 6.94,-8.214 l -8.088,-5.88 z m -291.318,-3.792 -8.415,5.402 c 2.013,3.136 4.125,6.022 6.277,8.576 l 7.648,-6.443 c -1.875,-2.226 -3.729,-4.761 -5.51,-7.535 m 298.693,-8.35 c -1.523,2.955 -3.115,5.734 -4.731,8.26 l 8.422,5.39 c 1.784,-2.786 3.533,-5.838 5.198,-9.069 l -8.889,-4.581 z m -305.554,-4.214 -9.053,4.247 c 1.528,3.258 3.136,6.364 4.78,9.233 l 8.676,-4.973 c -1.509,-2.633 -2.99,-5.495 -4.403,-8.507 m 311.477,-8.987 c -1.215,3.099 -2.494,6.089 -3.805,8.888 l 9.057,4.24 c 1.4,-2.993 2.767,-6.182 4.059,-9.478 l -9.311,-3.65 z m -317,-4.443 -9.406,3.398 c 1.196,3.31 2.462,6.528 3.763,9.566 l 9.192,-3.937 c -1.225,-2.861 -2.419,-5.898 -3.549,-9.027 m 321.784,-9.352 c -0.969,3.166 -2.003,6.278 -3.074,9.249 l 9.408,3.39 c 1.125,-3.123 2.212,-6.39 3.229,-9.712 l -9.563,-2.927 z m -326.246,-4.581 -9.622,2.724 c 0.943,3.333 1.953,6.618 3,9.766 l 9.489,-3.156 c -1,-3.006 -1.965,-6.146 -2.867,-9.334 m 330.101,-9.584 c -0.776,3.225 -1.609,6.414 -2.474,9.477 l 9.623,2.719 c 0.901,-3.189 1.767,-6.505 2.573,-9.857 l -9.722,-2.339 z m -333.682,-4.669 -9.764,2.163 c 0.744,3.355 1.546,6.684 2.384,9.895 l 9.676,-2.527 c -0.808,-3.091 -1.58,-6.298 -2.296,-9.531 m 336.736,-9.732 c -0.602,3.248 -1.259,6.486 -1.953,9.623 l 9.764,2.159 c 0.719,-3.248 1.398,-6.599 2.021,-9.96 l -9.832,-1.822 z m -339.554,-4.731 -9.86,1.67 c 0.57,3.366 1.196,6.726 1.859,9.984 l 9.799,-1.993 c -0.641,-3.152 -1.246,-6.402 -1.798,-9.661 m 341.903,-9.835 c -0.449,3.263 -0.951,6.535 -1.489,9.725 l 9.859,1.666 c 0.557,-3.29 1.073,-6.664 1.536,-10.027 l -9.906,-1.364 z m -344.033,-4.771 -9.925,1.223 c 0.415,3.37 0.881,6.749 1.387,10.043 l 9.884,-1.515 c -0.49,-3.198 -0.943,-6.479 -1.346,-9.751 m 345.729,-9.902 c -0.306,3.269 -0.664,6.564 -1.06,9.791 l 9.926,1.219 c 0.408,-3.321 0.775,-6.711 1.091,-10.075 l -9.957,-0.935 z m -347.221,-4.797 -9.968,0.802 c 0.271,3.369 0.591,6.762 0.952,10.085 l 9.941,-1.078 c -0.35,-3.232 -0.662,-6.532 -0.925,-9.809 m 348.301,-9.947 c -0.172,3.27 -0.393,6.579 -0.654,9.835 l 9.969,0.798 c 0.267,-3.345 0.493,-6.744 0.672,-10.103 l -9.987,-0.53 z m -349.187,-4.811 -9.992,0.397 c 0.134,3.37 0.315,6.772 0.538,10.112 l 9.977,-0.666 c -0.216,-3.25 -0.393,-6.562 -0.523,-9.843 m 349.675,-9.968 c -0.043,3.278 -0.13,6.594 -0.259,9.856 l 9.992,0.395 c 0.133,-3.349 0.222,-6.754 0.267,-10.121 l -10,-0.13 z m -349.97,-4.817 -10,0.001 c 10e-4,3.37 0.046,6.776 0.135,10.123 l 9.996,-0.265 c -0.086,-3.26 -0.13,-6.577 -0.131,-9.859 m 359.864,-10.235 -9.996,0.265 c 0.087,3.265 0.131,6.582 0.132,9.859 l 10,-0.003 c -0.001,-3.363 -0.047,-6.769 -0.136,-10.121 m -369.564,-4.945 c -0.133,3.36 -0.223,6.765 -0.266,10.121 l 9.999,0.129 c 0.042,-3.266 0.13,-6.582 0.259,-9.854 l -9.992,-0.396 z m 368.856,-10.227 -9.978,0.668 c 0.217,3.251 0.394,6.562 0.525,9.843 l 9.992,-0.399 c -0.135,-3.37 -0.316,-6.772 -0.539,-10.112 m -367.948,-4.935 c -0.268,3.338 -0.495,6.738 -0.673,10.105 l 9.986,0.529 c 0.174,-3.277 0.394,-6.585 0.655,-9.833 l -9.968,-0.801 z m 366.62,-10.202 -9.941,1.082 c 0.352,3.241 0.665,6.54 0.928,9.809 l 9.968,-0.803 c -0.271,-3.361 -0.592,-6.756 -0.955,-10.088 m -365.088,-4.918 c -0.408,3.324 -0.776,6.713 -1.093,10.075 l 9.956,0.938 c 0.309,-3.268 0.665,-6.563 1.063,-9.792 l -9.926,-1.221 z m 363.117,-10.157 -9.884,1.516 c 0.493,3.215 0.946,6.495 1.347,9.751 l 9.926,-1.225 c -0.414,-3.352 -0.881,-6.73 -1.389,-10.042 m -360.922,-4.896 c -0.558,3.29 -1.075,6.664 -1.538,10.027 l 9.906,1.365 c 0.45,-3.263 0.951,-6.534 1.491,-9.724 l -9.859,-1.668 z m 358.252,-10.1 -9.798,1.996 c 0.641,3.148 1.247,6.398 1.799,9.661 l 9.86,-1.672 c -0.572,-3.37 -1.197,-6.73 -1.861,-9.985 m -355.342,-4.856 c -0.721,3.253 -1.402,6.604 -2.024,9.958 l 9.832,1.826 c 0.602,-3.243 1.26,-6.481 1.955,-9.624 l -9.763,-2.16 z m 351.898,-10.009 -9.674,2.529 c 0.806,3.082 1.579,6.289 2.299,9.531 l 9.762,-2.166 c -0.746,-3.363 -1.549,-6.692 -2.387,-9.894 m -348.179,-4.807 c -0.901,3.186 -1.768,6.502 -2.576,9.857 l 9.723,2.34 c 0.777,-3.227 1.609,-6.415 2.475,-9.474 l -9.622,-2.723 z m 343.836,-9.879 -9.486,3.162 c 0.997,2.994 1.963,6.134 2.869,9.332 l 9.621,-2.726 c -0.947,-3.343 -1.958,-6.63 -3.004,-9.768 m -339.161,-4.728 c -1.121,3.106 -2.208,6.373 -3.232,9.709 l 9.56,2.933 c 0.976,-3.182 2.012,-6.294 3.078,-9.248 l -9.406,-3.394 z m 333.717,-9.676 -9.191,3.939 c 1.225,2.861 2.42,5.897 3.552,9.027 l 9.405,-3.401 c -1.198,-3.31 -2.464,-6.528 -3.766,-9.565 m -327.847,-4.606 c -1.403,2.996 -2.77,6.185 -4.062,9.477 l 9.309,3.652 c 1.214,-3.093 2.495,-6.084 3.808,-8.886 l -9.055,-4.243 z m 320.948,-9.336 -8.674,4.975 c 1.51,2.633 2.992,5.494 4.407,8.506 l 9.051,-4.252 c -1.531,-3.257 -3.14,-6.362 -4.784,-9.229 m -313.456,-4.387 c -1.789,2.79 -3.54,5.841 -5.205,9.068 l 8.888,4.584 c 1.522,-2.95 3.115,-5.727 4.735,-8.254 l -8.418,-5.398 z m 304.449,-8.671 -7.641,6.451 c 1.874,2.22 3.73,4.753 5.514,7.528 l 8.412,-5.408 c -2.019,-3.139 -4.133,-6.022 -6.285,-8.571 m -294.52,-3.906 c -2.379,2.38 -4.717,5.141 -6.949,8.21 l 8.086,5.882 c 1.927,-2.647 3.923,-5.009 5.935,-7.022 l -7.072,-7.07 z m 282.636,-7.024 -5.875,8.092 c 2.65,1.925 5.018,3.92 7.033,5.929 l 7.059,-7.084 c -2.383,-2.374 -5.147,-4.708 -8.217,-6.937 m -270.061,-2.912 c -3.138,2.014 -6.024,4.125 -8.578,6.274 l 6.441,7.651 c 2.225,-1.874 4.76,-3.727 7.536,-5.508 l -5.399,-8.417 z m 256.619,-5.259 -4.579,8.891 c 2.95,1.518 5.728,3.109 8.26,4.728 l 5.389,-8.423 c -2.794,-1.788 -5.846,-3.536 -9.07,-5.196 m -242.899,-2.235 c -3.254,1.525 -6.36,3.133 -9.233,4.777 l 4.969,8.678 c 2.637,-1.51 5.499,-2.99 8.508,-4.4 l -4.244,-9.055 z m 228.765,-4.107 -3.647,9.311 c 3.092,1.211 6.082,2.491 8.889,3.804 l 4.236,-9.059 c -2.999,-1.402 -6.188,-2.767 -9.478,-4.056 m -214.485,-1.766 c -3.322,1.199 -6.542,2.465 -9.569,3.763 l 3.94,9.191 c 2.848,-1.221 5.884,-2.415 9.024,-3.548 l -3.395,-9.406 z m 199.968,-3.268 -2.928,9.563 c 3.179,0.972 6.29,2.007 9.249,3.073 l 3.391,-9.408 c -3.111,-1.121 -6.379,-2.207 -9.712,-3.228 m -185.361,-1.407 c -3.341,0.945 -6.628,1.955 -9.768,3 l 3.158,9.488 c 2.997,-0.998 6.138,-1.962 9.334,-2.867 l -2.724,-9.621 z m 170.605,-2.605 -2.336,9.722 c 3.214,0.773 6.402,1.605 9.476,2.473 l 2.719,-9.623 c -3.2,-0.904 -6.517,-1.77 -9.859,-2.572 m -155.789,-1.118 c -3.355,0.743 -6.685,1.544 -9.897,2.383 l 2.528,9.676 c 3.09,-0.808 6.297,-1.579 9.529,-2.295 l -2.16,-9.764 z m 140.871,-2.045 -1.822,9.832 c 3.236,0.6 6.475,1.256 9.625,1.953 l 2.156,-9.765 c -3.259,-0.721 -6.611,-1.4 -9.959,-2.02 m -125.915,-0.866 c -3.372,0.571 -6.731,1.196 -9.985,1.858 l 1.993,9.799 c 3.147,-0.64 6.397,-1.245 9.66,-1.797 l -1.668,-9.86 z m 110.891,-1.554 -1.361,9.906 c 3.252,0.447 6.523,0.948 9.723,1.488 l 1.666,-9.859 c -3.301,-0.558 -6.675,-1.074 -10.028,-1.535 m -95.838,-0.641 c -3.353,0.413 -6.733,0.879 -10.043,1.386 l 1.512,9.884 c 3.215,-0.492 6.495,-0.944 9.752,-1.344 l -1.221,-9.926 z m 80.738,-1.104 -0.937,9.956 c 3.291,0.31 6.586,0.667 9.794,1.06 l 1.217,-9.926 c -3.3,-0.404 -6.69,-0.771 -10.074,-1.09 m -65.619,-0.43 c -3.374,0.272 -6.768,0.593 -10.086,0.953 l 1.08,9.941 c 3.226,-0.35 6.526,-0.662 9.808,-0.926 l -0.802,-9.968 z m 50.468,-0.682 -0.529,9.986 c 3.295,0.175 6.604,0.395 9.836,0.654 l 0.796,-9.969 c -3.319,-0.266 -6.718,-0.491 -10.103,-0.671 m -35.305,-0.226 c -3.384,0.133 -6.786,0.315 -10.113,0.537 l 0.667,9.978 c 3.237,-0.217 6.549,-0.392 9.842,-0.523 l -0.396,-9.992 z m 20.126,-0.271 -0.129,10 c 3.267,0.042 6.582,0.128 9.856,0.258 l 0.394,-9.992 c -3.361,-0.133 -6.766,-0.222 -10.121,-0.266 m -4.945,-0.031 c -3.376,0 -6.781,0.045 -10.123,0.134 l 0.266,9.996 c 3.253,-0.086 6.569,-0.13 9.857,-0.13 l 0,-10 z" /></g><g
           id="g230"><g
             id="g232" /><g
             id="g238"><g
               style="opacity:0.19999701"
               id="g240"
               clip-path="url(#clipPath234)"><path
                 id="path242"
                 style="fill:#061831;fill-opacity:1;fill-rule:nonzero;stroke:none"
                 d="m 174.768,233.806 5.94,0 0,-5.941 -5.94,0 0,5.941 z m 0,7.838 5.94,0 0,-5.94 -5.94,0 0,5.94 z m 0,7.839 5.94,0 0,-5.94 -5.94,0 0,5.94 z m 0,7.839 5.94,0 0,-5.94 -5.94,0 0,5.94 z m 0,7.838 5.94,0 0,-5.94 -5.94,0 0,5.94 z m 0,7.839 5.94,0 0,-5.94 -5.94,0 0,5.94 z m -7.839,-23.516 5.94,0 0,-5.94 -5.94,0 0,5.94 z m 0,31.354 5.94,0 0,-5.941 -5.94,0 0,5.941 z m -7.838,-31.354 5.94,0 0,-5.94 -5.94,0 0,5.94 z m 0,31.354 5.94,0 0,-5.941 -5.94,0 0,5.941 z m -7.839,-31.354 5.94,0 0,-5.94 -5.94,0 0,5.94 z m 0,31.354 5.94,0 0,-5.941 -5.94,0 0,5.941 z m -7.839,-47.031 5.941,0 0,-5.941 -5.941,0 0,5.941 z m 0,7.838 5.941,0 0,-5.94 -5.941,0 0,5.94 z m 0,7.839 5.941,0 0,-5.94 -5.941,0 0,5.94 z m 0,7.839 5.941,0 0,-5.94 -5.941,0 0,5.94 z m 0,7.838 5.941,0 0,-5.94 -5.941,0 0,5.94 z m 0,7.839 5.941,0 0,-5.94 -5.941,0 0,5.94 z" /><path
                 id="path244"
                 style="fill:#061831;fill-opacity:1;fill-rule:nonzero;stroke:none"
                 d="m 221.737,233.806 5.941,0 0,-5.941 -5.941,0 0,5.941 z m -7.838,0 5.939,0 0,-5.941 -5.939,0 0,5.941 z m -7.839,0 5.941,0 0,-5.941 -5.941,0 0,5.941 z m -7.838,0 5.939,0 0,-5.941 -5.939,0 0,5.941 z m -7.839,0 5.941,0 0,-5.941 -5.941,0 0,5.941 z m 0,7.838 5.941,0 0,-5.94 -5.941,0 0,5.94 z m 0,7.839 5.941,0 0,-5.94 -5.941,0 0,5.94 z m 0,7.839 5.941,0 0,-5.94 -5.941,0 0,5.94 z m 0,7.838 5.941,0 0,-5.94 -5.941,0 0,5.94 z m 0,7.839 5.941,0 0,-5.94 -5.941,0 0,5.94 z m 0,7.838 5.941,0 0,-5.941 -5.941,0 0,5.941 z" /><path
                 id="path246"
                 style="fill:#061831;fill-opacity:1;fill-rule:nonzero;stroke:none"
                 d="m 268.707,233.806 5.94,0 0,-5.941 -5.94,0 0,5.941 z m 0,47.031 5.94,0 0,-5.941 -5.94,0 0,5.941 z m -7.838,-47.031 5.94,0 0,-5.941 -5.94,0 0,5.941 z m 0,23.516 5.94,0 0,-5.94 -5.94,0 0,5.94 z m 0,23.515 5.94,0 0,-5.941 -5.94,0 0,5.941 z m -7.839,-47.031 5.94,0 0,-5.941 -5.94,0 0,5.941 z m 0,23.516 5.94,0 0,-5.94 -5.94,0 0,5.94 z m 0,23.515 5.94,0 0,-5.941 -5.94,0 0,5.941 z m -7.839,-47.031 5.94,0 0,-5.941 -5.94,0 0,5.941 z m 0,23.516 5.94,0 0,-5.94 -5.94,0 0,5.94 z m 0,23.515 5.94,0 0,-5.941 -5.94,0 0,5.941 z m -7.838,-47.031 5.94,0 0,-5.941 -5.94,0 0,5.941 z m 0,7.838 5.94,0 0,-5.94 -5.94,0 0,5.94 z m 0,7.839 5.94,0 0,-5.94 -5.94,0 0,5.94 z m 0,7.839 5.94,0 0,-5.94 -5.94,0 0,5.94 z m 0,7.838 5.94,0 0,-5.94 -5.94,0 0,5.94 z m 0,7.839 5.94,0 0,-5.94 -5.94,0 0,5.94 z m 0,7.838 5.94,0 0,-5.941 -5.94,0 0,5.941 z" /><path
                 id="path248"
                 style="fill:#061831;fill-opacity:1;fill-rule:nonzero;stroke:none"
                 d="m 315.677,249.483 5.94,0 0,-5.94 -5.94,0 0,5.94 z m 0,7.839 5.94,0 0,-5.94 -5.94,0 0,5.94 z m 0,7.838 5.94,0 0,-5.94 -5.94,0 0,5.94 z m 0,7.839 5.94,0 0,-5.94 -5.94,0 0,5.94 z m 0,7.838 5.94,0 0,-5.941 -5.94,0 0,5.941 z m -7.838,-39.193 5.94,0 0,-5.94 -5.94,0 0,5.94 z m -7.839,-7.838 5.94,0 0,-5.941 -5.94,0 0,5.941 z m -7.838,7.838 5.94,0 0,-5.94 -5.94,0 0,5.94 z m -7.839,7.839 5.94,0 0,-5.94 -5.94,0 0,5.94 z m 0,7.839 5.94,0 0,-5.94 -5.94,0 0,5.94 z m 0,7.838 5.94,0 0,-5.94 -5.94,0 0,5.94 z m 0,7.839 5.94,0 0,-5.94 -5.94,0 0,5.94 z m 0,7.838 5.94,0 0,-5.941 -5.94,0 0,5.941 z" /><path
                 id="path250"
                 style="fill:#061831;fill-opacity:1;fill-rule:nonzero;stroke:none"
                 d="m 362.647,280.837 5.94,0 0,-5.941 -5.94,0 0,5.941 z m -7.839,0 5.94,0 0,-5.941 -5.94,0 0,5.941 z m -7.839,-47.031 5.94,0 0,-5.941 -5.94,0 0,5.941 z m 0,7.838 5.94,0 0,-5.94 -5.94,0 0,5.94 z m 0,7.839 5.94,0 0,-5.94 -5.94,0 0,5.94 z m 0,7.839 5.94,0 0,-5.94 -5.94,0 0,5.94 z m 0,7.838 5.94,0 0,-5.94 -5.94,0 0,5.94 z m 0,7.839 5.94,0 0,-5.94 -5.94,0 0,5.94 z m 0,7.838 5.94,0 0,-5.941 -5.94,0 0,5.941 z m -7.838,0 5.94,0 0,-5.941 -5.94,0 0,5.941 z m -7.839,0 5.94,0 0,-5.941 -5.94,0 0,5.941 z" /></g></g></g><path
           id="path252"
           style="fill:#061831;fill-opacity:1;fill-rule:nonzero;stroke:none"
           d="m 174.768,237.103 5.94,0 0,-5.941 -5.94,0 0,5.941 z m 0,7.838 5.94,0 0,-5.94 -5.94,0 0,5.94 z m 0,7.839 5.94,0 0,-5.94 -5.94,0 0,5.94 z m 0,7.838 5.94,0 0,-5.94 -5.94,0 0,5.94 z m 0,7.839 5.94,0 0,-5.94 -5.94,0 0,5.94 z m 0,7.839 5.94,0 0,-5.94 -5.94,0 0,5.94 z m -7.839,-23.516 5.94,0 0,-5.94 -5.94,0 0,5.94 z m 0,31.354 5.94,0 0,-5.941 -5.94,0 0,5.941 z m -7.838,-31.354 5.94,0 0,-5.94 -5.94,0 0,5.94 z m 0,31.354 5.94,0 0,-5.941 -5.94,0 0,5.941 z m -7.839,-31.354 5.94,0 0,-5.94 -5.94,0 0,5.94 z m 0,31.354 5.94,0 0,-5.941 -5.94,0 0,5.941 z m -7.839,-47.031 5.941,0 0,-5.941 -5.941,0 0,5.941 z m 0,7.838 5.941,0 0,-5.94 -5.941,0 0,5.94 z m 0,7.839 5.941,0 0,-5.94 -5.941,0 0,5.94 z m 0,7.838 5.941,0 0,-5.94 -5.941,0 0,5.94 z m 0,7.839 5.941,0 0,-5.94 -5.941,0 0,5.94 z m 0,7.839 5.941,0 0,-5.94 -5.941,0 0,5.94 z" /><path
           id="path254"
           style="fill:#061831;fill-opacity:1;fill-rule:nonzero;stroke:none"
           d="m 221.737,237.103 5.941,0 0,-5.941 -5.941,0 0,5.941 z m -7.838,0 5.939,0 0,-5.941 -5.939,0 0,5.941 z m -7.839,0 5.941,0 0,-5.941 -5.941,0 0,5.941 z m -7.838,0 5.939,0 0,-5.941 -5.939,0 0,5.941 z m -7.839,0 5.941,0 0,-5.941 -5.941,0 0,5.941 z m 0,7.838 5.941,0 0,-5.94 -5.941,0 0,5.94 z m 0,7.839 5.941,0 0,-5.94 -5.941,0 0,5.94 z m 0,7.838 5.941,0 0,-5.94 -5.941,0 0,5.94 z m 0,7.839 5.941,0 0,-5.94 -5.941,0 0,5.94 z m 0,7.839 5.941,0 0,-5.94 -5.941,0 0,5.94 z m 0,7.838 5.941,0 0,-5.941 -5.941,0 0,5.941 z" /><path
           id="path256"
           style="fill:#061831;fill-opacity:1;fill-rule:nonzero;stroke:none"
           d="m 268.707,237.103 5.94,0 0,-5.941 -5.94,0 0,5.941 z m 0,47.031 5.94,0 0,-5.941 -5.94,0 0,5.941 z m -7.838,-47.031 5.94,0 0,-5.941 -5.94,0 0,5.941 z m 0,23.515 5.94,0 0,-5.94 -5.94,0 0,5.94 z m 0,23.516 5.94,0 0,-5.941 -5.94,0 0,5.941 z m -7.839,-47.031 5.94,0 0,-5.941 -5.94,0 0,5.941 z m 0,23.515 5.94,0 0,-5.94 -5.94,0 0,5.94 z m 0,23.516 5.94,0 0,-5.941 -5.94,0 0,5.941 z m -7.839,-47.031 5.94,0 0,-5.941 -5.94,0 0,5.941 z m 0,23.515 5.94,0 0,-5.94 -5.94,0 0,5.94 z m 0,23.516 5.94,0 0,-5.941 -5.94,0 0,5.941 z m -7.838,-47.031 5.94,0 0,-5.941 -5.94,0 0,5.941 z m 0,7.838 5.94,0 0,-5.94 -5.94,0 0,5.94 z m 0,7.839 5.94,0 0,-5.94 -5.94,0 0,5.94 z m 0,7.838 5.94,0 0,-5.94 -5.94,0 0,5.94 z m 0,7.839 5.94,0 0,-5.94 -5.94,0 0,5.94 z m 0,7.839 5.94,0 0,-5.94 -5.94,0 0,5.94 z m 0,7.838 5.94,0 0,-5.941 -5.94,0 0,5.941 z" /><path
           id="path258"
           style="fill:#061831;fill-opacity:1;fill-rule:nonzero;stroke:none"
           d="m 315.677,252.78 5.94,0 0,-5.94 -5.94,0 0,5.94 z m 0,7.838 5.94,0 0,-5.94 -5.94,0 0,5.94 z m 0,7.839 5.94,0 0,-5.94 -5.94,0 0,5.94 z m 0,7.839 5.94,0 0,-5.94 -5.94,0 0,5.94 z m 0,7.838 5.94,0 0,-5.941 -5.94,0 0,5.941 z m -7.838,-39.193 5.94,0 0,-5.94 -5.94,0 0,5.94 z m -7.839,-7.838 5.94,0 0,-5.941 -5.94,0 0,5.941 z m -7.838,7.838 5.94,0 0,-5.94 -5.94,0 0,5.94 z m -7.839,7.839 5.94,0 0,-5.94 -5.94,0 0,5.94 z m 0,7.838 5.94,0 0,-5.94 -5.94,0 0,5.94 z m 0,7.839 5.94,0 0,-5.94 -5.94,0 0,5.94 z m 0,7.839 5.94,0 0,-5.94 -5.94,0 0,5.94 z m 0,7.838 5.94,0 0,-5.941 -5.94,0 0,5.941 z" /><path
           id="path260"
           style="fill:#061831;fill-opacity:1;fill-rule:nonzero;stroke:none"
           d="m 362.647,284.134 5.94,0 0,-5.941 -5.94,0 0,5.941 z m -7.839,0 5.94,0 0,-5.941 -5.94,0 0,5.941 z m -7.839,-47.031 5.94,0 0,-5.941 -5.94,0 0,5.941 z m 0,7.838 5.94,0 0,-5.94 -5.94,0 0,5.94 z m 0,7.839 5.94,0 0,-5.94 -5.94,0 0,5.94 z m 0,7.838 5.94,0 0,-5.94 -5.94,0 0,5.94 z m 0,7.839 5.94,0 0,-5.94 -5.94,0 0,5.94 z m 0,7.839 5.94,0 0,-5.94 -5.94,0 0,5.94 z m 0,7.838 5.94,0 0,-5.941 -5.94,0 0,5.941 z m -7.838,0 5.94,0 0,-5.941 -5.94,0 0,5.941 z m -7.839,0 5.94,0 0,-5.941 -5.94,0 0,5.941 z" /></g></g></g></svg>