<?xml version="1.0" encoding="utf-8"?>
<!-- Generator: Adobe Illustrator 18.0.0, SVG Export Plug-In . SVG Version: 6.00 Build 0)  -->
<!DOCTYPE svg PUBLIC "-//W3C//DTD SVG 1.1//EN" "http://www.w3.org/Graphics/SVG/1.1/DTD/svg11.dtd">
<svg version="1.1" id="Layer_2" xmlns="http://www.w3.org/2000/svg" xmlns:xlink="http://www.w3.org/1999/xlink" x="0px" y="0px"
	 viewBox="0 0 512 512" enable-background="new 0 0 512 512" xml:space="preserve">
<g>
	<g opacity="0.4" enable-background="new    ">
		
			<radialGradient id="SVGID_1_" cx="0.7625" cy="514.25" r="118.8609" gradientTransform="matrix(2 0 0 -2 254.5 1284.5)" gradientUnits="userSpaceOnUse">
			<stop  offset="0" style="stop-color:#010101"/>
			<stop  offset="0.8587" style="stop-color:#010101;stop-opacity:0.1413"/>
			<stop  offset="1" style="stop-color:#010101;stop-opacity:0"/>
		</radialGradient>
		<path fill="url(#SVGID_1_)" d="M449,449c-59.7,59.7-326.2,59.7-385.9,0S3.4,122.7,63,63s326.3-59.6,386,0S508.6,389.3,449,449z"/>
	</g>
	<g opacity="0.4" enable-background="new    ">
		
			<radialGradient id="SVGID_2_" cx="1.5285" cy="515.0576" r="133.1551" gradientTransform="matrix(1.4138 -1.4146 -0.979 -0.9784 758.1053 762.0507)" gradientUnits="userSpaceOnUse">
			<stop  offset="0" style="stop-color:#010101"/>
			<stop  offset="0.8587" style="stop-color:#010101;stop-opacity:0.1413"/>
			<stop  offset="1" style="stop-color:#010101;stop-opacity:0"/>
		</radialGradient>
		<path fill="url(#SVGID_2_)" d="M449,449c-59.7,59.7-326.2,59.7-385.9,0S3.4,122.7,63,63s326.3-59.6,386,0S508.6,389.3,449,449z"/>
	</g>
	<g opacity="0.4" enable-background="new    ">
		
			<radialGradient id="SVGID_3_" cx="2.5888" cy="513.4733" r="133.1784" gradientTransform="matrix(-1.4138 -1.4146 0.979 -0.9784 -243.1053 762.0507)" gradientUnits="userSpaceOnUse">
			<stop  offset="0" style="stop-color:#010101"/>
			<stop  offset="0.8587" style="stop-color:#010101;stop-opacity:0.1413"/>
			<stop  offset="1" style="stop-color:#010101;stop-opacity:0"/>
		</radialGradient>
		<path fill="url(#SVGID_3_)" d="M63,449c59.7,59.7,326.2,59.7,385.9,0s59.7-326.2,0-385.9S122.7,3.4,63,63S3.4,389.3,63,449z"/>
	</g>
</g>
<g>
	<path fill="#0573FA" d="M433.3,433.3c-70.3,70.3-284.3,70.3-354.6,0S8.4,149,78.7,78.7s284.3-70.3,354.6,0S503.6,363,433.3,433.3z"
		/>
	<g>
		<path opacity="0.2" fill="#061831" d="M256,444c-3.4,0-6.8,0-10.1-0.1l0.3-10c3.3,0.1,6.6,0.1,9.9,0.1V444z M260.9,444l-0.1-10
			c3.3,0,6.6-0.1,9.9-0.3l0.4,10C267.7,443.8,264.3,443.9,260.9,444z M240.8,443.7c-3.4-0.1-6.8-0.3-10.1-0.5l0.7-10
			c3.2,0.2,6.5,0.4,9.8,0.5L240.8,443.7z M276.1,443.5l-0.5-10c3.3-0.2,6.6-0.4,9.8-0.7l0.8,10C282.9,443.1,279.5,443.3,276.1,443.5
			z M225.7,442.8c-3.4-0.3-6.8-0.6-10.1-1l1.1-9.9c3.2,0.4,6.5,0.7,9.8,0.9L225.7,442.8z M291.3,442.4l-0.9-10
			c3.3-0.3,6.6-0.7,9.8-1.1l1.2,9.9C298,441.7,294.7,442,291.3,442.4z M210.5,441.3c-3.4-0.4-6.7-0.9-10-1.4l1.5-9.9
			c3.2,0.5,6.5,0.9,9.8,1.3L210.5,441.3z M306.4,440.6l-1.4-9.9c3.3-0.4,6.5-0.9,9.7-1.5l1.7,9.9
			C313.1,439.6,309.7,440.2,306.4,440.6z M195.5,439.1c-3.4-0.6-6.7-1.2-10-1.9l2-9.8c3.1,0.6,6.4,1.2,9.7,1.8L195.5,439.1z
			 M321.4,438.2l-1.8-9.8c3.2-0.6,6.5-1.3,9.6-2l2.2,9.8C328.1,436.9,324.7,437.6,321.4,438.2z M180.5,436.1
			c-3.4-0.7-6.7-1.5-9.9-2.4l2.5-9.7c3.1,0.8,6.3,1.6,9.5,2.3L180.5,436.1z M336.3,435l-2.3-9.7c3.2-0.8,6.4-1.6,9.5-2.5l2.7,9.6
			C343,433.4,339.7,434.2,336.3,435z M165.7,432.4c-3.3-0.9-6.6-2-9.8-3l3.2-9.5c3,1,6.1,2,9.3,2.9L165.7,432.4z M351.1,431
			l-2.9-9.6c3.2-1,6.3-2,9.2-3.1l3.4,9.4C357.7,428.9,354.4,430,351.1,431z M151.1,427.8c-3.3-1.2-6.5-2.5-9.6-3.8l3.9-9.2
			c2.8,1.2,5.9,2.4,9,3.5L151.1,427.8z M365.6,426l-3.6-9.3c3.1-1.2,6.1-2.5,8.9-3.8l4.2,9.1C372.1,423.3,368.9,424.7,365.6,426z
			 M136.8,421.9c-3.3-1.5-6.4-3.1-9.2-4.8l5-8.7c2.6,1.5,5.5,3,8.5,4.4L136.8,421.9z M379.7,419.6l-4.6-8.9c2.9-1.5,5.7-3.1,8.3-4.7
			l5.4,8.4C386,416.2,382.9,418,379.7,419.6z M123.1,414.4c-3.1-2-6-4.1-8.6-6.3l6.4-7.7c2.2,1.9,4.8,3.7,7.5,5.5L123.1,414.4z
			 M393.2,411.5l-5.9-8.1c2.7-1.9,5-3.9,7-5.9l7.1,7.1C399,406.9,396.2,409.2,393.2,411.5z M110.5,404.4c-2.4-2.4-4.7-5.1-6.9-8.2
			l8.1-5.9c1.9,2.6,3.9,5,5.9,7L110.5,404.4z M405,400.5l-7.6-6.5c1.9-2.2,3.7-4.8,5.5-7.5l8.4,5.4C409.3,395.1,407.2,398,405,400.5
			z M100.6,391.9c-1.8-2.8-3.5-5.8-5.2-9.1l8.9-4.6c1.5,3,3.1,5.7,4.7,8.3L100.6,391.9z M414.1,387.5l-8.7-5c1.5-2.6,3-5.5,4.4-8.5
			l9.1,4.3C417.3,381.5,415.7,384.6,414.1,387.5z M93.1,378.1c-1.4-3-2.8-6.2-4.1-9.5l9.3-3.7c1.2,3.1,2.5,6.1,3.8,8.9L93.1,378.1z
			 M421,373.5l-9.2-3.9c1.2-2.9,2.4-5.9,3.6-9l9.4,3.4C423.5,367.3,422.3,370.5,421,373.5z M87.2,363.9c-1.1-3.1-2.2-6.4-3.2-9.7
			l9.6-2.9c1,3.2,2,6.3,3.1,9.2L87.2,363.9z M426.4,359.1l-9.5-3.2c1-3,2-6.1,2.9-9.3l9.6,2.7C428.5,352.7,427.4,356,426.4,359.1z
			 M82.6,349.3c-0.9-3.2-1.8-6.5-2.6-9.9l9.7-2.3c0.8,3.2,1.6,6.4,2.5,9.5L82.6,349.3z M430.7,344.5l-9.7-2.5
			c0.8-3.1,1.6-6.3,2.3-9.5l9.8,2.2C432.4,337.9,431.6,341.3,430.7,344.5z M78.8,334.4c-0.7-3.3-1.4-6.6-2-10l9.8-1.8
			c0.6,3.2,1.3,6.5,2,9.6L78.8,334.4z M434.2,329.6l-9.8-2c0.6-3.1,1.2-6.4,1.8-9.7l9.9,1.7C435.5,323,434.9,326.3,434.2,329.6z
			 M75.9,319.5c-0.6-3.3-1.1-6.7-1.5-10l9.9-1.4c0.4,3.3,1,6.5,1.5,9.7L75.9,319.5z M436.9,314.6l-9.9-1.5c0.5-3.2,0.9-6.5,1.3-9.8
			l9.9,1.2C437.8,307.9,437.4,311.3,436.9,314.6z M73.7,304.4c-0.4-3.3-0.8-6.7-1.1-10.1l10-0.9c0.3,3.3,0.7,6.6,1.1,9.8L73.7,304.4
			z M438.8,299.5l-9.9-1.1c0.4-3.2,0.7-6.5,0.9-9.8l10,0.8C439.5,292.8,439.2,296.2,438.8,299.5z M72.2,289.3
			c-0.3-3.3-0.5-6.7-0.7-10.1l10-0.5c0.2,3.3,0.4,6.6,0.7,9.8L72.2,289.3z M440.2,284.4l-10-0.7c0.2-3.3,0.4-6.6,0.5-9.8l10,0.4
			C440.6,277.6,440.4,281,440.2,284.4z M71.3,274.2c-0.1-3.4-0.2-6.8-0.3-10.1l10-0.1c0,3.3,0.1,6.6,0.3,9.9L71.3,274.2z
			 M440.9,269.2l-10-0.3c0.1-3.3,0.1-6.6,0.1-9.9l10,0C441,262.5,441,265.9,440.9,269.2z M81,259l-10,0c0-3.4,0-6.8,0.1-10.1l10,0.3
			C81,252.4,81,255.7,81,259z M431,254.2c0-3.3-0.1-6.6-0.3-9.9l10-0.4c0.1,3.3,0.2,6.8,0.3,10.1L431,254.2z M81.3,244.2l-10-0.4
			c0.1-3.4,0.3-6.8,0.5-10.1l10,0.7C81.6,237.6,81.4,240.9,81.3,244.2z M430.5,239.4c-0.2-3.3-0.4-6.6-0.7-9.8l10-0.8
			c0.3,3.3,0.5,6.7,0.7,10.1L430.5,239.4z M82.2,229.4l-10-0.8c0.3-3.4,0.6-6.8,1-10.1l9.9,1.1C82.8,222.9,82.4,226.2,82.2,229.4z
			 M429.4,224.6c-0.3-3.3-0.7-6.6-1.1-9.8l9.9-1.2c0.4,3.3,0.8,6.7,1.1,10.1L429.4,224.6z M83.7,214.7l-9.9-1.2
			c0.4-3.4,0.9-6.7,1.4-10L85,205C84.5,208.2,84.1,211.5,83.7,214.7z M427.7,210c-0.4-3.3-1-6.5-1.5-9.7l9.9-1.7
			c0.6,3.3,1.1,6.7,1.5,10L427.7,210z M85.8,200.1l-9.9-1.7c0.6-3.4,1.2-6.7,1.9-10l9.8,2C87,193.6,86.4,196.9,85.8,200.1z
			 M425.4,195.4c-0.6-3.2-1.3-6.5-2-9.6l9.8-2.2c0.7,3.2,1.4,6.6,2,10L425.4,195.4z M88.6,185.7l-9.8-2.2c0.7-3.4,1.5-6.7,2.4-9.9
			l9.7,2.5C90.1,179.2,89.3,182.4,88.6,185.7z M422.3,181c-0.8-3.2-1.6-6.4-2.5-9.5l9.6-2.7c0.9,3.2,1.8,6.5,2.6,9.9L422.3,181z
			 M92.2,171.4l-9.6-2.7c0.9-3.3,2-6.6,3-9.8l9.5,3.2C94.1,165.1,93.1,168.2,92.2,171.4z M418.4,166.8c-1-3.2-2-6.3-3.1-9.2l9.4-3.4
			c1.1,3.1,2.2,6.4,3.2,9.7L418.4,166.8z M96.7,157.5l-9.4-3.4c1.2-3.3,2.5-6.5,3.8-9.6l9.2,3.9C99,151.3,97.8,154.3,96.7,157.5z
			 M413.7,153c-1.2-3.1-2.5-6.1-3.8-8.9l9.1-4.2c1.4,3,2.8,6.2,4.1,9.5L413.7,153z M102.2,144l-9.1-4.2c1.5-3.3,3.1-6.4,4.8-9.2
			l8.7,5C105.1,138.2,103.6,141,102.2,144z M407.7,139.8c-1.5-3-3.1-5.7-4.7-8.3l8.4-5.4c1.8,2.8,3.5,5.8,5.2,9.1L407.7,139.8z
			 M109,131.5l-8.4-5.4c2-3.1,4.1-6,6.3-8.6l7.6,6.4C112.7,126.2,110.8,128.7,109,131.5z M400.4,127.7c-1.9-2.7-3.9-5-5.9-7l7.1-7.1
			c2.4,2.4,4.7,5.1,6.9,8.2L400.4,127.7z M117.6,120.6l-7.1-7.1c2.4-2.4,5.1-4.7,8.2-6.9l5.9,8.1C122,116.6,119.7,118.6,117.6,120.6
			z M391.1,117.6c-2.2-1.9-4.8-3.7-7.5-5.5l5.4-8.4c3.1,2,6,4.1,8.6,6.3L391.1,117.6z M128.5,112l-5.4-8.4c2.8-1.8,5.8-3.5,9.1-5.2
			l4.6,8.9C133.9,108.8,131.1,110.4,128.5,112z M379.5,109.6c-2.6-1.5-5.5-3-8.5-4.4l4.2-9.1c3.3,1.5,6.4,3.1,9.2,4.8L379.5,109.6z
			 M141.1,105.2l-4.2-9.1c3-1.4,6.2-2.8,9.5-4.1l3.7,9.3C146.9,102.6,143.9,103.8,141.1,105.2z M366.6,103.2c-2.9-1.2-5.9-2.4-9-3.6
			l3.4-9.4c3.3,1.2,6.5,2.5,9.6,3.8L366.6,103.2z M154.6,99.6l-3.4-9.4c3.1-1.1,6.4-2.2,9.7-3.2l2.9,9.6
			C160.6,97.5,157.5,98.6,154.6,99.6z M353,98.1c-3-1-6.1-2-9.3-2.9l2.7-9.6c3.3,0.9,6.6,2,9.8,3L353,98.1z M168.5,95.2l-2.7-9.6
			c3.2-0.9,6.5-1.8,9.9-2.6l2.3,9.7C174.7,93.5,171.6,94.3,168.5,95.2z M338.9,93.9c-3.1-0.8-6.3-1.6-9.5-2.3l2.2-9.8
			c3.3,0.7,6.7,1.5,9.9,2.4L338.9,93.9z M182.7,91.6l-2.2-9.8c3.2-0.7,6.6-1.4,10-2l1.8,9.8C189.1,90.3,185.9,90.9,182.7,91.6z
			 M324.6,90.6c-3.2-0.6-6.4-1.2-9.7-1.8l1.7-9.9c3.4,0.6,6.7,1.2,10,1.9L324.6,90.6z M197.2,88.8l-1.7-9.9c3.3-0.6,6.7-1.1,10-1.5
			l1.4,9.9C203.7,87.8,200.4,88.3,197.2,88.8z M310,88c-3.2-0.5-6.5-0.9-9.7-1.3l1.2-9.9c3.4,0.4,6.7,0.9,10,1.4L310,88z
			 M211.8,86.7l-1.2-9.9c3.3-0.4,6.7-0.8,10.1-1.1l0.9,10C218.3,85.9,215,86.3,211.8,86.7z M295.4,86.1c-3.2-0.4-6.5-0.7-9.8-0.9
			l0.8-10c3.4,0.3,6.8,0.6,10.1,1L295.4,86.1z M226.5,85.2l-0.8-10c3.3-0.3,6.7-0.5,10.1-0.7l0.5,10
			C233.1,84.7,229.8,84.9,226.5,85.2z M280.7,84.8c-3.3-0.2-6.6-0.4-9.8-0.5l0.4-10c3.4,0.1,6.8,0.3,10.1,0.5L280.7,84.8z
			 M241.3,84.3l-0.4-10c3.3-0.1,6.8-0.2,10.1-0.3l0.1,10C247.8,84.1,244.5,84.2,241.3,84.3z M265.9,84.1c-3.3-0.1-6.6-0.1-9.9-0.1
			l0-10c3.4,0,6.8,0,10.1,0.1L265.9,84.1z"/>
		<path fill="#061831" d="M256,441c-3.4,0-6.8,0-10.1-0.1l0.3-10c3.3,0.1,6.6,0.1,9.9,0.1V441z M260.9,441l-0.1-10
			c3.3,0,6.6-0.1,9.9-0.3l0.4,10C267.7,440.8,264.3,440.9,260.9,441z M240.8,440.7c-3.4-0.1-6.8-0.3-10.1-0.5l0.7-10
			c3.2,0.2,6.5,0.4,9.8,0.5L240.8,440.7z M276.1,440.5l-0.5-10c3.3-0.2,6.6-0.4,9.8-0.7l0.8,10C282.9,440.1,279.5,440.3,276.1,440.5
			z M225.7,439.8c-3.4-0.3-6.8-0.6-10.1-1l1.1-9.9c3.2,0.4,6.5,0.7,9.8,0.9L225.7,439.8z M291.3,439.4l-0.9-10
			c3.3-0.3,6.6-0.7,9.8-1.1l1.2,9.9C298,438.7,294.7,439,291.3,439.4z M210.5,438.3c-3.4-0.4-6.7-0.9-10-1.4l1.5-9.9
			c3.2,0.5,6.5,0.9,9.8,1.3L210.5,438.3z M306.4,437.6l-1.4-9.9c3.3-0.4,6.5-0.9,9.7-1.5l1.7,9.9
			C313.1,436.6,309.7,437.2,306.4,437.6z M195.5,436.1c-3.4-0.6-6.7-1.2-10-1.9l2-9.8c3.1,0.6,6.4,1.2,9.7,1.8L195.5,436.1z
			 M321.4,435.2l-1.8-9.8c3.2-0.6,6.5-1.3,9.6-2l2.2,9.8C328.1,433.9,324.7,434.6,321.4,435.2z M180.5,433.1
			c-3.4-0.7-6.7-1.5-9.9-2.4l2.5-9.7c3.1,0.8,6.3,1.6,9.5,2.3L180.5,433.1z M336.3,432l-2.3-9.7c3.2-0.8,6.4-1.6,9.5-2.5l2.7,9.6
			C343,430.4,339.7,431.2,336.3,432z M165.7,429.4c-3.3-0.9-6.6-2-9.8-3l3.2-9.5c3,1,6.1,2,9.3,2.9L165.7,429.4z M351.1,428
			l-2.9-9.6c3.2-1,6.3-2,9.2-3.1l3.4,9.4C357.7,425.9,354.4,427,351.1,428z M151.1,424.8c-3.3-1.2-6.5-2.5-9.6-3.8l3.9-9.2
			c2.8,1.2,5.9,2.4,9,3.5L151.1,424.8z M365.6,423l-3.6-9.3c3.1-1.2,6.1-2.5,8.9-3.8l4.2,9.1C372.1,420.3,368.9,421.7,365.6,423z
			 M136.8,418.9c-3.3-1.5-6.4-3.1-9.2-4.8l5-8.7c2.6,1.5,5.5,3,8.5,4.4L136.8,418.9z M379.7,416.6l-4.6-8.9c2.9-1.5,5.7-3.1,8.3-4.7
			l5.4,8.4C386,413.2,382.9,415,379.7,416.6z M123.1,411.4c-3.1-2-6-4.1-8.6-6.3l6.4-7.7c2.2,1.9,4.8,3.7,7.5,5.5L123.1,411.4z
			 M393.2,408.5l-5.9-8.1c2.7-1.9,5-3.9,7-5.9l7.1,7.1C399,403.9,396.2,406.2,393.2,408.5z M110.5,401.4c-2.4-2.4-4.7-5.1-6.9-8.2
			l8.1-5.9c1.9,2.6,3.9,5,5.9,7L110.5,401.4z M405,397.5l-7.6-6.5c1.9-2.2,3.7-4.8,5.5-7.5l8.4,5.4C409.3,392.1,407.2,395,405,397.5
			z M100.6,388.9c-1.8-2.8-3.5-5.8-5.2-9.1l8.9-4.6c1.5,3,3.1,5.7,4.7,8.3L100.6,388.9z M414.1,384.5l-8.7-5c1.5-2.6,3-5.5,4.4-8.5
			l9.1,4.3C417.3,378.5,415.7,381.6,414.1,384.5z M93.1,375.1c-1.4-3-2.8-6.2-4.1-9.5l9.3-3.7c1.2,3.1,2.5,6.1,3.8,8.9L93.1,375.1z
			 M421,370.5l-9.2-3.9c1.2-2.9,2.4-5.9,3.6-9l9.4,3.4C423.5,364.3,422.3,367.5,421,370.5z M87.2,360.9c-1.1-3.1-2.2-6.4-3.2-9.7
			l9.6-2.9c1,3.2,2,6.3,3.1,9.2L87.2,360.9z M426.4,356.1l-9.5-3.2c1-3,2-6.1,2.9-9.3l9.6,2.7C428.5,349.7,427.4,353,426.4,356.1z
			 M82.6,346.3c-0.9-3.2-1.8-6.5-2.6-9.9l9.7-2.3c0.8,3.2,1.6,6.4,2.5,9.5L82.6,346.3z M430.7,341.5l-9.7-2.5
			c0.8-3.1,1.6-6.3,2.3-9.5l9.8,2.2C432.4,334.9,431.6,338.3,430.7,341.5z M78.8,331.4c-0.7-3.3-1.4-6.6-2-10l9.8-1.8
			c0.6,3.2,1.3,6.5,2,9.6L78.8,331.4z M434.2,326.6l-9.8-2c0.6-3.1,1.2-6.4,1.8-9.7l9.9,1.7C435.5,320,434.9,323.3,434.2,326.6z
			 M75.9,316.5c-0.6-3.3-1.1-6.7-1.5-10l9.9-1.4c0.4,3.3,1,6.5,1.5,9.7L75.9,316.5z M436.9,311.6l-9.9-1.5c0.5-3.2,0.9-6.5,1.3-9.8
			l9.9,1.2C437.8,304.9,437.4,308.3,436.9,311.6z M73.7,301.4c-0.4-3.3-0.8-6.7-1.1-10.1l10-0.9c0.3,3.3,0.7,6.6,1.1,9.8L73.7,301.4
			z M438.8,296.5l-9.9-1.1c0.4-3.2,0.7-6.5,0.9-9.8l10,0.8C439.5,289.8,439.2,293.2,438.8,296.5z M72.2,286.3
			c-0.3-3.3-0.5-6.7-0.7-10.1l10-0.5c0.2,3.3,0.4,6.6,0.7,9.8L72.2,286.3z M440.2,281.4l-10-0.7c0.2-3.3,0.4-6.6,0.5-9.8l10,0.4
			C440.6,274.6,440.4,278,440.2,281.4z M71.3,271.2c-0.1-3.4-0.2-6.8-0.3-10.1l10-0.1c0,3.3,0.1,6.6,0.3,9.9L71.3,271.2z
			 M440.9,266.2l-10-0.3c0.1-3.3,0.1-6.6,0.1-9.9l10,0C441,259.5,441,262.9,440.9,266.2z M81,256l-10,0c0-3.4,0-6.8,0.1-10.1l10,0.3
			C81,249.4,81,252.7,81,256z M431,251.2c0-3.3-0.1-6.6-0.3-9.9l10-0.4c0.1,3.3,0.2,6.8,0.3,10.1L431,251.2z M81.3,241.2l-10-0.4
			c0.1-3.4,0.3-6.8,0.5-10.1l10,0.7C81.6,234.6,81.4,237.9,81.3,241.2z M430.5,236.4c-0.2-3.3-0.4-6.6-0.7-9.8l10-0.8
			c0.3,3.3,0.5,6.7,0.7,10.1L430.5,236.4z M82.2,226.4l-10-0.8c0.3-3.4,0.6-6.8,1-10.1l9.9,1.1C82.8,219.9,82.4,223.2,82.2,226.4z
			 M429.4,221.6c-0.3-3.3-0.7-6.6-1.1-9.8l9.9-1.2c0.4,3.3,0.8,6.7,1.1,10.1L429.4,221.6z M83.7,211.7l-9.9-1.2
			c0.4-3.4,0.9-6.7,1.4-10L85,202C84.5,205.2,84.1,208.5,83.7,211.7z M427.7,207c-0.4-3.3-1-6.5-1.5-9.7l9.9-1.7
			c0.6,3.3,1.1,6.7,1.5,10L427.7,207z M85.8,197.1l-9.9-1.7c0.6-3.4,1.2-6.7,1.9-10l9.8,2C87,190.6,86.4,193.9,85.8,197.1z
			 M425.4,192.4c-0.6-3.2-1.3-6.5-2-9.6l9.8-2.2c0.7,3.2,1.4,6.6,2,10L425.4,192.4z M88.6,182.7l-9.8-2.2c0.7-3.4,1.5-6.7,2.4-9.9
			l9.7,2.5C90.1,176.2,89.3,179.4,88.6,182.7z M422.3,178c-0.8-3.2-1.6-6.4-2.5-9.5l9.6-2.7c0.9,3.2,1.8,6.5,2.6,9.9L422.3,178z
			 M92.2,168.4l-9.6-2.7c0.9-3.3,2-6.6,3-9.8l9.5,3.2C94.1,162.1,93.1,165.2,92.2,168.4z M418.4,163.8c-1-3.2-2-6.3-3.1-9.2l9.4-3.4
			c1.1,3.1,2.2,6.4,3.2,9.7L418.4,163.8z M96.7,154.5l-9.4-3.4c1.2-3.3,2.5-6.5,3.8-9.6l9.2,3.9C99,148.3,97.8,151.3,96.7,154.5z
			 M413.7,150c-1.2-3.1-2.5-6.1-3.8-8.9l9.1-4.2c1.4,3,2.8,6.2,4.1,9.5L413.7,150z M102.2,141l-9.1-4.2c1.5-3.3,3.1-6.4,4.8-9.2
			l8.7,5C105.1,135.2,103.6,138,102.2,141z M407.7,136.8c-1.5-3-3.1-5.7-4.7-8.3l8.4-5.4c1.8,2.8,3.5,5.8,5.2,9.1L407.7,136.8z
			 M109,128.5l-8.4-5.4c2-3.1,4.1-6,6.3-8.6l7.6,6.4C112.7,123.2,110.8,125.7,109,128.5z M400.4,124.7c-1.9-2.7-3.9-5-5.9-7l7.1-7.1
			c2.4,2.4,4.7,5.1,6.9,8.2L400.4,124.7z M117.6,117.6l-7.1-7.1c2.4-2.4,5.1-4.7,8.2-6.9l5.9,8.1C122,113.6,119.7,115.6,117.6,117.6
			z M391.1,114.6c-2.2-1.9-4.8-3.7-7.5-5.5l5.4-8.4c3.1,2,6,4.1,8.6,6.3L391.1,114.6z M128.5,109l-5.4-8.4c2.8-1.8,5.8-3.5,9.1-5.2
			l4.6,8.9C133.9,105.8,131.1,107.4,128.5,109z M379.5,106.6c-2.6-1.5-5.5-3-8.5-4.4l4.2-9.1c3.3,1.5,6.4,3.1,9.2,4.8L379.5,106.6z
			 M141.1,102.2l-4.2-9.1c3-1.4,6.2-2.8,9.5-4.1l3.7,9.3C146.9,99.6,143.9,100.8,141.1,102.2z M366.6,100.2c-2.9-1.2-5.9-2.4-9-3.6
			l3.4-9.4c3.3,1.2,6.5,2.5,9.6,3.8L366.6,100.2z M154.6,96.6l-3.4-9.4c3.1-1.1,6.4-2.2,9.7-3.2l2.9,9.6
			C160.6,94.5,157.5,95.6,154.6,96.6z M353,95.1c-3-1-6.1-2-9.3-2.9l2.7-9.6c3.3,0.9,6.6,2,9.8,3L353,95.1z M168.5,92.2l-2.7-9.6
			c3.2-0.9,6.5-1.8,9.9-2.6l2.3,9.7C174.7,90.5,171.6,91.3,168.5,92.2z M338.9,90.9c-3.1-0.8-6.3-1.6-9.5-2.3l2.2-9.8
			c3.3,0.7,6.7,1.5,9.9,2.4L338.9,90.9z M182.7,88.6l-2.2-9.8c3.2-0.7,6.6-1.4,10-2l1.8,9.8C189.1,87.3,185.9,87.9,182.7,88.6z
			 M324.6,87.6c-3.2-0.6-6.4-1.2-9.7-1.8l1.7-9.9c3.4,0.6,6.7,1.2,10,1.9L324.6,87.6z M197.2,85.8l-1.7-9.9c3.3-0.6,6.7-1.1,10-1.5
			l1.4,9.9C203.7,84.8,200.4,85.3,197.2,85.8z M310,85c-3.2-0.5-6.5-0.9-9.7-1.3l1.2-9.9c3.4,0.4,6.7,0.9,10,1.4L310,85z
			 M211.8,83.7l-1.2-9.9c3.3-0.4,6.7-0.8,10.1-1.1l0.9,10C218.3,82.9,215,83.3,211.8,83.7z M295.4,83.1c-3.2-0.4-6.5-0.7-9.8-0.9
			l0.8-10c3.4,0.3,6.8,0.6,10.1,1L295.4,83.1z M226.5,82.2l-0.8-10c3.3-0.3,6.7-0.5,10.1-0.7l0.5,10
			C233.1,81.7,229.8,81.9,226.5,82.2z M280.7,81.8c-3.3-0.2-6.6-0.4-9.8-0.5l0.4-10c3.4,0.1,6.8,0.3,10.1,0.5L280.7,81.8z
			 M241.3,81.3l-0.4-10c3.3-0.1,6.8-0.2,10.1-0.3l0.1,10C247.8,81.1,244.5,81.2,241.3,81.3z M265.9,81.1c-3.3-0.1-6.6-0.1-9.9-0.1
			l0-10c3.4,0,6.8,0,10.1,0.1L265.9,81.1z"/>
	</g>
</g>
<g>
	<g opacity="0.2">
		<path fill="#061831" d="M143.4,244.9V239h5.9v5.9H143.4z M143.4,252.8v-5.9h5.9v5.9H143.4z M143.4,260.6v-5.9h5.9v5.9H143.4z
			 M143.4,268.5v-5.9h5.9v5.9H143.4z M143.4,276.3v-5.9h5.9v5.9H143.4z M143.4,284.1v-5.9h5.9v5.9H143.4z M151.3,237.1v-5.9h5.9v5.9
			H151.3z M151.3,268.5v-5.9h5.9v5.9H151.3z M159.1,237.1v-5.9h5.9v5.9H159.1z M159.1,268.5v-5.9h5.9v5.9H159.1z M166.9,237.1v-5.9
			h5.9v5.9H166.9z M166.9,268.5v-5.9h5.9v5.9H166.9z M174.8,244.9V239h5.9v5.9H174.8z M174.8,252.8v-5.9h5.9v5.9H174.8z
			 M174.8,260.6v-5.9h5.9v5.9H174.8z M174.8,268.5v-5.9h5.9v5.9H174.8z M174.8,276.3v-5.9h5.9v5.9H174.8z M174.8,284.1v-5.9h5.9v5.9
			H174.8z"/>
		<path fill="#061831" d="M190.4,237.1v-5.9h5.9v5.9H190.4z M190.4,244.9V239h5.9v5.9H190.4z M190.4,252.8v-5.9h5.9v5.9H190.4z
			 M190.4,260.6v-5.9h5.9v5.9H190.4z M190.4,268.5v-5.9h5.9v5.9H190.4z M190.4,276.3v-5.9h5.9v5.9H190.4z M190.4,284.1v-5.9h5.9v5.9
			H190.4z M198.2,284.1v-5.9h5.9v5.9H198.2z M206.1,284.1v-5.9h5.9v5.9H206.1z M213.9,284.1v-5.9h5.9v5.9H213.9z M221.7,284.1v-5.9
			h5.9v5.9H221.7z"/>
		<path fill="#061831" d="M237.4,237.1v-5.9h5.9v5.9H237.4z M237.4,244.9V239h5.9v5.9H237.4z M237.4,252.8v-5.9h5.9v5.9H237.4z
			 M237.4,260.6v-5.9h5.9v5.9H237.4z M237.4,268.5v-5.9h5.9v5.9H237.4z M237.4,276.3v-5.9h5.9v5.9H237.4z M237.4,284.1v-5.9h5.9v5.9
			H237.4z M245.2,237.1v-5.9h5.9v5.9H245.2z M245.2,260.6v-5.9h5.9v5.9H245.2z M245.2,284.1v-5.9h5.9v5.9H245.2z M253,237.1v-5.9
			h5.9v5.9H253z M253,260.6v-5.9h5.9v5.9H253z M253,284.1v-5.9h5.9v5.9H253z M260.9,237.1v-5.9h5.9v5.9H260.9z M260.9,260.6v-5.9
			h5.9v5.9H260.9z M260.9,284.1v-5.9h5.9v5.9H260.9z M268.7,237.1v-5.9h5.9v5.9H268.7z M268.7,284.1v-5.9h5.9v5.9H268.7z"/>
		<path fill="#061831" d="M284.3,237.1v-5.9h5.9v5.9H284.3z M284.3,244.9V239h5.9v5.9H284.3z M284.3,252.8v-5.9h5.9v5.9H284.3z
			 M284.3,260.6v-5.9h5.9v5.9H284.3z M284.3,268.5v-5.9h5.9v5.9H284.3z M292.2,276.3v-5.9h5.9v5.9H292.2z M300,284.1v-5.9h5.9v5.9
			H300z M307.8,276.3v-5.9h5.9v5.9H307.8z M315.7,237.1v-5.9h5.9v5.9H315.7z M315.7,244.9V239h5.9v5.9H315.7z M315.7,252.8v-5.9h5.9
			v5.9H315.7z M315.7,260.6v-5.9h5.9v5.9H315.7z M315.7,268.5v-5.9h5.9v5.9H315.7z"/>
		<path fill="#061831" d="M331.3,237.1v-5.9h5.9v5.9H331.3z M339.1,237.1v-5.9h5.9v5.9H339.1z M347,237.1v-5.9h5.9v5.9H347z
			 M347,244.9V239h5.9v5.9H347z M347,252.8v-5.9h5.9v5.9H347z M347,260.6v-5.9h5.9v5.9H347z M347,268.5v-5.9h5.9v5.9H347z
			 M347,276.3v-5.9h5.9v5.9H347z M347,284.1v-5.9h5.9v5.9H347z M354.8,237.1v-5.9h5.9v5.9H354.8z M362.6,237.1v-5.9h5.9v5.9H362.6z"
			/>
	</g>
	<g>
		<path fill="#061831" d="M143.4,241.6v-5.9h5.9v5.9H143.4z M143.4,249.5v-5.9h5.9v5.9H143.4z M143.4,257.3v-5.9h5.9v5.9H143.4z
			 M143.4,265.2v-5.9h5.9v5.9H143.4z M143.4,273v-5.9h5.9v5.9H143.4z M143.4,280.8v-5.9h5.9v5.9H143.4z M151.3,233.8v-5.9h5.9v5.9
			H151.3z M151.3,265.2v-5.9h5.9v5.9H151.3z M159.1,233.8v-5.9h5.9v5.9H159.1z M159.1,265.2v-5.9h5.9v5.9H159.1z M166.9,233.8v-5.9
			h5.9v5.9H166.9z M166.9,265.2v-5.9h5.9v5.9H166.9z M174.8,241.6v-5.9h5.9v5.9H174.8z M174.8,249.5v-5.9h5.9v5.9H174.8z
			 M174.8,257.3v-5.9h5.9v5.9H174.8z M174.8,265.2v-5.9h5.9v5.9H174.8z M174.8,273v-5.9h5.9v5.9H174.8z M174.8,280.8v-5.9h5.9v5.9
			H174.8z"/>
		<path fill="#061831" d="M190.4,233.8v-5.9h5.9v5.9H190.4z M190.4,241.6v-5.9h5.9v5.9H190.4z M190.4,249.5v-5.9h5.9v5.9H190.4z
			 M190.4,257.3v-5.9h5.9v5.9H190.4z M190.4,265.2v-5.9h5.9v5.9H190.4z M190.4,273v-5.9h5.9v5.9H190.4z M190.4,280.8v-5.9h5.9v5.9
			H190.4z M198.2,280.8v-5.9h5.9v5.9H198.2z M206.1,280.8v-5.9h5.9v5.9H206.1z M213.9,280.8v-5.9h5.9v5.9H213.9z M221.7,280.8v-5.9
			h5.9v5.9H221.7z"/>
		<path fill="#061831" d="M237.4,233.8v-5.9h5.9v5.9H237.4z M237.4,241.6v-5.9h5.9v5.9H237.4z M237.4,249.5v-5.9h5.9v5.9H237.4z
			 M237.4,257.3v-5.9h5.9v5.9H237.4z M237.4,265.2v-5.9h5.9v5.9H237.4z M237.4,273v-5.9h5.9v5.9H237.4z M237.4,280.8v-5.9h5.9v5.9
			H237.4z M245.2,233.8v-5.9h5.9v5.9H245.2z M245.2,257.3v-5.9h5.9v5.9H245.2z M245.2,280.8v-5.9h5.9v5.9H245.2z M253,233.8v-5.9
			h5.9v5.9H253z M253,257.3v-5.9h5.9v5.9H253z M253,280.8v-5.9h5.9v5.9H253z M260.9,233.8v-5.9h5.9v5.9H260.9z M260.9,257.3v-5.9
			h5.9v5.9H260.9z M260.9,280.8v-5.9h5.9v5.9H260.9z M268.7,233.8v-5.9h5.9v5.9H268.7z M268.7,280.8v-5.9h5.9v5.9H268.7z"/>
		<path fill="#061831" d="M284.3,233.8v-5.9h5.9v5.9H284.3z M284.3,241.6v-5.9h5.9v5.9H284.3z M284.3,249.5v-5.9h5.9v5.9H284.3z
			 M284.3,257.3v-5.9h5.9v5.9H284.3z M284.3,265.2v-5.9h5.9v5.9H284.3z M292.2,273v-5.9h5.9v5.9H292.2z M300,280.8v-5.9h5.9v5.9H300
			z M307.8,273v-5.9h5.9v5.9H307.8z M315.7,233.8v-5.9h5.9v5.9H315.7z M315.7,241.6v-5.9h5.9v5.9H315.7z M315.7,249.5v-5.9h5.9v5.9
			H315.7z M315.7,257.3v-5.9h5.9v5.9H315.7z M315.7,265.2v-5.9h5.9v5.9H315.7z"/>
		<path fill="#061831" d="M331.3,233.8v-5.9h5.9v5.9H331.3z M339.1,233.8v-5.9h5.9v5.9H339.1z M347,233.8v-5.9h5.9v5.9H347z
			 M347,241.6v-5.9h5.9v5.9H347z M347,249.5v-5.9h5.9v5.9H347z M347,257.3v-5.9h5.9v5.9H347z M347,265.2v-5.9h5.9v5.9H347z M347,273
			v-5.9h5.9v5.9H347z M347,280.8v-5.9h5.9v5.9H347z M354.8,233.8v-5.9h5.9v5.9H354.8z M362.6,233.8v-5.9h5.9v5.9H362.6z"/>
	</g>
</g>
</svg>
