<?xml version="1.0" encoding="UTF-8" standalone="no"?>
<svg
   xmlns:dc="http://purl.org/dc/elements/1.1/"
   xmlns:cc="http://creativecommons.org/ns#"
   xmlns:rdf="http://www.w3.org/1999/02/22-rdf-syntax-ns#"
   xmlns:svg="http://www.w3.org/2000/svg"
   xmlns="http://www.w3.org/2000/svg"
   viewBox="0 0 640 640"
   height="640"
   width="640"
   xml:space="preserve"
   version="1.1"
   id="svg2"><metadata
     id="metadata8"><rdf:RDF><cc:Work
         rdf:about=""><dc:format>image/svg+xml</dc:format><dc:type
           rdf:resource="http://purl.org/dc/dcmitype/StillImage" /></cc:Work></rdf:RDF></metadata><defs
     id="defs6"><clipPath
       id="clipPath16"
       clipPathUnits="userSpaceOnUse"><path
         id="path18"
         d="M 0,512 512,512 512,0 0,0 0,512 Z" /></clipPath><clipPath
       id="clipPath24"
       clipPathUnits="userSpaceOnUse"><path
         id="path26"
         d="m 18.325,493.744 475.4,0 0,-475.4877 -475.4,0 0,475.4877 z" /></clipPath><clipPath
       id="clipPath28"
       clipPathUnits="userSpaceOnUse"><path
         id="path30"
         d="M 448.99,63.029 C 389.293,3.332 122.807,3.332 63.11,63.029 3.413,122.726 3.413,389.312 63.01,449.009 c 59.597,59.696 326.283,59.596 385.98,0 59.697,-59.597 59.597,-326.283 0,-385.98" /></clipPath><radialGradient
       id="radialGradient36"
       spreadMethod="pad"
       gradientTransform="matrix(237.72188,0,0,237.72188,256.02499,256)"
       gradientUnits="userSpaceOnUse"
       r="1"
       cy="0"
       cx="0"
       fy="0"
       fx="0"><stop
         id="stop38"
         offset="0"
         style="stop-opacity:1;stop-color:#ffffff" /><stop
         id="stop40"
         offset="0.8587"
         style="stop-opacity:0.14129854;stop-color:#ffffff" /><stop
         id="stop42"
         offset="1"
         style="stop-opacity:0;stop-color:#ffffff" /></radialGradient><mask
       id="mask44"
       height="1"
       width="1"
       y="0"
       x="0"
       maskUnits="userSpaceOnUse"><g
         id="g46"><g
           id="g48"><g
             id="g50"><g
               id="g52"><path
                 id="path54"
                 style="fill:url(#radialGradient36);stroke:none"
                 d="m -32768,32767 65535,0 0,-65535 -65535,0 0,65535 z" /></g></g></g></g></mask><radialGradient
       id="radialGradient56"
       spreadMethod="pad"
       gradientTransform="matrix(237.72188,0,0,237.72188,256.02499,256)"
       gradientUnits="userSpaceOnUse"
       r="1"
       cy="0"
       cx="0"
       fy="0"
       fx="0"><stop
         id="stop58"
         offset="0"
         style="stop-opacity:1;stop-color:#010101" /><stop
         id="stop60"
         offset="0.8587"
         style="stop-opacity:1;stop-color:#010101" /><stop
         id="stop62"
         offset="1"
         style="stop-opacity:1;stop-color:#010101" /></radialGradient><clipPath
       id="clipPath86"
       clipPathUnits="userSpaceOnUse"><path
         id="path88"
         d="m 18.325,493.744 475.4,0 0,-475.4877 -475.4,0 0,475.4877 z" /></clipPath><clipPath
       id="clipPath90"
       clipPathUnits="userSpaceOnUse"><path
         id="path92"
         d="M 448.99,63.029 C 389.293,3.332 122.807,3.332 63.11,63.029 3.413,122.726 3.413,389.312 63.01,449.009 c 59.597,59.696 326.283,59.596 385.98,0 59.697,-59.597 59.597,-326.283 0,-385.98" /></clipPath><radialGradient
       id="radialGradient98"
       spreadMethod="pad"
       gradientTransform="matrix(188.25467,188.36119,-130.35883,130.27895,256.02499,256.04376)"
       gradientUnits="userSpaceOnUse"
       r="1"
       cy="0"
       cx="0"
       fy="0"
       fx="0"><stop
         id="stop100"
         offset="0"
         style="stop-opacity:1;stop-color:#ffffff" /><stop
         id="stop102"
         offset="0.8587"
         style="stop-opacity:0.14129854;stop-color:#ffffff" /><stop
         id="stop104"
         offset="1"
         style="stop-opacity:0;stop-color:#ffffff" /></radialGradient><mask
       id="mask106"
       height="1"
       width="1"
       y="0"
       x="0"
       maskUnits="userSpaceOnUse"><g
         id="g108"><g
           id="g110"><g
             id="g112"><g
               id="g114"><path
                 id="path116"
                 style="fill:url(#radialGradient98);stroke:none"
                 d="m -32768,32767 65535,0 0,-65535 -65535,0 0,65535 z" /></g></g></g></g></mask><radialGradient
       id="radialGradient118"
       spreadMethod="pad"
       gradientTransform="matrix(188.25467,188.36119,-130.35883,130.27895,256.02499,256.04376)"
       gradientUnits="userSpaceOnUse"
       r="1"
       cy="0"
       cx="0"
       fy="0"
       fx="0"><stop
         id="stop120"
         offset="0"
         style="stop-opacity:1;stop-color:#010101" /><stop
         id="stop122"
         offset="0.8587"
         style="stop-opacity:1;stop-color:#010101" /><stop
         id="stop124"
         offset="1"
         style="stop-opacity:1;stop-color:#010101" /></radialGradient><clipPath
       id="clipPath148"
       clipPathUnits="userSpaceOnUse"><path
         id="path150"
         d="m 18.275,493.694 475.387,0 0,-475.4377 -475.387,0 0,475.4377 z" /></clipPath><clipPath
       id="clipPath152"
       clipPathUnits="userSpaceOnUse"><path
         id="path154"
         d="m 63.01,63.029 c 59.697,-59.697 326.183,-59.697 385.88,0 59.697,59.697 59.697,326.183 0,385.88 -59.697,59.696 -326.183,59.696 -385.88,0.1 -59.697,-59.597 -59.597,-326.283 0,-385.98" /></clipPath><radialGradient
       id="radialGradient160"
       spreadMethod="pad"
       gradientTransform="matrix(-188.28767,188.39421,130.38168,130.30179,255.92499,255.99377)"
       gradientUnits="userSpaceOnUse"
       r="1"
       cy="0"
       cx="0"
       fy="0"
       fx="0"><stop
         id="stop162"
         offset="0"
         style="stop-opacity:1;stop-color:#ffffff" /><stop
         id="stop164"
         offset="0.8587"
         style="stop-opacity:0.14129854;stop-color:#ffffff" /><stop
         id="stop166"
         offset="1"
         style="stop-opacity:0;stop-color:#ffffff" /></radialGradient><mask
       id="mask168"
       height="1"
       width="1"
       y="0"
       x="0"
       maskUnits="userSpaceOnUse"><g
         id="g170"><g
           id="g172"><g
             id="g174"><g
               id="g176"><path
                 id="path178"
                 style="fill:url(#radialGradient160);stroke:none"
                 d="m -32768,32767 65535,0 0,-65535 -65535,0 0,65535 z" /></g></g></g></g></mask><radialGradient
       id="radialGradient180"
       spreadMethod="pad"
       gradientTransform="matrix(-188.28767,188.39421,130.38168,130.30179,255.92499,255.99377)"
       gradientUnits="userSpaceOnUse"
       r="1"
       cy="0"
       cx="0"
       fy="0"
       fx="0"><stop
         id="stop182"
         offset="0"
         style="stop-opacity:1;stop-color:#010101" /><stop
         id="stop184"
         offset="0.8587"
         style="stop-opacity:1;stop-color:#010101" /><stop
         id="stop186"
         offset="1"
         style="stop-opacity:1;stop-color:#010101" /></radialGradient><radialGradient
       id="radialGradient218"
       spreadMethod="pad"
       gradientTransform="matrix(229.9996,0,0,-229.9996,256.00018,256)"
       gradientUnits="userSpaceOnUse"
       r="1"
       cy="0"
       cx="0"
       fy="0"
       fx="0"><stop
         id="stop220"
         offset="0"
         style="stop-opacity:1;stop-color:#747678" /><stop
         id="stop222"
         offset="0.29109689"
         style="stop-opacity:1;stop-color:#747678" /><stop
         id="stop224"
         offset="1"
         style="stop-opacity:1;stop-color:#6c6d70" /></radialGradient><clipPath
       id="clipPath232"
       clipPathUnits="userSpaceOnUse"><path
         id="path234"
         d="M 0,512 512,512 512,0 0,0 0,512 Z" /></clipPath></defs><g
     transform="matrix(1.25,0,0,-1.25,0,640)"
     id="g10"><g
       id="g12"><g
         clip-path="url(#clipPath16)"
         id="g14"><g
           id="g20"><g
             id="g22" /><g
             id="g64"><g
               style="opacity:0.39999402"
               id="g66"
               clip-path="url(#clipPath24)"><g
                 id="g68"><g
                   id="g70"
                   clip-path="url(#clipPath28)"><g
                     id="g72"><g
                       id="g74" /><g
                       id="g76"
                       mask="url(#mask44)"><g
                         id="g78"><path
                           id="path80"
                           style="fill:url(#radialGradient56);stroke:none"
                           d="M 448.99,63.029 C 389.293,3.332 122.807,3.332 63.11,63.029 3.413,122.726 3.413,389.312 63.01,449.009 c 59.597,59.696 326.283,59.596 385.98,0 59.697,-59.597 59.597,-326.283 0,-385.98" /></g></g></g></g></g></g></g></g><g
           id="g82"><g
             id="g84" /><g
             id="g126"><g
               style="opacity:0.39999402"
               id="g128"
               clip-path="url(#clipPath86)"><g
                 id="g130"><g
                   id="g132"
                   clip-path="url(#clipPath90)"><g
                     id="g134"><g
                       id="g136" /><g
                       id="g138"
                       mask="url(#mask106)"><g
                         id="g140"><path
                           id="path142"
                           style="fill:url(#radialGradient118);stroke:none"
                           d="M 448.99,63.029 C 389.293,3.332 122.807,3.332 63.11,63.029 3.413,122.726 3.413,389.312 63.01,449.009 c 59.597,59.696 326.283,59.596 385.98,0 59.697,-59.597 59.597,-326.283 0,-385.98" /></g></g></g></g></g></g></g></g><g
           id="g144"><g
             id="g146" /><g
             id="g188"><g
               style="opacity:0.39999402"
               id="g190"
               clip-path="url(#clipPath148)"><g
                 id="g192"><g
                   id="g194"
                   clip-path="url(#clipPath152)"><g
                     id="g196"><g
                       id="g198" /><g
                       id="g200"
                       mask="url(#mask168)"><g
                         id="g202"><path
                           id="path204"
                           style="fill:url(#radialGradient180);stroke:none"
                           d="m 63.01,63.029 c 59.697,-59.697 326.183,-59.697 385.88,0 59.697,59.697 59.697,326.183 0,385.88 -59.697,59.696 -326.183,59.696 -385.88,0.1 -59.697,-59.597 -59.597,-326.283 0,-385.98" /></g></g></g></g></g></g></g></g></g></g><g
       id="g206"><g
         id="g208"><g
           id="g214"><g
             id="g216"><path
               id="path226"
               style="fill:url(#radialGradient218);stroke:none"
               d="M 78.721,433.279 C 8.427,362.985 8.427,149.015 78.721,78.721 l 0,0 c 70.294,-70.294 284.264,-70.294 354.558,0 l 0,0 c 70.295,70.294 70.294,284.264 0,354.558 l 0,0 C 398.132,468.426 327.066,486 256,486 l 0,0 C 184.934,486 113.868,468.426 78.721,433.279" /></g></g></g></g><g
       id="g228"><g
         clip-path="url(#clipPath232)"
         id="g230"><g
           transform="translate(256,371.7602)"
           id="g236"><path
             id="path238"
             style="fill:#7cb342;fill-opacity:1;fill-rule:nonzero;stroke:none"
             d="m 0,0 c -63.632,0 -115.313,-51.681 -115.313,-115.313 l 115.313,0 115.313,0 C 115.418,-51.577 63.737,0 0,0" /></g><g
           transform="translate(256,256.4469)"
           id="g240"><path
             id="path242"
             style="fill:#8bc34a;fill-opacity:1;fill-rule:nonzero;stroke:none"
             d="m 0,0 -115.313,0 c 0,-63.632 51.681,-115.313 115.313,-115.313 63.632,0 115.313,51.681 115.313,115.313 L 0,0 Z" /></g><g
           transform="translate(348.4603,135.6824)"
           id="g244"><path
             id="path246"
             style="fill:#e1e1e1;fill-opacity:1;fill-rule:nonzero;stroke:none"
             d="m 0,0 c -0.105,1.048 -0.419,1.992 -0.943,2.935 l -33.546,58.181 -11.112,19.394 -20.757,35.852 -15.829,-15.83 19.498,-33.86 10.693,-18.555 32.393,-55.979 c 0.524,-0.944 1.258,-1.678 2.096,-2.202 l 16.144,-11.007 c 0.629,-0.419 1.363,-0.419 1.992,-0.105 0.629,0.42 0.943,1.049 0.943,1.782 L 0,0 Z" /></g><g
           transform="translate(317.745,256.4469)"
           id="g248"><path
             id="path250"
             style="fill:#f1f1f1;fill-opacity:1;fill-rule:nonzero;stroke:none"
             d="m 0,0 c 0,-15.305 -5.661,-29.352 -14.991,-40.255 -4.822,-5.556 -10.483,-10.273 -16.982,-13.837 -8.806,-4.927 -18.975,-7.653 -29.772,-7.653 -10.798,0 -20.966,2.83 -29.667,7.653 l 19.498,33.86 -15.829,15.829 -65.519,-113.426 c -0.524,-0.944 -0.839,-1.887 -0.943,-2.935 l -1.468,-19.499 c -0.105,-0.734 0.315,-1.363 0.944,-1.782 0.628,-0.419 1.362,-0.314 1.991,0.105 l 16.144,10.902 c 0.839,0.629 1.573,1.363 2.097,2.202 l 32.392,56.084 c 11.951,-6.709 25.789,-10.588 40.465,-10.588 14.676,0 28.514,3.879 40.464,10.588 6.395,3.564 12.265,7.967 17.402,12.999 15.515,15.095 25.264,36.271 25.264,59.648 L 0,0 Z" /></g><g
           transform="translate(256.1048,256.4469)"
           id="g252"><path
             id="path254"
             style="fill:#646464;fill-opacity:1;fill-rule:nonzero;stroke:none"
             d="m 0,0 -0.105,0 c -8.806,0 -16.039,7.233 -16.039,16.144 0,8.91 7.233,16.144 16.039,16.144 l 0,0.209 L 0,32.288 C 8.806,32.183 16.039,25.054 16.039,16.144 16.039,7.233 8.806,0.105 0,0 m 20.023,42.876 -6.71,0 0,21.49 0,0.105 -13.418,0 -13.313,0 0,-0.105 0,-21.49 -6.814,0 c -6.605,0 -12.056,-5.452 -12.056,-12.056 l 0,-27.361 0.105,0 c -0.105,-1.048 0.524,-2.201 1.887,-3.564 L -6.08,-24.321 c 1.677,-1.677 3.879,-2.516 5.975,-2.516 l 0,0.105 L 0,-26.837 c 2.201,0 4.403,0.839 5.975,2.516 l 24.216,24.216 c 1.363,1.363 1.887,2.621 1.887,3.564 l 0.105,0 0,27.256 c -0.105,6.709 -5.451,12.161 -12.16,12.161" /></g></g></g></g></svg>