<?xml version="1.0" encoding="UTF-8" standalone="no"?>
<svg
   xmlns:dc="http://purl.org/dc/elements/1.1/"
   xmlns:cc="http://creativecommons.org/ns#"
   xmlns:rdf="http://www.w3.org/1999/02/22-rdf-syntax-ns#"
   xmlns:svg="http://www.w3.org/2000/svg"
   xmlns="http://www.w3.org/2000/svg"
   viewBox="0 0 640 640"
   height="640"
   width="640"
   xml:space="preserve"
   version="1.1"
   id="svg2"><metadata
     id="metadata8"><rdf:RDF><cc:Work
         rdf:about=""><dc:format>image/svg+xml</dc:format><dc:type
           rdf:resource="http://purl.org/dc/dcmitype/StillImage" /></cc:Work></rdf:RDF></metadata><defs
     id="defs6"><clipPath
       id="clipPath16"
       clipPathUnits="userSpaceOnUse"><path
         id="path18"
         d="M 0,512 512,512 512,0 0,0 0,512 Z" /></clipPath><clipPath
       id="clipPath24"
       clipPathUnits="userSpaceOnUse"><path
         id="path26"
         d="m 18.2752,493.725 475.4498,0 0,-475.4497 -475.4498,0 0,475.4497 z" /></clipPath><clipPath
       id="clipPath56"
       clipPathUnits="userSpaceOnUse"><path
         id="path58"
         d="m 104.431,409.909 303.139,0 0,-307.818 -303.139,0 0,307.818 z" /></clipPath><clipPath
       id="clipPath72"
       clipPathUnits="userSpaceOnUse"><path
         id="path74"
         d="m 240.965,315.31 45.066,0 0,-36.874 -45.066,0 0,36.874 z" /></clipPath></defs><g
     transform="matrix(1.25,0,0,-1.25,0,640)"
     id="g10"><g
       id="g12"><g
         clip-path="url(#clipPath16)"
         id="g14"><g
           id="g20"><g
             id="g22" /><g
             id="g28"><g
               style="opacity:0.39999402"
               id="g30"
               clip-path="url(#clipPath24)"><g
                 id="g32"
                 transform="translate(448.964,63.036)"><path
                   id="path34"
                   style="fill:#ffffff;fill-opacity:1;fill-rule:nonzero;stroke:none"
                   d="m 0,0 c -59.681,-59.681 -326.247,-59.681 -385.928,0 -59.681,59.681 -59.681,326.247 0,385.928 59.681,59.681 326.247,59.681 385.928,0 C 59.681,326.247 59.681,59.681 0,0" /></g></g></g></g><g
           transform="translate(433.279,78.721)"
           id="g36"><path
             id="path38"
             style="fill:#b2a5bf;fill-opacity:1;fill-rule:nonzero;stroke:none"
             d="m 0,0 c -70.294,-70.294 -284.264,-70.294 -354.558,0 -70.294,70.294 -70.294,284.264 0,354.558 70.294,70.294 284.264,70.294 354.558,0 C 70.294,284.264 70.295,70.294 0,0" /></g><g
           transform="translate(405.5705,256)"
           id="g40"><path
             id="path42"
             style="fill:#f1edf7;fill-opacity:1;fill-rule:nonzero;stroke:none"
             d="m 0,0 c 0,-82.605 -66.965,-149.57 -149.57,-149.57 -82.606,0 -149.571,66.965 -149.571,149.57 0,82.605 66.965,149.57 149.571,149.57 C -66.965,149.57 0,82.605 0,0" /></g><g
           transform="translate(404.7455,252.8984)"
           id="g44"><path
             id="path46"
             style="fill:#47294f;fill-opacity:1;fill-rule:nonzero;stroke:none"
             d="m 0,0 c -0.026,-0.882 -0.058,-1.976 -0.095,-3.277 -0.009,-1.305 -0.132,-2.802 -0.275,-4.496 -0.157,-1.693 -0.237,-3.59 -0.502,-5.665 -0.28,-2.073 -0.55,-4.341 -0.907,-6.782 -0.454,-2.424 -0.887,-5.043 -1.515,-7.799 -0.336,-1.373 -0.682,-2.789 -1.039,-4.248 -0.184,-0.727 -0.349,-1.471 -0.554,-2.214 -0.221,-0.74 -0.445,-1.49 -0.672,-2.25 -1.662,-6.125 -4.189,-12.703 -7.349,-19.641 -3.145,-6.951 -7.229,-14.15 -12.243,-21.36 -5.007,-7.213 -10.984,-14.425 -17.993,-21.281 -6.979,-6.884 -15.009,-13.392 -23.992,-19.219 -4.526,-2.86 -9.238,-5.63 -14.224,-8.093 -1.241,-0.624 -2.489,-1.25 -3.743,-1.88 -1.282,-0.568 -2.569,-1.14 -3.863,-1.714 -2.561,-1.208 -5.26,-2.151 -7.936,-3.209 -5.386,-2.012 -10.986,-3.724 -16.755,-5.119 -0.347,0.577 -0.743,1.222 -1.195,1.942 -0.47,0.772 -1.018,1.606 -1.612,2.515 -0.611,0.903 -1.178,1.919 -1.848,2.966 -0.661,1.052 -1.364,2.168 -2.126,3.327 -0.381,0.579 -0.772,1.172 -1.173,1.78 -0.397,0.61 -0.771,1.259 -1.178,1.903 -1.629,2.571 -3.395,5.355 -5.262,8.301 -0.473,0.732 -0.966,1.465 -1.472,2.205 -0.518,0.734 -1.047,1.474 -1.525,2.255 -1.016,1.534 -2.054,3.102 -3.109,4.697 -1.011,1.623 -1.963,3.319 -2.909,5.049 l -0.696,1.309 -0.607,1.358 c -0.394,0.913 -0.792,1.83 -1.167,2.761 -1.504,3.722 -2.601,7.67 -3.345,11.659 -0.228,0.988 -0.371,1.992 -0.505,2.994 -0.143,0.998 -0.285,1.994 -0.427,2.989 -0.149,0.99 -0.203,1.99 -0.309,2.977 -0.085,0.989 -0.266,1.963 -0.29,2.947 -0.083,1.962 -0.282,3.898 -0.204,5.813 0.023,0.956 -0.017,1.907 0.048,2.846 0.064,0.937 0.127,1.868 0.189,2.791 0.391,3.669 0.856,7.2 1.691,10.465 0.164,0.828 0.402,1.623 0.624,2.411 0.228,0.786 0.419,1.573 0.687,2.319 0.252,0.754 0.5,1.495 0.743,2.223 0.286,0.713 0.567,1.412 0.842,2.097 1.124,2.735 2.363,5.17 3.584,7.273 1.246,2.084 2.437,3.859 3.486,5.283 0.785,1.038 1.475,1.893 2.037,2.561 1.939,0.706 3.825,1.527 5.656,2.417 1.502,0.73 2.974,1.503 4.429,2.272 1.441,0.748 2.929,1.582 4.297,2.174 2.801,1.228 5.823,1.694 8.787,1.291 2.968,-0.396 5.867,-1.54 8.636,-3.041 2.776,-1.503 5.446,-3.329 8.157,-5.182 2.714,-1.853 5.47,-3.76 8.503,-5.399 3.018,-1.622 6.405,-3.009 10.142,-3.292 0.926,-0.072 1.867,-0.075 2.802,0.008 0.446,0.025 0.996,0.112 1.442,0.178 l 0.607,0.111 c 0.311,0.058 0.498,0.116 0.753,0.176 1.904,0.504 3.621,1.384 5.129,2.428 3.022,2.105 5.382,4.742 7.442,7.494 2.056,2.763 3.815,5.672 5.422,8.638 1.604,2.968 3.042,6.003 4.368,9.08 1.325,3.092 2.532,6.164 3.626,9.416 l 0.935,2.778 -2.985,0.452 -4.535,0.687 c -1.5,0.283 -3.008,0.531 -4.5,0.841 -2.98,0.639 -5.947,1.337 -8.848,2.231 -2.922,0.835 -5.755,1.91 -8.558,3.035 -2.758,1.221 -5.517,2.455 -8.107,3.98 -2.597,1.504 -5.132,3.125 -7.468,4.996 -2.348,1.854 -4.567,3.867 -6.596,6.06 -4.031,4.409 -7.34,9.472 -9.774,14.964 -2.428,5.497 -4.025,11.374 -4.928,17.375 -0.923,6.001 -1.18,12.13 -0.914,18.248 0.259,6.122 1.056,12.232 2.202,18.278 0.566,3.026 1.247,6.032 2.019,9.014 0.776,2.969 1.651,5.963 2.665,8.8 l 0.58,1.623 -1.609,0.272 c -6.477,1.091 -12.894,1.657 -19.37,1.975 -6.465,0.305 -12.941,0.266 -19.395,-0.102 -6.457,-0.334 -12.89,-1.049 -19.267,-2.112 -6.371,-1.088 -12.685,-2.554 -18.851,-4.514 -3.097,-0.938 -6.127,-2.085 -9.14,-3.269 -2.98,-1.265 -5.95,-2.565 -8.825,-4.066 -5.788,-2.927 -11.259,-6.482 -16.36,-10.522 -5.101,-4.041 -9.772,-8.653 -13.853,-13.754 -4.099,-5.086 -7.639,-10.626 -10.607,-16.452 -2.959,-5.832 -5.394,-11.934 -7.241,-18.202 -1.849,-6.267 -3.236,-12.664 -4.154,-19.119 -0.884,-6.46 -1.392,-12.953 -1.566,-19.457 -0.029,-3.262 -0.101,-6.545 0.015,-9.74 l 0.054,-2.411 0.07,-2.432 c 0.056,-1.593 0.088,-3.186 0.109,-4.778 0.087,-6.365 -0.078,-12.734 -0.822,-19.013 -0.752,-6.246 -1.946,-12.539 -4.67,-18.056 -1.352,-2.734 -3.156,-5.255 -5.575,-6.943 -2.4,-1.7 -5.405,-2.44 -8.45,-2.175 -3.052,0.225 -6.07,1.292 -8.914,2.661 -2.25,1.1 -4.413,2.391 -6.517,3.799 -1.612,4.122 -3.055,8.317 -4.342,12.559 l -1.397,5.207 c -0.448,1.74 -0.774,3.511 -1.168,5.265 l -0.563,2.636 -0.433,2.663 c -0.271,1.778 -0.62,3.543 -0.827,5.329 l -0.598,5.361 c -0.117,0.891 -0.176,1.789 -0.223,2.687 l -0.163,2.692 c -0.115,1.793 -0.238,3.586 -0.218,5.385 l -0.056,5.338 c 0.452,28.886 9.715,57.051 25.461,80.262 3.995,5.757 8.232,11.318 12.924,16.438 1.133,1.314 2.391,2.511 3.576,3.771 l 1.802,1.865 c 0.616,0.605 1.255,1.187 1.88,1.781 1.266,1.172 2.491,2.385 3.783,3.519 1.308,1.117 2.613,2.233 3.917,3.347 10.581,8.721 22.219,15.881 34.424,21.161 l 2.276,1.011 2.318,0.897 c 1.546,0.589 3.077,1.209 4.624,1.771 3.139,1.002 6.214,2.147 9.375,2.969 6.254,1.874 12.617,3.099 18.93,4.088 3.174,0.384 6.32,0.867 9.481,1.032 1.577,0.105 3.147,0.269 4.718,0.325 1.572,0.041 3.139,0.082 4.702,0.123 l 2.245,0.063 2.397,-0.048 c 1.595,-0.032 3.185,-0.063 4.771,-0.095 1.522,-0.105 3.039,-0.209 4.552,-0.313 1.51,-0.112 3.01,-0.181 4.527,-0.4 12.115,-1.339 23.739,-4.088 34.521,-8.04 2.675,-1.042 5.374,-1.968 7.936,-3.16 1.294,-0.566 2.583,-1.129 3.866,-1.69 1.254,-0.622 2.503,-1.24 3.746,-1.856 4.99,-2.434 9.704,-5.187 14.236,-8.025 8.995,-5.785 17.042,-12.261 24.042,-19.117 7.006,-6.853 12.974,-14.066 17.984,-21.271 0.616,-0.909 1.228,-1.81 1.834,-2.703 0.614,-0.89 1.213,-1.779 1.75,-2.697 1.096,-1.82 2.22,-3.586 3.244,-5.367 0.978,-1.809 1.938,-3.585 2.88,-5.328 0.9,-1.764 1.705,-3.535 2.538,-5.25 3.16,-6.935 5.69,-13.509 7.357,-19.63 0.228,-0.76 0.452,-1.509 0.673,-2.249 0.206,-0.743 0.372,-1.486 0.556,-2.213 0.358,-1.458 0.705,-2.873 1.042,-4.246 0.629,-2.755 1.065,-5.372 1.523,-7.796 0.36,-2.439 0.634,-4.706 0.917,-6.779 0.269,-2.074 0.351,-3.975 0.512,-5.67 0.145,-1.696 0.27,-3.194 0.281,-4.493 0.039,-1.298 0.073,-2.39 0.1,-3.269 C 0.049,3.585 0.077,2.68 0.078,2.666 0.077,2.63 0.05,1.727 0,0 m -110.705,66.94 c -1.871,0.864 -4.705,2.08 -8.454,3.426 -1.807,0.665 -3.835,1.327 -6.064,1.983 -2.224,0.674 -4.658,1.314 -7.283,1.91 -5.244,1.212 -11.271,2.192 -17.929,2.626 -6.65,0.378 -13.957,0.242 -21.554,-1.12 -3.798,-0.65 -7.678,-1.552 -11.515,-2.894 -3.844,-1.307 -7.69,-2.912 -11.413,-4.912 -3.707,-2.026 -7.313,-4.373 -10.733,-7.037 -3.428,-2.659 -6.605,-5.693 -9.599,-8.916 -2.995,-3.232 -5.634,-6.797 -8.116,-10.459 -2.344,-3.754 -4.597,-7.574 -6.462,-11.578 -1.975,-3.946 -3.621,-8.035 -5.169,-12.123 -0.78,-2.043 -1.468,-4.113 -2.202,-6.158 -0.665,-2.067 -1.328,-4.128 -1.988,-6.181 -2.505,-8.241 -4.536,-16.472 -6.279,-24.502 0.082,2.079 0.139,4.157 0.148,6.234 -0.003,1.624 -0.018,3.248 -0.058,4.869 l -0.079,4.803 c -0.09,3.237 0.011,6.386 0.063,9.556 0.255,6.353 0.701,12.701 1.54,18.994 0.912,6.278 2.095,12.515 3.791,18.614 1.695,6.095 3.785,12.087 6.487,17.809 2.687,5.725 5.943,11.186 9.749,16.249 3.792,5.077 8.18,9.711 13.03,13.822 4.828,4.14 10.154,7.704 15.785,10.705 5.613,3.041 11.562,5.447 17.648,7.402 6.084,1.98 12.355,3.346 18.663,4.408 6.322,1.004 12.708,1.584 19.103,1.826 6.398,0.193 12.804,0.06 19.182,-0.412 5.804,-0.433 11.639,-1.115 17.31,-2.176 -0.911,-2.457 -1.703,-4.905 -2.441,-7.398 -0.888,-3.025 -1.682,-6.078 -2.362,-9.159 -0.691,-3.079 -1.24,-6.191 -1.695,-9.318 -0.451,-3.129 -0.787,-6.278 -0.991,-9.442 -0.242,-3.801 -0.293,-7.627 -0.113,-11.451 m -20.767,-208.407 c -1.513,-0.243 -3.047,-0.339 -4.582,-0.477 -1.535,-0.126 -3.075,-0.277 -4.623,-0.387 -1.552,-0.054 -3.108,-0.109 -4.669,-0.164 l -2.347,-0.084 c -0.169,-0.001 -0.098,-0.011 -0.217,-0.007 l -0.3,0.004 -0.601,0.01 -1.203,0.018 c -1.606,0.018 -3.216,0.035 -4.832,0.052 -1.603,0.034 -3.141,0.173 -4.724,0.253 -3.142,0.114 -6.335,0.55 -9.54,0.888 -6.379,0.9 -12.833,1.992 -19.191,3.769 -3.215,0.763 -6.344,1.87 -9.531,2.854 -1.574,0.55 -3.131,1.157 -4.704,1.735 l -2.358,0.88 -2.318,0.996 c -12.419,5.206 -24.362,12.28 -35.125,21.125 -1.664,1.36 -3.287,2.777 -4.891,4.22 0.01,0.45 0.021,0.986 0.035,1.628 0.015,2.048 0.037,5.051 0.065,8.874 0.103,3.816 0.046,8.43 0.195,13.733 0.092,5.301 0.24,11.274 0.514,17.78 0.072,1.625 0.146,3.285 0.221,4.976 0.066,1.692 0.15,3.414 0.288,5.162 0.132,1.748 0.223,3.528 0.323,5.336 0.074,1.81 0.297,3.633 0.401,5.494 0.509,7.431 1.115,15.27 2.163,23.347 1.036,8.074 2.668,16.368 5.198,24.541 0.682,2.025 1.366,4.059 2.053,6.098 0.799,1.998 1.551,4.02 2.392,6.008 1.772,3.939 3.645,7.847 5.814,11.579 2.099,3.773 4.559,7.316 7.067,10.765 1.339,1.661 2.572,3.397 4.004,4.958 0.701,0.792 1.356,1.621 2.077,2.388 l 2.17,2.281 c 2.963,2.954 6.035,5.749 9.343,8.147 3.303,2.399 6.726,4.532 10.242,6.345 3.544,1.759 7.133,3.268 10.744,4.483 0.909,0.286 1.807,0.589 2.71,0.859 0.909,0.248 1.814,0.495 2.713,0.74 1.807,0.455 3.595,0.914 5.388,1.235 3.573,0.712 7.103,1.151 10.536,1.422 3.432,0.271 6.771,0.4 9.98,0.323 6.421,-0.068 12.316,-0.696 17.513,-1.471 5.195,-0.8 9.697,-1.762 13.381,-2.667 3.691,-0.891 6.55,-1.767 8.492,-2.384 0.195,-0.061 0.373,-0.117 0.549,-0.173 0.128,-2.233 0.332,-4.464 0.633,-6.689 0.874,-6.33 2.49,-12.608 5.03,-18.551 2.545,-5.937 6.068,-11.485 10.394,-16.327 2.176,-2.41 4.558,-4.625 7.076,-6.662 2.508,-2.056 5.218,-3.838 7.99,-5.487 2.768,-1.668 5.687,-3.039 8.63,-4.327 2.974,-1.203 5.977,-2.342 9.048,-3.226 3.055,-0.945 6.16,-1.681 9.271,-2.352 1.558,-0.326 3.126,-0.587 4.688,-0.883 l 1.703,-0.252 c -0.747,-2.089 -1.563,-4.188 -2.418,-6.236 -1.248,-2.975 -2.6,-5.902 -4.095,-8.734 -1.496,-2.829 -3.127,-5.576 -4.974,-8.109 -1.849,-2.514 -3.89,-4.889 -6.251,-6.589 -1.173,-0.854 -2.423,-1.503 -3.693,-1.871 -0.144,-0.036 -0.351,-0.1 -0.444,-0.117 l -0.604,-0.125 c -0.366,-0.056 -0.627,-0.111 -1.002,-0.141 -0.7,-0.08 -1.41,-0.093 -2.123,-0.053 -2.857,0.146 -5.745,1.198 -8.525,2.622 -5.596,2.87 -10.78,7.064 -16.856,10.202 -3.035,1.548 -6.369,2.861 -9.959,3.192 -3.578,0.366 -7.267,-0.359 -10.431,-1.892 -1.622,-0.779 -2.974,-1.616 -4.423,-2.432 -1.424,-0.817 -2.838,-1.623 -4.267,-2.382 -2.855,-1.515 -5.78,-2.862 -8.827,-3.738 -3.039,-0.884 -6.207,-1.25 -9.312,-0.862 -3.102,0.386 -6.098,1.589 -8.726,3.397 -2.647,1.788 -4.936,4.124 -6.957,6.662 -2.025,2.545 -3.79,5.312 -5.382,8.177 l -0.416,-0.213 c 1.436,-2.968 3.026,-5.885 4.972,-8.587 1.942,-2.694 4.187,-5.232 6.904,-7.267 2.692,-2.051 5.898,-3.54 9.306,-4.131 3.411,-0.617 6.926,-0.286 10.224,0.538 0.252,0.063 0.496,0.147 0.747,0.216 -0.126,-0.106 -0.243,-0.199 -0.372,-0.312 -1.378,-1.221 -2.978,-2.804 -4.621,-4.802 -1.654,-1.991 -3.283,-4.432 -4.836,-7.238 -1.536,-2.816 -2.849,-6.06 -3.882,-9.597 -1.072,-3.534 -1.593,-7.413 -1.788,-11.403 -0.017,-0.999 -0.035,-2.006 -0.052,-3.02 -0.023,-1.014 0.087,-2.03 0.129,-3.052 0.061,-2.05 0.374,-4.096 0.631,-6.157 0.317,-2.051 0.776,-4.095 1.269,-6.124 0.303,-1 0.607,-2.002 0.91,-3.005 0.297,-1.002 0.601,-2 0.988,-2.972 l 1.079,-2.93 c 0.322,-0.986 0.729,-1.94 1.131,-2.891 0.778,-1.911 1.466,-3.842 2.293,-5.699 1.536,-3.763 3.062,-7.451 4.479,-11.087 0.777,-1.787 1.542,-3.545 2.29,-5.265 0.752,-1.726 1.653,-3.32 2.518,-4.883 1.698,-3.148 3.708,-5.863 5.488,-8.41 0.454,-0.631 0.892,-1.252 1.342,-1.846 0.466,-0.583 0.921,-1.152 1.365,-1.708 0.887,-1.109 1.75,-2.144 2.56,-3.115 1.605,-1.963 3.135,-3.516 4.398,-4.809 0.388,-0.398 0.744,-0.756 1.085,-1.095 -5.26,-1.21 -10.649,-2.172 -16.15,-2.843 m -139.095,62.721 -2.87,4.504 c -0.94,1.513 -1.783,3.087 -2.681,4.629 -0.438,0.777 -0.896,1.544 -1.319,2.33 l -1.214,2.39 -1.216,2.39 c -0.413,0.794 -0.813,1.594 -1.159,2.421 -0.984,2.103 -1.885,4.245 -2.751,6.401 1.739,-1.35 3.551,-2.622 5.489,-3.707 2.84,-1.595 5.918,-2.938 9.282,-3.412 1.674,-0.246 3.415,-0.239 5.128,0.077 1.71,0.321 3.372,0.987 4.845,1.926 2.978,1.876 5.152,4.68 6.783,7.609 1.149,2.089 2.041,4.275 2.786,6.497 -0.604,-6.681 -0.794,-13.061 -0.922,-18.97 -0.029,-6.576 0.05,-12.6 0.341,-17.93 0.059,-1.333 0.115,-2.622 0.17,-3.867 0.094,-1.245 0.184,-2.444 0.27,-3.597 0.173,-2.304 0.328,-4.419 0.5,-6.326 0.36,-3.807 0.737,-6.787 0.977,-8.823 0.04,-0.309 0.076,-0.588 0.11,-0.853 -8.472,7.744 -16.077,16.603 -22.549,26.311 M 0.772,5.344 C 0.754,6.228 0.732,7.326 0.706,8.631 0.71,9.937 0.601,11.445 0.473,13.152 c -0.409,6.824 -1.488,16.869 -4.719,29.269 -3.272,12.349 -8.65,27.169 -18.167,42.435 -4.735,7.625 -10.473,15.341 -17.334,22.782 -3.414,3.736 -7.153,7.353 -11.127,10.901 -0.966,0.92 -2.03,1.735 -3.06,2.605 -1.04,0.857 -2.087,1.72 -3.14,2.587 -2.178,1.638 -4.386,3.295 -6.66,4.91 -4.615,3.127 -9.411,6.234 -14.569,8.924 -1.287,0.676 -2.581,1.355 -3.881,2.037 -1.33,0.621 -2.667,1.244 -4.01,1.87 -2.661,1.312 -5.466,2.357 -8.253,3.515 -1.386,0.602 -2.837,1.045 -4.267,1.567 -1.437,0.499 -2.873,1.027 -4.337,1.487 -1.474,0.427 -2.954,0.856 -4.44,1.287 l -2.235,0.646 -2.269,0.546 c -1.518,0.358 -3.042,0.718 -4.571,1.079 -1.531,0.352 -3.092,0.59 -4.646,0.891 l -2.34,0.43 -1.173,0.215 -1.184,0.158 c -1.581,0.209 -3.168,0.419 -4.759,0.63 -1.58,0.243 -3.219,0.343 -4.849,0.48 -1.628,0.126 -3.279,0.276 -4.904,0.381 -1.585,0.048 -3.175,0.097 -4.77,0.146 l -2.396,0.073 c 0,0 -0.321,0.011 -0.404,0.006 l -0.308,-0.006 -0.616,-0.012 -1.235,-0.024 c -1.648,-0.04 -3.301,-0.081 -4.958,-0.122 -1.657,-0.063 -3.313,-0.235 -4.977,-0.349 -3.334,-0.183 -6.655,-0.692 -10.003,-1.106 -6.662,-1.05 -13.374,-2.36 -19.974,-4.345 -3.337,-0.865 -6.579,-2.09 -9.868,-3.208 -1.625,-0.614 -3.232,-1.286 -4.854,-1.929 l -2.429,-0.979 -2.386,-1.096 c -12.789,-5.733 -24.928,-13.424 -35.912,-22.722 -1.352,-1.186 -2.706,-2.374 -4.062,-3.564 -1.34,-1.208 -2.61,-2.495 -3.92,-3.742 -0.648,-0.631 -1.308,-1.251 -1.946,-1.893 l -1.864,-1.979 c -1.226,-1.335 -2.524,-2.608 -3.694,-4 -1.181,-1.381 -2.364,-2.764 -3.548,-4.149 -1.171,-1.394 -2.25,-2.867 -3.381,-4.3 l -1.671,-2.169 -1.574,-2.247 c -1.027,-1.513 -2.136,-2.972 -3.097,-4.534 l -2.926,-4.658 c -0.958,-1.564 -1.819,-3.19 -2.733,-4.784 -0.446,-0.803 -0.911,-1.596 -1.341,-2.409 l -1.237,-2.467 -1.236,-2.47 c -0.419,-0.82 -0.825,-1.646 -1.178,-2.498 -3.093,-6.694 -5.566,-13.675 -7.674,-20.756 l -1.426,-5.359 c -0.457,-1.791 -0.791,-3.613 -1.192,-5.418 l -0.573,-2.713 -0.442,-2.739 c -0.276,-1.829 -0.629,-3.645 -0.839,-5.482 l -0.606,-5.513 c -0.117,-0.915 -0.177,-1.843 -0.225,-2.775 l -0.164,-2.787 -0.162,-2.786 c -0.064,-0.932 -0.031,-1.827 -0.051,-2.742 l -0.043,-5.463 0.221,-5.583 c 0.037,-1.844 0.217,-3.681 0.39,-5.517 l 0.25,-2.753 c 0.076,-0.918 0.164,-1.834 0.311,-2.745 l 0.778,-5.468 c 1.252,-7.251 2.868,-14.433 5.119,-21.407 4.388,-13.976 10.783,-27.22 18.783,-39.25 16.01,-24.082 38.537,-43.093 63.619,-54.799 l 2.344,-1.111 2.389,-0.996 c 1.594,-0.655 3.175,-1.339 4.775,-1.965 3.24,-1.136 6.429,-2.399 9.711,-3.324 6.495,-2.081 13.117,-3.524 19.713,-4.664 3.317,-0.46 6.591,-1.015 9.944,-1.25 1.658,-0.138 3.346,-0.336 4.97,-0.422 1.615,-0.064 3.224,-0.128 4.829,-0.192 l 1.202,-0.042 0.601,-0.021 0.3,-0.011 c 0.082,-0.005 0.352,-0.001 0.383,0 l 2.447,0.038 c 1.629,0.025 3.253,0.051 4.872,0.077 1.616,0.081 3.226,0.205 4.832,0.307 1.606,0.111 3.21,0.183 4.795,0.403 1.588,0.19 3.171,0.379 4.748,0.567 l 1.182,0.149 1.17,0.206 2.335,0.412 c 1.55,0.289 3.108,0.514 4.637,0.854 1.527,0.349 3.048,0.697 4.563,1.043 l 2.267,0.528 2.232,0.629 c 1.485,0.418 2.965,0.835 4.438,1.251 1.464,0.447 2.899,0.965 4.335,1.457 1.429,0.513 2.88,0.947 4.265,1.541 2.786,1.141 5.591,2.17 8.253,3.465 1.344,0.618 2.681,1.233 4.012,1.846 1.301,0.674 2.596,1.345 3.885,2.014 5.163,2.66 9.959,5.75 14.581,8.856 2.276,1.604 4.488,3.252 6.67,4.88 1.055,0.862 2.103,1.72 3.146,2.573 1.031,0.866 2.097,1.677 3.065,2.593 3.983,3.531 7.731,7.132 11.156,10.855 6.858,7.438 12.587,15.154 17.325,22.772 9.522,15.254 14.895,30.068 18.178,42.409 3.236,12.397 4.332,22.427 4.752,29.263 0.131,1.71 0.242,3.219 0.24,4.52 0.028,1.301 0.052,2.396 0.071,3.278 l 0.057,2.673 0,0.01 c 0,0 -0.018,0.912 -0.053,2.68" /></g><g
           transform="translate(247.3132,306.9131)"
           id="g48"><path
             id="path50"
             style="fill:#47294f;fill-opacity:1;fill-rule:nonzero;stroke:none"
             d="m 0,0 c 0.535,-0.738 1.164,-1.386 1.754,-2.084 0.584,-0.707 1.256,-1.319 1.907,-1.963 0.65,-0.647 1.345,-1.242 2.054,-1.825 l 1.068,-0.872 1.114,-0.812 1.128,-0.799 1.169,-0.735 1.181,-0.723 1.216,-0.658 1.223,-0.649 1.256,-0.578 1.261,-0.574 1.287,-0.501 c 0.856,-0.346 1.726,-0.647 2.601,-0.93 0.874,-0.295 1.76,-0.534 2.647,-0.774 0.882,-0.262 1.78,-0.443 2.676,-0.638 0.894,-0.208 1.797,-0.346 2.696,-0.51 0.827,-0.13 1.655,-0.241 2.484,-0.34 l -0.39,-1.069 c -0.489,-1.32 -0.992,-2.632 -1.519,-3.93 -0.542,-1.286 -1.08,-2.58 -1.747,-3.77 -0.347,-0.581 -0.698,-1.167 -1.147,-1.632 -0.444,-0.446 -1.005,-0.846 -1.762,-0.629 0.249,-0.27 0.655,-0.46 1.079,-0.476 0.431,-0.035 0.85,0.083 1.232,0.237 0.769,0.315 1.432,0.782 2.019,1.296 1.189,1.023 2.19,2.186 3.084,3.399 0.903,1.21 1.707,2.473 2.451,3.762 0.38,0.641 0.726,1.298 1.069,1.958 0.35,0.664 0.667,1.313 0.987,2.029 l 1.195,2.671 -3.115,0.494 c -1.696,0.269 -3.389,0.519 -5.06,0.859 -0.832,0.177 -1.676,0.308 -2.499,0.517 -0.826,0.197 -1.658,0.372 -2.474,0.594 -0.821,0.21 -1.643,0.417 -2.447,0.677 -0.814,0.229 -1.625,0.467 -2.42,0.751 -0.803,0.263 -1.602,0.534 -2.387,0.843 l -1.188,0.443 -1.165,0.494 -1.172,0.487 -1.144,0.546 L 11.046,-4.88 9.924,-4.283 8.787,-3.7 7.685,-3.055 C 6.94,-2.636 6.194,-2.209 5.487,-1.725 4.758,-1.269 4.024,-0.81 3.324,-0.302 2.621,0.201 1.869,0.661 1.201,1.22 0.527,1.77 -0.221,2.258 -0.892,2.83 -1.567,3.398 -2.262,3.957 -2.977,4.512 -2.533,3.735 -2.07,2.963 -1.585,2.199 -1.092,1.444 -0.547,0.724 0,0" /></g><g
           id="g52"><g
             id="g54" /><g
             id="g60"><g
               style="opacity:0.5"
               id="g62"
               clip-path="url(#clipPath56)"><g
                 id="g64"
                 transform="translate(402.6504,249.6348)"><path
                   id="path66"
                   style="fill:#47294f;fill-opacity:1;fill-rule:nonzero;stroke:none"
                   d="m 0,0 c -0.009,-1.267 -0.14,-2.829 -0.266,-4.323 -0.056,-0.608 -0.103,-1.241 -0.152,-1.9 -0.088,-1.182 -0.178,-2.406 -0.342,-3.684 -0.097,-0.724 -0.193,-1.472 -0.293,-2.243 -0.184,-1.429 -0.379,-2.937 -0.596,-4.438 -0.114,-0.606 -0.226,-1.224 -0.34,-1.852 -0.343,-1.89 -0.699,-3.843 -1.152,-5.84 l -1.235,-5.044 c -0.109,-0.451 -0.219,-0.906 -0.332,-1.322 l -0.687,-2.298 c -1.555,-5.734 -3.922,-12.058 -7.24,-19.34 -3.179,-7.025 -7.238,-14.105 -12.063,-21.043 -5.212,-7.508 -11.184,-14.571 -17.755,-20.999 -7.087,-6.99 -15.053,-13.371 -23.656,-18.951 -5.216,-3.296 -9.677,-5.836 -14.053,-7.997 l -3.656,-1.839 -3.907,-1.734 c -1.772,-0.836 -3.601,-1.536 -5.539,-2.277 -0.758,-0.29 -1.519,-0.581 -2.243,-0.867 -4.861,-1.817 -9.938,-3.395 -15.112,-4.699 -0.138,0.223 -0.281,0.453 -0.429,0.688 -0.429,0.704 -0.921,1.458 -1.453,2.273 l -0.211,0.323 c -0.33,0.488 -0.646,1.012 -0.976,1.555 -0.27,0.447 -0.547,0.905 -0.844,1.368 -0.665,1.059 -1.372,2.184 -2.141,3.35 l -1.166,1.77 c -0.212,0.327 -0.418,0.666 -0.627,1.009 -0.176,0.29 -0.353,0.582 -0.539,0.875 l -5.27,8.314 c -0.483,0.746 -0.986,1.494 -1.52,2.275 l -0.09,0.128 c -0.486,0.688 -0.946,1.337 -1.399,2.076 l -3.08,4.649 c -1.057,1.7 -2.034,3.457 -2.841,4.933 l -0.664,1.249 -0.698,1.571 c -0.345,0.8 -0.692,1.602 -1.02,2.418 -1.392,3.449 -2.48,7.243 -3.25,11.359 -0.208,0.9 -0.342,1.843 -0.475,2.828 l -0.428,3.004 c -0.09,0.599 -0.142,1.201 -0.195,1.802 -0.032,0.364 -0.064,0.727 -0.099,1.05 -0.034,0.4 -0.083,0.798 -0.133,1.195 -0.071,0.574 -0.139,1.116 -0.152,1.662 -0.026,0.603 -0.061,1.202 -0.097,1.8 -0.081,1.343 -0.156,2.61 -0.105,3.883 0.008,0.372 0.008,0.744 0.008,1.114 0,0.551 -0.002,1.099 0.035,1.644 l 0.184,2.713 c 0.357,3.357 0.803,6.913 1.639,10.182 l 0.024,0.107 c 0.126,0.637 0.306,1.267 0.496,1.935 l 0.087,0.306 c 0.07,0.245 0.139,0.49 0.206,0.733 0.138,0.499 0.272,0.992 0.457,1.511 l 0.724,2.167 0.813,2.026 c 0.994,2.415 2.159,4.781 3.451,7.006 1.133,1.895 2.27,3.618 3.365,5.104 0.567,0.75 1.116,1.446 1.636,2.077 1.729,0.649 3.48,1.407 5.335,2.308 1.541,0.749 3.064,1.549 4.477,2.296 0.374,0.195 0.752,0.395 1.129,0.594 1.03,0.547 2.096,1.111 3.05,1.523 2.503,1.097 5.138,1.493 7.719,1.141 2.458,-0.328 5.058,-1.25 7.949,-2.817 2.674,-1.448 5.235,-3.199 7.982,-5.075 l 0.449,-0.307 c 2.592,-1.771 5.274,-3.602 8.234,-5.202 3.983,-2.141 7.459,-3.261 10.933,-3.525 1.044,-0.08 2.174,-0.077 3.073,0.005 0.448,0.027 0.992,0.104 1.463,0.173 l 0.836,0.148 c 0.266,0.049 0.459,0.098 0.658,0.148 l 0.242,0.06 c 1.971,0.522 3.907,1.437 5.761,2.721 2.796,1.948 5.307,4.471 7.902,7.941 1.891,2.541 3.716,5.445 5.578,8.88 1.539,2.849 2.993,5.871 4.446,9.244 1.474,3.438 2.645,6.477 3.684,9.566 l 1.694,5.037 -9.804,1.483 c -0.547,0.103 -1.095,0.202 -1.643,0.3 -0.942,0.17 -1.885,0.34 -2.81,0.532 -2.419,0.518 -5.59,1.235 -8.717,2.198 -2.961,0.846 -5.889,1.975 -8.298,2.941 -2.493,1.104 -5.32,2.354 -7.913,3.881 -2.945,1.706 -5.239,3.239 -7.232,4.836 -2.353,1.857 -4.495,3.825 -6.359,5.839 -3.9,4.266 -7.069,9.119 -9.421,14.422 -2.257,5.111 -3.865,10.785 -4.78,16.871 -0.864,5.613 -1.163,11.621 -0.893,17.86 0.239,5.664 0.949,11.549 2.169,17.994 0.538,2.869 1.207,5.857 1.988,8.877 0.866,3.307 1.72,6.131 2.615,8.633 l 1.382,3.871 -3.963,0.669 c -5.932,0.999 -12.162,1.635 -19.609,2 -6.459,0.306 -13.072,0.27 -19.592,-0.101 -6.416,-0.332 -12.974,-1.052 -19.5,-2.139 -6.763,-1.155 -13.196,-2.696 -19.094,-4.572 -3.212,-0.972 -6.364,-2.171 -9.342,-3.342 -3.373,-1.432 -6.189,-2.683 -8.945,-4.122 -5.764,-2.915 -11.383,-6.528 -16.7,-10.739 -5.277,-4.18 -10.046,-8.914 -14.168,-14.066 -4.102,-5.091 -7.746,-10.743 -10.834,-16.803 -3.025,-5.961 -5.507,-12.199 -7.376,-18.54 -1.864,-6.319 -3.282,-12.847 -4.217,-19.415 -0.871,-6.378 -1.404,-12.997 -1.584,-19.71 l -0.019,-1.819 c -0.03,-2.637 -0.06,-5.363 0.035,-7.983 l 0.124,-4.869 c 0.056,-1.579 0.088,-3.156 0.108,-4.734 0.1,-7.289 -0.157,-13.248 -0.807,-18.747 -0.619,-5.137 -1.687,-11.757 -4.478,-17.408 -1.379,-2.789 -3.037,-4.871 -4.938,-6.198 -1.717,-1.217 -3.822,-1.86 -6.087,-1.86 -0.343,0 -0.687,0.015 -1.059,0.047 -2.439,0.18 -5.119,0.987 -8.184,2.464 -1.857,0.908 -3.747,1.996 -5.76,3.317 -1.471,3.806 -2.836,7.778 -4.045,11.763 l -1.392,5.187 c -0.277,1.076 -0.504,2.154 -0.743,3.296 -0.134,0.637 -0.268,1.273 -0.406,1.887 l -0.545,2.54 -0.43,2.643 c -0.098,0.642 -0.206,1.283 -0.313,1.924 -0.194,1.148 -0.377,2.233 -0.503,3.326 l -0.603,5.399 c -0.112,0.846 -0.166,1.716 -0.21,2.547 l -0.182,2.996 c -0.11,1.705 -0.213,3.315 -0.195,4.982 l -0.056,5.285 c 0.435,27.82 9.355,55.937 25.104,79.154 4.438,6.395 8.61,11.702 12.797,16.272 0.686,0.796 1.421,1.547 2.199,2.342 0.443,0.452 0.885,0.904 1.3,1.346 l 1.763,1.826 c 0.382,0.375 0.773,0.739 1.162,1.105 l 0.678,0.636 c 0.459,0.426 0.914,0.857 1.368,1.288 0.783,0.743 1.566,1.485 2.355,2.178 l 3.889,3.324 c 10.477,8.636 21.899,15.657 33.965,20.876 l 2.185,0.975 2.308,0.893 c 0.56,0.213 1.119,0.431 1.678,0.649 0.971,0.378 1.941,0.756 2.843,1.085 1.007,0.322 2.007,0.658 3.006,0.993 2.147,0.722 4.175,1.403 6.334,1.966 5.336,1.599 11.093,2.841 18.596,4.019 0.779,0.094 1.556,0.194 2.332,0.293 2.416,0.312 4.699,0.606 7.041,0.728 0.574,0.039 1.146,0.084 1.718,0.13 1.016,0.081 1.975,0.158 2.921,0.191 l 6.854,0.186 7.07,-0.138 5.554,-0.384 c 1.168,-0.079 2.27,-0.154 3.444,-0.322 11.798,-1.305 23.255,-3.973 34.015,-7.916 0.76,-0.296 1.523,-0.583 2.284,-0.87 1.934,-0.728 3.762,-1.415 5.576,-2.259 l 3.778,-1.649 3.758,-1.863 c 4.319,-2.106 8.784,-4.623 14.03,-7.909 8.624,-5.545 16.607,-11.891 23.726,-18.864 6.535,-6.392 12.504,-13.452 17.728,-20.965 l 1.843,-2.715 c 0.532,-0.772 1.144,-1.672 1.683,-2.593 0.394,-0.655 0.792,-1.303 1.187,-1.947 0.698,-1.135 1.388,-2.258 2.011,-3.34 l 2.858,-5.285 c 0.57,-1.118 1.101,-2.239 1.626,-3.346 0.298,-0.628 0.594,-1.252 0.874,-1.825 3.314,-7.271 5.684,-13.593 7.26,-19.374 l 0.661,-2.209 c 0.126,-0.453 0.236,-0.905 0.344,-1.353 l 1.233,-5.017 c 0.455,-1.993 0.806,-3.914 1.146,-5.771 0.121,-0.664 0.24,-1.315 0.348,-1.872 0.231,-1.567 0.426,-3.061 0.611,-4.479 0.103,-0.783 0.202,-1.543 0.301,-2.265 0.168,-1.296 0.261,-2.524 0.349,-3.712 0.05,-0.655 0.098,-1.285 0.153,-1.872 0.13,-1.51 0.263,-3.07 0.274,-4.384 L 0.143,6.864 C 0.156,6.423 0.167,6.116 0.173,5.944 L 0,0 Z m -39.175,-97.644 c -3.194,-3.471 -6.796,-6.975 -11.057,-10.755 -0.614,-0.58 -1.279,-1.122 -1.984,-1.697 -0.332,-0.27 -0.665,-0.542 -0.973,-0.8 l -3.076,-2.519 c -2.134,-1.592 -4.34,-3.237 -6.591,-4.823 -4.396,-2.955 -9.18,-6.059 -14.385,-8.741 l -3.801,-1.972 -4.051,-1.865 c -1.871,-0.911 -3.8,-1.678 -5.842,-2.491 -0.763,-0.303 -1.53,-0.608 -2.324,-0.934 -0.87,-0.372 -1.779,-0.682 -2.742,-1.009 -0.471,-0.159 -0.941,-0.319 -1.383,-0.479 l -1.064,-0.368 c -1.062,-0.368 -2.126,-0.738 -3.167,-1.055 l -6.579,-1.857 -6.812,-1.567 c -0.942,-0.209 -1.893,-0.373 -2.901,-0.546 -0.556,-0.096 -1.113,-0.191 -1.648,-0.291 l -3.409,-0.603 -5.954,-0.719 c -1.174,-0.163 -2.361,-0.24 -3.62,-0.321 l -2.733,-0.181 c -1.031,-0.07 -2.064,-0.14 -3.031,-0.19 l -7.528,-0.117 -6.969,0.267 c -1.023,0.053 -2.064,0.152 -3.166,0.257 -0.582,0.056 -1.164,0.111 -1.769,0.162 -2.499,0.175 -4.923,0.529 -7.489,0.903 -0.772,0.113 -1.545,0.226 -2.255,0.323 -7.538,1.302 -13.716,2.763 -19.511,4.617 -2.28,0.643 -4.486,1.444 -6.822,2.292 -0.921,0.335 -1.844,0.67 -2.701,0.969 -1.032,0.404 -2.055,0.832 -3.08,1.261 -0.554,0.232 -1.109,0.464 -1.656,0.688 l -2.301,0.958 -2.355,1.117 c -0.202,0.093 -0.405,0.189 -0.606,0.284 0.201,-0.085 0.402,-0.17 0.603,-0.255 l 2.408,-1.032 2.368,-0.883 c 0.552,-0.203 1.102,-0.409 1.651,-0.615 1.027,-0.386 2.052,-0.771 3.152,-1.154 0.873,-0.269 1.741,-0.548 2.607,-0.826 2.286,-0.734 4.65,-1.493 6.976,-2.043 6.867,-1.92 13.685,-3.011 19.521,-3.833 0.772,-0.081 1.543,-0.168 2.313,-0.255 2.413,-0.272 4.908,-0.554 7.335,-0.64 0.562,-0.03 1.119,-0.065 1.675,-0.101 1.004,-0.065 2.041,-0.132 3.13,-0.155 l 4.821,-0.052 2.143,-0.033 0.321,0.016 c -0.02,-0.003 -0.046,-0.007 -0.04,-0.007 l 7.085,0.252 c 1.002,0.071 2,0.159 2.996,0.247 l 2.636,0.226 c 1.222,0.103 2.484,0.207 3.674,0.4 5.43,0.663 10.932,1.631 16.356,2.879 l 0.248,0.058 0.011,-0.02 1.427,0.344 c 0.151,0.037 0.302,0.074 0.452,0.111 l 1.387,0.319 -0.022,0.021 c 5.19,1.323 10.288,2.915 15.205,4.752 0.745,0.294 1.492,0.58 2.237,0.866 1.921,0.734 3.907,1.494 5.774,2.376 l 3.95,1.754 3.731,1.875 c 4.492,2.218 9.07,4.823 14.426,8.208 8.85,5.74 17.029,12.292 24.303,19.466 3.043,2.977 5.962,6.087 8.74,9.313 -2.619,-3.381 -5.379,-6.647 -8.265,-9.777 m -89.212,-14.551 c 0.254,-0.378 0.502,-0.754 0.741,-1.126 l 4.974,-7.844 -0.502,0.713 c -1.549,2.194 -3.15,4.464 -4.541,7.044 l -0.204,0.367 c -0.155,0.28 -0.311,0.562 -0.468,0.846 m -16.022,44.79 c 0.035,-0.574 0.069,-1.15 0.093,-1.695 0.013,-0.583 0.073,-1.138 0.137,-1.676 -0.093,0.5 -0.18,1.002 -0.258,1.503 l -0.148,1.15 c -0.217,1.669 -0.422,3.246 -0.47,4.841 -0.014,0.361 -0.037,0.721 -0.06,1.081 -0.041,0.647 -0.08,1.26 -0.068,1.853 l 0.051,2.957 c 0.208,4.254 0.766,7.827 1.71,10.941 0.995,3.406 2.246,6.502 3.712,9.189 0.248,0.449 0.498,0.887 0.749,1.315 -0.203,-0.462 -0.4,-0.926 -0.592,-1.393 l -0.843,-2.098 -0.767,-2.29 c -0.214,-0.593 -0.377,-1.185 -0.535,-1.757 l -0.284,-1.008 c -0.2,-0.699 -0.405,-1.422 -0.562,-2.199 -0.891,-3.5 -1.356,-7.209 -1.734,-10.771 l -0.19,-2.792 c -0.044,-0.634 -0.045,-1.273 -0.045,-1.917 0,-0.339 0.001,-0.678 -0.006,-0.984 -0.058,-1.44 0.027,-2.868 0.11,-4.25 m -94.567,-37.785 c -1.275,1.043 -2.635,2.209 -4.138,3.547 l 0.081,9.573 c 0.046,1.737 0.06,3.637 0.075,5.692 0.019,2.416 0.039,5.153 0.12,8.06 0.111,6.384 0.278,12.184 0.512,17.725 l 0.221,4.988 c 0.054,1.378 0.135,3.202 0.284,5.089 0.116,1.545 0.202,3.116 0.29,4.707 l 0.038,0.698 c 0.039,0.962 0.122,1.926 0.205,2.9 0.073,0.849 0.146,1.702 0.192,2.538 0.501,7.31 1.108,15.182 2.152,23.23 1.113,8.673 2.838,16.817 5.11,24.158 l 2.035,6.045 c 0.28,0.702 0.554,1.406 0.829,2.111 0.497,1.273 0.994,2.547 1.509,3.767 1.442,3.206 3.396,7.399 5.738,11.427 2.128,3.826 4.701,7.486 6.876,10.482 0.45,0.558 0.888,1.124 1.325,1.689 0.871,1.125 1.693,2.188 2.619,3.199 0.289,0.326 0.571,0.658 0.852,0.99 0.389,0.459 0.776,0.918 1.177,1.345 l 2.133,2.244 c 3.368,3.358 6.262,5.882 9.106,7.944 3.271,2.375 6.63,4.457 9.956,6.172 3.522,1.748 7.053,3.221 10.456,4.367 l 1.008,0.323 c 0.558,0.18 1.115,0.36 1.627,0.513 l 2.988,0.81 c 1.706,0.43 3.319,0.836 4.978,1.134 3.219,0.642 6.588,1.097 10.302,1.39 2.893,0.228 5.498,0.339 7.962,0.339 0.608,0 1.213,-0.007 1.839,-0.022 5.453,-0.058 11.091,-0.532 17.231,-1.448 4.428,-0.682 8.872,-1.567 13.216,-2.634 3.143,-0.759 5.665,-1.504 7.602,-2.109 0.134,-1.871 0.322,-3.703 0.56,-5.467 0.943,-6.827 2.683,-13.241 5.174,-19.065 2.652,-6.189 6.265,-11.865 10.747,-16.88 2.155,-2.387 4.612,-4.701 7.293,-6.868 2.306,-1.891 4.924,-3.69 8.225,-5.653 3.033,-1.828 6.18,-3.274 8.911,-4.468 2.686,-1.086 5.885,-2.327 9.208,-3.283 3.411,-1.055 6.837,-1.835 9.453,-2.399 1.036,-0.217 2.077,-0.405 3.117,-0.595 0.316,-0.057 0.632,-0.114 0.964,-0.176 -0.489,-1.284 -1.005,-2.579 -1.544,-3.87 -1.318,-3.142 -2.633,-5.947 -4.018,-8.572 -1.623,-3.068 -3.2,-5.641 -4.817,-7.858 -2.099,-2.855 -3.945,-4.809 -5.818,-6.158 -1.024,-0.746 -2.057,-1.273 -3.016,-1.55 l -1.161,-0.252 c -0.179,-0.03 -0.341,-0.059 -0.612,-0.081 -0.567,-0.064 -1.16,-0.079 -1.796,-0.043 -2.26,0.116 -4.784,0.902 -7.714,2.404 -2.667,1.368 -5.235,3.045 -7.954,4.821 -2.816,1.839 -5.727,3.741 -8.908,5.383 -3.945,2.013 -7.34,3.094 -10.663,3.399 -3.839,0.396 -7.928,-0.347 -11.501,-2.078 -1.259,-0.604 -2.354,-1.236 -3.414,-1.847 -0.372,-0.215 -0.745,-0.431 -1.14,-0.653 -1.424,-0.817 -2.818,-1.613 -4.208,-2.349 -3.241,-1.72 -5.923,-2.859 -8.448,-3.584 -2.952,-0.86 -5.839,-1.133 -8.506,-0.799 -2.708,0.337 -5.418,1.394 -7.853,3.069 -2.236,1.511 -4.366,3.556 -6.512,6.251 -1.801,2.265 -3.502,4.85 -5.199,7.904 l -0.941,1.693 -3.873,-1.993 0.85,-1.757 c 1.743,-3.604 3.379,-6.427 5.149,-8.886 2.33,-3.23 4.727,-5.749 7.315,-7.687 3.053,-2.326 6.572,-3.886 10.162,-4.508 1.732,-0.314 3.567,-0.416 5.474,-0.31 -0.23,-0.265 -0.455,-0.534 -0.678,-0.804 -1.73,-2.08 -3.428,-4.62 -5.054,-7.558 -1.609,-2.951 -2.97,-6.313 -4.04,-9.976 -1.035,-3.412 -1.647,-7.299 -1.873,-11.949 l -0.053,-3.01 c -0.016,-0.755 0.03,-1.483 0.075,-2.187 0.021,-0.33 0.042,-0.66 0.055,-0.968 0.052,-1.771 0.281,-3.522 0.501,-5.216 l 0.153,-1.186 c 0.348,-2.262 0.854,-4.45 1.302,-6.293 l 0.936,-3.098 c 0.297,-1.006 0.622,-2.077 1.027,-3.097 l 1.056,-2.861 c 0.34,-1.038 0.756,-2.021 1.18,-3.022 0.283,-0.696 0.554,-1.394 0.824,-2.09 0.469,-1.206 0.953,-2.454 1.469,-3.611 l 0.875,-2.14 c 1.261,-3.08 2.452,-5.988 3.623,-8.989 l 2.29,-5.267 c 0.731,-1.679 1.579,-3.208 2.399,-4.686 l 0.191,-0.346 c 1.496,-2.773 3.243,-5.248 4.784,-7.433 l 1.082,-1.531 c 0.379,-0.53 0.752,-1.051 1.163,-1.591 l 1.364,-1.709 c 0.879,-1.098 1.733,-2.124 2.574,-3.132 1.078,-1.318 2.127,-2.462 3.074,-3.455 -4.145,-0.853 -8.327,-1.541 -12.508,-2.052 -1.115,-0.179 -2.248,-0.273 -3.449,-0.374 l -2.655,-0.228 c -0.973,-0.086 -1.948,-0.172 -2.854,-0.237 l -6.958,-0.247 c -0.101,-0.001 -0.17,-0.003 -0.222,-0.007 l -6.877,0.084 c -0.995,0.02 -1.964,0.084 -2.935,0.146 -0.574,0.037 -1.15,0.074 -1.76,0.106 -2.304,0.083 -4.614,0.343 -7.059,0.619 -0.78,0.088 -1.562,0.177 -2.274,0.25 -5.635,0.795 -12.29,1.858 -19.009,3.735 -2.252,0.534 -4.438,1.236 -6.753,1.98 -0.88,0.282 -1.763,0.565 -2.581,0.817 -1.002,0.35 -1.998,0.724 -2.995,1.098 -0.558,0.21 -1.116,0.419 -1.668,0.622 l -2.267,0.844 -2.335,1.002 c -12.579,5.273 -24.229,12.28 -34.632,20.829 m -4.762,134.179 C -244.506,23.236 -245,17.142 -245.295,9.764 l -0.037,-1.928 c -0.049,-2.503 -0.1,-5.092 -0.027,-7.694 l 0.08,-4.819 c 0.018,-0.762 0.031,-1.525 0.041,-2.286 -0.018,0.762 -0.039,1.522 -0.066,2.279 l -0.124,4.858 c -0.093,2.553 -0.062,5.23 -0.033,7.82 l 0.019,1.794 c 0.174,6.532 0.695,13.005 1.546,19.229 0.662,4.652 1.576,9.29 2.727,13.845 -0.987,-4.235 -1.835,-8.814 -2.569,-13.873 m 98.353,48.92 c -1.029,0.039 -2.051,0.064 -3.065,0.074 -3.165,0.076 -6.438,-0.034 -10.185,-0.329 -3.872,-0.305 -7.395,-0.781 -10.732,-1.446 -1.758,-0.316 -3.513,-0.759 -5.211,-1.187 l -3.109,-0.841 c -0.586,-0.176 -1.17,-0.364 -1.757,-0.554 l -1.018,-0.326 c -3.612,-1.216 -7.311,-2.759 -11.022,-4.601 -3.534,-1.822 -7.067,-4.01 -10.5,-6.503 -3.016,-2.187 -6.061,-4.84 -9.619,-8.387 l -2.178,-2.291 c -0.031,-0.034 -0.063,-0.067 -0.094,-0.101 0.733,0.88 1.459,1.707 2.186,2.491 3.214,3.461 6.275,6.305 9.363,8.699 3.259,2.539 6.78,4.847 10.451,6.854 3.371,1.811 7.109,3.42 11.127,4.786 3.367,1.178 7.028,2.097 11.207,2.813 4.77,0.856 9.667,1.271 14.971,1.271 1.97,0 4.028,-0.06 6.101,-0.178 1.029,-0.067 2.058,-0.149 3.084,-0.244 m 40.017,32.228 c -0.925,-3.15 -1.731,-6.277 -2.394,-9.284 -0.66,-2.939 -1.223,-6.037 -1.723,-9.471 -0.466,-3.234 -0.806,-6.463 -1.008,-9.6 -0.183,-2.866 -0.254,-5.704 -0.213,-8.474 -1.555,0.652 -3.455,1.404 -5.667,2.198 -1.824,0.672 -3.906,1.353 -6.175,2.02 -2.284,0.693 -4.78,1.348 -7.412,1.946 -5.936,1.371 -12.076,2.27 -18.266,2.674 -8.028,0.457 -15.173,0.08 -22.006,-1.146 -4.385,-0.751 -8.257,-1.725 -11.821,-2.972 -4.209,-1.431 -8.151,-3.128 -11.728,-5.05 -3.872,-2.117 -7.574,-4.544 -11,-7.212 -3.257,-2.526 -6.475,-5.514 -9.84,-9.137 -2.678,-2.89 -5.317,-6.289 -8.346,-10.759 -2.114,-3.385 -4.548,-7.433 -6.554,-11.742 -2.13,-4.255 -3.849,-8.611 -5.249,-12.305 -0.51,-1.339 -0.983,-2.689 -1.454,-4.037 -0.252,-0.721 -0.504,-1.441 -0.783,-2.222 l -1.998,-6.212 c -0.816,-2.687 -1.606,-5.447 -2.374,-8.303 -0.04,2.259 0.004,4.516 0.047,6.709 l 0.035,1.892 c 0.289,7.205 0.773,13.182 1.521,18.787 1.005,6.928 2.228,12.936 3.738,18.366 1.821,6.551 3.904,12.272 6.371,17.495 2.661,5.67 5.87,11.019 9.541,15.902 3.661,4.903 7.941,9.442 12.73,13.5 4.577,3.925 9.766,7.444 15.435,10.465 5.175,2.804 10.836,5.178 17.314,7.259 5.329,1.734 11.339,3.153 18.357,4.334 5.978,0.95 12.326,1.556 18.852,1.802 1.86,0.056 3.743,0.085 5.596,0.085 4.468,0 8.968,-0.166 13.375,-0.492 5.362,-0.4 10.222,-0.97 14.779,-1.737 -0.566,-1.646 -1.121,-3.391 -1.68,-5.279 M -45.43,6.75 c -0.546,0.103 -1.091,0.202 -1.637,0.301 -1.005,0.182 -2.011,0.365 -3,0.572 -2.525,0.544 -5.84,1.298 -9.141,2.319 -3.185,0.916 -6.262,2.111 -8.8,3.136 -2.561,1.121 -5.562,2.498 -8.408,4.214 -3.136,1.864 -5.597,3.553 -7.755,5.323 -2.529,2.045 -4.834,4.214 -6.843,6.439 -4.184,4.683 -7.564,9.993 -10.046,15.781 -2.349,5.495 -3.994,11.564 -4.886,18.033 -0.283,2.088 -0.491,4.286 -0.618,6.534 l -0.047,0.896 c -0.05,1.04 -0.081,2.094 -0.096,3.159 0.126,-3.631 0.451,-7.161 0.974,-10.554 0.966,-6.431 2.674,-12.449 5.077,-17.888 2.527,-5.702 5.934,-10.918 10.135,-15.512 2.011,-2.174 4.308,-4.285 6.813,-6.262 2.143,-1.717 4.595,-3.358 7.704,-5.159 2.575,-1.517 5.177,-2.698 8.375,-4.112 2.568,-1.031 5.617,-2.206 8.715,-3.091 3.236,-0.996 6.518,-1.739 9.03,-2.277 0.971,-0.202 1.948,-0.378 2.926,-0.554 0.536,-0.097 1.073,-0.194 1.681,-0.307 l 5.165,-0.782 -0.175,-0.52 c -1.005,-2.984 -2.139,-5.928 -3.567,-9.261 -1.405,-3.26 -2.809,-6.178 -4.291,-8.919 -1.793,-3.309 -3.466,-5.978 -5.265,-8.394 -2.328,-3.113 -4.547,-5.353 -6.98,-7.048 -1.465,-1.015 -2.98,-1.735 -4.452,-2.125 l -0.256,-0.064 c -0.12,-0.03 -0.237,-0.062 -0.398,-0.091 l -0.693,-0.124 c -0.357,-0.053 -0.766,-0.117 -1.168,-0.141 -0.825,-0.074 -1.651,-0.07 -2.475,-0.005 -2.902,0.219 -5.872,1.192 -9.342,3.056 -1.138,0.615 -2.245,1.277 -3.329,1.96 1.108,-0.666 2.23,-1.302 3.363,-1.884 3.445,-1.764 6.498,-2.693 9.326,-2.838 0.833,-0.048 1.704,-0.024 2.396,0.056 0.332,0.027 0.592,0.068 0.879,0.115 l 0.918,0.176 c 0.1,0.018 0.278,0.063 0.456,0.113 l 0.19,0.052 c 1.461,0.422 2.913,1.155 4.306,2.169 2.214,1.593 4.341,3.825 6.699,7.033 1.736,2.381 3.412,5.113 5.126,8.354 1.443,2.731 2.807,5.641 4.172,8.896 0.886,2.121 1.712,4.252 2.456,6.333 l 0.821,2.296 -4.035,0.596 z m -201.154,-39.544 c 0.223,1.408 0.402,2.76 0.555,4.026 0.477,4.035 0.749,8.291 0.83,13.094 l 2.283,-0.291 c -0.387,-2.989 -0.715,-5.951 -1,-8.869 l -2.668,-7.96 z m 1.496,-6.631 c -0.046,-0.821 -0.116,-1.636 -0.185,-2.445 -0.086,-1.004 -0.175,-2.042 -0.216,-3.049 l -0.036,-0.671 c -0.086,-1.564 -0.17,-3.106 -0.284,-4.618 -0.154,-1.95 -0.237,-3.825 -0.293,-5.231 l -0.158,-3.565 c 0.122,5.225 0.321,11.19 0.883,17.397 l 0.623,6.875 c -0.118,-1.586 -0.228,-3.151 -0.334,-4.693 m -21.698,-34.983 -2.857,4.484 c -0.583,0.94 -1.122,1.892 -1.692,2.901 -0.317,0.561 -0.635,1.123 -0.946,1.656 l -0.476,0.832 c -0.279,0.485 -0.558,0.97 -0.802,1.423 l -2.439,4.796 c -0.348,0.669 -0.749,1.461 -1.121,2.345 -0.016,0.033 -0.031,0.067 -0.047,0.099 3.631,-2.039 6.802,-3.197 9.964,-3.643 1.94,-0.286 3.91,-0.256 5.788,0.089 1.938,0.364 3.857,1.127 5.542,2.199 2.173,1.371 4.132,3.294 5.849,5.744 -0.134,-3.144 -0.208,-6.135 -0.269,-8.906 -0.032,-7.417 0.078,-13.152 0.344,-18.028 l 0.166,-3.771 0.308,-4.148 c 0.161,-2.163 0.309,-4.154 0.473,-5.97 0.146,-1.538 0.295,-2.95 0.436,-4.215 -6.782,6.709 -12.901,14.135 -18.221,22.113 m -27.313,77.302 -0.122,3.069 0.043,5.435 c 0.007,0.339 0.008,0.675 0.008,1.011 0.001,0.541 0,1.082 0.039,1.658 l 0.328,5.588 c 0.043,0.841 0.098,1.74 0.216,2.658 l 0.604,5.504 c 0.13,1.141 0.317,2.266 0.515,3.457 0.108,0.651 0.217,1.302 0.312,1.934 l 0.424,2.644 0.569,2.693 c 0.143,0.645 0.278,1.292 0.413,1.939 0.247,1.183 0.479,2.302 0.759,3.398 l 1.41,5.303 c 2.308,7.753 4.785,14.455 7.604,20.561 0.343,0.827 0.755,1.654 1.12,2.369 l 2.452,4.896 c 0.272,0.514 0.559,1.021 0.846,1.528 l 0.462,0.822 c 0.326,0.567 0.644,1.139 0.963,1.71 0.561,1.005 1.141,2.045 1.728,3.005 l 2.936,4.674 c 0.59,0.958 1.237,1.874 1.923,2.843 0.379,0.536 0.757,1.073 1.11,1.592 l 1.519,2.172 1.658,2.152 c 0.401,0.508 0.795,1.021 1.19,1.534 0.729,0.949 1.418,1.846 2.14,2.705 l 3.559,4.162 c 0.718,0.854 1.486,1.66 2.299,2.513 0.449,0.471 0.898,0.942 1.321,1.403 l 1.826,1.941 c 0.403,0.404 0.814,0.8 1.226,1.196 l 0.679,0.657 c 0.463,0.441 0.922,0.886 1.38,1.332 0.825,0.802 1.648,1.604 2.481,2.355 l 4.035,3.542 c 10.893,9.219 22.815,16.764 35.455,22.43 l 2.298,1.058 2.419,0.975 c 0.568,0.226 1.135,0.455 1.701,0.683 1.039,0.42 2.077,0.839 3.06,1.212 0.795,0.27 1.587,0.546 2.379,0.823 2.516,0.877 4.891,1.706 7.421,2.364 5.611,1.687 11.873,3.048 19.644,4.275 0.776,0.096 1.552,0.197 2.326,0.298 2.597,0.339 5.051,0.658 7.568,0.798 0.588,0.04 1.175,0.087 1.761,0.134 1.089,0.089 2.118,0.172 3.128,0.21 l 7.132,0.165 7.377,-0.222 c 1.074,-0.07 2.161,-0.159 3.244,-0.248 l 2.634,-0.213 c 1.294,-0.102 2.516,-0.199 3.741,-0.387 l 5.846,-0.773 3.493,-0.641 c 0.553,-0.107 1.105,-0.207 1.658,-0.306 1.015,-0.181 1.972,-0.353 2.908,-0.567 l 6.744,-1.601 6.632,-1.92 c 1.045,-0.328 2.076,-0.691 3.102,-1.054 l 1.149,-0.404 c 0.47,-0.171 0.943,-0.334 1.414,-0.497 0.962,-0.333 1.872,-0.647 2.771,-1.037 0.763,-0.317 1.527,-0.626 2.29,-0.934 2.044,-0.825 3.975,-1.605 5.886,-2.547 l 3.924,-1.828 3.886,-2.039 c 5.26,-2.743 10.217,-5.992 14.336,-8.783 2.3,-1.632 4.594,-3.356 6.547,-4.822 l 3.121,-2.572 c 0.324,-0.274 0.652,-0.543 0.981,-0.812 0.707,-0.58 1.375,-1.128 2.037,-1.757 4.205,-3.753 7.798,-7.272 10.988,-10.764 3.541,-3.84 6.887,-7.874 10.01,-12.067 -3.332,4.022 -6.871,7.869 -10.588,11.504 -7.313,7.162 -15.508,13.679 -24.38,19.383 -5.389,3.376 -9.971,5.959 -14.408,8.122 l -3.834,1.897 -3.823,1.671 c -1.909,0.888 -3.893,1.635 -5.812,2.357 -0.747,0.281 -1.495,0.563 -2.279,0.867 -11.1,4.069 -22.871,6.81 -34.923,8.142 -1.258,0.182 -2.489,0.265 -3.68,0.346 l -5.646,0.387 -7.265,0.143 -6.961,-0.187 c -1.053,-0.037 -2.101,-0.121 -3.115,-0.202 -0.554,-0.044 -1.109,-0.089 -1.636,-0.124 -2.467,-0.128 -4.932,-0.446 -7.316,-0.753 -0.766,-0.099 -1.533,-0.198 -2.371,-0.3 -7.758,-1.216 -13.678,-2.495 -19.124,-4.128 -2.224,-0.579 -4.413,-1.314 -6.53,-2.026 -0.98,-0.329 -1.962,-0.659 -3.023,-1 -1.006,-0.365 -2.004,-0.754 -3.004,-1.143 -0.549,-0.214 -1.099,-0.428 -1.66,-0.642 l -2.408,-0.935 -2.257,-1.004 c -12.393,-5.36 -24.136,-12.578 -34.93,-21.475 l -3.937,-3.364 c -0.848,-0.744 -1.668,-1.522 -2.489,-2.3 -0.442,-0.42 -0.885,-0.84 -1.352,-1.273 l -0.673,-0.632 c -0.413,-0.387 -0.827,-0.774 -1.269,-1.209 l -1.819,-1.884 c -0.415,-0.441 -0.839,-0.873 -1.263,-1.306 -0.788,-0.805 -1.603,-1.638 -2.331,-2.485 -4.269,-4.657 -8.552,-10.103 -13.105,-16.666 -16.194,-23.871 -25.359,-52.763 -25.806,-81.406 l 0.031,-2.96 z M 4.802,11.89 c 0.003,1.43 -0.12,3.08 -0.239,4.646 -0.584,9.749 -2.192,19.725 -4.781,29.661 -4.174,15.752 -10.192,29.811 -18.4,42.978 -5.093,8.2 -11.002,15.966 -17.558,23.076 -3.277,3.586 -6.965,7.199 -11.223,10.999 -0.723,0.688 -1.481,1.31 -2.213,1.911 -0.313,0.256 -0.626,0.512 -0.954,0.79 l -3.21,2.642 c -2.044,1.536 -4.361,3.278 -6.741,4.967 -4.25,2.879 -9.327,6.206 -14.761,9.04 l -3.965,2.078 -3.971,1.852 c -2.005,0.988 -4.096,1.832 -6.117,2.649 -0.75,0.303 -1.502,0.607 -2.225,0.906 -1.01,0.439 -2.036,0.794 -3.028,1.137 -0.449,0.155 -0.9,0.311 -1.378,0.485 l -1.159,0.407 c -1.071,0.378 -2.147,0.757 -3.278,1.112 l -6.764,1.956 -6.86,1.63 c -1.043,0.239 -2.093,0.428 -3.11,0.61 -0.534,0.096 -1.07,0.192 -1.623,0.298 l -3.61,0.661 -5.903,0.782 c -1.329,0.205 -2.682,0.312 -3.992,0.416 l -2.624,0.212 c -1.105,0.09 -2.215,0.181 -3.381,0.255 l -7.157,0.22 c 0,0 -0.261,0.008 -0.409,0.008 l -7.257,-0.167 c -1.122,-0.042 -2.242,-0.133 -3.325,-0.22 -0.57,-0.047 -1.142,-0.093 -1.686,-0.13 -2.639,-0.146 -5.282,-0.49 -7.838,-0.823 -0.766,-0.101 -1.532,-0.2 -2.366,-0.305 -8.02,-1.265 -14.451,-2.664 -20.165,-4.384 -2.614,-0.678 -5.179,-1.573 -7.66,-2.438 -0.782,-0.273 -1.564,-0.546 -2.413,-0.835 -1.074,-0.406 -2.14,-0.837 -3.208,-1.268 -0.558,-0.226 -1.116,-0.452 -1.687,-0.678 l -2.516,-1.016 -2.369,-1.088 c -12.966,-5.813 -25.207,-13.558 -36.412,-23.044 l -4.083,-3.583 c -0.9,-0.811 -1.77,-1.657 -2.612,-2.476 -0.447,-0.435 -0.896,-0.871 -1.366,-1.318 l -0.678,-0.655 c -0.433,-0.417 -0.866,-0.834 -1.327,-1.299 l -1.881,-1.997 c -0.423,-0.461 -0.855,-0.914 -1.287,-1.368 -0.819,-0.86 -1.666,-1.748 -2.454,-2.685 l -3.559,-4.163 c -0.789,-0.938 -1.537,-1.912 -2.261,-2.853 -0.383,-0.499 -0.768,-0.999 -1.173,-1.512 l -1.726,-2.243 -1.589,-2.27 c -0.355,-0.523 -0.719,-1.039 -1.084,-1.554 -0.691,-0.978 -1.406,-1.99 -2.052,-3.04 l -2.939,-4.678 c -0.642,-1.049 -1.242,-2.124 -1.822,-3.164 -0.311,-0.558 -0.622,-1.115 -0.953,-1.693 l -0.46,-0.818 c -0.305,-0.539 -0.61,-1.079 -0.921,-1.666 l -2.465,-4.923 c -0.394,-0.77 -0.849,-1.686 -1.214,-2.569 -2.868,-6.209 -5.411,-13.086 -7.79,-21.081 l -1.432,-5.379 c -0.306,-1.203 -0.559,-2.417 -0.804,-3.591 -0.131,-0.63 -0.263,-1.259 -0.407,-1.907 l -0.591,-2.809 -0.444,-2.759 c -0.096,-0.633 -0.201,-1.264 -0.306,-1.895 -0.197,-1.188 -0.401,-2.416 -0.544,-3.667 l -0.602,-5.477 c -0.13,-1.019 -0.193,-2.052 -0.237,-2.911 l -0.326,-5.554 c -0.044,-0.647 -0.046,-1.278 -0.047,-1.908 0,-0.309 0,-0.617 -0.008,-0.955 L -298.22,5.9 -298,0.354 c 0.037,-1.833 0.209,-3.654 0.375,-5.413 l 0.272,-2.98 c 0.076,-0.91 0.167,-1.891 0.324,-2.861 l 0.787,-5.528 c 1.404,-8.125 3.1,-15.218 5.182,-21.665 4.4,-14.016 10.802,-27.392 19.025,-39.759 15.808,-23.777 38.693,-43.488 64.428,-55.499 l 2.432,-1.149 2.398,-1 c 0.548,-0.226 1.095,-0.454 1.641,-0.683 1.053,-0.44 2.104,-0.879 3.233,-1.321 0.912,-0.319 1.82,-0.649 2.727,-0.978 2.301,-0.836 4.68,-1.7 7.034,-2.362 5.908,-1.892 12.258,-3.395 20.048,-4.74 0.766,-0.106 1.53,-0.218 2.293,-0.329 2.526,-0.368 5.138,-0.75 7.76,-0.934 0.563,-0.047 1.13,-0.1 1.697,-0.155 1.095,-0.103 2.228,-0.212 3.361,-0.27 l 6.867,-0.264 c 0.058,-0.004 0.168,-0.008 0.286,-0.008 l 7.659,0.12 c 1.061,0.053 2.116,0.124 3.171,0.196 l 2.72,0.18 c 1.275,0.082 2.593,0.167 3.875,0.346 l 6.039,0.732 3.524,0.621 c 0.537,0.1 1.074,0.193 1.612,0.285 1.01,0.173 2.055,0.353 3.105,0.586 l 6.927,1.596 6.71,1.892 c 1.141,0.347 2.264,0.738 3.351,1.115 l 1.077,0.372 c 0.448,0.161 0.897,0.314 1.345,0.466 0.992,0.337 2.019,0.685 3.003,1.107 0.751,0.308 1.505,0.608 2.256,0.907 2.02,0.803 4.109,1.634 6.074,2.591 l 4.097,1.888 3.88,2.011 c 5.383,2.773 10.285,5.953 14.816,9 2.331,1.641 4.56,3.304 6.786,4.967 l 3.165,2.589 c 0.315,0.264 0.632,0.522 0.949,0.781 0.729,0.594 1.485,1.21 2.158,1.847 4.316,3.828 8.012,7.425 11.299,10.995 6.534,7.088 12.439,14.851 17.55,23.07 8.194,13.125 14.217,27.176 18.417,42.963 2.596,9.944 4.215,19.918 4.811,29.615 0.145,1.898 0.248,3.345 0.247,4.63 L 4.92,5.966 4.802,11.89 Z" /></g></g></g></g><g
           id="g68"><g
             id="g70" /><g
             id="g76"><g
               style="opacity:0.5"
               id="g78"
               clip-path="url(#clipPath72)"><g
                 id="g80"
                 transform="translate(249.3713,306.2712)"><path
                   id="path82"
                   style="fill:#47294f;fill-opacity:1;fill-rule:nonzero;stroke:none"
                   d="m 0,0 c 0.23,-0.157 0.46,-0.312 0.678,-0.469 0.712,-0.517 1.454,-0.982 2.186,-1.44 0.744,-0.508 1.531,-0.958 2.258,-1.367 l 1.15,-0.671 2.297,-1.199 2.335,-1.095 2.37,-0.994 1.173,-0.438 c 0.827,-0.325 1.662,-0.607 2.416,-0.854 0.838,-0.299 1.69,-0.548 2.449,-0.76 0.789,-0.255 1.592,-0.461 2.369,-0.66 l 0.124,-0.031 c 0.569,-0.155 1.145,-0.288 1.722,-0.42 l 0.768,-0.179 c 0.537,-0.136 1.083,-0.241 1.63,-0.345 0.303,-0.058 0.606,-0.116 0.915,-0.182 1.427,-0.29 2.883,-0.519 4.291,-0.739 l 2.639,-0.417 -0.663,-1.48 c -0.302,-0.677 -0.607,-1.303 -0.961,-1.976 -0.334,-0.643 -0.672,-1.284 -1.048,-1.919 -0.8,-1.386 -1.58,-2.584 -2.391,-3.669 -0.883,-1.2 -1.762,-2.188 -2.684,-3.017 0.601,1.112 1.098,2.293 1.581,3.438 l 0.078,0.185 c 0.53,1.307 1.038,2.629 1.532,3.964 l 0.821,2.253 -1.252,0.15 c -0.817,0.099 -1.634,0.208 -2.424,0.331 l -0.736,0.131 c -0.639,0.111 -1.277,0.222 -1.927,0.373 l -0.383,0.083 c -0.771,0.166 -1.5,0.323 -2.254,0.546 -0.893,0.242 -1.737,0.47 -2.59,0.758 -1,0.323 -1.806,0.61 -2.546,0.909 l -1.235,0.48 -2.463,1.125 -2.386,1.277 -2.294,1.421 -2.188,1.57 -1.065,0.869 C 3.68,-3.954 2.965,-3.35 2.306,-2.694 L 1.862,-2.26 C 1.36,-1.773 0.886,-1.312 0.459,-0.796 0.264,-0.565 0.064,-0.338 -0.136,-0.113 -0.29,0.062 -0.441,0.233 -0.589,0.405 -0.392,0.266 -0.194,0.132 0,0 m -4.48,2.294 c 0.518,-0.792 1.08,-1.536 1.612,-2.239 0.39,-0.538 0.819,-1.023 1.234,-1.492 0.19,-0.215 0.38,-0.43 0.559,-0.642 0.489,-0.591 1.025,-1.112 1.544,-1.616 l 0.428,-0.419 c 0.716,-0.712 1.476,-1.354 2.127,-1.891 l 1.112,-0.905 2.298,-1.649 2.407,-1.492 2.497,-1.336 2.572,-1.175 1.276,-0.497 c 0.773,-0.312 1.621,-0.615 2.656,-0.95 0.899,-0.303 1.812,-0.55 2.68,-0.784 0.795,-0.236 1.596,-0.409 2.372,-0.575 l 0.363,-0.078 c 0.67,-0.158 1.346,-0.276 2.022,-0.393 l 0.746,-0.132 c 0.423,-0.067 0.846,-0.128 1.27,-0.186 -0.473,-1.272 -0.959,-2.537 -1.462,-3.777 l -0.072,-0.172 c -0.499,-1.185 -1.015,-2.409 -1.623,-3.494 -0.326,-0.541 -0.631,-1.052 -0.987,-1.419 -0.339,-0.34 -0.53,-0.444 -0.777,-0.373 l -3.422,0.98 2.411,-2.618 c 0.436,-0.473 1.099,-0.772 1.735,-0.796 0.078,-0.006 0.155,-0.009 0.233,-0.009 0.454,0 0.915,0.1 1.459,0.317 0.785,0.323 1.537,0.804 2.291,1.464 1.123,0.966 2.183,2.132 3.232,3.559 0.854,1.142 1.677,2.405 2.511,3.85 0.39,0.658 0.745,1.331 1.094,2.002 0.372,0.706 0.694,1.37 1.016,2.087 l 1.726,3.863 -5.22,0.826 c -1.385,0.217 -2.819,0.442 -4.192,0.721 -0.315,0.067 -0.632,0.128 -0.949,0.188 -0.507,0.097 -1.014,0.193 -1.526,0.323 l -0.797,0.186 c -0.552,0.127 -1.103,0.253 -1.662,0.405 l -0.137,0.035 c -0.781,0.199 -1.52,0.388 -2.286,0.636 -0.762,0.214 -1.575,0.451 -2.378,0.738 -0.752,0.246 -1.554,0.517 -2.35,0.829 l -1.147,0.428 -4.558,2.023 -2.224,1.161 -1.117,0.653 C 5.384,-1.129 4.67,-0.721 3.912,-0.206 3.223,0.226 2.511,0.672 1.848,1.154 1.61,1.323 1.368,1.489 1.125,1.654 0.646,1.979 0.195,2.286 -0.225,2.637 -0.543,2.896 -0.876,3.142 -1.211,3.389 -1.581,3.662 -1.953,3.935 -2.306,4.236 -2.991,4.813 -3.696,5.38 -4.422,5.944 L -8.406,9.039 -5.903,4.658 C -5.452,3.868 -4.98,3.082 -4.48,2.294" /></g></g></g></g></g></g></g></svg>