<?xml version="1.0" encoding="UTF-8" standalone="no"?>
<svg
   xmlns:dc="http://purl.org/dc/elements/1.1/"
   xmlns:cc="http://creativecommons.org/ns#"
   xmlns:rdf="http://www.w3.org/1999/02/22-rdf-syntax-ns#"
   xmlns:svg="http://www.w3.org/2000/svg"
   xmlns="http://www.w3.org/2000/svg"
   xmlns:sodipodi="http://sodipodi.sourceforge.net/DTD/sodipodi-0.dtd"
   xmlns:inkscape="http://www.inkscape.org/namespaces/inkscape"
   viewBox="0 0 640 640"
   height="640"
   width="640"
   xml:space="preserve"
   version="1.1"
   id="svg2"
   sodipodi:docname="Antu_qupzilla.svg"
   inkscape:version="0.92.3 (2405546, 2018-03-11)"><sodipodi:namedview
     pagecolor="#ffffff"
     bordercolor="#666666"
     borderopacity="1"
     objecttolerance="10"
     gridtolerance="10"
     guidetolerance="10"
     inkscape:pageopacity="0"
     inkscape:pageshadow="2"
     inkscape:window-width="1920"
     inkscape:window-height="1003"
     id="namedview225"
     showgrid="false"
     inkscape:zoom="0.36875"
     inkscape:cx="326.77966"
     inkscape:cy="320"
     inkscape:window-x="0"
     inkscape:window-y="0"
     inkscape:window-maximized="1"
     inkscape:current-layer="svg2" /><metadata
     id="metadata8"><rdf:RDF><cc:Work
         rdf:about=""><dc:format>image/svg+xml</dc:format><dc:type
           rdf:resource="http://purl.org/dc/dcmitype/StillImage" /></cc:Work></rdf:RDF></metadata><defs
     id="defs6"><clipPath
       id="clipPath16"
       clipPathUnits="userSpaceOnUse"><path
         id="path18"
         d="M 0,512 512,512 512,0 0,0 0,512 Z" /></clipPath><clipPath
       id="clipPath24"
       clipPathUnits="userSpaceOnUse"><path
         id="path26"
         d="m 18.325,493.744 475.4,0 0,-475.4877 -475.4,0 0,475.4877 z" /></clipPath><clipPath
       id="clipPath28"
       clipPathUnits="userSpaceOnUse"><path
         id="path30"
         d="M 448.99,63.029 C 389.293,3.332 122.807,3.332 63.11,63.029 3.413,122.726 3.413,389.312 63.01,449.009 c 59.597,59.696 326.283,59.596 385.98,0 59.697,-59.597 59.597,-326.283 0,-385.98" /></clipPath><radialGradient
       id="radialGradient36"
       spreadMethod="pad"
       gradientTransform="matrix(237.72188,0,0,237.72188,256.02499,256)"
       gradientUnits="userSpaceOnUse"
       r="1"
       cy="0"
       cx="0"
       fy="0"
       fx="0"><stop
         id="stop38"
         offset="0"
         style="stop-opacity:1;stop-color:#ffffff" /><stop
         id="stop40"
         offset="0.8587"
         style="stop-opacity:0.14129854;stop-color:#ffffff" /><stop
         id="stop42"
         offset="1"
         style="stop-opacity:0;stop-color:#ffffff" /></radialGradient><mask
       id="mask44"
       height="1"
       width="1"
       y="0"
       x="0"
       maskUnits="userSpaceOnUse"><g
         id="g46"><g
           id="g48"><g
             id="g50"><g
               id="g52"><path
                 id="path54"
                 style="fill:url(#radialGradient36);stroke:none"
                 d="m -32768,32767 65535,0 0,-65535 -65535,0 0,65535 z" /></g></g></g></g></mask><radialGradient
       id="radialGradient56"
       spreadMethod="pad"
       gradientTransform="matrix(237.72188,0,0,237.72188,256.02499,256)"
       gradientUnits="userSpaceOnUse"
       r="1"
       cy="0"
       cx="0"
       fy="0"
       fx="0"><stop
         id="stop58"
         offset="0"
         style="stop-opacity:1;stop-color:#010101" /><stop
         id="stop60"
         offset="0.8587"
         style="stop-opacity:1;stop-color:#010101" /><stop
         id="stop62"
         offset="1"
         style="stop-opacity:1;stop-color:#010101" /></radialGradient><clipPath
       id="clipPath86"
       clipPathUnits="userSpaceOnUse"><path
         id="path88"
         d="m 18.325,493.744 475.4,0 0,-475.4877 -475.4,0 0,475.4877 z" /></clipPath><clipPath
       id="clipPath90"
       clipPathUnits="userSpaceOnUse"><path
         id="path92"
         d="M 448.99,63.029 C 389.293,3.332 122.807,3.332 63.11,63.029 3.413,122.726 3.413,389.312 63.01,449.009 c 59.597,59.696 326.283,59.596 385.98,0 59.697,-59.597 59.597,-326.283 0,-385.98" /></clipPath><radialGradient
       id="radialGradient98"
       spreadMethod="pad"
       gradientTransform="matrix(188.25467,188.36119,-130.35883,130.27895,256.02499,256.04376)"
       gradientUnits="userSpaceOnUse"
       r="1"
       cy="0"
       cx="0"
       fy="0"
       fx="0"><stop
         id="stop100"
         offset="0"
         style="stop-opacity:1;stop-color:#ffffff" /><stop
         id="stop102"
         offset="0.8587"
         style="stop-opacity:0.14129854;stop-color:#ffffff" /><stop
         id="stop104"
         offset="1"
         style="stop-opacity:0;stop-color:#ffffff" /></radialGradient><mask
       id="mask106"
       height="1"
       width="1"
       y="0"
       x="0"
       maskUnits="userSpaceOnUse"><g
         id="g108"><g
           id="g110"><g
             id="g112"><g
               id="g114"><path
                 id="path116"
                 style="fill:url(#radialGradient98);stroke:none"
                 d="m -32768,32767 65535,0 0,-65535 -65535,0 0,65535 z" /></g></g></g></g></mask><radialGradient
       id="radialGradient118"
       spreadMethod="pad"
       gradientTransform="matrix(188.25467,188.36119,-130.35883,130.27895,256.02499,256.04376)"
       gradientUnits="userSpaceOnUse"
       r="1"
       cy="0"
       cx="0"
       fy="0"
       fx="0"><stop
         id="stop120"
         offset="0"
         style="stop-opacity:1;stop-color:#010101" /><stop
         id="stop122"
         offset="0.8587"
         style="stop-opacity:1;stop-color:#010101" /><stop
         id="stop124"
         offset="1"
         style="stop-opacity:1;stop-color:#010101" /></radialGradient><clipPath
       id="clipPath148"
       clipPathUnits="userSpaceOnUse"><path
         id="path150"
         d="m 18.275,493.694 475.387,0 0,-475.4377 -475.387,0 0,475.4377 z" /></clipPath><clipPath
       id="clipPath152"
       clipPathUnits="userSpaceOnUse"><path
         id="path154"
         d="m 63.01,63.029 c 59.697,-59.697 326.183,-59.697 385.88,0 59.697,59.697 59.697,326.183 0,385.88 -59.697,59.696 -326.183,59.696 -385.88,0.1 -59.697,-59.597 -59.597,-326.283 0,-385.98" /></clipPath><radialGradient
       id="radialGradient160"
       spreadMethod="pad"
       gradientTransform="matrix(-188.28767,188.39421,130.38168,130.30179,255.92499,255.99377)"
       gradientUnits="userSpaceOnUse"
       r="1"
       cy="0"
       cx="0"
       fy="0"
       fx="0"><stop
         id="stop162"
         offset="0"
         style="stop-opacity:1;stop-color:#ffffff" /><stop
         id="stop164"
         offset="0.8587"
         style="stop-opacity:0.14129854;stop-color:#ffffff" /><stop
         id="stop166"
         offset="1"
         style="stop-opacity:0;stop-color:#ffffff" /></radialGradient><mask
       id="mask168"
       height="1"
       width="1"
       y="0"
       x="0"
       maskUnits="userSpaceOnUse"><g
         id="g170"><g
           id="g172"><g
             id="g174"><g
               id="g176"><path
                 id="path178"
                 style="fill:url(#radialGradient160);stroke:none"
                 d="m -32768,32767 65535,0 0,-65535 -65535,0 0,65535 z" /></g></g></g></g></mask><radialGradient
       id="radialGradient180"
       spreadMethod="pad"
       gradientTransform="matrix(-188.28767,188.39421,130.38168,130.30179,255.92499,255.99377)"
       gradientUnits="userSpaceOnUse"
       r="1"
       cy="0"
       cx="0"
       fy="0"
       fx="0"><stop
         id="stop182"
         offset="0"
         style="stop-opacity:1;stop-color:#010101" /><stop
         id="stop184"
         offset="0.8587"
         style="stop-opacity:1;stop-color:#010101" /><stop
         id="stop186"
         offset="1"
         style="stop-opacity:1;stop-color:#010101" /></radialGradient><clipPath
       id="clipPath214"
       clipPathUnits="userSpaceOnUse"><path
         id="path216"
         d="m 142.748,284.543 226.504,0 0,-170.337 -226.504,0 0,170.337 z" /></clipPath><clipPath
       id="clipPath230"
       clipPathUnits="userSpaceOnUse"><path
         id="path232"
         d="m 142.748,397.794 113.252,0 0,-198.411 -113.252,0 0,198.411 z" /></clipPath><clipPath
       id="clipPath246"
       clipPathUnits="userSpaceOnUse"><path
         id="path248"
         d="m 256,397.794 113.252,0 0,-198.411 -113.252,0 0,198.411 z" /></clipPath><clipPath
       id="clipPath262"
       clipPathUnits="userSpaceOnUse"><path
         id="path264"
         d="m 191.901,320.099 128.198,0 0,-128.198 -128.198,0 0,128.198 z" /></clipPath><radialGradient
       id="radialGradient270"
       spreadMethod="pad"
       gradientTransform="matrix(64.098572,0,0,-64.098572,256,256)"
       gradientUnits="userSpaceOnUse"
       r="1"
       cy="0"
       cx="0"
       fy="0"
       fx="0"><stop
         id="stop272"
         offset="0"
         style="stop-opacity:1;stop-color:#ffffff" /><stop
         id="stop274"
         offset="0.32693473"
         style="stop-opacity:1;stop-color:#ffffff" /><stop
         id="stop276"
         offset="1"
         style="stop-opacity:1;stop-color:#cbccce" /></radialGradient><clipPath
       id="clipPath296"
       clipPathUnits="userSpaceOnUse"><path
         id="path298"
         d="m 142.748,312.617 113.252,0 0,-198.411 -113.252,0 0,198.411 z" /></clipPath><clipPath
       id="clipPath312"
       clipPathUnits="userSpaceOnUse"><path
         id="path314"
         d="m 256,312.617 113.252,0 0,-198.411 -113.252,0 0,198.411 z" /></clipPath><clipPath
       id="clipPath328"
       clipPathUnits="userSpaceOnUse"><path
         id="path330"
         d="m 142.748,397.794 226.504,0 0,-170.337 -226.504,0 0,170.337 z" /></clipPath><clipPath
       id="clipPath344"
       clipPathUnits="userSpaceOnUse"><path
         id="path346"
         d="m 152.705,280.775 206.59,0 0,-162.8 -206.59,0 0,162.8 z" /></clipPath><clipPath
       id="clipPath360"
       clipPathUnits="userSpaceOnUse"><path
         id="path362"
         d="m 142.748,382.775 113.252,0 0,-168.372 -113.252,0 0,168.372 z" /></clipPath><clipPath
       id="clipPath376"
       clipPathUnits="userSpaceOnUse"><path
         id="path378"
         d="m 256,382.775 113.252,0 0,-168.372 -113.252,0 0,168.372 z" /></clipPath><clipPath
       id="clipPath392"
       clipPathUnits="userSpaceOnUse"><path
         id="path394"
         d="m 191.901,320.099 128.198,0 0,-128.198 -128.198,0 0,128.198 z" /></clipPath><radialGradient
       id="radialGradient400"
       spreadMethod="pad"
       gradientTransform="matrix(64.098572,0,0,-64.098572,256,256)"
       gradientUnits="userSpaceOnUse"
       r="1"
       cy="0"
       cx="0"
       fy="0"
       fx="0"><stop
         id="stop402"
         offset="0"
         style="stop-opacity:1;stop-color:#ffffff" /><stop
         id="stop404"
         offset="0.32693473"
         style="stop-opacity:1;stop-color:#ffffff" /><stop
         id="stop406"
         offset="1"
         style="stop-opacity:1;stop-color:#cbccce" /></radialGradient><clipPath
       id="clipPath426"
       clipPathUnits="userSpaceOnUse"><path
         id="path428"
         d="m 142.748,297.598 113.252,0 0,-168.373 -113.252,0 0,168.373 z" /></clipPath><clipPath
       id="clipPath442"
       clipPathUnits="userSpaceOnUse"><path
         id="path444"
         d="m 256,297.598 113.252,0 0,-168.373 -113.252,0 0,168.373 z" /></clipPath><clipPath
       id="clipPath458"
       clipPathUnits="userSpaceOnUse"><path
         id="path460"
         d="m 152.705,394.026 206.591,0 0,-162.801 -206.591,0 0,162.801 z" /></clipPath><linearGradient
       id="0"
       gradientUnits="userSpaceOnUse"
       x1="400.95001"
       y1="546.62"
       x2="401.17999"
       y2="516.92999"><stop
         stop-color="#205ba0"
         id="stop2" /><stop
         offset="1"
         stop-color="#5dbfec"
         id="stop4" /></linearGradient><linearGradient
       id="1"
       x1="409.41"
       y1="533.90997"
       x2="409.79001"
       y2="522.20001"
       gradientUnits="userSpaceOnUse"><stop
         stop-color="#46a0ff"
         id="stop7" /><stop
         offset="1"
         stop-color="#9fe0ff"
         id="stop9" /></linearGradient><linearGradient
       id="2"
       x1="403.26001"
       y1="532.59998"
       x2="403.39001"
       y2="511.48999"
       gradientUnits="userSpaceOnUse"><stop
         stop-color="#d5dbff"
         id="stop12" /><stop
         offset="1"
         stop-color="#f9ffff"
         id="stop14" /></linearGradient></defs><g
     transform="matrix(1.25,0,0,-1.25,0,640)"
     id="g10"><g
       id="g12"><g
         clip-path="url(#clipPath16)"
         id="g14"><g
           id="g20"><g
             id="g22" /><g
             id="g64"><g
               style="opacity:0.39999402"
               id="g66"
               clip-path="url(#clipPath24)"><g
                 id="g68"><g
                   id="g70"
                   clip-path="url(#clipPath28)"><g
                     id="g72"><g
                       id="g74" /><g
                       id="g76"
                       mask="url(#mask44)"><g
                         id="g78"><path
                           id="path80"
                           style="fill:url(#radialGradient56);stroke:none"
                           d="M 448.99,63.029 C 389.293,3.332 122.807,3.332 63.11,63.029 3.413,122.726 3.413,389.312 63.01,449.009 c 59.597,59.696 326.283,59.596 385.98,0 59.697,-59.597 59.597,-326.283 0,-385.98" /></g></g></g></g></g></g></g></g><g
           id="g82"><g
             id="g84" /><g
             id="g126"><g
               style="opacity:0.39999402"
               id="g128"
               clip-path="url(#clipPath86)"><g
                 id="g130"><g
                   id="g132"
                   clip-path="url(#clipPath90)"><g
                     id="g134"><g
                       id="g136" /><g
                       id="g138"
                       mask="url(#mask106)"><g
                         id="g140"><path
                           id="path142"
                           style="fill:url(#radialGradient118);stroke:none"
                           d="M 448.99,63.029 C 389.293,3.332 122.807,3.332 63.11,63.029 3.413,122.726 3.413,389.312 63.01,449.009 c 59.597,59.696 326.283,59.596 385.98,0 59.697,-59.597 59.597,-326.283 0,-385.98" /></g></g></g></g></g></g></g></g><g
           id="g144"><g
             id="g146" /><g
             id="g188"><g
               style="opacity:0.39999402"
               id="g190"
               clip-path="url(#clipPath148)"><g
                 id="g192"><g
                   id="g194"
                   clip-path="url(#clipPath152)"><g
                     id="g196"><g
                       id="g198" /><g
                       id="g200"
                       mask="url(#mask168)"><g
                         id="g202"><path
                           id="path204"
                           style="fill:url(#radialGradient180);stroke:none"
                           d="m 63.01,63.029 c 59.697,-59.697 326.183,-59.697 385.88,0 59.697,59.697 59.697,326.183 0,385.88 -59.697,59.696 -326.183,59.696 -385.88,0.1 -59.697,-59.597 -59.597,-326.283 0,-385.98" /></g></g></g></g></g></g></g></g><g
           transform="translate(433.2788,78.721)"
           id="g206"><path
             id="path208"
             style="fill:#d5deef;fill-opacity:1;fill-rule:nonzero;stroke:none"
             d="m 0,0 c -70.294,-70.294 -284.264,-70.294 -354.558,0 -70.294,70.294 -70.294,284.264 0,354.558 70.294,70.294 284.264,70.294 354.558,0 C 70.294,284.264 70.295,70.294 0,0" /></g><g
           id="g210"><g
             id="g212" /><g
             id="g218"><g
               style="opacity:0.5"
               id="g220"
               clip-path="url(#clipPath214)"><g
                 id="g222"
                 transform="translate(293.9582,256)" /></g></g></g><g
           id="g226"><g
             id="g228" /><g
             id="g234"><g
               style="opacity:0.5"
               id="g236"
               clip-path="url(#clipPath230)"><g
                 id="g238"
                 transform="translate(256,284.5428)" /></g></g></g><g
           id="g242"><g
             id="g244" /><g
             id="g250"><g
               style="opacity:0.5"
               id="g252"
               clip-path="url(#clipPath246)"><g
                 id="g254"
                 transform="translate(369.2516,199.3829)" /></g></g></g><g
           id="g258"><g
             id="g260" /><g
             id="g278"><g
               style="opacity:0.80000299"
               id="g280"
               clip-path="url(#clipPath262)"><g
                 id="g282"><g
                   id="g284"><g
                     id="g286"><g
                       id="g288" /></g></g></g></g></g></g><g
           id="g292"><g
             id="g294" /><g
             id="g300"><g
               style="opacity:0.5"
               id="g302"
               clip-path="url(#clipPath296)"><g
                 id="g304"
                 transform="translate(256,227.4572)" /></g></g></g><g
           id="g308"><g
             id="g310" /><g
             id="g316"><g
               style="opacity:0.5"
               id="g318"
               clip-path="url(#clipPath312)"><g
                 id="g320"
                 transform="translate(369.2516,312.6171)" /></g></g></g><g
           id="g324"><g
             id="g326" /><g
             id="g332"><g
               style="opacity:0.5"
               id="g334"
               clip-path="url(#clipPath328)"><g
                 id="g336"
                 transform="translate(256,397.7943)" /></g></g></g><g
           id="g340"><g
             id="g342" /><g
             id="g348"><g
               style="opacity:0.5"
               id="g350"
               clip-path="url(#clipPath344)"><g
                 id="g352"
                 transform="translate(293.9582,256)" /></g></g></g><g
           id="g356"><g
             id="g358" /><g
             id="g364"><g
               style="opacity:0.5"
               id="g366"
               clip-path="url(#clipPath360)"><g
                 id="g368"
                 transform="translate(250.015,280.0423)" /></g></g></g><g
           id="g372"><g
             id="g374" /><g
             id="g380"><g
               style="opacity:0.5"
               id="g382"
               clip-path="url(#clipPath376)"><g
                 id="g384"
                 transform="translate(345.2366,217.441)" /></g></g></g><g
           id="g388"><g
             id="g390" /><g
             id="g408"><g
               style="opacity:0.80000299"
               id="g410"
               clip-path="url(#clipPath392)"><g
                 id="g412"><g
                   id="g414"><g
                     id="g416"><g
                       id="g418" /></g></g></g></g></g></g><g
           id="g422"><g
             id="g424" /><g
             id="g430"><g
               style="opacity:0.5"
               id="g432"
               clip-path="url(#clipPath426)"><g
                 id="g434"
                 transform="translate(250.015,231.9577)" /></g></g></g><g
           id="g438"><g
             id="g440" /><g
             id="g446"><g
               style="opacity:0.5"
               id="g448"
               clip-path="url(#clipPath442)"><g
                 id="g450"
                 transform="translate(345.2366,294.559)" /></g></g></g><g
           id="g454"><g
             id="g456" /><g
             id="g462"><g
               style="opacity:0.5"
               id="g464"
               clip-path="url(#clipPath458)"><g
                 id="g466"
                 transform="translate(246.9848,391.0139)" /></g></g></g></g></g></g><g
     transform="matrix(8.8715029,0,0,8.8715029,-3307.4805,-4325.4624)"
     id="g27"><circle
       style="fill:url(#0);stroke:url(#0);stroke-width:1.38499999"
       r="14"
       cy="531.79999"
       cx="400.57001"
       transform="matrix(1.4443,0,0,1.4443,-169.82,-244.44)"
       id="circle19" /><g
       style="fill-rule:evenodd;stroke-width:0.884;stroke-linecap:round;stroke-linejoin:round"
       id="g25"><path
         style="fill:url(#1);stroke:url(#1)"
         inkscape:connector-curvature="0"
         d="m 394.16,533.74 c 14.313,-9.958 20.839,6.355 37.512,0.078 -10.114,-1.119 -15.994,-9.811 -27.12,-10.785 -9.946,-0.249 -13.56,2.214 -10.394,10.707 z"
         id="path21" /><path
         style="fill:url(#2);stroke:url(#2)"
         inkscape:connector-curvature="0"
         d="m 393.46,534.84 c -7.452,-19.395 2.422,-26.825 15.1,-21.707 4.434,1.79 9.483,4.959 16.16,6.702 -14.49,-0.038 -25.514,4.217 -31.26,15 z"
         id="path23" /></g></g></svg>