<?xml version="1.0" encoding="UTF-8" standalone="no"?>
<svg
   xmlns:dc="http://purl.org/dc/elements/1.1/"
   xmlns:cc="http://creativecommons.org/ns#"
   xmlns:rdf="http://www.w3.org/1999/02/22-rdf-syntax-ns#"
   xmlns:svg="http://www.w3.org/2000/svg"
   xmlns="http://www.w3.org/2000/svg"
   viewBox="0 0 640 640"
   height="640"
   width="640"
   xml:space="preserve"
   version="1.1"
   id="svg2"><metadata
     id="metadata8"><rdf:RDF><cc:Work
         rdf:about=""><dc:format>image/svg+xml</dc:format><dc:type
           rdf:resource="http://purl.org/dc/dcmitype/StillImage" /></cc:Work></rdf:RDF></metadata><defs
     id="defs6"><clipPath
       id="clipPath16"
       clipPathUnits="userSpaceOnUse"><path
         id="path18"
         d="M 0,512 512,512 512,0 0,0 0,512 Z" /></clipPath><clipPath
       id="clipPath24"
       clipPathUnits="userSpaceOnUse"><path
         id="path26"
         d="m 18.3125,493.756 475.4255,0 0,-475.5123 -475.4255,0 0,475.5123 z" /></clipPath><clipPath
       id="clipPath28"
       clipPathUnits="userSpaceOnUse"><path
         id="path30"
         d="m 449,63.019 c -59.7,-59.7 -326.2,-59.7 -385.9,0 -59.7,59.7 -59.7,326.3 -0.1,386 59.6,59.7 326.3,59.6 386,0 59.7,-59.6 59.6,-326.3 0,-386" /></clipPath><radialGradient
       id="radialGradient36"
       spreadMethod="pad"
       gradientTransform="matrix(237.73439,0,0,237.73439,256.02499,256)"
       gradientUnits="userSpaceOnUse"
       r="1"
       cy="0"
       cx="0"
       fy="0"
       fx="0"><stop
         id="stop38"
         offset="0"
         style="stop-opacity:1;stop-color:#ffffff" /><stop
         id="stop40"
         offset="0.8587"
         style="stop-opacity:0.14129854;stop-color:#ffffff" /><stop
         id="stop42"
         offset="1"
         style="stop-opacity:0;stop-color:#ffffff" /></radialGradient><mask
       id="mask44"
       height="1"
       width="1"
       y="0"
       x="0"
       maskUnits="userSpaceOnUse"><g
         id="g46"><g
           id="g48"><g
             id="g50"><g
               id="g52"><path
                 id="path54"
                 style="fill:url(#radialGradient36);stroke:none"
                 d="m -32768,32767 65535,0 0,-65535 -65535,0 0,65535 z" /></g></g></g></g></mask><radialGradient
       id="radialGradient56"
       spreadMethod="pad"
       gradientTransform="matrix(237.73439,0,0,237.73439,256.02499,256)"
       gradientUnits="userSpaceOnUse"
       r="1"
       cy="0"
       cx="0"
       fy="0"
       fx="0"><stop
         id="stop58"
         offset="0"
         style="stop-opacity:1;stop-color:#010101" /><stop
         id="stop60"
         offset="0.8587"
         style="stop-opacity:1;stop-color:#010101" /><stop
         id="stop62"
         offset="1"
         style="stop-opacity:1;stop-color:#010101" /></radialGradient><clipPath
       id="clipPath86"
       clipPathUnits="userSpaceOnUse"><path
         id="path88"
         d="m 18.3125,493.756 475.4255,0 0,-475.5123 -475.4255,0 0,475.5123 z" /></clipPath><clipPath
       id="clipPath90"
       clipPathUnits="userSpaceOnUse"><path
         id="path92"
         d="m 449,63.019 c -59.7,-59.7 -326.2,-59.7 -385.9,0 -59.7,59.7 -59.7,326.3 -0.1,386 59.6,59.7 326.3,59.6 386,0 59.7,-59.6 59.6,-326.3 0,-386" /></clipPath><radialGradient
       id="radialGradient98"
       spreadMethod="pad"
       gradientTransform="matrix(188.26457,188.37109,-130.36569,130.2858,256.02499,256.04376)"
       gradientUnits="userSpaceOnUse"
       r="1"
       cy="0"
       cx="0"
       fy="0"
       fx="0"><stop
         id="stop100"
         offset="0"
         style="stop-opacity:1;stop-color:#ffffff" /><stop
         id="stop102"
         offset="0.8587"
         style="stop-opacity:0.14129854;stop-color:#ffffff" /><stop
         id="stop104"
         offset="1"
         style="stop-opacity:0;stop-color:#ffffff" /></radialGradient><mask
       id="mask106"
       height="1"
       width="1"
       y="0"
       x="0"
       maskUnits="userSpaceOnUse"><g
         id="g108"><g
           id="g110"><g
             id="g112"><g
               id="g114"><path
                 id="path116"
                 style="fill:url(#radialGradient98);stroke:none"
                 d="m -32768,32767 65535,0 0,-65535 -65535,0 0,65535 z" /></g></g></g></g></mask><radialGradient
       id="radialGradient118"
       spreadMethod="pad"
       gradientTransform="matrix(188.26457,188.37109,-130.36569,130.2858,256.02499,256.04376)"
       gradientUnits="userSpaceOnUse"
       r="1"
       cy="0"
       cx="0"
       fy="0"
       fx="0"><stop
         id="stop120"
         offset="0"
         style="stop-opacity:1;stop-color:#010101" /><stop
         id="stop122"
         offset="0.8587"
         style="stop-opacity:1;stop-color:#010101" /><stop
         id="stop124"
         offset="1"
         style="stop-opacity:1;stop-color:#010101" /></radialGradient><clipPath
       id="clipPath148"
       clipPathUnits="userSpaceOnUse"><path
         id="path150"
         d="m 18.2625,493.706 475.4125,0 0,-475.4623 -475.4125,0 0,475.4623 z" /></clipPath><clipPath
       id="clipPath152"
       clipPathUnits="userSpaceOnUse"><path
         id="path154"
         d="m 63,63.019 c 59.7,-59.7 326.2,-59.7 385.9,0 59.7,59.7 59.7,326.2 0,385.9 -59.7,59.7 -326.2,59.7 -385.9,0.1 -59.7,-59.6 -59.6,-326.3 0,-386" /></clipPath><radialGradient
       id="radialGradient160"
       spreadMethod="pad"
       gradientTransform="matrix(-188.29758,188.40413,130.38853,130.30864,255.92499,255.99377)"
       gradientUnits="userSpaceOnUse"
       r="1"
       cy="0"
       cx="0"
       fy="0"
       fx="0"><stop
         id="stop162"
         offset="0"
         style="stop-opacity:1;stop-color:#ffffff" /><stop
         id="stop164"
         offset="0.8587"
         style="stop-opacity:0.14129854;stop-color:#ffffff" /><stop
         id="stop166"
         offset="1"
         style="stop-opacity:0;stop-color:#ffffff" /></radialGradient><mask
       id="mask168"
       height="1"
       width="1"
       y="0"
       x="0"
       maskUnits="userSpaceOnUse"><g
         id="g170"><g
           id="g172"><g
             id="g174"><g
               id="g176"><path
                 id="path178"
                 style="fill:url(#radialGradient160);stroke:none"
                 d="m -32768,32767 65535,0 0,-65535 -65535,0 0,65535 z" /></g></g></g></g></mask><radialGradient
       id="radialGradient180"
       spreadMethod="pad"
       gradientTransform="matrix(-188.29758,188.40413,130.38853,130.30864,255.92499,255.99377)"
       gradientUnits="userSpaceOnUse"
       r="1"
       cy="0"
       cx="0"
       fy="0"
       fx="0"><stop
         id="stop182"
         offset="0"
         style="stop-opacity:1;stop-color:#010101" /><stop
         id="stop184"
         offset="0.8587"
         style="stop-opacity:1;stop-color:#010101" /><stop
         id="stop186"
         offset="1"
         style="stop-opacity:1;stop-color:#010101" /></radialGradient><linearGradient
       id="linearGradient218"
       spreadMethod="pad"
       gradientTransform="matrix(0,-460.05002,460.05002,0,255.99998,486.04379)"
       gradientUnits="userSpaceOnUse"
       y2="0"
       x2="1"
       y1="0"
       x1="0"><stop
         id="stop220"
         offset="0"
         style="stop-opacity:1;stop-color:#02003f" /><stop
         id="stop222"
         offset="1"
         style="stop-opacity:1;stop-color:#3f56ff" /></linearGradient><clipPath
       id="clipPath230"
       clipPathUnits="userSpaceOnUse"><path
         id="path232"
         d="M 0,512 512,512 512,0 0,0 0,512 Z" /></clipPath></defs><g
     transform="matrix(1.25,0,0,-1.25,0,640)"
     id="g10"><g
       id="g12"><g
         clip-path="url(#clipPath16)"
         id="g14"><g
           id="g20"><g
             id="g22" /><g
             id="g64"><g
               style="opacity:0.39999402"
               id="g66"
               clip-path="url(#clipPath24)"><g
                 id="g68"><g
                   id="g70"
                   clip-path="url(#clipPath28)"><g
                     id="g72"><g
                       id="g74" /><g
                       id="g76"
                       mask="url(#mask44)"><g
                         id="g78"><path
                           id="path80"
                           style="fill:url(#radialGradient56);stroke:none"
                           d="m 449,63.019 c -59.7,-59.7 -326.2,-59.7 -385.9,0 -59.7,59.7 -59.7,326.3 -0.1,386 59.6,59.7 326.3,59.6 386,0 59.7,-59.6 59.6,-326.3 0,-386" /></g></g></g></g></g></g></g></g><g
           id="g82"><g
             id="g84" /><g
             id="g126"><g
               style="opacity:0.39999402"
               id="g128"
               clip-path="url(#clipPath86)"><g
                 id="g130"><g
                   id="g132"
                   clip-path="url(#clipPath90)"><g
                     id="g134"><g
                       id="g136" /><g
                       id="g138"
                       mask="url(#mask106)"><g
                         id="g140"><path
                           id="path142"
                           style="fill:url(#radialGradient118);stroke:none"
                           d="m 449,63.019 c -59.7,-59.7 -326.2,-59.7 -385.9,0 -59.7,59.7 -59.7,326.3 -0.1,386 59.6,59.7 326.3,59.6 386,0 59.7,-59.6 59.6,-326.3 0,-386" /></g></g></g></g></g></g></g></g><g
           id="g144"><g
             id="g146" /><g
             id="g188"><g
               style="opacity:0.39999402"
               id="g190"
               clip-path="url(#clipPath148)"><g
                 id="g192"><g
                   id="g194"
                   clip-path="url(#clipPath152)"><g
                     id="g196"><g
                       id="g198" /><g
                       id="g200"
                       mask="url(#mask168)"><g
                         id="g202"><path
                           id="path204"
                           style="fill:url(#radialGradient180);stroke:none"
                           d="m 63,63.019 c 59.7,-59.7 326.2,-59.7 385.9,0 59.7,59.7 59.7,326.2 0,385.9 -59.7,59.7 -326.2,59.7 -385.9,0.1 -59.7,-59.6 -59.6,-326.3 0,-386" /></g></g></g></g></g></g></g></g></g></g><g
       id="g206"><g
         id="g208"><g
           id="g214"><g
             id="g216"><path
               id="path224"
               style="fill:url(#linearGradient218);stroke:none"
               d="M 78.7,433.318 C 8.4,363.019 8.4,149.018 78.7,78.719 l 0,0 c 70.3,-70.3 284.3,-70.3 354.6,0 l 0,0 c 70.3,70.299 70.3,284.3 0,354.599 l 0,0 c -35.15,35.15 -106.225,52.725 -177.3,52.725 l 0,0 c -71.075,0 -142.15,-17.575 -177.3,-52.725" /></g></g></g></g><g
       id="g226"><g
         clip-path="url(#clipPath230)"
         id="g228"><g
           transform="translate(400.3852,238.6735)"
           id="g234"><path
             id="path236"
             style="fill:#ffffff;fill-opacity:1;fill-rule:nonzero;stroke:none"
             d="m 0,0 0,34.652 -32.532,11.55 c -2.735,10.583 -6.955,20.568 -12.388,29.751 l 0.044,0.045 14.837,31.171 -24.503,24.503 -31.171,-14.836 -0.045,-0.045 c -9.186,5.435 -19.171,9.654 -29.751,12.388 l -11.551,32.533 -34.652,0 -11.55,-32.533 c -10.581,-2.734 -20.568,-6.953 -29.751,-12.389 l -0.045,0.047 -31.171,14.836 -24.503,-24.503 14.836,-31.171 0.047,-0.045 c -5.436,-9.185 -9.655,-19.171 -12.388,-29.751 l -32.533,-11.55 0,-34.652 32.533,-11.55 c 2.733,-10.581 6.954,-20.568 12.388,-29.751 l -0.047,-0.045 -14.836,-31.17 24.503,-24.504 31.171,14.837 0.045,0.045 c 9.185,-5.435 19.171,-9.653 29.751,-12.389 l 11.55,-32.533 34.652,0 11.551,32.533 c 10.581,2.735 20.567,6.955 29.751,12.389 l 0.045,-0.045 31.171,-14.837 24.503,24.504 -14.837,31.17 -0.044,0.045 c 5.434,9.185 9.652,19.17 12.388,29.751 L 0,0 Z" /></g><g
           transform="translate(239.9576,241.6791)"
           id="g238"><path
             id="path240"
             style="fill:#0365db;fill-opacity:1;fill-rule:nonzero;stroke:none"
             d="m 0,0 -17.62,0 c -4.784,0 -8.115,4.752 -6.484,9.249 l 8.792,24.241 c 2.197,6.056 10.761,6.062 12.965,0.008 L 6.481,9.257 C 8.119,4.759 4.788,0 0,0 m -0.814,64.761 c -1.021,2.67 -3.583,4.433 -6.442,4.433 l -3.167,0 c -2.86,0 -5.423,-1.765 -6.444,-4.437 l -36.641,-95.951 c -1.724,-4.516 1.61,-9.358 6.443,-9.358 l 0.059,0 c 2.909,0 5.506,1.825 6.49,4.563 l 7.045,19.592 c 0.985,2.737 3.581,4.563 6.49,4.563 l 36.304,0 c 2.897,0 5.486,-1.811 6.479,-4.533 l 7.17,-19.652 c 0.993,-2.722 3.581,-4.533 6.479,-4.533 4.835,0 8.17,4.845 6.442,9.361 L -0.814,64.761 Z" /></g><g
           transform="translate(306.0085,285.2586)"
           id="g242"><path
             id="path244"
             style="fill:#0365db;fill-opacity:1;fill-rule:nonzero;stroke:none"
             d="m 0,0 c 1.548,0 2.322,-0.794 2.322,-2.381 0,-1.707 -0.774,-2.56 -2.322,-2.56 -1.627,0 -2.44,0.853 -2.44,2.56 C -2.44,-0.794 -1.627,0 0,0 m -5.402,15.434 c 0.03,-0.011 0.059,-0.023 0.088,-0.036 l 1.437,-0.663 c 0.045,-0.021 0.089,-0.045 0.131,-0.071 l 0.889,-0.556 C -3.374,13.691 -3.779,13.384 -4.078,13.185 -4.79,12.588 -5.325,11.758 -5.682,10.693 -5.704,10.63 -5.722,10.565 -5.735,10.499 -5.84,9.991 -5.893,9.448 -5.893,8.87 l 0,-11.43 c 0,-1.627 0.526,-2.987 1.578,-4.078 1.051,-1.091 2.39,-1.636 4.017,-1.636 1.548,0 2.868,0.476 3.959,1.428 1.171,0.992 1.757,2.242 1.757,3.75 0,3.116 -0.983,5.04 -2.947,5.775 -1.032,0.396 -1.865,0.595 -2.5,0.595 -0.378,0 -0.685,-0.06 -0.923,-0.178 l 0,4.94 c 0,1.746 0.317,2.996 0.952,3.751 0.715,0.852 1.885,1.686 3.513,2.5 C 3.394,14.386 3.284,14.495 3.185,14.614 2.769,14.912 2.46,15.14 2.263,15.299 L 0.657,16.446 C 0.616,16.475 0.574,16.501 0.53,16.525 l -1.482,0.798 -0.014,0.007 c -0.825,0.429 -0.867,1.617 -0.051,2.064 0.467,0.256 0.945,0.478 1.434,0.667 1.587,0.635 3.155,0.952 4.703,0.952 1.805,0 3.452,-0.337 4.94,-1.011 1.746,-0.774 2.62,-2.481 2.62,-5.12 l 0,-34.595 c 0,-0.653 0.529,-1.182 1.182,-1.182 l 2.518,0 c 0.652,0 1.181,0.529 1.181,1.182 l 0,34.833 c 0,4.088 -1.547,6.766 -4.643,8.037 -2.461,1.031 -5.06,1.547 -7.798,1.547 -0.854,0 -1.697,-0.079 -2.53,-0.238 -2.481,-0.436 -4.951,-1.369 -7.412,-2.798 -1.041,-0.6 -2.129,-1.372 -3.265,-2.318 -0.269,-0.224 -0.425,-0.563 -0.425,-0.913 l 0,-1.829 c 0,-0.019 0.456,-0.198 1.369,-0.535 l 1.741,-0.639 z" /></g><g
           transform="translate(300.7142,227.8105)"
           id="g246"><path
             id="path248"
             style="fill:#0365db;fill-opacity:1;fill-rule:nonzero;stroke:none"
             d="m 0,0 c -0.074,-0.441 -0.498,-0.884 -0.936,-0.975 -2.434,-0.505 -3.651,0.237 -3.651,2.227 0,1.707 0.774,2.56 2.322,2.56 C -0.328,3.812 0.427,2.542 0,0 m 24.115,18.873 -2.519,0 c -0.652,0 -1.181,-0.529 -1.181,-1.182 l 0,-25.977 c 0,-1.308 -1.809,-1.647 -2.283,-0.429 L 13.071,4.296 C 12.679,5.302 11.253,5.299 10.866,4.29 L 5.913,-8.622 C 5.444,-9.846 3.628,-9.509 3.628,-8.199 l 0,9.631 c 0,1.349 -0.467,2.619 -1.399,3.809 -1.012,1.27 -2.411,1.905 -4.197,1.905 -1.349,0 -2.441,-0.317 -3.274,-0.952 -1.627,-1.231 -2.441,-2.64 -2.441,-4.227 0,-2.362 0.605,-4.048 1.816,-5.06 0.972,-0.814 2.163,-1.22 3.572,-1.22 0.456,0 0.784,0.049 0.982,0.148 l 0,-20.427 c 0,-0.652 0.529,-1.181 1.182,-1.181 l 3.291,0 c 0.495,0 0.938,0.309 1.109,0.774 l 7.344,19.982 c 0.034,0.091 0.056,0.187 0.066,0.284 l 0.16,1.521 0.216,-1.539 c 0.012,-0.087 0.034,-0.172 0.065,-0.254 l 7.568,-20.005 c 0.174,-0.459 0.614,-0.763 1.106,-0.763 l 3.321,0 c 0.652,0 1.181,0.529 1.181,1.181 l 0,42.283 c 0,0.653 -0.529,1.182 -1.181,1.182" /></g></g></g></g></svg>