<?xml version="1.0" encoding="UTF-8" standalone="no"?>
<svg
   xmlns:dc="http://purl.org/dc/elements/1.1/"
   xmlns:cc="http://creativecommons.org/ns#"
   xmlns:rdf="http://www.w3.org/1999/02/22-rdf-syntax-ns#"
   xmlns:svg="http://www.w3.org/2000/svg"
   xmlns="http://www.w3.org/2000/svg"
   viewBox="0 0 640 640"
   height="640"
   width="640"
   xml:space="preserve"
   version="1.1"
   id="svg2"><metadata
     id="metadata8"><rdf:RDF><cc:Work
         rdf:about=""><dc:format>image/svg+xml</dc:format><dc:type
           rdf:resource="http://purl.org/dc/dcmitype/StillImage" /></cc:Work></rdf:RDF></metadata><defs
     id="defs6"><clipPath
       id="clipPath16"
       clipPathUnits="userSpaceOnUse"><path
         id="path18"
         d="M 0,512 512,512 512,0 0,0 0,512 Z" /></clipPath><clipPath
       id="clipPath24"
       clipPathUnits="userSpaceOnUse"><path
         id="path26"
         d="m 18.325,493.744 475.4,0 0,-475.4877 -475.4,0 0,475.4877 z" /></clipPath><clipPath
       id="clipPath28"
       clipPathUnits="userSpaceOnUse"><path
         id="path30"
         d="M 448.99,63.029 C 389.293,3.332 122.807,3.332 63.11,63.029 3.413,122.726 3.413,389.312 63.01,449.009 c 59.597,59.696 326.283,59.596 385.98,0 59.697,-59.597 59.597,-326.283 0,-385.98" /></clipPath><radialGradient
       id="radialGradient36"
       spreadMethod="pad"
       gradientTransform="matrix(237.72188,0,0,237.72188,256.02499,256)"
       gradientUnits="userSpaceOnUse"
       r="1"
       cy="0"
       cx="0"
       fy="0"
       fx="0"><stop
         id="stop38"
         offset="0"
         style="stop-opacity:1;stop-color:#ffffff" /><stop
         id="stop40"
         offset="0.8587"
         style="stop-opacity:0.14129854;stop-color:#ffffff" /><stop
         id="stop42"
         offset="1"
         style="stop-opacity:0;stop-color:#ffffff" /></radialGradient><mask
       id="mask44"
       height="1"
       width="1"
       y="0"
       x="0"
       maskUnits="userSpaceOnUse"><g
         id="g46"><g
           id="g48"><g
             id="g50"><g
               id="g52"><path
                 id="path54"
                 style="fill:url(#radialGradient36);stroke:none"
                 d="m -32768,32767 65535,0 0,-65535 -65535,0 0,65535 z" /></g></g></g></g></mask><radialGradient
       id="radialGradient56"
       spreadMethod="pad"
       gradientTransform="matrix(237.72188,0,0,237.72188,256.02499,256)"
       gradientUnits="userSpaceOnUse"
       r="1"
       cy="0"
       cx="0"
       fy="0"
       fx="0"><stop
         id="stop58"
         offset="0"
         style="stop-opacity:1;stop-color:#010101" /><stop
         id="stop60"
         offset="0.8587"
         style="stop-opacity:1;stop-color:#010101" /><stop
         id="stop62"
         offset="1"
         style="stop-opacity:1;stop-color:#010101" /></radialGradient><clipPath
       id="clipPath86"
       clipPathUnits="userSpaceOnUse"><path
         id="path88"
         d="m 18.325,493.744 475.4,0 0,-475.4877 -475.4,0 0,475.4877 z" /></clipPath><clipPath
       id="clipPath90"
       clipPathUnits="userSpaceOnUse"><path
         id="path92"
         d="M 448.99,63.029 C 389.293,3.332 122.807,3.332 63.11,63.029 3.413,122.726 3.413,389.312 63.01,449.009 c 59.597,59.696 326.283,59.596 385.98,0 59.697,-59.597 59.597,-326.283 0,-385.98" /></clipPath><radialGradient
       id="radialGradient98"
       spreadMethod="pad"
       gradientTransform="matrix(188.25467,188.36119,-130.35883,130.27895,256.02499,256.04376)"
       gradientUnits="userSpaceOnUse"
       r="1"
       cy="0"
       cx="0"
       fy="0"
       fx="0"><stop
         id="stop100"
         offset="0"
         style="stop-opacity:1;stop-color:#ffffff" /><stop
         id="stop102"
         offset="0.8587"
         style="stop-opacity:0.14129854;stop-color:#ffffff" /><stop
         id="stop104"
         offset="1"
         style="stop-opacity:0;stop-color:#ffffff" /></radialGradient><mask
       id="mask106"
       height="1"
       width="1"
       y="0"
       x="0"
       maskUnits="userSpaceOnUse"><g
         id="g108"><g
           id="g110"><g
             id="g112"><g
               id="g114"><path
                 id="path116"
                 style="fill:url(#radialGradient98);stroke:none"
                 d="m -32768,32767 65535,0 0,-65535 -65535,0 0,65535 z" /></g></g></g></g></mask><radialGradient
       id="radialGradient118"
       spreadMethod="pad"
       gradientTransform="matrix(188.25467,188.36119,-130.35883,130.27895,256.02499,256.04376)"
       gradientUnits="userSpaceOnUse"
       r="1"
       cy="0"
       cx="0"
       fy="0"
       fx="0"><stop
         id="stop120"
         offset="0"
         style="stop-opacity:1;stop-color:#010101" /><stop
         id="stop122"
         offset="0.8587"
         style="stop-opacity:1;stop-color:#010101" /><stop
         id="stop124"
         offset="1"
         style="stop-opacity:1;stop-color:#010101" /></radialGradient><clipPath
       id="clipPath148"
       clipPathUnits="userSpaceOnUse"><path
         id="path150"
         d="m 18.275,493.694 475.387,0 0,-475.4377 -475.387,0 0,475.4377 z" /></clipPath><clipPath
       id="clipPath152"
       clipPathUnits="userSpaceOnUse"><path
         id="path154"
         d="m 63.01,63.029 c 59.697,-59.697 326.183,-59.697 385.88,0 59.697,59.697 59.697,326.183 0,385.88 -59.697,59.696 -326.183,59.696 -385.88,0.1 -59.697,-59.597 -59.597,-326.283 0,-385.98" /></clipPath><radialGradient
       id="radialGradient160"
       spreadMethod="pad"
       gradientTransform="matrix(-188.28767,188.39421,130.38168,130.30179,255.92499,255.99377)"
       gradientUnits="userSpaceOnUse"
       r="1"
       cy="0"
       cx="0"
       fy="0"
       fx="0"><stop
         id="stop162"
         offset="0"
         style="stop-opacity:1;stop-color:#ffffff" /><stop
         id="stop164"
         offset="0.8587"
         style="stop-opacity:0.14129854;stop-color:#ffffff" /><stop
         id="stop166"
         offset="1"
         style="stop-opacity:0;stop-color:#ffffff" /></radialGradient><mask
       id="mask168"
       height="1"
       width="1"
       y="0"
       x="0"
       maskUnits="userSpaceOnUse"><g
         id="g170"><g
           id="g172"><g
             id="g174"><g
               id="g176"><path
                 id="path178"
                 style="fill:url(#radialGradient160);stroke:none"
                 d="m -32768,32767 65535,0 0,-65535 -65535,0 0,65535 z" /></g></g></g></g></mask><radialGradient
       id="radialGradient180"
       spreadMethod="pad"
       gradientTransform="matrix(-188.28767,188.39421,130.38168,130.30179,255.92499,255.99377)"
       gradientUnits="userSpaceOnUse"
       r="1"
       cy="0"
       cx="0"
       fy="0"
       fx="0"><stop
         id="stop182"
         offset="0"
         style="stop-opacity:1;stop-color:#010101" /><stop
         id="stop184"
         offset="0.8587"
         style="stop-opacity:1;stop-color:#010101" /><stop
         id="stop186"
         offset="1"
         style="stop-opacity:1;stop-color:#010101" /></radialGradient></defs><g
     transform="matrix(1.25,0,0,-1.25,0,640)"
     id="g10"><g
       id="g12"><g
         clip-path="url(#clipPath16)"
         id="g14"><g
           id="g20"><g
             id="g22" /><g
             id="g64"><g
               style="opacity:0.39999402"
               id="g66"
               clip-path="url(#clipPath24)"><g
                 id="g68"><g
                   id="g70"
                   clip-path="url(#clipPath28)"><g
                     id="g72"><g
                       id="g74" /><g
                       id="g76"
                       mask="url(#mask44)"><g
                         id="g78"><path
                           id="path80"
                           style="fill:url(#radialGradient56);stroke:none"
                           d="M 448.99,63.029 C 389.293,3.332 122.807,3.332 63.11,63.029 3.413,122.726 3.413,389.312 63.01,449.009 c 59.597,59.696 326.283,59.596 385.98,0 59.697,-59.597 59.597,-326.283 0,-385.98" /></g></g></g></g></g></g></g></g><g
           id="g82"><g
             id="g84" /><g
             id="g126"><g
               style="opacity:0.39999402"
               id="g128"
               clip-path="url(#clipPath86)"><g
                 id="g130"><g
                   id="g132"
                   clip-path="url(#clipPath90)"><g
                     id="g134"><g
                       id="g136" /><g
                       id="g138"
                       mask="url(#mask106)"><g
                         id="g140"><path
                           id="path142"
                           style="fill:url(#radialGradient118);stroke:none"
                           d="M 448.99,63.029 C 389.293,3.332 122.807,3.332 63.11,63.029 3.413,122.726 3.413,389.312 63.01,449.009 c 59.597,59.696 326.283,59.596 385.98,0 59.697,-59.597 59.597,-326.283 0,-385.98" /></g></g></g></g></g></g></g></g><g
           id="g144"><g
             id="g146" /><g
             id="g188"><g
               style="opacity:0.39999402"
               id="g190"
               clip-path="url(#clipPath148)"><g
                 id="g192"><g
                   id="g194"
                   clip-path="url(#clipPath152)"><g
                     id="g196"><g
                       id="g198" /><g
                       id="g200"
                       mask="url(#mask168)"><g
                         id="g202"><path
                           id="path204"
                           style="fill:url(#radialGradient180);stroke:none"
                           d="m 63.01,63.029 c 59.697,-59.697 326.183,-59.697 385.88,0 59.697,59.697 59.697,326.183 0,385.88 -59.697,59.696 -326.183,59.696 -385.88,0.1 -59.697,-59.597 -59.597,-326.283 0,-385.98" /></g></g></g></g></g></g></g></g><g
           transform="translate(433.2788,78.721)"
           id="g206"><path
             id="path208"
             style="fill:#d5deef;fill-opacity:1;fill-rule:nonzero;stroke:none"
             d="m 0,0 c -70.294,-70.294 -284.264,-70.294 -354.558,0 -70.294,70.294 -70.294,284.264 0,354.558 70.294,70.294 284.264,70.294 354.558,0 C 70.294,284.264 70.295,70.294 0,0" /></g><g
           transform="translate(256,318.5115)"
           id="g210"><path
             id="path212"
             style="fill:#798cbc;fill-opacity:1;fill-rule:nonzero;stroke:none"
             d="m 0,0 c 66.322,0 120.087,-27.987 120.087,-62.511 0,-34.524 -53.765,-62.511 -120.087,-62.511 -66.322,0 -120.087,27.987 -120.087,62.511 C -120.087,-27.987 -66.322,0 0,0" /></g><g
           transform="translate(256,316.0125)"
           id="g214"><path
             id="path216"
             style="fill:#798cbc;fill-opacity:1;fill-rule:nonzero;stroke:none"
             d="m 0,0 c -64.838,0 -117.587,-26.921 -117.587,-60.011 0,-33.091 52.75,-60.012 117.587,-60.012 64.837,0 117.588,26.92 117.588,60.011 C 117.588,-26.922 64.838,0 0,0 m 0,-125.024 c -32.471,0 -63.038,6.603 -86.069,18.592 -23.549,12.259 -36.519,28.744 -36.519,46.42 0,17.676 12.969,34.161 36.519,46.419 C -63.038,-1.604 -32.471,4.999 0,4.999 c 32.471,0 63.037,-6.603 86.069,-18.592 23.549,-12.258 36.519,-28.744 36.519,-46.419 0,-17.675 -12.97,-34.161 -36.519,-46.42 C 63.038,-118.421 32.471,-125.024 0,-125.024" /></g><g
           transform="translate(306.515,250.7965)"
           id="g218"><path
             id="path220"
             style="fill:#ffffff;fill-opacity:1;fill-rule:nonzero;stroke:none"
             d="m 0,0 -8.963,0 3.735,22.408 9.71,0 c 5.229,0 8.963,-2.241 8.963,-6.723 C 12.698,2.988 6.723,0.747 0,0 m 10.457,33.613 -27.636,0 -11.95,-60.5 14.192,0 2.988,15.685 13.444,0 c 12.698,-0.747 26.889,9.71 26.889,27.636 -0.001,10.455 -5.976,16.431 -17.927,17.179" /></g><g
           transform="translate(230.329,239.5935)"
           id="g222"><path
             id="path224"
             style="fill:#ffffff;fill-opacity:1;fill-rule:nonzero;stroke:none"
             d="m 0,0 11.95,60.5 14.192,0 -2.988,-15.685 13.444,0 C 48.548,44.068 53.03,38.092 51.536,30.623 L 46.307,0 31.369,0 36.598,27.636 c 0.747,3.735 0.747,5.975 -4.481,5.975 l -11.204,0 L 14.19,0 0,0 Z" /></g><g
           transform="translate(206.428,250.7965)"
           id="g226"><path
             id="path228"
             style="fill:#ffffff;fill-opacity:1;fill-rule:nonzero;stroke:none"
             d="m 0,0 -8.963,0 3.735,22.408 9.71,0 c 5.229,0 8.963,-2.241 8.963,-6.723 C 12.698,2.988 6.723,0.747 0,0 m 10.457,33.613 -27.636,0 -11.95,-60.5 14.192,0 2.988,15.685 13.444,0 c 12.698,-0.747 26.889,9.71 26.889,27.636 0,10.455 -5.977,16.431 -17.927,17.179" /></g><g
           transform="translate(198.537,251.7055)"
           id="g230"><path
             id="path232"
             style="fill:#798cbc;fill-opacity:1;fill-rule:nonzero;stroke:none"
             d="m 0,0 7.84,0 c 5.976,0.669 11.857,2.388 12.589,14.83 -0.002,5.194 -5.635,5.761 -8.057,5.761 l -8.941,0 L 0,0 Z m 7.941,-1.816 -10.085,0 4.037,24.223 10.479,0 c 6.089,0 9.871,-2.924 9.871,-7.631 C 21.464,1.496 14.933,-1.04 7.991,-1.812 l -0.05,-0.004 z m -28.074,-25.074 12.335,0 2.988,15.685 14.196,0 c 0.461,-0.025 0.871,-0.037 1.281,-0.037 6.078,0 12.202,2.581 16.801,7.08 3.603,3.525 7.899,9.802 7.899,19.685 0,10.09 -5.745,15.565 -17.075,16.272 L -8.541,31.793 -20.133,-26.89 Z m 13.837,-1.816 -16.048,0 12.309,62.317 28.382,0 c 12.341,-0.769 18.835,-7.023 18.835,-18.086 0,-8.204 -2.999,-15.655 -8.445,-20.983 -4.936,-4.828 -11.523,-7.598 -18.071,-7.598 -0.446,0 -0.891,0.013 -1.334,0.039 l -12.64,-0.002 -2.988,-15.687 z" /></g><g
           transform="translate(262.796,240.5015)"
           id="g234"><path
             id="path236"
             style="fill:#798cbc;fill-opacity:1;fill-rule:nonzero;stroke:none"
             d="m 0,0 13.076,0 5.1,29.869 c 0.633,3.167 0.101,5.951 -1.534,8.077 -2.256,2.934 -6.602,4.683 -12.566,5.055 l -14.486,-0.002 2.988,15.684 -12.347,0 -11.594,-58.684 12.342,0 6.723,33.611 11.948,0 c 2.498,0 4.07,-0.499 4.947,-1.568 1.131,-1.379 0.846,-3.385 0.425,-5.493 L 0,0 Z m 14.609,-1.816 -16.801,0 5.432,28.713 c 0.391,1.958 0.519,3.305 -0.047,3.995 -0.491,0.599 -1.684,0.904 -3.542,0.904 l -10.459,0 -6.723,-33.611 -16.041,0 12.31,62.317 16.034,0 -2.988,-15.684 12.347,0 c 6.561,-0.409 11.365,-2.401 13.949,-5.763 1.963,-2.554 2.613,-5.844 1.879,-9.515 l -5.35,-31.356 z" /></g><g
           transform="translate(298.624,251.7055)"
           id="g238"><path
             id="path240"
             style="fill:#798cbc;fill-opacity:1;fill-rule:nonzero;stroke:none"
             d="m 0,0 7.841,0 c 5.975,0.669 11.857,2.388 12.588,14.83 -0.002,5.194 -5.635,5.761 -8.057,5.761 l -8.941,0 L 0,0 Z m 7.942,-1.816 -10.086,0 4.038,24.223 10.478,0 c 6.089,0 9.871,-2.924 9.871,-7.631 C 21.464,1.496 14.933,-1.04 7.992,-1.812 l -0.05,-0.004 z m -28.076,-25.074 12.335,0 2.988,15.685 14.196,0 c 0.461,-0.025 0.871,-0.037 1.281,-0.037 6.077,0 12.201,2.581 16.801,7.08 3.603,3.525 7.899,9.802 7.899,19.685 0,10.09 -5.745,15.565 -17.075,16.272 L -8.541,31.793 -20.134,-26.89 Z m 13.838,-1.816 -16.048,0 12.31,62.317 28.382,0 c 12.341,-0.769 18.834,-7.023 18.834,-18.086 0,-8.204 -2.999,-15.655 -8.445,-20.983 -4.936,-4.828 -11.523,-7.598 -18.07,-7.598 -10e-4,0 0,0 0,0 -0.446,0 -0.891,0.013 -1.335,0.039 l -12.641,-0.002 -2.987,-15.687 z" /></g></g></g></g></svg>