<?xml version="1.0" encoding="utf-8"?>
<!-- Generator: Adobe Illustrator 18.0.0, SVG Export Plug-In . SVG Version: 6.00 Build 0)  -->
<!DOCTYPE svg PUBLIC "-//W3C//DTD SVG 1.1//EN" "http://www.w3.org/Graphics/SVG/1.1/DTD/svg11.dtd">
<svg version="1.1" id="Layer_2" xmlns="http://www.w3.org/2000/svg" xmlns:xlink="http://www.w3.org/1999/xlink" x="0px" y="0px"
	 viewBox="0 0 512 512" style="enable-background:new 0 0 512 512;" xml:space="preserve">
<g>
	<g>
		<g style="opacity:0.4;enable-background:new    ;">
			
				<radialGradient id="SVGID_1_" cx="256.525" cy="259.5" r="237.7344" gradientTransform="matrix(1 0 0 -1 -0.5 515.5)" gradientUnits="userSpaceOnUse">
				<stop  offset="0" style="stop-color:#010101"/>
				<stop  offset="0.8587" style="stop-color:#010101;stop-opacity:0.1413"/>
				<stop  offset="1" style="stop-color:#010101;stop-opacity:0"/>
			</radialGradient>
			<path style="fill:url(#SVGID_1_);" d="M449,449c-59.7,59.7-326.2,59.7-385.9,0S3.4,122.7,63,63s326.3-59.6,386,0
				S508.6,389.3,449,449z"/>
		</g>
		<g style="opacity:0.4;enable-background:new    ;">
			
				<radialGradient id="SVGID_2_" cx="258.0531" cy="261.0998" r="266.3242" gradientTransform="matrix(0.7069 -0.7073 -0.4895 -0.4892 201.4156 566.2072)" gradientUnits="userSpaceOnUse">
				<stop  offset="0" style="stop-color:#010101"/>
				<stop  offset="0.8587" style="stop-color:#010101;stop-opacity:0.1413"/>
				<stop  offset="1" style="stop-color:#010101;stop-opacity:0"/>
			</radialGradient>
			<path style="fill:url(#SVGID_2_);" d="M449,449c-59.7,59.7-326.2,59.7-385.9,0S3.4,122.7,63,63s326.3-59.6,386,0
				S508.6,389.3,449,449z"/>
		</g>
		<g style="opacity:0.4;enable-background:new    ;">
			
				<radialGradient id="SVGID_3_" cx="260.1738" cy="257.9314" r="266.3709" gradientTransform="matrix(-0.7069 -0.7073 0.4895 -0.4892 313.5844 566.2072)" gradientUnits="userSpaceOnUse">
				<stop  offset="0" style="stop-color:#010101"/>
				<stop  offset="0.8587" style="stop-color:#010101;stop-opacity:0.1413"/>
				<stop  offset="1" style="stop-color:#010101;stop-opacity:0"/>
			</radialGradient>
			<path style="fill:url(#SVGID_3_);" d="M63,449c59.7,59.7,326.2,59.7,385.9,0s59.7-326.2,0-385.9S122.7,3.4,63,63
				S3.4,389.3,63,449z"/>
		</g>
	</g>
	<path style="fill:#FFFFFF;" d="M433.3,433.3c-70.3,70.3-284.3,70.3-354.6,0S8.4,149,78.7,78.7s284.3-70.3,354.6,0
		S503.6,363,433.3,433.3z"/>
	<g>
		<radialGradient id="SVGID_4_" cx="252" cy="30.254" r="407.0785" gradientUnits="userSpaceOnUse">
			<stop  offset="1.933882e-02" style="stop-color:#F9AC1B"/>
			<stop  offset="0.3892" style="stop-color:#F16630"/>
			<stop  offset="0.7239" style="stop-color:#E6136F"/>
			<stop  offset="1" style="stop-color:#642F8B"/>
		</radialGradient>
		<path style="fill:url(#SVGID_4_);" d="M78.7,433.3c70.3,70.3,284.3,70.3,354.6,0s70.3-284.3,0-354.6S149,8.4,78.7,78.7
			S8.4,363,78.7,433.3z"/>
		<path style="opacity:0.2;fill:#FFFFFF;" d="M404.7,424.3c0,0-67.8,15.9-145.9,15.9c-82.4,0-149.4-15.9-149.4-15.9
			c-10.4,0-19,8.1-19.9,18.3c75.9,58.3,260.8,57.8,335-1.4C422.9,431.7,414.6,424.3,404.7,424.3z"/>
	</g>
</g>
<g style="opacity:0.5;">
	<circle cx="256" cy="277.7" r="41.3"/>
	<path d="M355.3,206.6h-44.5c-3.9,0-7.1-3.2-7.1-7.1v-4.6c0-9.8-7.9-17.7-17.7-17.7h-60.1c-9.8,0-17.7,7.9-17.7,17.7v4.6
		c0,3.9-3.2,7.1-7.1,7.1h-44.5c-9.8,0-17.7,7.9-17.7,17.7v106.8c0,9.8,7.9,17.7,17.7,17.7h198.7c9.8,0,17.7-7.9,17.7-17.7V224.3
		C373,214.5,365.1,206.6,355.3,206.6z M256,329.6c-28.6,0-51.9-23.3-51.9-51.9c0-28.6,23.3-51.9,51.9-51.9
		c28.6,0,51.9,23.3,51.9,51.9C307.9,306.3,284.6,329.6,256,329.6z"/>
</g>
<g style="opacity:0.95;">
	<circle style="fill:#FFFFFF;" cx="256" cy="270.7" r="41.3"/>
	<path style="fill:#FFFFFF;" d="M355.3,199.6h-44.5c-3.9,0-7.1-3.2-7.1-7.1v-4.6c0-9.8-7.9-17.7-17.7-17.7h-60.1
		c-9.8,0-17.7,7.9-17.7,17.7v4.6c0,3.9-3.2,7.1-7.1,7.1h-44.5c-9.8,0-17.7,7.9-17.7,17.7v106.8c0,9.8,7.9,17.7,17.7,17.7h198.7
		c9.8,0,17.7-7.9,17.7-17.7V217.3C373,207.5,365.1,199.6,355.3,199.6z M256,322.6c-28.6,0-51.9-23.3-51.9-51.9
		c0-28.6,23.3-51.9,51.9-51.9c28.6,0,51.9,23.3,51.9,51.9C307.9,299.3,284.6,322.6,256,322.6z"/>
</g>
<g id="_x3C_Group_x3E_">
	<path style="opacity:0.4;" d="M78.7,433.3c70.3,70.3,284.3,70.3,354.6,0c34.1-34.1,51.6-101.9,52.7-170.8
		c-1-68.9-18.6-136.7-52.7-170.8C398.1,56.5,327.1,39,256,39S113.8,56.5,78.7,91.7C44.6,125.8,27.1,193.6,26,262.5
		C27.1,331.4,44.6,399.2,78.7,433.3z M92.8,105.8c14.3-14.3,37.2-26.2,66.5-34.4C188,63.3,221.5,59,256,59c34.5,0,68,4.3,96.7,12.4
		c29.2,8.3,52.2,20.2,66.5,34.4c14.3,14.3,26.2,37.2,34.4,66.5C461.7,201,466,234.5,466,269c0,34.5-4.3,68-12.4,96.7
		c-8.3,29.2-20.2,52.2-34.4,66.5c-14.3,14.3-37.2,26.2-66.5,34.4C324,474.7,290.5,479,256,479c-34.5,0-68-4.3-96.7-12.4
		c-29.2-8.3-52.2-20.2-66.5-34.4c-14.3-14.3-26.2-37.2-34.4-66.5C50.3,336.9,46,303.5,46,269c0-34.5,4.3-68,12.4-96.7
		C66.7,143.1,78.6,120.1,92.8,105.8z"/>
	<path style="fill:#FFFFFF;" d="M256,46c34.5,0,68,4.3,96.7,12.4c29.2,8.3,52.2,20.2,66.5,34.4c14.3,14.3,26.2,37.2,34.4,66.5
		C461.7,188,466,221.5,466,256c0,34.5-4.3,68-12.4,96.7c-8.3,29.2-20.2,52.2-34.4,66.5c-14.3,14.3-37.2,26.2-66.5,34.4
		C324,461.7,290.5,466,256,466s-68-4.3-96.7-12.4c-29.2-8.3-52.2-20.2-66.5-34.4c-14.3-14.3-26.2-37.2-34.4-66.5
		C50.3,323.9,46,290.5,46,256c0-34.5,4.3-68,12.4-96.7c8.3-29.2,20.2-52.2,34.4-66.5c14.3-14.3,37.2-26.2,66.5-34.4
		C188,50.3,221.5,46,256,46 M256,26c-71.1,0-142.1,17.6-177.3,52.7C8.4,149,8.4,363,78.7,433.3C113.8,468.4,184.9,486,256,486
		s142.1-17.6,177.3-52.7c70.3-70.3,70.3-284.3,0-354.6C398.1,43.5,327.1,26,256,26L256,26z"/>
</g>
</svg>
