<?xml version="1.0" encoding="UTF-8" standalone="no"?>
<svg
   xmlns:dc="http://purl.org/dc/elements/1.1/"
   xmlns:cc="http://creativecommons.org/ns#"
   xmlns:rdf="http://www.w3.org/1999/02/22-rdf-syntax-ns#"
   xmlns:svg="http://www.w3.org/2000/svg"
   xmlns="http://www.w3.org/2000/svg"
   viewBox="0 0 640 640"
   height="640"
   width="640"
   xml:space="preserve"
   version="1.1"
   id="svg2"><metadata
     id="metadata8"><rdf:RDF><cc:Work
         rdf:about=""><dc:format>image/svg+xml</dc:format><dc:type
           rdf:resource="http://purl.org/dc/dcmitype/StillImage" /></cc:Work></rdf:RDF></metadata><defs
     id="defs6"><clipPath
       id="clipPath16"
       clipPathUnits="userSpaceOnUse"><path
         id="path18"
         d="M 0,512 512,512 512,0 0,0 0,512 Z" /></clipPath><clipPath
       id="clipPath24"
       clipPathUnits="userSpaceOnUse"><path
         id="path26"
         d="m 18.2752,493.725 475.4498,0 0,-475.4497 -475.4498,0 0,475.4497 z" /></clipPath></defs><g
     transform="matrix(1.25,0,0,-1.25,0,640)"
     id="g10"><g
       id="g12"><g
         clip-path="url(#clipPath16)"
         id="g14"><g
           id="g20"><g
             id="g22" /><g
             id="g28"><g
               style="opacity:0.39999402"
               id="g30"
               clip-path="url(#clipPath24)"><g
                 id="g32"
                 transform="translate(448.964,63.036)"><path
                   id="path34"
                   style="fill:#ffffff;fill-opacity:1;fill-rule:nonzero;stroke:none"
                   d="m 0,0 c -59.681,-59.681 -326.247,-59.681 -385.928,0 -59.681,59.681 -59.681,326.247 0,385.928 59.681,59.681 326.247,59.681 385.928,0 C 59.681,326.247 59.681,59.681 0,0" /></g></g></g></g><g
           transform="translate(433.279,78.721)"
           id="g36"><path
             id="path38"
             style="fill:#4d4d4d;fill-opacity:1;fill-rule:nonzero;stroke:none"
             d="m 0,0 c -70.294,-70.294 -284.264,-70.294 -354.558,0 -70.294,70.294 -70.294,284.264 0,354.558 70.294,70.294 284.264,70.294 354.558,0 C 70.294,284.264 70.295,70.294 0,0" /></g><g
           transform="translate(255.9782,372.0311)"
           id="g40"><path
             id="path42"
             style="fill:#1793d1;fill-opacity:1;fill-rule:nonzero;stroke:none"
             d="m 0,0 c -10.329,-25.324 -16.559,-41.888 -28.059,-66.459 7.051,-7.474 15.706,-16.178 29.761,-26.008 -15.111,6.218 -25.418,12.46 -33.121,18.938 -14.717,-30.71 -37.776,-74.456 -84.568,-158.533 36.777,21.232 65.286,34.322 91.856,39.317 -1.141,4.907 -1.79,10.215 -1.746,15.753 l 0.044,1.178 c 0.583,23.562 12.841,41.682 27.36,40.452 14.52,-1.231 25.806,-21.341 25.223,-44.903 -0.11,-4.434 -0.61,-8.699 -1.484,-12.655 26.281,-5.141 54.485,-18.197 90.765,-39.142 -7.154,13.17 -13.539,25.042 -19.637,36.349 -9.604,7.445 -19.623,17.134 -40.058,27.623 14.046,-3.65 24.103,-7.861 31.942,-12.568 C 26.281,-65.23 21.26,-49.892 0,0" /></g></g></g></g></svg>