<?xml version="1.0" encoding="utf-8"?>
<!-- Generator: Adobe Illustrator 18.0.0, SVG Export Plug-In . SVG Version: 6.00 Build 0)  -->
<!DOCTYPE svg PUBLIC "-//W3C//DTD SVG 1.1//EN" "http://www.w3.org/Graphics/SVG/1.1/DTD/svg11.dtd">
<svg version="1.1" id="Layer_3" xmlns="http://www.w3.org/2000/svg" xmlns:xlink="http://www.w3.org/1999/xlink" x="0px" y="0px"
	 viewBox="0 0 512 512" enable-background="new 0 0 512 512" xml:space="preserve">
<g>
	<g opacity="0.4" enable-background="new    ">
		
			<radialGradient id="SVGID_1_" cx="1.0125" cy="515" r="118.8609" gradientTransform="matrix(2 0 0 -2 254 1286)" gradientUnits="userSpaceOnUse">
			<stop  offset="0" style="stop-color:#020202"/>
			<stop  offset="0.8587" style="stop-color:#020202;stop-opacity:0.1413"/>
			<stop  offset="1" style="stop-color:#020202;stop-opacity:0"/>
		</radialGradient>
		<path fill="url(#SVGID_1_)" d="M449,449c-59.7,59.7-326.2,59.7-385.9,0S3.4,122.7,63,63s326.3-59.6,386,0S508.6,389.3,449,449z"/>
	</g>
	<g opacity="0.4" enable-background="new    ">
		
			<radialGradient id="SVGID_2_" cx="2.0286" cy="516.0684" r="133.1551" gradientTransform="matrix(1.4138 -1.4146 -0.979 -0.9784 758.388 763.7472)" gradientUnits="userSpaceOnUse">
			<stop  offset="0" style="stop-color:#020202"/>
			<stop  offset="0.8587" style="stop-color:#020202;stop-opacity:0.1413"/>
			<stop  offset="1" style="stop-color:#020202;stop-opacity:0"/>
		</radialGradient>
		<path fill="url(#SVGID_2_)" d="M449,449c-59.7,59.7-326.2,59.7-385.9,0S3.4,122.7,63,63s326.3-59.6,386,0S508.6,389.3,449,449z"/>
	</g>
	<g opacity="0.4" enable-background="new    ">
		
			<radialGradient id="SVGID_3_" cx="3.4424" cy="513.9732" r="133.1784" gradientTransform="matrix(-1.4138 -1.4146 0.979 -0.9784 -242.3879 763.7472)" gradientUnits="userSpaceOnUse">
			<stop  offset="0" style="stop-color:#020202"/>
			<stop  offset="0.8587" style="stop-color:#020202;stop-opacity:0.1413"/>
			<stop  offset="1" style="stop-color:#020202;stop-opacity:0"/>
		</radialGradient>
		<path fill="url(#SVGID_3_)" d="M63,449c59.7,59.7,326.2,59.7,385.9,0s59.7-326.2,0-385.9S122.7,3.4,63,63S3.4,389.3,63,449z"/>
	</g>
</g>
<path fill="#D6D6D6" d="M433.3,433.3c-70.3,70.3-284.3,70.3-354.6,0S8.4,149,78.7,78.7s284.3-70.3,354.6,0S503.6,363,433.3,433.3z"
	/>
<g>
	<path display="none" fill="#FFFFFF" stroke="#FFFFFF" d="M120,86.6C15.4,86.6-69.4,171.4-69.4,276S15.4,465.5,120,465.5
		S309.5,380.6,309.5,276S224.6,86.6,120,86.6z M120,449.6c-95.6,0-173.2-77.5-173.2-173.2S24.4,103.3,120,103.3
		c95.6,0,173.2,77.5,173.2,173.2S215.6,449.6,120,449.6z"/>
</g>
<g>
	<g opacity="0">
		<g>
			<polygon fill="#4374B9" points="263.7,236 248.3,236 225.8,213.5 219.9,219.3 255.8,255.2 256.2,255.2 292.1,219.3 286.2,213.5 
							"/>
			<polygon fill="#4374B9" points="263.7,276 248.3,276 225.8,298.5 219.9,292.7 255.8,256.8 256.2,256.8 292.1,292.7 286.2,298.5 
							"/>
		</g>
		<g>
			<polygon fill="#F7901E" points="202.7,264.1 202.7,248.7 225.3,226.1 219.4,220.3 183.6,256.1 183.6,256.6 219.4,292.4 
				225.3,286.6 			"/>
			<polygon fill="#3D6CB4" points="309.3,248.7 309.3,264.1 286.7,286.6 292.6,292.4 328.4,256.6 328.4,256.1 292.6,220.3 
				286.7,226.1 			"/>
		</g>
	</g>
	<g opacity="1.250000e-02">
		<g>
			<polygon fill="#4374B9" points="263.8,235.8 248.2,235.8 225.4,213 219.5,218.9 255.8,255.1 256.2,255.1 292.5,218.9 286.6,213 
							"/>
			<polygon fill="#4374B9" points="263.8,276.2 248.2,276.2 225.4,299 219.5,293.1 255.8,256.9 256.2,256.9 292.5,293.1 286.6,299 
							"/>
		</g>
		<g>
			<polygon fill="#F7901E" points="202.1,264.2 202.1,248.6 224.9,225.8 219,219.9 182.7,256.1 182.7,256.6 219,292.9 224.9,287 			
				"/>
			<polygon fill="#3D6CB4" points="309.9,248.6 309.9,264.2 287.1,287 293,292.9 329.3,256.6 329.3,256.1 293,219.9 287.1,225.8 			
				"/>
		</g>
	</g>
	<g opacity="2.500000e-02">
		<g>
			<polygon fill="#4374B9" points="263.9,235.6 248.1,235.6 225,212.5 219.1,218.4 255.8,255.1 256.2,255.1 292.9,218.4 287,212.5 
							"/>
			<polygon fill="#4374B9" points="263.9,276.4 248.1,276.4 225,299.5 219.1,293.6 255.8,256.9 256.2,256.9 292.9,293.6 287,299.5 
							"/>
		</g>
		<g>
			<polygon fill="#F7901E" points="201.4,264.3 201.4,248.5 224.5,225.4 218.6,219.4 181.8,256.2 181.8,256.6 218.5,293.3 
				224.5,287.4 			"/>
			<polygon fill="#3D6CB4" points="310.6,248.5 310.6,264.3 287.5,287.4 293.4,293.3 330.2,256.6 330.2,256.1 293.5,219.4 
				287.5,225.4 			"/>
		</g>
	</g>
	<g opacity="3.750000e-02">
		<g>
			<polygon fill="#4374B9" points="264,235.3 248,235.3 224.7,212 218.6,218 255.8,255.1 256.2,255.1 293.4,218 287.3,212 			"/>
			<polygon fill="#4374B9" points="264,276.7 248,276.7 224.7,300 218.6,294 255.8,256.9 256.2,256.9 293.4,294 287.3,300 			"/>
		</g>
		<g>
			<polygon fill="#F7901E" points="200.8,264.4 200.8,248.4 224.2,225.1 218.1,219 181,256.2 181,256.6 218.1,293.8 224.1,287.7 			
				"/>
			<polygon fill="#3D6CB4" points="311.2,248.4 311.2,264.3 287.8,287.7 293.9,293.8 331,256.6 331,256.1 293.9,219 287.9,225.1 			
				"/>
		</g>
	</g>
	<g opacity="5.000000e-02">
		<g>
			<polygon fill="#4374B9" points="264.1,235.1 247.9,235.1 224.3,211.4 218.2,217.5 255.8,255.1 256.2,255.1 293.8,217.6 
				287.7,211.4 			"/>
			<polygon fill="#4374B9" points="264.1,276.9 247.9,276.9 224.3,300.6 218.2,294.5 255.8,256.9 256.2,256.9 293.8,294.4 
				287.7,300.6 			"/>
		</g>
		<g>
			<polygon fill="#F7901E" points="200.1,264.5 200.1,248.3 223.8,224.7 217.7,218.6 180.1,256.2 180.1,256.6 217.7,294.2 
				223.8,288.1 			"/>
			<polygon fill="#3D6CB4" points="311.9,248.3 311.9,264.4 288.2,288.1 294.3,294.2 331.9,256.6 331.9,256.1 294.3,218.6 
				288.2,224.7 			"/>
		</g>
	</g>
	<g opacity="6.250000e-02">
		<g>
			<polygon fill="#4374B9" points="264.2,234.8 247.9,234.8 223.9,210.9 217.8,217.1 255.8,255.1 256.2,255.1 294.2,217.1 
				288.1,210.9 			"/>
			<polygon fill="#4374B9" points="264.2,277.2 247.9,277.2 223.9,301.1 217.8,294.9 255.8,256.9 256.2,256.9 294.2,294.9 
				288.1,301.1 			"/>
		</g>
		<g>
			<polygon fill="#F7901E" points="199.5,264.5 199.5,248.2 223.4,224.3 217.2,218.2 179.2,256.2 179.2,256.6 217.2,294.6 
				223.4,288.5 			"/>
			<polygon fill="#3D6CB4" points="312.5,248.2 312.5,264.5 288.6,288.5 294.8,294.6 332.8,256.6 332.8,256.2 294.8,218.2 
				288.6,224.3 			"/>
		</g>
	</g>
	<g opacity="7.500000e-02">
		<g>
			<polygon fill="#4374B9" points="264.2,234.6 247.8,234.6 223.6,210.4 217.3,216.7 255.8,255.1 256.2,255.1 294.7,216.7 
				288.4,210.4 			"/>
			<polygon fill="#4374B9" points="264.2,277.4 247.8,277.4 223.6,301.6 217.3,295.3 255.8,256.9 256.2,256.9 294.7,295.3 
				288.4,301.6 			"/>
		</g>
		<g>
			<polygon fill="#F7901E" points="198.9,264.6 198.9,248.2 223,224 216.8,217.7 178.4,256.2 178.4,256.6 216.8,295.1 223,288.8 			
				"/>
			<polygon fill="#3D6CB4" points="313.1,248.2 313.1,264.6 289,288.8 295.2,295.1 333.6,256.6 333.6,256.2 295.2,217.7 289,224 			
				"/>
		</g>
	</g>
	<g opacity="8.750000e-02">
		<g>
			<polygon fill="#4374B9" points="264.3,234.4 247.7,234.4 223.2,209.9 216.9,216.2 255.8,255.1 256.2,255.1 295.1,216.2 
				288.8,209.9 			"/>
			<polygon fill="#4374B9" points="264.3,277.6 247.7,277.6 223.2,302.1 216.9,295.8 255.8,256.9 256.2,256.9 295.1,295.8 
				288.8,302.1 			"/>
		</g>
		<g>
			<polygon fill="#F7901E" points="198.2,264.7 198.2,248.1 222.7,223.6 216.4,217.3 177.5,256.2 177.5,256.7 216.4,295.5 
				222.7,289.2 			"/>
			<polygon fill="#3D6CB4" points="313.8,248.1 313.8,264.7 289.3,289.2 295.6,295.5 334.5,256.6 334.5,256.2 295.6,217.3 
				289.3,223.6 			"/>
		</g>
	</g>
	<g opacity="0.1">
		<g>
			<polygon fill="#4374B9" points="264.4,234.1 247.6,234.1 222.9,209.4 216.5,215.8 255.8,255.1 256.3,255.1 295.5,215.8 
				289.1,209.4 			"/>
			<polygon fill="#4374B9" points="264.4,277.9 247.6,277.9 222.9,302.6 216.5,296.2 255.8,256.9 256.3,256.9 295.5,296.2 
				289.1,302.6 			"/>
		</g>
		<g>
			<polygon fill="#F7901E" points="197.6,264.8 197.6,248 222.3,223.3 215.9,216.9 176.6,256.2 176.6,256.7 215.9,295.9 
				222.3,289.6 			"/>
			<polygon fill="#3D6CB4" points="314.4,248 314.4,264.8 289.7,289.6 296.1,295.9 335.4,256.7 335.4,256.2 296.1,216.9 
				289.7,223.3 			"/>
		</g>
	</g>
	<g opacity="0.1125">
		<g>
			<polygon fill="#4374B9" points="264.5,233.9 247.5,233.9 222.5,208.9 216,215.3 255.8,255.1 256.3,255.1 296,215.4 289.5,208.9 
							"/>
			<polygon fill="#4374B9" points="264.5,278.1 247.5,278.1 222.5,303.1 216,296.7 255.8,256.9 256.3,256.9 296,296.6 289.5,303.1 
							"/>
		</g>
		<g>
			<polygon fill="#F7901E" points="197,264.9 197,247.9 221.9,222.9 215.5,216.5 175.8,256.2 175.8,256.7 215.5,296.4 221.9,289.9 
							"/>
			<polygon fill="#3D6CB4" points="315,247.9 315,264.9 290.1,289.9 296.5,296.4 336.2,256.7 336.2,256.2 296.5,216.5 290.1,222.9 
							"/>
		</g>
	</g>
	<g opacity="0.125">
		<g>
			<polygon fill="#4374B9" points="264.6,233.6 247.4,233.6 222.1,208.4 215.6,214.9 255.7,255.1 256.3,255.1 296.4,214.9 
				289.9,208.4 			"/>
			<polygon fill="#4374B9" points="264.6,278.4 247.4,278.4 222.1,303.6 215.6,297.1 255.7,256.9 256.3,256.9 296.4,297.1 
				289.9,303.6 			"/>
		</g>
		<g>
			<polygon fill="#F7901E" points="196.3,265 196.3,247.8 221.6,222.5 215,216 174.9,256.2 174.9,256.7 215,296.8 221.6,290.3 			
				"/>
			<polygon fill="#3D6CB4" points="315.7,247.8 315.7,265 290.4,290.3 297,296.8 337.1,256.7 337.1,256.2 297,216 290.4,222.5 			
				"/>
		</g>
	</g>
	<g opacity="0.1375">
		<g>
			<polygon fill="#4374B9" points="264.7,233.4 247.3,233.4 221.8,207.9 215.2,214.5 255.7,255 256.3,255 296.8,214.5 290.2,207.9 
							"/>
			<polygon fill="#4374B9" points="264.7,278.6 247.3,278.6 221.8,304.1 215.2,297.5 255.7,257 256.3,257 296.8,297.5 290.2,304.1 
							"/>
		</g>
		<g>
			<polygon fill="#F7901E" points="195.7,265.1 195.7,247.7 221.2,222.2 214.6,215.6 174,256.2 174,256.7 214.6,297.2 221.2,290.7 
							"/>
			<polygon fill="#3D6CB4" points="316.3,247.7 316.3,265.1 290.8,290.7 297.4,297.2 338,256.7 338,256.2 297.4,215.6 290.8,222.2 
							"/>
		</g>
	</g>
	<g opacity="0.15">
		<g>
			<polygon fill="#4374B9" points="264.8,233.2 247.2,233.2 221.4,207.4 214.7,214 255.7,255 256.3,255 297.3,214 290.6,207.4 			
				"/>
			<polygon fill="#4374B9" points="264.8,278.8 247.2,278.8 221.4,304.6 214.7,298 255.7,257 256.3,257 297.3,298 290.6,304.6 			
				"/>
		</g>
		<g>
			<polygon fill="#F7901E" points="195,265.2 195,247.6 220.8,221.8 214.2,215.2 173.2,256.2 173.2,256.7 214.2,297.7 220.8,291 			
				"/>
			<polygon fill="#3D6CB4" points="317,247.6 317,265.2 291.2,291 297.8,297.7 338.8,256.7 338.8,256.2 297.8,215.2 291.2,221.8 			
				"/>
		</g>
	</g>
	<g opacity="0.1625">
		<g>
			<polygon fill="#4374B9" points="264.9,232.9 247.1,232.9 221,206.9 214.3,213.6 255.7,255 256.3,255 297.7,213.6 291,206.9 			
				"/>
			<polygon fill="#4374B9" points="264.9,279.1 247.1,279.1 221,305.1 214.3,298.4 255.7,257 256.3,257 297.7,298.4 291,305.1 			
				"/>
		</g>
		<g>
			<polygon fill="#F7901E" points="194.4,265.3 194.4,247.5 220.5,221.5 213.7,214.7 172.3,256.2 172.3,256.7 213.7,298.1 
				220.5,291.4 			"/>
			<polygon fill="#3D6CB4" points="317.6,247.5 317.6,265.3 291.5,291.4 298.3,298.1 339.7,256.7 339.7,256.2 298.3,214.7 
				291.5,221.5 			"/>
		</g>
	</g>
	<g opacity="0.175">
		<g>
			<polygon fill="#4374B9" points="265,232.7 247,232.7 220.7,206.3 213.9,213.2 255.7,255 256.3,255 298.1,213.2 291.3,206.4 			
				"/>
			<polygon fill="#4374B9" points="265,279.3 247,279.3 220.7,305.7 213.9,298.8 255.7,257 256.3,257 298.1,298.8 291.3,305.6 			
				"/>
		</g>
		<g>
			<polygon fill="#F7901E" points="193.8,265.4 193.8,247.5 220.1,221.1 213.3,214.3 171.4,256.2 171.4,256.7 213.3,298.6 
				220.1,291.8 			"/>
			<polygon fill="#3D6CB4" points="318.2,247.5 318.2,265.4 291.9,291.8 298.7,298.6 340.6,256.7 340.6,256.2 298.7,214.3 
				291.9,221.1 			"/>
		</g>
	</g>
	<g opacity="0.1875">
		<g>
			<polygon fill="#4374B9" points="265.1,232.5 246.9,232.5 220.3,205.8 213.4,212.7 255.7,255 256.3,255 298.6,212.7 291.7,205.8 
							"/>
			<polygon fill="#4374B9" points="265.1,279.5 246.9,279.5 220.3,306.2 213.4,299.3 255.7,257 256.3,257 298.6,299.3 291.7,306.2 
							"/>
		</g>
		<g>
			<polygon fill="#F7901E" points="193.1,265.5 193.1,247.4 219.7,220.8 212.9,213.9 170.6,256.2 170.6,256.7 212.9,299 
				219.7,292.1 			"/>
			<polygon fill="#3D6CB4" points="318.9,247.4 318.9,265.5 292.3,292.1 299.1,299 341.4,256.7 341.4,256.2 299.1,213.9 
				292.3,220.8 			"/>
		</g>
	</g>
	<g opacity="0.2">
		<g>
			<polygon fill="#4374B9" points="265.2,232.2 246.8,232.2 220,205.3 213,212.3 255.7,255 256.3,255 299,212.3 292,205.3 			"/>
			<polygon fill="#4374B9" points="265.2,279.8 246.8,279.8 220,306.7 213,299.7 255.7,257 256.3,257 299,299.7 292,306.7 			"/>
		</g>
		<g>
			<polygon fill="#F7901E" points="192.5,265.6 192.5,247.3 219.4,220.4 212.4,213.5 169.7,256.2 169.7,256.7 212.4,299.4 
				219.4,292.5 			"/>
			<polygon fill="#3D6CB4" points="319.5,247.3 319.5,265.6 292.6,292.5 299.6,299.4 342.3,256.7 342.3,256.2 299.6,213.5 
				292.6,220.4 			"/>
		</g>
	</g>
	<g opacity="0.2125">
		<g>
			<polygon fill="#4374B9" points="265.3,232 246.7,232 219.6,204.8 212.6,211.8 255.7,255 256.3,255 299.4,211.8 292.4,204.8 			
				"/>
			<polygon fill="#4374B9" points="265.3,280 246.7,280 219.6,307.2 212.6,300.2 255.7,257 256.3,257 299.4,300.2 292.4,307.2 			
				"/>
		</g>
		<g>
			<polygon fill="#F7901E" points="191.8,265.7 191.8,247.2 219,220 212,213 168.8,256.2 168.8,256.7 212,299.9 219,292.9 			"/>
			<polygon fill="#3D6CB4" points="320.2,247.2 320.2,265.7 293,292.9 300,299.9 343.2,256.7 343.2,256.2 300,213 293,220 			"/>
		</g>
	</g>
	<g opacity="0.225">
		<g>
			<polygon fill="#4374B9" points="265.4,231.7 246.7,231.7 219.2,204.3 212.1,211.4 255.7,255 256.3,255 299.9,211.4 292.8,204.3 
							"/>
			<polygon fill="#4374B9" points="265.4,280.3 246.7,280.3 219.2,307.7 212.1,300.6 255.7,257 256.3,257 299.9,300.6 292.8,307.7 
							"/>
		</g>
		<g>
			<polygon fill="#F7901E" points="191.2,265.8 191.2,247.1 218.6,219.7 211.5,212.6 168,256.2 168,256.7 211.5,300.3 218.6,293.2 
							"/>
			<polygon fill="#3D6CB4" points="320.8,247.1 320.8,265.8 293.4,293.2 300.5,300.3 344,256.7 344,256.2 300.5,212.6 293.4,219.7 
							"/>
		</g>
	</g>
	<g opacity="0.2375">
		<g>
			<polygon fill="#4374B9" points="265.4,231.5 246.6,231.5 218.9,203.8 211.7,211 255.7,255 256.3,255 300.3,211 293.1,203.8 			
				"/>
			<polygon fill="#4374B9" points="265.4,280.5 246.6,280.5 218.9,308.2 211.7,301 255.7,257 256.3,257 300.3,301 293.1,308.2 			
				"/>
		</g>
		<g>
			<polygon fill="#F7901E" points="190.6,265.9 190.6,247 218.3,219.3 211.1,212.2 167.1,256.2 167.1,256.7 211.1,300.7 
				218.3,293.6 			"/>
			<polygon fill="#3D6CB4" points="321.4,247 321.4,265.9 293.7,293.6 300.9,300.7 344.9,256.7 344.9,256.2 300.9,212.2 
				293.7,219.3 			"/>
		</g>
	</g>
	<g opacity="0.25">
		<g>
			<polygon fill="#4374B9" points="265.5,231.3 246.5,231.3 218.5,203.3 211.3,210.5 255.7,254.9 256.3,254.9 300.7,210.5 
				293.5,203.3 			"/>
			<polygon fill="#4374B9" points="265.5,280.7 246.5,280.7 218.5,308.7 211.3,301.5 255.7,257.1 256.3,257.1 300.7,301.5 
				293.5,308.7 			"/>
		</g>
		<g>
			<polygon fill="#F7901E" points="189.9,266 189.9,246.9 217.9,219 210.7,211.7 166.2,256.2 166.2,256.7 210.7,301.2 217.9,294 			
				"/>
			<polygon fill="#3D6CB4" points="322.1,246.9 322.1,266 294.1,294 301.3,301.2 345.8,256.7 345.8,256.2 301.3,211.7 294.1,219 			
				"/>
		</g>
	</g>
	<g opacity="0.2625">
		<g>
			<polygon fill="#4374B9" points="265.6,231 246.4,231 218.1,202.8 210.9,210.1 255.7,254.9 256.3,254.9 301.1,210.1 293.9,202.8 
							"/>
			<polygon fill="#4374B9" points="265.6,281 246.4,281 218.1,309.2 210.9,301.9 255.7,257.1 256.3,257.1 301.1,301.9 293.9,309.2 
							"/>
		</g>
		<g>
			<polygon fill="#F7901E" points="189.3,266.1 189.3,246.8 217.5,218.6 210.2,211.3 165.4,256.2 165.4,256.8 210.2,301.6 
				217.5,294.3 			"/>
			<polygon fill="#3D6CB4" points="322.7,246.8 322.7,266.1 294.5,294.3 301.8,301.6 346.6,256.7 346.6,256.2 301.8,211.3 
				294.5,218.6 			"/>
		</g>
	</g>
	<g opacity="0.275">
		<g>
			<polygon fill="#4374B9" points="265.7,230.8 246.3,230.8 217.8,202.3 210.4,209.6 255.7,254.9 256.3,254.9 301.6,209.6 
				294.2,202.3 			"/>
			<polygon fill="#4374B9" points="265.7,281.2 246.3,281.2 217.8,309.7 210.4,302.4 255.7,257.1 256.3,257.1 301.6,302.4 
				294.2,309.7 			"/>
		</g>
		<g>
			<polygon fill="#F7901E" points="188.7,266.2 188.7,246.8 217.2,218.3 209.8,210.9 164.5,256.2 164.5,256.8 209.8,302 
				217.1,294.7 			"/>
			<polygon fill="#3D6CB4" points="323.3,246.8 323.3,266.2 294.8,294.7 302.2,302 347.5,256.8 347.5,256.2 302.2,210.9 
				294.9,218.3 			"/>
		</g>
	</g>
	<g opacity="0.2875">
		<g>
			<polygon fill="#4374B9" points="265.8,230.5 246.2,230.5 217.4,201.8 210,209.2 255.7,254.9 256.3,254.9 302,209.2 294.6,201.8 
							"/>
			<polygon fill="#4374B9" points="265.8,281.5 246.2,281.5 217.4,310.2 210,302.8 255.7,257.1 256.3,257.1 302,302.8 294.6,310.2 
							"/>
		</g>
		<g>
			<polygon fill="#F7901E" points="188,266.3 188,246.7 216.8,217.9 209.4,210.5 163.6,256.2 163.6,256.8 209.3,302.5 216.8,295.1 
							"/>
			<polygon fill="#3D6CB4" points="324,246.7 324,266.3 295.2,295.1 302.6,302.5 348.4,256.8 348.4,256.2 302.7,210.5 295.2,217.9 
							"/>
		</g>
	</g>
	<g opacity="0.3">
		<g>
			<polygon fill="#4374B9" points="265.9,230.3 246.1,230.3 217.1,201.3 209.6,208.8 255.7,254.9 256.3,254.9 302.4,208.8 
				294.9,201.3 			"/>
			<polygon fill="#4374B9" points="265.9,281.7 246.1,281.7 217.1,310.7 209.6,303.2 255.7,257.1 256.3,257.1 302.4,303.2 
				294.9,310.7 			"/>
		</g>
		<g>
			<polygon fill="#F7901E" points="187.4,266.4 187.4,246.6 216.4,217.5 208.9,210 162.8,256.2 162.8,256.8 208.9,302.9 
				216.4,295.4 			"/>
			<polygon fill="#3D6CB4" points="324.6,246.6 324.6,266.4 295.6,295.4 303.1,302.9 349.2,256.8 349.2,256.2 303.1,210 
				295.6,217.5 			"/>
		</g>
	</g>
	<g opacity="0.3125">
		<g>
			<polygon fill="#4374B9" points="266,230.1 246,230.1 216.7,200.7 209.1,208.3 255.7,254.9 256.3,254.9 302.9,208.3 295.3,200.8 
							"/>
			<polygon fill="#4374B9" points="266,281.9 246,281.9 216.7,311.3 209.1,303.7 255.7,257.1 256.3,257.1 302.9,303.7 295.3,311.2 
							"/>
		</g>
		<g>
			<polygon fill="#F7901E" points="186.7,266.5 186.7,246.5 216,217.2 208.5,209.6 161.9,256.2 161.9,256.8 208.5,303.4 216,295.8 
							"/>
			<polygon fill="#3D6CB4" points="325.3,246.5 325.3,266.5 296,295.8 303.5,303.4 350.1,256.8 350.1,256.2 303.5,209.6 296,217.2 
							"/>
		</g>
	</g>
	<g opacity="0.325">
		<g>
			<polygon fill="#4374B9" points="266.1,229.8 245.9,229.8 216.3,200.2 208.7,207.9 255.7,254.9 256.3,254.9 303.3,207.9 
				295.7,200.2 			"/>
			<polygon fill="#4374B9" points="266.1,282.2 245.9,282.2 216.3,311.8 208.7,304.1 255.7,257.1 256.3,257.1 303.3,304.1 
				295.7,311.8 			"/>
		</g>
		<g>
			<polygon fill="#F7901E" points="186.1,266.6 186.1,246.4 215.7,216.8 208,209.2 161,256.2 161,256.8 208,303.8 215.7,296.2 			
				"/>
			<polygon fill="#3D6CB4" points="325.9,246.4 325.9,266.6 296.3,296.2 304,303.8 351,256.8 351,256.2 304,209.2 296.3,216.8 			
				"/>
		</g>
	</g>
	<g opacity="0.3375">
		<g>
			<polygon fill="#4374B9" points="266.2,229.6 245.8,229.6 216,199.7 208.3,207.4 255.7,254.9 256.3,254.9 303.7,207.4 296,199.7 
							"/>
			<polygon fill="#4374B9" points="266.2,282.4 245.8,282.4 216,312.3 208.3,304.6 255.7,257.1 256.3,257.1 303.7,304.6 296,312.3 
							"/>
		</g>
		<g>
			<polygon fill="#F7901E" points="185.5,266.7 185.5,246.3 215.3,216.5 207.6,208.8 160.2,256.2 160.2,256.8 207.6,304.2 
				215.3,296.5 			"/>
			<polygon fill="#3D6CB4" points="326.5,246.3 326.5,266.7 296.7,296.5 304.4,304.2 351.8,256.8 351.8,256.2 304.4,208.8 
				296.7,216.5 			"/>
		</g>
	</g>
	<g opacity="0.35">
		<g>
			<polygon fill="#4374B9" points="266.3,229.3 245.7,229.3 215.6,199.2 207.8,207 255.7,254.9 256.3,254.9 304.2,207 296.4,199.2 
							"/>
			<polygon fill="#4374B9" points="266.3,282.7 245.7,282.7 215.6,312.8 207.8,305 255.7,257.1 256.3,257.1 304.2,305 296.4,312.8 
							"/>
		</g>
		<g>
			<polygon fill="#F7901E" points="184.8,266.8 184.8,246.2 214.9,216.1 207.2,208.3 159.3,256.2 159.3,256.8 207.2,304.7 
				214.9,296.9 			"/>
			<polygon fill="#3D6CB4" points="327.2,246.2 327.2,266.8 297.1,296.9 304.8,304.7 352.7,256.8 352.7,256.2 304.8,208.3 
				297.1,216.1 			"/>
		</g>
	</g>
	<g opacity="0.3625">
		<g>
			<polygon fill="#4374B9" points="266.4,229.1 245.6,229.1 215.2,198.7 207.4,206.6 255.7,254.9 256.3,254.9 304.6,206.6 
				296.8,198.7 			"/>
			<polygon fill="#4374B9" points="266.4,282.9 245.6,282.9 215.2,313.3 207.4,305.4 255.7,257.1 256.3,257.1 304.6,305.4 
				296.8,313.3 			"/>
		</g>
		<g>
			<polygon fill="#F7901E" points="184.2,266.9 184.2,246.1 214.6,215.7 206.7,207.9 158.4,256.2 158.4,256.8 206.7,305.1 
				214.6,297.3 			"/>
			<polygon fill="#3D6CB4" points="327.8,246.1 327.8,266.9 297.4,297.3 305.3,305.1 353.6,256.8 353.6,256.2 305.3,207.9 
				297.4,215.7 			"/>
		</g>
	</g>
	<g opacity="0.375">
		<g>
			<polygon fill="#4374B9" points="266.5,228.9 245.5,228.9 214.9,198.2 207,206.1 255.7,254.8 256.3,254.8 305,206.1 297.1,198.2 
							"/>
			<polygon fill="#4374B9" points="266.5,283.1 245.5,283.1 214.9,313.8 207,305.9 255.7,257.2 256.3,257.2 305,305.9 297.1,313.8 
							"/>
		</g>
		<g>
			<polygon fill="#F7901E" points="183.5,267 183.5,246.1 214.2,215.4 206.3,207.5 157.6,256.2 157.6,256.8 206.3,305.5 
				214.2,297.6 			"/>
			<polygon fill="#3D6CB4" points="328.5,246 328.5,267 297.8,297.6 305.7,305.5 354.4,256.8 354.4,256.2 305.7,207.5 297.8,215.4 
							"/>
		</g>
	</g>
	<g opacity="0.3875">
		<g>
			<polygon fill="#4374B9" points="266.5,228.6 245.5,228.6 214.5,197.7 206.5,205.7 255.7,254.8 256.3,254.8 305.5,205.7 
				297.5,197.7 			"/>
			<polygon fill="#4374B9" points="266.5,283.4 245.5,283.4 214.5,314.3 206.5,306.3 255.7,257.2 256.3,257.2 305.5,306.3 
				297.5,314.3 			"/>
		</g>
		<g>
			<polygon fill="#F7901E" points="182.9,267.1 182.9,246 213.8,215 205.9,207 156.7,256.2 156.7,256.8 205.8,306 213.8,298 			"/>
			<polygon fill="#3D6CB4" points="329.1,246 329.1,267.1 298.2,298 306.1,306 355.3,256.8 355.3,256.2 306.2,207 298.2,215 			"/>
		</g>
	</g>
	<g opacity="0.4">
		<g>
			<polygon fill="#4374B9" points="266.6,228.4 245.4,228.4 214.2,197.2 206.1,205.2 255.7,254.8 256.3,254.8 305.9,205.2 
				297.8,197.2 			"/>
			<polygon fill="#4374B9" points="266.6,283.6 245.4,283.6 214.2,314.8 206.1,306.8 255.7,257.2 256.3,257.2 305.9,306.8 
				297.8,314.8 			"/>
		</g>
		<g>
			<polygon fill="#F7901E" points="182.3,267.2 182.3,245.9 213.5,214.7 205.4,206.6 155.8,256.2 155.8,256.8 205.4,306.4 
				213.5,298.4 			"/>
			<polygon fill="#3D6CB4" points="329.7,245.9 329.7,267.1 298.5,298.4 306.6,306.4 356.2,256.8 356.2,256.2 306.6,206.6 
				298.5,214.7 			"/>
		</g>
	</g>
	<g opacity="0.4125">
		<g>
			<polygon fill="#4374B9" points="266.7,228.1 245.3,228.1 213.8,196.7 205.7,204.8 255.7,254.8 256.3,254.8 306.3,204.8 
				298.2,196.7 			"/>
			<polygon fill="#4374B9" points="266.7,283.9 245.3,283.9 213.8,315.3 205.7,307.2 255.7,257.2 256.3,257.2 306.3,307.2 
				298.2,315.3 			"/>
		</g>
		<g>
			<polygon fill="#F7901E" points="181.6,267.3 181.6,245.8 213.1,214.3 205,206.2 155,256.2 155,256.8 205,306.9 213.1,298.7 			
				"/>
			<polygon fill="#3D6CB4" points="330.4,245.8 330.4,267.2 298.9,298.7 307,306.9 357,256.8 357,256.2 307,206.2 298.9,214.3 			
				"/>
		</g>
	</g>
	<g opacity="0.425">
		<g>
			<polygon fill="#4374B9" points="266.8,227.9 245.2,227.9 213.4,196.2 205.2,204.4 255.7,254.8 256.3,254.8 306.8,204.4 
				298.6,196.2 			"/>
			<polygon fill="#4374B9" points="266.8,284.1 245.2,284.1 213.4,315.8 205.2,307.6 255.7,257.2 256.3,257.2 306.8,307.6 
				298.6,315.8 			"/>
		</g>
		<g>
			<polygon fill="#F7901E" points="181,267.3 181,245.7 212.7,214 204.5,205.8 154.1,256.2 154.1,256.8 204.5,307.3 212.7,299.1 			
				"/>
			<polygon fill="#3D6CB4" points="331,245.7 331,267.3 299.3,299.1 307.5,307.3 357.9,256.8 357.9,256.2 307.5,205.8 299.3,214 			
				"/>
		</g>
	</g>
	<g opacity="0.4375">
		<g>
			<polygon fill="#4374B9" points="266.9,227.7 245.1,227.7 213.1,195.7 204.8,203.9 255.7,254.8 256.3,254.8 307.2,203.9 
				298.9,195.7 			"/>
			<polygon fill="#4374B9" points="266.9,284.3 245.1,284.3 213.1,316.3 204.8,308.1 255.7,257.2 256.3,257.2 307.2,308.1 
				298.9,316.3 			"/>
		</g>
		<g>
			<polygon fill="#F7901E" points="180.4,267.4 180.4,245.6 212.4,213.6 204.1,205.3 153.2,256.2 153.2,256.9 204.1,307.7 
				212.4,299.5 			"/>
			<polygon fill="#3D6CB4" points="331.6,245.6 331.6,267.4 299.6,299.5 307.9,307.7 358.8,256.8 358.8,256.2 307.9,205.3 
				299.6,213.6 			"/>
		</g>
	</g>
	<g opacity="0.45">
		<g>
			<polygon fill="#4374B9" points="267,227.4 245,227.4 212.7,195.1 204.4,203.5 255.7,254.8 256.3,254.8 307.6,203.5 299.3,195.1 
							"/>
			<polygon fill="#4374B9" points="267,284.6 245,284.6 212.7,316.9 204.4,308.5 255.7,257.2 256.3,257.2 307.6,308.5 299.3,316.9 
							"/>
		</g>
		<g>
			<polygon fill="#F7901E" points="179.7,267.5 179.7,245.5 212,213.2 203.7,204.9 152.4,256.2 152.4,256.9 203.7,308.2 212,299.8 
							"/>
			<polygon fill="#3D6CB4" points="332.3,245.5 332.3,267.5 300,299.8 308.3,308.2 359.6,256.9 359.6,256.2 308.3,204.9 300,213.2 
							"/>
		</g>
	</g>
	<g opacity="0.4625">
		<g>
			<polygon fill="#4374B9" points="267.1,227.2 244.9,227.2 212.3,194.6 203.9,203 255.7,254.8 256.3,254.8 308.1,203 299.7,194.6 
							"/>
			<polygon fill="#4374B9" points="267.1,284.8 244.9,284.8 212.3,317.4 203.9,309 255.7,257.2 256.3,257.2 308.1,309 299.7,317.4 
							"/>
		</g>
		<g>
			<polygon fill="#F7901E" points="179.1,267.6 179.1,245.4 211.6,212.9 203.2,204.5 151.5,256.2 151.5,256.9 203.2,308.6 
				211.6,300.2 			"/>
			<polygon fill="#3D6CB4" points="332.9,245.4 332.9,267.6 300.4,300.2 308.8,308.6 360.5,256.9 360.5,256.2 308.8,204.5 
				300.4,212.9 			"/>
		</g>
	</g>
	<g opacity="0.475">
		<g>
			<polygon fill="#4374B9" points="267.2,226.9 244.8,226.9 212,194.1 203.5,202.6 255.7,254.8 256.3,254.8 308.5,202.6 300,194.1 
							"/>
			<polygon fill="#4374B9" points="267.2,285.1 244.8,285.1 212,317.9 203.5,309.4 255.7,257.2 256.3,257.2 308.5,309.4 300,317.9 
							"/>
		</g>
		<g>
			<polygon fill="#F7901E" points="178.4,267.7 178.4,245.4 211.3,212.5 202.8,204 150.6,256.2 150.6,256.9 202.8,309 211.3,300.6 
							"/>
			<polygon fill="#3D6CB4" points="333.6,245.3 333.6,267.7 300.7,300.6 309.2,309 361.4,256.9 361.4,256.2 309.2,204 300.7,212.5 
							"/>
		</g>
	</g>
	<g opacity="0.4875">
		<g>
			<polygon fill="#4374B9" points="267.3,226.7 244.7,226.7 211.6,193.6 203.1,202.2 255.7,254.8 256.3,254.8 308.9,202.2 
				300.4,193.6 			"/>
			<polygon fill="#4374B9" points="267.3,285.3 244.7,285.3 211.6,318.4 203.1,309.8 255.7,257.2 256.3,257.2 308.9,309.8 
				300.4,318.4 			"/>
		</g>
		<g>
			<polygon fill="#F7901E" points="177.8,267.8 177.8,245.3 210.9,212.2 202.3,203.6 149.8,256.2 149.8,256.9 202.3,309.5 
				210.9,300.9 			"/>
			<polygon fill="#3D6CB4" points="334.2,245.3 334.2,267.8 301.1,300.9 309.7,309.5 362.2,256.9 362.2,256.2 309.7,203.6 
				301.1,212.2 			"/>
		</g>
	</g>
	<g opacity="0.5">
		<g>
			<polygon fill="#4374B9" points="267.4,226.5 244.6,226.5 211.3,193.1 202.6,201.7 255.7,254.7 256.3,254.7 309.4,201.7 
				300.7,193.1 			"/>
			<polygon fill="#4374B9" points="267.4,285.5 244.6,285.5 211.3,318.9 202.6,310.3 255.7,257.3 256.3,257.3 309.4,310.3 
				300.7,318.9 			"/>
		</g>
		<g>
			<polygon fill="#F7901E" points="177.2,267.9 177.2,245.2 210.5,211.8 201.9,203.2 148.9,256.2 148.9,256.9 201.9,309.9 
				210.5,301.3 			"/>
			<polygon fill="#3D6CB4" points="334.8,245.2 334.8,267.9 301.5,301.3 310.1,309.9 363.1,256.9 363.1,256.2 310.1,203.2 
				301.5,211.8 			"/>
		</g>
	</g>
	<g opacity="0.5125">
		<g>
			<polygon fill="#4374B9" points="267.5,226.2 244.5,226.2 210.9,192.6 202.2,201.3 255.7,254.7 256.3,254.7 309.8,201.3 
				301.1,192.6 			"/>
			<polygon fill="#4374B9" points="267.5,285.8 244.5,285.8 210.9,319.4 202.2,310.7 255.7,257.3 256.3,257.3 309.8,310.7 
				301.1,319.4 			"/>
		</g>
		<g>
			<polygon fill="#F7901E" points="176.5,268 176.5,245.1 210.2,211.5 201.5,202.8 148,256.2 148,256.9 201.5,310.3 210.2,301.7 			
				"/>
			<polygon fill="#3D6CB4" points="335.5,245.1 335.5,268 301.8,301.7 310.5,310.3 364,256.9 364,256.2 310.5,202.8 301.8,211.5 			
				"/>
		</g>
	</g>
	<g opacity="0.525">
		<g>
			<polygon fill="#4374B9" points="267.6,226 244.4,226 210.5,192.1 201.8,200.8 255.7,254.7 256.3,254.7 310.2,200.8 301.5,192.1 
							"/>
			<polygon fill="#4374B9" points="267.6,286 244.4,286 210.5,319.9 201.8,311.2 255.7,257.3 256.3,257.3 310.2,311.2 301.5,319.9 
							"/>
		</g>
		<g>
			<polygon fill="#F7901E" points="175.9,268.1 175.9,245 209.8,211.1 201,202.3 147.1,256.2 147.1,256.9 201,310.8 209.8,302 			
				"/>
			<polygon fill="#3D6CB4" points="336.1,245 336.1,268.1 302.2,302 311,310.8 364.9,256.9 364.9,256.2 311,202.3 302.2,211.1 			
				"/>
		</g>
	</g>
	<g opacity="0.5375">
		<g>
			<polygon fill="#4374B9" points="267.7,225.8 244.4,225.8 210.2,191.6 201.3,200.4 255.7,254.7 256.3,254.7 310.7,200.4 
				301.8,191.6 			"/>
			<polygon fill="#4374B9" points="267.7,286.2 244.4,286.2 210.2,320.4 201.3,311.6 255.7,257.3 256.3,257.3 310.7,311.6 
				301.8,320.4 			"/>
		</g>
		<g>
			<polygon fill="#F7901E" points="175.2,268.2 175.2,244.9 209.4,210.7 200.6,201.9 146.3,256.2 146.3,256.9 200.6,311.2 
				209.4,302.4 			"/>
			<polygon fill="#3D6CB4" points="336.8,244.9 336.8,268.2 302.6,302.4 311.4,311.2 365.7,256.9 365.7,256.2 311.4,201.9 
				302.6,210.7 			"/>
		</g>
	</g>
	<g opacity="0.55">
		<g>
			<polygon fill="#4374B9" points="267.7,225.5 244.3,225.5 209.8,191.1 200.9,200 255.7,254.7 256.4,254.7 311.1,200 302.2,191.1 
							"/>
			<polygon fill="#4374B9" points="267.7,286.5 244.3,286.5 209.8,320.9 200.9,312 255.7,257.3 256.4,257.3 311.1,312 302.2,320.9 
							"/>
		</g>
		<g>
			<polygon fill="#F7901E" points="174.6,268.3 174.6,244.8 209.1,210.4 200.2,201.5 145.4,256.2 145.4,256.9 200.1,311.7 
				209,302.8 			"/>
			<polygon fill="#3D6CB4" points="337.4,244.8 337.4,268.3 302.9,302.8 311.8,311.7 366.6,256.9 366.6,256.2 311.9,201.5 
				303,210.4 			"/>
		</g>
	</g>
	<g opacity="0.5625">
		<g>
			<polygon fill="#4374B9" points="267.8,225.3 244.2,225.3 209.4,190.6 200.5,199.5 255.7,254.7 256.4,254.7 311.5,199.5 
				302.6,190.6 			"/>
			<polygon fill="#4374B9" points="267.8,286.7 244.2,286.7 209.4,321.4 200.5,312.5 255.7,257.3 256.4,257.3 311.5,312.5 
				302.6,321.4 			"/>
		</g>
		<g>
			<polygon fill="#F7901E" points="174,268.4 174,244.7 208.7,210 199.7,201.1 144.5,256.2 144.5,256.9 199.7,312.1 208.7,303.1 			
				"/>
			<polygon fill="#3D6CB4" points="338,244.7 338,268.4 303.3,303.1 312.3,312.1 367.5,256.9 367.5,256.2 312.3,201.1 303.3,210 			
				"/>
		</g>
	</g>
	<g opacity="0.575">
		<g>
			<polygon fill="#4374B9" points="267.9,225 244.1,225 209.1,190 200,199.1 255.7,254.7 256.4,254.7 312,199.1 302.9,190.1 			"/>
			<polygon fill="#4374B9" points="267.9,287 244.1,287 209.1,322 200,312.9 255.7,257.3 256.4,257.3 312,312.9 302.9,321.9 			"/>
		</g>
		<g>
			<polygon fill="#F7901E" points="173.3,268.5 173.3,244.7 208.3,209.7 199.3,200.6 143.7,256.2 143.7,256.9 199.3,312.5 
				208.3,303.5 			"/>
			<polygon fill="#3D6CB4" points="338.7,244.6 338.7,268.5 303.7,303.5 312.7,312.5 368.3,256.9 368.3,256.2 312.7,200.6 
				303.7,209.7 			"/>
		</g>
	</g>
	<g opacity="0.5875">
		<g>
			<polygon fill="#4374B9" points="268,224.8 244,224.8 208.7,189.5 199.6,198.6 255.6,254.7 256.4,254.7 312.4,198.7 303.3,189.5 
							"/>
			<polygon fill="#4374B9" points="268,287.2 244,287.2 208.7,322.5 199.6,313.4 255.6,257.3 256.4,257.3 312.4,313.3 303.3,322.5 
							"/>
		</g>
		<g>
			<polygon fill="#F7901E" points="172.7,268.6 172.7,244.6 207.9,209.3 198.8,200.2 142.8,256.2 142.8,256.9 198.8,313 
				207.9,303.9 			"/>
			<polygon fill="#3D6CB4" points="339.3,244.6 339.3,268.6 304.1,303.9 313.2,313 369.2,256.9 369.2,256.2 313.2,200.2 
				304.1,209.3 			"/>
		</g>
	</g>
	<g opacity="0.6">
		<g>
			<polygon fill="#4374B9" points="268.1,224.6 243.9,224.6 208.4,189 199.2,198.2 255.6,254.7 256.4,254.7 312.8,198.2 303.6,189 
							"/>
			<polygon fill="#4374B9" points="268.1,287.4 243.9,287.4 208.4,323 199.2,313.8 255.6,257.3 256.4,257.3 312.8,313.8 303.6,323 
							"/>
		</g>
		<g>
			<polygon fill="#F7901E" points="172,268.7 172,244.5 207.6,208.9 198.4,199.8 141.9,256.2 141.9,256.9 198.4,313.4 207.6,304.2 
							"/>
			<polygon fill="#3D6CB4" points="340,244.5 340,268.7 304.4,304.2 313.6,313.4 370.1,256.9 370.1,256.2 313.6,199.8 304.4,208.9 
							"/>
		</g>
	</g>
	<g opacity="0.6125">
		<g>
			<polygon fill="#4374B9" points="268.2,224.3 243.8,224.3 208,188.5 198.8,197.8 255.6,254.7 256.4,254.7 313.2,197.8 304,188.5 
							"/>
			<polygon fill="#4374B9" points="268.2,287.7 243.8,287.7 208,323.5 198.8,314.2 255.6,257.3 256.4,257.3 313.2,314.2 304,323.5 
							"/>
		</g>
		<g>
			<polygon fill="#F7901E" points="171.4,268.8 171.4,244.4 207.2,208.6 198,199.3 141.1,256.2 141.1,257 198,313.8 207.2,304.6 			
				"/>
			<polygon fill="#3D6CB4" points="340.6,244.4 340.6,268.8 304.8,304.6 314,313.8 370.9,256.9 370.9,256.2 314,199.3 304.8,208.6 
							"/>
		</g>
	</g>
	<g opacity="0.625">
		<g>
			<polygon fill="#4374B9" points="268.3,224.1 243.7,224.1 207.6,188 198.3,197.3 255.6,254.6 256.4,254.6 313.7,197.3 304.4,188 
							"/>
			<polygon fill="#4374B9" points="268.3,287.9 243.7,287.9 207.6,324 198.3,314.7 255.6,257.4 256.4,257.4 313.7,314.7 304.4,324 
							"/>
		</g>
		<g>
			<polygon fill="#F7901E" points="170.8,268.9 170.8,244.3 206.8,208.2 197.5,198.9 140.2,256.2 140.2,257 197.5,314.3 206.8,305 
							"/>
			<polygon fill="#3D6CB4" points="341.2,244.3 341.2,268.9 305.2,305 314.5,314.3 371.8,257 371.8,256.2 314.5,198.9 305.2,208.2 
							"/>
		</g>
	</g>
	<g opacity="0.6375">
		<g>
			<polygon fill="#4374B9" points="268.4,223.8 243.6,223.8 207.3,187.5 197.9,196.9 255.6,254.6 256.4,254.6 314.1,196.9 
				304.7,187.5 			"/>
			<polygon fill="#4374B9" points="268.4,288.2 243.6,288.2 207.3,324.5 197.9,315.1 255.6,257.4 256.4,257.4 314.1,315.1 
				304.7,324.5 			"/>
		</g>
		<g>
			<polygon fill="#F7901E" points="170.1,269 170.1,244.2 206.5,207.9 197.1,198.5 139.3,256.2 139.3,257 197.1,314.7 206.5,305.3 
							"/>
			<polygon fill="#3D6CB4" points="341.9,244.2 341.9,269 305.5,305.3 314.9,314.7 372.7,257 372.7,256.2 314.9,198.5 305.5,207.9 
							"/>
		</g>
	</g>
	<g opacity="0.65">
		<g>
			<polygon fill="#4374B9" points="268.5,223.6 243.5,223.6 206.9,187 197.5,196.4 255.6,254.6 256.4,254.6 314.5,196.5 305.1,187 
							"/>
			<polygon fill="#4374B9" points="268.5,288.4 243.5,288.4 206.9,325 197.5,315.6 255.6,257.4 256.4,257.4 314.5,315.5 305.1,325 
							"/>
		</g>
		<g>
			<polygon fill="#F7901E" points="169.5,269.1 169.5,244.1 206.1,207.5 196.7,198.1 138.5,256.2 138.5,257 196.6,315.1 
				206.1,305.7 			"/>
			<polygon fill="#3D6CB4" points="342.5,244.1 342.5,269.1 305.9,305.7 315.3,315.1 373.5,257 373.5,256.2 315.4,198.1 
				305.9,207.5 			"/>
		</g>
	</g>
	<g opacity="0.6625">
		<g>
			<polygon fill="#4374B9" points="268.6,223.4 243.4,223.4 206.6,186.5 197,196 255.6,254.6 256.4,254.6 315,196 305.4,186.5 			
				"/>
			<polygon fill="#4374B9" points="268.6,288.6 243.4,288.6 206.6,325.5 197,316 255.6,257.4 256.4,257.4 315,316 305.4,325.5 			
				"/>
		</g>
		<g>
			<polygon fill="#F7901E" points="168.9,269.2 168.9,244 205.7,207.2 196.2,197.6 137.6,256.2 137.6,257 196.2,315.6 205.7,306.1 
							"/>
			<polygon fill="#3D6CB4" points="343.1,244 343.1,269.2 306.3,306.1 315.8,315.6 374.4,257 374.4,256.2 315.8,197.6 306.3,207.2 
							"/>
		</g>
	</g>
	<g opacity="0.675">
		<g>
			<polygon fill="#4374B9" points="268.7,223.1 243.3,223.1 206.2,186 196.6,195.6 255.6,254.6 256.4,254.6 315.4,195.6 305.8,186 
							"/>
			<polygon fill="#4374B9" points="268.7,288.9 243.3,288.9 206.2,326 196.6,316.4 255.6,257.4 256.4,257.4 315.4,316.4 305.8,326 
							"/>
		</g>
		<g>
			<polygon fill="#F7901E" points="168.2,269.3 168.2,244 205.4,206.8 195.8,197.2 136.7,256.2 136.7,257 195.8,316 205.4,306.4 			
				"/>
			<polygon fill="#3D6CB4" points="343.8,243.9 343.8,269.3 306.6,306.4 316.2,316 375.3,257 375.3,256.2 316.2,197.2 306.6,206.8 
							"/>
		</g>
	</g>
	<g opacity="0.6875">
		<g>
			<polygon fill="#4374B9" points="268.8,222.9 243.2,222.9 205.8,185.5 196.2,195.1 255.6,254.6 256.4,254.6 315.8,195.1 
				306.2,185.5 			"/>
			<polygon fill="#4374B9" points="268.8,289.1 243.2,289.1 205.8,326.5 196.2,316.9 255.6,257.4 256.4,257.4 315.8,316.9 
				306.2,326.5 			"/>
		</g>
		<g>
			<polygon fill="#F7901E" points="167.6,269.4 167.6,243.9 205,206.4 195.3,196.8 135.9,256.2 135.9,257 195.3,316.5 205,306.8 			
				"/>
			<polygon fill="#3D6CB4" points="344.4,243.9 344.4,269.4 307,306.8 316.7,316.5 376.1,257 376.1,256.2 316.7,196.8 307,206.4 			
				"/>
		</g>
	</g>
	<g opacity="0.7">
		<g>
			<polygon fill="#4374B9" points="268.9,222.6 243.2,222.6 205.5,185 195.7,194.7 255.6,254.6 256.4,254.6 316.3,194.7 306.5,185 
							"/>
			<polygon fill="#4374B9" points="268.9,289.4 243.2,289.4 205.5,327 195.7,317.3 255.6,257.4 256.4,257.4 316.3,317.3 306.5,327 
							"/>
		</g>
		<g>
			<polygon fill="#F7901E" points="166.9,269.5 166.9,243.8 204.6,206.1 194.9,196.3 135,256.2 135,257 194.9,316.9 204.6,307.2 			
				"/>
			<polygon fill="#3D6CB4" points="345.1,243.8 345.1,269.5 307.4,307.2 317.1,316.9 377,257 377,256.2 317.1,196.3 307.4,206.1 			
				"/>
		</g>
	</g>
	<g opacity="0.7125">
		<g>
			<polygon fill="#4374B9" points="268.9,222.4 243.1,222.4 205.1,184.4 195.3,194.2 255.6,254.6 256.4,254.6 316.7,194.3 
				306.9,184.5 			"/>
			<polygon fill="#4374B9" points="268.9,289.6 243.1,289.6 205.1,327.6 195.3,317.8 255.6,257.4 256.4,257.4 316.7,317.7 
				306.9,327.5 			"/>
		</g>
		<g>
			<polygon fill="#F7901E" points="166.3,269.6 166.3,243.7 204.3,205.7 194.5,195.9 134.1,256.2 134.1,257 194.5,317.3 
				204.3,307.5 			"/>
			<polygon fill="#3D6CB4" points="345.7,243.7 345.7,269.6 307.7,307.5 317.5,317.3 377.9,257 377.9,256.2 317.5,195.9 
				307.7,205.7 			"/>
		</g>
	</g>
	<g opacity="0.725">
		<g>
			<polygon fill="#4374B9" points="269,222.2 243,222.2 204.7,183.9 194.9,193.8 255.6,254.6 256.4,254.6 317.1,193.8 307.3,183.9 
							"/>
			<polygon fill="#4374B9" points="269,289.8 243,289.8 204.7,328.1 194.9,318.2 255.6,257.4 256.4,257.4 317.1,318.2 307.3,328.1 
							"/>
		</g>
		<g>
			<polygon fill="#F7901E" points="165.7,269.7 165.7,243.6 203.9,205.4 194,195.5 133.3,256.2 133.3,257 194,317.8 203.9,307.9 			
				"/>
			<polygon fill="#3D6CB4" points="346.3,243.6 346.3,269.7 308.1,307.9 318,317.8 378.7,257 378.7,256.2 318,195.5 308.1,205.4 			
				"/>
		</g>
	</g>
	<g opacity="0.7375">
		<g>
			<polygon fill="#4374B9" points="269.1,221.9 242.9,221.9 204.4,183.4 194.4,193.4 255.6,254.6 256.4,254.6 317.6,193.4 
				307.6,183.4 			"/>
			<polygon fill="#4374B9" points="269.1,290.1 242.9,290.1 204.4,328.6 194.4,318.6 255.6,257.4 256.4,257.4 317.6,318.6 
				307.6,328.6 			"/>
		</g>
		<g>
			<polygon fill="#F7901E" points="165,269.8 165,243.5 203.5,205 193.6,195.1 132.4,256.3 132.4,257 193.6,318.2 203.5,308.3 			
				"/>
			<polygon fill="#3D6CB4" points="347,243.5 347,269.8 308.5,308.3 318.4,318.2 379.6,257 379.6,256.2 318.4,195.1 308.5,205 			
				"/>
		</g>
	</g>
	<g opacity="0.75">
		<g>
			<polygon fill="#4374B9" points="269.2,221.7 242.8,221.7 204,182.9 194,192.9 255.6,254.5 256.4,254.5 318,192.9 308,182.9 			
				"/>
			<polygon fill="#4374B9" points="269.2,290.3 242.8,290.3 204,329.1 194,319.1 255.6,257.5 256.4,257.5 318,319.1 308,329.1 			
				"/>
		</g>
		<g>
			<polygon fill="#F7901E" points="164.4,269.9 164.4,243.4 203.2,204.7 193.1,194.6 131.5,256.3 131.5,257 193.1,318.6 
				203.2,308.6 			"/>
			<polygon fill="#3D6CB4" points="347.6,243.4 347.6,269.9 308.8,308.6 318.9,318.6 380.5,257 380.5,256.2 318.9,194.6 
				308.8,204.7 			"/>
		</g>
	</g>
	<g opacity="0.7625">
		<g>
			<polygon fill="#4374B9" points="269.3,221.4 242.7,221.4 203.7,182.4 193.6,192.5 255.6,254.5 256.4,254.5 318.4,192.5 
				308.3,182.4 			"/>
			<polygon fill="#4374B9" points="269.3,290.6 242.7,290.6 203.7,329.6 193.6,319.5 255.6,257.5 256.4,257.5 318.4,319.5 
				308.3,329.6 			"/>
		</g>
		<g>
			<polygon fill="#F7901E" points="163.7,270 163.7,243.3 202.8,204.3 192.7,194.2 130.7,256.3 130.7,257 192.7,319.1 202.8,309 			
				"/>
			<polygon fill="#3D6CB4" points="348.3,243.3 348.3,269.9 309.2,309 319.3,319.1 381.3,257 381.3,256.2 319.3,194.2 309.2,204.3 
							"/>
		</g>
	</g>
	<g opacity="0.775">
		<g>
			<polygon fill="#4374B9" points="269.4,221.2 242.6,221.2 203.3,181.9 193.1,192.1 255.6,254.5 256.4,254.5 318.9,192.1 
				308.7,181.9 			"/>
			<polygon fill="#4374B9" points="269.4,290.8 242.6,290.8 203.3,330.1 193.1,319.9 255.6,257.5 256.4,257.5 318.9,319.9 
				308.7,330.1 			"/>
		</g>
		<g>
			<polygon fill="#F7901E" points="163.1,270.1 163.1,243.3 202.4,203.9 192.3,193.8 129.8,256.3 129.8,257 192.3,319.5 
				202.4,309.4 			"/>
			<polygon fill="#3D6CB4" points="348.9,243.2 348.9,270 309.6,309.4 319.7,319.5 382.2,257 382.2,256.2 319.7,193.8 309.6,203.9 
							"/>
		</g>
	</g>
	<g opacity="0.7875">
		<g>
			<polygon fill="#4374B9" points="269.5,221 242.5,221 202.9,181.4 192.7,191.6 255.6,254.5 256.4,254.5 319.3,191.6 309.1,181.4 
							"/>
			<polygon fill="#4374B9" points="269.5,291 242.5,291 202.9,330.6 192.7,320.4 255.6,257.5 256.4,257.5 319.3,320.4 309.1,330.6 
							"/>
		</g>
		<g>
			<polygon fill="#F7901E" points="162.5,270.2 162.5,243.2 202.1,203.6 191.8,193.4 128.9,256.3 128.9,257.1 191.8,319.9 
				202,309.7 			"/>
			<polygon fill="#3D6CB4" points="349.5,243.2 349.5,270.1 309.9,309.7 320.2,319.9 383.1,257 383.1,256.3 320.2,193.4 310,203.6 
							"/>
		</g>
	</g>
	<g opacity="0.8">
		<g>
			<polygon fill="#4374B9" points="269.6,220.7 242.4,220.7 202.6,180.9 192.3,191.2 255.6,254.5 256.4,254.5 319.7,191.2 
				309.4,180.9 			"/>
			<polygon fill="#4374B9" points="269.6,291.3 242.4,291.3 202.6,331.1 192.3,320.8 255.6,257.5 256.4,257.5 319.7,320.8 
				309.4,331.1 			"/>
		</g>
		<g>
			<polygon fill="#F7901E" points="161.8,270.2 161.8,243.1 201.7,203.2 191.4,192.9 128.1,256.3 128.1,257.1 191.4,320.4 
				201.7,310.1 			"/>
			<polygon fill="#3D6CB4" points="350.2,243.1 350.2,270.2 310.3,310.1 320.6,320.4 383.9,257.1 383.9,256.3 320.6,192.9 
				310.3,203.2 			"/>
		</g>
	</g>
	<g opacity="0.8125">
		<g>
			<polygon fill="#4374B9" points="269.7,220.5 242.3,220.5 202.2,180.4 191.8,190.7 255.6,254.5 256.4,254.5 320.2,190.7 
				309.8,180.4 			"/>
			<polygon fill="#4374B9" points="269.7,291.5 242.3,291.5 202.2,331.6 191.8,321.3 255.6,257.5 256.4,257.5 320.2,321.3 
				309.8,331.6 			"/>
		</g>
		<g>
			<polygon fill="#F7901E" points="161.2,270.3 161.2,243 201.3,202.9 191,192.5 127.2,256.3 127.2,257.1 190.9,320.8 201.3,310.5 
							"/>
			<polygon fill="#3D6CB4" points="350.8,243 350.8,270.3 310.7,310.5 321,320.8 384.8,257.1 384.8,256.3 321.1,192.5 310.7,202.9 
							"/>
		</g>
	</g>
	<g opacity="0.825">
		<g>
			<polygon fill="#4374B9" points="269.8,220.3 242.2,220.3 201.8,179.9 191.4,190.3 255.6,254.5 256.4,254.5 320.6,190.3 
				310.2,179.9 			"/>
			<polygon fill="#4374B9" points="269.8,291.7 242.2,291.7 201.8,332.1 191.4,321.7 255.6,257.5 256.4,257.5 320.6,321.7 
				310.2,332.1 			"/>
		</g>
		<g>
			<polygon fill="#F7901E" points="160.6,270.4 160.6,242.9 201,202.5 190.5,192.1 126.3,256.3 126.3,257.1 190.5,321.3 
				200.9,310.8 			"/>
			<polygon fill="#3D6CB4" points="351.4,242.9 351.4,270.4 311,310.8 321.5,321.3 385.7,257.1 385.7,256.3 321.5,192.1 
				311.1,202.5 			"/>
		</g>
	</g>
	<g opacity="0.8375">
		<g>
			<polygon fill="#4374B9" points="269.9,220 242.1,220 201.5,179.4 191,189.9 255.6,254.5 256.4,254.5 321,189.9 310.5,179.4 			
				"/>
			<polygon fill="#4374B9" points="269.9,292 242.1,292 201.5,332.6 191,322.1 255.6,257.5 256.4,257.5 321,322.1 310.5,332.6 			
				"/>
		</g>
		<g>
			<polygon fill="#F7901E" points="159.9,270.5 159.9,242.8 200.6,202.1 190.1,191.6 125.5,256.3 125.5,257.1 190.1,321.7 
				200.6,311.2 			"/>
			<polygon fill="#3D6CB4" points="352.1,242.8 352.1,270.5 311.4,311.2 321.9,321.7 386.5,257.1 386.5,256.3 321.9,191.6 
				311.4,202.1 			"/>
		</g>
	</g>
	<g opacity="0.85">
		<g>
			<polygon fill="#4374B9" points="270,219.8 242,219.8 201.1,178.8 190.5,189.4 255.6,254.5 256.4,254.5 321.5,189.4 310.9,178.8 
							"/>
			<polygon fill="#4374B9" points="270,292.2 242,292.2 201.1,333.2 190.5,322.6 255.6,257.5 256.4,257.5 321.5,322.6 310.9,333.2 
							"/>
		</g>
		<g>
			<polygon fill="#F7901E" points="159.3,270.6 159.3,242.7 200.2,201.8 189.6,191.2 124.6,256.3 124.6,257.1 189.6,322.1 
				200.2,311.6 			"/>
			<polygon fill="#3D6CB4" points="352.7,242.7 352.7,270.6 311.8,311.6 322.4,322.1 387.4,257.1 387.4,256.3 322.4,191.2 
				311.8,201.8 			"/>
		</g>
	</g>
	<g opacity="0.8625">
		<g>
			<polygon fill="#4374B9" points="270.1,219.5 242,219.5 200.8,178.3 190.1,189 255.6,254.5 256.4,254.5 321.9,189 311.2,178.3 			
				"/>
			<polygon fill="#4374B9" points="270.1,292.5 242,292.5 200.8,333.7 190.1,323 255.6,257.5 256.4,257.5 321.9,323 311.2,333.7 			
				"/>
		</g>
		<g>
			<polygon fill="#F7901E" points="158.6,270.7 158.6,242.6 199.8,201.4 189.2,190.8 123.7,256.3 123.7,257.1 189.2,322.6 
				199.8,311.9 			"/>
			<polygon fill="#3D6CB4" points="353.4,242.6 353.4,270.7 312.2,311.9 322.8,322.6 388.3,257.1 388.3,256.3 322.8,190.8 
				312.2,201.4 			"/>
		</g>
	</g>
	<g opacity="0.875">
		<g>
			<polygon fill="#4374B9" points="270.1,219.3 241.9,219.3 200.4,177.8 189.7,188.5 255.6,254.4 256.4,254.4 322.3,188.5 
				311.6,177.8 			"/>
			<polygon fill="#4374B9" points="270.1,292.7 241.9,292.7 200.4,334.2 189.7,323.5 255.6,257.6 256.4,257.6 322.3,323.5 
				311.6,334.2 			"/>
		</g>
		<g>
			<polygon fill="#F7901E" points="158,270.8 158,242.5 199.5,201.1 188.8,190.4 122.9,256.3 122.9,257.1 188.8,323 199.5,312.3 			
				"/>
			<polygon fill="#3D6CB4" points="354,242.5 354,270.8 312.5,312.3 323.2,323 389.1,257.1 389.1,256.3 323.2,190.4 312.5,201.1 			
				"/>
		</g>
	</g>
	<g opacity="0.8875">
		<g>
			<polygon fill="#4374B9" points="270.2,219.1 241.8,219.1 200,177.3 189.2,188.1 255.6,254.4 256.4,254.4 322.8,188.1 312,177.3 
							"/>
			<polygon fill="#4374B9" points="270.2,292.9 241.8,292.9 200,334.7 189.2,323.9 255.6,257.6 256.4,257.6 322.8,323.9 312,334.7 
							"/>
		</g>
		<g>
			<polygon fill="#F7901E" points="157.4,270.9 157.4,242.5 199.1,200.7 188.3,189.9 122,256.3 122,257.1 188.3,323.4 199.1,312.7 
							"/>
			<polygon fill="#3D6CB4" points="354.6,242.5 354.6,270.9 312.9,312.7 323.7,323.4 390,257.1 390,256.3 323.7,189.9 312.9,200.7 
							"/>
		</g>
	</g>
	<g opacity="0.9">
		<g>
			<polygon fill="#4374B9" points="270.3,218.8 241.7,218.8 199.7,176.8 188.8,187.7 255.6,254.4 256.4,254.4 323.2,187.7 
				312.3,176.8 			"/>
			<polygon fill="#4374B9" points="270.3,293.2 241.7,293.2 199.7,335.2 188.8,324.3 255.6,257.6 256.4,257.6 323.2,324.3 
				312.3,335.2 			"/>
		</g>
		<g>
			<polygon fill="#F7901E" points="156.7,271 156.7,242.4 198.7,200.4 187.9,189.5 121.1,256.3 121.1,257.1 187.9,323.9 198.7,313 
							"/>
			<polygon fill="#3D6CB4" points="355.3,242.4 355.3,271 313.3,313 324.1,323.9 390.9,257.1 390.9,256.3 324.1,189.5 313.3,200.4 
							"/>
		</g>
	</g>
	<g opacity="0.9125">
		<g>
			<polygon fill="#4374B9" points="270.4,218.6 241.6,218.6 199.3,176.3 188.4,187.2 255.6,254.4 256.4,254.4 323.6,187.2 
				312.7,176.3 			"/>
			<polygon fill="#4374B9" points="270.4,293.4 241.6,293.4 199.3,335.7 188.4,324.8 255.6,257.6 256.4,257.6 323.6,324.8 
				312.7,335.7 			"/>
		</g>
		<g>
			<polygon fill="#F7901E" points="156.1,271.1 156.1,242.3 198.4,200 187.5,189.1 120.3,256.3 120.3,257.1 187.4,324.3 
				198.4,313.4 			"/>
			<polygon fill="#3D6CB4" points="355.9,242.3 355.9,271.1 313.6,313.4 324.5,324.3 391.7,257.1 391.7,256.3 324.6,189.1 
				313.6,200 			"/>
		</g>
	</g>
	<g opacity="0.925">
		<g>
			<polygon fill="#4374B9" points="270.5,218.3 241.5,218.3 198.9,175.8 188,186.8 255.6,254.4 256.4,254.4 324,186.8 313.1,175.8 
							"/>
			<polygon fill="#4374B9" points="270.5,293.7 241.5,293.7 198.9,336.2 188,325.2 255.6,257.6 256.4,257.6 324,325.2 313.1,336.2 
							"/>
		</g>
		<g>
			<polygon fill="#F7901E" points="155.4,271.2 155.4,242.2 198,199.6 187,188.7 119.4,256.3 119.4,257.1 187,324.8 198,313.8 			
				"/>
			<polygon fill="#3D6CB4" points="356.6,242.2 356.6,271.2 314,313.8 325,324.8 392.6,257.1 392.6,256.3 325,188.7 314,199.6 			
				"/>
		</g>
	</g>
	<g opacity="0.9375">
		<g>
			<polygon fill="#4374B9" points="270.6,218.1 241.4,218.1 198.6,175.3 187.5,186.3 255.6,254.4 256.4,254.4 324.5,186.3 
				313.4,175.3 			"/>
			<polygon fill="#4374B9" points="270.6,293.9 241.4,293.9 198.6,336.7 187.5,325.7 255.6,257.6 256.4,257.6 324.5,325.7 
				313.4,336.7 			"/>
		</g>
		<g>
			<polygon fill="#F7901E" points="154.8,271.3 154.8,242.1 197.6,199.3 186.6,188.2 118.5,256.3 118.5,257.1 186.6,325.2 
				197.6,314.1 			"/>
			<polygon fill="#3D6CB4" points="357.2,242.1 357.2,271.3 314.4,314.1 325.4,325.2 393.5,257.1 393.5,256.3 325.4,188.2 
				314.4,199.3 			"/>
		</g>
	</g>
	<g opacity="0.95">
		<g>
			<polygon fill="#4374B9" points="270.7,217.9 241.3,217.9 198.2,174.8 187.1,185.9 255.6,254.4 256.4,254.4 324.9,185.9 
				313.8,174.8 			"/>
			<polygon fill="#4374B9" points="270.7,294.1 241.3,294.1 198.2,337.2 187.1,326.1 255.6,257.6 256.4,257.6 324.9,326.1 
				313.8,337.2 			"/>
		</g>
		<g>
			<polygon fill="#F7901E" points="154.2,271.4 154.2,242 197.3,198.9 186.1,187.8 117.7,256.3 117.7,257.1 186.1,325.6 
				197.3,314.5 			"/>
			<polygon fill="#3D6CB4" points="357.8,242 357.8,271.4 314.7,314.5 325.9,325.6 394.3,257.1 394.3,256.3 325.9,187.8 
				314.7,198.9 			"/>
		</g>
	</g>
	<g opacity="0.9625">
		<g>
			<polygon fill="#4374B9" points="270.8,217.6 241.2,217.6 197.9,174.3 186.7,185.5 255.6,254.4 256.4,254.4 325.3,185.5 
				314.1,174.3 			"/>
			<polygon fill="#4374B9" points="270.8,294.4 241.2,294.4 197.9,337.7 186.7,326.5 255.6,257.6 256.4,257.6 325.3,326.5 
				314.1,337.7 			"/>
		</g>
		<g>
			<polygon fill="#F7901E" points="153.5,271.5 153.5,241.9 196.9,198.6 185.7,187.4 116.8,256.3 116.8,257.2 185.7,326.1 
				196.9,314.9 			"/>
			<polygon fill="#3D6CB4" points="358.5,241.9 358.5,271.5 315.1,314.9 326.3,326.1 395.2,257.1 395.2,256.3 326.3,187.4 
				315.1,198.6 			"/>
		</g>
	</g>
	<g opacity="0.975">
		<g>
			<polygon fill="#4374B9" points="270.9,217.4 241.1,217.4 197.5,173.7 186.2,185 255.6,254.4 256.4,254.4 325.8,185 314.5,173.8 
							"/>
			<polygon fill="#4374B9" points="270.9,294.6 241.1,294.6 197.5,338.3 186.2,327 255.6,257.6 256.4,257.6 325.8,327 314.5,338.2 
							"/>
		</g>
		<g>
			<polygon fill="#F7901E" points="152.9,271.6 152.9,241.8 196.5,198.2 185.3,186.9 115.9,256.3 115.9,257.2 185.3,326.5 
				196.5,315.2 			"/>
			<polygon fill="#3D6CB4" points="359.1,241.8 359.1,271.6 315.5,315.2 326.7,326.5 396.1,257.2 396.1,256.3 326.7,186.9 
				315.5,198.2 			"/>
		</g>
	</g>
	<g opacity="0.9875">
		<g>
			<polygon fill="#4374B9" points="271,217.1 241,217.1 197.1,173.2 185.8,184.6 255.6,254.4 256.4,254.4 326.2,184.6 314.9,173.2 
							"/>
			<polygon fill="#4374B9" points="271,294.9 241,294.9 197.1,338.8 185.8,327.4 255.6,257.6 256.4,257.6 326.2,327.4 314.9,338.8 
							"/>
		</g>
		<g>
			<polygon fill="#F7901E" points="152.3,271.7 152.3,241.8 196.2,197.9 184.8,186.5 115,256.3 115,257.2 184.8,326.9 196.2,315.6 
							"/>
			<polygon fill="#3D6CB4" points="359.7,241.8 359.7,271.7 315.8,315.6 327.2,326.9 397,257.2 397,256.3 327.2,186.5 315.8,197.9 
							"/>
		</g>
	</g>
	<g>
		<g>
			<polygon fill="#4374B9" points="271.1,216.9 240.9,216.9 196.8,172.7 185.4,184.1 255.6,254.3 256.4,254.3 326.6,184.1 
				315.2,172.7 			"/>
			<polygon fill="#4374B9" points="271.1,295.1 240.9,295.1 196.8,339.3 185.4,327.9 255.6,257.7 256.4,257.7 326.6,327.9 
				315.2,339.3 			"/>
		</g>
		<g>
			<polygon fill="#F7901E" points="151.6,271.8 151.6,241.7 195.8,197.5 184.4,186.1 114.2,256.3 114.2,257.2 184.4,327.4 
				195.8,316 			"/>
			<polygon fill="#3D6CB4" points="360.4,241.7 360.4,271.8 316.2,316 327.6,327.4 397.8,257.2 397.8,256.3 327.6,186.1 
				316.2,197.5 			"/>
		</g>
	</g>
	<g>
		<g>
			<polygon fill="#4374B9" points="271.1,216.9 240.9,216.9 196.8,172.7 185.4,184.1 255.6,254.3 256.4,254.3 326.6,184.1 
				315.2,172.7 			"/>
			<polygon fill="#4374B9" points="271.1,295.1 240.9,295.1 196.8,339.3 185.4,327.9 255.6,257.7 256.4,257.7 326.6,327.9 
				315.2,339.3 			"/>
		</g>
		<g>
			<polygon fill="#F7901E" points="151.6,271.8 151.6,241.7 195.8,197.5 184.4,186.1 114.2,256.3 114.2,257.2 184.4,327.4 
				195.8,316 			"/>
			<polygon fill="#3D6CB4" points="360.4,241.7 360.4,271.8 316.2,316 327.6,327.4 397.8,257.2 397.8,256.3 327.6,186.1 
				316.2,197.5 			"/>
		</g>
	</g>
	<g>
		<g>
			<polygon fill="#4374B9" points="271.1,216.9 240.9,216.9 196.8,172.7 185.4,184.1 255.6,254.3 256.4,254.3 326.6,184.1 
				315.2,172.7 			"/>
			<polygon fill="#4374B9" points="271.1,295.1 240.9,295.1 196.8,339.3 185.4,327.9 255.6,257.7 256.4,257.7 326.6,327.9 
				315.2,339.3 			"/>
		</g>
		<g>
			<polygon fill="#F7901E" points="151.6,271.8 151.6,241.7 195.8,197.5 184.4,186.1 114.2,256.3 114.2,257.2 184.4,327.4 
				195.8,316 			"/>
			<polygon fill="#3D6CB4" points="360.4,241.7 360.4,271.8 316.2,316 327.6,327.4 397.8,257.2 397.8,256.3 327.6,186.1 
				316.2,197.5 			"/>
		</g>
	</g>
	<g>
		<g>
			<polygon fill="#4374B9" points="271.1,216.9 240.9,216.9 196.8,172.7 185.4,184.1 255.6,254.3 256.4,254.3 326.6,184.1 
				315.2,172.7 			"/>
			<polygon fill="#4374B9" points="271.1,295.1 240.9,295.1 196.8,339.3 185.4,327.9 255.6,257.7 256.4,257.7 326.6,327.9 
				315.2,339.3 			"/>
		</g>
		<g>
			<polygon fill="#F7901E" points="151.6,271.8 151.6,241.7 195.8,197.5 184.4,186.1 114.2,256.3 114.2,257.2 184.4,327.4 
				195.8,316 			"/>
			<polygon fill="#3D6CB4" points="360.4,241.7 360.4,271.8 316.2,316 327.6,327.4 397.8,257.2 397.8,256.3 327.6,186.1 
				316.2,197.5 			"/>
		</g>
	</g>
	<g>
		<g>
			<polygon fill="#4374B9" points="271.1,216.9 240.9,216.9 196.8,172.7 185.4,184.1 255.6,254.3 256.4,254.3 326.6,184.1 
				315.2,172.7 			"/>
			<polygon fill="#4374B9" points="271.1,295.1 240.9,295.1 196.8,339.3 185.4,327.9 255.6,257.7 256.4,257.7 326.6,327.9 
				315.2,339.3 			"/>
		</g>
		<g>
			<polygon fill="#F7901E" points="151.6,271.8 151.6,241.7 195.8,197.5 184.4,186.1 114.2,256.3 114.2,257.2 184.4,327.4 
				195.8,316 			"/>
			<polygon fill="#3D6CB4" points="360.4,241.7 360.4,271.8 316.2,316 327.6,327.4 397.8,257.2 397.8,256.3 327.6,186.1 
				316.2,197.5 			"/>
		</g>
	</g>
	<g>
		<g>
			<polygon fill="#4374B9" points="271.1,216.9 240.9,216.9 196.8,172.7 185.4,184.1 255.6,254.3 256.4,254.3 326.6,184.1 
				315.2,172.7 			"/>
			<polygon fill="#4374B9" points="271.1,295.1 240.9,295.1 196.8,339.3 185.4,327.9 255.6,257.7 256.4,257.7 326.6,327.9 
				315.2,339.3 			"/>
		</g>
		<g>
			<polygon fill="#F7901E" points="151.6,271.8 151.6,241.7 195.8,197.5 184.4,186.1 114.2,256.3 114.2,257.2 184.4,327.4 
				195.8,316 			"/>
			<polygon fill="#3D6CB4" points="360.4,241.7 360.4,271.8 316.2,316 327.6,327.4 397.8,257.2 397.8,256.3 327.6,186.1 
				316.2,197.5 			"/>
		</g>
	</g>
	<g>
		<g>
			<polygon fill="#4374B9" points="271.1,216.9 240.9,216.9 196.8,172.7 185.4,184.1 255.6,254.3 256.4,254.3 326.6,184.1 
				315.2,172.7 			"/>
			<polygon fill="#4374B9" points="271.1,295.1 240.9,295.1 196.8,339.3 185.4,327.9 255.6,257.7 256.4,257.7 326.6,327.9 
				315.2,339.3 			"/>
		</g>
		<g>
			<polygon fill="#F7901E" points="151.6,271.8 151.6,241.7 195.8,197.5 184.4,186.1 114.2,256.3 114.2,257.2 184.4,327.4 
				195.8,316 			"/>
			<polygon fill="#3D6CB4" points="360.4,241.7 360.4,271.8 316.2,316 327.6,327.4 397.8,257.2 397.8,256.3 327.6,186.1 
				316.2,197.5 			"/>
		</g>
	</g>
	<g>
		<g>
			<polygon fill="#4374B9" points="271.1,216.9 240.9,216.9 196.8,172.7 185.4,184.1 255.6,254.3 256.4,254.3 326.6,184.1 
				315.2,172.7 			"/>
			<polygon fill="#4374B9" points="271.1,295.1 240.9,295.1 196.8,339.3 185.4,327.9 255.6,257.7 256.4,257.7 326.6,327.9 
				315.2,339.3 			"/>
		</g>
		<g>
			<polygon fill="#F7901E" points="151.6,271.8 151.6,241.7 195.8,197.5 184.4,186.1 114.2,256.3 114.2,257.2 184.4,327.4 
				195.8,316 			"/>
			<polygon fill="#3D6CB4" points="360.4,241.7 360.4,271.8 316.2,316 327.6,327.4 397.8,257.2 397.8,256.3 327.6,186.1 
				316.2,197.5 			"/>
		</g>
	</g>
	<g>
		<g>
			<polygon fill="#4374B9" points="271.1,216.9 240.9,216.9 196.8,172.7 185.4,184.1 255.6,254.3 256.4,254.3 326.6,184.1 
				315.2,172.7 			"/>
			<polygon fill="#4374B9" points="271.1,295.1 240.9,295.1 196.8,339.3 185.4,327.9 255.6,257.7 256.4,257.7 326.6,327.9 
				315.2,339.3 			"/>
		</g>
		<g>
			<polygon fill="#F7901E" points="151.6,271.8 151.6,241.7 195.8,197.5 184.4,186.1 114.2,256.3 114.2,257.2 184.4,327.4 
				195.8,316 			"/>
			<polygon fill="#3D6CB4" points="360.4,241.7 360.4,271.8 316.2,316 327.6,327.4 397.8,257.2 397.8,256.3 327.6,186.1 
				316.2,197.5 			"/>
		</g>
	</g>
	<g>
		<g>
			<polygon fill="#4374B9" points="271.1,216.9 240.9,216.9 196.8,172.7 185.4,184.1 255.6,254.3 256.4,254.3 326.6,184.1 
				315.2,172.7 			"/>
			<polygon fill="#4374B9" points="271.1,295.1 240.9,295.1 196.8,339.3 185.4,327.9 255.6,257.7 256.4,257.7 326.6,327.9 
				315.2,339.3 			"/>
		</g>
		<g>
			<polygon fill="#F7901E" points="151.6,271.8 151.6,241.7 195.8,197.5 184.4,186.1 114.2,256.3 114.2,257.2 184.4,327.4 
				195.8,316 			"/>
			<polygon fill="#3D6CB4" points="360.4,241.7 360.4,271.8 316.2,316 327.6,327.4 397.8,257.2 397.8,256.3 327.6,186.1 
				316.2,197.5 			"/>
		</g>
	</g>
	<g>
		<g>
			<polygon fill="#4374B9" points="271.1,216.9 240.9,216.9 196.8,172.7 185.4,184.1 255.6,254.3 256.4,254.3 326.6,184.1 
				315.2,172.7 			"/>
			<polygon fill="#4374B9" points="271.1,295.1 240.9,295.1 196.8,339.3 185.4,327.9 255.6,257.7 256.4,257.7 326.6,327.9 
				315.2,339.3 			"/>
		</g>
		<g>
			<polygon fill="#F7901E" points="151.6,271.8 151.6,241.7 195.8,197.5 184.4,186.1 114.2,256.3 114.2,257.2 184.4,327.4 
				195.8,316 			"/>
			<polygon fill="#3D6CB4" points="360.4,241.7 360.4,271.8 316.2,316 327.6,327.4 397.8,257.2 397.8,256.3 327.6,186.1 
				316.2,197.5 			"/>
		</g>
	</g>
	<g>
		<g>
			<polygon fill="#4374B9" points="271.1,216.9 240.9,216.9 196.8,172.7 185.4,184.1 255.6,254.3 256.4,254.3 326.6,184.1 
				315.2,172.7 			"/>
			<polygon fill="#4374B9" points="271.1,295.1 240.9,295.1 196.8,339.3 185.4,327.9 255.6,257.7 256.4,257.7 326.6,327.9 
				315.2,339.3 			"/>
		</g>
		<g>
			<polygon fill="#F7901E" points="151.6,271.8 151.6,241.7 195.8,197.5 184.4,186.1 114.2,256.3 114.2,257.2 184.4,327.4 
				195.8,316 			"/>
			<polygon fill="#3D6CB4" points="360.4,241.7 360.4,271.8 316.2,316 327.6,327.4 397.8,257.2 397.8,256.3 327.6,186.1 
				316.2,197.5 			"/>
		</g>
	</g>
	<g>
		<g>
			<polygon fill="#4374B9" points="271.1,216.9 240.9,216.9 196.8,172.7 185.4,184.1 255.6,254.3 256.4,254.3 326.6,184.1 
				315.2,172.7 			"/>
			<polygon fill="#4374B9" points="271.1,295.1 240.9,295.1 196.8,339.3 185.4,327.9 255.6,257.7 256.4,257.7 326.6,327.9 
				315.2,339.3 			"/>
		</g>
		<g>
			<polygon fill="#F7901E" points="151.6,271.8 151.6,241.7 195.8,197.5 184.4,186.1 114.2,256.3 114.2,257.2 184.4,327.4 
				195.8,316 			"/>
			<polygon fill="#3D6CB4" points="360.4,241.7 360.4,271.8 316.2,316 327.6,327.4 397.8,257.2 397.8,256.3 327.6,186.1 
				316.2,197.5 			"/>
		</g>
	</g>
	<g>
		<g>
			<polygon fill="#4374B9" points="271.1,216.9 240.9,216.9 196.8,172.7 185.4,184.1 255.6,254.3 256.4,254.3 326.6,184.1 
				315.2,172.7 			"/>
			<polygon fill="#4374B9" points="271.1,295.1 240.9,295.1 196.8,339.3 185.4,327.9 255.6,257.7 256.4,257.7 326.6,327.9 
				315.2,339.3 			"/>
		</g>
		<g>
			<polygon fill="#F7901E" points="151.6,271.8 151.6,241.7 195.8,197.5 184.4,186.1 114.2,256.3 114.2,257.2 184.4,327.4 
				195.8,316 			"/>
			<polygon fill="#3D6CB4" points="360.4,241.7 360.4,271.8 316.2,316 327.6,327.4 397.8,257.2 397.8,256.3 327.6,186.1 
				316.2,197.5 			"/>
		</g>
	</g>
	<g>
		<g>
			<polygon fill="#4374B9" points="271.1,216.9 240.9,216.9 196.8,172.7 185.4,184.1 255.6,254.3 256.4,254.3 326.6,184.1 
				315.2,172.7 			"/>
			<polygon fill="#4374B9" points="271.1,295.1 240.9,295.1 196.8,339.3 185.4,327.9 255.6,257.7 256.4,257.7 326.6,327.9 
				315.2,339.3 			"/>
		</g>
		<g>
			<polygon fill="#F7901E" points="151.6,271.8 151.6,241.7 195.8,197.5 184.4,186.1 114.2,256.3 114.2,257.2 184.4,327.4 
				195.8,316 			"/>
			<polygon fill="#3D6CB4" points="360.4,241.7 360.4,271.8 316.2,316 327.6,327.4 397.8,257.2 397.8,256.3 327.6,186.1 
				316.2,197.5 			"/>
		</g>
	</g>
	<g>
		<g>
			<polygon fill="#4374B9" points="271.1,216.9 240.9,216.9 196.8,172.7 185.4,184.1 255.6,254.3 256.4,254.3 326.6,184.1 
				315.2,172.7 			"/>
			<polygon fill="#4374B9" points="271.1,295.1 240.9,295.1 196.8,339.3 185.4,327.9 255.6,257.7 256.4,257.7 326.6,327.9 
				315.2,339.3 			"/>
		</g>
		<g>
			<polygon fill="#F7901E" points="151.6,271.8 151.6,241.7 195.8,197.5 184.4,186.1 114.2,256.3 114.2,257.2 184.4,327.4 
				195.8,316 			"/>
			<polygon fill="#3D6CB4" points="360.4,241.7 360.4,271.8 316.2,316 327.6,327.4 397.8,257.2 397.8,256.3 327.6,186.1 
				316.2,197.5 			"/>
		</g>
	</g>
	<g>
		<g>
			<polygon fill="#4374B9" points="271.1,216.9 240.9,216.9 196.8,172.7 185.4,184.1 255.6,254.3 256.4,254.3 326.6,184.1 
				315.2,172.7 			"/>
			<polygon fill="#4374B9" points="271.1,295.1 240.9,295.1 196.8,339.3 185.4,327.9 255.6,257.7 256.4,257.7 326.6,327.9 
				315.2,339.3 			"/>
		</g>
		<g>
			<polygon fill="#F7901E" points="151.6,271.8 151.6,241.7 195.8,197.5 184.4,186.1 114.2,256.3 114.2,257.2 184.4,327.4 
				195.8,316 			"/>
			<polygon fill="#3D6CB4" points="360.4,241.7 360.4,271.8 316.2,316 327.6,327.4 397.8,257.2 397.8,256.3 327.6,186.1 
				316.2,197.5 			"/>
		</g>
	</g>
	<g>
		<g>
			<polygon fill="#4374B9" points="271.1,216.9 240.9,216.9 196.8,172.7 185.4,184.1 255.6,254.3 256.4,254.3 326.6,184.1 
				315.2,172.7 			"/>
			<polygon fill="#4374B9" points="271.1,295.1 240.9,295.1 196.8,339.3 185.4,327.9 255.6,257.7 256.4,257.7 326.6,327.9 
				315.2,339.3 			"/>
		</g>
		<g>
			<polygon fill="#F7901E" points="151.6,271.8 151.6,241.7 195.8,197.5 184.4,186.1 114.2,256.3 114.2,257.2 184.4,327.4 
				195.8,316 			"/>
			<polygon fill="#3D6CB4" points="360.4,241.7 360.4,271.8 316.2,316 327.6,327.4 397.8,257.2 397.8,256.3 327.6,186.1 
				316.2,197.5 			"/>
		</g>
	</g>
	<g>
		<g>
			<polygon fill="#4374B9" points="271.1,216.9 240.9,216.9 196.8,172.7 185.4,184.1 255.6,254.3 256.4,254.3 326.6,184.1 
				315.2,172.7 			"/>
			<polygon fill="#4374B9" points="271.1,295.1 240.9,295.1 196.8,339.3 185.4,327.9 255.6,257.7 256.4,257.7 326.6,327.9 
				315.2,339.3 			"/>
		</g>
		<g>
			<polygon fill="#F7901E" points="151.6,271.8 151.6,241.7 195.8,197.5 184.4,186.1 114.2,256.3 114.2,257.2 184.4,327.4 
				195.8,316 			"/>
			<polygon fill="#3D6CB4" points="360.4,241.7 360.4,271.8 316.2,316 327.6,327.4 397.8,257.2 397.8,256.3 327.6,186.1 
				316.2,197.5 			"/>
		</g>
	</g>
	<g>
		<g>
			<polygon fill="#4374B9" points="271.1,216.9 240.9,216.9 196.8,172.7 185.4,184.1 255.6,254.3 256.4,254.3 326.6,184.1 
				315.2,172.7 			"/>
			<polygon fill="#4374B9" points="271.1,295.1 240.9,295.1 196.8,339.3 185.4,327.9 255.6,257.7 256.4,257.7 326.6,327.9 
				315.2,339.3 			"/>
		</g>
		<g>
			<polygon fill="#F7901E" points="151.6,271.8 151.6,241.7 195.8,197.5 184.4,186.1 114.2,256.3 114.2,257.2 184.4,327.4 
				195.8,316 			"/>
			<polygon fill="#3D6CB4" points="360.4,241.7 360.4,271.8 316.2,316 327.6,327.4 397.8,257.2 397.8,256.3 327.6,186.1 
				316.2,197.5 			"/>
		</g>
	</g>
	<g>
		<g>
			<polygon fill="#4374B9" points="271.1,216.9 240.9,216.9 196.8,172.7 185.4,184.1 255.6,254.3 256.4,254.3 326.6,184.1 
				315.2,172.7 			"/>
			<polygon fill="#4374B9" points="271.1,295.1 240.9,295.1 196.8,339.3 185.4,327.9 255.6,257.7 256.4,257.7 326.6,327.9 
				315.2,339.3 			"/>
		</g>
		<g>
			<polygon fill="#F7901E" points="151.6,271.8 151.6,241.7 195.8,197.5 184.4,186.1 114.2,256.3 114.2,257.2 184.4,327.4 
				195.8,316 			"/>
			<polygon fill="#3D6CB4" points="360.4,241.7 360.4,271.8 316.2,316 327.6,327.4 397.8,257.2 397.8,256.3 327.6,186.1 
				316.2,197.5 			"/>
		</g>
	</g>
	<g>
		<g>
			<polygon fill="#4374B9" points="271.1,216.9 240.9,216.9 196.8,172.7 185.4,184.1 255.6,254.3 256.4,254.3 326.6,184.1 
				315.2,172.7 			"/>
			<polygon fill="#4374B9" points="271.1,295.1 240.9,295.1 196.8,339.3 185.4,327.9 255.6,257.7 256.4,257.7 326.6,327.9 
				315.2,339.3 			"/>
		</g>
		<g>
			<polygon fill="#F7901E" points="151.6,271.8 151.6,241.7 195.8,197.5 184.4,186.1 114.2,256.3 114.2,257.2 184.4,327.4 
				195.8,316 			"/>
			<polygon fill="#3D6CB4" points="360.4,241.7 360.4,271.8 316.2,316 327.6,327.4 397.8,257.2 397.8,256.3 327.6,186.1 
				316.2,197.5 			"/>
		</g>
	</g>
	<g>
		<g>
			<polygon fill="#4374B9" points="271.1,216.9 240.9,216.9 196.8,172.7 185.4,184.1 255.6,254.3 256.4,254.3 326.6,184.1 
				315.2,172.7 			"/>
			<polygon fill="#4374B9" points="271.1,295.1 240.9,295.1 196.8,339.3 185.4,327.9 255.6,257.7 256.4,257.7 326.6,327.9 
				315.2,339.3 			"/>
		</g>
		<g>
			<polygon fill="#F7901E" points="151.6,271.8 151.6,241.7 195.8,197.5 184.4,186.1 114.2,256.3 114.2,257.2 184.4,327.4 
				195.8,316 			"/>
			<polygon fill="#3D6CB4" points="360.4,241.7 360.4,271.8 316.2,316 327.6,327.4 397.8,257.2 397.8,256.3 327.6,186.1 
				316.2,197.5 			"/>
		</g>
	</g>
	<g>
		<g>
			<polygon fill="#4374B9" points="271.1,216.9 240.9,216.9 196.8,172.7 185.4,184.1 255.6,254.3 256.4,254.3 326.6,184.1 
				315.2,172.7 			"/>
			<polygon fill="#4374B9" points="271.1,295.1 240.9,295.1 196.8,339.3 185.4,327.9 255.6,257.7 256.4,257.7 326.6,327.9 
				315.2,339.3 			"/>
		</g>
		<g>
			<polygon fill="#F7901E" points="151.6,271.8 151.6,241.7 195.8,197.5 184.4,186.1 114.2,256.3 114.2,257.2 184.4,327.4 
				195.8,316 			"/>
			<polygon fill="#3D6CB4" points="360.4,241.7 360.4,271.8 316.2,316 327.6,327.4 397.8,257.2 397.8,256.3 327.6,186.1 
				316.2,197.5 			"/>
		</g>
	</g>
	<g>
		<g>
			<polygon fill="#4374B9" points="271.1,216.9 240.9,216.9 196.8,172.7 185.4,184.1 255.6,254.3 256.4,254.3 326.6,184.1 
				315.2,172.7 			"/>
			<polygon fill="#4374B9" points="271.1,295.1 240.9,295.1 196.8,339.3 185.4,327.9 255.6,257.7 256.4,257.7 326.6,327.9 
				315.2,339.3 			"/>
		</g>
		<g>
			<polygon fill="#F7901E" points="151.6,271.8 151.6,241.7 195.8,197.5 184.4,186.1 114.2,256.3 114.2,257.2 184.4,327.4 
				195.8,316 			"/>
			<polygon fill="#3D6CB4" points="360.4,241.7 360.4,271.8 316.2,316 327.6,327.4 397.8,257.2 397.8,256.3 327.6,186.1 
				316.2,197.5 			"/>
		</g>
	</g>
	<g>
		<g>
			<polygon fill="#4374B9" points="271.1,216.9 240.9,216.9 196.8,172.7 185.4,184.1 255.6,254.3 256.4,254.3 326.6,184.1 
				315.2,172.7 			"/>
			<polygon fill="#4374B9" points="271.1,295.1 240.9,295.1 196.8,339.3 185.4,327.9 255.6,257.7 256.4,257.7 326.6,327.9 
				315.2,339.3 			"/>
		</g>
		<g>
			<polygon fill="#F7901E" points="151.6,271.8 151.6,241.7 195.8,197.5 184.4,186.1 114.2,256.3 114.2,257.2 184.4,327.4 
				195.8,316 			"/>
			<polygon fill="#3D6CB4" points="360.4,241.7 360.4,271.8 316.2,316 327.6,327.4 397.8,257.2 397.8,256.3 327.6,186.1 
				316.2,197.5 			"/>
		</g>
	</g>
	<g>
		<g>
			<polygon fill="#4374B9" points="271.1,216.9 240.9,216.9 196.8,172.7 185.4,184.1 255.6,254.3 256.4,254.3 326.6,184.1 
				315.2,172.7 			"/>
			<polygon fill="#4374B9" points="271.1,295.1 240.9,295.1 196.8,339.3 185.4,327.9 255.6,257.7 256.4,257.7 326.6,327.9 
				315.2,339.3 			"/>
		</g>
		<g>
			<polygon fill="#F7901E" points="151.6,271.8 151.6,241.7 195.8,197.5 184.4,186.1 114.2,256.3 114.2,257.2 184.4,327.4 
				195.8,316 			"/>
			<polygon fill="#3D6CB4" points="360.4,241.7 360.4,271.8 316.2,316 327.6,327.4 397.8,257.2 397.8,256.3 327.6,186.1 
				316.2,197.5 			"/>
		</g>
	</g>
	<g>
		<g>
			<polygon fill="#4374B9" points="271.1,216.9 240.9,216.9 196.8,172.7 185.4,184.1 255.6,254.3 256.4,254.3 326.6,184.1 
				315.2,172.7 			"/>
			<polygon fill="#4374B9" points="271.1,295.1 240.9,295.1 196.8,339.3 185.4,327.9 255.6,257.7 256.4,257.7 326.6,327.9 
				315.2,339.3 			"/>
		</g>
		<g>
			<polygon fill="#F7901E" points="151.6,271.8 151.6,241.7 195.8,197.5 184.4,186.1 114.2,256.3 114.2,257.2 184.4,327.4 
				195.8,316 			"/>
			<polygon fill="#3D6CB4" points="360.4,241.7 360.4,271.8 316.2,316 327.6,327.4 397.8,257.2 397.8,256.3 327.6,186.1 
				316.2,197.5 			"/>
		</g>
	</g>
	<g>
		<g>
			<polygon fill="#4374B9" points="271.1,216.9 240.9,216.9 196.8,172.7 185.4,184.1 255.6,254.3 256.4,254.3 326.6,184.1 
				315.2,172.7 			"/>
			<polygon fill="#4374B9" points="271.1,295.1 240.9,295.1 196.8,339.3 185.4,327.9 255.6,257.7 256.4,257.7 326.6,327.9 
				315.2,339.3 			"/>
		</g>
		<g>
			<polygon fill="#F7901E" points="151.6,271.8 151.6,241.7 195.8,197.5 184.4,186.1 114.2,256.3 114.2,257.2 184.4,327.4 
				195.8,316 			"/>
			<polygon fill="#3D6CB4" points="360.4,241.7 360.4,271.8 316.2,316 327.6,327.4 397.8,257.2 397.8,256.3 327.6,186.1 
				316.2,197.5 			"/>
		</g>
	</g>
	<g>
		<g>
			<polygon fill="#4374B9" points="271.1,216.9 240.9,216.9 196.8,172.7 185.4,184.1 255.6,254.3 256.4,254.3 326.6,184.1 
				315.2,172.7 			"/>
			<polygon fill="#4374B9" points="271.1,295.1 240.9,295.1 196.8,339.3 185.4,327.9 255.6,257.7 256.4,257.7 326.6,327.9 
				315.2,339.3 			"/>
		</g>
		<g>
			<polygon fill="#F7901E" points="151.6,271.8 151.6,241.7 195.8,197.5 184.4,186.1 114.2,256.3 114.2,257.2 184.4,327.4 
				195.8,316 			"/>
			<polygon fill="#3D6CB4" points="360.4,241.7 360.4,271.8 316.2,316 327.6,327.4 397.8,257.2 397.8,256.3 327.6,186.1 
				316.2,197.5 			"/>
		</g>
	</g>
	<g>
		<g>
			<polygon fill="#4374B9" points="271.1,216.9 240.9,216.9 196.8,172.7 185.4,184.1 255.6,254.3 256.4,254.3 326.6,184.1 
				315.2,172.7 			"/>
			<polygon fill="#4374B9" points="271.1,295.1 240.9,295.1 196.8,339.3 185.4,327.9 255.6,257.7 256.4,257.7 326.6,327.9 
				315.2,339.3 			"/>
		</g>
		<g>
			<polygon fill="#F7901E" points="151.6,271.8 151.6,241.7 195.8,197.5 184.4,186.1 114.2,256.3 114.2,257.2 184.4,327.4 
				195.8,316 			"/>
			<polygon fill="#3D6CB4" points="360.4,241.7 360.4,271.8 316.2,316 327.6,327.4 397.8,257.2 397.8,256.3 327.6,186.1 
				316.2,197.5 			"/>
		</g>
	</g>
	<g>
		<g>
			<polygon fill="#4374B9" points="271.1,216.9 240.9,216.9 196.8,172.7 185.4,184.1 255.6,254.3 256.4,254.3 326.6,184.1 
				315.2,172.7 			"/>
			<polygon fill="#4374B9" points="271.1,295.1 240.9,295.1 196.8,339.3 185.4,327.9 255.6,257.7 256.4,257.7 326.6,327.9 
				315.2,339.3 			"/>
		</g>
		<g>
			<polygon fill="#F7901E" points="151.6,271.8 151.6,241.7 195.8,197.5 184.4,186.1 114.2,256.3 114.2,257.2 184.4,327.4 
				195.8,316 			"/>
			<polygon fill="#3D6CB4" points="360.4,241.7 360.4,271.8 316.2,316 327.6,327.4 397.8,257.2 397.8,256.3 327.6,186.1 
				316.2,197.5 			"/>
		</g>
	</g>
	<g>
		<g>
			<polygon fill="#4374B9" points="271.1,216.9 240.9,216.9 196.8,172.7 185.4,184.1 255.6,254.3 256.4,254.3 326.6,184.1 
				315.2,172.7 			"/>
			<polygon fill="#4374B9" points="271.1,295.1 240.9,295.1 196.8,339.3 185.4,327.9 255.6,257.7 256.4,257.7 326.6,327.9 
				315.2,339.3 			"/>
		</g>
		<g>
			<polygon fill="#F7901E" points="151.6,271.8 151.6,241.7 195.8,197.5 184.4,186.1 114.2,256.3 114.2,257.2 184.4,327.4 
				195.8,316 			"/>
			<polygon fill="#3D6CB4" points="360.4,241.7 360.4,271.8 316.2,316 327.6,327.4 397.8,257.2 397.8,256.3 327.6,186.1 
				316.2,197.5 			"/>
		</g>
	</g>
	<g>
		<g>
			<polygon fill="#4374B9" points="271.1,216.9 240.9,216.9 196.8,172.7 185.4,184.1 255.6,254.3 256.4,254.3 326.6,184.1 
				315.2,172.7 			"/>
			<polygon fill="#4374B9" points="271.1,295.1 240.9,295.1 196.8,339.3 185.4,327.9 255.6,257.7 256.4,257.7 326.6,327.9 
				315.2,339.3 			"/>
		</g>
		<g>
			<polygon fill="#F7901E" points="151.6,271.8 151.6,241.7 195.8,197.5 184.4,186.1 114.2,256.3 114.2,257.2 184.4,327.4 
				195.8,316 			"/>
			<polygon fill="#3D6CB4" points="360.4,241.7 360.4,271.8 316.2,316 327.6,327.4 397.8,257.2 397.8,256.3 327.6,186.1 
				316.2,197.5 			"/>
		</g>
	</g>
	<g>
		<g>
			<polygon fill="#4374B9" points="271.1,216.9 240.9,216.9 196.8,172.7 185.4,184.1 255.6,254.3 256.4,254.3 326.6,184.1 
				315.2,172.7 			"/>
			<polygon fill="#4374B9" points="271.1,295.1 240.9,295.1 196.8,339.3 185.4,327.9 255.6,257.7 256.4,257.7 326.6,327.9 
				315.2,339.3 			"/>
		</g>
		<g>
			<polygon fill="#F7901E" points="151.6,271.8 151.6,241.7 195.8,197.5 184.4,186.1 114.2,256.3 114.2,257.2 184.4,327.4 
				195.8,316 			"/>
			<polygon fill="#3D6CB4" points="360.4,241.7 360.4,271.8 316.2,316 327.6,327.4 397.8,257.2 397.8,256.3 327.6,186.1 
				316.2,197.5 			"/>
		</g>
	</g>
	<g>
		<g>
			<polygon fill="#4374B9" points="271.1,216.9 240.9,216.9 196.8,172.7 185.4,184.1 255.6,254.3 256.4,254.3 326.6,184.1 
				315.2,172.7 			"/>
			<polygon fill="#4374B9" points="271.1,295.1 240.9,295.1 196.8,339.3 185.4,327.9 255.6,257.7 256.4,257.7 326.6,327.9 
				315.2,339.3 			"/>
		</g>
		<g>
			<polygon fill="#F7901E" points="151.6,271.8 151.6,241.7 195.8,197.5 184.4,186.1 114.2,256.3 114.2,257.2 184.4,327.4 
				195.8,316 			"/>
			<polygon fill="#3D6CB4" points="360.4,241.7 360.4,271.8 316.2,316 327.6,327.4 397.8,257.2 397.8,256.3 327.6,186.1 
				316.2,197.5 			"/>
		</g>
	</g>
	<g>
		<g>
			<polygon fill="#4374B9" points="271.1,216.9 240.9,216.9 196.8,172.7 185.4,184.1 255.6,254.3 256.4,254.3 326.6,184.1 
				315.2,172.7 			"/>
			<polygon fill="#4374B9" points="271.1,295.1 240.9,295.1 196.8,339.3 185.4,327.9 255.6,257.7 256.4,257.7 326.6,327.9 
				315.2,339.3 			"/>
		</g>
		<g>
			<polygon fill="#F7901E" points="151.6,271.8 151.6,241.7 195.8,197.5 184.4,186.1 114.2,256.3 114.2,257.2 184.4,327.4 
				195.8,316 			"/>
			<polygon fill="#3D6CB4" points="360.4,241.7 360.4,271.8 316.2,316 327.6,327.4 397.8,257.2 397.8,256.3 327.6,186.1 
				316.2,197.5 			"/>
		</g>
	</g>
	<g>
		<g>
			<polygon fill="#4374B9" points="271.1,216.9 240.9,216.9 196.8,172.7 185.4,184.1 255.6,254.3 256.4,254.3 326.6,184.1 
				315.2,172.7 			"/>
			<polygon fill="#4374B9" points="271.1,295.1 240.9,295.1 196.8,339.3 185.4,327.9 255.6,257.7 256.4,257.7 326.6,327.9 
				315.2,339.3 			"/>
		</g>
		<g>
			<polygon fill="#F7901E" points="151.6,271.8 151.6,241.7 195.8,197.5 184.4,186.1 114.2,256.3 114.2,257.2 184.4,327.4 
				195.8,316 			"/>
			<polygon fill="#3D6CB4" points="360.4,241.7 360.4,271.8 316.2,316 327.6,327.4 397.8,257.2 397.8,256.3 327.6,186.1 
				316.2,197.5 			"/>
		</g>
	</g>
	<g>
		<g>
			<polygon fill="#4374B9" points="271.1,216.9 240.9,216.9 196.8,172.7 185.4,184.1 255.6,254.3 256.4,254.3 326.6,184.1 
				315.2,172.7 			"/>
			<polygon fill="#4374B9" points="271.1,295.1 240.9,295.1 196.8,339.3 185.4,327.9 255.6,257.7 256.4,257.7 326.6,327.9 
				315.2,339.3 			"/>
		</g>
		<g>
			<polygon fill="#F7901E" points="151.6,271.8 151.6,241.7 195.8,197.5 184.4,186.1 114.2,256.3 114.2,257.2 184.4,327.4 
				195.8,316 			"/>
			<polygon fill="#3D6CB4" points="360.4,241.7 360.4,271.8 316.2,316 327.6,327.4 397.8,257.2 397.8,256.3 327.6,186.1 
				316.2,197.5 			"/>
		</g>
	</g>
	<g>
		<g>
			<polygon fill="#4374B9" points="271.1,216.9 240.9,216.9 196.8,172.7 185.4,184.1 255.6,254.3 256.4,254.3 326.6,184.1 
				315.2,172.7 			"/>
			<polygon fill="#4374B9" points="271.1,295.1 240.9,295.1 196.8,339.3 185.4,327.9 255.6,257.7 256.4,257.7 326.6,327.9 
				315.2,339.3 			"/>
		</g>
		<g>
			<polygon fill="#F7901E" points="151.6,271.8 151.6,241.7 195.8,197.5 184.4,186.1 114.2,256.3 114.2,257.2 184.4,327.4 
				195.8,316 			"/>
			<polygon fill="#3D6CB4" points="360.4,241.7 360.4,271.8 316.2,316 327.6,327.4 397.8,257.2 397.8,256.3 327.6,186.1 
				316.2,197.5 			"/>
		</g>
	</g>
	<g>
		<g>
			<polygon fill="#4374B9" points="271.1,216.9 240.9,216.9 196.8,172.7 185.4,184.1 255.6,254.3 256.4,254.3 326.6,184.1 
				315.2,172.7 			"/>
			<polygon fill="#4374B9" points="271.1,295.1 240.9,295.1 196.8,339.3 185.4,327.9 255.6,257.7 256.4,257.7 326.6,327.9 
				315.2,339.3 			"/>
		</g>
		<g>
			<polygon fill="#F7901E" points="151.6,271.8 151.6,241.7 195.8,197.5 184.4,186.1 114.2,256.3 114.2,257.2 184.4,327.4 
				195.8,316 			"/>
			<polygon fill="#3D6CB4" points="360.4,241.7 360.4,271.8 316.2,316 327.6,327.4 397.8,257.2 397.8,256.3 327.6,186.1 
				316.2,197.5 			"/>
		</g>
	</g>
	<g>
		<g>
			<polygon fill="#4374B9" points="271.1,216.9 240.9,216.9 196.8,172.7 185.4,184.1 255.6,254.3 256.4,254.3 326.6,184.1 
				315.2,172.7 			"/>
			<polygon fill="#4374B9" points="271.1,295.1 240.9,295.1 196.8,339.3 185.4,327.9 255.6,257.7 256.4,257.7 326.6,327.9 
				315.2,339.3 			"/>
		</g>
		<g>
			<polygon fill="#F7901E" points="151.6,271.8 151.6,241.7 195.8,197.5 184.4,186.1 114.2,256.3 114.2,257.2 184.4,327.4 
				195.8,316 			"/>
			<polygon fill="#3D6CB4" points="360.4,241.7 360.4,271.8 316.2,316 327.6,327.4 397.8,257.2 397.8,256.3 327.6,186.1 
				316.2,197.5 			"/>
		</g>
	</g>
	<g>
		<g>
			<polygon fill="#4374B9" points="271.1,216.9 240.9,216.9 196.8,172.7 185.4,184.1 255.6,254.3 256.4,254.3 326.6,184.1 
				315.2,172.7 			"/>
			<polygon fill="#4374B9" points="271.1,295.1 240.9,295.1 196.8,339.3 185.4,327.9 255.6,257.7 256.4,257.7 326.6,327.9 
				315.2,339.3 			"/>
		</g>
		<g>
			<polygon fill="#F7901E" points="151.6,271.8 151.6,241.7 195.8,197.5 184.4,186.1 114.2,256.3 114.2,257.2 184.4,327.4 
				195.8,316 			"/>
			<polygon fill="#3D6CB4" points="360.4,241.7 360.4,271.8 316.2,316 327.6,327.4 397.8,257.2 397.8,256.3 327.6,186.1 
				316.2,197.5 			"/>
		</g>
	</g>
	<g>
		<g>
			<polygon fill="#4374B9" points="271.1,216.9 240.9,216.9 196.8,172.7 185.4,184.1 255.6,254.3 256.4,254.3 326.6,184.1 
				315.2,172.7 			"/>
			<polygon fill="#4374B9" points="271.1,295.1 240.9,295.1 196.8,339.3 185.4,327.9 255.6,257.7 256.4,257.7 326.6,327.9 
				315.2,339.3 			"/>
		</g>
		<g>
			<polygon fill="#F7901E" points="151.6,271.8 151.6,241.7 195.8,197.5 184.4,186.1 114.2,256.3 114.2,257.2 184.4,327.4 
				195.8,316 			"/>
			<polygon fill="#3D6CB4" points="360.4,241.7 360.4,271.8 316.2,316 327.6,327.4 397.8,257.2 397.8,256.3 327.6,186.1 
				316.2,197.5 			"/>
		</g>
	</g>
	<g>
		<g>
			<polygon fill="#4374B9" points="271.1,216.9 240.9,216.9 196.8,172.7 185.4,184.1 255.6,254.3 256.4,254.3 326.6,184.1 
				315.2,172.7 			"/>
			<polygon fill="#4374B9" points="271.1,295.1 240.9,295.1 196.8,339.3 185.4,327.9 255.6,257.7 256.4,257.7 326.6,327.9 
				315.2,339.3 			"/>
		</g>
		<g>
			<polygon fill="#F7901E" points="151.6,271.8 151.6,241.7 195.8,197.5 184.4,186.1 114.2,256.3 114.2,257.2 184.4,327.4 
				195.8,316 			"/>
			<polygon fill="#3D6CB4" points="360.4,241.7 360.4,271.8 316.2,316 327.6,327.4 397.8,257.2 397.8,256.3 327.6,186.1 
				316.2,197.5 			"/>
		</g>
	</g>
	<g>
		<g>
			<polygon fill="#4374B9" points="271.1,216.9 240.9,216.9 196.8,172.7 185.4,184.1 255.6,254.3 256.4,254.3 326.6,184.1 
				315.2,172.7 			"/>
			<polygon fill="#4374B9" points="271.1,295.1 240.9,295.1 196.8,339.3 185.4,327.9 255.6,257.7 256.4,257.7 326.6,327.9 
				315.2,339.3 			"/>
		</g>
		<g>
			<polygon fill="#F7901E" points="151.6,271.8 151.6,241.7 195.8,197.5 184.4,186.1 114.2,256.3 114.2,257.2 184.4,327.4 
				195.8,316 			"/>
			<polygon fill="#3D6CB4" points="360.4,241.7 360.4,271.8 316.2,316 327.6,327.4 397.8,257.2 397.8,256.3 327.6,186.1 
				316.2,197.5 			"/>
		</g>
	</g>
	<g>
		<g>
			<polygon fill="#4374B9" points="271.1,216.9 240.9,216.9 196.8,172.7 185.4,184.1 255.6,254.3 256.4,254.3 326.6,184.1 
				315.2,172.7 			"/>
			<polygon fill="#4374B9" points="271.1,295.1 240.9,295.1 196.8,339.3 185.4,327.9 255.6,257.7 256.4,257.7 326.6,327.9 
				315.2,339.3 			"/>
		</g>
		<g>
			<polygon fill="#F7901E" points="151.6,271.8 151.6,241.7 195.8,197.5 184.4,186.1 114.2,256.3 114.2,257.2 184.4,327.4 
				195.8,316 			"/>
			<polygon fill="#3D6CB4" points="360.4,241.7 360.4,271.8 316.2,316 327.6,327.4 397.8,257.2 397.8,256.3 327.6,186.1 
				316.2,197.5 			"/>
		</g>
	</g>
	<g>
		<g>
			<polygon fill="#4374B9" points="271.1,216.9 240.9,216.9 196.8,172.7 185.4,184.1 255.6,254.3 256.4,254.3 326.6,184.1 
				315.2,172.7 			"/>
			<polygon fill="#4374B9" points="271.1,295.1 240.9,295.1 196.8,339.3 185.4,327.9 255.6,257.7 256.4,257.7 326.6,327.9 
				315.2,339.3 			"/>
		</g>
		<g>
			<polygon fill="#F7901E" points="151.6,271.8 151.6,241.7 195.8,197.5 184.4,186.1 114.2,256.3 114.2,257.2 184.4,327.4 
				195.8,316 			"/>
			<polygon fill="#3D6CB4" points="360.4,241.7 360.4,271.8 316.2,316 327.6,327.4 397.8,257.2 397.8,256.3 327.6,186.1 
				316.2,197.5 			"/>
		</g>
	</g>
	<g>
		<g>
			<polygon fill="#4374B9" points="271.1,216.9 240.9,216.9 196.8,172.7 185.4,184.1 255.6,254.3 256.4,254.3 326.6,184.1 
				315.2,172.7 			"/>
			<polygon fill="#4374B9" points="271.1,295.1 240.9,295.1 196.8,339.3 185.4,327.9 255.6,257.7 256.4,257.7 326.6,327.9 
				315.2,339.3 			"/>
		</g>
		<g>
			<polygon fill="#F7901E" points="151.6,271.8 151.6,241.7 195.8,197.5 184.4,186.1 114.2,256.3 114.2,257.2 184.4,327.4 
				195.8,316 			"/>
			<polygon fill="#3D6CB4" points="360.4,241.7 360.4,271.8 316.2,316 327.6,327.4 397.8,257.2 397.8,256.3 327.6,186.1 
				316.2,197.5 			"/>
		</g>
	</g>
	<g>
		<g>
			<polygon fill="#4374B9" points="271.1,216.9 240.9,216.9 196.8,172.7 185.4,184.1 255.6,254.3 256.4,254.3 326.6,184.1 
				315.2,172.7 			"/>
			<polygon fill="#4374B9" points="271.1,295.1 240.9,295.1 196.8,339.3 185.4,327.9 255.6,257.7 256.4,257.7 326.6,327.9 
				315.2,339.3 			"/>
		</g>
		<g>
			<polygon fill="#F7901E" points="151.6,271.8 151.6,241.7 195.8,197.5 184.4,186.1 114.2,256.3 114.2,257.2 184.4,327.4 
				195.8,316 			"/>
			<polygon fill="#3D6CB4" points="360.4,241.7 360.4,271.8 316.2,316 327.6,327.4 397.8,257.2 397.8,256.3 327.6,186.1 
				316.2,197.5 			"/>
		</g>
	</g>
	<g>
		<g>
			<polygon fill="#4374B9" points="271.1,216.9 240.9,216.9 196.8,172.7 185.4,184.1 255.6,254.3 256.4,254.3 326.6,184.1 
				315.2,172.7 			"/>
			<polygon fill="#4374B9" points="271.1,295.1 240.9,295.1 196.8,339.3 185.4,327.9 255.6,257.7 256.4,257.7 326.6,327.9 
				315.2,339.3 			"/>
		</g>
		<g>
			<polygon fill="#F7901E" points="151.6,271.8 151.6,241.7 195.8,197.5 184.4,186.1 114.2,256.3 114.2,257.2 184.4,327.4 
				195.8,316 			"/>
			<polygon fill="#3D6CB4" points="360.4,241.7 360.4,271.8 316.2,316 327.6,327.4 397.8,257.2 397.8,256.3 327.6,186.1 
				316.2,197.5 			"/>
		</g>
	</g>
	<g>
		<g>
			<polygon fill="#4374B9" points="271.1,216.9 240.9,216.9 196.8,172.7 185.4,184.1 255.6,254.3 256.4,254.3 326.6,184.1 
				315.2,172.7 			"/>
			<polygon fill="#4374B9" points="271.1,295.1 240.9,295.1 196.8,339.3 185.4,327.9 255.6,257.7 256.4,257.7 326.6,327.9 
				315.2,339.3 			"/>
		</g>
		<g>
			<polygon fill="#F7901E" points="151.6,271.8 151.6,241.7 195.8,197.5 184.4,186.1 114.2,256.3 114.2,257.2 184.4,327.4 
				195.8,316 			"/>
			<polygon fill="#3D6CB4" points="360.4,241.7 360.4,271.8 316.2,316 327.6,327.4 397.8,257.2 397.8,256.3 327.6,186.1 
				316.2,197.5 			"/>
		</g>
	</g>
	<g>
		<g>
			<polygon fill="#4374B9" points="271.1,216.9 240.9,216.9 196.8,172.7 185.4,184.1 255.6,254.3 256.4,254.3 326.6,184.1 
				315.2,172.7 			"/>
			<polygon fill="#4374B9" points="271.1,295.1 240.9,295.1 196.8,339.3 185.4,327.9 255.6,257.7 256.4,257.7 326.6,327.9 
				315.2,339.3 			"/>
		</g>
		<g>
			<polygon fill="#F7901E" points="151.6,271.8 151.6,241.7 195.8,197.5 184.4,186.1 114.2,256.3 114.2,257.2 184.4,327.4 
				195.8,316 			"/>
			<polygon fill="#3D6CB4" points="360.4,241.7 360.4,271.8 316.2,316 327.6,327.4 397.8,257.2 397.8,256.3 327.6,186.1 
				316.2,197.5 			"/>
		</g>
	</g>
	<g>
		<g>
			<polygon fill="#4374B9" points="271.1,216.9 240.9,216.9 196.8,172.7 185.4,184.1 255.6,254.3 256.4,254.3 326.6,184.1 
				315.2,172.7 			"/>
			<polygon fill="#4374B9" points="271.1,295.1 240.9,295.1 196.8,339.3 185.4,327.9 255.6,257.7 256.4,257.7 326.6,327.9 
				315.2,339.3 			"/>
		</g>
		<g>
			<polygon fill="#F7901E" points="151.6,271.8 151.6,241.7 195.8,197.5 184.4,186.1 114.2,256.3 114.2,257.2 184.4,327.4 
				195.8,316 			"/>
			<polygon fill="#3D6CB4" points="360.4,241.7 360.4,271.8 316.2,316 327.6,327.4 397.8,257.2 397.8,256.3 327.6,186.1 
				316.2,197.5 			"/>
		</g>
	</g>
	<g>
		<g>
			<polygon fill="#4374B9" points="271.1,216.9 240.9,216.9 196.8,172.7 185.4,184.1 255.6,254.3 256.4,254.3 326.6,184.1 
				315.2,172.7 			"/>
			<polygon fill="#4374B9" points="271.1,295.1 240.9,295.1 196.8,339.3 185.4,327.9 255.6,257.7 256.4,257.7 326.6,327.9 
				315.2,339.3 			"/>
		</g>
		<g>
			<polygon fill="#F7901E" points="151.6,271.8 151.6,241.7 195.8,197.5 184.4,186.1 114.2,256.3 114.2,257.2 184.4,327.4 
				195.8,316 			"/>
			<polygon fill="#3D6CB4" points="360.4,241.7 360.4,271.8 316.2,316 327.6,327.4 397.8,257.2 397.8,256.3 327.6,186.1 
				316.2,197.5 			"/>
		</g>
	</g>
	<g>
		<g>
			<polygon fill="#4374B9" points="271.1,216.9 240.9,216.9 196.8,172.7 185.4,184.1 255.6,254.3 256.4,254.3 326.6,184.1 
				315.2,172.7 			"/>
			<polygon fill="#4374B9" points="271.1,295.1 240.9,295.1 196.8,339.3 185.4,327.9 255.6,257.7 256.4,257.7 326.6,327.9 
				315.2,339.3 			"/>
		</g>
		<g>
			<polygon fill="#F7901E" points="151.6,271.8 151.6,241.7 195.8,197.5 184.4,186.1 114.2,256.3 114.2,257.2 184.4,327.4 
				195.8,316 			"/>
			<polygon fill="#3D6CB4" points="360.4,241.7 360.4,271.8 316.2,316 327.6,327.4 397.8,257.2 397.8,256.3 327.6,186.1 
				316.2,197.5 			"/>
		</g>
	</g>
	<g>
		<g>
			<polygon fill="#4374B9" points="271.1,216.9 240.9,216.9 196.8,172.7 185.4,184.1 255.6,254.3 256.4,254.3 326.6,184.1 
				315.2,172.7 			"/>
			<polygon fill="#4374B9" points="271.1,295.1 240.9,295.1 196.8,339.3 185.4,327.9 255.6,257.7 256.4,257.7 326.6,327.9 
				315.2,339.3 			"/>
		</g>
		<g>
			<polygon fill="#F7901E" points="151.6,271.8 151.6,241.7 195.8,197.5 184.4,186.1 114.2,256.3 114.2,257.2 184.4,327.4 
				195.8,316 			"/>
			<polygon fill="#3D6CB4" points="360.4,241.7 360.4,271.8 316.2,316 327.6,327.4 397.8,257.2 397.8,256.3 327.6,186.1 
				316.2,197.5 			"/>
		</g>
	</g>
	<g>
		<g>
			<polygon fill="#4374B9" points="271.1,216.9 240.9,216.9 196.8,172.7 185.4,184.1 255.6,254.3 256.4,254.3 326.6,184.1 
				315.2,172.7 			"/>
			<polygon fill="#4374B9" points="271.1,295.1 240.9,295.1 196.8,339.3 185.4,327.9 255.6,257.7 256.4,257.7 326.6,327.9 
				315.2,339.3 			"/>
		</g>
		<g>
			<polygon fill="#F7901E" points="151.6,271.8 151.6,241.7 195.8,197.5 184.4,186.1 114.2,256.3 114.2,257.2 184.4,327.4 
				195.8,316 			"/>
			<polygon fill="#3D6CB4" points="360.4,241.7 360.4,271.8 316.2,316 327.6,327.4 397.8,257.2 397.8,256.3 327.6,186.1 
				316.2,197.5 			"/>
		</g>
	</g>
	<g>
		<g>
			<polygon fill="#4374B9" points="271.1,216.9 240.9,216.9 196.8,172.7 185.4,184.1 255.6,254.3 256.4,254.3 326.6,184.1 
				315.2,172.7 			"/>
			<polygon fill="#4374B9" points="271.1,295.1 240.9,295.1 196.8,339.3 185.4,327.9 255.6,257.7 256.4,257.7 326.6,327.9 
				315.2,339.3 			"/>
		</g>
		<g>
			<polygon fill="#F7901E" points="151.6,271.8 151.6,241.7 195.8,197.5 184.4,186.1 114.2,256.3 114.2,257.2 184.4,327.4 
				195.8,316 			"/>
			<polygon fill="#3D6CB4" points="360.4,241.7 360.4,271.8 316.2,316 327.6,327.4 397.8,257.2 397.8,256.3 327.6,186.1 
				316.2,197.5 			"/>
		</g>
	</g>
	<g>
		<g>
			<polygon fill="#4374B9" points="271.1,216.9 240.9,216.9 196.8,172.7 185.4,184.1 255.6,254.3 256.4,254.3 326.6,184.1 
				315.2,172.7 			"/>
			<polygon fill="#4374B9" points="271.1,295.1 240.9,295.1 196.8,339.3 185.4,327.9 255.6,257.7 256.4,257.7 326.6,327.9 
				315.2,339.3 			"/>
		</g>
		<g>
			<polygon fill="#F7901E" points="151.6,271.8 151.6,241.7 195.8,197.5 184.4,186.1 114.2,256.3 114.2,257.2 184.4,327.4 
				195.8,316 			"/>
			<polygon fill="#3D6CB4" points="360.4,241.7 360.4,271.8 316.2,316 327.6,327.4 397.8,257.2 397.8,256.3 327.6,186.1 
				316.2,197.5 			"/>
		</g>
	</g>
	<g>
		<g>
			<polygon fill="#4374B9" points="271.1,216.9 240.9,216.9 196.8,172.7 185.4,184.1 255.6,254.3 256.4,254.3 326.6,184.1 
				315.2,172.7 			"/>
			<polygon fill="#4374B9" points="271.1,295.1 240.9,295.1 196.8,339.3 185.4,327.9 255.6,257.7 256.4,257.7 326.6,327.9 
				315.2,339.3 			"/>
		</g>
		<g>
			<polygon fill="#F7901E" points="151.6,271.8 151.6,241.7 195.8,197.5 184.4,186.1 114.2,256.3 114.2,257.2 184.4,327.4 
				195.8,316 			"/>
			<polygon fill="#3D6CB4" points="360.4,241.7 360.4,271.8 316.2,316 327.6,327.4 397.8,257.2 397.8,256.3 327.6,186.1 
				316.2,197.5 			"/>
		</g>
	</g>
	<g>
		<g>
			<polygon fill="#4374B9" points="271.1,216.9 240.9,216.9 196.8,172.7 185.4,184.1 255.6,254.3 256.4,254.3 326.6,184.1 
				315.2,172.7 			"/>
			<polygon fill="#4374B9" points="271.1,295.1 240.9,295.1 196.8,339.3 185.4,327.9 255.6,257.7 256.4,257.7 326.6,327.9 
				315.2,339.3 			"/>
		</g>
		<g>
			<polygon fill="#F7901E" points="151.6,271.8 151.6,241.7 195.8,197.5 184.4,186.1 114.2,256.3 114.2,257.2 184.4,327.4 
				195.8,316 			"/>
			<polygon fill="#3D6CB4" points="360.4,241.7 360.4,271.8 316.2,316 327.6,327.4 397.8,257.2 397.8,256.3 327.6,186.1 
				316.2,197.5 			"/>
		</g>
	</g>
	<g>
		<g>
			<polygon fill="#4374B9" points="271.1,216.9 240.9,216.9 196.8,172.7 185.4,184.1 255.6,254.3 256.4,254.3 326.6,184.1 
				315.2,172.7 			"/>
			<polygon fill="#4374B9" points="271.1,295.1 240.9,295.1 196.8,339.3 185.4,327.9 255.6,257.7 256.4,257.7 326.6,327.9 
				315.2,339.3 			"/>
		</g>
		<g>
			<polygon fill="#F7901E" points="151.6,271.8 151.6,241.7 195.8,197.5 184.4,186.1 114.2,256.3 114.2,257.2 184.4,327.4 
				195.8,316 			"/>
			<polygon fill="#3D6CB4" points="360.4,241.7 360.4,271.8 316.2,316 327.6,327.4 397.8,257.2 397.8,256.3 327.6,186.1 
				316.2,197.5 			"/>
		</g>
	</g>
	<g>
		<g>
			<polygon fill="#4374B9" points="271.1,216.9 240.9,216.9 196.8,172.7 185.4,184.1 255.6,254.3 256.4,254.3 326.6,184.1 
				315.2,172.7 			"/>
			<polygon fill="#4374B9" points="271.1,295.1 240.9,295.1 196.8,339.3 185.4,327.9 255.6,257.7 256.4,257.7 326.6,327.9 
				315.2,339.3 			"/>
		</g>
		<g>
			<polygon fill="#F7901E" points="151.6,271.8 151.6,241.7 195.8,197.5 184.4,186.1 114.2,256.3 114.2,257.2 184.4,327.4 
				195.8,316 			"/>
			<polygon fill="#3D6CB4" points="360.4,241.7 360.4,271.8 316.2,316 327.6,327.4 397.8,257.2 397.8,256.3 327.6,186.1 
				316.2,197.5 			"/>
		</g>
	</g>
	<g>
		<g>
			<polygon fill="#4374B9" points="271.1,216.9 240.9,216.9 196.8,172.7 185.4,184.1 255.6,254.3 256.4,254.3 326.6,184.1 
				315.2,172.7 			"/>
			<polygon fill="#4374B9" points="271.1,295.1 240.9,295.1 196.8,339.3 185.4,327.9 255.6,257.7 256.4,257.7 326.6,327.9 
				315.2,339.3 			"/>
		</g>
		<g>
			<polygon fill="#F7901E" points="151.6,271.8 151.6,241.7 195.8,197.5 184.4,186.1 114.2,256.3 114.2,257.2 184.4,327.4 
				195.8,316 			"/>
			<polygon fill="#3D6CB4" points="360.4,241.7 360.4,271.8 316.2,316 327.6,327.4 397.8,257.2 397.8,256.3 327.6,186.1 
				316.2,197.5 			"/>
		</g>
	</g>
	<g>
		<g>
			<polygon fill="#4374B9" points="271.1,216.9 240.9,216.9 196.8,172.7 185.4,184.1 255.6,254.3 256.4,254.3 326.6,184.1 
				315.2,172.7 			"/>
			<polygon fill="#4374B9" points="271.1,295.1 240.9,295.1 196.8,339.3 185.4,327.9 255.6,257.7 256.4,257.7 326.6,327.9 
				315.2,339.3 			"/>
		</g>
		<g>
			<polygon fill="#F7901E" points="151.6,271.8 151.6,241.7 195.8,197.5 184.4,186.1 114.2,256.3 114.2,257.2 184.4,327.4 
				195.8,316 			"/>
			<polygon fill="#3D6CB4" points="360.4,241.7 360.4,271.8 316.2,316 327.6,327.4 397.8,257.2 397.8,256.3 327.6,186.1 
				316.2,197.5 			"/>
		</g>
	</g>
	<g>
		<g>
			<polygon fill="#4374B9" points="271.1,216.9 240.9,216.9 196.8,172.7 185.4,184.1 255.6,254.3 256.4,254.3 326.6,184.1 
				315.2,172.7 			"/>
			<polygon fill="#4374B9" points="271.1,295.1 240.9,295.1 196.8,339.3 185.4,327.9 255.6,257.7 256.4,257.7 326.6,327.9 
				315.2,339.3 			"/>
		</g>
		<g>
			<polygon fill="#F7901E" points="151.6,271.8 151.6,241.7 195.8,197.5 184.4,186.1 114.2,256.3 114.2,257.2 184.4,327.4 
				195.8,316 			"/>
			<polygon fill="#3D6CB4" points="360.4,241.7 360.4,271.8 316.2,316 327.6,327.4 397.8,257.2 397.8,256.3 327.6,186.1 
				316.2,197.5 			"/>
		</g>
	</g>
	<g>
		<g>
			<polygon fill="#4374B9" points="271.1,216.9 240.9,216.9 196.8,172.7 185.4,184.1 255.6,254.3 256.4,254.3 326.6,184.1 
				315.2,172.7 			"/>
			<polygon fill="#4374B9" points="271.1,295.1 240.9,295.1 196.8,339.3 185.4,327.9 255.6,257.7 256.4,257.7 326.6,327.9 
				315.2,339.3 			"/>
		</g>
		<g>
			<polygon fill="#F7901E" points="151.6,271.8 151.6,241.7 195.8,197.5 184.4,186.1 114.2,256.3 114.2,257.2 184.4,327.4 
				195.8,316 			"/>
			<polygon fill="#3D6CB4" points="360.4,241.7 360.4,271.8 316.2,316 327.6,327.4 397.8,257.2 397.8,256.3 327.6,186.1 
				316.2,197.5 			"/>
		</g>
	</g>
	<g>
		<g>
			<polygon fill="#4374B9" points="271.1,216.9 240.9,216.9 196.8,172.7 185.4,184.1 255.6,254.3 256.4,254.3 326.6,184.1 
				315.2,172.7 			"/>
			<polygon fill="#4374B9" points="271.1,295.1 240.9,295.1 196.8,339.3 185.4,327.9 255.6,257.7 256.4,257.7 326.6,327.9 
				315.2,339.3 			"/>
		</g>
		<g>
			<polygon fill="#F7901E" points="151.6,271.8 151.6,241.7 195.8,197.5 184.4,186.1 114.2,256.3 114.2,257.2 184.4,327.4 
				195.8,316 			"/>
			<polygon fill="#3D6CB4" points="360.4,241.7 360.4,271.8 316.2,316 327.6,327.4 397.8,257.2 397.8,256.3 327.6,186.1 
				316.2,197.5 			"/>
		</g>
	</g>
	<g>
		<g>
			<polygon fill="#4374B9" points="271.1,216.9 240.9,216.9 196.8,172.7 185.4,184.1 255.6,254.3 256.4,254.3 326.6,184.1 
				315.2,172.7 			"/>
			<polygon fill="#4374B9" points="271.1,295.1 240.9,295.1 196.8,339.3 185.4,327.9 255.6,257.7 256.4,257.7 326.6,327.9 
				315.2,339.3 			"/>
		</g>
		<g>
			<polygon fill="#F7901E" points="151.6,271.8 151.6,241.7 195.8,197.5 184.4,186.1 114.2,256.3 114.2,257.2 184.4,327.4 
				195.8,316 			"/>
			<polygon fill="#3D6CB4" points="360.4,241.7 360.4,271.8 316.2,316 327.6,327.4 397.8,257.2 397.8,256.3 327.6,186.1 
				316.2,197.5 			"/>
		</g>
	</g>
	<g>
		<g>
			<polygon fill="#4374B9" points="271.1,216.9 240.9,216.9 196.8,172.7 185.4,184.1 255.6,254.3 256.4,254.3 326.6,184.1 
				315.2,172.7 			"/>
			<polygon fill="#4374B9" points="271.1,295.1 240.9,295.1 196.8,339.3 185.4,327.9 255.6,257.7 256.4,257.7 326.6,327.9 
				315.2,339.3 			"/>
		</g>
		<g>
			<polygon fill="#F7901E" points="151.6,271.8 151.6,241.7 195.8,197.5 184.4,186.1 114.2,256.3 114.2,257.2 184.4,327.4 
				195.8,316 			"/>
			<polygon fill="#3D6CB4" points="360.4,241.7 360.4,271.8 316.2,316 327.6,327.4 397.8,257.2 397.8,256.3 327.6,186.1 
				316.2,197.5 			"/>
		</g>
	</g>
	<g>
		<g>
			<polygon fill="#5688C6" points="271.1,216.9 240.9,216.9 196.8,172.7 185.4,184.1 255.6,254.3 256.4,254.3 326.6,184.1 
				315.2,172.7 			"/>
			<polygon fill="#5688C6" points="271.1,295.1 240.9,295.1 196.8,339.3 185.4,327.9 255.6,257.7 256.4,257.7 326.6,327.9 
				315.2,339.3 			"/>
		</g>
		<g>
			<polygon fill="#F57E20" points="151.6,271.8 151.6,241.7 195.8,197.5 184.4,186.1 114.2,256.3 114.2,257.2 184.4,327.4 
				195.8,316 			"/>
			<polygon fill="#5688C6" points="360.4,241.7 360.4,271.8 316.2,316 327.6,327.4 397.8,257.2 397.8,256.3 327.6,186.1 
				316.2,197.5 			"/>
		</g>
	</g>
</g>
</svg>
