<?xml version="1.0" encoding="utf-8"?>
<!-- Generator: Adobe Illustrator 18.0.0, SVG Export Plug-In . SVG Version: 6.00 Build 0)  -->
<!DOCTYPE svg PUBLIC "-//W3C//DTD SVG 1.1//EN" "http://www.w3.org/Graphics/SVG/1.1/DTD/svg11.dtd">
<svg version="1.1" id="Layer_3" xmlns="http://www.w3.org/2000/svg" xmlns:xlink="http://www.w3.org/1999/xlink" x="0px" y="0px"
	 viewBox="0 0 512 512" enable-background="new 0 0 512 512" xml:space="preserve">
<g>
	<g opacity="0.4" enable-background="new    ">
		
			<radialGradient id="SVGID_1_" cx="1.0125" cy="515" r="118.8609" gradientTransform="matrix(2 0 0 -2 254 1286)" gradientUnits="userSpaceOnUse">
			<stop  offset="0" style="stop-color:#010101"/>
			<stop  offset="0.8587" style="stop-color:#010101;stop-opacity:0.1413"/>
			<stop  offset="1" style="stop-color:#010101;stop-opacity:0"/>
		</radialGradient>
		<path fill="url(#SVGID_1_)" d="M449,449c-59.7,59.7-326.2,59.7-385.9,0S3.4,122.7,63,63s326.3-59.6,386,0S508.6,389.3,449,449z"/>
	</g>
	<g opacity="0.4" enable-background="new    ">
		
			<radialGradient id="SVGID_2_" cx="2.0286" cy="516.0684" r="133.1551" gradientTransform="matrix(1.4138 -1.4146 -0.979 -0.9784 758.388 763.7472)" gradientUnits="userSpaceOnUse">
			<stop  offset="0" style="stop-color:#010101"/>
			<stop  offset="0.8587" style="stop-color:#010101;stop-opacity:0.1413"/>
			<stop  offset="1" style="stop-color:#010101;stop-opacity:0"/>
		</radialGradient>
		<path fill="url(#SVGID_2_)" d="M449,449c-59.7,59.7-326.2,59.7-385.9,0S3.4,122.7,63,63s326.3-59.6,386,0S508.6,389.3,449,449z"/>
	</g>
	<g opacity="0.4" enable-background="new    ">
		
			<radialGradient id="SVGID_3_" cx="3.4424" cy="513.9732" r="133.1784" gradientTransform="matrix(-1.4138 -1.4146 0.979 -0.9784 -242.3879 763.7472)" gradientUnits="userSpaceOnUse">
			<stop  offset="0" style="stop-color:#010101"/>
			<stop  offset="0.8587" style="stop-color:#010101;stop-opacity:0.1413"/>
			<stop  offset="1" style="stop-color:#010101;stop-opacity:0"/>
		</radialGradient>
		<path fill="url(#SVGID_3_)" d="M63,449c59.7,59.7,326.2,59.7,385.9,0s59.7-326.2,0-385.9S122.7,3.4,63,63S3.4,389.3,63,449z"/>
	</g>
</g>
<radialGradient id="SVGID_4_" cx="256" cy="256" r="230" gradientUnits="userSpaceOnUse">
	<stop  offset="0" style="stop-color:#FCFCFC"/>
	<stop  offset="1" style="stop-color:#E0E0E0"/>
</radialGradient>
<path fill="url(#SVGID_4_)" d="M433.3,433.3c-70.3,70.3-284.3,70.3-354.6,0S8.4,149,78.7,78.7s284.3-70.3,354.6,0
	S503.6,363,433.3,433.3z"/>
<g>
	<g>
		<g>
			<g enable-background="new    ">
				<path opacity="0.5" fill="#E1DFDF" enable-background="new    " d="M256,206.7c-27.2,0-49.3,22.1-49.3,49.3s22.1,49.3,49.3,49.3
					s49.3-22.1,49.3-49.3S283.2,206.7,256,206.7z M256,281.3c-13.9,0-25.3-11.3-25.3-25.3s11.3-25.3,25.3-25.3
					c13.9,0,25.3,11.3,25.3,25.3C281.3,269.9,269.9,281.3,256,281.3z"/>
				<path fill="#FFFFFF" d="M256,230.7c-13.9,0-25.3,11.3-25.3,25.3s11.3,25.3,25.3,25.3c13.9,0,25.3-11.3,25.3-25.3
					S269.9,230.7,256,230.7z M256,278.6c-12.5,0-22.6-10.2-22.6-22.6s10.2-22.6,22.6-22.6s22.6,10.2,22.6,22.6
					C278.6,268.5,268.5,278.6,256,278.6z"/>
			</g>
		</g>
		<g>
			<g enable-background="new    ">
				<g>
					<path fill="#FFFFFF" d="M256,204.6c-28.4,0-51.4,23-51.4,51.4s23,51.4,51.4,51.4c28.4,0,51.4-23,51.4-51.4
						S284.4,204.6,256,204.6z M256,304.2c-26.6,0-48.2-21.6-48.2-48.2s21.6-48.2,48.2-48.2s48.2,21.6,48.2,48.2
						C304.2,282.6,282.6,304.2,256,304.2z"/>
					<path opacity="0.5" fill="#FFFFFF" enable-background="new    " d="M342.2,169.8c-23-23-53.6-35.7-86.2-35.7
						c-32.5,0-63.1,12.7-86.2,35.7c-23,23-35.7,53.6-35.7,86.2s12.7,63.1,35.7,86.2c23,23,53.6,35.7,86.2,35.7s63.1-12.7,86.2-35.7
						c23-23,35.7-53.6,35.7-86.2C377.8,223.5,365.2,192.9,342.2,169.8z M339.9,339.9c-22.4,22.4-52.2,34.8-83.9,34.8
						s-61.5-12.3-83.9-34.8s-34.8-52.2-34.8-83.9c0-31.7,12.3-61.5,34.8-83.9c22.4-22.4,52.2-34.8,83.9-34.8s61.5,12.3,83.9,34.8
						s34.8,52.2,34.8,83.9C374.7,287.7,362.3,317.5,339.9,339.9z"/>
				</g>
				<path fill="#FF24A1" d="M339.9,172.1c-22.4-22.4-52.2-34.8-83.9-34.8s-61.5,12.3-83.9,34.8c-22.4,22.4-34.8,52.2-34.8,83.9
					s12.3,61.5,34.8,83.9c22.4,22.4,52.2,34.8,83.9,34.8s61.5-12.3,83.9-34.8c22.4-22.4,34.8-52.2,34.8-83.9
					C374.7,224.3,362.3,194.5,339.9,172.1z M256,307.4c-28.4,0-51.4-23-51.4-51.4s23-51.4,51.4-51.4c28.4,0,51.4,23,51.4,51.4
					C307.4,284.4,284.4,307.4,256,307.4z"/>
			</g>
		</g>
	</g>
</g>
<path fill="#56F4FC" d="M322,183.8c-4.5-4.5-11.8-4.5-16.3,0c-0.1,0.1-0.2,0.3-0.4,0.4L267.5,222V111.1h0c0.1-3-1.1-6.1-3.4-8.4
	c-4.5-4.5-11.8-4.5-16.3,0c-2.3,2.3-3.4,5.3-3.4,8.4h0V222l-38.2-38.2c0,0,0,0-0.1-0.1c-4.5-4.5-11.8-4.5-16.3,0
	c-4.5,4.5-4.5,11.8,0,16.3l0,0l49.8,49.8l0,0l4.8,4.8v0h0l8.9,8.9l0.1,0.1c0.6,0.6,1.5,1,2.4,1c0.9,0,1.8-0.4,2.4-1l0.1-0.1l8.9-8.9
	h0v0l54.5-54.5l0,0C326.5,195.6,326.5,188.3,322,183.8z"/>
</svg>
