<?xml version="1.0" encoding="utf-8"?>
<!-- Generator: Adobe Illustrator 18.0.0, SVG Export Plug-In . SVG Version: 6.00 Build 0)  -->
<!DOCTYPE svg PUBLIC "-//W3C//DTD SVG 1.1//EN" "http://www.w3.org/Graphics/SVG/1.1/DTD/svg11.dtd">
<svg version="1.1" xmlns="http://www.w3.org/2000/svg" xmlns:xlink="http://www.w3.org/1999/xlink" x="0px" y="0px"
	 viewBox="0 0 512 512" enable-background="new 0 0 512 512" xml:space="preserve">
<g id="Layer_2">
	<g>
		<g>
			<g opacity="0.4" enable-background="new    ">
				
					<radialGradient id="SVGID_1_" cx="0.7625" cy="514.25" r="118.8609" gradientTransform="matrix(2 0 0 -2 254.5 1284.5)" gradientUnits="userSpaceOnUse">
					<stop  offset="0" style="stop-color:#010101"/>
					<stop  offset="0.8587" style="stop-color:#010101;stop-opacity:0.1413"/>
					<stop  offset="1" style="stop-color:#010101;stop-opacity:0"/>
				</radialGradient>
				<path fill="url(#SVGID_1_)" d="M449,449c-59.7,59.7-326.2,59.7-385.9,0S3.4,122.7,63,63s326.3-59.6,386,0S508.6,389.3,449,449z"
					/>
			</g>
			<g opacity="0.4" enable-background="new    ">
				
					<radialGradient id="SVGID_2_" cx="1.5285" cy="515.0576" r="133.1551" gradientTransform="matrix(1.4138 -1.4146 -0.979 -0.9784 758.1053 762.0507)" gradientUnits="userSpaceOnUse">
					<stop  offset="0" style="stop-color:#010101"/>
					<stop  offset="0.8587" style="stop-color:#010101;stop-opacity:0.1413"/>
					<stop  offset="1" style="stop-color:#010101;stop-opacity:0"/>
				</radialGradient>
				<path fill="url(#SVGID_2_)" d="M449,449c-59.7,59.7-326.2,59.7-385.9,0S3.4,122.7,63,63s326.3-59.6,386,0S508.6,389.3,449,449z"
					/>
			</g>
			<g opacity="0.4" enable-background="new    ">
				
					<radialGradient id="SVGID_3_" cx="2.5888" cy="513.4733" r="133.1784" gradientTransform="matrix(-1.4138 -1.4146 0.979 -0.9784 -243.1053 762.0507)" gradientUnits="userSpaceOnUse">
					<stop  offset="0" style="stop-color:#010101"/>
					<stop  offset="0.8587" style="stop-color:#010101;stop-opacity:0.1413"/>
					<stop  offset="1" style="stop-color:#010101;stop-opacity:0"/>
				</radialGradient>
				<path fill="url(#SVGID_3_)" d="M63,449c59.7,59.7,326.2,59.7,385.9,0s59.7-326.2,0-385.9S122.7,3.4,63,63S3.4,389.3,63,449z"/>
			</g>
		</g>
		
			<linearGradient id="SVGID_4_" gradientUnits="userSpaceOnUse" x1="26.0005" y1="257" x2="485.9999" y2="257" gradientTransform="matrix(1 0 0 -1 0 513)">
			<stop  offset="0" style="stop-color:#1F1F21"/>
			<stop  offset="1" style="stop-color:#1F1F21"/>
		</linearGradient>
		<path fill="url(#SVGID_4_)" d="M433.3,433.3c-70.3,70.3-284.3,70.3-354.6,0S8.4,149,78.7,78.7s284.3-70.3,354.6,0
			S503.6,363,433.3,433.3z"/>
	</g>
	<g>
		<path fill="#FFFFFF" d="M422,135.7H450l2.3-4.7c-4.2-10.2-9-19.4-14.3-27.5L422,135.7z"/>
		<path fill="#FFFFFF" d="M383.2,135.7h27.9l20.3-41c-2.2-2.7-4.4-5.2-6.7-7.5c-4.6-4.6-10.1-9-16.2-13.1l2.6,5.2L383.2,135.7z"/>
		<path fill="#FFFFFF" d="M344.4,135.7h27.9l27.9-56.3l-6.9-14c-10.3-5.2-22-9.7-34.7-13.6l13.7,27.5L344.4,135.7z"/>
		<path fill="#FFFFFF" d="M305.7,135.7h27.9l27.9-56.3l-15.4-31c-9.8-2.5-20.2-4.5-31-6.1l18.4,37.1L305.7,135.7z"/>
		<path fill="#FFFFFF" d="M266.9,135.7h27.9l27.9-56.3l-19.2-38.6c-9.4-1.1-19.2-1.9-29.1-2.3l20.3,41L266.9,135.7z"/>
		<path fill="#FFFFFF" d="M228.1,135.7H256L284,79.4l-20.5-41.3c-2.5,0-5-0.1-7.5-0.1c-6.8,0-13.6,0.2-20.3,0.5L256,79.4
			L228.1,135.7z"/>
		<path fill="#FFFFFF" d="M189.3,135.7h27.9l27.9-56.3l-20-40.2c-9.1,0.7-17.9,1.6-26.5,2.9l18.5,37.4L189.3,135.7z"/>
		<path fill="#FFFFFF" d="M150.5,135.7h27.9l27.9-56.3l-17.7-35.8c-8.7,1.5-17.2,3.3-25.2,5.4l15.1,30.4L150.5,135.7z"/>
		<path fill="#FFFFFF" d="M170.3,35C170.3,35,170.4,35,170.3,35C170.4,35,170.3,35,170.3,35z"/>
		<path fill="#FFFFFF" d="M111.7,135.7h27.9l27.9-56.3l-13.7-27.7c-8.4,2.5-16.4,5.3-23.8,8.4l9.6,19.3L111.7,135.7z"/>
		<path fill="#FFFFFF" d="M128.8,79.4l-7.6-15.3c-13.8,6.6-25.3,14.4-34,23.1c-11.6,11.6-21.5,28.3-29.4,48.5h43L128.8,79.4z
			 M111.7,74.1c2.8,0,5,2.2,5,5c0,2.8-2.2,5-5,5s-5-2.2-5-5C106.7,76.3,109,74.1,111.7,74.1z"/>
		<path fill="#FFFFFF" d="M53.6,147.7h404.8c-0.6-2-1.3-3.9-2-5.8H55.6C54.9,143.7,54.2,145.7,53.6,147.7z"/>
	</g>
</g>
<g id="Layer_3">
	<g>
		<g>
			<g>
				<g>
					<rect x="99.6" y="216.5" fill="#FFFFFF" width="313.9" height="0.7"/>
				</g>
			</g>
			<g>
				<g>
					<rect x="99.6" y="310.2" fill="#FFFFFF" width="313.9" height="0.7"/>
				</g>
			</g>
			<g>
				<g>
					<rect x="99.6" y="349.6" fill="#FFFFFF" width="313.9" height="0.7"/>
				</g>
			</g>
			<g>
				<g>
					<rect x="99.6" y="388.5" fill="#FFFFFF" width="313.9" height="0.7"/>
				</g>
			</g>
		</g>
		<g>
			<g>
				<g>
					<rect x="195.7" y="216.9" fill="#FFFFFF" width="0.7" height="93.7"/>
				</g>
			</g>
			<g>
				<g>
					<rect x="316.6" y="216.9" fill="#FFFFFF" width="0.7" height="93.7"/>
				</g>
			</g>
		</g>
		<g>
			<g>
				<path fill="#FFFFFF" d="M103.9,187.7v7.4h8.6v-7.4h2.3v17.7h-2.3v-8.3h-8.6v8.3h-2.3v-17.7H103.9z"/>
			</g>
			<g>
				<path fill="#FFFFFF" d="M133.8,196.4c0,6.1-3.7,9.3-8.2,9.3c-4.7,0-8-3.6-8-9c0-5.6,3.5-9.3,8.2-9.3
					C130.7,187.4,133.8,191.1,133.8,196.4z M120.1,196.7c0,3.8,2,7.2,5.6,7.2c3.6,0,5.7-3.3,5.7-7.3c0-3.5-1.8-7.2-5.6-7.2
					C122,189.3,120.1,192.8,120.1,196.7z"/>
			</g>
			<g>
				<path fill="#FFFFFF" d="M139,187.7v10.5c0,4,1.8,5.6,4.1,5.6c2.6,0,4.3-1.7,4.3-5.6v-10.5h2.3V198c0,5.4-2.9,7.7-6.7,7.7
					c-3.6,0-6.3-2.1-6.3-7.6v-10.4H139z"/>
			</g>
			<g>
				<path fill="#FFFFFF" d="M153.7,188c1.2-0.2,2.8-0.4,4.4-0.4c2.4,0,4,0.4,5.1,1.4c0.9,0.8,1.4,2,1.4,3.4c0,2.3-1.5,3.9-3.3,4.5
					v0.1c1.4,0.5,2.2,1.7,2.6,3.6c0.6,2.5,1,4.2,1.4,4.9h-2.4c-0.3-0.5-0.7-2-1.2-4.2c-0.5-2.4-1.5-3.4-3.5-3.4H156v7.7h-2.3V188z
					 M156,196h2.3c2.4,0,4-1.3,4-3.4c0-2.3-1.7-3.3-4.1-3.3c-1.1,0-1.9,0.1-2.3,0.2V196z"/>
			</g>
		</g>
		<g>
			<g>
				<path fill="#FFFFFF" d="M213,197.6c-0.1-2.5-0.3-5.4-0.3-7.6h-0.1c-0.6,2.1-1.3,4.3-2.2,6.7l-3.1,8.6h-1.7l-2.9-8.4
					c-0.8-2.5-1.5-4.8-2-6.9h-0.1c-0.1,2.2-0.2,5.2-0.3,7.8l-0.5,7.6h-2.2l1.2-17.7h2.9l3,8.6c0.7,2.2,1.3,4.1,1.8,6h0.1
					c0.4-1.8,1.1-3.7,1.9-6l3.1-8.6h2.9l1.1,17.7h-2.2L213,197.6z"/>
			</g>
			<g>
				<path fill="#FFFFFF" d="M221.5,187.7v17.7h-2.3v-17.7H221.5z"/>
			</g>
			<g>
				<path fill="#FFFFFF" d="M225.5,205.4v-17.7h2.5l5.7,8.9c1.3,2.1,2.3,3.9,3.2,5.7l0.1,0c-0.2-2.4-0.3-4.5-0.3-7.3v-7.4h2.2v17.7
					h-2.3l-5.6-9c-1.2-2-2.4-4-3.3-5.9l-0.1,0c0.1,2.2,0.2,4.4,0.2,7.3v7.6H225.5z"/>
			</g>
			<g>
				<path fill="#FFFFFF" d="M245,187.7v10.5c0,4,1.8,5.6,4.1,5.6c2.6,0,4.3-1.7,4.3-5.6v-10.5h2.3V198c0,5.4-2.9,7.7-6.7,7.7
					c-3.6,0-6.3-2.1-6.3-7.6v-10.4H245z"/>
			</g>
			<g>
				<path fill="#FFFFFF" d="M263.1,189.7h-5.4v-1.9h13.1v1.9h-5.4v15.7h-2.3V189.7z"/>
			</g>
			<g>
				<path fill="#FFFFFF" d="M281.9,197.1H275v6.4h7.7v1.9h-9.9v-17.7h9.6v1.9H275v5.6h6.9V197.1z"/>
			</g>
		</g>
		<g>
			<g>
				<path fill="#FFFFFF" d="M318.7,202.6c1,0.6,2.5,1.2,4.1,1.2c2.3,0,3.7-1.2,3.7-3c0-1.7-0.9-2.6-3.3-3.5c-2.9-1-4.7-2.5-4.7-5
					c0-2.8,2.3-4.8,5.7-4.8c1.8,0,3.1,0.4,3.9,0.9l-0.6,1.9c-0.6-0.3-1.8-0.8-3.4-0.8c-2.4,0-3.3,1.4-3.3,2.6c0,1.7,1.1,2.5,3.5,3.4
					c3,1.2,4.5,2.6,4.5,5.2c0,2.7-2,5.1-6.2,5.1c-1.7,0-3.6-0.5-4.5-1.1L318.7,202.6z"/>
			</g>
			<g>
				<path fill="#FFFFFF" d="M341.1,197.1h-6.9v6.4h7.7v1.9h-9.9v-17.7h9.6v1.9h-7.3v5.6h6.9V197.1z"/>
			</g>
			<g>
				<path fill="#FFFFFF" d="M357.2,204.8c-0.8,0.4-2.5,0.8-4.7,0.8c-5,0-8.7-3.1-8.7-8.9c0-5.5,3.8-9.3,9.2-9.3
					c2.2,0,3.6,0.5,4.2,0.8l-0.6,1.9c-0.9-0.4-2.1-0.7-3.6-0.7c-4.1,0-6.9,2.7-6.9,7.3c0,4.3,2.5,7.1,6.8,7.1c1.4,0,2.8-0.3,3.7-0.7
					L357.2,204.8z"/>
			</g>
			<g>
				<path fill="#FFFFFF" d="M374.6,196.4c0,6.1-3.7,9.3-8.2,9.3c-4.7,0-7.9-3.6-7.9-9c0-5.6,3.5-9.3,8.2-9.3
					C371.5,187.4,374.6,191.1,374.6,196.4z M360.9,196.7c0,3.8,2,7.2,5.6,7.2c3.6,0,5.7-3.3,5.7-7.3c0-3.5-1.8-7.2-5.6-7.2
					C362.8,189.3,360.9,192.8,360.9,196.7z"/>
			</g>
			<g>
				<path fill="#FFFFFF" d="M377.6,205.4v-17.7h2.5l5.7,8.9c1.3,2.1,2.3,3.9,3.2,5.7l0.1,0c-0.2-2.4-0.3-4.5-0.3-7.3v-7.4h2.2v17.7
					h-2.3l-5.6-9c-1.2-2-2.4-4-3.3-5.9l-0.1,0c0.1,2.2,0.2,4.4,0.2,7.3v7.6H377.6z"/>
			</g>
			<g>
				<path fill="#FFFFFF" d="M394.9,188c1.4-0.2,3-0.4,4.9-0.4c3.3,0,5.6,0.8,7.2,2.2c1.6,1.4,2.5,3.5,2.5,6.3c0,2.9-0.9,5.2-2.5,6.9
					c-1.7,1.7-4.4,2.5-7.8,2.5c-1.6,0-3-0.1-4.1-0.2V188z M397.1,203.6c0.6,0.1,1.4,0.1,2.3,0.1c4.9,0,7.5-2.7,7.5-7.5
					c0-4.2-2.3-6.8-7.2-6.8c-1.2,0-2.1,0.1-2.7,0.2V203.6z"/>
			</g>
		</g>
		<g>
			<g>
				<path fill="#FFFFFF" d="M100.4,317.1c0.6-0.1,1.2-0.1,1.9-0.1c1.3,0,2.2,0.3,2.9,0.9c0.6,0.6,1,1.4,1,2.5c0,1.2-0.4,2.1-1,2.7
					c-0.7,0.7-1.8,1-3.1,1c-0.6,0-1.2,0-1.7-0.1V317.1z M101.3,323.4c0.2,0,0.6,0.1,0.9,0.1c1.9,0,3-1.1,3-3c0-1.7-0.9-2.7-2.9-2.7
					c-0.5,0-0.8,0-1.1,0.1V323.4z"/>
			</g>
			<g>
				<path fill="#FFFFFF" d="M108.3,317v7.1h-0.9V317H108.3z"/>
			</g>
			<g>
				<path fill="#FFFFFF" d="M109.9,317.1c0.5-0.1,1.1-0.1,1.8-0.1c1,0,1.6,0.2,2,0.6c0.4,0.3,0.6,0.8,0.6,1.3c0,0.9-0.6,1.6-1.3,1.8
					v0c0.5,0.2,0.9,0.7,1,1.4c0.2,1,0.4,1.7,0.5,1.9h-0.9c-0.1-0.2-0.3-0.8-0.5-1.7c-0.2-1-0.6-1.3-1.4-1.4h-0.9v3.1h-0.9V317.1z
					 M110.8,320.4h0.9c1,0,1.6-0.5,1.6-1.3c0-0.9-0.7-1.3-1.6-1.3c-0.4,0-0.8,0-0.9,0.1V320.4z"/>
			</g>
			<g>
				<path fill="#FFFFFF" d="M119.2,320.8h-2.7v2.5h3.1v0.8h-4V317h3.8v0.8h-2.9v2.2h2.7V320.8z"/>
			</g>
			<g>
				<path fill="#FFFFFF" d="M125.6,323.9c-0.3,0.2-1,0.3-1.9,0.3c-2,0-3.5-1.3-3.5-3.6c0-2.2,1.5-3.7,3.7-3.7c0.9,0,1.4,0.2,1.7,0.3
					l-0.2,0.7c-0.3-0.2-0.8-0.3-1.4-0.3c-1.7,0-2.8,1.1-2.8,2.9c0,1.7,1,2.8,2.7,2.8c0.6,0,1.1-0.1,1.5-0.3L125.6,323.9z"/>
			</g>
			<g>
				<path fill="#FFFFFF" d="M128.4,317.8h-2.1V317h5.2v0.8h-2.2v6.3h-0.9V317.8z"/>
			</g>
			<g>
				<path fill="#FFFFFF" d="M138,320.5c0,2.4-1.5,3.7-3.3,3.7c-1.9,0-3.2-1.4-3.2-3.6c0-2.2,1.4-3.7,3.3-3.7
					C136.8,316.9,138,318.4,138,320.5z M132.5,320.6c0,1.5,0.8,2.9,2.3,2.9c1.4,0,2.3-1.3,2.3-2.9c0-1.4-0.7-2.9-2.3-2.9
					C133.3,317.7,132.5,319.1,132.5,320.6z"/>
			</g>
			<g>
				<path fill="#FFFFFF" d="M139.2,317.1c0.5-0.1,1.1-0.1,1.8-0.1c1,0,1.6,0.2,2,0.6c0.4,0.3,0.6,0.8,0.6,1.3c0,0.9-0.6,1.6-1.3,1.8
					v0c0.5,0.2,0.9,0.7,1,1.4c0.2,1,0.4,1.7,0.5,1.9h-0.9c-0.1-0.2-0.3-0.8-0.5-1.7c-0.2-1-0.6-1.3-1.4-1.4h-0.9v3.1h-0.9V317.1z
					 M140.1,320.4h0.9c1,0,1.6-0.5,1.6-1.3c0-0.9-0.7-1.3-1.6-1.3c-0.4,0-0.8,0-0.9,0.1V320.4z"/>
			</g>
		</g>
		<g>
			<g>
				<path fill="#FFFFFF" d="M106.3,361c-0.1-1-0.1-2.2-0.1-3.1h0c-0.2,0.8-0.5,1.7-0.9,2.7l-1.2,3.4h-0.7l-1.1-3.4
					c-0.3-1-0.6-1.9-0.8-2.7h0c0,0.9-0.1,2.1-0.1,3.1l-0.2,3h-0.9l0.5-7.1h1.2l1.2,3.4c0.3,0.9,0.5,1.6,0.7,2.4h0
					c0.2-0.7,0.4-1.5,0.7-2.4l1.3-3.4h1.2l0.4,7.1h-0.9L106.3,361z"/>
			</g>
			<g>
				<path fill="#FFFFFF" d="M114.8,360.5c0,2.4-1.5,3.7-3.3,3.7c-1.9,0-3.2-1.4-3.2-3.6c0-2.2,1.4-3.7,3.3-3.7
					C113.6,356.9,114.8,358.4,114.8,360.5z M109.4,360.6c0,1.5,0.8,2.9,2.3,2.9c1.4,0,2.3-1.3,2.3-2.9c0-1.4-0.7-2.9-2.3-2.9
					C110.1,357.7,109.4,359.1,109.4,360.6z"/>
			</g>
			<g>
				<path fill="#FFFFFF" d="M117.6,364.1l-2.3-7.1h1l1.1,3.5c0.3,1,0.6,1.8,0.8,2.6h0c0.2-0.8,0.5-1.7,0.8-2.6l1.2-3.5h1l-2.5,7.1
					H117.6z"/>
			</g>
			<g>
				<path fill="#FFFFFF" d="M122.8,357.1v7.1h-0.9v-7.1H122.8z"/>
			</g>
			<g>
				<path fill="#FFFFFF" d="M128,360.8h-2.7v2.5h3.1v0.8h-4v-7.1h3.8v0.8h-2.9v2.2h2.7V360.8z"/>
			</g>
		</g>
		<g>
			<g>
				<path fill="#FFFFFF" d="M100.4,395.7c0.6-0.1,1.2-0.1,1.9-0.1c1.3,0,2.2,0.3,2.9,0.9c0.6,0.6,1,1.4,1,2.5c0,1.2-0.4,2.1-1,2.7
					c-0.7,0.7-1.8,1-3.1,1c-0.6,0-1.2,0-1.7-0.1V395.7z M101.3,401.9c0.2,0,0.6,0.1,0.9,0.1c1.9,0,3-1.1,3-3c0-1.7-0.9-2.7-2.9-2.7
					c-0.5,0-0.8,0-1.1,0.1V401.9z"/>
			</g>
			<g>
				<path fill="#FFFFFF" d="M108.4,400.4l-0.7,2.2h-0.9l2.4-7.1h1.1l2.4,7.1h-1l-0.8-2.2H108.4z M110.7,399.7l-0.7-2
					c-0.2-0.5-0.3-0.9-0.4-1.3h0c-0.1,0.4-0.2,0.8-0.4,1.3l-0.7,2H110.7z"/>
			</g>
			<g>
				<path fill="#FFFFFF" d="M114.2,396.4H112v-0.8h5.2v0.8h-2.2v6.3h-0.9V396.4z"/>
			</g>
			<g>
				<path fill="#FFFFFF" d="M121.7,399.3h-2.7v2.5h3.1v0.8h-4v-7.1h3.8v0.8h-2.9v2.2h2.7V399.3z"/>
			</g>
		</g>
		<g>
			<g>
				<g>
					<path fill="#EC1C24" d="M111.2,259.9l-2.6,2.6L107,261v-16.5l4.2,4.2V259.9z M111.2,278l-4.2,4.2v-16.4l1.6-1.6l2.6,2.6V278z
						 M129.7,243.8l-4.1,4.2h-13.6l-4.1-4.2H129.7z M129.7,282.9h-21.9l4.1-4.2h13.6L129.7,282.9z M130.5,261l-1.5,1.6l-2.7-2.6
						v-11.2l4.2-4.2V261z M130.5,282.2l-4.2-4.2v-11.2l2.7-2.6l1.5,1.6V282.2z"/>
				</g>
			</g>
			<g>
				<g>
					<path fill="#EC1C24" d="M137.2,261v-16.5l4.2,4.2v11.2l-2.6,2.6L137.2,261z M159.9,243.8l-4.1,4.2h-13.6l-4.1-4.2H159.9z
						 M159.9,282.9H138l4.1-4.2h13.6L159.9,282.9z M156.2,261.3l2.1,2.1l-2.1,2.1h-14.6l-2.1-2.1l2.1-2.1H156.2z M160.7,265.8v16.4
						l-4.2-4.2v-11.2l2.7-2.6L160.7,265.8z"/>
				</g>
			</g>
			<g>
				<g>
					<path fill="#EC1C24" d="M167.4,282.9v-4.2h4.2v4.2H167.4z"/>
				</g>
			</g>
		</g>
		<g>
			<g>
				<g>
					<path fill="#EC1C24" d="M238.5,243.8l-4.1,4.2h-13.6l-4.1-4.2H238.5z M238.5,282.9h-21.9l4.1-4.2h13.6L238.5,282.9z
						 M234.9,261.3l2.1,2.1l-2.1,2.1h-14.6l-2.1-2.1l2.1-2.1H234.9z M235.1,259.9v-11.2l4.2-4.2V261l-1.5,1.6L235.1,259.9z
						 M239.3,265.8v16.4l-4.2-4.2v-11.2l2.7-2.6L239.3,265.8z"/>
				</g>
			</g>
			<g>
				<g>
					<path fill="#EC1C24" d="M246,261v-16.5l4.2,4.2v11.2l-2.6,2.6L246,261z M268.7,243.8l-4.1,4.2h-13.6l-4.1-4.2H268.7z
						 M268.7,282.9h-21.9l4.1-4.2h13.6L268.7,282.9z M265.1,261.3l2.1,2.1l-2.1,2.1h-14.6l-2.1-2.1l2.1-2.1H265.1z M269.5,265.8
						v16.4l-4.2-4.2v-11.2l2.7-2.6L269.5,265.8z"/>
				</g>
			</g>
			<g>
				<g>
					<path fill="#EC1C24" d="M276.2,282.9v-4.2h4.2v4.2H276.2z"/>
				</g>
			</g>
		</g>
		<g>
			<g>
				<g>
					<path fill="#EC1C24" d="M343.1,259.9l-2.6,2.6l-1.6-1.6v-16.5l4.2,4.2V259.9z M343.1,278l-4.2,4.2v-16.4l1.6-1.6l2.6,2.6V278z
						 M361.6,243.8l-4.1,4.2h-13.6l-4.1-4.2H361.6z M361.6,282.9h-21.9l4.1-4.2h13.6L361.6,282.9z M362.3,261l-1.5,1.6l-2.7-2.6
						v-11.2l4.2-4.2V261z M362.3,282.2l-4.2-4.2v-11.2l2.7-2.6l1.5,1.6V282.2z"/>
				</g>
			</g>
			<g>
				<g>
					<path fill="#EC1C24" d="M373.3,266.8V278l-4.2,4.2v-16.4l1.6-1.6L373.3,266.8z M391.8,243.8l-4.1,4.2H374l-4.1-4.2H391.8z
						 M391.8,282.9h-21.9l4.1-4.2h13.6L391.8,282.9z M388.1,261.3l2.1,2.1l-2.1,2.1h-14.6l-2.1-2.1l2.1-2.1H388.1z M388.3,259.9
						v-11.2l4.2-4.2V261l-1.5,1.6L388.3,259.9z"/>
				</g>
			</g>
			<g>
				<g>
					<path fill="#EC1C24" d="M401.8,259.9v-11.2l4.2-4.2V261l-1.6,1.6L401.8,259.9z M406,265.8v16.4l-4.2-4.2v-11.2l2.6-2.6
						L406,265.8z"/>
				</g>
			</g>
		</g>
	</g>
</g>
</svg>
