<?xml version="1.0" encoding="utf-8"?>
<!-- Generator: Adobe Illustrator 18.0.0, SVG Export Plug-In . SVG Version: 6.00 Build 0)  -->
<!DOCTYPE svg PUBLIC "-//W3C//DTD SVG 1.1//EN" "http://www.w3.org/Graphics/SVG/1.1/DTD/svg11.dtd">
<svg version="1.1" xmlns="http://www.w3.org/2000/svg" xmlns:xlink="http://www.w3.org/1999/xlink" x="0px" y="0px"
	 viewBox="0 0 512 512" enable-background="new 0 0 512 512" xml:space="preserve">
<g id="Layer_1">
	<g>
		<g>
			<g opacity="0.4" enable-background="new    ">
				
					<radialGradient id="SVGID_1_" cx="256.525" cy="254.5188" r="237.7344" gradientTransform="matrix(1 0 0 1 -0.5 1.5)" gradientUnits="userSpaceOnUse">
					<stop  offset="0" style="stop-color:#010101"/>
					<stop  offset="0.8587" style="stop-color:#010101;stop-opacity:0.1413"/>
					<stop  offset="1" style="stop-color:#010101;stop-opacity:0"/>
				</radialGradient>
				<path fill="url(#SVGID_1_)" d="M449,449c-59.7,59.7-326.2,59.7-385.9,0S3.4,122.7,63,63s326.3-59.6,386,0S508.6,389.3,449,449z"
					/>
			</g>
			<g opacity="0.4" enable-background="new    ">
				
					<radialGradient id="SVGID_2_" cx="257.0394" cy="253.9629" r="266.3242" gradientTransform="matrix(0.7069 -0.7073 0.4895 0.4892 -49.991 313.5403)" gradientUnits="userSpaceOnUse">
					<stop  offset="0" style="stop-color:#010101"/>
					<stop  offset="0.8587" style="stop-color:#010101;stop-opacity:0.1413"/>
					<stop  offset="1" style="stop-color:#010101;stop-opacity:0"/>
				</radialGradient>
				<path fill="url(#SVGID_2_)" d="M449,449c-59.7,59.7-326.2,59.7-385.9,0S3.4,122.7,63,63s326.3-59.6,386,0S508.6,389.3,449,449z"
					/>
			</g>
			<g opacity="0.4" enable-background="new    ">
				
					<radialGradient id="SVGID_3_" cx="257.7463" cy="255.0872" r="266.3709" gradientTransform="matrix(-0.7069 -0.7073 -0.4895 0.4892 562.991 313.5403)" gradientUnits="userSpaceOnUse">
					<stop  offset="0" style="stop-color:#010101"/>
					<stop  offset="0.8587" style="stop-color:#010101;stop-opacity:0.1413"/>
					<stop  offset="1" style="stop-color:#010101;stop-opacity:0"/>
				</radialGradient>
				<path fill="url(#SVGID_3_)" d="M63,449c59.7,59.7,326.2,59.7,385.9,0s59.7-326.2,0-385.9S122.7,3.4,63,63S3.4,389.3,63,449z"/>
			</g>
		</g>
		
			<radialGradient id="SVGID_4_" cx="258.5" cy="697.5" r="261.0019" gradientTransform="matrix(1 0 0 1 -0.5 -565.5)" gradientUnits="userSpaceOnUse">
			<stop  offset="0" style="stop-color:#088888"/>
			<stop  offset="1" style="stop-color:#055555"/>
		</radialGradient>
		<path fill="url(#SVGID_4_)" d="M433.3,433.3c-70.3,70.3-284.3,70.3-354.6,0S8.4,149,78.7,78.7s284.3-70.3,354.6,0
			S503.6,363,433.3,433.3z"/>
	</g>
	<g id="_x3C_Group_x3E_">
		<path opacity="0.4" enable-background="new    " d="M78.7,426.8c70.3,70.3,284.3,70.3,354.6,0c34.1-34.1,51.6-101.9,52.7-170.8
			c-1-68.9-18.6-136.7-52.7-170.8C398.1,50,327.1,32.5,256,32.5S113.8,50,78.7,85.2C44.6,119.3,27.1,187.1,26,256
			C27.1,324.9,44.6,392.7,78.7,426.8z M92.8,99.3C107.1,85,130,73.1,159.3,64.9c28.7-8.1,62.1-12.4,96.7-12.4
			c34.5,0,68,4.3,96.7,12.4c29.2,8.3,52.2,20.2,66.5,34.4c14.3,14.3,26.2,37.2,34.4,66.5c8.1,28.7,12.4,62.1,12.4,96.7
			c0,34.5-4.3,68-12.4,96.7c-8.3,29.2-20.2,52.2-34.4,66.5c-14.3,14.3-37.2,26.2-66.5,34.4c-28.7,8.1-62.1,12.4-96.7,12.4
			c-34.5,0-68-4.3-96.7-12.4c-29.2-8.3-52.2-20.2-66.5-34.4c-14.3-14.3-26.2-37.2-34.4-66.5C50.3,330.5,46,297,46,262.5
			s4.3-68,12.4-96.7C66.7,136.6,78.6,113.6,92.8,99.3z"/>
		<path fill="#FFFFFF" d="M256,46c34.5,0,68,4.3,96.7,12.4c29.2,8.3,52.2,20.2,66.5,34.4c14.3,14.3,26.2,37.2,34.4,66.5
			C461.7,188,466,221.5,466,256s-4.3,68-12.4,96.7c-8.3,29.2-20.2,52.2-34.4,66.5c-14.3,14.3-37.2,26.2-66.5,34.4
			C324,461.7,290.5,466,256,466s-68-4.3-96.7-12.4c-29.2-8.3-52.2-20.2-66.5-34.4c-14.3-14.3-26.2-37.2-34.4-66.5
			C50.3,324,46,290.5,46,256s4.3-68,12.4-96.7c8.3-29.2,20.2-52.2,34.4-66.5c14.3-14.3,37.2-26.2,66.5-34.4
			C188,50.3,221.5,46,256,46 M256,26c-71.1,0-142.1,17.6-177.3,52.7C8.4,149,8.4,363,78.7,433.3C113.9,468.5,184.9,486,256,486
			s142.1-17.6,177.3-52.7c70.3-70.3,70.3-284.3,0-354.6C398.1,43.6,327.1,26,256,26L256,26z"/>
	</g>
	<g>
		<path d="M284.3,302.1h-56.6l-10.8,32.3h-34.3l58.3-156.7h29.9l58.7,156.7h-34.3L284.3,302.1z M236.4,275.9h39.2l-19.7-58.7
			L236.4,275.9z"/>
	</g>
	<g>
		<g>
			<ellipse fill="none" stroke="#FFFFFF" stroke-width="3" stroke-miterlimit="10" cx="256" cy="256" rx="134.3" ry="35.2"/>
			<ellipse fill="none" stroke="#FFFFFF" stroke-width="3" stroke-miterlimit="10" cx="256" cy="256" rx="35.2" ry="134.3"/>
		</g>
		<g>
			
				<ellipse transform="matrix(0.7071 -0.7071 0.7071 0.7071 -106.0387 256)" fill="none" stroke="#FFFFFF" stroke-width="3" stroke-miterlimit="10" cx="256" cy="256" rx="134.3" ry="35.2"/>
			
				<ellipse transform="matrix(-0.7071 -0.7071 0.7071 -0.7071 256 618.0387)" fill="none" stroke="#FFFFFF" stroke-width="3" stroke-miterlimit="10" cx="256" cy="256" rx="134.3" ry="35.2"/>
		</g>
		<circle fill="#FFFFFF" cx="200.6" cy="168.4" r="11.2"/>
		<circle fill="#FFFFFF" cx="204.2" cy="288.2" r="11.2"/>
		<circle fill="#FFFFFF" cx="348.9" cy="162.2" r="11.2"/>
		<circle fill="#FFFFFF" cx="281.8" cy="349.2" r="11.2"/>
	</g>
</g>
<g id="Layer_1_copy">
	<g>
		<g>
			<g opacity="0.4" enable-background="new    ">
				
					<radialGradient id="SVGID_5_" cx="256.525" cy="254.5188" r="237.7344" gradientTransform="matrix(1 0 0 1 -0.5 1.5)" gradientUnits="userSpaceOnUse">
					<stop  offset="0" style="stop-color:#010101"/>
					<stop  offset="0.8587" style="stop-color:#010101;stop-opacity:0.1413"/>
					<stop  offset="1" style="stop-color:#010101;stop-opacity:0"/>
				</radialGradient>
				<path fill="url(#SVGID_5_)" d="M449,449c-59.7,59.7-326.2,59.7-385.9,0S3.4,122.7,63,63s326.3-59.6,386,0S508.6,389.3,449,449z"
					/>
			</g>
			<g opacity="0.4" enable-background="new    ">
				
					<radialGradient id="SVGID_6_" cx="257.0394" cy="253.9629" r="266.3242" gradientTransform="matrix(0.7069 -0.7073 0.4895 0.4892 -49.991 313.5403)" gradientUnits="userSpaceOnUse">
					<stop  offset="0" style="stop-color:#010101"/>
					<stop  offset="0.8587" style="stop-color:#010101;stop-opacity:0.1413"/>
					<stop  offset="1" style="stop-color:#010101;stop-opacity:0"/>
				</radialGradient>
				<path fill="url(#SVGID_6_)" d="M449,449c-59.7,59.7-326.2,59.7-385.9,0S3.4,122.7,63,63s326.3-59.6,386,0S508.6,389.3,449,449z"
					/>
			</g>
			<g opacity="0.4" enable-background="new    ">
				
					<radialGradient id="SVGID_7_" cx="257.7463" cy="255.0872" r="266.3709" gradientTransform="matrix(-0.7069 -0.7073 -0.4895 0.4892 562.991 313.5403)" gradientUnits="userSpaceOnUse">
					<stop  offset="0" style="stop-color:#010101"/>
					<stop  offset="0.8587" style="stop-color:#010101;stop-opacity:0.1413"/>
					<stop  offset="1" style="stop-color:#010101;stop-opacity:0"/>
				</radialGradient>
				<path fill="url(#SVGID_7_)" d="M63,449c59.7,59.7,326.2,59.7,385.9,0s59.7-326.2,0-385.9S122.7,3.4,63,63S3.4,389.3,63,449z"/>
			</g>
		</g>
		
			<radialGradient id="SVGID_8_" cx="258.5" cy="697.5" r="261.0019" gradientTransform="matrix(1 0 0 1 -0.5 -565.5)" gradientUnits="userSpaceOnUse">
			<stop  offset="0" style="stop-color:#D0B6E1"/>
			<stop  offset="1" style="stop-color:#A894FF"/>
		</radialGradient>
		<path fill="url(#SVGID_8_)" d="M433.3,433.3c-70.3,70.3-284.3,70.3-354.6,0S8.4,149,78.7,78.7s284.3-70.3,354.6,0
			S503.6,363,433.3,433.3z"/>
	</g>
	<g id="_x3C_Group_x3E__1_">
		<path opacity="0.4" enable-background="new    " d="M78.7,426.8c70.3,70.3,284.3,70.3,354.6,0c34.1-34.1,51.6-101.9,52.7-170.8
			c-1-68.9-18.6-136.7-52.7-170.8C398.1,50,327.1,32.5,256,32.5S113.8,50,78.7,85.2C44.6,119.3,27.1,187.1,26,256
			C27.1,324.9,44.6,392.7,78.7,426.8z M92.8,99.3C107.1,85,130,73.1,159.3,64.9c28.7-8.1,62.1-12.4,96.7-12.4
			c34.5,0,68,4.3,96.7,12.4c29.2,8.3,52.2,20.2,66.5,34.4c14.3,14.3,26.2,37.2,34.4,66.5c8.1,28.7,12.4,62.1,12.4,96.7
			c0,34.5-4.3,68-12.4,96.7c-8.3,29.2-20.2,52.2-34.4,66.5c-14.3,14.3-37.2,26.2-66.5,34.4c-28.7,8.1-62.1,12.4-96.7,12.4
			c-34.5,0-68-4.3-96.7-12.4c-29.2-8.3-52.2-20.2-66.5-34.4c-14.3-14.3-26.2-37.2-34.4-66.5C50.3,330.5,46,297,46,262.5
			s4.3-68,12.4-96.7C66.7,136.6,78.6,113.6,92.8,99.3z"/>
		<path fill="#FFFFFF" d="M256,46c34.5,0,68,4.3,96.7,12.4c29.2,8.3,52.2,20.2,66.5,34.4c14.3,14.3,26.2,37.2,34.4,66.5
			C461.7,188,466,221.5,466,256s-4.3,68-12.4,96.7c-8.3,29.2-20.2,52.2-34.4,66.5c-14.3,14.3-37.2,26.2-66.5,34.4
			C324,461.7,290.5,466,256,466s-68-4.3-96.7-12.4c-29.2-8.3-52.2-20.2-66.5-34.4c-14.3-14.3-26.2-37.2-34.4-66.5
			C50.3,324,46,290.5,46,256s4.3-68,12.4-96.7c8.3-29.2,20.2-52.2,34.4-66.5c14.3-14.3,37.2-26.2,66.5-34.4
			C188,50.3,221.5,46,256,46 M256,26c-71.1,0-142.1,17.6-177.3,52.7C8.4,149,8.4,363,78.7,433.3C113.9,468.5,184.9,486,256,486
			s142.1-17.6,177.3-52.7c70.3-70.3,70.3-284.3,0-354.6C398.1,43.6,327.1,26,256,26L256,26z"/>
	</g>
	<g>
		<path fill="none" d="M196.7,296.4c-2.1-1.9-3.5-4.7-3.6-7.8c-2.8-0.4-5.5-0.8-8.1-1.2c-4.6,6.5-8.8,12.9-12.3,18.9
			c-12.7,21.7-16.5,37.5-10.5,43.6c1.8,1.8,4.7,2.8,8.3,2.8c10.2,0,25.6-6.7,43.5-18.3h-31.4L196.7,296.4z"/>
		<path fill="none" d="M203.9,277l6.1-16.4c-0.7-0.8-1.4-1.6-2.1-2.4c-7.7,8.9-14.8,17.7-21,26.3c2.1,0.3,4.2,0.7,6.4,1
			C194.5,280.7,198.8,277.1,203.9,277z"/>
		<path fill="none" d="M217.7,331.9c2.3-1.5,4.6-3.1,6.9-4.8c-0.6-3.6-1.1-7.3-1.6-11.1L217.7,331.9z"/>
		<path fill="none" d="M183.6,228c-36,6.1-60.3,16.5-60.3,28c0,11.5,24.3,21.9,60.4,28c6.5-9.1,14-18.5,22.3-28
			C197.5,246.4,190,236.9,183.6,228z"/>
		<path fill="none" d="M251.4,302.1h-23.8l-2.4,7.1c0.6,5.5,1.4,10.8,2.2,15.9c8.5-6.2,17.3-13.2,26.3-21
			C253,303.4,252.2,302.7,251.4,302.1z"/>
		<path fill="none" d="M215.8,244.9l3.9-10.6c0.2-3.6,0.3-7.2,0.6-10.7c-11.8,0.9-23,2.2-33.4,3.8c6.1,8.5,13.2,17.3,20.9,26.3
			C210.5,250.8,213.1,247.8,215.8,244.9z"/>
		<path fill="none" d="M284.3,302.1h-23.7c-0.8,0.7-1.5,1.4-2.3,2c9,7.8,17.8,14.8,26.3,21c0.8-5,1.5-10.3,2.1-15.7L284.3,302.1z"/>
		<path fill="none" d="M329.5,334.4H298c18,11.6,33.4,18.3,43.5,18.3c3.7,0,6.5-0.9,8.3-2.8c6-6,2.2-21.9-10.5-43.6
			c-3.5-6.1-7.7-12.4-12.3-18.9c-4.6,0.8-9.5,1.4-14.5,2L329.5,334.4z"/>
		<path fill="none" d="M228,328.3c6.1,36.1,16.5,60.4,28,60.4c7.8,0,15.1-11.2,20.9-29.6c-3.7-1.8-6.2-5.6-6.2-10
			c0-6.2,5-11.2,11.2-11.2c0.1,0,0.3,0,0.4,0c0.6-3.1,1.2-6.4,1.8-9.7c-9-6.5-18.5-14-28-22.3C246.4,314.4,237,321.8,228,328.3z"/>
		<path fill="none" d="M301.9,260.8l9.6,25.7c4.7-0.6,9.2-1.2,13.6-1.9c-6.2-8.5-13.3-17.4-21-26.3
			C303.4,259.1,302.6,259.9,301.9,260.8z"/>
		<path fill="none" d="M287.4,327.1c2.3,1.7,4.6,3.3,6.9,4.8l-5.3-15.8C288.5,319.9,288,323.6,287.4,327.1z"/>
		<path fill="none" d="M224.6,184.9c-5.1-3.7-10.1-7-14.9-9.9c-2,2.8-5.3,4.7-9.1,4.7c-6.2,0-11.2-5-11.2-11.2
			c0-1.4,0.3-2.7,0.7-3.9c-7.7-3.4-14.4-5.2-19.7-5.2c-3.7,0-6.5,0.9-8.3,2.8c-8.2,8.2,1.7,32.7,22.8,62.5c10.9-1.8,22.9-3.1,35.6-4
			C221.5,207.8,222.8,195.8,224.6,184.9z"/>
		<path fill="none" d="M328.4,284c36.1-6.1,60.4-16.5,60.4-28c0-11.5-24.3-21.9-60.4-28c-6.5,9.1-14,18.5-22.3,28
			C314.3,265.5,321.8,274.9,328.4,284z"/>
		<path fill="none" d="M223.4,223.4c0,0.5-0.1,0.9-0.1,1.4l0.5-1.4C223.7,223.4,223.6,223.4,223.4,223.4z"/>
		<path fill="none" d="M256.5,219.3l-0.7-2.1l-0.7,2.1c0.3,0,0.6,0,0.9,0C256.2,219.3,256.4,219.3,256.5,219.3z"/>
		<path fill="none" d="M288.6,223.4c-0.2,0-0.4,0-0.7,0l0.8,2.1C288.7,224.8,288.6,224.1,288.6,223.4z"/>
		<path fill="none" d="M256,302.1C256,302.1,256,302.1,256,302.1L256,302.1C256,302.1,256,302.1,256,302.1z"/>
		<path fill="none" d="M302.1,256c-1.1-1.3-2.3-2.6-3.4-3.9l2,5.5C301.2,257.1,301.7,256.5,302.1,256z"/>
		<path fill="none" d="M286.7,220.3c0.5,0,1.1,0.1,1.6,0.1c-0.9-11.9-2.2-23.1-3.8-33.4c-2.6,1.9-5.3,3.9-8,6L286.7,220.3z"/>
		<path fill="none" d="M225,220.3l10.2-27.5c-2.6-2-5.2-4-7.8-5.9c-1.6,10.3-2.9,21.6-3.8,33.4C224.1,220.3,224.5,220.3,225,220.3z"
			/>
		<path fill="none" d="M240.9,177.6h29.9l4.6,12.4c2.9-2.2,5.8-4.4,8.6-6.4c-6.1-36.1-16.5-60.4-28-60.4s-21.9,24.3-28,60.4
			c2.8,2,5.5,4,8.4,6.2L240.9,177.6z"/>
		<path fill="none" d="M327.1,224.6c4.6-6.5,8.8-12.9,12.3-18.9c8-13.6,12.4-24.9,13.1-33c-1.1,0.4-2.4,0.6-3.6,0.6
			c-6.2,0-11.2-5-11.2-11.2c0-0.9,0.1-1.8,0.3-2.6c-12.2,1.5-30.2,10.7-50.7,25.3c1.8,10.9,3.2,22.9,4.1,35.7
			C304.2,221.5,316.2,222.8,327.1,224.6z"/>
		<path fill="none" d="M292.2,234.9l3.6,9.6c2.8,3.1,5.6,6.1,8.3,9.2c7.7-8.9,14.8-17.7,21-26.3c-10.3-1.6-21.6-2.9-33.4-3.8
			C291.9,227.3,292.1,231.1,292.2,234.9z"/>
		<path fill="none" d="M254.1,222.3l-17.8,53.6h39.2l-18-53.6c-0.5,0-1,0-1.5,0C255.4,222.3,254.8,222.3,254.1,222.3z"/>
		<path fill="none" d="M209.9,256c0.4,0.5,0.9,1,1.3,1.5l1.9-5C212,253.6,210.9,254.8,209.9,256z"/>
		<g>
			<path fill="#393C3D" d="M301.9,260.8l-1.2-3.2l-2-5.5c-2-2.2-4-4.5-6.1-6.7c0.1,3.5,0.1,7,0.1,10.6c0,3.6,0,7.1-0.1,10.6
				c0,1.5-0.1,3-0.1,4.5c-0.2,5.9-0.4,11.7-0.8,17.3c6.9-0.5,13.5-1.1,19.9-1.9L301.9,260.8z"/>
			<path fill="#393C3D" d="M271.1,219.6c1.1,1,2.2,2.1,3.3,3.1c2.5,2.4,5,4.9,7.6,7.4c2.5,2.5,5,5,7.4,7.6
				c-0.2-4.1-0.4-8.1-0.6-12.1l-0.8-2.1l-1.2-3.1l-10.2-27.3c-6,4.6-12.1,9.6-18.3,15C262.5,211.6,266.8,215.5,271.1,219.6z"/>
			<path fill="#393C3D" d="M275.4,190l-4.6-12.4h-29.9l-4.6,12.2c6.4,4.9,13,10.3,19.7,16.1C262.6,200.2,269.1,194.9,275.4,190z"/>
			<path fill="#393C3D" d="M295.8,244.6l-3.6-9.6c0.1,2,0.1,4,0.2,6C293.6,242.1,294.7,243.3,295.8,244.6z"/>
			<path fill="#393C3D" d="M312.6,289.4c-6.8,0.8-13.9,1.5-21.2,2c-0.6,8.6-1.4,16.9-2.4,24.7l5.3,15.8c1.2,0.8,2.5,1.7,3.7,2.4
				h31.4L312.6,289.4z"/>
			<path fill="#393C3D" d="M222.7,237.6c2.4-2.5,4.9-5.1,7.4-7.6c2.5-2.5,5-5,7.6-7.4c1.1-1.1,2.2-2.1,3.3-3.1
				c4.3-4,8.5-7.9,12.8-11.7c-6.3-5.4-12.4-10.5-18.5-15.1L225,220.3l-1.2,3.1l-0.5,1.4l-3.5,9.5l-3.9,10.6c1.2-1.3,2.5-2.7,3.7-4
				C220.6,239.8,221.6,238.7,222.7,237.6z"/>
			<path fill="#393C3D" d="M289.5,269.9c0.1-4.6,0.2-9.2,0.2-13.9c0-4.7-0.1-9.3-0.2-13.9c-3.1-3.3-6.4-6.6-9.7-9.9
				c-3.3-3.3-6.6-6.5-9.9-9.7c-1.1-1-2.2-2.1-3.3-3.1c-3.5-3.3-7.1-6.5-10.6-9.6c-3.5,3.1-7,6.3-10.6,9.6c-1.1,1-2.2,2.1-3.3,3.1
				c-3.3,3.1-6.6,6.4-9.9,9.7c-3.3,3.3-6.5,6.6-9.7,9.9c-1,1.1-2.1,2.2-3.1,3.3c-2.2,2.3-4.3,4.7-6.4,7l-1.9,5l-1.2,3.2l-6.1,16.4
				c0.1,0,0.2,0,0.3,0c6.1,0,11.1,4.9,11.2,11c1.7,0.1,3.3,0.3,5,0.4c1,0.1,2,0.1,3.1,0.2c4.7,0.3,9.4,0.6,14.2,0.7
				c1.5,0.1,3,0.1,4.5,0.1c4.6,0.1,9.2,0.2,13.9,0.2c4.7,0,9.3-0.1,13.9-0.2c1.5,0,3-0.1,4.5-0.1c4.8-0.2,9.6-0.4,14.2-0.7
				c0.3-4.7,0.6-9.4,0.7-14.2C289.4,272.9,289.4,271.4,289.5,269.9z M236.4,275.9l17.8-53.6l1-3l0.7-2.1l0.7,2.1l1,3l18,53.6H236.4z
				"/>
			<path fill="#393C3D" d="M266.6,292.6c-3.5,0.1-7,0.1-10.6,0.1c-3.6,0-7.1,0-10.6-0.1c-1.5,0-3-0.1-4.5-0.1
				c-5.9-0.2-11.7-0.4-17.3-0.8c-1-0.1-2.1-0.1-3.1-0.2c-1.9-0.1-3.7-0.3-5.6-0.4c-1.3,4.8-5.6,8.3-10.8,8.3c-2.9,0-5.5-1.1-7.5-2.9
				l-14.1,37.9H214c1.2-0.8,2.5-1.6,3.7-2.4L223,316l2.3-6.8l2.4-7.1h23.8h4.5h0.1h4.5h23.7l2.5,7.3c0.7-5.7,1.2-11.6,1.7-17.7
				c-5.6,0.4-11.4,0.6-17.3,0.8C269.6,292.5,268.1,292.5,266.6,292.6z"/>
		</g>
		<g>
			<path fill="#FFFFFF" d="M257.5,222.3l-1-3c-0.2,0-0.4,0-0.5,0c-0.3,0-0.6,0-0.9,0l-1,3c0.6,0,1.2,0,1.9,0
				C256.5,222.3,257,222.3,257.5,222.3z"/>
			<path fill="#FFFFFF" d="M391.8,256c0-13.1-24.2-24.4-61.4-30.8c4.3-6.2,8.2-12.2,11.6-18c5.7-9.7,13.3-24.8,13.6-36.1
				c2.7-2,4.5-5.3,4.5-8.9c0-6.2-5-11.2-11.2-11.2c-4.1,0-7.6,2.2-9.6,5.4c-12.5,1-31.2,10.2-52.5,25.2
				c-6.5-37.2-17.8-61.4-30.8-61.4s-24.4,24.2-30.8,61.4c-4.8-3.4-9.6-6.5-14.1-9.3c0.5-1.2,0.7-2.5,0.7-3.9c0-6.2-5-11.2-11.2-11.2
				c-3.7,0-7,1.8-9.1,4.7c-8.3-3.6-15.4-5.6-21.1-5.6c-4.5,0-8,1.2-10.5,3.7c-9.2,9.2-0.1,34.3,21.6,65.2
				c-37.2,6.5-61.3,17.7-61.3,30.8c0,13.1,24.2,24.4,61.4,30.8c-4.3,6.2-8.2,12.2-11.6,18c-7.9,13.5-19.7,37.5-10,47.2
				c2.4,2.4,6,3.7,10.5,3.7c12.4,0,32.1-9.4,54.7-25.3c6.5,37.2,17.8,61.4,30.8,61.4c9.1,0,17.4-11.8,23.8-31.6
				c0.7,0.1,1.4,0.2,2.1,0.2c6.2,0,11.2-5,11.2-11.2c0-5-3.2-9.2-7.7-10.6c0.5-2.7,1.1-5.4,1.5-8.2c22.6,15.9,42.3,25.3,54.7,25.3
				c4.5,0,8-1.2,10.5-3.7c9.7-9.7-2.1-33.7-10-47.2c-3.4-5.8-7.3-11.8-11.6-18C367.6,280.4,391.8,269.1,391.8,256z M338.1,159.6
				c-0.2,0.8-0.3,1.7-0.3,2.6c0,6.2,5,11.2,11.2,11.2c1.3,0,2.5-0.2,3.6-0.6c-0.7,8-5.2,19.4-13.1,33c-3.5,6.1-7.7,12.4-12.3,18.9
				c-10.9-1.8-22.9-3.2-35.7-4.1c-0.9-12.8-2.3-24.8-4.1-35.7C307.8,170.3,325.9,161.1,338.1,159.6z M215.3,288
				c-0.1-6.1-5.1-11-11.2-11c-0.1,0-0.2,0-0.3,0c-5.1,0.1-9.4,3.7-10.6,8.5c-2.2-0.3-4.3-0.6-6.4-1c6.2-8.5,13.3-17.4,21-26.3
				c0.7,0.8,1.4,1.6,2.1,2.4l1.2-3.2c-0.4-0.5-0.9-1-1.3-1.5c1-1.2,2.1-2.3,3.1-3.5c2.1-2.3,4.2-4.7,6.4-7c1-1.1,2-2.2,3.1-3.3
				c3.1-3.3,6.4-6.6,9.7-9.9c3.3-3.3,6.6-6.5,9.9-9.7c1.1-1,2.2-2.1,3.3-3.1c3.5-3.3,7.1-6.5,10.6-9.6c3.5,3.1,7,6.3,10.6,9.6
				c1.1,1,2.2,2.1,3.3,3.1c3.3,3.1,6.6,6.4,9.9,9.7c3.3,3.3,6.5,6.6,9.7,9.9c0.1,4.6,0.2,9.2,0.2,13.9c0,4.7-0.1,9.3-0.2,13.9
				c0,1.5-0.1,3-0.1,4.5c-0.2,4.8-0.4,9.6-0.7,14.2c-4.7,0.3-9.4,0.6-14.2,0.7c-1.5,0.1-3,0.1-4.5,0.1c-4.6,0.1-9.2,0.2-13.9,0.2
				c-4.7,0-9.3-0.1-13.9-0.2c-1.5,0-3-0.1-4.5-0.1c-4.8-0.2-9.6-0.4-14.2-0.7c-1-0.1-2-0.1-3.1-0.2C218.7,288.2,217,288.1,215.3,288
				z M223.3,224.8c0-0.5,0.1-0.9,0.1-1.4c0.1,0,0.3,0,0.4,0l1.2-3.1c-0.5,0-0.9,0.1-1.4,0.1c0.9-11.9,2.2-23.1,3.8-33.4
				c2.6,1.9,5.2,3.8,7.8,5.9c6,4.7,12.2,9.7,18.5,15.1c-4.3,3.7-8.5,7.6-12.8,11.7c-1.1,1-2.2,2.1-3.3,3.1c-2.5,2.4-5,4.9-7.6,7.4
				c-2.5,2.5-5,5-7.4,7.6c-1,1.1-2.1,2.2-3.1,3.3c-1.2,1.3-2.5,2.6-3.7,4c-2.7,2.9-5.4,5.9-7.9,8.8c-7.8-9-14.8-17.8-20.9-26.3
				c10.3-1.6,21.5-2.9,33.4-3.8c-0.2,3.5-0.4,7.1-0.6,10.7L223.3,224.8z M287.9,223.4c0.2,0,0.4,0,0.7,0c0,0.7,0.1,1.4,0.1,2.1
				c0.2,4,0.4,8,0.6,12.1c-2.4-2.5-4.9-5.1-7.4-7.6c-2.5-2.5-5-5-7.6-7.4c-1.1-1.1-2.2-2.1-3.3-3.1c-4.3-4-8.5-7.9-12.8-11.7
				c6.2-5.3,12.3-10.4,18.3-15c2.7-2.1,5.4-4.1,8-6c1.6,10.3,2.9,21.6,3.8,33.4c-0.5,0-1.1-0.1-1.6-0.1L287.9,223.4z M292.4,271.1
				c0-1.5,0.1-3,0.1-4.5c0.1-3.5,0.1-7,0.1-10.6c0-3.6,0-7.1-0.1-10.6c2.1,2.2,4.1,4.5,6.1,6.7c1.2,1.3,2.3,2.6,3.4,3.9
				c-0.5,0.5-0.9,1.1-1.4,1.6l1.2,3.2c0.7-0.8,1.5-1.6,2.2-2.5c7.7,8.9,14.8,17.7,21,26.3c-4.4,0.7-8.9,1.3-13.6,1.9
				c-6.4,0.8-13,1.4-19.9,1.9C292,282.7,292.3,277,292.4,271.1z M295.8,244.6c-1.1-1.2-2.3-2.4-3.4-3.6c-0.1-2-0.1-4-0.2-6
				c-0.2-3.8-0.4-7.6-0.6-11.3c11.9,0.9,23.1,2.2,33.4,3.8c-6.2,8.5-13.3,17.4-21,26.3C301.4,250.7,298.7,247.6,295.8,244.6z
				 M256,123.2c11.5,0,21.9,24.3,28,60.4c-2.8,2-5.7,4.2-8.6,6.4c-6.4,4.9-12.9,10.2-19.4,15.9c-6.7-5.8-13.2-11.1-19.7-16.1
				c-2.8-2.2-5.6-4.2-8.4-6.2C234.1,147.6,244.5,123.2,256,123.2z M162.1,162.1c1.8-1.8,4.7-2.8,8.3-2.8c5.3,0,12,1.8,19.7,5.2
				c-0.5,1.2-0.7,2.5-0.7,3.9c0,6.2,5,11.2,11.2,11.2c3.7,0,7.1-1.9,9.1-4.7c4.8,3,9.8,6.3,14.9,9.9c-1.8,10.9-3.2,22.9-4.1,35.7
				c-12.7,0.9-24.7,2.3-35.6,4C163.8,194.8,154,170.3,162.1,162.1z M123.2,256c0-11.5,24.3-21.9,60.3-28c6.5,9,13.9,18.4,22.3,28
				c-8.2,9.5-15.7,18.9-22.3,28C147.6,277.9,123.2,267.5,123.2,256z M217.7,331.9c-1.2,0.8-2.5,1.6-3.7,2.4
				c-18,11.6-33.4,18.3-43.5,18.3c-3.7,0-6.5-0.9-8.3-2.8c-6-6-2.2-21.9,10.5-43.6c3.5-6.1,7.7-12.4,12.3-18.9
				c2.6,0.4,5.4,0.8,8.1,1.2c0.1,3.1,1.5,5.9,3.6,7.8c2,1.8,4.6,2.9,7.5,2.9c5.2,0,9.5-3.5,10.8-8.3c1.8,0.2,3.7,0.3,5.6,0.4
				c1,0.1,2,0.1,3.1,0.2c5.6,0.4,11.4,0.6,17.3,0.8c1.5,0,3,0.1,4.5,0.1c3.5,0.1,7,0.1,10.6,0.1c3.6,0,7.1,0,10.6-0.1
				c1.5,0,3-0.1,4.5-0.1c5.9-0.2,11.7-0.4,17.3-0.8c-0.4,6.1-1,12-1.7,17.7c-0.6,5.4-1.3,10.7-2.1,15.7c-8.5-6.2-17.3-13.2-26.3-21
				c0.8-0.7,1.5-1.3,2.3-2h-4.5c0,0,0,0-0.1,0c0,0,0,0-0.1,0h-4.5c0.8,0.7,1.5,1.4,2.3,2c-9,7.8-17.8,14.8-26.3,21
				c-0.8-5.1-1.5-10.4-2.2-15.9L223,316c0.5,3.8,1,7.5,1.6,11.1C222.3,328.8,220,330.4,217.7,331.9z M282.2,338c-0.1,0-0.3,0-0.4,0
				c-6.2,0-11.2,5-11.2,11.2c0,4.4,2.5,8.2,6.2,10c-5.8,18.4-13.1,29.6-20.9,29.6c-11.5,0-21.9-24.3-28-60.4c9-6.5,18.5-14,28-22.3
				c9.6,8.3,19,15.8,28,22.3C283.5,331.7,282.9,334.9,282.2,338z M339.4,306.3c12.7,21.7,16.5,37.5,10.5,43.6
				c-1.8,1.8-4.7,2.8-8.3,2.8c-10.2,0-25.6-6.7-43.5-18.3c-1.2-0.8-2.5-1.6-3.7-2.4c-2.3-1.5-4.6-3.1-6.9-4.8
				c0.6-3.6,1.1-7.2,1.6-11c1-7.8,1.8-16.1,2.4-24.7c7.3-0.5,14.4-1.2,21.2-2c5-0.6,9.8-1.3,14.5-2
				C331.7,293.9,335.9,300.2,339.4,306.3z M328.4,284c-6.5-9.1-14-18.5-22.3-28c8.2-9.5,15.7-18.9,22.3-28
				c36.1,6.1,60.4,16.5,60.4,28C388.8,267.5,364.4,277.9,328.4,284z"/>
		</g>
	</g>
</g>
</svg>
