<?xml version="1.0" encoding="utf-8"?>
<!-- Generator: Adobe Illustrator 18.0.0, SVG Export Plug-In . SVG Version: 6.00 Build 0)  -->
<!DOCTYPE svg PUBLIC "-//W3C//DTD SVG 1.1//EN" "http://www.w3.org/Graphics/SVG/1.1/DTD/svg11.dtd">
<svg version="1.1" id="Layer_3" xmlns="http://www.w3.org/2000/svg" xmlns:xlink="http://www.w3.org/1999/xlink" x="0px" y="0px"
	 viewBox="0 0 512 512" enable-background="new 0 0 512 512" xml:space="preserve">
<g>
	<g opacity="0.4" enable-background="new    ">
		
			<radialGradient id="SVGID_1_" cx="1.0125" cy="515" r="118.8609" gradientTransform="matrix(2 0 0 -2 254 1286)" gradientUnits="userSpaceOnUse">
			<stop  offset="0" style="stop-color:#020202"/>
			<stop  offset="0.8587" style="stop-color:#020202;stop-opacity:0.1413"/>
			<stop  offset="1" style="stop-color:#020202;stop-opacity:0"/>
		</radialGradient>
		<path fill="url(#SVGID_1_)" d="M449,449c-59.7,59.7-326.2,59.7-385.9,0S3.4,122.7,63,63s326.3-59.6,386,0S508.6,389.3,449,449z"/>
	</g>
	<g opacity="0.4" enable-background="new    ">
		
			<radialGradient id="SVGID_2_" cx="2.0286" cy="516.0684" r="133.1551" gradientTransform="matrix(1.4138 -1.4146 -0.979 -0.9784 758.388 763.7472)" gradientUnits="userSpaceOnUse">
			<stop  offset="0" style="stop-color:#020202"/>
			<stop  offset="0.8587" style="stop-color:#020202;stop-opacity:0.1413"/>
			<stop  offset="1" style="stop-color:#020202;stop-opacity:0"/>
		</radialGradient>
		<path fill="url(#SVGID_2_)" d="M449,449c-59.7,59.7-326.2,59.7-385.9,0S3.4,122.7,63,63s326.3-59.6,386,0S508.6,389.3,449,449z"/>
	</g>
	<g opacity="0.4" enable-background="new    ">
		
			<radialGradient id="SVGID_3_" cx="3.4424" cy="513.9732" r="133.1784" gradientTransform="matrix(-1.4138 -1.4146 0.979 -0.9784 -242.3879 763.7472)" gradientUnits="userSpaceOnUse">
			<stop  offset="0" style="stop-color:#020202"/>
			<stop  offset="0.8587" style="stop-color:#020202;stop-opacity:0.1413"/>
			<stop  offset="1" style="stop-color:#020202;stop-opacity:0"/>
		</radialGradient>
		<path fill="url(#SVGID_3_)" d="M63,449c59.7,59.7,326.2,59.7,385.9,0s59.7-326.2,0-385.9S122.7,3.4,63,63S3.4,389.3,63,449z"/>
	</g>
</g>
<linearGradient id="SVGID_4_" gradientUnits="userSpaceOnUse" x1="256" y1="486" x2="256" y2="26">
	<stop  offset="0" style="stop-color:#96D8E9"/>
	<stop  offset="1" style="stop-color:#4BB85D"/>
</linearGradient>
<path fill="url(#SVGID_4_)" d="M433.3,433.3c-70.3,70.3-284.3,70.3-354.6,0S8.4,149,78.7,78.7s284.3-70.3,354.6,0
	S503.6,363,433.3,433.3z"/>
<g>
	<path fill="#FFFFFF" d="M361,242.2c-3.8-1.6-7.7-2.8-11.6-3.4c-1.8-39.6-34.6-71.3-74.7-71.3c-27.8,0-52.5,15-65.5,38.6
		c-5.9-3.8-12.9-5.8-20.2-5.8c-20.8,0-37.8,17-37.8,37.8c0,0.2,0,0.4,0,0.6c-8.6,3.5-16.3,9.1-22.2,16.4c-1.2,1.4-2.3,3-3.3,4.5
		c-4.2,6.4,0.6,14.9,8.2,14.9h0c3.3,0,6.3-1.7,8.1-4.4c4.9-7.4,12.6-13,21.6-15.1c1.4-0.3,2.8-0.9,4-1.8c3.3-2.5,4.5-6.6,3.5-10.3
		c-0.4-1.6-0.7-3.3-0.7-4.9c0-10.2,8.3-18.5,18.5-18.5c6.2,0,12,3.1,15.5,8.4c1.7,2.6,4.7,4.3,7.8,4.4c4.4,0.1,8.2-2.7,9.5-6.8
		c7.3-23.2,28.5-38.8,52.9-38.8c30.6,0,55.4,24.9,55.4,55.4c0,1.3-0.1,2.7-0.2,4.4c-0.1,1.8,0.1,3.6,0.9,5.3
		c1.7,3.4,5.1,5.5,8.7,5.5c0,0,0.1,0,0.1,0c0.2,0,0.3,0,0.5,0l0,0c4.7,0,9.3,0.9,13.6,2.8c0.3,0.1,0.6,0.2,0.9,0.3
		c12.7,4.1,21.2,15.8,21.2,29.2c0,6.4-1.9,12.4-5.6,17.6c-0.2,0.3-0.4,0.5-0.5,0.8c-5.3,9.3-14.7,15.7-25.3,17
		c-0.5,0.1-1,0.2-1.4,0.3H196.3c-5.3,0-9.7,4.3-9.7,9.7l0,0c0,5.3,4.3,9.7,9.7,9.7h149.4c1.4,0,2.8-0.3,4-0.9
		c15.3-2.8,28.8-12.2,36.7-25.8c5.8-8.4,8.8-18.2,8.8-28.4C395.2,268,381.5,249,361,242.2z"/>
</g>
</svg>
