<?xml version="1.0" encoding="UTF-8" standalone="no"?>
<svg
   xmlns:dc="http://purl.org/dc/elements/1.1/"
   xmlns:cc="http://creativecommons.org/ns#"
   xmlns:rdf="http://www.w3.org/1999/02/22-rdf-syntax-ns#"
   xmlns:svg="http://www.w3.org/2000/svg"
   xmlns="http://www.w3.org/2000/svg"
   viewBox="0 0 640 640"
   height="640"
   width="640"
   xml:space="preserve"
   version="1.1"
   id="svg2"><metadata
     id="metadata8"><rdf:RDF><cc:Work
         rdf:about=""><dc:format>image/svg+xml</dc:format><dc:type
           rdf:resource="http://purl.org/dc/dcmitype/StillImage" /></cc:Work></rdf:RDF></metadata><defs
     id="defs6"><clipPath
       id="clipPath16"
       clipPathUnits="userSpaceOnUse"><path
         id="path18"
         d="M 0,512 512,512 512,0 0,0 0,512 Z" /></clipPath><clipPath
       id="clipPath24"
       clipPathUnits="userSpaceOnUse"><path
         id="path26"
         d="m 18.325,493.744 475.4,0 0,-475.4877 -475.4,0 0,475.4877 z" /></clipPath><clipPath
       id="clipPath28"
       clipPathUnits="userSpaceOnUse"><path
         id="path30"
         d="M 448.99,63.029 C 389.293,3.332 122.807,3.332 63.11,63.029 3.413,122.726 3.413,389.312 63.01,449.009 c 59.597,59.696 326.283,59.596 385.98,0 59.697,-59.597 59.597,-326.283 0,-385.98" /></clipPath><radialGradient
       id="radialGradient36"
       spreadMethod="pad"
       gradientTransform="matrix(237.72188,0,0,237.72188,256.02499,256)"
       gradientUnits="userSpaceOnUse"
       r="1"
       cy="0"
       cx="0"
       fy="0"
       fx="0"><stop
         id="stop38"
         offset="0"
         style="stop-opacity:1;stop-color:#ffffff" /><stop
         id="stop40"
         offset="0.8587"
         style="stop-opacity:0.14129854;stop-color:#ffffff" /><stop
         id="stop42"
         offset="1"
         style="stop-opacity:0;stop-color:#ffffff" /></radialGradient><mask
       id="mask44"
       height="1"
       width="1"
       y="0"
       x="0"
       maskUnits="userSpaceOnUse"><g
         id="g46"><g
           id="g48"><g
             id="g50"><g
               id="g52"><path
                 id="path54"
                 style="fill:url(#radialGradient36);stroke:none"
                 d="m -32768,32767 65535,0 0,-65535 -65535,0 0,65535 z" /></g></g></g></g></mask><radialGradient
       id="radialGradient56"
       spreadMethod="pad"
       gradientTransform="matrix(237.72188,0,0,237.72188,256.02499,256)"
       gradientUnits="userSpaceOnUse"
       r="1"
       cy="0"
       cx="0"
       fy="0"
       fx="0"><stop
         id="stop58"
         offset="0"
         style="stop-opacity:1;stop-color:#010101" /><stop
         id="stop60"
         offset="0.8587"
         style="stop-opacity:1;stop-color:#010101" /><stop
         id="stop62"
         offset="1"
         style="stop-opacity:1;stop-color:#010101" /></radialGradient><clipPath
       id="clipPath86"
       clipPathUnits="userSpaceOnUse"><path
         id="path88"
         d="m 18.325,493.744 475.4,0 0,-475.4877 -475.4,0 0,475.4877 z" /></clipPath><clipPath
       id="clipPath90"
       clipPathUnits="userSpaceOnUse"><path
         id="path92"
         d="M 448.99,63.029 C 389.293,3.332 122.807,3.332 63.11,63.029 3.413,122.726 3.413,389.312 63.01,449.009 c 59.597,59.696 326.283,59.596 385.98,0 59.697,-59.597 59.597,-326.283 0,-385.98" /></clipPath><radialGradient
       id="radialGradient98"
       spreadMethod="pad"
       gradientTransform="matrix(188.25467,188.36119,-130.35883,130.27895,256.02499,256.04376)"
       gradientUnits="userSpaceOnUse"
       r="1"
       cy="0"
       cx="0"
       fy="0"
       fx="0"><stop
         id="stop100"
         offset="0"
         style="stop-opacity:1;stop-color:#ffffff" /><stop
         id="stop102"
         offset="0.8587"
         style="stop-opacity:0.14129854;stop-color:#ffffff" /><stop
         id="stop104"
         offset="1"
         style="stop-opacity:0;stop-color:#ffffff" /></radialGradient><mask
       id="mask106"
       height="1"
       width="1"
       y="0"
       x="0"
       maskUnits="userSpaceOnUse"><g
         id="g108"><g
           id="g110"><g
             id="g112"><g
               id="g114"><path
                 id="path116"
                 style="fill:url(#radialGradient98);stroke:none"
                 d="m -32768,32767 65535,0 0,-65535 -65535,0 0,65535 z" /></g></g></g></g></mask><radialGradient
       id="radialGradient118"
       spreadMethod="pad"
       gradientTransform="matrix(188.25467,188.36119,-130.35883,130.27895,256.02499,256.04376)"
       gradientUnits="userSpaceOnUse"
       r="1"
       cy="0"
       cx="0"
       fy="0"
       fx="0"><stop
         id="stop120"
         offset="0"
         style="stop-opacity:1;stop-color:#010101" /><stop
         id="stop122"
         offset="0.8587"
         style="stop-opacity:1;stop-color:#010101" /><stop
         id="stop124"
         offset="1"
         style="stop-opacity:1;stop-color:#010101" /></radialGradient><clipPath
       id="clipPath148"
       clipPathUnits="userSpaceOnUse"><path
         id="path150"
         d="m 18.275,493.694 475.387,0 0,-475.4377 -475.387,0 0,475.4377 z" /></clipPath><clipPath
       id="clipPath152"
       clipPathUnits="userSpaceOnUse"><path
         id="path154"
         d="m 63.01,63.029 c 59.697,-59.697 326.183,-59.697 385.88,0 59.697,59.697 59.697,326.183 0,385.88 -59.697,59.696 -326.183,59.696 -385.88,0.1 -59.697,-59.597 -59.597,-326.283 0,-385.98" /></clipPath><radialGradient
       id="radialGradient160"
       spreadMethod="pad"
       gradientTransform="matrix(-188.28767,188.39421,130.38168,130.30179,255.92499,255.99377)"
       gradientUnits="userSpaceOnUse"
       r="1"
       cy="0"
       cx="0"
       fy="0"
       fx="0"><stop
         id="stop162"
         offset="0"
         style="stop-opacity:1;stop-color:#ffffff" /><stop
         id="stop164"
         offset="0.8587"
         style="stop-opacity:0.14129854;stop-color:#ffffff" /><stop
         id="stop166"
         offset="1"
         style="stop-opacity:0;stop-color:#ffffff" /></radialGradient><mask
       id="mask168"
       height="1"
       width="1"
       y="0"
       x="0"
       maskUnits="userSpaceOnUse"><g
         id="g170"><g
           id="g172"><g
             id="g174"><g
               id="g176"><path
                 id="path178"
                 style="fill:url(#radialGradient160);stroke:none"
                 d="m -32768,32767 65535,0 0,-65535 -65535,0 0,65535 z" /></g></g></g></g></mask><radialGradient
       id="radialGradient180"
       spreadMethod="pad"
       gradientTransform="matrix(-188.28767,188.39421,130.38168,130.30179,255.92499,255.99377)"
       gradientUnits="userSpaceOnUse"
       r="1"
       cy="0"
       cx="0"
       fy="0"
       fx="0"><stop
         id="stop182"
         offset="0"
         style="stop-opacity:1;stop-color:#010101" /><stop
         id="stop184"
         offset="0.8587"
         style="stop-opacity:1;stop-color:#010101" /><stop
         id="stop186"
         offset="1"
         style="stop-opacity:1;stop-color:#010101" /></radialGradient></defs><g
     transform="matrix(1.25,0,0,-1.25,0,640)"
     id="g10"><g
       id="g12"><g
         clip-path="url(#clipPath16)"
         id="g14"><g
           id="g20"><g
             id="g22" /><g
             id="g64"><g
               style="opacity:0.39999402"
               id="g66"
               clip-path="url(#clipPath24)"><g
                 id="g68"><g
                   id="g70"
                   clip-path="url(#clipPath28)"><g
                     id="g72"><g
                       id="g74" /><g
                       id="g76"
                       mask="url(#mask44)"><g
                         id="g78"><path
                           id="path80"
                           style="fill:url(#radialGradient56);stroke:none"
                           d="M 448.99,63.029 C 389.293,3.332 122.807,3.332 63.11,63.029 3.413,122.726 3.413,389.312 63.01,449.009 c 59.597,59.696 326.283,59.596 385.98,0 59.697,-59.597 59.597,-326.283 0,-385.98" /></g></g></g></g></g></g></g></g><g
           id="g82"><g
             id="g84" /><g
             id="g126"><g
               style="opacity:0.39999402"
               id="g128"
               clip-path="url(#clipPath86)"><g
                 id="g130"><g
                   id="g132"
                   clip-path="url(#clipPath90)"><g
                     id="g134"><g
                       id="g136" /><g
                       id="g138"
                       mask="url(#mask106)"><g
                         id="g140"><path
                           id="path142"
                           style="fill:url(#radialGradient118);stroke:none"
                           d="M 448.99,63.029 C 389.293,3.332 122.807,3.332 63.11,63.029 3.413,122.726 3.413,389.312 63.01,449.009 c 59.597,59.696 326.283,59.596 385.98,0 59.697,-59.597 59.597,-326.283 0,-385.98" /></g></g></g></g></g></g></g></g><g
           id="g144"><g
             id="g146" /><g
             id="g188"><g
               style="opacity:0.39999402"
               id="g190"
               clip-path="url(#clipPath148)"><g
                 id="g192"><g
                   id="g194"
                   clip-path="url(#clipPath152)"><g
                     id="g196"><g
                       id="g198" /><g
                       id="g200"
                       mask="url(#mask168)"><g
                         id="g202"><path
                           id="path204"
                           style="fill:url(#radialGradient180);stroke:none"
                           d="m 63.01,63.029 c 59.697,-59.697 326.183,-59.697 385.88,0 59.697,59.697 59.697,326.183 0,385.88 -59.697,59.696 -326.183,59.696 -385.88,0.1 -59.697,-59.597 -59.597,-326.283 0,-385.98" /></g></g></g></g></g></g></g></g><g
           transform="translate(433.2792,78.7208)"
           id="g206"><path
             id="path208"
             style="fill:#f99c1b;fill-opacity:1;fill-rule:nonzero;stroke:none"
             d="m 0,0 c -70.294,-70.294 -284.264,-70.294 -354.558,0 -70.295,70.294 -70.295,284.264 0,354.558 70.294,70.295 284.264,70.295 354.558,0 C 70.294,284.264 70.294,70.294 0,0" /></g><g
           transform="translate(292.3444,220.6894)"
           id="g210"><path
             id="path212"
             style="fill:#ffffff;fill-opacity:1;fill-rule:nonzero;stroke:none"
             d="m 0,0 c -1.542,-1.997 -3.476,-3.767 -5.799,-5.313 -1.416,-0.943 -3.345,-0.186 -3.785,1.457 l -8.158,30.445 c -0.434,1.62 0.818,3.208 2.493,3.16 2.742,-0.078 5.244,-0.497 7.505,-1.256 C -2.166,26.613 1.45,22.6 3.099,16.444 4.749,10.289 3.715,4.806 0,0 m -26.071,-10.109 -9.039,33.733 c -0.358,1.337 0.436,2.711 1.773,3.069 l 0,0 c 1.337,0.358 2.711,-0.435 3.069,-1.772 l 9.039,-33.733 c 0.358,-1.336 -0.436,-2.711 -1.773,-3.069 -1.336,-0.358 -2.711,0.435 -3.069,1.772 m -21.75,-5.828 -9.038,33.733 c -0.359,1.337 0.435,2.711 1.772,3.069 l 4.804,1.288 c 1.337,0.358 2.711,-0.436 3.07,-1.773 l 9.038,-33.732 c 0.358,-1.337 -0.435,-2.711 -1.772,-3.069 l -4.804,-1.288 c -1.337,-0.358 -2.712,0.435 -3.07,1.772 m -22.22,92.612 4.804,1.287 c 1.337,0.358 2.711,-0.435 3.069,-1.772 l 7.885,-29.424 c 0.358,-1.337 -0.436,-2.711 -1.772,-3.07 l -4.805,-1.287 c -1.337,-0.358 -2.711,0.435 -3.069,1.772 l -7.885,29.424 c -0.358,1.337 0.436,2.711 1.773,3.07 m 24.819,4.055 7.884,-29.424 c 0.358,-1.337 -0.435,-2.711 -1.772,-3.069 l 0,0 c -1.337,-0.358 -2.711,0.435 -3.069,1.772 l -7.885,29.424 c -0.358,1.337 0.436,2.711 1.772,3.07 l 0.001,0 c 1.336,0.358 2.711,-0.436 3.069,-1.773 m 18.877,2.924 c 4.343,-1.99 7.213,-5.582 8.606,-10.778 1.649,-6.156 1.003,-11.132 -1.939,-14.924 -0.631,-0.813 -1.327,-1.573 -2.088,-2.281 -1.369,-1.273 -3.612,-0.585 -4.095,1.22 l -6.633,24.754 c -0.495,1.848 1.177,3.535 3.036,3.083 1.085,-0.263 2.123,-0.621 3.113,-1.074 M 16.444,41.901 c -4.659,3.147 -9.646,5.129 -14.959,5.948 -1.973,0.304 -2.829,2.619 -1.53,4.135 0.614,0.716 1.218,1.469 1.813,2.258 1.728,2.295 3.172,4.843 4.328,7.647 1.153,2.801 1.883,5.817 2.191,9.054 0.306,3.233 -0.015,6.628 -0.969,10.186 -3.005,11.215 -9.109,19.221 -18.31,24.013 -6.987,3.639 -15.781,4.701 -26.377,3.187 -1.251,-0.179 -2.438,0.609 -2.765,1.83 l -3.431,12.803 c -0.358,1.336 -1.732,2.13 -3.069,1.772 l -7.263,-1.946 c -1.337,-0.359 -2.13,-1.733 -1.772,-3.07 l 3.267,-12.192 c 0.358,-1.337 -0.435,-2.711 -1.772,-3.069 l 0,0 c -1.337,-0.359 -2.711,0.435 -3.069,1.772 l -3.267,12.192 c -0.359,1.337 -1.733,2.13 -3.07,1.772 l -7.262,-1.946 c -1.337,-0.358 -2.131,-1.732 -1.772,-3.069 l 3.267,-12.193 c 0.358,-1.337 -0.436,-2.711 -1.773,-3.069 l -30.657,-8.215 c -1.337,-0.358 -2.13,-1.732 -1.772,-3.069 l 35.758,-133.45 c 0.358,-1.337 1.732,-2.131 3.069,-1.772 l 30.658,8.214 c 1.337,0.358 2.711,-0.435 3.069,-1.772 l 3.267,-12.192 c 0.358,-1.337 1.732,-2.131 3.069,-1.772 l 7.263,1.946 c 1.337,0.358 2.13,1.732 1.772,3.069 l -3.267,12.192 c -0.358,1.337 0.435,2.711 1.772,3.07 1.337,0.358 2.711,-0.436 3.07,-1.772 l 3.266,-12.193 c 0.359,-1.337 1.733,-2.13 3.07,-1.772 l 7.262,1.946 c 1.337,0.358 2.131,1.733 1.772,3.07 l -3.433,12.813 c -0.329,1.226 0.313,2.509 1.495,2.974 4.312,1.696 8.146,3.604 11.487,5.732 5.958,3.796 10.578,8.074 13.855,12.839 3.277,4.761 5.25,9.873 5.918,15.33 0.668,5.457 0.233,11.058 -1.307,16.803 -2.455,9.163 -6.752,15.818 -12.892,19.966" /></g></g></g></g></svg>