<?xml version="1.0" encoding="utf-8"?>
<!-- Generator: Adobe Illustrator 22.0.1, SVG Export Plug-In . SVG Version: 6.00 Build 0)  -->
<svg version="1.1" id="Layer_1" xmlns="http://www.w3.org/2000/svg" xmlns:xlink="http://www.w3.org/1999/xlink" x="0px" y="0px"
	 viewBox="0 0 512 512" style="enable-background:new 0 0 512 512;" xml:space="preserve">
<g>
	<g style="opacity:0.4;enable-background:new    ;">
		
			<radialGradient id="SVGID_1_" cx="256.525" cy="254.4997" r="237.7344" gradientTransform="matrix(1 0 0 1 -0.5 1.5)" gradientUnits="userSpaceOnUse">
			<stop  offset="0" style="stop-color:#010101"/>
			<stop  offset="0.8587" style="stop-color:#010101;stop-opacity:0.1413"/>
			<stop  offset="1" style="stop-color:#010101;stop-opacity:0"/>
		</radialGradient>
		<path style="fill:url(#SVGID_1_);" d="M449,448.981c-59.7,59.7-326.2,59.7-385.9,0s-59.7-326.3-0.1-386s326.3-59.6,386,0
			S508.6,389.281,449,448.981z"/>
	</g>
	<g style="opacity:0.4;enable-background:new    ;">
		
			<radialGradient id="SVGID_2_" cx="257.0528" cy="253.9435" r="266.3242" gradientTransform="matrix(0.7069 -0.7073 0.4895 0.4892 -49.991 313.5403)" gradientUnits="userSpaceOnUse">
			<stop  offset="0" style="stop-color:#010101"/>
			<stop  offset="0.8587" style="stop-color:#010101;stop-opacity:0.1413"/>
			<stop  offset="1" style="stop-color:#010101;stop-opacity:0"/>
		</radialGradient>
		<path style="fill:url(#SVGID_2_);" d="M449,448.981c-59.7,59.7-326.2,59.7-385.9,0s-59.7-326.3-0.1-386s326.3-59.6,386,0
			S508.6,389.281,449,448.981z"/>
	</g>
	<g style="opacity:0.4;enable-background:new    ;">
		
			<radialGradient id="SVGID_3_" cx="257.7597" cy="255.0677" r="266.371" gradientTransform="matrix(-0.7069 -0.7073 -0.4895 0.4892 562.991 313.5403)" gradientUnits="userSpaceOnUse">
			<stop  offset="0" style="stop-color:#010101"/>
			<stop  offset="0.8587" style="stop-color:#010101;stop-opacity:0.1413"/>
			<stop  offset="1" style="stop-color:#010101;stop-opacity:0"/>
		</radialGradient>
		<path style="fill:url(#SVGID_3_);" d="M63,448.981c59.7,59.7,326.2,59.7,385.9,0s59.7-326.2,0-385.9s-326.2-59.7-385.9-0.1
			S3.4,389.281,63,448.981z"/>
	</g>
</g>
<linearGradient id="SVGID_4_" gradientUnits="userSpaceOnUse" x1="25.975" y1="256" x2="486.025" y2="256" gradientTransform="matrix(1 0 0 -1 0 512)">
	<stop  offset="0.0012" style="stop-color:#00F8E2"/>
	<stop  offset="1" style="stop-color:#3B8FFF"/>
</linearGradient>
<path style="fill:url(#SVGID_4_);" d="M433.3,433.3c-70.3,70.3-284.3,70.3-354.6,0S8.4,149,78.7,78.7s284.3-70.3,354.6,0
	S503.6,363,433.3,433.3z"/>
<linearGradient id="SVGID_5_" gradientUnits="userSpaceOnUse" x1="114.6301" y1="114.6301" x2="400.7478" y2="400.7478" gradientTransform="matrix(1 0 0 -1 0 512)">
	<stop  offset="0.0012" style="stop-color:#00F8E2"/>
	<stop  offset="1" style="stop-color:#3B8FFF"/>
</linearGradient>
<circle style="fill:url(#SVGID_5_);" cx="256" cy="256" r="203"/>
<g>
	<g>
		
			<linearGradient id="SVGID_6_" gradientUnits="userSpaceOnUse" x1="202.6617" y1="256" x2="265.0086" y2="256" gradientTransform="matrix(1 0 0 -1 0 512)">
			<stop  offset="0.0012" style="stop-color:#94C5FF"/>
			<stop  offset="1" style="stop-color:#FFFFFF"/>
		</linearGradient>
		<polygon style="fill:url(#SVGID_6_);" points="202.662,256 233.835,287.173 265.009,256 233.835,224.827 		"/>
		
			<linearGradient id="SVGID_7_" gradientUnits="userSpaceOnUse" x1="233.8347" y1="224.8261" x2="296.1826" y2="224.8261" gradientTransform="matrix(1 0 0 -1 0 512)">
			<stop  offset="0.0012" style="stop-color:#94C5FF"/>
			<stop  offset="1" style="stop-color:#FFFFFF"/>
		</linearGradient>
		<polygon style="fill:url(#SVGID_7_);" points="265.009,318.347 296.183,287.173 265.009,256 233.835,287.173 		"/>
		
			<linearGradient id="SVGID_8_" gradientUnits="userSpaceOnUse" x1="171.4877" y1="287.1735" x2="233.8347" y2="287.1735" gradientTransform="matrix(1 0 0 -1 0 512)">
			<stop  offset="0.0012" style="stop-color:#94C5FF"/>
			<stop  offset="1" style="stop-color:#FFFFFF"/>
		</linearGradient>
		<polygon style="fill:url(#SVGID_8_);" points="233.835,224.827 202.662,193.653 171.488,224.827 202.662,256 		"/>
		
			<linearGradient id="SVGID_9_" gradientUnits="userSpaceOnUse" x1="233.8347" y1="287.1735" x2="296.1826" y2="287.1735" gradientTransform="matrix(1 0 0 -1 0 512)">
			<stop  offset="0.0012" style="stop-color:#94C5FF"/>
			<stop  offset="1" style="stop-color:#FFFFFF"/>
		</linearGradient>
		<polygon style="fill:url(#SVGID_9_);" points="265.009,256 296.183,224.827 265.009,193.653 233.835,224.827 		"/>
		
			<linearGradient id="SVGID_10_" gradientUnits="userSpaceOnUse" x1="265.0086" y1="256" x2="327.3564" y2="256" gradientTransform="matrix(1 0 0 -1 0 512)">
			<stop  offset="0.0012" style="stop-color:#94C5FF"/>
			<stop  offset="1" style="stop-color:#FFFFFF"/>
		</linearGradient>
		<polygon style="fill:url(#SVGID_10_);" points="265.009,256 296.183,287.173 327.356,256 296.183,224.827 		"/>
		
			<linearGradient id="SVGID_11_" gradientUnits="userSpaceOnUse" x1="202.6617" y1="318.3474" x2="265.0086" y2="318.3474" gradientTransform="matrix(1 0 0 -1 0 512)">
			<stop  offset="0.0012" style="stop-color:#94C5FF"/>
			<stop  offset="1" style="stop-color:#FFFFFF"/>
		</linearGradient>
		<polygon style="fill:url(#SVGID_11_);" points="265.009,193.653 233.835,162.479 202.662,193.653 233.835,224.827 		"/>
		
			<linearGradient id="SVGID_12_" gradientUnits="userSpaceOnUse" x1="171.4877" y1="224.8261" x2="233.8347" y2="224.8261" gradientTransform="matrix(1 0 0 -1 0 512)">
			<stop  offset="0.0012" style="stop-color:#94C5FF"/>
			<stop  offset="1" style="stop-color:#FFFFFF"/>
		</linearGradient>
		<polygon style="fill:url(#SVGID_12_);" points="202.662,256 171.488,287.173 202.662,318.347 233.835,287.173 		"/>
		
			<linearGradient id="SVGID_13_" gradientUnits="userSpaceOnUse" x1="202.6617" y1="193.6526" x2="265.0086" y2="193.6526" gradientTransform="matrix(1 0 0 -1 0 512)">
			<stop  offset="0.0012" style="stop-color:#94C5FF"/>
			<stop  offset="1" style="stop-color:#FFFFFF"/>
		</linearGradient>
		<polygon style="fill:url(#SVGID_13_);" points="233.835,287.173 202.662,318.347 233.835,349.521 265.009,318.347 		"/>
		
			<linearGradient id="SVGID_14_" gradientUnits="userSpaceOnUse" x1="147.0144" y1="255.9996" x2="202.6616" y2="255.9996" gradientTransform="matrix(1 0 0 -1 0 512)">
			<stop  offset="0.0012" style="stop-color:#94C5FF"/>
			<stop  offset="1" style="stop-color:#FFFFFF"/>
		</linearGradient>
		<path style="fill:url(#SVGID_14_);" d="M171.488,224.827l-19.736,19.736c-6.317,6.317-6.317,16.56,0,22.877l19.736,19.735
			L202.662,256L171.488,224.827z"/>
	</g>
	<g>
		
			<linearGradient id="SVGID_15_" gradientUnits="userSpaceOnUse" x1="296.1826" y1="305.9881" x2="414" y2="305.9881" gradientTransform="matrix(1 0 0 -1 0 512)">
			<stop  offset="0.0012" style="stop-color:#94C5FF"/>
			<stop  offset="1" style="stop-color:#FFFFFF"/>
		</linearGradient>
		<polygon style="fill:url(#SVGID_15_);" points="364.986,156.023 296.183,224.827 327.356,256 364.986,218.371 		"/>
		
			<linearGradient id="SVGID_16_" gradientUnits="userSpaceOnUse" x1="296.1826" y1="206.0115" x2="413.9999" y2="206.0115" gradientTransform="matrix(1 0 0 -1 0 512)">
			<stop  offset="0.0012" style="stop-color:#94C5FF"/>
			<stop  offset="1" style="stop-color:#FFFFFF"/>
		</linearGradient>
		<polygon style="fill:url(#SVGID_16_);" points="327.356,256 296.183,287.173 364.986,355.977 364.986,293.63 		"/>
	</g>
	<g>
		
			<linearGradient id="SVGID_17_" gradientUnits="userSpaceOnUse" x1="233.8347" y1="365.1078" x2="327.3558" y2="365.1078" gradientTransform="matrix(1 0 0 -1 0 512)">
			<stop  offset="0.0012" style="stop-color:#94C5FF"/>
			<stop  offset="1" style="stop-color:#FFFFFF"/>
		</linearGradient>
		<polygon style="fill:url(#SVGID_17_);" points="233.835,162.479 265.009,193.653 296.183,162.479 296.183,100.132 		"/>
		
			<linearGradient id="SVGID_18_" gradientUnits="userSpaceOnUse" x1="233.8347" y1="146.8922" x2="327.3558" y2="146.8922" gradientTransform="matrix(1 0 0 -1 0 512)">
			<stop  offset="0.0012" style="stop-color:#94C5FF"/>
			<stop  offset="1" style="stop-color:#FFFFFF"/>
		</linearGradient>
		<polygon style="fill:url(#SVGID_18_);" points="265.009,318.347 233.835,349.521 296.183,411.868 296.183,349.521 		"/>
	</g>
</g>
</svg>
