<?xml version="1.0" encoding="utf-8"?>
<!-- Generator: Adobe Illustrator 18.0.0, SVG Export Plug-In . SVG Version: 6.00 Build 0)  -->
<!DOCTYPE svg PUBLIC "-//W3C//DTD SVG 1.1//EN" "http://www.w3.org/Graphics/SVG/1.1/DTD/svg11.dtd">
<svg version="1.1" id="Layer_1" xmlns="http://www.w3.org/2000/svg" xmlns:xlink="http://www.w3.org/1999/xlink" x="0px" y="0px"
	 viewBox="0 0 512 512" style="enable-background:new 0 0 512 512;" xml:space="preserve">
<g>
	<g>
		<g style="opacity:0.4;enable-background:new    ;">
			
				<radialGradient id="SVGID_1_" cx="256.525" cy="257.4813" r="237.7344" gradientTransform="matrix(1 0 0 -1 -0.5 513.5)" gradientUnits="userSpaceOnUse">
				<stop  offset="0" style="stop-color:#010101"/>
				<stop  offset="0.8587" style="stop-color:#010101;stop-opacity:0.1413"/>
				<stop  offset="1" style="stop-color:#010101;stop-opacity:0"/>
			</radialGradient>
			<path style="fill:url(#SVGID_1_);" d="M449,449c-59.7,59.7-326.2,59.7-385.9,0S3.4,122.7,63,63s326.3-59.6,386,0
				S508.6,389.3,449,449z"/>
		</g>
		<g style="opacity:0.4;enable-background:new    ;">
			
				<radialGradient id="SVGID_2_" cx="257.0394" cy="258.0371" r="266.3242" gradientTransform="matrix(0.7069 -0.7073 -0.4895 -0.4892 200.633 564.0107)" gradientUnits="userSpaceOnUse">
				<stop  offset="0" style="stop-color:#010101"/>
				<stop  offset="0.8587" style="stop-color:#010101;stop-opacity:0.1413"/>
				<stop  offset="1" style="stop-color:#010101;stop-opacity:0"/>
			</radialGradient>
			<path style="fill:url(#SVGID_2_);" d="M449,449c-59.7,59.7-326.2,59.7-385.9,0S3.4,122.7,63,63s326.3-59.6,386,0
				S508.6,389.3,449,449z"/>
		</g>
		<g style="opacity:0.4;enable-background:new    ;">
			
				<radialGradient id="SVGID_3_" cx="257.7463" cy="256.9128" r="266.3709" gradientTransform="matrix(-0.7069 -0.7073 0.4895 -0.4892 312.367 564.0107)" gradientUnits="userSpaceOnUse">
				<stop  offset="0" style="stop-color:#010101"/>
				<stop  offset="0.8587" style="stop-color:#010101;stop-opacity:0.1413"/>
				<stop  offset="1" style="stop-color:#010101;stop-opacity:0"/>
			</radialGradient>
			<path style="fill:url(#SVGID_3_);" d="M63,449c59.7,59.7,326.2,59.7,385.9,0s59.7-326.2,0-385.9S122.7,3.4,63,63
				S3.4,389.3,63,449z"/>
		</g>
	</g>
	
		<radialGradient id="SVGID_4_" cx="258.5" cy="-185.5" r="261.0019" gradientTransform="matrix(1 0 0 -1 -0.5 -53.5)" gradientUnits="userSpaceOnUse">
		<stop  offset="0" style="stop-color:#EBEBEB"/>
		<stop  offset="1" style="stop-color:#9B9B9B"/>
	</radialGradient>
	<path style="fill:url(#SVGID_4_);" d="M433.3,433.3c-70.3,70.3-284.3,70.3-354.6,0S8.4,149,78.7,78.7s284.3-70.3,354.6,0
		S503.6,363,433.3,433.3z"/>
</g>
<g style="opacity:0.4;enable-background:new    ;">
	<g>
		<path d="M119.7,217.3c-0.1,0.8-0.2,1.6-0.3,2.4h273.1c-0.1-0.8-0.2-1.6-0.3-2.4"/>
		<path d="M119.4,316.3c0.1,0.8,0.2,1.6,0.3,2.4h272.6c0.1-0.8,0.2-1.6,0.3-2.4"/>
		<path d="M205.3,404.3c0.8,0.1,1.6,0.2,2.4,0.3V131.4c-0.8,0.1-1.6,0.2-2.4,0.3"/>
		<path d="M306.7,131.7c-0.8-0.1-1.6-0.2-2.4-0.3v273.1c0.8-0.1,1.6-0.2,2.4-0.3"/>
	</g>
	<path d="M160.5,348c11.3,0,20.5,9.2,20.5,20.5s-9.2,20.5-20.5,20.5s-20.5-9.2-20.5-20.5S149.2,348,160.5,348 M160.5,338
		c-16.8,0-30.5,13.7-30.5,30.5s13.7,30.5,30.5,30.5s30.5-13.7,30.5-30.5S177.3,338,160.5,338L160.5,338z"/>
	<path d="M256,247.5c11.3,0,20.5,9.2,20.5,20.5s-9.2,20.5-20.5,20.5c-11.3,0-20.5-9.2-20.5-20.5S244.7,247.5,256,247.5 M256,237.5
		c-16.8,0-30.5,13.7-30.5,30.5s13.7,30.5,30.5,30.5s30.5-13.7,30.5-30.5S272.8,237.5,256,237.5L256,237.5z"/>
	<path d="M256,346c11.3,0,20.5,9.2,20.5,20.5S267.3,387,256,387c-11.3,0-20.5-9.2-20.5-20.5S244.7,346,256,346 M256,336
		c-16.8,0-30.5,13.7-30.5,30.5S239.2,397,256,397s30.5-13.7,30.5-30.5S272.8,336,256,336L256,336z"/>
	<polygon points="371,143.9 353,161.9 335,143.9 327.9,151 345.9,169 327.9,187 335,194.1 353,176.1 371,194.1 378.1,187 360.1,169 
		378.1,151 	"/>
	<polygon points="371,341.9 353,359.9 335,341.9 327.9,349 345.9,367 327.9,385 335,392.1 353,374.1 371,392.1 378.1,385 360.1,367 
		378.1,349 	"/>
</g>
<g>
	<path style="fill:#FFFFFF;" d="M160.5,336c11.3,0,20.5,9.2,20.5,20.5s-9.2,20.5-20.5,20.5s-20.5-9.2-20.5-20.5S149.2,336,160.5,336
		 M160.5,326c-16.8,0-30.5,13.7-30.5,30.5s13.7,30.5,30.5,30.5s30.5-13.7,30.5-30.5S177.3,326,160.5,326L160.5,326z"/>
	<path style="fill:#FFFFFF;" d="M256,235.5c11.3,0,20.5,9.2,20.5,20.5c0,11.3-9.2,20.5-20.5,20.5c-11.3,0-20.5-9.2-20.5-20.5
		C235.5,244.7,244.7,235.5,256,235.5 M256,225.5c-16.8,0-30.5,13.7-30.5,30.5s13.7,30.5,30.5,30.5s30.5-13.7,30.5-30.5
		S272.8,225.5,256,225.5L256,225.5z"/>
	<path style="fill:#FFFFFF;" d="M256,334c11.3,0,20.5,9.2,20.5,20.5S267.3,375,256,375c-11.3,0-20.5-9.2-20.5-20.5
		S244.7,334,256,334 M256,324c-16.8,0-30.5,13.7-30.5,30.5S239.2,385,256,385s30.5-13.7,30.5-30.5S272.8,324,256,324L256,324z"/>
	<polygon style="fill:#FF0000;" points="371,131.9 353,149.9 335,131.9 327.9,139 345.9,157 327.9,175 335,182.1 353,164.1 
		371,182.1 378.1,175 360.1,157 378.1,139 	"/>
	<polygon style="fill:#FF0000;" points="371,329.9 353,347.9 335,329.9 327.9,337 345.9,355 327.9,373 335,380.1 353,362.1 
		371,380.1 378.1,373 360.1,355 378.1,337 	"/>
</g>
<g id="_x3C_Group_x3E_">
	<path style="opacity:0.4;enable-background:new    ;" d="M78.7,426.8c70.3,70.3,284.3,70.3,354.6,0
		c34.1-34.1,51.6-101.9,52.7-170.8c-1-68.9-18.6-136.7-52.7-170.8C398.1,50,327.1,32.5,256,32.5S113.8,50,78.7,85.2
		C44.6,119.3,27.1,187.1,26,256C27.1,324.9,44.6,392.7,78.7,426.8z M92.8,99.3C107.1,85,130,73.1,159.3,64.9
		c28.7-8.1,62.1-12.4,96.7-12.4c34.5,0,68,4.3,96.7,12.4c29.2,8.3,52.2,20.2,66.5,34.4c14.3,14.3,26.2,37.2,34.4,66.5
		c8.1,28.7,12.4,62.1,12.4,96.7c0,34.5-4.3,68-12.4,96.7c-8.3,29.2-20.2,52.2-34.4,66.5c-14.3,14.3-37.2,26.2-66.5,34.4
		c-28.7,8.1-62.1,12.4-96.7,12.4c-34.5,0-68-4.3-96.7-12.4c-29.2-8.3-52.2-20.2-66.5-34.4c-14.3-14.3-26.2-37.2-34.4-66.5
		C50.3,330.5,46,297,46,262.5s4.3-68,12.4-96.7C66.7,136.6,78.6,113.6,92.8,99.3z"/>
	<path style="fill:#FFFFFF;" d="M256,46c34.5,0,68,4.3,96.7,12.4c29.2,8.3,52.2,20.2,66.5,34.4c14.3,14.3,26.2,37.2,34.4,66.5
		C461.7,188,466,221.5,466,256s-4.3,68-12.4,96.7c-8.3,29.2-20.2,52.2-34.4,66.5c-14.3,14.3-37.2,26.2-66.5,34.4
		C324,461.7,290.5,466,256,466s-68-4.3-96.7-12.4c-29.2-8.3-52.2-20.2-66.5-34.4c-14.3-14.3-26.2-37.2-34.4-66.5
		C50.3,324,46,290.5,46,256s4.3-68,12.4-96.7c8.3-29.2,20.2-52.2,34.4-66.5c14.3-14.3,37.2-26.2,66.5-34.4C188,50.3,221.5,46,256,46
		 M256,26c-71.1,0-142.1,17.6-177.3,52.7C8.4,149,8.4,363,78.7,433.3C113.9,468.5,184.9,486,256,486s142.1-17.6,177.3-52.7
		c70.3-70.3,70.3-284.3,0-354.6C398.1,43.6,327.1,26,256,26L256,26z"/>
</g>
</svg>
