<?xml version="1.0" encoding="UTF-8" standalone="no"?>
<svg
   xmlns:dc="http://purl.org/dc/elements/1.1/"
   xmlns:cc="http://creativecommons.org/ns#"
   xmlns:rdf="http://www.w3.org/1999/02/22-rdf-syntax-ns#"
   xmlns:svg="http://www.w3.org/2000/svg"
   xmlns="http://www.w3.org/2000/svg"
   viewBox="0 0 640 640"
   height="640"
   width="640"
   xml:space="preserve"
   version="1.1"
   id="svg2"><metadata
     id="metadata8"><rdf:RDF><cc:Work
         rdf:about=""><dc:format>image/svg+xml</dc:format><dc:type
           rdf:resource="http://purl.org/dc/dcmitype/StillImage" /></cc:Work></rdf:RDF></metadata><defs
     id="defs6"><clipPath
       id="clipPath16"
       clipPathUnits="userSpaceOnUse"><path
         id="path18"
         d="M 0,512 512,512 512,0 0,0 0,512 Z" /></clipPath><clipPath
       id="clipPath24"
       clipPathUnits="userSpaceOnUse"><path
         id="path26"
         d="m 18.325,493.744 475.4,0 0,-475.4877 -475.4,0 0,475.4877 z" /></clipPath><clipPath
       id="clipPath28"
       clipPathUnits="userSpaceOnUse"><path
         id="path30"
         d="M 448.99,63.029 C 389.293,3.332 122.807,3.332 63.11,63.029 3.413,122.726 3.413,389.312 63.01,449.009 c 59.597,59.696 326.283,59.596 385.98,0 59.697,-59.597 59.597,-326.283 0,-385.98" /></clipPath><radialGradient
       id="radialGradient36"
       spreadMethod="pad"
       gradientTransform="matrix(237.72188,0,0,237.72188,256.02499,256)"
       gradientUnits="userSpaceOnUse"
       r="1"
       cy="0"
       cx="0"
       fy="0"
       fx="0"><stop
         id="stop38"
         offset="0"
         style="stop-opacity:1;stop-color:#ffffff" /><stop
         id="stop40"
         offset="0.8587"
         style="stop-opacity:0.14129854;stop-color:#ffffff" /><stop
         id="stop42"
         offset="1"
         style="stop-opacity:0;stop-color:#ffffff" /></radialGradient><mask
       id="mask44"
       height="1"
       width="1"
       y="0"
       x="0"
       maskUnits="userSpaceOnUse"><g
         id="g46"><g
           id="g48"><g
             id="g50"><g
               id="g52"><path
                 id="path54"
                 style="fill:url(#radialGradient36);stroke:none"
                 d="m -32768,32767 65535,0 0,-65535 -65535,0 0,65535 z" /></g></g></g></g></mask><radialGradient
       id="radialGradient56"
       spreadMethod="pad"
       gradientTransform="matrix(237.72188,0,0,237.72188,256.02499,256)"
       gradientUnits="userSpaceOnUse"
       r="1"
       cy="0"
       cx="0"
       fy="0"
       fx="0"><stop
         id="stop58"
         offset="0"
         style="stop-opacity:1;stop-color:#010101" /><stop
         id="stop60"
         offset="0.8587"
         style="stop-opacity:1;stop-color:#010101" /><stop
         id="stop62"
         offset="1"
         style="stop-opacity:1;stop-color:#010101" /></radialGradient><clipPath
       id="clipPath86"
       clipPathUnits="userSpaceOnUse"><path
         id="path88"
         d="m 18.325,493.744 475.4,0 0,-475.4877 -475.4,0 0,475.4877 z" /></clipPath><clipPath
       id="clipPath90"
       clipPathUnits="userSpaceOnUse"><path
         id="path92"
         d="M 448.99,63.029 C 389.293,3.332 122.807,3.332 63.11,63.029 3.413,122.726 3.413,389.312 63.01,449.009 c 59.597,59.696 326.283,59.596 385.98,0 59.697,-59.597 59.597,-326.283 0,-385.98" /></clipPath><radialGradient
       id="radialGradient98"
       spreadMethod="pad"
       gradientTransform="matrix(188.25467,188.36119,-130.35883,130.27895,256.02499,256.04376)"
       gradientUnits="userSpaceOnUse"
       r="1"
       cy="0"
       cx="0"
       fy="0"
       fx="0"><stop
         id="stop100"
         offset="0"
         style="stop-opacity:1;stop-color:#ffffff" /><stop
         id="stop102"
         offset="0.8587"
         style="stop-opacity:0.14129854;stop-color:#ffffff" /><stop
         id="stop104"
         offset="1"
         style="stop-opacity:0;stop-color:#ffffff" /></radialGradient><mask
       id="mask106"
       height="1"
       width="1"
       y="0"
       x="0"
       maskUnits="userSpaceOnUse"><g
         id="g108"><g
           id="g110"><g
             id="g112"><g
               id="g114"><path
                 id="path116"
                 style="fill:url(#radialGradient98);stroke:none"
                 d="m -32768,32767 65535,0 0,-65535 -65535,0 0,65535 z" /></g></g></g></g></mask><radialGradient
       id="radialGradient118"
       spreadMethod="pad"
       gradientTransform="matrix(188.25467,188.36119,-130.35883,130.27895,256.02499,256.04376)"
       gradientUnits="userSpaceOnUse"
       r="1"
       cy="0"
       cx="0"
       fy="0"
       fx="0"><stop
         id="stop120"
         offset="0"
         style="stop-opacity:1;stop-color:#010101" /><stop
         id="stop122"
         offset="0.8587"
         style="stop-opacity:1;stop-color:#010101" /><stop
         id="stop124"
         offset="1"
         style="stop-opacity:1;stop-color:#010101" /></radialGradient><clipPath
       id="clipPath148"
       clipPathUnits="userSpaceOnUse"><path
         id="path150"
         d="m 18.275,493.694 475.387,0 0,-475.4377 -475.387,0 0,475.4377 z" /></clipPath><clipPath
       id="clipPath152"
       clipPathUnits="userSpaceOnUse"><path
         id="path154"
         d="m 63.01,63.029 c 59.697,-59.697 326.183,-59.697 385.88,0 59.697,59.697 59.697,326.183 0,385.88 -59.697,59.696 -326.183,59.696 -385.88,0.1 -59.697,-59.597 -59.597,-326.283 0,-385.98" /></clipPath><radialGradient
       id="radialGradient160"
       spreadMethod="pad"
       gradientTransform="matrix(-188.28767,188.39421,130.38168,130.30179,255.92499,255.99377)"
       gradientUnits="userSpaceOnUse"
       r="1"
       cy="0"
       cx="0"
       fy="0"
       fx="0"><stop
         id="stop162"
         offset="0"
         style="stop-opacity:1;stop-color:#ffffff" /><stop
         id="stop164"
         offset="0.8587"
         style="stop-opacity:0.14129854;stop-color:#ffffff" /><stop
         id="stop166"
         offset="1"
         style="stop-opacity:0;stop-color:#ffffff" /></radialGradient><mask
       id="mask168"
       height="1"
       width="1"
       y="0"
       x="0"
       maskUnits="userSpaceOnUse"><g
         id="g170"><g
           id="g172"><g
             id="g174"><g
               id="g176"><path
                 id="path178"
                 style="fill:url(#radialGradient160);stroke:none"
                 d="m -32768,32767 65535,0 0,-65535 -65535,0 0,65535 z" /></g></g></g></g></mask><radialGradient
       id="radialGradient180"
       spreadMethod="pad"
       gradientTransform="matrix(-188.28767,188.39421,130.38168,130.30179,255.92499,255.99377)"
       gradientUnits="userSpaceOnUse"
       r="1"
       cy="0"
       cx="0"
       fy="0"
       fx="0"><stop
         id="stop182"
         offset="0"
         style="stop-opacity:1;stop-color:#010101" /><stop
         id="stop184"
         offset="0.8587"
         style="stop-opacity:1;stop-color:#010101" /><stop
         id="stop186"
         offset="1"
         style="stop-opacity:1;stop-color:#010101" /></radialGradient><radialGradient
       id="radialGradient222"
       spreadMethod="pad"
       gradientTransform="matrix(305.59198,0,0,-305.59198,256.00018,82.969345)"
       gradientUnits="userSpaceOnUse"
       r="1"
       cy="0"
       cx="0"
       fy="0"
       fx="0"><stop
         id="stop224"
         offset="0"
         style="stop-opacity:1;stop-color:#343334" /><stop
         id="stop226"
         offset="0.3075"
         style="stop-opacity:1;stop-color:#313031" /><stop
         id="stop228"
         offset="0.5631"
         style="stop-opacity:1;stop-color:#262626" /><stop
         id="stop230"
         offset="0.7992"
         style="stop-opacity:1;stop-color:#151515" /><stop
         id="stop232"
         offset="1"
         style="stop-opacity:1;stop-color:#000000" /></radialGradient><linearGradient
       id="linearGradient248"
       spreadMethod="pad"
       gradientTransform="matrix(196.74554,0,0,196.74554,59.254471,224.8779)"
       gradientUnits="userSpaceOnUse"
       y2="0"
       x2="1"
       y1="0"
       x1="0"><stop
         id="stop250"
         offset="0"
         style="stop-opacity:1;stop-color:#343334" /><stop
         id="stop252"
         offset="0.325"
         style="stop-opacity:1;stop-color:#272627" /><stop
         id="stop254"
         offset="0.925"
         style="stop-opacity:1;stop-color:#050505" /><stop
         id="stop256"
         offset="1"
         style="stop-opacity:1;stop-color:#000000" /></linearGradient><linearGradient
       id="linearGradient272"
       spreadMethod="pad"
       gradientTransform="matrix(-196.74553,0,0,196.74553,452.74554,224.8779)"
       gradientUnits="userSpaceOnUse"
       y2="0"
       x2="1"
       y1="0"
       x1="0"><stop
         id="stop274"
         offset="0"
         style="stop-opacity:1;stop-color:#343334" /><stop
         id="stop276"
         offset="0.325"
         style="stop-opacity:1;stop-color:#272627" /><stop
         id="stop278"
         offset="0.925"
         style="stop-opacity:1;stop-color:#050505" /><stop
         id="stop280"
         offset="1"
         style="stop-opacity:1;stop-color:#000000" /></linearGradient><clipPath
       id="clipPath288"
       clipPathUnits="userSpaceOnUse"><path
         id="path290"
         d="M 0,512 512,512 512,0 0,0 0,512 Z" /></clipPath><linearGradient
       id="linearGradient320"
       spreadMethod="pad"
       gradientTransform="matrix(145.61787,0,0,145.61787,110.00392,306.14474)"
       gradientUnits="userSpaceOnUse"
       y2="0"
       x2="1"
       y1="0"
       x1="0"><stop
         id="stop322"
         offset="0"
         style="stop-opacity:1;stop-color:#343334" /><stop
         id="stop324"
         offset="0.325"
         style="stop-opacity:1;stop-color:#272627" /><stop
         id="stop326"
         offset="0.925"
         style="stop-opacity:1;stop-color:#050505" /><stop
         id="stop328"
         offset="1"
         style="stop-opacity:1;stop-color:#000000" /></linearGradient><linearGradient
       id="linearGradient344"
       spreadMethod="pad"
       gradientTransform="matrix(-145.61789,0,0,145.61789,401.99609,306.14474)"
       gradientUnits="userSpaceOnUse"
       y2="0"
       x2="1"
       y1="0"
       x1="0"><stop
         id="stop346"
         offset="0"
         style="stop-opacity:1;stop-color:#343334" /><stop
         id="stop348"
         offset="0.325"
         style="stop-opacity:1;stop-color:#272627" /><stop
         id="stop350"
         offset="0.925"
         style="stop-opacity:1;stop-color:#050505" /><stop
         id="stop352"
         offset="1"
         style="stop-opacity:1;stop-color:#000000" /></linearGradient><linearGradient
       id="linearGradient368"
       spreadMethod="pad"
       gradientTransform="matrix(0,46.389381,-46.389381,0,255.9995,282.94952)"
       gradientUnits="userSpaceOnUse"
       y2="0"
       x2="1"
       y1="0"
       x1="0"><stop
         id="stop370"
         offset="0"
         style="stop-opacity:1;stop-color:#000000" /><stop
         id="stop372"
         offset="0.5277"
         style="stop-opacity:1;stop-color:#020202" /><stop
         id="stop374"
         offset="0.7996"
         style="stop-opacity:1;stop-color:#0a0a0a" /><stop
         id="stop376"
         offset="0.8776"
         style="stop-opacity:1;stop-color:#0e0e0e" /><stop
         id="stop378"
         offset="1"
         style="stop-opacity:1;stop-color:#0e0e0e" /></linearGradient></defs><g
     transform="matrix(1.25,0,0,-1.25,0,640)"
     id="g10"><g
       id="g12"><g
         clip-path="url(#clipPath16)"
         id="g14"><g
           id="g20"><g
             id="g22" /><g
             id="g64"><g
               style="opacity:0.39999402"
               id="g66"
               clip-path="url(#clipPath24)"><g
                 id="g68"><g
                   id="g70"
                   clip-path="url(#clipPath28)"><g
                     id="g72"><g
                       id="g74" /><g
                       id="g76"
                       mask="url(#mask44)"><g
                         id="g78"><path
                           id="path80"
                           style="fill:url(#radialGradient56);stroke:none"
                           d="M 448.99,63.029 C 389.293,3.332 122.807,3.332 63.11,63.029 3.413,122.726 3.413,389.312 63.01,449.009 c 59.597,59.696 326.283,59.596 385.98,0 59.697,-59.597 59.597,-326.283 0,-385.98" /></g></g></g></g></g></g></g></g><g
           id="g82"><g
             id="g84" /><g
             id="g126"><g
               style="opacity:0.39999402"
               id="g128"
               clip-path="url(#clipPath86)"><g
                 id="g130"><g
                   id="g132"
                   clip-path="url(#clipPath90)"><g
                     id="g134"><g
                       id="g136" /><g
                       id="g138"
                       mask="url(#mask106)"><g
                         id="g140"><path
                           id="path142"
                           style="fill:url(#radialGradient118);stroke:none"
                           d="M 448.99,63.029 C 389.293,3.332 122.807,3.332 63.11,63.029 3.413,122.726 3.413,389.312 63.01,449.009 c 59.597,59.696 326.283,59.596 385.98,0 59.697,-59.597 59.597,-326.283 0,-385.98" /></g></g></g></g></g></g></g></g><g
           id="g144"><g
             id="g146" /><g
             id="g188"><g
               style="opacity:0.39999402"
               id="g190"
               clip-path="url(#clipPath148)"><g
                 id="g192"><g
                   id="g194"
                   clip-path="url(#clipPath152)"><g
                     id="g196"><g
                       id="g198" /><g
                       id="g200"
                       mask="url(#mask168)"><g
                         id="g202"><path
                           id="path204"
                           style="fill:url(#radialGradient180);stroke:none"
                           d="m 63.01,63.029 c 59.697,-59.697 326.183,-59.697 385.88,0 59.697,59.697 59.697,326.183 0,385.88 -59.697,59.696 -326.183,59.696 -385.88,0.1 -59.697,-59.597 -59.597,-326.283 0,-385.98" /></g></g></g></g></g></g></g></g><g
           transform="translate(433.279,78.721)"
           id="g206"><path
             id="path208"
             style="fill:#edeeef;fill-opacity:1;fill-rule:nonzero;stroke:none"
             d="m 0,0 c -70.294,-70.294 -284.264,-70.294 -354.558,0 -70.294,70.294 -70.294,284.264 0,354.558 70.294,70.294 284.264,70.294 354.558,0 C 70.294,284.264 70.295,70.294 0,0" /></g></g></g><g
       id="g210"><g
         id="g212"><g
           id="g218"><g
             id="g220"><path
               id="path234"
               style="fill:url(#radialGradient222);stroke:none"
               d="M 27.083,286.263 C 21.363,205.906 38.568,118.875 78.721,78.721 l 0,0 c 70.294,-70.294 284.264,-70.294 354.558,0 l 0,0 c 40.154,40.154 57.359,127.185 51.638,207.542 l 0,0 -457.834,0 z" /></g></g></g></g><g
       id="g236"><g
         id="g238"><g
           id="g244"><g
             id="g246"><path
               id="path258"
               style="fill:url(#linearGradient248);stroke:none"
               d="M 59.254,239.499 256,127.55 165.794,322.205 59.254,239.499 Z" /></g></g></g></g><g
       id="g260"><g
         id="g262"><g
           id="g268"><g
             id="g270"><path
               id="path282"
               style="fill:url(#linearGradient272);stroke:none"
               d="M 256,127.55 452.746,239.499 346.206,322.205 256,127.55 Z" /></g></g></g></g><g
       id="g284"><g
         clip-path="url(#clipPath288)"
         id="g286"><g
           transform="translate(339.5331,322.2058)"
           id="g292"><path
             id="path294"
             style="fill:#ffffff;fill-opacity:1;fill-rule:nonzero;stroke:none"
             d="m 0,0 c 0,-91.355 -83.533,-194.656 -83.533,-194.656 0,0 -83.533,103.301 -83.533,194.656 L 0,0 Z" /></g><g
           transform="translate(27.083,286.2627)"
           id="g296"><path
             id="path298"
             style="fill:#ffffff;fill-opacity:1;fill-rule:nonzero;stroke:none"
             d="m 0,0 457.834,0 c -0.89,12.511 -2.334,24.858 -4.337,36.844 l -449.16,0 C 2.334,24.858 0.891,12.511 0,0" /></g><g
           transform="translate(102.735,394.414)"
           id="g300"><path
             id="path302"
             style="fill:#000000;fill-opacity:1;fill-rule:nonzero;stroke:none"
             d="m 0,0 c -14.993,-25.978 -23.574,-56.121 -23.574,-88.269 0,-32.149 8.581,-62.293 23.574,-88.27 0,0 68.95,20.397 89.415,32.519 18.172,10.763 63.472,55.751 63.472,55.751 0,0 -45.938,44.465 -64.203,55.111 C 68.663,-21.486 0,0 0,0" /></g><g
           transform="translate(409.265,394.414)"
           id="g304"><path
             id="path306"
             style="fill:#000000;fill-opacity:1;fill-rule:nonzero;stroke:none"
             d="m 0,0 c 0,0 -67.943,-21.881 -87.7,-33.287 -18.465,-10.661 -65.188,-54.982 -65.188,-54.982 0,0 46.451,-44.464 64.891,-55.111 19.781,-11.421 87.996,-33.159 87.996,-33.159 14.993,25.978 23.574,56.121 23.574,88.27 C 23.573,-56.121 14.993,-25.977 0,0" /></g></g></g><g
       id="g308"><g
         id="g310"><g
           id="g316"><g
             id="g318"><path
               id="path330"
               style="fill:url(#linearGradient320);stroke:none"
               d="m 110.004,306.145 c 0,-8.831 10.874,-15.99 58.814,-15.99 l 0,0 c 47.941,0 86.804,15.99 86.804,15.99 l 0,0 c 0,0 -38.863,15.99 -86.804,15.99 l 0,0 c -47.94,0 -58.814,-7.159 -58.814,-15.99" /></g></g></g></g><g
       id="g332"><g
         id="g334"><g
           id="g340"><g
             id="g342"><path
               id="path354"
               style="fill:url(#linearGradient344);stroke:none"
               d="m 256.378,306.145 c 0,0 38.863,-15.99 86.804,-15.99 l 0,0 c 47.939,0 58.814,7.159 58.814,15.99 l 0,0 c 0,8.831 -10.875,15.99 -58.814,15.99 l 0,0 c -47.941,0 -86.804,-15.99 -86.804,-15.99" /></g></g></g></g><g
       id="g356"><g
         id="g358"><g
           id="g364"><g
             id="g366"><path
               id="path380"
               style="fill:url(#linearGradient368);stroke:none"
               d="m 238.5,329.339 c -3.146,0 -5.695,-2.551 -5.695,-5.695 l 0,0 0,-34.999 c 0,-3.146 2.55,-5.696 5.695,-5.696 l 0,0 34.999,0 c 3.146,0 5.695,2.551 5.695,5.696 l 0,0 0,34.999 c 0,3.145 -2.55,5.695 -5.695,5.695 l 0,0 -34.999,0 z" /></g></g></g></g></g></svg>