<?xml version="1.0" encoding="UTF-8" standalone="no"?>
<svg
   xmlns:dc="http://purl.org/dc/elements/1.1/"
   xmlns:cc="http://creativecommons.org/ns#"
   xmlns:rdf="http://www.w3.org/1999/02/22-rdf-syntax-ns#"
   xmlns:svg="http://www.w3.org/2000/svg"
   xmlns="http://www.w3.org/2000/svg"
   viewBox="0 0 640 640"
   height="640"
   width="640"
   xml:space="preserve"
   version="1.1"
   id="svg2"><metadata
     id="metadata8"><rdf:RDF><cc:Work
         rdf:about=""><dc:format>image/svg+xml</dc:format><dc:type
           rdf:resource="http://purl.org/dc/dcmitype/StillImage" /></cc:Work></rdf:RDF></metadata><defs
     id="defs6"><clipPath
       id="clipPath16"
       clipPathUnits="userSpaceOnUse"><path
         id="path18"
         d="M 0,512 512,512 512,0 0,0 0,512 Z" /></clipPath><clipPath
       id="clipPath24"
       clipPathUnits="userSpaceOnUse"><path
         id="path26"
         d="m 18.325,493.744 475.4,0 0,-475.4877 -475.4,0 0,475.4877 z" /></clipPath><clipPath
       id="clipPath28"
       clipPathUnits="userSpaceOnUse"><path
         id="path30"
         d="M 448.99,63.029 C 389.293,3.332 122.807,3.332 63.11,63.029 3.413,122.726 3.413,389.312 63.01,449.009 c 59.597,59.696 326.283,59.596 385.98,0 59.697,-59.597 59.597,-326.283 0,-385.98" /></clipPath><radialGradient
       id="radialGradient36"
       spreadMethod="pad"
       gradientTransform="matrix(237.72188,0,0,237.72188,256.02499,256)"
       gradientUnits="userSpaceOnUse"
       r="1"
       cy="0"
       cx="0"
       fy="0"
       fx="0"><stop
         id="stop38"
         offset="0"
         style="stop-opacity:1;stop-color:#ffffff" /><stop
         id="stop40"
         offset="0.8587"
         style="stop-opacity:0.14129854;stop-color:#ffffff" /><stop
         id="stop42"
         offset="1"
         style="stop-opacity:0;stop-color:#ffffff" /></radialGradient><mask
       id="mask44"
       height="1"
       width="1"
       y="0"
       x="0"
       maskUnits="userSpaceOnUse"><g
         id="g46"><g
           id="g48"><g
             id="g50"><g
               id="g52"><path
                 id="path54"
                 style="fill:url(#radialGradient36);stroke:none"
                 d="m -32768,32767 65535,0 0,-65535 -65535,0 0,65535 z" /></g></g></g></g></mask><radialGradient
       id="radialGradient56"
       spreadMethod="pad"
       gradientTransform="matrix(237.72188,0,0,237.72188,256.02499,256)"
       gradientUnits="userSpaceOnUse"
       r="1"
       cy="0"
       cx="0"
       fy="0"
       fx="0"><stop
         id="stop58"
         offset="0"
         style="stop-opacity:1;stop-color:#010101" /><stop
         id="stop60"
         offset="0.8587"
         style="stop-opacity:1;stop-color:#010101" /><stop
         id="stop62"
         offset="1"
         style="stop-opacity:1;stop-color:#010101" /></radialGradient><clipPath
       id="clipPath86"
       clipPathUnits="userSpaceOnUse"><path
         id="path88"
         d="m 18.325,493.744 475.4,0 0,-475.4877 -475.4,0 0,475.4877 z" /></clipPath><clipPath
       id="clipPath90"
       clipPathUnits="userSpaceOnUse"><path
         id="path92"
         d="M 448.99,63.029 C 389.293,3.332 122.807,3.332 63.11,63.029 3.413,122.726 3.413,389.312 63.01,449.009 c 59.597,59.696 326.283,59.596 385.98,0 59.697,-59.597 59.597,-326.283 0,-385.98" /></clipPath><radialGradient
       id="radialGradient98"
       spreadMethod="pad"
       gradientTransform="matrix(188.25467,188.36119,-130.35883,130.27895,256.02499,256.04376)"
       gradientUnits="userSpaceOnUse"
       r="1"
       cy="0"
       cx="0"
       fy="0"
       fx="0"><stop
         id="stop100"
         offset="0"
         style="stop-opacity:1;stop-color:#ffffff" /><stop
         id="stop102"
         offset="0.8587"
         style="stop-opacity:0.14129854;stop-color:#ffffff" /><stop
         id="stop104"
         offset="1"
         style="stop-opacity:0;stop-color:#ffffff" /></radialGradient><mask
       id="mask106"
       height="1"
       width="1"
       y="0"
       x="0"
       maskUnits="userSpaceOnUse"><g
         id="g108"><g
           id="g110"><g
             id="g112"><g
               id="g114"><path
                 id="path116"
                 style="fill:url(#radialGradient98);stroke:none"
                 d="m -32768,32767 65535,0 0,-65535 -65535,0 0,65535 z" /></g></g></g></g></mask><radialGradient
       id="radialGradient118"
       spreadMethod="pad"
       gradientTransform="matrix(188.25467,188.36119,-130.35883,130.27895,256.02499,256.04376)"
       gradientUnits="userSpaceOnUse"
       r="1"
       cy="0"
       cx="0"
       fy="0"
       fx="0"><stop
         id="stop120"
         offset="0"
         style="stop-opacity:1;stop-color:#010101" /><stop
         id="stop122"
         offset="0.8587"
         style="stop-opacity:1;stop-color:#010101" /><stop
         id="stop124"
         offset="1"
         style="stop-opacity:1;stop-color:#010101" /></radialGradient><clipPath
       id="clipPath148"
       clipPathUnits="userSpaceOnUse"><path
         id="path150"
         d="m 18.275,493.694 475.387,0 0,-475.4377 -475.387,0 0,475.4377 z" /></clipPath><clipPath
       id="clipPath152"
       clipPathUnits="userSpaceOnUse"><path
         id="path154"
         d="m 63.01,63.029 c 59.697,-59.697 326.183,-59.697 385.88,0 59.697,59.697 59.697,326.183 0,385.88 -59.697,59.696 -326.183,59.696 -385.88,0.1 -59.697,-59.597 -59.597,-326.283 0,-385.98" /></clipPath><radialGradient
       id="radialGradient160"
       spreadMethod="pad"
       gradientTransform="matrix(-188.28767,188.39421,130.38168,130.30179,255.92499,255.99377)"
       gradientUnits="userSpaceOnUse"
       r="1"
       cy="0"
       cx="0"
       fy="0"
       fx="0"><stop
         id="stop162"
         offset="0"
         style="stop-opacity:1;stop-color:#ffffff" /><stop
         id="stop164"
         offset="0.8587"
         style="stop-opacity:0.14129854;stop-color:#ffffff" /><stop
         id="stop166"
         offset="1"
         style="stop-opacity:0;stop-color:#ffffff" /></radialGradient><mask
       id="mask168"
       height="1"
       width="1"
       y="0"
       x="0"
       maskUnits="userSpaceOnUse"><g
         id="g170"><g
           id="g172"><g
             id="g174"><g
               id="g176"><path
                 id="path178"
                 style="fill:url(#radialGradient160);stroke:none"
                 d="m -32768,32767 65535,0 0,-65535 -65535,0 0,65535 z" /></g></g></g></g></mask><radialGradient
       id="radialGradient180"
       spreadMethod="pad"
       gradientTransform="matrix(-188.28767,188.39421,130.38168,130.30179,255.92499,255.99377)"
       gradientUnits="userSpaceOnUse"
       r="1"
       cy="0"
       cx="0"
       fy="0"
       fx="0"><stop
         id="stop182"
         offset="0"
         style="stop-opacity:1;stop-color:#010101" /><stop
         id="stop184"
         offset="0.8587"
         style="stop-opacity:1;stop-color:#010101" /><stop
         id="stop186"
         offset="1"
         style="stop-opacity:1;stop-color:#010101" /></radialGradient><clipPath
       id="clipPath218"
       clipPathUnits="userSpaceOnUse"><path
         id="path220"
         d="m 155.333,356.667 201.334,0 0,-201.334 -201.334,0 0,201.334 z" /></clipPath></defs><g
     transform="matrix(1.25,0,0,-1.25,0,640)"
     id="g10"><g
       id="g12"><g
         clip-path="url(#clipPath16)"
         id="g14"><g
           id="g20"><g
             id="g22" /><g
             id="g64"><g
               style="opacity:0.39999402"
               id="g66"
               clip-path="url(#clipPath24)"><g
                 id="g68"><g
                   id="g70"
                   clip-path="url(#clipPath28)"><g
                     id="g72"><g
                       id="g74" /><g
                       id="g76"
                       mask="url(#mask44)"><g
                         id="g78"><path
                           id="path80"
                           style="fill:url(#radialGradient56);stroke:none"
                           d="M 448.99,63.029 C 389.293,3.332 122.807,3.332 63.11,63.029 3.413,122.726 3.413,389.312 63.01,449.009 c 59.597,59.696 326.283,59.596 385.98,0 59.697,-59.597 59.597,-326.283 0,-385.98" /></g></g></g></g></g></g></g></g><g
           id="g82"><g
             id="g84" /><g
             id="g126"><g
               style="opacity:0.39999402"
               id="g128"
               clip-path="url(#clipPath86)"><g
                 id="g130"><g
                   id="g132"
                   clip-path="url(#clipPath90)"><g
                     id="g134"><g
                       id="g136" /><g
                       id="g138"
                       mask="url(#mask106)"><g
                         id="g140"><path
                           id="path142"
                           style="fill:url(#radialGradient118);stroke:none"
                           d="M 448.99,63.029 C 389.293,3.332 122.807,3.332 63.11,63.029 3.413,122.726 3.413,389.312 63.01,449.009 c 59.597,59.696 326.283,59.596 385.98,0 59.697,-59.597 59.597,-326.283 0,-385.98" /></g></g></g></g></g></g></g></g><g
           id="g144"><g
             id="g146" /><g
             id="g188"><g
               style="opacity:0.39999402"
               id="g190"
               clip-path="url(#clipPath148)"><g
                 id="g192"><g
                   id="g194"
                   clip-path="url(#clipPath152)"><g
                     id="g196"><g
                       id="g198" /><g
                       id="g200"
                       mask="url(#mask168)"><g
                         id="g202"><path
                           id="path204"
                           style="fill:url(#radialGradient180);stroke:none"
                           d="m 63.01,63.029 c 59.697,-59.697 326.183,-59.697 385.88,0 59.697,59.697 59.697,326.183 0,385.88 -59.697,59.696 -326.183,59.696 -385.88,0.1 -59.697,-59.597 -59.597,-326.283 0,-385.98" /></g></g></g></g></g></g></g></g><g
           transform="translate(433.2792,78.7208)"
           id="g206"><path
             id="path208"
             style="fill:#febc12;fill-opacity:1;fill-rule:nonzero;stroke:none"
             d="m 0,0 c -70.294,-70.294 -284.264,-70.294 -354.558,0 -70.295,70.294 -70.295,284.264 0,354.558 70.294,70.295 284.264,70.295 354.558,0 C 70.294,284.264 70.294,70.294 0,0" /></g><g
           transform="translate(256,184.7898)"
           id="g210"><path
             id="path212"
             style="fill:#ffffff;fill-opacity:1;fill-rule:nonzero;stroke:none"
             d="m 0,0 c -39.329,0 -71.21,31.882 -71.21,71.21 0,39.329 31.881,71.21 71.21,71.21 39.329,0 71.21,-31.881 71.21,-71.21 C 71.21,31.882 39.329,0 0,0 m 0,237.66 c -91.928,0 -166.45,-74.522 -166.45,-166.45 0,-91.927 74.522,-166.45 166.45,-166.45 91.927,0 166.45,74.523 166.45,166.45 0,91.928 -74.523,166.45 -166.45,166.45" /></g><g
           id="g214"><g
             id="g216" /><g
             id="g222"><g
               style="opacity:0.80000299"
               id="g224"
               clip-path="url(#clipPath218)"><g
                 id="g226"
                 transform="translate(256,184.7898)"><path
                   id="path228"
                   style="fill:#e8e8e8;fill-opacity:1;fill-rule:nonzero;stroke:none"
                   d="m 0,0 c -39.329,0 -71.21,31.882 -71.21,71.21 0,39.329 31.881,71.21 71.21,71.21 39.329,0 71.21,-31.881 71.21,-71.21 C 71.21,31.882 39.329,0 0,0 m 0,171.877 c -55.597,0 -100.667,-45.07 -100.667,-100.667 0,-55.596 45.07,-100.667 100.667,-100.667 55.597,0 100.667,45.071 100.667,100.667 0,55.597 -45.07,100.667 -100.667,100.667" /></g></g></g></g><g
           transform="translate(108.4681,175.7551)"
           id="g230"><path
             id="path232"
             style="fill:#fba919;fill-opacity:1;fill-rule:nonzero;stroke:none"
             d="m 0,0 c 0,-10.567 -14.517,-17.932 -14.517,-17.932 4.27,12.382 -10.14,19.533 -10.14,30.207 0,10.674 13.77,18.252 13.77,18.252 C -12.275,13.129 0,10.567 0,0" /></g><g
           transform="translate(348.2211,36.58)"
           id="g234"><path
             id="path236"
             style="fill:#f15d22;fill-opacity:1;fill-rule:nonzero;stroke:none"
             d="m 0,0 c -37.346,55.832 -120.126,59.079 -81.245,162.124 26.684,70.661 -59.774,133.21 -59.774,133.21 0,0 45.257,-74.29 -55.184,-135.772 -38.372,-23.426 -70.047,-60.801 -87.182,-100.374 4.279,-6.329 8.898,-12.061 13.885,-17.047 35.146,-35.146 106.208,-52.72 177.271,-52.721 l 0.016,0 C -60.397,-10.579 -28.592,-7.045 0,0" /></g><g
           transform="translate(163.5455,293.8086)"
           id="g238"><path
             id="path240"
             style="fill:#f15d22;fill-opacity:1;fill-rule:nonzero;stroke:none"
             d="m 0,0 c 0,-19.747 -27.112,-33.409 -27.112,-33.409 7.899,23.055 -18.893,36.504 -18.893,56.251 0,19.747 25.725,34.157 25.725,34.157 C -23.056,24.443 0,19.747 0,0" /></g><g
           transform="translate(255.9921,26.0001)"
           id="g242"><path
             id="path244"
             style="fill:#f47920;fill-opacity:1;fill-rule:nonzero;stroke:none"
             d="M 0,0 0.016,0 C 34.811,0.001 69.596,4.226 100.175,12.652 82.839,26.055 74.237,46.45 88.37,88.38 c 17.825,52.729 -42.483,103.323 -42.483,103.323 0,0 14.09,-70.234 -58.493,-99.053 C -53.402,76.448 -79.552,44.806 -89.363,9.886 -61.516,3.3 -30.761,0.001 0,0" /></g><g
           transform="translate(163.5455,142.1323)"
           id="g246"><path
             id="path248"
             style="fill:#ef9324;fill-opacity:1;fill-rule:nonzero;stroke:none"
             d="M 0,0 C 0,-22.202 30.527,-37.679 30.527,-37.679 21.668,-11.635 51.875,3.522 51.875,25.724 51.875,47.926 22.842,64.15 22.842,64.15 25.938,27.432 0,22.202 0,0" /></g><g
           transform="translate(342.2268,162.4127)"
           id="g250"><path
             id="path252"
             style="fill:#f47920;fill-opacity:1;fill-rule:nonzero;stroke:none"
             d="m 0,0 c -12.168,31.808 -40.347,55.291 -40.347,55.291 0,0 5.55,-27.646 -8.219,-55.291 -5.444,-10.887 -13.876,-21.882 -26.792,-31.061 0.854,-3.949 2.028,-7.899 3.309,-11.848 10.674,-30.741 29.78,-54.864 57.212,-72.476 3.95,-2.562 4.804,-2.242 7.152,1.815 1.921,3.415 3.949,6.831 5.87,10.14 -4.91,12.808 -4.589,30.207 3.95,55.397 C 7.792,-31.275 5.657,-14.837 0,0" /></g><g
           transform="translate(287.6831,291.4603)"
           id="g254"><path
             id="path256"
             style="fill:#f15d22;fill-opacity:1;fill-rule:nonzero;stroke:none"
             d="M 0,0 C 0,-12.809 17.505,-21.668 17.505,-21.668 12.382,-6.725 29.78,1.921 29.78,14.73 29.78,27.539 13.129,36.825 13.129,36.825 14.837,15.691 0,12.702 0,0" /></g></g></g></g></svg>