<?xml version="1.0" encoding="utf-8"?>
<!-- Generator: Adobe Illustrator 18.0.0, SVG Export Plug-In . SVG Version: 6.00 Build 0)  -->
<!DOCTYPE svg PUBLIC "-//W3C//DTD SVG 1.1//EN" "http://www.w3.org/Graphics/SVG/1.1/DTD/svg11.dtd">
<svg version="1.1" xmlns="http://www.w3.org/2000/svg" xmlns:xlink="http://www.w3.org/1999/xlink" x="0px" y="0px"
	 viewBox="0 0 512 512" enable-background="new 0 0 512 512" xml:space="preserve">
<g id="Layer_3">
	<g>
		<g opacity="0.4" enable-background="new    ">
			
				<radialGradient id="SVGID_1_" cx="1.0125" cy="515" r="118.8609" gradientTransform="matrix(2 0 0 -2 254 1286)" gradientUnits="userSpaceOnUse">
				<stop  offset="0" style="stop-color:#020202"/>
				<stop  offset="0.8587" style="stop-color:#020202;stop-opacity:0.1413"/>
				<stop  offset="1" style="stop-color:#020202;stop-opacity:0"/>
			</radialGradient>
			<path fill="url(#SVGID_1_)" d="M449,449c-59.7,59.7-326.2,59.7-385.9,0S3.4,122.7,63,63s326.3-59.6,386,0S508.6,389.3,449,449z"
				/>
		</g>
		<g opacity="0.4" enable-background="new    ">
			
				<radialGradient id="SVGID_2_" cx="2.0286" cy="516.0684" r="133.1551" gradientTransform="matrix(1.4138 -1.4146 -0.979 -0.9784 758.388 763.7472)" gradientUnits="userSpaceOnUse">
				<stop  offset="0" style="stop-color:#020202"/>
				<stop  offset="0.8587" style="stop-color:#020202;stop-opacity:0.1413"/>
				<stop  offset="1" style="stop-color:#020202;stop-opacity:0"/>
			</radialGradient>
			<path fill="url(#SVGID_2_)" d="M449,449c-59.7,59.7-326.2,59.7-385.9,0S3.4,122.7,63,63s326.3-59.6,386,0S508.6,389.3,449,449z"
				/>
		</g>
		<g opacity="0.4" enable-background="new    ">
			
				<radialGradient id="SVGID_3_" cx="3.4424" cy="513.9732" r="133.1784" gradientTransform="matrix(-1.4138 -1.4146 0.979 -0.9784 -242.3879 763.7472)" gradientUnits="userSpaceOnUse">
				<stop  offset="0" style="stop-color:#020202"/>
				<stop  offset="0.8587" style="stop-color:#020202;stop-opacity:0.1413"/>
				<stop  offset="1" style="stop-color:#020202;stop-opacity:0"/>
			</radialGradient>
			<path fill="url(#SVGID_3_)" d="M63,449c59.7,59.7,326.2,59.7,385.9,0s59.7-326.2,0-385.9S122.7,3.4,63,63S3.4,389.3,63,449z"/>
		</g>
	</g>
	<radialGradient id="SVGID_4_" cx="254" cy="140.6667" r="268.6685" gradientUnits="userSpaceOnUse">
		<stop  offset="0" style="stop-color:#009591"/>
		<stop  offset="1" style="stop-color:#39B54A"/>
	</radialGradient>
	<path fill="url(#SVGID_4_)" d="M433.3,433.3c-70.3,70.3-284.3,70.3-354.6,0S8.4,149,78.7,78.7s284.3-70.3,354.6,0
		S503.6,363,433.3,433.3z"/>
</g>
<g id="Layer_2">
	<g>
		<g>
			<polygon fill="#FFFFFF" points="358.5,270.4 358.5,261.9 352.1,261.9 352.1,265.8 348.5,267.2 350.7,273 			"/>
			<rect x="352.1" y="251.6" fill="#FFFFFF" width="6.2" height="9.1"/>
			<polygon fill="#FFFFFF" points="358.5,241.8 350.7,239.1 348.5,245 352.1,246.3 352.1,250.2 358.5,250.2 			"/>
			
				<rect x="339.6" y="237" transform="matrix(-0.9424 -0.3346 0.3346 -0.9424 588.1669 581.6414)" fill="#FFFFFF" width="9.1" height="6.4"/>
			<path fill="#FFFFFF" d="M334.6,231.1l-0.6-1.7l-6.1,2l0.6,1.7c0.5,1.1,0.7,2.5,1.1,3.7l0.4,1.6l7.4,2.6l2.2-6l-4.2-1.5
				C335.2,232.8,334.9,232,334.6,231.1z"/>
			<path fill="#FFFFFF" d="M325.4,224.7c0.6,1.5,1.2,2.7,1.7,4.2l0.6,1.7l6.1-2.2l-3.4-8l-5.9,2.6L325.4,224.7z"/>
			<path fill="#FFFFFF" d="M321.6,213.8l-1.4,1.4l0.6,1.1l0.6,1c0.6,1.1,1.4,2.2,1.9,3.4l1,1.7l5.6-3l-1.4-2.5
				c-0.1-0.5-0.6-1-0.7-1.5l1.9-4l-5.7-2.7L321.6,213.8z"/>
			
				<rect x="325" y="201.6" transform="matrix(-0.4297 0.903 -0.903 -0.4297 656.004 -4.8189)" fill="#FFFFFF" width="9.1" height="6.4"/>
			<polygon fill="#FFFFFF" points="328.1,191.9 330.8,194.7 329,198.2 334.9,200.9 338.4,193.4 332.4,187.5 			"/>
			
				<rect x="321.4" y="182.5" transform="matrix(0.7071 0.7071 -0.7071 0.7071 226.709 -176.1632)" fill="#FFFFFF" width="9.1" height="6.2"/>
			<polygon fill="#FFFFFF" points="310.9,176.8 313.5,182.6 317,180.9 319.6,183.6 324.1,179.2 318.4,173.2 			"/>
			
				<rect x="303.8" y="177.6" transform="matrix(0.4297 0.903 -0.903 0.4297 339.5254 -173.2899)" fill="#FFFFFF" width="6.4" height="9.1"/>
			<path fill="#FFFFFF" d="M296.2,183.8c-0.1-0.1-0.5-0.1-0.6-0.4c-0.6-0.2-1.1-0.6-1.5-0.9l-1.7-1l-2.9,5.7l1.7,1
				c1.1,0.6,2.4,1.4,3.5,2l2.2,1.1l1.4-1.5l5-2.4l-2.7-5.7L296.2,183.8z"/>
			<path fill="#FFFFFF" d="M285.2,178.6l-1.7-0.6l-2.4,5.9l1.9,0.7c1.4,0.5,2.6,1.1,4.2,1.7l1.7,0.7l2.6-5.7l-1.7-0.9
				C288.1,179.7,286.6,179.2,285.2,178.6z"/>
			<path fill="#FFFFFF" d="M278,176.1l-1.5-4.2l-6,2.2l2.6,7.4l1,0.1l6.2,1.7l1.9-6l-1.7-0.6C279.7,176.7,278.8,176.3,278,176.1z"/>
			
				<rect x="267" y="164.5" transform="matrix(0.3346 0.9424 -0.9424 0.3346 338.6779 -144.3599)" fill="#FFFFFF" width="9.1" height="6.4"/>
			<polygon fill="#FFFFFF" points="261.5,159.5 265.4,159.5 266.6,163.1 272.5,161.1 269.9,153.2 261.5,153.2 			"/>
			<rect x="251.1" y="153.2" fill="#FFFFFF" width="9.1" height="6.4"/>
			<polygon fill="#FFFFFF" points="238.7,161.1 244.5,163 245.9,159.5 249.6,159.5 249.6,153.2 241.3,153.2 			"/>
			
				<rect x="236.5" y="162.9" transform="matrix(0.9424 0.3346 -0.3346 0.9424 69.8422 -70.5433)" fill="#FFFFFF" width="6.4" height="9.1"/>
			<path fill="#FFFFFF" d="M233.3,176.1c-0.9,0.1-1.6,0.5-2.6,0.7l-1.7,0.6l2,6l1.7-0.5c0.9-0.1,1.7-0.5,2.6-0.7l1.4-0.4l1.6-0.4
				l2.6-7.4l-6-2.2L233.3,176.1z"/>
			<path fill="#FFFFFF" d="M219.9,181.1l2.6,5.9l1.7-0.7c1.4-0.6,2.7-1.1,4.2-1.7l1.7-0.7l-2.4-5.9L219.9,181.1z"/>
			<path fill="#FFFFFF" d="M216.4,182.9c-0.5,0.1-1,0.5-1.5,0.7l-4-2l-2.6,5.7l4.9,2.4l1.4,1.5l2.2-1.1l0.1-0.1
				c1.1-0.7,2.2-1.4,3.4-2l1.7-0.9l-2.9-5.7L216.4,182.9z"/>
			
				<rect x="199.8" y="179.2" transform="matrix(0.9029 0.4298 -0.4298 0.9029 98.204 -70.0847)" fill="#FFFFFF" width="9" height="6.2"/>
			<polygon fill="#FFFFFF" points="186.9,179.2 191.5,183.6 194.1,180.9 197.7,182.6 200.3,176.8 192.9,173.2 			"/>
			
				<rect x="182.1" y="180.8" transform="matrix(0.7071 0.7071 -0.7071 0.7071 185.3414 -76.6433)" fill="#FFFFFF" width="6.2" height="9.1"/>
			<polygon fill="#FFFFFF" points="172.9,193.4 176.4,200.9 182.1,198.2 180.4,194.7 183.1,191.9 178.7,187.5 			"/>
			
				<rect x="177.1" y="201.5" transform="matrix(0.4299 0.9029 -0.9029 0.4299 288.4225 -47.3423)" fill="#FFFFFF" width="9.1" height="6.4"/>
			<path fill="#FFFFFF" d="M187.1,208.8l-5.7,2.7l2,4c-0.1,0.1-0.1,0.1-0.1,0.2c-0.4,0.6-0.7,1.4-1.1,2l-0.9,1.7l5.7,2.9l0.9-1.7
				c0.4-0.7,0.7-1.4,1.1-2c0.1-0.5,0.5-1,0.7-1.4l1.1-2l-1.4-1.4L187.1,208.8z"/>
			<path fill="#FFFFFF" d="M184,228.9c0.5-1.4,1-2.6,1.7-4.1l1-1.7l-6-2.6l-0.7,1.7c-0.7,1.5-1.4,3-2,4.5l-0.7,1.7l5.9,2.4
				L184,228.9z"/>
			<path fill="#FFFFFF" d="M173.8,241.1l7.4-2.6l0.1-1l1.7-6.2l-6-2l-0.6,1.7c-0.2,0.9-0.5,1.7-0.7,2.6l-4.2,1.5L173.8,241.1z"/>
			
				<rect x="163.9" y="235.6" transform="matrix(0.3346 0.9424 -0.9424 0.3346 337.485 2.3714)" fill="#FFFFFF" width="6.4" height="9.1"/>
			<polygon fill="#FFFFFF" points="152.7,241.8 152.7,250.2 159.2,250.2 159.2,246.3 162.6,245 160.4,239.1 			"/>
			<rect x="152.7" y="251.6" fill="#FFFFFF" width="6.4" height="9.1"/>
			<polygon fill="#FFFFFF" points="152.7,270.4 160.4,273 162.6,267.2 159.2,265.8 159.2,261.9 152.7,261.9 			"/>
			
				<rect x="162.7" y="268.8" transform="matrix(-0.9424 -0.3345 0.3345 -0.9424 233.8159 584.2265)" fill="#FFFFFF" width="9.1" height="6.4"/>
			<path fill="#FFFFFF" d="M176.4,281l0.6,1.7l6.1-1.9l-0.7-1.9c-0.5-1.2-0.7-2.5-1.1-3.7l-0.4-1.6l-7.2-2.6l-2.2,6l4.2,1.5
				C175.9,279.3,176.3,280.1,176.4,281z"/>
			<path fill="#FFFFFF" d="M180.6,291.9l5.7-2.7l-0.7-1.7c-0.6-1.5-1.1-2.7-1.7-4.2l-0.7-1.9l-6,2.4L180.6,291.9z"/>
			<path fill="#FFFFFF" d="M189.7,298.5l1.4-1.4l-1.1-2h-0.1c-0.7-1.1-1.4-2.2-2-3.4L187,290l-5.7,2.9l1.4,2.5
				c0.1,0.5,0.5,1,0.7,1.5l-2,4l5.7,2.7L189.7,298.5z"/>
			
				<rect x="177.3" y="304.3" transform="matrix(0.4296 -0.903 0.903 0.4296 -173.9124 339.4781)" fill="#FFFFFF" width="9" height="6.2"/>
			<polygon fill="#FFFFFF" points="183.1,320.3 180.4,317.5 182.1,314 176.4,311.2 172.9,318.7 178.7,324.6 			"/>
			
				<rect x="180.5" y="323.6" transform="matrix(-0.7071 -0.7071 0.7071 -0.7071 84.9264 688.5291)" fill="#FFFFFF" width="9.1" height="6.2"/>
			<polygon fill="#FFFFFF" points="200.3,335.3 197.7,329.6 194.1,331.2 191.5,328.4 186.9,332.9 192.9,338.9 			"/>
			
				<rect x="201.2" y="325.3" transform="matrix(-0.4296 -0.903 0.903 -0.4296 -5.6907 656.0857)" fill="#FFFFFF" width="6.2" height="9"/>
			<path fill="#FFFFFF" d="M214.9,328.4c0.1,0.1,0.5,0.1,0.7,0.4c0.5,0.2,1.1,0.6,1.5,0.9l1.7,1l3-5.6l-1.7-1
				c-1.1-0.6-2.4-1.4-3.5-1.9l-2.2-1.1l-1.4,1.4l-5,2.4l2.7,5.7L214.9,328.4z"/>
			<path fill="#FFFFFF" d="M226.2,333.6l1.7,0.6l2.2-6l-1.7-0.6c-1.4-0.5-2.6-1.1-4.2-1.7l-1.7-0.7l-2.6,5.7l1.7,0.7
				C223.1,332.4,224.7,332.9,226.2,333.6z"/>
			<path fill="#FFFFFF" d="M233.3,335.9l1.5,4.2l6-2.2l-2.6-7.4l-1-0.1l-6.2-1.9l-2,6l1.7,0.6C231.5,335.4,232.4,335.8,233.3,335.9z
				"/>
			
				<rect x="235.1" y="341.4" transform="matrix(-0.3346 -0.9424 0.9424 -0.3346 -4.9567 685.7133)" fill="#FFFFFF" width="9.1" height="6.4"/>
			<polygon fill="#FFFFFF" points="249.6,352.7 245.9,352.7 244.5,349 238.7,350.9 241.3,359 249.6,359 			"/>
			<rect x="251.1" y="352.7" fill="#FFFFFF" width="9.1" height="6.2"/>
			<polygon fill="#FFFFFF" points="272.5,350.9 266.6,349 265.4,352.7 261.5,352.7 261.5,359 269.9,359 			"/>
			
				<rect x="266.9" y="341.4" transform="matrix(-0.3345 0.9424 -0.9424 -0.3345 686.9783 203.9468)" fill="#FFFFFF" width="9.1" height="6.4"/>
			<path fill="#FFFFFF" d="M277.8,335.9c0.9-0.1,1.6-0.5,2.5-0.7l1.7-0.6l-1.9-6.1l-1.9,0.6c-1.2,0.5-2.5,0.7-3.7,1.1l-1.6,0.4
				l-2.6,7.4l6,2.2L277.8,335.9z"/>
			<path fill="#FFFFFF" d="M285.2,333.6c1.4-0.5,2.7-1.1,4.4-1.9l1.7-0.7l-2.5-5.9l-1.7,0.7c-1.5,0.6-2.7,1.2-4.2,1.7l-1.9,0.6
				l2.4,5.9L285.2,333.6z"/>
			<path fill="#FFFFFF" d="M293.9,329.6c0.7-0.4,1.5-0.9,2.2-1.4l3.9,1.9l2.7-5.7l-5-2.4l-1.4-1.4l-1.2,0.6l-1,0.6
				c-1.1,0.6-2.2,1.4-3.4,1.9l-1.7,0.9l2.9,5.7L293.9,329.6z"/>
			
				<rect x="302.3" y="326.7" transform="matrix(-0.9029 -0.4298 0.4298 -0.9029 442.1227 759.4197)" fill="#FFFFFF" width="9" height="6.2"/>
			<polygon fill="#FFFFFF" points="324.1,332.9 319.6,328.4 317,331.2 313.5,329.6 310.9,335.3 318.4,338.9 			"/>
			
				<rect x="323" y="321.9" transform="matrix(-0.7071 -0.7071 0.7071 -0.7071 325.8038 787.8811)" fill="#FFFFFF" width="6.2" height="9.1"/>
			<polygon fill="#FFFFFF" points="338.4,318.7 334.9,311.2 329,314 330.8,317.5 328.1,320.2 332.4,324.6 			"/>
			
				<rect x="324.9" y="304.1" transform="matrix(-0.4296 -0.903 0.903 -0.4296 193.4408 736.5947)" fill="#FFFFFF" width="9" height="6.2"/>
			<path fill="#FFFFFF" d="M324,303.4l5.7-2.6l-1.9-4c0.1-0.1,0.1-0.5,0.4-0.6c0.2-0.6,0.6-1.1,0.9-1.5l1-1.7l-5.6-2.9l-1,1.7
				c-0.6,1.1-1.4,2.4-1.9,3.5l-1.1,2.2l1.4,1.4L324,303.4z"/>
			<path fill="#FFFFFF" d="M327.1,283.4c-0.5,1.4-1.1,2.6-1.7,4.2l-0.7,1.7l5.7,2.5l0.7-1.7c0.7-1.6,1.4-3.1,1.9-4.5l0.6-1.7
				l-5.7-2.4L327.1,283.4z"/>
			<path fill="#FFFFFF" d="M337.5,271l-7.4,2.6l-0.1,1l-1.9,6.2l6,1.9l0.6-1.7c0.2-0.9,0.6-1.7,0.7-2.5l4.2-1.5L337.5,271z"/>
			
				<rect x="340.7" y="267.5" transform="matrix(-0.3347 -0.9423 0.9423 -0.3347 202.6449 687.0647)" fill="#FFFFFF" width="6.2" height="9"/>
			<path fill="#FFFFFF" d="M155.8,380.5c-1.1-1-2.6-2-3.7-3.1l-1.5-1.4l-4.2,5l7,5.7l3.9-5L155.8,380.5z"/>
			<path fill="#FFFFFF" d="M413.9,280.5c-0.1,1.7-0.6,3.5-0.9,4.9l-0.4,1.9l6.2,1.1l0.2-1.9c0.1-0.7,0.2-1.6,0.4-2.4
				c0.1-0.9,0.2-1.7,0.5-2.6l0.4-1.9l-6.4-1L413.9,280.5z"/>
			<path fill="#FFFFFF" d="M163.8,386.5c-1.5-1.1-2.7-2-3.9-2.7l-1.5-1.1l-3.9,5l1.5,1.1c1.4,1,2.7,2,4.1,3.1l1.1-1.5l0,0l-1.1,1.5
				l1.6,1.1l3.6-5.2L163.8,386.5z"/>
			<path fill="#FFFFFF" d="M148.3,374.2c-1.1-1.1-2.4-2.2-3.6-3.2l-1.4-1.4l-4.5,4.5l6.5,6.1l4.2-4.9L148.3,374.2z"/>
			<path fill="#FFFFFF" d="M172,392.1c-1.4-0.9-2.7-1.7-4.2-2.6l-1.6-1.1l-3.6,5.2l1.6,1.1c1,0.6,2,1.4,3.1,2l2.7,1.7l3.6-5.2
				L172,392.1z"/>
			<path fill="#FFFFFF" d="M141.3,367.4c-1.1-1.1-2.2-2.4-3.4-3.6l-1.4-1.4l-4.7,4.4l6.1,6.5l4.5-4.4L141.3,367.4z"/>
			<path fill="#FFFFFF" d="M134.7,360.1c-0.7-0.7-1.4-1.5-2-2.4c-0.4-0.5-0.7-1-1.1-1.4l-1.1-1.5l-4.9,3.9l1.1,1.5
				c1.1,1.4,2.2,2.6,3.2,3.9l1.1,1.4l4.9-4L134.7,360.1z"/>
			<path fill="#FFFFFF" d="M406.8,309.1c-0.6,1.9-1.1,3.2-1.6,4.6l-0.6,1.7l6,2.4l1.1-2.7c0.5-1.2,1-2.5,1.4-3.9l0.6-1.7l-6-2.2
				L406.8,309.1z"/>
			<path fill="#FFFFFF" d="M179.5,396.5c-1.1-0.6-2.2-1.2-3.2-1.9l-1.7-1l-3.2,5.5l1.6,1c1.1,0.7,2.6,1.6,4.5,2.5l1.6,0.9l3.2-5.5
				L179.5,396.5z"/>
			<path fill="#FFFFFF" d="M128.5,352.4c-0.9-1.1-1.7-2.4-2.7-3.9l-1.1-1.6l-5.1,3.7l1.1,1.5c1,1.4,2,2.7,3,4.1l1.1,1.5l4.9-3.9
				L128.5,352.4z"/>
			<path fill="#FFFFFF" d="M403.3,318.3c-0.6,1.4-1.4,2.9-1.9,4.4l-0.7,1.7l5.7,2.7l3.7-8.2l-5.9-2.5L403.3,318.3z"/>
			<path fill="#FFFFFF" d="M410.6,296.7l6.1,1.6l0.5-1.9c0.4-1.5,0.7-3.2,1.2-4.9l0.6-1.9l-6.2-1.4L410.6,296.7z"/>
			<path fill="#FFFFFF" d="M106.4,312.2l-5.9,2.4l0.7,1.7c0.7,1.9,1.4,3.4,2,4.9l0.7,1.7l5.7-2.5L106.4,312.2z"/>
			<path fill="#FFFFFF" d="M399,327.3c-0.7,1.5-1.5,3.1-2.4,4.4l-0.9,1.7l5.6,2.9l1-1.6c0.7-1.4,1.6-2.9,2.4-4.7l0.7-1.7l-5.6-2.6
				L399,327.3z"/>
			<path fill="#FFFFFF" d="M409.8,299.6c-0.6,1.9-1,3.2-1.5,4.7l-0.6,1.9l6,1.9l0.6-1.7c0.5-1.4,0.9-2.7,1.4-4.2l0.7-2.6l-6.1-1.7
				L409.8,299.6z"/>
			<path fill="#FFFFFF" d="M304.5,408.3c-1.2,0.4-2.5,0.7-3.7,1.1l-2.7,0.9l1.7,6.1l1.9-0.6c1.6-0.5,3.2-1,5-1.5l1.7-0.6l-1.9-6.1
				L304.5,408.3z"/>
			<path fill="#FFFFFF" d="M322.8,401.2c-1.6,0.7-3.1,1.4-4.4,1.9l-1.9,0.7l2.5,6l8.2-3.7l-2.7-5.7L322.8,401.2z"/>
			<path fill="#FFFFFF" d="M288.4,412.6l1.4,6.2l2.6-0.6c1.4-0.2,2.7-0.6,4.2-1.1l1.7-0.6l-1.5-6L288.4,412.6z"/>
			<path fill="#FFFFFF" d="M314,405.1c-1,0.2-1.9,0.6-2.7,1c-0.6,0.1-1.4,0.5-1.9,0.6l-1.9,0.6l2.2,6l1.7-0.6
				c1.5-0.6,3.1-1.1,4.9-1.7l1.9-0.6l-2.4-5.7L314,405.1z"/>
			<path fill="#FFFFFF" d="M285.5,413.1c-1.5,0.2-3.1,0.6-4.9,0.9l-1.9,0.2l1,6.2l1.9-0.1c1.7-0.1,3.5-0.6,5-0.9l1.9-0.4l-1.1-6.2
				L285.5,413.1z"/>
			<path fill="#FFFFFF" d="M370.8,367.4c-0.7,0.7-1.5,1.5-2.4,2.4c-0.4,0.4-0.7,0.7-1.1,1.1l-1.4,1.4l4.4,4.4l6.2-6.2l-4.5-4.5
				L370.8,367.4z"/>
			<path fill="#FFFFFF" d="M340.2,392.1c-0.6,0.4-1.4,0.9-2,1.2c-0.6,0.5-1.5,0.9-2.2,1.4l-1.6,1l3.1,5.5l1.7-1
				c1.4-0.9,2.7-1.7,4.2-2.5l1.6-1l-3.2-5.5L340.2,392.1z"/>
			<path fill="#FFFFFF" d="M356.1,380.6c-1.4,1.1-2.6,2-3.9,3.1l-1.5,1.1l3.9,5l1.5-1.1c1.4-1,2.6-2,4.1-3.2l1.4-1.2l-3.9-4.9
				L356.1,380.6z"/>
			<path fill="#FFFFFF" d="M325.8,400.1l2.7,5.7l1.7-1c0.6-0.4,1.5-0.7,2.2-1.1c0.7-0.4,1.5-0.7,2.2-1.1l1.7-1l-2.9-5.6L325.8,400.1
				z"/>
			<path fill="#FFFFFF" d="M363.7,374.1c-1.2,1.1-2.5,2.2-3.6,3.2l-1.4,1.2l4.1,4.9l1.5-1.4c1.2-1.1,2.5-2.2,3.9-3.5l1.4-1.4
				l-4.4-4.7L363.7,374.1z"/>
			<path fill="#FFFFFF" d="M348.4,386.5c-1.2,1-2.6,1.9-4,2.7l-1.6,1.1l3.6,5.2l2.4-1.5c1.2-0.9,2.4-1.6,3.6-2.5l1.5-1.1l-3.7-5
				L348.4,386.5z"/>
			<path fill="#FFFFFF" d="M377.3,360.1c-0.6,0.6-1.1,1.2-1.6,1.9c-0.6,0.6-1.1,1.2-1.7,1.9l-1.2,1.4l4.7,4.4l1.6-1.9
				c1-1.1,2-2.2,3.1-3.2l1.4-1.5l-5-4.2L377.3,360.1z"/>
			<path fill="#FFFFFF" d="M241.4,415.2l-2-0.1l-0.6,6.2l2,0.1c1.6,0.1,3.4,0.2,5.1,0.4h2l0.4-6.2h-2
				C244.6,415.6,243,415.3,241.4,415.2z"/>
			<path fill="#FFFFFF" d="M383.5,352.4c-0.5,0.6-1,1.4-1.5,1.9c-0.6,0.6-1.1,1.4-1.5,2l-1.1,1.5l4.9,3.9l1.2-1.5
				c0.6-0.7,1.2-1.5,1.9-2.4c0.5-0.6,0.9-1.1,1.4-1.6l1.2-1.5l-5-3.9L383.5,352.4z"/>
			<path fill="#FFFFFF" d="M231.7,413.9l-1.7-0.2l-1,6.2l2,0.2c1.6,0.1,3.2,0.5,5,0.6l2,0.1l0.7-6.2l-4.2-0.6
				C233.3,414.3,232.4,414.2,231.7,413.9z"/>
			<path fill="#FFFFFF" d="M217.2,411.2c-0.9-0.1-1.7-0.6-2.6-0.7c-0.7-0.1-1.4-0.4-2-0.6l-1.7-0.6l-1.7,6.1l1.7,0.6
				c1.7,0.5,3.4,1,4.9,1.4l1.7,0.5l1.5-6L217.2,411.2z"/>
			<path fill="#FFFFFF" d="M222.1,412.2l-2-0.5l-1.4,6.2l1.7,0.5c1.6,0.4,3.2,0.6,5,1l1.7,0.2l0.9-4.4l0.2-1.9l-1.7-0.4
				C225.2,412.8,223.6,412.6,222.1,412.2z"/>
			<path fill="#FFFFFF" d="M113,327.3c-0.5-1.1-1.1-2.2-1.6-3.2l-1.4-2.7l-5.7,2.7l0.7,1.7c0.7,1.5,1.4,3.1,2.2,4.6l1,1.7l5.7-2.9
				L113,327.3z"/>
			<path fill="#FFFFFF" d="M117.6,336.1c-1-1.5-1.7-2.9-2.4-4.2l-1-1.7l-5.7,2.9l1,1.7c0.7,1.5,1.7,3.1,2.5,4.4l1,1.6l5.7-3.1
				L117.6,336.1z"/>
			<path fill="#FFFFFF" d="M122.8,344.4c-1-1.4-2-3.1-2.6-4.1l-1-1.6l-5.5,3.2l1,1.6c1,1.5,1.7,3.1,2.7,4.4l1.1,1.5l5.5-3.5
				L122.8,344.4z"/>
			<path fill="#FFFFFF" d="M394.4,335.9c-0.7,1.4-1.7,2.7-2.5,4.2l-1,1.6l5.4,3.2l1-1.6c1-1.5,1.9-3.1,2.6-4.5l0.9-1.6l-5.5-3.1
				L394.4,335.9z"/>
			<path fill="#FFFFFF" d="M389.3,344.4c-0.5,0.6-1,1.4-1.4,2c-0.5,0.6-1,1.4-1.5,2l-1,1.5l5,3.7l1.1-1.7c1-1.4,1.9-2.7,2.7-4.1
				l1.1-1.6l-5.2-3.6L389.3,344.4z"/>
			<path fill="#FFFFFF" d="M251.3,415.8h-2l-0.1,6.2h2c1.7,0,3.4,0,5,0h2v-6.2H256C254.5,415.8,252.9,415.8,251.3,415.8z"/>
			<path fill="#FFFFFF" d="M275.7,414.6c-1.5,0.1-3.1,0.4-4.4,0.5l-2.2,0.1l0.6,6.2l2.4-0.1c1.5-0.1,3.1-0.2,4.6-0.6l1.9-0.1
				l-0.7-6.2L275.7,414.6z"/>
			<path fill="#FFFFFF" d="M265.4,415.6c-1.5,0-2.9,0.1-4.2,0.1l-2,0.1l0.1,6.2h1.9c1.7,0,3.5,0,5.2-0.1l1.9-0.1l-0.4-6.2H265.4z"/>
			<path fill="#FFFFFF" d="M261,96.4l1.9,0.1l0.1-6.4l-1.9-0.1c-1.7-0.1-3.5-0.1-5.1-0.1h-2.2v6.4h2.2
				C257.5,96.2,259.2,96.2,261,96.4z"/>
			<path fill="#FFFFFF" d="M155.7,131.6c1.5-1.1,2.7-2.2,3.9-2.9l1.7-1.1l-3.9-5.1l-1.5,1.1c-1.5,1.1-2.7,2-4.1,3.2l-1.5,1.1
				l3.9,4.9L155.7,131.6z"/>
			<path fill="#FFFFFF" d="M148.2,138.1c1.1-1.1,2.5-2.2,3.7-3.4l1.4-1.1l-4.1-4.9l-1.5,1.4c-0.6,0.5-1.1,1.1-1.7,1.6
				s-1.4,1.1-2,1.7l-1.4,1.4l4.2,4.6L148.2,138.1z"/>
			<path fill="#FFFFFF" d="M164.1,125.4c1.1-0.7,2.4-1.6,3.5-2.4l1.7-1.1l-2.5-3.7l-1.1-1.6l-1.6,1.1c-1.4,1-2.7,1.7-4.2,2.7
				l-1.5,1.1l3.6,5.1L164.1,125.4z"/>
			<path fill="#FFFFFF" d="M235.9,97.4c0.9-0.1,1.7-0.1,2.6-0.2c0.9-0.1,1.6-0.1,2.4-0.1l2-0.1l-0.6-6.4l-2.4,0.2
				c-1.5,0.1-3.1,0.2-4.7,0.5l-1.7,0.2l0.7,6.2L235.9,97.4z"/>
			<path fill="#FFFFFF" d="M128.5,159.8c1-1.4,2-2.6,3-4.1l1.1-1.5l-4.9-3.9l-1.1,1.5c-0.5,0.6-1,1.4-1.5,2c-0.5,0.7-1.1,1.4-1.5,2
				l-1.1,1.5l5.1,3.9L128.5,159.8z"/>
			<path fill="#FFFFFF" d="M138.9,147.1l-4.7-4.2l-1.4,1.5c-0.4,0.4-0.7,0.9-1.1,1.1c-0.7,0.9-1.5,1.7-2.2,2.6l-1.1,1.5l4.9,4.1
				L138.9,147.1z"/>
			<path fill="#FFFFFF" d="M171.8,120.3c1-0.6,2-1.4,3-1.7c0.4-0.1,0.7-0.5,1.1-0.7l1.6-1l-3.2-5.5l-1.7,1c-1.1,0.6-2.2,1.4-3.2,2
				l-2.7,1.7l3.2,5.5L171.8,120.3z"/>
			<path fill="#FFFFFF" d="M208.3,103.6c1.1-0.4,2.5-0.7,3.7-1.1l1.7-0.6l-1.7-6l-1.7,0.5c-1.6,0.5-3.2,1-4.9,1.5l-1.7,0.6l2,6
				L208.3,103.6z"/>
			<path fill="#FFFFFF" d="M216.7,101.2c1.5-0.4,3.2-0.7,4.9-1.1l2-0.4l-1.4-6.4l-2,0.5c-0.7,0.1-1.6,0.4-2.5,0.5
				c-0.9,0.2-1.7,0.4-2.5,0.6l-2,0.5l1.5,6.1L216.7,101.2z"/>
			<path fill="#FFFFFF" d="M226.3,99.1c1.5-0.2,3.2-0.6,4.9-0.9l2-0.2l-1-6.2l-1.7,0.2c-1.7,0.2-3.5,0.5-5.1,0.9l-1.7,0.4l1.1,6.2
				L226.3,99.1z"/>
			<path fill="#FFFFFF" d="M415.7,251.1c0,1.6,0,3.2,0,4.9v2h6.2v-2c0-1.7,0-3.5,0-5.1v-2l-6.2,0.1V251.1z"/>
			<path fill="#FFFFFF" d="M180.2,115.3c1.5-0.7,2.9-1.5,4.5-2.4l1.7-0.9l-2.9-5.7l-1.7,0.7c-1.1,0.5-2.4,1.1-3.5,1.7l-2.7,1.5
				l2.9,5.7L180.2,115.3z"/>
			<path fill="#FFFFFF" d="M190,110.4c1.1-0.5,2.2-1,3.4-1.5l1.7-0.7l-2.6-6l-8.2,3.6l2.7,5.7L190,110.4z"/>
			<path fill="#FFFFFF" d="M198,107c1.5-0.6,3-1.1,4.5-1.6l2-0.5l-2.1-6.1l-1.7,0.6c-1.5,0.5-3,1.1-4.9,1.7l-1.7,0.7l2.4,5.9
				L198,107z"/>
			<path fill="#FFFFFF" d="M122.7,168c1-1.4,1.7-2.7,2.7-4l1.1-1.5l-5.1-3.7l-1.1,1.7c-0.5,0.7-1,1.4-1.4,2c-0.5,0.7-1,1.4-1.5,2
				l-1.1,1.6l5.2,3.6L122.7,168z"/>
			<path fill="#FFFFFF" d="M141.2,145c1.1-1.1,2.2-2.4,3.5-3.5l1.5-1.4l-4.5-4.5l-1.4,1.4c-0.4,0.4-0.7,0.7-1.1,1.1
				c-0.7,0.7-1.6,1.6-2.5,2.5l-1.4,1.4l4.5,4.5L141.2,145z"/>
			<path fill="#FFFFFF" d="M96.9,271c-0.1-1.6-0.2-3.2-0.4-4.9l-0.1-1.9l-6.4,0.4l0.1,1.9c0.1,1.7,0.2,3.4,0.4,5l0.1,1.9l6.2-0.6
				V271z"/>
			<path fill="#FFFFFF" d="M117.6,176.3c1-1.5,1.7-2.7,2.6-4.2l1.1-1.7l-5.5-3.2l-1,1.5c-1,1.5-1.7,2.9-2.6,4.4l-1,1.7l5.5,3.2
				L117.6,176.3z"/>
			<path fill="#FFFFFF" d="M188.2,400.8c-1.1-0.6-2.2-1.1-3.2-1.6l-1.7-1l-2.7,5.7l1.7,0.9c0.5,0.1,1,0.5,1.5,0.6c1,0.5,2,1,3.1,1.5
				l1.7,0.7l2.6-5.7L188.2,400.8z"/>
			<path fill="#FFFFFF" d="M96.3,251.2c0-1.5,0.1-3.2,0.1-4.9l0.1-2L90,244l-0.4,9l6.5,0.1L96.3,251.2L96.3,251.2z"/>
			<path fill="#FFFFFF" d="M105.2,309.5c-0.4-1-0.7-1.9-1-2.7c-0.1-0.6-0.4-1.1-0.6-1.7l-0.6-1.7l-6.1,1.9l0.6,1.9
				c0.5,1.5,1.1,3.1,1.6,4.9l0.6,1.9l6.1-2.2L105.2,309.5z"/>
			<path fill="#FFFFFF" d="M99.9,290.4c-0.4-1.5-0.7-3.2-1-4.9l-0.4-1.9l-6.2,1.1l0.5,2.5c0.2,1.5,0.5,2.9,1,4.4l0.5,1.9l6.2-1.4
				L99.9,290.4z"/>
			<path fill="#FFFFFF" d="M102.4,300c-0.5-1.9-1-3.2-1.4-4.7l-0.5-1.9l-6,1.5l0.5,1.9c0.4,1.7,0.9,3.2,1.4,5l0.5,1.9l6.1-1.7
				L102.4,300z"/>
			<path fill="#FFFFFF" d="M96.3,261.2c-0.1-1.6-0.1-3.2-0.1-5v-2h-6.4v2c0,1.7,0,3.5,0.1,5.1l0.1,1.9l6.4-0.1L96.3,261.2z"/>
			<path fill="#FFFFFF" d="M108.9,193.9c0.5-1.4,1.1-2.7,2-4.5l0.9-1.7l-5.7-2.7l-0.7,1.7c-0.7,1.6-1.5,3.2-2.2,4.9l-0.7,1.7
				l5.9,2.6L108.9,193.9z"/>
			<path fill="#FFFFFF" d="M105.1,203.1c0.4-1.1,1-2.9,1.6-4.6l0.7-1.7l-6-2.4l-1.1,2.7c-0.5,1.1-1,2.5-1.4,3.7l-0.6,1.7l6,2.2
				L105.1,203.1z"/>
			<path fill="#FFFFFF" d="M112.9,185.1c0.5-1.1,1.4-2.7,2.2-4.2l1.1-1.7l-5.7-3l-1,1.7c-0.7,1.5-1.5,2.9-2.4,4.5l-0.9,1.7l5.7,2.7
				L112.9,185.1z"/>
			<path fill="#FFFFFF" d="M99.9,222.1c0.2-1.5,0.7-3.2,1.1-4.9l0.5-1.7l-6-1.6l-0.5,2c-0.2,0.9-0.4,1.6-0.6,2.5
				c-0.1,0.9-0.4,1.6-0.5,2.5l-0.5,2l6.2,1.4L99.9,222.1z"/>
			<path fill="#FFFFFF" d="M98,231.9c0.1-1.7,0.5-3.4,0.9-4.9l0.4-2l-6.2-1.1l-0.5,2.6c-0.2,1.5-0.5,2.9-0.7,4.4l-0.2,1.7l6.2,1
				L98,231.9z"/>
			<path fill="#FFFFFF" d="M96.9,241.5c0.1-1.5,0.2-3.1,0.5-4.9l0.2-2l-6.4-0.7l-0.2,1.7c-0.2,1.7-0.4,3.4-0.5,5.1l-0.1,2l6.4,0.6
				L96.9,241.5z"/>
			<path fill="#FFFFFF" d="M102.5,211.5c0.4-1.1,0.7-2.5,1.1-3.6l0.6-1.7l-6.1-2l-0.6,1.7c-0.5,1.7-1,3.2-1.5,4.9l-0.5,1.7l6.1,1.7
				L102.5,211.5z"/>
			<path fill="#FFFFFF" d="M98.1,280.8c-0.1-0.9-0.1-1.6-0.4-2.5l-0.6-4.4l-6.2,0.7l0.2,2c0.2,1.6,0.5,3.2,0.7,4.9l0.2,1.9l6.2-1
				L98.1,280.8z"/>
			<path fill="#FFFFFF" d="M389.3,167.8c1,1.4,1.9,2.7,2.6,4.1l1,1.7l5.2-3.4l-1-1.6c-1-1.5-1.9-3-2.7-4.2l-1.1-1.6l-5.2,3.6
				L389.3,167.8z"/>
			<path fill="#FFFFFF" d="M394.5,176.1c0.1,0.4,0.5,0.9,0.6,1.4c0.6,1,1.1,2,1.6,3l1,1.7l5.6-2.9l-1-1.7c-0.7-1.5-1.7-3-2.5-4.5
				l-1-1.7l-5.5,3.2L394.5,176.1z"/>
			<path fill="#FFFFFF" d="M383.5,159.8c0.9,1.1,1.7,2.4,2.7,3.9l1.1,1.5l5.2-3.6l-1.1-1.6c-1-1.4-2-2.7-3.1-4.2l-1.1-1.5l-5,3.9
				L383.5,159.8z"/>
			<path fill="#FFFFFF" d="M405.8,200l6-2.4l-1.1-2.7c-0.5-1.1-1-2.5-1.5-3.6l-0.7-1.7l-5.7,2.5L405.8,200z"/>
			<path fill="#FFFFFF" d="M406.8,202.9c0.5,1.1,0.7,2.2,1.1,3.4c0.1,0.4,0.1,0.7,0.4,1.1l0.6,1.7l6.1-2l-0.6-1.7
				c-0.6-1.6-1.1-3.2-1.6-4.9l-0.6-1.7L406,201L406.8,202.9z"/>
			<path fill="#FFFFFF" d="M377.4,152.1c0.2,0.4,0.6,0.9,1,1.1c0.7,0.9,1.5,1.7,2,2.6l1.2,1.5l5-4.1l-1.4-1.5
				c-1.1-1.1-2.2-2.6-3.2-3.7l-1.2-1.5l-4.9,4.1L377.4,152.1z"/>
			<path fill="#FFFFFF" d="M399,184.8c0.6,1.1,1.1,2.2,1.6,3.2l1.4,2.7l5.7-2.6l-0.7-1.7c-0.6-1.6-1.4-3.1-2.2-4.6l-0.9-1.7
				l-5.7,2.7L399,184.8z"/>
			<path fill="#FFFFFF" d="M415.9,258.8v1.9c0,1.7-0.1,3.4-0.1,5v1.9l6.2,0.4l0.4-9L415.9,258.8z"/>
			<path fill="#FFFFFF" d="M370.8,145c1.1,1.1,2.2,2.4,3.2,3.6l1.4,1.5l4.9-4.2l-6.1-6.5l-4.5,4.5L370.8,145z"/>
			<path fill="#FFFFFF" d="M415.1,271.2c-0.1,1.5-0.2,3.1-0.5,4.4l-0.2,1.9l6.4,0.7l0.1-2c0-0.9,0.1-1.7,0.2-2.6
				c0-0.7,0.1-1.6,0.1-2.4l0.1-1.9l-6.2-0.6L415.1,271.2z"/>
			<path fill="#FFFFFF" d="M198.3,405.1c-1-0.2-2-0.7-3-1.1c-0.5-0.1-1.1-0.5-1.5-0.6l-1.7-0.6l-2.5,5.7l1.7,0.7
				c1.1,0.6,2.6,1.1,3.7,1.5l2.7,1.1l2.4-6.1L198.3,405.1z"/>
			<path fill="#FFFFFF" d="M207.8,408.3c-1.6-0.6-3.2-1.1-4.9-1.6l-1.7-0.6l-2.2,6l1.7,0.6c1.5,0.6,3.1,1.1,4.6,1.5l2,0.6l2.2-6
				L207.8,408.3z"/>
			<path fill="#FFFFFF" d="M409.6,212.3c0.4,1.4,0.9,2.9,1.4,4.7l0.5,2l6.1-1.6l-0.5-1.7c-0.4-1.7-0.9-3.2-1.4-4.9l-0.6-1.7
				l-6.1,1.7L409.6,212.3z"/>
			<path fill="#FFFFFF" d="M363.8,138.1c1.1,1.1,2.4,2.2,3.6,3.2l1.4,1.4l4.5-4.5l-6.5-6.1l-4.4,4.7L363.8,138.1z"/>
			<path fill="#FFFFFF" d="M331.5,115.2c0.7,0.5,1.5,0.9,2.2,1.1c0.6,0.4,1.5,0.7,2.2,1.1l1.7,1l2.9-5.7l-1.5-1
				c-1.2-0.7-2.6-1.6-4.4-2.6l-1.7-1l-2.9,5.7L331.5,115.2z"/>
			<path fill="#FFFFFF" d="M294.9,101.1c0.9,0.1,1.7,0.5,2.6,0.7c0.6,0.1,1.4,0.4,2,0.5l1.9,0.5l1.7-6.1l-1.9-0.5
				c-1.7-0.5-3.4-1-5-1.4l-1.7-0.5l-1.5,6L294.9,101.1z"/>
			<path fill="#FFFFFF" d="M290.2,99.9l1.9,0.5l1.4-6.2l-1.9-0.5c-1.5-0.2-2.9-0.6-4.4-1l-2.5-0.5l-1.1,6.2l1.9,0.4
				C287,99.2,288.6,99.6,290.2,99.9z"/>
			<path fill="#FFFFFF" d="M304.4,103.7c0.7,0.2,1.6,0.5,2.4,0.9c0.7,0.1,1.5,0.5,2.4,0.7l1.7,0.6l2.2-6l-1.9-0.6
				c-1.5-0.5-3.1-1.1-4.9-1.6l-1.9-0.6l-1.9,6L304.4,103.7z"/>
			<path fill="#FFFFFF" d="M280.5,98.2l1.9,0.1l1-6.2l-1.9-0.2c-1.6-0.2-3.2-0.5-5-0.7l-2-0.2l-0.7,6.2l4.4,0.6
				C278.8,97.9,279.7,98.1,280.5,98.2z"/>
			<path fill="#FFFFFF" d="M415.1,241.2c0.1,1.5,0.2,3.2,0.4,4.9v2l6.2-0.4v-2c0-1.7-0.1-3.4-0.4-5.1l-0.1-2l-6.2,0.6L415.1,241.2z"
				/>
			<path fill="#FFFFFF" d="M313.8,107c1,0.2,1.9,0.7,3.1,1.1c0.6,0.1,1.1,0.5,1.5,0.6l1.7,0.7l2.5-5.7l-1.7-0.7
				c-1.2-0.5-2.5-1.1-3.7-1.5l-2.7-1.1l-2.5,6L313.8,107z"/>
			<path fill="#FFFFFF" d="M270.9,96.9l1.9,0.1l0.6-6.4l-1.9-0.1c-1.6-0.1-3.4-0.2-5-0.4l-1.9-0.1l-0.4,6.2l1.9,0.1
				C267.5,96.6,269.1,96.8,270.9,96.9z"/>
			<path fill="#FFFFFF" d="M356.3,131.8c1.2,1,2.5,2,3.7,3.1l1.5,1.4l4-4.9l-1.4-1.1c-1.2-1.1-2.6-2.2-3.9-3.2l-1.5-1.1l-4,5
				L356.3,131.8z"/>
			<path fill="#FFFFFF" d="M348.4,125.8c1.5,1.1,2.7,2,3.9,2.7l1.5,1.1l3.9-4.9l-1.5-1.1c-1.4-1-2.7-2-4.2-3l-1.5-1.1l-3.7,5.1
				L348.4,125.8z"/>
			<path fill="#FFFFFF" d="M412.1,221.9c0.4,1.5,0.6,3.2,1,4.9l0.4,2l6.2-1.1l-0.5-2.6c-0.2-1.5-0.6-2.9-1-4.4l-0.5-1.7l-6.2,1.4
				L412.1,221.9z"/>
			<path fill="#FFFFFF" d="M323.9,111.4c1.1,0.5,2.2,1.1,3.2,1.6l1.7,1l2.9-5.7l-1.7-0.9c-0.5-0.1-1-0.5-1.5-0.7c-1-0.5-2-1-3.1-1.5
				l-1.7-0.7l-2.7,5.7L323.9,111.4z"/>
			<path fill="#FFFFFF" d="M414.2,233.7c0.1,0.9,0.1,1.7,0.4,2.6l0.1,1.7l6.2-0.7l-0.1-2c-0.1-0.9-0.1-1.7-0.4-2.6
				c0-0.9-0.1-1.6-0.2-2.5l-0.1-2l-6.2,1L414.2,233.7z"/>
			<path fill="#FFFFFF" d="M340.2,120.2c1.4,0.9,2.7,1.7,4.1,2.6l1.6,1.1l3.5-5.2l-1.5-1.1c-1.2-0.9-2.4-1.6-3.6-2.4l-2.4-1.5
				l-3.2,5.5L340.2,120.2z"/>
			<path fill="#FFFFFF" d="M245.9,96.6c1.5-0.1,3.1-0.1,4.6-0.1l2.4-0.1l-0.1-6.4l-9,0.4l0.4,6.4L245.9,96.6z"/>
			<path fill="#FFFFFF" d="M362.8,226l-0.5-1.7L356,226l0.6,1.7c0.6,2,1,3.6,1.4,5.1l0.4,1.7l6.4-1.4l-0.4-2
				C363.8,229.5,363.3,227.7,362.8,226z"/>
			<path fill="#FFFFFF" d="M359.6,243.1l0.1,2l6.4-0.7l-0.1-1.7c-0.1-1.7-0.5-3.7-0.7-5.5l-0.2-2l-6.4,1.1l0.4,2
				C359.2,239.6,359.5,241.2,359.6,243.1z"/>
			<path fill="#FFFFFF" d="M150,291.8l0.6,1.7l6.1-2l-0.5-1.7c-0.5-1.6-1.1-3.2-1.5-5l-0.5-1.9l-6.4,1.7l0.5,1.9
				C148.9,288.3,149.4,290.1,150,291.8z"/>
			<path fill="#FFFFFF" d="M172.1,182.6c-1,1.1-2,2.2-2.7,3.2c-0.2,0.2-0.5,0.7-0.9,1l-1.1,1.5l5.1,4.2l1.1-1.5
				c1.1-1.5,2.2-2.7,3.2-3.9l1.4-1.5l-4.9-4.2L172.1,182.6z"/>
			<path fill="#FFFFFF" d="M165.1,191.2c-1.1,1.7-2.2,3.2-3.1,4.6l-1.1,1.6l5.5,3.6l1.1-1.6c1-1.5,2-3.1,2.9-4.4l1.1-1.5l-5.2-3.7
				L165.1,191.2z"/>
			<path fill="#FFFFFF" d="M154,210.4c-0.7,1.7-1.5,3.4-2.2,5.1l-0.7,1.7l6.1,2.5l0.7-1.7c0.5-1.4,1.1-3.1,2-4.7l1-1.7l-6.1-2.6
				L154,210.4z"/>
			<path fill="#FFFFFF" d="M159.2,200.4c-1,1.6-1.7,3.2-2.6,4.9l-1,1.7l5.9,3l0.9-1.7c1-1.7,1.7-3.2,2.5-4.5l1-1.7l-5.7-3.2
				L159.2,200.4z"/>
			<path fill="#FFFFFF" d="M149.8,220.9c-0.7,2-1.1,3.6-1.7,5.4l-0.5,1.7l6.4,1.7l0.5-1.7c0.5-1.6,1-3.2,1.5-5l0.6-1.7l-6.1-2
				L149.8,220.9z"/>
			<path fill="#FFFFFF" d="M145.1,242.2c-0.1,1.7-0.4,3.5-0.5,5.1l-0.1,2.4l6.5,0.5l0.1-2.6c0.1-1.5,0.2-3,0.5-4.5l0.1-2l-6.5-0.7
				L145.1,242.2z"/>
			<path fill="#FFFFFF" d="M147,231.4c-0.5,2-0.9,3.7-1.1,5.4l-0.2,2l6.4,1.1l0.4-2.2c0.2-1.5,0.5-3.2,1-4.6l0.5-2l-6.5-1.5
				L147,231.4z"/>
			<path fill="#FFFFFF" d="M207.1,155.7c-1.6,0.7-3.2,1.7-4.9,2.5l-1.7,1l3.2,5.7l1.7-1c1.5-0.9,3-1.7,4.6-2.4l1.7-0.9l-2.7-5.9
				L207.1,155.7z"/>
			<path fill="#FFFFFF" d="M227.8,148.2c-1.7,0.5-3.6,1-5.2,1.5l-1.7,0.5l1.7,6.1l1.7-0.5c0.5-0.1,1-0.2,1.5-0.5
				c1.1-0.2,2.4-0.7,3.6-1l2-0.5l-1.7-6.4L227.8,148.2z"/>
			<path fill="#FFFFFF" d="M249.9,144.7c-2,0.1-3.7,0.1-5.5,0.4l-2,0.1l0.5,6.5l2-0.1c1.7-0.1,3.5-0.2,5.2-0.4l2-0.1l-0.4-6.5
				L249.9,144.7z"/>
			<path fill="#FFFFFF" d="M179.7,174.4c-1.4,1.1-2.6,2.5-4.1,4l-1.4,1.4l3.2,3.2l1.4,1.4l1.4-1.4c1.1-1.1,2.5-2.5,3.7-3.6l1.4-1.4
				l-4.5-4.7L179.7,174.4z"/>
			<path fill="#FFFFFF" d="M217.2,151.5c-1.7,0.6-3.5,1.4-5.1,2l-1.7,0.7l2.6,6l1.7-0.7c1.4-0.5,3.1-1.4,4.9-1.7l1.7-0.6l-2.2-6.2
				L217.2,151.5z"/>
			<path fill="#FFFFFF" d="M188.2,167.3c-1.1,1-2.7,2.2-4.2,3.5l-1.5,1.1l4.2,5.1l1.5-1.1c1.4-1.1,2.7-2.2,4.1-3.2l1.5-1.1l-4-5.4
				L188.2,167.3z"/>
			<path fill="#FFFFFF" d="M197.2,161.1c-1.5,1-3.1,2-4.5,3l-1.6,1.1l3.6,5.4l1.6-1.1c0.6-0.4,1.1-0.7,1.7-1.1
				c0.9-0.5,1.7-1.1,2.6-1.7l1.5-1l-3.2-5.5L197.2,161.1z"/>
			<polygon fill="#FFFFFF" points="144.2,261.1 150.8,260.8 150.8,251.8 144.2,251.6 			"/>
			<path fill="#FFFFFF" d="M250.3,367.4h2l0.1-6.5h-2c-1.7,0-3.6-0.1-5.2-0.4l-2-0.1l-0.5,6.5l2.4,0.1
				C246.8,367.1,248.4,367.3,250.3,367.4z"/>
			<path fill="#FFFFFF" d="M172.1,329.8l1.4,1.5l4.9-4.4l-1.1-1.4c-1.1-1.4-2.4-2.6-3.2-4l-1.1-1.5l-5.1,4.2l1.1,1.5
				C169.8,326.9,171,328.4,172.1,329.8z"/>
			<path fill="#FFFFFF" d="M162.9,318c0.7,1.1,1.5,2.2,2.2,3.2l1.1,1.5l5.2-3.7l-1.1-1.5c-0.2-0.5-0.7-1-1-1.5c-0.7-1-1.4-1.9-2-2.7
				l-1.1-1.6l-5.5,3.6l1.1,1.6C162.4,317.1,162.6,317.5,162.9,318z"/>
			<path fill="#FFFFFF" d="M177.9,335.9c0.7,0.6,1.4,1.4,2,1.9l1.4,1.4l4.5-4.9l-1.5-1.4c-1.1-1.1-2.6-2.4-3.7-3.6l-1.4-1.4
				l-4.9,4.5l1.5,1.4C176.6,334.7,177.3,335.3,177.9,335.9z"/>
			<path fill="#FFFFFF" d="M207.3,356.5l1.7,0.7l3-5.7l-1.7-0.9c-1.5-0.6-3-1.5-4.7-2.4l-1.7-1l-2.2,4.1l-0.9,1.7l1.7,1
				C204.1,354.8,205.7,355.8,207.3,356.5z"/>
			<path fill="#FFFFFF" d="M188.5,344.9l1.5,1.1l3.9-5.2l-1.5-1.1c-1.4-1.1-2.7-2.2-4.1-3.2l-1.5-1.2l-4.1,5l1.5,1.2
				C185.6,342.7,187,343.9,188.5,344.9z"/>
			<path fill="#FFFFFF" d="M217.6,360.9l1.7,0.6l2.2-6.1l-2.7-1.1c-1.1-0.5-2.6-1-3.7-1.5l-1.7-0.7l-2.6,6l1.7,0.7
				C214.1,359.5,215.9,360.1,217.6,360.9z"/>
			<path fill="#FFFFFF" d="M197.6,351.2l1.6,1l3.4-5.5l-1.6-1c-1.6-1-3.1-2-4.4-2.9l-1.6-1.1l-3.7,5.5l1.7,1.1
				C194.5,349.2,196.1,350.3,197.6,351.2z"/>
			<path fill="#FFFFFF" d="M266.7,366.9c2.2-0.1,4-0.5,5.7-0.7l1.7-0.4l-1-6.4l-1.9,0.2c-1.7,0.2-3.5,0.6-5.1,0.6l-1.9,0.1l0.6,6.5
				L266.7,366.9z"/>
			<path fill="#FFFFFF" d="M154.2,302.1l0.9,1.7l6-2.6l-0.9-1.7c-0.7-1.4-1.4-2.9-2-4.9l-0.7-1.9l-6.1,2.5l0.7,1.7
				C152.7,298.5,153.4,300.4,154.2,302.1z"/>
			<path fill="#FFFFFF" d="M159.2,312l1,1.6l5.7-3.1l-1.5-2.7c-0.6-1.1-1.4-2.4-2-3.6l-0.9-1.7l-5.9,3.1l1,1.7
				C157.3,308.6,158.2,310.4,159.2,312z"/>
			<path fill="#FFFFFF" d="M147,280.9l0.4,1.9l6.4-1.4l-0.6-2.6c-0.2-1.5-0.6-2.9-1-4.4l-0.2-1.9l-6.4,1.1l0.2,1.9
				C146.3,277.4,146.7,279.2,147,280.9z"/>
			<path fill="#FFFFFF" d="M228.3,364l1.7,0.5l1.7-6.2l-1.7-0.5c-1.5-0.4-3.2-0.9-5.1-1.5l-1.7-0.6l-2,6.2l1.7,0.6
				C224.7,363.1,226.5,363.5,228.3,364z"/>
			<path fill="#FFFFFF" d="M235.3,365.8c1.1,0.1,2.6,0.5,3.9,0.6l1.7,0.1l1-6.2l-2.2-0.4c-1.7-0.2-3.2-0.6-4.9-0.9l-1.7-0.2
				l-1.4,6.4l2,0.2C234.3,365.4,234.9,365.4,235.3,365.8z"/>
			<path fill="#FFFFFF" d="M261.2,367.3l1.9-0.1l-0.4-6.5h-1.9c-1.7,0-3.5,0.1-5.2,0.1h-2v6.5h2
				C257.5,367.4,259.5,367.4,261.2,367.3z"/>
			<path fill="#FFFFFF" d="M145.1,270l0.1,1.9l6.5-0.7l-0.1-1.9c-0.1-1.7-0.4-3.6-0.5-5.2l-0.1-1.9l-6.5,0.6l0.1,2.4
				C144.8,266.7,144.8,268.4,145.1,270z"/>
			<path fill="#FFFFFF" d="M354.7,205.1l-1-1.7l-5.7,3l1.4,2.6c0.6,1.1,1.2,2.5,1.7,3.7l0.7,1.7l6-2.6l-0.7-1.7
				C356.3,208.3,355.5,206.6,354.7,205.1z"/>
			<path fill="#FFFFFF" d="M359.3,215.4l-0.6-1.7l-6.1,2.5l0.7,1.7c0.6,1.5,1.2,3.1,1.7,4.9l0.6,1.7l6.1-2l-0.6-1.7
				C360.7,218.9,360.1,217.1,359.3,215.4z"/>
			<path fill="#FFFFFF" d="M349.1,316.6c1-1.5,2-3.1,2.9-4.9l0.9-1.6l-5.6-3.1l-1,1.7c-0.6,1.2-1.5,2.5-2.4,3.7l-1.5,2.4l5.5,3.6
				L349.1,316.6z"/>
			<path fill="#FFFFFF" d="M342.6,325.6c1-1.2,2.4-2.7,3.5-4.5l1-1.5l-5.2-3.7l-1.1,1.5c-1.1,1.4-2,2.7-3.1,4.1l-1.2,1.5l5,4.1
				L342.6,325.6z"/>
			<path fill="#FFFFFF" d="M349.1,195.7L348,194l-5.5,3.6l1,1.6c1,1.5,1.9,3,2.7,4.5l1,1.6l5.6-3.4l-1-1.6
				C351.1,198.8,350.2,197.3,349.1,195.7z"/>
			<path fill="#FFFFFF" d="M354.7,307c0.7-1.5,1.5-3.1,2.5-5l0.7-1.7l-6-2.6l-0.7,1.7c-0.6,1.2-1.1,2.5-1.7,3.7l-1.4,2.6l5.7,3.1
				L354.7,307z"/>
			<path fill="#FFFFFF" d="M335.4,333.7c1.2-1.4,2.5-2.6,3.7-4.1l1.4-1.5l-5-4.4l-1.2,1.5c-1,1.2-2.2,2.5-3.5,3.7l-1.4,1.4l4.9,4.5
				L335.4,333.7z"/>
			<path fill="#FFFFFF" d="M327.3,341.4c0.6-0.6,1.4-1.2,2-1.7c0.6-0.6,1.4-1.2,2-1.9l1.5-1.4l-4.5-5l-1.4,1.4
				c-1.2,1.1-2.5,2.4-3.9,3.5l-1.5,1.2l4.2,5L327.3,341.4z"/>
			<path fill="#FFFFFF" d="M359.7,295.6c0.5-1.4,1-2.6,1.5-4l0.7-1.9l-6.2-2l-0.6,1.7c-0.6,1.7-1.2,3.4-1.9,5l-0.6,1.7l6.1,2.5
				L359.7,295.6z"/>
			<path fill="#FFFFFF" d="M367.1,253.2c0-1.7-0.1-3.6-0.2-5.5l-0.1-2l-6.5,0.5l0.4,9.1l4.7-0.1l1.9-0.1L367.1,253.2z"/>
			<path fill="#FFFFFF" d="M260.9,151.4l1.9,0.1l0.4-6.5l-1.9-0.1c-1.9-0.1-3.7-0.1-5.5-0.1h-2.2v6.5h2.2
				C257.2,151.1,259.1,151.2,260.9,151.4z"/>
			<path fill="#FFFFFF" d="M232.7,153.6l1.7-0.2c1.7-0.2,3.6-0.6,5.2-1l1.7-0.2l-1-6.4l-1.7,0.1c-1.7,0.1-3.6,0.5-5.5,1l-1.7,0.4
				L232.7,153.6z"/>
			<path fill="#FFFFFF" d="M362.8,286.1c0.5-1.7,1-3.6,1.4-5.2l0.4-1.9l-6.4-1.5l-0.5,1.9c-0.2,1.5-0.7,3.1-1.4,5l-0.6,1.9l6.2,1.7
				L362.8,286.1z"/>
			<path fill="#FFFFFF" d="M342.6,186.5l-1.2-1.5l-5,4.2l1.2,1.5c1.2,1.5,2.2,2.7,3.1,4.1l1.1,1.7l5.2-4l-1.1-1.5
				C345,189.5,344,188,342.6,186.5z"/>
			<path fill="#FFFFFF" d="M365.3,275.4c0.2-1.6,0.6-3.6,0.9-5.5l0.1-1.9l-6.5-0.7l-0.2,2.5c-0.1,1.5-0.4,3.1-0.6,4.5l-0.2,1.9
				l6.4,1.1L365.3,275.4z"/>
			<path fill="#FFFFFF" d="M366.6,264.4c0.1-1.9,0.1-3.7,0.1-5.6v-1.9l-6.5-0.1v2c0,1.7,0,3.5-0.1,5.1l-0.1,1.9l6.5,0.6L366.6,264.4
				z"/>
			<path fill="#FFFFFF" d="M308.9,158.2l-1.7-0.9l-3.1,5.7l1.7,1c1.5,0.9,3.1,1.7,4.5,2.6l1.6,1l3.2-5.5l-1.5-1
				C312,160,310.4,159,308.9,158.2z"/>
			<path fill="#FFFFFF" d="M298.9,153.2l-1.7-0.7l-2.6,6l1.7,0.7c1.5,0.7,3.1,1.5,4.9,2.2l1.7,0.9l3.1-6l-3.1-1.4
				C301.6,154.5,300.3,153.9,298.9,153.2z"/>
			<path fill="#FFFFFF" d="M266.6,145.1l-1.9-0.1l-0.6,6.5l9.1,1.1l0.7-6.5l-1.7-0.2C270.4,145.5,268.5,145.2,266.6,145.1z"/>
			<path fill="#FFFFFF" d="M318.4,164l-1.6-1.1l-3.7,5.4l1.6,1.1c1.4,1,2.7,2,4.2,3l1.5,1.1l4.1-5.2l-1.6-1.1
				C321.5,166.3,320.1,165.2,318.4,164z"/>
			<path fill="#FFFFFF" d="M277.7,147l-1.9-0.4l-1.4,6.5l1.9,0.4c1.7,0.2,3.5,0.7,5,1.1l1.9,0.5l1.7-6.4l-1.9-0.5
				C281.3,147.7,279.5,147.4,277.7,147z"/>
			<path fill="#FFFFFF" d="M327.1,170.7l-1.5-1.1l-4.2,5.1l1.5,1.1c1.4,1.1,2.6,2.4,3.9,3.5l1.5,1.4l4.4-4.9l-1.4-1.4
				C329.9,173.2,328.5,171.9,327.1,170.7z"/>
			<path fill="#FFFFFF" d="M288.3,149.6l-1.9-0.5l-1.9,6.2l1.7,0.5c1.6,0.5,3.2,1.1,5,1.7l1.9,0.7l2-6.1l-1.7-0.6
				C291.9,150.7,290.2,150.1,288.3,149.6z"/>
			<path fill="#FFFFFF" d="M336.4,179.4c-0.2-0.2-0.6-0.6-1-1l-1.4-1.4l-4.7,4.5l1.4,1.4c1.1,1.1,2.5,2.6,3.6,3.9l1.4,1.5l4.9-4.2
				l-1.2-1.5C338.2,181.3,337.2,180.3,336.4,179.4z"/>
			<path fill="#FFFFFF" d="M277.7,365.3c1.2-0.1,2.5-0.5,3.6-0.7c0.6-0.1,1.1-0.1,1.7-0.4l2-0.5l-1.7-6.4l-1.9,0.4
				c-0.9,0.1-1.7,0.4-2.5,0.6c-0.9,0.1-1.7,0.4-2.6,0.6l-1.9,0.4l1.4,6.2L277.7,365.3z"/>
			<path fill="#FFFFFF" d="M298.9,358.8c1.7-0.6,3.4-1.5,5-2.4l1.7-0.9l-2.7-5.7l-1.7,0.6c-0.9,0.4-1.6,0.6-2.5,1.1
				c-0.7,0.4-1.6,0.6-2.4,1.1l-1.7,0.7l2.6,6L298.9,358.8z"/>
			<path fill="#FFFFFF" d="M309,353.9c1.4-0.7,3.1-1.7,4.9-2.7l1.5-1l-3.2-5.6l-1.6,1c-1.5,1-3.1,1.9-4.5,2.6l-1.7,1l3.1,5.7
				L309,353.9z"/>
			<path fill="#FFFFFF" d="M318.4,348.2c1.4-1,2.7-2,4.5-3.2l1.5-1.1l-3.9-5.1l-2.5,1.7c-1.1,0.7-2.2,1.6-3.4,2.4l-1.6,1.1l3.7,5.4
				L318.4,348.2z"/>
			<path fill="#FFFFFF" d="M288.4,362.5c1.5-0.5,3.4-1.1,5.2-1.7l1.7-0.6l-2.2-6.1l-1.9,0.6c-1.5,0.6-3.2,1.1-5,1.7l-1.7,0.6
				l1.9,6.2L288.4,362.5z"/>
		</g>
		<g opacity="0.4">
			<path fill="#FFFFFF" d="M253,231c7.8,0.5,16.3-29.6,1.7-27.7C240.1,205.2,245.2,230.6,253,231z"/>
			<path fill="#FFFFFF" d="M279.8,235.6c14.6,0,42.1-36.9,16.2-36.9C270.1,198.7,265.2,235.6,279.8,235.6z"/>
			<path fill="#FFFFFF" d="M232.9,237.3c6.6-1.3,6.9-28.3-4.8-23.5C216.4,218.7,226.4,238.6,232.9,237.3z"/>
			<path fill="#FFFFFF" d="M260.8,323.3c12.9,0,27.7-11.6,30.5-26.4c2.1-11.2-25-6.7-24,0.7c1.2,8.9-6.5,13.3-14.1,7.6
				c-24-18.3,39.8-27.4,35.6-52.4c-3.5-20.7-67.1-14.3-74.3,18.1C209.5,292.9,234.6,323.3,260.8,323.3z"/>
			<path fill="#FFFFFF" d="M217.4,249.7c5.5-2.4,0.7-26.2-8.7-19.7C199.3,236.5,211.8,252.2,217.4,249.7z"/>
		</g>
		<g>
			<g>
				<path fill="#FFFFFF" d="M253.1,233.5c-0.1,0-0.2,0-0.3,0l0.1-2.5l0.2-2.5l-0.2,2.5l0.2-2.5h0c0.7,0,2.4-1.2,4.1-4.6l4.5,2.3
					C259.2,230.9,256.2,233.5,253.1,233.5z M248.8,231.9c-2.3-1.8-4.2-5.2-5.2-9.3l4.9-1.2c0.7,3,2.1,5.5,3.5,6.6L248.8,231.9z
					 M262.9,223.5l-4.7-1.8c1-2.7,1.7-5.6,1.9-8.2l5,0.3C264.9,216.8,264.1,220.3,262.9,223.5z M243.1,219.6
					c-0.1-1.1-0.2-2.3-0.2-3.4c0-2.5,0.4-4.8,1.1-6.9l4.7,1.7c-0.5,1.5-0.8,3.3-0.8,5.2c0,0.9,0.1,1.8,0.2,2.7L243.1,219.6z
					 M260,211c-0.2-2-0.8-4.5-2.8-5.1l1.4-4.8c3.7,1.1,6,4.5,6.3,9.5L260,211z M249.7,209l-4.2-2.7c2-3.1,5.1-5,8.9-5.5
					c0.2,0,0.5-0.1,0.7-0.1l0.4,5c-0.1,0-0.3,0-0.5,0C252.6,206.1,250.9,207.1,249.7,209z"/>
			</g>
			<g>
				<path fill="#FFFFFF" d="M279.8,238.1l-0.1-5h0.1c2,0,4.6-1,7.5-2.8l2.7,4.2C286.3,236.9,282.8,238.1,279.8,238.1z M276,237.4
					c-3.4-1.4-5.7-4.8-6.5-9.6l4.9-0.8c0.3,1.7,1.1,4.7,3.5,5.8L276,237.4z M292.5,232.7l-3-4c2.3-1.7,4.5-3.9,6.6-6.2l3.8,3.3
					C297.6,228.4,295,230.8,292.5,232.7z M269.2,224.6l0-0.3c0-3.2,0.6-6.6,1.8-9.9l4.7,1.7c-1,2.7-1.5,5.5-1.5,8.2l0,0.3
					L269.2,224.6z M301.8,223.5l-3.9-3.1c2-2.5,3.6-5.2,4.7-7.6l4.6,2.1C305.8,217.6,304,220.6,301.8,223.5z M276.7,213.6l-4.5-2.2
					c1.6-3.3,3.6-6.1,6.1-8.4l3.4,3.6C279.7,208.6,278,210.9,276.7,213.6z M308.3,211.9l-4.8-1.5c0.5-1.4,0.7-2.7,0.7-3.8
					c0-1.3-0.3-2.3-0.9-3l4-3c1.3,1.7,1.9,3.7,1.9,6.1C309.2,208.2,308.9,210,308.3,211.9z M283.7,205l-2.9-4
					c2.9-2.1,6.1-3.5,9.6-4.3l1,4.9C288.6,202.2,286,203.4,283.7,205z M301.9,202.3c-1.4-0.8-3.4-1.1-5.9-1.1c0,0,0,0,0,0
					c-0.7,0-1.3,0-2,0.1l-0.4-5c0.8-0.1,1.6-0.1,2.4-0.1c0,0,0,0,0,0c3.4,0,6.2,0.6,8.3,1.8L301.9,202.3z"/>
			</g>
			<g>
				<path fill="#FFFFFF" d="M233.4,239.7l-0.5-2.4l-0.5-2.5l0.1,0c0.4-0.1,1.7-1.7,2.3-5.9l5,0.7
					C238.9,235.4,236.6,239.1,233.4,239.7z M229,239c-2.7-1.4-5.3-4.6-7-8.5l4.6-2c1.2,2.8,3.1,5.2,4.7,6.1L229,239z M220.9,227.4
					c-0.5-1.7-0.7-3.4-0.7-5c0-2.3,0.5-4.4,1.5-6.2l4.4,2.5c-0.6,1-0.9,2.3-0.9,3.8c0,1.1,0.2,2.4,0.5,3.6L220.9,227.4z M240,226.6
					l-5-0.2c0-0.3,0-0.5,0-0.8c0-2.9-0.5-5.6-1.3-7.4l4.5-2.1c1.2,2.5,1.8,5.9,1.8,9.5C240,225.9,240,226.2,240,226.6z M227.3,217.2
					l-3.2-3.8c0.9-0.7,1.9-1.4,3.1-1.8c3.4-1.4,6.6-0.8,8.9,1.5l-3.6,3.5c-0.9-0.9-2-1-3.5-0.4C228.4,216.4,227.8,216.8,227.3,217.2
					z"/>
			</g>
			<g>
				<path fill="#FFFFFF" d="M260.8,325.8h-0.2v-5h0.2c2.8,0,5.8-0.6,8.8-1.8l1.9,4.6C267.8,325.1,264.2,325.8,260.8,325.8z
					 M257.3,325.6c-3.4-0.3-6.9-1.1-10.4-2.4l1.7-4.7c3.1,1.1,6.1,1.8,9.1,2.1L257.3,325.6z M274.4,322.2l-2.3-4.4
					c2.7-1.4,5.3-3.2,7.6-5.4l3.4,3.6C280.5,318.5,277.6,320.6,274.4,322.2z M244,322.1c-3.1-1.4-6.2-3.1-9.1-5.2l2.9-4.1
					c2.7,1.9,5.5,3.5,8.3,4.7L244,322.1z M232.3,315c-2.7-2.1-5.3-4.6-7.6-7.2l3.7-3.3c2.1,2.4,4.5,4.6,7,6.6L232.3,315z
					 M285.4,313.7l-3.7-3.3c2.1-2.4,3.9-5,5.1-7.7l4.5,2.1C289.9,308,287.9,311,285.4,313.7z M260.7,310.3l-0.4-5
					c2.3-0.2,3.9-1.8,4.4-4.4l4.9,0.9C268.8,306.6,265.3,309.9,260.7,310.3z M256.9,309.9c-1.8-0.5-3.6-1.4-5.2-2.7
					c-1.8-1.3-3.1-2.6-4.1-4l4-3c0.7,1,1.8,2,3.2,3c1.2,0.9,2.4,1.5,3.5,1.8L256.9,309.9z M222.7,305.4c-2.2-2.8-4.2-5.7-5.8-8.7
					l4.4-2.4c1.5,2.7,3.3,5.4,5.3,8L222.7,305.4z M292.6,301.7l-4.7-1.6c0.4-1.2,0.7-2.4,1-3.6c0-0.3,0.1-0.5,0.1-0.7
					c0-0.8-0.3-1.4-1.1-1.9l2.8-4.2c2.1,1.4,3.3,3.6,3.3,6c0,0.5-0.1,1.1-0.2,1.7C293.4,298.9,293.1,300.3,292.6,301.7z
					 M245.7,299.8c-0.3-0.9-0.5-1.8-0.5-2.8c0-2.9,1.4-5.7,4.4-8.6l3.5,3.6c-2,1.9-2.9,3.6-2.9,5.1c0,0.4,0.1,0.8,0.2,1.2
					L245.7,299.8z M264.8,298.5c0-0.2,0-0.4-0.1-0.6c0-0.3,0-0.5,0-0.7c0-3.3,2.8-6.1,8-8l1.7,4.7c-3.2,1.1-4.7,2.6-4.7,3.3
					c0,0.3,0.1,0.6,0.1,0.9L264.8,298.5z M215.4,293.9c-1.6-3.4-2.7-6.7-3.4-10l4.9-1c0.6,2.9,1.6,5.9,3,8.9L215.4,293.9z
					 M277,293.3l-1.1-4.9c3.9-0.9,8-0.9,11.1-0.2l-1.2,4.8C283.5,292.5,280.2,292.6,277,293.3z M255.2,290.2l-3.1-3.9
					c2.6-2.1,5.8-4.1,8.5-5.9l2.7,4.2C260.6,286.3,257.6,288.2,255.2,290.2z M265.8,283l-2.6-4.3l0.7-0.5c2.5-1.6,5.2-3.2,7.7-4.9
					l2.8,4.2c-2.6,1.7-5.3,3.4-7.8,5L265.8,283z M211.5,280.6c-0.2-1.3-0.2-2.6-0.2-3.9c0-2.2,0.2-4.3,0.7-6.3
					c0-0.2,0.1-0.4,0.1-0.6l4.9,1.2c0,0.2-0.1,0.3-0.1,0.5c-0.4,1.7-0.6,3.4-0.6,5.2c0,1.1,0.1,2.2,0.2,3.3L211.5,280.6z M277,275.9
					l-2.9-4.1c3.1-2.2,5.5-4.2,7.3-6.1l3.6,3.5C282.9,271.3,280.3,273.5,277,275.9z M217.8,268.3l-4.7-1.7c1.2-3.3,3-6.5,5.4-9.4
					l3.9,3.2C220.3,262.9,218.8,265.6,217.8,268.3z M287.1,266.6l-4-3.1c2-2.6,3.1-5.1,3.2-7.7l5,0.3
					C291.2,259.7,289.8,263.2,287.1,266.6z M224.2,258.4l-3.6-3.5c2.4-2.4,5.2-4.6,8.3-6.6l2.7,4.2
					C228.8,254.3,226.3,256.2,224.2,258.4z M286.3,253.4l0-0.1c-0.4-2.4-1.9-4.4-4.5-6l2.7-4.2c3.8,2.4,6.1,5.6,6.8,9.4l0,0.2
					L286.3,253.4z M234.1,251l-2.4-4.4c2.9-1.6,6.2-3,9.6-4.2l1.7,4.7C239.8,248.2,236.8,249.6,234.1,251z M245.7,246.2l-1.4-4.8
					c3.3-1,6.7-1.8,10.1-2.3l0.8,4.9C251.9,244.6,248.7,245.3,245.7,246.2z M279.5,246c-2.5-1.1-5.5-1.9-9-2.3l0.6-5
					c4,0.5,7.5,1.4,10.4,2.6L279.5,246z M258,243.7l-0.5-5c3.6-0.4,7.1-0.5,10.4-0.3l-0.3,5C264.6,243.3,261.3,243.4,258,243.7z"/>
			</g>
			<g>
				<path fill="#FFFFFF" d="M218.4,252l-2-4.6l0,0c0.2-0.1,0.8-1.2,0.8-4c0-1-0.1-2.1-0.3-3.3l4.9-0.8c0.2,1.4,0.4,2.8,0.4,4.1
					C222.2,247.9,220.8,250.9,218.4,252z M213.3,251.9c-3.3-1.3-6.7-4.7-8.7-8.7l4.5-2.3c1.4,2.9,3.9,5.5,6.1,6.3L213.3,251.9z
					 M203.2,239.7c-0.3-1.1-0.4-2.2-0.4-3.3c0-3.5,1.5-6.4,4.5-8.4c0.2-0.1,0.3-0.2,0.5-0.3l2.6,4.3c-0.1,0.1-0.2,0.1-0.3,0.2
					c-1.5,1.1-2.3,2.5-2.3,4.3c0,0.6,0.1,1.3,0.3,2.1L203.2,239.7z M216.3,237.4c-1.1-3.5-2.8-5.9-4.3-6l0.3-5
					c3.8,0.3,7,3.7,8.8,9.5L216.3,237.4z"/>
			</g>
		</g>
	</g>
	<g display="none">
		<g display="inline">
			<g>
				<rect x="53.5" y="25.3" fill="#FFFFFF" width="3" height="461.4"/>
			</g>
			<g>
				<rect x="90" y="25.3" fill="#FFFFFF" width="3" height="461.4"/>
			</g>
			<g>
				<rect x="126.6" y="25.3" fill="#FFFFFF" width="3" height="461.4"/>
			</g>
			<g>
				<rect x="163.1" y="25.3" fill="#FFFFFF" width="3" height="461.4"/>
			</g>
			<g>
				<rect x="199.7" y="25.3" fill="#FFFFFF" width="3" height="461.4"/>
			</g>
			<g>
				<rect x="236.2" y="25.3" fill="#FFFFFF" width="3" height="461.4"/>
			</g>
			<g>
				<rect x="272.8" y="25.3" fill="#FFFFFF" width="3" height="461.4"/>
			</g>
			<g>
				<rect x="309.3" y="25.3" fill="#FFFFFF" width="3" height="461.4"/>
			</g>
			<g>
				<rect x="345.9" y="25.3" fill="#FFFFFF" width="3" height="461.4"/>
			</g>
			<g>
				<rect x="382.4" y="25.3" fill="#FFFFFF" width="3" height="461.4"/>
			</g>
			<g>
				<rect x="419" y="25.3" fill="#FFFFFF" width="3" height="461.4"/>
			</g>
			<g>
				<rect x="455.5" y="25.3" fill="#FFFFFF" width="3" height="461.4"/>
			</g>
		</g>
		<g display="inline">
			<g>
				<rect x="25.3" y="455.5" fill="#FFFFFF" width="461.4" height="3"/>
			</g>
			<g>
				<rect x="25.3" y="419" fill="#FFFFFF" width="461.4" height="3"/>
			</g>
			<g>
				<rect x="25.3" y="382.4" fill="#FFFFFF" width="461.4" height="3"/>
			</g>
			<g>
				<rect x="25.3" y="345.9" fill="#FFFFFF" width="461.4" height="3"/>
			</g>
			<g>
				<rect x="25.3" y="309.3" fill="#FFFFFF" width="461.4" height="3"/>
			</g>
			<g>
				<rect x="25.3" y="272.8" fill="#FFFFFF" width="461.4" height="3"/>
			</g>
			<g>
				<rect x="25.3" y="236.2" fill="#FFFFFF" width="461.4" height="3"/>
			</g>
			<g>
				<rect x="25.3" y="199.7" fill="#FFFFFF" width="461.4" height="3"/>
			</g>
			<g>
				<rect x="25.3" y="163.1" fill="#FFFFFF" width="461.4" height="3"/>
			</g>
			<g>
				<rect x="25.3" y="126.6" fill="#FFFFFF" width="461.4" height="3"/>
			</g>
			<g>
				<rect x="25.3" y="90" fill="#FFFFFF" width="461.4" height="3"/>
			</g>
			<g>
				<rect x="25.3" y="53.5" fill="#FFFFFF" width="461.4" height="3"/>
			</g>
		</g>
	</g>
</g>
</svg>
