<?xml version="1.0" encoding="utf-8"?>
<!-- Generator: Adobe Illustrator 18.0.0, SVG Export Plug-In . SVG Version: 6.00 Build 0)  -->
<!DOCTYPE svg PUBLIC "-//W3C//DTD SVG 1.1//EN" "http://www.w3.org/Graphics/SVG/1.1/DTD/svg11.dtd">
<svg version="1.1" id="Layer_3" xmlns="http://www.w3.org/2000/svg" xmlns:xlink="http://www.w3.org/1999/xlink" x="0px" y="0px"
	 viewBox="0 0 512 512" enable-background="new 0 0 512 512" xml:space="preserve">
<g>
	<g opacity="0.4" enable-background="new    ">
		
			<radialGradient id="SVGID_1_" cx="1.0125" cy="515" r="118.8609" gradientTransform="matrix(2 0 0 -2 254 1286)" gradientUnits="userSpaceOnUse">
			<stop  offset="0" style="stop-color:#010101"/>
			<stop  offset="0.8587" style="stop-color:#010101;stop-opacity:0.1413"/>
			<stop  offset="1" style="stop-color:#010101;stop-opacity:0"/>
		</radialGradient>
		<path fill="url(#SVGID_1_)" d="M449,449c-59.7,59.7-326.2,59.7-385.9,0S3.4,122.7,63,63s326.3-59.6,386,0S508.6,389.3,449,449z"/>
	</g>
	<g opacity="0.4" enable-background="new    ">
		
			<radialGradient id="SVGID_2_" cx="2.0286" cy="516.0684" r="133.1551" gradientTransform="matrix(1.4138 -1.4146 -0.979 -0.9784 758.388 763.7472)" gradientUnits="userSpaceOnUse">
			<stop  offset="0" style="stop-color:#010101"/>
			<stop  offset="0.8587" style="stop-color:#010101;stop-opacity:0.1413"/>
			<stop  offset="1" style="stop-color:#010101;stop-opacity:0"/>
		</radialGradient>
		<path fill="url(#SVGID_2_)" d="M449,449c-59.7,59.7-326.2,59.7-385.9,0S3.4,122.7,63,63s326.3-59.6,386,0S508.6,389.3,449,449z"/>
	</g>
	<g opacity="0.4" enable-background="new    ">
		
			<radialGradient id="SVGID_3_" cx="3.4424" cy="513.9732" r="133.1784" gradientTransform="matrix(-1.4138 -1.4146 0.979 -0.9784 -242.3879 763.7472)" gradientUnits="userSpaceOnUse">
			<stop  offset="0" style="stop-color:#010101"/>
			<stop  offset="0.8587" style="stop-color:#010101;stop-opacity:0.1413"/>
			<stop  offset="1" style="stop-color:#010101;stop-opacity:0"/>
		</radialGradient>
		<path fill="url(#SVGID_3_)" d="M63,449c59.7,59.7,326.2,59.7,385.9,0s59.7-326.2,0-385.9S122.7,3.4,63,63S3.4,389.3,63,449z"/>
	</g>
</g>
<linearGradient id="SVGID_4_" gradientUnits="userSpaceOnUse" x1="26" y1="256" x2="486" y2="256">
	<stop  offset="0" style="stop-color:#F7F7F7"/>
	<stop  offset="1" style="stop-color:#F7F7F7"/>
</linearGradient>
<path fill="url(#SVGID_4_)" d="M433.3,433.3c-70.3,70.3-284.3,70.3-354.6,0S8.4,149,78.7,78.7s284.3-70.3,354.6,0
	S503.6,363,433.3,433.3z"/>
<path opacity="0.7" fill="#FFFFFF" enable-background="new    " d="M256,144.7c71.1,0,142.1-17.6,177.3-52.7
	c2.1-2.1,4.1-4.3,6.1-6.6c-2-2.3-4-4.5-6.1-6.6c-4.1-4.1-8.8-8-13.8-11.7c-1.7,2.1-3.5,4-5.2,5.8c-13.4,13.4-35.3,24.7-63.4,32.7
	c-28.1,8-60.9,12.2-94.8,12.2s-66.7-4.2-94.8-12.2c-28.1-7.9-50-19.2-63.4-32.7c-1.8-1.8-3.5-3.7-5.2-5.8
	c-5.1,3.6-9.7,7.5-13.9,11.7c-2.1,2.1-4.1,4.3-6.1,6.6c2,2.3,4,4.5,6.1,6.6C113.9,127.1,184.9,144.7,256,144.7z"/>
<g>
	<path fill="#6B4D2C" d="M412.9,412.9c-62.2,62.2-251.6,62.2-313.8,0C63,376.8,47.8,297.8,53.6,225.8c0,0,91,41.2,200,41.2
		c173.2,0,205.1-35.4,205.1-35.4C463.3,302.1,448,377.8,412.9,412.9z"/>
	<path fill="#543A17" d="M412.9,412.9c-62.2,62.2-251.6,62.2-313.8,0C63,376.8,47.8,297.8,53.6,225.8c0,0,65.2-93.6,200,41.2
		c108.9,108.9,205.1-35.4,205.1-35.4C463.3,302.1,448,377.8,412.9,412.9z"/>
</g>
<g>
	<path opacity="0.95" fill="#149E49" enable-background="new    " d="M335.4,335.4c-24.6,24.6-134.2,24.6-158.8,0
		c-24.6-24.6-24.6-134.2,0-158.8s134.2-24.6,158.8,0C359.9,201.2,359.9,310.8,335.4,335.4z"/>
	<g opacity="0.95" enable-background="new    ">
		<path fill="#FFFFFF" d="M253.6,345C253.6,345,253.6,345,253.6,345c-2.9,0-5.9-0.1-8.7-0.2c-1.2-0.1-2.1-1.1-2.1-2.3
			c0.1-1.2,1.1-2.2,2.3-2.1c2.8,0.1,5.7,0.2,8.6,0.2c1.2,0,2.2,1,2.2,2.2C255.8,344,254.8,345,253.6,345z M264,344.9
			c-1.2,0-2.2-0.9-2.2-2.1c0-1.2,0.9-2.2,2.1-2.3c2.9-0.1,5.8-0.2,8.5-0.4c1.2-0.1,2.3,0.8,2.3,2c0.1,1.2-0.8,2.3-2,2.3
			C269.9,344.6,267,344.8,264,344.9C264,344.9,264,344.9,264,344.9z M234.6,344.1c-0.1,0-0.1,0-0.2,0c-3-0.3-5.9-0.6-8.7-1
			c-1.2-0.2-2-1.3-1.9-2.5c0.2-1.2,1.3-2,2.5-1.9c2.7,0.4,5.6,0.7,8.5,1c1.2,0.1,2.1,1.2,2,2.4C236.7,343.2,235.7,344.1,234.6,344.1
			z M282.9,343.5c-1.1,0-2-0.8-2.2-1.9c-0.1-1.2,0.7-2.3,1.9-2.4c2.9-0.3,5.7-0.8,8.5-1.2c1.2-0.2,2.3,0.6,2.5,1.8
			c0.2,1.2-0.6,2.3-1.8,2.5c-2.8,0.5-5.7,0.9-8.7,1.2C283.1,343.5,283,343.5,282.9,343.5z M215.8,341.4c-0.1,0-0.3,0-0.4,0
			c-3-0.6-5.9-1.3-8.6-2c-1.2-0.3-1.9-1.5-1.5-2.7c0.3-1.2,1.5-1.9,2.7-1.5c2.6,0.7,5.4,1.4,8.3,1.9c1.2,0.2,2,1.4,1.7,2.6
			C217.7,340.7,216.8,341.4,215.8,341.4z M301.7,340.2c-1,0-1.9-0.7-2.1-1.7c-0.3-1.2,0.4-2.4,1.6-2.7c2.9-0.7,5.6-1.5,8.1-2.3
			c1.1-0.4,2.4,0.2,2.8,1.4c0.4,1.1-0.2,2.4-1.4,2.8c-2.6,0.9-5.5,1.7-8.5,2.5C302,340.1,301.8,340.2,301.7,340.2z M197.6,336.1
			c-0.3,0-0.6-0.1-0.8-0.2c-3.1-1.3-5.8-2.7-8-4.1c-1-0.7-1.3-2-0.6-3c0.7-1,2-1.3,3-0.6c2.1,1.3,4.5,2.6,7.3,3.8
			c1.1,0.5,1.7,1.7,1.2,2.9C199.2,335.6,198.4,336.1,197.6,336.1z M319.5,333.7c-0.8,0-1.5-0.4-1.9-1.1c-0.6-1.1-0.2-2.4,0.9-3
			c2.7-1.4,4.9-3,6.5-4.6c0.9-0.9,2.2-0.9,3.1,0c0.9,0.9,0.9,2.2,0,3.1c-1.9,1.9-4.5,3.8-7.5,5.4
			C320.2,333.6,319.8,333.7,319.5,333.7z M182.5,325c-0.7,0-1.4-0.3-1.8-1c-1.5-2.2-3-4.9-4.3-8c-0.5-1.1,0-2.4,1.2-2.9
			c1.1-0.5,2.4,0,2.9,1.2c1.2,2.8,2.5,5.2,3.9,7.2c0.7,1,0.4,2.4-0.6,3.1C183.4,324.9,182.9,325,182.5,325z M332.3,320.2
			c-0.3,0-0.7-0.1-1-0.2c-1.1-0.5-1.5-1.9-1-2.9c1.1-2.3,2.2-4.9,3.2-7.7c0.4-1.1,1.6-1.8,2.8-1.4c1.1,0.4,1.8,1.6,1.4,2.8
			c-1,3-2.2,5.8-3.4,8.3C333.9,319.8,333.1,320.2,332.3,320.2z M175,307.6c-1,0-1.8-0.6-2.1-1.6c-0.8-2.7-1.5-5.5-2.1-8.6
			c-0.2-1.2,0.5-2.3,1.7-2.6c1.2-0.2,2.3,0.5,2.6,1.7c0.6,2.9,1.3,5.7,2,8.2c0.3,1.2-0.3,2.4-1.5,2.7
			C175.4,307.6,175.2,307.6,175,307.6z M338.4,302.2c-0.2,0-0.3,0-0.5-0.1c-1.2-0.3-1.9-1.5-1.6-2.6c0.6-2.6,1.2-5.4,1.7-8.3
			c0.2-1.2,1.3-2,2.5-1.8c1.2,0.2,2,1.3,1.8,2.5c-0.5,3-1.1,5.9-1.7,8.6C340.3,301.6,339.4,302.2,338.4,302.2z M171.2,289
			c-1.1,0-2-0.8-2.2-1.9c-0.4-2.8-0.7-5.7-1-8.7c-0.1-1.2,0.8-2.3,2-2.4c1.2-0.1,2.3,0.8,2.4,2c0.3,2.9,0.6,5.8,1,8.5
			c0.2,1.2-0.7,2.3-1.9,2.5C171.4,289,171.3,289,171.2,289z M341.5,283.5c-0.1,0-0.2,0-0.2,0c-1.2-0.1-2.1-1.2-1.9-2.4
			c0.3-2.8,0.6-5.6,0.8-8.5c0.1-1.2,1.1-2.1,2.3-2c1.2,0.1,2.1,1.1,2,2.3c-0.2,2.9-0.5,5.9-0.8,8.7
			C343.5,282.7,342.6,283.5,341.5,283.5z M169.5,270.1c-1.2,0-2.1-0.9-2.2-2.1c-0.1-2.9-0.2-5.8-0.3-8.7c0-1.2,1-2.2,2.2-2.2
			c0,0,0,0,0,0c1.2,0,2.2,1,2.2,2.2c0,2.9,0.1,5.7,0.3,8.6c0.1,1.2-0.9,2.2-2.1,2.3C169.5,270.1,169.5,270.1,169.5,270.1z
			 M342.8,264.5C342.7,264.5,342.7,264.5,342.8,264.5c-1.3,0-2.2-1-2.2-2.3c0.1-2.1,0.1-4.2,0.1-6.3c0-0.8,0-1.5,0-2.3
			c0-1.2,1-2.2,2.2-2.2c0,0,0,0,0,0c1.2,0,2.2,1,2.2,2.2c0,0.8,0,1.6,0,2.3c0,2.1,0,4.3-0.1,6.4
			C344.9,263.6,343.9,264.5,342.8,264.5z M169.3,251C169.3,251,169.2,251,169.3,251c-1.3,0-2.2-1-2.2-2.3c0.1-2.9,0.2-5.8,0.4-8.7
			c0.1-1.2,1.1-2.1,2.3-2c1.2,0.1,2.1,1.1,2,2.3c-0.2,2.8-0.3,5.7-0.4,8.6C171.4,250.1,170.5,251,169.3,251z M342.5,245.5
			c-1.2,0-2.1-0.9-2.2-2.1c-0.2-2.9-0.4-5.8-0.6-8.5c-0.1-1.2,0.8-2.3,2-2.4c1.2-0.1,2.3,0.8,2.4,2c0.3,2.8,0.5,5.8,0.6,8.7
			c0.1,1.2-0.9,2.2-2.1,2.3C342.6,245.5,342.5,245.5,342.5,245.5z M170.6,232.1c-0.1,0-0.2,0-0.3,0c-1.2-0.1-2.1-1.2-1.9-2.4
			c0.3-3,0.7-5.9,1.2-8.7c0.2-1.2,1.3-2,2.5-1.8c1.2,0.2,2,1.3,1.8,2.5c-0.4,2.7-0.8,5.6-1.2,8.5
			C172.7,231.3,171.7,232.1,170.6,232.1z M340.7,226.6c-1.1,0-2-0.8-2.2-1.9c-0.4-2.9-0.9-5.7-1.4-8.4c-0.2-1.2,0.5-2.3,1.7-2.6
			c1.2-0.2,2.3,0.5,2.6,1.7c0.6,2.7,1,5.6,1.5,8.6c0.2,1.2-0.7,2.3-1.9,2.5C340.9,226.6,340.8,226.6,340.7,226.6z M173.8,213.3
			c-0.2,0-0.3,0-0.5-0.1c-1.2-0.3-1.9-1.5-1.6-2.6c0.7-3,1.5-5.9,2.4-8.5c0.4-1.2,1.6-1.8,2.8-1.4c1.2,0.4,1.8,1.6,1.4,2.8
			c-0.8,2.5-1.6,5.2-2.3,8.1C175.7,212.7,174.8,213.3,173.8,213.3z M336.8,208c-1,0-1.8-0.6-2.1-1.6c-0.8-2.9-1.8-5.5-2.8-7.9
			c-0.5-1.1,0.1-2.4,1.2-2.9c1.1-0.5,2.4,0.1,2.9,1.2c1,2.5,2,5.4,2.9,8.4c0.3,1.2-0.3,2.4-1.5,2.7C337.2,208,337,208,336.8,208z
			 M180.1,195.4c-0.3,0-0.7-0.1-1-0.2c-1.1-0.6-1.5-1.9-0.9-3c1.6-3,3.3-5.6,5.2-7.6c0.8-0.9,2.2-0.9,3.1-0.1
			c0.9,0.8,0.9,2.2,0.1,3.1c-1.6,1.7-3.1,3.9-4.5,6.6C181.7,195,180.9,195.4,180.1,195.4z M329,190.7c-0.7,0-1.3-0.3-1.8-0.9
			c-0.7-1-1.5-2-2.3-2.7c-0.9-0.9-2-1.8-3.3-2.7c-1-0.7-1.3-2.1-0.6-3.1c0.7-1,2.1-1.3,3.1-0.6c1.5,1,2.8,2.1,3.9,3.2
			c0.9,0.9,1.9,2,2.8,3.3c0.7,1,0.5,2.4-0.5,3.1C329.9,190.6,329.5,190.7,329,190.7z M193.3,182.3c-0.8,0-1.6-0.4-2-1.2
			c-0.6-1.1-0.1-2.4,0.9-3c2.4-1.3,5.2-2.4,8.2-3.5c1.1-0.4,2.4,0.2,2.8,1.3c0.4,1.1-0.2,2.4-1.3,2.8c-2.9,1-5.4,2.1-7.7,3.3
			C194,182.2,193.6,182.3,193.3,182.3z M313.7,180c-0.3,0-0.5-0.1-0.8-0.2c-2.4-1-5.1-1.9-8-2.7c-1.2-0.3-1.8-1.5-1.5-2.7
			s1.5-1.8,2.7-1.5c3,0.9,5.9,1.8,8.4,2.8c1.1,0.4,1.7,1.7,1.2,2.9C315.4,179.5,314.5,180,313.7,180z M211.2,176
			c-1,0-1.9-0.7-2.1-1.7c-0.3-1.2,0.4-2.4,1.6-2.6c2.7-0.6,5.6-1.2,8.6-1.8c1.2-0.2,2.3,0.6,2.5,1.8c0.2,1.2-0.6,2.3-1.8,2.5
			c-2.9,0.5-5.7,1.1-8.3,1.7C211.5,176,211.4,176,211.2,176z M295.4,174.8c-0.1,0-0.3,0-0.4,0c-2.7-0.5-5.5-1-8.4-1.4
			c-1.2-0.2-2-1.3-1.9-2.5c0.2-1.2,1.3-2,2.5-1.9c3,0.4,5.9,0.9,8.6,1.4c1.2,0.2,2,1.4,1.7,2.6C297.3,174.1,296.4,174.8,295.4,174.8
			z M229.9,172.8c-1.1,0-2-0.8-2.2-1.9c-0.1-1.2,0.7-2.3,1.9-2.4c2.8-0.3,5.8-0.6,8.7-0.8c1.2-0.1,2.3,0.8,2.3,2
			c0.1,1.2-0.8,2.3-2,2.3c-2.9,0.2-5.7,0.5-8.5,0.8C230.1,172.8,230,172.8,229.9,172.8z M276.5,172.2c-0.1,0-0.1,0-0.2,0
			c-2.8-0.2-5.7-0.4-8.5-0.6c-1.2-0.1-2.1-1.1-2.1-2.3c0.1-1.2,1.1-2.1,2.3-2.1c2.9,0.1,5.9,0.3,8.7,0.6c1.2,0.1,2.1,1.2,2,2.4
			C278.6,171.4,277.7,172.2,276.5,172.2z M248.9,171.5c-1.2,0-2.2-0.9-2.2-2.1c0-1.2,0.9-2.2,2.1-2.3c2.9-0.1,5.8-0.1,8.7-0.1
			c1.2,0,2.2,1,2.2,2.2c0,1.2-1,2.2-2.2,2.2c0,0,0,0,0,0C254.7,171.3,251.8,171.4,248.9,171.5C248.9,171.5,248.9,171.5,248.9,171.5z
			"/>
	</g>
	<path opacity="0.95" fill="#FFFFFF" enable-background="new    " d="M256,309.5c-29.5,0-53.5-24-53.5-53.5s24-53.5,53.5-53.5
		s53.5,24,53.5,53.5S285.5,309.5,256,309.5z M256,207.7c-26.6,0-48.3,21.7-48.3,48.3s21.7,48.3,48.3,48.3s48.3-21.7,48.3-48.3
		S282.6,207.7,256,207.7z"/>
	<circle opacity="0.95" fill="#FFFFFF" enable-background="new    " cx="256" cy="256" r="43.2"/>
</g>
</svg>
