<?xml version="1.0" encoding="utf-8"?>
<!-- Generator: Adobe Illustrator 18.0.0, SVG Export Plug-In . SVG Version: 6.00 Build 0)  -->
<!DOCTYPE svg PUBLIC "-//W3C//DTD SVG 1.1//EN" "http://www.w3.org/Graphics/SVG/1.1/DTD/svg11.dtd">
<svg version="1.1" id="Layer_2" xmlns="http://www.w3.org/2000/svg" xmlns:xlink="http://www.w3.org/1999/xlink" x="0px" y="0px"
	 viewBox="0 0 512 512" style="enable-background:new 0 0 512 512;" xml:space="preserve">
<g>
	<g>
		<g style="opacity:0.4;enable-background:new    ;">
			
				<radialGradient id="SVGID_1_" cx="256.525" cy="259.5" r="237.7344" gradientTransform="matrix(1 0 0 -1 -0.5 515.5)" gradientUnits="userSpaceOnUse">
				<stop  offset="0" style="stop-color:#010101"/>
				<stop  offset="0.8587" style="stop-color:#010101;stop-opacity:0.1413"/>
				<stop  offset="1" style="stop-color:#010101;stop-opacity:0"/>
			</radialGradient>
			<path style="fill:url(#SVGID_1_);" d="M449,449c-59.7,59.7-326.2,59.7-385.9,0S3.4,122.7,63,63s326.3-59.6,386,0
				S508.6,389.3,449,449z"/>
		</g>
		<g style="opacity:0.4;enable-background:new    ;">
			
				<radialGradient id="SVGID_2_" cx="258.0531" cy="261.0998" r="266.3242" gradientTransform="matrix(0.7069 -0.7073 -0.4895 -0.4892 201.4156 566.2072)" gradientUnits="userSpaceOnUse">
				<stop  offset="0" style="stop-color:#010101"/>
				<stop  offset="0.8587" style="stop-color:#010101;stop-opacity:0.1413"/>
				<stop  offset="1" style="stop-color:#010101;stop-opacity:0"/>
			</radialGradient>
			<path style="fill:url(#SVGID_2_);" d="M449,449c-59.7,59.7-326.2,59.7-385.9,0S3.4,122.7,63,63s326.3-59.6,386,0
				S508.6,389.3,449,449z"/>
		</g>
		<g style="opacity:0.4;enable-background:new    ;">
			
				<radialGradient id="SVGID_3_" cx="260.1738" cy="257.9314" r="266.3709" gradientTransform="matrix(-0.7069 -0.7073 0.4895 -0.4892 313.5844 566.2072)" gradientUnits="userSpaceOnUse">
				<stop  offset="0" style="stop-color:#010101"/>
				<stop  offset="0.8587" style="stop-color:#010101;stop-opacity:0.1413"/>
				<stop  offset="1" style="stop-color:#010101;stop-opacity:0"/>
			</radialGradient>
			<path style="fill:url(#SVGID_3_);" d="M63,449c59.7,59.7,326.2,59.7,385.9,0s59.7-326.2,0-385.9S122.7,3.4,63,63
				S3.4,389.3,63,449z"/>
		</g>
	</g>
	<path style="fill:#FFFFFF;" d="M433.3,433.3c-70.3,70.3-284.3,70.3-354.6,0S8.4,149,78.7,78.7s284.3-70.3,354.6,0
		S503.6,363,433.3,433.3z"/>
</g>
<g id="_x3C_Group_x3E_">
	<path style="opacity:0.4;" d="M78.7,433.3c70.3,70.3,284.3,70.3,354.6,0c34.1-34.1,51.6-101.9,52.7-170.8
		c-1-68.9-18.6-136.7-52.7-170.8C398.1,56.5,327.1,39,256,39S113.8,56.5,78.7,91.7C44.6,125.8,27.1,193.6,26,262.5
		C27.1,331.4,44.6,399.2,78.7,433.3z M92.8,105.8c14.3-14.3,37.2-26.2,66.5-34.4C188,63.3,221.5,59,256,59c34.5,0,68,4.3,96.7,12.4
		c29.2,8.3,52.2,20.2,66.5,34.4c14.3,14.3,26.2,37.2,34.4,66.5C461.7,201,466,234.5,466,269c0,34.5-4.3,68-12.4,96.7
		c-8.3,29.2-20.2,52.2-34.4,66.5c-14.3,14.3-37.2,26.2-66.5,34.4C324,474.7,290.5,479,256,479c-34.5,0-68-4.3-96.7-12.4
		c-29.2-8.3-52.2-20.2-66.5-34.4c-14.3-14.3-26.2-37.2-34.4-66.5C50.3,336.9,46,303.5,46,269c0-34.5,4.3-68,12.4-96.7
		C66.7,143.1,78.6,120.1,92.8,105.8z"/>
	<path style="fill:#FFFFFF;" d="M256,46c34.5,0,68,4.3,96.7,12.4c29.2,8.3,52.2,20.2,66.5,34.4c14.3,14.3,26.2,37.2,34.4,66.5
		C461.7,188,466,221.5,466,256c0,34.5-4.3,68-12.4,96.7c-8.3,29.2-20.2,52.2-34.4,66.5c-14.3,14.3-37.2,26.2-66.5,34.4
		C324,461.7,290.5,466,256,466s-68-4.3-96.7-12.4c-29.2-8.3-52.2-20.2-66.5-34.4c-14.3-14.3-26.2-37.2-34.4-66.5
		C50.3,323.9,46,290.5,46,256c0-34.5,4.3-68,12.4-96.7c8.3-29.2,20.2-52.2,34.4-66.5c14.3-14.3,37.2-26.2,66.5-34.4
		C188,50.3,221.5,46,256,46 M256,26c-71.1,0-142.1,17.6-177.3,52.7C8.4,149,8.4,363,78.7,433.3C113.8,468.4,184.9,486,256,486
		s142.1-17.6,177.3-52.7c70.3-70.3,70.3-284.3,0-354.6C398.1,43.5,327.1,26,256,26L256,26z"/>
	<g>
		<radialGradient id="SVGID_4_" cx="254" cy="236.6667" r="252.3388" gradientUnits="userSpaceOnUse">
			<stop  offset="0" style="stop-color:#F2FFAA"/>
			<stop  offset="1" style="stop-color:#0087BF"/>
		</radialGradient>
		<path style="fill:url(#SVGID_4_);" d="M433.3,433.3c-70.3,70.3-284.3,70.3-354.6,0S8.4,149,78.7,78.7s284.3-70.3,354.6,0
			S503.6,363,433.3,433.3z"/>
		<g>
			<polygon style="fill:#5BC3B7;" points="180.4,424.4 205.7,380.6 143.1,272.2 95.4,354.8 107.4,375.5 129.8,336.7 			"/>
			<polygon style="fill:#5BC3B7;" points="357.4,379.7 312.5,301.9 269.4,376.6 314.3,454.3 			"/>
			<g>
				<path style="fill:#66D3C3;" d="M238.7,323.4l-58.3,101l34.4,59.6c27.1,2.7,55.3,2.7,82.4,0l17.1-29.6L238.7,323.4z"/>
			</g>
			<path style="fill:#27AE61;" d="M107.4,375.5L107.4,375.5L107.4,375.5L107.4,375.5l-12-20.7l-28.5-49.4l-28.6,49.6
				c8.3,30.7,20.8,57.2,37.5,75.3L107.4,375.5z"/>
			<path style="fill:#51D88B;" d="M211.1,477.6l-30.7-53.2l-50.6-87.6l-22.4,38.8l0,0l-31.6,54.7c1,1,1.9,2.1,2.9,3
				c28.3,28.3,79.9,45.2,136.1,50.7l-1.3-2.3L211.1,477.6z"/>
			<path style="fill:#1BBC9B;" d="M402,395.8L375,349.2l-17.6,30.6l-43.1,74.6l0,0l0,0L297.2,484c21-2.1,41.4-5.7,60.2-11l26.9-46.6
				L402,395.8z"/>
			<path style="fill:#27AE61;" d="M402,395.8L402,395.8L402,395.8l-17.6,30.6L357.4,473c31.3-8.8,58.2-22,75.9-39.7
				c20.2-20.2,34.6-52.3,43.2-89.4l-22.2-38.5L402,395.8z"/>
		</g>
		<circle style="fill:#F9B800;" cx="256" cy="240" r="47.2"/>
	</g>
</g>
<g style="opacity:0.1;">
	<circle cx="256" cy="277.7" r="41.3"/>
	<path d="M355.3,206.6h-44.5c-3.9,0-7.1-3.2-7.1-7.1v-4.6c0-9.8-7.9-17.7-17.7-17.7h-60.1c-9.8,0-17.7,7.9-17.7,17.7v4.6
		c0,3.9-3.2,7.1-7.1,7.1h-44.5c-9.8,0-17.7,7.9-17.7,17.7v106.8c0,9.8,7.9,17.7,17.7,17.7h198.7c9.8,0,17.7-7.9,17.7-17.7V224.3
		C373,214.5,365.1,206.6,355.3,206.6z M256,329.6c-28.6,0-51.9-23.3-51.9-51.9c0-28.6,23.3-51.9,51.9-51.9
		c28.6,0,51.9,23.3,51.9,51.9C307.9,306.3,284.6,329.6,256,329.6z"/>
</g>
<g style="opacity:0.95;">
	<circle style="opacity:0.8;fill:#FFFFFF;" cx="256" cy="270.7" r="41.3"/>
	<path style="opacity:0.8;fill:#FFFFFF;" d="M355.3,199.6h-44.5c-3.9,0-7.1-3.2-7.1-7.1v-4.6c0-9.8-7.9-17.7-17.7-17.7h-60.1
		c-9.8,0-17.7,7.9-17.7,17.7v4.6c0,3.9-3.2,7.1-7.1,7.1h-44.5c-9.8,0-17.7,7.9-17.7,17.7v106.8c0,9.8,7.9,17.7,17.7,17.7h198.7
		c9.8,0,17.7-7.9,17.7-17.7V217.3C373,207.5,365.1,199.6,355.3,199.6z M256,322.6c-28.6,0-51.9-23.3-51.9-51.9
		c0-28.6,23.3-51.9,51.9-51.9c28.6,0,51.9,23.3,51.9,51.9C307.9,299.3,284.6,322.6,256,322.6z"/>
</g>
</svg>
