<?xml version="1.0" encoding="UTF-8" standalone="no"?>
<svg
   xmlns:dc="http://purl.org/dc/elements/1.1/"
   xmlns:cc="http://creativecommons.org/ns#"
   xmlns:rdf="http://www.w3.org/1999/02/22-rdf-syntax-ns#"
   xmlns:svg="http://www.w3.org/2000/svg"
   xmlns="http://www.w3.org/2000/svg"
   viewBox="0 0 640 640"
   height="640"
   width="640"
   xml:space="preserve"
   version="1.1"
   id="svg2"><metadata
     id="metadata8"><rdf:RDF><cc:Work
         rdf:about=""><dc:format>image/svg+xml</dc:format><dc:type
           rdf:resource="http://purl.org/dc/dcmitype/StillImage" /></cc:Work></rdf:RDF></metadata><defs
     id="defs6"><clipPath
       id="clipPath16"
       clipPathUnits="userSpaceOnUse"><path
         id="path18"
         d="M 0,512 512,512 512,0 0,0 0,512 Z" /></clipPath><clipPath
       id="clipPath24"
       clipPathUnits="userSpaceOnUse"><path
         id="path26"
         d="m 19.325,492.744 475.4,0 0,-475.4877 -475.4,0 0,475.4877 z" /></clipPath><clipPath
       id="clipPath28"
       clipPathUnits="userSpaceOnUse"><path
         id="path30"
         d="M 449.99,62.029 C 390.293,2.332 123.807,2.332 64.11,62.029 4.413,121.726 4.413,388.312 64.01,448.009 c 59.597,59.696 326.283,59.596 385.98,0 59.697,-59.597 59.597,-326.283 0,-385.98" /></clipPath><radialGradient
       id="radialGradient36"
       spreadMethod="pad"
       gradientTransform="matrix(237.72188,0,0,237.72188,257.02499,255)"
       gradientUnits="userSpaceOnUse"
       r="1"
       cy="0"
       cx="0"
       fy="0"
       fx="0"><stop
         id="stop38"
         offset="0"
         style="stop-opacity:1;stop-color:#ffffff" /><stop
         id="stop40"
         offset="0.8587"
         style="stop-opacity:0.14129854;stop-color:#ffffff" /><stop
         id="stop42"
         offset="1"
         style="stop-opacity:0;stop-color:#ffffff" /></radialGradient><mask
       id="mask44"
       height="1"
       width="1"
       y="0"
       x="0"
       maskUnits="userSpaceOnUse"><g
         id="g46"><g
           id="g48"><g
             id="g50"><g
               id="g52"><path
                 id="path54"
                 style="fill:url(#radialGradient36);stroke:none"
                 d="m -32768,32767 65535,0 0,-65535 -65535,0 0,65535 z" /></g></g></g></g></mask><radialGradient
       id="radialGradient56"
       spreadMethod="pad"
       gradientTransform="matrix(237.72188,0,0,237.72188,257.02499,255)"
       gradientUnits="userSpaceOnUse"
       r="1"
       cy="0"
       cx="0"
       fy="0"
       fx="0"><stop
         id="stop58"
         offset="0"
         style="stop-opacity:1;stop-color:#010101" /><stop
         id="stop60"
         offset="0.8587"
         style="stop-opacity:1;stop-color:#010101" /><stop
         id="stop62"
         offset="1"
         style="stop-opacity:1;stop-color:#010101" /></radialGradient><clipPath
       id="clipPath86"
       clipPathUnits="userSpaceOnUse"><path
         id="path88"
         d="m 19.325,492.744 475.4,0 0,-475.4877 -475.4,0 0,475.4877 z" /></clipPath><clipPath
       id="clipPath90"
       clipPathUnits="userSpaceOnUse"><path
         id="path92"
         d="M 449.99,62.029 C 390.293,2.332 123.807,2.332 64.11,62.029 4.413,121.726 4.413,388.312 64.01,448.009 c 59.597,59.696 326.283,59.596 385.98,0 59.697,-59.597 59.597,-326.283 0,-385.98" /></clipPath><radialGradient
       id="radialGradient98"
       spreadMethod="pad"
       gradientTransform="matrix(188.25467,188.36119,-130.35883,130.27895,257.02499,255.04376)"
       gradientUnits="userSpaceOnUse"
       r="1"
       cy="0"
       cx="0"
       fy="0"
       fx="0"><stop
         id="stop100"
         offset="0"
         style="stop-opacity:1;stop-color:#ffffff" /><stop
         id="stop102"
         offset="0.8587"
         style="stop-opacity:0.14129854;stop-color:#ffffff" /><stop
         id="stop104"
         offset="1"
         style="stop-opacity:0;stop-color:#ffffff" /></radialGradient><mask
       id="mask106"
       height="1"
       width="1"
       y="0"
       x="0"
       maskUnits="userSpaceOnUse"><g
         id="g108"><g
           id="g110"><g
             id="g112"><g
               id="g114"><path
                 id="path116"
                 style="fill:url(#radialGradient98);stroke:none"
                 d="m -32768,32767 65535,0 0,-65535 -65535,0 0,65535 z" /></g></g></g></g></mask><radialGradient
       id="radialGradient118"
       spreadMethod="pad"
       gradientTransform="matrix(188.25467,188.36119,-130.35883,130.27895,257.02499,255.04376)"
       gradientUnits="userSpaceOnUse"
       r="1"
       cy="0"
       cx="0"
       fy="0"
       fx="0"><stop
         id="stop120"
         offset="0"
         style="stop-opacity:1;stop-color:#010101" /><stop
         id="stop122"
         offset="0.8587"
         style="stop-opacity:1;stop-color:#010101" /><stop
         id="stop124"
         offset="1"
         style="stop-opacity:1;stop-color:#010101" /></radialGradient><clipPath
       id="clipPath148"
       clipPathUnits="userSpaceOnUse"><path
         id="path150"
         d="m 19.275,492.694 475.387,0 0,-475.4377 -475.387,0 0,475.4377 z" /></clipPath><clipPath
       id="clipPath152"
       clipPathUnits="userSpaceOnUse"><path
         id="path154"
         d="m 64.01,62.029 c 59.697,-59.697 326.183,-59.697 385.88,0 59.697,59.697 59.697,326.183 0,385.88 -59.697,59.696 -326.183,59.696 -385.88,0.1 -59.697,-59.597 -59.597,-326.283 0,-385.98" /></clipPath><radialGradient
       id="radialGradient160"
       spreadMethod="pad"
       gradientTransform="matrix(-188.28767,188.39421,130.38168,130.30179,256.92499,254.99377)"
       gradientUnits="userSpaceOnUse"
       r="1"
       cy="0"
       cx="0"
       fy="0"
       fx="0"><stop
         id="stop162"
         offset="0"
         style="stop-opacity:1;stop-color:#ffffff" /><stop
         id="stop164"
         offset="0.8587"
         style="stop-opacity:0.14129854;stop-color:#ffffff" /><stop
         id="stop166"
         offset="1"
         style="stop-opacity:0;stop-color:#ffffff" /></radialGradient><mask
       id="mask168"
       height="1"
       width="1"
       y="0"
       x="0"
       maskUnits="userSpaceOnUse"><g
         id="g170"><g
           id="g172"><g
             id="g174"><g
               id="g176"><path
                 id="path178"
                 style="fill:url(#radialGradient160);stroke:none"
                 d="m -32768,32767 65535,0 0,-65535 -65535,0 0,65535 z" /></g></g></g></g></mask><radialGradient
       id="radialGradient180"
       spreadMethod="pad"
       gradientTransform="matrix(-188.28767,188.39421,130.38168,130.30179,256.92499,254.99377)"
       gradientUnits="userSpaceOnUse"
       r="1"
       cy="0"
       cx="0"
       fy="0"
       fx="0"><stop
         id="stop182"
         offset="0"
         style="stop-opacity:1;stop-color:#010101" /><stop
         id="stop184"
         offset="0.8587"
         style="stop-opacity:1;stop-color:#010101" /><stop
         id="stop186"
         offset="1"
         style="stop-opacity:1;stop-color:#010101" /></radialGradient><radialGradient
       id="radialGradient222"
       spreadMethod="pad"
       gradientTransform="matrix(309.91391,0,0,317.08755,258.99997,306.99954)"
       gradientUnits="userSpaceOnUse"
       r="1"
       cy="0"
       cx="0"
       fy="0"
       fx="0"><stop
         id="stop224"
         offset="0"
         style="stop-opacity:1;stop-color:#fce071" /><stop
         id="stop226"
         offset="0.669753"
         style="stop-opacity:1;stop-color:#ffc519" /><stop
         id="stop228"
         offset="1"
         style="stop-opacity:1;stop-color:#d37828" /></radialGradient><clipPath
       id="clipPath236"
       clipPathUnits="userSpaceOnUse"><path
         id="path238"
         d="M 0,512 512,512 512,0 0,0 0,512 Z" /></clipPath><clipPath
       id="clipPath352"
       clipPathUnits="userSpaceOnUse"><path
         id="path354"
         d="M 78.719,435.889 C 46.723,405.476 29.225,346.55 26.425,285.249 l 0,0 c 2.8,-53.034 20.298,-103.881 52.294,-130.112 l 0,0 c 70.293,-57.69 284.269,-57.69 354.562,0 l 0,0 c 31.996,26.326 49.494,77.174 52.294,130.112 l 0,0 c -2.8,61.301 -20.298,120.132 -52.294,150.64 l 0,0 C 398.134,469.296 327.067,486 256,486 l 0,0 C 184.933,486 113.866,469.296 78.719,435.889" /></clipPath><linearGradient
       id="linearGradient364"
       spreadMethod="pad"
       gradientTransform="matrix(0,374.1308,-374.1308,0,256,111.86916)"
       gradientUnits="userSpaceOnUse"
       y2="0"
       x2="1"
       y1="0"
       x1="0"><stop
         id="stop366"
         offset="0"
         style="stop-opacity:0.4;stop-color:#ffffff" /><stop
         id="stop368"
         offset="0.1029"
         style="stop-opacity:0.4;stop-color:#ffffff" /><stop
         id="stop370"
         offset="0.1541"
         style="stop-opacity:0.37720302;stop-color:#ffffff" /><stop
         id="stop372"
         offset="0.2469"
         style="stop-opacity:0.33579004;stop-color:#ffffff" /><stop
         id="stop374"
         offset="0.3453"
         style="stop-opacity:0.29188983;stop-color:#ffffff" /><stop
         id="stop376"
         offset="0.4485"
         style="stop-opacity:0.24589914;stop-color:#ffffff" /><stop
         id="stop378"
         offset="0.5581"
         style="stop-opacity:0.19699397;stop-color:#ffffff" /><stop
         id="stop380"
         offset="0.6772"
         style="stop-opacity:0.14389258;stop-color:#ffffff" /><stop
         id="stop382"
         offset="0.8126"
         style="stop-opacity:0.08354314;stop-color:#ffffff" /><stop
         id="stop384"
         offset="1"
         style="stop-opacity:0;stop-color:#ffffff" /></linearGradient><mask
       id="mask386"
       height="1"
       width="1"
       y="0"
       x="0"
       maskUnits="userSpaceOnUse"><g
         id="g388"><g
           id="g390"><g
             id="g392"><g
               id="g394"><path
                 id="path396"
                 style="fill:url(#linearGradient364);stroke:none"
                 d="m -32768,32767 65535,0 0,-65535 -65535,0 0,65535 z" /></g></g></g></g></mask><linearGradient
       id="linearGradient402"
       spreadMethod="pad"
       gradientTransform="matrix(0,374.1308,-374.1308,0,256,111.86916)"
       gradientUnits="userSpaceOnUse"
       y2="0"
       x2="1"
       y1="0"
       x1="0"><stop
         id="stop404"
         offset="0"
         style="stop-opacity:1;stop-color:#ffffff" /><stop
         id="stop406"
         offset="0.1029"
         style="stop-opacity:1;stop-color:#ffffff" /><stop
         id="stop408"
         offset="0.1541"
         style="stop-opacity:1;stop-color:#fef6e5" /><stop
         id="stop410"
         offset="0.2469"
         style="stop-opacity:1;stop-color:#fcebbc" /><stop
         id="stop412"
         offset="0.3453"
         style="stop-opacity:1;stop-color:#f9e097" /><stop
         id="stop414"
         offset="0.4485"
         style="stop-opacity:1;stop-color:#f8d97b" /><stop
         id="stop416"
         offset="0.5581"
         style="stop-opacity:1;stop-color:#f7d266" /><stop
         id="stop418"
         offset="0.6772"
         style="stop-opacity:1;stop-color:#f7ce57" /><stop
         id="stop420"
         offset="0.8126"
         style="stop-opacity:1;stop-color:#f7cc4d" /><stop
         id="stop422"
         offset="1"
         style="stop-opacity:1;stop-color:#f7cb4a" /></linearGradient></defs><g
     transform="matrix(1.25,0,0,-1.25,0,640)"
     id="g10"><g
       id="g12"><g
         clip-path="url(#clipPath16)"
         id="g14"><g
           id="g20"><g
             id="g22" /><g
             id="g64"><g
               style="opacity:0.39999402"
               id="g66"
               clip-path="url(#clipPath24)"><g
                 id="g68"><g
                   id="g70"
                   clip-path="url(#clipPath28)"><g
                     id="g72"><g
                       id="g74" /><g
                       id="g76"
                       mask="url(#mask44)"><g
                         id="g78"><path
                           id="path80"
                           style="fill:url(#radialGradient56);stroke:none"
                           d="M 449.99,62.029 C 390.293,2.332 123.807,2.332 64.11,62.029 4.413,121.726 4.413,388.312 64.01,448.009 c 59.597,59.696 326.283,59.596 385.98,0 59.697,-59.597 59.597,-326.283 0,-385.98" /></g></g></g></g></g></g></g></g><g
           id="g82"><g
             id="g84" /><g
             id="g126"><g
               style="opacity:0.39999402"
               id="g128"
               clip-path="url(#clipPath86)"><g
                 id="g130"><g
                   id="g132"
                   clip-path="url(#clipPath90)"><g
                     id="g134"><g
                       id="g136" /><g
                       id="g138"
                       mask="url(#mask106)"><g
                         id="g140"><path
                           id="path142"
                           style="fill:url(#radialGradient118);stroke:none"
                           d="M 449.99,62.029 C 390.293,2.332 123.807,2.332 64.11,62.029 4.413,121.726 4.413,388.312 64.01,448.009 c 59.597,59.696 326.283,59.596 385.98,0 59.697,-59.597 59.597,-326.283 0,-385.98" /></g></g></g></g></g></g></g></g><g
           id="g144"><g
             id="g146" /><g
             id="g188"><g
               style="opacity:0.39999402"
               id="g190"
               clip-path="url(#clipPath148)"><g
                 id="g192"><g
                   id="g194"
                   clip-path="url(#clipPath152)"><g
                     id="g196"><g
                       id="g198" /><g
                       id="g200"
                       mask="url(#mask168)"><g
                         id="g202"><path
                           id="path204"
                           style="fill:url(#radialGradient180);stroke:none"
                           d="m 64.01,62.029 c 59.697,-59.697 326.183,-59.697 385.88,0 59.697,59.697 59.697,326.183 0,385.88 -59.697,59.696 -326.183,59.696 -385.88,0.1 -59.697,-59.597 -59.597,-326.283 0,-385.98" /></g></g></g></g></g></g></g></g><g
           transform="translate(433.2807,78.7193)"
           id="g206"><path
             id="path208"
             style="fill:#d3d3d3;fill-opacity:1;fill-rule:nonzero;stroke:none"
             d="m 0,0 c -70.292,-70.292 -284.269,-70.292 -354.561,0 -70.293,70.292 -70.293,284.269 0,354.561 70.292,70.293 284.269,70.293 354.561,0 C 70.292,284.269 70.292,70.292 0,0" /></g></g></g><g
       id="g210"><g
         id="g212"><g
           id="g218"><g
             id="g220"><path
               id="path230"
               style="fill:url(#radialGradient222);stroke:none"
               d="M 78.719,433.281 C 8.427,362.988 8.427,149.012 78.719,78.719 l 0,0 c 70.293,-70.292 284.269,-70.292 354.562,0 l 0,0 c 70.292,70.293 70.292,284.269 0,354.562 l 0,0 C 398.134,468.427 327.067,486 256,486 l 0,0 C 184.933,486 113.866,468.427 78.719,433.281" /></g></g></g></g><g
       id="g232"><g
         clip-path="url(#clipPath236)"
         id="g234"><g
           transform="translate(300.1952,407.8835)"
           id="g240"><path
             id="path242"
             style="fill:#f99d1b;fill-opacity:1;fill-rule:nonzero;stroke:none"
             d="m 0,0 c -2.9,27.097 -25.797,48.095 -53.594,48.095 -27.297,0 -49.795,-20.198 -53.394,-46.495 1.1,-1.9 1.799,-4 1.799,-6.399 0,-0.4 0,-0.9 -0.1,-1.3 -0.1,-0.7 -0.2,-1.4 -0.399,-2.1 6.199,-22.998 27.097,-39.996 52.094,-39.996 C -25.797,-48.095 -2.9,-27.097 0,0" /></g><g
           transform="translate(85.2186,351.5896)"
           id="g244"><path
             id="path246"
             style="fill:#f99d1b;fill-opacity:1;fill-rule:nonzero;stroke:none"
             d="m 0,0 c -17.098,0 -31.097,-12.899 -32.896,-29.497 1.799,-16.598 15.798,-29.497 32.896,-29.497 17.098,0 31.097,12.899 32.896,29.497 C 31.097,-12.899 17.098,0 0,0" /></g><g
           transform="translate(216.0044,116.1152)"
           id="g248"><path
             id="path250"
             style="fill:#f99d1b;fill-opacity:1;fill-rule:nonzero;stroke:none"
             d="m 0,0 c -20.698,0 -37.796,-15.698 -39.996,-35.896 2.2,-20.198 19.198,-35.896 39.996,-35.896 20.698,0 37.796,15.698 39.996,35.896 C 37.796,-15.698 20.698,0 0,0" /></g><g
           transform="translate(468.6769,140.8125)"
           id="g252"><path
             id="path254"
             style="fill:#f99d1b;fill-opacity:1;fill-rule:nonzero;stroke:none"
             d="m 0,0 -0.3,0 c -32.496,0 -59.294,-24.597 -62.693,-56.194 0.9,-7.899 3.2,-15.398 6.699,-22.197 7.799,4.899 14.898,10.398 20.798,16.298 C -20.398,-46.995 -8.599,-25.397 0,0" /></g><g
           transform="translate(182.708,412.6829)"
           id="g256"><path
             id="path258"
             style="fill:#f99d1b;fill-opacity:1;fill-rule:nonzero;stroke:none"
             d="m 0,0 c -6.299,0 -11.499,-4.799 -12.099,-10.899 0.7,-6.099 5.8,-10.899 12.099,-10.899 5.599,0 10.199,3.7 11.699,8.799 -0.6,2.4 -1.1,4.9 -1.4,7.4 C 8.099,-2.2 4.4,0 0,0" /></g><g
           transform="translate(331.3918,309.0942)"
           id="g260"><path
             id="path262"
             style="fill:#f99d1b;fill-opacity:1;fill-rule:nonzero;stroke:none"
             d="m 0,0 c -34.396,0 -62.693,-25.997 -66.293,-59.494 3.6,-33.396 31.897,-59.493 66.293,-59.493 34.396,0 62.693,25.997 66.293,59.493 C 62.693,-26.097 34.396,0 0,0" /></g><g
           transform="translate(65.4208,207.7053)"
           id="g264"><path
             id="path266"
             style="fill:#f99d1b;fill-opacity:1;fill-rule:nonzero;stroke:none"
             d="m 0,0 c -13.299,0 -25.097,-5.899 -33.096,-15.298 2.899,-20.498 7.399,-40.096 13.498,-57.894 5.899,-3 12.599,-4.7 19.698,-4.7 22.498,0 40.996,16.999 43.395,38.896 C 40.996,-17.098 22.498,0 0,0" /></g><g
           transform="translate(468.3769,326.2923)"
           id="g268"><path
             id="path270"
             style="fill:#f99d1b;fill-opacity:1;fill-rule:nonzero;stroke:none"
             d="M 0,0 C 4.4,0 8.499,0.9 12.399,2.4 8.299,23.097 2.4,42.395 -5.199,59.394 -19.998,57.094 -31.597,44.995 -33.196,29.897 -31.497,12.999 -17.298,0 0,0" /></g><g
           transform="translate(347.1901,405.7837)"
           id="g272"><path
             id="path274"
             style="fill:#f99d1b;fill-opacity:1;fill-rule:nonzero;stroke:none"
             d="m 0,0 c -10.299,0 -18.798,-7.799 -19.798,-17.798 1.1,-9.999 9.499,-17.798 19.798,-17.798 10.299,0 18.798,7.799 19.798,17.798 C 18.698,-7.799 10.199,0 0,0" /></g><g
           transform="translate(192.007,273.7981)"
           id="g276"><path
             id="path278"
             style="fill:#f99d1b;fill-opacity:1;fill-rule:nonzero;stroke:none"
             d="m 0,0 c 4.799,0 8.799,3.7 9.299,8.399 -0.5,4.7 -4.5,8.399 -9.299,8.399 -4.799,0 -8.799,-3.699 -9.299,-8.399 C -8.799,3.7 -4.799,0 0,0" /></g><g
           transform="translate(331.3918,109.8159)"
           id="g280"><path
             id="path282"
             style="fill:#f99d1b;fill-opacity:1;fill-rule:nonzero;stroke:none"
             d="m 0,0 c -4.799,0 -8.799,-3.7 -9.299,-8.399 0.5,-4.7 4.5,-8.399 9.299,-8.399 4.799,0 8.799,3.699 9.299,8.399 C 8.799,-3.6 4.799,0 0,0" /></g><g
           transform="translate(206.2054,208.0052)"
           id="g284"><path
             id="path286"
             style="fill:#f99d1b;fill-opacity:1;fill-rule:nonzero;stroke:none"
             d="m 0,0 c -1.1,10.099 -9.599,17.898 -19.998,17.898 -10.399,0 -18.898,-7.899 -19.998,-17.898 1.1,-10.099 9.599,-17.898 19.998,-17.898 C -9.599,-17.898 -1.1,-10.099 0,0" /></g><g
           transform="translate(246.601,455.9782)"
           id="g288"><path
             id="path290"
             style="fill:#f1b41c;fill-opacity:1;fill-rule:nonzero;stroke:none"
             d="m 0,0 c 27.797,0 50.694,-21.098 53.594,-48.095 0.2,1.9 0.3,3.9 0.3,5.8 0,29.796 -24.197,53.994 -53.994,53.994 -29.797,0 -53.994,-24.198 -53.994,-53.994 0,-1.2 0.1,-2.4 0.1,-3.6 0.1,-0.2 0.3,-0.4 0.4,-0.6 C -49.795,-20.198 -27.297,0 0,0" /></g><g
           transform="translate(85.2186,358.6888)"
           id="g292"><path
             id="path294"
             style="fill:#f1b41c;fill-opacity:1;fill-rule:nonzero;stroke:none"
             d="m 0,0 c -18.298,0 -33.096,-14.798 -33.096,-33.096 0,-1.2 0.1,-2.4 0.2,-3.6 1.799,16.598 15.798,29.497 32.896,29.497 17.098,0 31.097,-12.899 32.896,-29.497 0.1,1.2 0.2,2.4 0.2,3.6 C 33.096,-14.798 18.298,0 0,0" /></g><g
           transform="translate(216.0044,124.8143)"
           id="g296"><path
             id="path298"
             style="fill:#f1b41c;fill-opacity:1;fill-rule:nonzero;stroke:none"
             d="m 0,0 c -22.198,0 -40.196,-17.998 -40.196,-40.196 0,-1.499 0.1,-2.899 0.2,-4.299 2.2,20.198 19.198,35.896 39.996,35.896 20.698,0 37.796,-15.698 39.996,-35.896 0.2,1.4 0.2,2.9 0.2,4.299 C 40.196,-17.998 22.198,0 0,0" /></g><g
           transform="translate(468.3769,154.411)"
           id="g300"><path
             id="path302"
             style="fill:#f1b41c;fill-opacity:1;fill-rule:nonzero;stroke:none"
             d="m 0,0 c -34.796,0 -62.993,-28.197 -62.993,-62.993 0,-2.3 0.1,-4.6 0.4,-6.799 3.399,31.596 30.197,56.194 62.693,56.194 l 0.3,0 C 1.9,-9.199 3.3,-4.699 4.599,-0.2 3,-0.1 1.5,0 0,0" /></g><g
           transform="translate(182.708,412.6829)"
           id="g304"><path
             id="path306"
             style="fill:#f1b41c;fill-opacity:1;fill-rule:nonzero;stroke:none"
             d="m 0,0 c 4.3,0 8.099,-2.2 10.299,-5.599 0,0.3 -0.1,0.5 -0.1,0.8 -0.1,0.699 -0.1,1.499 -0.2,2.299 C 7.799,0.6 4.1,2.7 0,2.7 c -6.699,0 -12.199,-5.5 -12.199,-12.199 0,-0.4 0,-0.9 0.1,-1.3 C -11.499,-4.699 -6.299,0 0,0" /></g><g
           transform="translate(193.1069,409.4833)"
           id="g308"><path
             id="path310"
             style="fill:#f1b41c;fill-opacity:1;fill-rule:nonzero;stroke:none"
             d="m 0,0 c -0.1,0.2 -0.3,0.4 -0.4,0.6 0.1,-0.8 0.1,-1.5 0.2,-2.3 C -0.1,-1.1 0,-0.5 0,0" /></g><g
           transform="translate(193.2068,406.8836)"
           id="g312"><path
             id="path314"
             style="fill:#f1b41c;fill-opacity:1;fill-rule:nonzero;stroke:none"
             d="M 0,0 C 0.9,-1.5 1.5,-3.2 1.7,-4.999 1.7,-4.6 1.8,-4.1 1.8,-3.7 1.8,-1.4 1.1,0.8 0,2.7 -0.1,2.2 -0.2,1.6 -0.2,1.1 -0.2,0.7 -0.1,0.3 0,0" /></g><g
           transform="translate(331.3918,323.3926)"
           id="g316"><path
             id="path318"
             style="fill:#f1b41c;fill-opacity:1;fill-rule:nonzero;stroke:none"
             d="m 0,0 c -36.796,0 -66.693,-29.897 -66.693,-66.693 0,-2.399 0.1,-4.799 0.4,-7.199 3.6,33.396 31.897,59.494 66.293,59.494 34.396,0 62.693,-25.998 66.293,-59.494 0.3,2.4 0.4,4.8 0.4,7.199 C 66.693,-29.797 36.796,0 0,0" /></g><g
           transform="translate(65.4208,217.1042)"
           id="g320"><path
             id="path322"
             style="fill:#f1b41c;fill-opacity:1;fill-rule:nonzero;stroke:none"
             d="m 0,0 c -13.898,0 -26.197,-6.499 -34.196,-16.598 0.3,-2.7 0.7,-5.4 1.1,-8.099 7.999,9.299 19.897,15.298 33.096,15.298 22.498,0 40.996,-16.998 43.395,-38.896 0.2,1.5 0.3,3.1 0.3,4.7 C 43.595,-19.498 24.097,0 0,0" /></g><g
           transform="translate(463.1775,385.5859)"
           id="g324"><path
             id="path326"
             style="fill:#f1b41c;fill-opacity:1;fill-rule:nonzero;stroke:none"
             d="M 0,0 C -1,2.2 -2.1,4.4 -3.1,6.599 -17.498,2.9 -28.197,-10.199 -28.197,-25.797 c 0,-1.2 0.1,-2.4 0.2,-3.6 C -26.497,-14.398 -14.898,-2.3 0,0" /></g><g
           transform="translate(347.1901,405.7837)"
           id="g328"><path
             id="path330"
             style="fill:#f1b41c;fill-opacity:1;fill-rule:nonzero;stroke:none"
             d="m 0,0 c 10.299,0 18.798,-7.799 19.798,-17.798 0.1,0.7 0.1,1.4 0.1,2.2 C 19.898,-4.6 10.999,4.3 0,4.3 c -10.999,0 -19.898,-8.9 -19.898,-19.898 0,-0.7 0,-1.4 0.1,-2.2 C -18.798,-7.799 -10.299,0 0,0" /></g><g
           transform="translate(192.007,290.4962)"
           id="g332"><path
             id="path334"
             style="fill:#f1b41c;fill-opacity:1;fill-rule:nonzero;stroke:none"
             d="m 0,0 c 4.799,0 8.799,-3.7 9.299,-8.399 0,0.3 0.1,0.7 0.1,1 C 9.399,-1.9 4.6,2.5 -1,1.9 -4.2,1.5 -6.999,-0.6 -8.399,-3.5 c -0.8,-1.699 -1,-3.399 -0.8,-4.899 C -8.799,-3.6 -4.799,0 0,0" /></g><g
           transform="translate(330.2919,111.8157)"
           id="g336"><path
             id="path338"
             style="fill:#f1b41c;fill-opacity:1;fill-rule:nonzero;stroke:none"
             d="m 0,0 c -3.2,-0.4 -5.999,-2.5 -7.399,-5.399 -0.8,-1.7 -1,-3.4 -0.8,-4.9 0.5,4.7 4.499,8.399 9.299,8.399 4.799,0 8.799,-3.699 9.299,-8.399 0,0.3 0.1,0.7 0.1,1 C 10.499,-3.8 5.699,0.6 0,0" /></g><g
           transform="translate(186.2076,225.9033)"
           id="g340"><path
             id="path342"
             style="fill:#f1b41c;fill-opacity:1;fill-rule:nonzero;stroke:none"
             d="m 0,0 c 10.399,0 18.898,-7.899 19.998,-17.898 0.1,0.7 0.1,1.4 0.1,2.2 C 20.098,-4.599 11.099,4.4 0,4.4 c -11.099,0 -20.098,-8.999 -20.098,-20.098 0,-0.7 0,-1.5 0.1,-2.2 C -18.898,-7.799 -10.299,0 0,0" /></g><g
           transform="translate(193.0069,407.0835)"
           id="g344"><path
             id="path346"
             style="fill:#f1b41c;fill-opacity:1;fill-rule:nonzero;stroke:none"
             d="m 0,0 c 0.3,-2.5 0.8,-4.999 1.4,-7.399 0.2,0.7 0.3,1.4 0.4,2.1 C 1.7,-3.3 1,-1.6 0,0" /></g></g></g><g
       id="g348"><g
         clip-path="url(#clipPath352)"
         id="g350"><g
           id="g356"><g
             id="g358" /><g
             mask="url(#mask386)"
             id="g398"><g
               id="g400"><path
                 id="path424"
                 style="fill:url(#linearGradient402);stroke:none"
                 d="M 78.719,435.889 C 46.723,405.476 29.225,346.55 26.425,285.249 l 0,0 c 2.8,-53.034 20.298,-103.881 52.294,-130.112 l 0,0 c 70.293,-57.69 284.269,-57.69 354.562,0 l 0,0 c 31.996,26.326 49.494,77.174 52.294,130.112 l 0,0 c -2.8,61.301 -20.298,120.132 -52.294,150.64 l 0,0 C 398.134,469.296 327.067,486 256,486 l 0,0 C 184.933,486 113.866,469.296 78.719,435.889" /></g></g></g></g></g></g></svg>