<?xml version="1.0" encoding="utf-8"?>
<!-- Generator: Adobe Illustrator 18.0.0, SVG Export Plug-In . SVG Version: 6.00 Build 0)  -->
<!DOCTYPE svg PUBLIC "-//W3C//DTD SVG 1.1//EN" "http://www.w3.org/Graphics/SVG/1.1/DTD/svg11.dtd">
<svg version="1.1" id="Layer_1" xmlns="http://www.w3.org/2000/svg" xmlns:xlink="http://www.w3.org/1999/xlink" x="0px" y="0px"
	 viewBox="0 0 512 512" enable-background="new 0 0 512 512" xml:space="preserve">
<g>
	<g opacity="0.4" enable-background="new    ">
		
			<radialGradient id="SVGID_1_" cx="1.0125" cy="515" r="118.8609" gradientTransform="matrix(2 0 0 -2 254 1286)" gradientUnits="userSpaceOnUse">
			<stop  offset="0" style="stop-color:#020202"/>
			<stop  offset="0.8587" style="stop-color:#020202;stop-opacity:0.1413"/>
			<stop  offset="1" style="stop-color:#020202;stop-opacity:0"/>
		</radialGradient>
		<path fill="url(#SVGID_1_)" d="M449,449c-59.7,59.7-326.2,59.7-385.9,0S3.4,122.7,63,63s326.3-59.6,386,0S508.6,389.3,449,449z"/>
	</g>
	<g opacity="0.4" enable-background="new    ">
		
			<radialGradient id="SVGID_2_" cx="2.0286" cy="516.0684" r="133.1551" gradientTransform="matrix(1.4138 -1.4146 -0.979 -0.9784 758.388 763.7472)" gradientUnits="userSpaceOnUse">
			<stop  offset="0" style="stop-color:#020202"/>
			<stop  offset="0.8587" style="stop-color:#020202;stop-opacity:0.1413"/>
			<stop  offset="1" style="stop-color:#020202;stop-opacity:0"/>
		</radialGradient>
		<path fill="url(#SVGID_2_)" d="M449,449c-59.7,59.7-326.2,59.7-385.9,0S3.4,122.7,63,63s326.3-59.6,386,0S508.6,389.3,449,449z"/>
	</g>
	<g opacity="0.4" enable-background="new    ">
		
			<radialGradient id="SVGID_3_" cx="3.4424" cy="513.9732" r="133.1784" gradientTransform="matrix(-1.4138 -1.4146 0.979 -0.9784 -242.3879 763.7472)" gradientUnits="userSpaceOnUse">
			<stop  offset="0" style="stop-color:#020202"/>
			<stop  offset="0.8587" style="stop-color:#020202;stop-opacity:0.1413"/>
			<stop  offset="1" style="stop-color:#020202;stop-opacity:0"/>
		</radialGradient>
		<path fill="url(#SVGID_3_)" d="M63,449c59.7,59.7,326.2,59.7,385.9,0s59.7-326.2,0-385.9S122.7,3.4,63,63S3.4,389.3,63,449z"/>
	</g>
</g>
<g>
	<g>
		<g opacity="0.4" enable-background="new    ">
			<path fill="#FFFFFF" d="M442.7,442.7c-57.8,57.8-315.6,57.8-373.4,0s-57.8-315.6,0-373.4s315.6-57.8,373.4,0
				S500.4,385,442.7,442.7z"/>
		</g>
		
			<linearGradient id="SVGID_4_" gradientUnits="userSpaceOnUse" x1="256.0393" y1="35.4495" x2="256.0393" y2="480.4538" gradientTransform="matrix(1 0 0 -1 0 514)">
			<stop  offset="0" style="stop-color:#202021"/>
			<stop  offset="1" style="stop-color:#202021"/>
		</linearGradient>
		<path fill="url(#SVGID_4_)" d="M427.5,427.5c-68,68-275,68-343,0s-68-275,0-343s275-68,343,0S495.5,359.5,427.5,427.5z"/>
	</g>
	<path fill="#F4F4F4" d="M319.2,299c0-20.2-5.4-38.7-7.8-48.8c-23.2-89-61-80.2-59.3-83.1c6.1-10.5-5.3-24.5-5.3-24.5
		c-4.3,15.5-11.3,22.6-15.9,23.8c-19.8,5.3-18.4,16.1-23.5,19.2c-10,6.2-13.1,7.8-14.6,9.6c0,0,3.3,7.6,9.6,9.3
		c0,0,7.3,9.6,5.3,13.6c-2.1,4.2,33-15.1,36.7,6.6c9.6,55.9-22,74.3-22,74.3v13.3h0c0,0.1,0,0.3,0,0.4c0,8.1,2,3.9,5.5,10.6
		c-3.5,1-5.5,2.1-5.5,3.3c0,1.2,2.1,2.3,5.8,3.3c-3.7,6.8-5.8,14.6-5.8,22.9v16.4h96.7v-16.4c0-8.3-2.1-16.1-5.8-22.9
		c3.7-1,5.8-2.1,5.8-3.3c0-1.2-2-2.3-5.5-3.3c3.5-6.7,5.5-2.5,5.5-10.6c0-0.1,0-0.3,0-0.4h0V299z"/>
</g>
</svg>
