<?xml version="1.0" encoding="utf-8"?>
<!-- Generator: Adobe Illustrator 18.0.0, SVG Export Plug-In . SVG Version: 6.00 Build 0)  -->
<!DOCTYPE svg PUBLIC "-//W3C//DTD SVG 1.1//EN" "http://www.w3.org/Graphics/SVG/1.1/DTD/svg11.dtd">
<svg version="1.1" id="Layer_2" xmlns="http://www.w3.org/2000/svg" xmlns:xlink="http://www.w3.org/1999/xlink" x="0px" y="0px"
	 viewBox="0 0 512 512" enable-background="new 0 0 512 512" xml:space="preserve">
<g>
	<g opacity="0.4" enable-background="new    ">
		
			<radialGradient id="SVGID_1_" cx="1.0125" cy="515" r="118.8609" gradientTransform="matrix(2 0 0 -2 254 1286)" gradientUnits="userSpaceOnUse">
			<stop  offset="0" style="stop-color:#020202"/>
			<stop  offset="0.8587" style="stop-color:#020202;stop-opacity:0.1413"/>
			<stop  offset="1" style="stop-color:#020202;stop-opacity:0"/>
		</radialGradient>
		<path fill="url(#SVGID_1_)" d="M449,449c-59.7,59.7-326.2,59.7-385.9,0S3.4,122.7,63,63s326.3-59.6,386,0S508.6,389.3,449,449z"/>
	</g>
	<g opacity="0.4" enable-background="new    ">
		
			<radialGradient id="SVGID_2_" cx="2.0286" cy="516.0684" r="133.1551" gradientTransform="matrix(1.4138 -1.4146 -0.979 -0.9784 758.388 763.7472)" gradientUnits="userSpaceOnUse">
			<stop  offset="0" style="stop-color:#020202"/>
			<stop  offset="0.8587" style="stop-color:#020202;stop-opacity:0.1413"/>
			<stop  offset="1" style="stop-color:#020202;stop-opacity:0"/>
		</radialGradient>
		<path fill="url(#SVGID_2_)" d="M449,449c-59.7,59.7-326.2,59.7-385.9,0S3.4,122.7,63,63s326.3-59.6,386,0S508.6,389.3,449,449z"/>
	</g>
	<g opacity="0.4" enable-background="new    ">
		
			<radialGradient id="SVGID_3_" cx="3.4424" cy="513.9732" r="133.1784" gradientTransform="matrix(-1.4138 -1.4146 0.979 -0.9784 -242.3879 763.7472)" gradientUnits="userSpaceOnUse">
			<stop  offset="0" style="stop-color:#020202"/>
			<stop  offset="0.8587" style="stop-color:#020202;stop-opacity:0.1413"/>
			<stop  offset="1" style="stop-color:#020202;stop-opacity:0"/>
		</radialGradient>
		<path fill="url(#SVGID_3_)" d="M63,449c59.7,59.7,326.2,59.7,385.9,0s59.7-326.2,0-385.9S122.7,3.4,63,63S3.4,389.3,63,449z"/>
	</g>
</g>
<path fill="#DCDBDB" d="M433.3,433.3c-70.3,70.3-284.3,70.3-354.6,0S8.4,149,78.7,78.7s284.3-70.3,354.6,0S503.6,363,433.3,433.3z"
	/>
<g>
	<path fill="#668AC6" d="M433.3,78.7C363,8.4,149,8.4,78.7,78.7c-4,4-7.8,8.5-11.4,13.5l76.9,133.1c13.5-49.9,59.1-86.6,113.2-86.6
		c31.8,0,60.6,12.6,81.7,33.1h1.3h61.1h75.8C468.8,133.2,454.2,99.6,433.3,78.7z"/>
	<path fill="#CFDBEA" d="M288.1,369.2l-66.6,115.4c81.5,6.6,170.9-10.5,211.8-51.3c49.4-49.4,64.1-169.8,44-261.4h-75.8h-61.1
		l1.8,3.1c12.9,13.5,22.6,30,27.9,48.3l0.9,1.5l-0.3,0.5c2.6,9.8,4.1,20.1,4.1,30.7C374.7,310.2,338,355.7,288.1,369.2z"/>
	<path fill="#91AFDC" d="M67.1,92.5C8.7,173.6,12.5,367.1,78.7,433.3c29.4,29.4,84,46.5,142.7,51.3l66.6-115.4
		c-9.8,2.6-20.1,4.1-30.7,4.1c-64.8,0-117.3-52.5-117.3-117.3c0-10.4,1.4-20.6,3.9-30.2L67.1,92.5z"/>
	<circle fill="#FFFFFF" stroke="#FFFFFF" cx="257.4" cy="256" r="117.3"/>
	<circle fill="#4067B1" cx="257.4" cy="256" r="83"/>
</g>
</svg>
