<?xml version="1.0" encoding="UTF-8" standalone="no"?>
<svg
   xmlns:dc="http://purl.org/dc/elements/1.1/"
   xmlns:cc="http://creativecommons.org/ns#"
   xmlns:rdf="http://www.w3.org/1999/02/22-rdf-syntax-ns#"
   xmlns:svg="http://www.w3.org/2000/svg"
   xmlns="http://www.w3.org/2000/svg"
   viewBox="0 0 640 640"
   height="640"
   width="640"
   xml:space="preserve"
   version="1.1"
   id="svg2"><metadata
     id="metadata8"><rdf:RDF><cc:Work
         rdf:about=""><dc:format>image/svg+xml</dc:format><dc:type
           rdf:resource="http://purl.org/dc/dcmitype/StillImage" /></cc:Work></rdf:RDF></metadata><defs
     id="defs6"><clipPath
       id="clipPath16"
       clipPathUnits="userSpaceOnUse"><path
         id="path18"
         d="M 0,512 512,512 512,0 0,0 0,512 Z" /></clipPath><clipPath
       id="clipPath24"
       clipPathUnits="userSpaceOnUse"><path
         id="path26"
         d="m 18.325,493.744 475.4,0 0,-475.4877 -475.4,0 0,475.4877 z" /></clipPath><clipPath
       id="clipPath28"
       clipPathUnits="userSpaceOnUse"><path
         id="path30"
         d="M 448.99,63.029 C 389.293,3.332 122.807,3.332 63.11,63.029 3.413,122.726 3.413,389.312 63.01,449.009 c 59.597,59.696 326.283,59.596 385.98,0 59.697,-59.597 59.597,-326.283 0,-385.98" /></clipPath><radialGradient
       id="radialGradient36"
       spreadMethod="pad"
       gradientTransform="matrix(237.72188,0,0,237.72188,256.02499,256)"
       gradientUnits="userSpaceOnUse"
       r="1"
       cy="0"
       cx="0"
       fy="0"
       fx="0"><stop
         id="stop38"
         offset="0"
         style="stop-opacity:1;stop-color:#ffffff" /><stop
         id="stop40"
         offset="0.8587"
         style="stop-opacity:0.14129854;stop-color:#ffffff" /><stop
         id="stop42"
         offset="1"
         style="stop-opacity:0;stop-color:#ffffff" /></radialGradient><mask
       id="mask44"
       height="1"
       width="1"
       y="0"
       x="0"
       maskUnits="userSpaceOnUse"><g
         id="g46"><g
           id="g48"><g
             id="g50"><g
               id="g52"><path
                 id="path54"
                 style="fill:url(#radialGradient36);stroke:none"
                 d="m -32768,32767 65535,0 0,-65535 -65535,0 0,65535 z" /></g></g></g></g></mask><radialGradient
       id="radialGradient56"
       spreadMethod="pad"
       gradientTransform="matrix(237.72188,0,0,237.72188,256.02499,256)"
       gradientUnits="userSpaceOnUse"
       r="1"
       cy="0"
       cx="0"
       fy="0"
       fx="0"><stop
         id="stop58"
         offset="0"
         style="stop-opacity:1;stop-color:#010101" /><stop
         id="stop60"
         offset="0.8587"
         style="stop-opacity:1;stop-color:#010101" /><stop
         id="stop62"
         offset="1"
         style="stop-opacity:1;stop-color:#010101" /></radialGradient><clipPath
       id="clipPath86"
       clipPathUnits="userSpaceOnUse"><path
         id="path88"
         d="m 18.325,493.744 475.4,0 0,-475.4877 -475.4,0 0,475.4877 z" /></clipPath><clipPath
       id="clipPath90"
       clipPathUnits="userSpaceOnUse"><path
         id="path92"
         d="M 448.99,63.029 C 389.293,3.332 122.807,3.332 63.11,63.029 3.413,122.726 3.413,389.312 63.01,449.009 c 59.597,59.696 326.283,59.596 385.98,0 59.697,-59.597 59.597,-326.283 0,-385.98" /></clipPath><radialGradient
       id="radialGradient98"
       spreadMethod="pad"
       gradientTransform="matrix(188.25467,188.36119,-130.35883,130.27895,256.02499,256.04376)"
       gradientUnits="userSpaceOnUse"
       r="1"
       cy="0"
       cx="0"
       fy="0"
       fx="0"><stop
         id="stop100"
         offset="0"
         style="stop-opacity:1;stop-color:#ffffff" /><stop
         id="stop102"
         offset="0.8587"
         style="stop-opacity:0.14129854;stop-color:#ffffff" /><stop
         id="stop104"
         offset="1"
         style="stop-opacity:0;stop-color:#ffffff" /></radialGradient><mask
       id="mask106"
       height="1"
       width="1"
       y="0"
       x="0"
       maskUnits="userSpaceOnUse"><g
         id="g108"><g
           id="g110"><g
             id="g112"><g
               id="g114"><path
                 id="path116"
                 style="fill:url(#radialGradient98);stroke:none"
                 d="m -32768,32767 65535,0 0,-65535 -65535,0 0,65535 z" /></g></g></g></g></mask><radialGradient
       id="radialGradient118"
       spreadMethod="pad"
       gradientTransform="matrix(188.25467,188.36119,-130.35883,130.27895,256.02499,256.04376)"
       gradientUnits="userSpaceOnUse"
       r="1"
       cy="0"
       cx="0"
       fy="0"
       fx="0"><stop
         id="stop120"
         offset="0"
         style="stop-opacity:1;stop-color:#010101" /><stop
         id="stop122"
         offset="0.8587"
         style="stop-opacity:1;stop-color:#010101" /><stop
         id="stop124"
         offset="1"
         style="stop-opacity:1;stop-color:#010101" /></radialGradient><clipPath
       id="clipPath148"
       clipPathUnits="userSpaceOnUse"><path
         id="path150"
         d="m 18.275,493.694 475.387,0 0,-475.4377 -475.387,0 0,475.4377 z" /></clipPath><clipPath
       id="clipPath152"
       clipPathUnits="userSpaceOnUse"><path
         id="path154"
         d="m 63.01,63.029 c 59.697,-59.697 326.183,-59.697 385.88,0 59.697,59.697 59.697,326.183 0,385.88 -59.697,59.696 -326.183,59.696 -385.88,0.1 -59.697,-59.597 -59.597,-326.283 0,-385.98" /></clipPath><radialGradient
       id="radialGradient160"
       spreadMethod="pad"
       gradientTransform="matrix(-188.28767,188.39421,130.38168,130.30179,255.92499,255.99377)"
       gradientUnits="userSpaceOnUse"
       r="1"
       cy="0"
       cx="0"
       fy="0"
       fx="0"><stop
         id="stop162"
         offset="0"
         style="stop-opacity:1;stop-color:#ffffff" /><stop
         id="stop164"
         offset="0.8587"
         style="stop-opacity:0.14129854;stop-color:#ffffff" /><stop
         id="stop166"
         offset="1"
         style="stop-opacity:0;stop-color:#ffffff" /></radialGradient><mask
       id="mask168"
       height="1"
       width="1"
       y="0"
       x="0"
       maskUnits="userSpaceOnUse"><g
         id="g170"><g
           id="g172"><g
             id="g174"><g
               id="g176"><path
                 id="path178"
                 style="fill:url(#radialGradient160);stroke:none"
                 d="m -32768,32767 65535,0 0,-65535 -65535,0 0,65535 z" /></g></g></g></g></mask><radialGradient
       id="radialGradient180"
       spreadMethod="pad"
       gradientTransform="matrix(-188.28767,188.39421,130.38168,130.30179,255.92499,255.99377)"
       gradientUnits="userSpaceOnUse"
       r="1"
       cy="0"
       cx="0"
       fy="0"
       fx="0"><stop
         id="stop182"
         offset="0"
         style="stop-opacity:1;stop-color:#010101" /><stop
         id="stop184"
         offset="0.8587"
         style="stop-opacity:1;stop-color:#010101" /><stop
         id="stop186"
         offset="1"
         style="stop-opacity:1;stop-color:#010101" /></radialGradient></defs><g
     transform="matrix(1.25,0,0,-1.25,0,640)"
     id="g10"><g
       id="g12"><g
         clip-path="url(#clipPath16)"
         id="g14"><g
           id="g20"><g
             id="g22" /><g
             id="g64"><g
               style="opacity:0.39999402"
               id="g66"
               clip-path="url(#clipPath24)"><g
                 id="g68"><g
                   id="g70"
                   clip-path="url(#clipPath28)"><g
                     id="g72"><g
                       id="g74" /><g
                       id="g76"
                       mask="url(#mask44)"><g
                         id="g78"><path
                           id="path80"
                           style="fill:url(#radialGradient56);stroke:none"
                           d="M 448.99,63.029 C 389.293,3.332 122.807,3.332 63.11,63.029 3.413,122.726 3.413,389.312 63.01,449.009 c 59.597,59.696 326.283,59.596 385.98,0 59.697,-59.597 59.597,-326.283 0,-385.98" /></g></g></g></g></g></g></g></g><g
           id="g82"><g
             id="g84" /><g
             id="g126"><g
               style="opacity:0.39999402"
               id="g128"
               clip-path="url(#clipPath86)"><g
                 id="g130"><g
                   id="g132"
                   clip-path="url(#clipPath90)"><g
                     id="g134"><g
                       id="g136" /><g
                       id="g138"
                       mask="url(#mask106)"><g
                         id="g140"><path
                           id="path142"
                           style="fill:url(#radialGradient118);stroke:none"
                           d="M 448.99,63.029 C 389.293,3.332 122.807,3.332 63.11,63.029 3.413,122.726 3.413,389.312 63.01,449.009 c 59.597,59.696 326.283,59.596 385.98,0 59.697,-59.597 59.597,-326.283 0,-385.98" /></g></g></g></g></g></g></g></g><g
           id="g144"><g
             id="g146" /><g
             id="g188"><g
               style="opacity:0.39999402"
               id="g190"
               clip-path="url(#clipPath148)"><g
                 id="g192"><g
                   id="g194"
                   clip-path="url(#clipPath152)"><g
                     id="g196"><g
                       id="g198" /><g
                       id="g200"
                       mask="url(#mask168)"><g
                         id="g202"><path
                           id="path204"
                           style="fill:url(#radialGradient180);stroke:none"
                           d="m 63.01,63.029 c 59.697,-59.697 326.183,-59.697 385.88,0 59.697,59.697 59.697,326.183 0,385.88 -59.697,59.696 -326.183,59.696 -385.88,0.1 -59.697,-59.597 -59.597,-326.283 0,-385.98" /></g></g></g></g></g></g></g></g><g
           transform="translate(433.279,78.721)"
           id="g206"><path
             id="path208"
             style="fill:#898989;fill-opacity:1;fill-rule:nonzero;stroke:none"
             d="m 0,0 c -70.294,-70.294 -284.264,-70.294 -354.558,0 -70.294,70.294 -70.294,284.264 0,354.558 70.294,70.294 284.264,70.294 354.558,0 C 70.294,284.264 70.295,70.294 0,0" /></g><g
           transform="translate(256,417.8015)"
           id="g210"><path
             id="path212"
             style="fill:#fd9500;fill-opacity:1;fill-rule:nonzero;stroke:none"
             d="m 0,0 c -89.36,0 -161.801,-72.441 -161.801,-161.801 0,-89.36 72.441,-161.8 161.801,-161.8 89.359,0 161.801,72.44 161.801,161.8 C 161.801,-72.441 89.359,0.001 0,0 m 0,-16.819 0.002,0 c 38.722,0 75.129,-15.082 102.513,-42.466 27.385,-27.385 42.467,-63.792 42.467,-102.516 0,-38.725 -15.08,-75.133 -42.464,-102.517 -27.383,-27.384 -63.792,-42.464 -102.517,-42.464 -38.726,0 -75.134,15.08 -102.517,42.464 -27.384,27.384 -42.464,63.791 -42.464,102.517 0,38.727 15.08,75.134 42.464,102.518 C -75.134,-31.9 -38.725,-16.819 0,-16.819" /></g><g
           transform="translate(109.8339,356.3307)"
           id="g214"><path
             id="path216"
             style="fill:#ffffff;fill-opacity:1;fill-rule:nonzero;stroke:none"
             d="M 0,0 46.291,46.291 C 28.141,33.866 12.426,18.15 0,0" /></g><g
           transform="translate(181.7933,370.857)"
           id="g218"><path
             id="path220"
             style="fill:#ffffff;fill-opacity:1;fill-rule:nonzero;stroke:none"
             d="m 0,0 c -1.467,1.467 -3.88,1.432 -5.389,-0.078 l -7.863,-7.863 -19.003,-19.003 c -3.668,-0.538 -7.548,-0.966 -11.498,-1.206 l 31.707,31.706 8.641,8.642 c 2.131,2.131 2.67,5.048 1.204,6.514 -1.467,1.466 -4.384,0.928 -6.515,-1.203 l -3.207,-3.207 -42.574,-42.574 c -2.564,0.109 -5.1,0.326 -7.571,0.677 -0.592,0.084 -1.178,0.181 -1.763,0.281 l 6.016,6.016 38.463,38.463 6.47,6.471 4.353,4.352 c 2.596,2.597 3.512,5.891 2.045,7.357 -1.467,1.467 -4.761,0.551 -7.356,-2.046 l -1.207,-1.206 -57.241,-57.24 c -1.78,0.636 -3.482,1.375 -5.077,2.238 -2.544,-4.206 -4.911,-8.531 -7.105,-12.957 4.516,-2.449 9.455,-4.169 14.587,-5.314 17.387,-3.88 36.929,-1.247 49.27,1.315 1.452,6.997 2.882,11.683 3.085,12.339 l 1.154,3.705 -0.075,0.076 c -0.833,-0.22 -1.725,-0.443 -2.648,-0.665 l 3.312,3.312 15.707,15.707 C 1.432,-3.88 1.467,-1.467 0,0" /></g><g
           transform="translate(400.4954,183.1379)"
           id="g222"><path
             id="path224"
             style="fill:#ffffff;fill-opacity:1;fill-rule:nonzero;stroke:none"
             d="m 0,0 c -17.488,4.012 -37.238,1.363 -49.674,-1.218 -1.452,-6.998 -2.882,-11.684 -3.086,-12.341 l -1.154,-3.704 0.075,-0.076 c 0.536,0.142 1.094,0.284 1.667,0.427 l 12.23,12.23 c 1.153,1.153 3.277,0.899 4.744,-0.568 1.467,-1.467 1.721,-3.591 0.568,-4.744 l -4.277,-4.277 c 3.68,0.561 7.588,1.017 11.578,1.286 l 9.062,9.062 c 2.132,2.132 5.048,2.67 6.515,1.204 1.467,-1.467 0.928,-4.383 -1.204,-6.515 l -3.55,-3.551 c 2.988,-0.102 5.944,-0.349 8.808,-0.78 0.203,-0.031 0.402,-0.068 0.604,-0.1 l 4.618,4.618 c 2.597,2.597 5.89,3.512 7.356,2.046 1.467,-1.468 0.552,-4.761 -2.045,-7.357 l -1.383,-1.383 c 1.981,-0.676 3.867,-1.48 5.625,-2.432 2.545,4.206 4.91,8.531 7.105,12.956 C 9.786,-2.833 4.987,-1.144 0,0" /></g><g
           transform="translate(405.3758,176.1364)"
           id="g226"><path
             id="path228"
             style="fill:#fd9500;fill-opacity:1;fill-rule:nonzero;stroke:none"
             d="m 0,0 c -1.467,1.467 -4.761,0.551 -7.357,-2.045 l -4.617,-4.618 -1.88,-1.88 -47.114,-47.114 -1.425,-1.425 c -0.024,0.15 -0.051,0.298 -0.075,0.449 -0.445,2.911 -0.701,5.92 -0.805,8.963 l 41.887,41.887 3.551,3.551 c 2.131,2.131 2.67,5.047 1.204,6.514 -1.467,1.467 -4.384,0.928 -6.515,-1.203 l -9.063,-9.063 -30.862,-30.862 c 0.268,3.99 0.723,7.897 1.285,11.577 l 18.001,18 4.277,4.277 c 1.153,1.153 0.898,3.277 -0.569,4.744 -1.467,1.467 -3.59,1.721 -4.744,0.568 l -12.229,-12.229 -2.095,-2.095 c 0.143,0.574 0.286,1.131 0.427,1.667 l -0.076,0.075 1.154,3.704 c 0.205,0.657 1.634,5.343 3.087,12.342 3.906,18.823 7.981,54.403 -11.147,73.531 -19.129,19.129 -54.709,15.053 -73.532,11.147 -1.452,-6.998 -2.882,-11.684 -3.085,-12.341 l -1.154,-3.705 0.075,-0.076 c 0,0.002 10e-4,0.004 10e-4,0.006 1.33,0.353 2.793,0.713 4.348,1.068 l 13.473,13.473 c 1.407,1.406 3.736,1.358 5.203,-0.109 1.467,-1.467 1.516,-3.797 0.109,-5.203 l -5.797,-5.797 c 3.647,0.498 7.478,0.877 11.36,1.068 l 7.894,7.894 c 2.131,2.131 5.048,2.67 6.514,1.203 1.467,-1.466 0.928,-4.383 -1.203,-6.514 l -2.596,-2.596 c 3.139,-0.18 6.227,-0.533 9.192,-1.1 l 3.882,3.883 c 2.597,2.596 5.891,3.511 7.357,2.045 1.467,-1.467 0.551,-4.761 -2.045,-7.356 l -0.892,-0.892 c 2.444,-0.946 4.71,-2.118 6.764,-3.528 l 0.063,0.062 c 2.665,2.665 6.015,3.637 7.482,2.17 1.439,-1.44 0.526,-4.694 -2.031,-7.334 1.536,-1.921 2.83,-4.068 3.889,-6.411 l 0.329,0.329 c 2.597,2.597 5.89,3.511 7.357,2.045 1.467,-1.467 0.551,-4.761 -2.046,-7.356 l -2.996,-2.996 c 0.668,-2.853 1.117,-5.843 1.389,-8.903 l 1.42,1.42 c 2.132,2.132 5.049,2.67 6.515,1.204 1.466,-1.466 0.928,-4.384 -1.204,-6.515 l -6.423,-6.423 c -0.087,-3.746 -0.372,-7.475 -0.78,-11.072 l 1.132,1.132 c 1.153,1.153 3.277,0.899 4.744,-0.568 1.467,-1.467 1.721,-3.591 0.568,-4.744 l -8.432,-8.432 c -0.588,-2.915 -1.212,-5.58 -1.818,-7.872 l 0.076,-0.075 -1.154,-3.704 c -0.205,-0.657 -1.633,-5.343 -3.085,-12.341 -2.591,-12.485 -5.249,-32.339 -1.168,-49.878 1.142,-4.913 2.815,-9.642 5.167,-13.977 4.425,2.194 8.751,4.56 12.956,7.105 -0.952,1.758 -1.755,3.644 -2.432,5.625 l 56.888,56.888 1.383,1.383 C 0.551,-4.761 1.467,-1.467 0,0" /></g><g
           transform="translate(256.7372,304.7068)"
           id="g230"><path
             id="path232"
             style="fill:#fd9500;fill-opacity:1;fill-rule:nonzero;stroke:none"
             d="m 0,0 -2.271,-2.271 -44.447,-44.447 c -3.118,0.204 -6.177,0.585 -9.112,1.18 L -3.452,6.84 0.186,10.477 c 2.597,2.597 3.511,5.891 2.045,7.357 -1.467,1.467 -4.76,0.551 -7.356,-2.045 L -5.863,15.05 -64.04,-43.126 c -2.419,0.976 -4.67,2.165 -6.69,3.609 0.041,0.039 0.083,0.076 0.124,0.117 l 61.125,61.125 c 0.003,0.004 0.007,0.008 0.011,0.012 2.656,2.663 3.623,6.005 2.158,7.47 -1.448,1.448 -4.732,0.516 -7.381,-2.075 -0.033,-0.032 -0.068,-0.062 -0.1,-0.095 l -61.126,-61.125 c -0.07,-0.07 -0.133,-0.142 -0.2,-0.212 -1.503,1.958 -2.755,4.148 -3.784,6.52 l 58.693,58.693 0.481,0.481 c 2.597,2.597 3.513,5.891 2.046,7.357 -1.467,1.467 -4.761,0.551 -7.357,-2.046 l -3.228,-3.228 -53.198,-53.198 c -0.639,2.883 -1.066,5.897 -1.314,8.978 l 45.533,45.533 1.728,1.727 c 2.131,2.132 2.669,5.048 1.203,6.515 -1.467,1.467 -4.383,0.928 -6.514,-1.203 L -48.651,35.008 -84,-0.341 c 0.122,4.019 0.461,8.008 0.936,11.825 l 22.588,22.588 4.89,4.89 c 1.406,1.406 1.358,3.736 -0.109,5.203 -1.467,1.467 -3.797,1.515 -5.203,0.109 l -12.36,-12.36 -7.648,-7.648 c 0.482,2.254 0.98,4.34 1.467,6.18 l -0.076,0.075 1.154,3.705 c 0.205,0.657 1.633,5.342 3.086,12.341 2.551,12.291 5.17,31.727 1.357,49.063 -1.145,5.205 -2.874,10.218 -5.356,14.794 -4.425,-2.195 -8.751,-4.561 -12.957,-7.105 0.863,-1.595 1.602,-3.297 2.238,-5.077 l 1.206,1.207 c 2.597,2.596 5.89,3.511 7.356,2.045 1.467,-1.467 0.552,-4.761 -2.045,-7.356 l -4.352,-4.353 c 0.108,-0.635 0.211,-1.274 0.3,-1.919 0.34,-2.421 0.551,-4.904 0.657,-7.414 l 3.207,3.207 c 2.132,2.132 5.049,2.67 6.515,1.204 1.466,-1.466 0.928,-4.384 -1.204,-6.515 l -8.641,-8.641 c -0.239,-3.95 -0.668,-7.829 -1.205,-11.498 l 7.863,7.863 c 1.509,1.509 3.922,1.544 5.388,0.077 1.467,-1.467 1.433,-3.879 -0.077,-5.388 L -90.733,45.053 c -0.222,-0.923 -0.444,-1.815 -0.665,-2.648 l 0.076,-0.076 -1.154,-3.704 c -0.205,-0.657 -1.633,-5.342 -3.086,-12.34 -3.906,-18.823 -7.981,-54.403 11.147,-73.532 19.128,-19.128 54.709,-15.053 73.532,-11.147 1.453,6.998 2.882,11.684 3.086,12.341 l 1.154,3.705 -0.075,0.076 c -0.001,-0.002 -0.001,-0.004 -0.002,-0.006 -1.603,-0.426 -3.386,-0.861 -5.309,-1.286 l 6.603,6.603 9.976,9.975 c 1.153,1.153 0.899,3.277 -0.568,4.744 -1.468,1.467 -3.591,1.722 -4.744,0.568 L -3.169,-24.08 -24.91,-45.821 c -3.636,-0.475 -7.439,-0.831 -11.286,-0.995 l 34.021,34.021 7.483,7.484 C 7.44,-3.18 7.978,-0.264 6.512,1.204 5.049,2.671 2.131,2.131 0,0" /></g><g
           transform="translate(345.7103,215.7346)"
           id="g234"><path
             id="path236"
             style="fill:#ffffff;fill-opacity:1;fill-rule:nonzero;stroke:none"
             d="M 0,0 C 2.131,2.131 2.67,5.049 1.204,6.515 -0.263,7.981 -3.18,7.443 -5.311,5.311 l -1.42,-1.42 -46.149,-46.148 c -3.06,0.272 -6.05,0.721 -8.903,1.388 l 53.663,53.663 2.996,2.996 c 2.596,2.596 3.512,5.89 2.045,7.356 -1.467,1.467 -4.761,0.551 -7.356,-2.045 l -0.329,-0.329 -58.997,-58.997 c -2.343,1.06 -4.492,2.355 -6.414,3.892 0.086,0.081 0.173,0.16 0.258,0.244 l 61.125,61.125 c 0.049,0.049 0.092,0.098 0.14,0.147 2.556,2.64 3.471,5.894 2.03,7.334 -1.467,1.467 -4.816,0.495 -7.482,-2.17 l -0.062,-0.062 -61.063,-61.063 c -0.015,-0.015 -0.029,-0.032 -0.044,-0.046 -1.41,2.053 -2.583,4.32 -3.529,6.765 l 57.872,57.871 0.891,0.891 c 2.597,2.597 3.511,5.891 2.045,7.357 -1.467,1.467 -4.76,0.551 -7.356,-2.045 l -3.883,-3.883 -51.891,-51.886 c -0.567,2.964 -0.919,6.053 -1.1,9.191 l 43.797,43.797 2.596,2.596 c 2.131,2.131 2.669,5.047 1.203,6.514 -1.466,1.467 -4.383,0.928 -6.515,-1.203 l -7.893,-7.894 -33.201,-33.2 c 0.191,3.881 0.57,7.712 1.068,11.359 l 20.774,20.774 5.797,5.797 c 1.406,1.406 1.358,3.736 -0.109,5.203 -1.467,1.467 -3.797,1.515 -5.203,0.109 l -13.473,-13.473 -5.423,-5.423 c 0.355,1.554 0.715,3.019 1.068,4.348 0.002,0 0.004,10e-4 0.006,10e-4 l -0.076,0.076 1.154,3.705 c 0.205,0.657 1.634,5.342 3.086,12.34 3.907,18.823 7.981,54.403 -11.147,73.532 -19.128,19.129 -54.709,15.054 -73.532,11.147 -1.452,-6.998 -2.882,-11.684 -3.086,-12.341 l -1.154,-3.705 0.076,-0.075 c 1.839,0.487 3.925,0.985 6.18,1.467 l 12.36,12.36 c 1.406,1.406 3.736,1.358 5.203,-0.109 1.467,-1.467 1.515,-3.797 0.109,-5.203 l -4.89,-4.89 c 3.817,0.475 7.806,0.813 11.825,0.936 l 6.82,6.821 c 2.132,2.131 5.048,2.669 6.515,1.203 1.467,-1.467 0.928,-4.383 -1.203,-6.514 l -1.728,-1.728 c 3.081,-0.248 6.096,-0.674 8.978,-1.314 l 3.228,3.228 c 2.597,2.597 5.891,3.512 7.357,2.046 1.467,-1.467 0.551,-4.761 -2.046,-7.357 l -0.481,-0.481 c 2.371,-1.028 4.56,-2.279 6.517,-3.781 2.648,2.591 5.931,3.523 7.38,2.075 1.465,-1.464 0.498,-4.807 -2.158,-7.47 1.443,-2.018 2.631,-4.269 3.607,-6.686 l 0.738,0.739 c 2.597,2.596 5.89,3.512 7.356,2.045 1.467,-1.467 0.552,-4.761 -2.045,-7.357 l -3.638,-3.637 c 0.595,-2.935 0.976,-5.994 1.181,-9.112 l 2.27,2.271 c 2.132,2.131 5.048,2.67 6.515,1.204 1.467,-1.467 0.928,-4.384 -1.204,-6.515 l -7.483,-7.484 c -0.163,-3.846 -0.52,-7.649 -0.995,-11.285 l 2.407,2.406 c 1.153,1.153 3.276,0.898 4.744,-0.569 1.467,-1.467 1.721,-3.59 0.568,-4.744 L -94.4,52.011 c -0.425,-1.922 -0.861,-3.707 -1.286,-5.309 -0.002,0 -0.004,0 -0.005,-10e-4 l 0.075,-0.076 -1.154,-3.705 c -0.204,-0.657 -1.633,-5.343 -3.086,-12.341 -3.907,-18.822 -7.983,-54.403 11.146,-73.532 19.129,-19.128 54.709,-15.053 73.532,-11.146 1.452,6.998 2.881,11.685 3.085,12.34 l 1.154,3.704 -0.076,0.076 c -2.292,-0.605 -4.957,-1.23 -7.871,-1.817 l 9.689,9.689 8.432,8.432 c 1.153,1.153 0.899,3.277 -0.568,4.744 -1.467,1.467 -3.591,1.721 -4.744,0.568 L -7.209,-17.495 -31.5,-41.786 c -3.596,-0.408 -7.325,-0.692 -11.072,-0.78 L -6.429,-6.423 0,0 Z" /></g><g
           transform="translate(256.0019,434.6208)"
           id="g238"><path
             id="path240"
             style="fill:#ffffff;fill-opacity:1;fill-rule:nonzero;stroke:none"
             d="M 0,0 0,-16.819 0,0 -0.002,0 c -24.107,0 -47.5,-4.725 -69.532,-14.044 -21.271,-8.997 -40.373,-21.875 -56.771,-38.273 -16.399,-16.399 -29.276,-35.499 -38.274,-56.772 -9.318,-22.032 -14.044,-45.426 -14.044,-69.532 0,-24.106 4.726,-47.5 14.044,-69.532 8.998,-21.271 21.875,-40.372 38.274,-56.771 16.398,-16.399 35.499,-29.276 56.771,-38.273 22.033,-9.319 45.426,-14.045 69.532,-14.045 24.106,0 47.5,4.726 69.532,14.045 21.272,8.997 40.373,21.874 56.772,38.273 16.398,16.399 29.275,35.499 38.273,56.771 9.319,22.033 14.044,45.426 14.044,69.532 0,24.105 -4.725,47.498 -14.045,69.53 -8.998,21.272 -21.876,40.372 -38.274,56.771 -16.399,16.399 -35.499,29.276 -56.771,38.274 C 47.497,-4.725 24.104,0 0,0 m -0.002,-16.819 c 89.359,10e-4 161.801,-72.441 161.801,-161.801 0,-89.36 -72.442,-161.8 -161.801,-161.8 -89.36,0 -161.8,72.44 -161.8,161.8 0,89.36 72.44,161.801 161.8,161.801" /></g></g></g></g></svg>