<?xml version="1.0" encoding="UTF-8" standalone="no"?>
<svg
   xmlns:dc="http://purl.org/dc/elements/1.1/"
   xmlns:cc="http://creativecommons.org/ns#"
   xmlns:rdf="http://www.w3.org/1999/02/22-rdf-syntax-ns#"
   xmlns:svg="http://www.w3.org/2000/svg"
   xmlns="http://www.w3.org/2000/svg"
   viewBox="0 0 640 640"
   height="640"
   width="640"
   xml:space="preserve"
   version="1.1"
   id="svg2"><metadata
     id="metadata8"><rdf:RDF><cc:Work
         rdf:about=""><dc:format>image/svg+xml</dc:format><dc:type
           rdf:resource="http://purl.org/dc/dcmitype/StillImage" /></cc:Work></rdf:RDF></metadata><defs
     id="defs6"><clipPath
       id="clipPath16"
       clipPathUnits="userSpaceOnUse"><path
         id="path18"
         d="M 0,512 512,512 512,0 0,0 0,512 Z" /></clipPath><clipPath
       id="clipPath24"
       clipPathUnits="userSpaceOnUse"><path
         id="path26"
         d="m 18.3125,493.738 475.4255,0 0,-475.513 -475.4255,0 0,475.513 z" /></clipPath><clipPath
       id="clipPath28"
       clipPathUnits="userSpaceOnUse"><path
         id="path30"
         d="M 449,63 C 389.3,3.3 122.8,3.3 63.1,63 3.4,122.7 3.4,389.3 63,449 c 59.6,59.7 326.3,59.6 386,0 59.7,-59.6 59.6,-326.3 0,-386" /></clipPath><radialGradient
       id="radialGradient36"
       spreadMethod="pad"
       gradientTransform="matrix(237.73439,0,0,-237.73439,256.02499,255.98125)"
       gradientUnits="userSpaceOnUse"
       r="1"
       cy="0"
       cx="0"
       fy="0"
       fx="0"><stop
         id="stop38"
         offset="0"
         style="stop-opacity:1;stop-color:#ffffff" /><stop
         id="stop40"
         offset="0.8587"
         style="stop-opacity:0.14129854;stop-color:#ffffff" /><stop
         id="stop42"
         offset="1"
         style="stop-opacity:0;stop-color:#ffffff" /></radialGradient><mask
       id="mask44"
       height="1"
       width="1"
       y="0"
       x="0"
       maskUnits="userSpaceOnUse"><g
         id="g46"><g
           id="g48"><g
             id="g50"><g
               id="g52"><path
                 id="path54"
                 style="fill:url(#radialGradient36);stroke:none"
                 d="m -32768,32767 65535,0 0,-65535 -65535,0 0,65535 z" /></g></g></g></g></mask><radialGradient
       id="radialGradient56"
       spreadMethod="pad"
       gradientTransform="matrix(237.73439,0,0,-237.73439,256.02499,255.98125)"
       gradientUnits="userSpaceOnUse"
       r="1"
       cy="0"
       cx="0"
       fy="0"
       fx="0"><stop
         id="stop58"
         offset="0"
         style="stop-opacity:1;stop-color:#010101" /><stop
         id="stop60"
         offset="0.8587"
         style="stop-opacity:1;stop-color:#010101" /><stop
         id="stop62"
         offset="1"
         style="stop-opacity:1;stop-color:#010101" /></radialGradient><clipPath
       id="clipPath86"
       clipPathUnits="userSpaceOnUse"><path
         id="path88"
         d="m 18.3125,493.738 475.4255,0 0,-475.513 -475.4255,0 0,475.513 z" /></clipPath><clipPath
       id="clipPath90"
       clipPathUnits="userSpaceOnUse"><path
         id="path92"
         d="M 449,63 C 389.3,3.3 122.8,3.3 63.1,63 3.4,122.7 3.4,389.3 63,449 c 59.6,59.7 326.3,59.6 386,0 59.7,-59.6 59.6,-326.3 0,-386" /></clipPath><radialGradient
       id="radialGradient98"
       spreadMethod="pad"
       gradientTransform="matrix(188.26457,188.37109,130.36569,-130.2858,256.02499,256.02499)"
       gradientUnits="userSpaceOnUse"
       r="1"
       cy="0"
       cx="0"
       fy="0"
       fx="0"><stop
         id="stop100"
         offset="0"
         style="stop-opacity:1;stop-color:#ffffff" /><stop
         id="stop102"
         offset="0.8587"
         style="stop-opacity:0.14129854;stop-color:#ffffff" /><stop
         id="stop104"
         offset="1"
         style="stop-opacity:0;stop-color:#ffffff" /></radialGradient><mask
       id="mask106"
       height="1"
       width="1"
       y="0"
       x="0"
       maskUnits="userSpaceOnUse"><g
         id="g108"><g
           id="g110"><g
             id="g112"><g
               id="g114"><path
                 id="path116"
                 style="fill:url(#radialGradient98);stroke:none"
                 d="m -32768,32767 65535,0 0,-65535 -65535,0 0,65535 z" /></g></g></g></g></mask><radialGradient
       id="radialGradient118"
       spreadMethod="pad"
       gradientTransform="matrix(188.26457,188.37109,130.36569,-130.2858,256.02499,256.02499)"
       gradientUnits="userSpaceOnUse"
       r="1"
       cy="0"
       cx="0"
       fy="0"
       fx="0"><stop
         id="stop120"
         offset="0"
         style="stop-opacity:1;stop-color:#010101" /><stop
         id="stop122"
         offset="0.8587"
         style="stop-opacity:1;stop-color:#010101" /><stop
         id="stop124"
         offset="1"
         style="stop-opacity:1;stop-color:#010101" /></radialGradient><clipPath
       id="clipPath148"
       clipPathUnits="userSpaceOnUse"><path
         id="path150"
         d="m 18.2625,493.687 475.4125,0 0,-475.462 -475.4125,0 0,475.462 z" /></clipPath><clipPath
       id="clipPath152"
       clipPathUnits="userSpaceOnUse"><path
         id="path154"
         d="m 63,63 c 59.7,-59.7 326.2,-59.7 385.9,0 59.7,59.7 59.7,326.2 0,385.9 C 389.2,508.6 122.7,508.6 63,449 3.3,389.4 3.4,122.7 63,63" /></clipPath><radialGradient
       id="radialGradient160"
       spreadMethod="pad"
       gradientTransform="matrix(-188.29762,188.40417,-130.38857,-130.30867,255.92499,255.97502)"
       gradientUnits="userSpaceOnUse"
       r="1"
       cy="0"
       cx="0"
       fy="0"
       fx="0"><stop
         id="stop162"
         offset="0"
         style="stop-opacity:1;stop-color:#ffffff" /><stop
         id="stop164"
         offset="0.8587"
         style="stop-opacity:0.14129854;stop-color:#ffffff" /><stop
         id="stop166"
         offset="1"
         style="stop-opacity:0;stop-color:#ffffff" /></radialGradient><mask
       id="mask168"
       height="1"
       width="1"
       y="0"
       x="0"
       maskUnits="userSpaceOnUse"><g
         id="g170"><g
           id="g172"><g
             id="g174"><g
               id="g176"><path
                 id="path178"
                 style="fill:url(#radialGradient160);stroke:none"
                 d="m -32768,32767 65535,0 0,-65535 -65535,0 0,65535 z" /></g></g></g></g></mask><radialGradient
       id="radialGradient180"
       spreadMethod="pad"
       gradientTransform="matrix(-188.29762,188.40417,-130.38857,-130.30867,255.92499,255.97502)"
       gradientUnits="userSpaceOnUse"
       r="1"
       cy="0"
       cx="0"
       fy="0"
       fx="0"><stop
         id="stop182"
         offset="0"
         style="stop-opacity:1;stop-color:#010101" /><stop
         id="stop184"
         offset="0.8587"
         style="stop-opacity:1;stop-color:#010101" /><stop
         id="stop186"
         offset="1"
         style="stop-opacity:1;stop-color:#010101" /></radialGradient><radialGradient
       id="radialGradient218"
       spreadMethod="pad"
       gradientTransform="matrix(261.00189,0,0,-261.00189,258,380)"
       gradientUnits="userSpaceOnUse"
       r="1"
       cy="0"
       cx="0"
       fy="0"
       fx="0"><stop
         id="stop220"
         offset="0"
         style="stop-opacity:1;stop-color:#56eecc" /><stop
         id="stop222"
         offset="1"
         style="stop-opacity:1;stop-color:#5ccaff" /></radialGradient><clipPath
       id="clipPath230"
       clipPathUnits="userSpaceOnUse"><path
         id="path232"
         d="M 0,512 512,512 512,0 0,0 0,512 Z" /></clipPath><clipPath
       id="clipPath238"
       clipPathUnits="userSpaceOnUse"><path
         id="path240"
         d="m 26,479.5 460,0 0,-447.025 -460,0 0,447.025 z" /></clipPath><clipPath
       id="clipPath258"
       clipPathUnits="userSpaceOnUse"><path
         id="path260"
         d="m 142.5,321.902 227,0 0,-144.512 -227,0 0,144.512 z" /></clipPath><clipPath
       id="clipPath274"
       clipPathUnits="userSpaceOnUse"><path
         id="path276"
         d="m 142.5,328.256 227,0 0,-144.512 -227,0 0,144.512 z" /></clipPath></defs><g
     transform="matrix(1.25,0,0,-1.25,0,640)"
     id="g10"><g
       id="g12"><g
         clip-path="url(#clipPath16)"
         id="g14"><g
           id="g20"><g
             id="g22" /><g
             id="g64"><g
               style="opacity:0.39999402"
               id="g66"
               clip-path="url(#clipPath24)"><g
                 id="g68"><g
                   id="g70"
                   clip-path="url(#clipPath28)"><g
                     id="g72"><g
                       id="g74" /><g
                       id="g76"
                       mask="url(#mask44)"><g
                         id="g78"><path
                           id="path80"
                           style="fill:url(#radialGradient56);stroke:none"
                           d="M 449,63 C 389.3,3.3 122.8,3.3 63.1,63 3.4,122.7 3.4,389.3 63,449 c 59.6,59.7 326.3,59.6 386,0 59.7,-59.6 59.6,-326.3 0,-386" /></g></g></g></g></g></g></g></g><g
           id="g82"><g
             id="g84" /><g
             id="g126"><g
               style="opacity:0.39999402"
               id="g128"
               clip-path="url(#clipPath86)"><g
                 id="g130"><g
                   id="g132"
                   clip-path="url(#clipPath90)"><g
                     id="g134"><g
                       id="g136" /><g
                       id="g138"
                       mask="url(#mask106)"><g
                         id="g140"><path
                           id="path142"
                           style="fill:url(#radialGradient118);stroke:none"
                           d="M 449,63 C 389.3,3.3 122.8,3.3 63.1,63 3.4,122.7 3.4,389.3 63,449 c 59.6,59.7 326.3,59.6 386,0 59.7,-59.6 59.6,-326.3 0,-386" /></g></g></g></g></g></g></g></g><g
           id="g144"><g
             id="g146" /><g
             id="g188"><g
               style="opacity:0.39999402"
               id="g190"
               clip-path="url(#clipPath148)"><g
                 id="g192"><g
                   id="g194"
                   clip-path="url(#clipPath152)"><g
                     id="g196"><g
                       id="g198" /><g
                       id="g200"
                       mask="url(#mask168)"><g
                         id="g202"><path
                           id="path204"
                           style="fill:url(#radialGradient180);stroke:none"
                           d="m 63,63 c 59.7,-59.7 326.2,-59.7 385.9,0 59.7,59.7 59.7,326.2 0,385.9 C 389.2,508.6 122.7,508.6 63,449 3.3,389.4 3.4,122.7 63,63" /></g></g></g></g></g></g></g></g></g></g><g
       id="g206"><g
         id="g208"><g
           id="g214"><g
             id="g216"><path
               id="path224"
               style="fill:url(#radialGradient218);stroke:none"
               d="M 78.7,433.3 C 8.4,363 8.4,149 78.7,78.7 l 0,0 C 149,8.4 363,8.4 433.3,78.7 l 0,0 c 70.3,70.3 70.3,284.3 0,354.6 l 0,0 C 398.15,468.45 327.075,486.025 256,486.025 l 0,0 c -71.075,0 -142.15,-17.575 -177.3,-52.725" /></g></g></g></g><g
       id="g226"><g
         clip-path="url(#clipPath230)"
         id="g228"><g
           id="g234"><g
             id="g236" /><g
             id="g242"><g
               style="opacity:0.39999402"
               id="g244"
               clip-path="url(#clipPath238)"><g
                 id="g246"
                 transform="translate(92.8,412.7)"><path
                   id="path248"
                   style="fill:#000000;fill-opacity:1;fill-rule:nonzero;stroke:none"
                   d="m 0,0 c 14.3,14.3 37.2,26.2 66.5,34.4 28.7,8.1 62.1,12.4 96.7,12.4 34.5,0 68,-4.3 96.7,-12.4 29.2,-8.3 52.2,-20.2 66.5,-34.4 14.3,-14.3 26.2,-37.2 34.4,-66.5 8.1,-28.7 12.4,-62.1 12.4,-96.7 0,-34.5 -4.3,-68 -12.4,-96.7 -8.3,-29.2 -20.2,-52.2 -34.4,-66.5 -14.3,-14.3 -37.2,-26.2 -66.5,-34.4 -28.7,-8.1 -62.1,-12.4 -96.7,-12.4 -34.5,0 -68,4.3 -96.7,12.4 -29.2,8.3 -52.2,20.2 -66.5,34.4 -14.3,14.3 -26.2,37.2 -34.4,66.5 -8.1,28.7 -12.4,62.2 -12.4,96.7 0,34.5 4.3,68 12.4,96.7 8.3,29.2 20.2,52.2 34.4,66.5 m -14.1,-327.5 c 70.3,-70.3 284.3,-70.3 354.6,0 34.1,34.1 51.6,101.9 52.7,170.8 -1,68.9 -18.6,136.7 -52.7,170.8 C 305.3,49.3 234.3,66.8 163.2,66.8 92.1,66.8 21,49.3 -14.1,14.1 -48.2,-20 -65.7,-87.8 -66.8,-156.7 c 1.1,-68.9 18.6,-136.7 52.7,-170.8" /></g></g></g></g><g
           transform="translate(256,486)"
           id="g250"><path
             id="path252"
             style="fill:#ffffff;fill-opacity:1;fill-rule:nonzero;stroke:none"
             d="m 0,0 c -71.1,0 -142.1,-17.6 -177.3,-52.7 -70.3,-70.3 -70.3,-284.3 0,-354.6 35.2,-35.2 106.2,-52.7 177.3,-52.7 71.1,0 142.1,17.6 177.3,52.7 70.3,70.3 70.3,284.3 0,354.6 C 142.1,-17.6 71.1,0 0,0 m 0,-20 c 34.5,0 68,-4.3 96.7,-12.4 29.2,-8.3 52.2,-20.2 66.5,-34.4 14.3,-14.3 26.2,-37.2 34.4,-66.5 8.1,-28.7 12.4,-62.2 12.4,-96.7 0,-34.5 -4.3,-68 -12.4,-96.7 -8.3,-29.2 -20.2,-52.2 -34.4,-66.5 C 148.9,-407.5 126,-419.4 96.7,-427.6 68,-435.7 34.5,-440 0,-440 c -34.5,0 -68,4.3 -96.7,12.4 -29.2,8.3 -52.2,20.2 -66.5,34.4 -14.3,14.3 -26.2,37.2 -34.4,66.5 -8.1,28.7 -12.4,62.2 -12.4,96.7 0,34.5 4.3,68 12.4,96.7 8.3,29.2 20.2,52.2 34.4,66.5 14.3,14.3 37.2,26.2 66.5,34.4 C -68,-24.3 -34.5,-20 0,-20" /></g><g
           id="g254"><g
             id="g256" /><g
             id="g262"><g
               style="opacity:0.39999402"
               id="g264"
               clip-path="url(#clipPath258)"><g
                 id="g266"
                 transform="translate(286.8791,209.7977)"><path
                   id="path268"
                   style="fill:#000000;fill-opacity:1;fill-rule:nonzero;stroke:none"
                   d="m 0,0 c -11.261,-11.261 -27.142,-15.084 -41.542,-11.472 l -2.159,8.059 c 13.015,-4.858 28.24,-2.056 38.704,8.409 14.216,14.216 14.291,37.215 0.23,51.527 l -6.016,-6.016 -6.209,23.175 23.174,-6.21 10e-4,0.001 0,0 L 0.23,61.52 C 17.05,44.448 16.975,16.975 0,0 m -67.486,-6.196 5.967,5.968 c -0.079,0.077 -0.16,0.15 -0.238,0.229 -17.053,17.053 -17.053,44.702 0,61.756 11.512,11.511 27.852,15.25 42.502,11.22 l 2.307,-8.242 c -13.251,5.445 -29.049,2.788 -39.812,-7.975 -14.295,-14.294 -14.295,-37.47 0,-51.764 0.078,-0.078 0.157,-0.153 0.236,-0.23 l 6.003,6.003 6.209,-23.174 -23.174,6.209 z M 54.766,51.113 c -3.07,1.306 -6.243,2.246 -9.493,2.813 -1.454,32.329 -28.211,58.179 -60.892,58.179 -22.634,0 -42.841,-12.261 -53.389,-31.476 -4.85,3.072 -10.532,4.765 -16.47,4.765 -16.994,0 -30.82,-13.826 -30.82,-30.82 0,-0.174 0.002,-0.348 0.004,-0.522 -7.004,-2.834 -13.265,-7.431 -18.072,-13.353 -6.457,-7.953 -10.013,-17.985 -10.013,-28.245 0,-24.738 20.124,-44.862 44.86,-44.862 l 141.773,0 c 1.163,0 2.266,0.252 3.26,0.704 12.466,2.259 23.498,9.981 29.892,21.018 4.722,6.829 7.215,14.822 7.215,23.14 0,17.615 -11.177,33.101 -27.855,38.659" /></g></g></g></g><g
           id="g270"><g
             id="g272" /><g
             id="g278"><g
               style="opacity:0.94999701"
               id="g280"
               clip-path="url(#clipPath274)"><g
                 id="g282"
                 transform="translate(286.8791,216.1517)"><path
                   id="path284"
                   style="fill:#ffffff;fill-opacity:1;fill-rule:nonzero;stroke:none"
                   d="m 0,0 c -11.261,-11.261 -27.142,-15.084 -41.542,-11.472 l -2.159,8.059 c 13.015,-4.858 28.24,-2.056 38.704,8.409 14.216,14.216 14.291,37.215 0.23,51.527 l -6.016,-6.016 -6.209,23.175 23.174,-6.21 10e-4,0.001 0,0 L 0.23,61.52 C 17.05,44.448 16.975,16.975 0,0 m -67.486,-6.196 5.967,5.968 c -0.079,0.077 -0.16,0.15 -0.238,0.229 -17.053,17.053 -17.053,44.702 0,61.756 11.512,11.511 27.852,15.25 42.502,11.22 l 2.307,-8.242 c -13.251,5.446 -29.049,2.788 -39.812,-7.975 -14.295,-14.294 -14.295,-37.47 0,-51.764 0.078,-0.078 0.157,-0.153 0.236,-0.23 l 6.003,6.003 6.209,-23.174 -23.174,6.209 z M 54.766,51.113 c -3.07,1.306 -6.243,2.246 -9.493,2.813 -1.454,32.329 -28.211,58.179 -60.892,58.179 -22.634,0 -42.841,-12.261 -53.389,-31.476 -4.85,3.072 -10.532,4.765 -16.47,4.765 -16.994,0 -30.82,-13.826 -30.82,-30.82 0,-0.174 0.002,-0.348 0.004,-0.522 -7.004,-2.834 -13.265,-7.431 -18.072,-13.353 -6.457,-7.953 -10.013,-17.985 -10.013,-28.245 0,-24.738 20.124,-44.862 44.86,-44.862 l 141.773,0 c 1.163,0 2.266,0.252 3.26,0.704 12.466,2.259 23.498,9.981 29.892,21.018 4.722,6.829 7.215,14.822 7.215,23.14 0,17.615 -11.177,33.101 -27.855,38.659" /></g></g></g></g></g></g></g></svg>