<?xml version="1.0" encoding="utf-8"?>
<!-- Generator: Adobe Illustrator 18.0.0, SVG Export Plug-In . SVG Version: 6.00 Build 0)  -->
<!DOCTYPE svg PUBLIC "-//W3C//DTD SVG 1.1//EN" "http://www.w3.org/Graphics/SVG/1.1/DTD/svg11.dtd">
<svg version="1.1" id="Layer_2" xmlns="http://www.w3.org/2000/svg" xmlns:xlink="http://www.w3.org/1999/xlink" x="0px" y="0px"
	 viewBox="0 0 512 512" enable-background="new 0 0 512 512" xml:space="preserve">
<g>
	<g opacity="0.4" enable-background="new    ">
		
			<radialGradient id="SVGID_1_" cx="0.7625" cy="514.25" r="118.8609" gradientTransform="matrix(2 0 0 -2 254.5 1284.5)" gradientUnits="userSpaceOnUse">
			<stop  offset="0" style="stop-color:#010101"/>
			<stop  offset="0.8587" style="stop-color:#010101;stop-opacity:0.1413"/>
			<stop  offset="1" style="stop-color:#010101;stop-opacity:0"/>
		</radialGradient>
		<path fill="url(#SVGID_1_)" d="M449,449c-59.7,59.7-326.2,59.7-385.9,0S3.4,122.7,63,63s326.3-59.6,386,0S508.6,389.3,449,449z"/>
	</g>
	<g opacity="0.4" enable-background="new    ">
		
			<radialGradient id="SVGID_2_" cx="1.5285" cy="515.0576" r="133.1551" gradientTransform="matrix(1.4138 -1.4146 -0.979 -0.9784 758.1053 762.0507)" gradientUnits="userSpaceOnUse">
			<stop  offset="0" style="stop-color:#010101"/>
			<stop  offset="0.8587" style="stop-color:#010101;stop-opacity:0.1413"/>
			<stop  offset="1" style="stop-color:#010101;stop-opacity:0"/>
		</radialGradient>
		<path fill="url(#SVGID_2_)" d="M449,449c-59.7,59.7-326.2,59.7-385.9,0S3.4,122.7,63,63s326.3-59.6,386,0S508.6,389.3,449,449z"/>
	</g>
	<g opacity="0.4" enable-background="new    ">
		
			<radialGradient id="SVGID_3_" cx="2.5888" cy="513.4733" r="133.1784" gradientTransform="matrix(-1.4138 -1.4146 0.979 -0.9784 -243.1053 762.0507)" gradientUnits="userSpaceOnUse">
			<stop  offset="0" style="stop-color:#010101"/>
			<stop  offset="0.8587" style="stop-color:#010101;stop-opacity:0.1413"/>
			<stop  offset="1" style="stop-color:#010101;stop-opacity:0"/>
		</radialGradient>
		<path fill="url(#SVGID_3_)" d="M63,449c59.7,59.7,326.2,59.7,385.9,0s59.7-326.2,0-385.9S122.7,3.4,63,63S3.4,389.3,63,449z"/>
	</g>
</g>
<path fill="#0BA4F9" d="M433.3,433.3c-70.3,70.3-284.3,70.3-354.6,0S8.4,149,78.7,78.7s284.3-70.3,354.6,0S503.6,363,433.3,433.3z"
	/>
<g>
	<g>
		<g>
			<circle fill="#FFFFFF" cx="163.7" cy="221.3" r="62"/>
			<g>
				<path d="M203,249.4c0,0-1,0.9-2.8,2.6c-1.8,1.7-4.8,4-8.9,6.5c-4.2,2.3-9.6,4.5-16.2,5.6c-0.8,0.1-1.7,0.3-2.5,0.4
					c-0.9,0.1-1.7,0.1-2.6,0.2c-1.8,0.2-3.6,0.1-5.5,0c-0.9,0-1.9-0.1-2.8-0.2c-1-0.1-1.9-0.2-2.9-0.4c-1-0.2-1.9-0.4-2.9-0.6
					c-1-0.2-2-0.4-3-0.8c-1-0.3-2-0.6-3-1c-0.5-0.1-1-0.4-1.5-0.6c-0.5-0.2-1-0.4-1.5-0.6c-0.5-0.2-1-0.4-1.5-0.7l-0.8-0.3l-0.7-0.4
					c-1-0.5-1.9-1.1-2.9-1.6l-0.7-0.4l-0.7-0.5c-0.5-0.3-0.9-0.7-1.4-1c-0.5-0.3-0.9-0.7-1.4-1c-0.2-0.2-0.5-0.3-0.7-0.5l-0.7-0.6
					c-0.9-0.8-1.8-1.5-2.7-2.3l-0.3-0.3l-0.2-0.1c-0.1-0.1,0,0-0.2-0.2l-0.1-0.1l-0.6-0.6l-1.2-1.2c-0.4-0.4-0.8-0.8-1.2-1.3
					l-1.2-1.5l-1.2-1.5l-1-1.6l-1-1.6c-0.3-0.5-0.6-1.1-0.9-1.7c-0.5-1.1-1.2-2.3-1.6-3.5c-1.9-4.8-2.9-10.1-2.9-15.4
					c0-5.4,1.1-10.9,3.3-16c0.6-1.3,1.1-2.6,1.8-3.8c0.7-1.2,1.3-2.5,2.2-3.6c0.8-1.1,1.6-2.4,2.6-3.4l1.4-1.6l0.4-0.4l0.2-0.2
					c0,0,0.3-0.3,0.2-0.2l0.1-0.1l0.7-0.7l1.4-1.3l1.8-1.4c1.2-1,2.5-1.7,3.8-2.5c2.6-1.4,5.3-2.6,8.3-3.3c5.8-1.5,11.9-1.5,17.8,0
					c2.9,0.8,5.8,1.9,8.4,3.4c0.6,0.4,1.3,0.7,1.9,1.2l1.8,1.3c0.6,0.4,1.2,0.9,1.8,1.4l0.9,0.7l0.4,0.4l0.2,0.2l0.1,0.1
					c-0.1-0.1,0.3,0.3,0.3,0.3l1.4,1.4l0.3,0.4l0.4,0.5l0.8,1l0.8,1l0.6,1c0.4,0.7,0.9,1.3,1.2,2c1.5,2.7,2.4,5.8,3,8.8
					c1.1,6.2,0.1,12.6-2.7,18.2c-0.7,1.4-1.5,2.7-2.4,4c-0.5,0.6-0.9,1.3-1.4,1.8l-0.8,0.9l-0.4,0.4l-0.2,0.2l-0.1,0.1
					c-0.1,0.1,0.1-0.1-0.3,0.3l-1.4,1.3c-0.6,0.5-1.4,1.1-2,1.6c-0.7,0.5-1.4,0.8-2.1,1.3c-0.7,0.4-1.4,0.7-2.1,1
					c-5.8,2.5-12.4,2.7-18.1,0.6c-2.9-1-5.5-2.6-7.7-4.4c-0.5-0.5-1.1-1-1.6-1.5l-0.1-0.1c-0.4-0.4-0.1-0.2-0.3-0.3l-0.1-0.2
					l-0.3-0.3l-0.6-0.7c-0.5-0.7-1-1.4-1.5-2c-0.4-0.7-0.8-1.3-1.1-2c-2.6-5.4-2.6-11.7-0.5-16.8c1.1-2.6,2.7-4.8,4.5-6.6l0.2-0.2
					c0.1-0.1-0.1,0.1,0.2-0.2l0.1-0.1l0.3-0.2l0.6-0.5c0.6-0.4,1.3-0.9,1.8-1.3c0.6-0.3,1.2-0.7,1.8-0.9l0.9-0.4l0.9-0.3
					c5.1-1.6,10.4-0.5,14.2,2.2c0.5,0.3,0.9,0.7,1.4,1.1c0.4,0.4,0.8,0.8,1.2,1.2c0,0,0.3,0.3,0.2,0.2l0.1,0.1l0.1,0.1l0.2,0.3
					c0.1,0.2,0.3,0.3,0.5,0.6c0.4,0.5,0.7,1.1,1,1.6c1.1,2,1.6,4.2,1.6,6.3c0,4.2-2.2,7.9-4.8,9.9c-3.1,2.3-6.6,2.5-9.3,1.7
					c-1.4-0.4-2.5-1.1-3.5-1.9c-0.9-0.8-1.6-1.7-2.1-2.8c-0.9-2-0.8-3.9-0.4-5.3c0.4-1.4,1.1-2.3,1.5-2.8c0.2-0.3,0.4-0.4,0.6-0.6
					c0.1-0.1,0.2-0.2,0.2-0.2l0.7,0.7c0,0,0,0.1-0.1,0.2c-0.1,0.1-0.2,0.3-0.4,0.6c-0.3,0.5-0.7,1.3-0.8,2.4c-0.1,1.1,0.1,2.5,1,3.7
					c0.4,0.6,1,1.1,1.7,1.6c0.7,0.4,1.6,0.8,2.5,0.9c0.9,0.1,1.9,0.1,2.8-0.2c0.5-0.2,0.9-0.3,1.3-0.6c0.2-0.1,0.4-0.3,0.6-0.4
					c0.2-0.2,0.3-0.2,0.5-0.5c0.8-0.8,1.4-1.8,1.8-2.8c0.4-1.1,0.5-2.2,0.4-3.4c-0.1-1.2-0.6-2.3-1.2-3.3c-0.2-0.3-0.3-0.4-0.5-0.6
					c-0.1-0.1-0.7-0.7-0.7-0.7c-0.3-0.2-0.5-0.4-0.8-0.6c-0.3-0.2-0.6-0.4-0.8-0.5c-2.3-1.3-5.3-1.5-7.9-0.5l-0.5,0.2l-0.5,0.2
					c-0.3,0.1-0.6,0.4-0.9,0.5c-0.3,0.2-0.4,0.3-0.7,0.5l-0.6,0.5l-0.3,0.3l-0.1,0.1c0.3-0.3,0.1,0,0.1-0.1l-0.1,0.1
					c-1,1.2-1.8,2.5-2.3,4c-1,2.9-0.7,6.4,0.8,9.2c0.2,0.4,0.4,0.7,0.6,1c0.2,0.3,0.4,0.5,0.6,0.8l0.6,0.6l0.3,0.3l0.2,0.2
					c-0.1-0.1,0.2,0.2-0.1-0.1l0.1,0.1c0.3,0.3,0.7,0.6,1,0.9c1.4,1.1,3,1.9,4.7,2.5c3.4,1.1,7.3,1,10.7-0.5
					c0.4-0.2,0.9-0.4,1.3-0.6c0.4-0.2,0.8-0.5,1.2-0.7c0.3-0.2,0.6-0.4,1-0.7l1.4-1.3c-0.4,0.3-0.1,0.1-0.1,0.1l0.1-0.1l0.1-0.1
					l0.3-0.3l0.5-0.6c0.4-0.4,0.6-0.8,1-1.2c0.7-0.8,1.1-1.7,1.7-2.5c1.9-3.6,2.9-7.9,2.3-12.2c-0.3-2.1-0.8-4.2-1.7-6.2
					c-0.2-0.5-0.5-1-0.8-1.4l-0.4-0.7l-0.4-0.6l-0.4-0.6l-0.2-0.3l-0.3-0.4l-1.3-1.5c-0.1-0.1,0.2,0.2,0.1,0.1l-0.1-0.1l-0.2-0.1
					l-0.3-0.3l-0.6-0.6c-0.4-0.4-0.8-0.8-1.3-1.1l-1.4-1.1c-0.5-0.4-1-0.6-1.5-0.9c-1.9-1.3-4.1-2.1-6.3-2.9
					c-8.9-2.7-19.3-0.5-26.2,5.9l-0.7,0.6l-0.1,0.1c-0.1,0.1,0.1-0.1,0,0l-0.2,0.2l-0.3,0.3l-1.2,1.3c-0.9,0.8-1.5,1.8-2.3,2.8
					c-0.8,0.9-1.3,2-2,3c-0.7,1-1.1,2.1-1.7,3.1c-2,4.3-3.1,8.9-3.3,13.5c-0.2,4.6,0.5,9.2,2,13.5c0.3,1.1,0.8,2.1,1.2,3.1
					c0.2,0.5,0.4,1,0.7,1.5l0.8,1.4l0.8,1.4l0.9,1.3l0.9,1.3c0.3,0.4,0.7,0.9,1.1,1.3c2.8,3.4,6.1,6.1,9.5,8.5
					c0.9,0.5,1.7,1.1,2.6,1.6l0.6,0.4l0.7,0.3c0.5,0.2,0.9,0.4,1.4,0.7c0.4,0.2,0.9,0.4,1.3,0.7c0.4,0.2,0.9,0.4,1.4,0.6
					c0.9,0.3,1.8,0.7,2.7,1c0.9,0.4,1.8,0.6,2.7,0.8c0.9,0.2,1.8,0.5,2.7,0.7c0.9,0.2,1.8,0.3,2.7,0.5c0.9,0.2,1.8,0.3,2.7,0.3
					c1.8,0.1,3.5,0.3,5.2,0.2c0.8,0,1.7,0,2.5-0.1c0.8,0,1.6-0.2,2.4-0.3c6.3-0.7,11.6-2.6,15.7-4.6c4.1-2.1,7-4.2,8.9-5.8
					c1.9-1.6,2.9-2.5,2.9-2.5L203,249.4z"/>
			</g>
		</g>
		<g>
			<circle fill="#FFFFFF" cx="348.3" cy="221.3" r="62"/>
			<g>
				<path d="M396.1,246.6c0,0-1,0.9-2.8,2.6c-1.8,1.7-4.8,4-8.9,6.5c-4.2,2.3-9.6,4.5-16.2,5.6c-0.8,0.1-1.7,0.3-2.5,0.4
					c-0.9,0.1-1.7,0.1-2.6,0.2c-1.8,0.2-3.6,0.1-5.5,0c-0.9,0-1.9-0.1-2.8-0.2c-1-0.1-1.9-0.2-2.9-0.4c-1-0.2-1.9-0.4-2.9-0.6
					c-1-0.2-2-0.4-3-0.8c-1-0.3-2-0.6-3-1c-0.5-0.1-1-0.4-1.5-0.6c-0.5-0.2-1-0.4-1.5-0.6c-0.5-0.2-1-0.4-1.5-0.7l-0.8-0.3l-0.7-0.4
					c-1-0.5-1.9-1.1-2.9-1.6l-0.7-0.4l-0.7-0.5c-0.5-0.3-0.9-0.7-1.4-1c-0.5-0.3-0.9-0.7-1.4-1c-0.2-0.2-0.5-0.3-0.7-0.5l-0.7-0.6
					c-0.9-0.8-1.8-1.5-2.7-2.3l-0.3-0.3l-0.2-0.1c-0.1-0.1,0,0-0.2-0.2l-0.1-0.1l-0.6-0.6l-1.2-1.2c-0.4-0.4-0.8-0.8-1.2-1.3
					l-1.2-1.5l-1.2-1.5l-1-1.6l-1-1.6c-0.3-0.5-0.6-1.1-0.9-1.7c-0.5-1.1-1.2-2.3-1.6-3.5c-1.9-4.8-2.9-10.1-2.9-15.4
					c0-5.4,1.1-10.9,3.3-16c0.6-1.3,1.1-2.6,1.8-3.8c0.7-1.2,1.3-2.5,2.2-3.6c0.8-1.1,1.6-2.4,2.6-3.4l1.4-1.6l0.4-0.4l0.2-0.2
					c0,0,0.3-0.3,0.2-0.2l0.1-0.1l0.7-0.7l1.4-1.3l1.8-1.4c1.2-1,2.5-1.7,3.8-2.5c2.6-1.4,5.3-2.6,8.3-3.3c5.8-1.5,11.9-1.5,17.8,0
					c2.9,0.8,5.8,1.9,8.4,3.4c0.6,0.4,1.3,0.7,1.9,1.2l1.8,1.3c0.6,0.4,1.2,0.9,1.8,1.4l0.9,0.7l0.4,0.4l0.2,0.2l0.1,0.1
					c-0.1-0.1,0.3,0.3,0.3,0.3l1.4,1.4l0.3,0.4l0.4,0.5l0.8,1l0.8,1l0.6,1c0.4,0.7,0.9,1.3,1.2,2c1.5,2.7,2.4,5.8,3,8.8
					c1.1,6.2,0.1,12.6-2.7,18.2c-0.7,1.4-1.5,2.7-2.4,4c-0.5,0.6-0.9,1.3-1.4,1.8l-0.8,0.9l-0.4,0.4l-0.2,0.2l-0.1,0.1
					c-0.1,0.1,0.1-0.1-0.3,0.3l-1.4,1.3c-0.6,0.5-1.4,1.1-2,1.6c-0.7,0.5-1.4,0.8-2.1,1.3c-0.7,0.4-1.4,0.7-2.1,1
					c-5.8,2.5-12.4,2.7-18.1,0.6c-2.9-1-5.5-2.6-7.7-4.4c-0.5-0.5-1.1-1-1.6-1.5l-0.1-0.1c-0.4-0.4-0.1-0.2-0.3-0.3l-0.1-0.2
					l-0.3-0.3l-0.6-0.7c-0.5-0.7-1-1.4-1.5-2c-0.4-0.7-0.8-1.3-1.1-2c-2.6-5.4-2.6-11.7-0.5-16.8c1.1-2.6,2.7-4.8,4.5-6.6l0.2-0.2
					c0.1-0.1-0.1,0.1,0.2-0.2l0.1-0.1l0.3-0.2l0.6-0.5c0.6-0.4,1.3-0.9,1.8-1.3c0.6-0.3,1.2-0.7,1.8-0.9l0.9-0.4l0.9-0.3
					c5.1-1.6,10.4-0.5,14.2,2.2c0.5,0.3,0.9,0.7,1.4,1.1c0.4,0.4,0.8,0.8,1.2,1.2c0,0,0.3,0.3,0.2,0.2l0.1,0.1l0.1,0.1l0.2,0.3
					c0.1,0.2,0.3,0.3,0.5,0.6c0.4,0.5,0.7,1.1,1,1.6c1.1,2,1.6,4.2,1.6,6.3c0,4.2-2.2,7.9-4.8,9.9c-3.1,2.3-6.6,2.5-9.3,1.7
					c-1.4-0.4-2.5-1.1-3.5-1.9c-0.9-0.8-1.6-1.7-2.1-2.8c-0.9-2-0.8-3.9-0.4-5.3c0.4-1.4,1.1-2.3,1.5-2.8c0.2-0.3,0.4-0.4,0.6-0.6
					c0.1-0.1,0.2-0.2,0.2-0.2l0.7,0.7c0,0,0,0.1-0.1,0.2c-0.1,0.1-0.2,0.3-0.4,0.6c-0.3,0.5-0.7,1.3-0.8,2.4c-0.1,1.1,0.1,2.5,1,3.7
					c0.4,0.6,1,1.1,1.7,1.6c0.7,0.4,1.6,0.8,2.5,0.9c0.9,0.1,1.9,0.1,2.8-0.2c0.5-0.2,0.9-0.3,1.3-0.6c0.2-0.1,0.4-0.3,0.6-0.4
					c0.2-0.2,0.3-0.2,0.5-0.5c0.8-0.8,1.4-1.8,1.8-2.8c0.4-1.1,0.5-2.2,0.4-3.4c-0.1-1.2-0.6-2.3-1.2-3.3c-0.2-0.3-0.3-0.4-0.5-0.6
					c-0.1-0.1-0.7-0.7-0.7-0.7c-0.3-0.2-0.5-0.4-0.8-0.6c-0.3-0.2-0.6-0.4-0.8-0.5c-2.3-1.3-5.3-1.5-7.9-0.5l-0.5,0.2L348,205
					c-0.3,0.1-0.6,0.4-0.9,0.5c-0.3,0.2-0.4,0.3-0.7,0.5l-0.6,0.5l-0.3,0.3l-0.1,0.1c0.3-0.3,0.1,0,0.1-0.1l-0.1,0.1
					c-1,1.2-1.8,2.5-2.3,4c-1,2.9-0.7,6.4,0.8,9.2c0.2,0.4,0.4,0.7,0.6,1c0.2,0.3,0.4,0.5,0.6,0.8l0.6,0.6l0.3,0.3l0.2,0.2
					c-0.1-0.1,0.2,0.2-0.1-0.1l0.1,0.1c0.3,0.3,0.7,0.6,1,0.9c1.4,1.1,3,1.9,4.7,2.5c3.4,1.1,7.3,1,10.7-0.5
					c0.4-0.2,0.9-0.4,1.3-0.6c0.4-0.2,0.8-0.5,1.2-0.7c0.3-0.2,0.6-0.4,1-0.7l1.4-1.3c-0.4,0.3-0.1,0.1-0.1,0.1l0.1-0.1l0.1-0.1
					l0.3-0.3l0.5-0.6c0.4-0.4,0.6-0.8,1-1.2c0.7-0.8,1.1-1.7,1.7-2.5c1.9-3.6,2.9-7.9,2.3-12.2c-0.3-2.1-0.8-4.2-1.7-6.2
					c-0.2-0.5-0.5-1-0.8-1.4l-0.4-0.7l-0.4-0.6l-0.4-0.6l-0.2-0.3l-0.3-0.4l-1.3-1.5c-0.1-0.1,0.2,0.2,0.1,0.1l-0.1-0.1l-0.2-0.1
					l-0.3-0.3l-0.6-0.6c-0.4-0.4-0.8-0.8-1.3-1.1l-1.4-1.1c-0.5-0.4-1-0.6-1.5-0.9c-1.9-1.3-4.1-2.1-6.3-2.9
					c-8.9-2.7-19.3-0.5-26.2,5.9l-0.7,0.6l-0.1,0.1c-0.1,0.1,0.1-0.1,0,0l-0.2,0.2l-0.3,0.3l-1.2,1.3c-0.9,0.8-1.5,1.8-2.3,2.8
					c-0.8,0.9-1.3,2-2,3c-0.7,1-1.1,2.1-1.7,3.1c-2,4.3-3.1,8.9-3.3,13.5c-0.2,4.6,0.5,9.2,2,13.5c0.3,1.1,0.8,2.1,1.2,3.1
					c0.2,0.5,0.4,1,0.7,1.5l0.8,1.4l0.8,1.4l0.9,1.3l0.9,1.3c0.3,0.4,0.7,0.9,1.1,1.3c2.8,3.4,6.1,6.1,9.5,8.5
					c0.9,0.5,1.7,1.1,2.6,1.6l0.6,0.4l0.7,0.3c0.5,0.2,0.9,0.4,1.4,0.7c0.4,0.2,0.9,0.4,1.3,0.7c0.4,0.2,0.9,0.4,1.4,0.6
					c0.9,0.3,1.8,0.7,2.7,1c0.9,0.4,1.8,0.6,2.7,0.8c0.9,0.2,1.8,0.5,2.7,0.7c0.9,0.2,1.8,0.3,2.7,0.5c0.9,0.2,1.8,0.3,2.7,0.3
					c1.8,0.1,3.5,0.3,5.2,0.2c0.8,0,1.7,0,2.5-0.1c0.8,0,1.6-0.2,2.4-0.3c6.3-0.7,11.6-2.6,15.7-4.6c4.1-2.1,7-4.2,8.9-5.8
					c1.9-1.6,2.9-2.5,2.9-2.5L396.1,246.6z"/>
			</g>
		</g>
	</g>
	<g>
		<path fill="#F9E075" d="M384.5,335.1c0,47-57.5,17.9-128.5,17.9s-128.5,33.3-128.5-17.9c0-39.1,57.5-9.2,128.5-9.2
			S384.5,297.5,384.5,335.1z"/>
		<path fill="#FFD400" d="M384.5,335.1c0,47-57.5,95.4-128.5,95.4s-128.5-44.2-128.5-95.4c0-39.1,57.5,9.5,128.5,9.5
			S384.5,297.5,384.5,335.1z"/>
	</g>
</g>
</svg>
