<?xml version="1.0" encoding="utf-8"?>
<!-- Generator: Adobe Illustrator 18.0.0, SVG Export Plug-In . SVG Version: 6.00 Build 0)  -->
<!DOCTYPE svg PUBLIC "-//W3C//DTD SVG 1.1//EN" "http://www.w3.org/Graphics/SVG/1.1/DTD/svg11.dtd">
<svg version="1.1" id="Layer_1" xmlns="http://www.w3.org/2000/svg" xmlns:xlink="http://www.w3.org/1999/xlink" x="0px" y="0px"
	 viewBox="0 0 512 512" style="enable-background:new 0 0 512 512;" xml:space="preserve">
<g>
	<g>
		<g style="opacity:0.4;enable-background:new    ;">
			
				<radialGradient id="SVGID_1_" cx="256.525" cy="254.5188" r="237.7344" gradientTransform="matrix(1 0 0 1 -0.5 1.5)" gradientUnits="userSpaceOnUse">
				<stop  offset="0" style="stop-color:#010101"/>
				<stop  offset="0.8587" style="stop-color:#010101;stop-opacity:0.1413"/>
				<stop  offset="1" style="stop-color:#010101;stop-opacity:0"/>
			</radialGradient>
			<path style="fill:url(#SVGID_1_);" d="M449,449c-59.7,59.7-326.2,59.7-385.9,0S3.4,122.7,63,63s326.3-59.6,386,0
				S508.6,389.3,449,449z"/>
		</g>
		<g style="opacity:0.4;enable-background:new    ;">
			
				<radialGradient id="SVGID_2_" cx="257.0394" cy="253.9629" r="266.3242" gradientTransform="matrix(0.7069 -0.7073 0.4895 0.4892 -49.991 313.5403)" gradientUnits="userSpaceOnUse">
				<stop  offset="0" style="stop-color:#010101"/>
				<stop  offset="0.8587" style="stop-color:#010101;stop-opacity:0.1413"/>
				<stop  offset="1" style="stop-color:#010101;stop-opacity:0"/>
			</radialGradient>
			<path style="fill:url(#SVGID_2_);" d="M449,449c-59.7,59.7-326.2,59.7-385.9,0S3.4,122.7,63,63s326.3-59.6,386,0
				S508.6,389.3,449,449z"/>
		</g>
		<g style="opacity:0.4;enable-background:new    ;">
			
				<radialGradient id="SVGID_3_" cx="257.7463" cy="255.0872" r="266.3709" gradientTransform="matrix(-0.7069 -0.7073 -0.4895 0.4892 562.991 313.5403)" gradientUnits="userSpaceOnUse">
				<stop  offset="0" style="stop-color:#010101"/>
				<stop  offset="0.8587" style="stop-color:#010101;stop-opacity:0.1413"/>
				<stop  offset="1" style="stop-color:#010101;stop-opacity:0"/>
			</radialGradient>
			<path style="fill:url(#SVGID_3_);" d="M63,449c59.7,59.7,326.2,59.7,385.9,0s59.7-326.2,0-385.9S122.7,3.4,63,63
				S3.4,389.3,63,449z"/>
		</g>
	</g>
	
		<radialGradient id="SVGID_4_" cx="258.5" cy="697.5" r="261.0019" gradientTransform="matrix(1 0 0 1 -0.5 -565.5)" gradientUnits="userSpaceOnUse">
		<stop  offset="0" style="stop-color:#56EECC"/>
		<stop  offset="1" style="stop-color:#5CCAFF"/>
	</radialGradient>
	<path style="fill:url(#SVGID_4_);" d="M433.3,433.3c-70.3,70.3-284.3,70.3-354.6,0S8.4,149,78.7,78.7s284.3-70.3,354.6,0
		S503.6,363,433.3,433.3z"/>
</g>
<g id="Layer_2">
	<path id="_x3C_Path_x3E__1_" style="opacity:0.95;fill:#FFFFFF;" d="M348.5,243.8c-3.3-1.4-6.7-2.4-10.2-3
		c-1.6-34.9-30.5-62.8-65.7-62.8c-24.4,0-46.3,13.2-57.6,34c-5.2-3.3-11.4-5.1-17.8-5.1c-18.3,0-33.3,14.9-33.3,33.3
		c0,0.2,0,0.4,0,0.6c-7.6,3.1-14.3,8-19.5,14.4c-7,8.6-10.8,19.4-10.8,30.5c0,26.7,21.7,48.4,48.4,48.4H335c1.3,0,2.4-0.3,3.5-0.8
		c13.5-2.4,25.4-10.8,32.3-22.7c5.1-7.4,7.8-16,7.8-25C378.5,266.6,366.5,249.8,348.5,243.8z"/>
	<path d="M270,304.6c0.2-10.7,20.1-10.9,22.8-46.6c0.3-4.4,0.3-9.3-0.4-14.2c-0.7-20.4-17.6-36.8-38.4-36.8
		c-18.1,0-33.3,12.5-37.4,29.2c-2.6,8.2-2.9,17-2.1,23.5c4.8,38.4,23.5,30.9,22.9,47.4c-0.6,16.6-55.7,13-52.5,47.5
		c0.9,9.9,36,16.7,65.9,16.7c31.6,0,76.1-2,76.1-13.3C327.1,318.9,269.7,323,270,304.6z"/>
</g>
</svg>
