<?xml version="1.0" encoding="UTF-8" standalone="no"?>
<svg
   xmlns:dc="http://purl.org/dc/elements/1.1/"
   xmlns:cc="http://creativecommons.org/ns#"
   xmlns:rdf="http://www.w3.org/1999/02/22-rdf-syntax-ns#"
   xmlns:svg="http://www.w3.org/2000/svg"
   xmlns="http://www.w3.org/2000/svg"
   viewBox="0 0 640 640"
   height="640"
   width="640"
   xml:space="preserve"
   version="1.1"
   id="svg2"><metadata
     id="metadata8"><rdf:RDF><cc:Work
         rdf:about=""><dc:format>image/svg+xml</dc:format><dc:type
           rdf:resource="http://purl.org/dc/dcmitype/StillImage" /></cc:Work></rdf:RDF></metadata><defs
     id="defs6"><clipPath
       id="clipPath16"
       clipPathUnits="userSpaceOnUse"><path
         id="path18"
         d="M 0,512 512,512 512,0 0,0 0,512 Z" /></clipPath><clipPath
       id="clipPath24"
       clipPathUnits="userSpaceOnUse"><path
         id="path26"
         d="m 18.325,493.744 475.4,0 0,-475.4877 -475.4,0 0,475.4877 z" /></clipPath><clipPath
       id="clipPath28"
       clipPathUnits="userSpaceOnUse"><path
         id="path30"
         d="M 448.99,63.029 C 389.293,3.332 122.807,3.332 63.11,63.029 3.413,122.726 3.413,389.312 63.01,449.009 c 59.597,59.696 326.283,59.596 385.98,0 59.697,-59.597 59.597,-326.283 0,-385.98" /></clipPath><radialGradient
       id="radialGradient36"
       spreadMethod="pad"
       gradientTransform="matrix(237.72188,0,0,237.72188,256.02499,256)"
       gradientUnits="userSpaceOnUse"
       r="1"
       cy="0"
       cx="0"
       fy="0"
       fx="0"><stop
         id="stop38"
         offset="0"
         style="stop-opacity:1;stop-color:#ffffff" /><stop
         id="stop40"
         offset="0.8587"
         style="stop-opacity:0.14129854;stop-color:#ffffff" /><stop
         id="stop42"
         offset="1"
         style="stop-opacity:0;stop-color:#ffffff" /></radialGradient><mask
       id="mask44"
       height="1"
       width="1"
       y="0"
       x="0"
       maskUnits="userSpaceOnUse"><g
         id="g46"><g
           id="g48"><g
             id="g50"><g
               id="g52"><path
                 id="path54"
                 style="fill:url(#radialGradient36);stroke:none"
                 d="m -32768,32767 65535,0 0,-65535 -65535,0 0,65535 z" /></g></g></g></g></mask><radialGradient
       id="radialGradient56"
       spreadMethod="pad"
       gradientTransform="matrix(237.72188,0,0,237.72188,256.02499,256)"
       gradientUnits="userSpaceOnUse"
       r="1"
       cy="0"
       cx="0"
       fy="0"
       fx="0"><stop
         id="stop58"
         offset="0"
         style="stop-opacity:1;stop-color:#010101" /><stop
         id="stop60"
         offset="0.8587"
         style="stop-opacity:1;stop-color:#010101" /><stop
         id="stop62"
         offset="1"
         style="stop-opacity:1;stop-color:#010101" /></radialGradient><clipPath
       id="clipPath86"
       clipPathUnits="userSpaceOnUse"><path
         id="path88"
         d="m 18.325,493.744 475.4,0 0,-475.4877 -475.4,0 0,475.4877 z" /></clipPath><clipPath
       id="clipPath90"
       clipPathUnits="userSpaceOnUse"><path
         id="path92"
         d="M 448.99,63.029 C 389.293,3.332 122.807,3.332 63.11,63.029 3.413,122.726 3.413,389.312 63.01,449.009 c 59.597,59.696 326.283,59.596 385.98,0 59.697,-59.597 59.597,-326.283 0,-385.98" /></clipPath><radialGradient
       id="radialGradient98"
       spreadMethod="pad"
       gradientTransform="matrix(188.25467,188.36119,-130.35883,130.27895,256.02499,256.04376)"
       gradientUnits="userSpaceOnUse"
       r="1"
       cy="0"
       cx="0"
       fy="0"
       fx="0"><stop
         id="stop100"
         offset="0"
         style="stop-opacity:1;stop-color:#ffffff" /><stop
         id="stop102"
         offset="0.8587"
         style="stop-opacity:0.14129854;stop-color:#ffffff" /><stop
         id="stop104"
         offset="1"
         style="stop-opacity:0;stop-color:#ffffff" /></radialGradient><mask
       id="mask106"
       height="1"
       width="1"
       y="0"
       x="0"
       maskUnits="userSpaceOnUse"><g
         id="g108"><g
           id="g110"><g
             id="g112"><g
               id="g114"><path
                 id="path116"
                 style="fill:url(#radialGradient98);stroke:none"
                 d="m -32768,32767 65535,0 0,-65535 -65535,0 0,65535 z" /></g></g></g></g></mask><radialGradient
       id="radialGradient118"
       spreadMethod="pad"
       gradientTransform="matrix(188.25467,188.36119,-130.35883,130.27895,256.02499,256.04376)"
       gradientUnits="userSpaceOnUse"
       r="1"
       cy="0"
       cx="0"
       fy="0"
       fx="0"><stop
         id="stop120"
         offset="0"
         style="stop-opacity:1;stop-color:#010101" /><stop
         id="stop122"
         offset="0.8587"
         style="stop-opacity:1;stop-color:#010101" /><stop
         id="stop124"
         offset="1"
         style="stop-opacity:1;stop-color:#010101" /></radialGradient><clipPath
       id="clipPath148"
       clipPathUnits="userSpaceOnUse"><path
         id="path150"
         d="m 18.275,493.694 475.387,0 0,-475.4377 -475.387,0 0,475.4377 z" /></clipPath><clipPath
       id="clipPath152"
       clipPathUnits="userSpaceOnUse"><path
         id="path154"
         d="m 63.01,63.029 c 59.697,-59.697 326.183,-59.697 385.88,0 59.697,59.697 59.697,326.183 0,385.88 -59.697,59.696 -326.183,59.696 -385.88,0.1 -59.697,-59.597 -59.597,-326.283 0,-385.98" /></clipPath><radialGradient
       id="radialGradient160"
       spreadMethod="pad"
       gradientTransform="matrix(-188.28767,188.39421,130.38168,130.30179,255.92499,255.99377)"
       gradientUnits="userSpaceOnUse"
       r="1"
       cy="0"
       cx="0"
       fy="0"
       fx="0"><stop
         id="stop162"
         offset="0"
         style="stop-opacity:1;stop-color:#ffffff" /><stop
         id="stop164"
         offset="0.8587"
         style="stop-opacity:0.14129854;stop-color:#ffffff" /><stop
         id="stop166"
         offset="1"
         style="stop-opacity:0;stop-color:#ffffff" /></radialGradient><mask
       id="mask168"
       height="1"
       width="1"
       y="0"
       x="0"
       maskUnits="userSpaceOnUse"><g
         id="g170"><g
           id="g172"><g
             id="g174"><g
               id="g176"><path
                 id="path178"
                 style="fill:url(#radialGradient160);stroke:none"
                 d="m -32768,32767 65535,0 0,-65535 -65535,0 0,65535 z" /></g></g></g></g></mask><radialGradient
       id="radialGradient180"
       spreadMethod="pad"
       gradientTransform="matrix(-188.28767,188.39421,130.38168,130.30179,255.92499,255.99377)"
       gradientUnits="userSpaceOnUse"
       r="1"
       cy="0"
       cx="0"
       fy="0"
       fx="0"><stop
         id="stop182"
         offset="0"
         style="stop-opacity:1;stop-color:#010101" /><stop
         id="stop184"
         offset="0.8587"
         style="stop-opacity:1;stop-color:#010101" /><stop
         id="stop186"
         offset="1"
         style="stop-opacity:1;stop-color:#010101" /></radialGradient><linearGradient
       id="linearGradient218"
       spreadMethod="pad"
       gradientTransform="matrix(0,460,460,0,256,26)"
       gradientUnits="userSpaceOnUse"
       y2="0"
       x2="1"
       y1="0"
       x1="0"><stop
         id="stop220"
         offset="0"
         style="stop-opacity:1;stop-color:#3d3d3d" /><stop
         id="stop222"
         offset="0.3278034"
         style="stop-opacity:1;stop-color:#3d3d3d" /><stop
         id="stop224"
         offset="1"
         style="stop-opacity:1;stop-color:#919396" /></linearGradient><linearGradient
       id="linearGradient240"
       spreadMethod="pad"
       gradientTransform="matrix(0,318,318,0,256,97)"
       gradientUnits="userSpaceOnUse"
       y2="0"
       x2="1"
       y1="0"
       x1="0"><stop
         id="stop242"
         offset="0"
         style="stop-opacity:1;stop-color:#919396" /><stop
         id="stop244"
         offset="0.6721966"
         style="stop-opacity:1;stop-color:#3d3d3d" /><stop
         id="stop246"
         offset="1"
         style="stop-opacity:1;stop-color:#3d3d3d" /></linearGradient><clipPath
       id="clipPath254"
       clipPathUnits="userSpaceOnUse"><path
         id="path256"
         d="m 112.5,256 c 0,-79.126 64.374,-143.5 143.5,-143.5 l 0,0 c 79.126,0 143.5,64.374 143.5,143.5 l 0,0 c 0,79.126 -64.374,143.5 -143.5,143.5 l 0,0 C 176.874,399.5 112.5,335.126 112.5,256" /></clipPath><radialGradient
       id="radialGradient266"
       spreadMethod="pad"
       gradientTransform="matrix(138.5009,0,0,-138.5009,256,256)"
       gradientUnits="userSpaceOnUse"
       r="1"
       cy="0"
       cx="0"
       fy="0"
       fx="0"><stop
         id="stop268"
         offset="0"
         style="stop-opacity:1;stop-color:#ffffff" /><stop
         id="stop270"
         offset="0.79908746"
         style="stop-opacity:1;stop-color:#ffffff" /><stop
         id="stop272"
         offset="1"
         style="stop-opacity:0;stop-color:#ffffff" /></radialGradient><mask
       id="mask274"
       height="1"
       width="1"
       y="0"
       x="0"
       maskUnits="userSpaceOnUse"><g
         id="g276"><g
           id="g278"><g
             id="g280"><g
               id="g282"><path
                 id="path284"
                 style="fill:url(#radialGradient266);stroke:none"
                 d="m -32768,32767 65535,0 0,-65535 -65535,0 0,65535 z" /></g></g></g></g></mask><radialGradient
       id="radialGradient290"
       spreadMethod="pad"
       gradientTransform="matrix(138.5009,0,0,-138.5009,256,256)"
       gradientUnits="userSpaceOnUse"
       r="1"
       cy="0"
       cx="0"
       fy="0"
       fx="0"><stop
         id="stop292"
         offset="0"
         style="stop-opacity:1;stop-color:#000000" /><stop
         id="stop294"
         offset="0.79908746"
         style="stop-opacity:1;stop-color:#000000" /><stop
         id="stop296"
         offset="1"
         style="stop-opacity:1;stop-color:#000000" /></radialGradient><linearGradient
       id="linearGradient312"
       spreadMethod="pad"
       gradientTransform="matrix(0,267,267,0,256,122.5)"
       gradientUnits="userSpaceOnUse"
       y2="0"
       x2="1"
       y1="0"
       x1="0"><stop
         id="stop314"
         offset="0"
         style="stop-opacity:1;stop-color:#000000" /><stop
         id="stop316"
         offset="0.987685"
         style="stop-opacity:1;stop-color:#4d4d4d" /><stop
         id="stop318"
         offset="1"
         style="stop-opacity:1;stop-color:#4d4d4d" /></linearGradient><linearGradient
       id="linearGradient334"
       spreadMethod="pad"
       gradientTransform="matrix(176.30528,176.30528,176.30528,-176.30528,167.84735,167.84735)"
       gradientUnits="userSpaceOnUse"
       y2="0"
       x2="1"
       y1="0"
       x1="0"><stop
         id="stop336"
         offset="0"
         style="stop-opacity:1;stop-color:#000000" /><stop
         id="stop338"
         offset="0.5"
         style="stop-opacity:1;stop-color:#4d4d4d" /><stop
         id="stop340"
         offset="1"
         style="stop-opacity:1;stop-color:#000000" /></linearGradient><linearGradient
       id="linearGradient356"
       spreadMethod="pad"
       gradientTransform="matrix(139.42441,139.42441,139.42441,-139.42441,186.2879,186.28769)"
       gradientUnits="userSpaceOnUse"
       y2="0"
       x2="1"
       y1="0"
       x1="0"><stop
         id="stop358"
         offset="0"
         style="stop-opacity:1;stop-color:#000000" /><stop
         id="stop360"
         offset="0.5"
         style="stop-opacity:1;stop-color:#4d4d4d" /><stop
         id="stop362"
         offset="1"
         style="stop-opacity:1;stop-color:#000000" /></linearGradient><linearGradient
       id="linearGradient378"
       spreadMethod="pad"
       gradientTransform="matrix(114.89252,114.89252,114.89252,-114.89252,198.55392,198.55354)"
       gradientUnits="userSpaceOnUse"
       y2="0"
       x2="1"
       y1="0"
       x1="0"><stop
         id="stop380"
         offset="0"
         style="stop-opacity:1;stop-color:#000000" /><stop
         id="stop382"
         offset="0.5"
         style="stop-opacity:1;stop-color:#4d4d4d" /><stop
         id="stop384"
         offset="1"
         style="stop-opacity:1;stop-color:#000000" /></linearGradient><clipPath
       id="clipPath392"
       clipPathUnits="userSpaceOnUse"><path
         id="path394"
         d="M 0,512 512,512 512,0 0,0 0,512 Z" /></clipPath><clipPath
       id="clipPath424"
       clipPathUnits="userSpaceOnUse"><path
         id="path426"
         d="m 194.479,317.521 123.042,0 0,-123.042 -123.042,0 0,123.042 z" /></clipPath><clipPath
       id="clipPath440"
       clipPathUnits="userSpaceOnUse"><path
         id="path442"
         d="m 212.666,299.334 86.668,0 0,-86.668 -86.668,0 0,86.668 z" /></clipPath><clipPath
       id="clipPath456"
       clipPathUnits="userSpaceOnUse"><path
         id="path458"
         d="m 234.037,277.963 43.926,0 0,-43.926 -43.926,0 0,43.926 z" /></clipPath><clipPath
       id="clipPath472"
       clipPathUnits="userSpaceOnUse"><path
         id="path474"
         d="m 157.366,256 c 0,-54.387 44.247,-98.634 98.634,-98.634 l 0,0 c 54.387,0 98.634,44.247 98.634,98.634 l 0,0 c 0,54.387 -44.247,98.634 -98.634,98.634 l 0,0 c -54.387,0 -98.634,-44.247 -98.634,-98.634" /></clipPath><radialGradient
       id="radialGradient484"
       spreadMethod="pad"
       gradientTransform="matrix(110.66867,0,0,-110.66867,256,256)"
       gradientUnits="userSpaceOnUse"
       r="1"
       cy="0"
       cx="0"
       fy="0"
       fx="0"><stop
         id="stop486"
         offset="0"
         style="stop-opacity:0;stop-color:#ffffff" /><stop
         id="stop488"
         offset="0.72822247"
         style="stop-opacity:0;stop-color:#ffffff" /><stop
         id="stop490"
         offset="1"
         style="stop-opacity:1;stop-color:#ffffff" /></radialGradient><mask
       id="mask492"
       height="1"
       width="1"
       y="0"
       x="0"
       maskUnits="userSpaceOnUse"><g
         id="g494"><g
           id="g496"><g
             id="g498"><g
               id="g500"><path
                 id="path502"
                 style="fill:url(#radialGradient484);stroke:none"
                 d="m -32768,32767 65535,0 0,-65535 -65535,0 0,65535 z" /></g></g></g></g></mask><radialGradient
       id="radialGradient508"
       spreadMethod="pad"
       gradientTransform="matrix(110.66867,0,0,-110.66867,256,256)"
       gradientUnits="userSpaceOnUse"
       r="1"
       cy="0"
       cx="0"
       fy="0"
       fx="0"><stop
         id="stop510"
         offset="0"
         style="stop-opacity:1;stop-color:#000000" /><stop
         id="stop512"
         offset="0.72822247"
         style="stop-opacity:1;stop-color:#000000" /><stop
         id="stop514"
         offset="1"
         style="stop-opacity:1;stop-color:#000000" /></radialGradient></defs><g
     transform="matrix(1.25,0,0,-1.25,0,640)"
     id="g10"><g
       id="g12"><g
         clip-path="url(#clipPath16)"
         id="g14"><g
           id="g20"><g
             id="g22" /><g
             id="g64"><g
               style="opacity:0.39999402"
               id="g66"
               clip-path="url(#clipPath24)"><g
                 id="g68"><g
                   id="g70"
                   clip-path="url(#clipPath28)"><g
                     id="g72"><g
                       id="g74" /><g
                       id="g76"
                       mask="url(#mask44)"><g
                         id="g78"><path
                           id="path80"
                           style="fill:url(#radialGradient56);stroke:none"
                           d="M 448.99,63.029 C 389.293,3.332 122.807,3.332 63.11,63.029 3.413,122.726 3.413,389.312 63.01,449.009 c 59.597,59.696 326.283,59.596 385.98,0 59.697,-59.597 59.597,-326.283 0,-385.98" /></g></g></g></g></g></g></g></g><g
           id="g82"><g
             id="g84" /><g
             id="g126"><g
               style="opacity:0.39999402"
               id="g128"
               clip-path="url(#clipPath86)"><g
                 id="g130"><g
                   id="g132"
                   clip-path="url(#clipPath90)"><g
                     id="g134"><g
                       id="g136" /><g
                       id="g138"
                       mask="url(#mask106)"><g
                         id="g140"><path
                           id="path142"
                           style="fill:url(#radialGradient118);stroke:none"
                           d="M 448.99,63.029 C 389.293,3.332 122.807,3.332 63.11,63.029 3.413,122.726 3.413,389.312 63.01,449.009 c 59.597,59.696 326.283,59.596 385.98,0 59.697,-59.597 59.597,-326.283 0,-385.98" /></g></g></g></g></g></g></g></g><g
           id="g144"><g
             id="g146" /><g
             id="g188"><g
               style="opacity:0.39999402"
               id="g190"
               clip-path="url(#clipPath148)"><g
                 id="g192"><g
                   id="g194"
                   clip-path="url(#clipPath152)"><g
                     id="g196"><g
                       id="g198" /><g
                       id="g200"
                       mask="url(#mask168)"><g
                         id="g202"><path
                           id="path204"
                           style="fill:url(#radialGradient180);stroke:none"
                           d="m 63.01,63.029 c 59.697,-59.697 326.183,-59.697 385.88,0 59.697,59.697 59.697,326.183 0,385.88 -59.697,59.696 -326.183,59.696 -385.88,0.1 -59.697,-59.597 -59.597,-326.283 0,-385.98" /></g></g></g></g></g></g></g></g></g></g><g
       id="g206"><g
         id="g208"><g
           id="g214"><g
             id="g216"><path
               id="path226"
               style="fill:url(#linearGradient218);stroke:none"
               d="M 78.721,433.279 C 8.427,362.985 8.427,149.015 78.721,78.721 l 0,0 c 70.294,-70.294 284.264,-70.294 354.558,0 l 0,0 c 70.294,70.294 70.294,284.264 0,354.558 l 0,0 C 398.132,468.426 327.066,486 256,486 l 0,0 C 184.934,486 113.868,468.426 78.721,433.279" /></g></g></g></g><g
       id="g228"><g
         id="g230"><g
           id="g236"><g
             id="g238"><path
               id="path248"
               style="fill:url(#linearGradient240);stroke:none"
               d="M 97,256 C 97,168.187 168.187,97 256,97 l 0,0 c 87.814,0 159,71.187 159,159 l 0,0 c 0,87.814 -71.186,159 -159,159 l 0,0 C 168.187,415 97,343.814 97,256" /></g></g></g></g><g
       id="g250"><g
         clip-path="url(#clipPath254)"
         id="g252"><g
           id="g258"><g
             id="g260" /><g
             mask="url(#mask274)"
             id="g286"><g
               id="g288"><path
                 id="path298"
                 style="fill:url(#radialGradient290);stroke:none"
                 d="m 112.5,256 c 0,-79.126 64.374,-143.5 143.5,-143.5 l 0,0 c 79.126,0 143.5,64.374 143.5,143.5 l 0,0 c 0,79.126 -64.374,143.5 -143.5,143.5 l 0,0 C 176.874,399.5 112.5,335.126 112.5,256" /></g></g></g></g></g><g
       id="g300"><g
         id="g302"><g
           id="g308"><g
             id="g310"><path
               id="path320"
               style="fill:url(#linearGradient312);stroke:none"
               d="m 122.5,256 c 0,-73.73 59.77,-133.5 133.5,-133.5 l 0,0 c 73.73,0 133.5,59.77 133.5,133.5 l 0,0 c 0,73.73 -59.77,133.5 -133.5,133.5 l 0,0 C 182.27,389.5 122.5,329.73 122.5,256" /></g></g></g></g><g
       id="g322"><g
         id="g324"><g
           id="g330"><g
             id="g332"><path
               id="path342"
               style="fill:url(#linearGradient334);stroke:none"
               d="m 131.333,256 c 0,-68.851 55.816,-124.667 124.667,-124.667 l 0,0 c 68.851,0 124.667,55.816 124.667,124.667 l 0,0 c 0,68.851 -55.816,124.667 -124.667,124.667 l 0,0 C 187.149,380.667 131.333,324.851 131.333,256" /></g></g></g></g><g
       id="g344"><g
         id="g346"><g
           id="g352"><g
             id="g354"><path
               id="path364"
               style="fill:url(#linearGradient356);stroke:none"
               d="m 157.366,256 c 0,-54.387 44.247,-98.634 98.634,-98.634 l 0,0 c 54.387,0 98.634,44.247 98.634,98.634 l 0,0 c 0,54.387 -44.247,98.634 -98.634,98.634 l 0,0 c -54.387,0 -98.634,-44.247 -98.634,-98.634" /></g></g></g></g><g
       id="g366"><g
         id="g368"><g
           id="g374"><g
             id="g376"><path
               id="path386"
               style="fill:url(#linearGradient378);stroke:none"
               d="m 174.721,256 c 0,-44.818 36.461,-81.279 81.279,-81.279 l 0,0 c 44.818,0 81.279,36.461 81.279,81.279 l 0,0 c 0,44.818 -36.461,81.279 -81.279,81.279 l 0,0 c -44.818,0 -81.279,-36.461 -81.279,-81.279" /></g></g></g></g><g
       id="g388"><g
         clip-path="url(#clipPath392)"
         id="g390"><g
           transform="translate(270.9305,280.812)"
           id="g396"><path
             id="path398"
             style="fill:#e84c3d;fill-opacity:1;fill-rule:nonzero;stroke:none"
             d="m 0,0 -58.166,63.866 c 13.512,6.608 28.049,9.956 43.235,9.956 18.846,0 37.129,-5.321 52.939,-15.396 L 12.494,-21.641 0,0 Z" /></g><g
           transform="translate(284.9528,255.476)"
           id="g400"><path
             id="path402"
             style="fill:#9c56b8;fill-opacity:1;fill-rule:nonzero;stroke:none"
             d="M 0,0 26.223,82.293 C 53.468,63.883 69.682,33.444 69.682,0.524 c 0,-1.402 -0.031,-2.82 -0.09,-4.229 L -12.494,-21.641 0,0 Z" /></g><g
           transform="translate(157.604,262.901)"
           id="g404"><path
             id="path406"
             style="fill:#f1c50e;fill-opacity:1;fill-rule:nonzero;stroke:none"
             d="m 0,0 c 2.365,34.04 22.437,64.714 52.773,80.57 l 56.59,-62.135 -24.99,0 L 0,0 Z" /></g><g
           transform="translate(256,157.3655)"
           id="g408"><path
             id="path410"
             style="fill:#00bd9b;fill-opacity:1;fill-rule:nonzero;stroke:none"
             d="M 0,0 C -18.846,0 -37.129,5.322 -52.938,15.397 L -27.425,95.464 -14.93,73.822 43.235,9.956 C 29.724,3.349 15.187,0 0,0" /></g><g
           transform="translate(200.8237,174.2314)"
           id="g412"><path
             id="path414"
             style="fill:#51d88b;fill-opacity:1;fill-rule:nonzero;stroke:none"
             d="m 0,0 c -27.244,18.41 -43.458,48.849 -43.458,81.769 0,1.4 0.03,2.819 0.089,4.229 L 38.718,103.933 26.223,82.293 0,0 Z" /></g><g
           transform="translate(245.034,230.6637)"
           id="g416"><path
             id="path418"
             style="fill:#2d98e0;fill-opacity:1;fill-rule:nonzero;stroke:none"
             d="m 0,0 24.989,0 84.373,18.436 C 106.997,-15.604 86.925,-46.278 56.588,-62.135 L 0,0 Z" /></g><g
           id="g420"><g
             id="g422" /><g
             id="g428"><g
               style="opacity:0.30000299"
               id="g430"
               clip-path="url(#clipPath424)"><g
                 id="g432"
                 transform="translate(317.5214,256)"><path
                   id="path434"
                   style="fill:#000000;fill-opacity:1;fill-rule:nonzero;stroke:none"
                   d="m 0,0 c 0,-33.977 -27.544,-61.521 -61.521,-61.521 -33.978,0 -61.522,27.544 -61.522,61.521 0,33.977 27.544,61.521 61.522,61.521 C -27.544,61.521 0,33.977 0,0" /></g></g></g></g><g
           id="g436"><g
             id="g438" /><g
             id="g444"><g
               style="opacity:0.30000299"
               id="g446"
               clip-path="url(#clipPath440)"><g
                 id="g448"
                 transform="translate(299.3336,256)"><path
                   id="path450"
                   style="fill:#000000;fill-opacity:1;fill-rule:nonzero;stroke:none"
                   d="m 0,0 c 0,-23.932 -19.401,-43.334 -43.334,-43.334 -23.932,0 -43.333,19.402 -43.333,43.334 0,23.932 19.401,43.334 43.333,43.334 C -19.401,43.334 0,23.932 0,0" /></g></g></g></g><g
           id="g452"><g
             id="g454" /><g
             id="g460"><g
               style="opacity:0.30000299"
               id="g462"
               clip-path="url(#clipPath456)"><g
                 id="g464"
                 transform="translate(277.9629,256)"><path
                   id="path466"
                   style="fill:#000000;fill-opacity:1;fill-rule:nonzero;stroke:none"
                   d="m 0,0 c 0,-12.13 -9.833,-21.963 -21.963,-21.963 -12.13,0 -21.963,9.833 -21.963,21.963 0,12.13 9.833,21.963 21.963,21.963 C -9.833,21.963 0,12.13 0,0" /></g></g></g></g></g></g><g
       id="g468"><g
         clip-path="url(#clipPath472)"
         id="g470"><g
           id="g476"><g
             id="g478" /><g
             mask="url(#mask492)"
             id="g504"><g
               id="g506"><path
                 id="path516"
                 style="fill:url(#radialGradient508);stroke:none"
                 d="m 157.366,256 c 0,-54.387 44.247,-98.634 98.634,-98.634 l 0,0 c 54.387,0 98.634,44.247 98.634,98.634 l 0,0 c 0,54.387 -44.247,98.634 -98.634,98.634 l 0,0 c -54.387,0 -98.634,-44.247 -98.634,-98.634" /></g></g></g></g></g></g></svg>