<?xml version="1.0" encoding="UTF-8" standalone="no"?>
<svg
   xmlns:dc="http://purl.org/dc/elements/1.1/"
   xmlns:cc="http://creativecommons.org/ns#"
   xmlns:rdf="http://www.w3.org/1999/02/22-rdf-syntax-ns#"
   xmlns:svg="http://www.w3.org/2000/svg"
   xmlns="http://www.w3.org/2000/svg"
   xml:space="preserve"
   style="enable-background:new 0 0 512 512;"
   viewBox="0 0 512 512"
   y="0px"
   x="0px"
   id="Layer_2"
   version="1.1"><metadata
     id="metadata53"><rdf:RDF><cc:Work
         rdf:about=""><dc:format>image/svg+xml</dc:format><dc:type
           rdf:resource="http://purl.org/dc/dcmitype/StillImage" /><dc:title></dc:title></cc:Work></rdf:RDF></metadata><defs
     id="defs51" /><g
     id="g3"><g
       id="g5"
       style="opacity:0.4;enable-background:new    ;"><radialGradient
         gradientUnits="userSpaceOnUse"
         gradientTransform="matrix(2 0 0 -2 254.5 1284.5)"
         r="118.8609"
         cy="514.25"
         cx="0.7625"
         id="SVGID_1_"><stop
           id="stop8"
           style="stop-color:#010101"
           offset="0" /><stop
           id="stop10"
           style="stop-color:#010101;stop-opacity:0.1413"
           offset="0.8587" /><stop
           id="stop12"
           style="stop-color:#010101;stop-opacity:0"
           offset="1" /></radialGradient><path
         id="path14"
         d="M449,449c-59.7,59.7-326.2,59.7-385.9,0S3.4,122.7,63,63s326.3-59.6,386,0    S508.6,389.3,449,449z"
         style="fill:url(#SVGID_1_);" /></g><g
       id="g16"
       style="opacity:0.4;enable-background:new    ;"><radialGradient
         gradientUnits="userSpaceOnUse"
         gradientTransform="matrix(1.4138 -1.4146 -0.979 -0.9784 758.1053 762.0507)"
         r="133.1551"
         cy="515.0576"
         cx="1.5285"
         id="SVGID_2_"><stop
           id="stop19"
           style="stop-color:#010101"
           offset="0" /><stop
           id="stop21"
           style="stop-color:#010101;stop-opacity:0.1413"
           offset="0.8587" /><stop
           id="stop23"
           style="stop-color:#010101;stop-opacity:0"
           offset="1" /></radialGradient><path
         id="path25"
         d="M449,449c-59.7,59.7-326.2,59.7-385.9,0S3.4,122.7,63,63s326.3-59.6,386,0    S508.6,389.3,449,449z"
         style="fill:url(#SVGID_2_);" /></g><g
       id="g27"
       style="opacity:0.4;enable-background:new    ;"><radialGradient
         gradientUnits="userSpaceOnUse"
         gradientTransform="matrix(-1.4138 -1.4146 0.979 -0.9784 -243.1053 762.0507)"
         r="133.1784"
         cy="513.4733"
         cx="2.5888"
         id="SVGID_3_"><stop
           id="stop30"
           style="stop-color:#010101"
           offset="0" /><stop
           id="stop32"
           style="stop-color:#010101;stop-opacity:0.1413"
           offset="0.8587" /><stop
           id="stop34"
           style="stop-color:#010101;stop-opacity:0"
           offset="1" /></radialGradient><path
         id="path36"
         d="M63,449c59.7,59.7,326.2,59.7,385.9,0s59.7-326.2,0-385.9S122.7,3.4,63,63S3.4,389.3,63,449    z"
         style="fill:url(#SVGID_3_);" /></g></g><radialGradient
     gradientUnits="userSpaceOnUse"
     r="305.592"
     cy="154"
     cx="254"
     id="SVGID_4_"><stop
       id="stop39"
       style="stop-color:#C7F994"
       offset="0" /><stop
       id="stop41"
       style="stop-color:#87CF3E"
       offset="1" /></radialGradient><path
     id="path43"
     d="M433.3,433.3c-70.3,70.3-284.3,70.3-354.6,0S8.4,149,78.7,78.7s284.3-70.3,354.6,0  S503.6,363,433.3,433.3z"
     style="fill:url(#SVGID_4_);" /><g
     id="g45"><path
       d="   M269.8,203.8c-8.3,0-15.8,3.1-21.7,9.1c-6,6-9.1,13.5-9.1,22v42.8h19.4v-42.8c0-3.2,1.1-5.8,3.4-8.1c2.3-2.3,4.8-3.4,8-3.4   c3.3,0,5.7,1.1,8,3.4c2.3,2.3,3.4,4.9,3.4,8.1v42.8h19.4v-42.8c0-3.2,1.1-5.8,3.4-8.1c2.3-2.4,4.8-3.4,8-3.4c3.2,0,5.7,1.1,8,3.4   c2.3,2.3,3.4,4.9,3.4,8.1l0.1,50c0,10.7-10.2,19.7-23.2,19.7l-62.6-0.2c-10.1,0-18.7-9.8-18.7-22.4v-94.2h-18.4v97.9   c0,10.4,3.8,19.5,11.2,26.9c6.3,6.2,13.9,10.3,22.5,11.2l69.8,0c10.7,0,20.1-4,27.7-11.7h0c6.5-6.6,10.2-14.6,11.2-23.5l-0.1-53.5   c0-8.5-3.1-16-9.1-22c-6-6-13.4-9.1-21.7-9.1c-8.2,0-15.4,3-21.2,8.6C285.1,206.8,278,203.8,269.8,203.8L269.8,203.8z"
       style="fill:#FFFFFF;"
       id="_x3C_Path_x3E__1_" /><path
       d="   M247.8,362.4c-44.2,0-82.5-33.5-82.5-77.6l0-53.6v-13.7h-28v-68.1l118.1,0.6l36.9,0.1c44.2,0,82.5,33.4,82.5,77.6v134.7H247.8   L247.8,362.4L247.8,362.4z M356.7,326.3c0-29.3,0-98.5,0-98.5c0-32.9-28.9-59.6-64.5-59.6h-37v-0.1l-100-0.4v32c0,0,4,0,11.2,0   c7.6,0,16.8,7.1,16.8,17.6l0.1,67.5c0,32.9,28.9,59.6,64.5,59.6h87.9C346.9,344.4,356.7,337.3,356.7,326.3L356.7,326.3z"
       style="fill:#FFFFFF;"
       id="_x3C_Path_x3E_" /></g></svg>