<?xml version="1.0" encoding="UTF-8" standalone="no"?>
<svg
   xmlns:dc="http://purl.org/dc/elements/1.1/"
   xmlns:cc="http://creativecommons.org/ns#"
   xmlns:rdf="http://www.w3.org/1999/02/22-rdf-syntax-ns#"
   xmlns:svg="http://www.w3.org/2000/svg"
   xmlns="http://www.w3.org/2000/svg"
   viewBox="0 0 640 640"
   height="640"
   width="640"
   xml:space="preserve"
   version="1.1"
   id="svg2"><metadata
     id="metadata8"><rdf:RDF><cc:Work
         rdf:about=""><dc:format>image/svg+xml</dc:format><dc:type
           rdf:resource="http://purl.org/dc/dcmitype/StillImage" /></cc:Work></rdf:RDF></metadata><defs
     id="defs6"><clipPath
       id="clipPath16"
       clipPathUnits="userSpaceOnUse"><path
         id="path18"
         d="M 0,512 512,512 512,0 0,0 0,512 Z" /></clipPath><clipPath
       id="clipPath24"
       clipPathUnits="userSpaceOnUse"><path
         id="path26"
         d="m 18.325,493.744 475.4,0 0,-475.4877 -475.4,0 0,475.4877 z" /></clipPath><clipPath
       id="clipPath28"
       clipPathUnits="userSpaceOnUse"><path
         id="path30"
         d="M 448.99,63.029 C 389.293,3.332 122.807,3.332 63.11,63.029 3.413,122.726 3.413,389.312 63.01,449.009 c 59.597,59.696 326.283,59.596 385.98,0 59.697,-59.597 59.597,-326.283 0,-385.98" /></clipPath><radialGradient
       id="radialGradient36"
       spreadMethod="pad"
       gradientTransform="matrix(237.72188,0,0,237.72188,256.02499,256)"
       gradientUnits="userSpaceOnUse"
       r="1"
       cy="0"
       cx="0"
       fy="0"
       fx="0"><stop
         id="stop38"
         offset="0"
         style="stop-opacity:1;stop-color:#ffffff" /><stop
         id="stop40"
         offset="0.8587"
         style="stop-opacity:0.14129854;stop-color:#ffffff" /><stop
         id="stop42"
         offset="1"
         style="stop-opacity:0;stop-color:#ffffff" /></radialGradient><mask
       id="mask44"
       height="1"
       width="1"
       y="0"
       x="0"
       maskUnits="userSpaceOnUse"><g
         id="g46"><g
           id="g48"><g
             id="g50"><g
               id="g52"><path
                 id="path54"
                 style="fill:url(#radialGradient36);stroke:none"
                 d="m -32768,32767 65535,0 0,-65535 -65535,0 0,65535 z" /></g></g></g></g></mask><radialGradient
       id="radialGradient56"
       spreadMethod="pad"
       gradientTransform="matrix(237.72188,0,0,237.72188,256.02499,256)"
       gradientUnits="userSpaceOnUse"
       r="1"
       cy="0"
       cx="0"
       fy="0"
       fx="0"><stop
         id="stop58"
         offset="0"
         style="stop-opacity:1;stop-color:#010101" /><stop
         id="stop60"
         offset="0.8587"
         style="stop-opacity:1;stop-color:#010101" /><stop
         id="stop62"
         offset="1"
         style="stop-opacity:1;stop-color:#010101" /></radialGradient><clipPath
       id="clipPath86"
       clipPathUnits="userSpaceOnUse"><path
         id="path88"
         d="m 18.325,493.744 475.4,0 0,-475.4877 -475.4,0 0,475.4877 z" /></clipPath><clipPath
       id="clipPath90"
       clipPathUnits="userSpaceOnUse"><path
         id="path92"
         d="M 448.99,63.029 C 389.293,3.332 122.807,3.332 63.11,63.029 3.413,122.726 3.413,389.312 63.01,449.009 c 59.597,59.696 326.283,59.596 385.98,0 59.697,-59.597 59.597,-326.283 0,-385.98" /></clipPath><radialGradient
       id="radialGradient98"
       spreadMethod="pad"
       gradientTransform="matrix(188.25467,188.36119,-130.35883,130.27895,256.02499,256.04376)"
       gradientUnits="userSpaceOnUse"
       r="1"
       cy="0"
       cx="0"
       fy="0"
       fx="0"><stop
         id="stop100"
         offset="0"
         style="stop-opacity:1;stop-color:#ffffff" /><stop
         id="stop102"
         offset="0.8587"
         style="stop-opacity:0.14129854;stop-color:#ffffff" /><stop
         id="stop104"
         offset="1"
         style="stop-opacity:0;stop-color:#ffffff" /></radialGradient><mask
       id="mask106"
       height="1"
       width="1"
       y="0"
       x="0"
       maskUnits="userSpaceOnUse"><g
         id="g108"><g
           id="g110"><g
             id="g112"><g
               id="g114"><path
                 id="path116"
                 style="fill:url(#radialGradient98);stroke:none"
                 d="m -32768,32767 65535,0 0,-65535 -65535,0 0,65535 z" /></g></g></g></g></mask><radialGradient
       id="radialGradient118"
       spreadMethod="pad"
       gradientTransform="matrix(188.25467,188.36119,-130.35883,130.27895,256.02499,256.04376)"
       gradientUnits="userSpaceOnUse"
       r="1"
       cy="0"
       cx="0"
       fy="0"
       fx="0"><stop
         id="stop120"
         offset="0"
         style="stop-opacity:1;stop-color:#010101" /><stop
         id="stop122"
         offset="0.8587"
         style="stop-opacity:1;stop-color:#010101" /><stop
         id="stop124"
         offset="1"
         style="stop-opacity:1;stop-color:#010101" /></radialGradient><clipPath
       id="clipPath148"
       clipPathUnits="userSpaceOnUse"><path
         id="path150"
         d="m 18.275,493.694 475.387,0 0,-475.4377 -475.387,0 0,475.4377 z" /></clipPath><clipPath
       id="clipPath152"
       clipPathUnits="userSpaceOnUse"><path
         id="path154"
         d="m 63.01,63.029 c 59.697,-59.697 326.183,-59.697 385.88,0 59.697,59.697 59.697,326.183 0,385.88 -59.697,59.696 -326.183,59.696 -385.88,0.1 -59.697,-59.597 -59.597,-326.283 0,-385.98" /></clipPath><radialGradient
       id="radialGradient160"
       spreadMethod="pad"
       gradientTransform="matrix(-188.28767,188.39421,130.38168,130.30179,255.92499,255.99377)"
       gradientUnits="userSpaceOnUse"
       r="1"
       cy="0"
       cx="0"
       fy="0"
       fx="0"><stop
         id="stop162"
         offset="0"
         style="stop-opacity:1;stop-color:#ffffff" /><stop
         id="stop164"
         offset="0.8587"
         style="stop-opacity:0.14129854;stop-color:#ffffff" /><stop
         id="stop166"
         offset="1"
         style="stop-opacity:0;stop-color:#ffffff" /></radialGradient><mask
       id="mask168"
       height="1"
       width="1"
       y="0"
       x="0"
       maskUnits="userSpaceOnUse"><g
         id="g170"><g
           id="g172"><g
             id="g174"><g
               id="g176"><path
                 id="path178"
                 style="fill:url(#radialGradient160);stroke:none"
                 d="m -32768,32767 65535,0 0,-65535 -65535,0 0,65535 z" /></g></g></g></g></mask><radialGradient
       id="radialGradient180"
       spreadMethod="pad"
       gradientTransform="matrix(-188.28767,188.39421,130.38168,130.30179,255.92499,255.99377)"
       gradientUnits="userSpaceOnUse"
       r="1"
       cy="0"
       cx="0"
       fy="0"
       fx="0"><stop
         id="stop182"
         offset="0"
         style="stop-opacity:1;stop-color:#010101" /><stop
         id="stop184"
         offset="0.8587"
         style="stop-opacity:1;stop-color:#010101" /><stop
         id="stop186"
         offset="1"
         style="stop-opacity:1;stop-color:#010101" /></radialGradient></defs><g
     transform="matrix(1.25,0,0,-1.25,0,640)"
     id="g10"><g
       id="g12"><g
         clip-path="url(#clipPath16)"
         id="g14"><g
           id="g20"><g
             id="g22" /><g
             id="g64"><g
               style="opacity:0.39999402"
               id="g66"
               clip-path="url(#clipPath24)"><g
                 id="g68"><g
                   id="g70"
                   clip-path="url(#clipPath28)"><g
                     id="g72"><g
                       id="g74" /><g
                       id="g76"
                       mask="url(#mask44)"><g
                         id="g78"><path
                           id="path80"
                           style="fill:url(#radialGradient56);stroke:none"
                           d="M 448.99,63.029 C 389.293,3.332 122.807,3.332 63.11,63.029 3.413,122.726 3.413,389.312 63.01,449.009 c 59.597,59.696 326.283,59.596 385.98,0 59.697,-59.597 59.597,-326.283 0,-385.98" /></g></g></g></g></g></g></g></g><g
           id="g82"><g
             id="g84" /><g
             id="g126"><g
               style="opacity:0.39999402"
               id="g128"
               clip-path="url(#clipPath86)"><g
                 id="g130"><g
                   id="g132"
                   clip-path="url(#clipPath90)"><g
                     id="g134"><g
                       id="g136" /><g
                       id="g138"
                       mask="url(#mask106)"><g
                         id="g140"><path
                           id="path142"
                           style="fill:url(#radialGradient118);stroke:none"
                           d="M 448.99,63.029 C 389.293,3.332 122.807,3.332 63.11,63.029 3.413,122.726 3.413,389.312 63.01,449.009 c 59.597,59.696 326.283,59.596 385.98,0 59.697,-59.597 59.597,-326.283 0,-385.98" /></g></g></g></g></g></g></g></g><g
           id="g144"><g
             id="g146" /><g
             id="g188"><g
               style="opacity:0.39999402"
               id="g190"
               clip-path="url(#clipPath148)"><g
                 id="g192"><g
                   id="g194"
                   clip-path="url(#clipPath152)"><g
                     id="g196"><g
                       id="g198" /><g
                       id="g200"
                       mask="url(#mask168)"><g
                         id="g202"><path
                           id="path204"
                           style="fill:url(#radialGradient180);stroke:none"
                           d="m 63.01,63.029 c 59.697,-59.697 326.183,-59.697 385.88,0 59.697,59.697 59.697,326.183 0,385.88 -59.697,59.696 -326.183,59.696 -385.88,0.1 -59.697,-59.597 -59.597,-326.283 0,-385.98" /></g></g></g></g></g></g></g></g><g
           transform="translate(433.279,78.721)"
           id="g206"><path
             id="path208"
             style="fill:#eaeaea;fill-opacity:1;fill-rule:nonzero;stroke:none"
             d="m 0,0 c -70.294,-70.294 -284.264,-70.294 -354.558,0 -70.294,70.294 -70.294,284.264 0,354.558 70.294,70.294 284.264,70.294 354.558,0 C 70.294,284.264 70.295,70.294 0,0" /></g><g
           transform="translate(272.811,249.9259)"
           id="g210"><path
             id="path212"
             style="fill:#d70751;fill-opacity:1;fill-rule:nonzero;stroke:none"
             d="M 0,0 C -3.551,-0.05 0.672,-1.829 5.307,-2.543 6.589,-1.544 7.751,-0.532 8.786,0.452 5.898,-0.255 2.962,-0.269 0,0" /></g><g
           transform="translate(291.8715,254.6781)"
           id="g214"><path
             id="path216"
             style="fill:#d70751;fill-opacity:1;fill-rule:nonzero;stroke:none"
             d="M 0,0 C 2.115,2.918 3.655,6.114 4.2,9.417 3.725,7.062 2.448,5.028 1.242,2.881 -5.396,-1.297 0.617,5.363 1.239,7.895 -5.898,-1.089 0.259,2.509 0,0" /></g><g
           transform="translate(298.9086,272.9853)"
           id="g218"><path
             id="path220"
             style="fill:#d70751;fill-opacity:1;fill-rule:nonzero;stroke:none"
             d="M 0,0 C 0.428,6.395 -1.259,4.373 -1.826,1.933 -1.167,1.588 -0.641,-2.576 0,0" /></g><g
           transform="translate(259.3446,360.3951)"
           id="g222"><path
             id="path224"
             style="fill:#d70751;fill-opacity:1;fill-rule:nonzero;stroke:none"
             d="M 0,0 C 1.895,-0.34 4.095,-0.601 3.786,-1.054 5.858,-0.599 6.329,-0.18 0,0" /></g><g
           transform="translate(263.1309,359.3414)"
           id="g226"><path
             id="path228"
             style="fill:#d70751;fill-opacity:1;fill-rule:nonzero;stroke:none"
             d="m 0,0 -1.34,-0.276 1.247,0.11 L 0,0 Z" /></g><g
           transform="translate(322.2314,270.5601)"
           id="g230"><path
             id="path232"
             style="fill:#d70751;fill-opacity:1;fill-rule:nonzero;stroke:none"
             d="m 0,0 c 0.213,-5.743 -1.679,-8.529 -3.385,-13.462 l -3.068,-1.533 c -2.513,-4.878 0.242,-3.098 -1.556,-6.978 -3.922,-3.486 -11.9,-10.908 -14.454,-11.585 -1.862,0.04 1.265,2.199 1.673,3.045 -5.249,-3.606 -4.213,-5.411 -12.24,-7.602 l -0.235,0.523 c -19.801,-9.314 -47.304,9.144 -46.942,34.329 -0.211,-1.599 -0.6,-1.199 -1.04,-1.846 -1.021,12.959 5.985,25.974 17.8,31.288 11.559,5.722 25.106,3.373 33.386,-4.342 -4.548,5.957 -13.598,12.271 -24.325,11.681 -10.51,-0.166 -20.339,-6.844 -23.62,-14.092 -5.383,-3.391 -6.008,-13.066 -8.354,-14.836 -3.156,-23.196 5.936,-33.217 21.317,-45.005 2.421,-1.632 0.682,-1.88 1.01,-3.122 -5.11,2.392 -9.79,6.006 -13.637,10.429 2.042,-2.99 4.245,-5.895 7.093,-8.178 -4.818,1.633 -11.256,11.677 -13.134,12.086 8.305,-14.872 33.697,-26.082 46.994,-20.521 -6.152,-0.226 -13.969,-0.126 -20.882,2.43 -2.902,1.492 -6.851,4.589 -6.147,5.168 18.147,-6.78 36.893,-5.136 52.593,7.451 3.995,3.111 8.358,8.403 9.619,8.476 -1.899,-2.855 0.324,-1.374 -1.135,-3.894 3.982,6.419 -1.729,2.613 4.114,11.086 l 2.159,-2.972 c -0.802,5.327 6.618,11.797 5.865,20.224 1.7,2.578 1.899,-2.772 0.092,-8.701 2.507,6.577 0.661,7.634 1.305,13.061 0.698,-1.824 1.608,-3.762 2.077,-5.687 -1.632,6.355 1.677,10.703 2.495,14.397 -0.807,0.358 -2.521,-2.81 -2.913,4.698 0.056,3.261 0.908,1.709 1.236,2.512 -0.641,0.367 -2.32,2.866 -3.341,7.662 0.741,1.126 1.981,-2.921 2.988,-3.088 -0.648,3.813 -1.764,6.72 -1.811,9.644 -2.945,6.155 -1.042,-0.82 -3.43,2.643 -3.135,9.777 2.6,2.27 2.987,6.711 4.752,-6.883 7.461,-17.551 8.704,-21.969 -0.95,5.387 -2.482,10.606 -4.355,15.655 1.444,-0.607 -2.323,11.084 1.877,3.342 -4.485,16.506 -19.2,31.929 -32.736,39.166 1.656,-1.516 3.748,-3.419 2.997,-3.717 -6.732,4.008 -5.548,4.32 -6.513,6.014 -5.483,2.23 -5.844,-0.18 -9.476,-0.004 -10.335,5.482 -12.326,4.899 -21.84,8.335 l 0.433,-2.023 c -6.847,2.281 -7.977,-0.865 -15.378,-0.007 -0.45,0.352 2.37,1.273 4.694,1.61 -6.621,-0.874 -6.31,1.305 -12.788,-0.24 1.597,1.12 3.284,1.861 4.987,2.814 -5.399,-0.328 -12.889,-3.141 -10.577,-0.582 -8.811,-3.934 -24.452,-9.45 -33.229,-17.679 l -0.276,1.844 c -4.022,-4.828 -17.537,-14.419 -18.614,-20.671 l -1.076,-0.251 c -2.093,-3.543 -3.447,-7.56 -5.107,-11.206 -2.737,-4.663 -4.012,-1.795 -3.622,-2.525 -5.384,-10.916 -8.058,-20.087 -10.368,-27.609 1.646,-2.46 0.039,-14.813 0.662,-24.698 -2.704,-48.821 34.264,-96.223 74.672,-107.166 5.923,-2.117 14.731,-2.035 22.223,-2.253 -8.84,2.528 -9.982,1.339 -18.591,4.342 -6.212,2.925 -7.574,6.265 -11.973,10.082 l 1.741,-3.076 c -8.627,3.054 -5.018,3.779 -12.037,6.002 l 1.859,2.428 c -2.797,0.212 -7.407,4.714 -8.668,7.207 l -3.059,-0.121 c -3.676,4.536 -5.635,7.803 -5.492,10.335 l -0.988,-1.762 c -1.12,1.924 -13.524,17.011 -7.089,13.498 -1.196,1.095 -2.785,1.78 -4.509,4.91 l 1.311,1.497 c -3.097,3.984 -5.7,9.093 -5.502,10.793 1.652,-2.232 2.798,-2.648 3.932,-3.031 -7.819,19.404 -8.258,1.069 -14.182,19.751 l 1.253,0.1 c -0.961,1.448 -1.543,3.018 -2.316,4.561 l 0.545,5.435 c -5.631,6.51 -1.574,27.679 -0.763,39.289 0.564,4.722 4.699,9.748 7.846,17.629 l -1.917,0.331 c 3.664,6.39 20.921,25.667 28.912,24.675 3.873,4.863 -0.768,0.017 -1.526,1.242 8.504,8.801 11.178,6.218 16.917,7.801 6.19,3.674 -5.312,-1.432 -2.377,1.402 10.699,2.732 7.583,6.212 21.541,7.6 1.472,-0.838 -3.417,-1.294 -4.645,-2.381 8.914,4.361 28.211,3.369 40.744,-2.421 14.545,-6.797 30.883,-26.887 31.528,-45.79 L -0.324,20.41 C -0.695,12.896 0.826,4.206 -1.81,-3.776 l 1.807,3.775" /></g><g
           transform="translate(234.0485,245.0514)"
           id="g234"><path
             id="path236"
             style="fill:#d70751;fill-opacity:1;fill-rule:nonzero;stroke:none"
             d="M 0,0 -0.498,-2.491 C 1.835,-5.661 3.687,-9.096 6.668,-11.575 4.524,-7.388 2.931,-5.659 0,0" /></g><g
           transform="translate(239.5661,245.2675)"
           id="g238"><path
             id="path240"
             style="fill:#d70751;fill-opacity:1;fill-rule:nonzero;stroke:none"
             d="m 0,0 c -1.235,1.366 -1.966,3.011 -2.785,4.649 0.783,-2.88 2.386,-5.354 3.877,-7.871 L 0,0" /></g><g
           transform="translate(337.2027,266.4889)"
           id="g242"><path
             id="path244"
             style="fill:#d70751;fill-opacity:1;fill-rule:nonzero;stroke:none"
             d="M 0,0 -0.521,-1.309 C -1.477,-8.103 -3.544,-14.826 -6.71,-21.059 -3.215,-14.482 -0.95,-7.288 -0.003,0" /></g><g
           transform="translate(260.0463,362.0988)"
           id="g246"><path
             id="path248"
             style="fill:#d70751;fill-opacity:1;fill-rule:nonzero;stroke:none"
             d="M 0,0 C 2.401,0.88 5.902,0.482 8.449,1.061 5.13,0.783 1.826,0.616 -1.438,0.196 L 0,0" /></g><g
           transform="translate(175.7486,317.2739)"
           id="g250"><path
             id="path252"
             style="fill:#d70751;fill-opacity:1;fill-rule:nonzero;stroke:none"
             d="M 0,0 C 0.553,-5.123 -3.854,-7.111 0.976,-3.734 3.565,2.097 -0.035,-2.124 0,0" /></g><g
           transform="translate(170.0727,293.5662)"
           id="g254"><path
             id="path256"
             style="fill:#d70751;fill-opacity:1;fill-rule:nonzero;stroke:none"
             d="M 0,0 C 1.112,3.415 1.314,5.466 1.739,7.443 -1.335,3.512 0.325,2.674 0,0" /></g></g></g></g></svg>