<?xml version="1.0" encoding="UTF-8" standalone="no"?>
<svg
   xmlns:dc="http://purl.org/dc/elements/1.1/"
   xmlns:cc="http://creativecommons.org/ns#"
   xmlns:rdf="http://www.w3.org/1999/02/22-rdf-syntax-ns#"
   xmlns:svg="http://www.w3.org/2000/svg"
   xmlns="http://www.w3.org/2000/svg"
   viewBox="0 0 640 640"
   height="640"
   width="640"
   xml:space="preserve"
   version="1.1"
   id="svg2"><metadata
     id="metadata8"><rdf:RDF><cc:Work
         rdf:about=""><dc:format>image/svg+xml</dc:format><dc:type
           rdf:resource="http://purl.org/dc/dcmitype/StillImage" /></cc:Work></rdf:RDF></metadata><defs
     id="defs6"><clipPath
       id="clipPath16"
       clipPathUnits="userSpaceOnUse"><path
         id="path18"
         d="M 0,512 512,512 512,0 0,0 0,512 Z" /></clipPath><clipPath
       id="clipPath24"
       clipPathUnits="userSpaceOnUse"><path
         id="path26"
         d="m 18.2752,493.725 475.4498,0 0,-475.4497 -475.4498,0 0,475.4497 z" /></clipPath></defs><g
     transform="matrix(1.25,0,0,-1.25,0,640)"
     id="g10"><g
       id="g12"><g
         clip-path="url(#clipPath16)"
         id="g14"><g
           id="g20"><g
             id="g22" /><g
             id="g28"><g
               style="opacity:0.39999402"
               id="g30"
               clip-path="url(#clipPath24)"><g
                 id="g32"
                 transform="translate(448.964,63.036)"><path
                   id="path34"
                   style="fill:#ffffff;fill-opacity:1;fill-rule:nonzero;stroke:none"
                   d="m 0,0 c -59.681,-59.681 -326.247,-59.681 -385.928,0 -59.681,59.681 -59.681,326.247 0,385.928 59.681,59.681 326.247,59.681 385.928,0 C 59.681,326.247 59.681,59.681 0,0" /></g></g></g></g><g
           transform="translate(433.279,78.721)"
           id="g36"><path
             id="path38"
             style="fill:#f7f7f7;fill-opacity:1;fill-rule:nonzero;stroke:none"
             d="m 0,0 c -70.294,-70.294 -284.264,-70.294 -354.558,0 -70.294,70.294 -70.294,284.264 0,354.558 70.294,70.294 284.264,70.294 354.558,0 C 70.294,284.264 70.295,70.294 0,0" /></g><g
           transform="translate(244.0265,294.563)"
           id="g40"><path
             id="path42"
             style="fill:#303030;fill-opacity:1;fill-rule:nonzero;stroke:none"
             d="M 0,0 C 0.424,5.225 20.911,0.023 19.616,-4.114 18.251,-8.479 -0.486,-5.994 0,0 m -92.335,-103.527 c 0.024,9.214 7.857,22.079 18.988,33.767 7.438,7.811 14.992,14.667 31.46,28.708 -11.391,6.25 -29.107,13.791 -37.996,23.667 -3.289,3.654 -9.251,11.933 -8.094,22.994 2.356,22.543 30.181,56.755 69.733,63.989 13.16,2.406 28.269,0.669 40.704,-4.922 39.012,-17.539 86.722,-61.112 92.593,-82.387 2.066,-7.489 1.669,-19.426 -1.893,-26.079 -4.415,-8.245 -19.698,-24.992 -40.607,-42.273 -32.809,-27.115 -78.783,-56.23 -113.112,-61.129 -11.092,-1.583 -22.424,0.068 -30.377,4.556 -12.443,7.021 -16.573,16.394 -18.025,19.204 -3.861,7.471 -3.382,16.937 -3.374,19.905" /></g><g
           transform="translate(206.7239,334.7303)"
           id="g44"><path
             id="path46"
             style="fill:#ffffff;fill-opacity:1;fill-rule:nonzero;stroke:none"
             d="M 0,0 C -13.037,-14.505 -4.702,-42.567 16.918,-57.863 42.216,-75.761 83.182,-79.002 91.335,-65.199 106.541,-39.453 89.938,-12.23 65.154,-0.086 40.664,11.914 8.126,9.041 0,0 Z m 6.503,-72.587 c -10.781,-9.102 -17.949,-15.24 -26.935,-23.453 -21.642,-19.78 -36.346,-34.837 -28.765,-55.418 8.745,-23.741 27.915,-22.538 50.395,-18.125 57.946,11.429 153.197,84.657 148.342,111.704 -3.928,21.886 -57.144,65.397 -88.652,80.881 -9.843,4.837 -21.188,7.339 -32.566,6.803 -43.325,-2.044 -77.159,-41.49 -75.431,-62.862 1.681,-20.792 54.232,-38.91 53.612,-39.53" /></g><g
           transform="translate(242.2206,312.067)"
           id="g48"><path
             id="path50"
             style="fill:#ffffff;fill-opacity:1;fill-rule:nonzero;stroke:none"
             d="M 0,0 C -12.028,-18.634 17.464,-24.363 21.979,-20.964 41.446,-6.314 5.299,8.21 0,0 m 8.963,-34.591 c 18.302,-2.544 34.077,4.785 36.544,22.858 1.879,13.767 -19.19,28.808 -31.857,32.277 -10.578,2.897 -33.544,-0.828 -35.092,-20.835 -1.61,-20.798 19.733,-32.817 30.405,-34.3" /></g><g
           transform="translate(262.8067,322.3447)"
           id="g52"><path
             id="path54"
             style="fill:#303030;fill-opacity:1;fill-rule:nonzero;stroke:none"
             d="m 0,0 c 15.371,-7.431 31.156,-26.951 -0.137,-38.186 -8.509,-3.055 -35.496,7.503 -34.669,21.911 C -33.602,5.009 -18.768,9.074 0,0 m -31.253,37.24 c -21.276,-2.242 -25.351,-4.98 -44.625,-19.563 -6.46,-4.888 -18.35,-16.78 -21.396,-30.888 -1.16,-5.373 0.211,-10.012 4.081,-13.265 12.391,-10.417 33.13,-18.869 50.144,-27.039 4.983,-2.393 1.684,-6.731 -6.353,-13.689 -20.278,-17.556 -47.695,-38.926 -49.609,-55.21 -0.902,-7.673 1.725,-18.1 11.039,-23.436 10.88,-6.233 33.465,-2.165 48.546,3.451 22.038,8.207 50.987,26.318 73.97,44.122 23.9,18.513 46.121,42.027 47.22,45.862 1.35,4.71 1.215,9.06 -1.39,14.061 -4.09,7.853 -9.559,13.689 -15.431,20.221 C 49.187,-1.522 32.516,13.074 12.57,24.258 -1.833,32.335 -14.506,39.005 -31.253,37.24" /></g></g></g></g></svg>