<?xml version="1.0" encoding="utf-8"?>
<!-- Generator: Adobe Illustrator 18.0.0, SVG Export Plug-In . SVG Version: 6.00 Build 0)  -->
<!DOCTYPE svg PUBLIC "-//W3C//DTD SVG 1.1//EN" "http://www.w3.org/Graphics/SVG/1.1/DTD/svg11.dtd">
<svg version="1.1" id="Layer_2" xmlns="http://www.w3.org/2000/svg" xmlns:xlink="http://www.w3.org/1999/xlink" x="0px" y="0px"
	 viewBox="0 0 512 512" style="enable-background:new 0 0 512 512;" xml:space="preserve">
<g>
	<g>
		<g style="opacity:0.4;enable-background:new    ;">
			
				<radialGradient id="SVGID_1_" cx="1.0125" cy="515" r="118.8609" gradientTransform="matrix(2 0 0 -2 254 1286)" gradientUnits="userSpaceOnUse">
				<stop  offset="0" style="stop-color:#010101"/>
				<stop  offset="0.8587" style="stop-color:#010101;stop-opacity:0.1413"/>
				<stop  offset="1" style="stop-color:#010101;stop-opacity:0"/>
			</radialGradient>
			<path style="fill:url(#SVGID_1_);" d="M449,449c-59.7,59.7-326.2,59.7-385.9,0S3.4,122.7,63,63s326.3-59.6,386,0
				S508.6,389.3,449,449z"/>
		</g>
		<g style="opacity:0.4;enable-background:new    ;">
			
				<radialGradient id="SVGID_2_" cx="2.0286" cy="516.0684" r="133.1551" gradientTransform="matrix(1.4138 -1.4146 -0.979 -0.9784 758.388 763.7472)" gradientUnits="userSpaceOnUse">
				<stop  offset="0" style="stop-color:#010101"/>
				<stop  offset="0.8587" style="stop-color:#010101;stop-opacity:0.1413"/>
				<stop  offset="1" style="stop-color:#010101;stop-opacity:0"/>
			</radialGradient>
			<path style="fill:url(#SVGID_2_);" d="M449,449c-59.7,59.7-326.2,59.7-385.9,0S3.4,122.7,63,63s326.3-59.6,386,0
				S508.6,389.3,449,449z"/>
		</g>
		<g style="opacity:0.4;enable-background:new    ;">
			
				<radialGradient id="SVGID_3_" cx="3.4424" cy="513.9732" r="133.1784" gradientTransform="matrix(-1.4138 -1.4146 0.979 -0.9784 -242.3879 763.7472)" gradientUnits="userSpaceOnUse">
				<stop  offset="0" style="stop-color:#010101"/>
				<stop  offset="0.8587" style="stop-color:#010101;stop-opacity:0.1413"/>
				<stop  offset="1" style="stop-color:#010101;stop-opacity:0"/>
			</radialGradient>
			<path style="fill:url(#SVGID_3_);" d="M63,449c59.7,59.7,326.2,59.7,385.9,0s59.7-326.2,0-385.9S122.7,3.4,63,63
				S3.4,389.3,63,449z"/>
		</g>
	</g>
	
		<linearGradient id="SVGID_4_" gradientUnits="userSpaceOnUse" x1="26.0005" y1="767" x2="485.9999" y2="767" gradientTransform="matrix(1 0 0 1 0 -511)">
		<stop  offset="0" style="stop-color:#36AADC"/>
		<stop  offset="1" style="stop-color:#36AADC"/>
	</linearGradient>
	<path style="fill:url(#SVGID_4_);" d="M433.3,433.3c-70.3,70.3-284.3,70.3-354.6,0S8.4,149,78.7,78.7s284.3-70.3,354.6,0
		S503.6,363,433.3,433.3z"/>
</g>
<g>
	<path style="fill:#9D9D9D;" d="M357.3,110.3H232.6H230c-2.3,0-4.6,0.5-6.7,1.5c-1.8,0.8-3.4,1.8-4.8,3.2l-71.7,71.7
		c-1.4,1.4-2.5,3-3.2,4.8c-0.9,2.1-1.5,4.4-1.5,6.7l-0.1,3.6V389c0,7,5.7,12.7,12.7,12.7h202.7c7,0,12.7-5.7,12.7-12.7V123
		C370,116,364.3,110.3,357.3,110.3z"/>
	
		<linearGradient id="SVGID_5_" gradientUnits="userSpaceOnUse" x1="247.4067" y1="-22.7867" x2="479.7767" y2="-255.1567" gradientTransform="matrix(0.5 0 0 0.5 0.5 256.5)">
		<stop  offset="0" style="stop-color:#5F6060"/>
		<stop  offset="1" style="stop-color:#5F6060;stop-opacity:0"/>
	</linearGradient>
	<path style="opacity:0.7;fill:url(#SVGID_5_);enable-background:new    ;" d="M218.4,115.1l-71.7,71.7c-1.4,1.4-2.5,3-3.2,4.8
		c-0.9,2.1-1.5,4.4-1.5,6.7V263l76.4-76.4c3.1-3.1,4.8-7.2,4.8-11.5v-63.3C221.5,112.6,219.8,113.8,218.4,115.1z"/>
	<path style="fill:#5F6060;" d="M230,110.3c-2.3,0-4.6,0.5-6.7,1.5c-1.8,0.8-3.4,1.8-4.8,3.2l-71.7,71.7c-1.4,1.4-2.5,3-3.2,4.8
		c-0.9,2.1-1.5,4.4-1.5,6.7v2.6c0-5.2,4.1-9.3,9.3-9.3H207c8.9,0,16.2-7.3,16.2-16.2v-55.7c0-5.2,4.1-9.3,9.3-9.3H230z"/>
	<g>
		<g>
			<path style="fill:#F0F0F0;" d="M314.3,237.4h-76.7v-9.9h76.7V237.4z"/>
			<path style="fill:#F0F0F0;" d="M314.3,255.6h-114v-9.9h114V255.6z"/>
			<path style="fill:#F0F0F0;" d="M314.3,273.8h-114V264h114V273.8z"/>
			<path style="fill:#F0F0F0;" d="M314.3,292.1h-114v-9.9h114V292.1z"/>
			<path style="fill:#F0F0F0;" d="M273.8,310.3h-73.4v-9.9h73.4V310.3z"/>
		</g>
	</g>
</g>
</svg>
