<?xml version="1.0" encoding="utf-8"?>
<!-- Generator: Adobe Illustrator 18.0.0, SVG Export Plug-In . SVG Version: 6.00 Build 0)  -->
<!DOCTYPE svg PUBLIC "-//W3C//DTD SVG 1.1//EN" "http://www.w3.org/Graphics/SVG/1.1/DTD/svg11.dtd">
<svg version="1.1" id="Layer_1" xmlns="http://www.w3.org/2000/svg" xmlns:xlink="http://www.w3.org/1999/xlink" x="0px" y="0px"
	 viewBox="0 0 512 512" enable-background="new 0 0 512 512" xml:space="preserve">
<g>
	<g opacity="0.4" enable-background="new    ">
		
			<radialGradient id="SVGID_1_" cx="256.525" cy="257.4813" r="237.7344" gradientTransform="matrix(1 0 0 -1 -0.5 513.5)" gradientUnits="userSpaceOnUse">
			<stop  offset="0" style="stop-color:#010101"/>
			<stop  offset="0.8587" style="stop-color:#010101;stop-opacity:0.1413"/>
			<stop  offset="1" style="stop-color:#010101;stop-opacity:0"/>
		</radialGradient>
		<path fill="url(#SVGID_1_)" d="M449,449c-59.7,59.7-326.2,59.7-385.9,0S3.4,122.7,63,63s326.3-59.6,386,0S508.6,389.3,449,449z"/>
	</g>
	<g opacity="0.4" enable-background="new    ">
		
			<radialGradient id="SVGID_2_" cx="257.0394" cy="258.0371" r="266.3242" gradientTransform="matrix(0.7069 -0.7073 -0.4895 -0.4892 200.633 564.0107)" gradientUnits="userSpaceOnUse">
			<stop  offset="0" style="stop-color:#010101"/>
			<stop  offset="0.8587" style="stop-color:#010101;stop-opacity:0.1413"/>
			<stop  offset="1" style="stop-color:#010101;stop-opacity:0"/>
		</radialGradient>
		<path fill="url(#SVGID_2_)" d="M449,449c-59.7,59.7-326.2,59.7-385.9,0S3.4,122.7,63,63s326.3-59.6,386,0S508.6,389.3,449,449z"/>
	</g>
	<g opacity="0.4" enable-background="new    ">
		
			<radialGradient id="SVGID_3_" cx="257.7463" cy="256.9128" r="266.3709" gradientTransform="matrix(-0.7069 -0.7073 0.4895 -0.4892 312.367 564.0107)" gradientUnits="userSpaceOnUse">
			<stop  offset="0" style="stop-color:#010101"/>
			<stop  offset="0.8587" style="stop-color:#010101;stop-opacity:0.1413"/>
			<stop  offset="1" style="stop-color:#010101;stop-opacity:0"/>
		</radialGradient>
		<path fill="url(#SVGID_3_)" d="M63,449c59.7,59.7,326.2,59.7,385.9,0s59.7-326.2,0-385.9S122.7,3.4,63,63S3.4,389.3,63,449z"/>
	</g>
</g>
<radialGradient id="SVGID_4_" cx="255" cy="182" r="311" gradientUnits="userSpaceOnUse">
	<stop  offset="0" style="stop-color:#FF6AA4"/>
	<stop  offset="1" style="stop-color:#9118C2"/>
</radialGradient>
<path fill="url(#SVGID_4_)" d="M433.3,433.3c-70.3,70.3-284.3,70.3-354.6,0S8.4,149,78.7,78.7s284.3-70.3,354.6,0
	S503.6,363,433.3,433.3z"/>
<g>
	<g opacity="0.4" enable-background="new    ">
		<path d="M145.2,257.8c0-0.2,0-0.5,0-0.7c0.1-0.7,0.1-1.5,0.2-2.2c0-0.1,0-0.3,0-0.4c0.1-0.9,0.2-1.7,0.3-2.6c0,0,0,0,0,0
			c2.8-24.1,13.5-46.7,30.7-64.3c16.1-16.6,36.6-27.5,58.9-31.7c0,0,0,0,0,0c0.8-0.2,1.7-0.3,2.5-0.4c0.1,0,0.2,0,0.3-0.1
			c0.8-0.1,1.5-0.2,2.3-0.3c0.2,0,0.4-0.1,0.6-0.1c0.7-0.1,1.4-0.2,2.1-0.3c0.2,0,0.5-0.1,0.7-0.1c0.7-0.1,1.3-0.1,2-0.2
			c0.3,0,0.5-0.1,0.8-0.1c0.7-0.1,1.3-0.1,2-0.1c0.3,0,0.5,0,0.8-0.1c0.9-0.1,1.9-0.1,2.8-0.1c0.9,0,1.8-0.1,2.8-0.1
			c0.2,0,0.4,0,0.6,0c0.7,0,1.4,0,2.1,0c0.3,0,0.5,0,0.8,0c0.7,0,1.3,0,2,0.1c0.3,0,0.5,0,0.8,0c0.7,0,1.3,0.1,1.9,0.1
			c0.3,0,0.5,0,0.8,0.1c0.7,0,1.3,0.1,2,0.2c0.2,0,0.5,0,0.7,0.1c0.7,0.1,1.4,0.1,2.1,0.2c0.2,0,0.4,0,0.6,0.1
			c0.8,0.1,1.6,0.2,2.3,0.3c0.1,0,0.2,0,0.3,0c20.6,3,40,11.7,56.1,25.3c19.1,16.2,32,38.2,36.9,62.5c0.1,0.4,0.2,0.8,0.2,1.2
			c-0.1-0.4-0.2-0.8-0.2-1.2l-37.1-26.7l-6,8.4l45,32.4l5.4,3.9h0l4.7-7.6c-0.1-1.4-0.3-2.8-0.5-4.2c0,0,0,0,0,0
			c-0.5-3.8-1.2-7.7-2.1-11.4c-4.3-18.9-13.2-36.5-25.7-51.2c0,0,0,0-0.1-0.1c-0.6-0.7-1.1-1.3-1.7-2c-0.1-0.2-0.3-0.3-0.4-0.5
			c-0.5-0.5-0.9-1.1-1.4-1.6c-0.3-0.3-0.6-0.6-0.9-0.9c-0.3-0.4-0.7-0.7-1-1.1c-0.6-0.6-1.3-1.3-1.9-1.9c0,0-0.1-0.1-0.1-0.1
			c-0.7-0.7-1.4-1.4-2.2-2.1c-0.2-0.2-0.4-0.3-0.5-0.5c-0.5-0.5-1-1-1.6-1.4c-0.4-0.4-0.8-0.7-1.3-1.1c-0.3-0.3-0.6-0.5-0.9-0.8
			c-0.6-0.5-1.2-1-1.8-1.5c-0.1-0.1-0.2-0.2-0.4-0.3c-21.3-17.3-47.6-26.7-75-27.1c-0.2,0-0.3,0-0.5,0c-0.8,0-1.6,0-2.3,0
			c-1,0-1.9,0-2.9,0.1c-0.2,0-0.3,0-0.5,0c-0.8,0-1.7,0.1-2.5,0.1c-0.3,0-0.7,0-1,0.1c-0.7,0-1.3,0.1-2,0.1c-0.3,0-0.7,0.1-1,0.1
			c-0.7,0.1-1.4,0.1-2,0.2c-0.3,0-0.6,0.1-0.9,0.1c-0.7,0.1-1.5,0.2-2.2,0.3c-0.2,0-0.4,0.1-0.7,0.1c-0.8,0.1-1.6,0.2-2.4,0.4
			c-0.1,0-0.3,0-0.4,0.1c-0.9,0.1-1.8,0.3-2.7,0.5c0,0-0.1,0-0.1,0c-51.8,9.8-91.7,52.6-97.8,104.9c0,0,0,0.1,0,0.1
			c-0.1,0.9-0.2,1.8-0.3,2.7c0,0.2,0,0.3,0,0.5c-0.1,0.8-0.1,1.6-0.2,2.3c0,0.3,0,0.5-0.1,0.8c0,0.5-0.1,1-0.1,1.5l10.3,0
			C145.1,258.4,145.2,258.1,145.2,257.8z"/>
		<path d="M366.9,271.3c0,0.1,0,0.2,0,0.4c0,0.7-0.1,1.3-0.1,2c0,0.2,0,0.4,0,0.7c-0.1,0.7-0.1,1.4-0.2,2.2c0,0.1,0,0.3,0,0.4
			c-0.1,0.8-0.2,1.6-0.3,2.4c0,0.1,0,0.1,0,0.2c-2.5,19.5-10.1,37.8-22.2,53.4c-0.4,0.5-0.8,1-1.2,1.6c-0.1,0.1-0.2,0.3-0.3,0.4
			c-0.5,0.6-0.9,1.2-1.4,1.7c-0.1,0.1-0.2,0.3-0.4,0.4c-0.5,0.6-0.9,1.1-1.4,1.6c-0.2,0.2-0.3,0.4-0.5,0.6c-0.4,0.5-0.9,1-1.3,1.4
			c0,0-0.1,0.1-0.1,0.1c-0.2,0.2-0.4,0.5-0.7,0.7c-0.3,0.3-0.6,0.7-0.9,1c-0.1,0.1-0.1,0.1-0.2,0.2c-0.3,0.4-0.7,0.7-1.1,1.1
			c-0.3,0.3-0.5,0.6-0.8,0.8c-0.4,0.4-0.9,0.9-1.3,1.3c-0.2,0.2-0.4,0.4-0.6,0.5c-0.5,0.5-1.1,1-1.6,1.5c-0.1,0.1-0.2,0.2-0.3,0.3
			c-0.6,0.6-1.3,1.1-1.9,1.6c0,0,0,0-0.1,0.1c-16.3,13.8-36,22.6-57.2,25.4c0,0-0.1,0-0.1,0c-0.8,0.1-1.7,0.2-2.5,0.3
			c-0.2,0-0.4,0-0.6,0.1c-0.7,0.1-1.4,0.1-2.1,0.2c-0.4,0-0.8,0.1-1.2,0.1c-0.5,0-1,0.1-1.5,0.1c-0.9,0.1-1.8,0.1-2.7,0.1
			c-0.9,0-1.8,0.1-2.7,0.1c-0.5,0-0.9,0-1.4,0c-0.4,0-0.9,0-1.3,0c-0.5,0-1.1,0-1.6,0c-0.4,0-0.7,0-1.1,0c-0.6,0-1.1,0-1.7-0.1
			c-0.3,0-0.6,0-0.9-0.1c-0.6,0-1.2-0.1-1.8-0.1c-0.3,0-0.6,0-0.9-0.1c-0.6-0.1-1.2-0.1-1.8-0.2c-0.3,0-0.6-0.1-0.9-0.1
			c-0.6-0.1-1.2-0.1-1.8-0.2c-0.3,0-0.6-0.1-0.9-0.1c-0.6-0.1-1.1-0.2-1.7-0.2c-0.3,0-0.7-0.1-1-0.2c-0.5-0.1-1-0.2-1.6-0.3
			c-0.4-0.1-0.8-0.1-1.2-0.2c-0.4-0.1-0.9-0.2-1.3-0.2c-0.6-0.1-1.2-0.3-1.8-0.4c-0.2,0-0.4-0.1-0.7-0.1c-17.6-3.9-34-12-48-23.9
			c-19.1-16.2-32-38.2-36.9-62.5c-0.1-0.4-0.2-0.8-0.2-1.2c0.1,0.4,0.2,0.8,0.2,1.2l37.1,26.7l6-8.4l-45-32.4l-5.4-3.9h0l-4.7,7.6
			c0.1,1.4,0.3,2.8,0.5,4.2c0,0.1,0,0.2,0,0.3c0,0.2,0,0.3,0.1,0.5c0.1,0.8,0.2,1.7,0.4,2.5c0,0.1,0,0.3,0.1,0.4
			c0.1,0.8,0.3,1.7,0.4,2.5c0,0.1,0,0.2,0.1,0.3c0.2,0.9,0.3,1.8,0.5,2.6c0,0.1,0,0.1,0,0.2c0.1,0.7,0.3,1.4,0.5,2
			c10.9,47.3,49.5,83.8,97.2,92.2c0.2,0,0.5,0.1,0.7,0.1c0.7,0.1,1.3,0.2,2,0.3c0.4,0.1,0.8,0.1,1.1,0.2c0.5,0.1,1.1,0.2,1.6,0.2
			c0.4,0.1,0.9,0.1,1.3,0.2c0.5,0.1,1,0.1,1.5,0.2c0.5,0,0.9,0.1,1.4,0.1c0.5,0,1,0.1,1.4,0.1c0.5,0,0.9,0.1,1.4,0.1
			c0.5,0,1,0.1,1.5,0.1c0.5,0,0.9,0.1,1.4,0.1c0.5,0,1,0,1.6,0.1c0.4,0,0.9,0,1.3,0c0.7,0,1.4,0,2.1,0c0.2,0,0.5,0,0.7,0
			c1.4,0,2.9,0,4.3-0.1c1,0,2-0.1,3-0.1c0.6,0,1.1-0.1,1.7-0.1c0.4,0,0.8-0.1,1.3-0.1c0.8-0.1,1.6-0.1,2.4-0.2c0.2,0,0.4,0,0.5-0.1
			c0.9-0.1,1.9-0.2,2.8-0.3c0,0,0,0,0.1,0c23.1-3,44.7-12.6,62.5-27.7c0,0,0,0,0.1-0.1c0.7-0.6,1.4-1.2,2.1-1.8
			c0.1-0.1,0.2-0.2,0.3-0.3c0.6-0.5,1.2-1.1,1.8-1.6c0.2-0.2,0.4-0.4,0.6-0.6c0.5-0.5,1-0.9,1.5-1.4c0.3-0.3,0.6-0.6,0.9-0.9
			c0.4-0.4,0.8-0.8,1.1-1.2c0.4-0.4,0.8-0.8,1.2-1.3c0.3-0.3,0.6-0.6,0.8-0.9c0.5-0.5,1-1.1,1.4-1.6c0.2-0.2,0.4-0.4,0.6-0.6
			c0.5-0.6,1-1.2,1.6-1.8c0.1-0.2,0.3-0.3,0.4-0.5c0.5-0.6,1.1-1.3,1.6-1.9c0.1-0.1,0.2-0.3,0.3-0.4c0.5-0.6,0.9-1.1,1.3-1.7
			c13.2-17,21.5-37.1,24.3-58.4c0-0.1,0-0.1,0-0.2c0.1-0.9,0.2-1.7,0.3-2.6c0-0.2,0-0.3,0-0.5c0.1-0.8,0.2-1.6,0.2-2.4
			c0-0.2,0-0.5,0.1-0.7c0.1-0.7,0.1-1.4,0.1-2.1c0-0.3,0-0.6,0-1L366.9,271.3z"/>
	</g>
	<g>
		<path fill="#FFFFFF" d="M145.2,248.8c0-0.2,0-0.5,0-0.7c0.1-0.7,0.1-1.5,0.2-2.2c0-0.1,0-0.3,0-0.4c0.1-0.9,0.2-1.7,0.3-2.6
			c0,0,0,0,0,0c2.8-24.1,13.5-46.7,30.7-64.3c16.1-16.6,36.6-27.5,58.9-31.7c0,0,0,0,0,0c0.8-0.2,1.7-0.3,2.5-0.4
			c0.1,0,0.2,0,0.3-0.1c0.8-0.1,1.5-0.2,2.3-0.3c0.2,0,0.4-0.1,0.6-0.1c0.7-0.1,1.4-0.2,2.1-0.3c0.2,0,0.5-0.1,0.7-0.1
			c0.7-0.1,1.3-0.1,2-0.2c0.3,0,0.5-0.1,0.8-0.1c0.7-0.1,1.3-0.1,2-0.1c0.3,0,0.5,0,0.8-0.1c0.9-0.1,1.9-0.1,2.8-0.1
			c0.9,0,1.8-0.1,2.8-0.1c0.2,0,0.4,0,0.6,0c0.7,0,1.4,0,2.1,0c0.3,0,0.5,0,0.8,0c0.7,0,1.3,0,2,0.1c0.3,0,0.5,0,0.8,0
			c0.7,0,1.3,0.1,1.9,0.1c0.3,0,0.5,0,0.8,0.1c0.7,0,1.3,0.1,2,0.2c0.2,0,0.5,0,0.7,0.1c0.7,0.1,1.4,0.1,2.1,0.2
			c0.2,0,0.4,0,0.6,0.1c0.8,0.1,1.6,0.2,2.3,0.3c0.1,0,0.2,0,0.3,0c20.6,3,40,11.7,56.1,25.3c19.1,16.2,32,38.2,36.9,62.5
			c0.1,0.4,0.2,0.8,0.2,1.2c-0.1-0.4-0.2-0.8-0.2-1.2l-37.1-26.7l-6,8.4l45,32.4l5.4,3.9h0l4.7-7.6c-0.1-1.4-0.3-2.8-0.5-4.2
			c0,0,0,0,0,0c-0.5-3.8-1.2-7.7-2.1-11.4c-4.3-18.9-13.2-36.5-25.7-51.2c0,0,0,0-0.1-0.1c-0.6-0.7-1.1-1.3-1.7-2
			c-0.1-0.2-0.3-0.3-0.4-0.5c-0.5-0.5-0.9-1.1-1.4-1.6c-0.3-0.3-0.6-0.6-0.9-0.9c-0.3-0.4-0.7-0.7-1-1.1c-0.6-0.6-1.3-1.3-1.9-1.9
			c0,0-0.1-0.1-0.1-0.1c-0.7-0.7-1.4-1.4-2.2-2.1c-0.2-0.2-0.4-0.3-0.5-0.5c-0.5-0.5-1-1-1.6-1.4c-0.4-0.4-0.8-0.7-1.3-1.1
			c-0.3-0.3-0.6-0.5-0.9-0.8c-0.6-0.5-1.2-1-1.8-1.5c-0.1-0.1-0.2-0.2-0.4-0.3c-21.3-17.3-47.6-26.7-75-27.1c-0.2,0-0.3,0-0.5,0
			c-0.8,0-1.6,0-2.3,0c-1,0-1.9,0-2.9,0.1c-0.2,0-0.3,0-0.5,0c-0.8,0-1.7,0.1-2.5,0.1c-0.3,0-0.7,0-1,0.1c-0.7,0-1.3,0.1-2,0.1
			c-0.3,0-0.7,0.1-1,0.1c-0.7,0.1-1.4,0.1-2,0.2c-0.3,0-0.6,0.1-0.9,0.1c-0.7,0.1-1.5,0.2-2.2,0.3c-0.2,0-0.4,0.1-0.7,0.1
			c-0.8,0.1-1.6,0.2-2.4,0.4c-0.1,0-0.3,0-0.4,0.1c-0.9,0.1-1.8,0.3-2.7,0.5c0,0-0.1,0-0.1,0c-51.8,9.8-91.7,52.6-97.8,104.9
			c0,0,0,0.1,0,0.1c-0.1,0.9-0.2,1.8-0.3,2.7c0,0.2,0,0.3,0,0.5c-0.1,0.8-0.1,1.6-0.2,2.3c0,0.3,0,0.5-0.1,0.8c0,0.5-0.1,1-0.1,1.5
			l10.3,0C145.1,249.4,145.2,249.1,145.2,248.8z"/>
		<path fill="#F2F2F2" d="M366.9,262.3c0,0.1,0,0.2,0,0.4c0,0.7-0.1,1.3-0.1,2c0,0.2,0,0.4,0,0.7c-0.1,0.7-0.1,1.4-0.2,2.2
			c0,0.1,0,0.3,0,0.4c-0.1,0.8-0.2,1.6-0.3,2.4c0,0.1,0,0.1,0,0.2c-2.5,19.5-10.1,37.8-22.2,53.4c-0.4,0.5-0.8,1-1.2,1.6
			c-0.1,0.1-0.2,0.3-0.3,0.4c-0.5,0.6-0.9,1.2-1.4,1.7c-0.1,0.1-0.2,0.3-0.4,0.4c-0.5,0.6-0.9,1.1-1.4,1.6c-0.2,0.2-0.3,0.4-0.5,0.6
			c-0.4,0.5-0.9,1-1.3,1.4c0,0-0.1,0.1-0.1,0.1c-0.2,0.2-0.4,0.5-0.7,0.7c-0.3,0.3-0.6,0.7-0.9,1c-0.1,0.1-0.1,0.1-0.2,0.2
			c-0.3,0.4-0.7,0.7-1.1,1.1c-0.3,0.3-0.5,0.6-0.8,0.8c-0.4,0.4-0.9,0.9-1.3,1.3c-0.2,0.2-0.4,0.4-0.6,0.5c-0.5,0.5-1.1,1-1.6,1.5
			c-0.1,0.1-0.2,0.2-0.3,0.3c-0.6,0.6-1.3,1.1-1.9,1.6c0,0,0,0-0.1,0.1c-16.3,13.8-36,22.6-57.2,25.4c0,0-0.1,0-0.1,0
			c-0.8,0.1-1.7,0.2-2.5,0.3c-0.2,0-0.4,0-0.6,0.1c-0.7,0.1-1.4,0.1-2.1,0.2c-0.4,0-0.8,0.1-1.2,0.1c-0.5,0-1,0.1-1.5,0.1
			c-0.9,0.1-1.8,0.1-2.7,0.1c-0.9,0-1.8,0.1-2.7,0.1c-0.5,0-0.9,0-1.4,0c-0.4,0-0.9,0-1.3,0c-0.5,0-1.1,0-1.6,0c-0.4,0-0.7,0-1.1,0
			c-0.6,0-1.1,0-1.7-0.1c-0.3,0-0.6,0-0.9-0.1c-0.6,0-1.2-0.1-1.8-0.1c-0.3,0-0.6,0-0.9-0.1c-0.6-0.1-1.2-0.1-1.8-0.2
			c-0.3,0-0.6-0.1-0.9-0.1c-0.6-0.1-1.2-0.1-1.8-0.2c-0.3,0-0.6-0.1-0.9-0.1c-0.6-0.1-1.1-0.2-1.7-0.2c-0.3,0-0.7-0.1-1-0.2
			c-0.5-0.1-1-0.2-1.6-0.3c-0.4-0.1-0.8-0.1-1.2-0.2c-0.4-0.1-0.9-0.2-1.3-0.2c-0.6-0.1-1.2-0.3-1.8-0.4c-0.2,0-0.4-0.1-0.7-0.1
			c-17.6-3.9-34-12-48-23.9c-19.1-16.2-32-38.2-36.9-62.5c-0.1-0.4-0.2-0.8-0.2-1.2c0.1,0.4,0.2,0.8,0.2,1.2l37.1,26.7l6-8.4
			l-45-32.4l-5.4-3.9h0l-4.7,7.6c0.1,1.4,0.3,2.8,0.5,4.2c0,0.1,0,0.2,0,0.3c0,0.2,0,0.3,0.1,0.5c0.1,0.8,0.2,1.7,0.4,2.5
			c0,0.1,0,0.3,0.1,0.4c0.1,0.8,0.3,1.7,0.4,2.5c0,0.1,0,0.2,0.1,0.3c0.2,0.9,0.3,1.8,0.5,2.6c0,0.1,0,0.1,0,0.2
			c0.1,0.7,0.3,1.4,0.5,2c10.9,47.3,49.5,83.8,97.2,92.2c0.2,0,0.5,0.1,0.7,0.1c0.7,0.1,1.3,0.2,2,0.3c0.4,0.1,0.8,0.1,1.1,0.2
			c0.5,0.1,1.1,0.2,1.6,0.2c0.4,0.1,0.9,0.1,1.3,0.2c0.5,0.1,1,0.1,1.5,0.2c0.5,0,0.9,0.1,1.4,0.1c0.5,0,1,0.1,1.4,0.1
			c0.5,0,0.9,0.1,1.4,0.1c0.5,0,1,0.1,1.5,0.1c0.5,0,0.9,0.1,1.4,0.1c0.5,0,1,0,1.6,0.1c0.4,0,0.9,0,1.3,0c0.7,0,1.4,0,2.1,0
			c0.2,0,0.5,0,0.7,0c1.4,0,2.9,0,4.3-0.1c1,0,2-0.1,3-0.1c0.6,0,1.1-0.1,1.7-0.1c0.4,0,0.8-0.1,1.3-0.1c0.8-0.1,1.6-0.1,2.4-0.2
			c0.2,0,0.4,0,0.5-0.1c0.9-0.1,1.9-0.2,2.8-0.3c0,0,0,0,0.1,0c23.1-3,44.7-12.6,62.5-27.7c0,0,0,0,0.1-0.1c0.7-0.6,1.4-1.2,2.1-1.8
			c0.1-0.1,0.2-0.2,0.3-0.3c0.6-0.5,1.2-1.1,1.8-1.6c0.2-0.2,0.4-0.4,0.6-0.6c0.5-0.5,1-0.9,1.5-1.4c0.3-0.3,0.6-0.6,0.9-0.9
			c0.4-0.4,0.8-0.8,1.1-1.2c0.4-0.4,0.8-0.8,1.2-1.3c0.3-0.3,0.6-0.6,0.8-0.9c0.5-0.5,1-1.1,1.4-1.6c0.2-0.2,0.4-0.4,0.6-0.6
			c0.5-0.6,1-1.2,1.6-1.8c0.1-0.2,0.3-0.3,0.4-0.5c0.5-0.6,1.1-1.3,1.6-1.9c0.1-0.1,0.2-0.3,0.3-0.4c0.5-0.6,0.9-1.1,1.3-1.7
			c13.2-17,21.5-37.1,24.3-58.4c0-0.1,0-0.1,0-0.2c0.1-0.9,0.2-1.7,0.3-2.6c0-0.2,0-0.3,0-0.5c0.1-0.8,0.2-1.6,0.2-2.4
			c0-0.2,0-0.5,0.1-0.7c0.1-0.7,0.1-1.4,0.1-2.1c0-0.3,0-0.6,0-1L366.9,262.3z"/>
	</g>
</g>
<g id="_x3C_Group_x3E_">
	<path opacity="0.4" enable-background="new    " d="M78.7,426.8c70.3,70.3,284.3,70.3,354.6,0c34.1-34.1,51.6-101.9,52.7-170.8
		c-1-68.9-18.6-136.7-52.7-170.8C398.1,50,327.1,32.5,256,32.5S113.8,50,78.7,85.2C44.6,119.3,27.1,187.1,26,256
		C27.1,324.9,44.6,392.7,78.7,426.8z M92.8,99.3C107.1,85,130,73.1,159.3,64.9c28.7-8.1,62.1-12.4,96.7-12.4
		c34.5,0,68,4.3,96.7,12.4c29.2,8.3,52.2,20.2,66.5,34.4c14.3,14.3,26.2,37.2,34.4,66.5c8.1,28.7,12.4,62.1,12.4,96.7
		c0,34.5-4.3,68-12.4,96.7c-8.3,29.2-20.2,52.2-34.4,66.5c-14.3,14.3-37.2,26.2-66.5,34.4c-28.7,8.1-62.1,12.4-96.7,12.4
		c-34.5,0-68-4.3-96.7-12.4c-29.2-8.3-52.2-20.2-66.5-34.4c-14.3-14.3-26.2-37.2-34.4-66.5C50.3,330.5,46,297,46,262.5
		s4.3-68,12.4-96.7C66.7,136.6,78.6,113.6,92.8,99.3z"/>
	<path fill="#FFFFFF" d="M256,46c34.5,0,68,4.3,96.7,12.4c29.2,8.3,52.2,20.2,66.5,34.4c14.3,14.3,26.2,37.2,34.4,66.5
		C461.7,188,466,221.5,466,256s-4.3,68-12.4,96.7c-8.3,29.2-20.2,52.2-34.4,66.5c-14.3,14.3-37.2,26.2-66.5,34.4
		C324,461.7,290.5,466,256,466s-68-4.3-96.7-12.4c-29.2-8.3-52.2-20.2-66.5-34.4c-14.3-14.3-26.2-37.2-34.4-66.5
		C50.3,324,46,290.5,46,256s4.3-68,12.4-96.7c8.3-29.2,20.2-52.2,34.4-66.5c14.3-14.3,37.2-26.2,66.5-34.4C188,50.3,221.5,46,256,46
		 M256,26c-71.1,0-142.1,17.6-177.3,52.7C8.4,149,8.4,363,78.7,433.3C113.9,468.5,184.9,486,256,486s142.1-17.6,177.3-52.7
		c70.3-70.3,70.3-284.3,0-354.6C398.1,43.6,327.1,26,256,26L256,26z"/>
</g>
<g>
	<g opacity="0.4">
		<polygon points="248.2,264.8 256,112.8 263.8,264.8 		"/>
		<polygon points="258.3,268.2 118,359.3 253.7,261.4 		"/>
		<polygon points="256,272.8 378,265 256,257.2 		"/>
		<circle cx="256" cy="265" r="16.5"/>
	</g>
	<polygon fill="#FF0316" points="248.2,255.8 256,103.8 263.8,255.8 	"/>
	<polygon fill="#D1D1D1" points="258.3,259.2 118,350.3 253.7,252.4 	"/>
	<polygon fill="#FFFFFF" points="256,263.8 378,256 256,248.2 	"/>
	<circle fill="#FF0316" cx="256" cy="256" r="16.5"/>
</g>
</svg>
