<?xml version="1.0" encoding="UTF-8" standalone="no"?>
<svg
   xmlns:dc="http://purl.org/dc/elements/1.1/"
   xmlns:cc="http://creativecommons.org/ns#"
   xmlns:rdf="http://www.w3.org/1999/02/22-rdf-syntax-ns#"
   xmlns:svg="http://www.w3.org/2000/svg"
   xmlns="http://www.w3.org/2000/svg"
   viewBox="0 0 640 640"
   height="640"
   width="640"
   xml:space="preserve"
   version="1.1"
   id="svg2"><metadata
     id="metadata8"><rdf:RDF><cc:Work
         rdf:about=""><dc:format>image/svg+xml</dc:format><dc:type
           rdf:resource="http://purl.org/dc/dcmitype/StillImage" /></cc:Work></rdf:RDF></metadata><defs
     id="defs6"><clipPath
       id="clipPath16"
       clipPathUnits="userSpaceOnUse"><path
         id="path18"
         d="M 0,512 512,512 512,0 0,0 0,512 Z" /></clipPath><clipPath
       id="clipPath24"
       clipPathUnits="userSpaceOnUse"><path
         id="path26"
         d="m 18.325,493.744 475.4,0 0,-475.4877 -475.4,0 0,475.4877 z" /></clipPath><clipPath
       id="clipPath28"
       clipPathUnits="userSpaceOnUse"><path
         id="path30"
         d="M 448.99,63.029 C 389.293,3.332 122.807,3.332 63.11,63.029 3.413,122.726 3.413,389.312 63.01,449.009 c 59.597,59.696 326.283,59.596 385.98,0 59.697,-59.597 59.597,-326.283 0,-385.98" /></clipPath><radialGradient
       id="radialGradient36"
       spreadMethod="pad"
       gradientTransform="matrix(237.72188,0,0,237.72188,256.02499,256)"
       gradientUnits="userSpaceOnUse"
       r="1"
       cy="0"
       cx="0"
       fy="0"
       fx="0"><stop
         id="stop38"
         offset="0"
         style="stop-opacity:1;stop-color:#ffffff" /><stop
         id="stop40"
         offset="0.8587"
         style="stop-opacity:0.14129854;stop-color:#ffffff" /><stop
         id="stop42"
         offset="1"
         style="stop-opacity:0;stop-color:#ffffff" /></radialGradient><mask
       id="mask44"
       height="1"
       width="1"
       y="0"
       x="0"
       maskUnits="userSpaceOnUse"><g
         id="g46"><g
           id="g48"><g
             id="g50"><g
               id="g52"><path
                 id="path54"
                 style="fill:url(#radialGradient36);stroke:none"
                 d="m -32768,32767 65535,0 0,-65535 -65535,0 0,65535 z" /></g></g></g></g></mask><radialGradient
       id="radialGradient56"
       spreadMethod="pad"
       gradientTransform="matrix(237.72188,0,0,237.72188,256.02499,256)"
       gradientUnits="userSpaceOnUse"
       r="1"
       cy="0"
       cx="0"
       fy="0"
       fx="0"><stop
         id="stop58"
         offset="0"
         style="stop-opacity:1;stop-color:#010101" /><stop
         id="stop60"
         offset="0.8587"
         style="stop-opacity:1;stop-color:#010101" /><stop
         id="stop62"
         offset="1"
         style="stop-opacity:1;stop-color:#010101" /></radialGradient><clipPath
       id="clipPath86"
       clipPathUnits="userSpaceOnUse"><path
         id="path88"
         d="m 18.325,493.744 475.4,0 0,-475.4877 -475.4,0 0,475.4877 z" /></clipPath><clipPath
       id="clipPath90"
       clipPathUnits="userSpaceOnUse"><path
         id="path92"
         d="M 448.99,63.029 C 389.293,3.332 122.807,3.332 63.11,63.029 3.413,122.726 3.413,389.312 63.01,449.009 c 59.597,59.696 326.283,59.596 385.98,0 59.697,-59.597 59.597,-326.283 0,-385.98" /></clipPath><radialGradient
       id="radialGradient98"
       spreadMethod="pad"
       gradientTransform="matrix(188.25467,188.36119,-130.35883,130.27895,256.02499,256.04376)"
       gradientUnits="userSpaceOnUse"
       r="1"
       cy="0"
       cx="0"
       fy="0"
       fx="0"><stop
         id="stop100"
         offset="0"
         style="stop-opacity:1;stop-color:#ffffff" /><stop
         id="stop102"
         offset="0.8587"
         style="stop-opacity:0.14129854;stop-color:#ffffff" /><stop
         id="stop104"
         offset="1"
         style="stop-opacity:0;stop-color:#ffffff" /></radialGradient><mask
       id="mask106"
       height="1"
       width="1"
       y="0"
       x="0"
       maskUnits="userSpaceOnUse"><g
         id="g108"><g
           id="g110"><g
             id="g112"><g
               id="g114"><path
                 id="path116"
                 style="fill:url(#radialGradient98);stroke:none"
                 d="m -32768,32767 65535,0 0,-65535 -65535,0 0,65535 z" /></g></g></g></g></mask><radialGradient
       id="radialGradient118"
       spreadMethod="pad"
       gradientTransform="matrix(188.25467,188.36119,-130.35883,130.27895,256.02499,256.04376)"
       gradientUnits="userSpaceOnUse"
       r="1"
       cy="0"
       cx="0"
       fy="0"
       fx="0"><stop
         id="stop120"
         offset="0"
         style="stop-opacity:1;stop-color:#010101" /><stop
         id="stop122"
         offset="0.8587"
         style="stop-opacity:1;stop-color:#010101" /><stop
         id="stop124"
         offset="1"
         style="stop-opacity:1;stop-color:#010101" /></radialGradient><clipPath
       id="clipPath148"
       clipPathUnits="userSpaceOnUse"><path
         id="path150"
         d="m 18.275,493.694 475.387,0 0,-475.4377 -475.387,0 0,475.4377 z" /></clipPath><clipPath
       id="clipPath152"
       clipPathUnits="userSpaceOnUse"><path
         id="path154"
         d="m 63.01,63.029 c 59.697,-59.697 326.183,-59.697 385.88,0 59.697,59.697 59.697,326.183 0,385.88 -59.697,59.696 -326.183,59.696 -385.88,0.1 -59.697,-59.597 -59.597,-326.283 0,-385.98" /></clipPath><radialGradient
       id="radialGradient160"
       spreadMethod="pad"
       gradientTransform="matrix(-188.28767,188.39421,130.38168,130.30179,255.92499,255.99377)"
       gradientUnits="userSpaceOnUse"
       r="1"
       cy="0"
       cx="0"
       fy="0"
       fx="0"><stop
         id="stop162"
         offset="0"
         style="stop-opacity:1;stop-color:#ffffff" /><stop
         id="stop164"
         offset="0.8587"
         style="stop-opacity:0.14129854;stop-color:#ffffff" /><stop
         id="stop166"
         offset="1"
         style="stop-opacity:0;stop-color:#ffffff" /></radialGradient><mask
       id="mask168"
       height="1"
       width="1"
       y="0"
       x="0"
       maskUnits="userSpaceOnUse"><g
         id="g170"><g
           id="g172"><g
             id="g174"><g
               id="g176"><path
                 id="path178"
                 style="fill:url(#radialGradient160);stroke:none"
                 d="m -32768,32767 65535,0 0,-65535 -65535,0 0,65535 z" /></g></g></g></g></mask><radialGradient
       id="radialGradient180"
       spreadMethod="pad"
       gradientTransform="matrix(-188.28767,188.39421,130.38168,130.30179,255.92499,255.99377)"
       gradientUnits="userSpaceOnUse"
       r="1"
       cy="0"
       cx="0"
       fy="0"
       fx="0"><stop
         id="stop182"
         offset="0"
         style="stop-opacity:1;stop-color:#010101" /><stop
         id="stop184"
         offset="0.8587"
         style="stop-opacity:1;stop-color:#010101" /><stop
         id="stop186"
         offset="1"
         style="stop-opacity:1;stop-color:#010101" /></radialGradient><radialGradient
       id="radialGradient218"
       spreadMethod="pad"
       gradientTransform="matrix(230,0,0,-230,256,256)"
       gradientUnits="userSpaceOnUse"
       r="1"
       cy="0"
       cx="0"
       fy="0"
       fx="0"><stop
         id="stop220"
         offset="0"
         style="stop-opacity:1;stop-color:#fafbfb" /><stop
         id="stop222"
         offset="1"
         style="stop-opacity:1;stop-color:#e2e3e4" /></radialGradient><clipPath
       id="clipPath230"
       clipPathUnits="userSpaceOnUse"><path
         id="path232"
         d="M 0,512 512,512 512,0 0,0 0,512 Z" /></clipPath><clipPath
       id="clipPath238"
       clipPathUnits="userSpaceOnUse"><path
         id="path240"
         d="m 206.686,305.314 98.628,0 0,-98.628 -98.628,0 0,98.628 z" /></clipPath><clipPath
       id="clipPath242"
       clipPathUnits="userSpaceOnUse"><path
         id="path244"
         d="m 206.686,305.314 98.628,0 0,-98.628 -98.628,0 0,98.628 z" /></clipPath><clipPath
       id="clipPath270"
       clipPathUnits="userSpaceOnUse"><path
         id="path272"
         d="m 134.154,377.846 243.692,0 0,-243.692 -243.692,0 0,243.692 z" /></clipPath><clipPath
       id="clipPath274"
       clipPathUnits="userSpaceOnUse"><path
         id="path276"
         d="m 134.154,377.846 243.692,0 0,-243.692 -243.692,0 0,243.692 z" /></clipPath></defs><g
     transform="matrix(1.25,0,0,-1.25,0,640)"
     id="g10"><g
       id="g12"><g
         clip-path="url(#clipPath16)"
         id="g14"><g
           id="g20"><g
             id="g22" /><g
             id="g64"><g
               style="opacity:0.39999402"
               id="g66"
               clip-path="url(#clipPath24)"><g
                 id="g68"><g
                   id="g70"
                   clip-path="url(#clipPath28)"><g
                     id="g72"><g
                       id="g74" /><g
                       id="g76"
                       mask="url(#mask44)"><g
                         id="g78"><path
                           id="path80"
                           style="fill:url(#radialGradient56);stroke:none"
                           d="M 448.99,63.029 C 389.293,3.332 122.807,3.332 63.11,63.029 3.413,122.726 3.413,389.312 63.01,449.009 c 59.597,59.696 326.283,59.596 385.98,0 59.697,-59.597 59.597,-326.283 0,-385.98" /></g></g></g></g></g></g></g></g><g
           id="g82"><g
             id="g84" /><g
             id="g126"><g
               style="opacity:0.39999402"
               id="g128"
               clip-path="url(#clipPath86)"><g
                 id="g130"><g
                   id="g132"
                   clip-path="url(#clipPath90)"><g
                     id="g134"><g
                       id="g136" /><g
                       id="g138"
                       mask="url(#mask106)"><g
                         id="g140"><path
                           id="path142"
                           style="fill:url(#radialGradient118);stroke:none"
                           d="M 448.99,63.029 C 389.293,3.332 122.807,3.332 63.11,63.029 3.413,122.726 3.413,389.312 63.01,449.009 c 59.597,59.696 326.283,59.596 385.98,0 59.697,-59.597 59.597,-326.283 0,-385.98" /></g></g></g></g></g></g></g></g><g
           id="g144"><g
             id="g146" /><g
             id="g188"><g
               style="opacity:0.39999402"
               id="g190"
               clip-path="url(#clipPath148)"><g
                 id="g192"><g
                   id="g194"
                   clip-path="url(#clipPath152)"><g
                     id="g196"><g
                       id="g198" /><g
                       id="g200"
                       mask="url(#mask168)"><g
                         id="g202"><path
                           id="path204"
                           style="fill:url(#radialGradient180);stroke:none"
                           d="m 63.01,63.029 c 59.697,-59.697 326.183,-59.697 385.88,0 59.697,59.697 59.697,326.183 0,385.88 -59.697,59.696 -326.183,59.696 -385.88,0.1 -59.697,-59.597 -59.597,-326.283 0,-385.98" /></g></g></g></g></g></g></g></g></g></g><g
       id="g206"><g
         id="g208"><g
           id="g214"><g
             id="g216"><path
               id="path224"
               style="fill:url(#radialGradient218);stroke:none"
               d="M 78.721,433.279 C 8.427,362.985 8.427,149.015 78.721,78.721 l 0,0 c 70.294,-70.294 284.264,-70.294 354.558,0 l 0,0 c 70.294,70.294 70.294,284.264 0,354.558 l 0,0 C 398.132,468.426 327.066,486 256,486 l 0,0 C 184.934,486 113.868,468.426 78.721,433.279" /></g></g></g></g><g
       id="g226"><g
         clip-path="url(#clipPath230)"
         id="g228"><g
           id="g234"><g
             id="g236" /><g
             id="g246"><g
               id="g248"
               clip-path="url(#clipPath238)"><g
                 id="g250"><g
                   id="g252" /><g
                   id="g254"><g
                     style="opacity:0.5"
                     id="g256"
                     clip-path="url(#clipPath242)"><g
                       id="g258"
                       transform="translate(256,230.7074)"><path
                         id="path260"
                         style="fill:#e2e1e1;fill-opacity:1;fill-rule:nonzero;stroke:none"
                         d="m 0,0 c -13.947,0 -25.293,11.346 -25.293,25.293 0,13.947 11.346,25.293 25.293,25.293 13.947,0 25.293,-11.346 25.293,-25.293 C 25.293,11.346 13.947,0 0,0 m 0,74.607 c -27.192,0 -49.314,-22.122 -49.314,-49.314 0,-27.192 22.122,-49.314 49.314,-49.314 27.192,0 49.314,22.122 49.314,49.314 0,27.192 -22.122,49.314 -49.314,49.314" /></g></g></g></g><g
                 id="g262"
                 transform="translate(256,233.3703)"><path
                   id="path264"
                   style="fill:#ffffff;fill-opacity:1;fill-rule:nonzero;stroke:none"
                   d="m 0,0 c -12.479,0 -22.631,10.152 -22.631,22.631 0,12.478 10.152,22.63 22.631,22.63 12.479,0 22.631,-10.152 22.631,-22.63 C 22.631,10.152 12.479,0 0,0 m 0,47.923 c -13.947,0 -25.293,-11.346 -25.293,-25.293 0,-13.947 11.346,-25.293 25.293,-25.293 13.947,0 25.293,11.346 25.293,25.293 0,13.947 -11.346,25.293 -25.293,25.293" /></g></g></g></g><g
           id="g266"><g
             id="g268" /><g
             id="g278"><g
               id="g280"
               clip-path="url(#clipPath270)"><g
                 id="g282"
                 transform="translate(255.9993,207.7513)"><path
                   id="path284"
                   style="fill:#ffffff;fill-opacity:1;fill-rule:nonzero;stroke:none"
                   d="m 0,0 c -26.605,0 -48.249,21.645 -48.249,48.249 0,26.604 21.645,48.249 48.249,48.249 26.604,0 48.249,-21.645 48.249,-48.249 C 48.25,21.645 26.605,0 0,0 m 0,99.693 c -28.412,0 -51.444,-23.031 -51.444,-51.443 0,-28.412 23.032,-51.445 51.444,-51.445 28.412,0 51.444,23.032 51.444,51.445 0,28.412 -23.032,51.443 -51.444,51.443" /></g><g
                 id="g286"><g
                   id="g288" /><g
                   id="g290"><g
                     style="opacity:0.5"
                     id="g292"
                     clip-path="url(#clipPath274)"><g
                       id="g294"
                       transform="translate(339.8991,172.1019)"><path
                         id="path296"
                         style="fill:#ffffff;fill-opacity:1;fill-rule:nonzero;stroke:none"
                         d="m 0,0 c -22.41,-22.411 -52.206,-34.752 -83.899,-34.752 -31.693,0 -61.489,12.341 -83.899,34.752 -22.41,22.411 -34.753,52.207 -34.753,83.898 0,31.693 12.342,61.49 34.752,83.9 22.411,22.41 52.206,34.751 83.899,34.751 31.693,0 61.489,-12.341 83.899,-34.751 22.41,-22.41 34.752,-52.206 34.753,-83.9 C 34.752,52.206 22.41,22.411 0,0 m 2.259,170.057 c -23.014,23.013 -53.612,35.687 -86.159,35.687 -32.546,0 -63.143,-12.674 -86.158,-35.687 -23.013,-23.014 -35.687,-53.612 -35.687,-86.159 0,-32.546 12.673,-63.144 35.688,-86.158 23.013,-23.014 53.611,-35.688 86.158,-35.688 32.547,0 63.145,12.674 86.158,35.688 23.014,23.014 35.688,53.611 35.688,86.158 -0.001,32.548 -12.676,63.145 -35.688,86.159" /></g></g></g></g><g
                 id="g298"
                 transform="translate(255.9993,204.5566)"><path
                   id="path300"
                   style="fill:#499cd5;fill-opacity:1;fill-rule:nonzero;stroke:none"
                   d="m 0,0 c -28.412,0 -51.444,23.032 -51.444,51.444 0,28.413 23.032,51.444 51.444,51.444 28.412,0 51.444,-23.031 51.444,-51.444 C 51.444,23.032 28.412,0 0,0 M 83.899,135.343 C 61.489,157.753 31.693,170.095 0,170.095 c -31.693,0 -61.488,-12.342 -83.899,-34.752 -22.409,-22.41 -34.752,-52.206 -34.752,-83.899 0,-31.693 12.342,-61.489 34.753,-83.899 22.41,-22.411 52.205,-34.753 83.899,-34.753 31.693,0 61.489,12.342 83.899,34.753 22.41,22.41 34.752,52.206 34.752,83.899 -0.001,31.693 -12.343,61.489 -34.753,83.899" /></g></g></g></g><g
           transform="translate(250.116,110.5778)"
           id="g302"><path
             id="path304"
             style="fill:#499cd5;fill-opacity:1;fill-rule:nonzero;stroke:none"
             d="m 0,0 3.594,0 c 1.083,0 2.028,0.136 2.833,0.407 0.806,0.271 1.47,0.647 1.99,1.125 0.521,0.479 0.91,1.047 1.166,1.704 0.256,0.657 0.385,1.38 0.385,2.166 0,1.572 -0.518,2.779 -1.551,3.622 C 7.382,9.868 5.803,10.29 3.678,10.29 l -3.679,0 L -0.001,0 0,0 Z m 0,-4.128 0,-12.086 -5.754,0 0,30.932 9.433,0 c 2.11,0 3.918,-0.217 5.423,-0.652 1.504,-0.435 2.738,-1.046 3.7,-1.83 0.963,-0.784 1.669,-1.722 2.118,-2.813 0.449,-1.091 0.674,-2.292 0.674,-3.604 0,-1.041 -0.154,-2.026 -0.46,-2.952 -0.307,-0.928 -0.749,-1.769 -1.327,-2.524 -0.577,-0.757 -1.291,-1.42 -2.139,-1.99 -0.849,-0.57 -1.815,-1.027 -2.899,-1.369 0.728,-0.413 1.355,-1.005 1.883,-1.775 l 7.743,-11.424 -5.175,0 c -0.5,0 -0.924,0.1 -1.274,0.3 -0.35,0.199 -0.645,0.484 -0.887,0.855 l -6.504,9.904 c -0.242,0.371 -0.51,0.634 -0.802,0.792 -0.293,0.156 -0.724,0.235 -1.294,0.235 l -2.459,0 0,10e-4 z" /></g><path
           id="path306"
           style="fill:#499cd5;fill-opacity:1;fill-rule:nonzero;stroke:none"
           d="m 278.674,94.363 -5.775,0 0,30.933 5.775,0 0,-30.933 z" /><g
           transform="translate(291.5723,109.7439)"
           id="g308"><path
             id="path310"
             style="fill:#499cd5;fill-opacity:1;fill-rule:nonzero;stroke:none"
             d="m 0,0 4.321,0 c 1.055,0 1.976,0.132 2.76,0.396 0.785,0.265 1.433,0.643 1.947,1.136 0.514,0.492 0.899,1.093 1.155,1.8 0.257,0.708 0.385,1.497 0.385,2.369 0,0.829 -0.128,1.579 -0.385,2.251 C 9.927,8.623 9.542,9.195 9.028,9.666 8.514,10.137 7.866,10.499 7.081,10.748 6.297,10.999 5.377,11.124 4.321,11.124 L 0,11.124 0,0 Z m 0,-4.493 0,-10.888 -5.754,0 0,30.932 10.075,0 c 2.068,0 3.857,-0.242 5.37,-0.727 1.511,-0.485 2.759,-1.163 3.743,-2.032 0.984,-0.87 1.711,-1.912 2.181,-3.124 0.471,-1.212 0.706,-2.538 0.706,-3.979 0,-1.497 -0.249,-2.87 -0.748,-4.118 C 15.074,0.324 14.325,-0.75 13.327,-1.648 12.328,-2.546 11.08,-3.245 9.584,-3.744 8.086,-4.243 6.332,-4.493 4.321,-4.493 l -4.321,0 z" /></g><path
           id="path312"
           style="fill:#499cd5;fill-opacity:1;fill-rule:nonzero;stroke:none"
           d="m 204.106,125.295 12.927,0 0,-12.927 -12.927,0 0,12.927 z" /><path
           id="path314"
           style="fill:#499cd5;fill-opacity:1;fill-rule:nonzero;stroke:none"
           d="m 222.343,125.295 12.927,0 0,-12.927 -12.927,0 0,12.927 z" /><path
           id="path316"
           style="fill:#499cd5;fill-opacity:1;fill-rule:nonzero;stroke:none"
           d="m 204.106,107.29 12.927,0 0,-12.927 -12.927,0 0,12.927 z" /><path
           id="path318"
           style="fill:#499cd5;fill-opacity:1;fill-rule:nonzero;stroke:none"
           d="m 222.343,107.29 12.927,0 0,-12.927 -12.927,0 0,12.927 z" /></g></g></g></svg>