<?xml version="1.0" encoding="UTF-8" standalone="no"?>
<svg
   xmlns:dc="http://purl.org/dc/elements/1.1/"
   xmlns:cc="http://creativecommons.org/ns#"
   xmlns:rdf="http://www.w3.org/1999/02/22-rdf-syntax-ns#"
   xmlns:svg="http://www.w3.org/2000/svg"
   xmlns="http://www.w3.org/2000/svg"
   viewBox="0 0 640 640"
   height="640"
   width="640"
   xml:space="preserve"
   version="1.1"
   id="svg2"><metadata
     id="metadata8"><rdf:RDF><cc:Work
         rdf:about=""><dc:format>image/svg+xml</dc:format><dc:type
           rdf:resource="http://purl.org/dc/dcmitype/StillImage" /></cc:Work></rdf:RDF></metadata><defs
     id="defs6"><clipPath
       id="clipPath16"
       clipPathUnits="userSpaceOnUse"><path
         id="path18"
         d="M 0,512 512,512 512,0 0,0 0,512 Z" /></clipPath><clipPath
       id="clipPath24"
       clipPathUnits="userSpaceOnUse"><path
         id="path26"
         d="m 18.325,493.744 475.4,0 0,-475.4877 -475.4,0 0,475.4877 z" /></clipPath><clipPath
       id="clipPath28"
       clipPathUnits="userSpaceOnUse"><path
         id="path30"
         d="M 448.99,63.029 C 389.293,3.332 122.807,3.332 63.11,63.029 3.413,122.726 3.413,389.312 63.01,449.009 c 59.597,59.696 326.283,59.596 385.98,0 59.697,-59.597 59.597,-326.283 0,-385.98" /></clipPath><radialGradient
       id="radialGradient36"
       spreadMethod="pad"
       gradientTransform="matrix(237.72188,0,0,237.72188,256.02499,256)"
       gradientUnits="userSpaceOnUse"
       r="1"
       cy="0"
       cx="0"
       fy="0"
       fx="0"><stop
         id="stop38"
         offset="0"
         style="stop-opacity:1;stop-color:#ffffff" /><stop
         id="stop40"
         offset="0.8587"
         style="stop-opacity:0.14129854;stop-color:#ffffff" /><stop
         id="stop42"
         offset="1"
         style="stop-opacity:0;stop-color:#ffffff" /></radialGradient><mask
       id="mask44"
       height="1"
       width="1"
       y="0"
       x="0"
       maskUnits="userSpaceOnUse"><g
         id="g46"><g
           id="g48"><g
             id="g50"><g
               id="g52"><path
                 id="path54"
                 style="fill:url(#radialGradient36);stroke:none"
                 d="m -32768,32767 65535,0 0,-65535 -65535,0 0,65535 z" /></g></g></g></g></mask><radialGradient
       id="radialGradient56"
       spreadMethod="pad"
       gradientTransform="matrix(237.72188,0,0,237.72188,256.02499,256)"
       gradientUnits="userSpaceOnUse"
       r="1"
       cy="0"
       cx="0"
       fy="0"
       fx="0"><stop
         id="stop58"
         offset="0"
         style="stop-opacity:1;stop-color:#010101" /><stop
         id="stop60"
         offset="0.8587"
         style="stop-opacity:1;stop-color:#010101" /><stop
         id="stop62"
         offset="1"
         style="stop-opacity:1;stop-color:#010101" /></radialGradient><clipPath
       id="clipPath86"
       clipPathUnits="userSpaceOnUse"><path
         id="path88"
         d="m 18.325,493.744 475.4,0 0,-475.4877 -475.4,0 0,475.4877 z" /></clipPath><clipPath
       id="clipPath90"
       clipPathUnits="userSpaceOnUse"><path
         id="path92"
         d="M 448.99,63.029 C 389.293,3.332 122.807,3.332 63.11,63.029 3.413,122.726 3.413,389.312 63.01,449.009 c 59.597,59.696 326.283,59.596 385.98,0 59.697,-59.597 59.597,-326.283 0,-385.98" /></clipPath><radialGradient
       id="radialGradient98"
       spreadMethod="pad"
       gradientTransform="matrix(188.25467,188.36119,-130.35883,130.27895,256.02499,256.04376)"
       gradientUnits="userSpaceOnUse"
       r="1"
       cy="0"
       cx="0"
       fy="0"
       fx="0"><stop
         id="stop100"
         offset="0"
         style="stop-opacity:1;stop-color:#ffffff" /><stop
         id="stop102"
         offset="0.8587"
         style="stop-opacity:0.14129854;stop-color:#ffffff" /><stop
         id="stop104"
         offset="1"
         style="stop-opacity:0;stop-color:#ffffff" /></radialGradient><mask
       id="mask106"
       height="1"
       width="1"
       y="0"
       x="0"
       maskUnits="userSpaceOnUse"><g
         id="g108"><g
           id="g110"><g
             id="g112"><g
               id="g114"><path
                 id="path116"
                 style="fill:url(#radialGradient98);stroke:none"
                 d="m -32768,32767 65535,0 0,-65535 -65535,0 0,65535 z" /></g></g></g></g></mask><radialGradient
       id="radialGradient118"
       spreadMethod="pad"
       gradientTransform="matrix(188.25467,188.36119,-130.35883,130.27895,256.02499,256.04376)"
       gradientUnits="userSpaceOnUse"
       r="1"
       cy="0"
       cx="0"
       fy="0"
       fx="0"><stop
         id="stop120"
         offset="0"
         style="stop-opacity:1;stop-color:#010101" /><stop
         id="stop122"
         offset="0.8587"
         style="stop-opacity:1;stop-color:#010101" /><stop
         id="stop124"
         offset="1"
         style="stop-opacity:1;stop-color:#010101" /></radialGradient><clipPath
       id="clipPath148"
       clipPathUnits="userSpaceOnUse"><path
         id="path150"
         d="m 18.275,493.694 475.387,0 0,-475.4377 -475.387,0 0,475.4377 z" /></clipPath><clipPath
       id="clipPath152"
       clipPathUnits="userSpaceOnUse"><path
         id="path154"
         d="m 63.01,63.029 c 59.697,-59.697 326.183,-59.697 385.88,0 59.697,59.697 59.697,326.183 0,385.88 -59.697,59.696 -326.183,59.696 -385.88,0.1 -59.697,-59.597 -59.597,-326.283 0,-385.98" /></clipPath><radialGradient
       id="radialGradient160"
       spreadMethod="pad"
       gradientTransform="matrix(-188.28767,188.39421,130.38168,130.30179,255.92499,255.99377)"
       gradientUnits="userSpaceOnUse"
       r="1"
       cy="0"
       cx="0"
       fy="0"
       fx="0"><stop
         id="stop162"
         offset="0"
         style="stop-opacity:1;stop-color:#ffffff" /><stop
         id="stop164"
         offset="0.8587"
         style="stop-opacity:0.14129854;stop-color:#ffffff" /><stop
         id="stop166"
         offset="1"
         style="stop-opacity:0;stop-color:#ffffff" /></radialGradient><mask
       id="mask168"
       height="1"
       width="1"
       y="0"
       x="0"
       maskUnits="userSpaceOnUse"><g
         id="g170"><g
           id="g172"><g
             id="g174"><g
               id="g176"><path
                 id="path178"
                 style="fill:url(#radialGradient160);stroke:none"
                 d="m -32768,32767 65535,0 0,-65535 -65535,0 0,65535 z" /></g></g></g></g></mask><radialGradient
       id="radialGradient180"
       spreadMethod="pad"
       gradientTransform="matrix(-188.28767,188.39421,130.38168,130.30179,255.92499,255.99377)"
       gradientUnits="userSpaceOnUse"
       r="1"
       cy="0"
       cx="0"
       fy="0"
       fx="0"><stop
         id="stop182"
         offset="0"
         style="stop-opacity:1;stop-color:#010101" /><stop
         id="stop184"
         offset="0.8587"
         style="stop-opacity:1;stop-color:#010101" /><stop
         id="stop186"
         offset="1"
         style="stop-opacity:1;stop-color:#010101" /></radialGradient></defs><g
     transform="matrix(1.25,0,0,-1.25,0,640)"
     id="g10"><g
       id="g12"><g
         clip-path="url(#clipPath16)"
         id="g14"><g
           id="g20"><g
             id="g22" /><g
             id="g64"><g
               style="opacity:0.39999402"
               id="g66"
               clip-path="url(#clipPath24)"><g
                 id="g68"><g
                   id="g70"
                   clip-path="url(#clipPath28)"><g
                     id="g72"><g
                       id="g74" /><g
                       id="g76"
                       mask="url(#mask44)"><g
                         id="g78"><path
                           id="path80"
                           style="fill:url(#radialGradient56);stroke:none"
                           d="M 448.99,63.029 C 389.293,3.332 122.807,3.332 63.11,63.029 3.413,122.726 3.413,389.312 63.01,449.009 c 59.597,59.696 326.283,59.596 385.98,0 59.697,-59.597 59.597,-326.283 0,-385.98" /></g></g></g></g></g></g></g></g><g
           id="g82"><g
             id="g84" /><g
             id="g126"><g
               style="opacity:0.39999402"
               id="g128"
               clip-path="url(#clipPath86)"><g
                 id="g130"><g
                   id="g132"
                   clip-path="url(#clipPath90)"><g
                     id="g134"><g
                       id="g136" /><g
                       id="g138"
                       mask="url(#mask106)"><g
                         id="g140"><path
                           id="path142"
                           style="fill:url(#radialGradient118);stroke:none"
                           d="M 448.99,63.029 C 389.293,3.332 122.807,3.332 63.11,63.029 3.413,122.726 3.413,389.312 63.01,449.009 c 59.597,59.696 326.283,59.596 385.98,0 59.697,-59.597 59.597,-326.283 0,-385.98" /></g></g></g></g></g></g></g></g><g
           id="g144"><g
             id="g146" /><g
             id="g188"><g
               style="opacity:0.39999402"
               id="g190"
               clip-path="url(#clipPath148)"><g
                 id="g192"><g
                   id="g194"
                   clip-path="url(#clipPath152)"><g
                     id="g196"><g
                       id="g198" /><g
                       id="g200"
                       mask="url(#mask168)"><g
                         id="g202"><path
                           id="path204"
                           style="fill:url(#radialGradient180);stroke:none"
                           d="m 63.01,63.029 c 59.697,-59.697 326.183,-59.697 385.88,0 59.697,59.697 59.697,326.183 0,385.88 -59.697,59.696 -326.183,59.696 -385.88,0.1 -59.697,-59.597 -59.597,-326.283 0,-385.98" /></g></g></g></g></g></g></g></g><g
           transform="translate(433.2792,78.7208)"
           id="g206"><path
             id="path208"
             style="fill:#1e1e1e;fill-opacity:1;fill-rule:nonzero;stroke:none"
             d="m 0,0 c -70.294,-70.294 -284.264,-70.294 -354.558,0 -70.295,70.294 -70.295,284.264 0,354.558 70.294,70.295 284.264,70.295 354.558,0 C 70.294,284.264 70.294,70.294 0,0" /></g><g
           transform="translate(256.7569,120.8558)"
           id="g210"><path
             id="path212"
             style="fill:#ffffff;fill-opacity:1;fill-rule:nonzero;stroke:none"
             d="m 0,0 c -74.638,0 -135.144,60.507 -135.144,135.144 0,74.638 60.506,135.144 135.144,135.144 65.281,10e-4 119.75,-46.287 132.382,-107.832 l -11.712,13.042 3.865,-24.14 -23.906,5.114 17.315,-17.258 -22.346,-9.915 24.153,-3.784 -12.251,-21.156 21.764,11.136 1.51,-14.551 C 115.628,42.867 62.821,0 0,0 m 161.911,131.074 22.346,9.916 -24.152,3.783 12.25,21.156 -21.764,-11.136 -2.524,24.317 -2.056,-4.053 C 128.657,236.098 72.493,280.804 5.888,280.803 c -80.445,0 -145.659,-65.214 -145.659,-145.659 0,-80.445 65.214,-145.659 145.659,-145.659 70.622,0 129.499,50.263 142.827,116.965 l 10.47,-11.659 -3.865,24.139 23.907,-5.113 -17.316,17.257 z" /></g></g></g></g></svg>