<?xml version="1.0" encoding="utf-8"?>
<!-- Generator: Adobe Illustrator 22.0.1, SVG Export Plug-In . SVG Version: 6.00 Build 0)  -->
<svg version="1.1" id="Layer_1" xmlns="http://www.w3.org/2000/svg" xmlns:xlink="http://www.w3.org/1999/xlink" x="0px" y="0px"
	 viewBox="0 0 512 512" style="enable-background:new 0 0 512 512;" xml:space="preserve">
<g>
	<g style="opacity:0.4;enable-background:new    ;">
		
			<radialGradient id="SVGID_1_" cx="256.525" cy="254.5188" r="237.7344" gradientTransform="matrix(1 0 0 1 -0.5 1.5)" gradientUnits="userSpaceOnUse">
			<stop  offset="0" style="stop-color:#010101"/>
			<stop  offset="0.8587" style="stop-color:#010101;stop-opacity:0.1413"/>
			<stop  offset="1" style="stop-color:#010101;stop-opacity:0"/>
		</radialGradient>
		<path style="fill:url(#SVGID_1_);" d="M449,449c-59.7,59.7-326.2,59.7-385.9,0S3.4,122.7,63,63s326.3-59.6,386,0
			S508.6,389.3,449,449z"/>
	</g>
	<g style="opacity:0.4;enable-background:new    ;">
		
			<radialGradient id="SVGID_2_" cx="257.0394" cy="253.9629" r="266.3242" gradientTransform="matrix(0.7069 -0.7073 0.4895 0.4892 -49.991 313.5403)" gradientUnits="userSpaceOnUse">
			<stop  offset="0" style="stop-color:#010101"/>
			<stop  offset="0.8587" style="stop-color:#010101;stop-opacity:0.1413"/>
			<stop  offset="1" style="stop-color:#010101;stop-opacity:0"/>
		</radialGradient>
		<path style="fill:url(#SVGID_2_);" d="M449,449c-59.7,59.7-326.2,59.7-385.9,0S3.4,122.7,63,63s326.3-59.6,386,0
			S508.6,389.3,449,449z"/>
	</g>
	<g style="opacity:0.4;enable-background:new    ;">
		
			<radialGradient id="SVGID_3_" cx="257.7463" cy="255.0872" r="266.3709" gradientTransform="matrix(-0.7069 -0.7073 -0.4895 0.4892 562.991 313.5403)" gradientUnits="userSpaceOnUse">
			<stop  offset="0" style="stop-color:#010101"/>
			<stop  offset="0.8587" style="stop-color:#010101;stop-opacity:0.1413"/>
			<stop  offset="1" style="stop-color:#010101;stop-opacity:0"/>
		</radialGradient>
		<path style="fill:url(#SVGID_3_);" d="M63,449c59.7,59.7,326.2,59.7,385.9,0s59.7-326.2,0-385.9S122.7,3.4,63,63S3.4,389.3,63,449
			z"/>
	</g>
</g>
<path style="fill:#F7E494;" d="M433.3,433.3c-70.3,70.3-284.3,70.3-354.6,0S8.4,149,78.7,78.7s284.3-70.3,354.6,0
	S503.6,363,433.3,433.3z"/>
<g>
	<g id="g12">
		<path id="rect4" style="fill:#F7F7F7;" d="M256,255.35c0-5.85-4.75-10.6-10.6-10.6H145.1c-5.85,0-10.6,4.75-10.6,10.6
			c0,5.85,4.75,10.6,10.6,10.6h100.3C251.25,265.949,256,261.199,256,255.35z"/>
		<path id="rect6" style="fill:#F7F7F7;" d="M377.5,296.549c0-5.85-4.75-10.6-10.6-10.6H145.1c-5.85,0-10.6,4.75-10.6,10.6
			c0,5.85,4.75,10.6,10.6,10.6h221.8C372.75,307.149,377.5,302.399,377.5,296.549z"/>
		<path id="rect8" style="fill:#F7F7F7;" d="M377.5,336.549c0-5.85-4.75-10.6-10.6-10.6H145.1c-5.85,0-10.6,4.75-10.6,10.6
			c0,5.85,4.75,10.6,10.6,10.6h221.8C372.75,347.149,377.5,342.399,377.5,336.549z"/>
		<path id="rect10" style="fill:#F7F7F7;" d="M377.4,376.649c0-5.85-4.75-10.6-10.6-10.6H266.6c-5.85,0-10.6,4.75-10.6,10.6
			c0,5.85,4.75,10.6,10.6,10.6h100.2C372.65,387.25,377.4,382.5,377.4,376.649z"/>
	</g>
	<g>
		<path style="fill:#FFCC66;" d="M174.729,208.27c15.94,0,18.186-8.756,18.186-16.614c0-6.286-0.898-12.573-1.796-18.859
			c-0.898-6.286-1.796-12.349-1.796-18.635c0-20.656,13.471-29.412,32.555-29.412h4.715V137.1h-4.041
			c-13.247,0-17.737,7.185-17.737,19.309c0,5.164,0.674,10.552,1.571,15.94c0.898,5.613,1.572,11.002,1.572,17.063
			c0.225,14.369-6.062,21.554-16.165,24.248v0.449c10.103,2.47,16.39,10.103,16.165,24.473c0,6.062-0.674,11.675-1.572,17.063
			c-0.897,5.612-1.571,10.776-1.571,16.165c0,12.573,5.164,19.533,17.737,19.533h4.041v12.349h-4.715
			c-18.635,0-32.555-8.083-32.555-30.76c0-6.062,0.897-12.348,1.796-18.41c0.897-6.062,1.796-12.124,1.796-18.186
			c0-6.96-2.245-16.615-18.186-16.615V208.27z"/>
		<path style="fill:#FFCC66;" d="M337.273,219.721c-15.94,0-18.186,9.655-18.186,16.615c0,6.062,0.897,12.124,1.796,18.186
			c0.897,6.062,1.796,12.349,1.796,18.41c0,22.677-14.145,30.76-32.555,30.76h-4.715v-12.349h3.816
			c12.573-0.225,17.962-6.96,17.962-19.533c0-5.389-0.898-10.553-1.572-16.165c-0.897-5.389-1.796-11.002-1.796-17.063
			c0-14.37,6.286-22.003,16.165-24.473v-0.449c-9.879-2.694-16.165-9.879-16.165-24.248c0-6.062,0.898-11.45,1.796-17.063
			c0.674-5.389,1.572-10.776,1.572-15.94c0-12.124-4.715-19.084-17.737-19.309h-4.041v-12.349h4.49
			c19.084,0,32.779,8.756,32.779,29.412c0,6.286-0.898,12.349-1.796,18.635c-0.898,6.286-1.796,12.573-1.796,18.859
			c0,7.858,2.245,16.614,18.186,16.614L337.273,219.721L337.273,219.721z"/>
	</g>
</g>
</svg>
