<?xml version="1.0" encoding="utf-8"?>
<!-- Generator: Adobe Illustrator 18.0.0, SVG Export Plug-In . SVG Version: 6.00 Build 0)  -->
<!DOCTYPE svg PUBLIC "-//W3C//DTD SVG 1.1//EN" "http://www.w3.org/Graphics/SVG/1.1/DTD/svg11.dtd">
<svg version="1.1" id="Layer_3" xmlns="http://www.w3.org/2000/svg" xmlns:xlink="http://www.w3.org/1999/xlink" x="0px" y="0px"
	 viewBox="0 0 512 512" enable-background="new 0 0 512 512" xml:space="preserve">
<g>
	<g opacity="0.4" enable-background="new    ">
		
			<radialGradient id="SVGID_1_" cx="1.0125" cy="515" r="118.8609" gradientTransform="matrix(2 0 0 -2 254 1286)" gradientUnits="userSpaceOnUse">
			<stop  offset="0" style="stop-color:#010101"/>
			<stop  offset="0.8587" style="stop-color:#010101;stop-opacity:0.1413"/>
			<stop  offset="1" style="stop-color:#010101;stop-opacity:0"/>
		</radialGradient>
		<path fill="url(#SVGID_1_)" d="M449,449c-59.7,59.7-326.2,59.7-385.9,0S3.4,122.7,63,63s326.3-59.6,386,0S508.6,389.3,449,449z"/>
	</g>
	<g opacity="0.4" enable-background="new    ">
		
			<radialGradient id="SVGID_2_" cx="2.0286" cy="516.0684" r="133.1551" gradientTransform="matrix(1.4138 -1.4146 -0.979 -0.9784 758.388 763.7472)" gradientUnits="userSpaceOnUse">
			<stop  offset="0" style="stop-color:#010101"/>
			<stop  offset="0.8587" style="stop-color:#010101;stop-opacity:0.1413"/>
			<stop  offset="1" style="stop-color:#010101;stop-opacity:0"/>
		</radialGradient>
		<path fill="url(#SVGID_2_)" d="M449,449c-59.7,59.7-326.2,59.7-385.9,0S3.4,122.7,63,63s326.3-59.6,386,0S508.6,389.3,449,449z"/>
	</g>
	<g opacity="0.4" enable-background="new    ">
		
			<radialGradient id="SVGID_3_" cx="3.4424" cy="513.9732" r="133.1784" gradientTransform="matrix(-1.4138 -1.4146 0.979 -0.9784 -242.3879 763.7472)" gradientUnits="userSpaceOnUse">
			<stop  offset="0" style="stop-color:#010101"/>
			<stop  offset="0.8587" style="stop-color:#010101;stop-opacity:0.1413"/>
			<stop  offset="1" style="stop-color:#010101;stop-opacity:0"/>
		</radialGradient>
		<path fill="url(#SVGID_3_)" d="M63,449c59.7,59.7,326.2,59.7,385.9,0s59.7-326.2,0-385.9S122.7,3.4,63,63S3.4,389.3,63,449z"/>
	</g>
</g>
<path fill="#1E1E1E" d="M433.3,433.3c-70.3,70.3-284.3,70.3-354.6,0S8.4,149,78.7,78.7s284.3-70.3,354.6,0S503.6,363,433.3,433.3z"
	/>
<path fill="#FFFFFF" d="M186,275.5c-1.6,0.1-3.8,0.9-5.2,3.4c-1.2,2.1-3.9,2.4-5.2,2c-2.1-0.7-4.9-1.2-7.5,0.7s-5.5,0.5-5-3
	c0.5-3.4,1.7-6.5,5.1-8.4c7.2-4.2,2.2-7,6.2-11.2c4-4.2,3.1-5.5,3-11.1c-13.4-2-21-5.9-29.5-16.5c-8.5-10.6-11.8-19.3-12.7-32.6
	c-0.9-13.3-0.1-21.9,5.6-32.9c5.7-11,11.8-16.3,22.3-21.9c10.5-5.5,20.7-6.8,30.2-6.7s15.8,0.9,21.2,3.9c5.4,3.1,10.3,6.9,13.4,6.9
	c3.1,0,5.3-0.8,6.8-2c0.4,10.3-8.9,11.2-17.2,11.4c-8.3,0.2-13.4-3.2-21-1.9c-7.6,1.3-20.2,4.8-26.2,15.4
	c-6.1,10.6-6.3,14.4-5.8,23.3c0.5,8.9,8.2,15.5,12.5,15.6c4.3,0.1,5.3-1.2,9.1-3.6c3.8-2.5,23.1-26.4,29.7-31.8
	c6.6-5.4,13.1-7,20.1-7.1c7-0.1,8.8,0.2,14.5,2.5c5.7,2.3,9.1,6.6,13.7,9.2c2.3-1.4,3.8-3.4,5.9-5c7.7-5.6,11.6-7.1,20.7-6.2
	c5.2,0.5,11.8,3.5,15.8,6.9c7,6.1,12.8,14.6,17.5,21c3.6,5,7.9,11,14.1,12.9c6.7,2,11.7-6.6,12.5-11.4c0.4-2.7,1-5.1,1-8.1
	c0-3-0.3-6.6-1.2-9.8c-0.9-3.1-2.3-6.2-3.9-8.8c-2.6-4.2-6.9-8.6-11.3-10.8c-2.5-1.3-8.3-3.6-12-3.6c-4.5-0.1-8,1.4-12.2,1.7
	c-5.1,0.3-14.1,1.5-18.1-2.4c-2.5-2.5-2.8-4.2-3.3-7.4c1.1,0.9,2.7,1.5,4.1,1.6c3.2,0.3,6.1-2.3,8.7-3.8c2.1-1.2,5.1-3.4,7.9-4.6
	c7.1-2.9,15.9-2.8,23.4-2c6,0.6,13.8,3.3,19.1,6.3c5.3,3,10.4,8.1,14.2,12.8c4.7,6,7.3,11.2,9,18.6c2.2,9.6,2.8,23.9,0.1,33.3
	c-2.1,7.4-9,18.8-14.9,24.4c-5.8,5.5-12.5,8.2-20.1,9.6c0.3,1.5,0.3,3,0.7,4.2c0.6,1.8,1.6,3.8,3.8,3.1c0.9-0.3,1.3-0.5,2.5,0.5
	c1.2,1,0.6,4.9-2.7,6.7c-1.6,0.9-3.4,1.1-6,1.1c-2.6,0.1-6.8,0.1-9.6-0.4c-2.9-0.5-4.6-2.8-7.7-3.1c-4.9-0.5-8.7-4.1-12.6-6.6
	c-1.6-1.1-2.2-1.1-3.1-1.6c0.5,1.6,1.2,3.2,1.5,4.7c0.3,1.5,0.2,2.9,0.4,4.1c0.2,1.2,0.5,2.1,0.7,3.1c0.8,0.7,1,1.8,2.4,2.1
	c1.3,0.3,3.4-0.2,4.7-0.4c1.4-0.2,2.3-0.9,3.3-0.7c1.1,0.2,2.1,1,3,1.7c0.9,0.7,1.7,0.8,2.4,2.6s1.4,5.4,1.5,7.8
	c0.1,2.4-0.2,4.6-0.9,6.5c-0.7,1.9-1.4,2.8-3.3,4.7c-1.9,1.9-5.1,4.7-8.3,6.7c0.6,0.9,0.8,1.7,1.8,2.6s2.8,2,3.6,3
	c0.8,1,1.3,1.7,1.3,2.8c0,1.1,0,2.5-0.9,3.8c-2.2,3-4.9,3.5-8.1,5c0.5,3.4,1,5.8,0.2,9.2c-0.3,1.4-1,4.5-2.7,5.3
	c-1.7,0.8-5,0.4-7.1,0.7c-2.1,0.3-3.2,0.6-4.9,1c-1,1.4-2.4,3-2.9,4.3c-0.5,1.3-0.4,1.7,0.1,3c0.4,1.3,1.9,3.2,2.3,4.7
	c0.4,1.5,0.5,3.2,0.1,4.7c-0.4,1.5-1,2.6-2.3,4c-1.3,1.4-3.9,2.4-5.1,3.5c-1.3,1.1-2.5,1.2-2.2,3.1c0.5,2.5,4.1,6.6,6.8,7.5
	c1.6,0.6,3.7,0.4,5.6-0.4c-0.1,2.1-2,3.6-3.2,5c3.3-0.9,6.4-2.7,8.6-5.1c-0.7,2.1-3,5.4-6.5,8.3c-3.5,2.9-3.5,2.3-5.2,3.5
	c3.2,0.6,6.1,0.5,8.6,0c-1.3,0.7-3.6,1.8-6.5,2.1c-2.9,0.3-4.7,0.1-7.4-0.6c-2.6-0.6-5-3-8.2-4.7c0.3,1.2,0.5,2.6,1.9,3.8
	c1.3,1.2,3.4,1.8,5.5,2.9c-2.8-0.3-5.6-0.4-8.3-1c-2-0.4-3.3-0.9-4.8-1.6c-1.5-0.7-2.6-1.8-3.9-2.7c0.6,1.2,0.8,2.6,1.9,3.6
	c1.1,1,2.8,1.3,4.2,2c-1.5,0-2.8,0.3-4.3-0.1c-1.5-0.4-2.9-1-4.5-2.1s-3.2-2.6-4.5-4c-1.3-1.5-3-3.3-3.5-4.7
	c-0.5-1.3,0.3-2.3,0.4-3.4c-0.9,0.6-2.1,0.9-2.8,1.8c-0.7,0.9-1.3,1.7-1,3.2c0.3,1.5,1.7,3.4,2.7,5.1c-3-2.4-4.6-3.4-5.4-6.3
	c-0.7-2.8,1.1-5.3,2.4-7.3c0.6-1,1.6-2,2.2-3c-1.3-1.3-2.9-2.4-4-4c-1.2-1.5-1.6-3.5-2.8-5c-1.2-1.4-2.8-2.3-4.1-3.5
	c1.2,2.6,3.2,5.8,3.6,7.8c0.4,2-0.5,3.3-1.2,4.3c-0.7,1.1-1.9,1.3-3,2c-1.1,0.7-2.8,0.1-3.5,1.1c-0.7,1-0.8,2.5-0.2,3.5l2.6,4
	c-0.9-0.5-2.6-1.9-3.3-2.8c-0.7-1-1.9-1.9-2-3.2c-0.2-1.3-0.2-2.5,0.6-3.7c0.9-1.2,3.2-1.6,4.3-2.5c1.1-0.9,1.6-1.5,1.6-2.7
	c-0.1-1.2-1.2-2-2.2-2.8c-3-2.3-6.9-4.3-9.4-7.1c-1.4-1.5-2.1-2.8-2.4-3.8c-0.3-1.1,0-1.9,0.7-3.2c0.7-1.3,3.2-3,3.5-4.5
	c0.3-1.4-0.9-1.7-2.1-2.2c-1.1-0.5-3.3,0.3-4.3-0.6c-1-0.9,0.3-2.7-0.9-3.7c-1.2-1-3.9-0.4-5.2-1.5c-1.4-1.1-2-2.4-2.4-4
	c-0.5-1.6-0.5-3.3-0.2-4.4c0.3-1.1,1.3-1.3,1.9-1.9c0.6-0.6,1.1-1.1,0.3-2s-3.3,0-4.8-1.1c-1.5-1.1-0.6-3.8-1.6-5
	c-1-1.1-2.9-0.7-3.9-1.1c-1-0.4-1.4,0.9-2-1.1s-0.6-8.1-1.4-10.3c-0.8-2.3-2.4-0.2-3.2-2.4c-0.7-2.2,0-5.8-0.4-9.2l-1.5-9.2
	c-5.3,3.5-8.8,4.7-14.4,5.7c-0.5,13.9-1.8,22.1,2.9,37.5c4.7,15.4,14.2,24.5,27.1,37.5c-17-12.7-25.1-23.1-30.1-36.3
	C184.5,299.4,185.4,288.3,186,275.5z M276.1,269.9c1.3,0.1,2.9,0.4,3.8,1c0.9,0.6,1.9,1.1,2.7,1.9c2.1,2.1,3.6,4.7,4.3,7.6
	c0.4,1.9,0.5,4.3,0.7,6.5c-0.6-2-1.1-4.1-1.9-6c-1.4-2.9-3.8-5.7-6.8-6.9c-1-0.4-1.6-0.3-2.2-0.3c0.2,0.4,0.6,0.7,0.7,1.3
	c0,0.6-0.1,1.8-1.1,2.2c-1.6,0.8-3.4,0.2-4.7-0.9c-1.3-1.1-1.7-3-1-4.6C271.4,269.9,274.4,269.9,276.1,269.9z M259.8,267.2
	c0.2-3.3,1.4-6.1,4.4-7.8c1.5-0.8,3.9-1.9,6.1-2.2c2.1-0.2,7.2-0.1,10.3,1.3c2.4,1.1,4,2.8,6,4c2.1,1.2,3.5,2,5.5,3.4
	c3,2.1,4.8,4.4,6.9,5.8c1,0.7,2.4,0.6,3.8,1c-1,0.3-2.4,0.7-3.5,0.3c-1.4-0.4-3.4-1.7-4.5-2.6c-1.9-1.6-2.9-2.4-5-3.6
	c-1.3-0.7-3.3-1.6-4.7-2.5c-1.4-0.9-3.8-2.9-5.1-3.5c-1.7-0.8-4.7-1.3-6.6-1.3c-2.6,0.1-6.3,0.5-8.3,2.3c-2,1.8-2.7,3.4-2.3,5.7
	c0.7-0.9,1.2-1.9,2-2.6c1.6-1.3,3.3-1.4,5.3-1.1c2.2,0.3,3.3,1.5,4,3.6c-0.5-0.4-1.4-1.1-2.1-1.4c-1.6-0.6-2.9-0.4-4.4,0.4
	c-1.8,1-1.3,2.4-1.6,4c-0.1,0.7-0.4,1.3-0.6,2c-0.7-0.2-1.3-0.5-1.8-1c0,0.7-0.1,1.4,0.1,2.2c0.2,0.8,0.6,1.8,0.8,2.8
	c-1.3-1.3-2.6-2.4-3.4-4.1C260.2,270.8,259.7,269,259.8,267.2z M262,242.9c0.9-1.4,1.2-3.5,1.8-5.2c-0.2,2.2,0.2,4.6-0.9,6.2
	c-1.1,1.6-2.9,1.3-4.5,1.8C259.6,244.7,261,244.3,262,242.9z M239.6,275.3c1.2-1,4.4-0.2,6.8,0c-1.7,0.4-3.5,0.9-5.2,1.3
	c-0.2,0.6-0.1,1.3-0.5,1.8c-0.4,0.5-1.2,0.7-1.7,1C239.1,277.9,238.5,276.3,239.6,275.3z M256.7,208c1.4,0.8,3.3,1.8,4.5,1.8
	s1.6-0.8,2.4-1.3c1.2,3.8,2.5,8.1,4.5,11.5c0.8,1.5,1.4,0.8,2,2.2c0.6,1.5,0.9,4.5,1.5,6.3c0.6,1.9,1.4,3.3,2.1,4.9
	c-1.8-2.5-4.1-5.7-5.1-7.8c-1-2.1-0.4-2.3-1.2-4.3c-0.8-2-2.4-5.1-3.6-7.6c-0.9,0.1-1.9,0.3-2.6,0.1c-0.7-0.2-0.5-0.9-1.1-1.4
	c-0.6-0.5-1.6-0.3-2.4-1C256.9,210.8,256.7,209.3,256.7,208z M248.9,227c1.4-0.1,3,0.2,4.3,0.2c1.3-0.1,2.2-0.4,3.3-0.6
	c-0.2-1.9,0-5.4-1.8-6.7c-1.1-0.8-5.8-0.2-7.1,0.1c-2.8,0.6-6.1,2.3-8.8,3.3c2.6-1.8,4.9-3.5,8-4.5c1.9-0.6,6.3-1.3,8.2-0.8
	c0.9,0.2,1.1,0.6,1.6,1.4c1.8,2.6,1.8,4.8,2.3,7.8c0.5,0.7,1,1.2,1.4,2c0.4,0.8,0.6,2,0.7,2.9c-0.5-0.7-0.2-1.6-1.5-2.1
	c-1.3-0.5-3.4,0-5.2,0.2c1.3,1,2,1.9,2,3.9c0.1,2.4-1.9,4.1-4,4.2c-2.9,0.2-4.4-0.4-5.6-2.9c-0.5-1.1-0.1-2.4-0.2-3.4
	c-3.5,0.2-3.4,0.1-6,2.2c1.4,2,2.3,3.2,4.5,4.4c1.3,0.7,2.7,1.3,4.3,1.6c1.6,0.3,4.2,0.5,5.9,0.3c1.7-0.3,2.6-0.7,3.8-1.9
	s1.4-2.8,1.8-4.1c-0.1,1.2-0.3,2.8-0.7,3.7c-1.4,2.7-3.8,3.6-6.7,3.6c-2.8,0-6.2-0.6-8.8-1.7c-2.1-0.9-5.5-3.3-6.3-5.4
	c-0.6-1.4-0.1-3.2-0.2-4.8c2.9-1.9,3.6-1.4,7-2C246.6,227.6,247.5,227.1,248.9,227z M232.2,214.1c0.1-1.1,0.2-1.1,0.3-1.7
	c-2.6-0.7-3.7,1-5.2,4.2c-0.6,1.2,0,1.9-0.6,2.7c-0.6,0.8-1.6,0.7-2.6,1.4c-1,0.7-2,2.2-2.9,2.9c-1.9,1.6-4.5,2.6-6.7,3.6
	c1.5-1.1,4.5-2.8,5.4-4.4c0.5-0.9,0.4-2.5,1.2-3.3c0.8-0.8,1.1-1.3,2.1-1.5c1-0.2,0.6-1.4,0.9-2.3c0.3-0.9,1-1.6,1.7-2.5
	c0.7-0.9,1.6-2.3,2.9-2.8c1.4-0.5,3.5,0,4.5-0.3c1-0.3,0.4-1,1.2-1.5c0.8-0.5,2.2-0.3,3.2-0.7c1.8-0.9,2.6-2.3,3.7-3.8
	c0.2,3.3,0.1,5.7-1.1,8.8c-1.3,3.5-2.7,5.6-6.5,7.7c-1.3,0.7-2.6,1-3.7,1.4c0.6-0.9,1.5-1.2,1.9-2.6
	C232.4,217.9,232.1,215.2,232.2,214.1z M293.5,230.2c-1.8,0.1-2.2-0.1-3.7,0.9c0.8,1.2,1.6,2.4,2.3,3.7
	C292.1,232.3,292.3,231.8,293.5,230.2z M288.7,228.4c2.5-1.1,4.7-1.9,7.4-2.1c1.1-0.1,2.8,0.1,3.9,0.2c0.9-1.4,2.1-2.5,2.6-4
	c0.3-1,0.1-5.9-0.4-7.2c-1.5-3.7-2.9-3.8-5-5.9c-1.5-1.5-1.6-3.8-2-6.4c-0.2-1-0.6-2.2-0.9-3.1c-2.7-0.5-5.6-0.6-8.7-0.4
	c1.5-1.4,3-2.8,3.4-4.9c0.4-2.2,0.1-4.8-1.1-6.8c-1.2-1.9-3.2-3.6-5-5.2c-1.8-1.6-4.4-2.9-6.1-4.2c2.2-0.8,4.5-2,6.7-2.4
	c5.7-1.1,10.6,0.6,16,3.9c3.2,1.9,5.8,3.7,9.1,7.2c3.3,3.5,7.4,9.9,10.7,13.6c3.2,3.8,5.8,6.8,8.6,9s5.3,2.9,8,4.3l4.2,4.4l3.4-4.2
	l5.4,0.6l1.1-6.1l5-1.4l-0.8-8.2l3.6-2.5l-2.7-5.1l2.7-5.6l-3.6-6.4l1.4-6.1l-4.1-3.5l-0.5-6.5l-5.8-2.2l-2.3-5.7l-6.5-0.1l-3.2-4.2
	l-4.4,0.3l-4.9-0.5l-2.7-2l-4,2.6l-4.8-2.5l-9.6,3.6l6.2-5.4l6.5-1l5-1.3l6.7,2.2l5.9-1.5l5.7,3.4l6-0.3l3,5.3l6,0.7l3.2,5.9
	l3.8,2.1l1,7.6l3.4,3.2l-1.5,6.6l4,5l-3.7,5.4l4,3.4l-5.1,4.5l5.1,5.3l-6.2,2l4,5.7l-5.1,0.9l3.3,6.3l-5.7-0.1l2.9,4.7l-6.3-0.8
	l1.5,6.8l-4.7-4.2l-1.6,8.2l-3.3-5.9l-1.8,7.4l-4-5.4l0.1,7.7l-4.5-6.9c0.9,3.9,0.8,8.3,3.3,12c8-1.1,13.3-3.1,19.4-9
	c5.6-5.4,12.3-16.6,14.1-23.7c2.1-8.1,2.1-23.1,0.1-31.4c-2-8-4.5-11.8-9.1-18.3c-4.4-4.6-8.6-9.5-14.1-12.8
	c-8.1-4.8-18.5-6.1-27.7-6c-5.1,0.1-8.5,1.1-11.6,2.2c-5.3,1.9-9.6,6.2-15.1,8.3c-1.8,0.7-3.2,0.7-4.6,0c1.4,2.7,2.9,4,6.3,5
	c2.5,0.7,8.4,0.3,12.4-0.1c4.3-0.4,6.6-1.7,12.5-1.6c5.8,0.1,10.4,2.3,12.9,3.7c5.2,3,8.9,6.2,12.1,11.4c1.8,2.9,3,6.1,3.9,9.4
	c0.9,3.3,1.3,7,1.3,10.2c0.1,3.2-0.2,6.1-1,9c-1.8,6.8-5.9,13.7-14.2,12.6c-5.1-0.7-12.8-10.2-15.4-13.7
	c-5.2-7.1-10.5-14.9-17.1-20.8c-4-3.6-9.4-6.1-14.8-6.6c-10-0.9-13,1-20.6,7.2c1.5,0.5,3,0.8,4.6,1.5c3.5,1.6,6.7,3.6,9.5,6.2
	c2.9,2.7,4.2,4.5,4.3,8.4c0.1,2.6-2.1,4.7-4,6.6c-1.2,1.1-2.8,2.2-3.8,3.1c-1.3,1.2-2.9,2.5-1.3,4.4c0.6,0.7,1.7,1.2,2.6,1.9
	c1.4,1.1,0.8,5-1.1,6c-2.4,1.3-5.2,1.2-7.2-0.6c2.5-0.4,4.1-0.7,4-2.7c0-1.2-1.5-2.2-3-2.8c-3.5-1.6-6.2-1.4-9.7-3.9
	c-3.6-2.6-3.6-4-4.6-8c-1.7,0.2-3.3,0.2-5.6,1c-2.3,0.8-4.8,2.6-6.9,3c-5.3,1.1-6.3,0.8-9.2,0.1c-5.1-1.3-11.6,0.9-18.2,3
	c-1.1,0.3-5.5,0-8.5,1.1c-4.6,1.6-11,5.5-14.7,8.6c-5.6,4.7-13,18.9-17.2,35.2c-0.4,4.9,1,8.3-2.1,10.7c-3.1,2.4-3,8.6-4.1,10.3
	s-2.3,1-4.6,3.4c-2.3,2.4-3.4,2-3.4,6.6c2-1.3,4.8-2.8,7.3-2.9c2.2-0.1,2.2,2.8,7.9-2.8c3-3,8.9-3.1,13-4.4
	c4.1-1.3,11.4-4.1,18.7-12.3c7.3-8.2,10.8-16.8,12.3-29.3c0.2,2.2,0.6,4.7-0.3,10.8c-0.9,6.1-3,13,1.3,21.2l2.7,5.1
	c-1.6-2.2-4.7-5.7-5.7-8.3l-2.2-5.8c-4.8,7.6-6,9-12.7,14.4c-0.3,3.4-0.3,6.9,0.8,10.1c1.1,3.2-0.7,7,0.2,9.1
	c0.8,2.1,2.8,0.9,3.4,3.1c0.6,2.2-0.3,6.4,0.7,8.5s3.4,0.8,4.6,1.5c1.2,0.7,1.6,1.6,2.2,2.5c0.6,0.9-0.2,3,1,3.7
	c1.3,0.7,3.3,0.1,4.6,0.8c1.3,0.7,1.5,2.2,1.2,3.7c-0.3,1.4-1.7,2.1-2.4,3.5c-0.6,1.4-0.6,2.4,0.2,3.8c0.7,1.3,2.4,2.1,4,2.7
	s4,0.3,5.7,1.2c1.7,0.9,3.2,2.8,4.1,4.1c0.9,1.3,1.1,2.3,1.1,3.7c0,1.4-0.6,3-1.4,4.4c-0.8,1.4-2.4,3,0.2,5.6c2.6,2.6,2.5,1.5,4,3.2
	c-0.2-2.9-1.4-5.3-0.5-7.5c0.9-2.2,3.5-2.6,4.9-3.6c1.4-1,2.2-2.3,3.3-3.5c0,1.5,0.1,3.1,0,4.3c-0.3,2.3-1,4.3,2.4,4.7
	c1.5,0.2,3-0.8,4.6-1.4c-0.9,1.5-2.3,2.8-2.6,4.6c-0.2,1.8,0,3.8,1.3,5.6c1.3,1.8,3.4,3.2,5,4.2c1.6,1.1,2.5,1.2,3.7,1.7
	c0.1,1.8-0.3,3.7-0.1,5.4c0.2,1.7,0.7,3.2,1.7,4.6c1,1.4,2.5,2.2,4,3.2c-0.8-1.9-2.5-3.7-2.4-5.7c0-2,0.6-3.4,2.6-5.1
	c1.9-1.8,6.5-3.3,8.6-5c2.1-1.7,2.8-2.8,3.6-4.4c0.8-1.7,0.6-4.3,0.7-5.8c0.7,2.1,0.8,2.7,1,4.9c0.2,2.2-1.3,5.3-1.9,6.9
	c2.6-1.3,4.3-3.3,5.2-5.3c0.6,0.3,0.3,1.3,0.5,3c0.9-0.9,2-1.7,3-2.5c0.9-0.9,2-1.7,2.5-2.9c0.5-1.2,0.3-2.5-0.1-4
	c-0.4-1.4-2-3.1-2.8-4.7c-0.9-1.6,0.2-3.1,0.1-5c-1.7-0.3-3.2-1.2-5.2-0.9c-2,0.3-4.3,2.5-6.3,2.5c-2,0-3.2-1.9-4.8-2.4
	c-1.7-0.5-3.3-0.5-5-0.7c2.1-2,10.3-3,16-3.9c4.9-0.8,9.9-1.3,14.9-1.3c2.2,0,5.1,0.7,6.7,0.3c1.6-0.4,1.2-1.5,1.7-2.7
	c1.3-3.2,0.7-6.1,0-9.3c-4.5-0.5-9.2-1.2-13.7-0.8c-4.4,0.3-9.7,2.4-14.2,2.6c-4,0.1-9.9-0.8-13.3-2.8c-4.2-2.5-7.4-8-8.5-9.8
	c-1.9-2.9-4.2-8.5-5.6-11c-1.4-2.6-1.7-3.3-2.9-4.3c-1.2-1.1-2.8-1.2-4.2-1.7c1.6,0.2,3.4-0.3,4.9,0.5c2.2,1.3,4.7,6.6,6.1,8.8
	c1.5-4.9,1.1-6.8,5.4-9.6c-3.4,3.8-3.5,6.7-4.3,11.2c2.8,4.7,6.8,12.1,11.9,14.1c1.9,0.7,5.1,1.2,7.1,1.5c6.3,0.8,12.3-1.2,18.5-2.7
	c4.5-1.1,9.1-0.7,14.5-0.3c1.9,0.1,6.2-1,7.2-2.9c0.5-1,0.5-2.2-0.3-3.3c-0.7-1.1-2.6-1.6-3.6-2.6c-1-1-1.6-2.1-2.4-3.2
	c-4.2,0.8-7.6,1.1-10.7,1.2c2.2-0.9,4.4-1.4,6.7-2.3c2.3-0.9,4.9-2.4,6.8-3.6s3.1-2,4.4-3.4c1.4-1.4,3.1-2.9,4.1-4.7
	c1-1.8,1.2-3.7,1.2-5.9c0.1-2.2,0-5.2-0.9-7c-0.8-1.8-2.5-2.3-3.8-2.7c-1.3-0.4-2.2,0.6-3.5,0.8c-1.4,0.1-2.6,1-4.6,0.1
	c-2-0.9-4.3-2.8-6.2-5.6c-2-2.8-3.4-7.3-5.4-10.8c-3.5-6-7.8-11.6-11.9-17.2c-0.3-1.4-0.9-3.3-1-5.1c-0.3-3.2-0.4-6.6,0.7-9.8
	c0.8-2.4,1.9-5,4.4-6c1-0.4,2.3-0.6,3.2-0.2c0.9,0.3,1.8,1.4,1.4,2.5c-0.4,1.3-1.3,1.3-1.9,2c-1,1.1-1.5,1.9-1.9,3.3
	c1.1,0,2.6-0.1,3.6,0.1c1.2,0.3,2.3,1.1,2.9,2.8c-1.4-1.3-2.2-1.9-4-1.9c-0.8,0-1.8,0.3-2.7,0.4c-0.3,1.1-0.5,2.5-1,3.3
	c-0.5,0.9-1.4,0.7-1.8,1.7C288.6,225.5,288.6,227.1,288.7,228.4z M301.3,226.9c0.6,0.2,0.8,0.3,1.5,0.8c0.7,0.5,1.7,1.1,2.2,2.3
	c0.6,1.3,0.5,3.2,0.4,4c-0.5-0.1-1.1,0-1.7-0.5c-0.5-0.4-0.8-1.4-1.4-1.8c-0.6-0.4-1.2-0.3-1.9-0.4c0.4,1,0.5,2.1,0.4,3
	c-0.4,2.1-1.6,3.1-3.5,3.4c-0.9,0.1-2.2-0.2-3-0.3c0.3,0.8,0.9,1.4,1.3,2.2c1.7-0.2,2.9-0.2,3.8-0.6c0.9-0.4,1.9-1.4,3-1.7
	c1.1-0.4,2.2-0.4,3.4-0.6c-1,0.9-1.6,1.7-2.6,2.6c0.7,2.1,1.4,4.2,2.2,6.3c1.5,1,3,1.5,4.9,2.6c1.9,1.2,4.3,3.3,6.8,4.5
	c2.5,1.2,4,1.8,6.6,2.3s4.7,2.6,7.3,3c2.6,0.3,7.4,0.4,9.4,0.2c2.3-0.2,5.2-1.4,5.5-3.9c-1.9,0.5-4.8,0-6.3-3.5
	c-0.7-1.6-0.3-4.5-1.3-6.4c-1-1.9-2.4-2.5-4-4.8c-1.7-2.3-4.4-6-5.9-9.1c-1.5-3.1-1.9-6.6-3.2-9.4c-1.3-2.8-3.2-5-4.7-7.2
	c-3.3-4.7-5.9-7.9-11.3-10.2c-2.6-1.1-5.6-1.4-8.3-2.2c-1.1,0.5-2.7,1.1-3,2.4c-0.3,1.3,0.3,3.3,1.2,4.3c1.6,1.7,4,3.5,4.9,6.1
	c0.6,1.7,0.8,7.4,0.3,8.9C303.6,224.9,302.4,225.9,301.3,226.9z M301.8,240.4c-0.5,0.4-0.9,0.9-1.7,1.2c-0.8,0.4-1.9,0.5-3,0.7
	c1.5,2.3,3.1,4.7,4.5,7.2c1.4,2.5,2.7,5.2,4.1,7.7c-0.1-1.5,0-3-0.2-4.4c-0.2-1.4-0.8-2.6-1.5-4.7
	C303.5,246.1,302.7,243.3,301.8,240.4z M261.4,188.9c-0.2,2.3,0.2,5.9,0.7,8.2c0.6,2.7,1.1,4.1,3.3,5.7c4,3,6.6,2.5,9.6,4.2
	c1.5,0.8,3.3,2.2,3.9,3.7c0.5,1.5-0.4,3-1.5,3.7c1.9,0.3,4.1-1.9,3.2-4.2c-0.4-1.1-2.6-1.6-3.2-2.7c-0.7-1.1-0.7-2.3-0.3-3.4
	c0.6-2,4.6-3.9,6-5.5c2.2-2.5,3-4.6,1.8-7.8c-1.8-4.5-8.5-8.1-12.6-9.9c-1.9-0.8-2.9-0.9-4.3-1.3c3,1.7,6.1,3.1,7.6,7
	c1.3,3.2,0.2,4.5,0.2,7.3c0,1.3,1.7,2,2.5,2.8c0.7,0.7,0.6,1.3,0.1,2.2c-0.1-0.9-0.4-1.6-1.1-2c-1.1-0.8-2.4-0.6-3-2.3
	c-0.9-2.5,0.9-4.9-1.1-7.7c-1.5-2.1-3.6-4.5-6.3-4.5c-1.3,0-2.3,0.2-3.7,0.6l-1.8-2.2l0,0c-3.8-3.4-6.3-6.3-11.6-8.6
	c-5.3-2.4-7.9-2.7-13.9-2.6c-6.1,0.1-12.1,0.6-19.1,6.7c-7,6-25.1,29.2-29.4,32.1c-4.4,2.9-5.3,3.9-10.8,3.9
	c-5.5,0-14-7.7-14.3-17.4c-0.3-9.7-0.5-13.1,6.3-24.8c6.7-11.7,18.9-15.2,27.9-16.4c9-1.2,14.5,2,21.2,2c6.7,0,13.3-1.1,15.2-6.5
	c-1,0.6-2.2,1.2-5.8,1c-3.6-0.2-8.6-4.3-14.2-7.1c-5.6-2.8-11.8-3.1-19.8-3.3c-8-0.2-18,0.5-27.9,5.8c-9.9,5.3-16.6,11-22.4,21.4
	c-5.7,10.4-6.6,19-5.7,31.6c0.9,12.6,4.8,22.1,12.3,31.3c7.5,9.3,15,13.8,28.6,15.5l2.8-12.6l-5.1,7.3l0.1-8.1l-4.6,5.7l-2-7.7
	l-3.7,6.2l-1.9-8.6l-5.4,4.4l1.7-7.1l-7.1,0.8l3.3-5l-6.5,0.1l3.8-6.6l-5.8-0.9l4.6-6l-7.1-2.1l5.9-5.6l-5.8-4.7l4.5-3.5l-4.2-5.6
	l4.5-5.3l-1.7-6.9l3.8-3.3l1.1-7.9l4.3-2.2l3.7-6.2l6.8-0.7l3.4-5.6l6.9,0.4l6.5-3.5l6.7,1.6l7.7-2.3l5.7,1.3l7.4,1.1l7.1,5.7
	l-11-3.8l-5.5,2.6l-4.6-2.8l-3.1,2.1l-5.5,0.6l-5-0.3l-3.6,4.4l-7.4,0.1l-2.6,6l-6.6,2.3l-0.6,6.9l-4.7,3.7l1.6,6.5l-4.1,6.7
	l3.1,5.9l-3.1,5.4l4.1,2.7l-0.9,8.6l5.7,1.4l1.3,6.4l6.2-0.6l3.9,4.4l4.8-4.6c8.7-4.3,12.2-6.7,19-14.1c7.7-8.3,12.1-16,22.4-21.7
	c7.4-4.1,13.4-5.6,21.6-4.1c7.8,1.3,10.4,6,16.1,10.9c0.6-1.1,0.7-1.4,1.7-2.2C262,186.1,261.5,187.6,261.4,188.9z"/>
</svg>
