<?xml version="1.0" encoding="UTF-8" standalone="no"?>
<svg
   xmlns:dc="http://purl.org/dc/elements/1.1/"
   xmlns:cc="http://creativecommons.org/ns#"
   xmlns:rdf="http://www.w3.org/1999/02/22-rdf-syntax-ns#"
   xmlns:svg="http://www.w3.org/2000/svg"
   xmlns="http://www.w3.org/2000/svg"
   viewBox="0 0 640 640"
   height="640"
   width="640"
   xml:space="preserve"
   version="1.1"
   id="svg2"><metadata
     id="metadata8"><rdf:RDF><cc:Work
         rdf:about=""><dc:format>image/svg+xml</dc:format><dc:type
           rdf:resource="http://purl.org/dc/dcmitype/StillImage" /></cc:Work></rdf:RDF></metadata><defs
     id="defs6"><clipPath
       id="clipPath16"
       clipPathUnits="userSpaceOnUse"><path
         id="path18"
         d="M 0,512 512,512 512,0 0,0 0,512 Z" /></clipPath><clipPath
       id="clipPath24"
       clipPathUnits="userSpaceOnUse"><path
         id="path26"
         d="m 18.275,493.744 475.45,0 0,-475.4877 -475.45,0 0,475.4877 z" /></clipPath><clipPath
       id="clipPath28"
       clipPathUnits="userSpaceOnUse"><path
         id="path30"
         d="m 18.275,493.744 475.45,0 0,-475.4877 -475.45,0 0,475.4877 z" /></clipPath><clipPath
       id="clipPath32"
       clipPathUnits="userSpaceOnUse"><path
         id="path34"
         d="m 18.325,493.744 475.4,0 0,-475.4877 -475.4,0 0,475.4877 z" /></clipPath><clipPath
       id="clipPath36"
       clipPathUnits="userSpaceOnUse"><path
         id="path38"
         d="M 448.99,63.029 C 389.293,3.332 122.807,3.332 63.11,63.029 3.413,122.726 3.413,389.312 63.01,449.009 c 59.597,59.696 326.283,59.596 385.98,0 59.697,-59.597 59.597,-326.283 0,-385.98" /></clipPath><radialGradient
       id="radialGradient44"
       spreadMethod="pad"
       gradientTransform="matrix(237.72188,0,0,237.72188,256.02499,256)"
       gradientUnits="userSpaceOnUse"
       r="1"
       cy="0"
       cx="0"
       fy="0"
       fx="0"><stop
         id="stop46"
         offset="0"
         style="stop-opacity:1;stop-color:#ffffff" /><stop
         id="stop48"
         offset="0.8587"
         style="stop-opacity:0.14129854;stop-color:#ffffff" /><stop
         id="stop50"
         offset="1"
         style="stop-opacity:0;stop-color:#ffffff" /></radialGradient><mask
       id="mask52"
       height="1"
       width="1"
       y="0"
       x="0"
       maskUnits="userSpaceOnUse"><g
         id="g54"><g
           id="g56"><g
             id="g58"><g
               id="g60"><path
                 id="path62"
                 style="fill:url(#radialGradient44);stroke:none"
                 d="m -32768,32767 65535,0 0,-65535 -65535,0 0,65535 z" /></g></g></g></g></mask><radialGradient
       id="radialGradient64"
       spreadMethod="pad"
       gradientTransform="matrix(237.72188,0,0,237.72188,256.02499,256)"
       gradientUnits="userSpaceOnUse"
       r="1"
       cy="0"
       cx="0"
       fy="0"
       fx="0"><stop
         id="stop66"
         offset="0"
         style="stop-opacity:1;stop-color:#010101" /><stop
         id="stop68"
         offset="0.8587"
         style="stop-opacity:1;stop-color:#010101" /><stop
         id="stop70"
         offset="1"
         style="stop-opacity:1;stop-color:#010101" /></radialGradient><clipPath
       id="clipPath72"
       clipPathUnits="userSpaceOnUse"><path
         id="path74"
         d="m 18.325,493.744 475.4,0 0,-475.4877 -475.4,0 0,475.4877 z" /></clipPath><clipPath
       id="clipPath76"
       clipPathUnits="userSpaceOnUse"><path
         id="path78"
         d="M 448.99,63.029 C 389.293,3.332 122.807,3.332 63.11,63.029 3.413,122.726 3.413,389.312 63.01,449.009 c 59.597,59.696 326.283,59.596 385.98,0 59.697,-59.597 59.597,-326.283 0,-385.98" /></clipPath><radialGradient
       id="radialGradient84"
       spreadMethod="pad"
       gradientTransform="matrix(188.25467,188.36119,-130.35883,130.27895,256.02499,256.04376)"
       gradientUnits="userSpaceOnUse"
       r="1"
       cy="0"
       cx="0"
       fy="0"
       fx="0"><stop
         id="stop86"
         offset="0"
         style="stop-opacity:1;stop-color:#ffffff" /><stop
         id="stop88"
         offset="0.8587"
         style="stop-opacity:0.14129854;stop-color:#ffffff" /><stop
         id="stop90"
         offset="1"
         style="stop-opacity:0;stop-color:#ffffff" /></radialGradient><mask
       id="mask92"
       height="1"
       width="1"
       y="0"
       x="0"
       maskUnits="userSpaceOnUse"><g
         id="g94"><g
           id="g96"><g
             id="g98"><g
               id="g100"><path
                 id="path102"
                 style="fill:url(#radialGradient84);stroke:none"
                 d="m -32768,32767 65535,0 0,-65535 -65535,0 0,65535 z" /></g></g></g></g></mask><radialGradient
       id="radialGradient104"
       spreadMethod="pad"
       gradientTransform="matrix(188.25467,188.36119,-130.35883,130.27895,256.02499,256.04376)"
       gradientUnits="userSpaceOnUse"
       r="1"
       cy="0"
       cx="0"
       fy="0"
       fx="0"><stop
         id="stop106"
         offset="0"
         style="stop-opacity:1;stop-color:#010101" /><stop
         id="stop108"
         offset="0.8587"
         style="stop-opacity:1;stop-color:#010101" /><stop
         id="stop110"
         offset="1"
         style="stop-opacity:1;stop-color:#010101" /></radialGradient><clipPath
       id="clipPath112"
       clipPathUnits="userSpaceOnUse"><path
         id="path114"
         d="m 18.275,493.694 475.387,0 0,-475.4377 -475.387,0 0,475.4377 z" /></clipPath><clipPath
       id="clipPath116"
       clipPathUnits="userSpaceOnUse"><path
         id="path118"
         d="m 63.01,63.029 c 59.697,-59.697 326.183,-59.697 385.88,0 59.697,59.697 59.697,326.183 0,385.88 -59.697,59.696 -326.183,59.696 -385.88,0.1 -59.697,-59.597 -59.597,-326.283 0,-385.98" /></clipPath><radialGradient
       id="radialGradient124"
       spreadMethod="pad"
       gradientTransform="matrix(-188.28767,188.39421,130.38168,130.30179,255.92499,255.99377)"
       gradientUnits="userSpaceOnUse"
       r="1"
       cy="0"
       cx="0"
       fy="0"
       fx="0"><stop
         id="stop126"
         offset="0"
         style="stop-opacity:1;stop-color:#ffffff" /><stop
         id="stop128"
         offset="0.8587"
         style="stop-opacity:0.14129854;stop-color:#ffffff" /><stop
         id="stop130"
         offset="1"
         style="stop-opacity:0;stop-color:#ffffff" /></radialGradient><mask
       id="mask132"
       height="1"
       width="1"
       y="0"
       x="0"
       maskUnits="userSpaceOnUse"><g
         id="g134"><g
           id="g136"><g
             id="g138"><g
               id="g140"><path
                 id="path142"
                 style="fill:url(#radialGradient124);stroke:none"
                 d="m -32768,32767 65535,0 0,-65535 -65535,0 0,65535 z" /></g></g></g></g></mask><radialGradient
       id="radialGradient144"
       spreadMethod="pad"
       gradientTransform="matrix(-188.28767,188.39421,130.38168,130.30179,255.92499,255.99377)"
       gradientUnits="userSpaceOnUse"
       r="1"
       cy="0"
       cx="0"
       fy="0"
       fx="0"><stop
         id="stop146"
         offset="0"
         style="stop-opacity:1;stop-color:#010101" /><stop
         id="stop148"
         offset="0.8587"
         style="stop-opacity:1;stop-color:#010101" /><stop
         id="stop150"
         offset="1"
         style="stop-opacity:1;stop-color:#010101" /></radialGradient></defs><g
     transform="matrix(1.25,0,0,-1.25,0,640)"
     id="g10"><g
       id="g12"><g
         clip-path="url(#clipPath16)"
         id="g14"><g
           id="g20"><g
             id="g22" /><g
             id="g152"><g
               id="g154"
               clip-path="url(#clipPath24)"><g
                 id="g156"><g
                   id="g158" /><g
                   id="g160"><g
                     id="g162"
                     clip-path="url(#clipPath28)"><g
                       id="g164"><g
                         id="g166" /><g
                         id="g168"><g
                           style="opacity:0.39999402"
                           id="g170"
                           clip-path="url(#clipPath32)"><g
                             id="g172"><g
                               id="g174"
                               clip-path="url(#clipPath36)"><g
                                 id="g176"><g
                                   id="g178" /><g
                                   id="g180"
                                   mask="url(#mask52)"><g
                                   id="g182"><path
                                   id="path184"
                                   style="fill:url(#radialGradient64);stroke:none"
                                   d="M 448.99,63.029 C 389.293,3.332 122.807,3.332 63.11,63.029 3.413,122.726 3.413,389.312 63.01,449.009 c 59.597,59.696 326.283,59.596 385.98,0 59.697,-59.597 59.597,-326.283 0,-385.98" /></g></g></g></g></g></g></g></g><g
                       id="g186"><g
                         id="g188" /><g
                         id="g190"><g
                           style="opacity:0.39999402"
                           id="g192"
                           clip-path="url(#clipPath72)"><g
                             id="g194"><g
                               id="g196"
                               clip-path="url(#clipPath76)"><g
                                 id="g198"><g
                                   id="g200" /><g
                                   id="g202"
                                   mask="url(#mask92)"><g
                                   id="g204"><path
                                   id="path206"
                                   style="fill:url(#radialGradient104);stroke:none"
                                   d="M 448.99,63.029 C 389.293,3.332 122.807,3.332 63.11,63.029 3.413,122.726 3.413,389.312 63.01,449.009 c 59.597,59.696 326.283,59.596 385.98,0 59.697,-59.597 59.597,-326.283 0,-385.98" /></g></g></g></g></g></g></g></g><g
                       id="g208"><g
                         id="g210" /><g
                         id="g212"><g
                           style="opacity:0.39999402"
                           id="g214"
                           clip-path="url(#clipPath112)"><g
                             id="g216"><g
                               id="g218"
                               clip-path="url(#clipPath116)"><g
                                 id="g220"><g
                                   id="g222" /><g
                                   id="g224"
                                   mask="url(#mask132)"><g
                                   id="g226"><path
                                   id="path228"
                                   style="fill:url(#radialGradient144);stroke:none"
                                   d="m 63.01,63.029 c 59.697,-59.697 326.183,-59.697 385.88,0 59.697,59.697 59.697,326.183 0,385.88 -59.697,59.696 -326.183,59.696 -385.88,0.1 -59.697,-59.597 -59.597,-326.283 0,-385.98" /></g></g></g></g></g></g></g></g></g></g></g></g></g></g><g
           transform="translate(433.279,433.279)"
           id="g230"><path
             id="path232"
             style="fill:#f4b0f4;fill-opacity:1;fill-rule:nonzero;stroke:none"
             d="m 0,0 c -70.294,70.294 -284.264,70.294 -354.558,0 -70.294,-70.294 -70.294,-284.264 0,-354.558 70.294,-70.294 284.264,-70.294 354.558,0 C 70.294,-284.264 70.295,-70.294 0,0" /></g><g
           transform="translate(361.2026,374.0441)"
           id="g234"><path
             id="path236"
             style="fill:#ffffff;fill-opacity:1;fill-rule:nonzero;stroke:none"
             d="m 0,0 -19.334,0 -171.737,0 -19.334,0 c -12.24,0 -22.162,-9.922 -22.162,-22.162 l 0,-19.334 0,-171.737 0,-19.334 c 0,-12.24 9.922,-22.162 22.162,-22.162 l 19.334,0 171.737,0 19.334,0 c 12.24,0 22.162,9.922 22.162,22.162 l 0,19.334 0,171.737 0,19.334 C 22.162,-9.922 12.24,0 0,0" /></g><g
           transform="translate(150.7974,137.9558)"
           id="g238"><path
             id="path240"
             style="fill:#ffffff;fill-opacity:1;fill-rule:nonzero;stroke:none"
             d="m 0,0 19.334,0 171.737,0 19.334,0 c 12.24,0 22.162,9.922 22.162,22.162 l 0,19.334 0,171.737 0,19.334 c 0,12.24 -9.922,22.162 -22.162,22.162 l -19.334,0 -171.737,0 -19.334,0 c -12.24,0 -22.162,-9.922 -22.162,-22.162 l 0,-19.334 0,-171.737 0,-19.334 C -22.162,9.922 -12.24,0 0,0" /></g><g
           transform="translate(361.2026,377.3205)"
           id="g242"><path
             id="path244"
             style="fill:#e5e5e5;fill-opacity:1;fill-rule:nonzero;stroke:none"
             d="m 0,0 -19.334,0 -171.737,0 -19.334,0 c -12.24,0 -22.162,-9.922 -22.162,-22.162 l 0,-19.334 0,-171.737 0,-19.334 c 0,-12.24 9.922,-22.162 22.162,-22.162 l 19.334,0 171.737,0 19.334,0 c 12.24,0 22.162,9.922 22.162,22.162 l 0,19.334 0,171.737 0,19.334 C 22.162,-9.922 12.24,0 0,0 m 0,-1 c 11.669,0 21.162,-9.493 21.162,-21.162 l 0,-19.334 0,-171.737 0,-19.334 c 0,-11.669 -9.493,-21.162 -21.162,-21.162 l -19.334,0 -171.737,0 -19.334,0 c -11.669,0 -21.162,9.493 -21.162,21.162 l 0,19.334 0,171.737 0,19.334 c 0,11.669 9.493,21.162 21.162,21.162 l 19.334,0 171.737,0 L 0,-1" /></g><g
           transform="translate(361.2026,380.1312)"
           id="g246"><path
             id="path248"
             style="fill:#e5e5e5;fill-opacity:1;fill-rule:nonzero;stroke:none"
             d="m 0,0 -19.334,0 -171.737,0 -19.334,0 c -12.24,0 -22.162,-9.922 -22.162,-22.162 l 0,-19.334 0,-171.737 0,-19.334 c 0,-12.24 9.922,-22.162 22.162,-22.162 l 19.334,0 171.737,0 19.334,0 c 12.24,0 22.162,9.922 22.162,22.162 l 0,19.334 0,171.737 0,19.334 C 22.162,-9.922 12.24,0 0,0 m 0,-1 c 11.669,0 21.162,-9.493 21.162,-21.162 l 0,-19.334 0,-171.737 0,-19.334 c 0,-11.669 -9.493,-21.162 -21.162,-21.162 l -19.334,0 -171.737,0 -19.334,0 c -11.669,0 -21.162,9.493 -21.162,21.162 l 0,19.334 0,171.737 0,19.334 c 0,11.669 9.493,21.162 21.162,21.162 l 19.334,0 171.737,0 L 0,-1" /></g><g
           transform="translate(361.2026,384.6857)"
           id="g250"><path
             id="path252"
             style="fill:#e5e5e5;fill-opacity:1;fill-rule:nonzero;stroke:none"
             d="m 0,0 -19.334,0 -171.737,0 -19.334,0 c -12.24,0 -22.162,-9.922 -22.162,-22.162 l 0,-19.334 0,-171.737 0,-19.334 c 0,-12.24 9.922,-22.162 22.162,-22.162 l 19.334,0 171.737,0 19.334,0 c 12.24,0 22.162,9.922 22.162,22.162 l 0,19.334 0,171.737 0,19.334 C 22.162,-9.922 12.24,0 0,0 m 0,-1 c 11.669,0 21.162,-9.493 21.162,-21.162 l 0,-19.334 0,-171.737 0,-19.334 c 0,-11.669 -9.493,-21.162 -21.162,-21.162 l -19.334,0 -171.737,0 -19.334,0 c -11.669,0 -21.162,9.493 -21.162,21.162 l 0,19.334 0,171.737 0,19.334 c 0,11.669 9.493,21.162 21.162,21.162 l 19.334,0 171.737,0 L 0,-1" /></g><g
           transform="translate(361.2026,388.233)"
           id="g254"><path
             id="path256"
             style="fill:#e5e5e5;fill-opacity:1;fill-rule:nonzero;stroke:none"
             d="m 0,0 -19.334,0 -171.737,0 -19.334,0 c -12.24,0 -22.162,-9.922 -22.162,-22.162 l 0,-19.334 0,-171.737 0,-19.334 c 0,-12.24 9.922,-22.162 22.162,-22.162 l 19.334,0 171.737,0 19.334,0 c 12.24,0 22.162,9.922 22.162,22.162 l 0,19.334 0,171.737 0,19.334 C 22.162,-9.922 12.24,0 0,0 m 0,-1 c 11.669,0 21.162,-9.493 21.162,-21.162 l 0,-19.334 0,-171.737 0,-19.334 c 0,-11.669 -9.493,-21.162 -21.162,-21.162 l -19.334,0 -171.737,0 -19.334,0 c -11.669,0 -21.162,9.493 -21.162,21.162 l 0,19.334 0,171.737 0,19.334 c 0,11.669 9.493,21.162 21.162,21.162 l 19.334,0 171.737,0 L 0,-1" /></g><g
           transform="translate(128.6353,361.2026)"
           id="g258"><path
             id="path260"
             style="fill:#ffffff;fill-opacity:1;fill-rule:nonzero;stroke:none"
             d="m 0,0 0,-210.405 c 0,-12.24 9.922,-22.162 22.162,-22.162 l 19.334,0 127.365,127.364 -127.365,127.365 -19.334,0 C 9.922,22.162 0,12.24 0,0" /></g><g
           transform="translate(341.8686,128.6353)"
           id="g262"><path
             id="path264"
             style="fill:#f7f7f7;fill-opacity:1;fill-rule:nonzero;stroke:none"
             d="m 0,0 19.334,0 c 12.24,0 22.162,9.922 22.162,22.162 l 0,210.405 c 0,12.24 -9.922,22.162 -22.162,22.162 L 0,254.729 -127.365,127.365 0,0 Z" /></g><g
           transform="translate(383.3647,150.7974)"
           id="g266"><path
             id="path268"
             style="fill:#f4f4f4;fill-opacity:1;fill-rule:nonzero;stroke:none"
             d="M 0,0 0,19.334 -127.365,146.699 -254.729,19.334 -254.729,0 c 0,-12.24 9.922,-22.162 22.162,-22.162 l 210.405,0 C -9.922,-22.162 0,-12.24 0,0" /></g><g
           transform="translate(273.8079,232.3118)"
           id="g270"><path
             id="path272"
             style="fill:#e8e8e8;fill-opacity:1;fill-rule:nonzero;stroke:none"
             d="m 0,0 109.557,109.557 0,19.334 c 0,12.24 -9.923,22.162 -22.162,22.162 l -210.406,0 c -12.239,0 -22.162,-9.922 -22.162,-22.162 l 0,-19.334 L -35.616,0 C -25.781,-9.835 -9.835,-9.835 0,0" /></g><g
           transform="translate(158.8563,321.7892)"
           id="g274"><path
             id="path276"
             style="fill:#000000;fill-opacity:1;fill-rule:nonzero;stroke:none"
             d="m 0,0 -10.074,-10.074 0,-13.747 L 0,-13.747 0,0 Z" /></g><g
           transform="translate(293.135,353.1437)"
           id="g278"><path
             id="path280"
             style="fill:#3f8cfc;fill-opacity:1;fill-rule:nonzero;stroke:none"
             d="m 0,0 10.074,10.074 -13.748,0 L -13.748,0 0,0 Z" /></g><g
           transform="translate(270.8401,353.1437)"
           id="g282"><path
             id="path284"
             style="fill:#fc354d;fill-opacity:1;fill-rule:nonzero;stroke:none"
             d="m 0,0 10.074,10.074 -13.747,0 L -13.747,0 0,0 Z" /></g><g
           transform="translate(337.7233,353.1437)"
           id="g286"><path
             id="path288"
             style="fill:#fc354d;fill-opacity:1;fill-rule:nonzero;stroke:none"
             d="m 0,0 9.612,9.612 c -1.376,0.297 -2.8,0.462 -4.265,0.462 l -9.02,0 L -13.747,0 0,0 Z" /></g><g
           transform="translate(158.8563,343.07)"
           id="g290"><path
             id="path292"
             style="fill:#fc354d;fill-opacity:1;fill-rule:nonzero;stroke:none"
             d="m 0,0 c 0,0.362 0.021,0.72 0.059,1.073 l -10.133,-10.133 0,-13.748 L 0,-12.734 0,0 Z" /></g><g
           transform="translate(168.93,353.1437)"
           id="g294"><path
             id="path296"
             style="fill:#000000;fill-opacity:1;fill-rule:nonzero;stroke:none"
             d="M 0,0 12.734,0 22.808,10.074 9.06,10.074 -1.073,-0.059 C -0.72,-0.021 -0.362,0 0,0" /></g><g
           transform="translate(352.7408,345.8672)"
           id="g298"><path
             id="path300"
             style="fill:#3f8cfc;fill-opacity:1;fill-rule:nonzero;stroke:none"
             d="M 0,0 7.577,7.577 C 5.88,10.393 3.519,12.753 0.703,14.45 L -6.874,6.873 C -3.566,5.915 -0.958,3.307 0,0" /></g><g
           transform="translate(226.2517,353.1437)"
           id="g302"><path
             id="path304"
             style="fill:#3f8cfc;fill-opacity:1;fill-rule:nonzero;stroke:none"
             d="m 0,0 10.074,10.074 -13.747,0 L -13.747,0 0,0 Z" /></g><g
           transform="translate(203.9578,353.1437)"
           id="g306"><path
             id="path308"
             style="fill:#fc354d;fill-opacity:1;fill-rule:nonzero;stroke:none"
             d="m 0,0 10.074,10.074 -13.747,0 L -13.747,0 0,0 Z" /></g><g
           transform="translate(248.5461,353.1437)"
           id="g310"><path
             id="path312"
             style="fill:#000000;fill-opacity:1;fill-rule:nonzero;stroke:none"
             d="m 0,0 0.172,0.172 9.902,9.902 -13.748,0 L -13.748,0 0,0 Z" /></g><g
           transform="translate(353.1442,212.505)"
           id="g314"><path
             id="path316"
             style="fill:#3f8cfc;fill-opacity:1;fill-rule:nonzero;stroke:none"
             d="m 0,0 10.074,10.074 0,13.747 L 0,13.747 0,0 Z" /></g><g
           transform="translate(353.1442,190.2106)"
           id="g318"><path
             id="path320"
             style="fill:#000000;fill-opacity:1;fill-rule:nonzero;stroke:none"
             d="m 0,0 10.074,10.074 0,13.747 L 0,13.748 0,0 Z" /></g><g
           transform="translate(353.1442,323.9762)"
           id="g322"><path
             id="path324"
             style="fill:#000000;fill-opacity:1;fill-rule:nonzero;stroke:none"
             d="m 0,0 10.074,10.074 0,9.02 c 0,1.465 -0.165,2.889 -0.462,4.265 L 0,13.748 0,0 Z" /></g><g
           transform="translate(343.0705,148.7822)"
           id="g326"><path
             id="path328"
             style="fill:#3f8cfc;fill-opacity:1;fill-rule:nonzero;stroke:none"
             d="m 0,0 c 11.127,0 20.147,9.02 20.147,20.147 l 0,0.514 L -0.514,0 0,0 Z" /></g><g
           transform="translate(168.93,363.2173)"
           id="g330"><path
             id="path332"
             style="fill:#3f8cfc;fill-opacity:1;fill-rule:nonzero;stroke:none"
             d="m 0,0 c -11.127,0 -20.147,-9.02 -20.147,-20.147 l 0,-0.513 L 0.513,0 0,0 Z" /></g><g
           transform="translate(353.1442,168.9295)"
           id="g334"><path
             id="path336"
             style="fill:#fc354d;fill-opacity:1;fill-rule:nonzero;stroke:none"
             d="m 0,0 c 0,-0.362 -0.021,-0.719 -0.059,-1.072 l 10.133,10.133 0,13.747 L 0,12.734 0,0 Z" /></g><g
           transform="translate(353.1442,301.6822)"
           id="g338"><path
             id="path340"
             style="fill:#fc354d;fill-opacity:1;fill-rule:nonzero;stroke:none"
             d="m 0,0 10.074,10.074 0,13.747 L 0,13.747 0,0 Z" /></g><g
           transform="translate(353.1442,279.3873)"
           id="g342"><path
             id="path344"
             style="fill:#3f8cfc;fill-opacity:1;fill-rule:nonzero;stroke:none"
             d="m 0,0 10.074,10.074 0,13.748 L 0,13.748 0,0 Z" /></g><g
           transform="translate(353.1442,234.799)"
           id="g346"><path
             id="path348"
             style="fill:#fc354d;fill-opacity:1;fill-rule:nonzero;stroke:none"
             d="m 0,0 10.074,10.074 0,13.747 L 0,13.747 0,0 Z" /></g><g
           transform="translate(353.1442,257.0929)"
           id="g350"><path
             id="path352"
             style="fill:#000000;fill-opacity:1;fill-rule:nonzero;stroke:none"
             d="m 0,0 10.074,10.074 0,13.747 L 0,13.748 0,0 Z" /></g><g
           transform="translate(315.4294,353.1437)"
           id="g354"><path
             id="path356"
             style="fill:#000000;fill-opacity:1;fill-rule:nonzero;stroke:none"
             d="m 0,0 10.074,10.074 -13.748,0 L -13.748,0 0,0 Z" /></g><g
           transform="translate(343.0705,158.8558)"
           id="g358"><path
             id="path360"
             style="fill:#000000;fill-opacity:1;fill-rule:nonzero;stroke:none"
             d="m 0,0 -12.734,0 -10.074,-10.074 13.747,0 L 1.072,0.059 C 0.719,0.021 0.362,0 0,0" /></g><g
           transform="translate(174.2763,158.8558)"
           id="g362"><path
             id="path364"
             style="fill:#fc354d;fill-opacity:1;fill-rule:nonzero;stroke:none"
             d="m 0,0 -9.612,-9.612 c 1.376,-0.297 2.801,-0.462 4.266,-0.462 l 9.02,0 L 13.748,0 0,0 Z" /></g><g
           transform="translate(158.8563,232.6131)"
           id="g366"><path
             id="path368"
             style="fill:#3f8cfc;fill-opacity:1;fill-rule:nonzero;stroke:none"
             d="m 0,0 -10.074,-10.074 0,-13.748 L 0,-13.748 0,0 Z" /></g><g
           transform="translate(308.0419,158.8558)"
           id="g370"><path
             id="path372"
             style="fill:#fc354d;fill-opacity:1;fill-rule:nonzero;stroke:none"
             d="m 0,0 -10.074,-10.074 13.748,0 L 13.748,0 0,0 Z" /></g><g
           transform="translate(158.8563,254.907)"
           id="g374"><path
             id="path376"
             style="fill:#000000;fill-opacity:1;fill-rule:nonzero;stroke:none"
             d="m 0,0 -10.074,-10.074 0,-13.747 L 0,-13.747 0,0 Z" /></g><g
           transform="translate(158.8563,188.0237)"
           id="g378"><path
             id="path380"
             style="fill:#000000;fill-opacity:1;fill-rule:nonzero;stroke:none"
             d="m 0,0 -10.074,-10.074 0,-9.02 c 0,-1.465 0.165,-2.889 0.462,-4.265 L 0,-13.747 0,0 Z" /></g><g
           transform="translate(158.8563,210.3181)"
           id="g382"><path
             id="path384"
             style="fill:#fc354d;fill-opacity:1;fill-rule:nonzero;stroke:none"
             d="m 0,0 -10.074,-10.074 0,-13.747 L 0,-13.748 0,0 Z" /></g><g
           transform="translate(159.2596,166.133)"
           id="g386"><path
             id="path388"
             style="fill:#3f8cfc;fill-opacity:1;fill-rule:nonzero;stroke:none"
             d="m 0,0 -7.577,-7.577 c 1.697,-2.816 4.058,-5.176 6.873,-6.874 l 7.577,7.577 C 3.566,-5.915 0.958,-3.308 0,0" /></g><g
           transform="translate(196.5707,158.8558)"
           id="g390"><path
             id="path392"
             style="fill:#000000;fill-opacity:1;fill-rule:nonzero;stroke:none"
             d="m 0,0 -10.074,-10.074 13.747,0 L 13.747,0 0,0 Z" /></g><g
           transform="translate(241.1596,158.8558)"
           id="g394"><path
             id="path396"
             style="fill:#fc354d;fill-opacity:1;fill-rule:nonzero;stroke:none"
             d="m 0,0 -10.074,-10.074 13.748,0 L 13.748,0 0,0 Z" /></g><g
           transform="translate(158.8563,299.4953)"
           id="g398"><path
             id="path400"
             style="fill:#3f8cfc;fill-opacity:1;fill-rule:nonzero;stroke:none"
             d="m 0,0 -10.074,-10.074 0,-13.747 L 0,-13.747 0,0 Z" /></g><g
           transform="translate(218.8647,158.8558)"
           id="g402"><path
             id="path404"
             style="fill:#3f8cfc;fill-opacity:1;fill-rule:nonzero;stroke:none"
             d="m 0,0 -10.074,-10.074 13.748,0 L 13.748,0 0,0 Z" /></g><g
           transform="translate(263.454,158.8558)"
           id="g406"><path
             id="path408"
             style="fill:#000000;fill-opacity:1;fill-rule:nonzero;stroke:none"
             d="m 0,0 -10.074,-10.074 13.747,0 L 13.747,0 0,0 Z" /></g><g
           transform="translate(285.7479,158.8558)"
           id="g410"><path
             id="path412"
             style="fill:#3f8cfc;fill-opacity:1;fill-rule:nonzero;stroke:none"
             d="m 0,0 -10.074,-10.074 13.747,0 L 13.747,0 0,0 Z" /></g><g
           transform="translate(158.8563,277.2014)"
           id="g414"><path
             id="path416"
             style="fill:#fc354d;fill-opacity:1;fill-rule:nonzero;stroke:none"
             d="m 0,0 -10.074,-10.074 0,-13.747 L 0,-13.748 0,0 Z" /></g></g></g></g></svg>