<?xml version="1.0" encoding="UTF-8" standalone="no"?>
<svg
   xmlns:dc="http://purl.org/dc/elements/1.1/"
   xmlns:cc="http://creativecommons.org/ns#"
   xmlns:rdf="http://www.w3.org/1999/02/22-rdf-syntax-ns#"
   xmlns:svg="http://www.w3.org/2000/svg"
   xmlns="http://www.w3.org/2000/svg"
   viewBox="0 0 640 640"
   height="640"
   width="640"
   xml:space="preserve"
   version="1.1"
   id="svg2"><metadata
     id="metadata8"><rdf:RDF><cc:Work
         rdf:about=""><dc:format>image/svg+xml</dc:format><dc:type
           rdf:resource="http://purl.org/dc/dcmitype/StillImage" /></cc:Work></rdf:RDF></metadata><defs
     id="defs6"><clipPath
       id="clipPath16"
       clipPathUnits="userSpaceOnUse"><path
         id="path18"
         d="M 0,512 512,512 512,0 0,0 0,512 Z" /></clipPath><clipPath
       id="clipPath24"
       clipPathUnits="userSpaceOnUse"><path
         id="path26"
         d="m 18.325,493.744 475.4,0 0,-475.4877 -475.4,0 0,475.4877 z" /></clipPath><clipPath
       id="clipPath28"
       clipPathUnits="userSpaceOnUse"><path
         id="path30"
         d="M 448.99,63.029 C 389.293,3.332 122.807,3.332 63.11,63.029 3.413,122.726 3.413,389.312 63.01,449.009 c 59.597,59.696 326.283,59.596 385.98,0 59.697,-59.597 59.597,-326.283 0,-385.98" /></clipPath><radialGradient
       id="radialGradient36"
       spreadMethod="pad"
       gradientTransform="matrix(237.72188,0,0,237.72188,256.02499,256)"
       gradientUnits="userSpaceOnUse"
       r="1"
       cy="0"
       cx="0"
       fy="0"
       fx="0"><stop
         id="stop38"
         offset="0"
         style="stop-opacity:1;stop-color:#ffffff" /><stop
         id="stop40"
         offset="0.8587"
         style="stop-opacity:0.14129854;stop-color:#ffffff" /><stop
         id="stop42"
         offset="1"
         style="stop-opacity:0;stop-color:#ffffff" /></radialGradient><mask
       id="mask44"
       height="1"
       width="1"
       y="0"
       x="0"
       maskUnits="userSpaceOnUse"><g
         id="g46"><g
           id="g48"><g
             id="g50"><g
               id="g52"><path
                 id="path54"
                 style="fill:url(#radialGradient36);stroke:none"
                 d="m -32768,32767 65535,0 0,-65535 -65535,0 0,65535 z" /></g></g></g></g></mask><radialGradient
       id="radialGradient56"
       spreadMethod="pad"
       gradientTransform="matrix(237.72188,0,0,237.72188,256.02499,256)"
       gradientUnits="userSpaceOnUse"
       r="1"
       cy="0"
       cx="0"
       fy="0"
       fx="0"><stop
         id="stop58"
         offset="0"
         style="stop-opacity:1;stop-color:#010101" /><stop
         id="stop60"
         offset="0.8587"
         style="stop-opacity:1;stop-color:#010101" /><stop
         id="stop62"
         offset="1"
         style="stop-opacity:1;stop-color:#010101" /></radialGradient><clipPath
       id="clipPath86"
       clipPathUnits="userSpaceOnUse"><path
         id="path88"
         d="m 18.325,493.744 475.4,0 0,-475.4877 -475.4,0 0,475.4877 z" /></clipPath><clipPath
       id="clipPath90"
       clipPathUnits="userSpaceOnUse"><path
         id="path92"
         d="M 448.99,63.029 C 389.293,3.332 122.807,3.332 63.11,63.029 3.413,122.726 3.413,389.312 63.01,449.009 c 59.597,59.696 326.283,59.596 385.98,0 59.697,-59.597 59.597,-326.283 0,-385.98" /></clipPath><radialGradient
       id="radialGradient98"
       spreadMethod="pad"
       gradientTransform="matrix(188.25467,188.36119,-130.35883,130.27895,256.02499,256.04376)"
       gradientUnits="userSpaceOnUse"
       r="1"
       cy="0"
       cx="0"
       fy="0"
       fx="0"><stop
         id="stop100"
         offset="0"
         style="stop-opacity:1;stop-color:#ffffff" /><stop
         id="stop102"
         offset="0.8587"
         style="stop-opacity:0.14129854;stop-color:#ffffff" /><stop
         id="stop104"
         offset="1"
         style="stop-opacity:0;stop-color:#ffffff" /></radialGradient><mask
       id="mask106"
       height="1"
       width="1"
       y="0"
       x="0"
       maskUnits="userSpaceOnUse"><g
         id="g108"><g
           id="g110"><g
             id="g112"><g
               id="g114"><path
                 id="path116"
                 style="fill:url(#radialGradient98);stroke:none"
                 d="m -32768,32767 65535,0 0,-65535 -65535,0 0,65535 z" /></g></g></g></g></mask><radialGradient
       id="radialGradient118"
       spreadMethod="pad"
       gradientTransform="matrix(188.25467,188.36119,-130.35883,130.27895,256.02499,256.04376)"
       gradientUnits="userSpaceOnUse"
       r="1"
       cy="0"
       cx="0"
       fy="0"
       fx="0"><stop
         id="stop120"
         offset="0"
         style="stop-opacity:1;stop-color:#010101" /><stop
         id="stop122"
         offset="0.8587"
         style="stop-opacity:1;stop-color:#010101" /><stop
         id="stop124"
         offset="1"
         style="stop-opacity:1;stop-color:#010101" /></radialGradient><clipPath
       id="clipPath148"
       clipPathUnits="userSpaceOnUse"><path
         id="path150"
         d="m 18.275,493.694 475.387,0 0,-475.4377 -475.387,0 0,475.4377 z" /></clipPath><clipPath
       id="clipPath152"
       clipPathUnits="userSpaceOnUse"><path
         id="path154"
         d="m 63.01,63.029 c 59.697,-59.697 326.183,-59.697 385.88,0 59.697,59.697 59.697,326.183 0,385.88 -59.697,59.696 -326.183,59.696 -385.88,0.1 -59.697,-59.597 -59.597,-326.283 0,-385.98" /></clipPath><radialGradient
       id="radialGradient160"
       spreadMethod="pad"
       gradientTransform="matrix(-188.28767,188.39421,130.38168,130.30179,255.92499,255.99377)"
       gradientUnits="userSpaceOnUse"
       r="1"
       cy="0"
       cx="0"
       fy="0"
       fx="0"><stop
         id="stop162"
         offset="0"
         style="stop-opacity:1;stop-color:#ffffff" /><stop
         id="stop164"
         offset="0.8587"
         style="stop-opacity:0.14129854;stop-color:#ffffff" /><stop
         id="stop166"
         offset="1"
         style="stop-opacity:0;stop-color:#ffffff" /></radialGradient><mask
       id="mask168"
       height="1"
       width="1"
       y="0"
       x="0"
       maskUnits="userSpaceOnUse"><g
         id="g170"><g
           id="g172"><g
             id="g174"><g
               id="g176"><path
                 id="path178"
                 style="fill:url(#radialGradient160);stroke:none"
                 d="m -32768,32767 65535,0 0,-65535 -65535,0 0,65535 z" /></g></g></g></g></mask><radialGradient
       id="radialGradient180"
       spreadMethod="pad"
       gradientTransform="matrix(-188.28767,188.39421,130.38168,130.30179,255.92499,255.99377)"
       gradientUnits="userSpaceOnUse"
       r="1"
       cy="0"
       cx="0"
       fy="0"
       fx="0"><stop
         id="stop182"
         offset="0"
         style="stop-opacity:1;stop-color:#010101" /><stop
         id="stop184"
         offset="0.8587"
         style="stop-opacity:1;stop-color:#010101" /><stop
         id="stop186"
         offset="1"
         style="stop-opacity:1;stop-color:#010101" /></radialGradient><radialGradient
       id="radialGradient218"
       spreadMethod="pad"
       gradientTransform="matrix(229.9996,0,0,229.9996,243,254)"
       gradientUnits="userSpaceOnUse"
       r="1"
       cy="0"
       cx="0"
       fy="0"
       fx="0"><stop
         id="stop220"
         offset="0"
         style="stop-opacity:1;stop-color:#552100" /><stop
         id="stop222"
         offset="0.47057938"
         style="stop-opacity:1;stop-color:#ffe8e1" /><stop
         id="stop224"
         offset="1"
         style="stop-opacity:1;stop-color:#ffe8e1" /></radialGradient><radialGradient
       id="radialGradient240"
       spreadMethod="pad"
       gradientTransform="matrix(161.53189,0,0,-161.53189,256,266.39853)"
       gradientUnits="userSpaceOnUse"
       r="1"
       cy="0"
       cx="0"
       fy="0"
       fx="0"><stop
         id="stop242"
         offset="0"
         style="stop-opacity:1;stop-color:#552100" /><stop
         id="stop244"
         offset="0.47057938"
         style="stop-opacity:1;stop-color:#ffe8e1" /><stop
         id="stop246"
         offset="1"
         style="stop-opacity:1;stop-color:#ffe8e1" /></radialGradient><radialGradient
       id="radialGradient262"
       spreadMethod="pad"
       gradientTransform="matrix(149.5264,0,0,-149.5264,256,258.27109)"
       gradientUnits="userSpaceOnUse"
       r="1"
       cy="0"
       cx="0"
       fy="0"
       fx="0"><stop
         id="stop264"
         offset="0"
         style="stop-opacity:1;stop-color:#d55e3b" /><stop
         id="stop266"
         offset="0.452931"
         style="stop-opacity:1;stop-color:#d55e3b" /><stop
         id="stop268"
         offset="0.47645479"
         style="stop-opacity:1;stop-color:#faccbf" /><stop
         id="stop270"
         offset="0.49308"
         style="stop-opacity:1;stop-color:#faccbf" /><stop
         id="stop272"
         offset="0.50730193"
         style="stop-opacity:1;stop-color:#faf0ef" /><stop
         id="stop274"
         offset="0.560832"
         style="stop-opacity:1;stop-color:#faf0ef" /><stop
         id="stop276"
         offset="0.64510758"
         style="stop-opacity:1;stop-color:#fff8e3" /><stop
         id="stop278"
         offset="0.980296"
         style="stop-opacity:1;stop-color:#fff8e3" /><stop
         id="stop280"
         offset="1"
         style="stop-opacity:1;stop-color:#f4baa9" /></radialGradient><radialGradient
       id="radialGradient296"
       spreadMethod="pad"
       gradientTransform="matrix(74.4944,0,0,-74.4944,256.00082,256.04645)"
       gradientUnits="userSpaceOnUse"
       r="1"
       cy="0"
       cx="0"
       fy="0"
       fx="0"><stop
         id="stop298"
         offset="0"
         style="stop-opacity:1;stop-color:#231f20" /><stop
         id="stop300"
         offset="0.22348759"
         style="stop-opacity:1;stop-color:#231f20" /><stop
         id="stop302"
         offset="0.522148"
         style="stop-opacity:1;stop-color:#158cff" /><stop
         id="stop304"
         offset="0.69656959"
         style="stop-opacity:1;stop-color:#158cff" /><stop
         id="stop306"
         offset="0.985414"
         style="stop-opacity:1;stop-color:#0d007f" /><stop
         id="stop308"
         offset="1"
         style="stop-opacity:1;stop-color:#0d007f" /></radialGradient><clipPath
       id="clipPath316"
       clipPathUnits="userSpaceOnUse"><path
         id="path318"
         d="M 0,512 512,512 512,0 0,0 0,512 Z" /></clipPath><clipPath
       id="clipPath324"
       clipPathUnits="userSpaceOnUse"><path
         id="path326"
         d="m 195.034,321.128 121.347,0 0,-121.932 -121.347,0 0,121.932 z" /></clipPath><radialGradient
       id="radialGradient332"
       spreadMethod="pad"
       gradientTransform="matrix(60.820038,0,0,-60.820038,255.7077,260.16205)"
       gradientUnits="userSpaceOnUse"
       r="1"
       cy="0"
       cx="0"
       fy="0"
       fx="0"><stop
         id="stop334"
         offset="0"
         style="stop-opacity:1;stop-color:#231f20" /><stop
         id="stop336"
         offset="0.45783"
         style="stop-opacity:1;stop-color:#231f20" /><stop
         id="stop338"
         offset="0.56675875"
         style="stop-opacity:1;stop-color:#005b75" /><stop
         id="stop340"
         offset="1"
         style="stop-opacity:1;stop-color:#005b75" /></radialGradient><clipPath
       id="clipPath360"
       clipPathUnits="userSpaceOnUse"><path
         id="path362"
         d="m 195.017,321.503 121.487,0 0,-122.338 -121.487,0 0,122.338 z" /></clipPath><radialGradient
       id="radialGradient368"
       spreadMethod="pad"
       gradientTransform="matrix(60.757873,2.7491539,2.7491539,-60.757873,255.7077,260.16205)"
       gradientUnits="userSpaceOnUse"
       r="1"
       cy="0"
       cx="0"
       fy="0"
       fx="0"><stop
         id="stop370"
         offset="0"
         style="stop-opacity:1;stop-color:#231f20" /><stop
         id="stop372"
         offset="0.398717"
         style="stop-opacity:1;stop-color:#231f20" /><stop
         id="stop374"
         offset="0.5195223"
         style="stop-opacity:1;stop-color:#00328c" /><stop
         id="stop376"
         offset="1"
         style="stop-opacity:1;stop-color:#00328c" /></radialGradient><clipPath
       id="clipPath396"
       clipPathUnits="userSpaceOnUse"><path
         id="path398"
         d="m 213.623,324.802 c -20.745,-13.752 -34.43,-37.301 -34.43,-64.054 l 0,0 c 0,-42.42 34.388,-76.808 76.807,-76.808 l 0,0 c 42.421,0 76.809,34.388 76.809,76.808 l 0,0 c 0,26.753 -13.686,50.302 -34.431,64.054 l 0,0 c -13.508,2.694 -27.713,4.28 -42.378,4.28 l 0,0 c -14.663,0 -28.869,-1.586 -42.377,-4.28" /></clipPath><radialGradient
       id="radialGradient408"
       spreadMethod="pad"
       gradientTransform="matrix(111.98803,0,0,-111.98803,256.6987,270.35828)"
       gradientUnits="userSpaceOnUse"
       r="1"
       cy="0"
       cx="0"
       fy="0"
       fx="0"><stop
         id="stop410"
         offset="0"
         style="stop-opacity:0;stop-color:#ffffff" /><stop
         id="stop412"
         offset="0.0145859"
         style="stop-opacity:0;stop-color:#ffffff" /><stop
         id="stop414"
         offset="0.901285"
         style="stop-opacity:1;stop-color:#ffffff" /><stop
         id="stop416"
         offset="1"
         style="stop-opacity:1;stop-color:#ffffff" /></radialGradient><mask
       id="mask418"
       height="1"
       width="1"
       y="0"
       x="0"
       maskUnits="userSpaceOnUse"><g
         id="g420"><g
           id="g422"><g
             id="g424"><g
               id="g426"><path
                 id="path428"
                 style="fill:url(#radialGradient408);stroke:none"
                 d="m -32768,32767 65535,0 0,-65535 -65535,0 0,65535 z" /></g></g></g></g></mask><radialGradient
       id="radialGradient434"
       spreadMethod="pad"
       gradientTransform="matrix(111.98803,0,0,-111.98803,256.6987,270.35828)"
       gradientUnits="userSpaceOnUse"
       r="1"
       cy="0"
       cx="0"
       fy="0"
       fx="0"><stop
         id="stop436"
         offset="0"
         style="stop-opacity:1;stop-color:#231f20" /><stop
         id="stop438"
         offset="0.0145859"
         style="stop-opacity:1;stop-color:#231f20" /><stop
         id="stop440"
         offset="0.901285"
         style="stop-opacity:1;stop-color:#231f20" /><stop
         id="stop442"
         offset="1"
         style="stop-opacity:1;stop-color:#231f20" /></radialGradient><clipPath
       id="clipPath450"
       clipPathUnits="userSpaceOnUse"><path
         id="path452"
         d="m 256,278.975 c 0,-10.295 8.346,-18.641 18.641,-18.641 l 0,0 c 10.295,0 18.641,8.346 18.641,18.641 l 0,0 c 0,10.295 -8.346,18.641 -18.641,18.641 l 0,0 C 264.346,297.616 256,289.27 256,278.975" /></clipPath><linearGradient
       id="linearGradient462"
       spreadMethod="pad"
       gradientTransform="matrix(41.246601,43.906105,43.906105,-41.246601,249.65799,252.38058)"
       gradientUnits="userSpaceOnUse"
       y2="0"
       x2="1"
       y1="0"
       x1="0"><stop
         id="stop464"
         offset="0"
         style="stop-opacity:1;stop-color:#ffffff" /><stop
         id="stop466"
         offset="0.0236282"
         style="stop-opacity:1;stop-color:#ffffff" /><stop
         id="stop468"
         offset="1"
         style="stop-opacity:0;stop-color:#ffffff" /></linearGradient><mask
       id="mask470"
       height="1"
       width="1"
       y="0"
       x="0"
       maskUnits="userSpaceOnUse"><g
         id="g472"><g
           id="g474"><g
             id="g476"><g
               id="g478"><path
                 id="path480"
                 style="fill:url(#linearGradient462);stroke:none"
                 d="m -32768,32767 65535,0 0,-65535 -65535,0 0,65535 z" /></g></g></g></g></mask><linearGradient
       id="linearGradient486"
       spreadMethod="pad"
       gradientTransform="matrix(41.246601,43.906105,43.906105,-41.246601,249.65799,252.38058)"
       gradientUnits="userSpaceOnUse"
       y2="0"
       x2="1"
       y1="0"
       x1="0"><stop
         id="stop488"
         offset="0"
         style="stop-opacity:1;stop-color:#ffffff" /><stop
         id="stop490"
         offset="0.0236282"
         style="stop-opacity:1;stop-color:#ffffff" /><stop
         id="stop492"
         offset="1"
         style="stop-opacity:1;stop-color:#ffffff" /></linearGradient><clipPath
       id="clipPath500"
       clipPathUnits="userSpaceOnUse"><path
         id="path502"
         d="M 0,512 512,512 512,0 0,0 0,512 Z" /></clipPath><clipPath
       id="clipPath508"
       clipPathUnits="userSpaceOnUse"><path
         id="path510"
         d="m 213.836,283.66 28.638,0 0,-28.638 -28.638,0 0,28.638 z" /></clipPath><clipPath
       id="clipPath512"
       clipPathUnits="userSpaceOnUse"><path
         id="path514"
         d="m 242.474,269.341 c 0,-7.908 -6.411,-14.319 -14.319,-14.319 -7.908,0 -14.319,6.411 -14.319,14.319 0,7.908 6.411,14.319 14.319,14.319 7.908,0 14.319,-6.411 14.319,-14.319" /></clipPath><linearGradient
       id="linearGradient520"
       spreadMethod="pad"
       gradientTransform="matrix(23.462789,15.47276,15.47276,-23.462789,216.34227,261.55081)"
       gradientUnits="userSpaceOnUse"
       y2="0"
       x2="1"
       y1="0"
       x1="0"><stop
         id="stop522"
         offset="0"
         style="stop-opacity:1;stop-color:#ffffff" /><stop
         id="stop524"
         offset="0.88884938"
         style="stop-opacity:0;stop-color:#ffffff" /><stop
         id="stop526"
         offset="1"
         style="stop-opacity:0;stop-color:#ffffff" /></linearGradient><mask
       id="mask528"
       height="1"
       width="1"
       y="0"
       x="0"
       maskUnits="userSpaceOnUse"><g
         id="g530"><g
           id="g532"><g
             id="g534"><g
               id="g536"><path
                 id="path538"
                 style="fill:url(#linearGradient520);stroke:none"
                 d="m -32768,32767 65535,0 0,-65535 -65535,0 0,65535 z" /></g></g></g></g></mask><linearGradient
       id="linearGradient540"
       spreadMethod="pad"
       gradientTransform="matrix(23.462789,15.47276,15.47276,-23.462789,216.34227,261.55081)"
       gradientUnits="userSpaceOnUse"
       y2="0"
       x2="1"
       y1="0"
       x1="0"><stop
         id="stop542"
         offset="0"
         style="stop-opacity:1;stop-color:#ffffff" /><stop
         id="stop544"
         offset="0.88884938"
         style="stop-opacity:1;stop-color:#ffffff" /><stop
         id="stop546"
         offset="1"
         style="stop-opacity:1;stop-color:#ffffff" /></linearGradient><clipPath
       id="clipPath570"
       clipPathUnits="userSpaceOnUse"><path
         id="path572"
         d="m 228.155,242.575 18.868,0 0,-18.868 -18.868,0 0,18.868 z" /></clipPath><clipPath
       id="clipPath574"
       clipPathUnits="userSpaceOnUse"><path
         id="path576"
         d="m 247.023,233.141 c 0,-5.211 -4.224,-9.434 -9.434,-9.434 -5.21,0 -9.434,4.223 -9.434,9.434 0,5.21 4.224,9.434 9.434,9.434 5.21,0 9.434,-4.224 9.434,-9.434" /></clipPath><linearGradient
       id="linearGradient582"
       spreadMethod="pad"
       gradientTransform="matrix(12.678266,13.495737,13.495737,-12.678266,231.02763,226.15628)"
       gradientUnits="userSpaceOnUse"
       y2="0"
       x2="1"
       y1="0"
       x1="0"><stop
         id="stop584"
         offset="0"
         style="stop-opacity:1;stop-color:#ffffff" /><stop
         id="stop586"
         offset="0.0236282"
         style="stop-opacity:1;stop-color:#ffffff" /><stop
         id="stop588"
         offset="1"
         style="stop-opacity:0;stop-color:#ffffff" /></linearGradient><mask
       id="mask590"
       height="1"
       width="1"
       y="0"
       x="0"
       maskUnits="userSpaceOnUse"><g
         id="g592"><g
           id="g594"><g
             id="g596"><g
               id="g598"><path
                 id="path600"
                 style="fill:url(#linearGradient582);stroke:none"
                 d="m -32768,32767 65535,0 0,-65535 -65535,0 0,65535 z" /></g></g></g></g></mask><linearGradient
       id="linearGradient602"
       spreadMethod="pad"
       gradientTransform="matrix(12.678266,13.495737,13.495737,-12.678266,231.02763,226.15628)"
       gradientUnits="userSpaceOnUse"
       y2="0"
       x2="1"
       y1="0"
       x1="0"><stop
         id="stop604"
         offset="0"
         style="stop-opacity:1;stop-color:#ffffff" /><stop
         id="stop606"
         offset="0.0236282"
         style="stop-opacity:1;stop-color:#ffffff" /><stop
         id="stop608"
         offset="1"
         style="stop-opacity:1;stop-color:#ffffff" /></linearGradient></defs><g
     transform="matrix(1.25,0,0,-1.25,0,640)"
     id="g10"><g
       id="g12"><g
         clip-path="url(#clipPath16)"
         id="g14"><g
           id="g20"><g
             id="g22" /><g
             id="g64"><g
               style="opacity:0.39999402"
               id="g66"
               clip-path="url(#clipPath24)"><g
                 id="g68"><g
                   id="g70"
                   clip-path="url(#clipPath28)"><g
                     id="g72"><g
                       id="g74" /><g
                       id="g76"
                       mask="url(#mask44)"><g
                         id="g78"><path
                           id="path80"
                           style="fill:url(#radialGradient56);stroke:none"
                           d="M 448.99,63.029 C 389.293,3.332 122.807,3.332 63.11,63.029 3.413,122.726 3.413,389.312 63.01,449.009 c 59.597,59.696 326.283,59.596 385.98,0 59.697,-59.597 59.597,-326.283 0,-385.98" /></g></g></g></g></g></g></g></g><g
           id="g82"><g
             id="g84" /><g
             id="g126"><g
               style="opacity:0.39999402"
               id="g128"
               clip-path="url(#clipPath86)"><g
                 id="g130"><g
                   id="g132"
                   clip-path="url(#clipPath90)"><g
                     id="g134"><g
                       id="g136" /><g
                       id="g138"
                       mask="url(#mask106)"><g
                         id="g140"><path
                           id="path142"
                           style="fill:url(#radialGradient118);stroke:none"
                           d="M 448.99,63.029 C 389.293,3.332 122.807,3.332 63.11,63.029 3.413,122.726 3.413,389.312 63.01,449.009 c 59.597,59.696 326.283,59.596 385.98,0 59.697,-59.597 59.597,-326.283 0,-385.98" /></g></g></g></g></g></g></g></g><g
           id="g144"><g
             id="g146" /><g
             id="g188"><g
               style="opacity:0.39999402"
               id="g190"
               clip-path="url(#clipPath148)"><g
                 id="g192"><g
                   id="g194"
                   clip-path="url(#clipPath152)"><g
                     id="g196"><g
                       id="g198" /><g
                       id="g200"
                       mask="url(#mask168)"><g
                         id="g202"><path
                           id="path204"
                           style="fill:url(#radialGradient180);stroke:none"
                           d="m 63.01,63.029 c 59.697,-59.697 326.183,-59.697 385.88,0 59.697,59.697 59.697,326.183 0,385.88 -59.697,59.696 -326.183,59.696 -385.88,0.1 -59.697,-59.597 -59.597,-326.283 0,-385.98" /></g></g></g></g></g></g></g></g></g></g><g
       id="g206"><g
         id="g208"><g
           id="g214"><g
             id="g216"><path
               id="path226"
               style="fill:url(#radialGradient218);stroke:none"
               d="M 78.721,433.279 C 8.427,362.985 8.427,149.015 78.721,78.721 l 0,0 c 70.294,-70.294 284.263,-70.294 354.558,0 l 0,0 c 70.294,70.294 70.294,284.264 0,354.558 l 0,0 C 398.132,468.426 327.066,486 256,486 l 0,0 C 184.934,486 113.868,468.426 78.721,433.279" /></g></g></g></g><g
       id="g228"><g
         id="g230"><g
           id="g236"><g
             id="g238"><path
               id="path248"
               style="fill:url(#radialGradient240);stroke:none"
               d="m 99.749,268.003 c -3.32,-3.563 -3.32,-9.087 0,-12.65 l 0,0 C 118.441,235.3 154,155 256,155 l 0,0 c 96.5,0 137.555,80.293 156.249,100.351 l 0,0 c 3.322,3.564 3.322,9.091 0,12.655 l 0,0 C 393.555,288.063 353.5,360.5 255.708,360.5 l 0,0 C 154.5,360.5 118.441,288.057 99.749,268.003" /></g></g></g></g><g
       id="g250"><g
         id="g252"><g
           id="g258"><g
             id="g260"><path
               id="path282"
               style="fill:url(#radialGradient262);stroke:none"
               d="m 99.749,268.003 c -3.32,-3.563 -3.32,-9.087 0,-12.65 l 0,0 C 118.441,235.3 181.316,174.443 256,174.443 l 0,0 c 74.682,0 137.555,60.85 156.249,80.908 l 0,0 c 3.322,3.564 3.322,9.091 0,12.655 l 0,0 C 393.555,288.063 330.682,329.082 256,329.082 l 0,0 c -74.684,0 -137.559,-41.025 -156.251,-61.079" /></g></g></g></g><g
       id="g284"><g
         id="g286"><g
           id="g292"><g
             id="g294"><path
               id="path310"
               style="fill:url(#radialGradient296);stroke:none"
               d="m 211.718,323.487 c -19.67,-13.91 -32.525,-36.815 -32.525,-62.739 l 0,0 c 0,-42.42 34.388,-76.808 76.807,-76.808 l 0,0 c 42.421,0 76.809,34.388 76.809,76.808 l 0,0 c 0,25.924 -12.855,48.829 -32.526,62.739 l 0,0 c -14.074,2.93 -28.928,4.666 -44.283,4.666 l 0,0 c -15.354,0 -30.207,-1.737 -44.282,-4.666" /></g></g></g></g><g
       id="g312"><g
         clip-path="url(#clipPath316)"
         id="g314"><g
           id="g320"><g
             id="g322" /><g
             id="g342"><g
               style="opacity:0.57000703"
               id="g344"
               clip-path="url(#clipPath324)"><g
                 id="g346"><g
                   id="g348"><g
                     id="g350"><g
                       id="g352"><path
                         id="path354"
                         style="fill:url(#radialGradient332);stroke:none"
                         d="m 255.101,289.743 c 3.831,9.696 3.245,20.247 3.831,30.799 2.931,-10.552 -1.173,-20.517 -1.759,-30.483 5.862,9.38 5.862,20.518 8.207,31.069 0.586,-10.551 -4.103,-20.517 -5.276,-31.069 2.345,10.552 9.38,19.345 9.966,29.897 0.586,-11.138 -6.448,-19.931 -7.621,-30.483 2.931,10.552 11.138,18.759 12.897,29.311 -4.104,-9.966 -7.621,-19.932 -10.552,-29.897 4.69,9.379 10.552,18.759 15.242,28.138 -0.587,-1.661 -1.205,-3.306 -1.851,-4.934 -0.646,-1.628 -1.319,-3.24 -2.014,-4.836 -0.695,-1.596 -1.411,-3.176 -2.144,-4.739 -0.733,-1.563 -1.482,-3.11 -2.242,-4.641 -1.52,-3.061 -3.083,-6.057 -4.646,-8.988 1.075,1.27 2.084,2.605 3.05,3.984 0.967,1.379 1.889,2.801 2.791,4.246 3.538,5.839 6.469,11.701 11.159,16.977 -3.517,-8.207 -8.793,-14.655 -12.973,-22.404 -0.819,-1.484 -1.585,-2.999 -2.268,-4.562 0.977,1.368 1.937,2.736 2.895,4.099 4.725,7.039 9.415,13.487 15.863,19.35 -5.275,-6.449 -9.965,-13.483 -14.147,-20.468 -0.931,-1.4 -1.876,-2.786 -2.853,-4.153 1.173,1.172 2.33,2.364 3.487,3.579 5.893,5.8 11.169,12.835 17.617,18.697 -5.862,-8.207 -14.069,-14.069 -18.759,-23.449 7.621,6.448 15.828,12.897 23.449,19.931 -9.38,-4.689 -13.483,-15.241 -21.104,-21.69 7.621,7.035 16.414,13.483 25.793,18.173 -9.379,-4.69 -18.172,-11.724 -24.034,-20.517 8.793,5.862 17.586,11.724 26.965,17 -7.62,-7.035 -17,-11.724 -24.034,-19.345 8.207,6.448 18.172,9.379 26.966,14.655 -8.207,-6.448 -17.587,-11.138 -25.794,-17 9.38,5.276 19.931,8.207 29.897,11.724 -9.966,-3.517 -18.173,-11.138 -28.138,-14.655 9.965,3.517 19.931,4.69 29.31,9.379 -9.965,-3.517 -18.758,-8.207 -28.138,-12.896 9.966,2.344 19.931,4.689 29.897,7.034 -9.966,-2.931 -19.345,-7.034 -28.724,-9.966 9.965,0 19.345,3.518 29.31,4.104 -8.207,-1.759 -15.827,-4.104 -23.786,-5.763 -1.633,-0.261 -3.277,-0.49 -4.938,-0.685 1.661,0 3.322,0.016 4.983,0.05 8.5,-0.05 16.707,1.122 24.914,1.708 -6.449,-1.758 -12.897,-3.517 -19.932,-4.168 -1.66,-0.261 -3.321,-0.489 -4.982,-0.676 -1.661,-0.187 -3.322,-0.334 -4.983,-0.432 9.965,-1.172 20.517,0 30.483,0.586 -9.966,-2.344 -20.518,-2.931 -31.069,-3.517 10.551,-0.586 20.517,-2.345 31.069,-1.758 -10.552,-1.173 -20.518,-1.759 -31.069,-0.587 9.965,-2.345 19.931,-3.517 29.897,-5.276 -9.966,1.759 -20.518,0 -30.484,2.345 9.966,-2.931 19.932,-4.689 29.897,-8.207 -9.965,2.931 -20.517,2.931 -30.483,5.862 9.966,-2.931 18.759,-7.62 28.725,-10.551 -8.207,3.517 -16.414,3.517 -24.891,6.796 -1.679,0.454 -3.345,0.922 -5.006,1.411 1.563,-0.684 3.145,-1.366 4.744,-2.05 7.566,-3.813 15.773,-6.744 23.394,-11.433 -8.207,3.517 -16.414,6.448 -24.37,9.378 -1.635,0.587 -3.28,1.173 -4.941,1.76 1.564,-0.782 3.111,-1.564 4.642,-2.353 5.91,-2.923 11.772,-6.441 17.589,-10.387 1.398,-0.987 2.781,-2.013 4.149,-3.088 -1.466,0.879 -2.963,1.71 -4.483,2.508 -4.896,2.182 -9,4.526 -13.972,6.741 -1.552,0.749 -3.094,1.514 -4.614,2.312 -1.519,0.798 -3.018,1.629 -4.483,2.508 7.034,-7.035 17,-10.552 24.035,-18.173 -8.207,5.862 -16.414,10.552 -24.621,16.414 6.448,-7.62 14.655,-12.896 21.69,-19.931 -7.621,5.862 -16.414,11.724 -23.449,18.173 6.448,-7.621 12.897,-14.656 19.345,-22.276 -7.034,7.034 -12.897,14.069 -21.104,19.931 7.035,-6.449 10.552,-15.242 16.414,-22.863 -6.448,7.035 -11.724,15.242 -18.759,21.69 5.863,-7.62 9.966,-16.414 14.656,-25.207 -4.104,7.035 -8.793,14.069 -13.959,20.304 -0.913,1.323 -1.763,2.682 -2.505,4.11 0.597,-1.567 1.229,-3.102 1.885,-4.619 1.682,-2.208 2.268,-5.139 3.464,-7.525 0.58,-1.26 1.162,-2.522 1.745,-3.787 1.749,-3.793 3.508,-7.604 5.266,-11.414 -4.103,7.035 -8.207,14.655 -12.37,21.933 -0.797,1.455 -1.572,2.898 -2.311,4.338 0.397,-1.339 0.826,-2.668 1.277,-3.997 2.852,-8.205 6.37,-16.998 8.128,-25.791 -2.931,9.965 -8.793,18.759 -11.724,28.724 1.173,-10.552 4.104,-21.103 7.621,-31.069 -4.69,9.379 -7.621,19.345 -9.966,29.897 -1.172,-10.552 2.931,-21.104 3.518,-31.656 -2.345,9.966 -4.69,20.518 -7.035,30.483 0.586,-10.551 1.759,-21.103 1.759,-31.655 0,10.552 -5.276,20.517 -4.104,31.655 -1.759,-10.551 -1.172,-21.689 -0.586,-32.241 -2.931,10.552 -0.586,21.103 -2.931,31.655 0,-10.552 -4.69,-21.103 -2.345,-31.655 -2.345,10.552 -1.172,21.103 0,31.655 -1.172,-9.965 -4.69,-19.931 -5.276,-29.897 0,10.552 0.586,20.518 3.517,30.483 -4.689,-9.379 -5.276,-19.931 -9.379,-29.31 1.172,9.965 5.276,19.931 7.034,29.897 -5.275,-8.794 -7.62,-18.759 -11.724,-28.139 2.345,8.207 4.69,15.828 7.628,24.024 0.579,1.573 1.165,3.138 1.752,4.701 -0.88,-1.466 -1.726,-2.948 -2.548,-4.443 -3.901,-7.281 -7.418,-14.902 -11.522,-22.523 2.345,7.621 6.449,14.655 9.635,22.566 0.706,1.469 1.406,2.934 2.09,4.4 -1.075,-1.27 -2.085,-2.589 -3.048,-3.943 -0.963,-1.355 -1.881,-2.744 -2.771,-4.156 -1.802,-3.039 -3.561,-5.97 -5.167,-8.619 -0.858,-1.444 -1.726,-2.882 -2.625,-4.302 -0.898,-1.419 -1.826,-2.819 -2.803,-4.187 5.276,8.793 8.207,18.172 14.655,26.379 -7.621,-7.034 -11.724,-17 -19.345,-24.034 4.69,8.793 11.724,15.827 15.828,25.207 -7.035,-7.035 -12.897,-15.242 -20.518,-21.69 7.035,7.034 12.897,15.241 18.759,23.448 -8.207,-5.862 -14.655,-13.483 -22.862,-19.345 8.207,5.862 12.31,15.828 20.517,21.69 -8.207,-5.862 -16.414,-11.138 -24.035,-17.586 6.449,7.621 14.07,14.069 22.277,19.931 -9.38,-4.103 -17.587,-9.379 -25.794,-15.241 7.035,6.448 14.656,13.483 23.449,17.586 -9.38,-2.931 -18.759,-7.035 -26.38,-12.897 7.621,6.449 16.414,10.552 24.621,15.828 -7.621,-2.931 -15.828,-5.862 -23.449,-8.793 -1.563,-0.586 -3.126,-1.173 -4.689,-1.759 1.465,0.782 2.931,1.58 4.399,2.383 1.468,0.803 2.939,1.612 4.415,2.413 5.841,2.825 11.703,6.342 18.152,8.687 -4.69,-1.758 -9.966,-2.931 -14.656,-4.177 -1.661,-0.415 -3.322,-0.838 -4.972,-1.294 -3.3,-0.912 -6.557,-1.954 -9.683,-3.322 8.793,5.862 18.759,7.621 28.138,11.724 -9.379,-2.931 -19.931,-2.931 -29.311,-5.862 9.38,2.345 18.759,5.276 27.553,8.207 -9.966,-1.759 -19.932,-1.759 -29.897,-2.931 9.965,1.759 19.345,5.276 29.31,5.276 -9.965,2.345 -19.931,0 -29.897,0 9.966,0.586 19.346,4.103 29.311,2.345 -9.379,2.345 -19.345,0.586 -29.311,2.345 9.966,2.345 20.518,1.172 30.484,0.586 -9.966,2.931 -19.932,3.517 -29.897,5.276 9.965,-1.173 19.931,-1.759 29.897,-2.345 -9.38,2.931 -18.759,4.104 -28.139,7.035 9.38,-1.759 19.345,-1.173 28.725,-4.69 -8.207,5.276 -18.759,4.69 -27.552,9.379 9.965,-1.172 18.759,-4.689 28.724,-6.448 -8.793,3.517 -17,8.207 -26.379,9.966 9.379,-2.345 19.345,-4.69 28.724,-7.621 -10.552,2.345 -18.759,8.793 -28.724,12.31 9.965,-2.931 19.931,-5.862 29.31,-9.965 -8.793,4.689 -17.586,9.379 -26.379,14.069 8.793,-5.276 18.759,-7.621 27.552,-12.311 -7.621,4.104 -14.069,8.794 -21.119,13.487 -1.357,0.973 -2.721,1.95 -4.089,2.927 1.466,-0.781 2.914,-1.579 4.347,-2.388 6.205,-2.888 10.895,-6.991 17.086,-9.879 1.443,-0.809 2.895,-1.606 4.361,-2.388 -1.172,1.075 -2.361,2.149 -3.566,3.219 -1.206,1.069 -2.428,2.133 -3.665,3.186 -2.735,1.802 -4.493,4.147 -7.62,6.144 -1.303,0.988 -2.622,1.954 -3.957,2.893 -1.335,0.939 -2.687,1.851 -4.054,2.731 8.207,-5.863 17,-9.966 25.207,-16.414 -6.449,7.034 -14.069,13.483 -21.69,19.931 9.379,-4.69 15.828,-12.897 24.035,-18.173 -7.035,8.207 -14.656,15.242 -20.518,24.035 6.449,-8.207 14.656,-15.242 23.449,-21.69 -7.621,7.035 -14.069,15.828 -18.173,25.207 5.276,-8.793 11.724,-17.586 20.518,-23.448 -7.621,6.448 -11.725,16.414 -15.828,25.793 6.448,-8.207 9.965,-17.586 17.586,-24.621 -5.276,8.207 -10.552,17 -12.31,26.966 0,-2.345 1.758,-4.103 2.931,-6.448 3.517,-6.449 8.793,-12.311 10.552,-19.932 -2.345,9.966 -6.449,18.759 -8.794,28.725 4.104,-8.793 8.794,-17.586 11.139,-27.552 -1.173,9.966 -4.69,18.759 -4.69,28.724 1.759,-8.793 4.69,-17 6.982,-25.195 0.424,-1.376 0.834,-2.748 1.225,-4.115 -0.293,1.367 -0.523,2.754 -0.709,4.155 -1.636,8.741 0.123,17.535 -2.222,26.328 2.931,-9.966 2.345,-19.931 5.276,-29.897 0,5.276 0,10.552 0.659,15.535 0.122,1.709 0.22,3.419 0.253,5.134 0.065,3.431 -0.131,6.883 -0.912,10.4 1.758,-9.379 3.517,-19.345 1.94,-28.712 0.054,-1.309 0.091,-2.087 0.091,-2.087" /></g></g></g></g></g></g></g><g
           id="g356"><g
             id="g358" /><g
             id="g378"><g
               style="opacity:0.5"
               id="g380"
               clip-path="url(#clipPath360)"><g
                 id="g382"><g
                   id="g384"><g
                     id="g386"><g
                       id="g388"><path
                         id="path390"
                         style="fill:url(#radialGradient368);stroke:none"
                         d="m 253.764,289.685 c 3.389,9.859 2.327,20.374 2.435,30.941 3.405,-10.408 -0.243,-20.549 -0.379,-30.531 5.433,9.635 4.929,20.761 6.795,31.408 1.062,-10.514 -3.172,-20.682 -3.867,-31.276 1.866,10.647 8.496,19.75 8.605,30.317 1.089,-11.1 -5.541,-20.202 -6.236,-30.796 2.452,10.673 10.279,19.243 11.559,29.863 -3.649,-10.141 -6.712,-20.255 -9.19,-30.343 4.261,9.582 9.694,19.217 13.954,28.798 -0.51,-1.685 -1.054,-3.356 -1.626,-5.012 -0.571,-1.656 -1.171,-3.297 -1.793,-4.922 -0.622,-1.626 -1.266,-3.236 -1.927,-4.831 -0.662,-1.595 -1.34,-3.174 -2.03,-4.738 -1.38,-3.126 -2.806,-6.19 -4.235,-9.189 1.016,1.317 1.964,2.697 2.867,4.118 0.903,1.421 1.761,2.883 2.596,4.368 3.271,5.993 5.934,11.981 10.38,17.464 -3.142,-8.358 -8.121,-15.038 -11.947,-22.967 -0.751,-1.52 -1.447,-3.068 -2.06,-4.66 0.914,1.41 1.812,2.82 2.708,4.225 4.402,7.246 8.795,13.9 14.972,20.047 -4.979,-6.68 -9.346,-13.919 -13.208,-21.086 -0.867,-1.441 -1.748,-2.868 -2.662,-4.278 1.118,1.224 2.22,2.467 3.321,3.733 5.625,6.061 10.578,13.327 16.754,19.474 -5.485,-8.463 -13.419,-14.691 -17.68,-24.272 7.322,6.786 15.229,13.599 22.524,20.97 -9.158,-5.108 -12.78,-15.835 -20.102,-22.621 7.295,7.372 15.788,14.211 24.946,19.32 -9.158,-5.109 -17.624,-12.534 -23.083,-21.583 8.52,6.253 17.039,12.507 26.17,18.202 -7.295,-7.372 -16.453,-12.481 -23.136,-20.412 7.907,6.813 17.73,10.191 26.276,15.859 -7.907,-6.813 -17.065,-11.922 -24.998,-18.149 9.131,5.695 19.54,9.1 29.336,13.064 -9.796,-3.964 -17.651,-11.948 -27.447,-15.912 9.796,3.964 19.699,5.586 28.857,10.695 -9.797,-3.965 -18.369,-9.047 -27.527,-14.156 9.85,2.793 19.699,5.586 29.549,8.379 -9.823,-3.379 -19.008,-7.902 -28.245,-11.254 9.955,0.45 19.166,4.388 29.095,5.424 -8.119,-2.128 -15.626,-4.815 -23.501,-6.832 -1.619,-0.335 -3.252,-0.638 -4.903,-0.908 1.66,0.075 3.318,0.167 4.976,0.275 8.494,0.334 16.639,1.877 24.811,2.833 -6.362,-2.048 -12.724,-4.096 -19.722,-5.065 -1.648,-0.335 -3.297,-0.638 -4.947,-0.9 -1.651,-0.263 -3.304,-0.484 -4.959,-0.657 10.009,-0.72 20.497,0.928 30.426,1.964 -9.849,-2.793 -20.364,-3.856 -30.879,-4.918 10.568,-0.109 20.603,-1.415 31.117,-0.353 -10.488,-1.648 -20.417,-2.684 -31.011,-1.99 10.062,-1.892 20.07,-2.613 30.105,-3.919 -10.035,1.306 -20.496,-0.927 -30.558,0.965 10.088,-2.478 20.123,-3.784 30.238,-6.848 -10.088,2.478 -20.629,2.001 -30.717,4.479 10.088,-2.478 19.084,-6.765 29.172,-9.243 -8.358,3.143 -16.557,2.772 -25.173,5.665 -1.698,0.377 -3.383,0.769 -5.065,1.182 1.593,-0.612 3.205,-1.222 4.832,-1.832 7.731,-3.467 16.062,-6.025 23.887,-10.365 -8.357,3.143 -16.688,5.7 -24.768,8.267 -1.66,0.513 -3.33,1.024 -5.016,1.535 1.597,-0.71 3.178,-1.421 4.743,-2.141 6.037,-2.653 12.052,-5.901 18.041,-9.581 1.441,-0.923 2.869,-1.886 4.284,-2.897 -1.504,0.812 -3.037,1.574 -4.591,2.303 -4.991,1.958 -9.196,4.115 -14.263,6.102 -1.585,0.678 -3.159,1.373 -4.713,2.101 -1.555,0.729 -3.089,1.491 -4.593,2.303 7.346,-6.709 17.46,-9.773 24.832,-17.068 -8.464,5.485 -16.874,9.799 -25.338,15.285 6.786,-7.322 15.224,-12.221 22.569,-18.931 -7.878,5.512 -16.927,10.97 -24.246,17.094 6.786,-7.321 13.546,-14.057 20.332,-21.379 -7.345,6.71 -13.519,13.472 -21.983,18.957 7.319,-6.124 11.23,-14.749 17.431,-22.097 -6.76,6.736 -12.402,14.696 -19.72,20.82 6.2,-7.348 10.697,-15.947 15.779,-24.519 -4.417,6.842 -9.42,13.657 -14.862,19.652 -0.972,1.281 -1.883,2.6 -2.689,3.993 0.668,-1.538 1.369,-3.043 2.093,-4.529 1.78,-2.13 2.498,-5.032 3.8,-7.361 0.637,-1.232 1.275,-2.467 1.915,-3.704 1.918,-3.711 3.847,-7.438 5.777,-11.165 -4.418,6.842 -8.862,14.27 -13.349,21.352 -0.863,1.417 -1.702,2.824 -2.506,4.229 0.458,-1.32 0.947,-2.628 1.457,-3.935 3.22,-8.068 7.132,-16.693 9.286,-25.398 -3.379,9.823 -9.632,18.343 -13.011,28.166 1.648,-10.489 5.053,-20.897 9.018,-30.694 -5.109,9.158 -8.488,18.981 -11.307,29.416 -0.694,-10.594 3.882,-20.949 4.944,-31.464 -2.793,9.85 -5.612,20.285 -8.405,30.134 1.063,-10.515 2.711,-21.003 3.188,-31.544 -0.477,10.541 -6.198,20.258 -5.53,31.438 -1.28,-10.62 -0.191,-21.721 0.871,-32.235 -3.405,10.408 -1.539,21.055 -4.359,31.491 0.477,-10.542 -3.731,-21.295 -0.911,-31.73 -2.82,10.435 -2.125,21.029 -1.431,31.624 -0.721,-10.009 -3.784,-20.123 -3.919,-30.105 -0.477,10.541 -0.342,20.523 2.136,30.611 -4.261,-9.582 -4.37,-20.15 -8.045,-29.705 0.72,10.008 4.369,20.149 5.676,30.184 -4.873,-9.022 -6.765,-19.084 -10.441,-28.639 1.972,8.304 3.97,16.023 6.534,24.343 0.508,1.598 1.023,3.188 1.538,4.776 -0.812,-1.504 -1.591,-3.023 -2.345,-4.554 -3.567,-7.45 -6.736,-15.222 -10.491,-23.02 1.998,7.719 5.779,14.931 8.604,22.978 0.639,1.499 1.272,2.995 1.889,4.49 -1.016,-1.318 -1.965,-2.681 -2.866,-4.077 -0.901,-1.397 -1.755,-2.826 -2.581,-4.276 -1.662,-3.118 -3.287,-6.126 -4.772,-8.845 -0.791,-1.481 -1.594,-2.957 -2.427,-4.415 -0.834,-1.459 -1.697,-2.9 -2.612,-4.311 4.873,9.023 7.378,18.526 13.448,27.016 -7.295,-7.372 -10.944,-17.513 -18.239,-24.885 4.288,8.996 10.997,16.342 14.673,25.897 -6.71,-7.346 -12.195,-15.809 -19.516,-22.595 6.709,7.345 12.194,15.809 17.679,24.272 -7.933,-6.227 -14.031,-14.131 -21.964,-20.359 7.933,6.228 11.582,16.369 19.516,22.596 -7.934,-6.227 -15.894,-11.869 -23.215,-18.655 6.097,7.904 13.418,14.691 21.352,20.918 -9.184,-4.524 -17.144,-10.165 -25.078,-16.392 6.736,6.76 14.031,14.131 22.63,18.628 -9.238,-3.352 -18.422,-7.875 -25.77,-14.076 7.321,6.786 15.92,11.283 23.88,16.925 -7.48,-3.273 -15.546,-6.572 -23.027,-9.845 -1.535,-0.656 -3.07,-1.312 -4.605,-1.968 1.428,0.847 2.856,1.71 4.287,2.579 1.43,0.869 2.863,1.743 4.301,2.61 5.708,3.086 11.405,6.865 17.741,9.499 -4.606,-1.969 -9.823,-3.379 -14.452,-4.835 -1.641,-0.49 -3.281,-0.988 -4.908,-1.518 -3.256,-1.06 -6.462,-2.249 -9.524,-3.756 8.519,6.253 18.395,8.461 27.58,12.984 -9.238,-3.352 -19.779,-3.829 -29.016,-7.181 9.264,2.766 18.501,6.118 27.153,9.444 -9.876,-2.207 -19.832,-2.658 -29.734,-4.28 9.876,2.208 19.087,6.145 29.042,6.596 -10.061,1.892 -19.911,-0.901 -29.866,-1.352 9.929,1.037 19.14,4.974 29.175,3.668 -9.476,1.918 -19.352,-0.289 -29.387,1.017 9.849,2.793 20.444,2.099 30.425,1.964 -10.087,2.477 -20.069,2.613 -30.104,3.919 10.008,-0.721 19.99,-0.856 29.972,-0.991 -9.502,2.504 -18.925,3.251 -28.428,5.755 9.45,-1.332 19.379,-0.296 28.908,-3.386 -8.437,4.9 -18.952,3.837 -27.948,8.124 10.008,-0.72 18.951,-3.837 28.986,-5.143 -8.943,3.116 -17.353,7.43 -26.803,8.763 9.476,-1.918 19.537,-3.81 29.04,-6.315 -10.647,1.866 -19.137,7.937 -29.252,11 10.088,-2.478 20.176,-4.955 29.731,-8.631 -8.996,4.288 -17.992,8.575 -26.988,12.863 9.022,-4.873 19.084,-6.765 28.08,-11.053 -7.798,3.755 -14.452,8.149 -21.706,12.519 -1.4,0.91 -2.807,1.825 -4.217,2.739 1.499,-0.714 2.981,-1.446 4.45,-2.19 6.329,-2.603 11.2,-6.491 17.515,-9.096 1.478,-0.743 2.965,-1.474 4.464,-2.188 -1.219,1.02 -2.456,2.04 -3.708,3.054 -1.253,1.014 -2.521,2.021 -3.805,3.017 -2.813,1.677 -4.676,3.94 -7.89,5.794 -1.346,0.928 -2.707,1.833 -4.083,2.711 -1.377,0.878 -2.768,1.728 -4.174,2.544 8.463,-5.485 17.433,-9.187 25.923,-15.258 -6.759,6.736 -14.664,12.834 -22.568,18.931 9.581,-4.261 16.394,-12.168 24.831,-17.068 -7.398,7.881 -15.329,14.564 -21.583,23.083 6.813,-7.907 15.33,-14.563 24.405,-20.608 -7.931,6.683 -14.77,15.176 -19.293,24.36 5.668,-8.545 12.507,-17.038 21.556,-22.497 -7.904,6.097 -12.454,15.867 -16.977,25.052 6.813,-7.907 10.75,-17.118 18.681,-23.801 -5.641,7.96 -11.309,16.506 -13.517,26.382 0.106,-2.343 1.943,-4.02 3.22,-6.31 3.805,-6.282 9.341,-11.9 11.442,-19.434 -2.793,9.85 -7.29,18.449 -10.083,28.298 4.497,-8.599 9.579,-17.171 12.372,-27.02 -1.621,9.902 -5.532,18.527 -5.983,28.483 2.154,-8.705 5.453,-16.771 8.114,-24.854 0.486,-1.355 0.957,-2.707 1.41,-4.056 -0.355,1.353 -0.647,2.728 -0.896,4.119 -2.03,8.659 -0.67,17.522 -3.41,26.201 3.378,-9.823 3.243,-19.805 6.622,-29.628 -0.239,5.27 -0.477,10.541 -0.044,15.548 0.045,1.714 0.065,3.426 0.02,5.141 -0.09,3.43 -0.441,6.87 -1.381,10.348 2.181,-9.29 4.388,-19.166 3.236,-28.595 0.113,-1.305 0.185,-2.081 0.185,-2.081" /></g></g></g></g></g></g></g></g></g><g
       id="g392"><g
         clip-path="url(#clipPath396)"
         id="g394"><g
           id="g400"><g
             id="g402" /><g
             mask="url(#mask418)"
             id="g430"><g
               id="g432"><path
                 id="path444"
                 style="fill:url(#radialGradient434);stroke:none"
                 d="m 213.623,324.802 c -20.745,-13.752 -34.43,-37.301 -34.43,-64.054 l 0,0 c 0,-42.42 34.388,-76.808 76.807,-76.808 l 0,0 c 42.421,0 76.809,34.388 76.809,76.808 l 0,0 c 0,26.753 -13.686,50.302 -34.431,64.054 l 0,0 c -13.508,2.694 -27.713,4.28 -42.378,4.28 l 0,0 c -14.663,0 -28.869,-1.586 -42.377,-4.28" /></g></g></g></g></g><g
       id="g446"><g
         clip-path="url(#clipPath450)"
         id="g448"><g
           id="g454"><g
             id="g456" /><g
             mask="url(#mask470)"
             id="g482"><g
               id="g484"><path
                 id="path494"
                 style="fill:url(#linearGradient486);stroke:none"
                 d="m 256,278.975 c 0,-10.295 8.346,-18.641 18.641,-18.641 l 0,0 c 10.295,0 18.641,8.346 18.641,18.641 l 0,0 c 0,10.295 -8.346,18.641 -18.641,18.641 l 0,0 C 264.346,297.616 256,289.27 256,278.975" /></g></g></g></g></g><g
       id="g496"><g
         clip-path="url(#clipPath500)"
         id="g498"><g
           id="g504"><g
             id="g506" /><g
             id="g548"><g
               style="opacity:0.75"
               id="g550"
               clip-path="url(#clipPath508)"><g
                 id="g552"><g
                   id="g554"
                   clip-path="url(#clipPath512)"><g
                     id="g556"><g
                       id="g558" /><g
                       id="g560"
                       mask="url(#mask528)"><g
                         id="g562"><path
                           id="path564"
                           style="fill:url(#linearGradient540);stroke:none"
                           d="m 242.474,269.341 c 0,-7.908 -6.411,-14.319 -14.319,-14.319 -7.908,0 -14.319,6.411 -14.319,14.319 0,7.908 6.411,14.319 14.319,14.319 7.908,0 14.319,-6.411 14.319,-14.319" /></g></g></g></g></g></g></g></g><g
           id="g566"><g
             id="g568" /><g
             id="g610"><g
               style="opacity:0.64999402"
               id="g612"
               clip-path="url(#clipPath570)"><g
                 id="g614"><g
                   id="g616"
                   clip-path="url(#clipPath574)"><g
                     id="g618"><g
                       id="g620" /><g
                       id="g622"
                       mask="url(#mask590)"><g
                         id="g624"><path
                           id="path626"
                           style="fill:url(#linearGradient602);stroke:none"
                           d="m 247.023,233.141 c 0,-5.211 -4.224,-9.434 -9.434,-9.434 -5.21,0 -9.434,4.223 -9.434,9.434 0,5.21 4.224,9.434 9.434,9.434 5.21,0 9.434,-4.224 9.434,-9.434" /></g></g></g></g></g></g></g></g></g></g></g></svg>