<?xml version="1.0" encoding="UTF-8" standalone="no"?>
<svg
   xmlns:dc="http://purl.org/dc/elements/1.1/"
   xmlns:cc="http://creativecommons.org/ns#"
   xmlns:rdf="http://www.w3.org/1999/02/22-rdf-syntax-ns#"
   xmlns:svg="http://www.w3.org/2000/svg"
   xmlns="http://www.w3.org/2000/svg"
   xmlns:sodipodi="http://sodipodi.sourceforge.net/DTD/sodipodi-0.dtd"
   xmlns:inkscape="http://www.inkscape.org/namespaces/inkscape"
   viewBox="0 0 640 640"
   height="640"
   width="640"
   xml:space="preserve"
   version="1.1"
   id="svg2"
   sodipodi:docname="falkon.svg"
   inkscape:version="0.92.3 (2405546, 2018-03-11)"><sodipodi:namedview
     pagecolor="#ffffff"
     bordercolor="#666666"
     borderopacity="1"
     objecttolerance="10"
     gridtolerance="10"
     guidetolerance="10"
     inkscape:pageopacity="0"
     inkscape:pageshadow="2"
     inkscape:window-width="1536"
     inkscape:window-height="720"
     id="namedview225"
     showgrid="false"
     inkscape:zoom="0.36875"
     inkscape:cx="-119.32203"
     inkscape:cy="309.15254"
     inkscape:window-x="209"
     inkscape:window-y="101"
     inkscape:window-maximized="0"
     inkscape:current-layer="svg2" /><metadata
     id="metadata8"><rdf:RDF><cc:Work
         rdf:about=""><dc:format>image/svg+xml</dc:format><dc:type
           rdf:resource="http://purl.org/dc/dcmitype/StillImage" /><dc:title></dc:title></cc:Work></rdf:RDF></metadata><defs
     id="defs6"><clipPath
       id="clipPath16"
       clipPathUnits="userSpaceOnUse"><path
         id="path18"
         d="M 0,512 512,512 512,0 0,0 0,512 Z" /></clipPath><clipPath
       id="clipPath24"
       clipPathUnits="userSpaceOnUse"><path
         id="path26"
         d="m 18.325,493.744 475.4,0 0,-475.4877 -475.4,0 0,475.4877 z" /></clipPath><clipPath
       id="clipPath28"
       clipPathUnits="userSpaceOnUse"><path
         id="path30"
         d="M 448.99,63.029 C 389.293,3.332 122.807,3.332 63.11,63.029 3.413,122.726 3.413,389.312 63.01,449.009 c 59.597,59.696 326.283,59.596 385.98,0 59.697,-59.597 59.597,-326.283 0,-385.98" /></clipPath><radialGradient
       id="radialGradient36"
       spreadMethod="pad"
       gradientTransform="matrix(237.72188,0,0,237.72188,256.02499,256)"
       gradientUnits="userSpaceOnUse"
       r="1"
       cy="0"
       cx="0"
       fy="0"
       fx="0"><stop
         id="stop38"
         offset="0"
         style="stop-opacity:1;stop-color:#ffffff" /><stop
         id="stop40"
         offset="0.8587"
         style="stop-opacity:0.14129854;stop-color:#ffffff" /><stop
         id="stop42"
         offset="1"
         style="stop-opacity:0;stop-color:#ffffff" /></radialGradient><mask
       id="mask44"
       height="1"
       width="1"
       y="0"
       x="0"
       maskUnits="userSpaceOnUse"><g
         id="g46"><g
           id="g48"><g
             id="g50"><g
               id="g52"><path
                 id="path54"
                 style="fill:url(#radialGradient36);stroke:none"
                 d="m -32768,32767 65535,0 0,-65535 -65535,0 0,65535 z" /></g></g></g></g></mask><radialGradient
       id="radialGradient56"
       spreadMethod="pad"
       gradientTransform="matrix(237.72188,0,0,237.72188,256.02499,256)"
       gradientUnits="userSpaceOnUse"
       r="1"
       cy="0"
       cx="0"
       fy="0"
       fx="0"><stop
         id="stop58"
         offset="0"
         style="stop-opacity:1;stop-color:#010101" /><stop
         id="stop60"
         offset="0.8587"
         style="stop-opacity:1;stop-color:#010101" /><stop
         id="stop62"
         offset="1"
         style="stop-opacity:1;stop-color:#010101" /></radialGradient><clipPath
       id="clipPath86"
       clipPathUnits="userSpaceOnUse"><path
         id="path88"
         d="m 18.325,493.744 475.4,0 0,-475.4877 -475.4,0 0,475.4877 z" /></clipPath><clipPath
       id="clipPath90"
       clipPathUnits="userSpaceOnUse"><path
         id="path92"
         d="M 448.99,63.029 C 389.293,3.332 122.807,3.332 63.11,63.029 3.413,122.726 3.413,389.312 63.01,449.009 c 59.597,59.696 326.283,59.596 385.98,0 59.697,-59.597 59.597,-326.283 0,-385.98" /></clipPath><radialGradient
       id="radialGradient98"
       spreadMethod="pad"
       gradientTransform="matrix(188.25467,188.36119,-130.35883,130.27895,256.02499,256.04376)"
       gradientUnits="userSpaceOnUse"
       r="1"
       cy="0"
       cx="0"
       fy="0"
       fx="0"><stop
         id="stop100"
         offset="0"
         style="stop-opacity:1;stop-color:#ffffff" /><stop
         id="stop102"
         offset="0.8587"
         style="stop-opacity:0.14129854;stop-color:#ffffff" /><stop
         id="stop104"
         offset="1"
         style="stop-opacity:0;stop-color:#ffffff" /></radialGradient><mask
       id="mask106"
       height="1"
       width="1"
       y="0"
       x="0"
       maskUnits="userSpaceOnUse"><g
         id="g108"><g
           id="g110"><g
             id="g112"><g
               id="g114"><path
                 id="path116"
                 style="fill:url(#radialGradient98);stroke:none"
                 d="m -32768,32767 65535,0 0,-65535 -65535,0 0,65535 z" /></g></g></g></g></mask><radialGradient
       id="radialGradient118"
       spreadMethod="pad"
       gradientTransform="matrix(188.25467,188.36119,-130.35883,130.27895,256.02499,256.04376)"
       gradientUnits="userSpaceOnUse"
       r="1"
       cy="0"
       cx="0"
       fy="0"
       fx="0"><stop
         id="stop120"
         offset="0"
         style="stop-opacity:1;stop-color:#010101" /><stop
         id="stop122"
         offset="0.8587"
         style="stop-opacity:1;stop-color:#010101" /><stop
         id="stop124"
         offset="1"
         style="stop-opacity:1;stop-color:#010101" /></radialGradient><clipPath
       id="clipPath148"
       clipPathUnits="userSpaceOnUse"><path
         id="path150"
         d="m 18.275,493.694 475.387,0 0,-475.4377 -475.387,0 0,475.4377 z" /></clipPath><clipPath
       id="clipPath152"
       clipPathUnits="userSpaceOnUse"><path
         id="path154"
         d="m 63.01,63.029 c 59.697,-59.697 326.183,-59.697 385.88,0 59.697,59.697 59.697,326.183 0,385.88 -59.697,59.696 -326.183,59.696 -385.88,0.1 -59.697,-59.597 -59.597,-326.283 0,-385.98" /></clipPath><radialGradient
       id="radialGradient160"
       spreadMethod="pad"
       gradientTransform="matrix(-188.28767,188.39421,130.38168,130.30179,255.92499,255.99377)"
       gradientUnits="userSpaceOnUse"
       r="1"
       cy="0"
       cx="0"
       fy="0"
       fx="0"><stop
         id="stop162"
         offset="0"
         style="stop-opacity:1;stop-color:#ffffff" /><stop
         id="stop164"
         offset="0.8587"
         style="stop-opacity:0.14129854;stop-color:#ffffff" /><stop
         id="stop166"
         offset="1"
         style="stop-opacity:0;stop-color:#ffffff" /></radialGradient><mask
       id="mask168"
       height="1"
       width="1"
       y="0"
       x="0"
       maskUnits="userSpaceOnUse"><g
         id="g170"><g
           id="g172"><g
             id="g174"><g
               id="g176"><path
                 id="path178"
                 style="fill:url(#radialGradient160);stroke:none"
                 d="m -32768,32767 65535,0 0,-65535 -65535,0 0,65535 z" /></g></g></g></g></mask><radialGradient
       id="radialGradient180"
       spreadMethod="pad"
       gradientTransform="matrix(-188.28767,188.39421,130.38168,130.30179,255.92499,255.99377)"
       gradientUnits="userSpaceOnUse"
       r="1"
       cy="0"
       cx="0"
       fy="0"
       fx="0"><stop
         id="stop182"
         offset="0"
         style="stop-opacity:1;stop-color:#010101" /><stop
         id="stop184"
         offset="0.8587"
         style="stop-opacity:1;stop-color:#010101" /><stop
         id="stop186"
         offset="1"
         style="stop-opacity:1;stop-color:#010101" /></radialGradient><clipPath
       id="clipPath214"
       clipPathUnits="userSpaceOnUse"><path
         id="path216"
         d="m 142.748,284.543 226.504,0 0,-170.337 -226.504,0 0,170.337 z" /></clipPath><clipPath
       id="clipPath230"
       clipPathUnits="userSpaceOnUse"><path
         id="path232"
         d="m 142.748,397.794 113.252,0 0,-198.411 -113.252,0 0,198.411 z" /></clipPath><clipPath
       id="clipPath246"
       clipPathUnits="userSpaceOnUse"><path
         id="path248"
         d="m 256,397.794 113.252,0 0,-198.411 -113.252,0 0,198.411 z" /></clipPath><clipPath
       id="clipPath262"
       clipPathUnits="userSpaceOnUse"><path
         id="path264"
         d="m 191.901,320.099 128.198,0 0,-128.198 -128.198,0 0,128.198 z" /></clipPath><radialGradient
       id="radialGradient270"
       spreadMethod="pad"
       gradientTransform="matrix(64.098572,0,0,-64.098572,256,256)"
       gradientUnits="userSpaceOnUse"
       r="1"
       cy="0"
       cx="0"
       fy="0"
       fx="0"><stop
         id="stop272"
         offset="0"
         style="stop-opacity:1;stop-color:#ffffff" /><stop
         id="stop274"
         offset="0.32693473"
         style="stop-opacity:1;stop-color:#ffffff" /><stop
         id="stop276"
         offset="1"
         style="stop-opacity:1;stop-color:#cbccce" /></radialGradient><clipPath
       id="clipPath296"
       clipPathUnits="userSpaceOnUse"><path
         id="path298"
         d="m 142.748,312.617 113.252,0 0,-198.411 -113.252,0 0,198.411 z" /></clipPath><clipPath
       id="clipPath312"
       clipPathUnits="userSpaceOnUse"><path
         id="path314"
         d="m 256,312.617 113.252,0 0,-198.411 -113.252,0 0,198.411 z" /></clipPath><clipPath
       id="clipPath328"
       clipPathUnits="userSpaceOnUse"><path
         id="path330"
         d="m 142.748,397.794 226.504,0 0,-170.337 -226.504,0 0,170.337 z" /></clipPath><clipPath
       id="clipPath344"
       clipPathUnits="userSpaceOnUse"><path
         id="path346"
         d="m 152.705,280.775 206.59,0 0,-162.8 -206.59,0 0,162.8 z" /></clipPath><clipPath
       id="clipPath360"
       clipPathUnits="userSpaceOnUse"><path
         id="path362"
         d="m 142.748,382.775 113.252,0 0,-168.372 -113.252,0 0,168.372 z" /></clipPath><clipPath
       id="clipPath376"
       clipPathUnits="userSpaceOnUse"><path
         id="path378"
         d="m 256,382.775 113.252,0 0,-168.372 -113.252,0 0,168.372 z" /></clipPath><clipPath
       id="clipPath392"
       clipPathUnits="userSpaceOnUse"><path
         id="path394"
         d="m 191.901,320.099 128.198,0 0,-128.198 -128.198,0 0,128.198 z" /></clipPath><radialGradient
       id="radialGradient400"
       spreadMethod="pad"
       gradientTransform="matrix(64.098572,0,0,-64.098572,256,256)"
       gradientUnits="userSpaceOnUse"
       r="1"
       cy="0"
       cx="0"
       fy="0"
       fx="0"><stop
         id="stop402"
         offset="0"
         style="stop-opacity:1;stop-color:#ffffff" /><stop
         id="stop404"
         offset="0.32693473"
         style="stop-opacity:1;stop-color:#ffffff" /><stop
         id="stop406"
         offset="1"
         style="stop-opacity:1;stop-color:#cbccce" /></radialGradient><clipPath
       id="clipPath426"
       clipPathUnits="userSpaceOnUse"><path
         id="path428"
         d="m 142.748,297.598 113.252,0 0,-168.373 -113.252,0 0,168.373 z" /></clipPath><clipPath
       id="clipPath442"
       clipPathUnits="userSpaceOnUse"><path
         id="path444"
         d="m 256,297.598 113.252,0 0,-168.373 -113.252,0 0,168.373 z" /></clipPath><clipPath
       id="clipPath458"
       clipPathUnits="userSpaceOnUse"><path
         id="path460"
         d="m 152.705,394.026 206.591,0 0,-162.801 -206.591,0 0,162.801 z" /></clipPath><linearGradient
       id="0"
       gradientUnits="userSpaceOnUse"
       x1="400.95001"
       y1="546.62"
       x2="401.17999"
       y2="516.92999"><stop
         stop-color="#205ba0"
         id="stop2" /><stop
         offset="1"
         stop-color="#5dbfec"
         id="stop4" /></linearGradient><linearGradient
       id="1"
       x1="409.41"
       y1="533.90997"
       x2="409.79001"
       y2="522.20001"
       gradientUnits="userSpaceOnUse"><stop
         stop-color="#46a0ff"
         id="stop7" /><stop
         offset="1"
         stop-color="#9fe0ff"
         id="stop9" /></linearGradient><linearGradient
       id="2"
       x1="403.26001"
       y1="532.59998"
       x2="403.39001"
       y2="511.48999"
       gradientUnits="userSpaceOnUse"><stop
         stop-color="#d5dbff"
         id="stop12" /><stop
         offset="1"
         stop-color="#f9ffff"
         id="stop14" /></linearGradient><linearGradient
       gradientUnits="userSpaceOnUse"
       gradientTransform="scale(1.0091315,0.9909511)"
       x1="188.14753"
       y1="-33.84444"
       x2="-27.026954"
       y2="125.52996"
       id="linearGradient-1"><stop
         stop-color="#D446FF"
         offset="0%"
         id="stop6" /><stop
         stop-color="#A0D8FF"
         offset="100%"
         id="stop8" /></linearGradient><linearGradient
       gradientUnits="userSpaceOnUse"
       gradientTransform="scale(1.2049438,0.82991421)"
       x1="49.297789"
       y1="81.097264"
       x2="95.398071"
       y2="56.08958"
       id="linearGradient-2"><stop
         stop-color="#FFFFFF"
         offset="0%"
         id="stop11" /><stop
         stop-color="#DADADA"
         offset="100%"
         id="stop13" /></linearGradient><linearGradient
       gradientUnits="userSpaceOnUse"
       gradientTransform="scale(1.1140919,0.89759199)"
       x1="61.021382"
       y1="119.44328"
       x2="27.009247"
       y2="77.337357"
       id="linearGradient-3"><stop
         stop-color="#FFFFFF"
         offset="0%"
         id="stop16" /><stop
         stop-color="#DADADA"
         offset="100%"
         id="stop18" /></linearGradient><linearGradient
       gradientUnits="userSpaceOnUse"
       gradientTransform="scale(1.3550117,0.73800101)"
       x1="87.486361"
       y1="37.282288"
       x2="39.143342"
       y2="58.523482"
       id="linearGradient-4"><stop
         stop-color="#D0D0D0"
         offset="0%"
         id="stop21" /><stop
         stop-color="#FFFFFF"
         offset="100%"
         id="stop23" /></linearGradient><linearGradient
       gradientUnits="userSpaceOnUse"
       gradientTransform="scale(1.1637571,0.85928581)"
       x1="39.131919"
       y1="94.823685"
       x2="-14.568147"
       y2="160.96036"
       id="linearGradient-5"><stop
         stop-color="#FFDC68"
         offset="0%"
         id="stop26" /><stop
         stop-color="#CE4300"
         offset="100%"
         id="stop28" /></linearGradient><linearGradient
       gradientUnits="userSpaceOnUse"
       gradientTransform="scale(2.1466969,0.46583195)"
       x1="24.437791"
       y1="54.425883"
       x2="12.06535"
       y2="58.199009"
       id="linearGradient-6"><stop
         stop-color="#FFDC68"
         offset="0%"
         id="stop31" /><stop
         stop-color="#CE4300"
         offset="100%"
         id="stop33" /></linearGradient><linearGradient
       gradientUnits="userSpaceOnUse"
       gradientTransform="scale(1.4995047,0.66688689)"
       x1="32.174747"
       y1="91.749176"
       x2="-13.134784"
       y2="161.32518"
       id="linearGradient-7"><stop
         stop-color="#FFDC68"
         offset="0%"
         id="stop36" /><stop
         stop-color="#CE4300"
         offset="100%"
         id="stop38-3" /></linearGradient></defs><g
     transform="matrix(1.25,0,0,-1.25,0,640)"
     id="g10"><g
       id="g12"><g
         clip-path="url(#clipPath16)"
         id="g14"><g
           id="g20"><g
             id="g22" /><g
             id="g64"><g
               style="opacity:0.39999402"
               id="g66"
               clip-path="url(#clipPath24)"><g
                 id="g68"><g
                   id="g70"
                   clip-path="url(#clipPath28)"><g
                     id="g72"><g
                       id="g74" /><g
                       id="g76"
                       mask="url(#mask44)"><g
                         id="g78"><path
                           id="path80"
                           style="fill:url(#radialGradient56);stroke:none"
                           d="M 448.99,63.029 C 389.293,3.332 122.807,3.332 63.11,63.029 3.413,122.726 3.413,389.312 63.01,449.009 c 59.597,59.696 326.283,59.596 385.98,0 59.697,-59.597 59.597,-326.283 0,-385.98" /></g></g></g></g></g></g></g></g><g
           id="g82"><g
             id="g84" /><g
             id="g126"><g
               style="opacity:0.39999402"
               id="g128"
               clip-path="url(#clipPath86)"><g
                 id="g130"><g
                   id="g132"
                   clip-path="url(#clipPath90)"><g
                     id="g134"><g
                       id="g136" /><g
                       id="g138"
                       mask="url(#mask106)"><g
                         id="g140"><path
                           id="path142"
                           style="fill:url(#radialGradient118);stroke:none"
                           d="M 448.99,63.029 C 389.293,3.332 122.807,3.332 63.11,63.029 3.413,122.726 3.413,389.312 63.01,449.009 c 59.597,59.696 326.283,59.596 385.98,0 59.697,-59.597 59.597,-326.283 0,-385.98" /></g></g></g></g></g></g></g></g><g
           id="g144"><g
             id="g146" /><g
             id="g188"><g
               style="opacity:0.39999402"
               id="g190"
               clip-path="url(#clipPath148)"><g
                 id="g192"><g
                   id="g194"
                   clip-path="url(#clipPath152)"><g
                     id="g196"><g
                       id="g198" /><g
                       id="g200"
                       mask="url(#mask168)"><g
                         id="g202"><path
                           id="path204"
                           style="fill:url(#radialGradient180);stroke:none"
                           d="m 63.01,63.029 c 59.697,-59.697 326.183,-59.697 385.88,0 59.697,59.697 59.697,326.183 0,385.88 -59.697,59.696 -326.183,59.696 -385.88,0.1 -59.697,-59.597 -59.597,-326.283 0,-385.98" /></g></g></g></g></g></g></g></g><g
           transform="translate(433.2788,78.721)"
           id="g206"><path
             id="path208"
             style="fill:#d5deef;fill-opacity:1;fill-rule:nonzero;stroke:none"
             d="m 0,0 c -70.294,-70.294 -284.264,-70.294 -354.558,0 -70.294,70.294 -70.294,284.264 0,354.558 70.294,70.294 284.264,70.294 354.558,0 C 70.294,284.264 70.295,70.294 0,0" /></g><g
           id="g210"><g
             id="g212" /><g
             id="g218"><g
               style="opacity:0.5"
               id="g220"
               clip-path="url(#clipPath214)"><g
                 id="g222"
                 transform="translate(293.9582,256)" /></g></g></g><g
           id="g226"><g
             id="g228" /><g
             id="g234"><g
               style="opacity:0.5"
               id="g236"
               clip-path="url(#clipPath230)"><g
                 id="g238"
                 transform="translate(256,284.5428)" /></g></g></g><g
           id="g242"><g
             id="g244" /><g
             id="g250"><g
               style="opacity:0.5"
               id="g252"
               clip-path="url(#clipPath246)"><g
                 id="g254"
                 transform="translate(369.2516,199.3829)" /></g></g></g><g
           id="g258"><g
             id="g260" /><g
             id="g278"><g
               style="opacity:0.80000299"
               id="g280"
               clip-path="url(#clipPath262)"><g
                 id="g282"><g
                   id="g284"><g
                     id="g286"><g
                       id="g288" /></g></g></g></g></g></g><g
           id="g292"><g
             id="g294" /><g
             id="g300"><g
               style="opacity:0.5"
               id="g302"
               clip-path="url(#clipPath296)"><g
                 id="g304"
                 transform="translate(256,227.4572)" /></g></g></g><g
           id="g308"><g
             id="g310" /><g
             id="g316"><g
               style="opacity:0.5"
               id="g318"
               clip-path="url(#clipPath312)"><g
                 id="g320"
                 transform="translate(369.2516,312.6171)" /></g></g></g><g
           id="g324"><g
             id="g326" /><g
             id="g332"><g
               style="opacity:0.5"
               id="g334"
               clip-path="url(#clipPath328)"><g
                 id="g336"
                 transform="translate(256,397.7943)" /></g></g></g><g
           id="g340"><g
             id="g342" /><g
             id="g348"><g
               style="opacity:0.5"
               id="g350"
               clip-path="url(#clipPath344)"><g
                 id="g352"
                 transform="translate(293.9582,256)" /></g></g></g><g
           id="g356"><g
             id="g358" /><g
             id="g364"><g
               style="opacity:0.5"
               id="g366"
               clip-path="url(#clipPath360)"><g
                 id="g368"
                 transform="translate(250.015,280.0423)" /></g></g></g><g
           id="g372"><g
             id="g374" /><g
             id="g380"><g
               style="opacity:0.5"
               id="g382"
               clip-path="url(#clipPath376)"><g
                 id="g384"
                 transform="translate(345.2366,217.441)" /></g></g></g><g
           id="g388"><g
             id="g390" /><g
             id="g408"><g
               style="opacity:0.80000299"
               id="g410"
               clip-path="url(#clipPath392)"><g
                 id="g412"><g
                   id="g414"><g
                     id="g416"><g
                       id="g418" /></g></g></g></g></g></g><g
           id="g422"><g
             id="g424" /><g
             id="g430"><g
               style="opacity:0.5"
               id="g432"
               clip-path="url(#clipPath426)"><g
                 id="g434"
                 transform="translate(250.015,231.9577)" /></g></g></g><g
           id="g438"><g
             id="g440" /><g
             id="g446"><g
               style="opacity:0.5"
               id="g448"
               clip-path="url(#clipPath442)"><g
                 id="g450"
                 transform="translate(345.2366,294.559)" /></g></g></g><g
           id="g454"><g
             id="g456" /><g
             id="g462"><g
               style="opacity:0.5"
               id="g464"
               clip-path="url(#clipPath458)"><g
                 id="g466"
                 transform="translate(246.9848,391.0139)" /></g></g></g></g></g></g><g
     transform="matrix(3.2709013,0,0,3.2709013,109.8947,110.82441)"
     style="fill:none;fill-rule:evenodd;stroke:none;stroke-width:1"
     id="Page-1"><g
       id="Icon-128"><g
         id="Group-2-Copy"
         transform="translate(0.605678,1.413249)"><ellipse
           style="fill:url(#linearGradient-1);fill-rule:nonzero;stroke:#a3a3a3;stroke-width:0.55766374"
           id="ellipse4650-0-7-2-3-4-4"
           cx="63.629002"
           cy="62.53109"
           rx="63.609787"
           ry="62.458775" /><path
           style="fill:url(#linearGradient-2)"
           inkscape:connector-curvature="0"
           d="m 22.240404,123.59185 c 0,0 19.878319,-69.558729 97.257446,-60.71395 0,0 -49.177295,-29.193045 -96.918307,10.163443 -14.0994219,32.658977 -0.339139,50.550507 -0.339139,50.550507 z"
           id="path4652-2-7-9-7-2-7" /><path
           style="fill:url(#linearGradient-3)"
           inkscape:connector-curvature="0"
           d="m 28.158405,114.79361 c 0,0 20.741532,-50.006895 76.107185,-50.885714 -42.085714,10.252901 0.069,46.601144 0.069,46.601144 0,0 -33.290562,30.16385 -76.176235,4.28457 z"
           id="path4654-1-7-7-4-4-6" /><path
           style="fill:url(#linearGradient-4)"
           inkscape:connector-curvature="0"
           d="m 16.610241,76.459488 c 0,0 41.427967,-45.570746 103.293739,-14.085512 C 118.7992,53.81223 111.48027,44.145706 98.361418,41.383833 95.461471,40.002907 74.195099,7.1367066 28.486259,26.05551 42.548068,27.150395 48.581693,29.120101 48.924063,30.612553 24.606183,26.433252 17.397825,61.040394 16.610241,76.459488 Z"
           id="path4656-5-6-43-8-0-8" /><path
           style="fill:#202020"
           inkscape:connector-curvature="0"
           d="m 76.024853,37.802155 c 0,0 10.599208,-3.795987 11.979569,7.493411 C 77.553121,46.28159 76.024853,37.802155 76.024853,37.802155 Z"
           id="path4658-6-9-5-0-2-9" /><path
           style="fill:url(#linearGradient-5)"
           inkscape:connector-curvature="0"
           d="m 21.96264,123.81813 c 0,0 18.120701,-59.110496 78.70462,-61.397456 0,0 -49.161271,-8.969671 -83.88222,46.031306 -0.192505,7.78133 5.1776,15.36615 5.1776,15.36615 z"
           id="path4660-5-1-6-0-7-6" /><path
           style="fill:url(#linearGradient-6)"
           inkscape:connector-curvature="0"
           d="m 28.537095,26.061244 c 0,0 15.110824,0.878839 20.505802,4.589406 2.252558,-0.463405 4.165169,-2.005683 4.490297,-4.106216 -1.932942,-0.79996 -19.62553,-2.240828 -24.996099,-0.48319 z"
           id="path4662-0-1-1-1-2-3" /><path
           style="fill:url(#linearGradient-7)"
           inkscape:connector-curvature="0"
           d="m 16.746498,76.538084 c 0,0 18.918279,-22.722624 57.110774,-25.437234 0,0 -51.991844,2.349729 -56.356502,17.030865 -1.213436,3.530276 -0.754272,8.406369 -0.754272,8.406369 z"
           id="path4442-5-0-9-4-6-0-96" /></g></g></g></svg>