<?xml version="1.0" encoding="UTF-8" standalone="no"?>
<svg
   xmlns:dc="http://purl.org/dc/elements/1.1/"
   xmlns:cc="http://creativecommons.org/ns#"
   xmlns:rdf="http://www.w3.org/1999/02/22-rdf-syntax-ns#"
   xmlns:svg="http://www.w3.org/2000/svg"
   xmlns="http://www.w3.org/2000/svg"
   viewBox="0 0 640 640"
   height="640"
   width="640"
   xml:space="preserve"
   version="1.1"
   id="svg2"><metadata
     id="metadata8"><rdf:RDF><cc:Work
         rdf:about=""><dc:format>image/svg+xml</dc:format><dc:type
           rdf:resource="http://purl.org/dc/dcmitype/StillImage" /></cc:Work></rdf:RDF></metadata><defs
     id="defs6"><clipPath
       id="clipPath16"
       clipPathUnits="userSpaceOnUse"><path
         id="path18"
         d="M 0,512 512,512 512,0 0,0 0,512 Z" /></clipPath><clipPath
       id="clipPath24"
       clipPathUnits="userSpaceOnUse"><path
         id="path26"
         d="m 18.325,493.744 475.4,0 0,-475.4877 -475.4,0 0,475.4877 z" /></clipPath><clipPath
       id="clipPath28"
       clipPathUnits="userSpaceOnUse"><path
         id="path30"
         d="M 448.99,63.029 C 389.293,3.332 122.807,3.332 63.11,63.029 3.413,122.726 3.413,389.312 63.01,449.009 c 59.597,59.696 326.283,59.596 385.98,0 59.697,-59.597 59.597,-326.283 0,-385.98" /></clipPath><radialGradient
       id="radialGradient36"
       spreadMethod="pad"
       gradientTransform="matrix(237.72188,0,0,237.72188,256.02499,256)"
       gradientUnits="userSpaceOnUse"
       r="1"
       cy="0"
       cx="0"
       fy="0"
       fx="0"><stop
         id="stop38"
         offset="0"
         style="stop-opacity:1;stop-color:#ffffff" /><stop
         id="stop40"
         offset="0.8587"
         style="stop-opacity:0.14129854;stop-color:#ffffff" /><stop
         id="stop42"
         offset="1"
         style="stop-opacity:0;stop-color:#ffffff" /></radialGradient><mask
       id="mask44"
       height="1"
       width="1"
       y="0"
       x="0"
       maskUnits="userSpaceOnUse"><g
         id="g46"><g
           id="g48"><g
             id="g50"><g
               id="g52"><path
                 id="path54"
                 style="fill:url(#radialGradient36);stroke:none"
                 d="m -32768,32767 65535,0 0,-65535 -65535,0 0,65535 z" /></g></g></g></g></mask><radialGradient
       id="radialGradient56"
       spreadMethod="pad"
       gradientTransform="matrix(237.72188,0,0,237.72188,256.02499,256)"
       gradientUnits="userSpaceOnUse"
       r="1"
       cy="0"
       cx="0"
       fy="0"
       fx="0"><stop
         id="stop58"
         offset="0"
         style="stop-opacity:1;stop-color:#010101" /><stop
         id="stop60"
         offset="0.8587"
         style="stop-opacity:1;stop-color:#010101" /><stop
         id="stop62"
         offset="1"
         style="stop-opacity:1;stop-color:#010101" /></radialGradient><clipPath
       id="clipPath86"
       clipPathUnits="userSpaceOnUse"><path
         id="path88"
         d="m 18.325,493.744 475.4,0 0,-475.4877 -475.4,0 0,475.4877 z" /></clipPath><clipPath
       id="clipPath90"
       clipPathUnits="userSpaceOnUse"><path
         id="path92"
         d="M 448.99,63.029 C 389.293,3.332 122.807,3.332 63.11,63.029 3.413,122.726 3.413,389.312 63.01,449.009 c 59.597,59.696 326.283,59.596 385.98,0 59.697,-59.597 59.597,-326.283 0,-385.98" /></clipPath><radialGradient
       id="radialGradient98"
       spreadMethod="pad"
       gradientTransform="matrix(188.25467,188.36119,-130.35883,130.27895,256.02499,256.04376)"
       gradientUnits="userSpaceOnUse"
       r="1"
       cy="0"
       cx="0"
       fy="0"
       fx="0"><stop
         id="stop100"
         offset="0"
         style="stop-opacity:1;stop-color:#ffffff" /><stop
         id="stop102"
         offset="0.8587"
         style="stop-opacity:0.14129854;stop-color:#ffffff" /><stop
         id="stop104"
         offset="1"
         style="stop-opacity:0;stop-color:#ffffff" /></radialGradient><mask
       id="mask106"
       height="1"
       width="1"
       y="0"
       x="0"
       maskUnits="userSpaceOnUse"><g
         id="g108"><g
           id="g110"><g
             id="g112"><g
               id="g114"><path
                 id="path116"
                 style="fill:url(#radialGradient98);stroke:none"
                 d="m -32768,32767 65535,0 0,-65535 -65535,0 0,65535 z" /></g></g></g></g></mask><radialGradient
       id="radialGradient118"
       spreadMethod="pad"
       gradientTransform="matrix(188.25467,188.36119,-130.35883,130.27895,256.02499,256.04376)"
       gradientUnits="userSpaceOnUse"
       r="1"
       cy="0"
       cx="0"
       fy="0"
       fx="0"><stop
         id="stop120"
         offset="0"
         style="stop-opacity:1;stop-color:#010101" /><stop
         id="stop122"
         offset="0.8587"
         style="stop-opacity:1;stop-color:#010101" /><stop
         id="stop124"
         offset="1"
         style="stop-opacity:1;stop-color:#010101" /></radialGradient><clipPath
       id="clipPath148"
       clipPathUnits="userSpaceOnUse"><path
         id="path150"
         d="m 18.275,493.694 475.387,0 0,-475.4377 -475.387,0 0,475.4377 z" /></clipPath><clipPath
       id="clipPath152"
       clipPathUnits="userSpaceOnUse"><path
         id="path154"
         d="m 63.01,63.029 c 59.697,-59.697 326.183,-59.697 385.88,0 59.697,59.697 59.697,326.183 0,385.88 -59.697,59.696 -326.183,59.696 -385.88,0.1 -59.697,-59.597 -59.597,-326.283 0,-385.98" /></clipPath><radialGradient
       id="radialGradient160"
       spreadMethod="pad"
       gradientTransform="matrix(-188.28767,188.39421,130.38168,130.30179,255.92499,255.99377)"
       gradientUnits="userSpaceOnUse"
       r="1"
       cy="0"
       cx="0"
       fy="0"
       fx="0"><stop
         id="stop162"
         offset="0"
         style="stop-opacity:1;stop-color:#ffffff" /><stop
         id="stop164"
         offset="0.8587"
         style="stop-opacity:0.14129854;stop-color:#ffffff" /><stop
         id="stop166"
         offset="1"
         style="stop-opacity:0;stop-color:#ffffff" /></radialGradient><mask
       id="mask168"
       height="1"
       width="1"
       y="0"
       x="0"
       maskUnits="userSpaceOnUse"><g
         id="g170"><g
           id="g172"><g
             id="g174"><g
               id="g176"><path
                 id="path178"
                 style="fill:url(#radialGradient160);stroke:none"
                 d="m -32768,32767 65535,0 0,-65535 -65535,0 0,65535 z" /></g></g></g></g></mask><radialGradient
       id="radialGradient180"
       spreadMethod="pad"
       gradientTransform="matrix(-188.28767,188.39421,130.38168,130.30179,255.92499,255.99377)"
       gradientUnits="userSpaceOnUse"
       r="1"
       cy="0"
       cx="0"
       fy="0"
       fx="0"><stop
         id="stop182"
         offset="0"
         style="stop-opacity:1;stop-color:#010101" /><stop
         id="stop184"
         offset="0.8587"
         style="stop-opacity:1;stop-color:#010101" /><stop
         id="stop186"
         offset="1"
         style="stop-opacity:1;stop-color:#010101" /></radialGradient></defs><g
     transform="matrix(1.25,0,0,-1.25,0,640)"
     id="g10"><g
       id="g12"><g
         clip-path="url(#clipPath16)"
         id="g14"><g
           id="g20"><g
             id="g22" /><g
             id="g64"><g
               style="opacity:0.39999402"
               id="g66"
               clip-path="url(#clipPath24)"><g
                 id="g68"><g
                   id="g70"
                   clip-path="url(#clipPath28)"><g
                     id="g72"><g
                       id="g74" /><g
                       id="g76"
                       mask="url(#mask44)"><g
                         id="g78"><path
                           id="path80"
                           style="fill:url(#radialGradient56);stroke:none"
                           d="M 448.99,63.029 C 389.293,3.332 122.807,3.332 63.11,63.029 3.413,122.726 3.413,389.312 63.01,449.009 c 59.597,59.696 326.283,59.596 385.98,0 59.697,-59.597 59.597,-326.283 0,-385.98" /></g></g></g></g></g></g></g></g><g
           id="g82"><g
             id="g84" /><g
             id="g126"><g
               style="opacity:0.39999402"
               id="g128"
               clip-path="url(#clipPath86)"><g
                 id="g130"><g
                   id="g132"
                   clip-path="url(#clipPath90)"><g
                     id="g134"><g
                       id="g136" /><g
                       id="g138"
                       mask="url(#mask106)"><g
                         id="g140"><path
                           id="path142"
                           style="fill:url(#radialGradient118);stroke:none"
                           d="M 448.99,63.029 C 389.293,3.332 122.807,3.332 63.11,63.029 3.413,122.726 3.413,389.312 63.01,449.009 c 59.597,59.696 326.283,59.596 385.98,0 59.697,-59.597 59.597,-326.283 0,-385.98" /></g></g></g></g></g></g></g></g><g
           id="g144"><g
             id="g146" /><g
             id="g188"><g
               style="opacity:0.39999402"
               id="g190"
               clip-path="url(#clipPath148)"><g
                 id="g192"><g
                   id="g194"
                   clip-path="url(#clipPath152)"><g
                     id="g196"><g
                       id="g198" /><g
                       id="g200"
                       mask="url(#mask168)"><g
                         id="g202"><path
                           id="path204"
                           style="fill:url(#radialGradient180);stroke:none"
                           d="m 63.01,63.029 c 59.697,-59.697 326.183,-59.697 385.88,0 59.697,59.697 59.697,326.183 0,385.88 -59.697,59.696 -326.183,59.696 -385.88,0.1 -59.697,-59.597 -59.597,-326.283 0,-385.98" /></g></g></g></g></g></g></g></g><g
           transform="translate(433.2792,78.7208)"
           id="g206"><path
             id="path208"
             style="fill:#294172;fill-opacity:1;fill-rule:nonzero;stroke:none"
             d="m 0,0 c -70.294,-70.294 -284.264,-70.294 -354.558,0 -70.295,70.294 -70.295,284.264 0,354.558 70.294,70.295 284.264,70.295 354.558,0 C 70.294,284.264 70.294,70.294 0,0" /></g><g
           transform="translate(28.7239,208.0514)"
           id="g210"><path
             id="path212"
             style="fill:#3c6eb4;fill-opacity:1;fill-rule:nonzero;stroke:none"
             d="m 0,0 c 2.938,-25.503 8.255,-49.901 15.964,-71.395 9.952,4.266 20.902,6.637 32.398,6.637 l 72.387,0 c -0.682,0.125 -1.382,0.199 -2.1,0.199 l -53.769,0.011 c -20.033,0 -36.219,15.979 -36.219,36.067 C 28.65,-8.268 45.013,7.645 65.263,7.645 l 64.942,0 0,0.091 -81.843,0 C 31.48,7.736 15.225,5.013 0,0" /></g><g
           transform="translate(313.9932,453.0378)"
           id="g214"><path
             id="path216"
             style="fill:#3c6eb4;fill-opacity:1;fill-rule:nonzero;stroke:none"
             d="m 0,0 c -32.082,0 -61.918,-9.799 -86.674,-26.561 24.744,16.711 54.57,26.47 86.673,26.47 12.992,0 22.228,-1.467 34.255,-4.611 17.536,-4.589 31.867,-18.967 31.873,-35.691 0,-20.214 -14.673,-34.918 -36.607,-34.918 -4.669,0 -8.009,0.401 -11.642,0.844 36.917,-8.192 64.615,-41.172 64.615,-80.52 0,-45.488 -37.006,-82.494 -82.493,-82.494 l -72.382,0 c 0.681,-0.124 1.379,-0.198 2.095,-0.198 l 53.768,-0.011 c 20.034,0 36.22,-15.979 36.22,-36.067 0.01,-20.213 -16.352,-36.126 -36.602,-36.126 l -64.942,0 0,-0.092 81.843,0 c 85.459,0 154.988,69.528 154.988,154.988 C 154.988,-69.526 85.459,0 0,0" /></g><g
           transform="translate(348.2471,448.3362)"
           id="g218"><path
             id="path220"
             style="fill:#ffffff;fill-opacity:1;fill-rule:nonzero;stroke:none"
             d="m 0,0 c -12.026,3.144 -21.262,4.61 -34.255,4.61 -32.103,0 -61.929,-9.758 -86.673,-26.469 -41.26,-27.866 -68.39,-75.064 -68.39,-128.593 l 0,-82.097 0,-0.091 -64.942,0 c -20.25,0 -36.613,-15.913 -36.602,-36.126 0,-20.088 16.186,-36.067 36.219,-36.067 l 53.769,-0.011 c 0.718,0 1.418,-0.074 2.1,-0.199 5.38,-0.987 9.462,-5.681 9.462,-11.337 l 0,-71.119 c -0.014,-7.693 -1.112,-15.127 -3.108,-22.183 0.218,-0.06 0.438,-0.119 0.657,-0.179 22.279,-6.084 46.76,-9.946 71.844,-11.575 0.019,-0.001 0.038,-0.002 0.057,-0.004 2.459,10.965 3.765,22.365 3.765,34.07 l 0,82.097 0,0.091 64.942,0 c 20.25,0 36.613,15.914 36.602,36.127 0,20.088 -16.186,36.067 -36.219,36.067 l -53.769,0.01 c -0.716,0 -1.414,0.074 -2.094,0.199 -5.383,0.984 -9.468,5.68 -9.468,11.337 l 0,71.12 c 0.079,45.147 36.701,81.717 81.848,81.717 8.453,0 13.39,-0.612 17.879,-1.16 3.633,-0.443 6.973,-0.844 11.642,-0.844 21.934,0 36.607,14.704 36.607,34.918 C 31.867,-18.967 17.536,-4.589 0,0" /></g><g
           transform="translate(193.8001,318.0421)"
           id="g222"><path
             id="path224"
             style="fill:#00a4ff;fill-opacity:1;fill-rule:nonzero;stroke:none"
             d="m 0,0 c 34.265,0 62.042,-27.777 62.042,-62.042 0,-34.265 -27.777,-62.042 -62.042,-62.042 -34.265,0 -62.042,27.777 -62.042,62.042 C -62.042,-27.777 -34.265,0 0,0" /></g><path
           id="path226"
           style="fill:#00a4ff;fill-opacity:1;fill-rule:nonzero;stroke:none"
           d="m 193.824,318.042 124.376,0 0,-124.083 -124.376,0 0,124.083 z" /><g
           transform="translate(318.1999,318.0421)"
           id="g228"><path
             id="path230"
             style="fill:#00a4ff;fill-opacity:1;fill-rule:nonzero;stroke:none"
             d="m 0,0 c 34.265,0 62.042,-27.777 62.042,-62.042 0,-34.265 -27.777,-62.042 -62.042,-62.042 -34.265,0 -62.042,27.777 -62.042,62.042 C -62.042,-27.777 -34.265,0 0,0" /></g><g
           transform="translate(318.1999,303.2666)"
           id="g232"><path
             id="path234"
             style="fill:#ffffff;fill-opacity:1;fill-rule:nonzero;stroke:none"
             d="m 0,0 c 26.105,0 47.267,-21.162 47.267,-47.267 0,-26.104 -21.162,-47.266 -47.267,-47.266 -26.105,0 -47.267,21.162 -47.267,47.266 C -47.267,-21.162 -26.105,0 0,0" /></g></g></g></g></svg>