<?xml version="1.0" encoding="UTF-8" standalone="no"?>
<svg
   xmlns:dc="http://purl.org/dc/elements/1.1/"
   xmlns:cc="http://creativecommons.org/ns#"
   xmlns:rdf="http://www.w3.org/1999/02/22-rdf-syntax-ns#"
   xmlns:svg="http://www.w3.org/2000/svg"
   xmlns="http://www.w3.org/2000/svg"
   viewBox="0 0 640 640"
   height="640"
   width="640"
   xml:space="preserve"
   version="1.1"
   id="svg2"><metadata
     id="metadata8"><rdf:RDF><cc:Work
         rdf:about=""><dc:format>image/svg+xml</dc:format><dc:type
           rdf:resource="http://purl.org/dc/dcmitype/StillImage" /></cc:Work></rdf:RDF></metadata><defs
     id="defs6"><clipPath
       id="clipPath16"
       clipPathUnits="userSpaceOnUse"><path
         id="path18"
         d="M 0,512 512,512 512,0 0,0 0,512 Z" /></clipPath><clipPath
       id="clipPath24"
       clipPathUnits="userSpaceOnUse"><path
         id="path26"
         d="m 18.325,493.744 475.4,0 0,-475.4877 -475.4,0 0,475.4877 z" /></clipPath><clipPath
       id="clipPath28"
       clipPathUnits="userSpaceOnUse"><path
         id="path30"
         d="M 448.99,63.029 C 389.293,3.332 122.807,3.332 63.11,63.029 3.413,122.726 3.413,389.312 63.01,449.009 c 59.597,59.696 326.283,59.596 385.98,0 59.697,-59.597 59.597,-326.283 0,-385.98" /></clipPath><radialGradient
       id="radialGradient36"
       spreadMethod="pad"
       gradientTransform="matrix(237.72188,0,0,237.72188,256.02499,256)"
       gradientUnits="userSpaceOnUse"
       r="1"
       cy="0"
       cx="0"
       fy="0"
       fx="0"><stop
         id="stop38"
         offset="0"
         style="stop-opacity:1;stop-color:#ffffff" /><stop
         id="stop40"
         offset="0.8587"
         style="stop-opacity:0.14129854;stop-color:#ffffff" /><stop
         id="stop42"
         offset="1"
         style="stop-opacity:0;stop-color:#ffffff" /></radialGradient><mask
       id="mask44"
       height="1"
       width="1"
       y="0"
       x="0"
       maskUnits="userSpaceOnUse"><g
         id="g46"><g
           id="g48"><g
             id="g50"><g
               id="g52"><path
                 id="path54"
                 style="fill:url(#radialGradient36);stroke:none"
                 d="m -32768,32767 65535,0 0,-65535 -65535,0 0,65535 z" /></g></g></g></g></mask><radialGradient
       id="radialGradient56"
       spreadMethod="pad"
       gradientTransform="matrix(237.72188,0,0,237.72188,256.02499,256)"
       gradientUnits="userSpaceOnUse"
       r="1"
       cy="0"
       cx="0"
       fy="0"
       fx="0"><stop
         id="stop58"
         offset="0"
         style="stop-opacity:1;stop-color:#010101" /><stop
         id="stop60"
         offset="0.8587"
         style="stop-opacity:1;stop-color:#010101" /><stop
         id="stop62"
         offset="1"
         style="stop-opacity:1;stop-color:#010101" /></radialGradient><clipPath
       id="clipPath86"
       clipPathUnits="userSpaceOnUse"><path
         id="path88"
         d="m 18.325,493.744 475.4,0 0,-475.4877 -475.4,0 0,475.4877 z" /></clipPath><clipPath
       id="clipPath90"
       clipPathUnits="userSpaceOnUse"><path
         id="path92"
         d="M 448.99,63.029 C 389.293,3.332 122.807,3.332 63.11,63.029 3.413,122.726 3.413,389.312 63.01,449.009 c 59.597,59.696 326.283,59.596 385.98,0 59.697,-59.597 59.597,-326.283 0,-385.98" /></clipPath><radialGradient
       id="radialGradient98"
       spreadMethod="pad"
       gradientTransform="matrix(188.25467,188.36119,-130.35883,130.27895,256.02499,256.04376)"
       gradientUnits="userSpaceOnUse"
       r="1"
       cy="0"
       cx="0"
       fy="0"
       fx="0"><stop
         id="stop100"
         offset="0"
         style="stop-opacity:1;stop-color:#ffffff" /><stop
         id="stop102"
         offset="0.8587"
         style="stop-opacity:0.14129854;stop-color:#ffffff" /><stop
         id="stop104"
         offset="1"
         style="stop-opacity:0;stop-color:#ffffff" /></radialGradient><mask
       id="mask106"
       height="1"
       width="1"
       y="0"
       x="0"
       maskUnits="userSpaceOnUse"><g
         id="g108"><g
           id="g110"><g
             id="g112"><g
               id="g114"><path
                 id="path116"
                 style="fill:url(#radialGradient98);stroke:none"
                 d="m -32768,32767 65535,0 0,-65535 -65535,0 0,65535 z" /></g></g></g></g></mask><radialGradient
       id="radialGradient118"
       spreadMethod="pad"
       gradientTransform="matrix(188.25467,188.36119,-130.35883,130.27895,256.02499,256.04376)"
       gradientUnits="userSpaceOnUse"
       r="1"
       cy="0"
       cx="0"
       fy="0"
       fx="0"><stop
         id="stop120"
         offset="0"
         style="stop-opacity:1;stop-color:#010101" /><stop
         id="stop122"
         offset="0.8587"
         style="stop-opacity:1;stop-color:#010101" /><stop
         id="stop124"
         offset="1"
         style="stop-opacity:1;stop-color:#010101" /></radialGradient><clipPath
       id="clipPath148"
       clipPathUnits="userSpaceOnUse"><path
         id="path150"
         d="m 18.275,493.694 475.387,0 0,-475.4377 -475.387,0 0,475.4377 z" /></clipPath><clipPath
       id="clipPath152"
       clipPathUnits="userSpaceOnUse"><path
         id="path154"
         d="m 63.01,63.029 c 59.697,-59.697 326.183,-59.697 385.88,0 59.697,59.697 59.697,326.183 0,385.88 -59.697,59.696 -326.183,59.696 -385.88,0.1 -59.697,-59.597 -59.597,-326.283 0,-385.98" /></clipPath><radialGradient
       id="radialGradient160"
       spreadMethod="pad"
       gradientTransform="matrix(-188.28767,188.39421,130.38168,130.30179,255.92499,255.99377)"
       gradientUnits="userSpaceOnUse"
       r="1"
       cy="0"
       cx="0"
       fy="0"
       fx="0"><stop
         id="stop162"
         offset="0"
         style="stop-opacity:1;stop-color:#ffffff" /><stop
         id="stop164"
         offset="0.8587"
         style="stop-opacity:0.14129854;stop-color:#ffffff" /><stop
         id="stop166"
         offset="1"
         style="stop-opacity:0;stop-color:#ffffff" /></radialGradient><mask
       id="mask168"
       height="1"
       width="1"
       y="0"
       x="0"
       maskUnits="userSpaceOnUse"><g
         id="g170"><g
           id="g172"><g
             id="g174"><g
               id="g176"><path
                 id="path178"
                 style="fill:url(#radialGradient160);stroke:none"
                 d="m -32768,32767 65535,0 0,-65535 -65535,0 0,65535 z" /></g></g></g></g></mask><radialGradient
       id="radialGradient180"
       spreadMethod="pad"
       gradientTransform="matrix(-188.28767,188.39421,130.38168,130.30179,255.92499,255.99377)"
       gradientUnits="userSpaceOnUse"
       r="1"
       cy="0"
       cx="0"
       fy="0"
       fx="0"><stop
         id="stop182"
         offset="0"
         style="stop-opacity:1;stop-color:#010101" /><stop
         id="stop184"
         offset="0.8587"
         style="stop-opacity:1;stop-color:#010101" /><stop
         id="stop186"
         offset="1"
         style="stop-opacity:1;stop-color:#010101" /></radialGradient><radialGradient
       id="radialGradient222"
       spreadMethod="pad"
       gradientTransform="matrix(168.85616,0,0,-168.85616,260.75357,359.98465)"
       gradientUnits="userSpaceOnUse"
       r="1"
       cy="0"
       cx="0"
       fy="0"
       fx="0"><stop
         id="stop224"
         offset="0"
         style="stop-opacity:1;stop-color:#496fb6" /><stop
         id="stop226"
         offset="1"
         style="stop-opacity:1;stop-color:#3a56a6" /></radialGradient><clipPath
       id="clipPath234"
       clipPathUnits="userSpaceOnUse"><path
         id="path236"
         d="M 0,512 512,512 512,0 0,0 0,512 Z" /></clipPath><linearGradient
       id="linearGradient258"
       spreadMethod="pad"
       gradientTransform="matrix(20.525671,110.50557,110.50557,-20.525671,285.64716,90.908279)"
       gradientUnits="userSpaceOnUse"
       y2="0"
       x2="1"
       y1="0"
       x1="0"><stop
         id="stop260"
         offset="0"
         style="stop-opacity:1;stop-color:#f26522" /><stop
         id="stop262"
         offset="1"
         style="stop-opacity:1;stop-color:#febd18" /></linearGradient><linearGradient
       id="linearGradient278"
       spreadMethod="pad"
       gradientTransform="matrix(-32.791657,91.783722,91.783722,32.791657,362.43665,255.53564)"
       gradientUnits="userSpaceOnUse"
       y2="0"
       x2="1"
       y1="0"
       x1="0"><stop
         id="stop280"
         offset="0"
         style="stop-opacity:1;stop-color:#f26522" /><stop
         id="stop282"
         offset="1"
         style="stop-opacity:1;stop-color:#febd18" /></linearGradient><linearGradient
       id="linearGradient298"
       spreadMethod="pad"
       gradientTransform="matrix(-33.941807,95.003189,95.003189,33.941807,376.74915,296.0108)"
       gradientUnits="userSpaceOnUse"
       y2="0"
       x2="1"
       y1="0"
       x1="0"><stop
         id="stop300"
         offset="0"
         style="stop-opacity:1;stop-color:#f26522" /><stop
         id="stop302"
         offset="1"
         style="stop-opacity:1;stop-color:#febd18" /></linearGradient><linearGradient
       id="linearGradient318"
       spreadMethod="pad"
       gradientTransform="matrix(-32.483616,90.921272,90.921272,32.483616,417.53799,239.44514)"
       gradientUnits="userSpaceOnUse"
       y2="0"
       x2="1"
       y1="0"
       x1="0"><stop
         id="stop320"
         offset="0"
         style="stop-opacity:1;stop-color:#f26522" /><stop
         id="stop322"
         offset="1"
         style="stop-opacity:1;stop-color:#febd18" /></linearGradient><linearGradient
       id="linearGradient338"
       spreadMethod="pad"
       gradientTransform="matrix(-34.258697,95.889755,95.889755,34.258697,390.5,187.0079)"
       gradientUnits="userSpaceOnUse"
       y2="0"
       x2="1"
       y1="0"
       x1="0"><stop
         id="stop340"
         offset="0"
         style="stop-opacity:1;stop-color:#f26522" /><stop
         id="stop342"
         offset="1"
         style="stop-opacity:1;stop-color:#febd18" /></linearGradient><linearGradient
       id="linearGradient358"
       spreadMethod="pad"
       gradientTransform="matrix(58.426109,-18.848274,-18.848274,-58.426109,328.79727,198.77698)"
       gradientUnits="userSpaceOnUse"
       y2="0"
       x2="1"
       y1="0"
       x1="0"><stop
         id="stop360"
         offset="0"
         style="stop-opacity:1;stop-color:#f26522" /><stop
         id="stop362"
         offset="1"
         style="stop-opacity:1;stop-color:#febd18" /></linearGradient><clipPath
       id="clipPath370"
       clipPathUnits="userSpaceOnUse"><path
         id="path372"
         d="M 0,512 512,512 512,0 0,0 0,512 Z" /></clipPath><linearGradient
       id="linearGradient394"
       spreadMethod="pad"
       gradientTransform="matrix(35.990906,-44.136505,-44.136505,-35.990906,107.78461,227.60399)"
       gradientUnits="userSpaceOnUse"
       y2="0"
       x2="1"
       y1="0"
       x1="0"><stop
         id="stop396"
         offset="0"
         style="stop-opacity:1;stop-color:#f26522" /><stop
         id="stop398"
         offset="1"
         style="stop-opacity:1;stop-color:#fbb040" /></linearGradient><linearGradient
       id="linearGradient414"
       spreadMethod="pad"
       gradientTransform="matrix(58.51804,-80.601547,-80.601547,-58.51804,132.79709,240.37695)"
       gradientUnits="userSpaceOnUse"
       y2="0"
       x2="1"
       y1="0"
       x1="0"><stop
         id="stop416"
         offset="0"
         style="stop-opacity:1;stop-color:#f26522" /><stop
         id="stop418"
         offset="1"
         style="stop-opacity:1;stop-color:#fbb040" /></linearGradient><linearGradient
       id="linearGradient434"
       spreadMethod="pad"
       gradientTransform="matrix(32.336487,-56.347908,-56.347908,-32.336487,137.77048,251.10167)"
       gradientUnits="userSpaceOnUse"
       y2="0"
       x2="1"
       y1="0"
       x1="0"><stop
         id="stop436"
         offset="0"
         style="stop-opacity:1;stop-color:#f26522" /><stop
         id="stop438"
         offset="1"
         style="stop-opacity:1;stop-color:#fbb040" /></linearGradient></defs><g
     transform="matrix(1.25,0,0,-1.25,0,640)"
     id="g10"><g
       id="g12"><g
         clip-path="url(#clipPath16)"
         id="g14"><g
           id="g20"><g
             id="g22" /><g
             id="g64"><g
               style="opacity:0.39999402"
               id="g66"
               clip-path="url(#clipPath24)"><g
                 id="g68"><g
                   id="g70"
                   clip-path="url(#clipPath28)"><g
                     id="g72"><g
                       id="g74" /><g
                       id="g76"
                       mask="url(#mask44)"><g
                         id="g78"><path
                           id="path80"
                           style="fill:url(#radialGradient56);stroke:none"
                           d="M 448.99,63.029 C 389.293,3.332 122.807,3.332 63.11,63.029 3.413,122.726 3.413,389.312 63.01,449.009 c 59.597,59.696 326.283,59.596 385.98,0 59.697,-59.597 59.597,-326.283 0,-385.98" /></g></g></g></g></g></g></g></g><g
           id="g82"><g
             id="g84" /><g
             id="g126"><g
               style="opacity:0.39999402"
               id="g128"
               clip-path="url(#clipPath86)"><g
                 id="g130"><g
                   id="g132"
                   clip-path="url(#clipPath90)"><g
                     id="g134"><g
                       id="g136" /><g
                       id="g138"
                       mask="url(#mask106)"><g
                         id="g140"><path
                           id="path142"
                           style="fill:url(#radialGradient118);stroke:none"
                           d="M 448.99,63.029 C 389.293,3.332 122.807,3.332 63.11,63.029 3.413,122.726 3.413,389.312 63.01,449.009 c 59.597,59.696 326.283,59.596 385.98,0 59.697,-59.597 59.597,-326.283 0,-385.98" /></g></g></g></g></g></g></g></g><g
           id="g144"><g
             id="g146" /><g
             id="g188"><g
               style="opacity:0.39999402"
               id="g190"
               clip-path="url(#clipPath148)"><g
                 id="g192"><g
                   id="g194"
                   clip-path="url(#clipPath152)"><g
                     id="g196"><g
                       id="g198" /><g
                       id="g200"
                       mask="url(#mask168)"><g
                         id="g202"><path
                           id="path204"
                           style="fill:url(#radialGradient180);stroke:none"
                           d="m 63.01,63.029 c 59.697,-59.697 326.183,-59.697 385.88,0 59.697,59.697 59.697,326.183 0,385.88 -59.697,59.696 -326.183,59.696 -385.88,0.1 -59.697,-59.597 -59.597,-326.283 0,-385.98" /></g></g></g></g></g></g></g></g><g
           transform="translate(433.279,78.721)"
           id="g206"><path
             id="path208"
             style="fill:#f9caa0;fill-opacity:1;fill-rule:nonzero;stroke:none"
             d="m 0,0 c -70.294,-70.294 -284.264,-70.294 -354.558,0 -70.294,70.294 -70.294,284.264 0,354.558 70.294,70.294 284.264,70.294 354.558,0 C 70.294,284.264 70.295,70.294 0,0" /></g></g></g><g
       id="g210"><g
         id="g212"><g
           id="g218"><g
             id="g220"><path
               id="path228"
               style="fill:url(#radialGradient222);stroke:none"
               d="m 87.143,256 c 0,-93.257 75.6,-168.857 168.857,-168.857 l 0,0 c 93.257,0 168.856,75.6 168.856,168.857 l 0,0 c 0,93.257 -75.599,168.856 -168.856,168.856 l 0,0 C 162.743,424.856 87.143,349.257 87.143,256" /></g></g></g></g><g
       id="g230"><g
         clip-path="url(#clipPath234)"
         id="g232"><g
           transform="translate(277.8445,324.0568)"
           id="g238"><path
             id="path240"
             style="fill:#656465;fill-opacity:1;fill-rule:nonzero;stroke:none"
             d="m 0,0 c -0.312,-2.181 -3.642,-8.23 -7.406,-8.057 -17.346,0.801 -7.725,13.169 -3.531,14.862 0,0 2.411,0.558 6.179,0.558 C -0.992,7.363 0.638,4.467 0,0" /></g><g
           transform="translate(268.36,331.2112)"
           id="g242"><path
             id="path244"
             style="fill:#f15d22;fill-opacity:1;fill-rule:nonzero;stroke:none"
             d="m 0,0 c 2.211,-2.302 5.631,-8.233 -0.748,-14.411 -10.138,-9.819 -44.904,-11.483 -52.419,-11.483 -11.337,0 -20.431,9.707 -20.431,17.789 0,8.082 13.826,26.305 19.916,16.744 C -44.559,-5.68 0,0 0,0" /></g></g></g><g
       id="g246"><g
         id="g248"><g
           id="g254"><g
             id="g256"><path
               id="path264"
               style="fill:url(#linearGradient258);stroke:none"
               d="m 307.316,367.646 c -0.569,-0.152 23.754,-7.175 39.691,-42.116 l 0,0 c 22.934,-50.288 15.495,-142.124 -59.439,-153.506 l 0,0 c -41.159,-6.25 -54.312,7.313 -64.237,12.156 l 0,0 c -19.084,9.314 22.098,-65.615 36.932,-75.101 l 0,0 c 13.374,-8.552 85.789,0 97.999,13.921 l 0,0 c 58.781,67.019 22.712,191.345 19.717,200.322 l 0,0 c -11.149,33.409 -48.796,44.868 -65.408,44.867 l 0,0 c -2.131,0 -3.917,-0.189 -5.255,-0.543" /></g></g></g></g><g
       id="g266"><g
         id="g268"><g
           id="g274"><g
             id="g276"><path
               id="path284"
               style="fill:url(#linearGradient278);stroke:none"
               d="m 307.317,367.646 c 0,0 46.888,-30.242 50.132,-79.373 l 0,0 c 4.539,-68.745 -15.864,-98.932 -15.864,-98.932 l 0,0 c 8.412,4.29 70.218,26.005 48.828,110.937 l 0,0 c -16.859,66.941 -81.42,67.368 -83.064,67.368 l 0,0 c -0.022,0 -0.032,0 -0.032,0" /></g></g></g></g><g
       id="g286"><g
         id="g288"><g
           id="g294"><g
             id="g296"><path
               id="path304"
               style="fill:url(#linearGradient298);stroke:none"
               d="m 313.665,409.898 c 0,0 46.888,-30.242 50.133,-79.373 l 0,0 c 4.54,-68.745 -3.563,-101.222 -3.563,-101.222 l 0,0 c 8.411,4.291 61.145,28.212 39.755,113.143 l 0,0 c -16.901,67.104 -84.893,67.452 -86.302,67.452 l 0,0 c -0.015,0 -0.023,0 -0.023,0" /></g></g></g></g><g
       id="g306"><g
         id="g308"><g
           id="g314"><g
             id="g316"><path
               id="path324"
               style="fill:url(#linearGradient318);stroke:none"
               d="m 400.697,294.93 c 23.703,-64.689 -6.116,-99.7 -6.116,-99.7 l 0,0 c 8.413,4.292 33.849,42.555 35.506,86.076 l 0,0 c 2.747,72.165 -42.055,100.341 -42.055,100.341 l 0,0 c 0,0 -10.797,-22.686 12.665,-86.717" /></g></g></g></g><g
       id="g326"><g
         id="g328"><g
           id="g334"><g
             id="g336"><path
               id="path344"
               style="fill:url(#linearGradient338);stroke:none"
               d="m 362.002,243.416 c 2.803,-68.838 15.977,-98.86 15.977,-98.86 l 0,0 c 8.412,4.291 11.249,41.737 13.411,85.236 l 0,0 c 4.283,86.144 -55.83,98.682 -55.83,98.682 l 0,0 c 0,0 23.8,-20.201 26.442,-85.058" /></g></g></g></g><g
       id="g346"><g
         id="g348"><g
           id="g354"><g
             id="g356"><path
               id="path364"
               style="fill:url(#linearGradient358);stroke:none"
               d="m 337.408,185.651 c -24.866,-57.847 -55.3,-59.484 -60.354,-59.337 l 0,0 c 12.739,-1.292 102.905,-30.262 107.913,55.282 l 0,0 c 3.131,53.497 -41.048,101.649 -41.048,101.649 l 0,0 c 0,0 4.378,-72.262 -6.511,-97.594 m -60.354,-59.337 c -0.281,0.028 -0.524,0.043 -0.728,0.043 l 0,0 c 0,0 0.252,-0.029 0.728,-0.043" /></g></g></g></g><g
       id="g366"><g
         clip-path="url(#clipPath370)"
         id="g368"><g
           transform="translate(267.1154,316.3431)"
           id="g374"><path
             id="path376"
             style="fill:#ffffff;fill-opacity:1;fill-rule:nonzero;stroke:none"
             d="m 0,0 c 0.45,0.379 3.324,-0.343 3.324,-0.343 -4.774,-7.335 -15.852,-16.65 -20.106,-19.519 -2.996,-2.021 -16.9,-13.49 -20.222,-12.293 -9.274,3.342 -14.919,21.13 -14.919,21.13 C -48.308,-11.026 -3.567,-3.004 0,0" /></g><g
           transform="translate(213.8871,338.9108)"
           id="g378"><path
             id="path380"
             style="fill:#f26522;fill-opacity:1;fill-rule:nonzero;stroke:none"
             d="m 0,0 c -1.307,-2.544 -5.3,-18.716 1.306,-33.594 6.916,-15.576 25.357,-30.951 32.75,-40.002 5.124,-6.272 -48.573,7.928 -51.982,-0.422 -1.089,-2.668 -2.942,-12.19 2.32,-20.725 4.454,-7.226 11.73,-6.795 16.912,-6.795 8.849,0 49.79,24.495 51.57,19.688 2.227,-6.012 -13.195,-26.363 -43.508,-49.332 -0.557,-0.423 -7.513,-5.353 -5.908,-13.37 2.683,-13.399 40.755,-54.215 58.726,-64.22 15.259,-8.496 124.237,-22.622 90.128,51.961 -31.566,69.023 13.887,160.62 19.763,155.43 94.042,-83.053 14.385,-174.956 12.429,-178.254 -33.451,-56.448 -94.813,-82.422 -152.443,-76.065 -72.793,8.03 -112.725,52.74 -123.926,66.791 -4.45,5.583 -50.101,56.056 -37.066,136.667 6.045,37.383 21.301,41.651 20.919,47.173 -1.513,21.833 18.914,61.729 20.54,55.655 0.856,-3.192 4.477,-34.117 11.339,-33.116 6.472,0.945 14.653,4.212 25.484,4.065 8.297,-0.113 15.724,-1.948 21.909,-4.192 3.42,-1.24 10.87,8.476 21.065,14.64 14.08,8.513 34.031,13.56 31.974,11.201 C 6.236,22.488 1.69,3.293 0,0" /></g></g></g><g
       id="g382"><g
         id="g384"><g
           id="g390"><g
             id="g392"><path
               id="path400"
               style="fill:url(#linearGradient394);stroke:none"
               d="m 82.091,207.763 c 1.938,-13.66 10.794,-65.96 55.114,-75.05 l 0,0 c 0,0 -26.529,36.426 -22.974,69.237 l 0,0 c 1.485,13.717 -0.631,109.585 -11.03,109.585 l 0,0 c -10.398,0 -28.824,-49.392 -21.11,-103.772" /></g></g></g></g><g
       id="g402"><g
         id="g404"><g
           id="g410"><g
             id="g412"><path
               id="path420"
               style="fill:url(#linearGradient414);stroke:none"
               d="m 112.414,215.057 c 1.937,-13.659 7.886,-79.855 94.716,-57.021 l 0,0 c 0,0 -63.693,11.29 -55.42,51.073 l 0,0 c 3.345,16.079 5.081,85.015 -5.317,85.015 l 0,0 c -10.398,0 -41.693,-24.688 -33.979,-79.067" /></g></g></g></g><g
       id="g422"><g
         id="g424"><g
           id="g430"><g
             id="g432"><path
               id="path440"
               style="fill:url(#linearGradient434);stroke:none"
               d="m 93.515,274.31 c -3.24,-13.41 -12.561,-86.498 68.723,-98.535 l 0,0 c 0,0 -52.791,42.89 -33.918,80.139 l 0,0 c 7.422,14.65 30.273,72.361 20.609,76.198 l 0,0 c -1.296,0.514 -3.008,0.812 -5.035,0.811 l 0,0 C 130.813,332.922 104.685,320.535 93.515,274.31" /></g></g></g></g></g></svg>