<?xml version="1.0" encoding="UTF-8" standalone="no"?>
<svg
   xmlns:dc="http://purl.org/dc/elements/1.1/"
   xmlns:cc="http://creativecommons.org/ns#"
   xmlns:rdf="http://www.w3.org/1999/02/22-rdf-syntax-ns#"
   xmlns:svg="http://www.w3.org/2000/svg"
   xmlns="http://www.w3.org/2000/svg"
   viewBox="0 0 640 640"
   height="640"
   width="640"
   xml:space="preserve"
   version="1.1"
   id="svg2"><metadata
     id="metadata8"><rdf:RDF><cc:Work
         rdf:about=""><dc:format>image/svg+xml</dc:format><dc:type
           rdf:resource="http://purl.org/dc/dcmitype/StillImage" /></cc:Work></rdf:RDF></metadata><defs
     id="defs6"><clipPath
       id="clipPath16"
       clipPathUnits="userSpaceOnUse"><path
         id="path18"
         d="M 0,512 512,512 512,0 0,0 0,512 Z" /></clipPath><clipPath
       id="clipPath24"
       clipPathUnits="userSpaceOnUse"><path
         id="path26"
         d="m 18.325,493.744 475.4,0 0,-475.4877 -475.4,0 0,475.4877 z" /></clipPath><clipPath
       id="clipPath28"
       clipPathUnits="userSpaceOnUse"><path
         id="path30"
         d="M 448.99,63.029 C 389.293,3.332 122.807,3.332 63.11,63.029 3.413,122.726 3.413,389.312 63.01,449.009 c 59.597,59.696 326.283,59.596 385.98,0 59.697,-59.597 59.597,-326.283 0,-385.98" /></clipPath><radialGradient
       id="radialGradient36"
       spreadMethod="pad"
       gradientTransform="matrix(237.72188,0,0,237.72188,256.02499,256)"
       gradientUnits="userSpaceOnUse"
       r="1"
       cy="0"
       cx="0"
       fy="0"
       fx="0"><stop
         id="stop38"
         offset="0"
         style="stop-opacity:1;stop-color:#ffffff" /><stop
         id="stop40"
         offset="0.8587"
         style="stop-opacity:0.14129854;stop-color:#ffffff" /><stop
         id="stop42"
         offset="1"
         style="stop-opacity:0;stop-color:#ffffff" /></radialGradient><mask
       id="mask44"
       height="1"
       width="1"
       y="0"
       x="0"
       maskUnits="userSpaceOnUse"><g
         id="g46"><g
           id="g48"><g
             id="g50"><g
               id="g52"><path
                 id="path54"
                 style="fill:url(#radialGradient36);stroke:none"
                 d="m -32768,32767 65535,0 0,-65535 -65535,0 0,65535 z" /></g></g></g></g></mask><radialGradient
       id="radialGradient56"
       spreadMethod="pad"
       gradientTransform="matrix(237.72188,0,0,237.72188,256.02499,256)"
       gradientUnits="userSpaceOnUse"
       r="1"
       cy="0"
       cx="0"
       fy="0"
       fx="0"><stop
         id="stop58"
         offset="0"
         style="stop-opacity:1;stop-color:#010101" /><stop
         id="stop60"
         offset="0.8587"
         style="stop-opacity:1;stop-color:#010101" /><stop
         id="stop62"
         offset="1"
         style="stop-opacity:1;stop-color:#010101" /></radialGradient><clipPath
       id="clipPath86"
       clipPathUnits="userSpaceOnUse"><path
         id="path88"
         d="m 18.325,493.744 475.4,0 0,-475.4877 -475.4,0 0,475.4877 z" /></clipPath><clipPath
       id="clipPath90"
       clipPathUnits="userSpaceOnUse"><path
         id="path92"
         d="M 448.99,63.029 C 389.293,3.332 122.807,3.332 63.11,63.029 3.413,122.726 3.413,389.312 63.01,449.009 c 59.597,59.696 326.283,59.596 385.98,0 59.697,-59.597 59.597,-326.283 0,-385.98" /></clipPath><radialGradient
       id="radialGradient98"
       spreadMethod="pad"
       gradientTransform="matrix(188.25467,188.36119,-130.35883,130.27895,256.02499,256.04376)"
       gradientUnits="userSpaceOnUse"
       r="1"
       cy="0"
       cx="0"
       fy="0"
       fx="0"><stop
         id="stop100"
         offset="0"
         style="stop-opacity:1;stop-color:#ffffff" /><stop
         id="stop102"
         offset="0.8587"
         style="stop-opacity:0.14129854;stop-color:#ffffff" /><stop
         id="stop104"
         offset="1"
         style="stop-opacity:0;stop-color:#ffffff" /></radialGradient><mask
       id="mask106"
       height="1"
       width="1"
       y="0"
       x="0"
       maskUnits="userSpaceOnUse"><g
         id="g108"><g
           id="g110"><g
             id="g112"><g
               id="g114"><path
                 id="path116"
                 style="fill:url(#radialGradient98);stroke:none"
                 d="m -32768,32767 65535,0 0,-65535 -65535,0 0,65535 z" /></g></g></g></g></mask><radialGradient
       id="radialGradient118"
       spreadMethod="pad"
       gradientTransform="matrix(188.25467,188.36119,-130.35883,130.27895,256.02499,256.04376)"
       gradientUnits="userSpaceOnUse"
       r="1"
       cy="0"
       cx="0"
       fy="0"
       fx="0"><stop
         id="stop120"
         offset="0"
         style="stop-opacity:1;stop-color:#010101" /><stop
         id="stop122"
         offset="0.8587"
         style="stop-opacity:1;stop-color:#010101" /><stop
         id="stop124"
         offset="1"
         style="stop-opacity:1;stop-color:#010101" /></radialGradient><clipPath
       id="clipPath148"
       clipPathUnits="userSpaceOnUse"><path
         id="path150"
         d="m 18.275,493.694 475.387,0 0,-475.4377 -475.387,0 0,475.4377 z" /></clipPath><clipPath
       id="clipPath152"
       clipPathUnits="userSpaceOnUse"><path
         id="path154"
         d="m 63.01,63.029 c 59.697,-59.697 326.183,-59.697 385.88,0 59.697,59.697 59.697,326.183 0,385.88 -59.697,59.696 -326.183,59.696 -385.88,0.1 -59.697,-59.597 -59.597,-326.283 0,-385.98" /></clipPath><radialGradient
       id="radialGradient160"
       spreadMethod="pad"
       gradientTransform="matrix(-188.28767,188.39421,130.38168,130.30179,255.92499,255.99377)"
       gradientUnits="userSpaceOnUse"
       r="1"
       cy="0"
       cx="0"
       fy="0"
       fx="0"><stop
         id="stop162"
         offset="0"
         style="stop-opacity:1;stop-color:#ffffff" /><stop
         id="stop164"
         offset="0.8587"
         style="stop-opacity:0.14129854;stop-color:#ffffff" /><stop
         id="stop166"
         offset="1"
         style="stop-opacity:0;stop-color:#ffffff" /></radialGradient><mask
       id="mask168"
       height="1"
       width="1"
       y="0"
       x="0"
       maskUnits="userSpaceOnUse"><g
         id="g170"><g
           id="g172"><g
             id="g174"><g
               id="g176"><path
                 id="path178"
                 style="fill:url(#radialGradient160);stroke:none"
                 d="m -32768,32767 65535,0 0,-65535 -65535,0 0,65535 z" /></g></g></g></g></mask><radialGradient
       id="radialGradient180"
       spreadMethod="pad"
       gradientTransform="matrix(-188.28767,188.39421,130.38168,130.30179,255.92499,255.99377)"
       gradientUnits="userSpaceOnUse"
       r="1"
       cy="0"
       cx="0"
       fy="0"
       fx="0"><stop
         id="stop182"
         offset="0"
         style="stop-opacity:1;stop-color:#010101" /><stop
         id="stop184"
         offset="0.8587"
         style="stop-opacity:1;stop-color:#010101" /><stop
         id="stop186"
         offset="1"
         style="stop-opacity:1;stop-color:#010101" /></radialGradient></defs><g
     transform="matrix(1.25,0,0,-1.25,0,640)"
     id="g10"><g
       id="g12"><g
         clip-path="url(#clipPath16)"
         id="g14"><g
           id="g20"><g
             id="g22" /><g
             id="g64"><g
               style="opacity:0.39999402"
               id="g66"
               clip-path="url(#clipPath24)"><g
                 id="g68"><g
                   id="g70"
                   clip-path="url(#clipPath28)"><g
                     id="g72"><g
                       id="g74" /><g
                       id="g76"
                       mask="url(#mask44)"><g
                         id="g78"><path
                           id="path80"
                           style="fill:url(#radialGradient56);stroke:none"
                           d="M 448.99,63.029 C 389.293,3.332 122.807,3.332 63.11,63.029 3.413,122.726 3.413,389.312 63.01,449.009 c 59.597,59.696 326.283,59.596 385.98,0 59.697,-59.597 59.597,-326.283 0,-385.98" /></g></g></g></g></g></g></g></g><g
           id="g82"><g
             id="g84" /><g
             id="g126"><g
               style="opacity:0.39999402"
               id="g128"
               clip-path="url(#clipPath86)"><g
                 id="g130"><g
                   id="g132"
                   clip-path="url(#clipPath90)"><g
                     id="g134"><g
                       id="g136" /><g
                       id="g138"
                       mask="url(#mask106)"><g
                         id="g140"><path
                           id="path142"
                           style="fill:url(#radialGradient118);stroke:none"
                           d="M 448.99,63.029 C 389.293,3.332 122.807,3.332 63.11,63.029 3.413,122.726 3.413,389.312 63.01,449.009 c 59.597,59.696 326.283,59.596 385.98,0 59.697,-59.597 59.597,-326.283 0,-385.98" /></g></g></g></g></g></g></g></g><g
           id="g144"><g
             id="g146" /><g
             id="g188"><g
               style="opacity:0.39999402"
               id="g190"
               clip-path="url(#clipPath148)"><g
                 id="g192"><g
                   id="g194"
                   clip-path="url(#clipPath152)"><g
                     id="g196"><g
                       id="g198" /><g
                       id="g200"
                       mask="url(#mask168)"><g
                         id="g202"><path
                           id="path204"
                           style="fill:url(#radialGradient180);stroke:none"
                           d="m 63.01,63.029 c 59.697,-59.697 326.183,-59.697 385.88,0 59.697,59.697 59.697,326.183 0,385.88 -59.697,59.696 -326.183,59.696 -385.88,0.1 -59.697,-59.597 -59.597,-326.283 0,-385.98" /></g></g></g></g></g></g></g></g><g
           transform="translate(433.279,78.721)"
           id="g206"><path
             id="path208"
             style="fill:#ffffff;fill-opacity:1;fill-rule:nonzero;stroke:none"
             d="m 0,0 c -70.294,-70.294 -284.264,-70.294 -354.558,0 -70.294,70.294 -70.294,284.264 0,354.558 70.294,70.294 284.264,70.294 354.558,0 C 70.294,284.264 70.295,70.294 0,0" /></g><g
           transform="translate(282.647,440.554)"
           id="g210"><path
             id="path212"
             style="fill:#e84c3d;fill-opacity:1;fill-rule:nonzero;stroke:none"
             d="m 0,0 c 14.378,-14.377 25.48,-31.165 32.998,-49.897 8.911,-22.198 12.373,-46.565 10.012,-70.468 -1.495,-15.14 -5.269,-29.893 -11.219,-43.85 -3.422,-8.03 -7.576,-15.795 -12.345,-23.079 -3.094,-4.726 -6.519,-9.35 -10.179,-13.745 -2.393,-2.872 -4.88,-5.648 -7.416,-8.279 0.038,0.008 0.077,0.016 0.115,0.024 7.95,1.659 15.809,4.04 23.36,7.078 13.129,5.281 25.352,12.524 36.33,21.528 17.331,14.214 31.126,32.577 39.895,53.104 7.395,17.313 11.145,35.712 11.145,54.687 0,9.62 -0.991,19.247 -2.946,28.614 -5.887,28.209 -20.182,53.522 -41.368,73.281 -28.671,7.484 -61.491,11.436 -95.012,11.436 -13.538,0 -26.867,-0.629 -39.886,-1.88 C -51.444,34.482 -37.06,28.056 -23.909,19.446 -15.33,13.828 -7.286,7.285 0,0" /></g><g
           transform="translate(144.342,405.344)"
           id="g214"><path
             id="path216"
             style="fill:#f1c50e;fill-opacity:1;fill-rule:nonzero;stroke:none"
             d="m 0,0 c 20.332,0 40.053,-4.02 58.615,-11.949 21.998,-9.397 41.677,-24.18 56.908,-42.749 9.648,-11.763 17.411,-24.864 23.074,-38.94 3.257,-8.097 5.811,-16.525 7.59,-25.05 1.152,-5.517 2,-11.208 2.522,-16.916 0.34,-3.721 0.544,-7.443 0.611,-11.1 0.022,0.033 0.043,0.066 0.065,0.099 4.45,6.797 8.323,14.038 11.512,21.522 5.549,13.018 9.071,26.783 10.467,40.913 2.203,22.308 -1.026,45.048 -9.34,65.76 -7.014,17.473 -17.372,33.135 -30.788,46.551 -6.802,6.802 -14.31,12.908 -22.315,18.149 C 87.648,60.216 62.913,68.017 37.358,68.866 16.012,64.789 -3.236,59.034 -19.86,51.758 -37.403,44.08 -51.609,34.876 -62.084,24.4 -75.803,10.681 -87.408,-9.646 -96.101,-35.014 -77.286,-19.133 -54.977,-8.232 -30.656,-3.156 -20.62,-1.062 -10.305,0 0,0" /></g><g
           transform="translate(405.345,367.659)"
           id="g218"><path
             id="path220"
             style="fill:#ff65d4;fill-opacity:1;fill-rule:nonzero;stroke:none"
             d="m 0,0 c 0,-20.332 -4.02,-40.053 -11.949,-58.615 -9.397,-21.998 -24.18,-41.677 -42.749,-56.908 -11.763,-9.648 -24.864,-17.411 -38.94,-23.074 -8.097,-3.257 -16.525,-5.811 -25.05,-7.59 -5.517,-1.152 -11.208,-2 -16.916,-2.522 -3.721,-0.34 -7.443,-0.544 -11.1,-0.611 0.033,-0.022 0.066,-0.043 0.099,-0.065 6.797,-4.45 14.038,-8.323 21.522,-11.512 13.018,-5.549 26.783,-9.071 40.913,-10.467 4.56,-0.451 9.196,-0.679 13.779,-0.679 17.929,0 35.418,3.371 51.981,10.019 17.473,7.014 33.135,17.372 46.551,30.788 6.802,6.802 12.908,14.31 18.149,22.315 13.927,21.274 21.728,46.009 22.576,71.563 C 64.788,-16.012 59.032,3.236 51.757,19.859 44.079,37.402 34.875,51.608 24.399,62.083 10.68,75.802 -9.648,87.408 -35.014,96.103 -19.133,77.287 -8.232,54.977 -3.156,30.657 -1.062,20.62 0,10.305 0,0" /></g><g
           transform="translate(71.447,282.647)"
           id="g222"><path
             id="path224"
             style="fill:#51d88b;fill-opacity:1;fill-rule:nonzero;stroke:none"
             d="m 0,0 c 14.377,14.378 31.165,25.48 49.897,32.998 17.751,7.125 36.493,10.739 55.706,10.739 4.911,0 9.877,-0.245 14.762,-0.727 15.14,-1.495 29.893,-5.269 43.85,-11.219 8.03,-3.422 15.795,-7.576 23.079,-12.345 4.726,-3.094 9.35,-6.519 13.745,-10.179 2.872,-2.393 5.648,-4.88 8.279,-7.416 -0.008,0.038 -0.016,0.077 -0.024,0.115 -1.659,7.95 -4.04,15.809 -7.078,23.36 -5.281,13.129 -12.524,25.352 -21.528,36.33 -14.214,17.331 -32.577,31.126 -53.104,39.895 -17.313,7.395 -35.712,11.145 -54.687,11.145 -9.619,0 -19.247,-0.991 -28.614,-2.946 -28.21,-5.887 -53.523,-20.182 -73.282,-41.368 -9.637,-36.92 -13.221,-80.049 -10.569,-121.785 0.591,-3.384 1.222,-6.741 1.903,-10.06 4.093,13.959 10.194,27.296 18.219,39.554 C -13.828,-15.33 -7.286,-7.286 0,0" /></g><g
           transform="translate(367.657,106.657)"
           id="g226"><path
             id="path228"
             style="fill:#6659ff;fill-opacity:1;fill-rule:nonzero;stroke:none"
             d="m 0,0 c -20.332,0 -40.053,4.02 -58.615,11.949 -21.998,9.397 -41.677,24.18 -56.908,42.749 -9.648,11.763 -17.411,24.864 -23.073,38.939 -3.257,8.097 -5.811,16.525 -7.59,25.05 -1.152,5.517 -2,11.208 -2.522,16.916 -0.339,3.721 -0.543,7.443 -0.61,11.1 -0.022,-0.033 -0.043,-0.066 -0.065,-0.099 -4.45,-6.797 -8.323,-14.038 -11.512,-21.522 -5.549,-13.018 -9.071,-26.783 -10.467,-40.913 -2.203,-22.308 1.026,-45.048 9.34,-65.76 7.014,-17.473 17.372,-33.135 30.788,-46.551 3.307,-3.307 6.784,-6.446 10.401,-9.405 3.057,-0.065 6.116,-0.11 9.176,-0.11 71.066,0 142.132,17.574 177.278,52.721 0.038,0.037 0.074,0.078 0.111,0.115 C 54.678,9.763 42.924,5.716 30.656,3.156 20.62,1.062 10.305,0 0,0" /></g><g
           transform="translate(479.102,295.843)"
           id="g230"><path
             id="path232"
             style="fill:#9c56b8;fill-opacity:1;fill-rule:nonzero;stroke:none"
             d="m 0,0 c -4.072,-15.063 -10.496,-29.438 -19.102,-42.582 -5.619,-8.58 -12.161,-16.623 -19.446,-23.908 -14.377,-14.378 -31.165,-25.48 -49.897,-32.998 -17.752,-7.126 -36.494,-10.739 -55.706,-10.739 -4.91,0 -9.877,0.245 -14.762,0.727 -15.139,1.495 -29.893,5.27 -43.85,11.219 -8.03,3.422 -15.795,7.576 -23.079,12.345 -4.726,3.094 -9.35,6.519 -13.745,10.179 -2.873,2.393 -5.649,4.88 -8.28,7.416 0.008,-0.038 0.016,-0.077 0.024,-0.115 1.659,-7.95 4.04,-15.809 7.078,-23.36 5.281,-13.129 12.524,-25.352 21.528,-36.33 14.214,-17.331 32.577,-31.126 53.104,-39.895 17.313,-7.395 35.712,-11.145 54.687,-11.145 9.62,0 19.247,0.991 28.614,2.946 19.821,4.136 38.202,12.439 54.241,24.351 14.04,22.838 23.912,52.653 29.615,85.319 C 2.424,-44.518 2.107,-21.953 0,0" /></g><g
           transform="translate(106.656,144.341)"
           id="g234"><path
             id="path236"
             style="fill:#00bd9b;fill-opacity:1;fill-rule:nonzero;stroke:none"
             d="m 0,0 c 0,20.333 4.02,40.053 11.949,58.615 9.397,21.998 24.18,41.677 42.749,56.908 11.763,9.648 24.864,17.411 38.94,23.074 8.097,3.257 16.525,5.811 25.05,7.59 5.516,1.152 11.208,2 16.916,2.522 3.721,0.34 7.443,0.544 11.1,0.611 -0.033,0.022 -0.066,0.043 -0.099,0.065 -6.797,4.45 -14.038,8.323 -21.522,11.512 -13.018,5.549 -26.783,9.071 -40.913,10.467 -4.559,0.451 -9.195,0.679 -13.779,0.679 -17.929,0 -35.418,-3.371 -51.981,-10.019 -17.473,-7.014 -33.135,-17.372 -46.551,-30.788 -6.802,-6.802 -12.908,-14.31 -18.149,-22.315 -11.12,-16.986 -18.321,-36.183 -21.211,-56.24 8.784,-31.097 21.967,-57.705 39.564,-75.302 9.472,-9.472 21.571,-17.656 35.557,-24.575 -1.789,5.395 -3.289,10.911 -4.464,16.54 C 1.062,-20.62 0,-10.305 0,0" /></g><g
           transform="translate(196.355,121.343)"
           id="g238"><path
             id="path240"
             style="fill:#2d98e0;fill-opacity:1;fill-rule:nonzero;stroke:none"
             d="m 0,0 c -8.911,22.198 -12.373,46.565 -10.012,70.468 1.495,15.14 5.269,29.893 11.219,43.85 3.422,8.03 7.576,15.795 12.345,23.079 3.094,4.726 6.519,9.35 10.179,13.745 2.393,2.872 4.88,5.648 7.416,8.279 -0.038,-0.008 -0.077,-0.016 -0.115,-0.024 -7.95,-1.659 -15.809,-4.04 -23.36,-7.078 -13.129,-5.281 -25.352,-12.524 -36.33,-21.528 -17.331,-14.214 -31.126,-32.577 -39.895,-53.104 -7.395,-17.313 -11.145,-35.712 -11.145,-54.686 0,-9.62 0.991,-19.247 2.946,-28.614 1.753,-8.403 4.27,-16.541 7.475,-24.359 29.829,-12.23 66.327,-19.441 104.033,-21.638 -0.588,0.569 -1.18,1.135 -1.758,1.713 C 18.62,-35.52 7.518,-18.732 0,0" /></g><g
           transform="translate(428.329,83.671)"
           id="g242"><path
             id="path244"
             style="fill:#bababa;fill-opacity:1;fill-rule:nonzero;stroke:none"
             d="m 0,0 c -31.254,-31.255 -97.287,-50.67 -172.329,-50.67 -75.042,0 -141.075,19.416 -172.329,50.67 -16.876,16.876 -30.445,43.794 -39.343,77.99 8.166,-18.429 18.024,-33.471 29.443,-44.89 17.509,-17.509 44.554,-31.799 78.213,-41.326 31.074,-8.796 67.042,-13.445 104.016,-13.445 36.974,0 72.941,4.649 104.016,13.445 C -34.654,1.301 -7.608,15.591 9.9,33.1 21.32,44.52 31.178,59.561 39.345,77.992 30.446,43.793 16.878,16.877 0,0" /></g></g></g></g></svg>