<?xml version="1.0" encoding="UTF-8" standalone="no"?>
<svg
   xmlns:dc="http://purl.org/dc/elements/1.1/"
   xmlns:cc="http://creativecommons.org/ns#"
   xmlns:rdf="http://www.w3.org/1999/02/22-rdf-syntax-ns#"
   xmlns:svg="http://www.w3.org/2000/svg"
   xmlns="http://www.w3.org/2000/svg"
   viewBox="0 0 640 640"
   height="640"
   width="640"
   xml:space="preserve"
   version="1.1"
   id="svg2"><metadata
     id="metadata8"><rdf:RDF><cc:Work
         rdf:about=""><dc:format>image/svg+xml</dc:format><dc:type
           rdf:resource="http://purl.org/dc/dcmitype/StillImage" /></cc:Work></rdf:RDF></metadata><defs
     id="defs6"><clipPath
       id="clipPath16"
       clipPathUnits="userSpaceOnUse"><path
         id="path18"
         d="M 0,512 512,512 512,0 0,0 0,512 Z" /></clipPath><clipPath
       id="clipPath24"
       clipPathUnits="userSpaceOnUse"><path
         id="path26"
         d="m 18.275,493.725 475.45,0 0,-475.45 -475.45,0 0,475.45 z" /></clipPath><clipPath
       id="clipPath40"
       clipPathUnits="userSpaceOnUse"><path
         id="path42"
         d="M 78.721,433.279 C 8.427,362.985 8.427,149.015 78.721,78.721 l 0,0 c 70.294,-70.294 284.264,-70.294 354.558,0 l 0,0 c 70.294,70.294 70.294,284.264 0,354.558 l 0,0 C 398.132,468.426 327.066,486 256,486 l 0,0 C 184.934,486 113.868,468.426 78.721,433.279" /></clipPath><linearGradient
       id="linearGradient48"
       spreadMethod="pad"
       gradientTransform="matrix(0,-460,-460,0,256,486)"
       gradientUnits="userSpaceOnUse"
       y2="0"
       x2="1"
       y1="0"
       x1="0"><stop
         id="stop50"
         offset="0"
         style="stop-opacity:1;stop-color:#8e8e93" /><stop
         id="stop52"
         offset="1"
         style="stop-opacity:1;stop-color:#8e8e93" /></linearGradient><clipPath
       id="clipPath60"
       clipPathUnits="userSpaceOnUse"><path
         id="path62"
         d="M 0,512 512,512 512,0 0,0 0,512 Z" /></clipPath></defs><g
     transform="matrix(1.25,0,0,-1.25,0,640)"
     id="g10"><g
       id="g12"><g
         clip-path="url(#clipPath16)"
         id="g14"><g
           id="g20"><g
             id="g22" /><g
             id="g28"><g
               style="opacity:0.39999402"
               id="g30"
               clip-path="url(#clipPath24)"><g
                 id="g32"
                 transform="translate(448.9641,63.0359)"><path
                   id="path34"
                   style="fill:#ffffff;fill-opacity:1;fill-rule:nonzero;stroke:none"
                   d="m 0,0 c -59.681,-59.681 -326.247,-59.681 -385.928,0 -59.681,59.681 -59.681,326.247 0,385.928 59.681,59.681 326.247,59.681 385.928,0 C 59.681,326.247 59.681,59.681 0,0" /></g></g></g></g></g></g><g
       id="g36"><g
         clip-path="url(#clipPath40)"
         id="g38"><g
           id="g44"><g
             id="g46"><path
               id="path54"
               style="fill:url(#linearGradient48);stroke:none"
               d="M 78.721,433.279 C 8.427,362.985 8.427,149.015 78.721,78.721 l 0,0 c 70.294,-70.294 284.264,-70.294 354.558,0 l 0,0 c 70.294,70.294 70.294,284.264 0,354.558 l 0,0 C 398.132,468.426 327.066,486 256,486 l 0,0 C 184.934,486 113.868,468.426 78.721,433.279" /></g></g></g></g><g
       id="g56"><g
         clip-path="url(#clipPath60)"
         id="g58"><g
           transform="translate(255.8805,147.4027)"
           id="g64"><path
             id="path66"
             style="fill:#ffffff;fill-opacity:1;fill-rule:nonzero;stroke:none"
             d="m 0,0 c -47.445,0 -87.528,23.413 -87.528,51.128 0,6.964 2.535,13.656 7.078,19.772 18.223,-15.772 47.573,-26.014 80.691,-26.014 32.937,0 62.156,10.126 80.399,25.75 C 85.06,64.589 87.527,57.99 87.527,51.125 87.529,23.415 47.445,0 0,0 m 0,217.196 c 47.445,0 87.528,-23.413 87.528,-51.128 0,-6.865 -2.467,-13.464 -6.887,-19.511 -2.35,-3.215 -5.258,-6.269 -8.643,-9.127 -15.952,-13.469 -42.552,-22.491 -71.999,-22.491 -29.301,0 -55.78,8.936 -71.757,22.295 -3.393,2.837 -6.322,5.868 -8.692,9.06 -4.542,6.118 -7.078,12.809 -7.078,19.772 0,27.715 40.084,51.13 87.528,51.13 M 71.999,79.765 C 56.022,66.407 29.544,57.471 0.242,57.471 c -29.446,0 -56.047,9.022 -71.999,22.491 -3.385,2.857 -6.292,5.913 -8.644,9.128 -4.42,6.045 -6.885,12.644 -6.885,19.508 0,6.864 2.467,13.463 6.885,19.509 9.663,-8.274 22.406,-15.007 37.148,-19.509 13.092,-3.998 27.759,-6.239 43.253,-6.239 15.494,0 30.16,2.241 43.253,6.239 14.896,4.549 27.743,11.378 37.442,19.769 4.541,-6.116 7.075,-12.806 7.075,-19.769 0,-6.962 -2.534,-13.652 -7.075,-19.769 -2.372,-3.195 -5.301,-6.226 -8.696,-9.064 m 28.352,28.832 c 0,10.394 -3.937,20.199 -10.876,28.867 6.803,8.602 10.633,18.317 10.633,28.603 0,35.184 -44.821,63.709 -100.11,63.709 -55.289,0 -100.11,-28.523 -100.11,-63.709 0,-10.406 3.927,-20.226 10.879,-28.899 -6.791,-8.595 -10.637,-18.294 -10.637,-28.571 0,-10.275 3.845,-19.974 10.637,-28.57 -6.952,-8.674 -10.879,-18.494 -10.879,-28.899 0,-35.185 44.821,-63.709 100.11,-63.709 55.289,0 100.11,28.522 100.11,63.709 0,10.285 -3.831,20.002 -10.633,28.602 6.939,8.669 10.876,18.474 10.876,28.867" /></g></g></g></g></svg>