<?xml version="1.0" encoding="utf-8"?>
<!-- Generator: Adobe Illustrator 18.0.0, SVG Export Plug-In . SVG Version: 6.00 Build 0)  -->
<!DOCTYPE svg PUBLIC "-//W3C//DTD SVG 1.1//EN" "http://www.w3.org/Graphics/SVG/1.1/DTD/svg11.dtd">
<svg version="1.1" id="Layer_2" xmlns="http://www.w3.org/2000/svg" xmlns:xlink="http://www.w3.org/1999/xlink" x="0px" y="0px"
	 viewBox="0 0 512 512" enable-background="new 0 0 512 512" xml:space="preserve">
<g>
	<g opacity="0.4" enable-background="new    ">
		
			<radialGradient id="SVGID_1_" cx="0.7625" cy="514.25" r="118.8609" gradientTransform="matrix(2 0 0 -2 254.5 1284.5)" gradientUnits="userSpaceOnUse">
			<stop  offset="0" style="stop-color:#010101"/>
			<stop  offset="0.8587" style="stop-color:#010101;stop-opacity:0.1413"/>
			<stop  offset="1" style="stop-color:#010101;stop-opacity:0"/>
		</radialGradient>
		<path fill="url(#SVGID_1_)" d="M449,449c-59.7,59.7-326.2,59.7-385.9,0S3.4,122.7,63,63s326.3-59.6,386,0S508.6,389.3,449,449z"/>
	</g>
	<g opacity="0.4" enable-background="new    ">
		
			<radialGradient id="SVGID_2_" cx="1.5285" cy="515.0576" r="133.1551" gradientTransform="matrix(1.4138 -1.4146 -0.979 -0.9784 758.1053 762.0507)" gradientUnits="userSpaceOnUse">
			<stop  offset="0" style="stop-color:#010101"/>
			<stop  offset="0.8587" style="stop-color:#010101;stop-opacity:0.1413"/>
			<stop  offset="1" style="stop-color:#010101;stop-opacity:0"/>
		</radialGradient>
		<path fill="url(#SVGID_2_)" d="M449,449c-59.7,59.7-326.2,59.7-385.9,0S3.4,122.7,63,63s326.3-59.6,386,0S508.6,389.3,449,449z"/>
	</g>
	<g opacity="0.4" enable-background="new    ">
		
			<radialGradient id="SVGID_3_" cx="2.5888" cy="513.4733" r="133.1784" gradientTransform="matrix(-1.4138 -1.4146 0.979 -0.9784 -243.1053 762.0507)" gradientUnits="userSpaceOnUse">
			<stop  offset="0" style="stop-color:#010101"/>
			<stop  offset="0.8587" style="stop-color:#010101;stop-opacity:0.1413"/>
			<stop  offset="1" style="stop-color:#010101;stop-opacity:0"/>
		</radialGradient>
		<path fill="url(#SVGID_3_)" d="M63,449c59.7,59.7,326.2,59.7,385.9,0s59.7-326.2,0-385.9S122.7,3.4,63,63S3.4,389.3,63,449z"/>
	</g>
</g>
<g>
	
		<linearGradient id="SVGID_4_" gradientUnits="userSpaceOnUse" x1="256.0002" y1="26.0005" x2="256.0002" y2="485.9995" gradientTransform="matrix(1 0 0 -1 0 512)">
		<stop  offset="0" style="stop-color:#FFDC7F"/>
		<stop  offset="1" style="stop-color:#E9A300"/>
	</linearGradient>
	<path opacity="0.4" fill="url(#SVGID_4_)" d="M433.3,78.7C363,8.4,149,8.4,78.7,78.7S8.4,363,78.7,433.3s284.3,70.3,354.6,0
		S503.6,149,433.3,78.7z"/>
</g>
<g>
	
		<linearGradient id="SVGID_5_" gradientUnits="userSpaceOnUse" x1="256" y1="26.0005" x2="256" y2="485.9995" gradientTransform="matrix(1 0 0 -1 0 512)">
		<stop  offset="0" style="stop-color:#FFDC7F"/>
		<stop  offset="1" style="stop-color:#E9A300"/>
	</linearGradient>
	<path opacity="0.4" fill="url(#SVGID_5_)" d="M433.3,78.7C363,8.4,149,8.4,78.7,78.7S8.4,363,78.7,433.3s284.3,70.3,354.6,0
		S503.6,149,433.3,78.7z"/>
	<linearGradient id="SVGID_6_" gradientUnits="userSpaceOnUse" x1="256" y1="485.9995" x2="256" y2="26.0005">
		<stop  offset="0" style="stop-color:#E9A300"/>
		<stop  offset="1" style="stop-color:#FFDC7F"/>
	</linearGradient>
	<path fill="url(#SVGID_6_)" d="M256,466c-34.5,0-67.9-4.3-96.7-12.4c-29.2-8.3-52.2-20.2-66.5-34.4c-14.3-14.3-26.2-37.2-34.4-66.5
		C50.3,323.9,46,290.5,46,256s4.3-67.9,12.4-96.7c8.3-29.2,20.2-52.2,34.4-66.5c14.3-14.3,37.2-26.2,66.5-34.4
		C188.1,50.3,221.5,46,256,46s67.9,4.3,96.7,12.4c29.2,8.3,52.2,20.2,66.5,34.4c14.3,14.3,26.2,37.2,34.4,66.5
		c8.1,28.7,12.4,62.1,12.4,96.7c0,34.5-4.3,67.9-12.4,96.7c-8.3,29.2-20.2,52.2-34.4,66.5c-14.3,14.3-37.2,26.2-66.5,34.4
		C323.9,461.7,290.5,466,256,466 M256,486c71.1,0,142.1-17.6,177.3-52.7c70.3-70.3,70.3-284.3,0-354.6C398.1,43.6,327.1,26,256,26
		S113.9,43.6,78.7,78.7C8.4,149,8.4,363,78.7,433.3C113.9,468.4,184.9,486,256,486L256,486z"/>
	<path fill="#D3B875" d="M366.5,145.5c-43.8-43.8-177.2-43.8-221,0s-43.8,177.2,0,221s177.2,43.8,221,0S410.3,189.3,366.5,145.5z"/>
	<g>
		<g>
			<path fill="#FFFFFF" d="M135.3,391.4h22.2h197h22.2c14,0,25.4-11.4,25.4-25.4v-22.2v-197v-22.2c0-14-11.4-25.4-25.4-25.4h-22.2
				h-197h-22.2c-14,0-25.4,11.4-25.4,25.4v22.2v197V366C109.9,380,121.3,391.4,135.3,391.4z"/>
			<g>
				<path fill="#E5E5E5" d="M376.7,117.9c13.5,0,24.4,11,24.4,24.4v22.2v197v22.2c0,13.5-11,24.4-24.4,24.4h-22.2h-197h-22.2
					c-13.5,0-24.4-11-24.4-24.4v-22.2v-197v-22.2c0-13.5,11-24.4,24.4-24.4h22.2h197H376.7 M376.7,116.9h-22.2h-197h-22.2
					c-14,0-25.4,11.4-25.4,25.4v22.2v197v22.2c0,14,11.4,25.4,25.4,25.4h22.2h197h22.2c14,0,25.4-11.4,25.4-25.4v-22.2v-197v-22.2
					C402.1,128.2,390.7,116.9,376.7,116.9L376.7,116.9z"/>
			</g>
			<g>
				<path fill="#E5E5E5" d="M376.7,114.6c13.5,0,24.4,11,24.4,24.4v22.2v197v22.2c0,13.5-11,24.4-24.4,24.4h-22.2h-197h-22.2
					c-13.5,0-24.4-11-24.4-24.4v-22.2v-197v-22.2c0-13.5,11-24.4,24.4-24.4h22.2h197H376.7 M376.7,113.6h-22.2h-197h-22.2
					c-14,0-25.4,11.4-25.4,25.4v22.2v197v22.2c0,14,11.4,25.4,25.4,25.4h22.2h197h22.2c14,0,25.4-11.4,25.4-25.4v-22.2v-197v-22.2
					C402.1,125,390.7,113.6,376.7,113.6L376.7,113.6z"/>
			</g>
			<g>
				<path fill="#E5E5E5" d="M376.7,109.4c13.5,0,24.4,11,24.4,24.4V156v197v22.2c0,13.5-11,24.4-24.4,24.4h-22.2h-197h-22.2
					c-13.5,0-24.4-11-24.4-24.4V353V156v-22.2c0-13.5,11-24.4,24.4-24.4h22.2h197H376.7 M376.7,108.4h-22.2h-197h-22.2
					c-14,0-25.4,11.4-25.4,25.4V156v197v22.2c0,14,11.4,25.4,25.4,25.4h22.2h197h22.2c14,0,25.4-11.4,25.4-25.4V353V156v-22.2
					C402.1,119.8,390.7,108.4,376.7,108.4L376.7,108.4z"/>
			</g>
			<g>
				<path fill="#E5E5E5" d="M376.7,105.3c13.5,0,24.4,11,24.4,24.4v22.2v197v22.2c0,13.5-11,24.4-24.4,24.4h-22.2h-197h-22.2
					c-13.5,0-24.4-11-24.4-24.4v-22.2v-197v-22.2c0-13.5,11-24.4,24.4-24.4h22.2h197H376.7 M376.7,104.3h-22.2h-197h-22.2
					c-14,0-25.4,11.4-25.4,25.4v22.2v197v22.2c0,14,11.4,25.4,25.4,25.4h22.2h197h22.2c14,0,25.4-11.4,25.4-25.4v-22.2v-197v-22.2
					C402.1,115.7,390.7,104.3,376.7,104.3L376.7,104.3z"/>
			</g>
		</g>
		<g>
			<path fill="#FFFFFF" d="M109.9,146v241.3c0,14,11.4,25.4,25.4,25.4h22.2l146.1-146.1L157.5,120.6h-22.2
				C121.3,120.6,109.9,132,109.9,146z"/>
			<path fill="#F7F7F7" d="M354.5,412.8h22.2c14,0,25.4-11.4,25.4-25.4V146c0-14-11.4-25.4-25.4-25.4h-22.2L208.4,266.7L354.5,412.8
				z"/>
			<path fill="#F4F4F4" d="M402.1,387.3v-22.2L256,219.1L109.9,365.2v22.2c0,14,11.4,25.4,25.4,25.4h241.3
				C390.7,412.8,402.1,401.4,402.1,387.3z"/>
			<path fill="#E8E8E8" d="M276.4,293.9l125.6-125.6V146c0-14-11.4-25.4-25.4-25.4H135.3c-14,0-25.4,11.4-25.4,25.4v22.2
				l125.6,125.6C246.9,305.1,265.1,305.1,276.4,293.9z"/>
			<path display="none" fill="#2D2D2D" d="M355.9,155.3c6.4,0,11.6,5.2,11.6,11.6v199.7c0,6.4-5.2,11.6-11.6,11.6H156.1
				c-6.4,0-11.6-5.2-11.6-11.6V166.8c0-6.4,5.2-11.6,11.6-11.6H355.9 M355.9,143.7H156.1c-12.8,0-23.1,10.3-23.1,23.1v199.7
				c0,12.8,10.3,23.1,23.1,23.1h199.7c12.8,0,23.1-10.3,23.1-23.1V166.8C379,154.1,368.6,143.7,355.9,143.7L355.9,143.7z"/>
			<g>
				<line fill="none" x1="213.4" y1="378.1" x2="229.2" y2="378.1"/>
				<line fill="none" x1="367.4" y1="239.9" x2="367.4" y2="224.1"/>
				<line fill="none" x1="144.6" y1="344.6" x2="144.6" y2="360.4"/>
				<line fill="none" x1="349.7" y1="155.3" x2="334" y2="155.3"/>
				<line fill="none" x1="367.4" y1="265.4" x2="367.4" y2="249.7"/>
				<polyline fill="none" points="246.7,370.3 239,378.1 254.7,378.1 				"/>
				<path fill="none" d="M145.1,369.8c1.1,3.8,4.1,6.8,7.9,7.9"/>
				<path fill="none" d="M366.9,163.6c-1.1-3.8-4.1-6.8-7.9-7.9"/>
				<line fill="none" x1="187.8" y1="378.1" x2="203.6" y2="378.1"/>
				<line fill="none" x1="367.4" y1="214.3" x2="367.4" y2="198.5"/>
				<line fill="none" x1="367.4" y1="342.1" x2="367.4" y2="326.4"/>
				<line fill="none" x1="315.7" y1="378.1" x2="331.5" y2="378.1"/>
				<path fill="none" d="M341.3,378.1h14.6c0.4,0,0.8,0,1.2-0.1l10.3-10.3c0-0.4,0.1-0.8,0.1-1.2v-14.6"/>
				<line fill="none" x1="367.4" y1="316.6" x2="367.4" y2="300.8"/>
				<line fill="none" x1="290.1" y1="378.1" x2="305.9" y2="378.1"/>
				<line fill="none" x1="367.4" y1="291" x2="367.4" y2="275.2"/>
				<line fill="none" x1="264.5" y1="378.1" x2="280.3" y2="378.1"/>
				<line fill="none" x1="162.3" y1="378.1" x2="178" y2="378.1"/>
				<line fill="none" x1="367.4" y1="188.7" x2="367.4" y2="173"/>
				<line fill="none" x1="221.9" y1="155.3" x2="206.1" y2="155.3"/>
				<line fill="none" x1="144.6" y1="216.8" x2="144.6" y2="232.6"/>
				<path fill="none" d="M170.7,155.3h-14.6c-0.4,0-0.8,0-1.2,0.1l-10.3,10.3c0,0.4-0.1,0.8-0.1,1.2v14.6"/>
				<line fill="none" x1="196.3" y1="155.3" x2="180.5" y2="155.3"/>
				<line fill="none" x1="144.6" y1="191.2" x2="144.6" y2="207"/>
				<line fill="none" x1="144.6" y1="319.1" x2="144.6" y2="334.8"/>
				<line fill="none" x1="324.2" y1="155.3" x2="308.4" y2="155.3"/>
				<line fill="none" x1="144.6" y1="293.5" x2="144.6" y2="309.3"/>
				<line fill="none" x1="298.6" y1="155.3" x2="282.8" y2="155.3"/>
				<polyline fill="none" points="246.7,156 247.5,155.3 231.7,155.3 				"/>
				<line fill="none" x1="144.6" y1="242.4" x2="144.6" y2="258.1"/>
				<line fill="none" x1="144.6" y1="267.9" x2="144.6" y2="283.7"/>
				<polyline fill="none" points="273,155.3 257.3,155.3 252.2,160.3 				"/>
				<polygon points="144.6,191.2 133,202.8 133,218.6 144.6,207 				"/>
				<polygon fill="#3F8CFC" points="298.6,155.3 310.1,143.7 294.4,143.7 282.8,155.3 				"/>
				<polygon fill="#FC354D" points="273,155.3 284.6,143.7 268.8,143.7 257.3,155.3 				"/>
				<path fill="#FC354D" d="M349.7,155.3l11-11c-1.6-0.3-3.2-0.5-4.9-0.5h-10.3L334,155.3H349.7z"/>
				<path fill="#FC354D" d="M144.6,166.8c0-0.4,0-0.8,0.1-1.2L133,177.2V193l11.6-11.6V166.8z"/>
				<path d="M156.1,155.3h14.6l11.6-11.6h-15.8l-11.6,11.6C155.3,155.3,155.7,155.3,156.1,155.3z"/>
				<path fill="#3F8CFC" d="M366.9,163.6l8.7-8.7c-1.9-3.2-4.7-5.9-7.9-7.9l-8.7,8.7C362.9,156.8,365.8,159.8,366.9,163.6z"/>
				<polygon fill="#3F8CFC" points="221.9,155.3 233.4,143.7 217.7,143.7 206.1,155.3 				"/>
				<polygon fill="#FC354D" points="196.3,155.3 207.9,143.7 192.1,143.7 180.5,155.3 				"/>
				<polygon points="247.5,155.3 247.6,155.1 259,143.7 243.2,143.7 231.7,155.3 				"/>
				<polygon fill="#3F8CFC" points="367.4,316.6 379,305 379,289.3 367.4,300.8 				"/>
				<polygon points="367.4,342.1 379,330.6 379,314.8 367.4,326.4 				"/>
				<path d="M367.4,188.7l11.6-11.6v-10.3c0-1.7-0.2-3.3-0.5-4.9l-11,11V188.7z"/>
				<path fill="#3F8CFC" d="M355.9,389.7c12.8,0,23.1-10.3,23.1-23.1V366l-23.7,23.7H355.9z"/>
				<path fill="#3F8CFC" d="M156.1,143.7c-12.8,0-23.1,10.3-23.1,23.1v0.6l23.7-23.7H156.1z"/>
				<path fill="#FC354D" d="M367.4,366.5c0,0.4,0,0.8-0.1,1.2l11.6-11.6v-15.8l-11.6,11.6V366.5z"/>
				<polygon fill="#FC354D" points="367.4,214.3 379,202.7 379,187 367.4,198.5 				"/>
				<polygon fill="#3F8CFC" points="367.4,239.9 379,228.3 379,212.5 367.4,224.1 				"/>
				<polygon fill="#FC354D" points="367.4,291 379,279.5 379,263.7 367.4,275.2 				"/>
				<polygon points="367.4,265.4 379,253.9 379,238.1 367.4,249.7 				"/>
				<polygon points="324.2,155.3 335.7,143.7 319.9,143.7 308.4,155.3 				"/>
				<path d="M355.9,378.1h-14.6l-11.6,11.6h15.8l11.6-11.6C356.7,378.1,356.3,378.1,355.9,378.1z"/>
				<path fill="#FC354D" d="M162.3,378.1l-11,11c1.6,0.3,3.2,0.5,4.9,0.5h10.3l11.6-11.6H162.3z"/>
				<polygon fill="#3F8CFC" points="144.6,293.5 133,305.1 133,320.8 144.6,309.3 				"/>
				<polygon fill="#FC354D" points="315.7,378.1 304.1,389.7 319.9,389.7 331.5,378.1 				"/>
				<polygon points="144.6,267.9 133,279.5 133,295.3 144.6,283.7 				"/>
				<path d="M144.6,344.6L133,356.2v10.3c0,1.7,0.2,3.3,0.5,4.9l11-11V344.6z"/>
				<polygon fill="#FC354D" points="144.6,319.1 133,330.6 133,346.4 144.6,334.8 				"/>
				<path fill="#3F8CFC" d="M145.1,369.8l-8.7,8.7c1.9,3.2,4.7,5.9,7.9,7.9l8.7-8.7C149.1,376.5,146.2,373.5,145.1,369.8z"/>
				<polygon points="187.8,378.1 176.3,389.7 192.1,389.7 203.6,378.1 				"/>
				<polygon fill="#FC354D" points="239,378.1 227.4,389.7 243.2,389.7 254.7,378.1 				"/>
				<polygon fill="#3F8CFC" points="144.6,216.8 133,228.4 133,244.1 144.6,232.6 				"/>
				<polygon fill="#3F8CFC" points="213.4,378.1 201.9,389.7 217.6,389.7 229.2,378.1 				"/>
				<polygon points="264.5,378.1 253,389.7 268.8,389.7 280.3,378.1 				"/>
				<polygon fill="#3F8CFC" points="290.1,378.1 278.6,389.7 294.3,389.7 305.9,378.1 				"/>
				<polygon fill="#FC354D" points="144.6,242.4 133,253.9 133,269.7 144.6,258.1 				"/>
			</g>
		</g>
	</g>
	
		<linearGradient id="SVGID_7_" gradientUnits="userSpaceOnUse" x1="256" y1="202.6918" x2="256" y2="485.9995" gradientTransform="matrix(1 0 0 -1 0 512)">
		<stop  offset="0" style="stop-color:#545454"/>
		<stop  offset="1" style="stop-color:#FFFFFF;stop-opacity:0"/>
	</linearGradient>
	<path opacity="0.25" fill="url(#SVGID_7_)" d="M433.3,78.7C468.4,113.9,486,184.9,486,256h-20c0,0-57,53.3-210,53.3
		C103,309.3,46,256,46,256H26c0-71.1,17.6-142.1,52.7-177.3C149,8.4,363,8.4,433.3,78.7z"/>
</g>
</svg>
