<?xml version="1.0" encoding="utf-8"?>
<!-- Generator: Adobe Illustrator 18.0.0, SVG Export Plug-In . SVG Version: 6.00 Build 0)  -->
<!DOCTYPE svg PUBLIC "-//W3C//DTD SVG 1.1//EN" "http://www.w3.org/Graphics/SVG/1.1/DTD/svg11.dtd">
<svg version="1.1" id="Layer_1" xmlns="http://www.w3.org/2000/svg" xmlns:xlink="http://www.w3.org/1999/xlink" x="0px" y="0px"
	 viewBox="0 0 512 512" style="enable-background:new 0 0 512 512;" xml:space="preserve">
<g>
	<g>
		<g style="opacity:0.4;enable-background:new    ;">
			
				<radialGradient id="SVGID_1_" cx="256.525" cy="257.4813" r="237.7344" gradientTransform="matrix(1 0 0 -1 -0.5 513.5)" gradientUnits="userSpaceOnUse">
				<stop  offset="0" style="stop-color:#010101"/>
				<stop  offset="0.8587" style="stop-color:#010101;stop-opacity:0.1413"/>
				<stop  offset="1" style="stop-color:#010101;stop-opacity:0"/>
			</radialGradient>
			<path style="fill:url(#SVGID_1_);" d="M449,449c-59.7,59.7-326.2,59.7-385.9,0S3.4,122.7,63,63s326.3-59.6,386,0
				S508.6,389.3,449,449z"/>
		</g>
		<g style="opacity:0.4;enable-background:new    ;">
			
				<radialGradient id="SVGID_2_" cx="257.0394" cy="258.0371" r="266.3242" gradientTransform="matrix(0.7069 -0.7073 -0.4895 -0.4892 200.633 564.0107)" gradientUnits="userSpaceOnUse">
				<stop  offset="0" style="stop-color:#010101"/>
				<stop  offset="0.8587" style="stop-color:#010101;stop-opacity:0.1413"/>
				<stop  offset="1" style="stop-color:#010101;stop-opacity:0"/>
			</radialGradient>
			<path style="fill:url(#SVGID_2_);" d="M449,449c-59.7,59.7-326.2,59.7-385.9,0S3.4,122.7,63,63s326.3-59.6,386,0
				S508.6,389.3,449,449z"/>
		</g>
		<g style="opacity:0.4;enable-background:new    ;">
			
				<radialGradient id="SVGID_3_" cx="257.7463" cy="256.9128" r="266.3709" gradientTransform="matrix(-0.7069 -0.7073 0.4895 -0.4892 312.367 564.0107)" gradientUnits="userSpaceOnUse">
				<stop  offset="0" style="stop-color:#010101"/>
				<stop  offset="0.8587" style="stop-color:#010101;stop-opacity:0.1413"/>
				<stop  offset="1" style="stop-color:#010101;stop-opacity:0"/>
			</radialGradient>
			<path style="fill:url(#SVGID_3_);" d="M63,449c59.7,59.7,326.2,59.7,385.9,0s59.7-326.2,0-385.9S122.7,3.4,63,63
				S3.4,389.3,63,449z"/>
		</g>
	</g>
	
		<radialGradient id="SVGID_4_" cx="258.5" cy="-185.5" r="261.0019" gradientTransform="matrix(1 0 0 -1 -0.5 -53.5)" gradientUnits="userSpaceOnUse">
		<stop  offset="0" style="stop-color:#C742FA"/>
		<stop  offset="1" style="stop-color:#EE4DB8"/>
	</radialGradient>
	<path style="fill:url(#SVGID_4_);" d="M433.3,433.3c-70.3,70.3-284.3,70.3-354.6,0S8.4,149,78.7,78.7s284.3-70.3,354.6,0
		S503.6,363,433.3,433.3z"/>
</g>
<g style="opacity:0.4;">
	<g>
		<path d="M119.4,217.7h273.1c-0.1-0.8-0.2-1.6-0.3-2.4H119.7C119.6,216.1,119.5,216.9,119.4,217.7z"/>
		<path d="M392.6,314.3H119.4c0.1,0.8,0.2,1.6,0.3,2.4h272.6C392.4,315.9,392.5,315.1,392.6,314.3z"/>
		<path d="M205.3,402.3c0.8,0.1,1.6,0.2,2.4,0.3V129.4c-0.8,0.1-1.6,0.2-2.4,0.3V402.3z"/>
		<path d="M304.3,402.6c0.8-0.1,1.6-0.2,2.4-0.3V129.7c-0.8-0.1-1.6-0.2-2.4-0.3V402.6z"/>
	</g>
	<g>
		<path d="M254.1,176c-1.9,0-3.8-0.3-5.6-1c-1.8-0.7-3.5-1.7-4.9-3c-1.4-1.3-2.6-3-3.5-5c-0.9-2-1.3-4.3-1.3-6.9
			c0-2.5,0.5-4.8,1.4-6.9c0.9-2.2,2.2-4.1,3.9-5.7c1.7-1.6,3.6-2.9,6-3.9c2.3-0.9,4.9-1.4,7.7-1.4c2.8,0,5.4,0.4,7.6,1.3
			c2.3,0.9,4.2,2.1,5.8,3.7c1.6,1.6,2.8,3.5,3.7,5.8c0.9,2.2,1.3,4.7,1.3,7.4c0,1.7-0.1,3.3-0.4,4.8c-0.3,1.5-0.7,3-1.3,4.4
			c-0.5,1.4-1.2,2.8-2,4.1c-0.8,1.3-1.6,2.7-2.6,4l-12.6,18c-0.4,0.6-1.1,1.1-1.9,1.5c-0.9,0.4-1.8,0.6-2.9,0.6h-8.7l17.1-21.4
			c0.4-0.5,0.8-1.1,1.2-1.6c0.4-0.5,0.8-1,1.1-1.5c-1.3,0.8-2.7,1.4-4.2,1.9C257.4,175.8,255.8,176,254.1,176z M267,159.4
			c0-1.5-0.2-2.8-0.7-4c-0.5-1.2-1.1-2.2-2-3c-0.8-0.8-1.8-1.4-3-1.9c-1.2-0.4-2.4-0.6-3.8-0.6c-1.4,0-2.7,0.2-3.9,0.7
			c-1.1,0.5-2.1,1.1-2.9,2c-0.8,0.8-1.4,1.8-1.9,3c-0.4,1.2-0.7,2.4-0.7,3.8c0,3.1,0.8,5.4,2.4,7c1.6,1.6,3.9,2.4,6.8,2.4
			c1.5,0,2.9-0.2,4.1-0.7c1.2-0.5,2.2-1.1,3-2c0.8-0.8,1.4-1.8,1.9-3C266.8,162,267,160.8,267,159.4z"/>
	</g>
	<g>
		<path d="M171.4,345.7c2.1,0,4.1,0.3,6.1,1c2,0.7,3.7,1.7,5.2,3.1c1.5,1.4,2.7,3.1,3.6,5.2c0.9,2.1,1.4,4.5,1.4,7.2
			c0,2.6-0.5,5-1.4,7.2c-0.9,2.3-2.3,4.2-4,5.9c-1.7,1.7-3.8,3-6.2,4c-2.4,1-5.1,1.5-8,1.5c-3,0-5.6-0.5-7.9-1.4
			c-2.3-0.9-4.3-2.3-6-4c-1.7-1.7-2.9-3.7-3.8-6.1c-0.9-2.4-1.3-5-1.3-7.9c0-2.6,0.5-5.3,1.6-8c1.1-2.7,2.7-5.6,4.9-8.5l13.2-17.7
			c0.5-0.6,1.1-1.1,2-1.6c0.9-0.4,1.9-0.6,3-0.6h8.4l-16.4,20c-0.4,0.4-0.7,0.8-1,1.2c-0.3,0.4-0.6,0.8-0.9,1.2
			c1.1-0.5,2.2-1,3.5-1.3C168.6,345.8,170,345.7,171.4,345.7z M158.2,362.8c0,1.5,0.2,2.9,0.6,4.2c0.4,1.3,1,2.3,1.9,3.2
			c0.8,0.9,1.9,1.6,3.1,2.1c1.2,0.5,2.6,0.7,4.2,0.7c1.5,0,2.9-0.3,4.2-0.8c1.3-0.5,2.3-1.2,3.3-2.1c0.9-0.9,1.6-2,2.1-3.2
			c0.5-1.2,0.8-2.6,0.8-4c0-1.6-0.2-3-0.7-4.3c-0.5-1.3-1.2-2.3-2.1-3.2c-0.9-0.9-2-1.5-3.2-2c-1.2-0.5-2.6-0.7-4.1-0.7
			c-1.5,0-2.9,0.3-4.1,0.8c-1.2,0.5-2.3,1.2-3.2,2.1c-0.9,0.9-1.6,2-2,3.2C158.4,360.1,158.2,361.4,158.2,362.8z"/>
	</g>
	<g>
		<path d="M364.6,273.8h6.9v5.5c0,0.5-0.2,0.9-0.5,1.3c-0.3,0.4-0.8,0.6-1.5,0.6h-5v13.5h-8.2v-13.5H333c-0.6,0-1.2-0.2-1.7-0.6
			c-0.5-0.4-0.8-0.9-0.9-1.5l-1-4.8l26.2-34.9h8.9V273.8z M356.3,255.7c0-0.8,0-1.7,0.1-2.6c0.1-0.9,0.1-1.9,0.3-2.9l-17.1,23.6
			h16.8V255.7z"/>
	</g>
</g>
<g>
	<g>
		<path style="fill:#FFFFFF;" d="M119.4,207.7h273.1c-0.1-0.8-0.2-1.6-0.3-2.4H119.7C119.6,206.1,119.5,206.9,119.4,207.7z"/>
		<path style="fill:#FFFFFF;" d="M392.6,304.3H119.4c0.1,0.8,0.2,1.6,0.3,2.4h272.6C392.4,305.9,392.5,305.1,392.6,304.3z"/>
		<path style="fill:#FFFFFF;" d="M205.3,392.3c0.8,0.1,1.6,0.2,2.4,0.3V119.4c-0.8,0.1-1.6,0.2-2.4,0.3V392.3z"/>
		<path style="fill:#FFFFFF;" d="M304.3,392.6c0.8-0.1,1.6-0.2,2.4-0.3V119.7c-0.8-0.1-1.6-0.2-2.4-0.3V392.6z"/>
	</g>
	<g>
		<path style="fill:#FFFFFF;" d="M254.1,166c-1.9,0-3.8-0.3-5.6-1c-1.8-0.7-3.5-1.7-4.9-3c-1.4-1.3-2.6-3-3.5-5
			c-0.9-2-1.3-4.3-1.3-6.9c0-2.5,0.5-4.8,1.4-6.9c0.9-2.2,2.2-4.1,3.9-5.7c1.7-1.6,3.6-2.9,6-3.9c2.3-0.9,4.9-1.4,7.7-1.4
			c2.8,0,5.4,0.4,7.6,1.3c2.3,0.9,4.2,2.1,5.8,3.7c1.6,1.6,2.8,3.5,3.7,5.8c0.9,2.2,1.3,4.7,1.3,7.4c0,1.7-0.1,3.3-0.4,4.8
			c-0.3,1.5-0.7,3-1.3,4.4c-0.5,1.4-1.2,2.8-2,4.1c-0.8,1.3-1.6,2.7-2.6,4l-12.6,18c-0.4,0.6-1.1,1.1-1.9,1.5
			c-0.9,0.4-1.8,0.6-2.9,0.6h-8.7l17.1-21.4c0.4-0.5,0.8-1.1,1.2-1.6c0.4-0.5,0.8-1,1.1-1.5c-1.3,0.8-2.7,1.4-4.2,1.9
			C257.4,165.8,255.8,166,254.1,166z M267,149.4c0-1.5-0.2-2.8-0.7-4c-0.5-1.2-1.1-2.2-2-3c-0.8-0.8-1.8-1.4-3-1.9
			c-1.2-0.4-2.4-0.6-3.8-0.6c-1.4,0-2.7,0.2-3.9,0.7c-1.1,0.5-2.1,1.1-2.9,2c-0.8,0.8-1.4,1.8-1.9,3c-0.4,1.2-0.7,2.4-0.7,3.8
			c0,3.1,0.8,5.4,2.4,7c1.6,1.6,3.9,2.4,6.8,2.4c1.5,0,2.9-0.2,4.1-0.7c1.2-0.5,2.2-1.1,3-2c0.8-0.8,1.4-1.8,1.9-3
			C266.8,152,267,150.8,267,149.4z"/>
	</g>
	<g>
		<path style="fill:#FFFFFF;" d="M171.4,335.7c2.1,0,4.1,0.3,6.1,1c2,0.7,3.7,1.7,5.2,3.1c1.5,1.4,2.7,3.1,3.6,5.2
			c0.9,2.1,1.4,4.5,1.4,7.2c0,2.6-0.5,5-1.4,7.2c-0.9,2.3-2.3,4.2-4,5.9c-1.7,1.7-3.8,3-6.2,4c-2.4,1-5.1,1.5-8,1.5
			c-3,0-5.6-0.5-7.9-1.4c-2.3-0.9-4.3-2.3-6-4c-1.7-1.7-2.9-3.7-3.8-6.1c-0.9-2.4-1.3-5-1.3-7.9c0-2.6,0.5-5.3,1.6-8
			c1.1-2.7,2.7-5.6,4.9-8.5l13.2-17.7c0.5-0.6,1.1-1.1,2-1.6c0.9-0.4,1.9-0.6,3-0.6h8.4l-16.4,20c-0.4,0.4-0.7,0.8-1,1.2
			c-0.3,0.4-0.6,0.8-0.9,1.2c1.1-0.5,2.2-1,3.5-1.3C168.6,335.8,170,335.7,171.4,335.7z M158.2,352.8c0,1.5,0.2,2.9,0.6,4.2
			c0.4,1.3,1,2.3,1.9,3.2c0.8,0.9,1.9,1.6,3.1,2.1c1.2,0.5,2.6,0.7,4.2,0.7c1.5,0,2.9-0.3,4.2-0.8c1.3-0.5,2.3-1.2,3.3-2.1
			c0.9-0.9,1.6-2,2.1-3.2c0.5-1.2,0.8-2.6,0.8-4c0-1.6-0.2-3-0.7-4.3c-0.5-1.3-1.2-2.3-2.1-3.2c-0.9-0.9-2-1.5-3.2-2
			c-1.2-0.5-2.6-0.7-4.1-0.7c-1.5,0-2.9,0.3-4.1,0.8c-1.2,0.5-2.3,1.2-3.2,2.1c-0.9,0.9-1.6,2-2,3.2
			C158.4,350.1,158.2,351.4,158.2,352.8z"/>
	</g>
	<g>
		<path style="fill:#FFFFFF;" d="M364.6,263.8h6.9v5.5c0,0.5-0.2,0.9-0.5,1.3c-0.3,0.4-0.8,0.6-1.5,0.6h-5v13.5h-8.2v-13.5H333
			c-0.6,0-1.2-0.2-1.7-0.6c-0.5-0.4-0.8-0.9-0.9-1.5l-1-4.8l26.2-34.9h8.9V263.8z M356.3,245.7c0-0.8,0-1.7,0.1-2.6
			c0.1-0.9,0.1-1.9,0.3-2.9l-17.1,23.6h16.8V245.7z"/>
	</g>
</g>
<g id="_x3C_Group_x3E_">
	<path style="opacity:0.4;enable-background:new    ;" d="M78.7,426.8c70.3,70.3,284.3,70.3,354.6,0
		c34.1-34.1,51.6-101.9,52.7-170.8c-1-68.9-18.6-136.7-52.7-170.8C398.1,50,327.1,32.5,256,32.5S113.8,50,78.7,85.2
		C44.6,119.3,27.1,187.1,26,256C27.1,324.9,44.6,392.7,78.7,426.8z M92.8,99.3C107.1,85,130,73.1,159.3,64.9
		c28.7-8.1,62.1-12.4,96.7-12.4c34.5,0,68,4.3,96.7,12.4c29.2,8.3,52.2,20.2,66.5,34.4c14.3,14.3,26.2,37.2,34.4,66.5
		c8.1,28.7,12.4,62.1,12.4,96.7c0,34.5-4.3,68-12.4,96.7c-8.3,29.2-20.2,52.2-34.4,66.5c-14.3,14.3-37.2,26.2-66.5,34.4
		c-28.7,8.1-62.1,12.4-96.7,12.4c-34.5,0-68-4.3-96.7-12.4c-29.2-8.3-52.2-20.2-66.5-34.4c-14.3-14.3-26.2-37.2-34.4-66.5
		C50.3,330.5,46,297,46,262.5s4.3-68,12.4-96.7C66.7,136.6,78.6,113.6,92.8,99.3z"/>
	<path style="fill:#FFFFFF;" d="M256,46c34.5,0,68,4.3,96.7,12.4c29.2,8.3,52.2,20.2,66.5,34.4c14.3,14.3,26.2,37.2,34.4,66.5
		C461.7,188,466,221.5,466,256s-4.3,68-12.4,96.7c-8.3,29.2-20.2,52.2-34.4,66.5c-14.3,14.3-37.2,26.2-66.5,34.4
		C324,461.7,290.5,466,256,466s-68-4.3-96.7-12.4c-29.2-8.3-52.2-20.2-66.5-34.4c-14.3-14.3-26.2-37.2-34.4-66.5
		C50.3,324,46,290.5,46,256s4.3-68,12.4-96.7c8.3-29.2,20.2-52.2,34.4-66.5c14.3-14.3,37.2-26.2,66.5-34.4C188,50.3,221.5,46,256,46
		 M256,26c-71.1,0-142.1,17.6-177.3,52.7C8.4,149,8.4,363,78.7,433.3C113.9,468.5,184.9,486,256,486s142.1-17.6,177.3-52.7
		c70.3-70.3,70.3-284.3,0-354.6C398.1,43.6,327.1,26,256,26L256,26z"/>
</g>
</svg>
