<?xml version="1.0" encoding="UTF-8" standalone="no"?>
<svg
   xmlns:dc="http://purl.org/dc/elements/1.1/"
   xmlns:cc="http://creativecommons.org/ns#"
   xmlns:rdf="http://www.w3.org/1999/02/22-rdf-syntax-ns#"
   xmlns:svg="http://www.w3.org/2000/svg"
   xmlns="http://www.w3.org/2000/svg"
   viewBox="0 0 640 640"
   height="640"
   width="640"
   xml:space="preserve"
   version="1.1"
   id="svg2"><metadata
     id="metadata8"><rdf:RDF><cc:Work
         rdf:about=""><dc:format>image/svg+xml</dc:format><dc:type
           rdf:resource="http://purl.org/dc/dcmitype/StillImage" /></cc:Work></rdf:RDF></metadata><defs
     id="defs6"><clipPath
       id="clipPath16"
       clipPathUnits="userSpaceOnUse"><path
         id="path18"
         d="M 0,512 512,512 512,0 0,0 0,512 Z" /></clipPath><clipPath
       id="clipPath24"
       clipPathUnits="userSpaceOnUse"><path
         id="path26"
         d="m 18.325,493.744 475.4,0 0,-475.4877 -475.4,0 0,475.4877 z" /></clipPath><clipPath
       id="clipPath28"
       clipPathUnits="userSpaceOnUse"><path
         id="path30"
         d="M 448.99,63.029 C 389.293,3.332 122.807,3.332 63.11,63.029 3.413,122.726 3.413,389.312 63.01,449.009 c 59.597,59.696 326.283,59.596 385.98,0 59.697,-59.597 59.597,-326.283 0,-385.98" /></clipPath><radialGradient
       id="radialGradient36"
       spreadMethod="pad"
       gradientTransform="matrix(237.72188,0,0,237.72188,256.02499,256)"
       gradientUnits="userSpaceOnUse"
       r="1"
       cy="0"
       cx="0"
       fy="0"
       fx="0"><stop
         id="stop38"
         offset="0"
         style="stop-opacity:1;stop-color:#ffffff" /><stop
         id="stop40"
         offset="0.8587"
         style="stop-opacity:0.14129854;stop-color:#ffffff" /><stop
         id="stop42"
         offset="1"
         style="stop-opacity:0;stop-color:#ffffff" /></radialGradient><mask
       id="mask44"
       height="1"
       width="1"
       y="0"
       x="0"
       maskUnits="userSpaceOnUse"><g
         id="g46"><g
           id="g48"><g
             id="g50"><g
               id="g52"><path
                 id="path54"
                 style="fill:url(#radialGradient36);stroke:none"
                 d="m -32768,32767 65535,0 0,-65535 -65535,0 0,65535 z" /></g></g></g></g></mask><radialGradient
       id="radialGradient56"
       spreadMethod="pad"
       gradientTransform="matrix(237.72188,0,0,237.72188,256.02499,256)"
       gradientUnits="userSpaceOnUse"
       r="1"
       cy="0"
       cx="0"
       fy="0"
       fx="0"><stop
         id="stop58"
         offset="0"
         style="stop-opacity:1;stop-color:#010101" /><stop
         id="stop60"
         offset="0.8587"
         style="stop-opacity:1;stop-color:#010101" /><stop
         id="stop62"
         offset="1"
         style="stop-opacity:1;stop-color:#010101" /></radialGradient><clipPath
       id="clipPath86"
       clipPathUnits="userSpaceOnUse"><path
         id="path88"
         d="m 18.325,493.744 475.4,0 0,-475.4877 -475.4,0 0,475.4877 z" /></clipPath><clipPath
       id="clipPath90"
       clipPathUnits="userSpaceOnUse"><path
         id="path92"
         d="M 448.99,63.029 C 389.293,3.332 122.807,3.332 63.11,63.029 3.413,122.726 3.413,389.312 63.01,449.009 c 59.597,59.696 326.283,59.596 385.98,0 59.697,-59.597 59.597,-326.283 0,-385.98" /></clipPath><radialGradient
       id="radialGradient98"
       spreadMethod="pad"
       gradientTransform="matrix(188.25467,188.36119,-130.35883,130.27895,256.02499,256.04376)"
       gradientUnits="userSpaceOnUse"
       r="1"
       cy="0"
       cx="0"
       fy="0"
       fx="0"><stop
         id="stop100"
         offset="0"
         style="stop-opacity:1;stop-color:#ffffff" /><stop
         id="stop102"
         offset="0.8587"
         style="stop-opacity:0.14129854;stop-color:#ffffff" /><stop
         id="stop104"
         offset="1"
         style="stop-opacity:0;stop-color:#ffffff" /></radialGradient><mask
       id="mask106"
       height="1"
       width="1"
       y="0"
       x="0"
       maskUnits="userSpaceOnUse"><g
         id="g108"><g
           id="g110"><g
             id="g112"><g
               id="g114"><path
                 id="path116"
                 style="fill:url(#radialGradient98);stroke:none"
                 d="m -32768,32767 65535,0 0,-65535 -65535,0 0,65535 z" /></g></g></g></g></mask><radialGradient
       id="radialGradient118"
       spreadMethod="pad"
       gradientTransform="matrix(188.25467,188.36119,-130.35883,130.27895,256.02499,256.04376)"
       gradientUnits="userSpaceOnUse"
       r="1"
       cy="0"
       cx="0"
       fy="0"
       fx="0"><stop
         id="stop120"
         offset="0"
         style="stop-opacity:1;stop-color:#010101" /><stop
         id="stop122"
         offset="0.8587"
         style="stop-opacity:1;stop-color:#010101" /><stop
         id="stop124"
         offset="1"
         style="stop-opacity:1;stop-color:#010101" /></radialGradient><clipPath
       id="clipPath148"
       clipPathUnits="userSpaceOnUse"><path
         id="path150"
         d="m 18.275,493.694 475.387,0 0,-475.4377 -475.387,0 0,475.4377 z" /></clipPath><clipPath
       id="clipPath152"
       clipPathUnits="userSpaceOnUse"><path
         id="path154"
         d="m 63.01,63.029 c 59.697,-59.697 326.183,-59.697 385.88,0 59.697,59.697 59.697,326.183 0,385.88 -59.697,59.696 -326.183,59.696 -385.88,0.1 -59.697,-59.597 -59.597,-326.283 0,-385.98" /></clipPath><radialGradient
       id="radialGradient160"
       spreadMethod="pad"
       gradientTransform="matrix(-188.28767,188.39421,130.38168,130.30179,255.92499,255.99377)"
       gradientUnits="userSpaceOnUse"
       r="1"
       cy="0"
       cx="0"
       fy="0"
       fx="0"><stop
         id="stop162"
         offset="0"
         style="stop-opacity:1;stop-color:#ffffff" /><stop
         id="stop164"
         offset="0.8587"
         style="stop-opacity:0.14129854;stop-color:#ffffff" /><stop
         id="stop166"
         offset="1"
         style="stop-opacity:0;stop-color:#ffffff" /></radialGradient><mask
       id="mask168"
       height="1"
       width="1"
       y="0"
       x="0"
       maskUnits="userSpaceOnUse"><g
         id="g170"><g
           id="g172"><g
             id="g174"><g
               id="g176"><path
                 id="path178"
                 style="fill:url(#radialGradient160);stroke:none"
                 d="m -32768,32767 65535,0 0,-65535 -65535,0 0,65535 z" /></g></g></g></g></mask><radialGradient
       id="radialGradient180"
       spreadMethod="pad"
       gradientTransform="matrix(-188.28767,188.39421,130.38168,130.30179,255.92499,255.99377)"
       gradientUnits="userSpaceOnUse"
       r="1"
       cy="0"
       cx="0"
       fy="0"
       fx="0"><stop
         id="stop182"
         offset="0"
         style="stop-opacity:1;stop-color:#010101" /><stop
         id="stop184"
         offset="0.8587"
         style="stop-opacity:1;stop-color:#010101" /><stop
         id="stop186"
         offset="1"
         style="stop-opacity:1;stop-color:#010101" /></radialGradient><linearGradient
       id="linearGradient218"
       spreadMethod="pad"
       gradientTransform="matrix(0,459.99902,459.99902,0,256,26.00049)"
       gradientUnits="userSpaceOnUse"
       y2="0"
       x2="1"
       y1="0"
       x1="0"><stop
         id="stop220"
         offset="0"
         style="stop-opacity:1;stop-color:#f7f7f7" /><stop
         id="stop222"
         offset="1"
         style="stop-opacity:1;stop-color:#f7f7f7" /></linearGradient><clipPath
       id="clipPath230"
       clipPathUnits="userSpaceOnUse"><path
         id="path232"
         d="M 0,512 512,512 512,0 0,0 0,512 Z" /></clipPath><clipPath
       id="clipPath238"
       clipPathUnits="userSpaceOnUse"><path
         id="path240"
         d="m 121.048,386.61 270.076,0 0,-270.078 -270.076,0 0,270.078 z" /></clipPath><clipPath
       id="clipPath282"
       clipPathUnits="userSpaceOnUse"><path
         id="path284"
         d="m 125.272,375.675 85.943,0 0,-78.922 -85.943,0 0,78.922 z" /></clipPath><clipPath
       id="clipPath302"
       clipPathUnits="userSpaceOnUse"><path
         id="path304"
         d="m 198.281,308.719 115.438,0 0,-115.438 -115.438,0 0,115.438 z" /></clipPath><clipPath
       id="clipPath322"
       clipPathUnits="userSpaceOnUse"><path
         id="path324"
         d="m 198.281,313.719 115.438,0 0,-115.438 -115.438,0 0,115.438 z" /></clipPath></defs><g
     transform="matrix(1.25,0,0,-1.25,0,640)"
     id="g10"><g
       id="g12"><g
         clip-path="url(#clipPath16)"
         id="g14"><g
           id="g20"><g
             id="g22" /><g
             id="g64"><g
               style="opacity:0.39999402"
               id="g66"
               clip-path="url(#clipPath24)"><g
                 id="g68"><g
                   id="g70"
                   clip-path="url(#clipPath28)"><g
                     id="g72"><g
                       id="g74" /><g
                       id="g76"
                       mask="url(#mask44)"><g
                         id="g78"><path
                           id="path80"
                           style="fill:url(#radialGradient56);stroke:none"
                           d="M 448.99,63.029 C 389.293,3.332 122.807,3.332 63.11,63.029 3.413,122.726 3.413,389.312 63.01,449.009 c 59.597,59.696 326.283,59.596 385.98,0 59.697,-59.597 59.597,-326.283 0,-385.98" /></g></g></g></g></g></g></g></g><g
           id="g82"><g
             id="g84" /><g
             id="g126"><g
               style="opacity:0.39999402"
               id="g128"
               clip-path="url(#clipPath86)"><g
                 id="g130"><g
                   id="g132"
                   clip-path="url(#clipPath90)"><g
                     id="g134"><g
                       id="g136" /><g
                       id="g138"
                       mask="url(#mask106)"><g
                         id="g140"><path
                           id="path142"
                           style="fill:url(#radialGradient118);stroke:none"
                           d="M 448.99,63.029 C 389.293,3.332 122.807,3.332 63.11,63.029 3.413,122.726 3.413,389.312 63.01,449.009 c 59.597,59.696 326.283,59.596 385.98,0 59.697,-59.597 59.597,-326.283 0,-385.98" /></g></g></g></g></g></g></g></g><g
           id="g144"><g
             id="g146" /><g
             id="g188"><g
               style="opacity:0.39999402"
               id="g190"
               clip-path="url(#clipPath148)"><g
                 id="g192"><g
                   id="g194"
                   clip-path="url(#clipPath152)"><g
                     id="g196"><g
                       id="g198" /><g
                       id="g200"
                       mask="url(#mask168)"><g
                         id="g202"><path
                           id="path204"
                           style="fill:url(#radialGradient180);stroke:none"
                           d="m 63.01,63.029 c 59.697,-59.697 326.183,-59.697 385.88,0 59.697,59.697 59.697,326.183 0,385.88 -59.697,59.696 -326.183,59.696 -385.88,0.1 -59.697,-59.597 -59.597,-326.283 0,-385.98" /></g></g></g></g></g></g></g></g></g></g><g
       id="g206"><g
         id="g208"><g
           id="g214"><g
             id="g216"><path
               id="path224"
               style="fill:url(#linearGradient218);stroke:none"
               d="M 78.721,433.279 C 8.427,362.985 8.427,149.015 78.721,78.721 l 0,0 c 70.294,-70.294 284.263,-70.294 354.558,0 l 0,0 c 70.294,70.294 70.294,284.264 0,354.558 l 0,0 C 398.132,468.426 327.066,486 256,486 l 0,0 C 184.934,486 113.868,468.426 78.721,433.279" /></g></g></g></g><g
       id="g226"><g
         clip-path="url(#clipPath230)"
         id="g228"><g
           id="g234"><g
             id="g236" /><g
             id="g242"><g
               style="opacity:0.39999402"
               id="g244"
               clip-path="url(#clipPath238)"><g
                 id="g246"
                 transform="translate(256.0862,386.6098)"><path
                   id="path248"
                   style="fill:#4c4c4c;fill-opacity:1;fill-rule:nonzero;stroke:none"
                   d="m 0,0 c -74.58,0 -135.038,-60.459 -135.038,-135.038 0,-74.58 60.458,-135.04 135.038,-135.04 74.58,0 135.038,60.459 135.038,135.039 C 135.038,-60.46 74.58,0 0,0 m 0,-10.287 c 33.322,0 64.65,-12.976 88.212,-36.539 23.563,-23.562 36.539,-54.89 36.539,-88.212 0,-33.323 -12.976,-64.65 -36.539,-88.213 C 64.65,-246.813 33.322,-259.79 0,-259.79 c -33.322,0 -64.65,12.976 -88.212,36.538 -23.563,23.563 -36.539,54.89 -36.539,88.213 0,33.322 12.976,64.65 36.539,88.212 23.562,23.563 54.89,36.54 88.212,36.54" /></g></g></g></g><g
           transform="translate(256.0716,253.0579)"
           id="g250"><path
             id="path252"
             style="fill:#00bd9b;fill-opacity:1;fill-rule:nonzero;stroke:none"
             d="M 0,0 -66.081,105.752 C -45.815,118.417 -23.896,124.699 0,124.699 L 0,0 Z" /></g><g
           transform="translate(256.0716,253.0579)"
           id="g254"><path
             id="path256"
             style="fill:#2d98e0;fill-opacity:1;fill-rule:nonzero;stroke:none"
             d="m 0,0 -124.397,-8.698 c -3.34,47.747 17.724,89.088 58.315,114.45 L 0,0 Z" /></g><g
           transform="translate(256.0716,253.0579)"
           id="g258"><path
             id="path260"
             style="fill:#9c56b8;fill-opacity:1;fill-rule:nonzero;stroke:none"
             d="m 0,0 102.151,-71.525 c -39.502,-56.416 -117.26,-70.126 -173.676,-30.622 -31.875,22.318 -50.156,54.634 -52.871,93.449 L 0,0 Z" /></g><g
           transform="translate(256.0716,253.0579)"
           id="g262"><path
             id="path264"
             style="fill:#e84c3d;fill-opacity:1;fill-rule:nonzero;stroke:none"
             d="M 0,0 89.701,86.623 C 131.275,43.572 136.474,-22.503 102.147,-71.525 L 0,0 Z" /></g><g
           transform="translate(256.0716,253.0579)"
           id="g266"><path
             id="path268"
             style="fill:#f1c50e;fill-opacity:1;fill-rule:nonzero;stroke:none"
             d="M 0,0 32.275,120.452 C 55.359,114.268 73.1,103.817 89.701,86.626 L 0,0 Z" /></g><g
           transform="translate(256.0716,253.0579)"
           id="g270"><path
             id="path272"
             style="fill:#51d88b;fill-opacity:1;fill-rule:nonzero;stroke:none"
             d="m 0,0 0,124.699 c 11.913,0 20.767,-1.166 32.275,-4.249 L 0,0 Z" /></g><g
           transform="translate(256.0862,395.4678)"
           id="g274"><path
             id="path276"
             style="fill:#d1d1d1;fill-opacity:1;fill-rule:nonzero;stroke:none"
             d="m 0,0 c -74.58,0 -135.038,-60.459 -135.038,-135.038 0,-74.58 60.458,-135.039 135.038,-135.039 74.58,0 135.038,60.459 135.038,135.039 C 135.038,-60.459 74.58,0 0,0 m 0,-10.287 c 33.322,0 64.65,-12.976 88.212,-36.539 23.563,-23.562 36.539,-54.89 36.539,-88.212 0,-33.323 -12.976,-64.65 -36.539,-88.213 C 64.65,-246.813 33.322,-259.79 0,-259.79 c -33.322,0 -64.65,12.977 -88.212,36.539 -23.563,23.563 -36.539,54.89 -36.539,88.213 0,33.322 12.976,64.65 36.539,88.212 23.562,23.563 54.89,36.539 88.212,36.539" /></g><g
           id="g278"><g
             id="g280" /><g
             id="g286"><g
               style="opacity:0.39999402"
               id="g288"
               clip-path="url(#clipPath282)"><g
                 id="g290"
                 transform="translate(166.1017,375.6755)"><path
                   id="path292"
                   style="fill:#4c4c4c;fill-opacity:1;fill-rule:nonzero;stroke:none"
                   d="M 0,0 45.113,-78.922 -40.83,-43.058 0,0 Z" /></g></g></g></g><g
           transform="translate(164.1001,391.9033)"
           id="g294"><path
             id="path296"
             style="fill:#eaeaea;fill-opacity:1;fill-rule:nonzero;stroke:none"
             d="M 0,0 50.882,-93.896 -43.225,-38.72 0,0 Z" /></g><g
           id="g298"><g
             id="g300" /><g
             id="g306"><g
               style="opacity:0.39999402"
               id="g308"
               clip-path="url(#clipPath302)"><g
                 id="g310"
                 transform="translate(256,223.6768)"><path
                   id="path312"
                   style="fill:#000000;fill-opacity:1;fill-rule:nonzero;stroke:none"
                   d="m 0,0 c -15.09,0 -27.323,12.233 -27.323,27.323 0,15.09 12.233,27.323 27.323,27.323 15.09,0 27.323,-12.233 27.323,-27.323 C 27.323,12.233 15.09,0 0,0 m 55.059,35.194 -8.4,2.982 c -1.203,0.427 -2.118,1.407 -2.492,2.628 -1.078,3.515 -2.568,6.85 -4.406,9.955 l 0.018,0.018 4.718,9.912 c 0.727,1.528 0.414,3.349 -0.783,4.545 l -5.803,5.803 c -1.197,1.197 -3.017,1.511 -4.545,0.783 l -9.912,-4.717 -0.018,-0.018 c -3.106,1.837 -6.441,3.328 -9.955,4.405 -1.221,0.374 -2.201,1.289 -2.629,2.492 l -2.982,8.4 c -0.566,1.594 -2.075,2.66 -3.767,2.66 l -8.207,0 c -1.692,0 -3.201,-1.066 -3.767,-2.66 l -2.982,-8.4 c -0.427,-1.203 -1.407,-2.118 -2.628,-2.492 -3.515,-1.077 -6.85,-2.568 -9.956,-4.406 l -0.018,0.019 -9.912,4.718 c -1.528,0.727 -3.348,0.413 -4.544,-0.783 l -5.804,-5.803 c -1.196,-1.197 -1.51,-3.017 -0.783,-4.545 l 4.718,-9.912 0.019,-0.018 c -1.838,-3.106 -3.328,-6.441 -4.405,-9.955 -0.375,-1.221 -1.29,-2.202 -2.493,-2.629 l -8.399,-2.982 c -1.595,-0.566 -2.661,-2.075 -2.661,-3.767 l 0,-8.207 c 0,-1.692 1.066,-3.201 2.661,-3.767 l 8.399,-2.982 c 1.203,-0.428 2.118,-1.408 2.493,-2.629 1.077,-3.514 2.567,-6.85 4.405,-9.955 l -0.019,-0.018 -4.717,-9.912 c -0.728,-1.528 -0.414,-3.348 0.782,-4.544 l 5.804,-5.804 c 1.196,-1.196 3.016,-1.51 4.544,-0.783 l 9.912,4.718 0.018,0.018 c 3.107,-1.838 6.442,-3.327 9.956,-4.405 1.221,-0.374 2.201,-1.289 2.628,-2.493 l 2.982,-8.399 c 0.566,-1.595 2.075,-2.66 3.767,-2.66 l 8.207,0 c 1.692,0 3.201,1.065 3.767,2.66 l 2.983,8.399 c 0.427,1.204 1.407,2.119 2.628,2.493 3.514,1.077 6.85,2.567 9.955,4.405 l 0.018,-0.018 9.912,-4.718 c 1.528,-0.727 3.348,-0.413 4.545,0.783 l 5.803,5.803 c 1.197,1.197 1.51,3.017 0.783,4.545 l -4.718,9.912 -0.018,0.018 c 1.838,3.106 3.328,6.441 4.405,9.956 0.375,1.22 1.29,2.2 2.493,2.628 l 8.399,2.981 c 1.595,0.567 2.661,2.075 2.661,3.768 l 0,8.206 c 0,1.693 -1.066,3.201 -2.66,3.768" /></g><g
                 id="g314"
                 transform="translate(276.6667,251)"><path
                   id="path316"
                   style="fill:#000000;fill-opacity:1;fill-rule:nonzero;stroke:none"
                   d="m 0,0 c 0,-11.414 -9.253,-20.667 -20.667,-20.667 -11.414,0 -20.666,9.253 -20.666,20.667 0,11.414 9.252,20.667 20.666,20.667 C -9.253,20.667 0,11.414 0,0" /></g></g></g></g><g
           id="g318"><g
             id="g320" /><g
             id="g326"><g
               style="opacity:0.89999402"
               id="g328"
               clip-path="url(#clipPath322)"><g
                 id="g330"
                 transform="translate(256,228.6768)"><path
                   id="path332"
                   style="fill:#ffffff;fill-opacity:1;fill-rule:nonzero;stroke:none"
                   d="m 0,0 c -15.09,0 -27.323,12.233 -27.323,27.323 0,15.09 12.233,27.323 27.323,27.323 15.09,0 27.323,-12.233 27.323,-27.323 C 27.323,12.233 15.09,0 0,0 m 55.059,35.194 -8.4,2.982 c -1.203,0.427 -2.118,1.407 -2.492,2.628 -1.078,3.515 -2.568,6.85 -4.406,9.955 l 0.018,0.018 4.718,9.912 c 0.727,1.528 0.414,3.349 -0.783,4.545 l -5.803,5.803 c -1.197,1.197 -3.017,1.511 -4.545,0.783 l -9.912,-4.717 -0.018,-0.018 c -3.106,1.837 -6.441,3.328 -9.955,4.405 -1.221,0.374 -2.201,1.289 -2.629,2.492 l -2.982,8.4 c -0.566,1.594 -2.075,2.66 -3.767,2.66 l -8.207,0 c -1.692,0 -3.201,-1.066 -3.767,-2.66 l -2.982,-8.4 c -0.427,-1.203 -1.407,-2.118 -2.628,-2.492 -3.515,-1.077 -6.85,-2.568 -9.956,-4.406 l -0.018,0.019 -9.912,4.718 c -1.528,0.727 -3.348,0.413 -4.544,-0.783 l -5.804,-5.803 c -1.196,-1.197 -1.51,-3.017 -0.783,-4.545 l 4.718,-9.912 0.019,-0.018 c -1.838,-3.106 -3.328,-6.441 -4.405,-9.955 -0.375,-1.221 -1.29,-2.202 -2.493,-2.629 l -8.399,-2.982 c -1.595,-0.566 -2.661,-2.075 -2.661,-3.767 l 0,-8.207 c 0,-1.692 1.066,-3.201 2.661,-3.767 l 8.399,-2.982 c 1.203,-0.428 2.118,-1.408 2.493,-2.629 1.077,-3.514 2.567,-6.85 4.405,-9.955 l -0.019,-0.018 -4.717,-9.912 c -0.728,-1.528 -0.414,-3.348 0.782,-4.544 l 5.804,-5.804 c 1.196,-1.196 3.016,-1.51 4.544,-0.783 l 9.912,4.718 0.018,0.018 c 3.107,-1.838 6.442,-3.327 9.956,-4.405 1.221,-0.374 2.201,-1.289 2.628,-2.493 l 2.982,-8.399 c 0.566,-1.595 2.075,-2.66 3.767,-2.66 l 8.207,0 c 1.692,0 3.201,1.065 3.767,2.66 l 2.983,8.399 c 0.427,1.204 1.407,2.119 2.628,2.493 3.514,1.077 6.85,2.567 9.955,4.405 l 0.018,-0.018 9.912,-4.718 c 1.528,-0.727 3.348,-0.413 4.545,0.783 l 5.803,5.803 c 1.197,1.197 1.51,3.017 0.783,4.545 l -4.718,9.912 -0.018,0.018 c 1.838,3.106 3.328,6.441 4.405,9.956 0.375,1.22 1.29,2.2 2.493,2.628 l 8.399,2.981 c 1.595,0.567 2.661,2.075 2.661,3.768 l 0,8.206 c 0,1.693 -1.066,3.201 -2.66,3.768" /></g><g
                 id="g334"
                 transform="translate(276.6667,256)"><path
                   id="path336"
                   style="fill:#ffffff;fill-opacity:1;fill-rule:nonzero;stroke:none"
                   d="m 0,0 c 0,-11.414 -9.253,-20.667 -20.667,-20.667 -11.414,0 -20.666,9.253 -20.666,20.667 0,11.414 9.252,20.667 20.666,20.667 C -9.253,20.667 0,11.414 0,0" /></g></g></g></g></g></g></g></svg>