<?xml version="1.0" encoding="utf-8"?>
<!-- Generator: Adobe Illustrator 18.0.0, SVG Export Plug-In . SVG Version: 6.00 Build 0)  -->
<!DOCTYPE svg PUBLIC "-//W3C//DTD SVG 1.1//EN" "http://www.w3.org/Graphics/SVG/1.1/DTD/svg11.dtd">
<svg version="1.1" id="Layer_3" xmlns="http://www.w3.org/2000/svg" xmlns:xlink="http://www.w3.org/1999/xlink" x="0px" y="0px"
	 viewBox="0 0 512 512" enable-background="new 0 0 512 512" xml:space="preserve">
<g>
	<g opacity="0.4" enable-background="new    ">
		
			<radialGradient id="SVGID_1_" cx="0.7625" cy="514.25" r="118.8609" gradientTransform="matrix(2 0 0 -2 254.5 1284.5)" gradientUnits="userSpaceOnUse">
			<stop  offset="0" style="stop-color:#010101"/>
			<stop  offset="0.8587" style="stop-color:#010101;stop-opacity:0.1413"/>
			<stop  offset="1" style="stop-color:#010101;stop-opacity:0"/>
		</radialGradient>
		<path fill="url(#SVGID_1_)" d="M448.99,448.971c-59.697,59.697-326.183,59.697-385.88,0s-59.697-326.283-0.1-385.98
			s326.283-59.597,385.98,0S508.587,389.274,448.99,448.971z"/>
	</g>
	<g opacity="0.4" enable-background="new    ">
		
			<radialGradient id="SVGID_2_" cx="1.5285" cy="515.0576" r="133.1551" gradientTransform="matrix(1.4138 -1.4146 -0.979 -0.9784 758.1053 762.0507)" gradientUnits="userSpaceOnUse">
			<stop  offset="0" style="stop-color:#010101"/>
			<stop  offset="0.8587" style="stop-color:#010101;stop-opacity:0.1413"/>
			<stop  offset="1" style="stop-color:#010101;stop-opacity:0"/>
		</radialGradient>
		<path fill="url(#SVGID_2_)" d="M448.99,448.971c-59.697,59.697-326.183,59.697-385.88,0s-59.697-326.283-0.1-385.98
			s326.283-59.597,385.98,0S508.587,389.274,448.99,448.971z"/>
	</g>
	<g opacity="0.4" enable-background="new    ">
		
			<radialGradient id="SVGID_3_" cx="2.5888" cy="513.4733" r="133.1784" gradientTransform="matrix(-1.4138 -1.4146 0.979 -0.9784 -243.1053 762.0507)" gradientUnits="userSpaceOnUse">
			<stop  offset="0" style="stop-color:#010101"/>
			<stop  offset="0.8587" style="stop-color:#010101;stop-opacity:0.1413"/>
			<stop  offset="1" style="stop-color:#010101;stop-opacity:0"/>
		</radialGradient>
		<path fill="url(#SVGID_3_)" d="M63.01,448.971c59.697,59.697,326.183,59.697,385.88,0s59.697-326.183,0-385.88
			s-326.183-59.697-385.88-0.1S3.413,389.274,63.01,448.971z"/>
	</g>
</g>
<radialGradient id="SVGID_4_" cx="256.0002" cy="535" r="229.9996" gradientTransform="matrix(1 0 0 1 0 -279)" gradientUnits="userSpaceOnUse">
	<stop  offset="0" style="stop-color:#94E2FF"/>
	<stop  offset="0.1595" style="stop-color:#8CDBFF"/>
	<stop  offset="0.4066" style="stop-color:#76C8FF"/>
	<stop  offset="0.7087" style="stop-color:#53A9FF"/>
	<stop  offset="1" style="stop-color:#2A85FF"/>
</radialGradient>
<path fill="url(#SVGID_4_)" d="M433.279,433.279c-70.294,70.294-284.264,70.294-354.558,0s-70.294-284.264,0-354.558
	s284.264-70.294,354.558,0S503.574,362.985,433.279,433.279z"/>
<path fill="#FFFFFF" d="M353.266,325.449V186.551c7.333-3.291,12.449-10.642,12.449-19.201c0-11.626-9.425-21.052-21.052-21.052
	c-8.559,0-15.909,5.116-19.201,12.449H186.537c-3.291-7.333-10.642-12.449-19.201-12.449c-11.626,0-21.052,9.425-21.052,21.052
	c0,8.559,5.116,15.909,12.449,19.201v138.898c-7.333,3.291-12.449,10.642-12.449,19.201c0,11.626,9.425,21.052,21.052,21.052
	c8.559,0,15.909-5.116,19.201-12.449h138.926c3.291,7.333,10.642,12.449,19.201,12.449c11.626,0,21.052-9.425,21.052-21.052
	C365.715,336.091,360.599,328.74,353.266,325.449z M175.939,325.449V186.551c4.705-2.112,8.487-5.894,10.598-10.598h138.926
	c2.112,4.705,5.894,8.487,10.598,10.598v138.898c-4.705,2.112-8.487,5.894-10.598,10.598H186.537
	C184.426,331.342,180.644,327.56,175.939,325.449z"/>
<path fill="#FFFFFF" d="M316.799,299.411v-86.822c4.584-2.057,7.782-6.652,7.782-12.002c0-7.268-5.891-13.159-13.159-13.159
	c-5.35,0-9.945,3.198-12.002,7.782h-86.84c-2.057-4.584-6.652-7.782-12.002-7.782c-7.268,0-13.159,5.891-13.159,13.159
	c0,5.35,3.198,9.945,7.782,12.002v86.822c-4.584,2.057-7.782,6.652-7.782,12.002c0,7.268,5.891,13.159,13.159,13.159
	c5.35,0,9.945-3.198,12.002-7.782h86.84c2.057,4.584,6.652,7.782,12.002,7.782c7.267,0,13.159-5.891,13.159-13.159
	C324.581,306.063,321.383,301.468,316.799,299.411z M205.955,299.411v-86.822c2.941-1.32,5.305-3.684,6.625-6.625h86.84
	c1.32,2.941,3.684,5.305,6.625,6.625v86.822c-2.941,1.32-5.305,3.684-6.625,6.625h-86.84
	C211.26,303.095,208.896,300.731,205.955,299.411z"/>
<path fill="#FFFFFF" d="M289.147,279.667v-47.334c2.499-1.122,4.243-3.627,4.243-6.543c0-3.962-3.212-7.174-7.174-7.174
	c-2.917,0-5.422,1.743-6.543,4.243h-47.344c-1.122-2.499-3.627-4.243-6.543-4.243c-3.962,0-7.174,3.212-7.174,7.174
	c0,2.917,1.743,5.422,4.243,6.543v47.334c-2.499,1.122-4.243,3.627-4.243,6.543c0,3.962,3.212,7.174,7.174,7.174
	c2.917,0,5.422-1.743,6.543-4.243h47.344c1.122,2.499,3.627,4.243,6.543,4.243c3.962,0,7.174-3.212,7.174-7.174
	C293.389,283.294,291.646,280.789,289.147,279.667z M228.716,279.667v-47.334c1.603-0.72,2.892-2.008,3.612-3.612h47.344
	c0.72,1.603,2.008,2.892,3.612,3.612v47.334c-1.603,0.72-2.892,2.008-3.612,3.612h-47.344
	C231.608,281.676,230.32,280.387,228.716,279.667z"/>
</svg>
