<?xml version="1.0" encoding="UTF-8" standalone="no"?>
<svg
   xmlns:dc="http://purl.org/dc/elements/1.1/"
   xmlns:cc="http://creativecommons.org/ns#"
   xmlns:rdf="http://www.w3.org/1999/02/22-rdf-syntax-ns#"
   xmlns:svg="http://www.w3.org/2000/svg"
   xmlns="http://www.w3.org/2000/svg"
   id="svg2"
   version="1.1"
   xml:space="preserve"
   width="640"
   height="640"
   viewBox="0 0 640 640"><metadata
     id="metadata8"><rdf:RDF><cc:Work
         rdf:about=""><dc:format>image/svg+xml</dc:format><dc:type
           rdf:resource="http://purl.org/dc/dcmitype/StillImage" /><dc:title></dc:title></cc:Work></rdf:RDF></metadata><defs
     id="defs6"><clipPath
       clipPathUnits="userSpaceOnUse"
       id="clipPath16"><path
         d="M 0,512 512,512 512,0 0,0 0,512 Z"
         id="path18" /></clipPath><clipPath
       clipPathUnits="userSpaceOnUse"
       id="clipPath24"><path
         d="m 18.325,493.744 475.4,0 0,-475.4877 -475.4,0 0,475.4877 z"
         id="path26" /></clipPath><clipPath
       clipPathUnits="userSpaceOnUse"
       id="clipPath28"><path
         d="M 448.99,63.029 C 389.293,3.332 122.807,3.332 63.11,63.029 3.413,122.726 3.413,389.312 63.01,449.009 c 59.597,59.696 326.283,59.596 385.98,0 59.697,-59.597 59.597,-326.283 0,-385.98"
         id="path30" /></clipPath><radialGradient
       fx="0"
       fy="0"
       cx="0"
       cy="0"
       r="1"
       gradientUnits="userSpaceOnUse"
       gradientTransform="matrix(237.72188,0,0,237.72188,256.02499,256)"
       spreadMethod="pad"
       id="radialGradient36"><stop
         style="stop-opacity:1;stop-color:#ffffff"
         offset="0"
         id="stop38" /><stop
         style="stop-opacity:0.14129854;stop-color:#ffffff"
         offset="0.8587"
         id="stop40" /><stop
         style="stop-opacity:0;stop-color:#ffffff"
         offset="1"
         id="stop42" /></radialGradient><mask
       maskUnits="userSpaceOnUse"
       x="0"
       y="0"
       width="1"
       height="1"
       id="mask44"><g
         id="g46"><g
           id="g48"><g
             id="g50"><g
               id="g52"><path
                 d="m -32768,32767 65535,0 0,-65535 -65535,0 0,65535 z"
                 style="fill:url(#radialGradient36);stroke:none"
                 id="path54" /></g></g></g></g></mask><radialGradient
       fx="0"
       fy="0"
       cx="0"
       cy="0"
       r="1"
       gradientUnits="userSpaceOnUse"
       gradientTransform="matrix(237.72188,0,0,237.72188,256.02499,256)"
       spreadMethod="pad"
       id="radialGradient56"><stop
         style="stop-opacity:1;stop-color:#010101"
         offset="0"
         id="stop58" /><stop
         style="stop-opacity:1;stop-color:#010101"
         offset="0.8587"
         id="stop60" /><stop
         style="stop-opacity:1;stop-color:#010101"
         offset="1"
         id="stop62" /></radialGradient><clipPath
       clipPathUnits="userSpaceOnUse"
       id="clipPath86"><path
         d="m 18.325,493.744 475.4,0 0,-475.4877 -475.4,0 0,475.4877 z"
         id="path88" /></clipPath><clipPath
       clipPathUnits="userSpaceOnUse"
       id="clipPath90"><path
         d="M 448.99,63.029 C 389.293,3.332 122.807,3.332 63.11,63.029 3.413,122.726 3.413,389.312 63.01,449.009 c 59.597,59.696 326.283,59.596 385.98,0 59.697,-59.597 59.597,-326.283 0,-385.98"
         id="path92" /></clipPath><radialGradient
       fx="0"
       fy="0"
       cx="0"
       cy="0"
       r="1"
       gradientUnits="userSpaceOnUse"
       gradientTransform="matrix(188.25467,188.36119,-130.35883,130.27895,256.02499,256.04376)"
       spreadMethod="pad"
       id="radialGradient98"><stop
         style="stop-opacity:1;stop-color:#ffffff"
         offset="0"
         id="stop100" /><stop
         style="stop-opacity:0.14129854;stop-color:#ffffff"
         offset="0.8587"
         id="stop102" /><stop
         style="stop-opacity:0;stop-color:#ffffff"
         offset="1"
         id="stop104" /></radialGradient><mask
       maskUnits="userSpaceOnUse"
       x="0"
       y="0"
       width="1"
       height="1"
       id="mask106"><g
         id="g108"><g
           id="g110"><g
             id="g112"><g
               id="g114"><path
                 d="m -32768,32767 65535,0 0,-65535 -65535,0 0,65535 z"
                 style="fill:url(#radialGradient98);stroke:none"
                 id="path116" /></g></g></g></g></mask><radialGradient
       fx="0"
       fy="0"
       cx="0"
       cy="0"
       r="1"
       gradientUnits="userSpaceOnUse"
       gradientTransform="matrix(188.25467,188.36119,-130.35883,130.27895,256.02499,256.04376)"
       spreadMethod="pad"
       id="radialGradient118"><stop
         style="stop-opacity:1;stop-color:#010101"
         offset="0"
         id="stop120" /><stop
         style="stop-opacity:1;stop-color:#010101"
         offset="0.8587"
         id="stop122" /><stop
         style="stop-opacity:1;stop-color:#010101"
         offset="1"
         id="stop124" /></radialGradient><clipPath
       clipPathUnits="userSpaceOnUse"
       id="clipPath148"><path
         d="m 18.275,493.694 475.387,0 0,-475.4377 -475.387,0 0,475.4377 z"
         id="path150" /></clipPath><clipPath
       clipPathUnits="userSpaceOnUse"
       id="clipPath152"><path
         d="m 63.01,63.029 c 59.697,-59.697 326.183,-59.697 385.88,0 59.697,59.697 59.697,326.183 0,385.88 -59.697,59.696 -326.183,59.696 -385.88,0.1 -59.697,-59.597 -59.597,-326.283 0,-385.98"
         id="path154" /></clipPath><radialGradient
       fx="0"
       fy="0"
       cx="0"
       cy="0"
       r="1"
       gradientUnits="userSpaceOnUse"
       gradientTransform="matrix(-188.28767,188.39421,130.38168,130.30179,255.92499,255.99377)"
       spreadMethod="pad"
       id="radialGradient160"><stop
         style="stop-opacity:1;stop-color:#ffffff"
         offset="0"
         id="stop162" /><stop
         style="stop-opacity:0.14129854;stop-color:#ffffff"
         offset="0.8587"
         id="stop164" /><stop
         style="stop-opacity:0;stop-color:#ffffff"
         offset="1"
         id="stop166" /></radialGradient><mask
       maskUnits="userSpaceOnUse"
       x="0"
       y="0"
       width="1"
       height="1"
       id="mask168"><g
         id="g170"><g
           id="g172"><g
             id="g174"><g
               id="g176"><path
                 d="m -32768,32767 65535,0 0,-65535 -65535,0 0,65535 z"
                 style="fill:url(#radialGradient160);stroke:none"
                 id="path178" /></g></g></g></g></mask><radialGradient
       fx="0"
       fy="0"
       cx="0"
       cy="0"
       r="1"
       gradientUnits="userSpaceOnUse"
       gradientTransform="matrix(-188.28767,188.39421,130.38168,130.30179,255.92499,255.99377)"
       spreadMethod="pad"
       id="radialGradient180"><stop
         style="stop-opacity:1;stop-color:#010101"
         offset="0"
         id="stop182" /><stop
         style="stop-opacity:1;stop-color:#010101"
         offset="0.8587"
         id="stop184" /><stop
         style="stop-opacity:1;stop-color:#010101"
         offset="1"
         id="stop186" /></radialGradient></defs><g
     id="g10"
     transform="matrix(1.25,0,0,-1.25,0,640)"><g
       id="g12"><g
         id="g14"
         clip-path="url(#clipPath16)"><g
           id="g20"><g
             id="g22" /><g
             id="g64"><g
               clip-path="url(#clipPath24)"
               id="g66"
               style="opacity:0.39999402"><g
                 id="g68"><g
                   clip-path="url(#clipPath28)"
                   id="g70"><g
                     id="g72"><g
                       id="g74" /><g
                       mask="url(#mask44)"
                       id="g76"><g
                         id="g78"><path
                           d="M 448.99,63.029 C 389.293,3.332 122.807,3.332 63.11,63.029 3.413,122.726 3.413,389.312 63.01,449.009 c 59.597,59.696 326.283,59.596 385.98,0 59.697,-59.597 59.597,-326.283 0,-385.98"
                           style="fill:url(#radialGradient56);stroke:none"
                           id="path80" /></g></g></g></g></g></g></g></g><g
           id="g82"><g
             id="g84" /><g
             id="g126"><g
               clip-path="url(#clipPath86)"
               id="g128"
               style="opacity:0.39999402"><g
                 id="g130"><g
                   clip-path="url(#clipPath90)"
                   id="g132"><g
                     id="g134"><g
                       id="g136" /><g
                       mask="url(#mask106)"
                       id="g138"><g
                         id="g140"><path
                           d="M 448.99,63.029 C 389.293,3.332 122.807,3.332 63.11,63.029 3.413,122.726 3.413,389.312 63.01,449.009 c 59.597,59.696 326.283,59.596 385.98,0 59.697,-59.597 59.597,-326.283 0,-385.98"
                           style="fill:url(#radialGradient118);stroke:none"
                           id="path142" /></g></g></g></g></g></g></g></g><g
           id="g144"><g
             id="g146" /><g
             id="g188"><g
               clip-path="url(#clipPath148)"
               id="g190"
               style="opacity:0.39999402"><g
                 id="g192"><g
                   clip-path="url(#clipPath152)"
                   id="g194"><g
                     id="g196"><g
                       id="g198" /><g
                       mask="url(#mask168)"
                       id="g200"><g
                         id="g202"><path
                           d="m 63.01,63.029 c 59.697,-59.697 326.183,-59.697 385.88,0 59.697,59.697 59.697,326.183 0,385.88 -59.697,59.696 -326.183,59.696 -385.88,0.1 -59.697,-59.597 -59.597,-326.283 0,-385.98"
                           style="fill:url(#radialGradient180);stroke:none"
                           id="path204" /></g></g></g></g></g></g></g></g><g
           id="g206"
           transform="translate(433.2792,78.7208)"><path
             d="m 0,0 c -70.294,-70.294 -284.264,-70.294 -354.558,0 -70.295,70.294 -70.295,284.264 0,354.558 70.294,70.295 284.264,70.295 354.558,0 C 70.294,284.264 70.294,70.294 0,0"
             style="fill:#1e1e1e;fill-opacity:1;fill-rule:nonzero;stroke:none"
             id="path208" /></g><g
           id="g210"
           transform="translate(162.5767,204.0693)" /></g></g></g><path
     id="path57"
     d="m 383.136,363.0235 c 0,-20.22 -5.352,-38.656 -7.772,-48.766 -23.194,-89.009 -61.002,-80.172 -59.303,-83.086 6.131,-10.518 -5.291,-24.473 -5.291,-24.473 -4.299,15.544 -11.345,22.604 -15.874,23.812 -19.843,5.291 -18.425,16.057 -23.481,19.182 -10.018,6.19 -13.141,7.768 -14.552,9.591 0,0 3.307,7.606 9.591,9.26 0,0 7.276,9.591 5.291,13.559 -2.092,4.183 32.972,-15.096 36.71,6.614 9.619,55.871 -22.024,74.307 -22.024,74.307 l 0,13.345 0.01,0 c -10e-4,0.137 -0.01,0.271 -0.01,0.408 0,8.102 2.003,3.91 5.525,10.617 -3.522,0.976 -5.525,2.087 -5.525,3.267 0,1.207 2.09,2.343 5.768,3.336 -3.678,6.82 -5.768,14.623 -5.768,22.915 l 0,16.39 96.706,0 0,-16.39 c 0,-8.292 -2.09,-16.095 -5.768,-22.915 3.678,-0.993 5.768,-2.129 5.768,-3.336 0,-1.179 -2.003,-2.29 -5.525,-3.267 3.522,-6.708 5.525,-2.516 5.525,-10.617 0,-0.137 -0.009,-0.271 -0.01,-0.408 l 0.01,0 0,-13.345 z"
     style="fill:#f4f4f4" /></svg>