<?xml version="1.0" encoding="utf-8"?>
<!-- Generator: Adobe Illustrator 18.0.0, SVG Export Plug-In . SVG Version: 6.00 Build 0)  -->
<!DOCTYPE svg PUBLIC "-//W3C//DTD SVG 1.1//EN" "http://www.w3.org/Graphics/SVG/1.1/DTD/svg11.dtd">
<svg version="1.1" id="Layer_1" xmlns="http://www.w3.org/2000/svg" xmlns:xlink="http://www.w3.org/1999/xlink" x="0px" y="0px"
	 viewBox="0 0 512 512" enable-background="new 0 0 512 512" xml:space="preserve">
<g>
	<g opacity="0.4" enable-background="new    ">
		
			<radialGradient id="SVGID_1_" cx="256.525" cy="254.5188" r="237.7344" gradientTransform="matrix(1 0 0 1 -0.5 1.5)" gradientUnits="userSpaceOnUse">
			<stop  offset="0" style="stop-color:#010101"/>
			<stop  offset="0.8587" style="stop-color:#010101;stop-opacity:0.1413"/>
			<stop  offset="1" style="stop-color:#010101;stop-opacity:0"/>
		</radialGradient>
		<path fill="url(#SVGID_1_)" d="M449,449c-59.7,59.7-326.2,59.7-385.9,0S3.4,122.7,63,63s326.3-59.6,386,0S508.6,389.3,449,449z"/>
	</g>
	<g opacity="0.4" enable-background="new    ">
		
			<radialGradient id="SVGID_2_" cx="257.0394" cy="253.9629" r="266.3242" gradientTransform="matrix(0.7069 -0.7073 0.4895 0.4892 -49.991 313.5403)" gradientUnits="userSpaceOnUse">
			<stop  offset="0" style="stop-color:#010101"/>
			<stop  offset="0.8587" style="stop-color:#010101;stop-opacity:0.1413"/>
			<stop  offset="1" style="stop-color:#010101;stop-opacity:0"/>
		</radialGradient>
		<path fill="url(#SVGID_2_)" d="M449,449c-59.7,59.7-326.2,59.7-385.9,0S3.4,122.7,63,63s326.3-59.6,386,0S508.6,389.3,449,449z"/>
	</g>
	<g opacity="0.4" enable-background="new    ">
		
			<radialGradient id="SVGID_3_" cx="257.7463" cy="255.0872" r="266.3709" gradientTransform="matrix(-0.7069 -0.7073 -0.4895 0.4892 562.991 313.5403)" gradientUnits="userSpaceOnUse">
			<stop  offset="0" style="stop-color:#010101"/>
			<stop  offset="0.8587" style="stop-color:#010101;stop-opacity:0.1413"/>
			<stop  offset="1" style="stop-color:#010101;stop-opacity:0"/>
		</radialGradient>
		<path fill="url(#SVGID_3_)" d="M63,449c59.7,59.7,326.2,59.7,385.9,0s59.7-326.2,0-385.9S122.7,3.4,63,63S3.4,389.3,63,449z"/>
	</g>
</g>
<radialGradient id="SVGID_4_" cx="250.5" cy="819.5" r="261.0019" gradientTransform="matrix(1 0 0 1 -0.5 -565.5)" gradientUnits="userSpaceOnUse">
	<stop  offset="0" style="stop-color:#FFFFFF"/>
	<stop  offset="1" style="stop-color:#E5E5E5"/>
</radialGradient>
<path fill="url(#SVGID_4_)" d="M433.3,433.3c-70.3,70.3-284.3,70.3-354.6,0S8.4,149,78.7,78.7s284.3-70.3,354.6,0
	S503.6,363,433.3,433.3z"/>
<g>
	<g>
		<path fill="#AFAFAF" d="M135.8,146.2l23.1,59.5c9.8,9.8,28.2,7.3,41.1-5.6c12.9-12.9,15.4-31.3,5.6-41.1l-59.5-23.1
			C139.7,133.3,133.3,139.7,135.8,146.2z"/>
		<path fill="#AFAFAF" d="M312,312c-12.9,12.9-15.4,31.3-5.6,41.1l59.5,23.1c6.5,2.5,12.9-3.9,10.4-10.4l-23.1-59.5
			C343.3,296.6,324.9,299.1,312,312z"/>
	</g>
	<g>
		<path fill="#AFAFAF" d="M135.8,365.8l23.1-59.5c9.8-9.8,28.2-7.3,41.1,5.6c12.9,12.9,15.4,31.3,5.6,41.1l-59.5,23.1
			C139.7,378.7,133.3,372.3,135.8,365.8z"/>
		<path fill="#AFAFAF" d="M312,200c-12.9-12.9-15.4-31.3-5.6-41.1l59.5-23.1c6.5-2.5,12.9,3.9,10.4,10.4l-23.1,59.5
			C343.3,215.4,324.9,212.9,312,200z"/>
	</g>
	<circle fill="#777777" cx="256" cy="251" r="119.7"/>
	<g>
		<path fill="#D8D6D6" d="M248.7,93.4L223,151.8c0,13.8,14.8,25.1,33,25.1s33-11.2,33-25.1l-25.7-58.4C260.5,87,251.5,87,248.7,93.4
			z"/>
		<path fill="#D8D6D6" d="M256,335.2c-18.2,0-33,11.2-33,25.1l25.7,58.4c2.8,6.4,11.8,6.4,14.6,0l25.7-58.4
			C289,346.4,274.2,335.2,256,335.2z"/>
	</g>
	<g>
		<path fill="#D8D6D6" d="M418.6,263.3L360.2,289c-13.8,0-25.1-14.8-25.1-33s11.2-33,25.1-33l58.4,25.7
			C425,251.5,425,260.5,418.6,263.3z"/>
		<path fill="#D8D6D6" d="M176.8,256c0,18.2-11.2,33-25.1,33l-58.4-25.7c-6.4-2.8-6.4-11.8,0-14.6l58.4-25.7
			C165.6,223,176.8,237.8,176.8,256z"/>
	</g>
	<circle fill="#D8D6D6" cx="256" cy="256" r="33"/>
	<linearGradient id="SVGID_5_" gradientUnits="userSpaceOnUse" x1="256" y1="289.042" x2="256" y2="256.9353">
		<stop  offset="0" style="stop-color:#A7A7A7"/>
		<stop  offset="1" style="stop-color:#9F9F9F;stop-opacity:0"/>
	</linearGradient>
	<path fill="url(#SVGID_5_)" d="M252.4,257.8l-26,12.9C231.8,281.6,243,289,256,289s24.2-7.5,29.6-18.3l-26-12.9
		C257.3,256.7,254.7,256.7,252.4,257.8z"/>
	
		<linearGradient id="SVGID_6_" gradientUnits="userSpaceOnUse" x1="256" y1="318.042" x2="256" y2="285.635" gradientTransform="matrix(1 0 0 -1 0 540.6581)">
		<stop  offset="0" style="stop-color:#A7A7A7"/>
		<stop  offset="1" style="stop-color:#9F9F9F;stop-opacity:0"/>
	</linearGradient>
	<path fill="url(#SVGID_6_)" d="M252.4,254.2l-26-13.2c5.4-10.9,16.6-18.3,29.6-18.3s24.2,7.5,29.6,18.3l-26,13.2
		C257.3,255.3,254.7,255.3,252.4,254.2z"/>
</g>
</svg>
