<?xml version="1.0" encoding="UTF-8" standalone="no"?>
<svg
   xmlns:dc="http://purl.org/dc/elements/1.1/"
   xmlns:cc="http://creativecommons.org/ns#"
   xmlns:rdf="http://www.w3.org/1999/02/22-rdf-syntax-ns#"
   xmlns:svg="http://www.w3.org/2000/svg"
   xmlns="http://www.w3.org/2000/svg"
   viewBox="0 0 640 640"
   height="640"
   width="640"
   xml:space="preserve"
   version="1.1"
   id="svg2"><metadata
     id="metadata8"><rdf:RDF><cc:Work
         rdf:about=""><dc:format>image/svg+xml</dc:format><dc:type
           rdf:resource="http://purl.org/dc/dcmitype/StillImage" /></cc:Work></rdf:RDF></metadata><defs
     id="defs6"><clipPath
       id="clipPath16"
       clipPathUnits="userSpaceOnUse"><path
         id="path18"
         d="M 0,512 512,512 512,0 0,0 0,512 Z" /></clipPath><clipPath
       id="clipPath24"
       clipPathUnits="userSpaceOnUse"><path
         id="path26"
         d="m 18.325,493.744 475.4,0 0,-475.4877 -475.4,0 0,475.4877 z" /></clipPath><clipPath
       id="clipPath28"
       clipPathUnits="userSpaceOnUse"><path
         id="path30"
         d="M 448.99,63.029 C 389.293,3.332 122.807,3.332 63.11,63.029 3.413,122.726 3.413,389.312 63.01,449.009 c 59.597,59.696 326.283,59.596 385.98,0 59.697,-59.597 59.597,-326.283 0,-385.98" /></clipPath><radialGradient
       id="radialGradient36"
       spreadMethod="pad"
       gradientTransform="matrix(237.72188,0,0,237.72188,256.02499,256)"
       gradientUnits="userSpaceOnUse"
       r="1"
       cy="0"
       cx="0"
       fy="0"
       fx="0"><stop
         id="stop38"
         offset="0"
         style="stop-opacity:1;stop-color:#ffffff" /><stop
         id="stop40"
         offset="0.8587"
         style="stop-opacity:0.14129854;stop-color:#ffffff" /><stop
         id="stop42"
         offset="1"
         style="stop-opacity:0;stop-color:#ffffff" /></radialGradient><mask
       id="mask44"
       height="1"
       width="1"
       y="0"
       x="0"
       maskUnits="userSpaceOnUse"><g
         id="g46"><g
           id="g48"><g
             id="g50"><g
               id="g52"><path
                 id="path54"
                 style="fill:url(#radialGradient36);stroke:none"
                 d="m -32768,32767 65535,0 0,-65535 -65535,0 0,65535 z" /></g></g></g></g></mask><radialGradient
       id="radialGradient56"
       spreadMethod="pad"
       gradientTransform="matrix(237.72188,0,0,237.72188,256.02499,256)"
       gradientUnits="userSpaceOnUse"
       r="1"
       cy="0"
       cx="0"
       fy="0"
       fx="0"><stop
         id="stop58"
         offset="0"
         style="stop-opacity:1;stop-color:#010101" /><stop
         id="stop60"
         offset="0.8587"
         style="stop-opacity:1;stop-color:#010101" /><stop
         id="stop62"
         offset="1"
         style="stop-opacity:1;stop-color:#010101" /></radialGradient><clipPath
       id="clipPath86"
       clipPathUnits="userSpaceOnUse"><path
         id="path88"
         d="m 18.325,493.744 475.4,0 0,-475.4877 -475.4,0 0,475.4877 z" /></clipPath><clipPath
       id="clipPath90"
       clipPathUnits="userSpaceOnUse"><path
         id="path92"
         d="M 448.99,63.029 C 389.293,3.332 122.807,3.332 63.11,63.029 3.413,122.726 3.413,389.312 63.01,449.009 c 59.597,59.696 326.283,59.596 385.98,0 59.697,-59.597 59.597,-326.283 0,-385.98" /></clipPath><radialGradient
       id="radialGradient98"
       spreadMethod="pad"
       gradientTransform="matrix(188.25467,188.36119,-130.35883,130.27895,256.02499,256.04376)"
       gradientUnits="userSpaceOnUse"
       r="1"
       cy="0"
       cx="0"
       fy="0"
       fx="0"><stop
         id="stop100"
         offset="0"
         style="stop-opacity:1;stop-color:#ffffff" /><stop
         id="stop102"
         offset="0.8587"
         style="stop-opacity:0.14129854;stop-color:#ffffff" /><stop
         id="stop104"
         offset="1"
         style="stop-opacity:0;stop-color:#ffffff" /></radialGradient><mask
       id="mask106"
       height="1"
       width="1"
       y="0"
       x="0"
       maskUnits="userSpaceOnUse"><g
         id="g108"><g
           id="g110"><g
             id="g112"><g
               id="g114"><path
                 id="path116"
                 style="fill:url(#radialGradient98);stroke:none"
                 d="m -32768,32767 65535,0 0,-65535 -65535,0 0,65535 z" /></g></g></g></g></mask><radialGradient
       id="radialGradient118"
       spreadMethod="pad"
       gradientTransform="matrix(188.25467,188.36119,-130.35883,130.27895,256.02499,256.04376)"
       gradientUnits="userSpaceOnUse"
       r="1"
       cy="0"
       cx="0"
       fy="0"
       fx="0"><stop
         id="stop120"
         offset="0"
         style="stop-opacity:1;stop-color:#010101" /><stop
         id="stop122"
         offset="0.8587"
         style="stop-opacity:1;stop-color:#010101" /><stop
         id="stop124"
         offset="1"
         style="stop-opacity:1;stop-color:#010101" /></radialGradient><clipPath
       id="clipPath148"
       clipPathUnits="userSpaceOnUse"><path
         id="path150"
         d="m 18.275,493.694 475.387,0 0,-475.4377 -475.387,0 0,475.4377 z" /></clipPath><clipPath
       id="clipPath152"
       clipPathUnits="userSpaceOnUse"><path
         id="path154"
         d="m 63.01,63.029 c 59.697,-59.697 326.183,-59.697 385.88,0 59.697,59.697 59.697,326.183 0,385.88 -59.697,59.696 -326.183,59.696 -385.88,0.1 -59.697,-59.597 -59.597,-326.283 0,-385.98" /></clipPath><radialGradient
       id="radialGradient160"
       spreadMethod="pad"
       gradientTransform="matrix(-188.28767,188.39421,130.38168,130.30179,255.92499,255.99377)"
       gradientUnits="userSpaceOnUse"
       r="1"
       cy="0"
       cx="0"
       fy="0"
       fx="0"><stop
         id="stop162"
         offset="0"
         style="stop-opacity:1;stop-color:#ffffff" /><stop
         id="stop164"
         offset="0.8587"
         style="stop-opacity:0.14129854;stop-color:#ffffff" /><stop
         id="stop166"
         offset="1"
         style="stop-opacity:0;stop-color:#ffffff" /></radialGradient><mask
       id="mask168"
       height="1"
       width="1"
       y="0"
       x="0"
       maskUnits="userSpaceOnUse"><g
         id="g170"><g
           id="g172"><g
             id="g174"><g
               id="g176"><path
                 id="path178"
                 style="fill:url(#radialGradient160);stroke:none"
                 d="m -32768,32767 65535,0 0,-65535 -65535,0 0,65535 z" /></g></g></g></g></mask><radialGradient
       id="radialGradient180"
       spreadMethod="pad"
       gradientTransform="matrix(-188.28767,188.39421,130.38168,130.30179,255.92499,255.99377)"
       gradientUnits="userSpaceOnUse"
       r="1"
       cy="0"
       cx="0"
       fy="0"
       fx="0"><stop
         id="stop182"
         offset="0"
         style="stop-opacity:1;stop-color:#010101" /><stop
         id="stop184"
         offset="0.8587"
         style="stop-opacity:1;stop-color:#010101" /><stop
         id="stop186"
         offset="1"
         style="stop-opacity:1;stop-color:#010101" /></radialGradient><linearGradient
       id="linearGradient218"
       spreadMethod="pad"
       gradientTransform="matrix(0,460,460,0,256,26)"
       gradientUnits="userSpaceOnUse"
       y2="0"
       x2="1"
       y1="0"
       x1="0"><stop
         id="stop220"
         offset="0"
         style="stop-opacity:1;stop-color:#e1efd6" /><stop
         id="stop222"
         offset="1"
         style="stop-opacity:1;stop-color:#e1efd6" /></linearGradient><clipPath
       id="clipPath234"
       clipPathUnits="userSpaceOnUse"><path
         id="path236"
         d="M 0,512 512,512 512,0 0,0 0,512 Z" /></clipPath></defs><g
     transform="matrix(1.25,0,0,-1.25,0,640)"
     id="g10"><g
       id="g12"><g
         clip-path="url(#clipPath16)"
         id="g14"><g
           id="g20"><g
             id="g22" /><g
             id="g64"><g
               style="opacity:0.39999402"
               id="g66"
               clip-path="url(#clipPath24)"><g
                 id="g68"><g
                   id="g70"
                   clip-path="url(#clipPath28)"><g
                     id="g72"><g
                       id="g74" /><g
                       id="g76"
                       mask="url(#mask44)"><g
                         id="g78"><path
                           id="path80"
                           style="fill:url(#radialGradient56);stroke:none"
                           d="M 448.99,63.029 C 389.293,3.332 122.807,3.332 63.11,63.029 3.413,122.726 3.413,389.312 63.01,449.009 c 59.597,59.696 326.283,59.596 385.98,0 59.697,-59.597 59.597,-326.283 0,-385.98" /></g></g></g></g></g></g></g></g><g
           id="g82"><g
             id="g84" /><g
             id="g126"><g
               style="opacity:0.39999402"
               id="g128"
               clip-path="url(#clipPath86)"><g
                 id="g130"><g
                   id="g132"
                   clip-path="url(#clipPath90)"><g
                     id="g134"><g
                       id="g136" /><g
                       id="g138"
                       mask="url(#mask106)"><g
                         id="g140"><path
                           id="path142"
                           style="fill:url(#radialGradient118);stroke:none"
                           d="M 448.99,63.029 C 389.293,3.332 122.807,3.332 63.11,63.029 3.413,122.726 3.413,389.312 63.01,449.009 c 59.597,59.696 326.283,59.596 385.98,0 59.697,-59.597 59.597,-326.283 0,-385.98" /></g></g></g></g></g></g></g></g><g
           id="g144"><g
             id="g146" /><g
             id="g188"><g
               style="opacity:0.39999402"
               id="g190"
               clip-path="url(#clipPath148)"><g
                 id="g192"><g
                   id="g194"
                   clip-path="url(#clipPath152)"><g
                     id="g196"><g
                       id="g198" /><g
                       id="g200"
                       mask="url(#mask168)"><g
                         id="g202"><path
                           id="path204"
                           style="fill:url(#radialGradient180);stroke:none"
                           d="m 63.01,63.029 c 59.697,-59.697 326.183,-59.697 385.88,0 59.697,59.697 59.697,326.183 0,385.88 -59.697,59.696 -326.183,59.696 -385.88,0.1 -59.697,-59.597 -59.597,-326.283 0,-385.98" /></g></g></g></g></g></g></g></g></g></g><g
       id="g206"><g
         id="g208"><g
           id="g214"><g
             id="g216"><path
               id="path224"
               style="fill:url(#linearGradient218);stroke:none"
               d="M 78.721,433.279 C 8.427,362.985 8.427,149.015 78.721,78.721 l 0,0 c 70.294,-70.294 284.264,-70.294 354.558,0 l 0,0 c 70.294,70.294 70.294,284.264 0,354.558 l 0,0 C 398.132,468.426 327.066,486 256,486 l 0,0 C 184.934,486 113.868,468.426 78.721,433.279" /></g></g></g></g><g
       transform="translate(256.0004,167.9456)"
       id="g226"><path
         id="path228"
         style="fill:#ef3b23;fill-opacity:1;fill-rule:nonzero;stroke:none"
         d="M 0,0 57.024,93.03 -46.286,75.51 0,0 Z" /></g><g
       id="g230"><g
         clip-path="url(#clipPath234)"
         id="g232"><g
           transform="translate(194.9282,267.5743)"
           id="g238"><path
             id="path240"
             style="fill:#f68c1e;fill-opacity:1;fill-rule:nonzero;stroke:none"
             d="m 0,0 0.047,-0.072 0.045,-0.073 13.539,-22.088 1.156,-1.885 103.309,17.52 2.512,4.099 1.444,2.354 0.045,0.073 0.047,0.072 c 7.812,11.895 11.942,25.734 11.942,40.02 0,2.695 -0.158,5.444 -0.463,8.175 L -10.126,23.818 C -8.201,15.318 -4.798,7.305 0,0" /></g><g
           transform="translate(328.5215,316.0597)"
           id="g242"><path
             id="path244"
             style="fill:#febc10;fill-opacity:1;fill-rule:nonzero;stroke:none"
             d="m 0,0 -0.039,0.331 c -2.028,16.891 -9.986,32.632 -22.431,44.356 -1.04,0.979 -2.112,1.913 -3.198,2.824 l -109.561,-18.58 c -0.713,-1.195 -1.402,-2.408 -2.052,-3.653 l -0.019,-0.038 -0.037,-0.072 c -5.439,-10.458 -8.196,-21.775 -8.196,-33.635 0,-5.362 0.587,-10.721 1.747,-15.928 0.02,-0.092 0.046,-0.182 0.067,-0.273 L 0.031,-0.291 C 0.019,-0.194 0.011,-0.097 0,0" /></g><g
           transform="translate(256.0004,380.6071)"
           id="g246"><path
             id="path248"
             style="fill:#7bc142;fill-opacity:1;fill-rule:nonzero;stroke:none"
             d="M 0,0 C -25.901,0 -49.547,-13.545 -62.708,-35.615 L 46.853,-17.036 C 33.724,-6.027 17.252,0 0,0" /></g><g
           transform="translate(256.0004,386.1122)"
           id="g250"><path
             id="path252"
             style="fill:#ffffff;fill-opacity:1;fill-rule:nonzero;stroke:none"
             d="m 0,0 c -43.364,0 -78.518,-35.154 -78.518,-78.518 0,-15.894 4.726,-30.682 12.844,-43.043 L 0,-228.701 l 65.673,107.14 c 8.118,12.361 12.845,27.149 12.845,43.043 C 78.518,-35.154 43.364,0 0,0 m 0,-6.167 c 39.894,0 72.35,-32.456 72.35,-72.351 0,-14.156 -4.091,-27.869 -11.832,-39.656 l -0.053,-0.081 -0.05,-0.081 L 0,-216.899 l -60.415,98.562 -0.05,0.082 -0.053,0.08 c -7.741,11.787 -11.832,25.5 -11.832,39.657 0,39.895 32.456,72.351 72.35,72.351" /></g><g
           transform="translate(247.0453,287.6119)"
           id="g254"><path
             id="path256"
             style="fill:#ffffff;fill-opacity:1;fill-rule:nonzero;stroke:none"
             d="m 0,0 c 0,-1.911 -0.926,-3.679 -2.491,-4.779 -1.564,1.1 -2.49,2.868 -2.49,4.779 0,1.912 0.926,3.68 2.49,4.779 C -0.926,3.679 0,1.911 0,0 M 2.503,5.614 C 1.836,5.01 1.282,4.295 0.866,3.5 0.451,4.295 -0.102,5.009 -0.771,5.614 c 1.059,0.309 2.216,0.309 3.274,0 M 6.714,0 c 0,-1.911 -0.926,-3.679 -2.49,-4.779 -1.564,1.1 -2.49,2.867 -2.49,4.779 0,1.912 0.926,3.679 2.49,4.779 C 5.788,3.68 6.714,1.911 6.714,0 M 7.581,3.501 C 7.166,4.296 6.613,5.01 5.945,5.614 c 1.057,0.31 2.213,0.31 3.274,0 C 8.55,5.01 7.997,4.296 7.581,3.501 M 13.429,0 c 0,-1.91 -0.926,-3.678 -2.49,-4.779 -1.565,1.1 -2.491,2.867 -2.491,4.779 0,1.912 0.926,3.679 2.491,4.778 1.565,-1.1 2.49,-2.868 2.49,-4.778 m 0.867,3.501 c -0.415,0.794 -0.968,1.509 -1.637,2.113 1.059,0.31 2.215,0.31 3.273,0 C 15.265,5.01 14.711,4.296 14.296,3.501 m 5.847,-3.502 c 0,-1.911 -0.926,-3.679 -2.49,-4.779 -1.563,1.1 -2.489,2.868 -2.489,4.779 0,1.911 0.926,3.679 2.489,4.779 1.564,-1.099 2.49,-2.868 2.49,-4.779 m 6.226,5.359 c -1.433,1.434 -3.336,2.223 -5.358,2.223 -1.161,0 -2.316,-0.272 -3.358,-0.788 -2.079,1.032 -4.633,1.033 -6.714,0 -2.081,1.032 -4.633,1.033 -6.715,0 -2.081,1.033 -4.634,1.033 -6.715,0 -1.04,0.516 -2.196,0.788 -3.357,0.788 -4.18,0 -7.581,-3.401 -7.581,-7.581 0,-3.855 2.922,-7.091 6.718,-7.524 l 0,-81.062 0.018,-0.392 1.709,-0.002 0,83.187 -0.423,-0.032 c -0.291,-0.022 -0.59,-0.022 -0.881,0 -3.032,0.228 -5.407,2.786 -5.407,5.824 0,3.225 2.623,5.847 5.847,5.847 0.559,0 1.107,-0.078 1.636,-0.232 -1.599,-1.439 -2.503,-3.449 -2.503,-5.616 0,-2.403 1.113,-4.614 3.053,-6.066 0.337,-0.252 0.659,-0.459 0.987,-0.632 l 0.184,-0.098 0.184,0.098 c 0.327,0.173 0.65,0.379 0.988,0.632 0.917,0.686 1.661,1.562 2.186,2.565 C 1.39,-4.505 2.134,-5.381 3.052,-6.068 3.39,-6.32 3.712,-6.527 4.039,-6.7 L 4.223,-6.798 4.407,-6.7 c 0.328,0.173 0.651,0.38 0.988,0.632 0.917,0.686 1.661,1.562 2.185,2.564 0.524,-1.001 1.268,-1.878 2.185,-2.564 0.339,-0.253 0.662,-0.46 0.989,-0.632 l 0.183,-0.098 0.183,0.097 c 0.327,0.172 0.65,0.379 0.99,0.633 0.917,0.686 1.661,1.563 2.184,2.564 0.525,-1.002 1.268,-1.878 2.185,-2.564 0.338,-0.253 0.661,-0.459 0.987,-0.632 l 0.184,-0.098 0.183,0.098 c 0.33,0.174 0.653,0.38 0.989,0.632 1.939,1.452 3.052,3.663 3.052,6.066 0,2.166 -0.904,4.176 -2.502,5.616 0.528,0.154 1.075,0.232 1.635,0.232 3.224,0 5.847,-2.622 5.847,-5.847 0,-2.858 -2.133,-5.34 -4.963,-5.773 -0.324,-0.05 -0.612,-0.074 -0.881,-0.075 l -0.393,-10e-4 0,-83.138 1.727,0 0,81.531 c 3.584,0.641 6.244,3.787 6.244,7.456 0.004,2.022 -0.786,3.926 -2.219,5.359" /></g><g
           transform="translate(287.5239,157.4129)"
           id="g258"><path
             id="path260"
             style="fill:#3a3a3a;fill-opacity:1;fill-rule:nonzero;stroke:none"
             d="m 0,0 0,51.43 -63.046,0 0,-51.432 c 0,-17.41 14.113,-31.523 31.523,-31.523 17.41,0 31.524,14.113 31.524,31.523 C 0,-0.001 0,0 0,0" /></g></g></g></g></svg>