<?xml version="1.0" encoding="UTF-8" standalone="no"?>
<svg
   xmlns:dc="http://purl.org/dc/elements/1.1/"
   xmlns:cc="http://creativecommons.org/ns#"
   xmlns:rdf="http://www.w3.org/1999/02/22-rdf-syntax-ns#"
   xmlns:svg="http://www.w3.org/2000/svg"
   xmlns="http://www.w3.org/2000/svg"
   viewBox="0 0 640 640"
   height="640"
   width="640"
   xml:space="preserve"
   version="1.1"
   id="svg2"><metadata
     id="metadata8"><rdf:RDF><cc:Work
         rdf:about=""><dc:format>image/svg+xml</dc:format><dc:type
           rdf:resource="http://purl.org/dc/dcmitype/StillImage" /></cc:Work></rdf:RDF></metadata><defs
     id="defs6"><clipPath
       id="clipPath16"
       clipPathUnits="userSpaceOnUse"><path
         id="path18"
         d="M 0,512 512,512 512,0 0,0 0,512 Z" /></clipPath><clipPath
       id="clipPath24"
       clipPathUnits="userSpaceOnUse"><path
         id="path26"
         d="m 18.325,493.744 475.4,0 0,-475.4877 -475.4,0 0,475.4877 z" /></clipPath><clipPath
       id="clipPath28"
       clipPathUnits="userSpaceOnUse"><path
         id="path30"
         d="M 448.99,63.029 C 389.293,3.332 122.807,3.332 63.11,63.029 3.413,122.726 3.413,389.312 63.01,449.009 c 59.597,59.696 326.283,59.596 385.98,0 59.697,-59.597 59.597,-326.283 0,-385.98" /></clipPath><radialGradient
       id="radialGradient36"
       spreadMethod="pad"
       gradientTransform="matrix(237.72188,0,0,237.72188,256.02499,256)"
       gradientUnits="userSpaceOnUse"
       r="1"
       cy="0"
       cx="0"
       fy="0"
       fx="0"><stop
         id="stop38"
         offset="0"
         style="stop-opacity:1;stop-color:#ffffff" /><stop
         id="stop40"
         offset="0.8587"
         style="stop-opacity:0.14129854;stop-color:#ffffff" /><stop
         id="stop42"
         offset="1"
         style="stop-opacity:0;stop-color:#ffffff" /></radialGradient><mask
       id="mask44"
       height="1"
       width="1"
       y="0"
       x="0"
       maskUnits="userSpaceOnUse"><g
         id="g46"><g
           id="g48"><g
             id="g50"><g
               id="g52"><path
                 id="path54"
                 style="fill:url(#radialGradient36);stroke:none"
                 d="m -32768,32767 65535,0 0,-65535 -65535,0 0,65535 z" /></g></g></g></g></mask><radialGradient
       id="radialGradient56"
       spreadMethod="pad"
       gradientTransform="matrix(237.72188,0,0,237.72188,256.02499,256)"
       gradientUnits="userSpaceOnUse"
       r="1"
       cy="0"
       cx="0"
       fy="0"
       fx="0"><stop
         id="stop58"
         offset="0"
         style="stop-opacity:1;stop-color:#010101" /><stop
         id="stop60"
         offset="0.8587"
         style="stop-opacity:1;stop-color:#010101" /><stop
         id="stop62"
         offset="1"
         style="stop-opacity:1;stop-color:#010101" /></radialGradient><clipPath
       id="clipPath86"
       clipPathUnits="userSpaceOnUse"><path
         id="path88"
         d="m 18.325,493.744 475.4,0 0,-475.4877 -475.4,0 0,475.4877 z" /></clipPath><clipPath
       id="clipPath90"
       clipPathUnits="userSpaceOnUse"><path
         id="path92"
         d="M 448.99,63.029 C 389.293,3.332 122.807,3.332 63.11,63.029 3.413,122.726 3.413,389.312 63.01,449.009 c 59.597,59.696 326.283,59.596 385.98,0 59.697,-59.597 59.597,-326.283 0,-385.98" /></clipPath><radialGradient
       id="radialGradient98"
       spreadMethod="pad"
       gradientTransform="matrix(188.25467,188.36119,-130.35883,130.27895,256.02499,256.04376)"
       gradientUnits="userSpaceOnUse"
       r="1"
       cy="0"
       cx="0"
       fy="0"
       fx="0"><stop
         id="stop100"
         offset="0"
         style="stop-opacity:1;stop-color:#ffffff" /><stop
         id="stop102"
         offset="0.8587"
         style="stop-opacity:0.14129854;stop-color:#ffffff" /><stop
         id="stop104"
         offset="1"
         style="stop-opacity:0;stop-color:#ffffff" /></radialGradient><mask
       id="mask106"
       height="1"
       width="1"
       y="0"
       x="0"
       maskUnits="userSpaceOnUse"><g
         id="g108"><g
           id="g110"><g
             id="g112"><g
               id="g114"><path
                 id="path116"
                 style="fill:url(#radialGradient98);stroke:none"
                 d="m -32768,32767 65535,0 0,-65535 -65535,0 0,65535 z" /></g></g></g></g></mask><radialGradient
       id="radialGradient118"
       spreadMethod="pad"
       gradientTransform="matrix(188.25467,188.36119,-130.35883,130.27895,256.02499,256.04376)"
       gradientUnits="userSpaceOnUse"
       r="1"
       cy="0"
       cx="0"
       fy="0"
       fx="0"><stop
         id="stop120"
         offset="0"
         style="stop-opacity:1;stop-color:#010101" /><stop
         id="stop122"
         offset="0.8587"
         style="stop-opacity:1;stop-color:#010101" /><stop
         id="stop124"
         offset="1"
         style="stop-opacity:1;stop-color:#010101" /></radialGradient><clipPath
       id="clipPath148"
       clipPathUnits="userSpaceOnUse"><path
         id="path150"
         d="m 18.275,493.694 475.387,0 0,-475.4377 -475.387,0 0,475.4377 z" /></clipPath><clipPath
       id="clipPath152"
       clipPathUnits="userSpaceOnUse"><path
         id="path154"
         d="m 63.01,63.029 c 59.697,-59.697 326.183,-59.697 385.88,0 59.697,59.697 59.697,326.183 0,385.88 -59.697,59.696 -326.183,59.696 -385.88,0.1 -59.697,-59.597 -59.597,-326.283 0,-385.98" /></clipPath><radialGradient
       id="radialGradient160"
       spreadMethod="pad"
       gradientTransform="matrix(-188.28767,188.39421,130.38168,130.30179,255.92499,255.99377)"
       gradientUnits="userSpaceOnUse"
       r="1"
       cy="0"
       cx="0"
       fy="0"
       fx="0"><stop
         id="stop162"
         offset="0"
         style="stop-opacity:1;stop-color:#ffffff" /><stop
         id="stop164"
         offset="0.8587"
         style="stop-opacity:0.14129854;stop-color:#ffffff" /><stop
         id="stop166"
         offset="1"
         style="stop-opacity:0;stop-color:#ffffff" /></radialGradient><mask
       id="mask168"
       height="1"
       width="1"
       y="0"
       x="0"
       maskUnits="userSpaceOnUse"><g
         id="g170"><g
           id="g172"><g
             id="g174"><g
               id="g176"><path
                 id="path178"
                 style="fill:url(#radialGradient160);stroke:none"
                 d="m -32768,32767 65535,0 0,-65535 -65535,0 0,65535 z" /></g></g></g></g></mask><radialGradient
       id="radialGradient180"
       spreadMethod="pad"
       gradientTransform="matrix(-188.28767,188.39421,130.38168,130.30179,255.92499,255.99377)"
       gradientUnits="userSpaceOnUse"
       r="1"
       cy="0"
       cx="0"
       fy="0"
       fx="0"><stop
         id="stop182"
         offset="0"
         style="stop-opacity:1;stop-color:#010101" /><stop
         id="stop184"
         offset="0.8587"
         style="stop-opacity:1;stop-color:#010101" /><stop
         id="stop186"
         offset="1"
         style="stop-opacity:1;stop-color:#010101" /></radialGradient><linearGradient
       id="linearGradient218"
       spreadMethod="pad"
       gradientTransform="matrix(0,460,460,0,256,26)"
       gradientUnits="userSpaceOnUse"
       y2="0"
       x2="1"
       y1="0"
       x1="0"><stop
         id="stop220"
         offset="0"
         style="stop-opacity:1;stop-color:#f7f7f7" /><stop
         id="stop222"
         offset="1"
         style="stop-opacity:1;stop-color:#dcddde" /></linearGradient><clipPath
       id="clipPath230"
       clipPathUnits="userSpaceOnUse"><path
         id="path232"
         d="M 0,512 512,512 512,0 0,0 0,512 Z" /></clipPath><clipPath
       id="clipPath242"
       clipPathUnits="userSpaceOnUse"><path
         id="path244"
         d="M 84.721,256 C 84.721,161.405 161.405,84.721 256,84.721 l 0,0 c 94.595,0 171.279,76.684 171.279,171.279 l 0,0 c 0,94.595 -76.684,171.279 -171.279,171.279 l 0,0 C 161.405,427.279 84.721,350.595 84.721,256" /></clipPath><linearGradient
       id="linearGradient254"
       spreadMethod="pad"
       gradientTransform="matrix(342.5592,0,0,-342.5592,84.720398,256)"
       gradientUnits="userSpaceOnUse"
       y2="0"
       x2="1"
       y1="0"
       x1="0"><stop
         id="stop256"
         offset="0"
         style="stop-opacity:0;stop-color:#ffffff" /><stop
         id="stop258"
         offset="0.1132"
         style="stop-opacity:0.22639811;stop-color:#ffffff" /><stop
         id="stop260"
         offset="0.1813"
         style="stop-opacity:0.36260014;stop-color:#ffffff" /><stop
         id="stop262"
         offset="0.2375"
         style="stop-opacity:0.47499809;stop-color:#ffffff" /><stop
         id="stop264"
         offset="0.2872"
         style="stop-opacity:0.57439536;stop-color:#ffffff" /><stop
         id="stop266"
         offset="0.3326"
         style="stop-opacity:0.6652018;stop-color:#ffffff" /><stop
         id="stop268"
         offset="0.3749"
         style="stop-opacity:0.74979782;stop-color:#ffffff" /><stop
         id="stop270"
         offset="0.4148"
         style="stop-opacity:0.82970932;stop-color:#ffffff" /><stop
         id="stop272"
         offset="0.4528"
         style="stop-opacity:0.90569924;stop-color:#ffffff" /><stop
         id="stop274"
         offset="0.4881"
         style="stop-opacity:0.97610437;stop-color:#ffffff" /><stop
         id="stop276"
         offset="0.5"
         style="stop-opacity:1;stop-color:#ffffff" /><stop
         id="stop278"
         offset="0.5119"
         style="stop-opacity:0.97610437;stop-color:#ffffff" /><stop
         id="stop280"
         offset="0.5472"
         style="stop-opacity:0.90569924;stop-color:#ffffff" /><stop
         id="stop282"
         offset="0.5852"
         style="stop-opacity:0.82970932;stop-color:#ffffff" /><stop
         id="stop284"
         offset="0.6251"
         style="stop-opacity:0.74979782;stop-color:#ffffff" /><stop
         id="stop286"
         offset="0.6674"
         style="stop-opacity:0.6652018;stop-color:#ffffff" /><stop
         id="stop288"
         offset="0.7128"
         style="stop-opacity:0.57439536;stop-color:#ffffff" /><stop
         id="stop290"
         offset="0.7625"
         style="stop-opacity:0.47499809;stop-color:#ffffff" /><stop
         id="stop292"
         offset="0.8187"
         style="stop-opacity:0.36260014;stop-color:#ffffff" /><stop
         id="stop294"
         offset="0.8868"
         style="stop-opacity:0.22639811;stop-color:#ffffff" /><stop
         id="stop296"
         offset="1"
         style="stop-opacity:0;stop-color:#ffffff" /></linearGradient><mask
       id="mask298"
       height="1"
       width="1"
       y="0"
       x="0"
       maskUnits="userSpaceOnUse"><g
         id="g300"><g
           id="g302"><g
             id="g304"><g
               id="g306"><path
                 id="path308"
                 style="fill:url(#linearGradient254);stroke:none"
                 d="m -32768,32767 65535,0 0,-65535 -65535,0 0,65535 z" /></g></g></g></g></mask><linearGradient
       id="linearGradient314"
       spreadMethod="pad"
       gradientTransform="matrix(342.5592,0,0,-342.5592,84.720398,256)"
       gradientUnits="userSpaceOnUse"
       y2="0"
       x2="1"
       y1="0"
       x1="0"><stop
         id="stop316"
         offset="0"
         style="stop-opacity:1;stop-color:#000000" /><stop
         id="stop318"
         offset="0.1132"
         style="stop-opacity:1;stop-color:#030303" /><stop
         id="stop320"
         offset="0.1813"
         style="stop-opacity:1;stop-color:#0b0b0b" /><stop
         id="stop322"
         offset="0.2375"
         style="stop-opacity:1;stop-color:#191919" /><stop
         id="stop324"
         offset="0.2872"
         style="stop-opacity:1;stop-color:#2e2e2e" /><stop
         id="stop326"
         offset="0.3326"
         style="stop-opacity:1;stop-color:#484848" /><stop
         id="stop328"
         offset="0.3749"
         style="stop-opacity:1;stop-color:#686868" /><stop
         id="stop330"
         offset="0.4148"
         style="stop-opacity:1;stop-color:#8f8f8f" /><stop
         id="stop332"
         offset="0.4528"
         style="stop-opacity:1;stop-color:#bbbbbb" /><stop
         id="stop334"
         offset="0.4881"
         style="stop-opacity:1;stop-color:#ededed" /><stop
         id="stop336"
         offset="0.5"
         style="stop-opacity:1;stop-color:#ffffff" /><stop
         id="stop338"
         offset="0.5119"
         style="stop-opacity:1;stop-color:#ededed" /><stop
         id="stop340"
         offset="0.5472"
         style="stop-opacity:1;stop-color:#bbbbbb" /><stop
         id="stop342"
         offset="0.5852"
         style="stop-opacity:1;stop-color:#8f8f8f" /><stop
         id="stop344"
         offset="0.6251"
         style="stop-opacity:1;stop-color:#686868" /><stop
         id="stop346"
         offset="0.6674"
         style="stop-opacity:1;stop-color:#484848" /><stop
         id="stop348"
         offset="0.7128"
         style="stop-opacity:1;stop-color:#2e2e2e" /><stop
         id="stop350"
         offset="0.7625"
         style="stop-opacity:1;stop-color:#191919" /><stop
         id="stop352"
         offset="0.8187"
         style="stop-opacity:1;stop-color:#0b0b0b" /><stop
         id="stop354"
         offset="0.8868"
         style="stop-opacity:1;stop-color:#030303" /><stop
         id="stop356"
         offset="1"
         style="stop-opacity:1;stop-color:#000000" /></linearGradient><clipPath
       id="clipPath364"
       clipPathUnits="userSpaceOnUse"><path
         id="path366"
         d="M 84.721,256 C 84.721,161.405 161.405,84.721 256,84.721 l 0,0 c 94.595,0 171.279,76.684 171.279,171.279 l 0,0 c 0,94.595 -76.684,171.279 -171.279,171.279 l 0,0 C 161.405,427.279 84.721,350.595 84.721,256" /></clipPath><linearGradient
       id="linearGradient376"
       spreadMethod="pad"
       gradientTransform="matrix(242.22585,242.22597,-242.22597,242.22585,134.88707,134.88701)"
       gradientUnits="userSpaceOnUse"
       y2="0"
       x2="1"
       y1="0"
       x1="0"><stop
         id="stop378"
         offset="0"
         style="stop-opacity:0;stop-color:#ffffff" /><stop
         id="stop380"
         offset="0.3254"
         style="stop-opacity:0.6509041;stop-color:#ffffff" /><stop
         id="stop382"
         offset="0.5"
         style="stop-opacity:1;stop-color:#ffffff" /><stop
         id="stop384"
         offset="0.6705"
         style="stop-opacity:0.65889982;stop-color:#ffffff" /><stop
         id="stop386"
         offset="1"
         style="stop-opacity:0;stop-color:#ffffff" /></linearGradient><mask
       id="mask388"
       height="1"
       width="1"
       y="0"
       x="0"
       maskUnits="userSpaceOnUse"><g
         id="g390"><g
           id="g392"><g
             id="g394"><g
               id="g396"><path
                 id="path398"
                 style="fill:url(#linearGradient376);stroke:none"
                 d="m -32768,32767 65535,0 0,-65535 -65535,0 0,65535 z" /></g></g></g></g></mask><linearGradient
       id="linearGradient404"
       spreadMethod="pad"
       gradientTransform="matrix(242.22585,242.22597,-242.22597,242.22585,134.88707,134.88701)"
       gradientUnits="userSpaceOnUse"
       y2="0"
       x2="1"
       y1="0"
       x1="0"><stop
         id="stop406"
         offset="0"
         style="stop-opacity:1;stop-color:#000000" /><stop
         id="stop408"
         offset="0.3254"
         style="stop-opacity:1;stop-color:#030303" /><stop
         id="stop410"
         offset="0.5"
         style="stop-opacity:1;stop-color:#2a2a2a" /><stop
         id="stop412"
         offset="0.6705"
         style="stop-opacity:1;stop-color:#030303" /><stop
         id="stop414"
         offset="1"
         style="stop-opacity:1;stop-color:#000000" /></linearGradient><clipPath
       id="clipPath422"
       clipPathUnits="userSpaceOnUse"><path
         id="path424"
         d="M 0,512 512,512 512,0 0,0 0,512 Z" /></clipPath></defs><g
     transform="matrix(1.25,0,0,-1.25,0,640)"
     id="g10"><g
       id="g12"><g
         clip-path="url(#clipPath16)"
         id="g14"><g
           id="g20"><g
             id="g22" /><g
             id="g64"><g
               style="opacity:0.39999402"
               id="g66"
               clip-path="url(#clipPath24)"><g
                 id="g68"><g
                   id="g70"
                   clip-path="url(#clipPath28)"><g
                     id="g72"><g
                       id="g74" /><g
                       id="g76"
                       mask="url(#mask44)"><g
                         id="g78"><path
                           id="path80"
                           style="fill:url(#radialGradient56);stroke:none"
                           d="M 448.99,63.029 C 389.293,3.332 122.807,3.332 63.11,63.029 3.413,122.726 3.413,389.312 63.01,449.009 c 59.597,59.696 326.283,59.596 385.98,0 59.697,-59.597 59.597,-326.283 0,-385.98" /></g></g></g></g></g></g></g></g><g
           id="g82"><g
             id="g84" /><g
             id="g126"><g
               style="opacity:0.39999402"
               id="g128"
               clip-path="url(#clipPath86)"><g
                 id="g130"><g
                   id="g132"
                   clip-path="url(#clipPath90)"><g
                     id="g134"><g
                       id="g136" /><g
                       id="g138"
                       mask="url(#mask106)"><g
                         id="g140"><path
                           id="path142"
                           style="fill:url(#radialGradient118);stroke:none"
                           d="M 448.99,63.029 C 389.293,3.332 122.807,3.332 63.11,63.029 3.413,122.726 3.413,389.312 63.01,449.009 c 59.597,59.696 326.283,59.596 385.98,0 59.697,-59.597 59.597,-326.283 0,-385.98" /></g></g></g></g></g></g></g></g><g
           id="g144"><g
             id="g146" /><g
             id="g188"><g
               style="opacity:0.39999402"
               id="g190"
               clip-path="url(#clipPath148)"><g
                 id="g192"><g
                   id="g194"
                   clip-path="url(#clipPath152)"><g
                     id="g196"><g
                       id="g198" /><g
                       id="g200"
                       mask="url(#mask168)"><g
                         id="g202"><path
                           id="path204"
                           style="fill:url(#radialGradient180);stroke:none"
                           d="m 63.01,63.029 c 59.697,-59.697 326.183,-59.697 385.88,0 59.697,59.697 59.697,326.183 0,385.88 -59.697,59.696 -326.183,59.696 -385.88,0.1 -59.697,-59.597 -59.597,-326.283 0,-385.98" /></g></g></g></g></g></g></g></g></g></g><g
       id="g206"><g
         id="g208"><g
           id="g214"><g
             id="g216"><path
               id="path224"
               style="fill:url(#linearGradient218);stroke:none"
               d="M 78.721,433.279 C 8.427,362.985 8.427,149.015 78.721,78.721 l 0,0 c 70.294,-70.294 284.264,-70.294 354.558,0 l 0,0 c 70.294,70.294 70.294,284.264 0,354.558 l 0,0 C 398.132,468.426 327.066,486 256,486 l 0,0 C 184.934,486 113.868,468.426 78.721,433.279" /></g></g></g></g><g
       id="g226"><g
         clip-path="url(#clipPath230)"
         id="g228"><g
           transform="translate(256,427.2796)"
           id="g234"><path
             id="path236"
             style="fill:#232323;fill-opacity:1;fill-rule:nonzero;stroke:none"
             d="m 0,0 c 94.595,0 171.28,-76.684 171.28,-171.28 0,-94.595 -76.685,-171.279 -171.28,-171.279 -94.595,0 -171.28,76.684 -171.28,171.279 C -171.28,-76.684 -94.595,0 0,0" /></g></g></g><g
       id="g238"><g
         clip-path="url(#clipPath242)"
         id="g240"><g
           id="g246"><g
             id="g248" /><g
             mask="url(#mask298)"
             id="g310"><g
               id="g312"><path
                 id="path358"
                 style="fill:url(#linearGradient314);stroke:none"
                 d="M 84.721,256 C 84.721,161.405 161.405,84.721 256,84.721 l 0,0 c 94.595,0 171.279,76.684 171.279,171.279 l 0,0 c 0,94.595 -76.684,171.279 -171.279,171.279 l 0,0 C 161.405,427.279 84.721,350.595 84.721,256" /></g></g></g></g></g><g
       id="g360"><g
         clip-path="url(#clipPath364)"
         id="g362"><g
           id="g368"><g
             id="g370" /><g
             mask="url(#mask388)"
             id="g400"><g
               id="g402"><path
                 id="path416"
                 style="fill:url(#linearGradient404);stroke:none"
                 d="M 84.721,256 C 84.721,161.405 161.405,84.721 256,84.721 l 0,0 c 94.595,0 171.279,76.684 171.279,171.279 l 0,0 c 0,94.595 -76.684,171.279 -171.279,171.279 l 0,0 C 161.405,427.279 84.721,350.595 84.721,256" /></g></g></g></g></g><g
       id="g418"><g
         clip-path="url(#clipPath422)"
         id="g420"><g
           transform="translate(256,423.7396)"
           id="g426"><path
             id="path428"
             style="fill:#000000;fill-opacity:1;fill-rule:nonzero;stroke:none"
             d="m 0,0 c -92.493,0 -167.74,-75.248 -167.74,-167.74 0,-92.491 75.247,-167.741 167.74,-167.741 92.493,0 167.741,75.248 167.741,167.741 C 167.74,-75.247 92.493,0 0,0 m 0,-342.558 c -96.396,0 -174.819,78.424 -174.819,174.82 0,96.396 78.423,174.817 174.819,174.817 96.396,0 174.819,-78.423 174.819,-174.819 0,-96.395 -78.423,-174.818 -174.819,-174.818" /></g><g
           transform="translate(256,342.994)"
           id="g430"><path
             id="path432"
             style="fill:#000000;fill-opacity:1;fill-rule:nonzero;stroke:none"
             d="m 0,0 c 48.046,0 86.996,-38.949 86.996,-86.996 0,-48.046 -38.95,-86.996 -86.996,-86.996 -48.046,0 -86.996,38.95 -86.996,86.996 C -86.996,-38.949 -48.046,0 0,0" /></g><g
           transform="translate(256,324.8247)"
           id="g434"><path
             id="path436"
             style="fill:#ff8500;fill-opacity:1;fill-rule:nonzero;stroke:none"
             d="m 0,0 c 38.012,0 68.827,-30.815 68.827,-68.827 0,-38.012 -30.815,-68.826 -68.827,-68.826 -38.012,0 -68.827,30.814 -68.827,68.826 C -68.827,-30.815 -38.012,0 0,0" /></g><g
           transform="translate(187.1734,255.9981)"
           id="g438"><path
             id="path440"
             style="fill:#e59200;fill-opacity:1;fill-rule:nonzero;stroke:none"
             d="m 0,0 c 0,-38.012 30.815,-68.827 68.827,-68.827 38.012,0 68.826,30.815 68.826,68.827 0,0.001 0,0.001 0,0.002 L 0,0.002 C 0,0.001 0,0.001 0,0" /></g><g
           transform="translate(256,315.8521)"
           id="g442"><path
             id="path444"
             style="fill:#e5e5e5;fill-opacity:1;fill-rule:nonzero;stroke:none"
             d="m 0,0 c -33.003,0 -59.852,-26.849 -59.852,-59.852 0,-33.004 26.849,-59.853 59.852,-59.853 33.004,0 59.853,26.849 59.853,59.853 C 59.853,-26.849 33.004,0 0,0 m 0,-121.563 c -34.028,0 -61.71,27.683 -61.71,61.711 0,34.028 27.683,61.71 61.71,61.71 34.028,0 61.711,-27.683 61.711,-61.71 0,-34.028 -27.683,-61.711 -61.711,-61.711" /></g><g
           transform="translate(256,281.9164)"
           id="g446"><path
             id="path448"
             style="fill:#e5e5e5;fill-opacity:1;fill-rule:nonzero;stroke:none"
             d="m 0,0 c -14.29,0 -25.916,-11.626 -25.916,-25.916 0,-14.29 11.626,-25.917 25.916,-25.917 14.29,0 25.916,11.627 25.916,25.917 C 25.916,-11.626 14.29,0 0,0 m 0,-53.691 c -15.315,0 -27.775,12.46 -27.775,27.775 0,15.315 12.46,27.774 27.775,27.774 15.314,0 27.775,-12.459 27.775,-27.774 C 27.775,-41.23 15.314,-53.691 0,-53.691" /></g><g
           transform="translate(256,277.8421)"
           id="g450"><path
             id="path452"
             style="fill:#000000;fill-opacity:1;fill-rule:nonzero;stroke:none"
             d="m 0,0 c 12.064,0 21.844,-9.78 21.844,-21.844 0,-12.064 -9.78,-21.844 -21.844,-21.844 -12.064,0 -21.844,9.78 -21.844,21.844 C -21.844,-9.78 -12.064,0 0,0" /></g><g
           transform="translate(255.9972,357.0797)"
           id="g454"><path
             id="path456"
             style="fill:#000000;fill-opacity:1;fill-rule:nonzero;stroke:none"
             d="m 0,0 c -55.736,0 -101.081,-45.345 -101.081,-101.082 0,-55.735 45.344,-101.08 101.081,-101.08 55.739,0 101.083,45.343 101.083,101.08 C 101.083,-45.346 55.739,0 0,0 m 0,-203.576 c -56.516,0 -102.497,45.979 -102.497,102.494 0,56.518 45.98,102.498 102.497,102.498 56.517,0 102.499,-45.981 102.499,-102.498 0,-56.516 -45.981,-102.494 -102.499,-102.494" /></g><g
           transform="translate(255.9972,390.3511)"
           id="g458"><path
             id="path460"
             style="fill:#000000;fill-opacity:1;fill-rule:nonzero;stroke:none"
             d="m 0,0 c -74.082,0 -134.351,-60.271 -134.351,-134.354 0,-74.081 60.269,-134.351 134.351,-134.351 74.084,0 134.358,60.269 134.358,134.351 C 134.356,-60.27 74.084,0 0,0 m 0,-270.12 c -74.862,0 -135.767,60.905 -135.767,135.767 0,74.864 60.905,135.77 135.767,135.77 74.865,0 135.773,-60.907 135.773,-135.77 C 135.772,-209.216 74.865,-270.12 0,-270.12" /></g></g></g></g></svg>