<?xml version="1.0" encoding="UTF-8" standalone="no"?>
<svg
   xmlns:dc="http://purl.org/dc/elements/1.1/"
   xmlns:cc="http://creativecommons.org/ns#"
   xmlns:rdf="http://www.w3.org/1999/02/22-rdf-syntax-ns#"
   xmlns:svg="http://www.w3.org/2000/svg"
   xmlns="http://www.w3.org/2000/svg"
   viewBox="0 0 640 640"
   height="640"
   width="640"
   xml:space="preserve"
   version="1.1"
   id="svg2"><metadata
     id="metadata8"><rdf:RDF><cc:Work
         rdf:about=""><dc:format>image/svg+xml</dc:format><dc:type
           rdf:resource="http://purl.org/dc/dcmitype/StillImage" /></cc:Work></rdf:RDF></metadata><defs
     id="defs6"><clipPath
       id="clipPath16"
       clipPathUnits="userSpaceOnUse"><path
         id="path18"
         d="M 0,512 512,512 512,0 0,0 0,512 Z" /></clipPath><clipPath
       id="clipPath24"
       clipPathUnits="userSpaceOnUse"><path
         id="path26"
         d="m 18.325,493.744 475.4,0 0,-475.4877 -475.4,0 0,475.4877 z" /></clipPath><clipPath
       id="clipPath28"
       clipPathUnits="userSpaceOnUse"><path
         id="path30"
         d="M 448.99,63.029 C 389.293,3.332 122.807,3.332 63.11,63.029 3.413,122.726 3.413,389.312 63.01,449.009 c 59.597,59.696 326.283,59.596 385.98,0 59.697,-59.597 59.597,-326.283 0,-385.98" /></clipPath><radialGradient
       id="radialGradient36"
       spreadMethod="pad"
       gradientTransform="matrix(237.72188,0,0,237.72188,256.02499,256)"
       gradientUnits="userSpaceOnUse"
       r="1"
       cy="0"
       cx="0"
       fy="0"
       fx="0"><stop
         id="stop38"
         offset="0"
         style="stop-opacity:1;stop-color:#ffffff" /><stop
         id="stop40"
         offset="0.8587"
         style="stop-opacity:0.14129854;stop-color:#ffffff" /><stop
         id="stop42"
         offset="1"
         style="stop-opacity:0;stop-color:#ffffff" /></radialGradient><mask
       id="mask44"
       height="1"
       width="1"
       y="0"
       x="0"
       maskUnits="userSpaceOnUse"><g
         id="g46"><g
           id="g48"><g
             id="g50"><g
               id="g52"><path
                 id="path54"
                 style="fill:url(#radialGradient36);stroke:none"
                 d="m -32768,32767 65535,0 0,-65535 -65535,0 0,65535 z" /></g></g></g></g></mask><radialGradient
       id="radialGradient56"
       spreadMethod="pad"
       gradientTransform="matrix(237.72188,0,0,237.72188,256.02499,256)"
       gradientUnits="userSpaceOnUse"
       r="1"
       cy="0"
       cx="0"
       fy="0"
       fx="0"><stop
         id="stop58"
         offset="0"
         style="stop-opacity:1;stop-color:#010101" /><stop
         id="stop60"
         offset="0.8587"
         style="stop-opacity:1;stop-color:#010101" /><stop
         id="stop62"
         offset="1"
         style="stop-opacity:1;stop-color:#010101" /></radialGradient><clipPath
       id="clipPath86"
       clipPathUnits="userSpaceOnUse"><path
         id="path88"
         d="m 18.325,493.744 475.4,0 0,-475.4877 -475.4,0 0,475.4877 z" /></clipPath><clipPath
       id="clipPath90"
       clipPathUnits="userSpaceOnUse"><path
         id="path92"
         d="M 448.99,63.029 C 389.293,3.332 122.807,3.332 63.11,63.029 3.413,122.726 3.413,389.312 63.01,449.009 c 59.597,59.696 326.283,59.596 385.98,0 59.697,-59.597 59.597,-326.283 0,-385.98" /></clipPath><radialGradient
       id="radialGradient98"
       spreadMethod="pad"
       gradientTransform="matrix(188.25467,188.36119,-130.35883,130.27895,256.02499,256.04376)"
       gradientUnits="userSpaceOnUse"
       r="1"
       cy="0"
       cx="0"
       fy="0"
       fx="0"><stop
         id="stop100"
         offset="0"
         style="stop-opacity:1;stop-color:#ffffff" /><stop
         id="stop102"
         offset="0.8587"
         style="stop-opacity:0.14129854;stop-color:#ffffff" /><stop
         id="stop104"
         offset="1"
         style="stop-opacity:0;stop-color:#ffffff" /></radialGradient><mask
       id="mask106"
       height="1"
       width="1"
       y="0"
       x="0"
       maskUnits="userSpaceOnUse"><g
         id="g108"><g
           id="g110"><g
             id="g112"><g
               id="g114"><path
                 id="path116"
                 style="fill:url(#radialGradient98);stroke:none"
                 d="m -32768,32767 65535,0 0,-65535 -65535,0 0,65535 z" /></g></g></g></g></mask><radialGradient
       id="radialGradient118"
       spreadMethod="pad"
       gradientTransform="matrix(188.25467,188.36119,-130.35883,130.27895,256.02499,256.04376)"
       gradientUnits="userSpaceOnUse"
       r="1"
       cy="0"
       cx="0"
       fy="0"
       fx="0"><stop
         id="stop120"
         offset="0"
         style="stop-opacity:1;stop-color:#010101" /><stop
         id="stop122"
         offset="0.8587"
         style="stop-opacity:1;stop-color:#010101" /><stop
         id="stop124"
         offset="1"
         style="stop-opacity:1;stop-color:#010101" /></radialGradient><clipPath
       id="clipPath148"
       clipPathUnits="userSpaceOnUse"><path
         id="path150"
         d="m 18.275,493.694 475.387,0 0,-475.4377 -475.387,0 0,475.4377 z" /></clipPath><clipPath
       id="clipPath152"
       clipPathUnits="userSpaceOnUse"><path
         id="path154"
         d="m 63.01,63.029 c 59.697,-59.697 326.183,-59.697 385.88,0 59.697,59.697 59.697,326.183 0,385.88 -59.697,59.696 -326.183,59.696 -385.88,0.1 -59.697,-59.597 -59.597,-326.283 0,-385.98" /></clipPath><radialGradient
       id="radialGradient160"
       spreadMethod="pad"
       gradientTransform="matrix(-188.28767,188.39421,130.38168,130.30179,255.92499,255.99377)"
       gradientUnits="userSpaceOnUse"
       r="1"
       cy="0"
       cx="0"
       fy="0"
       fx="0"><stop
         id="stop162"
         offset="0"
         style="stop-opacity:1;stop-color:#ffffff" /><stop
         id="stop164"
         offset="0.8587"
         style="stop-opacity:0.14129854;stop-color:#ffffff" /><stop
         id="stop166"
         offset="1"
         style="stop-opacity:0;stop-color:#ffffff" /></radialGradient><mask
       id="mask168"
       height="1"
       width="1"
       y="0"
       x="0"
       maskUnits="userSpaceOnUse"><g
         id="g170"><g
           id="g172"><g
             id="g174"><g
               id="g176"><path
                 id="path178"
                 style="fill:url(#radialGradient160);stroke:none"
                 d="m -32768,32767 65535,0 0,-65535 -65535,0 0,65535 z" /></g></g></g></g></mask><radialGradient
       id="radialGradient180"
       spreadMethod="pad"
       gradientTransform="matrix(-188.28767,188.39421,130.38168,130.30179,255.92499,255.99377)"
       gradientUnits="userSpaceOnUse"
       r="1"
       cy="0"
       cx="0"
       fy="0"
       fx="0"><stop
         id="stop182"
         offset="0"
         style="stop-opacity:1;stop-color:#010101" /><stop
         id="stop184"
         offset="0.8587"
         style="stop-opacity:1;stop-color:#010101" /><stop
         id="stop186"
         offset="1"
         style="stop-opacity:1;stop-color:#010101" /></radialGradient><linearGradient
       id="linearGradient218"
       spreadMethod="pad"
       gradientTransform="matrix(459.99939,0,0,-459.99939,26.000477,256)"
       gradientUnits="userSpaceOnUse"
       y2="0"
       x2="1"
       y1="0"
       x1="0"><stop
         id="stop220"
         offset="0"
         style="stop-opacity:1;stop-color:#f7f7f7" /><stop
         id="stop222"
         offset="1"
         style="stop-opacity:1;stop-color:#f7f7f7" /></linearGradient><clipPath
       id="clipPath230"
       clipPathUnits="userSpaceOnUse"><path
         id="path232"
         d="M 0,512 512,512 512,0 0,0 0,512 Z" /></clipPath><clipPath
       id="clipPath238"
       clipPathUnits="userSpaceOnUse"><path
         id="path240"
         d="m 110.99,281.708 87.773,0 0,-86.773 -87.773,0 0,86.773 z" /></clipPath><clipPath
       id="clipPath266"
       clipPathUnits="userSpaceOnUse"><path
         id="path268"
         d="m 170.641,341.359 86.773,0 0,-87.774 -86.773,0 0,87.774 z" /></clipPath><clipPath
       id="clipPath294"
       clipPathUnits="userSpaceOnUse"><path
         id="path296"
         d="m 170.641,281.708 86.066,0 0,-86.066 -86.066,0 0,86.066 z" /></clipPath><clipPath
       id="clipPath314"
       clipPathUnits="userSpaceOnUse"><path
         id="path316"
         d="m 170.641,281.708 86.066,0 0,-86.066 -86.066,0 0,86.066 z" /></clipPath><clipPath
       id="clipPath342"
       clipPathUnits="userSpaceOnUse"><path
         id="path344"
         d="m 313.236,281.708 87.774,0 0,-86.773 -87.774,0 0,86.773 z" /></clipPath><clipPath
       id="clipPath370"
       clipPathUnits="userSpaceOnUse"><path
         id="path372"
         d="m 254.586,341.359 86.773,0 0,-87.774 -86.773,0 0,87.774 z" /></clipPath><clipPath
       id="clipPath398"
       clipPathUnits="userSpaceOnUse"><path
         id="path400"
         d="m 255.293,281.708 86.066,0 0,-86.066 -86.066,0 0,86.066 z" /></clipPath><clipPath
       id="clipPath418"
       clipPathUnits="userSpaceOnUse"><path
         id="path420"
         d="m 255.293,281.708 86.066,0 0,-86.066 -86.066,0 0,86.066 z" /></clipPath><clipPath
       id="clipPath446"
       clipPathUnits="userSpaceOnUse"><path
         id="path448"
         d="m 230.292,317.065 51.416,0 0,-120.716 -51.416,0 0,120.716 z" /></clipPath><clipPath
       id="clipPath466"
       clipPathUnits="userSpaceOnUse"><path
         id="path468"
         d="m 230.292,317.065 51.416,0 0,-120.716 -51.416,0 0,120.716 z" /></clipPath><clipPath
       id="clipPath494"
       clipPathUnits="userSpaceOnUse"><path
         id="path496"
         d="m 230.292,258.414 26.708,0 0,-64.479 -26.708,0 0,64.479 z" /></clipPath><clipPath
       id="clipPath514"
       clipPathUnits="userSpaceOnUse"><path
         id="path516"
         d="m 230.292,258.414 26.708,0 0,-64.479 -26.708,0 0,64.479 z" /></clipPath><clipPath
       id="clipPath534"
       clipPathUnits="userSpaceOnUse"><path
         id="path536"
         d="m 230.292,258.414 26.708,0 0,-64.479 -26.708,0 0,64.479 z" /></clipPath><clipPath
       id="clipPath562"
       clipPathUnits="userSpaceOnUse"><path
         id="path564"
         d="m 255,258.414 26.708,0 0,-64.479 -26.708,0 0,64.479 z" /></clipPath><clipPath
       id="clipPath582"
       clipPathUnits="userSpaceOnUse"><path
         id="path584"
         d="m 255,258.414 26.708,0 0,-64.479 -26.708,0 0,64.479 z" /></clipPath><clipPath
       id="clipPath602"
       clipPathUnits="userSpaceOnUse"><path
         id="path604"
         d="m 255,258.414 26.708,0 0,-64.479 -26.708,0 0,64.479 z" /></clipPath><clipPath
       id="clipPath630"
       clipPathUnits="userSpaceOnUse"><path
         id="path632"
         d="m 256,222.057 120.716,0 0,-51.416 -120.716,0 0,51.416 z" /></clipPath><clipPath
       id="clipPath650"
       clipPathUnits="userSpaceOnUse"><path
         id="path652"
         d="m 256,222.057 120.716,0 0,-51.416 -120.716,0 0,51.416 z" /></clipPath><clipPath
       id="clipPath678"
       clipPathUnits="userSpaceOnUse"><path
         id="path680"
         d="m 253.586,222.057 64.478,0 0,-26.708 -64.478,0 0,26.708 z" /></clipPath><clipPath
       id="clipPath698"
       clipPathUnits="userSpaceOnUse"><path
         id="path700"
         d="m 253.586,222.057 64.478,0 0,-26.708 -64.478,0 0,26.708 z" /></clipPath><clipPath
       id="clipPath718"
       clipPathUnits="userSpaceOnUse"><path
         id="path720"
         d="m 253.586,222.057 64.478,0 0,-26.708 -64.478,0 0,26.708 z" /></clipPath><clipPath
       id="clipPath746"
       clipPathUnits="userSpaceOnUse"><path
         id="path748"
         d="m 253.586,197.349 64.478,0 0,-26.708 -64.478,0 0,26.708 z" /></clipPath><clipPath
       id="clipPath766"
       clipPathUnits="userSpaceOnUse"><path
         id="path768"
         d="m 253.586,197.349 64.478,0 0,-26.708 -64.478,0 0,26.708 z" /></clipPath><clipPath
       id="clipPath786"
       clipPathUnits="userSpaceOnUse"><path
         id="path788"
         d="m 253.586,197.349 64.478,0 0,-26.708 -64.478,0 0,26.708 z" /></clipPath><clipPath
       id="clipPath814"
       clipPathUnits="userSpaceOnUse"><path
         id="path816"
         d="m 135.284,222.057 120.716,0 0,-51.416 -120.716,0 0,51.416 z" /></clipPath><clipPath
       id="clipPath834"
       clipPathUnits="userSpaceOnUse"><path
         id="path836"
         d="m 135.284,222.057 120.716,0 0,-51.416 -120.716,0 0,51.416 z" /></clipPath><clipPath
       id="clipPath862"
       clipPathUnits="userSpaceOnUse"><path
         id="path864"
         d="m 193.935,222.057 64.479,0 0,-26.708 -64.479,0 0,26.708 z" /></clipPath><clipPath
       id="clipPath882"
       clipPathUnits="userSpaceOnUse"><path
         id="path884"
         d="m 193.935,222.057 64.479,0 0,-26.708 -64.479,0 0,26.708 z" /></clipPath><clipPath
       id="clipPath902"
       clipPathUnits="userSpaceOnUse"><path
         id="path904"
         d="m 193.935,222.057 64.479,0 0,-26.708 -64.479,0 0,26.708 z" /></clipPath><clipPath
       id="clipPath930"
       clipPathUnits="userSpaceOnUse"><path
         id="path932"
         d="m 193.935,197.349 64.479,0 0,-26.708 -64.479,0 0,26.708 z" /></clipPath><clipPath
       id="clipPath950"
       clipPathUnits="userSpaceOnUse"><path
         id="path952"
         d="m 193.935,197.349 64.479,0 0,-26.708 -64.479,0 0,26.708 z" /></clipPath><clipPath
       id="clipPath970"
       clipPathUnits="userSpaceOnUse"><path
         id="path972"
         d="m 193.935,197.349 64.479,0 0,-26.708 -64.479,0 0,26.708 z" /></clipPath></defs><g
     transform="matrix(1.25,0,0,-1.25,0,640)"
     id="g10"><g
       id="g12"><g
         clip-path="url(#clipPath16)"
         id="g14"><g
           id="g20"><g
             id="g22" /><g
             id="g64"><g
               style="opacity:0.39999402"
               id="g66"
               clip-path="url(#clipPath24)"><g
                 id="g68"><g
                   id="g70"
                   clip-path="url(#clipPath28)"><g
                     id="g72"><g
                       id="g74" /><g
                       id="g76"
                       mask="url(#mask44)"><g
                         id="g78"><path
                           id="path80"
                           style="fill:url(#radialGradient56);stroke:none"
                           d="M 448.99,63.029 C 389.293,3.332 122.807,3.332 63.11,63.029 3.413,122.726 3.413,389.312 63.01,449.009 c 59.597,59.696 326.283,59.596 385.98,0 59.697,-59.597 59.597,-326.283 0,-385.98" /></g></g></g></g></g></g></g></g><g
           id="g82"><g
             id="g84" /><g
             id="g126"><g
               style="opacity:0.39999402"
               id="g128"
               clip-path="url(#clipPath86)"><g
                 id="g130"><g
                   id="g132"
                   clip-path="url(#clipPath90)"><g
                     id="g134"><g
                       id="g136" /><g
                       id="g138"
                       mask="url(#mask106)"><g
                         id="g140"><path
                           id="path142"
                           style="fill:url(#radialGradient118);stroke:none"
                           d="M 448.99,63.029 C 389.293,3.332 122.807,3.332 63.11,63.029 3.413,122.726 3.413,389.312 63.01,449.009 c 59.597,59.696 326.283,59.596 385.98,0 59.697,-59.597 59.597,-326.283 0,-385.98" /></g></g></g></g></g></g></g></g><g
           id="g144"><g
             id="g146" /><g
             id="g188"><g
               style="opacity:0.39999402"
               id="g190"
               clip-path="url(#clipPath148)"><g
                 id="g192"><g
                   id="g194"
                   clip-path="url(#clipPath152)"><g
                     id="g196"><g
                       id="g198" /><g
                       id="g200"
                       mask="url(#mask168)"><g
                         id="g202"><path
                           id="path204"
                           style="fill:url(#radialGradient180);stroke:none"
                           d="m 63.01,63.029 c 59.697,-59.697 326.183,-59.697 385.88,0 59.697,59.697 59.697,326.183 0,385.88 -59.697,59.696 -326.183,59.696 -385.88,0.1 -59.697,-59.597 -59.597,-326.283 0,-385.98" /></g></g></g></g></g></g></g></g></g></g><g
       id="g206"><g
         id="g208"><g
           id="g214"><g
             id="g216"><path
               id="path224"
               style="fill:url(#linearGradient218);stroke:none"
               d="M 78.721,433.279 C 8.427,362.985 8.427,149.015 78.721,78.721 l 0,0 c 70.294,-70.294 284.264,-70.294 354.558,0 l 0,0 c 70.295,70.294 70.294,284.264 0,354.558 l 0,0 C 398.132,468.426 327.066,486 256,486 l 0,0 C 184.934,486 113.868,468.426 78.721,433.279" /></g></g></g></g><g
       id="g226"><g
         clip-path="url(#clipPath230)"
         id="g228"><g
           id="g234"><g
             id="g236" /><g
             id="g242"><g
               style="opacity:0.14999402"
               id="g244"
               clip-path="url(#clipPath238)"><g
                 id="g246"
                 transform="translate(171.6411,280.7081)"><path
                   id="path248"
                   style="fill:#ae00ff;fill-opacity:1;fill-rule:nonzero;stroke:none"
                   d="m 0,0 c 0,-23.295 9.442,-44.385 24.708,-59.651 -21.589,0 -43.178,-8.236 -59.651,-24.708 -16.472,16.472 -24.708,38.061 -24.708,59.651 C -44.385,-9.442 -23.295,0 0,0" /></g><g
                 id="g250"
                 transform="translate(136.7065,197.7632)"><path
                   id="path252"
                   style="fill:#ffffff;fill-opacity:1;fill-rule:nonzero;stroke:none"
                   d="M 0,0 C 15.481,15.13 35.713,23.687 57.304,24.263 42.444,39.938 34.188,60.295 33.94,81.939 12.184,81.688 -8.24,73.147 -23.715,57.821 -23.61,36.043 -15.206,15.563 0,0 m 35.935,82.945 c 0,-22.265 8.67,-43.199 24.415,-58.944 l 1.707,-1.707 -2.414,0 c -22.266,0 -43.199,-8.671 -58.944,-24.415 l -0.707,-0.707 -0.707,0.707 c -16.122,16.122 -25.001,37.558 -25.001,60.357 l 0,0.414 0.293,0.293 c 16.122,16.123 37.557,25.002 60.358,25.002 l 1,0 0,-1 z" /></g></g></g></g><g
           transform="translate(171.6411,280.7081)"
           id="g254"><path
             id="path256"
             style="fill:#6cde47;fill-opacity:1;fill-rule:nonzero;stroke:none"
             d="m 0,0 c 0,-23.295 9.442,-44.385 24.708,-59.651 -21.589,0 -43.178,-8.236 -59.651,-24.708 -16.472,16.472 -24.708,38.061 -24.708,59.651 C -44.385,-9.442 -23.295,0 0,0" /></g><g
           transform="translate(136.7065,197.7632)"
           id="g258"><path
             id="path260"
             style="fill:#ffffff;fill-opacity:1;fill-rule:nonzero;stroke:none"
             d="M 0,0 C 15.481,15.13 35.713,23.687 57.304,24.263 42.444,39.938 34.188,60.295 33.94,81.939 12.184,81.688 -8.24,73.147 -23.715,57.821 -23.61,36.043 -15.206,15.563 0,0 m 35.935,82.945 c 0,-22.265 8.67,-43.199 24.415,-58.944 l 1.707,-1.707 -2.414,0 c -22.266,0 -43.199,-8.671 -58.944,-24.415 l -0.707,-0.707 -0.707,0.707 c -16.122,16.122 -25.001,37.558 -25.001,60.357 l 0,0.414 0.293,0.293 c 16.122,16.123 37.557,25.002 60.358,25.002 l 1,0 0,-1 z" /></g><g
           id="g262"><g
             id="g264" /><g
             id="g270"><g
               style="opacity:0.14999402"
               id="g272"
               clip-path="url(#clipPath266)"><g
                 id="g274"
                 transform="translate(231.2918,255.9999)"><path
                   id="path276"
                   style="fill:#ae00ff;fill-opacity:1;fill-rule:nonzero;stroke:none"
                   d="m 0,0 c -15.266,15.266 -36.356,24.708 -59.651,24.708 0,23.295 9.442,44.385 24.708,59.651 21.59,0 43.179,-8.236 59.651,-24.708 C 8.236,43.179 0,21.589 0,0" /></g><g
                 id="g278"
                 transform="translate(230.3232,258.3384)"><path
                   id="path280"
                   style="fill:#ffffff;fill-opacity:1;fill-rule:nonzero;stroke:none"
                   d="M 0,0 C 0.576,21.591 9.133,41.823 24.263,57.305 8.7,72.51 -11.78,80.914 -33.56,81.02 -48.885,65.545 -57.424,45.12 -57.676,23.364 -36.031,23.116 -15.675,14.86 0,0 m 26.384,58.02 0.707,-0.707 -0.707,-0.708 C 10.64,40.86 1.969,19.927 1.969,-2.339 l 0,-2.414 -1.707,1.707 C -15.483,12.699 -36.416,21.37 -58.682,21.37 l -1,0 0,1 c 0,22.8 8.879,44.235 25.001,60.358 l 0.293,0.293 0.414,0 c 22.8,0 44.235,-8.879 60.358,-25.001" /></g></g></g></g><g
           transform="translate(231.2918,255.9999)"
           id="g282"><path
             id="path284"
             style="fill:#51d88b;fill-opacity:1;fill-rule:nonzero;stroke:none"
             d="m 0,0 c -15.266,15.266 -36.356,24.708 -59.651,24.708 0,23.295 9.442,44.385 24.708,59.651 21.59,0 43.179,-8.236 59.651,-24.708 C 8.236,43.179 0,21.589 0,0" /></g><g
           transform="translate(230.3232,258.3384)"
           id="g286"><path
             id="path288"
             style="fill:#ffffff;fill-opacity:1;fill-rule:nonzero;stroke:none"
             d="M 0,0 C 0.576,21.591 9.133,41.823 24.263,57.305 8.7,72.51 -11.78,80.914 -33.56,81.02 -48.885,65.545 -57.424,45.12 -57.676,23.364 -36.031,23.116 -15.675,14.86 0,0 m 26.384,58.02 0.707,-0.707 -0.707,-0.708 C 10.64,40.86 1.969,19.927 1.969,-2.339 l 0,-2.414 -1.707,1.707 C -15.483,12.699 -36.416,21.37 -58.682,21.37 l -1,0 0,1 c 0,22.8 8.879,44.235 25.001,60.358 l 0.293,0.293 0.414,0 c 22.8,0 44.235,-8.879 60.358,-25.001" /></g><g
           id="g290"><g
             id="g292" /><g
             id="g298"><g
               style="opacity:0.14999402"
               id="g300"
               clip-path="url(#clipPath294)"><g
                 id="g302"
                 transform="translate(196.3493,221.0573)"><path
                   id="path304"
                   style="fill:#ae00ff;fill-opacity:1;fill-rule:nonzero;stroke:none"
                   d="m 0,0 c -15.266,15.266 -24.708,36.356 -24.708,59.651 23.295,0 44.385,-9.442 59.651,-24.708 0,-21.59 8.236,-43.179 24.708,-59.651 C 43.179,-8.236 21.589,0 0,0" /></g><g
                 id="g306"
                 transform="translate(246.7026,205.646)"><path
                   id="path308"
                   style="fill:#ffffff;fill-opacity:1;fill-rule:nonzero;stroke:none"
                   d="M 0,0 C -10.575,14.416 -16.323,31.733 -16.41,49.937 -31.882,65.262 -52.303,73.801 -74.056,74.057 -73.8,52.305 -65.261,31.884 -49.937,16.41 -31.734,16.323 -14.416,10.575 0,0 m -14.704,51.061 0.293,-0.293 0,-0.414 c 0,-22.267 8.671,-43.2 24.415,-58.944 L 8.59,-10.004 C -7.154,5.74 -28.088,14.411 -50.354,14.411 l -0.414,0 -0.293,0.293 c -16.122,16.123 -25.001,37.559 -25.001,60.359 l 0,1 1,0 c 22.801,0 44.236,-8.879 60.358,-25.002" /></g></g></g></g><g
           id="g310"><g
             id="g312" /><g
             id="g318"><g
               style="opacity:0.14999402"
               id="g320"
               clip-path="url(#clipPath314)"><g
                 id="g322"
                 transform="translate(196.3493,221.0573)"><path
                   id="path324"
                   style="fill:#ae00ff;fill-opacity:1;fill-rule:nonzero;stroke:none"
                   d="m 0,0 c -15.266,15.266 -24.708,36.356 -24.708,59.651 23.295,0 44.385,-9.442 59.651,-24.708 0,-21.59 8.236,-43.179 24.708,-59.651 C 43.179,-8.236 21.589,0 0,0" /></g><g
                 id="g326"
                 transform="translate(246.7026,205.646)"><path
                   id="path328"
                   style="fill:#ffffff;fill-opacity:1;fill-rule:nonzero;stroke:none"
                   d="M 0,0 C -10.575,14.416 -16.323,31.733 -16.41,49.937 -31.882,65.262 -52.303,73.801 -74.056,74.057 -73.8,52.305 -65.261,31.884 -49.937,16.41 -31.734,16.323 -14.416,10.575 0,0 m -14.704,51.061 0.293,-0.293 0,-0.414 c 0,-22.267 8.671,-43.2 24.415,-58.944 L 8.59,-10.004 C -7.154,5.74 -28.088,14.411 -50.354,14.411 l -0.414,0 -0.293,0.293 c -16.122,16.123 -25.001,37.559 -25.001,60.359 l 0,1 1,0 c 22.801,0 44.236,-8.879 60.358,-25.002" /></g></g></g></g><g
           transform="translate(196.3493,221.0573)"
           id="g330"><path
             id="path332"
             style="fill:#6cde47;fill-opacity:1;fill-rule:nonzero;stroke:none"
             d="m 0,0 c -15.266,15.266 -24.708,36.356 -24.708,59.651 23.295,0 44.385,-9.442 59.651,-24.708 0,-21.59 8.236,-43.179 24.708,-59.651 C 43.179,-8.236 21.589,0 0,0" /></g><g
           transform="translate(246.7026,205.646)"
           id="g334"><path
             id="path336"
             style="fill:#ffffff;fill-opacity:1;fill-rule:nonzero;stroke:none"
             d="M 0,0 C -10.575,14.416 -16.323,31.733 -16.41,49.937 -31.882,65.262 -52.303,73.801 -74.056,74.057 -73.8,52.305 -65.261,31.884 -49.937,16.41 -31.734,16.323 -14.416,10.575 0,0 m -14.704,51.061 0.293,-0.293 0,-0.414 c 0,-22.267 8.671,-43.2 24.415,-58.944 L 8.59,-10.004 C -7.154,5.74 -28.088,14.411 -50.354,14.411 l -0.414,0 -0.293,0.293 c -16.122,16.123 -25.001,37.559 -25.001,60.359 l 0,1 1,0 c 22.801,0 44.236,-8.879 60.358,-25.002" /></g><g
           id="g338"><g
             id="g340" /><g
             id="g346"><g
               style="opacity:0.14999402"
               id="g348"
               clip-path="url(#clipPath342)"><g
                 id="g350"
                 transform="translate(315.6508,221.0573)"><path
                   id="path352"
                   style="fill:#ae00ff;fill-opacity:1;fill-rule:nonzero;stroke:none"
                   d="m 0,0 c 15.266,15.266 24.708,36.356 24.708,59.651 23.295,0 44.385,-9.443 59.651,-24.708 0,-21.59 -8.236,-43.179 -24.708,-59.651 C 43.179,-8.236 21.589,0 0,0" /></g><g
                 id="g354"
                 transform="translate(375.2939,197.7632)"><path
                   id="path356"
                   style="fill:#ffffff;fill-opacity:1;fill-rule:nonzero;stroke:none"
                   d="M 0,0 C 15.205,15.563 23.609,36.043 23.715,57.821 8.24,73.147 -12.184,81.688 -33.94,81.939 -34.188,60.295 -42.444,39.938 -57.305,24.263 -35.714,23.687 -15.482,15.13 0,0 m 25.423,58.943 0.293,-0.293 0,-0.414 c 0,-22.799 -8.879,-44.235 -25.001,-60.357 l -0.707,-0.707 -0.707,0.707 c -15.745,15.744 -36.679,24.415 -58.945,24.415 l -2.414,0 1.707,1.707 c 15.746,15.745 24.416,36.679 24.416,58.944 l 0,1 1,0 c 22.801,0 44.236,-8.879 60.358,-25.002" /></g></g></g></g><g
           transform="translate(315.6508,221.0573)"
           id="g358"><path
             id="path360"
             style="fill:#2d98e0;fill-opacity:1;fill-rule:nonzero;stroke:none"
             d="m 0,0 c 15.266,15.266 24.708,36.356 24.708,59.651 23.295,0 44.385,-9.443 59.651,-24.708 0,-21.59 -8.236,-43.179 -24.708,-59.651 C 43.179,-8.236 21.589,0 0,0" /></g><g
           transform="translate(375.2939,197.7632)"
           id="g362"><path
             id="path364"
             style="fill:#ffffff;fill-opacity:1;fill-rule:nonzero;stroke:none"
             d="M 0,0 C 15.205,15.563 23.609,36.043 23.715,57.821 8.24,73.147 -12.184,81.688 -33.94,81.939 -34.188,60.295 -42.444,39.938 -57.305,24.263 -35.714,23.687 -15.482,15.13 0,0 m 25.423,58.943 0.293,-0.293 0,-0.414 c 0,-22.799 -8.879,-44.235 -25.001,-60.357 l -0.707,-0.707 -0.707,0.707 c -15.745,15.744 -36.679,24.415 -58.945,24.415 l -2.414,0 1.707,1.707 c 15.746,15.745 24.416,36.679 24.416,58.944 l 0,1 1,0 c 22.801,0 44.236,-8.879 60.358,-25.002" /></g><g
           id="g366"><g
             id="g368" /><g
             id="g374"><g
               style="opacity:0.14999402"
               id="g376"
               clip-path="url(#clipPath370)"><g
                 id="g378"
                 transform="translate(280.7082,255.9999)"><path
                   id="path380"
                   style="fill:#ae00ff;fill-opacity:1;fill-rule:nonzero;stroke:none"
                   d="M 0,0 C 0,21.589 -8.236,43.179 -24.708,59.651 -8.236,76.123 13.353,84.359 34.943,84.359 50.209,69.093 59.651,48.003 59.651,24.708 36.356,24.708 15.266,15.266 0,0" /></g><g
                 id="g382"
                 transform="translate(281.6768,258.3384)"><path
                   id="path384"
                   style="fill:#ffffff;fill-opacity:1;fill-rule:nonzero;stroke:none"
                   d="M 0,0 C 15.675,14.86 36.032,23.116 57.677,23.364 57.425,45.121 48.885,65.545 33.559,81.02 11.78,80.914 -8.7,72.51 -24.263,57.305 -9.133,41.822 -0.576,21.591 0,0 M 34.681,82.728 C 50.804,66.605 59.683,45.171 59.683,22.37 l 0,-1 -1,0 c -22.266,0 -43.2,-8.671 -58.945,-24.416 l -1.707,-1.707 0,2.414 c 0,22.266 -8.671,43.199 -24.415,58.944 l -0.707,0.708 0.707,0.707 c 16.122,16.122 37.558,25.001 60.358,25.001 l 0.414,0 0.293,-0.293 z" /></g></g></g></g><g
           transform="translate(280.7082,255.9999)"
           id="g386"><path
             id="path388"
             style="fill:#46b5a2;fill-opacity:1;fill-rule:nonzero;stroke:none"
             d="M 0,0 C 0,21.589 -8.236,43.179 -24.708,59.651 -8.236,76.123 13.353,84.359 34.943,84.359 50.209,69.093 59.651,48.003 59.651,24.708 36.356,24.708 15.266,15.266 0,0" /></g><g
           transform="translate(281.6768,258.3384)"
           id="g390"><path
             id="path392"
             style="fill:#ffffff;fill-opacity:1;fill-rule:nonzero;stroke:none"
             d="M 0,0 C 15.675,14.86 36.032,23.116 57.677,23.364 57.425,45.121 48.885,65.545 33.559,81.02 11.78,80.914 -8.7,72.51 -24.263,57.305 -9.133,41.822 -0.576,21.591 0,0 M 34.681,82.728 C 50.804,66.605 59.683,45.171 59.683,22.37 l 0,-1 -1,0 c -22.266,0 -43.2,-8.671 -58.945,-24.416 l -1.707,-1.707 0,2.414 c 0,22.266 -8.671,43.199 -24.415,58.944 l -0.707,0.708 0.707,0.707 c 16.122,16.122 37.558,25.001 60.358,25.001 l 0.414,0 0.293,-0.293 z" /></g><g
           id="g394"><g
             id="g396" /><g
             id="g402"><g
               style="opacity:0.14999402"
               id="g404"
               clip-path="url(#clipPath398)"><g
                 id="g406"
                 transform="translate(315.6508,221.0573)"><path
                   id="path408"
                   style="fill:#ae00ff;fill-opacity:1;fill-rule:nonzero;stroke:none"
                   d="m 0,0 c -21.589,0 -43.179,-8.236 -59.651,-24.708 16.472,16.472 24.708,38.061 24.708,59.651 C -19.677,50.209 1.413,59.651 24.708,59.651 24.708,36.356 15.266,15.266 0,0" /></g><g
                 id="g410"
                 transform="translate(265.2969,205.646)"><path
                   id="path412"
                   style="fill:#ffffff;fill-opacity:1;fill-rule:nonzero;stroke:none"
                   d="M 0,0 C 14.416,10.575 31.734,16.323 49.937,16.41 65.262,31.883 73.801,52.304 74.057,74.057 52.304,73.801 31.883,65.262 16.41,49.937 16.323,31.734 10.575,14.416 0,0 m 76.063,75.063 c 0,-22.8 -8.879,-44.236 -25.002,-60.359 l -0.293,-0.293 -0.414,0 c -22.266,0 -43.2,-8.671 -58.944,-24.415 l -1.414,1.414 C 5.74,7.154 14.411,28.088 14.411,50.354 l 0,0.414 0.293,0.293 c 16.123,16.123 37.559,25.002 60.359,25.002 l 1,0 0,-1 z" /></g></g></g></g><g
           id="g414"><g
             id="g416" /><g
             id="g422"><g
               style="opacity:0.14999402"
               id="g424"
               clip-path="url(#clipPath418)"><g
                 id="g426"
                 transform="translate(315.6508,221.0573)"><path
                   id="path428"
                   style="fill:#ae00ff;fill-opacity:1;fill-rule:nonzero;stroke:none"
                   d="m 0,0 c -21.589,0 -43.179,-8.236 -59.651,-24.708 16.472,16.472 24.708,38.061 24.708,59.651 C -19.677,50.209 1.413,59.651 24.708,59.651 24.708,36.356 15.266,15.266 0,0" /></g><g
                 id="g430"
                 transform="translate(265.2969,205.646)"><path
                   id="path432"
                   style="fill:#ffffff;fill-opacity:1;fill-rule:nonzero;stroke:none"
                   d="M 0,0 C 14.416,10.575 31.734,16.323 49.937,16.41 65.262,31.883 73.801,52.304 74.057,74.057 52.304,73.801 31.883,65.262 16.41,49.937 16.323,31.734 10.575,14.416 0,0 m 76.063,75.063 c 0,-22.8 -8.879,-44.236 -25.002,-60.359 l -0.293,-0.293 -0.414,0 c -22.266,0 -43.2,-8.671 -58.944,-24.415 l -1.414,1.414 C 5.74,7.154 14.411,28.088 14.411,50.354 l 0,0.414 0.293,0.293 c 16.123,16.123 37.559,25.002 60.359,25.002 l 1,0 0,-1 z" /></g></g></g></g><g
           transform="translate(315.6508,221.0573)"
           id="g434"><path
             id="path436"
             style="fill:#46b5a2;fill-opacity:1;fill-rule:nonzero;stroke:none"
             d="m 0,0 c -21.589,0 -43.179,-8.236 -59.651,-24.708 16.472,16.472 24.708,38.061 24.708,59.651 C -19.677,50.209 1.413,59.651 24.708,59.651 24.708,36.356 15.266,15.266 0,0" /></g><g
           transform="translate(265.2969,205.646)"
           id="g438"><path
             id="path440"
             style="fill:#ffffff;fill-opacity:1;fill-rule:nonzero;stroke:none"
             d="M 0,0 C 14.416,10.575 31.734,16.323 49.937,16.41 65.262,31.883 73.801,52.304 74.057,74.057 52.304,73.801 31.883,65.262 16.41,49.937 16.323,31.734 10.575,14.416 0,0 m 76.063,75.063 c 0,-22.8 -8.879,-44.236 -25.002,-60.359 l -0.293,-0.293 -0.414,0 c -22.266,0 -43.2,-8.671 -58.944,-24.415 l -1.414,1.414 C 5.74,7.154 14.411,28.088 14.411,50.354 l 0,0.414 0.293,0.293 c 16.123,16.123 37.559,25.002 60.359,25.002 l 1,0 0,-1 z" /></g><g
           id="g442"><g
             id="g444" /><g
             id="g450"><g
               style="opacity:0.14999402"
               id="g452"
               clip-path="url(#clipPath446)"><g
                 id="g454"
                 transform="translate(231.2918,255.9999)"><path
                   id="path456"
                   style="fill:#ae00ff;fill-opacity:1;fill-rule:nonzero;stroke:none"
                   d="M 0,0 C 0,21.589 8.236,43.179 24.708,59.651 41.18,43.179 49.416,21.589 49.416,0 34.15,-15.266 24.708,-36.356 24.708,-59.651 24.708,-36.356 15.266,-15.266 0,0" /></g><g
                 id="g458"
                 transform="translate(256,209.4976)"><path
                   id="path460"
                   style="fill:#ffffff;fill-opacity:1;fill-rule:nonzero;stroke:none"
                   d="M 0,0 C 2.716,17.671 10.896,33.981 23.707,46.914 23.603,68.69 15.201,89.168 0,104.73 -15.201,89.168 -23.603,68.69 -23.707,46.914 -10.897,33.981 -2.716,17.671 0,0 M 0.707,106.86 C 16.829,90.737 25.708,69.302 25.708,46.502 l 0,-0.414 -0.293,-0.293 C 9.671,30.051 1,9.117 1,-13.148 l -2,0 c 0,22.265 -8.671,43.199 -24.415,58.943 l -0.293,0.293 0,0.414 c 0,22.8 8.879,44.236 25.001,60.358 L 0,107.567 0.707,106.86 Z" /></g></g></g></g><g
           id="g462"><g
             id="g464" /><g
             id="g470"><g
               style="opacity:0.14999402"
               id="g472"
               clip-path="url(#clipPath466)"><g
                 id="g474"
                 transform="translate(231.2918,255.9999)"><path
                   id="path476"
                   style="fill:#ae00ff;fill-opacity:1;fill-rule:nonzero;stroke:none"
                   d="M 0,0 C 0,21.589 8.236,43.179 24.708,59.651 41.18,43.179 49.416,21.589 49.416,0 34.15,-15.266 24.708,-36.356 24.708,-59.651 24.708,-36.356 15.266,-15.266 0,0" /></g><g
                 id="g478"
                 transform="translate(256,209.4976)"><path
                   id="path480"
                   style="fill:#ffffff;fill-opacity:1;fill-rule:nonzero;stroke:none"
                   d="M 0,0 C 2.716,17.671 10.896,33.981 23.707,46.914 23.603,68.69 15.201,89.168 0,104.73 -15.201,89.168 -23.603,68.69 -23.707,46.914 -10.897,33.981 -2.716,17.671 0,0 M 0.707,106.86 C 16.829,90.737 25.708,69.302 25.708,46.502 l 0,-0.414 -0.293,-0.293 C 9.671,30.051 1,9.117 1,-13.148 l -2,0 c 0,22.265 -8.671,43.199 -24.415,58.943 l -0.293,0.293 0,0.414 c 0,22.8 8.879,44.236 25.001,60.358 L 0,107.567 0.707,106.86 Z" /></g></g></g></g><g
           transform="translate(231.2918,255.9999)"
           id="g482"><path
             id="path484"
             style="fill:#51d88b;fill-opacity:1;fill-rule:nonzero;stroke:none"
             d="M 0,0 C 0,21.589 8.236,43.179 24.708,59.651 41.18,43.179 49.416,21.589 49.416,0 34.15,-15.266 24.708,-36.356 24.708,-59.651 24.708,-36.356 15.266,-15.266 0,0" /></g><g
           transform="translate(256,209.4976)"
           id="g486"><path
             id="path488"
             style="fill:#ffffff;fill-opacity:1;fill-rule:nonzero;stroke:none"
             d="M 0,0 C 2.716,17.671 10.896,33.981 23.707,46.914 23.603,68.69 15.201,89.168 0,104.73 -15.201,89.168 -23.603,68.69 -23.707,46.914 -10.897,33.981 -2.716,17.671 0,0 M 0.707,106.86 C 16.829,90.737 25.708,69.302 25.708,46.502 l 0,-0.414 -0.293,-0.293 C 9.671,30.051 1,9.117 1,-13.148 l -2,0 c 0,22.265 -8.671,43.199 -24.415,58.943 l -0.293,0.293 0,0.414 c 0,22.8 8.879,44.236 25.001,60.358 L 0,107.567 0.707,106.86 Z" /></g><g
           id="g490"><g
             id="g492" /><g
             id="g498"><g
               style="opacity:0.14999402"
               id="g500"
               clip-path="url(#clipPath494)"><g
                 id="g502"
                 transform="translate(231.2918,255.9999)"><path
                   id="path504"
                   style="fill:#ae00ff;fill-opacity:1;fill-rule:nonzero;stroke:none"
                   d="M 0,0 C 15.266,-15.266 24.708,-36.356 24.708,-59.651 8.236,-43.179 0,-21.589 0,0" /></g><g
                 id="g506"
                 transform="translate(232.3286,253.4966)"><path
                   id="path508"
                   style="fill:#ffffff;fill-opacity:1;fill-rule:nonzero;stroke:none"
                   d="M 0,0 C 0.6,-20.497 8.566,-39.728 22.635,-54.645 22.035,-34.148 14.069,-14.917 0,0 m -0.33,3.21 c 16.122,-16.122 25.001,-37.558 25.001,-60.357 l 0,-2.415 -1.707,1.708 C 6.842,-41.733 -2.037,-20.298 -2.037,2.503 l 0,2.414 1.707,-1.707 z" /></g></g></g></g><g
           id="g510"><g
             id="g512" /><g
             id="g518"><g
               style="opacity:0.14999402"
               id="g520"
               clip-path="url(#clipPath514)"><g
                 id="g522"
                 transform="translate(231.2918,255.9999)"><path
                   id="path524"
                   style="fill:#ae00ff;fill-opacity:1;fill-rule:nonzero;stroke:none"
                   d="M 0,0 C 15.266,-15.266 24.708,-36.356 24.708,-59.651 8.236,-43.179 0,-21.589 0,0" /></g><g
                 id="g526"
                 transform="translate(232.3286,253.4966)"><path
                   id="path528"
                   style="fill:#ffffff;fill-opacity:1;fill-rule:nonzero;stroke:none"
                   d="M 0,0 C 0.6,-20.497 8.566,-39.728 22.635,-54.645 22.035,-34.148 14.069,-14.917 0,0 m -0.33,3.21 c 16.122,-16.122 25.001,-37.558 25.001,-60.357 l 0,-2.415 -1.707,1.708 C 6.842,-41.733 -2.037,-20.298 -2.037,2.503 l 0,2.414 1.707,-1.707 z" /></g></g></g></g><g
           id="g530"><g
             id="g532" /><g
             id="g538"><g
               style="opacity:0.14999402"
               id="g540"
               clip-path="url(#clipPath534)"><g
                 id="g542"
                 transform="translate(231.2918,255.9999)"><path
                   id="path544"
                   style="fill:#ae00ff;fill-opacity:1;fill-rule:nonzero;stroke:none"
                   d="M 0,0 C 15.266,-15.266 24.708,-36.356 24.708,-59.651 8.236,-43.179 0,-21.589 0,0" /></g><g
                 id="g546"
                 transform="translate(232.3286,253.4966)"><path
                   id="path548"
                   style="fill:#ffffff;fill-opacity:1;fill-rule:nonzero;stroke:none"
                   d="M 0,0 C 0.6,-20.497 8.566,-39.728 22.635,-54.645 22.035,-34.148 14.069,-14.917 0,0 m -0.33,3.21 c 16.122,-16.122 25.001,-37.558 25.001,-60.357 l 0,-2.415 -1.707,1.708 C 6.842,-41.733 -2.037,-20.298 -2.037,2.503 l 0,2.414 1.707,-1.707 z" /></g></g></g></g><g
           transform="translate(231.2918,255.9999)"
           id="g550"><path
             id="path552"
             style="fill:#6cde47;fill-opacity:1;fill-rule:nonzero;stroke:none"
             d="M 0,0 C 15.266,-15.266 24.708,-36.356 24.708,-59.651 8.236,-43.179 0,-21.589 0,0" /></g><g
           transform="translate(232.3286,253.4966)"
           id="g554"><path
             id="path556"
             style="fill:#ffffff;fill-opacity:1;fill-rule:nonzero;stroke:none"
             d="M 0,0 C 0.6,-20.497 8.566,-39.728 22.635,-54.645 22.035,-34.148 14.069,-14.917 0,0 m -0.33,3.21 c 16.122,-16.122 25.001,-37.558 25.001,-60.357 l 0,-2.415 -1.707,1.708 C 6.842,-41.733 -2.037,-20.298 -2.037,2.503 l 0,2.414 1.707,-1.707 z" /></g><g
           id="g558"><g
             id="g560" /><g
             id="g566"><g
               style="opacity:0.14999402"
               id="g568"
               clip-path="url(#clipPath562)"><g
                 id="g570"
                 transform="translate(280.7082,255.9999)"><path
                   id="path572"
                   style="fill:#ae00ff;fill-opacity:1;fill-rule:nonzero;stroke:none"
                   d="M 0,0 C 0,-21.589 -8.236,-43.179 -24.708,-59.651 -24.708,-36.356 -15.266,-15.266 0,0" /></g><g
                 id="g574"
                 transform="translate(279.6719,253.4966)"><path
                   id="path576"
                   style="fill:#ffffff;fill-opacity:1;fill-rule:nonzero;stroke:none"
                   d="M 0,0 C -14.069,-14.917 -22.035,-34.148 -22.636,-54.645 -8.566,-39.728 -0.601,-20.496 0,0 m 2.036,2.503 c 0,-22.8 -8.879,-44.235 -25.001,-60.357 l -1.707,-1.708 0,2.415 c 0,22.799 8.879,44.235 25.001,60.357 l 1.707,1.707 0,-2.414 z" /></g></g></g></g><g
           id="g578"><g
             id="g580" /><g
             id="g586"><g
               style="opacity:0.14999402"
               id="g588"
               clip-path="url(#clipPath582)"><g
                 id="g590"
                 transform="translate(280.7082,255.9999)"><path
                   id="path592"
                   style="fill:#ae00ff;fill-opacity:1;fill-rule:nonzero;stroke:none"
                   d="M 0,0 C 0,-21.589 -8.236,-43.179 -24.708,-59.651 -24.708,-36.356 -15.266,-15.266 0,0" /></g><g
                 id="g594"
                 transform="translate(279.6719,253.4966)"><path
                   id="path596"
                   style="fill:#ffffff;fill-opacity:1;fill-rule:nonzero;stroke:none"
                   d="M 0,0 C -14.069,-14.917 -22.035,-34.148 -22.636,-54.645 -8.566,-39.728 -0.601,-20.496 0,0 m 2.036,2.503 c 0,-22.8 -8.879,-44.235 -25.001,-60.357 l -1.707,-1.708 0,2.415 c 0,22.799 8.879,44.235 25.001,60.357 l 1.707,1.707 0,-2.414 z" /></g></g></g></g><g
           id="g598"><g
             id="g600" /><g
             id="g606"><g
               style="opacity:0.14999402"
               id="g608"
               clip-path="url(#clipPath602)"><g
                 id="g610"
                 transform="translate(280.7082,255.9999)"><path
                   id="path612"
                   style="fill:#ae00ff;fill-opacity:1;fill-rule:nonzero;stroke:none"
                   d="M 0,0 C 0,-21.589 -8.236,-43.179 -24.708,-59.651 -24.708,-36.356 -15.266,-15.266 0,0" /></g><g
                 id="g614"
                 transform="translate(279.6719,253.4966)"><path
                   id="path616"
                   style="fill:#ffffff;fill-opacity:1;fill-rule:nonzero;stroke:none"
                   d="M 0,0 C -14.069,-14.917 -22.035,-34.148 -22.636,-54.645 -8.566,-39.728 -0.601,-20.496 0,0 m 2.036,2.503 c 0,-22.8 -8.879,-44.235 -25.001,-60.357 l -1.707,-1.708 0,2.415 c 0,22.799 8.879,44.235 25.001,60.357 l 1.707,1.707 0,-2.414 z" /></g></g></g></g><g
           transform="translate(280.7082,255.9999)"
           id="g618"><path
             id="path620"
             style="fill:#51d88b;fill-opacity:1;fill-rule:nonzero;stroke:none"
             d="M 0,0 C 0,-21.589 -8.236,-43.179 -24.708,-59.651 -24.708,-36.356 -15.266,-15.266 0,0" /></g><g
           transform="translate(279.6719,253.4966)"
           id="g622"><path
             id="path624"
             style="fill:#ffffff;fill-opacity:1;fill-rule:nonzero;stroke:none"
             d="M 0,0 C -14.069,-14.917 -22.035,-34.148 -22.636,-54.645 -8.566,-39.728 -0.601,-20.496 0,0 m 2.036,2.503 c 0,-22.8 -8.879,-44.235 -25.001,-60.357 l -1.707,-1.708 0,2.415 c 0,22.799 8.879,44.235 25.001,60.357 l 1.707,1.707 0,-2.414 z" /></g><g
           id="g626"><g
             id="g628" /><g
             id="g634"><g
               style="opacity:0.14999402"
               id="g636"
               clip-path="url(#clipPath630)"><g
                 id="g638"
                 transform="translate(315.6508,221.0573)"><path
                   id="path640"
                   style="fill:#ae00ff;fill-opacity:1;fill-rule:nonzero;stroke:none"
                   d="M 0,0 C 21.589,0 43.179,-8.236 59.651,-24.708 43.179,-41.18 21.589,-49.416 0,-49.416 c -15.266,15.266 -36.356,24.708 -59.651,24.708 23.295,0 44.385,9.442 59.651,24.708" /></g><g
                 id="g642"
                 transform="translate(316.0625,172.6421)"><path
                   id="path644"
                   style="fill:#ffffff;fill-opacity:1;fill-rule:nonzero;stroke:none"
                   d="M 0,0 C 21.776,0.104 42.254,8.506 57.816,23.707 42.254,38.908 21.776,47.31 0,47.414 -12.933,34.604 -29.243,26.423 -46.914,23.707 -29.243,20.991 -12.933,12.81 0,0 M 59.946,24.414 60.653,23.707 59.946,23 C 43.824,6.878 22.388,-2.001 -0.412,-2.001 l -0.414,0 -0.293,0.293 c -15.744,15.744 -36.678,24.415 -58.944,24.415 l 0,2 c 22.266,0 43.2,8.671 58.944,24.415 l 0.293,0.293 0.414,0 c 22.8,0 44.235,-8.879 60.358,-25.001" /></g></g></g></g><g
           id="g646"><g
             id="g648" /><g
             id="g654"><g
               style="opacity:0.14999402"
               id="g656"
               clip-path="url(#clipPath650)"><g
                 id="g658"
                 transform="translate(315.6508,221.0573)"><path
                   id="path660"
                   style="fill:#ae00ff;fill-opacity:1;fill-rule:nonzero;stroke:none"
                   d="M 0,0 C 21.589,0 43.179,-8.236 59.651,-24.708 43.179,-41.18 21.589,-49.416 0,-49.416 c -15.266,15.266 -36.356,24.708 -59.651,24.708 23.295,0 44.385,9.442 59.651,24.708" /></g><g
                 id="g662"
                 transform="translate(316.0625,172.6421)"><path
                   id="path664"
                   style="fill:#ffffff;fill-opacity:1;fill-rule:nonzero;stroke:none"
                   d="M 0,0 C 21.776,0.104 42.254,8.506 57.816,23.707 42.254,38.908 21.776,47.31 0,47.414 -12.933,34.604 -29.243,26.423 -46.914,23.707 -29.243,20.991 -12.933,12.81 0,0 M 59.946,24.414 60.653,23.707 59.946,23 C 43.824,6.878 22.388,-2.001 -0.412,-2.001 l -0.414,0 -0.293,0.293 c -15.744,15.744 -36.678,24.415 -58.944,24.415 l 0,2 c 22.266,0 43.2,8.671 58.944,24.415 l 0.293,0.293 0.414,0 c 22.8,0 44.235,-8.879 60.358,-25.001" /></g></g></g></g><g
           transform="translate(315.6508,221.0573)"
           id="g666"><path
             id="path668"
             style="fill:#2d98e0;fill-opacity:1;fill-rule:nonzero;stroke:none"
             d="M 0,0 C 21.589,0 43.179,-8.236 59.651,-24.708 43.179,-41.18 21.589,-49.416 0,-49.416 c -15.266,15.266 -36.356,24.708 -59.651,24.708 23.295,0 44.385,9.442 59.651,24.708" /></g><g
           transform="translate(316.0625,172.6421)"
           id="g670"><path
             id="path672"
             style="fill:#ffffff;fill-opacity:1;fill-rule:nonzero;stroke:none"
             d="M 0,0 C 21.776,0.104 42.254,8.506 57.816,23.707 42.254,38.908 21.776,47.31 0,47.414 -12.933,34.604 -29.243,26.423 -46.914,23.707 -29.243,20.991 -12.933,12.81 0,0 M 59.946,24.414 60.653,23.707 59.946,23 C 43.824,6.878 22.388,-2.001 -0.412,-2.001 l -0.414,0 -0.293,0.293 c -15.744,15.744 -36.678,24.415 -58.944,24.415 l 0,2 c 22.266,0 43.2,8.671 58.944,24.415 l 0.293,0.293 0.414,0 c 22.8,0 44.235,-8.879 60.358,-25.001" /></g><g
           id="g674"><g
             id="g676" /><g
             id="g682"><g
               style="opacity:0.14999402"
               id="g684"
               clip-path="url(#clipPath678)"><g
                 id="g686"
                 transform="translate(315.6508,221.0573)"><path
                   id="path688"
                   style="fill:#ae00ff;fill-opacity:1;fill-rule:nonzero;stroke:none"
                   d="M 0,0 C -15.266,-15.266 -36.356,-24.708 -59.651,-24.708 -43.179,-8.236 -21.589,0 0,0" /></g><g
                 id="g690"
                 transform="translate(313.1475,220.021)"><path
                   id="path692"
                   style="fill:#ffffff;fill-opacity:1;fill-rule:nonzero;stroke:none"
                   d="M 0,0 C -20.496,-0.601 -39.728,-8.566 -54.645,-22.636 -34.148,-22.035 -14.917,-14.069 0,0 m 3.21,0.329 c -16.122,-16.122 -37.558,-25.001 -60.357,-25.001 l -2.415,0 1.708,1.707 C -41.732,-6.843 -20.297,2.036 2.503,2.036 l 2.414,0 L 3.21,0.329 Z" /></g></g></g></g><g
           id="g694"><g
             id="g696" /><g
             id="g702"><g
               style="opacity:0.14999402"
               id="g704"
               clip-path="url(#clipPath698)"><g
                 id="g706"
                 transform="translate(315.6508,221.0573)"><path
                   id="path708"
                   style="fill:#ae00ff;fill-opacity:1;fill-rule:nonzero;stroke:none"
                   d="M 0,0 C -15.266,-15.266 -36.356,-24.708 -59.651,-24.708 -43.179,-8.236 -21.589,0 0,0" /></g><g
                 id="g710"
                 transform="translate(313.1475,220.021)"><path
                   id="path712"
                   style="fill:#ffffff;fill-opacity:1;fill-rule:nonzero;stroke:none"
                   d="M 0,0 C -20.496,-0.601 -39.728,-8.566 -54.645,-22.636 -34.148,-22.035 -14.917,-14.069 0,0 m 3.21,0.329 c -16.122,-16.122 -37.558,-25.001 -60.357,-25.001 l -2.415,0 1.708,1.707 C -41.732,-6.843 -20.297,2.036 2.503,2.036 l 2.414,0 L 3.21,0.329 Z" /></g></g></g></g><g
           id="g714"><g
             id="g716" /><g
             id="g722"><g
               style="opacity:0.14999402"
               id="g724"
               clip-path="url(#clipPath718)"><g
                 id="g726"
                 transform="translate(315.6508,221.0573)"><path
                   id="path728"
                   style="fill:#ae00ff;fill-opacity:1;fill-rule:nonzero;stroke:none"
                   d="M 0,0 C -15.266,-15.266 -36.356,-24.708 -59.651,-24.708 -43.179,-8.236 -21.589,0 0,0" /></g><g
                 id="g730"
                 transform="translate(313.1475,220.021)"><path
                   id="path732"
                   style="fill:#ffffff;fill-opacity:1;fill-rule:nonzero;stroke:none"
                   d="M 0,0 C -20.496,-0.601 -39.728,-8.566 -54.645,-22.636 -34.148,-22.035 -14.917,-14.069 0,0 m 3.21,0.329 c -16.122,-16.122 -37.558,-25.001 -60.357,-25.001 l -2.415,0 1.708,1.707 C -41.732,-6.843 -20.297,2.036 2.503,2.036 l 2.414,0 L 3.21,0.329 Z" /></g></g></g></g><g
           transform="translate(315.6508,221.0573)"
           id="g734"><path
             id="path736"
             style="fill:#46b5a2;fill-opacity:1;fill-rule:nonzero;stroke:none"
             d="M 0,0 C -15.266,-15.266 -36.356,-24.708 -59.651,-24.708 -43.179,-8.236 -21.589,0 0,0" /></g><g
           transform="translate(313.1475,220.021)"
           id="g738"><path
             id="path740"
             style="fill:#ffffff;fill-opacity:1;fill-rule:nonzero;stroke:none"
             d="M 0,0 C -20.496,-0.601 -39.728,-8.566 -54.645,-22.636 -34.148,-22.035 -14.917,-14.069 0,0 m 3.21,0.329 c -16.122,-16.122 -37.558,-25.001 -60.357,-25.001 l -2.415,0 1.708,1.707 C -41.732,-6.843 -20.297,2.036 2.503,2.036 l 2.414,0 L 3.21,0.329 Z" /></g><g
           id="g742"><g
             id="g744" /><g
             id="g750"><g
               style="opacity:0.14999402"
               id="g752"
               clip-path="url(#clipPath746)"><g
                 id="g754"
                 transform="translate(315.6508,171.641)"><path
                   id="path756"
                   style="fill:#ae00ff;fill-opacity:1;fill-rule:nonzero;stroke:none"
                   d="M 0,0 C -21.589,0 -43.179,8.236 -59.651,24.708 -36.356,24.708 -15.266,15.266 0,0" /></g><g
                 id="g758"
                 transform="translate(258.5029,195.3125)"><path
                   id="path760"
                   style="fill:#ffffff;fill-opacity:1;fill-rule:nonzero;stroke:none"
                   d="M 0,0 C 14.917,-14.069 34.147,-22.035 54.645,-22.635 39.728,-8.566 20.496,-0.6 0,0 m 57.854,-22.964 1.708,-1.707 -2.415,0 c -22.8,0 -44.236,8.879 -60.357,25.001 l -1.707,1.707 2.414,0 c 22.8,0 44.235,-8.879 60.357,-25.001" /></g></g></g></g><g
           id="g762"><g
             id="g764" /><g
             id="g770"><g
               style="opacity:0.14999402"
               id="g772"
               clip-path="url(#clipPath766)"><g
                 id="g774"
                 transform="translate(315.6508,171.641)"><path
                   id="path776"
                   style="fill:#ae00ff;fill-opacity:1;fill-rule:nonzero;stroke:none"
                   d="M 0,0 C -21.589,0 -43.179,8.236 -59.651,24.708 -36.356,24.708 -15.266,15.266 0,0" /></g><g
                 id="g778"
                 transform="translate(258.5029,195.3125)"><path
                   id="path780"
                   style="fill:#ffffff;fill-opacity:1;fill-rule:nonzero;stroke:none"
                   d="M 0,0 C 14.917,-14.069 34.147,-22.035 54.645,-22.635 39.728,-8.566 20.496,-0.6 0,0 m 57.854,-22.964 1.708,-1.707 -2.415,0 c -22.8,0 -44.236,8.879 -60.357,25.001 l -1.707,1.707 2.414,0 c 22.8,0 44.235,-8.879 60.357,-25.001" /></g></g></g></g><g
           id="g782"><g
             id="g784" /><g
             id="g790"><g
               style="opacity:0.14999402"
               id="g792"
               clip-path="url(#clipPath786)"><g
                 id="g794"
                 transform="translate(315.6508,171.641)"><path
                   id="path796"
                   style="fill:#ae00ff;fill-opacity:1;fill-rule:nonzero;stroke:none"
                   d="M 0,0 C -21.589,0 -43.179,8.236 -59.651,24.708 -36.356,24.708 -15.266,15.266 0,0" /></g><g
                 id="g798"
                 transform="translate(258.5029,195.3125)"><path
                   id="path800"
                   style="fill:#ffffff;fill-opacity:1;fill-rule:nonzero;stroke:none"
                   d="M 0,0 C 14.917,-14.069 34.147,-22.035 54.645,-22.635 39.728,-8.566 20.496,-0.6 0,0 m 57.854,-22.964 1.708,-1.707 -2.415,0 c -22.8,0 -44.236,8.879 -60.357,25.001 l -1.707,1.707 2.414,0 c 22.8,0 44.235,-8.879 60.357,-25.001" /></g></g></g></g><g
           transform="translate(315.6508,171.641)"
           id="g802"><path
             id="path804"
             style="fill:#2d98e0;fill-opacity:1;fill-rule:nonzero;stroke:none"
             d="M 0,0 C -21.589,0 -43.179,8.236 -59.651,24.708 -36.356,24.708 -15.266,15.266 0,0" /></g><g
           transform="translate(258.5029,195.3125)"
           id="g806"><path
             id="path808"
             style="fill:#ffffff;fill-opacity:1;fill-rule:nonzero;stroke:none"
             d="M 0,0 C 14.917,-14.069 34.147,-22.035 54.645,-22.635 39.728,-8.566 20.496,-0.6 0,0 m 57.854,-22.964 1.708,-1.707 -2.415,0 c -22.8,0 -44.236,8.879 -60.357,25.001 l -1.707,1.707 2.414,0 c 22.8,0 44.235,-8.879 60.357,-25.001" /></g><g
           id="g810"><g
             id="g812" /><g
             id="g818"><g
               style="opacity:0.14999402"
               id="g820"
               clip-path="url(#clipPath814)"><g
                 id="g822"
                 transform="translate(196.3493,171.641)"><path
                   id="path824"
                   style="fill:#ae00ff;fill-opacity:1;fill-rule:nonzero;stroke:none"
                   d="M 0,0 C -21.589,0 -43.179,8.236 -59.651,24.708 -43.179,41.18 -21.589,49.416 0,49.416 15.266,34.15 36.356,24.708 59.651,24.708 36.356,24.708 15.266,15.266 0,0" /></g><g
                 id="g826"
                 transform="translate(195.9375,172.6421)"><path
                   id="path828"
                   style="fill:#ffffff;fill-opacity:1;fill-rule:nonzero;stroke:none"
                   d="M 0,0 C 12.933,12.81 29.243,20.991 46.914,23.707 29.243,26.423 12.933,34.604 0,47.414 -21.777,47.31 -42.254,38.908 -57.817,23.707 -42.254,8.506 -21.777,0.104 0,0 M 1.119,49.122 C 16.864,33.378 37.797,24.707 60.063,24.707 l 0,-2 c -22.266,0 -43.199,-8.671 -58.944,-24.415 l -0.293,-0.293 -0.414,0 c -22.801,0 -44.236,8.879 -60.358,25.001 l -0.707,0.707 0.707,0.707 c 16.122,16.122 37.558,25.001 60.358,25.001 l 0.414,0 0.293,-0.293 z" /></g></g></g></g><g
           id="g830"><g
             id="g832" /><g
             id="g838"><g
               style="opacity:0.14999402"
               id="g840"
               clip-path="url(#clipPath834)"><g
                 id="g842"
                 transform="translate(196.3493,171.641)"><path
                   id="path844"
                   style="fill:#ae00ff;fill-opacity:1;fill-rule:nonzero;stroke:none"
                   d="M 0,0 C -21.589,0 -43.179,8.236 -59.651,24.708 -43.179,41.18 -21.589,49.416 0,49.416 15.266,34.15 36.356,24.708 59.651,24.708 36.356,24.708 15.266,15.266 0,0" /></g><g
                 id="g846"
                 transform="translate(195.9375,172.6421)"><path
                   id="path848"
                   style="fill:#ffffff;fill-opacity:1;fill-rule:nonzero;stroke:none"
                   d="M 0,0 C 12.933,12.81 29.243,20.991 46.914,23.707 29.243,26.423 12.933,34.604 0,47.414 -21.777,47.31 -42.254,38.908 -57.817,23.707 -42.254,8.506 -21.777,0.104 0,0 M 1.119,49.122 C 16.864,33.378 37.797,24.707 60.063,24.707 l 0,-2 c -22.266,0 -43.199,-8.671 -58.944,-24.415 l -0.293,-0.293 -0.414,0 c -22.801,0 -44.236,8.879 -60.358,25.001 l -0.707,0.707 0.707,0.707 c 16.122,16.122 37.558,25.001 60.358,25.001 l 0.414,0 0.293,-0.293 z" /></g></g></g></g><g
           transform="translate(196.3493,171.641)"
           id="g850"><path
             id="path852"
             style="fill:#88fe02;fill-opacity:1;fill-rule:nonzero;stroke:none"
             d="M 0,0 C -21.589,0 -43.179,8.236 -59.651,24.708 -43.179,41.18 -21.589,49.416 0,49.416 15.266,34.15 36.356,24.708 59.651,24.708 36.356,24.708 15.266,15.266 0,0" /></g><g
           transform="translate(195.9375,172.6421)"
           id="g854"><path
             id="path856"
             style="fill:#ffffff;fill-opacity:1;fill-rule:nonzero;stroke:none"
             d="M 0,0 C 12.933,12.81 29.243,20.991 46.914,23.707 29.243,26.423 12.933,34.604 0,47.414 -21.777,47.31 -42.254,38.908 -57.817,23.707 -42.254,8.506 -21.777,0.104 0,0 M 1.119,49.122 C 16.864,33.378 37.797,24.707 60.063,24.707 l 0,-2 c -22.266,0 -43.199,-8.671 -58.944,-24.415 l -0.293,-0.293 -0.414,0 c -22.801,0 -44.236,8.879 -60.358,25.001 l -0.707,0.707 0.707,0.707 c 16.122,16.122 37.558,25.001 60.358,25.001 l 0.414,0 0.293,-0.293 z" /></g><g
           id="g858"><g
             id="g860" /><g
             id="g866"><g
               style="opacity:0.14999402"
               id="g868"
               clip-path="url(#clipPath862)"><g
                 id="g870"
                 transform="translate(196.3493,221.0573)"><path
                   id="path872"
                   style="fill:#ae00ff;fill-opacity:1;fill-rule:nonzero;stroke:none"
                   d="M 0,0 C 21.589,0 43.179,-8.236 59.651,-24.708 36.356,-24.708 15.266,-15.266 0,0" /></g><g
                 id="g874"
                 transform="translate(198.8516,220.021)"><path
                   id="path876"
                   style="fill:#ffffff;fill-opacity:1;fill-rule:nonzero;stroke:none"
                   d="M 0,0 C 14.918,-14.069 34.149,-22.035 54.646,-22.636 39.728,-8.566 20.497,-0.601 0,0 m 57.855,-22.965 1.708,-1.707 -2.415,0 c -22.799,0 -44.235,8.879 -60.357,25.001 l -1.708,1.707 2.415,0 c 22.799,0 44.235,-8.879 60.357,-25.001" /></g></g></g></g><g
           id="g878"><g
             id="g880" /><g
             id="g886"><g
               style="opacity:0.14999402"
               id="g888"
               clip-path="url(#clipPath882)"><g
                 id="g890"
                 transform="translate(196.3493,221.0573)"><path
                   id="path892"
                   style="fill:#ae00ff;fill-opacity:1;fill-rule:nonzero;stroke:none"
                   d="M 0,0 C 21.589,0 43.179,-8.236 59.651,-24.708 36.356,-24.708 15.266,-15.266 0,0" /></g><g
                 id="g894"
                 transform="translate(198.8516,220.021)"><path
                   id="path896"
                   style="fill:#ffffff;fill-opacity:1;fill-rule:nonzero;stroke:none"
                   d="M 0,0 C 14.918,-14.069 34.149,-22.035 54.646,-22.636 39.728,-8.566 20.497,-0.601 0,0 m 57.855,-22.965 1.708,-1.707 -2.415,0 c -22.799,0 -44.235,8.879 -60.357,25.001 l -1.708,1.707 2.415,0 c 22.799,0 44.235,-8.879 60.357,-25.001" /></g></g></g></g><g
           id="g898"><g
             id="g900" /><g
             id="g906"><g
               style="opacity:0.14999402"
               id="g908"
               clip-path="url(#clipPath902)"><g
                 id="g910"
                 transform="translate(196.3493,221.0573)"><path
                   id="path912"
                   style="fill:#ae00ff;fill-opacity:1;fill-rule:nonzero;stroke:none"
                   d="M 0,0 C 21.589,0 43.179,-8.236 59.651,-24.708 36.356,-24.708 15.266,-15.266 0,0" /></g><g
                 id="g914"
                 transform="translate(198.8516,220.021)"><path
                   id="path916"
                   style="fill:#ffffff;fill-opacity:1;fill-rule:nonzero;stroke:none"
                   d="M 0,0 C 14.918,-14.069 34.149,-22.035 54.646,-22.636 39.728,-8.566 20.497,-0.601 0,0 m 57.855,-22.965 1.708,-1.707 -2.415,0 c -22.799,0 -44.235,8.879 -60.357,25.001 l -1.708,1.707 2.415,0 c 22.799,0 44.235,-8.879 60.357,-25.001" /></g></g></g></g><g
           transform="translate(196.3493,221.0573)"
           id="g918"><path
             id="path920"
             style="fill:#88fe02;fill-opacity:1;fill-rule:nonzero;stroke:none"
             d="M 0,0 C 21.589,0 43.179,-8.236 59.651,-24.708 36.356,-24.708 15.266,-15.266 0,0" /></g><g
           transform="translate(198.8516,220.021)"
           id="g922"><path
             id="path924"
             style="fill:#ffffff;fill-opacity:1;fill-rule:nonzero;stroke:none"
             d="M 0,0 C 14.918,-14.069 34.149,-22.035 54.646,-22.636 39.728,-8.566 20.497,-0.601 0,0 m 57.855,-22.965 1.708,-1.707 -2.415,0 c -22.799,0 -44.235,8.879 -60.357,25.001 l -1.708,1.707 2.415,0 c 22.799,0 44.235,-8.879 60.357,-25.001" /></g><g
           id="g926"><g
             id="g928" /><g
             id="g934"><g
               style="opacity:0.14999402"
               id="g936"
               clip-path="url(#clipPath930)"><g
                 id="g938"
                 transform="translate(196.3493,171.641)"><path
                   id="path940"
                   style="fill:#ae00ff;fill-opacity:1;fill-rule:nonzero;stroke:none"
                   d="M 0,0 C 15.266,15.266 36.356,24.708 59.651,24.708 43.179,8.236 21.589,0 0,0" /></g><g
                 id="g942"
                 transform="translate(253.4976,195.3125)"><path
                   id="path944"
                   style="fill:#ffffff;fill-opacity:1;fill-rule:nonzero;stroke:none"
                   d="M 0,0 C -20.497,-0.6 -39.728,-8.566 -54.646,-22.635 -34.149,-22.035 -14.918,-14.069 0,0 m 3.209,0.33 c -16.122,-16.122 -37.557,-25.001 -60.357,-25.001 l -2.415,0 1.708,1.707 C -41.733,-6.842 -20.297,2.037 2.502,2.037 l 2.415,0 L 3.209,0.33 Z" /></g></g></g></g><g
           id="g946"><g
             id="g948" /><g
             id="g954"><g
               style="opacity:0.14999402"
               id="g956"
               clip-path="url(#clipPath950)"><g
                 id="g958"
                 transform="translate(196.3493,171.641)"><path
                   id="path960"
                   style="fill:#ae00ff;fill-opacity:1;fill-rule:nonzero;stroke:none"
                   d="M 0,0 C 15.266,15.266 36.356,24.708 59.651,24.708 43.179,8.236 21.589,0 0,0" /></g><g
                 id="g962"
                 transform="translate(253.4976,195.3125)"><path
                   id="path964"
                   style="fill:#ffffff;fill-opacity:1;fill-rule:nonzero;stroke:none"
                   d="M 0,0 C -20.497,-0.6 -39.728,-8.566 -54.646,-22.635 -34.149,-22.035 -14.918,-14.069 0,0 m 3.209,0.33 c -16.122,-16.122 -37.557,-25.001 -60.357,-25.001 l -2.415,0 1.708,1.707 C -41.733,-6.842 -20.297,2.037 2.502,2.037 l 2.415,0 L 3.209,0.33 Z" /></g></g></g></g><g
           id="g966"><g
             id="g968" /><g
             id="g974"><g
               style="opacity:0.14999402"
               id="g976"
               clip-path="url(#clipPath970)"><g
                 id="g978"
                 transform="translate(196.3493,171.641)"><path
                   id="path980"
                   style="fill:#ae00ff;fill-opacity:1;fill-rule:nonzero;stroke:none"
                   d="M 0,0 C 15.266,15.266 36.356,24.708 59.651,24.708 43.179,8.236 21.589,0 0,0" /></g><g
                 id="g982"
                 transform="translate(253.4976,195.3125)"><path
                   id="path984"
                   style="fill:#ffffff;fill-opacity:1;fill-rule:nonzero;stroke:none"
                   d="M 0,0 C -20.497,-0.6 -39.728,-8.566 -54.646,-22.635 -34.149,-22.035 -14.918,-14.069 0,0 m 3.209,0.33 c -16.122,-16.122 -37.557,-25.001 -60.357,-25.001 l -2.415,0 1.708,1.707 C -41.733,-6.842 -20.297,2.037 2.502,2.037 l 2.415,0 L 3.209,0.33 Z" /></g></g></g></g><g
           transform="translate(196.3493,171.641)"
           id="g986"><path
             id="path988"
             style="fill:#88fe02;fill-opacity:1;fill-rule:nonzero;stroke:none"
             d="M 0,0 C 15.266,15.266 36.356,24.708 59.651,24.708 43.179,8.236 21.589,0 0,0" /></g><g
           transform="translate(253.4976,195.3125)"
           id="g990"><path
             id="path992"
             style="fill:#ffffff;fill-opacity:1;fill-rule:nonzero;stroke:none"
             d="M 0,0 C -20.497,-0.6 -39.728,-8.566 -54.646,-22.635 -34.149,-22.035 -14.918,-14.069 0,0 m 3.209,0.33 c -16.122,-16.122 -37.557,-25.001 -60.357,-25.001 l -2.415,0 1.708,1.707 C -41.733,-6.842 -20.297,2.037 2.502,2.037 l 2.415,0 L 3.209,0.33 Z" /></g></g></g></g></svg>