<?xml version="1.0" encoding="UTF-8" standalone="no"?>
<svg
   xmlns:dc="http://purl.org/dc/elements/1.1/"
   xmlns:cc="http://creativecommons.org/ns#"
   xmlns:rdf="http://www.w3.org/1999/02/22-rdf-syntax-ns#"
   xmlns:svg="http://www.w3.org/2000/svg"
   xmlns="http://www.w3.org/2000/svg"
   viewBox="0 0 640 640"
   height="640"
   width="640"
   xml:space="preserve"
   version="1.1"
   id="svg2"><metadata
     id="metadata8"><rdf:RDF><cc:Work
         rdf:about=""><dc:format>image/svg+xml</dc:format><dc:type
           rdf:resource="http://purl.org/dc/dcmitype/StillImage" /></cc:Work></rdf:RDF></metadata><defs
     id="defs6"><clipPath
       id="clipPath16"
       clipPathUnits="userSpaceOnUse"><path
         id="path18"
         d="M 0,512 512,512 512,0 0,0 0,512 Z" /></clipPath><clipPath
       id="clipPath24"
       clipPathUnits="userSpaceOnUse"><path
         id="path26"
         d="m 18.325,493.744 475.4,0 0,-475.4877 -475.4,0 0,475.4877 z" /></clipPath><clipPath
       id="clipPath28"
       clipPathUnits="userSpaceOnUse"><path
         id="path30"
         d="M 448.99,63.029 C 389.293,3.332 122.807,3.332 63.11,63.029 3.413,122.726 3.413,389.312 63.01,449.009 c 59.597,59.696 326.283,59.596 385.98,0 59.697,-59.597 59.597,-326.283 0,-385.98" /></clipPath><radialGradient
       id="radialGradient36"
       spreadMethod="pad"
       gradientTransform="matrix(237.72188,0,0,237.72188,256.02499,256)"
       gradientUnits="userSpaceOnUse"
       r="1"
       cy="0"
       cx="0"
       fy="0"
       fx="0"><stop
         id="stop38"
         offset="0"
         style="stop-opacity:1;stop-color:#ffffff" /><stop
         id="stop40"
         offset="0.8587"
         style="stop-opacity:0.14129854;stop-color:#ffffff" /><stop
         id="stop42"
         offset="1"
         style="stop-opacity:0;stop-color:#ffffff" /></radialGradient><mask
       id="mask44"
       height="1"
       width="1"
       y="0"
       x="0"
       maskUnits="userSpaceOnUse"><g
         id="g46"><g
           id="g48"><g
             id="g50"><g
               id="g52"><path
                 id="path54"
                 style="fill:url(#radialGradient36);stroke:none"
                 d="m -32768,32767 65535,0 0,-65535 -65535,0 0,65535 z" /></g></g></g></g></mask><radialGradient
       id="radialGradient56"
       spreadMethod="pad"
       gradientTransform="matrix(237.72188,0,0,237.72188,256.02499,256)"
       gradientUnits="userSpaceOnUse"
       r="1"
       cy="0"
       cx="0"
       fy="0"
       fx="0"><stop
         id="stop58"
         offset="0"
         style="stop-opacity:1;stop-color:#010101" /><stop
         id="stop60"
         offset="0.8587"
         style="stop-opacity:1;stop-color:#010101" /><stop
         id="stop62"
         offset="1"
         style="stop-opacity:1;stop-color:#010101" /></radialGradient><clipPath
       id="clipPath86"
       clipPathUnits="userSpaceOnUse"><path
         id="path88"
         d="m 18.325,493.744 475.4,0 0,-475.4877 -475.4,0 0,475.4877 z" /></clipPath><clipPath
       id="clipPath90"
       clipPathUnits="userSpaceOnUse"><path
         id="path92"
         d="M 448.99,63.029 C 389.293,3.332 122.807,3.332 63.11,63.029 3.413,122.726 3.413,389.312 63.01,449.009 c 59.597,59.696 326.283,59.596 385.98,0 59.697,-59.597 59.597,-326.283 0,-385.98" /></clipPath><radialGradient
       id="radialGradient98"
       spreadMethod="pad"
       gradientTransform="matrix(188.25467,188.36119,-130.35883,130.27895,256.02499,256.04376)"
       gradientUnits="userSpaceOnUse"
       r="1"
       cy="0"
       cx="0"
       fy="0"
       fx="0"><stop
         id="stop100"
         offset="0"
         style="stop-opacity:1;stop-color:#ffffff" /><stop
         id="stop102"
         offset="0.8587"
         style="stop-opacity:0.14129854;stop-color:#ffffff" /><stop
         id="stop104"
         offset="1"
         style="stop-opacity:0;stop-color:#ffffff" /></radialGradient><mask
       id="mask106"
       height="1"
       width="1"
       y="0"
       x="0"
       maskUnits="userSpaceOnUse"><g
         id="g108"><g
           id="g110"><g
             id="g112"><g
               id="g114"><path
                 id="path116"
                 style="fill:url(#radialGradient98);stroke:none"
                 d="m -32768,32767 65535,0 0,-65535 -65535,0 0,65535 z" /></g></g></g></g></mask><radialGradient
       id="radialGradient118"
       spreadMethod="pad"
       gradientTransform="matrix(188.25467,188.36119,-130.35883,130.27895,256.02499,256.04376)"
       gradientUnits="userSpaceOnUse"
       r="1"
       cy="0"
       cx="0"
       fy="0"
       fx="0"><stop
         id="stop120"
         offset="0"
         style="stop-opacity:1;stop-color:#010101" /><stop
         id="stop122"
         offset="0.8587"
         style="stop-opacity:1;stop-color:#010101" /><stop
         id="stop124"
         offset="1"
         style="stop-opacity:1;stop-color:#010101" /></radialGradient><clipPath
       id="clipPath148"
       clipPathUnits="userSpaceOnUse"><path
         id="path150"
         d="m 18.275,493.694 475.387,0 0,-475.4377 -475.387,0 0,475.4377 z" /></clipPath><clipPath
       id="clipPath152"
       clipPathUnits="userSpaceOnUse"><path
         id="path154"
         d="m 63.01,63.029 c 59.697,-59.697 326.183,-59.697 385.88,0 59.697,59.697 59.697,326.183 0,385.88 -59.697,59.696 -326.183,59.696 -385.88,0.1 -59.697,-59.597 -59.597,-326.283 0,-385.98" /></clipPath><radialGradient
       id="radialGradient160"
       spreadMethod="pad"
       gradientTransform="matrix(-188.28767,188.39421,130.38168,130.30179,255.92499,255.99377)"
       gradientUnits="userSpaceOnUse"
       r="1"
       cy="0"
       cx="0"
       fy="0"
       fx="0"><stop
         id="stop162"
         offset="0"
         style="stop-opacity:1;stop-color:#ffffff" /><stop
         id="stop164"
         offset="0.8587"
         style="stop-opacity:0.14129854;stop-color:#ffffff" /><stop
         id="stop166"
         offset="1"
         style="stop-opacity:0;stop-color:#ffffff" /></radialGradient><mask
       id="mask168"
       height="1"
       width="1"
       y="0"
       x="0"
       maskUnits="userSpaceOnUse"><g
         id="g170"><g
           id="g172"><g
             id="g174"><g
               id="g176"><path
                 id="path178"
                 style="fill:url(#radialGradient160);stroke:none"
                 d="m -32768,32767 65535,0 0,-65535 -65535,0 0,65535 z" /></g></g></g></g></mask><radialGradient
       id="radialGradient180"
       spreadMethod="pad"
       gradientTransform="matrix(-188.28767,188.39421,130.38168,130.30179,255.92499,255.99377)"
       gradientUnits="userSpaceOnUse"
       r="1"
       cy="0"
       cx="0"
       fy="0"
       fx="0"><stop
         id="stop182"
         offset="0"
         style="stop-opacity:1;stop-color:#010101" /><stop
         id="stop184"
         offset="0.8587"
         style="stop-opacity:1;stop-color:#010101" /><stop
         id="stop186"
         offset="1"
         style="stop-opacity:1;stop-color:#010101" /></radialGradient><linearGradient
       id="linearGradient218"
       spreadMethod="pad"
       gradientTransform="matrix(460,0,0,-460,26,256)"
       gradientUnits="userSpaceOnUse"
       y2="0"
       x2="1"
       y1="0"
       x1="0"><stop
         id="stop220"
         offset="0"
         style="stop-opacity:1;stop-color:#ff9501" /><stop
         id="stop222"
         offset="1"
         style="stop-opacity:1;stop-color:#ff9501" /></linearGradient><clipPath
       id="clipPath230"
       clipPathUnits="userSpaceOnUse"><path
         id="path232"
         d="M 0,512 512,512 512,0 0,0 0,512 Z" /></clipPath></defs><g
     transform="matrix(1.25,0,0,-1.25,0,640)"
     id="g10"><g
       id="g12"><g
         clip-path="url(#clipPath16)"
         id="g14"><g
           id="g20"><g
             id="g22" /><g
             id="g64"><g
               style="opacity:0.39999402"
               id="g66"
               clip-path="url(#clipPath24)"><g
                 id="g68"><g
                   id="g70"
                   clip-path="url(#clipPath28)"><g
                     id="g72"><g
                       id="g74" /><g
                       id="g76"
                       mask="url(#mask44)"><g
                         id="g78"><path
                           id="path80"
                           style="fill:url(#radialGradient56);stroke:none"
                           d="M 448.99,63.029 C 389.293,3.332 122.807,3.332 63.11,63.029 3.413,122.726 3.413,389.312 63.01,449.009 c 59.597,59.696 326.283,59.596 385.98,0 59.697,-59.597 59.597,-326.283 0,-385.98" /></g></g></g></g></g></g></g></g><g
           id="g82"><g
             id="g84" /><g
             id="g126"><g
               style="opacity:0.39999402"
               id="g128"
               clip-path="url(#clipPath86)"><g
                 id="g130"><g
                   id="g132"
                   clip-path="url(#clipPath90)"><g
                     id="g134"><g
                       id="g136" /><g
                       id="g138"
                       mask="url(#mask106)"><g
                         id="g140"><path
                           id="path142"
                           style="fill:url(#radialGradient118);stroke:none"
                           d="M 448.99,63.029 C 389.293,3.332 122.807,3.332 63.11,63.029 3.413,122.726 3.413,389.312 63.01,449.009 c 59.597,59.696 326.283,59.596 385.98,0 59.697,-59.597 59.597,-326.283 0,-385.98" /></g></g></g></g></g></g></g></g><g
           id="g144"><g
             id="g146" /><g
             id="g188"><g
               style="opacity:0.39999402"
               id="g190"
               clip-path="url(#clipPath148)"><g
                 id="g192"><g
                   id="g194"
                   clip-path="url(#clipPath152)"><g
                     id="g196"><g
                       id="g198" /><g
                       id="g200"
                       mask="url(#mask168)"><g
                         id="g202"><path
                           id="path204"
                           style="fill:url(#radialGradient180);stroke:none"
                           d="m 63.01,63.029 c 59.697,-59.697 326.183,-59.697 385.88,0 59.697,59.697 59.697,326.183 0,385.88 -59.697,59.696 -326.183,59.696 -385.88,0.1 -59.697,-59.597 -59.597,-326.283 0,-385.98" /></g></g></g></g></g></g></g></g></g></g><g
       id="g206"><g
         id="g208"><g
           id="g214"><g
             id="g216"><path
               id="path224"
               style="fill:url(#linearGradient218);stroke:none"
               d="M 78.721,433.279 C 8.427,362.985 8.427,149.015 78.721,78.721 l 0,0 c 70.294,-70.294 284.264,-70.294 354.558,0 l 0,0 c 70.294,70.294 70.294,284.264 0,354.558 l 0,0 C 398.132,468.426 327.066,486 256,486 l 0,0 C 184.934,486 113.868,468.426 78.721,433.279" /></g></g></g></g><g
       id="g226"><g
         clip-path="url(#clipPath230)"
         id="g228"><g
           transform="translate(278.7477,272.8515)"
           id="g234"><path
             id="path236"
             style="fill:#000000;fill-opacity:1;fill-rule:nonzero;stroke:none"
             d="m 0,0 c -2.507,-2.594 -5.031,-4.974 -7.356,-7.164 -1.712,-1.611 -3.328,-3.133 -4.768,-4.576 -2.837,-2.843 -6.61,-4.408 -10.624,-4.408 -4.014,0 -7.787,1.565 -10.623,4.408 -1.235,1.238 -2.594,2.546 -4.033,3.932 -2.446,2.355 -5.103,4.918 -7.739,7.696 -14.774,-8.07 -24.797,-23.748 -24.797,-41.769 l 0,-61.666 94.385,0 0,62.412 C 24.445,-23.382 14.563,-7.938 0,0" /></g><g
           transform="translate(266.2396,293.9135)"
           id="g238"><path
             id="path240"
             style="fill:#000000;fill-opacity:1;fill-rule:nonzero;stroke:none"
             d="M 0,0 C -0.769,0.116 -1.373,0.72 -1.489,1.489 -1.88,4.069 -2.347,9.979 0.837,13.163 4.021,16.346 9.93,15.879 12.51,15.489 13.28,15.373 13.883,14.769 14,14 14.39,11.42 14.857,5.51 11.673,2.327 8.489,-0.857 2.58,-0.39 0,0 M -18.99,1.489 C -19.106,0.72 -19.71,0.116 -20.479,0 c -2.58,-0.39 -8.49,-0.857 -11.673,2.327 -3.184,3.183 -2.717,9.093 -2.327,11.673 0.116,0.769 0.72,1.373 1.49,1.489 2.579,0.39 8.489,0.857 11.673,-2.326 3.183,-3.184 2.716,-9.094 2.326,-11.674 m 8.75,46.21 c -18.95,0 -34.312,-15.362 -34.312,-34.312 0,-18.758 17.181,-32.589 27.228,-42.658 3.912,-3.919 10.257,-3.919 14.169,0 10.046,10.069 27.228,22.771 27.228,42.658 0,18.95 -15.362,34.312 -34.313,34.312" /></g><g
           transform="translate(345.3338,255.024)"
           id="g242"><path
             id="path244"
             style="fill:#000000;fill-opacity:1;fill-rule:nonzero;stroke:none"
             d="m 0,0 c -2.075,-2.148 -4.164,-4.117 -6.09,-5.93 -1.4,-1.319 -2.724,-2.565 -3.906,-3.748 -1.574,-1.575 -3.51,-2.769 -5.673,-3.302 -4.454,-1.096 -8.873,0.171 -11.957,3.261 -1.022,1.025 -2.147,2.108 -3.338,3.255 -2.025,1.95 -4.225,4.071 -6.407,6.371 -1.411,-0.771 -2.764,-1.634 -4.064,-2.566 2.785,-6.409 4.293,-13.416 4.293,-20.649 l 0,-62.412 47.378,0 c 5.523,0 10,4.477 10,10 l 0,41.667 C 20.236,-19.356 12.055,-6.571 0,0" /></g><g
           transform="translate(334.9792,272.4598)"
           id="g246"><path
             id="path248"
             style="fill:#000000;fill-opacity:1;fill-rule:nonzero;stroke:none"
             d="m 0,0 c -0.637,0.096 -1.137,0.596 -1.233,1.233 -0.323,2.136 -0.71,7.028 1.926,9.663 2.636,2.636 7.528,2.249 9.663,1.926 0.637,-0.096 1.137,-0.596 1.233,-1.233 C 11.912,9.454 12.299,4.562 9.663,1.926 7.028,-0.71 2.136,-0.323 0,0 M -15.72,1.233 C -15.817,0.596 -16.317,0.096 -16.953,0 c -2.136,-0.323 -7.028,-0.71 -9.664,1.926 -2.635,2.636 -2.249,7.528 -1.926,9.663 0.097,0.637 0.596,1.137 1.233,1.233 2.136,0.323 7.028,0.71 9.664,-1.926 2.635,-2.635 2.249,-7.527 1.926,-9.663 m 7.243,38.254 c -15.687,0 -28.405,-12.717 -28.405,-28.405 0,-15.528 14.224,-26.978 22.541,-35.313 3.238,-3.245 8.491,-3.245 11.729,0 8.317,8.335 22.541,18.85 22.541,35.313 0,15.688 -12.718,28.405 -28.406,28.405" /></g><g
           transform="translate(208.4033,252.4515)"
           id="g250"><path
             id="path252"
             style="fill:#000000;fill-opacity:1;fill-rule:nonzero;stroke:none"
             d="m 0,0 c -1.302,0.936 -2.659,1.801 -4.075,2.572 -2.075,-2.147 -4.164,-4.117 -6.089,-5.93 -1.401,-1.318 -2.725,-2.565 -3.906,-3.747 -1.575,-1.576 -3.511,-2.77 -5.674,-3.302 -4.454,-1.096 -8.873,0.171 -11.956,3.261 -1.023,1.024 -2.148,2.108 -3.339,3.255 -2.024,1.949 -4.225,4.071 -6.406,6.371 -12.231,-6.681 -20.528,-19.66 -20.528,-34.578 l 0,-41.049 c 0,-5.523 4.477,-10 10,-10 l 47.377,0 0,61.666 C -4.596,-13.943 -2.977,-6.646 0,0" /></g><g
           transform="translate(193.9741,272.4598)"
           id="g254"><path
             id="path256"
             style="fill:#000000;fill-opacity:1;fill-rule:nonzero;stroke:none"
             d="m 0,0 c -0.637,0.096 -1.137,0.596 -1.233,1.233 -0.323,2.136 -0.71,7.028 1.926,9.663 2.636,2.636 7.528,2.249 9.663,1.926 0.637,-0.096 1.137,-0.596 1.233,-1.233 C 11.912,9.454 12.299,4.562 9.663,1.926 7.028,-0.71 2.136,-0.323 0,0 M -15.72,1.233 C -15.817,0.596 -16.317,0.096 -16.953,0 c -2.136,-0.323 -7.028,-0.71 -9.664,1.926 -2.635,2.636 -2.249,7.528 -1.926,9.663 0.097,0.637 0.597,1.137 1.233,1.233 2.136,0.323 7.028,0.71 9.664,-1.926 2.635,-2.635 2.249,-7.527 1.926,-9.663 m 7.243,38.254 c -15.687,0 -28.405,-12.717 -28.405,-28.405 0,-15.528 14.224,-26.978 22.541,-35.313 3.238,-3.245 8.491,-3.245 11.729,0 8.317,8.335 22.541,18.85 22.541,35.313 0,15.688 -12.718,28.405 -28.406,28.405" /></g></g></g></g></svg>