<?xml version="1.0" encoding="utf-8"?>
<!-- Generator: Adobe Illustrator 18.0.0, SVG Export Plug-In . SVG Version: 6.00 Build 0)  -->
<!DOCTYPE svg PUBLIC "-//W3C//DTD SVG 1.1//EN" "http://www.w3.org/Graphics/SVG/1.1/DTD/svg11.dtd">
<svg version="1.1" id="Layer_3" xmlns="http://www.w3.org/2000/svg" xmlns:xlink="http://www.w3.org/1999/xlink" x="0px" y="0px"
	 viewBox="0 0 512 512" enable-background="new 0 0 512 512" xml:space="preserve">
<g>
	<g opacity="0.4" enable-background="new    ">
		
			<radialGradient id="SVGID_1_" cx="1.0125" cy="515" r="118.8609" gradientTransform="matrix(2 0 0 -2 254 1286)" gradientUnits="userSpaceOnUse">
			<stop  offset="0" style="stop-color:#010101"/>
			<stop  offset="0.8587" style="stop-color:#010101;stop-opacity:0.1413"/>
			<stop  offset="1" style="stop-color:#010101;stop-opacity:0"/>
		</radialGradient>
		<path fill="url(#SVGID_1_)" d="M449,449c-59.7,59.7-326.2,59.7-385.9,0S3.4,122.7,63,63s326.3-59.6,386,0S508.6,389.3,449,449z"/>
	</g>
	<g opacity="0.4" enable-background="new    ">
		
			<radialGradient id="SVGID_2_" cx="2.0286" cy="516.0684" r="133.1551" gradientTransform="matrix(1.4138 -1.4146 -0.979 -0.9784 758.388 763.7472)" gradientUnits="userSpaceOnUse">
			<stop  offset="0" style="stop-color:#010101"/>
			<stop  offset="0.8587" style="stop-color:#010101;stop-opacity:0.1413"/>
			<stop  offset="1" style="stop-color:#010101;stop-opacity:0"/>
		</radialGradient>
		<path fill="url(#SVGID_2_)" d="M449,449c-59.7,59.7-326.2,59.7-385.9,0S3.4,122.7,63,63s326.3-59.6,386,0S508.6,389.3,449,449z"/>
	</g>
	<g opacity="0.4" enable-background="new    ">
		
			<radialGradient id="SVGID_3_" cx="3.4424" cy="513.9732" r="133.1784" gradientTransform="matrix(-1.4138 -1.4146 0.979 -0.9784 -242.3879 763.7472)" gradientUnits="userSpaceOnUse">
			<stop  offset="0" style="stop-color:#010101"/>
			<stop  offset="0.8587" style="stop-color:#010101;stop-opacity:0.1413"/>
			<stop  offset="1" style="stop-color:#010101;stop-opacity:0"/>
		</radialGradient>
		<path fill="url(#SVGID_3_)" d="M63,449c59.7,59.7,326.2,59.7,385.9,0s59.7-326.2,0-385.9S122.7,3.4,63,63S3.4,389.3,63,449z"/>
	</g>
</g>
<radialGradient id="SVGID_4_" cx="256" cy="256" r="229.9996" gradientUnits="userSpaceOnUse">
	<stop  offset="0" style="stop-color:#00B187"/>
	<stop  offset="1" style="stop-color:#3E6DA7"/>
</radialGradient>
<path fill="url(#SVGID_4_)" d="M433.3,433.3c-70.3,70.3-284.3,70.3-354.6,0S8.4,149,78.7,78.7s284.3-70.3,354.6,0
	S503.6,363,433.3,433.3z"/>
<g>
	<g>
		<polygon fill="#5BC3B7" points="180.4,424.4 205.7,380.6 143.1,272.2 95.4,354.8 107.4,375.5 129.8,336.7 		"/>
		<polygon fill="#5BC3B7" points="357.4,379.7 312.5,301.9 269.4,376.6 314.3,454.3 		"/>
		<g>
			<path fill="#66D3C3" d="M238.7,323.4l-58.3,101l34.4,59.6c27.1,2.7,55.3,2.7,82.4,0l17.1-29.6L238.7,323.4z"/>
		</g>
		<path fill="#27AE61" d="M107.4,375.5L107.4,375.5L107.4,375.5L107.4,375.5l-12-20.7l-28.5-49.4l-28.6,49.6
			c8.3,30.7,20.8,57.2,37.5,75.3L107.4,375.5z"/>
		<path fill="#51D88B" d="M211.1,477.6l-30.7-53.2l-50.6-87.6l-22.4,38.8l0,0l-31.6,54.7c1,1,1.9,2.1,2.9,3
			c28.3,28.3,79.9,45.2,136.1,50.7l-1.3-2.3L211.1,477.6z"/>
		<path fill="#1BBC9B" d="M402,395.8L375,349.2l-17.6,30.6l-43.1,74.6l0,0l0,0L297.2,484c21-2.1,41.4-5.7,60.2-11l26.9-46.6
			L402,395.8z"/>
		<path fill="#27AE61" d="M402,395.8L402,395.8L402,395.8l-17.6,30.6L357.4,473c31.3-8.8,58.2-22,75.9-39.7
			c20.2-20.2,34.6-52.3,43.2-89.4l-22.2-38.5L402,395.8z"/>
	</g>
	<circle fill="#FFD110" cx="221.3" cy="207.3" r="47.2"/>
</g>
<g>
	<path opacity="0.25" fill="#383838" enable-background="new    " d="M189,427c64-9.3,140.7-10,207.3-0.7l-0.7-54L189,373.7V427z"/>
	<g>
		<polygon fill="#FFFFFF" points="328.3,167.6 328.3,180.6 389.7,180.6 389.7,372.6 197.7,372.6 197.7,348.8 184.7,348.8 
			184.7,374.2 184.7,385.6 184.7,417.1 402.7,417.1 402.7,385.6 402.7,374.2 402.7,167.6 		"/>
	</g>
</g>
<g>
	<path opacity="0.25" fill="#383838" enable-background="new    " d="M115,358.7c64-9.3,140.7-10,207.3-0.7l-0.7-54L115,305.3V358.7
		z"/>
	<g>
		<path fill="#FFFFFF" d="M110.3,99.2v206.6v11.4v31.5h74.3h13h130.7v-31.5v-11.4V180.6v-13V99.2H110.3z M315.3,180.6v123.7H197.7
			h-13h-61.3v-192h192v55.3V180.6z"/>
	</g>
</g>
</svg>
