<?xml version="1.0" encoding="utf-8"?>
<!-- Generator: Adobe Illustrator 18.0.0, SVG Export Plug-In . SVG Version: 6.00 Build 0)  -->
<!DOCTYPE svg PUBLIC "-//W3C//DTD SVG 1.1//EN" "http://www.w3.org/Graphics/SVG/1.1/DTD/svg11.dtd">
<svg version="1.1" id="Layer_1" xmlns="http://www.w3.org/2000/svg" xmlns:xlink="http://www.w3.org/1999/xlink" x="0px" y="0px"
	 viewBox="0 0 512 512" style="enable-background:new 0 0 512 512;" xml:space="preserve">
<linearGradient id="SVGID_1_" gradientUnits="userSpaceOnUse" x1="26" y1="256" x2="486" y2="256">
	<stop  offset="0" style="stop-color:#BDBEC2"/>
	<stop  offset="1" style="stop-color:#BDBEC2"/>
</linearGradient>
<path style="fill:url(#SVGID_1_);" d="M433.3,433.3c-70.3,70.3-284.3,70.3-354.6,0S8.4,149,78.7,78.7s284.3-70.3,354.6,0
	S503.6,363,433.3,433.3z"/>
<g>
	<circle style="fill:#DDDBDB;" cx="256" cy="256" r="189.5"/>
	<path style="fill:#FFFFFF;" d="M325,164.5V129c0-55.3-30.9-100.2-69-100.2S187,73.6,187,129v35.6c-27.7,20.9-45.6,54.1-45.6,91.5
		c0,63.3,51.3,114.6,114.6,114.6S370.6,319.3,370.6,256C370.6,218.6,352.7,185.5,325,164.5z"/>
	<g>
		<circle cx="256" cy="256" r="81"/>
		<circle style="fill:#282828;" cx="256" cy="256" r="32"/>
		<path style="fill:#9B9B9B;" d="M256,340.5c-46.6,0-84.6-37.9-84.6-84.6s37.9-84.6,84.6-84.6s84.5,37.9,84.5,84.6
			S302.6,340.5,256,340.5z M256,178.4c-42.8,0-77.6,34.8-77.6,77.6s34.8,77.5,77.6,77.5s77.5-34.8,77.5-77.6S298.8,178.4,256,178.4z
			"/>
		<path style="fill:#282828;" d="M256,313.4c-31.6,0-57.4-25.7-57.4-57.4s25.7-57.4,57.4-57.4s57.4,25.7,57.4,57.4
			S287.6,313.4,256,313.4z M256,202.6c-29.4,0-53.4,23.9-53.4,53.4s23.9,53.4,53.4,53.4s53.4-23.9,53.4-53.4S285.4,202.6,256,202.6z
			"/>
	</g>
	<path style="display:none;fill:#FFFFFF;stroke:#FFFFFF;" d="M256,66.6C151.4,66.6,66.6,151.4,66.6,256S151.4,445.5,256,445.5
		S445.5,360.6,445.5,256S360.6,66.6,256,66.6z M256,429.6c-95.6,0-173.2-77.5-173.2-173.2S160.4,83.3,256,83.3
		c95.6,0,173.2,77.5,173.2,173.2S351.6,429.6,256,429.6z"/>
</g>
<g>
	<circle style="fill:#89FF00;" cx="256" cy="114.2" r="11.7"/>
	<path style="fill:#E0E0E0;" d="M256,102.5c6.4,0,11.7,5.2,11.7,11.7c0,6.4-5.2,11.7-11.7,11.7s-11.7-5.2-11.7-11.7
		C244.3,107.7,249.6,102.5,256,102.5 M256,100.5c-7.5,0-13.7,6.1-13.7,13.7s6.1,13.7,13.7,13.7c7.5,0,13.7-6.1,13.7-13.7
		S263.5,100.5,256,100.5L256,100.5z"/>
</g>
</svg>
