<?xml version="1.0" encoding="utf-8"?>
<!-- Generator: Adobe Illustrator 18.0.0, SVG Export Plug-In . SVG Version: 6.00 Build 0)  -->
<!DOCTYPE svg PUBLIC "-//W3C//DTD SVG 1.1//EN" "http://www.w3.org/Graphics/SVG/1.1/DTD/svg11.dtd">
<svg version="1.1" id="Layer_1" xmlns="http://www.w3.org/2000/svg" xmlns:xlink="http://www.w3.org/1999/xlink" x="0px" y="0px"
	 viewBox="0 0 512 512" style="enable-background:new 0 0 512 512;" xml:space="preserve">
<style type="text/css">
	.st0{opacity:0.4;enable-background:new    ;}
	.st1{fill:url(#SVGID_1_);}
	.st2{fill:url(#SVGID_2_);}
	.st3{fill:url(#SVGID_3_);}
	.st4{fill:url(#SVGID_4_);}
	.st5{fill:#CCDEE2;}
	.st6{fill:#50B4E6;}
</style>
<g>
	<g class="st0">
		
			<radialGradient id="SVGID_1_" cx="1.0125" cy="515" r="118.8609" gradientTransform="matrix(2 0 0 -2 254 1286)" gradientUnits="userSpaceOnUse">
			<stop  offset="0" style="stop-color:#020202"/>
			<stop  offset="0.8587" style="stop-color:#020202;stop-opacity:0.1413"/>
			<stop  offset="1" style="stop-color:#020202;stop-opacity:0"/>
		</radialGradient>
		<path class="st1" d="M449,449c-59.7,59.7-326.2,59.7-385.9,0S3.4,122.7,63,63s326.3-59.6,386,0S508.6,389.3,449,449z"/>
	</g>
	<g class="st0">
		
			<radialGradient id="SVGID_2_" cx="2.0286" cy="516.0684" r="133.1551" gradientTransform="matrix(1.4138 -1.4146 -0.979 -0.9784 758.388 763.7472)" gradientUnits="userSpaceOnUse">
			<stop  offset="0" style="stop-color:#020202"/>
			<stop  offset="0.8587" style="stop-color:#020202;stop-opacity:0.1413"/>
			<stop  offset="1" style="stop-color:#020202;stop-opacity:0"/>
		</radialGradient>
		<path class="st2" d="M449,449c-59.7,59.7-326.2,59.7-385.9,0S3.4,122.7,63,63s326.3-59.6,386,0S508.6,389.3,449,449z"/>
	</g>
	<g class="st0">
		
			<radialGradient id="SVGID_3_" cx="3.4424" cy="513.9732" r="133.1784" gradientTransform="matrix(-1.4138 -1.4146 0.979 -0.9784 -242.3879 763.7472)" gradientUnits="userSpaceOnUse">
			<stop  offset="0" style="stop-color:#020202"/>
			<stop  offset="0.8587" style="stop-color:#020202;stop-opacity:0.1413"/>
			<stop  offset="1" style="stop-color:#020202;stop-opacity:0"/>
		</radialGradient>
		<path class="st3" d="M63,449c59.7,59.7,326.2,59.7,385.9,0s59.7-326.2,0-385.9S122.7,3.4,63,63S3.4,389.3,63,449z"/>
	</g>
</g>
<g>
	
		<linearGradient id="SVGID_4_" gradientUnits="userSpaceOnUse" x1="256" y1="28" x2="256" y2="487.9999" gradientTransform="matrix(1 0 0 -1 0 514)">
		<stop  offset="0" style="stop-color:#202021"/>
		<stop  offset="1" style="stop-color:#202021"/>
	</linearGradient>
	<path class="st4" d="M433.3,433.3c-70.3,70.3-284.2,70.3-354.5,0S8.4,149,78.7,78.7s284.2-70.3,354.5,0S503.5,363,433.3,433.3z"/>
</g>
<g>
	<rect x="170.1" y="155.4" class="st5" width="43.8" height="201.2"/>
	<rect x="298.2" y="155.4" class="st5" width="43.8" height="201.2"/>
</g>
<rect x="170.2" y="240.5" class="st5" width="171.7" height="30.9"/>
<polygon class="st6" points="318.5,305.7 328.3,258.2 406.2,255.9 339.8,254 334.5,227.5 329.2,253.7 307.6,253.1 290.8,171.4 
	274.2,252.1 256,251.6 236.8,252.1 220.3,188.3 203.7,253.1 182,253.7 176.7,227.5 171.3,254 105.7,255.9 182.9,258.1 192.7,305.7 
	202.4,258.7 239.3,259.8 256,340.6 272.6,259.8 308.8,258.7 "/>
</svg>
