<?xml version="1.0" encoding="utf-8"?>
<!-- Generator: Adobe Illustrator 18.0.0, SVG Export Plug-In . SVG Version: 6.00 Build 0)  -->
<!DOCTYPE svg PUBLIC "-//W3C//DTD SVG 1.1//EN" "http://www.w3.org/Graphics/SVG/1.1/DTD/svg11.dtd">
<svg version="1.1" id="Layer_3" xmlns="http://www.w3.org/2000/svg" xmlns:xlink="http://www.w3.org/1999/xlink" x="0px" y="0px"
	 viewBox="0 0 512 512" enable-background="new 0 0 512 512" xml:space="preserve">
<g>
	<g opacity="0.4" enable-background="new    ">
		
			<radialGradient id="SVGID_1_" cx="1.0125" cy="515" r="118.8609" gradientTransform="matrix(2 0 0 -2 254 1286)" gradientUnits="userSpaceOnUse">
			<stop  offset="0" style="stop-color:#010101"/>
			<stop  offset="0.8587" style="stop-color:#010101;stop-opacity:0.1413"/>
			<stop  offset="1" style="stop-color:#010101;stop-opacity:0"/>
		</radialGradient>
		<path fill="url(#SVGID_1_)" d="M449,449c-59.7,59.7-326.2,59.7-385.9,0S3.4,122.7,63,63s326.3-59.6,386,0S508.6,389.3,449,449z"/>
	</g>
	<g opacity="0.4" enable-background="new    ">
		
			<radialGradient id="SVGID_2_" cx="2.0286" cy="516.0684" r="133.1551" gradientTransform="matrix(1.4138 -1.4146 -0.979 -0.9784 758.388 763.7472)" gradientUnits="userSpaceOnUse">
			<stop  offset="0" style="stop-color:#010101"/>
			<stop  offset="0.8587" style="stop-color:#010101;stop-opacity:0.1413"/>
			<stop  offset="1" style="stop-color:#010101;stop-opacity:0"/>
		</radialGradient>
		<path fill="url(#SVGID_2_)" d="M449,449c-59.7,59.7-326.2,59.7-385.9,0S3.4,122.7,63,63s326.3-59.6,386,0S508.6,389.3,449,449z"/>
	</g>
	<g opacity="0.4" enable-background="new    ">
		
			<radialGradient id="SVGID_3_" cx="3.4424" cy="513.9732" r="133.1784" gradientTransform="matrix(-1.4138 -1.4146 0.979 -0.9784 -242.3879 763.7472)" gradientUnits="userSpaceOnUse">
			<stop  offset="0" style="stop-color:#010101"/>
			<stop  offset="0.8587" style="stop-color:#010101;stop-opacity:0.1413"/>
			<stop  offset="1" style="stop-color:#010101;stop-opacity:0"/>
		</radialGradient>
		<path fill="url(#SVGID_3_)" d="M63,449c59.7,59.7,326.2,59.7,385.9,0s59.7-326.2,0-385.9S122.7,3.4,63,63S3.4,389.3,63,449z"/>
	</g>
</g>
<linearGradient id="SVGID_4_" gradientUnits="userSpaceOnUse" x1="256.0002" y1="485.9995" x2="256.0002" y2="26.0005">
	<stop  offset="0" style="stop-color:#E9FFFA"/>
	<stop  offset="1" style="stop-color:#B7E3E9"/>
</linearGradient>
<path fill="url(#SVGID_4_)" d="M433.3,433.3c-70.3,70.3-284.3,70.3-354.6,0S8.4,149,78.7,78.7s284.3-70.3,354.6,0
	S503.6,363,433.3,433.3z"/>
<linearGradient id="SVGID_5_" gradientUnits="userSpaceOnUse" x1="256.0001" y1="485.9995" x2="256.0001" y2="197.6671">
	<stop  offset="0" style="stop-color:#6ACCE1"/>
	<stop  offset="1" style="stop-color:#E9FFFA"/>
</linearGradient>
<path fill="url(#SVGID_5_)" d="M78.7,250.4c-20.6,20.6-35.1,53.5-43.6,91.4c8.5,38,23.1,70.9,43.6,91.4
	c70.3,70.3,284.3,70.3,354.6,0c20.6-20.6,35.1-53.5,43.6-91.4c-8.5-38-23.1-70.9-43.6-91.4C363,180.1,149,180.1,78.7,250.4z"/>
<g>
	
		<radialGradient id="SVGID_6_" cx="268.7289" cy="445.9349" r="200.7827" gradientTransform="matrix(1 0 0 -1 0 514)" gradientUnits="userSpaceOnUse">
		<stop  offset="0" style="stop-color:#FFFFFF"/>
		<stop  offset="1" style="stop-color:#22446A"/>
	</radialGradient>
	<circle fill="url(#SVGID_6_)" cx="256" cy="248.6" r="163.9"/>
	<g>
		
			<linearGradient id="SVGID_7_" gradientUnits="userSpaceOnUse" x1="310.5339" y1="319.9657" x2="328.4242" y2="319.9657" gradientTransform="matrix(1 0 0 1 -50 -139)">
			<stop  offset="0" style="stop-color:#FFFFFF"/>
			<stop  offset="1" style="stop-color:#22446A"/>
		</linearGradient>
		<path fill="url(#SVGID_7_)" d="M278.3,180.6c-0.3,2.2-3.7,8.4-7.6,8.2c-17.7-0.8-7.9-13.4-3.6-15.2c0,0,2.5-0.6,6.3-0.6
			C277.3,173.1,278.9,176.1,278.3,180.6z"/>
		
			<linearGradient id="SVGID_8_" gradientUnits="userSpaceOnUse" x1="243.521" y1="319.7321" x2="321.589" y2="319.7321" gradientTransform="matrix(1 0 0 1 -50 -139)">
			<stop  offset="0" style="stop-color:#FFFFFF"/>
			<stop  offset="1" style="stop-color:#22446A"/>
		</linearGradient>
		<path fill="url(#SVGID_8_)" d="M268.6,173.3c2.3,2.3,5.7,8.4-0.8,14.7c-10.3,10-45.8,11.7-53.5,11.7c-11.6,0-20.8-9.9-20.8-18.1
			c0-8.2,14.1-26.8,20.3-17.1C223.1,179.1,268.6,173.3,268.6,173.3z"/>
		
			<linearGradient id="SVGID_9_" gradientUnits="userSpaceOnUse" x1="586.2465" y1="-741.4802" x2="607.1879" y2="-628.7368" gradientTransform="matrix(1 0 0 -1 -300 -323)">
			<stop  offset="0" style="stop-color:#FFFFFF"/>
			<stop  offset="1" style="stop-color:#22446A"/>
		</linearGradient>
		<path fill="url(#SVGID_9_)" d="M380.4,181.4c3.1,9.2,39.9,136-20.1,204.4c-12.5,14.2-86.3,22.9-100,14.2
			c-15.1-9.7-57.2-86.1-37.7-76.6c10.1,4.9,23.5,18.8,65.5,12.4c76.5-11.6,84-105.3,60.6-156.6c-16.3-35.6-41.1-42.8-40.5-43
			C320.4,133,367.6,142.9,380.4,181.4z"/>
		
			<linearGradient id="SVGID_10_" gradientUnits="userSpaceOnUse" x1="243.1952" y1="-613.4304" x2="255.9439" y2="-514.8117" gradientTransform="matrix(0.8908 -0.4544 -0.4544 -0.8908 -130.7895 -185.4167)">
			<stop  offset="0" style="stop-color:#FFFFFF"/>
			<stop  offset="1" style="stop-color:#22446A"/>
		</linearGradient>
		<path fill="url(#SVGID_10_)" d="M393.1,204.9c21.8,86.7-41.2,108.8-49.8,113.2c0,0,20.8-30.8,16.2-100.9
			c-3.3-50.1-51.1-81-51.1-81S375.7,135.7,393.1,204.9z"/>
		
			<linearGradient id="SVGID_11_" gradientUnits="userSpaceOnUse" x1="274.9679" y1="-583.2804" x2="288.1637" y2="-481.2024" gradientTransform="matrix(0.8908 -0.4544 -0.4544 -0.8908 -130.7895 -185.4167)">
			<stop  offset="0" style="stop-color:#FFFFFF"/>
			<stop  offset="1" style="stop-color:#22446A"/>
		</linearGradient>
		<path fill="url(#SVGID_11_)" d="M402.9,161.8c21.8,86.7-32,111.1-40.6,115.4c0,0,8.3-33.1,3.6-103.3c-3.3-50.1-51.1-81-51.1-81
			S385.5,92.7,402.9,161.8z"/>
		
			<linearGradient id="SVGID_12_" gradientUnits="userSpaceOnUse" x1="285.8139" y1="-653.599" x2="298.4427" y2="-555.9069" gradientTransform="matrix(0.8908 -0.4544 -0.4544 -0.8908 -130.7895 -185.4167)">
			<stop  offset="0" style="stop-color:#FFFFFF"/>
			<stop  offset="1" style="stop-color:#22446A"/>
		</linearGradient>
		<path fill="url(#SVGID_12_)" d="M433.6,224.2c-1.7,44.4-27.6,83.4-36.2,87.8c0,0,30.4-35.7,6.2-101.7
			c-23.9-65.3-12.9-88.5-12.9-88.5S436.4,150.6,433.6,224.2z"/>
		
			<linearGradient id="SVGID_13_" gradientUnits="userSpaceOnUse" x1="236.9308" y1="-688.7211" x2="250.2497" y2="-585.6906" gradientTransform="matrix(0.8908 -0.4544 -0.4544 -0.8908 -130.7895 -185.4167)">
			<stop  offset="0" style="stop-color:#FFFFFF"/>
			<stop  offset="1" style="stop-color:#22446A"/>
		</linearGradient>
		<path fill="url(#SVGID_13_)" d="M394.1,276.8c-2.2,44.4-5.1,82.6-13.7,87c0,0-13.4-30.6-16.3-100.9c-2.7-66.2-27-86.8-27-86.8
			S398.5,188.9,394.1,276.8z"/>
		
			<linearGradient id="SVGID_14_" gradientUnits="userSpaceOnUse" x1="630.2709" y1="-631.4277" x2="689.8802" y2="-650.6576" gradientTransform="matrix(1 0 0 -1 -300 -323)">
			<stop  offset="0" style="stop-color:#FFFFFF"/>
			<stop  offset="1" style="stop-color:#22446A"/>
		</linearGradient>
		<path fill="url(#SVGID_14_)" d="M387.6,326c-5.2,89.2-101.2,56.4-110.8,56.4c0,0,34.6,4.1,62.3-60.5c11.1-25.8,6.6-99.6,6.6-99.6
			S390.8,271.4,387.6,326z"/>
		
			<linearGradient id="SVGID_15_" gradientUnits="userSpaceOnUse" x1="264.3668" y1="343.8723" x2="320.7309" y2="343.8723" gradientTransform="matrix(1 0 0 1 -50 -139)">
			<stop  offset="0" style="stop-color:#FFFFFF"/>
			<stop  offset="1" style="stop-color:#22446A"/>
		</linearGradient>
		<path fill="url(#SVGID_15_)" d="M267.3,188.5c0.5-0.4,3.4,0.4,3.4,0.4c-4.9,7.5-16.2,17-20.5,19.9c-3.1,2.1-17.2,13.8-20.6,12.5
			c-9.5-3.4-15.2-21.6-15.2-21.6C218.1,199.7,263.7,191.5,267.3,188.5z"/>
		
			<linearGradient id="SVGID_16_" gradientUnits="userSpaceOnUse" x1="129.115" y1="409.2509" x2="485.3053" y2="409.2509" gradientTransform="matrix(1 0 0 1 -50 -139)">
			<stop  offset="0" style="stop-color:#FFFFFF"/>
			<stop  offset="1" style="stop-color:#22446A"/>
		</linearGradient>
		<path fill="url(#SVGID_16_)" d="M213,165.5c-1.3,2.6-5.4,19.1,1.3,34.3c7.1,15.9,25.9,31.6,33.4,40.8c5.2,6.4-49.6-8.1-53,0.4
			c-1.1,2.7-3,12.4,2.4,21.1c4.5,7.4,12,6.9,17.3,6.9c9,0,50.8-25,52.6-20.1c2.3,6.1-13.5,26.9-44.4,50.3c-0.6,0.4-7.7,5.5-6,13.6
			c2.7,13.7,41.6,55.3,59.9,65.5c15.6,8.7,126.8,23.1,92-53c-32.2-70.4,14.2-163.9,20.2-158.6c95.9,84.7,14.7,178.5,12.7,181.9
			c-34.1,57.6-96.7,84.1-155.5,77.6c-74.3-8.2-115-53.8-126.4-68.1c-4.5-5.7-51.1-57.2-37.8-139.4c6.2-38.1,21.7-42.5,21.3-48.1
			c-1.5-22.3,19.3-63,21-56.8c0.9,3.3,4.6,34.8,11.6,33.8c6.6-1,14.9-4.3,26-4.1c8.5,0.1,16,2,22.4,4.3c3.5,1.3,11.1-8.6,21.5-14.9
			c14.4-8.7,34.7-13.8,32.6-11.4C219.4,142.5,214.8,162.1,213,165.5z"/>
		<g>
			
				<linearGradient id="SVGID_17_" gradientUnits="userSpaceOnUse" x1="404.7829" y1="-602.0161" x2="441.5027" y2="-647.0464" gradientTransform="matrix(1 0 0 -1 -300 -323)">
				<stop  offset="0" style="stop-color:#FFFFFF;stop-opacity:0"/>
				<stop  offset="0.1067" style="stop-color:#CBD3DC;stop-opacity:0.1067"/>
				<stop  offset="0.2155" style="stop-color:#9FAEBE;stop-opacity:0.2155"/>
				<stop  offset="0.3292" style="stop-color:#788DA4;stop-opacity:0.3292"/>
				<stop  offset="0.4461" style="stop-color:#59738F;stop-opacity:0.4461"/>
				<stop  offset="0.5675" style="stop-color:#415E7F;stop-opacity:0.5675"/>
				<stop  offset="0.6951" style="stop-color:#304F73;stop-opacity:0.6951"/>
				<stop  offset="0.833" style="stop-color:#25476C;stop-opacity:0.833"/>
				<stop  offset="1" style="stop-color:#22446A"/>
			</linearGradient>
			<path fill="url(#SVGID_17_)" d="M111.4,305.2c-3.6,33.5,23.4,70.6,23.4,70.6c-45.2-9.3-54.3-62.6-56.2-76.6
				c-7.9-55.5,10.9-105.9,21.5-105.9S112.9,291.2,111.4,305.2z"/>
			
				<linearGradient id="SVGID_18_" gradientUnits="userSpaceOnUse" x1="430.3014" y1="-588.9847" x2="490.0045" y2="-671.2185" gradientTransform="matrix(1 0 0 -1 -300 -323)">
				<stop  offset="0" style="stop-color:#FFFFFF;stop-opacity:0"/>
				<stop  offset="1" style="stop-color:#22446A"/>
			</linearGradient>
			<path fill="url(#SVGID_18_)" d="M149.6,297.9c-8.4,40.6,56.5,52.1,56.5,52.1c-88.6,23.3-94.7-44.2-96.6-58.2
				c-7.9-55.5,24.1-80.7,34.7-80.7C154.8,211.2,153,281.5,149.6,297.9z"/>
			
				<linearGradient id="SVGID_19_" gradientUnits="userSpaceOnUse" x1="435.3751" y1="-578.0431" x2="468.3664" y2="-635.5322" gradientTransform="matrix(1 0 0 -1 -300 -323)">
				<stop  offset="0" style="stop-color:#FFFFFF;stop-opacity:0"/>
				<stop  offset="1" style="stop-color:#22446A"/>
			</linearGradient>
			<path fill="url(#SVGID_19_)" d="M125.7,250.1c-19.3,38,34.6,81.8,34.6,81.8C77.4,319.6,86.9,245,90.2,231.4
				c13.2-54.5,46.7-62.9,56.5-59C156.6,176.3,133.3,235.2,125.7,250.1z"/>
		</g>
	</g>
</g>
<linearGradient id="SVGID_20_" gradientUnits="userSpaceOnUse" x1="256" y1="260.6662" x2="256" y2="26.0005">
	<stop  offset="0" style="stop-color:#E9FFFA"/>
	<stop  offset="1" style="stop-color:#00A2D4;stop-opacity:0"/>
</linearGradient>
<path fill="url(#SVGID_20_)" d="M78.7,78.7c-15.5,15.5-27.6,38.1-36.3,64.6c8.7,26.5,20.8,49.1,36.3,64.6
	c70.3,70.3,284.3,70.3,354.6,0c15.5-15.5,27.6-38.1,36.3-64.6c-8.7-26.5-20.8-49.1-36.3-64.6C363,8.4,149,8.4,78.7,78.7z"/>
</svg>
