<?xml version="1.0" encoding="UTF-8" standalone="no"?>
<svg
   xmlns:dc="http://purl.org/dc/elements/1.1/"
   xmlns:cc="http://creativecommons.org/ns#"
   xmlns:rdf="http://www.w3.org/1999/02/22-rdf-syntax-ns#"
   xmlns:svg="http://www.w3.org/2000/svg"
   xmlns="http://www.w3.org/2000/svg"
   viewBox="0 0 640 640"
   height="640"
   width="640"
   xml:space="preserve"
   version="1.1"
   id="svg2"><metadata
     id="metadata8"><rdf:RDF><cc:Work
         rdf:about=""><dc:format>image/svg+xml</dc:format><dc:type
           rdf:resource="http://purl.org/dc/dcmitype/StillImage" /></cc:Work></rdf:RDF></metadata><defs
     id="defs6"><clipPath
       id="clipPath16"
       clipPathUnits="userSpaceOnUse"><path
         id="path18"
         d="M 0,512 512,512 512,0 0,0 0,512 Z" /></clipPath><clipPath
       id="clipPath24"
       clipPathUnits="userSpaceOnUse"><path
         id="path26"
         d="m 18.325,493.744 475.4,0 0,-475.4877 -475.4,0 0,475.4877 z" /></clipPath><clipPath
       id="clipPath28"
       clipPathUnits="userSpaceOnUse"><path
         id="path30"
         d="M 448.99,63.029 C 389.293,3.332 122.807,3.332 63.11,63.029 3.413,122.726 3.413,389.312 63.01,449.009 c 59.597,59.696 326.283,59.596 385.98,0 59.697,-59.597 59.597,-326.283 0,-385.98" /></clipPath><radialGradient
       id="radialGradient36"
       spreadMethod="pad"
       gradientTransform="matrix(237.72188,0,0,237.72188,256.02499,256)"
       gradientUnits="userSpaceOnUse"
       r="1"
       cy="0"
       cx="0"
       fy="0"
       fx="0"><stop
         id="stop38"
         offset="0"
         style="stop-opacity:1;stop-color:#ffffff" /><stop
         id="stop40"
         offset="0.8587"
         style="stop-opacity:0.14129854;stop-color:#ffffff" /><stop
         id="stop42"
         offset="1"
         style="stop-opacity:0;stop-color:#ffffff" /></radialGradient><mask
       id="mask44"
       height="1"
       width="1"
       y="0"
       x="0"
       maskUnits="userSpaceOnUse"><g
         id="g46"><g
           id="g48"><g
             id="g50"><g
               id="g52"><path
                 id="path54"
                 style="fill:url(#radialGradient36);stroke:none"
                 d="m -32768,32767 65535,0 0,-65535 -65535,0 0,65535 z" /></g></g></g></g></mask><radialGradient
       id="radialGradient56"
       spreadMethod="pad"
       gradientTransform="matrix(237.72188,0,0,237.72188,256.02499,256)"
       gradientUnits="userSpaceOnUse"
       r="1"
       cy="0"
       cx="0"
       fy="0"
       fx="0"><stop
         id="stop58"
         offset="0"
         style="stop-opacity:1;stop-color:#010101" /><stop
         id="stop60"
         offset="0.8587"
         style="stop-opacity:1;stop-color:#010101" /><stop
         id="stop62"
         offset="1"
         style="stop-opacity:1;stop-color:#010101" /></radialGradient><clipPath
       id="clipPath86"
       clipPathUnits="userSpaceOnUse"><path
         id="path88"
         d="m 18.325,493.744 475.4,0 0,-475.4877 -475.4,0 0,475.4877 z" /></clipPath><clipPath
       id="clipPath90"
       clipPathUnits="userSpaceOnUse"><path
         id="path92"
         d="M 448.99,63.029 C 389.293,3.332 122.807,3.332 63.11,63.029 3.413,122.726 3.413,389.312 63.01,449.009 c 59.597,59.696 326.283,59.596 385.98,0 59.697,-59.597 59.597,-326.283 0,-385.98" /></clipPath><radialGradient
       id="radialGradient98"
       spreadMethod="pad"
       gradientTransform="matrix(188.25467,188.36119,-130.35883,130.27895,256.02499,256.04376)"
       gradientUnits="userSpaceOnUse"
       r="1"
       cy="0"
       cx="0"
       fy="0"
       fx="0"><stop
         id="stop100"
         offset="0"
         style="stop-opacity:1;stop-color:#ffffff" /><stop
         id="stop102"
         offset="0.8587"
         style="stop-opacity:0.14129854;stop-color:#ffffff" /><stop
         id="stop104"
         offset="1"
         style="stop-opacity:0;stop-color:#ffffff" /></radialGradient><mask
       id="mask106"
       height="1"
       width="1"
       y="0"
       x="0"
       maskUnits="userSpaceOnUse"><g
         id="g108"><g
           id="g110"><g
             id="g112"><g
               id="g114"><path
                 id="path116"
                 style="fill:url(#radialGradient98);stroke:none"
                 d="m -32768,32767 65535,0 0,-65535 -65535,0 0,65535 z" /></g></g></g></g></mask><radialGradient
       id="radialGradient118"
       spreadMethod="pad"
       gradientTransform="matrix(188.25467,188.36119,-130.35883,130.27895,256.02499,256.04376)"
       gradientUnits="userSpaceOnUse"
       r="1"
       cy="0"
       cx="0"
       fy="0"
       fx="0"><stop
         id="stop120"
         offset="0"
         style="stop-opacity:1;stop-color:#010101" /><stop
         id="stop122"
         offset="0.8587"
         style="stop-opacity:1;stop-color:#010101" /><stop
         id="stop124"
         offset="1"
         style="stop-opacity:1;stop-color:#010101" /></radialGradient><clipPath
       id="clipPath148"
       clipPathUnits="userSpaceOnUse"><path
         id="path150"
         d="m 18.275,493.694 475.387,0 0,-475.4377 -475.387,0 0,475.4377 z" /></clipPath><clipPath
       id="clipPath152"
       clipPathUnits="userSpaceOnUse"><path
         id="path154"
         d="m 63.01,63.029 c 59.697,-59.697 326.183,-59.697 385.88,0 59.697,59.697 59.697,326.183 0,385.88 -59.697,59.696 -326.183,59.696 -385.88,0.1 -59.697,-59.597 -59.597,-326.283 0,-385.98" /></clipPath><radialGradient
       id="radialGradient160"
       spreadMethod="pad"
       gradientTransform="matrix(-188.28767,188.39421,130.38168,130.30179,255.92499,255.99377)"
       gradientUnits="userSpaceOnUse"
       r="1"
       cy="0"
       cx="0"
       fy="0"
       fx="0"><stop
         id="stop162"
         offset="0"
         style="stop-opacity:1;stop-color:#ffffff" /><stop
         id="stop164"
         offset="0.8587"
         style="stop-opacity:0.14129854;stop-color:#ffffff" /><stop
         id="stop166"
         offset="1"
         style="stop-opacity:0;stop-color:#ffffff" /></radialGradient><mask
       id="mask168"
       height="1"
       width="1"
       y="0"
       x="0"
       maskUnits="userSpaceOnUse"><g
         id="g170"><g
           id="g172"><g
             id="g174"><g
               id="g176"><path
                 id="path178"
                 style="fill:url(#radialGradient160);stroke:none"
                 d="m -32768,32767 65535,0 0,-65535 -65535,0 0,65535 z" /></g></g></g></g></mask><radialGradient
       id="radialGradient180"
       spreadMethod="pad"
       gradientTransform="matrix(-188.28767,188.39421,130.38168,130.30179,255.92499,255.99377)"
       gradientUnits="userSpaceOnUse"
       r="1"
       cy="0"
       cx="0"
       fy="0"
       fx="0"><stop
         id="stop182"
         offset="0"
         style="stop-opacity:1;stop-color:#010101" /><stop
         id="stop184"
         offset="0.8587"
         style="stop-opacity:1;stop-color:#010101" /><stop
         id="stop186"
         offset="1"
         style="stop-opacity:1;stop-color:#010101" /></radialGradient><linearGradient
       id="linearGradient218"
       spreadMethod="pad"
       gradientTransform="matrix(0,-459.99988,459.99988,0,256,485.99994)"
       gradientUnits="userSpaceOnUse"
       y2="0"
       x2="1"
       y1="0"
       x1="0"><stop
         id="stop220"
         offset="0"
         style="stop-opacity:1;stop-color:#f6f6f6" /><stop
         id="stop222"
         offset="1"
         style="stop-opacity:1;stop-color:#f6f6f6" /></linearGradient><clipPath
       id="clipPath230"
       clipPathUnits="userSpaceOnUse"><path
         id="path232"
         d="M 0,512 512,512 512,0 0,0 0,512 Z" /></clipPath></defs><g
     transform="matrix(1.25,0,0,-1.25,0,640)"
     id="g10"><g
       id="g12"><g
         clip-path="url(#clipPath16)"
         id="g14"><g
           id="g20"><g
             id="g22" /><g
             id="g64"><g
               style="opacity:0.39999402"
               id="g66"
               clip-path="url(#clipPath24)"><g
                 id="g68"><g
                   id="g70"
                   clip-path="url(#clipPath28)"><g
                     id="g72"><g
                       id="g74" /><g
                       id="g76"
                       mask="url(#mask44)"><g
                         id="g78"><path
                           id="path80"
                           style="fill:url(#radialGradient56);stroke:none"
                           d="M 448.99,63.029 C 389.293,3.332 122.807,3.332 63.11,63.029 3.413,122.726 3.413,389.312 63.01,449.009 c 59.597,59.696 326.283,59.596 385.98,0 59.697,-59.597 59.597,-326.283 0,-385.98" /></g></g></g></g></g></g></g></g><g
           id="g82"><g
             id="g84" /><g
             id="g126"><g
               style="opacity:0.39999402"
               id="g128"
               clip-path="url(#clipPath86)"><g
                 id="g130"><g
                   id="g132"
                   clip-path="url(#clipPath90)"><g
                     id="g134"><g
                       id="g136" /><g
                       id="g138"
                       mask="url(#mask106)"><g
                         id="g140"><path
                           id="path142"
                           style="fill:url(#radialGradient118);stroke:none"
                           d="M 448.99,63.029 C 389.293,3.332 122.807,3.332 63.11,63.029 3.413,122.726 3.413,389.312 63.01,449.009 c 59.597,59.696 326.283,59.596 385.98,0 59.697,-59.597 59.597,-326.283 0,-385.98" /></g></g></g></g></g></g></g></g><g
           id="g144"><g
             id="g146" /><g
             id="g188"><g
               style="opacity:0.39999402"
               id="g190"
               clip-path="url(#clipPath148)"><g
                 id="g192"><g
                   id="g194"
                   clip-path="url(#clipPath152)"><g
                     id="g196"><g
                       id="g198" /><g
                       id="g200"
                       mask="url(#mask168)"><g
                         id="g202"><path
                           id="path204"
                           style="fill:url(#radialGradient180);stroke:none"
                           d="m 63.01,63.029 c 59.697,-59.697 326.183,-59.697 385.88,0 59.697,59.697 59.697,326.183 0,385.88 -59.697,59.696 -326.183,59.696 -385.88,0.1 -59.697,-59.597 -59.597,-326.283 0,-385.98" /></g></g></g></g></g></g></g></g></g></g><g
       id="g206"><g
         id="g208"><g
           id="g214"><g
             id="g216"><path
               id="path224"
               style="fill:url(#linearGradient218);stroke:none"
               d="M 78.719,433.281 C 8.427,362.988 8.427,149.012 78.719,78.719 l 0,0 c 70.293,-70.292 284.269,-70.292 354.562,0 l 0,0 c 70.292,70.293 70.292,284.269 0,354.562 l 0,0 C 398.134,468.427 327.067,486 256,486 l 0,0 C 184.933,486 113.866,468.427 78.719,433.281" /></g></g></g></g><g
       id="g226"><g
         clip-path="url(#clipPath230)"
         id="g228"><g
           transform="translate(291.6259,147.214)"
           id="g234"><path
             id="path236"
             style="fill:#fad504;fill-opacity:1;fill-rule:nonzero;stroke:none"
             d="m 0,0 c -4.005,4.105 -6.716,5.272 -10.629,9.464 -2.339,2.505 -7.332,2.999 -7.729,10.777 -1.232,24.108 -24.847,31.938 -37.703,47.318 -14.896,17.821 -32.994,33.001 -46.225,52.369 -6.619,9.689 -13.864,19.407 -12.298,32.331 13.578,-8.61 27.171,-16.809 44.468,-14.627 3.529,0.445 7.353,-2.288 9.84,-5.306 12.837,-15.576 30.383,-22.487 49.247,-26.885 12.409,-2.893 23.636,-8.174 34.466,-14.824 14.455,-8.876 22.636,-7.859 35.879,3.13 6.128,5.086 15.412,13.954 22.379,19.705 C 84.412,104.21 80.966,88.993 79.028,80.789 69.782,41.634 44.402,17.521 7.821,1.402 5.465,0.364 2.618,0.441 0,0" /></g><g
           transform="translate(368.5885,279.0269)"
           id="g238"><path
             id="path240"
             style="fill:#dc912c;fill-opacity:1;fill-rule:nonzero;stroke:none"
             d="m 0,0 c -3.747,-1.032 -6.261,1.825 -9.059,3.108 -7.311,3.353 -14.634,6.543 -22.495,8.468 -12.423,3.042 -21.749,9.711 -29.321,20.552 -9.789,14.017 -27.563,18.4 -43.975,10.812 -3.76,-1.739 -7.283,-5.541 -11.609,-3.997 -23.355,8.336 -44.003,-6.073 -66.166,-7.586 -5.939,-0.405 -9.841,-4.087 -8.921,-10.908 13.577,-8.613 27.17,-16.812 44.467,-14.63 3.529,0.445 7.353,-2.288 9.841,-5.306 12.836,-15.576 30.382,-22.487 49.246,-26.885 12.409,-2.893 23.637,-8.174 34.466,-14.824 14.455,-8.876 22.637,-7.859 35.879,3.13 6.129,5.086 12.282,10.142 19.249,15.893 3.797,0.813 2.13,1.812 2.13,1.812 C 2.732,-8.029 3.399,0.304 0,0" /></g><g
           transform="translate(306.256,280.1158)"
           id="g242"><path
             id="path244"
             style="fill:#000000;fill-opacity:1;fill-rule:nonzero;stroke:none"
             d="m 0,0 c -6.465,-14.363 -23.35,-20.766 -37.714,-14.3 -14.363,6.465 -20.765,23.35 -14.3,37.713 6.466,14.364 23.351,20.766 37.714,14.301 C 0.063,31.248 6.465,14.363 0,0" /></g><g
           transform="translate(280.2491,291.8225)"
           id="g246"><path
             id="path248"
             style="fill:#fffffc;fill-opacity:1;fill-rule:nonzero;stroke:none"
             d="M 0,0 C -2.793,-12.553 7.495,-25.522 -5.058,-22.729 -17.611,-19.935 -25.522,-7.495 -22.729,5.058 -19.935,17.611 -7.495,25.522 5.058,22.729 17.611,19.935 2.793,12.553 0,0" /></g><g
           transform="translate(256,389.4787)"
           id="g250"><path
             id="path252"
             style="fill:#36322e;fill-opacity:1;fill-rule:nonzero;stroke:none"
             d="m 0,0 c -73.718,0 -133.479,-59.76 -133.479,-133.479 0,-73.718 59.761,-133.479 133.479,-133.479 73.718,0 133.479,59.761 133.479,133.479 C 133.479,-59.76 73.718,0 0,0 m 0,-17.498 c 15.665,0 30.852,-3.064 45.14,-9.107 13.808,-5.841 26.214,-14.206 36.871,-24.863 10.657,-10.657 19.022,-23.062 24.863,-36.871 6.043,-14.288 9.107,-29.475 9.107,-45.14 0,-15.665 -3.064,-30.852 -9.107,-45.139 -5.841,-13.809 -14.206,-26.214 -24.863,-36.871 -10.657,-10.658 -23.063,-19.023 -36.871,-24.863 -14.288,-6.043 -29.475,-9.107 -45.14,-9.107 -15.665,0 -30.852,3.064 -45.14,9.107 -13.808,5.84 -26.214,14.205 -36.871,24.863 -10.657,10.657 -19.022,23.062 -24.862,36.871 -6.044,14.287 -9.108,29.474 -9.108,45.139 0,15.665 3.064,30.852 9.108,45.14 5.84,13.809 14.205,26.214 24.862,36.871 10.657,10.657 23.063,19.022 36.871,24.863 14.288,6.043 29.475,9.107 45.14,9.107" /></g></g></g></g></svg>