<?xml version="1.0" encoding="UTF-8" standalone="no"?>
<svg
   xmlns:dc="http://purl.org/dc/elements/1.1/"
   xmlns:cc="http://creativecommons.org/ns#"
   xmlns:rdf="http://www.w3.org/1999/02/22-rdf-syntax-ns#"
   xmlns:svg="http://www.w3.org/2000/svg"
   xmlns="http://www.w3.org/2000/svg"
   viewBox="0 0 1280 1280"
   height="1280"
   width="1280"
   xml:space="preserve"
   version="1.1"
   id="svg2"><metadata
     id="metadata8"><rdf:RDF><cc:Work
         rdf:about=""><dc:format>image/svg+xml</dc:format><dc:type
           rdf:resource="http://purl.org/dc/dcmitype/StillImage" /></cc:Work></rdf:RDF></metadata><defs
     id="defs6"><clipPath
       id="clipPath16"
       clipPathUnits="userSpaceOnUse"><path
         id="path18"
         d="m 0,1024 1024,0 L 1024,0 0,0 0,1024 Z" /></clipPath><clipPath
       id="clipPath24"
       clipPathUnits="userSpaceOnUse"><path
         id="path26"
         d="m 36.625,987.475 950.85,0 0,-951.025 -950.85,0 0,951.025 z" /></clipPath><clipPath
       id="clipPath28"
       clipPathUnits="userSpaceOnUse"><path
         id="path30"
         d="M 898,126 C 778.6,6.6 245.6,6.6 126.2,126 6.8,245.4 6.8,778.6 126,898 c 119.2,119.4 652.6,119.2 772,0 119.4,-119.2 119.2,-652.6 0,-772" /></clipPath><radialGradient
       id="radialGradient36"
       spreadMethod="pad"
       gradientTransform="matrix(475.46878,0,0,475.46878,512.04999,511.96249)"
       gradientUnits="userSpaceOnUse"
       r="1"
       cy="0"
       cx="0"
       fy="0"
       fx="0"><stop
         id="stop38"
         offset="0"
         style="stop-opacity:1;stop-color:#ffffff" /><stop
         id="stop40"
         offset="0.8587"
         style="stop-opacity:0.14129854;stop-color:#ffffff" /><stop
         id="stop42"
         offset="1"
         style="stop-opacity:0;stop-color:#ffffff" /></radialGradient><mask
       id="mask44"
       height="1"
       width="1"
       y="0"
       x="0"
       maskUnits="userSpaceOnUse"><g
         id="g46"><g
           id="g48"><g
             id="g50"><g
               id="g52"><path
                 id="path54"
                 style="fill:url(#radialGradient36);stroke:none"
                 d="m -32768,32767 65535,0 0,-65535 -65535,0 0,65535 z" /></g></g></g></g></mask><radialGradient
       id="radialGradient56"
       spreadMethod="pad"
       gradientTransform="matrix(475.46878,0,0,475.46878,512.04999,511.96249)"
       gradientUnits="userSpaceOnUse"
       r="1"
       cy="0"
       cx="0"
       fy="0"
       fx="0"><stop
         id="stop58"
         offset="0"
         style="stop-opacity:1;stop-color:#010101" /><stop
         id="stop60"
         offset="0.8587"
         style="stop-opacity:1;stop-color:#010101" /><stop
         id="stop62"
         offset="1"
         style="stop-opacity:1;stop-color:#010101" /></radialGradient><clipPath
       id="clipPath86"
       clipPathUnits="userSpaceOnUse"><path
         id="path88"
         d="m 36.625,987.475 950.85,0 0,-951.025 -950.85,0 0,951.025 z" /></clipPath><clipPath
       id="clipPath90"
       clipPathUnits="userSpaceOnUse"><path
         id="path92"
         d="M 898,126 C 778.6,6.6 245.6,6.6 126.2,126 6.8,245.4 6.8,778.6 126,898 c 119.2,119.4 652.6,119.2 772,0 119.4,-119.2 119.2,-652.6 0,-772" /></clipPath><radialGradient
       id="radialGradient98"
       spreadMethod="pad"
       gradientTransform="matrix(376.52914,376.74219,-260.73138,260.57159,512.04999,512.04999)"
       gradientUnits="userSpaceOnUse"
       r="1"
       cy="0"
       cx="0"
       fy="0"
       fx="0"><stop
         id="stop100"
         offset="0"
         style="stop-opacity:1;stop-color:#ffffff" /><stop
         id="stop102"
         offset="0.8587"
         style="stop-opacity:0.14129854;stop-color:#ffffff" /><stop
         id="stop104"
         offset="1"
         style="stop-opacity:0;stop-color:#ffffff" /></radialGradient><mask
       id="mask106"
       height="1"
       width="1"
       y="0"
       x="0"
       maskUnits="userSpaceOnUse"><g
         id="g108"><g
           id="g110"><g
             id="g112"><g
               id="g114"><path
                 id="path116"
                 style="fill:url(#radialGradient98);stroke:none"
                 d="m -32768,32767 65535,0 0,-65535 -65535,0 0,65535 z" /></g></g></g></g></mask><radialGradient
       id="radialGradient118"
       spreadMethod="pad"
       gradientTransform="matrix(376.52914,376.74219,-260.73138,260.57159,512.04999,512.04999)"
       gradientUnits="userSpaceOnUse"
       r="1"
       cy="0"
       cx="0"
       fy="0"
       fx="0"><stop
         id="stop120"
         offset="0"
         style="stop-opacity:1;stop-color:#010101" /><stop
         id="stop122"
         offset="0.8587"
         style="stop-opacity:1;stop-color:#010101" /><stop
         id="stop124"
         offset="1"
         style="stop-opacity:1;stop-color:#010101" /></radialGradient><clipPath
       id="clipPath148"
       clipPathUnits="userSpaceOnUse"><path
         id="path150"
         d="m 36.525,987.375 950.825,0 0,-950.925 -950.825,0 0,950.925 z" /></clipPath><clipPath
       id="clipPath152"
       clipPathUnits="userSpaceOnUse"><path
         id="path154"
         d="M 126,126 C 245.4,6.6 778.4,6.6 897.8,126 c 119.4,119.4 119.4,652.4 0,771.8 C 778.4,1017.2 245.4,1017.2 126,898 6.6,778.8 6.8,245.4 126,126" /></clipPath><radialGradient
       id="radialGradient160"
       spreadMethod="pad"
       gradientTransform="matrix(-376.59515,376.80826,260.77707,260.61728,511.84998,511.95004)"
       gradientUnits="userSpaceOnUse"
       r="1"
       cy="0"
       cx="0"
       fy="0"
       fx="0"><stop
         id="stop162"
         offset="0"
         style="stop-opacity:1;stop-color:#ffffff" /><stop
         id="stop164"
         offset="0.8587"
         style="stop-opacity:0.14129854;stop-color:#ffffff" /><stop
         id="stop166"
         offset="1"
         style="stop-opacity:0;stop-color:#ffffff" /></radialGradient><mask
       id="mask168"
       height="1"
       width="1"
       y="0"
       x="0"
       maskUnits="userSpaceOnUse"><g
         id="g170"><g
           id="g172"><g
             id="g174"><g
               id="g176"><path
                 id="path178"
                 style="fill:url(#radialGradient160);stroke:none"
                 d="m -32768,32767 65535,0 0,-65535 -65535,0 0,65535 z" /></g></g></g></g></mask><radialGradient
       id="radialGradient180"
       spreadMethod="pad"
       gradientTransform="matrix(-376.59515,376.80826,260.77707,260.61728,511.84998,511.95004)"
       gradientUnits="userSpaceOnUse"
       r="1"
       cy="0"
       cx="0"
       fy="0"
       fx="0"><stop
         id="stop182"
         offset="0"
         style="stop-opacity:1;stop-color:#010101" /><stop
         id="stop184"
         offset="0.8587"
         style="stop-opacity:1;stop-color:#010101" /><stop
         id="stop186"
         offset="1"
         style="stop-opacity:1;stop-color:#010101" /></radialGradient><linearGradient
       id="linearGradient218"
       spreadMethod="pad"
       gradientTransform="matrix(0,-920.10004,920.10004,0,511.99997,972.05005)"
       gradientUnits="userSpaceOnUse"
       y2="0"
       x2="1"
       y1="0"
       x1="0"><stop
         id="stop220"
         offset="0"
         style="stop-opacity:1;stop-color:#fff1aa" /><stop
         id="stop222"
         offset="1"
         style="stop-opacity:1;stop-color:#ffe8bf" /></linearGradient><clipPath
       id="clipPath230"
       clipPathUnits="userSpaceOnUse"><path
         id="path232"
         d="m 0,1024 1024,0 L 1024,0 0,0 0,1024 Z" /></clipPath></defs><g
     transform="matrix(1.25,0,0,-1.25,0,1280)"
     id="g10"><g
       id="g12"><g
         clip-path="url(#clipPath16)"
         id="g14"><g
           id="g20"><g
             id="g22" /><g
             id="g64"><g
               style="opacity:0.39999402"
               id="g66"
               clip-path="url(#clipPath24)"><g
                 id="g68"><g
                   id="g70"
                   clip-path="url(#clipPath28)"><g
                     id="g72"><g
                       id="g74" /><g
                       id="g76"
                       mask="url(#mask44)"><g
                         id="g78"><path
                           id="path80"
                           style="fill:url(#radialGradient56);stroke:none"
                           d="M 898,126 C 778.6,6.6 245.6,6.6 126.2,126 6.8,245.4 6.8,778.6 126,898 c 119.2,119.4 652.6,119.2 772,0 119.4,-119.2 119.2,-652.6 0,-772" /></g></g></g></g></g></g></g></g><g
           id="g82"><g
             id="g84" /><g
             id="g126"><g
               style="opacity:0.39999402"
               id="g128"
               clip-path="url(#clipPath86)"><g
                 id="g130"><g
                   id="g132"
                   clip-path="url(#clipPath90)"><g
                     id="g134"><g
                       id="g136" /><g
                       id="g138"
                       mask="url(#mask106)"><g
                         id="g140"><path
                           id="path142"
                           style="fill:url(#radialGradient118);stroke:none"
                           d="M 898,126 C 778.6,6.6 245.6,6.6 126.2,126 6.8,245.4 6.8,778.6 126,898 c 119.2,119.4 652.6,119.2 772,0 119.4,-119.2 119.2,-652.6 0,-772" /></g></g></g></g></g></g></g></g><g
           id="g144"><g
             id="g146" /><g
             id="g188"><g
               style="opacity:0.39999402"
               id="g190"
               clip-path="url(#clipPath148)"><g
                 id="g192"><g
                   id="g194"
                   clip-path="url(#clipPath152)"><g
                     id="g196"><g
                       id="g198" /><g
                       id="g200"
                       mask="url(#mask168)"><g
                         id="g202"><path
                           id="path204"
                           style="fill:url(#radialGradient180);stroke:none"
                           d="M 126,126 C 245.4,6.6 778.4,6.6 897.8,126 c 119.4,119.4 119.4,652.4 0,771.8 C 778.4,1017.2 245.4,1017.2 126,898 6.6,778.8 6.8,245.4 126,126" /></g></g></g></g></g></g></g></g></g></g><g
       id="g206"><g
         id="g208"><g
           id="g214"><g
             id="g216"><path
               id="path224"
               style="fill:url(#linearGradient218);stroke:none"
               d="M 157.4,866.6 C 16.8,726 16.8,298 157.4,157.4 l 0,0 C 298,16.8 726,16.8 866.6,157.4 l 0,0 c 140.6,140.6 140.6,568.6 0,709.2 l 0,0 C 796.3,936.9 654.15,972.05 512,972.05 l 0,0 C 369.85,972.05 227.7,936.9 157.4,866.6" /></g></g></g></g><g
       id="g226"><g
         clip-path="url(#clipPath230)"
         id="g228"><g
           transform="translate(960.5698,373.8895)"
           id="g234"><path
             id="path236"
             style="fill:#fbd506;fill-opacity:1;fill-rule:nonzero;stroke:none"
             d="m 0,0 c -39.477,-24.097 -71.126,-21.108 -119.845,8.806 -45.21,27.762 -92.08,49.811 -143.884,61.887 -78.75,18.359 -151.998,47.21 -205.586,112.234 -10.385,12.6 -26.35,24.011 -41.08,22.153 -72.21,-9.109 -128.955,25.116 -185.64,61.062 -6.536,-53.955 23.71,-94.524 51.342,-134.972 55.234,-80.854 130.785,-144.225 192.972,-218.621 53.67,-64.207 152.254,-96.893 157.395,-197.535 0.477,-9.342 2.548,-16.158 5.481,-21.39 81.02,16.631 151.578,46.589 194.875,89.886 C -46.863,-169.383 -15.541,-90.012 0,0" /></g><g
           transform="translate(810.0455,688.8)"
           id="g238"><path
             id="path240"
             style="fill:#dc912d;fill-opacity:1;fill-rule:nonzero;stroke:none"
             d="m 0,0 c -40.868,58.515 -115.068,76.811 -183.582,45.134 -15.696,-7.257 -30.401,-23.13 -48.463,-16.683 -97.5,34.799 -183.698,-25.356 -276.219,-31.671 -24.791,-1.692 -41.083,-17.06 -37.243,-45.535 56.682,-35.96 113.427,-70.184 185.636,-61.076 14.731,1.859 30.696,-9.553 41.08,-22.153 53.588,-65.023 126.836,-93.874 205.587,-112.233 51.803,-12.077 98.673,-34.126 143.884,-61.887 48.718,-29.915 80.367,-32.903 119.844,-8.806 12.033,69.689 14.605,145.757 7.716,218.174 -11.71,4.219 -23.617,7.946 -35.836,10.938 C 70.543,-73.098 31.61,-45.258 0,0" /></g><g
           transform="translate(803.9592,559.2216)"
           id="g242"><path
             id="path244"
             style="fill:#000000;fill-opacity:1;fill-rule:nonzero;stroke:none"
             d="m 0,0 c -26.991,-59.961 -97.48,-86.689 -157.441,-59.698 -59.961,26.991 -86.689,97.48 -59.698,157.441 26.991,59.961 97.48,86.689 157.441,59.698 C 0.263,130.45 26.991,59.961 0,0" /></g><g
           transform="translate(695.3899,608.0931)"
           id="g246"><path
             id="path248"
             style="fill:#fefdfb;fill-opacity:1;fill-rule:nonzero;stroke:none"
             d="m 0,0 c -11.661,-52.403 31.288,-106.545 -21.115,-94.884 -52.403,11.661 -85.43,63.596 -73.769,115.999 11.661,52.403 63.596,85.43 115.999,73.769 C 73.518,83.223 11.661,52.403 0,0" /></g></g></g></g></svg>