<?xml version="1.0" encoding="UTF-8" standalone="no"?>
<svg
   xmlns:dc="http://purl.org/dc/elements/1.1/"
   xmlns:cc="http://creativecommons.org/ns#"
   xmlns:rdf="http://www.w3.org/1999/02/22-rdf-syntax-ns#"
   xmlns:svg="http://www.w3.org/2000/svg"
   xmlns="http://www.w3.org/2000/svg"
   viewBox="0 0 640 640"
   height="640"
   width="640"
   xml:space="preserve"
   version="1.1"
   id="svg2"><metadata
     id="metadata8"><rdf:RDF><cc:Work
         rdf:about=""><dc:format>image/svg+xml</dc:format><dc:type
           rdf:resource="http://purl.org/dc/dcmitype/StillImage" /></cc:Work></rdf:RDF></metadata><defs
     id="defs6"><clipPath
       id="clipPath16"
       clipPathUnits="userSpaceOnUse"><path
         id="path18"
         d="M 0,512 512,512 512,0 0,0 0,512 Z" /></clipPath><clipPath
       id="clipPath24"
       clipPathUnits="userSpaceOnUse"><path
         id="path26"
         d="m 18.325,493.744 475.4,0 0,-475.4877 -475.4,0 0,475.4877 z" /></clipPath><clipPath
       id="clipPath28"
       clipPathUnits="userSpaceOnUse"><path
         id="path30"
         d="M 448.99,63.029 C 389.293,3.332 122.807,3.332 63.11,63.029 3.413,122.726 3.413,389.312 63.01,449.009 c 59.597,59.696 326.283,59.596 385.98,0 59.697,-59.597 59.597,-326.283 0,-385.98" /></clipPath><radialGradient
       id="radialGradient36"
       spreadMethod="pad"
       gradientTransform="matrix(237.72188,0,0,237.72188,256.02499,256)"
       gradientUnits="userSpaceOnUse"
       r="1"
       cy="0"
       cx="0"
       fy="0"
       fx="0"><stop
         id="stop38"
         offset="0"
         style="stop-opacity:1;stop-color:#ffffff" /><stop
         id="stop40"
         offset="0.8587"
         style="stop-opacity:0.14129854;stop-color:#ffffff" /><stop
         id="stop42"
         offset="1"
         style="stop-opacity:0;stop-color:#ffffff" /></radialGradient><mask
       id="mask44"
       height="1"
       width="1"
       y="0"
       x="0"
       maskUnits="userSpaceOnUse"><g
         id="g46"><g
           id="g48"><g
             id="g50"><g
               id="g52"><path
                 id="path54"
                 style="fill:url(#radialGradient36);stroke:none"
                 d="m -32768,32767 65535,0 0,-65535 -65535,0 0,65535 z" /></g></g></g></g></mask><radialGradient
       id="radialGradient56"
       spreadMethod="pad"
       gradientTransform="matrix(237.72188,0,0,237.72188,256.02499,256)"
       gradientUnits="userSpaceOnUse"
       r="1"
       cy="0"
       cx="0"
       fy="0"
       fx="0"><stop
         id="stop58"
         offset="0"
         style="stop-opacity:1;stop-color:#010101" /><stop
         id="stop60"
         offset="0.8587"
         style="stop-opacity:1;stop-color:#010101" /><stop
         id="stop62"
         offset="1"
         style="stop-opacity:1;stop-color:#010101" /></radialGradient><clipPath
       id="clipPath86"
       clipPathUnits="userSpaceOnUse"><path
         id="path88"
         d="m 18.325,493.744 475.4,0 0,-475.4877 -475.4,0 0,475.4877 z" /></clipPath><clipPath
       id="clipPath90"
       clipPathUnits="userSpaceOnUse"><path
         id="path92"
         d="M 448.99,63.029 C 389.293,3.332 122.807,3.332 63.11,63.029 3.413,122.726 3.413,389.312 63.01,449.009 c 59.597,59.696 326.283,59.596 385.98,0 59.697,-59.597 59.597,-326.283 0,-385.98" /></clipPath><radialGradient
       id="radialGradient98"
       spreadMethod="pad"
       gradientTransform="matrix(188.25467,188.36119,-130.35883,130.27895,256.02499,256.04376)"
       gradientUnits="userSpaceOnUse"
       r="1"
       cy="0"
       cx="0"
       fy="0"
       fx="0"><stop
         id="stop100"
         offset="0"
         style="stop-opacity:1;stop-color:#ffffff" /><stop
         id="stop102"
         offset="0.8587"
         style="stop-opacity:0.14129854;stop-color:#ffffff" /><stop
         id="stop104"
         offset="1"
         style="stop-opacity:0;stop-color:#ffffff" /></radialGradient><mask
       id="mask106"
       height="1"
       width="1"
       y="0"
       x="0"
       maskUnits="userSpaceOnUse"><g
         id="g108"><g
           id="g110"><g
             id="g112"><g
               id="g114"><path
                 id="path116"
                 style="fill:url(#radialGradient98);stroke:none"
                 d="m -32768,32767 65535,0 0,-65535 -65535,0 0,65535 z" /></g></g></g></g></mask><radialGradient
       id="radialGradient118"
       spreadMethod="pad"
       gradientTransform="matrix(188.25467,188.36119,-130.35883,130.27895,256.02499,256.04376)"
       gradientUnits="userSpaceOnUse"
       r="1"
       cy="0"
       cx="0"
       fy="0"
       fx="0"><stop
         id="stop120"
         offset="0"
         style="stop-opacity:1;stop-color:#010101" /><stop
         id="stop122"
         offset="0.8587"
         style="stop-opacity:1;stop-color:#010101" /><stop
         id="stop124"
         offset="1"
         style="stop-opacity:1;stop-color:#010101" /></radialGradient><clipPath
       id="clipPath148"
       clipPathUnits="userSpaceOnUse"><path
         id="path150"
         d="m 18.275,493.694 475.387,0 0,-475.4377 -475.387,0 0,475.4377 z" /></clipPath><clipPath
       id="clipPath152"
       clipPathUnits="userSpaceOnUse"><path
         id="path154"
         d="m 63.01,63.029 c 59.697,-59.697 326.183,-59.697 385.88,0 59.697,59.697 59.697,326.183 0,385.88 -59.697,59.696 -326.183,59.696 -385.88,0.1 -59.697,-59.597 -59.597,-326.283 0,-385.98" /></clipPath><radialGradient
       id="radialGradient160"
       spreadMethod="pad"
       gradientTransform="matrix(-188.28767,188.39421,130.38168,130.30179,255.92499,255.99377)"
       gradientUnits="userSpaceOnUse"
       r="1"
       cy="0"
       cx="0"
       fy="0"
       fx="0"><stop
         id="stop162"
         offset="0"
         style="stop-opacity:1;stop-color:#ffffff" /><stop
         id="stop164"
         offset="0.8587"
         style="stop-opacity:0.14129854;stop-color:#ffffff" /><stop
         id="stop166"
         offset="1"
         style="stop-opacity:0;stop-color:#ffffff" /></radialGradient><mask
       id="mask168"
       height="1"
       width="1"
       y="0"
       x="0"
       maskUnits="userSpaceOnUse"><g
         id="g170"><g
           id="g172"><g
             id="g174"><g
               id="g176"><path
                 id="path178"
                 style="fill:url(#radialGradient160);stroke:none"
                 d="m -32768,32767 65535,0 0,-65535 -65535,0 0,65535 z" /></g></g></g></g></mask><radialGradient
       id="radialGradient180"
       spreadMethod="pad"
       gradientTransform="matrix(-188.28767,188.39421,130.38168,130.30179,255.92499,255.99377)"
       gradientUnits="userSpaceOnUse"
       r="1"
       cy="0"
       cx="0"
       fy="0"
       fx="0"><stop
         id="stop182"
         offset="0"
         style="stop-opacity:1;stop-color:#010101" /><stop
         id="stop184"
         offset="0.8587"
         style="stop-opacity:1;stop-color:#010101" /><stop
         id="stop186"
         offset="1"
         style="stop-opacity:1;stop-color:#010101" /></radialGradient><linearGradient
       id="linearGradient218"
       spreadMethod="pad"
       gradientTransform="matrix(0,460,460,0,256,26)"
       gradientUnits="userSpaceOnUse"
       y2="0"
       x2="1"
       y1="0"
       x1="0"><stop
         id="stop220"
         offset="0"
         style="stop-opacity:1;stop-color:#fe5f38" /><stop
         id="stop222"
         offset="1"
         style="stop-opacity:1;stop-color:#fe9105" /></linearGradient><clipPath
       id="clipPath230"
       clipPathUnits="userSpaceOnUse"><path
         id="path232"
         d="M 0,512 512,512 512,0 0,0 0,512 Z" /></clipPath></defs><g
     transform="matrix(1.25,0,0,-1.25,0,640)"
     id="g10"><g
       id="g12"><g
         clip-path="url(#clipPath16)"
         id="g14"><g
           id="g20"><g
             id="g22" /><g
             id="g64"><g
               style="opacity:0.39999402"
               id="g66"
               clip-path="url(#clipPath24)"><g
                 id="g68"><g
                   id="g70"
                   clip-path="url(#clipPath28)"><g
                     id="g72"><g
                       id="g74" /><g
                       id="g76"
                       mask="url(#mask44)"><g
                         id="g78"><path
                           id="path80"
                           style="fill:url(#radialGradient56);stroke:none"
                           d="M 448.99,63.029 C 389.293,3.332 122.807,3.332 63.11,63.029 3.413,122.726 3.413,389.312 63.01,449.009 c 59.597,59.696 326.283,59.596 385.98,0 59.697,-59.597 59.597,-326.283 0,-385.98" /></g></g></g></g></g></g></g></g><g
           id="g82"><g
             id="g84" /><g
             id="g126"><g
               style="opacity:0.39999402"
               id="g128"
               clip-path="url(#clipPath86)"><g
                 id="g130"><g
                   id="g132"
                   clip-path="url(#clipPath90)"><g
                     id="g134"><g
                       id="g136" /><g
                       id="g138"
                       mask="url(#mask106)"><g
                         id="g140"><path
                           id="path142"
                           style="fill:url(#radialGradient118);stroke:none"
                           d="M 448.99,63.029 C 389.293,3.332 122.807,3.332 63.11,63.029 3.413,122.726 3.413,389.312 63.01,449.009 c 59.597,59.696 326.283,59.596 385.98,0 59.697,-59.597 59.597,-326.283 0,-385.98" /></g></g></g></g></g></g></g></g><g
           id="g144"><g
             id="g146" /><g
             id="g188"><g
               style="opacity:0.39999402"
               id="g190"
               clip-path="url(#clipPath148)"><g
                 id="g192"><g
                   id="g194"
                   clip-path="url(#clipPath152)"><g
                     id="g196"><g
                       id="g198" /><g
                       id="g200"
                       mask="url(#mask168)"><g
                         id="g202"><path
                           id="path204"
                           style="fill:url(#radialGradient180);stroke:none"
                           d="m 63.01,63.029 c 59.697,-59.697 326.183,-59.697 385.88,0 59.697,59.697 59.697,326.183 0,385.88 -59.697,59.696 -326.183,59.696 -385.88,0.1 -59.697,-59.597 -59.597,-326.283 0,-385.98" /></g></g></g></g></g></g></g></g></g></g><g
       id="g206"><g
         id="g208"><g
           id="g214"><g
             id="g216"><path
               id="path224"
               style="fill:url(#linearGradient218);stroke:none"
               d="M 78.721,433.279 C 8.427,362.985 8.427,149.015 78.721,78.721 l 0,0 c 70.294,-70.294 284.264,-70.294 354.558,0 l 0,0 c 70.294,70.294 70.294,284.264 0,354.558 l 0,0 C 398.132,468.426 327.066,486 256,486 l 0,0 C 184.934,486 113.868,468.426 78.721,433.279" /></g></g></g></g><g
       id="g226"><g
         clip-path="url(#clipPath230)"
         id="g228"><g
           transform="translate(339.3487,338.2972)"
           id="g234"><path
             id="path236"
             style="fill:#ffffff;fill-opacity:1;fill-rule:nonzero;stroke:none"
             d="m 0,0 -52.118,13.965 13.965,-52.118 13.529,13.529 c 31.623,-32.187 31.453,-83.91 -0.517,-115.881 -23.534,-23.534 -57.774,-29.836 -87.044,-18.911 l 4.857,-18.125 c 32.384,-8.122 68.099,0.475 93.424,25.8 38.177,38.177 38.345,99.961 0.518,138.354 L 0.001,0 0.001,0.001 0,0 Z" /></g><g
           transform="translate(198.3258,197.2743)"
           id="g238"><path
             id="path240"
             style="fill:#ffffff;fill-opacity:1;fill-rule:nonzero;stroke:none"
             d="m 0,0 c -0.177,0.174 -0.356,0.343 -0.531,0.518 -32.147,32.147 -32.147,84.267 0,116.414 24.206,24.205 59.736,30.181 89.536,17.934 l -5.189,18.536 c -32.947,9.064 -69.694,0.656 -95.584,-25.234 -38.352,-38.352 -38.351,-100.533 0,-138.885 0.176,-0.175 0.359,-0.34 0.535,-0.514 L -24.653,-24.651 27.465,-38.616 13.5,13.502 0,0 Z" /></g><g
           transform="translate(281.6006,300.6008)"
           id="g242"><path
             id="path244"
             style="fill:#ffffff;fill-opacity:1;fill-rule:nonzero;stroke:none"
             d="m 0,0 c 0,0 -38.895,-9.712 -20.32,-31.117 5.484,-6.312 -1.437,-11.988 -1.437,-11.988 0,0 13.915,7.183 7.526,16.181 C -20.201,-18.536 -24.778,-14.37 0,0" /></g><g
           transform="translate(256.1711,293.8424)"
           id="g246"><path
             id="path248"
             style="fill:#ffffff;fill-opacity:1;fill-rule:nonzero;stroke:none"
             d="M 0,0 C 23.002,18.156 11.199,29.966 11.199,29.966 15.96,11.209 -5.596,5.543 -13.375,-6.139 c -5.298,-7.959 2.6,-16.513 13.369,-26.227 C -4.206,-22.874 -18.446,-14.57 0,0" /></g><g
           transform="translate(241.0882,235.9438)"
           id="g250"><path
             id="path252"
             style="fill:#ffffff;fill-opacity:1;fill-rule:nonzero;stroke:none"
             d="m 0,0 c -17.47,-4.881 10.628,-14.963 32.872,-5.433 -3.643,1.415 -6.256,3.05 -6.256,3.05 C 16.696,-4.258 12.096,-4.406 3.092,-3.378 -4.339,-2.526 0,0 0,0" /></g><g
           transform="translate(271.2969,245.4651)"
           id="g254"><path
             id="path256"
             style="fill:#ffffff;fill-opacity:1;fill-rule:nonzero;stroke:none"
             d="m 0,0 c -13.147,-2.53 -20.74,-2.449 -30.36,-1.456 -7.436,0.769 -2.569,4.372 -2.569,4.372 C -52.168,-3.468 -22.219,-10.715 4.67,-2.85 1.814,-1.843 0,0 0,0" /></g><g
           transform="translate(238.3687,248.382)"
           id="g258"><path
             id="path260"
             style="fill:#ffffff;fill-opacity:1;fill-rule:nonzero;stroke:none"
             d="M 0,0 Z" /></g><g
           transform="translate(290.6993,226.7424)"
           id="g262"><path
             id="path264"
             style="fill:#ffffff;fill-opacity:1;fill-rule:nonzero;stroke:none"
             d="m 0,0 c 0,0 3.212,-2.648 -3.538,-4.696 -12.836,-3.888 -53.435,-5.061 -64.712,-0.156 -4.05,1.764 3.55,4.21 5.941,4.726 2.493,0.54 3.916,0.441 3.916,0.441 C -62.901,3.489 -87.531,-5.92 -70.902,-8.619 -25.553,-15.968 11.761,-5.307 0,0" /></g><g
           transform="translate(275.1135,254.3511)"
           id="g266"><path
             id="path268"
             style="fill:#ffffff;fill-opacity:1;fill-rule:nonzero;stroke:none"
             d="m 0,0 c 2.18,1.488 5.192,2.78 5.192,2.78 0,0 -8.577,-1.535 -17.124,-2.252 -10.461,-0.877 -21.684,-1.051 -27.317,-0.297 -13.336,1.783 7.313,6.689 7.313,6.689 0,0 -8.021,0.542 -17.88,-4.228 C -61.48,-2.947 -20.972,-5.516 0,0" /></g><g
           transform="translate(280.2198,240.5669)"
           id="g270"><path
             id="path272"
             style="fill:#ffffff;fill-opacity:1;fill-rule:nonzero;stroke:none"
             d="m 0,0 c -0.098,-0.264 -0.426,-0.561 -0.426,-0.561 28.465,7.483 18,26.378 4.389,21.595 -1.193,-0.423 -1.82,-1.405 -1.82,-1.405 0,0 0.754,0.305 2.437,0.656 C 11.46,21.718 21.318,11.075 0,0" /></g><g
           transform="translate(280.9893,214.3748)"
           id="g274"><path
             id="path276"
             style="fill:#ffffff;fill-opacity:1;fill-rule:nonzero;stroke:none"
             d="m 0,0 c -17.463,-3.288 -39.006,-2.905 -51.779,-0.796 0,0 2.617,-2.166 16.062,-3.031 20.458,-1.308 51.882,0.728 52.626,10.409 0,0 -1.43,-3.67 -16.909,-6.582" /></g></g></g></g></svg>