<?xml version="1.0" encoding="UTF-8" standalone="no"?>
<svg
   xmlns:dc="http://purl.org/dc/elements/1.1/"
   xmlns:cc="http://creativecommons.org/ns#"
   xmlns:rdf="http://www.w3.org/1999/02/22-rdf-syntax-ns#"
   xmlns:svg="http://www.w3.org/2000/svg"
   xmlns="http://www.w3.org/2000/svg"
   viewBox="0 0 640 640"
   height="640"
   width="640"
   xml:space="preserve"
   version="1.1"
   id="svg2"><metadata
     id="metadata8"><rdf:RDF><cc:Work
         rdf:about=""><dc:format>image/svg+xml</dc:format><dc:type
           rdf:resource="http://purl.org/dc/dcmitype/StillImage" /></cc:Work></rdf:RDF></metadata><defs
     id="defs6"><clipPath
       id="clipPath16"
       clipPathUnits="userSpaceOnUse"><path
         id="path18"
         d="M 0,512 512,512 512,0 0,0 0,512 Z" /></clipPath><clipPath
       id="clipPath24"
       clipPathUnits="userSpaceOnUse"><path
         id="path26"
         d="m 18.3125,493.738 475.4255,0 0,-475.513 -475.4255,0 0,475.513 z" /></clipPath><clipPath
       id="clipPath28"
       clipPathUnits="userSpaceOnUse"><path
         id="path30"
         d="M 449,63 C 389.3,3.3 122.8,3.3 63.1,63 3.4,122.7 3.4,389.3 63,449 c 59.6,59.7 326.3,59.6 386,0 59.7,-59.6 59.6,-326.3 0,-386" /></clipPath><radialGradient
       id="radialGradient36"
       spreadMethod="pad"
       gradientTransform="matrix(237.73439,0,0,237.73439,256.02499,255.98125)"
       gradientUnits="userSpaceOnUse"
       r="1"
       cy="0"
       cx="0"
       fy="0"
       fx="0"><stop
         id="stop38"
         offset="0"
         style="stop-opacity:1;stop-color:#ffffff" /><stop
         id="stop40"
         offset="0.8587"
         style="stop-opacity:0.14129854;stop-color:#ffffff" /><stop
         id="stop42"
         offset="1"
         style="stop-opacity:0;stop-color:#ffffff" /></radialGradient><mask
       id="mask44"
       height="1"
       width="1"
       y="0"
       x="0"
       maskUnits="userSpaceOnUse"><g
         id="g46"><g
           id="g48"><g
             id="g50"><g
               id="g52"><path
                 id="path54"
                 style="fill:url(#radialGradient36);stroke:none"
                 d="m -32768,32767 65535,0 0,-65535 -65535,0 0,65535 z" /></g></g></g></g></mask><radialGradient
       id="radialGradient56"
       spreadMethod="pad"
       gradientTransform="matrix(237.73439,0,0,237.73439,256.02499,255.98125)"
       gradientUnits="userSpaceOnUse"
       r="1"
       cy="0"
       cx="0"
       fy="0"
       fx="0"><stop
         id="stop58"
         offset="0"
         style="stop-opacity:1;stop-color:#010101" /><stop
         id="stop60"
         offset="0.8587"
         style="stop-opacity:1;stop-color:#010101" /><stop
         id="stop62"
         offset="1"
         style="stop-opacity:1;stop-color:#010101" /></radialGradient><clipPath
       id="clipPath86"
       clipPathUnits="userSpaceOnUse"><path
         id="path88"
         d="m 18.3125,493.738 475.4255,0 0,-475.513 -475.4255,0 0,475.513 z" /></clipPath><clipPath
       id="clipPath90"
       clipPathUnits="userSpaceOnUse"><path
         id="path92"
         d="M 449,63 C 389.3,3.3 122.8,3.3 63.1,63 3.4,122.7 3.4,389.3 63,449 c 59.6,59.7 326.3,59.6 386,0 59.7,-59.6 59.6,-326.3 0,-386" /></clipPath><radialGradient
       id="radialGradient98"
       spreadMethod="pad"
       gradientTransform="matrix(188.26457,188.37109,-130.36569,130.2858,256.02499,256.02499)"
       gradientUnits="userSpaceOnUse"
       r="1"
       cy="0"
       cx="0"
       fy="0"
       fx="0"><stop
         id="stop100"
         offset="0"
         style="stop-opacity:1;stop-color:#ffffff" /><stop
         id="stop102"
         offset="0.8587"
         style="stop-opacity:0.14129854;stop-color:#ffffff" /><stop
         id="stop104"
         offset="1"
         style="stop-opacity:0;stop-color:#ffffff" /></radialGradient><mask
       id="mask106"
       height="1"
       width="1"
       y="0"
       x="0"
       maskUnits="userSpaceOnUse"><g
         id="g108"><g
           id="g110"><g
             id="g112"><g
               id="g114"><path
                 id="path116"
                 style="fill:url(#radialGradient98);stroke:none"
                 d="m -32768,32767 65535,0 0,-65535 -65535,0 0,65535 z" /></g></g></g></g></mask><radialGradient
       id="radialGradient118"
       spreadMethod="pad"
       gradientTransform="matrix(188.26457,188.37109,-130.36569,130.2858,256.02499,256.02499)"
       gradientUnits="userSpaceOnUse"
       r="1"
       cy="0"
       cx="0"
       fy="0"
       fx="0"><stop
         id="stop120"
         offset="0"
         style="stop-opacity:1;stop-color:#010101" /><stop
         id="stop122"
         offset="0.8587"
         style="stop-opacity:1;stop-color:#010101" /><stop
         id="stop124"
         offset="1"
         style="stop-opacity:1;stop-color:#010101" /></radialGradient><clipPath
       id="clipPath148"
       clipPathUnits="userSpaceOnUse"><path
         id="path150"
         d="m 18.2625,493.687 475.4125,0 0,-475.462 -475.4125,0 0,475.462 z" /></clipPath><clipPath
       id="clipPath152"
       clipPathUnits="userSpaceOnUse"><path
         id="path154"
         d="m 63,63 c 59.7,-59.7 326.2,-59.7 385.9,0 59.7,59.7 59.7,326.2 0,385.9 C 389.2,508.6 122.7,508.6 63,449 3.3,389.4 3.4,122.7 63,63" /></clipPath><radialGradient
       id="radialGradient160"
       spreadMethod="pad"
       gradientTransform="matrix(-188.29758,188.40413,130.38853,130.30864,255.92499,255.97502)"
       gradientUnits="userSpaceOnUse"
       r="1"
       cy="0"
       cx="0"
       fy="0"
       fx="0"><stop
         id="stop162"
         offset="0"
         style="stop-opacity:1;stop-color:#ffffff" /><stop
         id="stop164"
         offset="0.8587"
         style="stop-opacity:0.14129854;stop-color:#ffffff" /><stop
         id="stop166"
         offset="1"
         style="stop-opacity:0;stop-color:#ffffff" /></radialGradient><mask
       id="mask168"
       height="1"
       width="1"
       y="0"
       x="0"
       maskUnits="userSpaceOnUse"><g
         id="g170"><g
           id="g172"><g
             id="g174"><g
               id="g176"><path
                 id="path178"
                 style="fill:url(#radialGradient160);stroke:none"
                 d="m -32768,32767 65535,0 0,-65535 -65535,0 0,65535 z" /></g></g></g></g></mask><radialGradient
       id="radialGradient180"
       spreadMethod="pad"
       gradientTransform="matrix(-188.29758,188.40413,130.38853,130.30864,255.92499,255.97502)"
       gradientUnits="userSpaceOnUse"
       r="1"
       cy="0"
       cx="0"
       fy="0"
       fx="0"><stop
         id="stop182"
         offset="0"
         style="stop-opacity:1;stop-color:#010101" /><stop
         id="stop184"
         offset="0.8587"
         style="stop-opacity:1;stop-color:#010101" /><stop
         id="stop186"
         offset="1"
         style="stop-opacity:1;stop-color:#010101" /></radialGradient><linearGradient
       id="linearGradient218"
       spreadMethod="pad"
       gradientTransform="matrix(0,-460.05002,460.05002,0,255.99998,486.02502)"
       gradientUnits="userSpaceOnUse"
       y2="0"
       x2="1"
       y1="0"
       x1="0"><stop
         id="stop220"
         offset="0"
         style="stop-opacity:1;stop-color:#1f1f21" /><stop
         id="stop222"
         offset="1"
         style="stop-opacity:1;stop-color:#1f1f21" /></linearGradient><clipPath
       id="clipPath230"
       clipPathUnits="userSpaceOnUse"><path
         id="path232"
         d="M 0,512 512,512 512,0 0,0 0,512 Z" /></clipPath></defs><g
     transform="matrix(1.25,0,0,-1.25,0,640)"
     id="g10"><g
       id="g12"><g
         clip-path="url(#clipPath16)"
         id="g14"><g
           id="g20"><g
             id="g22" /><g
             id="g64"><g
               style="opacity:0.39999402"
               id="g66"
               clip-path="url(#clipPath24)"><g
                 id="g68"><g
                   id="g70"
                   clip-path="url(#clipPath28)"><g
                     id="g72"><g
                       id="g74" /><g
                       id="g76"
                       mask="url(#mask44)"><g
                         id="g78"><path
                           id="path80"
                           style="fill:url(#radialGradient56);stroke:none"
                           d="M 449,63 C 389.3,3.3 122.8,3.3 63.1,63 3.4,122.7 3.4,389.3 63,449 c 59.6,59.7 326.3,59.6 386,0 59.7,-59.6 59.6,-326.3 0,-386" /></g></g></g></g></g></g></g></g><g
           id="g82"><g
             id="g84" /><g
             id="g126"><g
               style="opacity:0.39999402"
               id="g128"
               clip-path="url(#clipPath86)"><g
                 id="g130"><g
                   id="g132"
                   clip-path="url(#clipPath90)"><g
                     id="g134"><g
                       id="g136" /><g
                       id="g138"
                       mask="url(#mask106)"><g
                         id="g140"><path
                           id="path142"
                           style="fill:url(#radialGradient118);stroke:none"
                           d="M 449,63 C 389.3,3.3 122.8,3.3 63.1,63 3.4,122.7 3.4,389.3 63,449 c 59.6,59.7 326.3,59.6 386,0 59.7,-59.6 59.6,-326.3 0,-386" /></g></g></g></g></g></g></g></g><g
           id="g144"><g
             id="g146" /><g
             id="g188"><g
               style="opacity:0.39999402"
               id="g190"
               clip-path="url(#clipPath148)"><g
                 id="g192"><g
                   id="g194"
                   clip-path="url(#clipPath152)"><g
                     id="g196"><g
                       id="g198" /><g
                       id="g200"
                       mask="url(#mask168)"><g
                         id="g202"><path
                           id="path204"
                           style="fill:url(#radialGradient180);stroke:none"
                           d="m 63,63 c 59.7,-59.7 326.2,-59.7 385.9,0 59.7,59.7 59.7,326.2 0,385.9 C 389.2,508.6 122.7,508.6 63,449 3.3,389.4 3.4,122.7 63,63" /></g></g></g></g></g></g></g></g></g></g><g
       id="g206"><g
         id="g208"><g
           id="g214"><g
             id="g216"><path
               id="path224"
               style="fill:url(#linearGradient218);stroke:none"
               d="M 78.7,433.3 C 8.4,363 8.4,149 78.7,78.7 l 0,0 C 149,8.4 363,8.4 433.3,78.7 l 0,0 c 70.3,70.3 70.3,284.3 0,354.6 l 0,0 C 398.15,468.45 327.075,486.025 256,486.025 l 0,0 c -71.075,0 -142.15,-17.575 -177.3,-52.725" /></g></g></g></g><g
       id="g226"><g
         clip-path="url(#clipPath230)"
         id="g228"><g
           transform="translate(218.3606,316.8247)"
           id="g234"><path
             id="path236"
             style="fill:#ffffff;fill-opacity:1;fill-rule:nonzero;stroke:none"
             d="m 0,0 c -0.405,0.243 -0.782,0.431 -1.159,0.593 -2.13,1.025 -4.421,1.537 -6.929,1.537 -4.475,0 -8.277,-1.591 -11.431,-4.772 -3.154,-3.154 -4.745,-6.955 -4.745,-11.404 0,-4.475 1.591,-8.304 4.745,-11.458 0.027,-0.027 0.027,-0.027 0.054,-0.054 l 34.293,-34.321 -36.369,-36.342 -0.027,0 c -1.807,-2.804 -2.696,-5.958 -2.696,-9.436 0,-4.448 1.591,-8.277 4.745,-11.431 3.154,-3.154 6.955,-4.745 11.43,-4.745 3.478,0.027 6.606,0.916 9.409,2.723 l 0.027,0 47.72,47.72 -0.027,0.027 0.027,0.027 c 0.997,0.997 1.833,2.022 2.507,3.127 0.054,0.08 0.108,0.161 0.162,0.242 0.215,0.378 0.404,0.755 0.593,1.16 0.998,2.102 1.51,4.421 1.537,6.928 -0.027,0.297 -0.027,0.594 -0.027,0.89 -0.054,0.835 -0.162,1.671 -0.297,2.453 -0.242,1.105 -0.566,2.184 -1.024,3.208 -0.215,0.459 -0.458,0.917 -0.701,1.348 -0.243,0.486 -0.539,0.944 -0.863,1.402 l -0.027,0 -47.531,47.908 0,-0.027 -0.027,0.027 C 2.319,-1.591 1.187,-0.701 0,0" /></g><g
           transform="translate(255,354.0834)"
           id="g238"><path
             id="path240"
             style="fill:#ffffff;fill-opacity:1;fill-rule:nonzero;stroke:none"
             d="m 0,0 c 26.771,0 49.66,-9.463 68.613,-28.416 18.953,-18.953 28.443,-41.842 28.443,-68.64 0,-26.799 -9.49,-49.688 -28.443,-68.641 C 49.66,-184.65 26.771,-194.14 0,-194.14 c -26.798,0 -49.687,9.49 -68.64,28.443 -18.953,18.953 -28.443,41.842 -28.416,68.641 -0.027,26.798 9.463,49.687 28.416,68.64 C -49.688,-9.463 -26.798,0 0,0 m 129.409,-97.083 c 0,35.748 -12.645,66.268 -37.906,91.529 C 66.241,19.708 35.722,32.352 0,32.352 c -35.749,0 -66.268,-12.644 -91.53,-37.906 -25.262,-25.261 -37.879,-55.781 -37.879,-91.529 0,-35.723 12.618,-66.242 37.879,-91.503 25.262,-25.262 55.781,-37.906 91.53,-37.933 35.722,0.027 66.241,12.672 91.502,37.933 25.262,25.261 37.907,55.78 37.907,91.503" /></g><g
           transform="translate(312.6676,314.2096)"
           id="g242"><path
             id="path244"
             style="fill:#ffffff;fill-opacity:1;fill-rule:nonzero;stroke:none"
             d="m 0,0 c -3.155,3.155 -6.983,4.745 -11.431,4.745 -3.505,0 -6.659,-0.917 -9.436,-2.75 l -21.029,-21.029 c -0.027,0 -0.027,0 -0.027,-0.027 -1.051,-1.051 -1.941,-2.157 -2.642,-3.37 -0.242,-0.378 -0.431,-0.755 -0.619,-1.159 -0.998,-2.103 -1.51,-4.422 -1.51,-6.929 -0.027,-4.449 1.563,-8.277 4.718,-11.431 3.154,-3.154 6.982,-4.745 11.458,-4.745 4.448,0.027 8.277,1.618 11.458,4.772 0,0.027 0,0.027 0.027,0.027 l 6.497,6.471 14.531,14.558 c 1.807,2.804 2.723,5.958 2.751,9.436 C 4.718,-6.956 3.154,-3.155 0,0" /></g><g
           transform="translate(306.4125,228.3143)"
           id="g246"><path
             id="path248"
             style="fill:#ffffff;fill-opacity:1;fill-rule:nonzero;stroke:none"
             d="m 0,0 -14.558,14.558 c -0.297,0.189 -0.594,0.351 -0.89,0.54 -2.561,1.456 -5.419,2.183 -8.546,2.183 -4.475,0 -8.277,-1.59 -11.431,-4.744 -3.154,-3.154 -4.745,-6.956 -4.745,-11.431 0,-3.478 0.917,-6.632 2.75,-9.436 l 21.029,-21.029 0.027,-0.027 c 1.051,-1.052 2.157,-1.914 3.37,-2.642 0.377,-0.216 0.755,-0.405 1.159,-0.593 2.102,-0.998 4.421,-1.51 6.929,-1.537 4.448,0 8.277,1.59 11.431,4.745 3.154,3.154 4.745,6.982 4.745,11.431 -0.027,4.475 -1.618,8.304 -4.773,11.458 C 6.47,-6.497 6.47,-6.497 6.47,-6.47 L 0,0 Z" /></g></g></g></g></svg>