<?xml version="1.0" encoding="utf-8"?>
<!-- Generator: Adobe Illustrator 18.0.0, SVG Export Plug-In . SVG Version: 6.00 Build 0)  -->
<!DOCTYPE svg PUBLIC "-//W3C//DTD SVG 1.1//EN" "http://www.w3.org/Graphics/SVG/1.1/DTD/svg11.dtd">
<svg version="1.1" xmlns="http://www.w3.org/2000/svg" xmlns:xlink="http://www.w3.org/1999/xlink" x="0px" y="0px"
	 viewBox="0 0 512 512" enable-background="new 0 0 512 512" xml:space="preserve">
<g id="Layer_3">
	<g id="Layer_2">
		<g>
			<g>
				<g opacity="0.4" enable-background="new    ">
					
						<radialGradient id="SVGID_1_" cx="1.0125" cy="515" r="118.8609" gradientTransform="matrix(2 0 0 -2 254 1286)" gradientUnits="userSpaceOnUse">
						<stop  offset="0" style="stop-color:#010101"/>
						<stop  offset="0.8587" style="stop-color:#010101;stop-opacity:0.1413"/>
						<stop  offset="1" style="stop-color:#010101;stop-opacity:0"/>
					</radialGradient>
					<path fill="url(#SVGID_1_)" d="M449,449c-59.7,59.7-326.2,59.7-385.9,0S3.4,122.7,63,63s326.3-59.6,386,0S508.6,389.3,449,449z
						"/>
				</g>
				<g opacity="0.4" enable-background="new    ">
					
						<radialGradient id="SVGID_2_" cx="2.0286" cy="516.0684" r="133.1551" gradientTransform="matrix(1.4138 -1.4146 -0.979 -0.9784 758.388 763.7472)" gradientUnits="userSpaceOnUse">
						<stop  offset="0" style="stop-color:#010101"/>
						<stop  offset="0.8587" style="stop-color:#010101;stop-opacity:0.1413"/>
						<stop  offset="1" style="stop-color:#010101;stop-opacity:0"/>
					</radialGradient>
					<path fill="url(#SVGID_2_)" d="M449,449c-59.7,59.7-326.2,59.7-385.9,0S3.4,122.7,63,63s326.3-59.6,386,0S508.6,389.3,449,449z
						"/>
				</g>
				<g opacity="0.4" enable-background="new    ">
					
						<radialGradient id="SVGID_3_" cx="3.4424" cy="513.9732" r="133.1784" gradientTransform="matrix(-1.4138 -1.4146 0.979 -0.9784 -242.3879 763.7472)" gradientUnits="userSpaceOnUse">
						<stop  offset="0" style="stop-color:#010101"/>
						<stop  offset="0.8587" style="stop-color:#010101;stop-opacity:0.1413"/>
						<stop  offset="1" style="stop-color:#010101;stop-opacity:0"/>
					</radialGradient>
					<path fill="url(#SVGID_3_)" d="M63,449c59.7,59.7,326.2,59.7,385.9,0s59.7-326.2,0-385.9S122.7,3.4,63,63S3.4,389.3,63,449z"/>
				</g>
			</g>
			<radialGradient id="SVGID_4_" cx="256.0002" cy="256" r="229.9996" gradientUnits="userSpaceOnUse">
				<stop  offset="0" style="stop-color:#3FE1FF"/>
				<stop  offset="1" style="stop-color:#2ADAFF"/>
			</radialGradient>
			<path fill="url(#SVGID_4_)" d="M433.3,433.3c-70.3,70.3-284.3,70.3-354.6,0S8.4,149,78.7,78.7s284.3-70.3,354.6,0
				S503.6,363,433.3,433.3z"/>
			<g>
				<defs>
					<path id="SVGID_5_" d="M433.3,433.3c-70.3,70.3-284.3,70.3-354.6,0S8.4,149,78.7,78.7s284.3-70.3,354.6,0
						S503.6,363,433.3,433.3z"/>
				</defs>
				<clipPath id="SVGID_6_">
					<use xlink:href="#SVGID_5_"  overflow="visible"/>
				</clipPath>
				<g clip-path="url(#SVGID_6_)">
					<radialGradient id="SVGID_7_" cx="347.7293" cy="227.7525" r="164.2065" gradientUnits="userSpaceOnUse">
						<stop  offset="0" style="stop-color:#FFFFFF"/>
						<stop  offset="1" style="stop-color:#FFFFFF;stop-opacity:0.5"/>
					</radialGradient>
					<path fill="url(#SVGID_7_)" d="M248.4,182.4c-13.5,4.3-21.2,18.4-28.2,30.2c-1.3,2.2-1.8,4.8-1.2,7.3
						c1.8,7.7,13.3,10.5,17.7,5.2c27-33.4,20.6,0.8,36.4-3.4c7.4-2,7.2,4.7,14.7,7.3c3.6,1.3,10.3-4.7,12-1.3
						c4.2,8.4,13,6.7,5.5,9.2c-5.9,1.9-12.5-0.8-18.5,0.8c-20.3,5.4-37.4-10.2-52.9-4.6s-33.3,27.7-36,44c-0.7,4.3,7,18.6,8.7,22.7
						c3.3,8.2,19.6,4.6,28,7.3c8.4,2.8,10,2.4,17,7.9c11.8,9.2,14.2,25.8,14.6,40.7c0.4,14.9,0.1,31,8.6,43.3
						c1.3,1.8,2.8,3.6,4.7,4.7c4.9,2.8,11.2,0.9,16.1-2.2c12.9-8.1,25-35.7,38.3-46.4c11.9-9.5-3.4-20.1,5.9-32.2
						c7.2-9.4,17.6-17.5,19.3-29.2c-22.2-5.9-39.3-27.2-40.3-50.2c6.7,0,7.4,15.1,9.1,21.5c2.3,8.3,5.1,20.1,14.7,24
						c2.6,1.1,9.2-3.8,12-4c8.7-0.6,13.4-10.7,20.1-15.8c0.5-0.4,1.1-0.9,1.5-1.4c2.5-3.3-9.1-3.4-11.6-5.5
						c-8.9-7.4-10.1-12.6-20-18.7c14.4-6.7,6.4,6.2,21.1,12.3c3.5,1.4,22.2-1.1,29.6,5.7c7.3,6.7,10.3,7,11.3,14.7
						c1.4,9.9,9.1,17,14.7,25.3c6.7-4.8,8.7-13.3,12-20.9c3.3-7.7,6.4-17.9,14.8-18.7c7-0.7,10.4,13.3,11.8,20.2
						c1.4,6.9,10-2.7,10,14c0,5.5,3.2,8.4,6.7,12.7c2.3,2.8,1.1,7.3,4.5,8.3c3.4,1,7.9-0.8,8.4-4.3c-6.3-13.3-20.9-6-17.8-23.1
						l7.8-1.3c-1.8,5.2,6.6,8.9,10.9,5.6c4.4-3.3,5.1-9.4,5.5-14.9c2.3-34.4,3.5-69-0.7-103.2c-3.3-27.2-10.2-54.5-24.7-77.8
						C455.9,75,433,56,406.2,50.6c-0.3,12.9-25,21.7-31.2,33.1c-18.7,34.7-60.1,29.8-64.7,54c-0.6,3.3-0.8,7.8-4.2,7.3
						c-9.1-1.2,30.8-28-20.6-32c-8.6-0.7-27.6,13.9-30.6,22c-1.5,4.1-9.6,22.4-8.7,26.7c1.2,5.6,25.9,5.9,22.2,12.2
						c-0.8,1.4-2,2.6-3.3,3.5C260.1,180.7,254,180.6,248.4,182.4z"/>
					<radialGradient id="SVGID_8_" cx="174.4711" cy="85.819" r="57.434" gradientUnits="userSpaceOnUse">
						<stop  offset="0" style="stop-color:#FFFFFF"/>
						<stop  offset="1" style="stop-color:#FFFFFF;stop-opacity:0.5"/>
					</radialGradient>
					<path fill="url(#SVGID_8_)" d="M138.5,37.3c4-5.9,11.5-8.3,18.4-10.3c7-2,13.9-3.9,20.9-5.9c3.7-1,7.5-2.1,11.3-1.5
						c8.2,1.3,11.2,10.9,16.7,17.1c5.7,6.6,28.8,18.8,4.5,17.8c-6.1-0.2-4,11.4-6.5,16.9c-5.7,13-5.9,27.7-10,41.2
						c-0.6,1.9-1.3,3.8-2.7,5.2c-1.9,1.8-4.8,2.3-7.4,3c-12.9,3.7-20.7,16.3-29.6,26.3c-3.1,3.5-8.3,6.9-12,4
						c-1.1-0.9-1.8-2.3-2.4-3.6c-2.4-5.1-4.9-10.4-4.9-16c0-4.7,1.8-9.2,3-13.7c3.9-15,1.6-31.5-6.3-44.8c-1.8-3-4-6.2-3.8-9.8
						c0.2-3.7,2.9-6.7,4.6-10C135,48.1,135.3,42,138.5,37.3z"/>
					<radialGradient id="SVGID_9_" cx="81.5318" cy="291.4156" r="126.1271" gradientUnits="userSpaceOnUse">
						<stop  offset="0" style="stop-color:#FFFFFF"/>
						<stop  offset="1" style="stop-color:#FFFFFF;stop-opacity:0.5"/>
					</radialGradient>
					<path fill="url(#SVGID_9_)" d="M74.4,142.5c1.5-1.9,3.8-2.9,6.1-3.8c6.6-2.6,14.8,10.3,21.9,9.7c4.7,10.7,8.2,6.8,12.9,17.5
						c2.3,5.4,4.7,11,4.3,16.8c-0.9,13-22,15-33.2,21.7c-9.8,5.9-11.4,18.4-19.9,26c-3.1,2.8-6.2,5.8-7.9,9.6
						c-3.1,6.9-1.7,16.3-7.7,20.9c-4.1,0.1-5-5.9-8-8.6C40,249.6,35,250.5,32,253s-4.6,6.4-6.1,10.1c-1.2,2.9-2.3,6.1-1.1,9
						c0.6,1.4,7.8-6.2,8.9-5.1c6.9,7.1-2.7,16,16.8,27.5c0.3-4.6,3.2,0.9,7.9,1.1c9,0.4,21.4-6,30.4-5.6c3,0.1,6,0.3,8.8,1.3
						c3.3,1.2,6,3.7,8.6,6c12.2,10.4,14.5,20.8,29.5,26.4c2.4,0.9,14.5,2.5,16,4.7c1.7,2.4,9,9.7,8.7,12.7
						c-0.7,6.4-6.7,5.8-7.4,12.1c-0.5,5.2-1.1,10.4-2.7,15.3c-2,6-19.1,8.6-22.6,13.9c-11.8,17.8-16.3,33.6-32,48
						c-5.1,4.7-4.8,14.4-6.9,21.1c-4.6-2.8-9.2-5.6-13.8-8.4c1.6-20.3,3.2-40.6,4.8-60.9c0.2-2.2,0.3-4.4-0.3-6.5
						c-0.7-2.4-2.3-4.5-4.1-6.3c-5-5.3-10.9-9.7-15.4-15.4c-4.5-5.7-15.5-20.1-13-27c1.6-4.5,4.3-6.7,5.3-11.3
						c1.4-6.3,6.4-7.3,1.2-11.1s-11.4-5.8-17-8.9c-6.3-3.5-11.7-8.2-17.1-13c-3.5-3-7-6.2-9.1-10.3c-1.6-3.2-2.3-6.7-2.9-10.2
						c-4.6-25.1-8.4-51.9,1.4-75.4c5.5-13.1,15-24.7,17.6-38.7c1.2-6.7,2.5-15.7,9.3-16.5c7.4,7.5,7.2,19.5,13.8,27.8
						c18.8,23.8,23.4,12.5,26.8,3.8C77.2,160.9,73,144.2,74.4,142.5z"/>
				</g>
			</g>
		</g>
	</g>
</g>
<g id="Layer_2_1_">
	<g>
		
			<linearGradient id="SVGID_10_" gradientUnits="userSpaceOnUse" x1="165.7401" y1="258" x2="346.2599" y2="258" gradientTransform="matrix(1 0 0 -1 0 514)">
			<stop  offset="0" style="stop-color:#EE4137"/>
			<stop  offset="1" style="stop-color:#EE4137"/>
		</linearGradient>
		<path fill="url(#SVGID_10_)" d="M256,137.7c-49.8,0-90.3,40.5-90.3,90.3c0,47.6,81.5,137.8,85,143.4c1.1,1.8,3.2,2.9,5.3,2.9
			s4.2-1.1,5.3-2.9c3.5-5.5,85-95.7,85-143.4C346.3,178.2,305.8,137.7,256,137.7z"/>
		<path fill="#861719" d="M256,201c-36.9,0-67,29.7-67,66.1c0,34.9,60.5,101,63.1,105c0.8,1.3,2.3,2.2,3.9,2.2
			c1.6,0,3.1-0.8,3.9-2.2c2.6-4.1,63.1-70.1,63.1-105C323,230.7,292.9,201,256,201z"/>
		<path display="none" fill="#861719" d="M256,197c-38.9,0-70.5,31.6-70.5,70.5c0,6.9,1,13.6,2.9,19.9c0,0,0,0,0,0
			c0.9,1.4,1.7,2.9,2.6,4.3c0.1,0.1,0.2,0.3,0.3,0.4c0.9,1.4,1.8,2.9,2.7,4.3c0.1,0.1,0.1,0.2,0.2,0.3c0.9,1.4,1.9,2.9,2.8,4.3
			c0,0,0,0,0,0c1,1.4,1.9,2.9,2.9,4.3c0.1,0.1,0.2,0.2,0.2,0.4c1.9,2.8,3.9,5.7,5.8,8.4c0.1,0.1,0.1,0.2,0.2,0.3
			c0.9,1.3,1.8,2.5,2.7,3.7c0.2,0.3,0.5,0.7,0.7,1c0.9,1.2,1.7,2.4,2.6,3.5c0,0,0.1,0.1,0.1,0.1c0,0,0,0,0,0
			c19,25.8,36.9,46.1,38.5,48.6c1.1,1.8,3.2,2.9,5.3,2.9s4.2-1.1,5.3-2.9c1.6-2.5,19.5-22.8,38.5-48.6c0,0,0,0,0,0
			c0,0,0.1-0.1,0.1-0.1c0.9-1.2,1.7-2.3,2.6-3.5c0.2-0.3,0.5-0.7,0.7-1c0.9-1.2,1.8-2.5,2.7-3.7c0.1-0.1,0.1-0.2,0.2-0.3
			c2-2.8,3.9-5.6,5.9-8.4c0.1-0.1,0.2-0.2,0.2-0.4c1-1.4,1.9-2.9,2.9-4.3c0,0,0,0,0,0c0.9-1.4,1.9-2.9,2.8-4.3
			c0.1-0.1,0.1-0.2,0.2-0.3c0.9-1.4,1.8-2.9,2.7-4.3c0.1-0.1,0.2-0.3,0.2-0.4c0.9-1.4,1.8-2.9,2.6-4.3c1.8-6.3,2.9-13,2.9-19.9
			C326.5,228.6,294.9,197,256,197z"/>
	</g>
</g>
</svg>
