<?xml version="1.0" encoding="UTF-8" standalone="no"?>
<svg
   xmlns:dc="http://purl.org/dc/elements/1.1/"
   xmlns:cc="http://creativecommons.org/ns#"
   xmlns:rdf="http://www.w3.org/1999/02/22-rdf-syntax-ns#"
   xmlns:svg="http://www.w3.org/2000/svg"
   xmlns="http://www.w3.org/2000/svg"
   id="svg2"
   version="1.1"
   xml:space="preserve"
   width="640"
   height="640"
   viewBox="0 0 640 640"><metadata
     id="metadata8"><rdf:RDF><cc:Work
         rdf:about=""><dc:format>image/svg+xml</dc:format><dc:type
           rdf:resource="http://purl.org/dc/dcmitype/StillImage" /><dc:title></dc:title></cc:Work></rdf:RDF></metadata><defs
     id="defs6"><clipPath
       clipPathUnits="userSpaceOnUse"
       id="clipPath16"><path
         d="M 0,512 512,512 512,0 0,0 0,512 Z"
         id="path18" /></clipPath><clipPath
       clipPathUnits="userSpaceOnUse"
       id="clipPath24"><path
         d="m 18.325,493.744 475.4,0 0,-475.4877 -475.4,0 0,475.4877 z"
         id="path26" /></clipPath><clipPath
       clipPathUnits="userSpaceOnUse"
       id="clipPath28"><path
         d="M 448.99,63.029 C 389.293,3.332 122.807,3.332 63.11,63.029 3.413,122.726 3.413,389.312 63.01,449.009 c 59.597,59.696 326.283,59.596 385.98,0 59.697,-59.597 59.597,-326.283 0,-385.98"
         id="path30" /></clipPath><radialGradient
       fx="0"
       fy="0"
       cx="0"
       cy="0"
       r="1"
       gradientUnits="userSpaceOnUse"
       gradientTransform="matrix(237.72188,0,0,237.72188,256.02499,256)"
       spreadMethod="pad"
       id="radialGradient36"><stop
         style="stop-opacity:1;stop-color:#ffffff"
         offset="0"
         id="stop38" /><stop
         style="stop-opacity:0.14129854;stop-color:#ffffff"
         offset="0.8587"
         id="stop40" /><stop
         style="stop-opacity:0;stop-color:#ffffff"
         offset="1"
         id="stop42" /></radialGradient><mask
       maskUnits="userSpaceOnUse"
       x="0"
       y="0"
       width="1"
       height="1"
       id="mask44"><g
         id="g46"><g
           id="g48"><g
             id="g50"><g
               id="g52"><path
                 d="m -32768,32767 65535,0 0,-65535 -65535,0 0,65535 z"
                 style="fill:url(#radialGradient36);stroke:none"
                 id="path54" /></g></g></g></g></mask><radialGradient
       fx="0"
       fy="0"
       cx="0"
       cy="0"
       r="1"
       gradientUnits="userSpaceOnUse"
       gradientTransform="matrix(237.72188,0,0,237.72188,256.02499,256)"
       spreadMethod="pad"
       id="radialGradient56"><stop
         style="stop-opacity:1;stop-color:#010101"
         offset="0"
         id="stop58" /><stop
         style="stop-opacity:1;stop-color:#010101"
         offset="0.8587"
         id="stop60" /><stop
         style="stop-opacity:1;stop-color:#010101"
         offset="1"
         id="stop62" /></radialGradient><clipPath
       clipPathUnits="userSpaceOnUse"
       id="clipPath86"><path
         d="m 18.325,493.744 475.4,0 0,-475.4877 -475.4,0 0,475.4877 z"
         id="path88" /></clipPath><clipPath
       clipPathUnits="userSpaceOnUse"
       id="clipPath90"><path
         d="M 448.99,63.029 C 389.293,3.332 122.807,3.332 63.11,63.029 3.413,122.726 3.413,389.312 63.01,449.009 c 59.597,59.696 326.283,59.596 385.98,0 59.697,-59.597 59.597,-326.283 0,-385.98"
         id="path92" /></clipPath><radialGradient
       fx="0"
       fy="0"
       cx="0"
       cy="0"
       r="1"
       gradientUnits="userSpaceOnUse"
       gradientTransform="matrix(188.25467,188.36119,-130.35883,130.27895,256.02499,256.04376)"
       spreadMethod="pad"
       id="radialGradient98"><stop
         style="stop-opacity:1;stop-color:#ffffff"
         offset="0"
         id="stop100" /><stop
         style="stop-opacity:0.14129854;stop-color:#ffffff"
         offset="0.8587"
         id="stop102" /><stop
         style="stop-opacity:0;stop-color:#ffffff"
         offset="1"
         id="stop104" /></radialGradient><mask
       maskUnits="userSpaceOnUse"
       x="0"
       y="0"
       width="1"
       height="1"
       id="mask106"><g
         id="g108"><g
           id="g110"><g
             id="g112"><g
               id="g114"><path
                 d="m -32768,32767 65535,0 0,-65535 -65535,0 0,65535 z"
                 style="fill:url(#radialGradient98);stroke:none"
                 id="path116" /></g></g></g></g></mask><radialGradient
       fx="0"
       fy="0"
       cx="0"
       cy="0"
       r="1"
       gradientUnits="userSpaceOnUse"
       gradientTransform="matrix(188.25467,188.36119,-130.35883,130.27895,256.02499,256.04376)"
       spreadMethod="pad"
       id="radialGradient118"><stop
         style="stop-opacity:1;stop-color:#010101"
         offset="0"
         id="stop120" /><stop
         style="stop-opacity:1;stop-color:#010101"
         offset="0.8587"
         id="stop122" /><stop
         style="stop-opacity:1;stop-color:#010101"
         offset="1"
         id="stop124" /></radialGradient><clipPath
       clipPathUnits="userSpaceOnUse"
       id="clipPath148"><path
         d="m 18.275,493.694 475.387,0 0,-475.4377 -475.387,0 0,475.4377 z"
         id="path150" /></clipPath><clipPath
       clipPathUnits="userSpaceOnUse"
       id="clipPath152"><path
         d="m 63.01,63.029 c 59.697,-59.697 326.183,-59.697 385.88,0 59.697,59.697 59.697,326.183 0,385.88 -59.697,59.696 -326.183,59.696 -385.88,0.1 -59.697,-59.597 -59.597,-326.283 0,-385.98"
         id="path154" /></clipPath><radialGradient
       fx="0"
       fy="0"
       cx="0"
       cy="0"
       r="1"
       gradientUnits="userSpaceOnUse"
       gradientTransform="matrix(-188.28767,188.39421,130.38168,130.30179,255.92499,255.99377)"
       spreadMethod="pad"
       id="radialGradient160"><stop
         style="stop-opacity:1;stop-color:#ffffff"
         offset="0"
         id="stop162" /><stop
         style="stop-opacity:0.14129854;stop-color:#ffffff"
         offset="0.8587"
         id="stop164" /><stop
         style="stop-opacity:0;stop-color:#ffffff"
         offset="1"
         id="stop166" /></radialGradient><mask
       maskUnits="userSpaceOnUse"
       x="0"
       y="0"
       width="1"
       height="1"
       id="mask168"><g
         id="g170"><g
           id="g172"><g
             id="g174"><g
               id="g176"><path
                 d="m -32768,32767 65535,0 0,-65535 -65535,0 0,65535 z"
                 style="fill:url(#radialGradient160);stroke:none"
                 id="path178" /></g></g></g></g></mask><radialGradient
       fx="0"
       fy="0"
       cx="0"
       cy="0"
       r="1"
       gradientUnits="userSpaceOnUse"
       gradientTransform="matrix(-188.28767,188.39421,130.38168,130.30179,255.92499,255.99377)"
       spreadMethod="pad"
       id="radialGradient180"><stop
         style="stop-opacity:1;stop-color:#010101"
         offset="0"
         id="stop182" /><stop
         style="stop-opacity:1;stop-color:#010101"
         offset="0.8587"
         id="stop184" /><stop
         style="stop-opacity:1;stop-color:#010101"
         offset="1"
         id="stop186" /></radialGradient><clipPath
       clipPathUnits="userSpaceOnUse"
       id="clipPath214"><path
         d="m 98.7115,413.931 314.5775,0 0,-319.323 -314.5775,0 0,319.323 z"
         id="path216" /></clipPath><radialGradient
       fx="0"
       fy="0"
       cx="0"
       cy="0"
       r="1"
       gradientUnits="userSpaceOnUse"
       gradientTransform="matrix(170.07306,0,0,170.07306,259.04422,309.22385)"
       spreadMethod="pad"
       id="radialGradient238"><stop
         style="stop-opacity:1;stop-color:#95979a"
         offset="0"
         id="stop240" /><stop
         style="stop-opacity:1;stop-color:#f4f4f4"
         offset="0.6484"
         id="stop242" /><stop
         style="stop-opacity:1;stop-color:#f4f4f4"
         offset="1"
         id="stop244" /></radialGradient><clipPath
       clipPathUnits="userSpaceOnUse"
       id="clipPath252"><path
         d="M 0,512 512,512 512,0 0,0 0,512 Z"
         id="path254" /></clipPath><clipPath
       clipPathUnits="userSpaceOnUse"
       id="clipPath260"><path
         d="m 128.005,395.722 259.034,0 0,-133.407 -259.034,0 0,133.407 z"
         id="path262" /></clipPath><clipPath
       clipPathUnits="userSpaceOnUse"
       id="clipPath264"><path
         d="m 387.039,306.637 c 0,0 -43.165,-44.322 -131.039,-44.322 -88.677,0 -127.995,44.322 -127.995,44.322 0,49.26 53.017,89.085 127.995,89.085 74.978,0 131.039,-42.592 131.039,-89.085"
         id="path266" /></clipPath><linearGradient
       x1="0"
       y1="0"
       x2="1"
       y2="0"
       gradientUnits="userSpaceOnUse"
       gradientTransform="matrix(0,157.1035,157.1035,0,257.52182,259.08276)"
       spreadMethod="pad"
       id="linearGradient272"><stop
         style="stop-opacity:0;stop-color:#ffffff"
         offset="0"
         id="stop274" /><stop
         style="stop-opacity:1;stop-color:#ffffff"
         offset="1"
         id="stop276" /></linearGradient><mask
       maskUnits="userSpaceOnUse"
       x="0"
       y="0"
       width="1"
       height="1"
       id="mask278"><g
         id="g280"><g
           id="g282"><g
             id="g284"><g
               id="g286"><path
                 d="m -32768,32767 65535,0 0,-65535 -65535,0 0,65535 z"
                 style="fill:url(#linearGradient272);stroke:none"
                 id="path288" /></g></g></g></g></mask><linearGradient
       x1="0"
       y1="0"
       x2="1"
       y2="0"
       gradientUnits="userSpaceOnUse"
       gradientTransform="matrix(0,157.1035,157.1035,0,257.52182,259.08276)"
       spreadMethod="pad"
       id="linearGradient290"><stop
         style="stop-opacity:1;stop-color:#000000"
         offset="0"
         id="stop292" /><stop
         style="stop-opacity:1;stop-color:#000000"
         offset="1"
         id="stop294" /></linearGradient><clipPath
       clipPathUnits="userSpaceOnUse"
       id="clipPath318"><path
         d="m 211.402,296.259 89.196,0 0,-93.721 -89.196,0 0,93.721 z"
         id="path320" /></clipPath><linearGradient
       x1="0"
       y1="0"
       x2="1"
       y2="0"
       gradientUnits="userSpaceOnUse"
       gradientTransform="matrix(0,53.13892,50.574779,0,256,202.53809)"
       spreadMethod="pad"
       id="linearGradient326"><stop
         style="stop-opacity:1;stop-color:#95979a"
         offset="0"
         id="stop328" /><stop
         style="stop-opacity:1;stop-color:#000000"
         offset="1"
         id="stop330" /></linearGradient><radialGradient
       fx="0"
       fy="0"
       cx="0"
       cy="0"
       r="1"
       gradientUnits="userSpaceOnUse"
       gradientTransform="matrix(59.201767,0,0,-59.201767,255.34991,277.13504)"
       spreadMethod="pad"
       id="radialGradient358"><stop
         style="stop-opacity:1;stop-color:#ffffff"
         offset="0"
         id="stop360" /><stop
         style="stop-opacity:1;stop-color:#ffffff"
         offset="0.0306"
         id="stop362" /><stop
         style="stop-opacity:1;stop-color:#585858"
         offset="1"
         id="stop364" /></radialGradient><clipPath
       clipPathUnits="userSpaceOnUse"
       id="clipPath372"><path
         d="M 0,512 512,512 512,0 0,0 0,512 Z"
         id="path374" /></clipPath><clipPath
       clipPathUnits="userSpaceOnUse"
       id="clipPath388"><path
         d="m 103.949,408.811 304.102,0 0,-304.102 -304.102,0 0,304.102 z"
         id="path390" /></clipPath><radialGradient
       fx="0"
       fy="0"
       cx="0"
       cy="0"
       r="1"
       gradientUnits="userSpaceOnUse"
       gradientTransform="matrix(157.42886,0,0,157.42886,256,259.96317)"
       spreadMethod="pad"
       id="radialGradient456"><stop
         style="stop-opacity:1;stop-color:#000000"
         offset="0"
         id="stop458" /><stop
         style="stop-opacity:1;stop-color:#000000"
         offset="0.8316"
         id="stop460" /><stop
         style="stop-opacity:1;stop-color:#636465"
         offset="0.9286"
         id="stop462" /><stop
         style="stop-opacity:1;stop-color:#000000"
         offset="1"
         id="stop464" /></radialGradient></defs><g
     id="g10"
     transform="matrix(1.25,0,0,-1.25,0,640)"><g
       id="g12"><g
         id="g14"
         clip-path="url(#clipPath16)"><g
           id="g20"><g
             id="g22" /><g
             id="g64"><g
               clip-path="url(#clipPath24)"
               id="g66"
               style="opacity:0.39999402"><g
                 id="g68"><g
                   clip-path="url(#clipPath28)"
                   id="g70"><g
                     id="g72"><g
                       id="g74" /><g
                       mask="url(#mask44)"
                       id="g76"><g
                         id="g78"><path
                           d="M 448.99,63.029 C 389.293,3.332 122.807,3.332 63.11,63.029 3.413,122.726 3.413,389.312 63.01,449.009 c 59.597,59.696 326.283,59.596 385.98,0 59.697,-59.597 59.597,-326.283 0,-385.98"
                           style="fill:url(#radialGradient56);stroke:none"
                           id="path80" /></g></g></g></g></g></g></g></g><g
           id="g82"><g
             id="g84" /><g
             id="g126"><g
               clip-path="url(#clipPath86)"
               id="g128"
               style="opacity:0.39999402"><g
                 id="g130"><g
                   clip-path="url(#clipPath90)"
                   id="g132"><g
                     id="g134"><g
                       id="g136" /><g
                       mask="url(#mask106)"
                       id="g138"><g
                         id="g140"><path
                           d="M 448.99,63.029 C 389.293,3.332 122.807,3.332 63.11,63.029 3.413,122.726 3.413,389.312 63.01,449.009 c 59.597,59.696 326.283,59.596 385.98,0 59.697,-59.597 59.597,-326.283 0,-385.98"
                           style="fill:url(#radialGradient118);stroke:none"
                           id="path142" /></g></g></g></g></g></g></g></g><g
           id="g144"><g
             id="g146" /><g
             id="g188"><g
               clip-path="url(#clipPath148)"
               id="g190"
               style="opacity:0.39999402"><g
                 id="g192"><g
                   clip-path="url(#clipPath152)"
                   id="g194"><g
                     id="g196"><g
                       id="g198" /><g
                       mask="url(#mask168)"
                       id="g200"><g
                         id="g202"><path
                           d="m 63.01,63.029 c 59.697,-59.697 326.183,-59.697 385.88,0 59.697,59.697 59.697,326.183 0,385.88 -59.697,59.696 -326.183,59.696 -385.88,0.1 -59.697,-59.597 -59.597,-326.283 0,-385.98"
                           style="fill:url(#radialGradient180);stroke:none"
                           id="path204" /></g></g></g></g></g></g></g></g><g
           id="g206"
           transform="translate(433.279,78.721)"><path
             d="m 0,0 c -70.294,-70.294 -284.264,-70.294 -354.558,0 -70.294,70.294 -70.294,284.264 0,354.558 70.294,70.294 284.264,70.294 354.558,0 C 70.294,284.264 70.295,70.294 0,0"
             style="fill:#999999;fill-opacity:1;fill-rule:nonzero;stroke:none"
             id="path208" /></g><g
           id="g210"><g
             id="g212" /><g
             id="g218"><g
               clip-path="url(#clipPath214)"
               id="g220"
               style="opacity:0.39999402"><g
                 transform="translate(256,413.9308)"
                 id="g222"><path
                   d="m 0,0 c 86.868,0 157.289,-71.483 157.289,-159.661 0,-88.179 -70.421,-159.662 -157.289,-159.662 -86.868,0 -157.289,71.483 -157.289,159.662 C -157.289,-71.483 -86.868,0 0,0"
                   style="fill:#000000;fill-opacity:1;fill-rule:nonzero;stroke:none"
                   id="path224" /></g></g></g></g></g></g><g
       id="g226"><g
         id="g228"><g
           id="g234"><g
             id="g236"><path
               d="m 98.711,259.963 c 0,-86.868 70.421,-157.288 157.289,-157.288 l 0,0 c 86.868,0 157.289,70.42 157.289,157.288 l 0,0 c 0,86.868 -70.421,157.289 -157.289,157.289 l 0,0 c -86.868,0 -157.289,-70.421 -157.289,-157.289"
               style="fill:url(#radialGradient238);stroke:none"
               id="path246" /></g></g></g></g><g
       id="g248"><g
         id="g250"
         clip-path="url(#clipPath252)"><g
           id="g256"><g
             id="g258" /><g
             id="g296"><g
               clip-path="url(#clipPath260)"
               id="g298"
               style="opacity:0.30000299"><g
                 id="g300"><g
                   clip-path="url(#clipPath264)"
                   id="g302"><g
                     id="g304"><g
                       id="g306" /><g
                       mask="url(#mask278)"
                       id="g308"><g
                         id="g310"><path
                           d="m 387.039,306.637 c 0,0 -43.165,-44.322 -131.039,-44.322 -88.677,0 -127.995,44.322 -127.995,44.322 0,49.26 53.017,89.085 127.995,89.085 74.978,0 131.039,-42.592 131.039,-89.085"
                           style="fill:url(#linearGradient290);stroke:none"
                           id="path312" /></g></g></g></g></g></g></g></g><g
           id="g314"><g
             id="g316" /><g
             id="g332"><g
               clip-path="url(#clipPath318)"
               id="g334"
               style="opacity:0.30000299"><g
                 id="g336"><g
                   id="g338"><g
                     id="g340"><g
                       id="g342"><path
                         d="m 256,296.259 c 24.631,0 44.598,-20.98 44.598,-46.861 0,-25.88 -19.967,-46.86 -44.598,-46.86 -24.631,0 -44.598,20.98 -44.598,46.86 0,25.881 19.967,46.861 44.598,46.861"
                         style="fill:url(#linearGradient326);stroke:none"
                         id="path344" /></g></g></g></g></g></g></g></g></g><g
       id="g346"><g
         id="g348"><g
           id="g354"><g
             id="g356"><path
               d="m 211.402,259.963 c 0,-24.631 19.967,-44.598 44.598,-44.598 l 0,0 c 24.631,0 44.598,19.967 44.598,44.598 l 0,0 c 0,24.631 -19.967,44.598 -44.598,44.598 l 0,0 c -24.631,0 -44.598,-19.967 -44.598,-44.598"
               style="fill:url(#radialGradient358);stroke:none"
               id="path366" /></g></g></g></g><g
       id="g368"><g
         id="g370"
         clip-path="url(#clipPath372)"><g
           id="g376"
           transform="translate(256,302.4854)"><path
             d="m 0,0 c -23.447,0 -42.522,-19.076 -42.522,-42.522 0,-23.447 19.075,-42.523 42.522,-42.523 23.447,0 42.522,19.076 42.522,42.523 C 42.522,-19.076 23.447,0 0,0 m 0,-89.196 c -25.736,0 -46.673,20.938 -46.673,46.674 0,25.735 20.937,46.673 46.673,46.673 25.736,0 46.673,-20.938 46.673,-46.673 0,-25.736 -20.937,-46.674 -46.673,-46.674"
             style="fill:#000000;fill-opacity:1;fill-rule:nonzero;stroke:none"
             id="path378" /></g><g
           id="g380"
           transform="translate(256,325.5934)"><path
             d="m 0,0 c -36.188,0 -65.63,-29.441 -65.63,-65.63 0,-36.189 29.441,-65.631 65.63,-65.631 36.188,0 65.63,29.442 65.63,65.631 C 65.63,-29.442 36.188,0 0,0 m 0,-134.582 c -38.02,0 -68.951,30.932 -68.951,68.952 0,38.02 30.931,68.951 68.951,68.951 38.02,0 68.951,-30.931 68.951,-68.951 0,-38.02 -30.931,-68.952 -68.951,-68.952"
             style="fill:#000000;fill-opacity:1;fill-rule:nonzero;stroke:none"
             id="path382" /></g><g
           id="g384"><g
             id="g386" /><g
             id="g392"><g
               clip-path="url(#clipPath388)"
               id="g394"
               style="opacity:0.39999402"><g
                 transform="translate(122.3317,408.4653)"
                 id="g396"><path
                   d="m 0,0 c 9.962,0 18.037,-8.075 18.037,-18.037 0,-9.961 -8.075,-18.037 -18.037,-18.037 -9.962,0 -18.037,8.076 -18.037,18.037 C -18.037,-8.075 -9.962,0 0,0"
                   style="fill:#000000;fill-opacity:1;fill-rule:nonzero;stroke:none"
                   id="path398" /></g><g
                 transform="translate(390.0145,140.7825)"
                 id="g400"><path
                   d="m 0,0 c 9.962,0 18.037,-8.075 18.037,-18.037 0,-9.961 -8.075,-18.037 -18.037,-18.037 -9.962,0 -18.037,8.076 -18.037,18.037 C -18.037,-8.075 -9.962,0 0,0"
                   style="fill:#000000;fill-opacity:1;fill-rule:nonzero;stroke:none"
                   id="path402" /></g><g
                 transform="translate(121.9855,140.7825)"
                 id="g404"><path
                   d="m 0,0 c 9.962,0 18.037,-8.075 18.037,-18.037 0,-9.961 -8.075,-18.037 -18.037,-18.037 -9.962,0 -18.037,8.076 -18.037,18.037 C -18.037,-8.075 -9.962,0 0,0"
                   style="fill:#000000;fill-opacity:1;fill-rule:nonzero;stroke:none"
                   id="path406" /></g><g
                 transform="translate(390.0145,408.8115)"
                 id="g408"><path
                   d="m 0,0 c 9.962,0 18.037,-8.075 18.037,-18.037 0,-9.961 -8.075,-18.037 -18.037,-18.037 -9.962,0 -18.037,8.076 -18.037,18.037 C -18.037,-8.075 -9.962,0 0,0"
                   style="fill:#000000;fill-opacity:1;fill-rule:nonzero;stroke:none"
                   id="path410" /></g></g></g></g><g
           id="g412"
           transform="translate(122.3317,411.6683)"><path
             d="m 0,0 c 9.962,0 18.037,-8.075 18.037,-18.037 0,-9.961 -8.075,-18.037 -18.037,-18.037 -9.962,0 -18.037,8.076 -18.037,18.037 C -18.037,-8.075 -9.962,0 0,0"
             style="fill:#d6d6d6;fill-opacity:1;fill-rule:nonzero;stroke:none"
             id="path414" /></g><g
           id="g416"
           transform="translate(116.7276,383.9251)"><path
             d="M 0,0 -5.604,9.706 0,19.413 l 11.208,0 L 16.812,9.706 11.208,0 0,0 Z"
             style="fill:#4f4f4f;fill-opacity:1;fill-rule:nonzero;stroke:none"
             id="path418" /></g><g
           id="g420"
           transform="translate(390.0145,143.9856)"><path
             d="m 0,0 c 9.962,0 18.037,-8.075 18.037,-18.037 0,-9.961 -8.075,-18.037 -18.037,-18.037 -9.962,0 -18.037,8.076 -18.037,18.037 C -18.037,-8.075 -9.962,0 0,0"
             style="fill:#d6d6d6;fill-opacity:1;fill-rule:nonzero;stroke:none"
             id="path422" /></g><g
           id="g424"
           transform="translate(384.4104,116.2423)"><path
             d="M 0,0 -5.604,9.706 0,19.413 l 11.208,0 L 16.812,9.706 11.208,0 0,0 Z"
             style="fill:#4f4f4f;fill-opacity:1;fill-rule:nonzero;stroke:none"
             id="path426" /></g><g
           id="g428"
           transform="translate(121.9855,143.9856)"><path
             d="m 0,0 c 9.962,0 18.037,-8.075 18.037,-18.037 0,-9.961 -8.075,-18.037 -18.037,-18.037 -9.962,0 -18.037,8.076 -18.037,18.037 C -18.037,-8.075 -9.962,0 0,0"
             style="fill:#d6d6d6;fill-opacity:1;fill-rule:nonzero;stroke:none"
             id="path430" /></g><g
           id="g432"
           transform="translate(116.3814,116.2423)"><path
             d="M 0,0 -5.604,9.706 0,19.413 l 11.208,0 L 16.812,9.706 11.208,0 0,0 Z"
             style="fill:#4f4f4f;fill-opacity:1;fill-rule:nonzero;stroke:none"
             id="path434" /></g><g
           id="g436"
           transform="translate(390.0145,412.0146)"><path
             d="m 0,0 c 9.962,0 18.037,-8.075 18.037,-18.037 0,-9.961 -8.075,-18.037 -18.037,-18.037 -9.962,0 -18.037,8.076 -18.037,18.037 C -18.037,-8.075 -9.962,0 0,0"
             style="fill:#d6d6d6;fill-opacity:1;fill-rule:nonzero;stroke:none"
             id="path438" /></g><g
           id="g440"
           transform="translate(384.4104,384.2705)"><path
             d="M 0,0 -5.604,9.707 0,19.413 l 11.208,0 L 16.812,9.707 11.208,0 0,0 Z"
             style="fill:#4f4f4f;fill-opacity:1;fill-rule:nonzero;stroke:none"
             id="path442" /></g></g></g><g
       id="g444"><g
         id="g446"><g
           id="g452"><g
             id="g454"><path
               d="m 98.571,259.963 c 0,-86.946 70.483,-157.429 157.429,-157.429 l 0,0 c 86.946,0 157.428,70.483 157.428,157.429 l 0,0 c 0,86.946 -70.482,157.429 -157.428,157.429 l 0,0 c -86.946,0 -157.429,-70.483 -157.429,-157.429 m 32.644,0 c 0,68.918 55.868,124.786 124.785,124.786 l 0,0 c 68.917,0 124.785,-55.868 124.785,-124.786 l 0,0 C 380.785,191.046 324.917,135.177 256,135.177 l 0,0 c -68.917,0 -124.785,55.869 -124.785,124.786"
               style="fill:url(#radialGradient456);stroke:none"
               id="path466" /></g></g></g></g></g></svg>