<?xml version="1.0" encoding="UTF-8" standalone="no"?>
<svg
   xmlns:dc="http://purl.org/dc/elements/1.1/"
   xmlns:cc="http://creativecommons.org/ns#"
   xmlns:rdf="http://www.w3.org/1999/02/22-rdf-syntax-ns#"
   xmlns:svg="http://www.w3.org/2000/svg"
   xmlns="http://www.w3.org/2000/svg"
   viewBox="0 0 640 640"
   height="640"
   width="640"
   xml:space="preserve"
   version="1.1"
   id="svg2"><metadata
     id="metadata8"><rdf:RDF><cc:Work
         rdf:about=""><dc:format>image/svg+xml</dc:format><dc:type
           rdf:resource="http://purl.org/dc/dcmitype/StillImage" /></cc:Work></rdf:RDF></metadata><defs
     id="defs6"><clipPath
       id="clipPath16"
       clipPathUnits="userSpaceOnUse"><path
         id="path18"
         d="M 0,512 512,512 512,0 0,0 0,512 Z" /></clipPath><clipPath
       id="clipPath24"
       clipPathUnits="userSpaceOnUse"><path
         id="path26"
         d="m 18.325,493.744 475.4,0 0,-475.4877 -475.4,0 0,475.4877 z" /></clipPath><clipPath
       id="clipPath28"
       clipPathUnits="userSpaceOnUse"><path
         id="path30"
         d="M 448.99,63.029 C 389.293,3.332 122.807,3.332 63.11,63.029 3.413,122.726 3.413,389.312 63.01,449.009 c 59.597,59.696 326.283,59.596 385.98,0 59.697,-59.597 59.597,-326.283 0,-385.98" /></clipPath><radialGradient
       id="radialGradient36"
       spreadMethod="pad"
       gradientTransform="matrix(237.72188,0,0,237.72188,256.02499,256)"
       gradientUnits="userSpaceOnUse"
       r="1"
       cy="0"
       cx="0"
       fy="0"
       fx="0"><stop
         id="stop38"
         offset="0"
         style="stop-opacity:1;stop-color:#ffffff" /><stop
         id="stop40"
         offset="0.8587"
         style="stop-opacity:0.14129854;stop-color:#ffffff" /><stop
         id="stop42"
         offset="1"
         style="stop-opacity:0;stop-color:#ffffff" /></radialGradient><mask
       id="mask44"
       height="1"
       width="1"
       y="0"
       x="0"
       maskUnits="userSpaceOnUse"><g
         id="g46"><g
           id="g48"><g
             id="g50"><g
               id="g52"><path
                 id="path54"
                 style="fill:url(#radialGradient36);stroke:none"
                 d="m -32768,32767 65535,0 0,-65535 -65535,0 0,65535 z" /></g></g></g></g></mask><radialGradient
       id="radialGradient56"
       spreadMethod="pad"
       gradientTransform="matrix(237.72188,0,0,237.72188,256.02499,256)"
       gradientUnits="userSpaceOnUse"
       r="1"
       cy="0"
       cx="0"
       fy="0"
       fx="0"><stop
         id="stop58"
         offset="0"
         style="stop-opacity:1;stop-color:#010101" /><stop
         id="stop60"
         offset="0.8587"
         style="stop-opacity:1;stop-color:#010101" /><stop
         id="stop62"
         offset="1"
         style="stop-opacity:1;stop-color:#010101" /></radialGradient><clipPath
       id="clipPath86"
       clipPathUnits="userSpaceOnUse"><path
         id="path88"
         d="m 18.325,493.744 475.4,0 0,-475.4877 -475.4,0 0,475.4877 z" /></clipPath><clipPath
       id="clipPath90"
       clipPathUnits="userSpaceOnUse"><path
         id="path92"
         d="M 448.99,63.029 C 389.293,3.332 122.807,3.332 63.11,63.029 3.413,122.726 3.413,389.312 63.01,449.009 c 59.597,59.696 326.283,59.596 385.98,0 59.697,-59.597 59.597,-326.283 0,-385.98" /></clipPath><radialGradient
       id="radialGradient98"
       spreadMethod="pad"
       gradientTransform="matrix(188.25467,188.36119,-130.35883,130.27895,256.02499,256.04376)"
       gradientUnits="userSpaceOnUse"
       r="1"
       cy="0"
       cx="0"
       fy="0"
       fx="0"><stop
         id="stop100"
         offset="0"
         style="stop-opacity:1;stop-color:#ffffff" /><stop
         id="stop102"
         offset="0.8587"
         style="stop-opacity:0.14129854;stop-color:#ffffff" /><stop
         id="stop104"
         offset="1"
         style="stop-opacity:0;stop-color:#ffffff" /></radialGradient><mask
       id="mask106"
       height="1"
       width="1"
       y="0"
       x="0"
       maskUnits="userSpaceOnUse"><g
         id="g108"><g
           id="g110"><g
             id="g112"><g
               id="g114"><path
                 id="path116"
                 style="fill:url(#radialGradient98);stroke:none"
                 d="m -32768,32767 65535,0 0,-65535 -65535,0 0,65535 z" /></g></g></g></g></mask><radialGradient
       id="radialGradient118"
       spreadMethod="pad"
       gradientTransform="matrix(188.25467,188.36119,-130.35883,130.27895,256.02499,256.04376)"
       gradientUnits="userSpaceOnUse"
       r="1"
       cy="0"
       cx="0"
       fy="0"
       fx="0"><stop
         id="stop120"
         offset="0"
         style="stop-opacity:1;stop-color:#010101" /><stop
         id="stop122"
         offset="0.8587"
         style="stop-opacity:1;stop-color:#010101" /><stop
         id="stop124"
         offset="1"
         style="stop-opacity:1;stop-color:#010101" /></radialGradient><clipPath
       id="clipPath148"
       clipPathUnits="userSpaceOnUse"><path
         id="path150"
         d="m 18.275,493.694 475.387,0 0,-475.4377 -475.387,0 0,475.4377 z" /></clipPath><clipPath
       id="clipPath152"
       clipPathUnits="userSpaceOnUse"><path
         id="path154"
         d="m 63.01,63.029 c 59.697,-59.697 326.183,-59.697 385.88,0 59.697,59.697 59.697,326.183 0,385.88 -59.697,59.696 -326.183,59.696 -385.88,0.1 -59.697,-59.597 -59.597,-326.283 0,-385.98" /></clipPath><radialGradient
       id="radialGradient160"
       spreadMethod="pad"
       gradientTransform="matrix(-188.28767,188.39421,130.38168,130.30179,255.92499,255.99377)"
       gradientUnits="userSpaceOnUse"
       r="1"
       cy="0"
       cx="0"
       fy="0"
       fx="0"><stop
         id="stop162"
         offset="0"
         style="stop-opacity:1;stop-color:#ffffff" /><stop
         id="stop164"
         offset="0.8587"
         style="stop-opacity:0.14129854;stop-color:#ffffff" /><stop
         id="stop166"
         offset="1"
         style="stop-opacity:0;stop-color:#ffffff" /></radialGradient><mask
       id="mask168"
       height="1"
       width="1"
       y="0"
       x="0"
       maskUnits="userSpaceOnUse"><g
         id="g170"><g
           id="g172"><g
             id="g174"><g
               id="g176"><path
                 id="path178"
                 style="fill:url(#radialGradient160);stroke:none"
                 d="m -32768,32767 65535,0 0,-65535 -65535,0 0,65535 z" /></g></g></g></g></mask><radialGradient
       id="radialGradient180"
       spreadMethod="pad"
       gradientTransform="matrix(-188.28767,188.39421,130.38168,130.30179,255.92499,255.99377)"
       gradientUnits="userSpaceOnUse"
       r="1"
       cy="0"
       cx="0"
       fy="0"
       fx="0"><stop
         id="stop182"
         offset="0"
         style="stop-opacity:1;stop-color:#010101" /><stop
         id="stop184"
         offset="0.8587"
         style="stop-opacity:1;stop-color:#010101" /><stop
         id="stop186"
         offset="1"
         style="stop-opacity:1;stop-color:#010101" /></radialGradient><linearGradient
       id="linearGradient218"
       spreadMethod="pad"
       gradientTransform="matrix(459.99939,0,0,459.99939,26.000477,256)"
       gradientUnits="userSpaceOnUse"
       y2="0"
       x2="1"
       y1="0"
       x1="0"><stop
         id="stop220"
         offset="0"
         style="stop-opacity:1;stop-color:#1f1f21" /><stop
         id="stop222"
         offset="1"
         style="stop-opacity:1;stop-color:#1f1f21" /></linearGradient><clipPath
       id="clipPath230"
       clipPathUnits="userSpaceOnUse"><path
         id="path232"
         d="M 0,512 512,512 512,0 0,0 0,512 Z" /></clipPath><clipPath
       id="clipPath242"
       clipPathUnits="userSpaceOnUse"><path
         id="path244"
         d="m 256,431.12 c -0.132,10e-4 -0.26,0.003 -0.391,0.004 l 0,0 0,-0.009 c -13.38,-0.135 -26.89,-1.118 -35.942,-2.549 l 0,0 c -52.514,-8.3 -53.132,-72.252 -53.132,-118.411 l 0,0 0,-37.877 0,-2.021 0,-28.513 0,-8.985 0,-30.915 c 0,-46.159 0.618,-110.111 53.132,-118.411 l 0,0 c 9.052,-1.431 22.562,-2.413 35.942,-2.549 l 0,0 0,-0.008 c 0.131,0 0.26,0.003 0.391,0.004 l 0,0 c 0.13,-10e-4 0.261,-0.004 0.391,-0.004 l 0,0 0,0.008 c 13.38,0.136 26.889,1.118 35.942,2.549 l 0,0 c 52.513,8.3 53.131,68.751 53.131,118.411 l 0,0 0,30.915 0,8.985 0,28.513 0,2.021 0,37.877 c 0,49.661 -0.618,110.111 -53.131,118.411 l 0,0 c -9.053,1.431 -22.562,2.414 -35.942,2.549 l 0,0 0,0.009 c -0.13,-0.001 -0.261,-0.003 -0.391,-0.004" /></clipPath><radialGradient
       id="radialGradient254"
       spreadMethod="pad"
       gradientTransform="matrix(139.05489,0,0,139.05489,256,256)"
       gradientUnits="userSpaceOnUse"
       r="1"
       cy="0"
       cx="0"
       fy="0"
       fx="0"><stop
         id="stop256"
         offset="0"
         style="stop-opacity:1;stop-color:#ffffff" /><stop
         id="stop258"
         offset="1"
         style="stop-opacity:0;stop-color:#ffffff" /></radialGradient><mask
       id="mask260"
       height="1"
       width="1"
       y="0"
       x="0"
       maskUnits="userSpaceOnUse"><g
         id="g262"><g
           id="g264"><g
             id="g266"><g
               id="g268"><path
                 id="path270"
                 style="fill:url(#radialGradient254);stroke:none"
                 d="m -32768,32767 65535,0 0,-65535 -65535,0 0,65535 z" /></g></g></g></g></mask><radialGradient
       id="radialGradient276"
       spreadMethod="pad"
       gradientTransform="matrix(139.05489,0,0,139.05489,256,256)"
       gradientUnits="userSpaceOnUse"
       r="1"
       cy="0"
       cx="0"
       fy="0"
       fx="0"><stop
         id="stop278"
         offset="0"
         style="stop-opacity:1;stop-color:#ffffff" /><stop
         id="stop280"
         offset="1"
         style="stop-opacity:1;stop-color:#fefefe" /></radialGradient><clipPath
       id="clipPath288"
       clipPathUnits="userSpaceOnUse"><path
         id="path290"
         d="M 0,512 512,512 512,0 0,0 0,512 Z" /></clipPath><clipPath
       id="clipPath300"
       clipPathUnits="userSpaceOnUse"><path
         id="path302"
         d="m 255.866,428.053 c -0.126,10e-4 -0.251,0.003 -0.376,0.005 l 0,0 0,-0.01 c -12.897,-0.132 -25.918,-1.097 -34.644,-2.502 l 0,0 c -50.615,-8.153 -51.21,-70.955 -51.21,-116.285 l 0,0 0,-37.199 0,-1.984 0,-28.001 0,-8.823 0,-30.361 c 0,-45.33 0.595,-108.133 51.21,-116.285 l 0,0 c 8.726,-1.405 21.747,-2.37 34.644,-2.503 l 0,0 0,-0.009 c 0.126,10e-4 0.25,0.004 0.376,0.005 l 0,0 c 0.126,0 0.252,-0.003 0.377,-0.005 l 0,0 0,0.009 c 12.898,0.133 25.919,1.098 34.644,2.503 l 0,0 c 50.616,8.151 51.212,67.517 51.212,116.285 l 0,0 0,30.361 0,8.823 0,28.001 0,1.984 0,37.2 c 0,48.768 -0.596,108.132 -51.212,116.284 l 0,0 c -8.725,1.405 -21.746,2.37 -34.644,2.502 l 0,0 0,0.01 c -0.125,-10e-4 -0.251,-0.004 -0.377,-0.005" /></clipPath><radialGradient
       id="radialGradient312"
       spreadMethod="pad"
       gradientTransform="matrix(134.03043,0,0,243.54669,255.60919,313.43634)"
       gradientUnits="userSpaceOnUse"
       r="1"
       cy="0"
       cx="0"
       fy="0"
       fx="0"><stop
         id="stop314"
         offset="0"
         style="stop-opacity:1;stop-color:#ffffff" /><stop
         id="stop316"
         offset="1"
         style="stop-opacity:0;stop-color:#ffffff" /></radialGradient><mask
       id="mask318"
       height="1"
       width="1"
       y="0"
       x="0"
       maskUnits="userSpaceOnUse"><g
         id="g320"><g
           id="g322"><g
             id="g324"><g
               id="g326"><path
                 id="path328"
                 style="fill:url(#radialGradient312);stroke:none"
                 d="m -32768,32767 65535,0 0,-65535 -65535,0 0,65535 z" /></g></g></g></g></mask><radialGradient
       id="radialGradient334"
       spreadMethod="pad"
       gradientTransform="matrix(134.03043,0,0,243.54669,255.60919,313.43634)"
       gradientUnits="userSpaceOnUse"
       r="1"
       cy="0"
       cx="0"
       fy="0"
       fx="0"><stop
         id="stop336"
         offset="0"
         style="stop-opacity:1;stop-color:#ffffff" /><stop
         id="stop338"
         offset="1"
         style="stop-opacity:1;stop-color:#fefefe" /></radialGradient><clipPath
       id="clipPath346"
       clipPathUnits="userSpaceOnUse"><path
         id="path348"
         d="M 0,512 512,512 512,0 0,0 0,512 Z" /></clipPath><clipPath
       id="clipPath354"
       clipPathUnits="userSpaceOnUse"><path
         id="path356"
         d="m 234.69,183.167 42.616,0 0,-42.616 -42.616,0 0,42.616 z" /></clipPath></defs><g
     transform="matrix(1.25,0,0,-1.25,0,640)"
     id="g10"><g
       id="g12"><g
         clip-path="url(#clipPath16)"
         id="g14"><g
           id="g20"><g
             id="g22" /><g
             id="g64"><g
               style="opacity:0.39999402"
               id="g66"
               clip-path="url(#clipPath24)"><g
                 id="g68"><g
                   id="g70"
                   clip-path="url(#clipPath28)"><g
                     id="g72"><g
                       id="g74" /><g
                       id="g76"
                       mask="url(#mask44)"><g
                         id="g78"><path
                           id="path80"
                           style="fill:url(#radialGradient56);stroke:none"
                           d="M 448.99,63.029 C 389.293,3.332 122.807,3.332 63.11,63.029 3.413,122.726 3.413,389.312 63.01,449.009 c 59.597,59.696 326.283,59.596 385.98,0 59.697,-59.597 59.597,-326.283 0,-385.98" /></g></g></g></g></g></g></g></g><g
           id="g82"><g
             id="g84" /><g
             id="g126"><g
               style="opacity:0.39999402"
               id="g128"
               clip-path="url(#clipPath86)"><g
                 id="g130"><g
                   id="g132"
                   clip-path="url(#clipPath90)"><g
                     id="g134"><g
                       id="g136" /><g
                       id="g138"
                       mask="url(#mask106)"><g
                         id="g140"><path
                           id="path142"
                           style="fill:url(#radialGradient118);stroke:none"
                           d="M 448.99,63.029 C 389.293,3.332 122.807,3.332 63.11,63.029 3.413,122.726 3.413,389.312 63.01,449.009 c 59.597,59.696 326.283,59.596 385.98,0 59.697,-59.597 59.597,-326.283 0,-385.98" /></g></g></g></g></g></g></g></g><g
           id="g144"><g
             id="g146" /><g
             id="g188"><g
               style="opacity:0.39999402"
               id="g190"
               clip-path="url(#clipPath148)"><g
                 id="g192"><g
                   id="g194"
                   clip-path="url(#clipPath152)"><g
                     id="g196"><g
                       id="g198" /><g
                       id="g200"
                       mask="url(#mask168)"><g
                         id="g202"><path
                           id="path204"
                           style="fill:url(#radialGradient180);stroke:none"
                           d="m 63.01,63.029 c 59.697,-59.697 326.183,-59.697 385.88,0 59.697,59.697 59.697,326.183 0,385.88 -59.697,59.696 -326.183,59.696 -385.88,0.1 -59.697,-59.597 -59.597,-326.283 0,-385.98" /></g></g></g></g></g></g></g></g></g></g><g
       id="g206"><g
         id="g208"><g
           id="g214"><g
             id="g216"><path
               id="path224"
               style="fill:url(#linearGradient218);stroke:none"
               d="M 78.721,433.279 C 8.427,362.985 8.427,149.015 78.721,78.721 l 0,0 c 70.294,-70.294 284.264,-70.294 354.558,0 l 0,0 c 70.295,70.294 70.294,284.264 0,354.558 l 0,0 C 398.132,468.426 327.066,486 256,486 l 0,0 C 184.934,486 113.868,468.426 78.721,433.279" /></g></g></g></g><g
       id="g226"><g
         clip-path="url(#clipPath230)"
         id="g228"><g
           transform="translate(292.3334,428.5669)"
           id="g234"><path
             id="path236"
             style="fill:#f7f6ff;fill-opacity:1;fill-rule:nonzero;stroke:none"
             d="m 0,0 c -9.053,1.43 -22.562,2.414 -35.942,2.548 l 0,0.01 c -0.131,-10e-4 -0.261,-0.004 -0.392,-0.005 -0.131,10e-4 -0.26,0.003 -0.39,0.005 l 0,-0.01 C -50.105,2.414 -63.614,1.43 -72.667,0 c -52.513,-8.301 -53.131,-72.252 -53.131,-118.411 l 0,-37.878 0,-2.02 0,-28.515 0,-8.984 0,-30.915 c 0,-46.159 0.618,-110.11 53.131,-118.411 9.053,-1.431 22.562,-2.413 35.943,-2.549 l 0,-0.009 c 0.13,0.001 0.259,0.004 0.39,0.005 0.131,-10e-4 0.261,-0.004 0.392,-0.005 l 0,0.009 c 13.38,0.136 26.889,1.118 35.942,2.549 52.513,8.301 53.131,68.751 53.131,118.411 l 0,30.915 0,8.984 0,28.515 0,2.02 0,37.878 C 53.131,-68.751 52.513,-8.301 0,0" /></g></g></g><g
       id="g238"><g
         clip-path="url(#clipPath242)"
         id="g240"><g
           id="g246"><g
             id="g248" /><g
             mask="url(#mask260)"
             id="g272"><g
               id="g274"><path
                 id="path282"
                 style="fill:url(#radialGradient276);stroke:none"
                 d="m 256,431.12 c -0.132,10e-4 -0.26,0.003 -0.391,0.004 l 0,0 0,-0.009 c -13.38,-0.135 -26.89,-1.118 -35.942,-2.549 l 0,0 c -52.514,-8.3 -53.132,-72.252 -53.132,-118.411 l 0,0 0,-37.877 0,-2.021 0,-28.513 0,-8.985 0,-30.915 c 0,-46.159 0.618,-110.111 53.132,-118.411 l 0,0 c 9.052,-1.431 22.562,-2.413 35.942,-2.549 l 0,0 0,-0.008 c 0.131,0 0.26,0.003 0.391,0.004 l 0,0 c 0.13,-10e-4 0.261,-0.004 0.391,-0.004 l 0,0 0,0.008 c 13.38,0.136 26.889,1.118 35.942,2.549 l 0,0 c 52.513,8.3 53.131,68.751 53.131,118.411 l 0,0 0,30.915 0,8.985 0,28.513 0,2.021 0,37.877 c 0,49.661 -0.618,110.111 -53.131,118.411 l 0,0 c -9.053,1.431 -22.562,2.414 -35.942,2.549 l 0,0 0,0.009 c -0.13,-0.001 -0.261,-0.003 -0.391,-0.004" /></g></g></g></g></g><g
       id="g284"><g
         clip-path="url(#clipPath288)"
         id="g286"><g
           transform="translate(184.929,397.2928)"
           id="g292"><path
             id="path294"
             style="fill:#dfe3e6;fill-opacity:1;fill-rule:nonzero;stroke:none"
             d="m 0,0 c -15.03,-23.939 -15.293,-61.078 -15.293,-90.643 l 0,-36.51 0,-1.947 0,-27.484 0,-8.659 0,-29.799 c 0,-44.491 0.595,-106.132 51.211,-114.132 8.725,-1.38 21.747,-2.327 34.644,-2.457 l 0,-0.009 c 0.125,10e-4 0.25,0.003 0.375,0.004 0.127,-10e-4 0.252,-0.003 0.378,-0.004 l 0,0.009 c 12.897,0.13 25.918,1.077 34.644,2.457 50.615,8 40.769,62.741 40.769,110.607 0,0 -3.246,97.979 -42.693,149.534 C 66.746,-0.3 3.687,5.872 0,0" /></g></g></g><g
       id="g296"><g
         clip-path="url(#clipPath300)"
         id="g298"><g
           id="g304"><g
             id="g306" /><g
             mask="url(#mask318)"
             id="g330"><g
               id="g332"><path
                 id="path340"
                 style="fill:url(#radialGradient334);stroke:none"
                 d="m 255.866,428.053 c -0.126,10e-4 -0.251,0.003 -0.376,0.005 l 0,0 0,-0.01 c -12.897,-0.132 -25.918,-1.097 -34.644,-2.502 l 0,0 c -50.615,-8.153 -51.21,-70.955 -51.21,-116.285 l 0,0 0,-37.199 0,-1.984 0,-28.001 0,-8.823 0,-30.361 c 0,-45.33 0.595,-108.133 51.21,-116.285 l 0,0 c 8.726,-1.405 21.747,-2.37 34.644,-2.503 l 0,0 0,-0.009 c 0.126,10e-4 0.25,0.004 0.376,0.005 l 0,0 c 0.126,0 0.252,-0.003 0.377,-0.005 l 0,0 0,0.009 c 12.898,0.133 25.919,1.098 34.644,2.503 l 0,0 c 50.616,8.151 51.212,67.517 51.212,116.285 l 0,0 0,30.361 0,8.823 0,28.001 0,1.984 0,37.2 c 0,48.768 -0.596,108.132 -51.212,116.284 l 0,0 c -8.725,1.405 -21.746,2.37 -34.644,2.502 l 0,0 0,0.01 c -0.125,-10e-4 -0.251,-0.004 -0.377,-0.005" /></g></g></g></g></g><g
       id="g342"><g
         clip-path="url(#clipPath346)"
         id="g344"><g
           id="g350"><g
             id="g352" /><g
             id="g358"><g
               style="opacity:0.50999499"
               id="g360"
               clip-path="url(#clipPath354)"><g
                 id="g362"
                 transform="translate(255.9981,183.1667)"><path
                   id="path364"
                   style="fill:#bfc5cb;fill-opacity:1;fill-rule:nonzero;stroke:none"
                   d="m 0,0 c -11.768,0 -21.308,-9.54 -21.308,-21.308 0,-11.767 9.54,-21.307 21.308,-21.307 11.768,0 21.308,9.54 21.308,21.307 C 21.308,-9.54 11.768,0 0,0 m 0,-6.973 c 7.904,0 14.334,-6.431 14.334,-14.335 0,-7.904 -6.43,-14.334 -14.334,-14.334 -7.904,0 -14.334,6.43 -14.334,14.334 0,7.904 6.43,14.335 14.334,14.335" /></g></g></g></g></g></g></g></svg>