<?xml version="1.0" encoding="UTF-8" standalone="no"?>
<svg
   xmlns:dc="http://purl.org/dc/elements/1.1/"
   xmlns:cc="http://creativecommons.org/ns#"
   xmlns:rdf="http://www.w3.org/1999/02/22-rdf-syntax-ns#"
   xmlns:svg="http://www.w3.org/2000/svg"
   xmlns="http://www.w3.org/2000/svg"
   viewBox="0 0 640 640"
   height="640"
   width="640"
   xml:space="preserve"
   version="1.1"
   id="svg2"><metadata
     id="metadata8"><rdf:RDF><cc:Work
         rdf:about=""><dc:format>image/svg+xml</dc:format><dc:type
           rdf:resource="http://purl.org/dc/dcmitype/StillImage" /><dc:title></dc:title></cc:Work></rdf:RDF></metadata><defs
     id="defs6"><clipPath
       id="clipPath16"
       clipPathUnits="userSpaceOnUse"><path
         id="path18"
         d="M 0,512 512,512 512,0 0,0 0,512 Z" /></clipPath><clipPath
       id="clipPath24"
       clipPathUnits="userSpaceOnUse"><path
         id="path26"
         d="m 18.325,493.744 475.4,0 0,-475.4877 -475.4,0 0,475.4877 z" /></clipPath><clipPath
       id="clipPath28"
       clipPathUnits="userSpaceOnUse"><path
         id="path30"
         d="M 448.99,63.029 C 389.293,3.332 122.807,3.332 63.11,63.029 3.413,122.726 3.413,389.312 63.01,449.009 c 59.597,59.696 326.283,59.596 385.98,0 59.697,-59.597 59.597,-326.283 0,-385.98" /></clipPath><clipPath
       id="clipPath32"
       clipPathUnits="userSpaceOnUse"><path
         id="path34"
         d="m -32768,32767 65535,0 0,-65535 -65535,0 0,65535 z" /></clipPath><radialGradient
       id="radialGradient36"
       spreadMethod="pad"
       gradientTransform="matrix(237.72188,0,0,237.72188,256.02499,256)"
       gradientUnits="userSpaceOnUse"
       r="1"
       cy="0"
       cx="0"
       fy="0"
       fx="0"><stop
         id="stop38"
         offset="0"
         style="stop-opacity:1;stop-color:#ffffff" /><stop
         id="stop40"
         offset="0.8587"
         style="stop-opacity:0.14129854;stop-color:#ffffff" /><stop
         id="stop42"
         offset="1"
         style="stop-opacity:0;stop-color:#ffffff" /></radialGradient><mask
       id="mask44"
       height="1"
       width="1"
       y="0"
       x="0"
       maskUnits="userSpaceOnUse"><g
         id="g46"><g
           id="g48"
           clip-path="url(#clipPath32)"><g
             id="g50"><g
               id="g52"><path
                 id="path54"
                 style="fill:url(#radialGradient36);stroke:none"
                 d="m -32768,32767 65535,0 0,-65535 -65535,0 0,65535 z" /></g></g></g></g></mask><radialGradient
       id="radialGradient56"
       spreadMethod="pad"
       gradientTransform="matrix(237.72188,0,0,237.72188,256.02499,256)"
       gradientUnits="userSpaceOnUse"
       r="1"
       cy="0"
       cx="0"
       fy="0"
       fx="0"><stop
         id="stop58"
         offset="0"
         style="stop-opacity:1;stop-color:#010101" /><stop
         id="stop60"
         offset="0.8587"
         style="stop-opacity:1;stop-color:#010101" /><stop
         id="stop62"
         offset="1"
         style="stop-opacity:1;stop-color:#010101" /></radialGradient><clipPath
       id="clipPath86"
       clipPathUnits="userSpaceOnUse"><path
         id="path88"
         d="m 18.325,493.744 475.4,0 0,-475.4877 -475.4,0 0,475.4877 z" /></clipPath><clipPath
       id="clipPath90"
       clipPathUnits="userSpaceOnUse"><path
         id="path92"
         d="M 448.99,63.029 C 389.293,3.332 122.807,3.332 63.11,63.029 3.413,122.726 3.413,389.312 63.01,449.009 c 59.597,59.696 326.283,59.596 385.98,0 59.697,-59.597 59.597,-326.283 0,-385.98" /></clipPath><clipPath
       id="clipPath94"
       clipPathUnits="userSpaceOnUse"><path
         id="path96"
         d="m -32768,32767 65535,0 0,-65535 -65535,0 0,65535 z" /></clipPath><radialGradient
       id="radialGradient98"
       spreadMethod="pad"
       gradientTransform="matrix(188.25467,188.36119,-130.35883,130.27895,256.02499,256.04376)"
       gradientUnits="userSpaceOnUse"
       r="1"
       cy="0"
       cx="0"
       fy="0"
       fx="0"><stop
         id="stop100"
         offset="0"
         style="stop-opacity:1;stop-color:#ffffff" /><stop
         id="stop102"
         offset="0.8587"
         style="stop-opacity:0.14129854;stop-color:#ffffff" /><stop
         id="stop104"
         offset="1"
         style="stop-opacity:0;stop-color:#ffffff" /></radialGradient><mask
       id="mask106"
       height="1"
       width="1"
       y="0"
       x="0"
       maskUnits="userSpaceOnUse"><g
         id="g108"><g
           id="g110"
           clip-path="url(#clipPath94)"><g
             id="g112"><g
               id="g114"><path
                 id="path116"
                 style="fill:url(#radialGradient98);stroke:none"
                 d="m -32768,32767 65535,0 0,-65535 -65535,0 0,65535 z" /></g></g></g></g></mask><radialGradient
       id="radialGradient118"
       spreadMethod="pad"
       gradientTransform="matrix(188.25467,188.36119,-130.35883,130.27895,256.02499,256.04376)"
       gradientUnits="userSpaceOnUse"
       r="1"
       cy="0"
       cx="0"
       fy="0"
       fx="0"><stop
         id="stop120"
         offset="0"
         style="stop-opacity:1;stop-color:#010101" /><stop
         id="stop122"
         offset="0.8587"
         style="stop-opacity:1;stop-color:#010101" /><stop
         id="stop124"
         offset="1"
         style="stop-opacity:1;stop-color:#010101" /></radialGradient><clipPath
       id="clipPath148"
       clipPathUnits="userSpaceOnUse"><path
         id="path150"
         d="m 18.275,493.694 475.387,0 0,-475.4377 -475.387,0 0,475.4377 z" /></clipPath><clipPath
       id="clipPath152"
       clipPathUnits="userSpaceOnUse"><path
         id="path154"
         d="m 63.01,63.029 c 59.697,-59.697 326.183,-59.697 385.88,0 59.697,59.697 59.697,326.183 0,385.88 -59.697,59.696 -326.183,59.696 -385.88,0.1 -59.697,-59.597 -59.597,-326.283 0,-385.98" /></clipPath><radialGradient
       id="radialGradient160"
       spreadMethod="pad"
       gradientTransform="matrix(-188.28767,188.39421,130.38168,130.30179,255.92499,255.99377)"
       gradientUnits="userSpaceOnUse"
       r="1"
       cy="0"
       cx="0"
       fy="0"
       fx="0"><stop
         id="stop162"
         offset="0"
         style="stop-opacity:1;stop-color:#ffffff" /><stop
         id="stop164"
         offset="0.8587"
         style="stop-opacity:0.14129854;stop-color:#ffffff" /><stop
         id="stop166"
         offset="1"
         style="stop-opacity:0;stop-color:#ffffff" /></radialGradient><mask
       id="mask168"
       height="1"
       width="1"
       y="0"
       x="0"
       maskUnits="userSpaceOnUse"><g
         id="g170"><g
           id="g172"><g
             id="g174"><g
               id="g176"><path
                 id="path178"
                 style="fill:url(#radialGradient160);stroke:none"
                 d="m -32768,32767 65535,0 0,-65535 -65535,0 0,65535 z" /></g></g></g></g></mask><radialGradient
       id="radialGradient180"
       spreadMethod="pad"
       gradientTransform="matrix(-188.28767,188.39421,130.38168,130.30179,255.92499,255.99377)"
       gradientUnits="userSpaceOnUse"
       r="1"
       cy="0"
       cx="0"
       fy="0"
       fx="0"><stop
         id="stop182"
         offset="0"
         style="stop-opacity:1;stop-color:#010101" /><stop
         id="stop184"
         offset="0.8587"
         style="stop-opacity:1;stop-color:#010101" /><stop
         id="stop186"
         offset="1"
         style="stop-opacity:1;stop-color:#010101" /></radialGradient></defs><g
     transform="matrix(1.25,0,0,-1.25,0,640)"
     id="g10"><g
       id="g12"><g
         clip-path="url(#clipPath16)"
         id="g14"><g
           id="g20"><g
             id="g22" /><g
             id="g64"><g
               style="opacity:0.39999402"
               id="g66"
               clip-path="url(#clipPath24)"><g
                 id="g68"><g
                   id="g70"
                   clip-path="url(#clipPath28)"><g
                     id="g72"><g
                       id="g74" /><g
                       id="g76"
                       mask="url(#mask44)"><g
                         id="g78"><path
                           id="path80"
                           style="fill:url(#radialGradient56);stroke:none"
                           d="M 448.99,63.029 C 389.293,3.332 122.807,3.332 63.11,63.029 3.413,122.726 3.413,389.312 63.01,449.009 c 59.597,59.696 326.283,59.596 385.98,0 59.697,-59.597 59.597,-326.283 0,-385.98" /></g></g></g></g></g></g></g></g><g
           id="g82"><g
             id="g84" /><g
             id="g126"><g
               style="opacity:0.39999402"
               id="g128"
               clip-path="url(#clipPath86)"><g
                 id="g130"><g
                   id="g132"
                   clip-path="url(#clipPath90)"><g
                     id="g134"><g
                       id="g136" /><g
                       id="g138"
                       mask="url(#mask106)"><g
                         id="g140"><path
                           id="path142"
                           style="fill:url(#radialGradient118);stroke:none"
                           d="M 448.99,63.029 C 389.293,3.332 122.807,3.332 63.11,63.029 3.413,122.726 3.413,389.312 63.01,449.009 c 59.597,59.696 326.283,59.596 385.98,0 59.697,-59.597 59.597,-326.283 0,-385.98" /></g></g></g></g></g></g></g></g><g
           id="g144"><g
             id="g146" /><g
             id="g188"><g
               style="opacity:0.39999402"
               id="g190"
               clip-path="url(#clipPath148)"><g
                 id="g192"><g
                   id="g194"
                   clip-path="url(#clipPath152)"><g
                     id="g196"><g
                       id="g198" /><g
                       id="g200"
                       mask="url(#mask168)"><g
                         id="g202"><path
                           id="path204"
                           style="fill:url(#radialGradient180);stroke:none"
                           d="m 63.01,63.029 c 59.697,-59.697 326.183,-59.697 385.88,0 59.697,59.697 59.697,326.183 0,385.88 -59.697,59.696 -326.183,59.696 -385.88,0.1 -59.697,-59.597 -59.597,-326.283 0,-385.98" /></g></g></g></g></g></g></g></g><g
           transform="translate(433.2792,78.7208)"
           id="g206"><path
             id="path208"
             style="fill:#1e1e1d;fill-opacity:1;fill-rule:nonzero;stroke:none"
             d="m 0,0 c -70.294,-70.294 -284.264,-70.294 -354.558,0 -70.295,70.294 -70.295,284.264 0,354.558 70.294,70.295 284.264,70.295 354.558,0 C 70.294,284.264 70.294,70.294 0,0" /></g><g
           transform="translate(356.4438,246.335)"
           id="g210"><path
             id="path212"
             style="fill:#034f60;fill-opacity:1;fill-rule:nonzero;stroke:none"
             d="m 0,0 c -0.648,-2.103 -2.068,-3.642 -3.588,-5.157 -10.19,-10.156 -20.348,-20.345 -30.517,-30.521 -3.663,-3.665 -7.579,-3.656 -11.258,0.026 -10.494,10.503 -20.99,21.005 -31.48,31.509 -3.574,3.578 -3.572,7.486 0.011,11.071 10.55,10.567 21.103,21.128 31.657,31.688 3.433,3.436 7.468,3.438 10.901,0.004 C -24.043,28.387 -13.827,18.14 -3.577,7.924 -2.055,6.409 -0.64,4.864 0.001,2.759 L 0.001,0 0,0 Z" /></g><g
           transform="translate(255.2905,147.9431)"
           id="g214"><path
             id="path216"
             style="fill:#034f60;fill-opacity:1;fill-rule:nonzero;stroke:none"
             d="m 0,0 c -2.093,0.664 -3.609,2.112 -5.117,3.63 -10.147,10.2 -20.324,20.365 -30.492,30.545 -3.638,3.643 -3.641,7.528 -0.012,11.163 10.522,10.53 21.045,21.062 31.571,31.591 3.499,3.5 7.508,3.514 10.988,0.031 C 17.461,66.432 27.984,55.898 38.505,45.365 42.119,41.745 42.129,37.78 38.531,34.18 28.275,23.911 18.004,13.658 7.772,3.371 6.308,1.9 4.802,0.576 2.76,-0.001 L 0,-0.001 0,0 Z" /></g><g
           transform="translate(218.3608,272.9486)"
           id="g218"><path
             id="path220"
             style="fill:#034f60;fill-opacity:1;fill-rule:nonzero;stroke:none"
             d="m 0,0 c 0,11.71 0.106,23.42 -0.068,35.127 -0.048,3.389 0.76,6.035 3.348,8.271 2.08,1.799 3.927,3.875 5.877,5.829 7.714,7.722 15.426,15.442 23.143,23.163 3.628,3.628 7.543,3.625 11.169,-0.002 10.496,-10.498 20.988,-21 31.483,-31.501 3.606,-3.61 3.602,-7.576 -0.002,-11.185 C 62.54,17.275 50.124,4.852 37.711,-7.571 26.749,-18.546 15.789,-29.518 4.826,-40.489 2.795,-42.523 0.995,-42.048 0.257,-39.23 0.03,-38.358 0.011,-37.416 0.011,-36.504 -0.004,-24.338 0,-12.168 0,0" /></g><g
           transform="translate(193.263,247.5774)"
           id="g222"><path
             id="path224"
             style="fill:#034f60;fill-opacity:1;fill-rule:nonzero;stroke:none"
             d="m 0,0 c 0,-10.745 0.015,-21.493 -0.023,-32.238 -0.004,-1.019 -0.165,-2.1 -0.531,-3.049 -0.717,-1.864 -2.063,-2.096 -3.471,-0.69 -4.943,4.933 -9.872,9.882 -14.804,14.823 -5.701,5.71 -11.405,11.422 -17.104,17.136 -2.359,2.365 -2.368,5.647 -0.019,8.024 10.495,10.614 20.992,21.227 31.493,31.84 0.694,0.7 1.348,1.652 2.529,1.206 1.127,-0.426 1.573,-1.443 1.732,-2.571 0.101,-0.698 0.18,-1.41 0.181,-2.115 C -0.006,21.577 -0.011,10.79 -0.011,0 L 0,0 Z" /></g><g
           transform="translate(356.4438,254.335)"
           id="g226"><path
             id="path228"
             style="fill:#31afe1;fill-opacity:1;fill-rule:nonzero;stroke:none"
             d="m 0,0 c -0.648,-2.103 -2.068,-3.642 -3.588,-5.157 -10.19,-10.156 -20.348,-20.345 -30.517,-30.521 -3.663,-3.665 -7.579,-3.656 -11.258,0.026 -10.494,10.503 -20.99,21.005 -31.48,31.509 -3.574,3.578 -3.572,7.486 0.011,11.071 10.55,10.567 21.103,21.128 31.657,31.688 3.433,3.436 7.468,3.438 10.901,0.004 C -24.043,28.387 -13.827,18.14 -3.577,7.924 -2.055,6.409 -0.64,4.864 0.001,2.759 L 0.001,0 0,0 Z" /></g><g
           transform="translate(255.2905,155.9431)"
           id="g230"><path
             id="path232"
             style="fill:#31afe1;fill-opacity:1;fill-rule:nonzero;stroke:none"
             d="m 0,0 c -2.093,0.664 -3.609,2.112 -5.117,3.63 -10.147,10.2 -20.324,20.365 -30.492,30.545 -3.638,3.643 -3.641,7.528 -0.012,11.163 10.522,10.53 21.045,21.062 31.571,31.591 3.499,3.5 7.508,3.514 10.988,0.031 C 17.461,66.432 27.984,55.898 38.505,45.365 42.119,41.745 42.129,37.78 38.531,34.18 28.275,23.911 18.004,13.658 7.772,3.371 6.308,1.9 4.802,0.576 2.76,-0.001 L 0,-0.001 0,0 Z" /></g><g
           transform="translate(218.3608,280.9486)"
           id="g234"><path
             id="path236"
             style="fill:#31afe1;fill-opacity:1;fill-rule:nonzero;stroke:none"
             d="m 0,0 c 0,11.71 0.106,23.42 -0.068,35.127 -0.048,3.389 0.76,6.035 3.348,8.271 2.08,1.799 3.927,3.875 5.877,5.829 7.714,7.722 15.426,15.442 23.143,23.163 3.628,3.628 7.543,3.625 11.169,-0.002 10.496,-10.498 20.988,-21 31.483,-31.501 3.606,-3.61 3.602,-7.576 -0.002,-11.185 C 62.54,17.275 50.124,4.852 37.711,-7.571 26.749,-18.546 15.789,-29.518 4.826,-40.489 2.795,-42.523 0.995,-42.048 0.257,-39.23 0.03,-38.358 0.011,-37.416 0.011,-36.504 -0.004,-24.338 0,-12.168 0,0" /></g><g
           transform="translate(193.263,255.5774)"
           id="g238"><path
             id="path240"
             style="fill:#31afe1;fill-opacity:1;fill-rule:nonzero;stroke:none"
             d="m 0,0 c 0,-10.745 0.015,-21.493 -0.023,-32.238 -0.004,-1.019 -0.165,-2.1 -0.531,-3.049 -0.717,-1.864 -2.063,-2.096 -3.471,-0.69 -4.943,4.933 -9.872,9.882 -14.804,14.823 -5.701,5.71 -11.405,11.422 -17.104,17.136 -2.359,2.365 -2.368,5.647 -0.019,8.024 10.495,10.614 20.992,21.227 31.493,31.84 0.694,0.7 1.348,1.652 2.529,1.206 1.127,-0.426 1.573,-1.443 1.732,-2.571 0.101,-0.698 0.18,-1.41 0.181,-2.115 C -0.006,21.577 -0.011,10.79 -0.011,0 L 0,0 Z" /></g></g></g></g></svg>