<?xml version="1.0" encoding="UTF-8" standalone="no"?>
<svg
   xmlns:dc="http://purl.org/dc/elements/1.1/"
   xmlns:cc="http://creativecommons.org/ns#"
   xmlns:rdf="http://www.w3.org/1999/02/22-rdf-syntax-ns#"
   xmlns:svg="http://www.w3.org/2000/svg"
   xmlns="http://www.w3.org/2000/svg"
   viewBox="0 0 640 640"
   height="640"
   width="640"
   xml:space="preserve"
   version="1.1"
   id="svg2"><metadata
     id="metadata8"><rdf:RDF><cc:Work
         rdf:about=""><dc:format>image/svg+xml</dc:format><dc:type
           rdf:resource="http://purl.org/dc/dcmitype/StillImage" /><dc:title></dc:title></cc:Work></rdf:RDF></metadata><defs
     id="defs6"><clipPath
       id="clipPath16"
       clipPathUnits="userSpaceOnUse"><path
         id="path18"
         d="M 0,512 512,512 512,0 0,0 0,512 Z" /></clipPath><clipPath
       id="clipPath24"
       clipPathUnits="userSpaceOnUse"><path
         id="path26"
         d="m 18.325,493.744 475.4,0 0,-475.4877 -475.4,0 0,475.4877 z" /></clipPath><clipPath
       id="clipPath28"
       clipPathUnits="userSpaceOnUse"><path
         id="path30"
         d="M 448.99,63.029 C 389.293,3.332 122.807,3.332 63.11,63.029 3.413,122.726 3.413,389.312 63.01,449.009 c 59.597,59.696 326.283,59.596 385.98,0 59.697,-59.597 59.597,-326.283 0,-385.98" /></clipPath><clipPath
       id="clipPath32"
       clipPathUnits="userSpaceOnUse"><path
         id="path34"
         d="m -32768,32767 65535,0 0,-65535 -65535,0 0,65535 z" /></clipPath><radialGradient
       id="radialGradient36"
       spreadMethod="pad"
       gradientTransform="matrix(237.72188,0,0,237.72188,256.02499,256)"
       gradientUnits="userSpaceOnUse"
       r="1"
       cy="0"
       cx="0"
       fy="0"
       fx="0"><stop
         id="stop38"
         offset="0"
         style="stop-opacity:1;stop-color:#ffffff" /><stop
         id="stop40"
         offset="0.8587"
         style="stop-opacity:0.14129854;stop-color:#ffffff" /><stop
         id="stop42"
         offset="1"
         style="stop-opacity:0;stop-color:#ffffff" /></radialGradient><mask
       id="mask44"
       height="1"
       width="1"
       y="0"
       x="0"
       maskUnits="userSpaceOnUse"><g
         id="g46"><g
           id="g48"
           clip-path="url(#clipPath32)"><g
             id="g50"><g
               id="g52"><path
                 id="path54"
                 style="fill:url(#radialGradient36);stroke:none"
                 d="m -32768,32767 65535,0 0,-65535 -65535,0 0,65535 z" /></g></g></g></g></mask><radialGradient
       id="radialGradient56"
       spreadMethod="pad"
       gradientTransform="matrix(237.72188,0,0,237.72188,256.02499,256)"
       gradientUnits="userSpaceOnUse"
       r="1"
       cy="0"
       cx="0"
       fy="0"
       fx="0"><stop
         id="stop58"
         offset="0"
         style="stop-opacity:1;stop-color:#010101" /><stop
         id="stop60"
         offset="0.8587"
         style="stop-opacity:1;stop-color:#010101" /><stop
         id="stop62"
         offset="1"
         style="stop-opacity:1;stop-color:#010101" /></radialGradient><clipPath
       id="clipPath86"
       clipPathUnits="userSpaceOnUse"><path
         id="path88"
         d="m 18.325,493.744 475.4,0 0,-475.4877 -475.4,0 0,475.4877 z" /></clipPath><clipPath
       id="clipPath90"
       clipPathUnits="userSpaceOnUse"><path
         id="path92"
         d="M 448.99,63.029 C 389.293,3.332 122.807,3.332 63.11,63.029 3.413,122.726 3.413,389.312 63.01,449.009 c 59.597,59.696 326.283,59.596 385.98,0 59.697,-59.597 59.597,-326.283 0,-385.98" /></clipPath><clipPath
       id="clipPath94"
       clipPathUnits="userSpaceOnUse"><path
         id="path96"
         d="m -32768,32767 65535,0 0,-65535 -65535,0 0,65535 z" /></clipPath><radialGradient
       id="radialGradient98"
       spreadMethod="pad"
       gradientTransform="matrix(188.25467,188.36119,-130.35883,130.27895,256.02499,256.04376)"
       gradientUnits="userSpaceOnUse"
       r="1"
       cy="0"
       cx="0"
       fy="0"
       fx="0"><stop
         id="stop100"
         offset="0"
         style="stop-opacity:1;stop-color:#ffffff" /><stop
         id="stop102"
         offset="0.8587"
         style="stop-opacity:0.14129854;stop-color:#ffffff" /><stop
         id="stop104"
         offset="1"
         style="stop-opacity:0;stop-color:#ffffff" /></radialGradient><mask
       id="mask106"
       height="1"
       width="1"
       y="0"
       x="0"
       maskUnits="userSpaceOnUse"><g
         id="g108"><g
           id="g110"
           clip-path="url(#clipPath94)"><g
             id="g112"><g
               id="g114"><path
                 id="path116"
                 style="fill:url(#radialGradient98);stroke:none"
                 d="m -32768,32767 65535,0 0,-65535 -65535,0 0,65535 z" /></g></g></g></g></mask><radialGradient
       id="radialGradient118"
       spreadMethod="pad"
       gradientTransform="matrix(188.25467,188.36119,-130.35883,130.27895,256.02499,256.04376)"
       gradientUnits="userSpaceOnUse"
       r="1"
       cy="0"
       cx="0"
       fy="0"
       fx="0"><stop
         id="stop120"
         offset="0"
         style="stop-opacity:1;stop-color:#010101" /><stop
         id="stop122"
         offset="0.8587"
         style="stop-opacity:1;stop-color:#010101" /><stop
         id="stop124"
         offset="1"
         style="stop-opacity:1;stop-color:#010101" /></radialGradient><clipPath
       id="clipPath148"
       clipPathUnits="userSpaceOnUse"><path
         id="path150"
         d="m 18.275,493.694 475.387,0 0,-475.4377 -475.387,0 0,475.4377 z" /></clipPath><clipPath
       id="clipPath152"
       clipPathUnits="userSpaceOnUse"><path
         id="path154"
         d="m 63.01,63.029 c 59.697,-59.697 326.183,-59.697 385.88,0 59.697,59.697 59.697,326.183 0,385.88 -59.697,59.696 -326.183,59.696 -385.88,0.1 -59.697,-59.597 -59.597,-326.283 0,-385.98" /></clipPath><radialGradient
       id="radialGradient160"
       spreadMethod="pad"
       gradientTransform="matrix(-188.28767,188.39421,130.38168,130.30179,255.92499,255.99377)"
       gradientUnits="userSpaceOnUse"
       r="1"
       cy="0"
       cx="0"
       fy="0"
       fx="0"><stop
         id="stop162"
         offset="0"
         style="stop-opacity:1;stop-color:#ffffff" /><stop
         id="stop164"
         offset="0.8587"
         style="stop-opacity:0.14129854;stop-color:#ffffff" /><stop
         id="stop166"
         offset="1"
         style="stop-opacity:0;stop-color:#ffffff" /></radialGradient><mask
       id="mask168"
       height="1"
       width="1"
       y="0"
       x="0"
       maskUnits="userSpaceOnUse"><g
         id="g170"><g
           id="g172"><g
             id="g174"><g
               id="g176"><path
                 id="path178"
                 style="fill:url(#radialGradient160);stroke:none"
                 d="m -32768,32767 65535,0 0,-65535 -65535,0 0,65535 z" /></g></g></g></g></mask><radialGradient
       id="radialGradient180"
       spreadMethod="pad"
       gradientTransform="matrix(-188.28767,188.39421,130.38168,130.30179,255.92499,255.99377)"
       gradientUnits="userSpaceOnUse"
       r="1"
       cy="0"
       cx="0"
       fy="0"
       fx="0"><stop
         id="stop182"
         offset="0"
         style="stop-opacity:1;stop-color:#010101" /><stop
         id="stop184"
         offset="0.8587"
         style="stop-opacity:1;stop-color:#010101" /><stop
         id="stop186"
         offset="1"
         style="stop-opacity:1;stop-color:#010101" /></radialGradient></defs><g
     transform="matrix(1.25,0,0,-1.25,0,640)"
     id="g10"><g
       id="g12"><g
         clip-path="url(#clipPath16)"
         id="g14"><g
           id="g20"><g
             id="g22" /><g
             id="g64"><g
               style="opacity:0.39999402"
               id="g66"
               clip-path="url(#clipPath24)"><g
                 id="g68"><g
                   id="g70"
                   clip-path="url(#clipPath28)"><g
                     id="g72"><g
                       id="g74" /><g
                       id="g76"
                       mask="url(#mask44)"><g
                         id="g78"><path
                           id="path80"
                           style="fill:url(#radialGradient56);stroke:none"
                           d="M 448.99,63.029 C 389.293,3.332 122.807,3.332 63.11,63.029 3.413,122.726 3.413,389.312 63.01,449.009 c 59.597,59.696 326.283,59.596 385.98,0 59.697,-59.597 59.597,-326.283 0,-385.98" /></g></g></g></g></g></g></g></g><g
           id="g82"><g
             id="g84" /><g
             id="g126"><g
               style="opacity:0.39999402"
               id="g128"
               clip-path="url(#clipPath86)"><g
                 id="g130"><g
                   id="g132"
                   clip-path="url(#clipPath90)"><g
                     id="g134"><g
                       id="g136" /><g
                       id="g138"
                       mask="url(#mask106)"><g
                         id="g140"><path
                           id="path142"
                           style="fill:url(#radialGradient118);stroke:none"
                           d="M 448.99,63.029 C 389.293,3.332 122.807,3.332 63.11,63.029 3.413,122.726 3.413,389.312 63.01,449.009 c 59.597,59.696 326.283,59.596 385.98,0 59.697,-59.597 59.597,-326.283 0,-385.98" /></g></g></g></g></g></g></g></g><g
           id="g144"><g
             id="g146" /><g
             id="g188"><g
               style="opacity:0.39999402"
               id="g190"
               clip-path="url(#clipPath148)"><g
                 id="g192"><g
                   id="g194"
                   clip-path="url(#clipPath152)"><g
                     id="g196"><g
                       id="g198" /><g
                       id="g200"
                       mask="url(#mask168)"><g
                         id="g202"><path
                           id="path204"
                           style="fill:url(#radialGradient180);stroke:none"
                           d="m 63.01,63.029 c 59.697,-59.697 326.183,-59.697 385.88,0 59.697,59.697 59.697,326.183 0,385.88 -59.697,59.696 -326.183,59.696 -385.88,0.1 -59.697,-59.597 -59.597,-326.283 0,-385.98" /></g></g></g></g></g></g></g></g><g
           transform="translate(433.2792,78.7208)"
           id="g206"><path
             id="path208"
             style="fill:#1e1e1d;fill-opacity:1;fill-rule:nonzero;stroke:none"
             d="m 0,0 c -70.294,-70.294 -284.264,-70.294 -354.558,0 -70.295,70.294 -70.295,284.264 0,354.558 70.294,70.295 284.264,70.295 354.558,0 C 70.294,284.264 70.294,70.294 0,0" /></g><g
           transform="translate(302.3593,235.8441)"
           id="g210"><path
             id="path212"
             style="fill:#ffffff;fill-opacity:1;fill-rule:nonzero;stroke:none"
             d="m 0,0 c 1.889,0.016 3.716,0.17 5.509,0.613 3.905,0.964 7.152,2.99 9.733,6.079 2.635,3.152 4.006,6.814 4.377,10.875 0.128,1.39 0.143,2.783 0.06,4.177 -0.09,1.512 -0.289,3.01 -0.69,4.473 -1.255,4.57 -3.821,8.216 -7.764,10.854 -2.949,1.971 -6.249,2.874 -9.768,3.048 -1.924,0.095 -3.836,0.008 -5.732,-0.336 -3.314,-0.602 -6.263,-1.97 -8.804,-4.196 -2.463,-2.16 -4.244,-4.782 -5.346,-7.866 -0.835,-2.333 -1.169,-4.749 -1.204,-7.215 -0.028,-1.917 0.106,-3.82 0.524,-5.692 0.755,-3.379 2.274,-6.362 4.646,-8.904 2.093,-2.243 4.583,-3.856 7.484,-4.844 C -4.697,0.289 -2.345,0.025 0,0 m 0.807,47.118 c 0.484,-0.03 0.968,-0.06 1.452,-0.094 3.713,-0.256 7.263,-1.127 10.58,-2.85 2.368,-1.232 4.469,-2.825 6.343,-4.726 2.035,-2.064 3.718,-4.377 4.986,-6.987 0.929,-1.916 1.575,-3.927 2.022,-6.005 0.548,-2.549 0.728,-5.13 0.62,-7.726 C 26.635,14.565 25.714,10.582 23.75,6.876 22.379,4.291 20.593,2.021 18.468,0.015 15.06,-3.203 11.067,-5.301 6.48,-6.273 4.781,-6.632 3.069,-6.858 1.334,-6.912 1.255,-6.916 1.178,-6.938 1.099,-6.951 l -2.041,0 c -0.444,0.032 -0.888,0.062 -1.33,0.095 -5.314,0.385 -10.164,2.027 -14.366,5.37 -3.317,2.638 -5.914,5.859 -7.686,9.723 -0.901,1.964 -1.503,4.023 -1.905,6.144 -0.454,2.398 -0.598,4.82 -0.477,7.253 0.256,5.123 1.605,9.905 4.578,14.144 3.478,4.959 8.026,8.485 13.897,10.19 1.79,0.52 3.614,0.866 5.473,1.009 0.589,0.046 1.181,0.069 1.77,0.105 0.097,0.005 0.192,0.023 0.288,0.037 l 1.507,0 0,-10e-4 z" /></g><g
           transform="translate(399.2474,230.1078)"
           id="g214"><path
             id="path216"
             style="fill:#ffffff;fill-opacity:1;fill-rule:nonzero;stroke:none"
             d="m 0,0 c -0.2,-0.483 -0.353,-0.581 -0.899,-0.581 -1.782,0 -3.565,-0.001 -5.349,0 -0.628,0 -0.859,0.233 -0.859,0.865 l 0,51.054 c 0,0.654 0.23,0.883 0.895,0.884 1.783,0 3.566,0.006 5.348,-0.01 0.22,-0.001 0.46,-0.088 0.648,-0.205 0.114,-0.071 0.148,-0.272 0.217,-0.416 L 0.001,0 0,0 Z" /></g><g
           transform="translate(253.8367,260.9112)"
           id="g218"><path
             id="path220"
             style="fill:#ffffff;fill-opacity:1;fill-rule:nonzero;stroke:none"
             d="m 0,0 c 0.899,-1.194 1.79,-2.378 2.681,-3.562 1.888,-2.509 3.777,-5.019 5.666,-7.53 2.429,-3.23 4.857,-6.457 7.287,-9.685 2.38,-3.163 4.76,-6.328 7.143,-9.489 0.177,-0.233 0.253,-0.47 0.127,-0.74 -0.129,-0.273 -0.378,-0.361 -0.659,-0.377 -0.129,-0.008 -0.258,-0.001 -0.389,-0.001 -2.197,0 -4.392,0.001 -6.588,-0.003 -0.376,-0.001 -0.651,0.125 -0.887,0.438 -4.141,5.536 -8.292,11.066 -12.442,16.597 -2.357,3.14 -4.715,6.28 -7.073,9.42 -0.018,0.027 -0.041,0.049 -0.075,0.089 -0.286,-0.266 -0.57,-0.531 -0.853,-0.795 -1.911,-1.786 -3.822,-3.574 -5.733,-5.362 -1.053,-0.984 -2.107,-1.969 -3.166,-2.946 -0.137,-0.126 -0.193,-0.251 -0.193,-0.437 0.005,-5.348 0.004,-10.698 0.004,-16.045 0,-0.064 0.002,-0.13 0,-0.195 -0.014,-0.49 -0.263,-0.757 -0.753,-0.759 -1.872,-0.007 -3.744,-0.005 -5.616,0 -0.475,0.002 -0.725,0.269 -0.734,0.746 -0.001,0.055 0,0.113 0,0.17 l 0,50.954 0,0.048 c 0,0.645 0.233,0.881 0.873,0.881 1.709,0 3.419,0 5.129,0 0.113,0 0.227,0.004 0.34,0 0.496,-0.023 0.739,-0.267 0.76,-0.76 0.004,-0.073 10e-4,-0.146 10e-4,-0.218 l 0,-24.701 0,-0.342 c 0.424,0.396 0.808,0.751 1.188,1.109 2.258,2.117 4.513,4.236 6.771,6.353 2.961,2.774 5.924,5.548 8.886,8.324 2.482,2.328 4.962,4.657 7.443,6.985 1.046,0.982 2.095,1.959 3.138,2.944 0.217,0.205 0.465,0.306 0.764,0.306 2.617,-0.001 5.235,0 7.852,-0.001 0.446,0 0.698,-0.162 0.792,-0.495 0.078,-0.276 -0.028,-0.49 -0.221,-0.674 C 20.705,19.526 19.948,18.806 19.189,18.089 17.845,16.822 16.497,15.557 15.154,14.29 13.289,12.534 11.427,10.78 9.566,9.022 7.657,7.221 5.751,5.417 3.842,3.617 2.57,2.416 1.294,1.219 0,0" /></g><g
           transform="translate(344.4037,236.3231)"
           id="g222"><path
             id="path224"
             style="fill:#ffffff;fill-opacity:1;fill-rule:nonzero;stroke:none"
             d="m 0,0 0.313,0 c 4.734,0 9.465,-0.004 14.199,0.006 0.848,0.001 1.7,0.036 2.546,0.102 1.758,0.139 3.434,0.605 5.037,1.339 2.096,0.96 3.856,2.357 5.372,4.084 1.413,1.609 2.53,3.399 3.353,5.373 0.876,2.102 1.346,4.295 1.521,6.562 0.16,2.069 0.095,4.128 -0.216,6.177 -0.369,2.421 -1.157,4.706 -2.374,6.834 -1.353,2.366 -3.1,4.392 -5.342,5.957 -2.684,1.874 -5.698,2.746 -8.952,2.761 -5.065,0.025 -10.13,0.008 -15.195,0.009 l -0.263,0 L -0.001,0 0,0 Z m -7.112,19.599 0,25.429 c 0,0.074 0,0.147 0.001,0.22 0.01,0.48 0.252,0.73 0.728,0.758 0.032,0.002 0.065,0 0.096,0 7.271,0 14.54,0.017 21.809,-0.011 3.344,-0.011 6.543,-0.763 9.595,-2.128 2.655,-1.187 4.988,-2.843 7.013,-4.926 3.302,-3.39 5.495,-7.39 6.573,-12.004 0.621,-2.657 0.877,-5.346 0.82,-8.068 C 39.447,15.213 38.813,11.664 37.427,8.267 36.27,5.431 34.613,2.913 32.525,0.678 29.321,-2.753 25.429,-5.009 20.868,-6.114 18.9,-6.591 16.906,-6.803 14.881,-6.801 7.839,-6.79 0.797,-6.797 -6.247,-6.796 c -0.12,0 -0.242,0.009 -0.361,0.026 -0.26,0.042 -0.421,0.198 -0.468,0.457 -0.024,0.135 -0.035,0.273 -0.035,0.409 -0.001,8.501 -0.001,17.001 -0.001,25.503" /></g><g
           transform="translate(207.2311,255.2169)"
           id="g226"><path
             id="path228"
             style="fill:#ffffff;fill-opacity:1;fill-rule:nonzero;stroke:none"
             d="m 0,0 c -0.305,-0.989 -0.973,-1.713 -1.688,-2.425 -4.792,-4.777 -9.569,-9.569 -14.352,-14.354 -1.723,-1.724 -3.564,-1.72 -5.294,0.012 -4.936,4.939 -9.872,9.878 -14.806,14.819 -1.681,1.682 -1.68,3.52 0.005,5.206 4.962,4.97 9.925,9.937 14.889,14.903 1.614,1.616 3.512,1.617 5.127,0.002 C -11.307,13.351 -6.503,8.531 -1.682,3.727 -0.967,3.014 -0.301,2.288 0,1.298 L 0,0 Z" /></g><g
           transform="translate(159.6579,208.9425)"
           id="g230"><path
             id="path232"
             style="fill:#ffffff;fill-opacity:1;fill-rule:nonzero;stroke:none"
             d="m 0,0 c -0.984,0.312 -1.697,0.993 -2.407,1.707 -4.772,4.797 -9.558,9.578 -14.34,14.366 -1.711,1.713 -1.712,3.54 -0.006,5.25 4.949,4.952 9.898,9.905 14.848,14.857 1.646,1.646 3.531,1.653 5.168,0.015 4.949,-4.952 9.898,-9.906 14.846,-14.86 1.7,-1.702 1.704,-3.567 0.012,-5.26 C 13.298,11.246 8.467,6.423 3.655,1.585 2.967,0.894 2.258,0.271 1.298,-0.001 L 0,-0.001 0,0 Z" /></g><g
           transform="translate(142.2896,267.7335)"
           id="g234"><path
             id="path236"
             style="fill:#ffffff;fill-opacity:1;fill-rule:nonzero;stroke:none"
             d="m 0,0 c 0,5.507 0.05,11.015 -0.032,16.521 -0.023,1.593 0.358,2.838 1.575,3.889 0.978,0.846 1.846,1.823 2.763,2.742 3.629,3.632 7.256,7.263 10.885,10.893 1.706,1.707 3.547,1.705 5.253,-0.001 4.936,-4.937 9.871,-9.876 14.807,-14.814 1.695,-1.698 1.694,-3.563 -0.002,-5.261 C 29.413,8.125 23.574,2.282 17.736,-3.561 12.58,-8.722 7.426,-13.883 2.27,-19.042 1.314,-19.999 0.468,-19.775 0.121,-18.45 0.014,-18.04 0.005,-17.597 0.005,-17.168 -0.002,-11.446 0,-5.723 0,0" /></g><g
           transform="translate(130.486,255.8012)"
           id="g238"><path
             id="path240"
             style="fill:#ffffff;fill-opacity:1;fill-rule:nonzero;stroke:none"
             d="m 0,0 c 0,-5.053 0.007,-10.108 -0.011,-15.162 -0.002,-0.479 -0.078,-0.988 -0.25,-1.434 -0.337,-0.877 -0.97,-0.985 -1.632,-0.324 -2.325,2.32 -4.643,4.647 -6.962,6.971 -2.682,2.686 -5.364,5.372 -8.044,8.059 -1.11,1.113 -1.114,2.656 -0.01,3.774 4.936,4.992 9.873,9.983 14.812,14.974 0.326,0.33 0.634,0.778 1.189,0.568 0.53,-0.2 0.74,-0.679 0.815,-1.209 0.047,-0.329 0.084,-0.663 0.085,-0.995 C -0.003,10.148 -0.005,5.074 -0.005,0 L 0,0 Z" /></g></g></g></g></svg>