<?xml version="1.0" encoding="UTF-8" standalone="no"?>
<svg
   xmlns:dc="http://purl.org/dc/elements/1.1/"
   xmlns:cc="http://creativecommons.org/ns#"
   xmlns:rdf="http://www.w3.org/1999/02/22-rdf-syntax-ns#"
   xmlns:svg="http://www.w3.org/2000/svg"
   xmlns="http://www.w3.org/2000/svg"
   viewBox="0 0 640 640"
   height="640"
   width="640"
   xml:space="preserve"
   version="1.1"
   id="svg2"><metadata
     id="metadata8"><rdf:RDF><cc:Work
         rdf:about=""><dc:format>image/svg+xml</dc:format><dc:type
           rdf:resource="http://purl.org/dc/dcmitype/StillImage" /></cc:Work></rdf:RDF></metadata><defs
     id="defs6"><clipPath
       id="clipPath16"
       clipPathUnits="userSpaceOnUse"><path
         id="path18"
         d="M 0,512 512,512 512,0 0,0 0,512 Z" /></clipPath><clipPath
       id="clipPath24"
       clipPathUnits="userSpaceOnUse"><path
         id="path26"
         d="m 18.325,493.744 475.4,0 0,-475.4877 -475.4,0 0,475.4877 z" /></clipPath><clipPath
       id="clipPath28"
       clipPathUnits="userSpaceOnUse"><path
         id="path30"
         d="M 448.99,63.029 C 389.293,3.332 122.807,3.332 63.11,63.029 3.413,122.726 3.413,389.312 63.01,449.009 c 59.597,59.696 326.283,59.596 385.98,0 59.697,-59.597 59.597,-326.283 0,-385.98" /></clipPath><radialGradient
       id="radialGradient36"
       spreadMethod="pad"
       gradientTransform="matrix(237.72188,0,0,237.72188,256.02499,256)"
       gradientUnits="userSpaceOnUse"
       r="1"
       cy="0"
       cx="0"
       fy="0"
       fx="0"><stop
         id="stop38"
         offset="0"
         style="stop-opacity:1;stop-color:#ffffff" /><stop
         id="stop40"
         offset="0.8587"
         style="stop-opacity:0.14129854;stop-color:#ffffff" /><stop
         id="stop42"
         offset="1"
         style="stop-opacity:0;stop-color:#ffffff" /></radialGradient><mask
       id="mask44"
       height="1"
       width="1"
       y="0"
       x="0"
       maskUnits="userSpaceOnUse"><g
         id="g46"><g
           id="g48"><g
             id="g50"><g
               id="g52"><path
                 id="path54"
                 style="fill:url(#radialGradient36);stroke:none"
                 d="m -32768,32767 65535,0 0,-65535 -65535,0 0,65535 z" /></g></g></g></g></mask><radialGradient
       id="radialGradient56"
       spreadMethod="pad"
       gradientTransform="matrix(237.72188,0,0,237.72188,256.02499,256)"
       gradientUnits="userSpaceOnUse"
       r="1"
       cy="0"
       cx="0"
       fy="0"
       fx="0"><stop
         id="stop58"
         offset="0"
         style="stop-opacity:1;stop-color:#010101" /><stop
         id="stop60"
         offset="0.8587"
         style="stop-opacity:1;stop-color:#010101" /><stop
         id="stop62"
         offset="1"
         style="stop-opacity:1;stop-color:#010101" /></radialGradient><clipPath
       id="clipPath86"
       clipPathUnits="userSpaceOnUse"><path
         id="path88"
         d="m 18.325,493.744 475.4,0 0,-475.4877 -475.4,0 0,475.4877 z" /></clipPath><clipPath
       id="clipPath90"
       clipPathUnits="userSpaceOnUse"><path
         id="path92"
         d="M 448.99,63.029 C 389.293,3.332 122.807,3.332 63.11,63.029 3.413,122.726 3.413,389.312 63.01,449.009 c 59.597,59.696 326.283,59.596 385.98,0 59.697,-59.597 59.597,-326.283 0,-385.98" /></clipPath><radialGradient
       id="radialGradient98"
       spreadMethod="pad"
       gradientTransform="matrix(188.25467,188.36119,-130.35883,130.27895,256.02499,256.04376)"
       gradientUnits="userSpaceOnUse"
       r="1"
       cy="0"
       cx="0"
       fy="0"
       fx="0"><stop
         id="stop100"
         offset="0"
         style="stop-opacity:1;stop-color:#ffffff" /><stop
         id="stop102"
         offset="0.8587"
         style="stop-opacity:0.14129854;stop-color:#ffffff" /><stop
         id="stop104"
         offset="1"
         style="stop-opacity:0;stop-color:#ffffff" /></radialGradient><mask
       id="mask106"
       height="1"
       width="1"
       y="0"
       x="0"
       maskUnits="userSpaceOnUse"><g
         id="g108"><g
           id="g110"><g
             id="g112"><g
               id="g114"><path
                 id="path116"
                 style="fill:url(#radialGradient98);stroke:none"
                 d="m -32768,32767 65535,0 0,-65535 -65535,0 0,65535 z" /></g></g></g></g></mask><radialGradient
       id="radialGradient118"
       spreadMethod="pad"
       gradientTransform="matrix(188.25467,188.36119,-130.35883,130.27895,256.02499,256.04376)"
       gradientUnits="userSpaceOnUse"
       r="1"
       cy="0"
       cx="0"
       fy="0"
       fx="0"><stop
         id="stop120"
         offset="0"
         style="stop-opacity:1;stop-color:#010101" /><stop
         id="stop122"
         offset="0.8587"
         style="stop-opacity:1;stop-color:#010101" /><stop
         id="stop124"
         offset="1"
         style="stop-opacity:1;stop-color:#010101" /></radialGradient><clipPath
       id="clipPath148"
       clipPathUnits="userSpaceOnUse"><path
         id="path150"
         d="m 18.275,493.694 475.387,0 0,-475.4377 -475.387,0 0,475.4377 z" /></clipPath><clipPath
       id="clipPath152"
       clipPathUnits="userSpaceOnUse"><path
         id="path154"
         d="m 63.01,63.029 c 59.697,-59.697 326.183,-59.697 385.88,0 59.697,59.697 59.697,326.183 0,385.88 -59.697,59.696 -326.183,59.696 -385.88,0.1 -59.697,-59.597 -59.597,-326.283 0,-385.98" /></clipPath><radialGradient
       id="radialGradient160"
       spreadMethod="pad"
       gradientTransform="matrix(-188.28767,188.39421,130.38168,130.30179,255.92499,255.99377)"
       gradientUnits="userSpaceOnUse"
       r="1"
       cy="0"
       cx="0"
       fy="0"
       fx="0"><stop
         id="stop162"
         offset="0"
         style="stop-opacity:1;stop-color:#ffffff" /><stop
         id="stop164"
         offset="0.8587"
         style="stop-opacity:0.14129854;stop-color:#ffffff" /><stop
         id="stop166"
         offset="1"
         style="stop-opacity:0;stop-color:#ffffff" /></radialGradient><mask
       id="mask168"
       height="1"
       width="1"
       y="0"
       x="0"
       maskUnits="userSpaceOnUse"><g
         id="g170"><g
           id="g172"><g
             id="g174"><g
               id="g176"><path
                 id="path178"
                 style="fill:url(#radialGradient160);stroke:none"
                 d="m -32768,32767 65535,0 0,-65535 -65535,0 0,65535 z" /></g></g></g></g></mask><radialGradient
       id="radialGradient180"
       spreadMethod="pad"
       gradientTransform="matrix(-188.28767,188.39421,130.38168,130.30179,255.92499,255.99377)"
       gradientUnits="userSpaceOnUse"
       r="1"
       cy="0"
       cx="0"
       fy="0"
       fx="0"><stop
         id="stop182"
         offset="0"
         style="stop-opacity:1;stop-color:#010101" /><stop
         id="stop184"
         offset="0.8587"
         style="stop-opacity:1;stop-color:#010101" /><stop
         id="stop186"
         offset="1"
         style="stop-opacity:1;stop-color:#010101" /></radialGradient><linearGradient
       id="linearGradient218"
       spreadMethod="pad"
       gradientTransform="matrix(460,0,0,-460,26,256)"
       gradientUnits="userSpaceOnUse"
       y2="0"
       x2="1"
       y1="0"
       x1="0"><stop
         id="stop220"
         offset="0"
         style="stop-opacity:1;stop-color:#f7f7f7" /><stop
         id="stop222"
         offset="1"
         style="stop-opacity:1;stop-color:#f7f7f7" /></linearGradient><clipPath
       id="clipPath230"
       clipPathUnits="userSpaceOnUse"><path
         id="path232"
         d="M 0,512 512,512 512,0 0,0 0,512 Z" /></clipPath><clipPath
       id="clipPath306"
       clipPathUnits="userSpaceOnUse"><path
         id="path308"
         d="M 53.646,286.217 C 47.839,214.159 62.989,135.21 99.1,99.1 l 0,0 c 62.213,-62.213 251.587,-62.213 313.8,0 l 0,0 c 35.134,35.134 50.427,110.823 45.879,181.262 l 0,0 c 0,0 -96.223,-144.251 -205.112,-35.362 l 0,0 c -56.455,56.455 -100.689,72.86 -133.052,72.856 l 0,0 C 75.685,317.851 53.646,286.217 53.646,286.217" /></clipPath><linearGradient
       id="linearGradient318"
       spreadMethod="pad"
       gradientTransform="matrix(0,302.22736,302.22736,0,256,52.439499)"
       gradientUnits="userSpaceOnUse"
       y2="0"
       x2="1"
       y1="0"
       x1="0"><stop
         id="stop320"
         offset="0"
         style="stop-opacity:0;stop-color:#ffffff" /><stop
         id="stop322"
         offset="1"
         style="stop-opacity:1;stop-color:#ffffff" /></linearGradient><mask
       id="mask324"
       height="1"
       width="1"
       y="0"
       x="0"
       maskUnits="userSpaceOnUse"><g
         id="g326"><g
           id="g328"><g
             id="g330"><g
               id="g332"><path
                 id="path334"
                 style="fill:url(#linearGradient318);stroke:none"
                 d="m -32768,32767 65535,0 0,-65535 -65535,0 0,65535 z" /></g></g></g></g></mask><linearGradient
       id="linearGradient340"
       spreadMethod="pad"
       gradientTransform="matrix(0,302.22736,302.22736,0,256,52.439499)"
       gradientUnits="userSpaceOnUse"
       y2="0"
       x2="1"
       y1="0"
       x1="0"><stop
         id="stop342"
         offset="0"
         style="stop-opacity:1;stop-color:#d7e207" /><stop
         id="stop344"
         offset="1"
         style="stop-opacity:1;stop-color:#d7e207" /></linearGradient><clipPath
       id="clipPath352"
       clipPathUnits="userSpaceOnUse"><path
         id="path354"
         d="M 0,512 512,512 512,0 0,0 0,512 Z" /></clipPath><clipPath
       id="clipPath360"
       clipPathUnits="userSpaceOnUse"><path
         id="path362"
         d="m 72.6675,444.944 366.6755,0 0,-77.643 -366.6755,0 0,77.643 z" /></clipPath></defs><g
     transform="matrix(1.25,0,0,-1.25,0,640)"
     id="g10"><g
       id="g12"><g
         clip-path="url(#clipPath16)"
         id="g14"><g
           id="g20"><g
             id="g22" /><g
             id="g64"><g
               style="opacity:0.39999402"
               id="g66"
               clip-path="url(#clipPath24)"><g
                 id="g68"><g
                   id="g70"
                   clip-path="url(#clipPath28)"><g
                     id="g72"><g
                       id="g74" /><g
                       id="g76"
                       mask="url(#mask44)"><g
                         id="g78"><path
                           id="path80"
                           style="fill:url(#radialGradient56);stroke:none"
                           d="M 448.99,63.029 C 389.293,3.332 122.807,3.332 63.11,63.029 3.413,122.726 3.413,389.312 63.01,449.009 c 59.597,59.696 326.283,59.596 385.98,0 59.697,-59.597 59.597,-326.283 0,-385.98" /></g></g></g></g></g></g></g></g><g
           id="g82"><g
             id="g84" /><g
             id="g126"><g
               style="opacity:0.39999402"
               id="g128"
               clip-path="url(#clipPath86)"><g
                 id="g130"><g
                   id="g132"
                   clip-path="url(#clipPath90)"><g
                     id="g134"><g
                       id="g136" /><g
                       id="g138"
                       mask="url(#mask106)"><g
                         id="g140"><path
                           id="path142"
                           style="fill:url(#radialGradient118);stroke:none"
                           d="M 448.99,63.029 C 389.293,3.332 122.807,3.332 63.11,63.029 3.413,122.726 3.413,389.312 63.01,449.009 c 59.597,59.696 326.283,59.596 385.98,0 59.697,-59.597 59.597,-326.283 0,-385.98" /></g></g></g></g></g></g></g></g><g
           id="g144"><g
             id="g146" /><g
             id="g188"><g
               style="opacity:0.39999402"
               id="g190"
               clip-path="url(#clipPath148)"><g
                 id="g192"><g
                   id="g194"
                   clip-path="url(#clipPath152)"><g
                     id="g196"><g
                       id="g198" /><g
                       id="g200"
                       mask="url(#mask168)"><g
                         id="g202"><path
                           id="path204"
                           style="fill:url(#radialGradient180);stroke:none"
                           d="m 63.01,63.029 c 59.697,-59.697 326.183,-59.697 385.88,0 59.697,59.697 59.697,326.183 0,385.88 -59.697,59.696 -326.183,59.696 -385.88,0.1 -59.697,-59.597 -59.597,-326.283 0,-385.98" /></g></g></g></g></g></g></g></g></g></g><g
       id="g206"><g
         id="g208"><g
           id="g214"><g
             id="g216"><path
               id="path224"
               style="fill:url(#linearGradient218);stroke:none"
               d="M 78.721,433.279 C 8.427,362.985 8.427,149.015 78.721,78.721 l 0,0 c 70.294,-70.294 284.264,-70.294 354.558,0 l 0,0 c 70.294,70.294 70.294,284.264 0,354.558 l 0,0 C 398.132,468.426 327.066,486 256,486 l 0,0 C 184.934,486 113.868,468.426 78.721,433.279" /></g></g></g></g><g
       id="g226"><g
         clip-path="url(#clipPath230)"
         id="g228"><g
           transform="translate(412.9002,99.0998)"
           id="g234"><path
             id="path236"
             style="fill:#cbdd1f;fill-opacity:1;fill-rule:nonzero;stroke:none"
             d="m 0,0 c -62.214,-62.214 -251.587,-62.214 -313.8,0 -36.111,36.11 -51.262,115.059 -45.454,187.118 0,0 91.026,-41.218 200.02,-41.218 173.217,0 205.112,35.362 205.112,35.362 C 50.427,110.824 35.134,35.134 0,0" /></g><g
           transform="translate(412.9002,99.0998)"
           id="g238"><path
             id="path240"
             style="fill:#d7e207;fill-opacity:1;fill-rule:nonzero;stroke:none"
             d="m 0,0 c -62.214,-62.214 -251.587,-62.214 -313.8,0 -36.111,36.11 -51.262,115.059 -45.454,187.118 0,0 65.187,93.616 200.02,-41.218 C -50.344,37.011 45.878,181.262 45.878,181.262 50.427,110.824 35.134,35.134 0,0" /></g><g
           transform="translate(458.7783,280.3619)"
           id="g242"><path
             id="path244"
             style="fill:#cbdd1f;fill-opacity:1;fill-rule:nonzero;stroke:none"
             d="m 0,0 c 0,0 -37.377,-54.618 -115.478,-54.618 -69.967,0 -95.839,25.348 -95.839,25.348 l 6.205,-6.092 C -96.222,-144.251 0,0 0,0" /></g><g
           transform="translate(272.8051,137.8942)"
           id="g246"><path
             id="path248"
             style="fill:#ceff00;fill-opacity:1;fill-rule:nonzero;stroke:none"
             d="m 0,0 c -10.709,-1.764 -20.648,1.515 -31.337,0.169 -1.675,-0.068 -3.35,-0.132 -5.02,-0.148 -15.411,-1.317 -29.481,6.06 -42.388,14.304 -1.614,1.031 -3.21,2.075 -4.79,3.116 -6.315,3.205 -12.289,6.942 -17.647,11.285 -1.791,1.459 -3.512,2.985 -5.16,4.591 -10.857,10.743 -16.169,25.352 -20.818,39.962 -1.992,7.304 -6.64,14.609 -8.723,22.492 -0.483,2.308 -0.819,4.639 -1.032,6.984 -1.068,11.723 0.916,23.794 2.904,35.121 0.229,1.283 0.479,2.566 0.752,3.846 0.546,2.558 1.183,5.1 1.912,7.617 0.546,1.853 1.127,3.698 1.735,5.538 1.825,5.518 3.897,10.985 5.988,16.451 0.619,1.895 1.265,3.773 1.969,5.626 2.82,7.416 6.58,14.443 12.167,20.684 1.18,1.45 2.429,2.845 3.745,4.179 0.987,1.001 2.009,1.972 3.056,2.916 16.035,15.967 35.957,27.92 59.105,29.166 2.287,0.349 4.559,0.633 6.849,0.854 2.291,0.222 4.6,0.381 6.925,0.487 2.326,0.107 4.681,0.182 7.07,0.248 23.077,4.469 44.991,-3.499 64.264,-15.469 1.766,-0.912 3.523,-1.846 5.276,-2.796 5.259,-2.851 10.479,-5.843 15.754,-8.797 1.574,-0.946 3.095,-1.944 4.554,-3.004 1.459,-1.06 2.856,-2.181 4.179,-3.37 1.338,-1.183 2.603,-2.434 3.803,-3.76 14.231,-15.444 21.536,-34.701 22.864,-55.287 0,-1.992 1.328,-4.649 2.064,-7.091 0.824,-2.296 1.51,-4.614 2.049,-6.951 C 106.38,110.267 101.295,90.346 90.744,73.617 90.256,71.204 89.671,68.816 88.979,66.469 82.752,45.352 67.838,27.687 47.794,17.781 45.887,16.635 43.969,15.567 42.035,14.564 30.434,8.551 17.928,4.832 5.72,0.876 3.931,0.492 2.033,0.196 0,0" /></g><g
           transform="translate(366.7905,259.1146)"
           id="g250"><path
             id="path252"
             style="fill:#f8ffdc;fill-opacity:1;fill-rule:nonzero;stroke:none"
             d="m 0,0 c 0.428,-10.197 -3.763,-19.102 -3.723,-29.233 -0.126,-1.571 -0.257,-3.142 -0.432,-4.702 -0.524,-14.537 -9.011,-26.831 -18.175,-37.943 -1.145,-1.389 -2.301,-2.759 -3.453,-4.116 -10.983,-15.925 -28.27,-24.831 -46.46,-29.445 -1.572,-0.521 -3.141,-1.033 -4.715,-1.536 -3.172,-1.599 -6.422,-3.045 -9.729,-4.287 -1.654,-0.621 -3.323,-1.19 -5.01,-1.703 -17.361,-6.718 -35.696,-1.479 -52.251,3.55 -1.172,0.36 -2.342,0.739 -3.505,1.14 -2.327,0.801 -4.627,1.684 -6.893,2.651 -1.668,0.721 -3.324,1.473 -4.972,2.25 -4.944,2.332 -9.811,4.888 -14.676,7.462 -1.698,0.792 -3.378,1.609 -5.029,2.477 -6.601,3.475 -12.733,7.786 -17.924,13.711 -1.219,1.267 -2.379,2.591 -3.475,3.97 -3.289,4.139 -6.002,8.778 -7.992,13.856 -0.775,1.713 -1.477,3.448 -2.12,5.207 -2.569,7.034 -4.18,14.533 -5.467,21.863 -0.522,1.744 -1,3.494 -1.433,5.254 -2.166,8.802 -3.221,17.87 -3.235,26.839 -0.364,2.032 -0.618,4.043 -0.77,6.035 -0.684,8.962 0.701,17.541 3.463,25.81 0.552,1.653 1.159,3.295 1.816,4.924 5.998,18.108 17.522,32.776 28.713,48.07 1.062,1.362 2.167,2.669 3.322,3.91 6.93,7.448 15.68,12.537 27.18,13 1.773,0.595 3.464,1.184 5.189,1.714 2.738,0.925 5.534,1.689 8.371,2.29 1.419,0.3 2.848,0.56 4.286,0.779 8.563,1.255 16.944,2.826 25.326,4.922 8.382,2.619 16.763,0.523 24.656,-2.15 1.725,-0.475 3.442,-0.949 5.145,-1.485 5.109,-1.593 10.078,-3.878 14.822,-6.873 1.613,-0.778 3.208,-1.561 4.784,-2.362 16.075,-7.037 30.743,-16.99 40.263,-31.632 1.513,-1.289 2.898,-2.624 4.177,-4.018 1.156,-1.245 2.226,-2.538 3.22,-3.876 0.993,-1.338 1.909,-2.718 2.759,-4.139 C -5.857,37.475 -3.238,21.235 -0.166,5.439 -0.013,3.725 0.048,1.92 0,0" /></g><g
           transform="translate(347.5382,246.7631)"
           id="g254"><path
             id="path256"
             style="fill:#ceff00;fill-opacity:1;fill-rule:nonzero;stroke:none"
             d="m 0,0 c -4.735,0.373 -18.025,4.047 -33.575,5.664 -20.291,2.111 -41.606,3.705 -40.892,9.67 1.433,11.949 20.075,16.118 36.162,25.554 C -23.956,49.304 -12.38,58.433 -7.22,58.31 -1.271,58.167 -1.527,51.389 3.541,45.501 7.559,40.834 6.339,32.895 8.271,27.796 10.588,21.679 13.731,-1.083 0,0" /></g><g
           transform="translate(302.794,334.2142)"
           id="g258"><path
             id="path260"
             style="fill:#ceff00;fill-opacity:1;fill-rule:nonzero;stroke:none"
             d="m 0,0 c -4.376,-3.305 -10.173,-12.035 -18.026,-24.69 -10.248,-16.515 -18.387,-31.712 -23.511,-28.817 -7.594,4.289 -9.797,22.95 -11.813,40.598 -1.798,15.741 -9.68,25.158 -6.779,31.696 0.817,1.842 3.474,3.693 7.983,2.682 0,0 5.58,5.212 14.325,0.417 0,0 3.566,-0.042 9.865,-0.889 4.708,-0.632 6.947,-2.239 9.255,-1.884 C -12.472,20.069 13.037,9.847 0,0" /></g><g
           transform="translate(332.6141,307.0669)"
           id="g262"><path
             id="path264"
             style="fill:#ceff00;fill-opacity:1;fill-rule:nonzero;stroke:none"
             d="m 0,0 c -6.275,-5.656 -52.678,-34.32 -59.361,-28.07 -4.302,4.024 29.399,49.388 37.118,54.32 6.418,4.101 18.009,-5.2 17.846,-11.633 0,0 11.224,-8.464 4.397,-14.617" /></g><g
           transform="translate(326.3966,200.5261)"
           id="g266"><path
             id="path268"
             style="fill:#ceff00;fill-opacity:1;fill-rule:nonzero;stroke:none"
             d="m 0,0 c -4.493,1.956 -17.078,16.921 -30.526,26.109 -13.636,9.317 -26.102,14.899 -22.303,22.74 2.721,5.617 25.775,0.383 46.406,-1.438 15.121,-1.335 24.761,-3.09 28.795,-5.706 7.194,-4.663 1.01,-25.776 -6.201,-28.356 C 16.17,13.349 9.642,-4.197 0,0" /></g><g
           transform="translate(166.9942,215.5226)"
           id="g270"><path
             id="path272"
             style="fill:#ceff00;fill-opacity:1;fill-rule:nonzero;stroke:none"
             d="M 0,0 C 7.425,5.838 66.631,30.557 72.101,22.043 76.819,14.703 37.428,-22.114 21.739,-27.736 13.748,-30.598 -3.715,-2.921 0,0" /></g><g
           transform="translate(164.8772,271.399)"
           id="g274"><path
             id="path276"
             style="fill:#ceff00;fill-opacity:1;fill-rule:nonzero;stroke:none"
             d="M 0,0 C 47.008,-11.05 76.878,-7.295 77.118,-17.478 77.322,-26.143 57.901,-28.323 37.881,-33.794 24.351,-37.491 18.564,-43.826 7.061,-48.528 -6.363,-54.014 -21.428,5.038 0,0" /></g><g
           transform="translate(188.8025,319.8181)"
           id="g278"><path
             id="path280"
             style="fill:#ceff00;fill-opacity:1;fill-rule:nonzero;stroke:none"
             d="m 0,0 c 8.781,-5.415 20.04,-15.146 28.625,-26.307 10.924,-14.202 26.864,-22.6 23.219,-28.231 -6.1,-9.425 -30.207,3.423 -45.061,4.779 -13.594,1.242 -26.871,2.414 -33.045,6.442 -9.737,6.351 2.996,20.972 2.996,20.972 C -23.152,-14.422 -9.839,6.066 0,0" /></g><g
           transform="translate(236.0695,349.7937)"
           id="g282"><path
             id="path284"
             style="fill:#ceff00;fill-opacity:1;fill-rule:nonzero;stroke:none"
             d="m 0,0 c 3.015,-5.155 9.371,-24.886 9.424,-41.068 0.051,-15.635 10.241,-24.445 6.913,-31.236 -0.603,-1.23 -3.619,-3.901 -8.749,-2.838 -5.199,1.077 -11.015,7.41 -16.004,14.896 -11.418,17.13 -36.122,30.63 -37.296,36.797 C -49.288,-4.654 -6.51,11.133 0,0" /></g><g
           transform="translate(242.9371,169.0804)"
           id="g286"><path
             id="path288"
             style="fill:#ceff00;fill-opacity:1;fill-rule:nonzero;stroke:none"
             d="M 0,0 C 2.122,4.014 4.451,16.188 9.444,30.225 15.96,48.542 13.793,59.184 19.07,58.122 25.158,56.898 30.766,47.762 35.182,28.379 38.701,12.933 51.193,1.001 49.944,-3.748 48.504,-9.222 42.2,-9.687 35.286,-13.091 29.804,-15.789 17.614,-14.441 12.162,-15.115 5.626,-15.923 -6.11,-11.559 0,0" /></g><g
           transform="translate(293.9182,171.965)"
           id="g290"><path
             id="path292"
             style="fill:#ceff00;fill-opacity:1;fill-rule:nonzero;stroke:none"
             d="M 0,0 C -0.78,5.183 -10.543,16.74 -12.793,29.948 -15.949,48.474 -27.384,55.483 -25.512,60.412 -22.555,68.199 1.981,51.303 9.34,43.103 19.373,31.923 28.225,28.774 32.541,23.242 33.757,21.683 36.855,18.111 33.077,13.351 30.255,9.794 27.771,8.732 26.967,6.667 24.801,1.097 2.324,-15.443 0,0" /></g><g
           transform="translate(196.8363,187.9715)"
           id="g294"><path
             id="path296"
             style="fill:#ceff00;fill-opacity:1;fill-rule:nonzero;stroke:none"
             d="m 0,0 c 6.081,2.84 13.587,10.668 25.497,18.214 16.706,10.585 18.591,20.689 24.165,21.031 8.804,0.54 2.749,-25.632 -2.165,-35.758 -6.701,-13.806 -4.293,-19.644 -7.879,-25.884 -1.01,-1.758 -2.077,-8.803 -10.079,-6.372 -4.645,1.411 -12.422,6.783 -12.422,6.783 C 9.161,-21.797 -11.387,-5.316 0,0" /></g><g
           transform="translate(458.7783,280.3619)"
           id="g298"><path
             id="path300"
             style="fill:#cbdd1f;fill-opacity:1;fill-rule:nonzero;stroke:none"
             d="m 0,0 c 0,0 -37.377,-54.618 -115.478,-54.618 -69.967,0 -95.839,25.348 -95.839,25.348 l 6.205,-6.092 C -96.222,-144.251 0,0 0,0" /></g></g></g><g
       id="g302"><g
         clip-path="url(#clipPath306)"
         id="g304"><g
           id="g310"><g
             id="g312" /><g
             mask="url(#mask324)"
             id="g336"><g
               id="g338"><path
                 id="path346"
                 style="fill:url(#linearGradient340);stroke:none"
                 d="M 53.646,286.217 C 47.839,214.159 62.989,135.21 99.1,99.1 l 0,0 c 62.213,-62.213 251.587,-62.213 313.8,0 l 0,0 c 35.134,35.134 50.427,110.823 45.879,181.262 l 0,0 c 0,0 -96.223,-144.251 -205.112,-35.362 l 0,0 c -56.455,56.455 -100.689,72.86 -133.052,72.856 l 0,0 C 75.685,317.851 53.646,286.217 53.646,286.217" /></g></g></g></g></g><g
       id="g348"><g
         clip-path="url(#clipPath352)"
         id="g350"><g
           id="g356"><g
             id="g358" /><g
             id="g364"><g
               style="opacity:0.69999701"
               id="g366"
               clip-path="url(#clipPath360)"><g
                 id="g368"
                 transform="translate(256.0103,367.3013)"><path
                   id="path370"
                   style="fill:#ffffff;fill-opacity:1;fill-rule:nonzero;stroke:none"
                   d="m 0,0 c 71.066,0 142.132,17.574 177.279,52.721 2.081,2.081 4.096,4.297 6.054,6.623 -1.961,2.329 -3.979,4.549 -6.064,6.634 -4.131,4.131 -8.775,8.009 -13.84,11.655 -1.708,-2.084 -3.455,-4.033 -5.242,-5.82 C 144.775,58.4 122.841,47.109 94.756,39.16 66.652,31.205 33.886,27 0,27 c -33.886,0 -66.652,4.205 -94.756,12.16 -28.085,7.949 -50.019,19.24 -63.431,32.653 -1.79,1.789 -3.539,3.742 -5.25,5.829 -5.07,-3.648 -9.718,-7.53 -13.852,-11.664 -2.081,-2.081 -4.096,-4.297 -6.054,-6.623 1.961,-2.329 3.979,-4.55 6.064,-6.634 C -142.132,17.574 -71.066,0 0,0" /></g></g></g></g></g></g></g></svg>