<?xml version="1.0" encoding="UTF-8" standalone="no"?>
<svg
   xmlns:dc="http://purl.org/dc/elements/1.1/"
   xmlns:cc="http://creativecommons.org/ns#"
   xmlns:rdf="http://www.w3.org/1999/02/22-rdf-syntax-ns#"
   xmlns:svg="http://www.w3.org/2000/svg"
   xmlns="http://www.w3.org/2000/svg"
   viewBox="0 0 640 640"
   height="640"
   width="640"
   xml:space="preserve"
   version="1.1"
   id="svg2"><metadata
     id="metadata8"><rdf:RDF><cc:Work
         rdf:about=""><dc:format>image/svg+xml</dc:format><dc:type
           rdf:resource="http://purl.org/dc/dcmitype/StillImage" /><dc:title></dc:title></cc:Work></rdf:RDF></metadata><defs
     id="defs6"><clipPath
       id="clipPath16"
       clipPathUnits="userSpaceOnUse"><path
         id="path18"
         d="M 0,512 512,512 512,0 0,0 0,512 Z" /></clipPath><clipPath
       id="clipPath24"
       clipPathUnits="userSpaceOnUse"><path
         id="path26"
         d="m 18.3125,493.738 475.4255,0 0,-475.513 -475.4255,0 0,475.513 z" /></clipPath><clipPath
       id="clipPath28"
       clipPathUnits="userSpaceOnUse"><path
         id="path30"
         d="M 449,63 C 389.3,3.3 122.8,3.3 63.1,63 3.4,122.7 3.4,389.3 63,449 c 59.6,59.7 326.3,59.6 386,0 59.7,-59.6 59.6,-326.3 0,-386" /></clipPath><radialGradient
       id="radialGradient36"
       spreadMethod="pad"
       gradientTransform="matrix(237.73439,0,0,237.73439,256.02499,255.98125)"
       gradientUnits="userSpaceOnUse"
       r="1"
       cy="0"
       cx="0"
       fy="0"
       fx="0"><stop
         id="stop38"
         offset="0"
         style="stop-opacity:1;stop-color:#ffffff" /><stop
         id="stop40"
         offset="0.8587"
         style="stop-opacity:0.14129854;stop-color:#ffffff" /><stop
         id="stop42"
         offset="1"
         style="stop-opacity:0;stop-color:#ffffff" /></radialGradient><mask
       id="mask44"
       height="1"
       width="1"
       y="0"
       x="0"
       maskUnits="userSpaceOnUse"><g
         id="g46"><g
           id="g48"><g
             id="g50"><g
               id="g52"><path
                 id="path54"
                 style="fill:url(#radialGradient36);stroke:none"
                 d="m -32768,32767 65535,0 0,-65535 -65535,0 0,65535 z" /></g></g></g></g></mask><radialGradient
       id="radialGradient56"
       spreadMethod="pad"
       gradientTransform="matrix(237.73439,0,0,237.73439,256.02499,255.98125)"
       gradientUnits="userSpaceOnUse"
       r="1"
       cy="0"
       cx="0"
       fy="0"
       fx="0"><stop
         id="stop58"
         offset="0"
         style="stop-opacity:1;stop-color:#010101" /><stop
         id="stop60"
         offset="0.8587"
         style="stop-opacity:1;stop-color:#010101" /><stop
         id="stop62"
         offset="1"
         style="stop-opacity:1;stop-color:#010101" /></radialGradient><clipPath
       id="clipPath86"
       clipPathUnits="userSpaceOnUse"><path
         id="path88"
         d="m 18.3125,493.738 475.4255,0 0,-475.513 -475.4255,0 0,475.513 z" /></clipPath><clipPath
       id="clipPath90"
       clipPathUnits="userSpaceOnUse"><path
         id="path92"
         d="M 449,63 C 389.3,3.3 122.8,3.3 63.1,63 3.4,122.7 3.4,389.3 63,449 c 59.6,59.7 326.3,59.6 386,0 59.7,-59.6 59.6,-326.3 0,-386" /></clipPath><radialGradient
       id="radialGradient98"
       spreadMethod="pad"
       gradientTransform="matrix(188.26457,188.37109,-130.36569,130.2858,256.02499,256.02499)"
       gradientUnits="userSpaceOnUse"
       r="1"
       cy="0"
       cx="0"
       fy="0"
       fx="0"><stop
         id="stop100"
         offset="0"
         style="stop-opacity:1;stop-color:#ffffff" /><stop
         id="stop102"
         offset="0.8587"
         style="stop-opacity:0.14129854;stop-color:#ffffff" /><stop
         id="stop104"
         offset="1"
         style="stop-opacity:0;stop-color:#ffffff" /></radialGradient><mask
       id="mask106"
       height="1"
       width="1"
       y="0"
       x="0"
       maskUnits="userSpaceOnUse"><g
         id="g108"><g
           id="g110"><g
             id="g112"><g
               id="g114"><path
                 id="path116"
                 style="fill:url(#radialGradient98);stroke:none"
                 d="m -32768,32767 65535,0 0,-65535 -65535,0 0,65535 z" /></g></g></g></g></mask><radialGradient
       id="radialGradient118"
       spreadMethod="pad"
       gradientTransform="matrix(188.26457,188.37109,-130.36569,130.2858,256.02499,256.02499)"
       gradientUnits="userSpaceOnUse"
       r="1"
       cy="0"
       cx="0"
       fy="0"
       fx="0"><stop
         id="stop120"
         offset="0"
         style="stop-opacity:1;stop-color:#010101" /><stop
         id="stop122"
         offset="0.8587"
         style="stop-opacity:1;stop-color:#010101" /><stop
         id="stop124"
         offset="1"
         style="stop-opacity:1;stop-color:#010101" /></radialGradient><clipPath
       id="clipPath148"
       clipPathUnits="userSpaceOnUse"><path
         id="path150"
         d="m 18.2625,493.687 475.4125,0 0,-475.462 -475.4125,0 0,475.462 z" /></clipPath><clipPath
       id="clipPath152"
       clipPathUnits="userSpaceOnUse"><path
         id="path154"
         d="m 63,63 c 59.7,-59.7 326.2,-59.7 385.9,0 59.7,59.7 59.7,326.2 0,385.9 C 389.2,508.6 122.7,508.6 63,449 3.3,389.4 3.4,122.7 63,63" /></clipPath><radialGradient
       id="radialGradient160"
       spreadMethod="pad"
       gradientTransform="matrix(-188.29758,188.40413,130.38853,130.30864,255.92499,255.97502)"
       gradientUnits="userSpaceOnUse"
       r="1"
       cy="0"
       cx="0"
       fy="0"
       fx="0"><stop
         id="stop162"
         offset="0"
         style="stop-opacity:1;stop-color:#ffffff" /><stop
         id="stop164"
         offset="0.8587"
         style="stop-opacity:0.14129854;stop-color:#ffffff" /><stop
         id="stop166"
         offset="1"
         style="stop-opacity:0;stop-color:#ffffff" /></radialGradient><mask
       id="mask168"
       height="1"
       width="1"
       y="0"
       x="0"
       maskUnits="userSpaceOnUse"><g
         id="g170"><g
           id="g172"><g
             id="g174"><g
               id="g176"><path
                 id="path178"
                 style="fill:url(#radialGradient160);stroke:none"
                 d="m -32768,32767 65535,0 0,-65535 -65535,0 0,65535 z" /></g></g></g></g></mask><radialGradient
       id="radialGradient180"
       spreadMethod="pad"
       gradientTransform="matrix(-188.29758,188.40413,130.38853,130.30864,255.92499,255.97502)"
       gradientUnits="userSpaceOnUse"
       r="1"
       cy="0"
       cx="0"
       fy="0"
       fx="0"><stop
         id="stop182"
         offset="0"
         style="stop-opacity:1;stop-color:#010101" /><stop
         id="stop184"
         offset="0.8587"
         style="stop-opacity:1;stop-color:#010101" /><stop
         id="stop186"
         offset="1"
         style="stop-opacity:1;stop-color:#010101" /></radialGradient><linearGradient
       id="linearGradient218"
       spreadMethod="pad"
       gradientTransform="matrix(0,-460.04999,460.04999,0,255.99998,486.02499)"
       gradientUnits="userSpaceOnUse"
       y2="0"
       x2="1"
       y1="0"
       x1="0"><stop
         id="stop220"
         offset="0"
         style="stop-opacity:1;stop-color:#feda48" /><stop
         id="stop222"
         offset="1"
         style="stop-opacity:1;stop-color:#fecd06" /></linearGradient><clipPath
       id="clipPath230"
       clipPathUnits="userSpaceOnUse"><path
         id="path232"
         d="M 0,512 512,512 512,0 0,0 0,512 Z" /></clipPath><clipPath
       id="clipPath238"
       clipPathUnits="userSpaceOnUse"><path
         id="path240"
         d="m 25.9933,258.5 460.0137,0 0,-232.525 -460.0137,0 0,232.525 z" /></clipPath><clipPath
       id="clipPath254"
       clipPathUnits="userSpaceOnUse"><path
         id="path256"
         d="m 25.9933,486.025 460.0137,0 0,-232.525 -460.0137,0 0,232.525 z" /></clipPath><clipPath
       id="clipPath270"
       clipPathUnits="userSpaceOnUse"><path
         id="path272"
         d="m 125.611,379.389 260.778,0 0,-260.778 -260.778,0 0,260.778 z" /></clipPath></defs><g
     transform="matrix(1.25,0,0,-1.25,0,640)"
     id="g10"><g
       id="g12"><g
         clip-path="url(#clipPath16)"
         id="g14"><g
           id="g20"><g
             id="g22" /><g
             id="g64"><g
               style="opacity:0.39999402"
               id="g66"
               clip-path="url(#clipPath24)"><g
                 id="g68"><g
                   id="g70"
                   clip-path="url(#clipPath28)"><g
                     id="g72"><g
                       id="g74" /><g
                       id="g76"
                       mask="url(#mask44)"><g
                         id="g78"><path
                           id="path80"
                           style="fill:url(#radialGradient56);stroke:none"
                           d="M 449,63 C 389.3,3.3 122.8,3.3 63.1,63 3.4,122.7 3.4,389.3 63,449 c 59.6,59.7 326.3,59.6 386,0 59.7,-59.6 59.6,-326.3 0,-386" /></g></g></g></g></g></g></g></g><g
           id="g82"><g
             id="g84" /><g
             id="g126"><g
               style="opacity:0.39999402"
               id="g128"
               clip-path="url(#clipPath86)"><g
                 id="g130"><g
                   id="g132"
                   clip-path="url(#clipPath90)"><g
                     id="g134"><g
                       id="g136" /><g
                       id="g138"
                       mask="url(#mask106)"><g
                         id="g140"><path
                           id="path142"
                           style="fill:url(#radialGradient118);stroke:none"
                           d="M 449,63 C 389.3,3.3 122.8,3.3 63.1,63 3.4,122.7 3.4,389.3 63,449 c 59.6,59.7 326.3,59.6 386,0 59.7,-59.6 59.6,-326.3 0,-386" /></g></g></g></g></g></g></g></g><g
           id="g144"><g
             id="g146" /><g
             id="g188"><g
               style="opacity:0.39999402"
               id="g190"
               clip-path="url(#clipPath148)"><g
                 id="g192"><g
                   id="g194"
                   clip-path="url(#clipPath152)"><g
                     id="g196"><g
                       id="g198" /><g
                       id="g200"
                       mask="url(#mask168)"><g
                         id="g202"><path
                           id="path204"
                           style="fill:url(#radialGradient180);stroke:none"
                           d="m 63,63 c 59.7,-59.7 326.2,-59.7 385.9,0 59.7,59.7 59.7,326.2 0,385.9 C 389.2,508.6 122.7,508.6 63,449 3.3,389.4 3.4,122.7 63,63" /></g></g></g></g></g></g></g></g></g></g><g
       id="g206"><g
         id="g208"><g
           id="g214"><g
             id="g216"><path
               id="path224"
               style="fill:url(#linearGradient218);stroke:none"
               d="M 78.7,433.3 C 8.4,363 8.4,149 78.7,78.7 l 0,0 C 149,8.4 363,8.4 433.3,78.7 l 0,0 c 70.3,70.3 70.3,284.3 0,354.6 l 0,0 C 398.15,468.45 327.075,486.025 256,486.025 l 0,0 c -71.075,0 -142.15,-17.575 -177.3,-52.725" /></g></g></g></g><g
       id="g226"><g
         clip-path="url(#clipPath230)"
         id="g228"><g
           id="g234"><g
             id="g236" /><g
             id="g242"><g
               style="opacity:0.39999402"
               id="g244"
               clip-path="url(#clipPath238)"><g
                 id="g246"
                 transform="translate(433.3,83.7)"><path
                   id="path248"
                   style="fill:#000000;fill-opacity:1;fill-rule:nonzero;stroke:none"
                   d="m 0,0 c -70.3,-70.3 -284.3,-70.3 -354.6,0 -34.7,34.8 -52.3,104.6 -52.7,174.8 C -407.7,102.9 -390.2,30.6 -354.6,-5 -284.3,-75.3 -70.3,-75.3 0,-5 35.6,30.6 53.1,102.9 52.7,174.8 52.3,104.6 34.7,34.8 0,0" /></g></g></g></g><g
           id="g250"><g
             id="g252" /><g
             id="g258"><g
               style="opacity:0.39999402"
               id="g260"
               clip-path="url(#clipPath254)"><g
                 id="g262"
                 transform="translate(433.3,428.3)"><path
                   id="path264"
                   style="fill:#ffffff;fill-opacity:1;fill-rule:nonzero;stroke:none"
                   d="M 0,0 C 34.7,-34.7 52.3,-104.6 52.7,-174.8 53.1,-102.9 35.6,-30.6 0,5 c -70.3,70.3 -284.3,70.3 -354.6,0 -35.5,-35.6 -53.1,-107.9 -52.7,-179.8 0.4,70.2 18,140 52.7,174.8 70.3,70.3 284.3,70.3 354.6,0" /></g></g></g></g><g
           id="g266"><g
             id="g268" /><g
             id="g274"><g
               style="opacity:0.39999402"
               id="g276"
               clip-path="url(#clipPath270)"><g
                 id="g278"
                 transform="translate(386.389,249)"><path
                   id="path280"
                   style="fill:#000000;fill-opacity:1;fill-rule:nonzero;stroke:none"
                   d="m 0,0 c 0,-72.012 -58.377,-130.389 -130.389,-130.389 -72.012,0 -130.389,58.377 -130.389,130.389 0,72.012 58.377,130.389 130.389,130.389 C -58.377,130.389 0,72.012 0,0" /></g></g></g></g><g
           transform="translate(386.389,256)"
           id="g282"><path
             id="path284"
             style="fill:#f7f7f7;fill-opacity:1;fill-rule:nonzero;stroke:none"
             d="m 0,0 c 0,-72.012 -58.377,-130.389 -130.389,-130.389 -72.012,0 -130.389,58.377 -130.389,130.389 0,72.012 58.377,130.389 130.389,130.389 C -58.377,130.389 0,72.012 0,0" /></g><g
           transform="translate(214.311,231.9308)"
           id="g286"><path
             id="path288"
             style="fill:#f8c300;fill-opacity:1;fill-rule:nonzero;stroke:none"
             d="M 0,0 0,48.138 41.689,72.207 83.378,48.138 83.378,0 41.689,-24.069 0,0 Z" /></g><g
           transform="translate(346.1607,300.0312)"
           id="g290"><path
             id="path292"
             style="fill:#d18c3b;fill-opacity:1;fill-rule:nonzero;stroke:none"
             d="M 0,0 -36.104,-20.845 -36.653,-66.793 -0.333,-88.446 0,0 Z" /></g><g
           transform="translate(165.8393,211.9687)"
           id="g294"><path
             id="path296"
             style="fill:#3941bf;fill-opacity:1;fill-rule:nonzero;stroke:none"
             d="M 0,0 36.104,20.845 36.653,66.793 0.333,88.446 0,0 Z" /></g><g
           transform="translate(249.0518,155.9029)"
           id="g298"><path
             id="path300"
             style="fill:#bb3a84;fill-opacity:1;fill-rule:nonzero;stroke:none"
             d="M 0,0 0,41.689 -39.518,65.139 -76.43,44.512 0,0 Z" /></g><g
           transform="translate(339.2126,199.9341)"
           id="g302"><path
             id="path304"
             style="fill:#a02c35;fill-opacity:1;fill-rule:nonzero;stroke:none"
             d="M 0,0 -36.104,20.845 -76.171,-1.654 -76.763,-43.934 0,0 Z" /></g><g
           transform="translate(172.7874,312.0659)"
           id="g306"><path
             id="path308"
             style="fill:#3895bd;fill-opacity:1;fill-rule:nonzero;stroke:none"
             d="M 0,0 36.104,-20.845 76.171,1.654 76.763,43.934 0,0 Z" /></g><g
           transform="translate(262.9482,356.0971)"
           id="g310"><path
             id="path312"
             style="fill:#8fb635;fill-opacity:1;fill-rule:nonzero;stroke:none"
             d="M 0,0 0,-41.689 39.518,-65.139 76.43,-44.512 0,0 Z" /></g></g></g></g></svg>