<?xml version="1.0" encoding="utf-8"?>
<!-- Generator: Adobe Illustrator 18.0.0, SVG Export Plug-In . SVG Version: 6.00 Build 0)  -->
<!DOCTYPE svg PUBLIC "-//W3C//DTD SVG 1.1//EN" "http://www.w3.org/Graphics/SVG/1.1/DTD/svg11.dtd">
<svg version="1.1" id="Layer_3" xmlns="http://www.w3.org/2000/svg" xmlns:xlink="http://www.w3.org/1999/xlink" x="0px" y="0px"
	 viewBox="0 0 512 512" enable-background="new 0 0 512 512" xml:space="preserve">
<g>
	<g opacity="0.4" enable-background="new    ">
		
			<radialGradient id="SVGID_1_" cx="1.0125" cy="515" r="118.8609" gradientTransform="matrix(2 0 0 -2 254 1286)" gradientUnits="userSpaceOnUse">
			<stop  offset="0" style="stop-color:#010101"/>
			<stop  offset="0.8587" style="stop-color:#010101;stop-opacity:0.1413"/>
			<stop  offset="1" style="stop-color:#010101;stop-opacity:0"/>
		</radialGradient>
		<path fill="url(#SVGID_1_)" d="M449,449c-59.7,59.7-326.2,59.7-385.9,0S3.4,122.7,63,63s326.3-59.6,386,0S508.6,389.3,449,449z"/>
	</g>
	<g opacity="0.4" enable-background="new    ">
		
			<radialGradient id="SVGID_2_" cx="2.0286" cy="516.0684" r="133.1551" gradientTransform="matrix(1.4138 -1.4146 -0.979 -0.9784 758.388 763.7472)" gradientUnits="userSpaceOnUse">
			<stop  offset="0" style="stop-color:#010101"/>
			<stop  offset="0.8587" style="stop-color:#010101;stop-opacity:0.1413"/>
			<stop  offset="1" style="stop-color:#010101;stop-opacity:0"/>
		</radialGradient>
		<path fill="url(#SVGID_2_)" d="M449,449c-59.7,59.7-326.2,59.7-385.9,0S3.4,122.7,63,63s326.3-59.6,386,0S508.6,389.3,449,449z"/>
	</g>
	<g opacity="0.4" enable-background="new    ">
		
			<radialGradient id="SVGID_3_" cx="3.4424" cy="513.9732" r="133.1784" gradientTransform="matrix(-1.4138 -1.4146 0.979 -0.9784 -242.3879 763.7472)" gradientUnits="userSpaceOnUse">
			<stop  offset="0" style="stop-color:#010101"/>
			<stop  offset="0.8587" style="stop-color:#010101;stop-opacity:0.1413"/>
			<stop  offset="1" style="stop-color:#010101;stop-opacity:0"/>
		</radialGradient>
		<path fill="url(#SVGID_3_)" d="M63,449c59.7,59.7,326.2,59.7,385.9,0s59.7-326.2,0-385.9S122.7,3.4,63,63S3.4,389.3,63,449z"/>
	</g>
</g>
<radialGradient id="SVGID_4_" cx="267.9994" cy="116.507" r="334.5737" gradientUnits="userSpaceOnUse">
	<stop  offset="0" style="stop-color:#69FC01"/>
	<stop  offset="1" style="stop-color:#36DD00"/>
</radialGradient>
<path fill="url(#SVGID_4_)" d="M433.3,433.3c-70.3,70.3-284.3,70.3-354.6,0S8.4,149,78.7,78.7s284.3-70.3,354.6,0
	S503.6,363,433.3,433.3z"/>
<path opacity="0.4" d="M256,163.5c-53.9,0-97.5,43.7-97.5,97.5c0,30.7,14.2,58,36.3,75.9l-12.5,21.6H256c53.9,0,97.5-43.7,97.5-97.5
	S309.9,163.5,256,163.5z M216.4,285.5h-22.8c-2.1,0-3.8-1.7-3.8-3.8v-40c0-2.9,2.3-5.2,5.2-5.2c2.1,0,3.8,1.7,3.8,3.8v36.2
	c0,0.8,0.7,1.5,1.5,1.5h16.2c2.1,0,3.8,1.7,3.8,3.8S218.5,285.5,216.4,285.5z M233.8,281c0,2.5-2,4.5-4.5,4.5h0
	c-2.5,0-4.5-2-4.5-4.5v-40c0-2.5,2-4.5,4.5-4.5h0c2.5,0,4.5,2,4.5,4.5V281z M282.7,281.2c0,2.4-1.9,4.3-4.3,4.3h-1.9
	c-1.4,0-2.8-0.7-3.6-1.9l-15-22.2c-1.9-2.8-3.6-5.4-5.1-7.8c-0.5-0.9-1.9-0.5-1.8,0.5c0.1,3.1,0.1,6.4,0.1,10.3v16.8
	c0,2.4-1.9,4.3-4.3,4.3h0c-2.4,0-4.3-1.9-4.3-4.3v-39.6c0-2.8,2.3-5,5-5c2.5,0,4.8,1.2,6.1,3.2l14.2,20.8c1.6,2.3,3.1,4.6,4.4,6.8
	c0.5,0.9,1.9,0.5,1.8-0.6c-0.1-3.1-0.1-6.2-0.1-9.6v-16.4c0-2.4,1.9-4.3,4.3-4.3s4.3,1.9,4.3,4.3V281.2z M322.2,281.8
	c0,2.1-1.7,3.7-3.7,3.7h-23.2c-2.1,0-3.7-1.7-3.7-3.7v-41.5c0-2.1,1.7-3.7,3.7-3.7h22.1c2.1,0,3.7,1.7,3.7,3.7v0.1
	c0,2.1-1.7,3.7-3.7,3.7h-15.9c-0.6,0-1,0.4-1,1v10.2c0,0.6,0.4,1,1,1h14.7c2.1,0,3.7,1.7,3.7,3.7c0,2.1-1.7,3.7-3.7,3.7h-14.7
	c-0.6,0-1,0.4-1,1V277c0,0.6,0.4,1,1,1h17C320.5,278,322.2,279.6,322.2,281.8L322.2,281.8z"/>
<path fill="#FFFFFF" d="M256,158.5c-53.9,0-97.5,43.7-97.5,97.5c0,30.7,14.2,58,36.3,75.9l-12.5,21.6H256
	c53.9,0,97.5-43.7,97.5-97.5S309.9,158.5,256,158.5z M216.4,280.5h-22.8c-2.1,0-3.8-1.7-3.8-3.8v-40c0-2.9,2.3-5.2,5.2-5.2
	c2.1,0,3.8,1.7,3.8,3.8v36.2c0,0.8,0.7,1.5,1.5,1.5h16.2c2.1,0,3.8,1.7,3.8,3.8S218.5,280.5,216.4,280.5z M233.8,276
	c0,2.5-2,4.5-4.5,4.5h0c-2.5,0-4.5-2-4.5-4.5v-40c0-2.5,2-4.5,4.5-4.5h0c2.5,0,4.5,2,4.5,4.5V276z M282.7,276.2
	c0,2.4-1.9,4.3-4.3,4.3h-1.9c-1.4,0-2.8-0.7-3.6-1.9l-15-22.2c-1.9-2.8-3.6-5.4-5.1-7.8c-0.5-0.9-1.9-0.5-1.8,0.5
	c0.1,3.1,0.1,6.4,0.1,10.3v16.8c0,2.4-1.9,4.3-4.3,4.3h0c-2.4,0-4.3-1.9-4.3-4.3v-39.6c0-2.8,2.3-5,5-5c2.5,0,4.8,1.2,6.1,3.2
	l14.2,20.8c1.6,2.3,3.1,4.6,4.4,6.8c0.5,0.9,1.9,0.5,1.8-0.6c-0.1-3.1-0.1-6.2-0.1-9.6v-16.4c0-2.4,1.9-4.3,4.3-4.3s4.3,1.9,4.3,4.3
	V276.2z M322.2,276.8c0,2.1-1.7,3.7-3.7,3.7h-23.2c-2.1,0-3.7-1.7-3.7-3.7v-41.5c0-2.1,1.7-3.7,3.7-3.7h22.1c2.1,0,3.7,1.7,3.7,3.7
	v0.1c0,2.1-1.7,3.7-3.7,3.7h-15.9c-0.6,0-1,0.4-1,1v10.2c0,0.6,0.4,1,1,1h14.7c2.1,0,3.7,1.7,3.7,3.7c0,2.1-1.7,3.7-3.7,3.7h-14.7
	c-0.6,0-1,0.4-1,1V272c0,0.6,0.4,1,1,1h17C320.5,273,322.2,274.6,322.2,276.8L322.2,276.8z"/>
<g>
	<path opacity="0.4" d="M433.3,428.3c-70.3,70.3-284.3,70.3-354.6,0C44,393.5,26.4,323.7,26,253.5c-0.4,71.9,17.1,144.2,52.7,179.8
		c70.3,70.3,284.3,70.3,354.6,0c35.6-35.6,53.1-107.9,52.7-179.8C485.6,323.7,468,393.5,433.3,428.3z"/>
	<path opacity="0.4" fill="#FFFFFF" d="M433.3,83.7c34.7,34.7,52.3,104.6,52.7,174.8c0.4-71.9-17.1-144.2-52.7-179.8
		C363,8.4,149,8.4,78.7,78.7C43.2,114.3,25.6,186.6,26,258.5c0.4-70.2,18-140,52.7-174.8C149,13.4,363,13.4,433.3,83.7z"/>
	
		<radialGradient id="SVGID_5_" cx="257" cy="436" r="384.0208" gradientTransform="matrix(1 0 0 -1 0 514)" gradientUnits="userSpaceOnUse">
		<stop  offset="0" style="stop-color:#FFFFFF;stop-opacity:0"/>
		<stop  offset="0.8587" style="stop-color:#FFFFFF;stop-opacity:4.293300e-02"/>
		<stop  offset="1" style="stop-color:#FFFFFF;stop-opacity:5.000000e-02"/>
	</radialGradient>
	<path display="none" fill="url(#SVGID_5_)" d="M433.3,433.3c34.7-34.7,52.3-104.6,52.7-174.8c-0.4-70.2-18-140-52.7-174.8
		C363,13.4,149,13.4,78.7,83.7C44,118.5,26.4,188.3,26,258.5c0.4,70.2,18,140,52.7,174.8C149,503.6,363,503.6,433.3,433.3z"/>
</g>
</svg>
