<?xml version="1.0" encoding="utf-8"?>
<!-- Generator: Adobe Illustrator 18.0.0, SVG Export Plug-In . SVG Version: 6.00 Build 0)  -->
<!DOCTYPE svg PUBLIC "-//W3C//DTD SVG 1.1//EN" "http://www.w3.org/Graphics/SVG/1.1/DTD/svg11.dtd">
<svg version="1.1" id="Layer_2" xmlns="http://www.w3.org/2000/svg" xmlns:xlink="http://www.w3.org/1999/xlink" x="0px" y="0px"
	 viewBox="0 0 512 512" style="enable-background:new 0 0 512 512;" xml:space="preserve">
<g>
	<g>
		<g style="opacity:0.4;enable-background:new    ;">
			
				<radialGradient id="SVGID_1_" cx="0.7625" cy="514.25" r="118.8609" gradientTransform="matrix(2 0 0 -2 254.5 1284.5)" gradientUnits="userSpaceOnUse">
				<stop  offset="0" style="stop-color:#010101"/>
				<stop  offset="0.8587" style="stop-color:#010101;stop-opacity:0.1413"/>
				<stop  offset="1" style="stop-color:#010101;stop-opacity:0"/>
			</radialGradient>
			<path style="fill:url(#SVGID_1_);" d="M449,449c-59.7,59.7-326.2,59.7-385.9,0S3.4,122.7,63,63s326.3-59.6,386,0
				S508.6,389.3,449,449z"/>
		</g>
		<g style="opacity:0.4;enable-background:new    ;">
			
				<radialGradient id="SVGID_2_" cx="1.5285" cy="515.0576" r="133.1551" gradientTransform="matrix(1.4138 -1.4146 -0.979 -0.9784 758.1053 762.0507)" gradientUnits="userSpaceOnUse">
				<stop  offset="0" style="stop-color:#010101"/>
				<stop  offset="0.8587" style="stop-color:#010101;stop-opacity:0.1413"/>
				<stop  offset="1" style="stop-color:#010101;stop-opacity:0"/>
			</radialGradient>
			<path style="fill:url(#SVGID_2_);" d="M449,449c-59.7,59.7-326.2,59.7-385.9,0S3.4,122.7,63,63s326.3-59.6,386,0
				S508.6,389.3,449,449z"/>
		</g>
		<g style="opacity:0.4;enable-background:new    ;">
			
				<radialGradient id="SVGID_3_" cx="2.5888" cy="513.4733" r="133.1784" gradientTransform="matrix(-1.4138 -1.4146 0.979 -0.9784 -243.1053 762.0507)" gradientUnits="userSpaceOnUse">
				<stop  offset="0" style="stop-color:#010101"/>
				<stop  offset="0.8587" style="stop-color:#010101;stop-opacity:0.1413"/>
				<stop  offset="1" style="stop-color:#010101;stop-opacity:0"/>
			</radialGradient>
			<path style="fill:url(#SVGID_3_);" d="M63,449c59.7,59.7,326.2,59.7,385.9,0s59.7-326.2,0-385.9S122.7,3.4,63,63
				S3.4,389.3,63,449z"/>
		</g>
	</g>
	<radialGradient id="SVGID_4_" cx="256.0002" cy="256" r="229.9996" gradientUnits="userSpaceOnUse">
		<stop  offset="0" style="stop-color:#EEEEEE"/>
		<stop  offset="1" style="stop-color:#CFCFCF"/>
	</radialGradient>
	<path style="fill:url(#SVGID_4_);" d="M433.3,433.3c-70.3,70.3-284.3,70.3-354.6,0S8.4,149,78.7,78.7s284.3-70.3,354.6,0
		S503.6,363,433.3,433.3z"/>
</g>
<g id="Layer_2_1_">
	<g>
		<g>
			<g style="opacity:0.6;">
				<radialGradient id="SVGID_5_" cx="347.7293" cy="227.7525" r="164.2065" gradientUnits="userSpaceOnUse">
					<stop  offset="0" style="stop-color:#3FE1FF"/>
					<stop  offset="1" style="stop-color:#2AB4FF"/>
				</radialGradient>
				<path style="fill:url(#SVGID_5_);" d="M433.3,78.7c-8.1-8.1-18.1-15.2-29.5-21.4c-6.4,9.5-23.8,17.1-28.8,26.4
					c-18.7,34.7-60.1,29.8-64.7,54c-0.6,3.3-0.8,7.8-4.2,7.3c-9.1-1.2,30.8-28-20.6-32c-8.6-0.7-27.6,13.9-30.6,22
					c-1.5,4.1-9.6,22.4-8.7,26.7c1.2,5.6,25.9,5.9,22.2,12.2c-0.8,1.4-2,2.6-3.3,3.5c-5.1,3.4-11.3,3.3-16.9,5.1
					c-13.5,4.3-21.2,18.4-28.2,30.2c-1.3,2.2-1.8,4.8-1.2,7.3c1.8,7.7,13.3,10.5,17.7,5.2c27-33.4,20.6,0.8,36.4-3.4
					c7.4-2,7.2,4.7,14.7,7.3c3.6,1.3,10.3-4.7,12-1.3c4.2,8.4,13,6.7,5.5,9.2c-5.9,1.9-12.5-0.8-18.5,0.8
					c-20.3,5.4-37.4-10.2-52.9-4.6c-15.6,5.7-33.3,27.7-36,44c-0.7,4.3,7,18.6,8.7,22.7c3.3,8.2,19.6,4.6,28,7.3
					c8.4,2.8,10,2.4,17,7.9c11.8,9.2,14.2,25.8,14.6,40.7c0.4,14.9,0.1,31,8.6,43.3c1.3,1.8,2.8,3.6,4.7,4.7
					c4.9,2.8,11.2,0.9,16.1-2.2c12.9-8.1,25-35.7,38.3-46.4c11.9-9.5-3.4-20.1,5.9-32.2c7.2-9.4,17.6-17.5,19.3-29.2
					c-4.4-1.2-8.7-3-12.6-5.3c-1.6,0.6-3,1-3.9,0.6c-6.1-2.5-9.5-8.2-11.7-14.2c-7.1-8.9-11.6-19.9-12.1-31.3
					c6.7,0,7.4,15.1,9.1,21.5c0.8,3,1.7,6.4,3,9.8c4.3,5.4,9.7,10.1,15.6,13.6c2.9-1.2,6.3-3.2,8.1-3.4c8.7-0.6,13.4-10.7,20.1-15.8
					c0.5-0.4,1.1-0.9,1.5-1.4c2.5-3.3-9.1-3.4-11.6-5.5c-8.9-7.4-10.1-12.6-20-18.7c14.4-6.7,6.4,6.2,21.1,12.3
					c3.5,1.4,22.2-1.1,29.6,5.7c7.3,6.7,10.3,7,11.3,14.7c1.4,9.9,9.1,17,14.7,25.3c6.7-4.8,8.7-13.3,12-20.9
					c3.3-7.7,6.4-17.9,14.8-18.7c7-0.7,10.4,13.3,11.8,20.2c1.4,6.9,10-2.7,10,14c0,5.5,3.2,8.4,6.7,12.7c2.3,2.8,1.1,7.3,4.5,8.3
					c0.2,0.1,0.4,0.1,0.6,0.1c0.6-3.8,1.1-7.6,1.6-11.5c-6.5-4.1-13.9-3.4-11.5-16l7.8-1.3c-1.1,3.2,1.6,5.8,4.9,6.6
					C491.9,212.4,474.9,120.4,433.3,78.7z"/>
				<radialGradient id="SVGID_6_" cx="174.4711" cy="85.819" r="57.434" gradientUnits="userSpaceOnUse">
					<stop  offset="0" style="stop-color:#3FE1FF"/>
					<stop  offset="1" style="stop-color:#2AB4FF"/>
				</radialGradient>
				<path style="fill:url(#SVGID_6_);" d="M127.7,63.2c-0.2,3.5,2,6.7,3.8,9.8c7.9,13.3,10.2,29.8,6.3,44.8c-1.2,4.5-2.9,9-3,13.7
					c0,5.6,2.5,10.9,4.9,16c0.6,1.3,1.3,2.7,2.4,3.6c3.6,2.9,8.9-0.5,12-4c8.9-10,16.7-22.6,29.6-26.3c2.6-0.7,5.4-1.1,7.4-3
					c1.4-1.4,2.1-3.3,2.7-5.2c4.2-13.5,4.4-28.2,10-41.2c2.4-5.6,0.4-17.2,6.5-16.9c24.3,1,1.2-11.2-4.5-17.8
					c-1.9-2.1-3.4-4.6-5-7.1c-23.5,3.1-45.8,8.3-65.6,15.6c-0.8,2.7-1.5,5.5-2.8,8C130.6,56.5,127.9,59.5,127.7,63.2z"/>
				<radialGradient id="SVGID_7_" cx="81.5318" cy="291.4156" r="126.1271" gradientUnits="userSpaceOnUse">
					<stop  offset="0" style="stop-color:#3FE1FF"/>
					<stop  offset="1" style="stop-color:#2AB4FF"/>
				</radialGradient>
				<path style="fill:url(#SVGID_7_);" d="M127.7,382.3c3.5-5.3,20.6-7.9,22.6-13.9c1.6-4.9,2.2-10.2,2.7-15.3
					c0.7-6.4,6.7-5.8,7.4-12.1c0.3-2.9-7-10.2-8.7-12.7c-1.5-2.1-13.6-3.8-16-4.7c-15-5.6-17.3-16-29.5-26.4c-2.7-2.3-5.3-4.7-8.6-6
					c-2.8-1.1-5.8-1.2-8.8-1.3c-9-0.4-21.4,6-30.4,5.6c-4.6-0.2-7.6-5.8-7.9-1.1C31,283,40.6,274.1,33.7,267c-0.8-0.8-5,3.2-7.4,4.8
					c0.2,5.9,0.5,11.7,1,17.5c2.9,2.3,6,4.5,9.3,6.3c5.6,3.1,11.8,5.1,17,8.9c5.2,3.8,0.1,4.9-1.2,11.1c-1,4.7-3.7,6.9-5.3,11.3
					c-2.5,6.8,8.5,21.2,13,27c4.5,5.7,10.5,10.1,15.4,15.4c1.7,1.8,3.4,3.9,4.1,6.3c0.6,2.1,0.4,4.3,0.3,6.5
					c-1.3,16.1-2.5,32.1-3.8,48.2c0.9,1,1.8,2,2.8,2.9c3.6,3.6,7.5,6.9,11.7,10.1c0.9-5,1.9-10,5.2-13.1
					C111.4,415.9,115.9,400.1,127.7,382.3z"/>
				<radialGradient id="SVGID_8_" cx="81.5318" cy="291.4156" r="126.1271" gradientUnits="userSpaceOnUse">
					<stop  offset="0" style="stop-color:#3FE1FF"/>
					<stop  offset="1" style="stop-color:#2AB4FF"/>
				</radialGradient>
				<path style="fill:url(#SVGID_8_);" d="M26.1,262.9c1.4-3.6,3-7.3,6-9.8c3-2.6,7.9-3.4,10.9-0.7c3,2.8,3.9,8.7,8,8.6
					c6-4.6,4.6-14,7.7-20.9c1.7-3.8,4.8-6.8,7.9-9.6c8.5-7.7,10.1-20.2,19.9-26c11.2-6.7,32.3-8.7,33.2-21.7
					c0.4-5.8-2-11.5-4.3-16.8c-4.7-10.7-8.2-6.8-12.9-17.5c-7.1,0.6-15.2-12.3-21.9-9.7c-2.2,0.9-4.5,1.9-6.1,3.8
					c-1.4,1.7,2.8,18.4,1.9,20.5c-3.4,8.6-8,20-26.8-3.8c-3.6-4.6-5.2-10.3-7.1-15.7C30.8,178.7,25.4,221,26.1,262.9z"/>
			</g>
			<path style="fill:#FFFFFF;" d="M348.2,270l57.3-13.4l-57.1-13.3c-5.5-41.1-37.7-73.8-78.6-80.1l-13.2-56.7L243.4,163
				c-41.4,5.4-74.4,38-80.4,79.2l-56.5,13.2l56.4,13.2c5.6,41.1,38.1,73.9,79.1,79.9l13.3,57.1l13.3-57
				C309.5,342.8,342,310.7,348.2,270z M255.7,341.1c-47,0-85.3-38.3-85.3-85.3s38.3-85.3,85.3-85.3s85.3,38.3,85.3,85.3
				S302.7,341.1,255.7,341.1z"/>
			<g>
				<polygon style="fill:#E9E9E9;" points="347.6,373.8 268.3,246.6 243.7,265.8 				"/>
				<polygon style="fill:#EC1E26;" points="164.4,138.2 243.7,265.4 268.3,246.2 				"/>
				<circle style="fill:#EC1E26;" cx="256" cy="256" r="15.7"/>
			</g>
		</g>
	</g>
</g>
</svg>
