<?xml version="1.0" encoding="UTF-8" standalone="no"?>
<svg
   xmlns:dc="http://purl.org/dc/elements/1.1/"
   xmlns:cc="http://creativecommons.org/ns#"
   xmlns:rdf="http://www.w3.org/1999/02/22-rdf-syntax-ns#"
   xmlns:svg="http://www.w3.org/2000/svg"
   xmlns="http://www.w3.org/2000/svg"
   viewBox="0 0 640 640"
   height="640"
   width="640"
   xml:space="preserve"
   version="1.1"
   id="svg2"><metadata
     id="metadata8"><rdf:RDF><cc:Work
         rdf:about=""><dc:format>image/svg+xml</dc:format><dc:type
           rdf:resource="http://purl.org/dc/dcmitype/StillImage" /></cc:Work></rdf:RDF></metadata><defs
     id="defs6"><clipPath
       id="clipPath16"
       clipPathUnits="userSpaceOnUse"><path
         id="path18"
         d="M 0,512 512,512 512,0 0,0 0,512 Z" /></clipPath><clipPath
       id="clipPath24"
       clipPathUnits="userSpaceOnUse"><path
         id="path26"
         d="m 18.325,493.744 475.4,0 0,-475.4877 -475.4,0 0,475.4877 z" /></clipPath><clipPath
       id="clipPath28"
       clipPathUnits="userSpaceOnUse"><path
         id="path30"
         d="M 448.99,63.029 C 389.293,3.332 122.807,3.332 63.11,63.029 3.413,122.726 3.413,389.312 63.01,449.009 c 59.597,59.696 326.283,59.596 385.98,0 59.697,-59.597 59.597,-326.283 0,-385.98" /></clipPath><radialGradient
       id="radialGradient36"
       spreadMethod="pad"
       gradientTransform="matrix(237.72188,0,0,237.72188,256.02499,256)"
       gradientUnits="userSpaceOnUse"
       r="1"
       cy="0"
       cx="0"
       fy="0"
       fx="0"><stop
         id="stop38"
         offset="0"
         style="stop-opacity:1;stop-color:#ffffff" /><stop
         id="stop40"
         offset="0.8587"
         style="stop-opacity:0.14129854;stop-color:#ffffff" /><stop
         id="stop42"
         offset="1"
         style="stop-opacity:0;stop-color:#ffffff" /></radialGradient><mask
       id="mask44"
       height="1"
       width="1"
       y="0"
       x="0"
       maskUnits="userSpaceOnUse"><g
         id="g46"><g
           id="g48"><g
             id="g50"><g
               id="g52"><path
                 id="path54"
                 style="fill:url(#radialGradient36);stroke:none"
                 d="m -32768,32767 65535,0 0,-65535 -65535,0 0,65535 z" /></g></g></g></g></mask><radialGradient
       id="radialGradient56"
       spreadMethod="pad"
       gradientTransform="matrix(237.72188,0,0,237.72188,256.02499,256)"
       gradientUnits="userSpaceOnUse"
       r="1"
       cy="0"
       cx="0"
       fy="0"
       fx="0"><stop
         id="stop58"
         offset="0"
         style="stop-opacity:1;stop-color:#010101" /><stop
         id="stop60"
         offset="0.8587"
         style="stop-opacity:1;stop-color:#010101" /><stop
         id="stop62"
         offset="1"
         style="stop-opacity:1;stop-color:#010101" /></radialGradient><clipPath
       id="clipPath86"
       clipPathUnits="userSpaceOnUse"><path
         id="path88"
         d="m 18.325,493.744 475.4,0 0,-475.4877 -475.4,0 0,475.4877 z" /></clipPath><clipPath
       id="clipPath90"
       clipPathUnits="userSpaceOnUse"><path
         id="path92"
         d="M 448.99,63.029 C 389.293,3.332 122.807,3.332 63.11,63.029 3.413,122.726 3.413,389.312 63.01,449.009 c 59.597,59.696 326.283,59.596 385.98,0 59.697,-59.597 59.597,-326.283 0,-385.98" /></clipPath><radialGradient
       id="radialGradient98"
       spreadMethod="pad"
       gradientTransform="matrix(188.25467,188.36119,-130.35883,130.27895,256.02499,256.04376)"
       gradientUnits="userSpaceOnUse"
       r="1"
       cy="0"
       cx="0"
       fy="0"
       fx="0"><stop
         id="stop100"
         offset="0"
         style="stop-opacity:1;stop-color:#ffffff" /><stop
         id="stop102"
         offset="0.8587"
         style="stop-opacity:0.14129854;stop-color:#ffffff" /><stop
         id="stop104"
         offset="1"
         style="stop-opacity:0;stop-color:#ffffff" /></radialGradient><mask
       id="mask106"
       height="1"
       width="1"
       y="0"
       x="0"
       maskUnits="userSpaceOnUse"><g
         id="g108"><g
           id="g110"><g
             id="g112"><g
               id="g114"><path
                 id="path116"
                 style="fill:url(#radialGradient98);stroke:none"
                 d="m -32768,32767 65535,0 0,-65535 -65535,0 0,65535 z" /></g></g></g></g></mask><radialGradient
       id="radialGradient118"
       spreadMethod="pad"
       gradientTransform="matrix(188.25467,188.36119,-130.35883,130.27895,256.02499,256.04376)"
       gradientUnits="userSpaceOnUse"
       r="1"
       cy="0"
       cx="0"
       fy="0"
       fx="0"><stop
         id="stop120"
         offset="0"
         style="stop-opacity:1;stop-color:#010101" /><stop
         id="stop122"
         offset="0.8587"
         style="stop-opacity:1;stop-color:#010101" /><stop
         id="stop124"
         offset="1"
         style="stop-opacity:1;stop-color:#010101" /></radialGradient><clipPath
       id="clipPath148"
       clipPathUnits="userSpaceOnUse"><path
         id="path150"
         d="m 18.275,493.694 475.387,0 0,-475.4377 -475.387,0 0,475.4377 z" /></clipPath><clipPath
       id="clipPath152"
       clipPathUnits="userSpaceOnUse"><path
         id="path154"
         d="m 63.01,63.029 c 59.697,-59.697 326.183,-59.697 385.88,0 59.697,59.697 59.697,326.183 0,385.88 -59.697,59.696 -326.183,59.696 -385.88,0.1 -59.697,-59.597 -59.597,-326.283 0,-385.98" /></clipPath><radialGradient
       id="radialGradient160"
       spreadMethod="pad"
       gradientTransform="matrix(-188.28767,188.39421,130.38168,130.30179,255.92499,255.99377)"
       gradientUnits="userSpaceOnUse"
       r="1"
       cy="0"
       cx="0"
       fy="0"
       fx="0"><stop
         id="stop162"
         offset="0"
         style="stop-opacity:1;stop-color:#ffffff" /><stop
         id="stop164"
         offset="0.8587"
         style="stop-opacity:0.14129854;stop-color:#ffffff" /><stop
         id="stop166"
         offset="1"
         style="stop-opacity:0;stop-color:#ffffff" /></radialGradient><mask
       id="mask168"
       height="1"
       width="1"
       y="0"
       x="0"
       maskUnits="userSpaceOnUse"><g
         id="g170"><g
           id="g172"><g
             id="g174"><g
               id="g176"><path
                 id="path178"
                 style="fill:url(#radialGradient160);stroke:none"
                 d="m -32768,32767 65535,0 0,-65535 -65535,0 0,65535 z" /></g></g></g></g></mask><radialGradient
       id="radialGradient180"
       spreadMethod="pad"
       gradientTransform="matrix(-188.28767,188.39421,130.38168,130.30179,255.92499,255.99377)"
       gradientUnits="userSpaceOnUse"
       r="1"
       cy="0"
       cx="0"
       fy="0"
       fx="0"><stop
         id="stop182"
         offset="0"
         style="stop-opacity:1;stop-color:#010101" /><stop
         id="stop184"
         offset="0.8587"
         style="stop-opacity:1;stop-color:#010101" /><stop
         id="stop186"
         offset="1"
         style="stop-opacity:1;stop-color:#010101" /></radialGradient><linearGradient
       id="linearGradient218"
       spreadMethod="pad"
       gradientTransform="matrix(460,0,0,-460,27,256)"
       gradientUnits="userSpaceOnUse"
       y2="0"
       x2="1"
       y1="0"
       x1="0"><stop
         id="stop220"
         offset="0"
         style="stop-opacity:1;stop-color:#1ed2fc" /><stop
         id="stop222"
         offset="1"
         style="stop-opacity:1;stop-color:#2066f1" /></linearGradient><clipPath
       id="clipPath230"
       clipPathUnits="userSpaceOnUse"><path
         id="path232"
         d="M 0,512 512,512 512,0 0,0 0,512 Z" /></clipPath><radialGradient
       id="radialGradient282"
       spreadMethod="pad"
       gradientTransform="matrix(170.5808,0,0,-170.5808,353.92603,354.02002)"
       gradientUnits="userSpaceOnUse"
       r="1"
       cy="0"
       cx="0"
       fy="0"
       fx="0"><stop
         id="stop284"
         offset="0"
         style="stop-opacity:1;stop-color:#ffffff" /><stop
         id="stop286"
         offset="1"
         style="stop-opacity:1;stop-color:#d7d7d7" /></radialGradient><linearGradient
       id="linearGradient302"
       spreadMethod="pad"
       gradientTransform="matrix(43.191101,-43.191101,-43.191101,-43.191101,299.69885,320.23566)"
       gradientUnits="userSpaceOnUse"
       y2="0"
       x2="1"
       y1="0"
       x1="0"><stop
         id="stop304"
         offset="0"
         style="stop-opacity:1;stop-color:#e5e5e5" /><stop
         id="stop306"
         offset="1"
         style="stop-opacity:1;stop-color:#a3a3a3" /></linearGradient><clipPath
       id="clipPath314"
       clipPathUnits="userSpaceOnUse"><path
         id="path316"
         d="M 0,512 512,512 512,0 0,0 0,512 Z" /></clipPath><linearGradient
       id="linearGradient334"
       spreadMethod="pad"
       gradientTransform="matrix(29.960144,-38.818542,-38.818542,-29.960144,217.35283,233.07816)"
       gradientUnits="userSpaceOnUse"
       y2="0"
       x2="1"
       y1="0"
       x1="0"><stop
         id="stop336"
         offset="0"
         style="stop-opacity:1;stop-color:#373737" /><stop
         id="stop338"
         offset="1"
         style="stop-opacity:1;stop-color:#919191" /></linearGradient></defs><g
     transform="matrix(1.25,0,0,-1.25,0,640)"
     id="g10"><g
       id="g12"><g
         clip-path="url(#clipPath16)"
         id="g14"><g
           id="g20"><g
             id="g22" /><g
             id="g64"><g
               style="opacity:0.39999402"
               id="g66"
               clip-path="url(#clipPath24)"><g
                 id="g68"><g
                   id="g70"
                   clip-path="url(#clipPath28)"><g
                     id="g72"><g
                       id="g74" /><g
                       id="g76"
                       mask="url(#mask44)"><g
                         id="g78"><path
                           id="path80"
                           style="fill:url(#radialGradient56);stroke:none"
                           d="M 448.99,63.029 C 389.293,3.332 122.807,3.332 63.11,63.029 3.413,122.726 3.413,389.312 63.01,449.009 c 59.597,59.696 326.283,59.596 385.98,0 59.697,-59.597 59.597,-326.283 0,-385.98" /></g></g></g></g></g></g></g></g><g
           id="g82"><g
             id="g84" /><g
             id="g126"><g
               style="opacity:0.39999402"
               id="g128"
               clip-path="url(#clipPath86)"><g
                 id="g130"><g
                   id="g132"
                   clip-path="url(#clipPath90)"><g
                     id="g134"><g
                       id="g136" /><g
                       id="g138"
                       mask="url(#mask106)"><g
                         id="g140"><path
                           id="path142"
                           style="fill:url(#radialGradient118);stroke:none"
                           d="M 448.99,63.029 C 389.293,3.332 122.807,3.332 63.11,63.029 3.413,122.726 3.413,389.312 63.01,449.009 c 59.597,59.696 326.283,59.596 385.98,0 59.697,-59.597 59.597,-326.283 0,-385.98" /></g></g></g></g></g></g></g></g><g
           id="g144"><g
             id="g146" /><g
             id="g188"><g
               style="opacity:0.39999402"
               id="g190"
               clip-path="url(#clipPath148)"><g
                 id="g192"><g
                   id="g194"
                   clip-path="url(#clipPath152)"><g
                     id="g196"><g
                       id="g198" /><g
                       id="g200"
                       mask="url(#mask168)"><g
                         id="g202"><path
                           id="path204"
                           style="fill:url(#radialGradient180);stroke:none"
                           d="m 63.01,63.029 c 59.697,-59.697 326.183,-59.697 385.88,0 59.697,59.697 59.697,326.183 0,385.88 -59.697,59.696 -326.183,59.696 -385.88,0.1 -59.697,-59.597 -59.597,-326.283 0,-385.98" /></g></g></g></g></g></g></g></g></g></g><g
       id="g206"><g
         id="g208"><g
           id="g214"><g
             id="g216"><path
               id="path224"
               style="fill:url(#linearGradient218);stroke:none"
               d="M 79.721,433.279 C 9.427,362.985 9.427,149.015 79.721,78.721 l 0,0 c 70.295,-70.294 284.264,-70.294 354.558,0 l 0,0 c 70.294,70.294 70.294,284.264 0,354.558 l 0,0 C 399.132,468.426 328.066,486 257,486 l 0,0 C 185.934,486 114.868,468.426 79.721,433.279" /></g></g></g></g><g
       id="g226"><g
         clip-path="url(#clipPath230)"
         id="g228"><g
           transform="translate(446.7896,93.7413)"
           id="g234"><path
             id="path236"
             style="fill:#ededed;fill-opacity:1;fill-rule:nonzero;stroke:none"
             d="m 0,0 c -18.209,11.997 -40.01,18.985 -63.447,18.985 -38.438,0 -72.485,-18.782 -93.48,-47.663 -8.096,10.869 -21.045,17.909 -35.639,17.909 -7.961,0 -15.426,-2.105 -21.887,-5.773 -5.843,56.828 -53.86,101.154 -112.232,101.154 -5.711,0 -11.322,-0.428 -16.806,-1.247 0.011,0.416 0.032,0.829 0.032,1.247 0,18.932 -10.958,35.298 -26.873,43.122 9.042,14.292 14.28,31.23 14.28,49.393 0,36.442 -21.079,67.948 -51.702,83.029 -7.45,-27.905 -11.445,-59.179 -11.972,-90.702 -0.007,-0.611 -0.016,-1.218 -0.022,-1.83 -0.01,-0.758 -0.012,-1.516 -0.018,-2.274 -0.009,-1.346 -0.013,-2.696 -0.016,-4.049 0.157,-70.746 17.724,-141.332 52.713,-176.322 35.05,-35.049 105.82,-52.619 176.689,-52.716 0.677,0.002 1.354,0.003 2.03,0.007 1.575,0.005 3.151,0.014 4.726,0.036 0.201,0.002 0.402,0.004 0.602,0.007 68.775,1.08 136.48,18.635 170.512,52.666 C -8.057,-10.568 -3.889,-5.533 0,0" /></g><g
           transform="translate(53.002,81.6975)"
           id="g238"><path
             id="path240"
             style="fill:#ffffff;fill-opacity:1;fill-rule:nonzero;stroke:none"
             d="m 0,0 c 6.19,-13.044 16.752,-23.606 29.796,-29.796 20.503,-11.206 63.892,-19.927 117.755,-23.494 -16.066,26.921 -43.163,46.493 -75.057,52.471 1.132,5.407 1.734,11.008 1.734,16.75 0,44.943 -36.433,81.376 -81.376,81.376 -0.163,0 -0.323,-0.011 -0.486,-0.012 7.887,10.693 12.555,23.904 12.555,38.21 0,22.915 -11.97,43.022 -29.988,54.449 -0.12,-5.85 -0.182,-11.779 -0.182,-17.776 C -25.249,93.945 -14.786,27.053 0,0" /></g><g
           transform="translate(308.745,28.3635)"
           id="g242"><path
             id="path244"
             style="fill:#ffffff;fill-opacity:1;fill-rule:nonzero;stroke:none"
             d="m 0,0 c -11.903,9.054 -26.754,14.432 -42.863,14.432 -16.725,0 -32.084,-5.805 -44.202,-15.498 10.802,-0.423 21.928,-0.645 33.297,-0.645 18.701,0 36.752,0.599 53.768,1.711" /></g><g
           transform="translate(139.096,186.122)"
           id="g246"><path
             id="path248"
             style="fill:#ff4800;fill-opacity:1;fill-rule:nonzero;stroke:none"
             d="m 0,0 c -22.151,-22.151 -16.595,-63.621 -16.595,-63.621 0,0 41.47,-5.556 63.621,16.595 22.151,22.151 16.595,63.621 16.595,63.621 0,0 -41.47,5.556 -63.621,-16.595" /></g><g
           transform="translate(154.098,190.4)"
           id="g250"><path
             id="path252"
             style="fill:#fcaa06;fill-opacity:1;fill-rule:nonzero;stroke:none"
             d="m 0,0 c -16.827,-16.827 -12.317,-48.619 -12.317,-48.619 0,0 31.792,-4.51 48.619,12.317 16.827,16.827 12.317,48.619 12.317,48.619 0,0 -31.792,4.51 -48.619,-12.317" /></g><g
           transform="translate(193.7339,220.1739)"
           id="g254"><path
             id="path256"
             style="fill:#000000;fill-opacity:1;fill-rule:nonzero;stroke:none"
             d="M 0,0 C 1.29,1.29 8.254,-3.583 15.555,-10.884 22.857,-18.186 27.73,-25.15 26.44,-26.44 25.15,-27.73 18.186,-22.857 10.884,-15.555 3.583,-8.254 -1.29,-1.29 0,0" /></g><g
           transform="translate(195.1594,221.6003)"
           id="g258"><path
             id="path260"
             style="fill:#fcaa06;fill-opacity:1;fill-rule:nonzero;stroke:none"
             d="M 0,0 C 1.29,1.29 8.254,-3.583 15.555,-10.884 22.857,-18.186 27.73,-25.15 26.44,-26.44 25.15,-27.73 18.186,-22.857 10.884,-15.555 3.583,-8.254 -1.29,-1.29 0,0" /></g><g
           transform="translate(229.557,144.335)"
           id="g262"><path
             id="path264"
             style="fill:#e8e9ea;fill-opacity:1;fill-rule:nonzero;stroke:none"
             d="M 0,0 C 0,0 1.428,26.09 -10.23,48.551 -0.039,51.705 11.729,55.946 24.154,61.586 24.657,39.442 14.771,14.772 0,0" /></g><g
           transform="translate(144.335,229.557)"
           id="g266"><path
             id="path268"
             style="fill:#e8e9ea;fill-opacity:1;fill-rule:nonzero;stroke:none"
             d="M 0,0 C 14.634,14.634 39.229,24.227 61.397,23.733 55.852,11.463 51.668,-0.155 48.55,-10.231 26.09,1.428 0,0 0,0" /></g></g></g><g
       id="g270"><g
         id="g272"><g
           id="g278"><g
             id="g280"><path
               id="path288"
               style="fill:url(#radialGradient282);stroke:none"
               d="M 252.354,322.351 C 230.903,300.9 215.99,275.987 205.733,253.29 l 0,0 c 13.481,-0.3 26.065,-4.329 34.964,-13.228 l 0,0 c 8.761,-8.761 12.714,-21.007 13.013,-34.141 l 0,0 c 22.584,10.251 47.323,25.115 68.641,46.433 l 0,0 c 56.756,56.756 67.768,137.765 67.768,137.765 l 0,0 c 0,0 -81.008,-11.011 -137.765,-67.768" /></g></g></g></g><g
       id="g290"><g
         id="g292"><g
           id="g298"><g
             id="g300"><path
               id="path308"
               style="fill:url(#linearGradient302);stroke:none"
               d="M 290.167,314.5 C 258.089,278.891 234.04,245.42 234.04,245.42 l 0,0 c 10.307,-6.856 19.371,-26.365 19.67,-39.499 l 0,0 c 22.584,10.251 47.323,25.115 68.641,46.433 l 0,0 c 56.756,56.756 67.768,137.765 67.768,137.765 l 0,0 c 0,0 -63.619,-35.286 -99.952,-75.619" /></g></g></g></g><g
       id="g310"><g
         clip-path="url(#clipPath314)"
         id="g312"><g
           transform="translate(240.697,240.062)"
           id="g318"><path
             id="path320"
             style="fill:#969696;fill-opacity:1;fill-rule:nonzero;stroke:none"
             d="m 0,0 c 8.762,-8.762 12.714,-21.007 13.013,-34.141 -12.425,-5.64 -24.193,-9.881 -34.384,-13.035 -2.845,5.481 -6.458,10.749 -11.075,15.366 -4.617,4.617 -9.885,8.23 -15.366,11.075 3.118,10.075 7.302,21.694 12.847,33.964 C -21.483,12.928 -8.899,8.899 0,0" /></g></g></g><g
       id="g322"><g
         id="g324"><g
           id="g330"><g
             id="g332"><path
               id="path340"
               style="fill:url(#linearGradient334);stroke:none"
               d="m 208.251,208.252 c 4.617,-4.617 8.23,-9.885 11.075,-15.366 l 0,0 c 10.191,3.154 21.959,7.395 34.384,13.035 l 0,0 c 0.02,13.829 -5.543,30.396 -19.67,39.499 l 0,0 -25.789,-37.168 z" /></g></g></g></g></g></svg>