<?xml version="1.0" encoding="utf-8"?>
<!-- Generator: Adobe Illustrator 18.0.0, SVG Export Plug-In . SVG Version: 6.00 Build 0)  -->
<!DOCTYPE svg PUBLIC "-//W3C//DTD SVG 1.1//EN" "http://www.w3.org/Graphics/SVG/1.1/DTD/svg11.dtd">
<svg version="1.1" xmlns="http://www.w3.org/2000/svg" xmlns:xlink="http://www.w3.org/1999/xlink" x="0px" y="0px"
	 viewBox="0 0 512 512" enable-background="new 0 0 512 512" xml:space="preserve">
<g id="Layer_3">
	<g>
		<g opacity="0.4" enable-background="new    ">
			
				<radialGradient id="SVGID_1_" cx="1.0125" cy="515" r="118.8609" gradientTransform="matrix(2 0 0 -2 254 1286)" gradientUnits="userSpaceOnUse">
				<stop  offset="0" style="stop-color:#020202"/>
				<stop  offset="0.8587" style="stop-color:#020202;stop-opacity:0.1413"/>
				<stop  offset="1" style="stop-color:#020202;stop-opacity:0"/>
			</radialGradient>
			<path fill="url(#SVGID_1_)" d="M449,449c-59.7,59.7-326.2,59.7-385.9,0S3.4,122.7,63,63s326.3-59.6,386,0S508.6,389.3,449,449z"
				/>
		</g>
		<g opacity="0.4" enable-background="new    ">
			
				<radialGradient id="SVGID_2_" cx="2.0286" cy="516.0684" r="133.1551" gradientTransform="matrix(1.4138 -1.4146 -0.979 -0.9784 758.388 763.7472)" gradientUnits="userSpaceOnUse">
				<stop  offset="0" style="stop-color:#020202"/>
				<stop  offset="0.8587" style="stop-color:#020202;stop-opacity:0.1413"/>
				<stop  offset="1" style="stop-color:#020202;stop-opacity:0"/>
			</radialGradient>
			<path fill="url(#SVGID_2_)" d="M449,449c-59.7,59.7-326.2,59.7-385.9,0S3.4,122.7,63,63s326.3-59.6,386,0S508.6,389.3,449,449z"
				/>
		</g>
		<g opacity="0.4" enable-background="new    ">
			
				<radialGradient id="SVGID_3_" cx="3.4424" cy="513.9732" r="133.1784" gradientTransform="matrix(-1.4138 -1.4146 0.979 -0.9784 -242.3879 763.7472)" gradientUnits="userSpaceOnUse">
				<stop  offset="0" style="stop-color:#020202"/>
				<stop  offset="0.8587" style="stop-color:#020202;stop-opacity:0.1413"/>
				<stop  offset="1" style="stop-color:#020202;stop-opacity:0"/>
			</radialGradient>
			<path fill="url(#SVGID_3_)" d="M63,449c59.7,59.7,326.2,59.7,385.9,0s59.7-326.2,0-385.9S122.7,3.4,63,63S3.4,389.3,63,449z"/>
		</g>
	</g>
	<path fill="#212121" d="M433.3,433.3c-70.3,70.3-284.3,70.3-354.6,0S8.4,149,78.7,78.7s284.3-70.3,354.6,0S503.6,363,433.3,433.3z"
		/>
</g>
<g id="Layer_4">
	<g>
		<g>
			<polygon fill="#EF3B24" points="256,344.1 313,251 209.7,268.5 			"/>
			<path fill="#F68C1F" d="M194.9,244.4L194.9,244.4l0.1,0.1l13.5,22.1l1.2,1.9L313,251l2.5-4.1l1.4-2.4l0-0.1l0-0.1
				c7.8-11.9,11.9-25.7,11.9-40c0-2.7-0.2-5.4-0.5-8.2l-143.7,24.4C186.7,229.1,190.1,237.1,194.9,244.4z"/>
			<path fill="#FEBC11" d="M328.5,195.9l0-0.3c-2-16.9-10-32.6-22.4-44.4c-1-1-2.1-1.9-3.2-2.8L193.3,167c-0.7,1.2-1.4,2.4-2.1,3.7
				l0,0l0,0.1c-5.4,10.5-8.2,21.8-8.2,33.6c0,5.4,0.6,10.7,1.7,15.9c0,0.1,0,0.2,0.1,0.3l143.7-24.4
				C328.5,196.1,328.5,196,328.5,195.9z"/>
			<path fill="#7AC143" d="M256,131.4c-25.9,0-49.5,13.5-62.7,35.6l109.6-18.6C289.7,137.4,273.3,131.4,256,131.4z"/>
		</g>
		<path fill="#FFFFFF" d="M256,132.1c39.9,0,72.4,32.5,72.4,72.4c0,14.2-4.1,27.9-11.8,39.7l-0.1,0.1l-0.1,0.1L256,342.8l-60.4-98.6
			l-0.1-0.1l-0.1-0.1c-7.7-11.8-11.8-25.5-11.8-39.7C183.6,164.5,216.1,132.1,256,132.1 M256,125.9c-43.4,0-78.5,35.2-78.5,78.5
			c0,15.9,4.7,30.7,12.8,43L256,354.6l65.7-107.1c8.1-12.4,12.8-27.1,12.8-43C334.5,161,299.4,125.9,256,125.9L256,125.9z"/>
		<g>
			<path fill="#FFFFFF" d="M273.4,219c-1.4-1.4-3.3-2.2-5.4-2.2c-1.2,0-2.3,0.3-3.4,0.8c-2.1-1-4.6-1-6.7,0c-2.1-1-4.6-1-6.7,0
				c-2.1-1-4.6-1-6.7,0c-1-0.5-2.2-0.8-3.4-0.8c-4.2,0-7.6,3.4-7.6,7.6c0,3.9,2.9,7.1,6.7,7.5V313l0,0.4l1.7,0v-83.2l-0.4,0
				c-0.3,0-0.6,0-0.9,0c-3-0.2-5.4-2.8-5.4-5.8c0-3.2,2.6-5.8,5.8-5.8c0.6,0,1.1,0.1,1.6,0.2c-1.6,1.4-2.5,3.4-2.5,5.6
				c0,2.4,1.1,4.6,3.1,6.1c0.3,0.3,0.7,0.5,1,0.6l0.2,0.1l0.2-0.1c0.3-0.2,0.7-0.4,1-0.6c0.9-0.7,1.7-1.6,2.2-2.6
				c0.5,1,1.3,1.9,2.2,2.6c0.3,0.3,0.7,0.5,1,0.6l0.2,0.1l0.2-0.1c0.3-0.2,0.7-0.4,1-0.6c0.9-0.7,1.7-1.6,2.2-2.6
				c0.5,1,1.3,1.9,2.2,2.6c0.3,0.3,0.7,0.5,1,0.6l0.2,0.1l0.2-0.1c0.3-0.2,0.6-0.4,1-0.6c0.9-0.7,1.7-1.6,2.2-2.6
				c0.5,1,1.3,1.9,2.2,2.6c0.3,0.3,0.7,0.5,1,0.6l0.2,0.1l0.2-0.1c0.3-0.2,0.7-0.4,1-0.6c1.9-1.5,3.1-3.7,3.1-6.1
				c0-2.2-0.9-4.2-2.5-5.6c0.5-0.2,1.1-0.2,1.6-0.2c3.2,0,5.8,2.6,5.8,5.8c0,2.9-2.1,5.3-5,5.8c-0.3,0-0.6,0.1-0.9,0.1l-0.4,0v83.1
				h1.7v-81.5c3.6-0.6,6.2-3.8,6.2-7.5C275.6,222.4,274.8,220.5,273.4,219z M267.2,224.4c0,1.9-0.9,3.7-2.5,4.8
				c-1.6-1.1-2.5-2.9-2.5-4.8c0-1.9,0.9-3.7,2.5-4.8C266.3,220.7,267.2,222.5,267.2,224.4z M261.3,220.9c-0.4-0.8-1-1.5-1.6-2.1
				c1.1-0.3,2.2-0.3,3.3,0C262.3,219.4,261.8,220.1,261.3,220.9z M260.5,224.4c0,1.9-0.9,3.7-2.5,4.8c-1.6-1.1-2.5-2.9-2.5-4.8
				s0.9-3.7,2.5-4.8C259.5,220.7,260.5,222.5,260.5,224.4z M254.6,220.9c-0.4-0.8-1-1.5-1.6-2.1c1.1-0.3,2.2-0.3,3.3,0
				C255.6,219.4,255,220.1,254.6,220.9z M253.8,224.4c0,1.9-0.9,3.7-2.5,4.8c-1.6-1.1-2.5-2.9-2.5-4.8s0.9-3.7,2.5-4.8
				C252.8,220.7,253.8,222.5,253.8,224.4z M249.5,218.8c-0.7,0.6-1.2,1.3-1.6,2.1c-0.4-0.8-1-1.5-1.6-2.1
				C247.3,218.5,248.5,218.5,249.5,218.8z M247,224.4c0,1.9-0.9,3.7-2.5,4.8c-1.6-1.1-2.5-2.9-2.5-4.8c0-1.9,0.9-3.7,2.5-4.8
				C246.1,220.7,247,222.5,247,224.4z"/>
			<path fill="#3A3B3B" d="M287.5,354.6v-51.4h-63v51.4l0,0c0,17.4,14.1,31.5,31.5,31.5S287.5,372,287.5,354.6
				C287.5,354.6,287.5,354.6,287.5,354.6z"/>
		</g>
	</g>
	<polygon fill="#FFFFFF" points="317.8,305.1 327.4,258.2 404.5,255.9 338.9,254 333.6,227.8 328.3,253.7 307.1,253.1 290.4,172.4 
		274,252.2 256,251.7 237,252.2 220.8,189.1 204.3,253.1 182.9,253.8 177.6,227.8 172.3,254.1 107.5,255.9 183.8,258.1 193.4,305.1 
		203,258.7 239.6,259.7 256,339.6 272.4,259.7 308.2,258.7 	"/>
</g>
</svg>
