<?xml version="1.0" encoding="utf-8"?>
<!-- Generator: Adobe Illustrator 18.0.0, SVG Export Plug-In . SVG Version: 6.00 Build 0)  -->
<!DOCTYPE svg PUBLIC "-//W3C//DTD SVG 1.1//EN" "http://www.w3.org/Graphics/SVG/1.1/DTD/svg11.dtd">
<svg version="1.1" id="Layer_1" xmlns="http://www.w3.org/2000/svg" xmlns:xlink="http://www.w3.org/1999/xlink" x="0px" y="0px"
	 viewBox="0 0 512 512" style="enable-background:new 0 0 512 512;" xml:space="preserve">
<g>
	<g style="opacity:0.4;enable-background:new    ;">
		
			<radialGradient id="SVGID_1_" cx="0.7625" cy="514.25" r="118.8609" gradientTransform="matrix(2 0 0 -2 254.5 1284.5)" gradientUnits="userSpaceOnUse">
			<stop  offset="0" style="stop-color:#010101"/>
			<stop  offset="0.8587" style="stop-color:#010101;stop-opacity:0.1413"/>
			<stop  offset="1" style="stop-color:#010101;stop-opacity:0"/>
		</radialGradient>
		<path style="fill:url(#SVGID_1_);" d="M449,449c-59.7,59.7-326.2,59.7-385.9,0S3.4,122.7,63,63s326.3-59.6,386,0
			S508.6,389.3,449,449z"/>
	</g>
	<g style="opacity:0.4;enable-background:new    ;">
		
			<radialGradient id="SVGID_2_" cx="1.5285" cy="515.0576" r="133.1551" gradientTransform="matrix(1.4138 -1.4146 -0.979 -0.9784 758.1053 762.0507)" gradientUnits="userSpaceOnUse">
			<stop  offset="0" style="stop-color:#010101"/>
			<stop  offset="0.8587" style="stop-color:#010101;stop-opacity:0.1413"/>
			<stop  offset="1" style="stop-color:#010101;stop-opacity:0"/>
		</radialGradient>
		<path style="fill:url(#SVGID_2_);" d="M449,449c-59.7,59.7-326.2,59.7-385.9,0S3.4,122.7,63,63s326.3-59.6,386,0
			S508.6,389.3,449,449z"/>
	</g>
	<g style="opacity:0.4;enable-background:new    ;">
		
			<radialGradient id="SVGID_3_" cx="2.5888" cy="513.4733" r="133.1784" gradientTransform="matrix(-1.4138 -1.4146 0.979 -0.9784 -243.1053 762.0507)" gradientUnits="userSpaceOnUse">
			<stop  offset="0" style="stop-color:#010101"/>
			<stop  offset="0.8587" style="stop-color:#010101;stop-opacity:0.1413"/>
			<stop  offset="1" style="stop-color:#010101;stop-opacity:0"/>
		</radialGradient>
		<path style="fill:url(#SVGID_3_);" d="M63,449c59.7,59.7,326.2,59.7,385.9,0s59.7-326.2,0-385.9S122.7,3.4,63,63S3.4,389.3,63,449
			z"/>
	</g>
</g>
<g id="Layer_2_1_">
	<linearGradient id="SVGID_4_" gradientUnits="userSpaceOnUse" x1="27" y1="256" x2="487" y2="256">
		<stop  offset="0" style="stop-color:#1ED2FC"/>
		<stop  offset="1" style="stop-color:#2066F1"/>
	</linearGradient>
	<path style="fill:url(#SVGID_4_);" d="M434.3,433.3c-70.3,70.3-284.3,70.3-354.6,0S9.4,149,79.7,78.7s284.3-70.3,354.6,0
		S504.6,363,434.3,433.3z"/>
	<path style="fill:#EDEDED;" d="M446.8,418.3c-18.2-12-40-19-63.4-19c-38.4,0-72.5,18.8-93.5,47.7c-8.1-10.9-21-17.9-35.6-17.9
		c-8,0-15.4,2.1-21.9,5.8c-5.8-56.8-53.9-101.2-112.2-101.2c-5.7,0-11.3,0.4-16.8,1.2c0-0.4,0-0.8,0-1.2c0-18.9-11-35.3-26.9-43.1
		c9-14.3,14.3-31.2,14.3-49.4c0-36.4-21.1-67.9-51.7-83c-7.5,27.9-11.4,59.2-12,90.7c0,0.6,0,1.2,0,1.8c0,0.8,0,1.5,0,2.3
		c0,1.3,0,2.7,0,4c0.2,70.7,17.7,141.3,52.7,176.3c35,35,105.8,52.6,176.7,52.7c0.7,0,1.4,0,2,0c1.6,0,3.2,0,4.7,0
		c0.2,0,0.4,0,0.6,0c68.8-1.1,136.5-18.6,170.5-52.7C438.7,428.8,442.9,423.8,446.8,418.3z"/>
	<g>
		<path style="fill:#FFFFFF;" d="M199.6,482.1c-16.2-26.1-42.8-45.1-74.1-51c1.1-5.4,1.7-11,1.7-16.8c0-44.9-36.4-81.4-81.4-81.4
			c-0.2,0-0.3,0-0.5,0c7.9-10.7,12.6-23.9,12.6-38.2c0-22.9-12-43-30-54.4c-0.1,5.8-0.2,11.8-0.2,17.8c0,10.8,0.2,21.3,0.6,31.6
			c4.7,59,21.8,114,51.4,143.6C105.3,458.8,149.9,475.1,199.6,482.1z"/>
		<path style="fill:#FFFFFF;" d="M308.7,483.6c-11.9-9.1-26.8-14.4-42.9-14.4c-16.7,0-32.1,5.8-44.2,15.5
			c10.8,0.4,21.9,0.6,33.3,0.6C273.7,485.3,291.7,484.7,308.7,483.6z"/>
	</g>
</g>
<g>
	<g>
		<path style="fill:#FF4800;" d="M139.1,325.9c-22.2,22.2-16.6,63.6-16.6,63.6s41.5,5.6,63.6-16.6s16.6-63.6,16.6-63.6
			S161.2,303.7,139.1,325.9z"/>
		<path style="fill:#FCAA06;" d="M154.1,321.6c-16.8,16.8-12.3,48.6-12.3,48.6s31.8,4.5,48.6-12.3s12.3-48.6,12.3-48.6
			S170.9,304.8,154.1,321.6z"/>
	</g>
	<ellipse transform="matrix(-0.7071 -0.7071 0.7071 -0.7071 137.5922 667.0846)" cx="207" cy="305" rx="18.7" ry="3.3"/>
	
		<ellipse transform="matrix(-0.7071 -0.7071 0.7071 -0.7071 141.0342 665.6577)" style="fill:#FCAA06;" cx="208.4" cy="303.6" rx="18.7" ry="3.3"/>
	<path style="fill:#E8E9EA;" d="M229.6,367.7c0,0,1.4-26.1-10.2-48.6c10.2-3.2,22-7.4,34.4-13C254.2,328.2,244.3,352.9,229.6,367.7z
		"/>
	<path style="fill:#E8E9EA;" d="M144.3,282.4c14.6-14.6,39.2-24.2,61.4-23.7c-5.5,12.3-9.7,23.9-12.8,34
		C170.4,281,144.3,282.4,144.3,282.4z"/>
	
		<radialGradient id="SVGID_5_" cx="-736.074" cy="138.98" r="170.5808" gradientTransform="matrix(1 0 0 1 1090 19)" gradientUnits="userSpaceOnUse">
		<stop  offset="0" style="stop-color:#FFFFFF"/>
		<stop  offset="1" style="stop-color:#D7D7D7"/>
	</radialGradient>
	<path style="fill:url(#SVGID_5_);" d="M205.7,258.7c10.3-22.7,25.2-47.6,46.6-69.1c56.8-56.8,137.8-67.8,137.8-67.8
		s-11,81-67.8,137.8c-21.3,21.3-46.1,36.2-68.6,46.4c-0.3-13.1-4.3-25.4-13-34.1C231.8,263,219.2,259,205.7,258.7z"/>
	
		<linearGradient id="SVGID_6_" gradientUnits="userSpaceOnUse" x1="-790.3011" y1="172.7643" x2="-747.11" y2="215.9554" gradientTransform="matrix(1 0 0 1 1090 19)">
		<stop  offset="0" style="stop-color:#E5E5E5"/>
		<stop  offset="1" style="stop-color:#A3A3A3"/>
	</linearGradient>
	<path style="fill:url(#SVGID_6_);" d="M390.1,121.9c0,0-11,81-67.8,137.8c-21.3,21.3-46.1,36.2-68.6,46.4
		c-0.3-13.1-9.4-32.6-19.7-39.5c0,0,24-33.5,56.1-69.1C326.5,157.2,390.1,121.9,390.1,121.9z"/>
	<path style="fill:#969696;" d="M240.7,271.9c8.8,8.8,12.7,21,13,34.1c-12.4,5.6-24.2,9.9-34.4,13c-2.8-5.5-6.5-10.7-11.1-15.4
		s-9.9-8.2-15.4-11.1c3.1-10.1,7.3-21.7,12.8-34C219.2,259,231.8,263,240.7,271.9z"/>
	
		<linearGradient id="SVGID_7_" gradientUnits="userSpaceOnUse" x1="-872.6472" y1="259.9218" x2="-842.687" y2="298.7404" gradientTransform="matrix(1 0 0 1 1090 19)">
		<stop  offset="0" style="stop-color:#373737"/>
		<stop  offset="1" style="stop-color:#919191"/>
	</linearGradient>
	<path style="fill:url(#SVGID_7_);" d="M234,266.6c14.1,9.1,19.7,25.7,19.7,39.5c-12.4,5.6-24.2,9.9-34.4,13
		c-2.8-5.5-6.5-10.7-11.1-15.4L234,266.6z"/>
	<path style="display:none;fill:#FFFFFF;" d="M210.7,297.7c-15.4,15.4-25.8,30-25.8,30s14.6-10.4,30-25.8s27-28.8,25.8-30
		C239.5,270.8,226.1,282.3,210.7,297.7z"/>
</g>
</svg>
