<?xml version="1.0" encoding="UTF-8" standalone="no"?>
<svg
   xmlns:dc="http://purl.org/dc/elements/1.1/"
   xmlns:cc="http://creativecommons.org/ns#"
   xmlns:rdf="http://www.w3.org/1999/02/22-rdf-syntax-ns#"
   xmlns:svg="http://www.w3.org/2000/svg"
   xmlns="http://www.w3.org/2000/svg"
   id="svg2"
   version="1.1"
   xml:space="preserve"
   width="640"
   height="640"
   viewBox="0 0 640 640"><metadata
     id="metadata8"><rdf:RDF><cc:Work
         rdf:about=""><dc:format>image/svg+xml</dc:format><dc:type
           rdf:resource="http://purl.org/dc/dcmitype/StillImage" /><dc:title></dc:title></cc:Work></rdf:RDF></metadata><defs
     id="defs6"><clipPath
       clipPathUnits="userSpaceOnUse"
       id="clipPath16"><path
         d="M 0,512 512,512 512,0 0,0 0,512 Z"
         id="path18" /></clipPath><clipPath
       clipPathUnits="userSpaceOnUse"
       id="clipPath24"><path
         d="m 18.325,493.744 475.4,0 0,-475.4877 -475.4,0 0,475.4877 z"
         id="path26" /></clipPath><clipPath
       clipPathUnits="userSpaceOnUse"
       id="clipPath28"><path
         d="M 448.99,63.029 C 389.293,3.332 122.807,3.332 63.11,63.029 3.413,122.726 3.413,389.312 63.01,449.009 c 59.597,59.696 326.283,59.596 385.98,0 59.697,-59.597 59.597,-326.283 0,-385.98"
         id="path30" /></clipPath><radialGradient
       fx="0"
       fy="0"
       cx="0"
       cy="0"
       r="1"
       gradientUnits="userSpaceOnUse"
       gradientTransform="matrix(237.72188,0,0,237.72188,256.02499,256)"
       spreadMethod="pad"
       id="radialGradient36"><stop
         style="stop-opacity:1;stop-color:#ffffff"
         offset="0"
         id="stop38" /><stop
         style="stop-opacity:0.14129854;stop-color:#ffffff"
         offset="0.8587"
         id="stop40" /><stop
         style="stop-opacity:0;stop-color:#ffffff"
         offset="1"
         id="stop42" /></radialGradient><mask
       maskUnits="userSpaceOnUse"
       x="0"
       y="0"
       width="1"
       height="1"
       id="mask44"><g
         id="g46"><g
           id="g48"><g
             id="g50"><g
               id="g52"><path
                 d="m -32768,32767 65535,0 0,-65535 -65535,0 0,65535 z"
                 style="fill:url(#radialGradient36);stroke:none"
                 id="path54" /></g></g></g></g></mask><radialGradient
       fx="0"
       fy="0"
       cx="0"
       cy="0"
       r="1"
       gradientUnits="userSpaceOnUse"
       gradientTransform="matrix(237.72188,0,0,237.72188,256.02499,256)"
       spreadMethod="pad"
       id="radialGradient56"><stop
         style="stop-opacity:1;stop-color:#010101"
         offset="0"
         id="stop58" /><stop
         style="stop-opacity:1;stop-color:#010101"
         offset="0.8587"
         id="stop60" /><stop
         style="stop-opacity:1;stop-color:#010101"
         offset="1"
         id="stop62" /></radialGradient><clipPath
       clipPathUnits="userSpaceOnUse"
       id="clipPath86"><path
         d="m 18.325,493.744 475.4,0 0,-475.4877 -475.4,0 0,475.4877 z"
         id="path88" /></clipPath><clipPath
       clipPathUnits="userSpaceOnUse"
       id="clipPath90"><path
         d="M 448.99,63.029 C 389.293,3.332 122.807,3.332 63.11,63.029 3.413,122.726 3.413,389.312 63.01,449.009 c 59.597,59.696 326.283,59.596 385.98,0 59.697,-59.597 59.597,-326.283 0,-385.98"
         id="path92" /></clipPath><radialGradient
       fx="0"
       fy="0"
       cx="0"
       cy="0"
       r="1"
       gradientUnits="userSpaceOnUse"
       gradientTransform="matrix(188.25467,188.36119,-130.35883,130.27895,256.02499,256.04376)"
       spreadMethod="pad"
       id="radialGradient98"><stop
         style="stop-opacity:1;stop-color:#ffffff"
         offset="0"
         id="stop100" /><stop
         style="stop-opacity:0.14129854;stop-color:#ffffff"
         offset="0.8587"
         id="stop102" /><stop
         style="stop-opacity:0;stop-color:#ffffff"
         offset="1"
         id="stop104" /></radialGradient><mask
       maskUnits="userSpaceOnUse"
       x="0"
       y="0"
       width="1"
       height="1"
       id="mask106"><g
         id="g108"><g
           id="g110"><g
             id="g112"><g
               id="g114"><path
                 d="m -32768,32767 65535,0 0,-65535 -65535,0 0,65535 z"
                 style="fill:url(#radialGradient98);stroke:none"
                 id="path116" /></g></g></g></g></mask><radialGradient
       fx="0"
       fy="0"
       cx="0"
       cy="0"
       r="1"
       gradientUnits="userSpaceOnUse"
       gradientTransform="matrix(188.25467,188.36119,-130.35883,130.27895,256.02499,256.04376)"
       spreadMethod="pad"
       id="radialGradient118"><stop
         style="stop-opacity:1;stop-color:#010101"
         offset="0"
         id="stop120" /><stop
         style="stop-opacity:1;stop-color:#010101"
         offset="0.8587"
         id="stop122" /><stop
         style="stop-opacity:1;stop-color:#010101"
         offset="1"
         id="stop124" /></radialGradient><clipPath
       clipPathUnits="userSpaceOnUse"
       id="clipPath148"><path
         d="m 18.275,493.694 475.387,0 0,-475.4377 -475.387,0 0,475.4377 z"
         id="path150" /></clipPath><clipPath
       clipPathUnits="userSpaceOnUse"
       id="clipPath152"><path
         d="m 63.01,63.029 c 59.697,-59.697 326.183,-59.697 385.88,0 59.697,59.697 59.697,326.183 0,385.88 -59.697,59.696 -326.183,59.696 -385.88,0.1 -59.697,-59.597 -59.597,-326.283 0,-385.98"
         id="path154" /></clipPath><radialGradient
       fx="0"
       fy="0"
       cx="0"
       cy="0"
       r="1"
       gradientUnits="userSpaceOnUse"
       gradientTransform="matrix(-188.28767,188.39421,130.38168,130.30179,255.92499,255.99377)"
       spreadMethod="pad"
       id="radialGradient160"><stop
         style="stop-opacity:1;stop-color:#ffffff"
         offset="0"
         id="stop162" /><stop
         style="stop-opacity:0.14129854;stop-color:#ffffff"
         offset="0.8587"
         id="stop164" /><stop
         style="stop-opacity:0;stop-color:#ffffff"
         offset="1"
         id="stop166" /></radialGradient><mask
       maskUnits="userSpaceOnUse"
       x="0"
       y="0"
       width="1"
       height="1"
       id="mask168"><g
         id="g170"><g
           id="g172"><g
             id="g174"><g
               id="g176"><path
                 d="m -32768,32767 65535,0 0,-65535 -65535,0 0,65535 z"
                 style="fill:url(#radialGradient160);stroke:none"
                 id="path178" /></g></g></g></g></mask><radialGradient
       fx="0"
       fy="0"
       cx="0"
       cy="0"
       r="1"
       gradientUnits="userSpaceOnUse"
       gradientTransform="matrix(-188.28767,188.39421,130.38168,130.30179,255.92499,255.99377)"
       spreadMethod="pad"
       id="radialGradient180"><stop
         style="stop-opacity:1;stop-color:#010101"
         offset="0"
         id="stop182" /><stop
         style="stop-opacity:1;stop-color:#010101"
         offset="0.8587"
         id="stop184" /><stop
         style="stop-opacity:1;stop-color:#010101"
         offset="1"
         id="stop186" /></radialGradient><radialGradient
       fx="0"
       fy="0"
       cx="0"
       cy="0"
       r="1"
       gradientUnits="userSpaceOnUse"
       gradientTransform="matrix(230,0,0,-230,256,256)"
       spreadMethod="pad"
       id="radialGradient218"><stop
         style="stop-opacity:1;stop-color:#679a3c"
         offset="0"
         id="stop220" /><stop
         style="stop-opacity:1;stop-color:#096b36"
         offset="1"
         id="stop222" /></radialGradient><clipPath
       clipPathUnits="userSpaceOnUse"
       id="clipPath230"><path
         d="M 0,512 512,512 512,0 0,0 0,512 Z"
         id="path232" /></clipPath></defs><g
     id="g10"
     transform="matrix(1.25,0,0,-1.25,0,640)"><g
       id="g12"><g
         id="g14"
         clip-path="url(#clipPath16)"><g
           id="g20"><g
             id="g22" /><g
             id="g64"><g
               clip-path="url(#clipPath24)"
               id="g66"
               style="opacity:0.39999402"><g
                 id="g68"><g
                   clip-path="url(#clipPath28)"
                   id="g70"><g
                     id="g72"><g
                       id="g74" /><g
                       mask="url(#mask44)"
                       id="g76"><g
                         id="g78"><path
                           d="M 448.99,63.029 C 389.293,3.332 122.807,3.332 63.11,63.029 3.413,122.726 3.413,389.312 63.01,449.009 c 59.597,59.696 326.283,59.596 385.98,0 59.697,-59.597 59.597,-326.283 0,-385.98"
                           style="fill:url(#radialGradient56);stroke:none"
                           id="path80" /></g></g></g></g></g></g></g></g><g
           id="g82"><g
             id="g84" /><g
             id="g126"><g
               clip-path="url(#clipPath86)"
               id="g128"
               style="opacity:0.39999402"><g
                 id="g130"><g
                   clip-path="url(#clipPath90)"
                   id="g132"><g
                     id="g134"><g
                       id="g136" /><g
                       mask="url(#mask106)"
                       id="g138"><g
                         id="g140"><path
                           d="M 448.99,63.029 C 389.293,3.332 122.807,3.332 63.11,63.029 3.413,122.726 3.413,389.312 63.01,449.009 c 59.597,59.696 326.283,59.596 385.98,0 59.697,-59.597 59.597,-326.283 0,-385.98"
                           style="fill:url(#radialGradient118);stroke:none"
                           id="path142" /></g></g></g></g></g></g></g></g><g
           id="g144"><g
             id="g146" /><g
             id="g188"><g
               clip-path="url(#clipPath148)"
               id="g190"
               style="opacity:0.39999402"><g
                 id="g192"><g
                   clip-path="url(#clipPath152)"
                   id="g194"><g
                     id="g196"><g
                       id="g198" /><g
                       mask="url(#mask168)"
                       id="g200"><g
                         id="g202"><path
                           d="m 63.01,63.029 c 59.697,-59.697 326.183,-59.697 385.88,0 59.697,59.697 59.697,326.183 0,385.88 -59.697,59.696 -326.183,59.696 -385.88,0.1 -59.697,-59.597 -59.597,-326.283 0,-385.98"
                           style="fill:url(#radialGradient180);stroke:none"
                           id="path204" /></g></g></g></g></g></g></g></g></g></g><g
       id="g206"><g
         id="g208"><g
           id="g214"><g
             id="g216"><path
               d="M 78.721,433.279 C 8.427,362.985 8.427,149.015 78.721,78.721 l 0,0 c 70.294,-70.294 284.264,-70.294 354.558,0 l 0,0 c 70.294,70.294 70.294,284.264 0,354.558 l 0,0 C 398.132,468.426 327.066,486 256,486 l 0,0 C 184.934,486 113.868,468.426 78.721,433.279"
               style="fill:#333333;stroke:none"
               id="path224" /></g></g></g></g><g
       id="g226"><g
         id="g228"
         clip-path="url(#clipPath230)"><g
           id="g234"
           transform="translate(194.4023,337.6354)"><path
             d="m 0,0 c -11.049,0 -20.038,-8.989 -20.038,-20.038 l 0,-123.195 c 0,-11.048 8.989,-20.037 20.038,-20.037 l 123.195,0 c 11.048,0 20.038,8.989 20.038,20.037 l 0,123.195 C 143.233,-8.989 134.243,0 123.195,0 L 0,0 Z m 123.195,-167.723 -123.195,0 c -13.504,0 -24.491,10.986 -24.491,24.49 l 0,123.195 c 0,13.504 10.987,24.491 24.491,24.491 l 123.195,0 c 13.504,0 24.49,-10.987 24.49,-24.491 l 0,-123.195 c 0,-13.504 -10.986,-24.49 -24.49,-24.49"
             style="fill:#ffffff;fill-opacity:1;fill-rule:nonzero;stroke:none"
             id="path236" /></g><g
           id="g238"
           transform="translate(172.1382,308.692)"><path
             d="m 0,0 -31.912,0 c -1.229,0 -2.226,0.997 -2.226,2.226 0,1.23 0.997,2.227 2.226,2.227 L 0,4.453 C 1.23,4.453 2.226,3.456 2.226,2.226 2.226,0.997 1.23,0 0,0"
             style="fill:#ffffff;fill-opacity:1;fill-rule:nonzero;stroke:none"
             id="path240" /></g><g
           id="g242"
           transform="translate(172.1382,301.8269)"><path
             d="m 0,0 -31.912,0 c -1.229,0 -2.226,0.997 -2.226,2.226 0,1.23 0.997,2.227 2.226,2.227 L 0,4.453 C 1.23,4.453 2.226,3.456 2.226,2.226 2.226,0.997 1.23,0 0,0"
             style="fill:#ffffff;fill-opacity:1;fill-rule:nonzero;stroke:none"
             id="path244" /></g><g
           id="g246"
           transform="translate(172.1382,294.9622)"><path
             d="m 0,0 -31.912,0 c -1.229,0 -2.226,0.997 -2.226,2.226 0,1.23 0.997,2.227 2.226,2.227 L 0,4.453 C 1.23,4.453 2.226,3.456 2.226,2.226 2.226,0.997 1.23,0 0,0"
             style="fill:#ffffff;fill-opacity:1;fill-rule:nonzero;stroke:none"
             id="path248" /></g><g
           id="g250"
           transform="translate(172.1382,288.0977)"><path
             d="m 0,0 -31.912,0 c -1.229,0 -2.226,0.997 -2.226,2.226 0,1.23 0.997,2.227 2.226,2.227 L 0,4.453 C 1.23,4.453 2.226,3.456 2.226,2.226 2.226,0.997 1.23,0 0,0"
             style="fill:#ffffff;fill-opacity:1;fill-rule:nonzero;stroke:none"
             id="path252" /></g><g
           id="g254"
           transform="translate(172.1382,281.2325)"><path
             d="m 0,0 -31.912,0 c -1.229,0 -2.226,0.997 -2.226,2.226 0,1.23 0.997,2.227 2.226,2.227 L 0,4.453 C 1.23,4.453 2.226,3.456 2.226,2.226 2.226,0.997 1.23,0 0,0"
             style="fill:#ffffff;fill-opacity:1;fill-rule:nonzero;stroke:none"
             id="path256" /></g><g
           id="g258"
           transform="translate(172.1382,274.3679)"><path
             d="m 0,0 -31.912,0 c -1.229,0 -2.226,0.997 -2.226,2.226 0,1.23 0.997,2.227 2.226,2.227 L 0,4.453 C 1.23,4.453 2.226,3.456 2.226,2.226 2.226,0.997 1.23,0 0,0"
             style="fill:#ffffff;fill-opacity:1;fill-rule:nonzero;stroke:none"
             id="path260" /></g><g
           id="g262"
           transform="translate(172.1382,267.5033)"><path
             d="m 0,0 -31.912,0 c -1.229,0 -2.226,0.997 -2.226,2.226 0,1.23 0.997,2.227 2.226,2.227 L 0,4.453 C 1.23,4.453 2.226,3.456 2.226,2.226 2.226,0.997 1.23,0 0,0"
             style="fill:#ffffff;fill-opacity:1;fill-rule:nonzero;stroke:none"
             id="path264" /></g><g
           id="g266"
           transform="translate(172.1382,260.6382)"><path
             d="m 0,0 -31.912,0 c -1.229,0 -2.226,0.997 -2.226,2.226 0,1.23 0.997,2.227 2.226,2.227 L 0,4.453 C 1.23,4.453 2.226,3.456 2.226,2.226 2.226,0.997 1.23,0 0,0"
             style="fill:#ffffff;fill-opacity:1;fill-rule:nonzero;stroke:none"
             id="path268" /></g><g
           id="g270"
           transform="translate(172.1382,253.7736)"><path
             d="m 0,0 -31.912,0 c -1.229,0 -2.226,0.997 -2.226,2.226 0,1.23 0.997,2.227 2.226,2.227 L 0,4.453 C 1.23,4.453 2.226,3.456 2.226,2.226 2.226,0.997 1.23,0 0,0"
             style="fill:#ffffff;fill-opacity:1;fill-rule:nonzero;stroke:none"
             id="path272" /></g><g
           id="g274"
           transform="translate(172.1382,246.9084)"><path
             d="m 0,0 -31.912,0 c -1.229,0 -2.226,0.997 -2.226,2.226 0,1.23 0.997,2.227 2.226,2.227 L 0,4.453 C 1.23,4.453 2.226,3.456 2.226,2.226 2.226,0.997 1.23,0 0,0"
             style="fill:#ffffff;fill-opacity:1;fill-rule:nonzero;stroke:none"
             id="path276" /></g><g
           id="g278"
           transform="translate(172.1382,240.0444)"><path
             d="m 0,0 -31.912,0 c -1.229,0 -2.226,0.997 -2.226,2.226 0,1.23 0.997,2.227 2.226,2.227 L 0,4.453 C 1.23,4.453 2.226,3.456 2.226,2.226 2.226,0.997 1.23,0 0,0"
             style="fill:#ffffff;fill-opacity:1;fill-rule:nonzero;stroke:none"
             id="path280" /></g><g
           id="g282"
           transform="translate(172.1382,233.1792)"><path
             d="m 0,0 -31.912,0 c -1.229,0 -2.226,0.997 -2.226,2.226 0,1.23 0.997,2.227 2.226,2.227 L 0,4.453 C 1.23,4.453 2.226,3.456 2.226,2.226 2.226,0.997 1.23,0 0,0"
             style="fill:#ffffff;fill-opacity:1;fill-rule:nonzero;stroke:none"
             id="path284" /></g><g
           id="g286"
           transform="translate(172.1382,226.3141)"><path
             d="m 0,0 -31.912,0 c -1.229,0 -2.226,0.997 -2.226,2.226 0,1.23 0.997,2.227 2.226,2.227 L 0,4.453 C 1.23,4.453 2.226,3.456 2.226,2.226 2.226,0.997 1.23,0 0,0"
             style="fill:#ffffff;fill-opacity:1;fill-rule:nonzero;stroke:none"
             id="path288" /></g><g
           id="g290"
           transform="translate(172.1382,219.45)"><path
             d="m 0,0 -31.912,0 c -1.229,0 -2.226,0.997 -2.226,2.226 0,1.23 0.997,2.227 2.226,2.227 L 0,4.453 C 1.23,4.453 2.226,3.456 2.226,2.226 2.226,0.997 1.23,0 0,0"
             style="fill:#ffffff;fill-opacity:1;fill-rule:nonzero;stroke:none"
             id="path292" /></g><g
           id="g294"
           transform="translate(172.1382,212.5849)"><path
             d="m 0,0 -31.912,0 c -1.229,0 -2.226,0.997 -2.226,2.226 0,1.23 0.997,2.227 2.226,2.227 L 0,4.453 C 1.23,4.453 2.226,3.456 2.226,2.226 2.226,0.997 1.23,0 0,0"
             style="fill:#ffffff;fill-opacity:1;fill-rule:nonzero;stroke:none"
             id="path296" /></g><g
           id="g298"
           transform="translate(172.1382,205.7198)"><path
             d="m 0,0 -31.912,0 c -1.229,0 -2.226,0.997 -2.226,2.226 0,1.23 0.997,2.227 2.226,2.227 L 0,4.453 C 1.23,4.453 2.226,3.456 2.226,2.226 2.226,0.997 1.23,0 0,0"
             style="fill:#ffffff;fill-opacity:1;fill-rule:nonzero;stroke:none"
             id="path300" /></g><g
           id="g302"
           transform="translate(172.1382,198.8557)"><path
             d="m 0,0 -31.912,0 c -1.229,0 -2.226,0.997 -2.226,2.226 0,1.23 0.997,2.227 2.226,2.227 L 0,4.453 C 1.23,4.453 2.226,3.456 2.226,2.226 2.226,0.997 1.23,0 0,0"
             style="fill:#ffffff;fill-opacity:1;fill-rule:nonzero;stroke:none"
             id="path304" /></g><g
           id="g306"
           transform="translate(371.7736,308.692)"><path
             d="m 0,0 -31.912,0 c -1.23,0 -2.227,0.997 -2.227,2.226 0,1.23 0.997,2.227 2.227,2.227 L 0,4.453 C 1.23,4.453 2.226,3.456 2.226,2.226 2.226,0.997 1.23,0 0,0"
             style="fill:#ffffff;fill-opacity:1;fill-rule:nonzero;stroke:none"
             id="path308" /></g><g
           id="g310"
           transform="translate(371.7736,301.8269)"><path
             d="m 0,0 -31.912,0 c -1.23,0 -2.227,0.997 -2.227,2.226 0,1.23 0.997,2.227 2.227,2.227 L 0,4.453 C 1.23,4.453 2.226,3.456 2.226,2.226 2.226,0.997 1.23,0 0,0"
             style="fill:#ffffff;fill-opacity:1;fill-rule:nonzero;stroke:none"
             id="path312" /></g><g
           id="g314"
           transform="translate(371.7736,294.9622)"><path
             d="m 0,0 -31.912,0 c -1.23,0 -2.227,0.997 -2.227,2.226 0,1.23 0.997,2.227 2.227,2.227 L 0,4.453 C 1.23,4.453 2.226,3.456 2.226,2.226 2.226,0.997 1.23,0 0,0"
             style="fill:#ffffff;fill-opacity:1;fill-rule:nonzero;stroke:none"
             id="path316" /></g><g
           id="g318"
           transform="translate(371.7736,288.0977)"><path
             d="m 0,0 -31.912,0 c -1.23,0 -2.227,0.997 -2.227,2.226 0,1.23 0.997,2.227 2.227,2.227 L 0,4.453 C 1.23,4.453 2.226,3.456 2.226,2.226 2.226,0.997 1.23,0 0,0"
             style="fill:#ffffff;fill-opacity:1;fill-rule:nonzero;stroke:none"
             id="path320" /></g><g
           id="g322"
           transform="translate(371.7736,281.2325)"><path
             d="m 0,0 -31.912,0 c -1.23,0 -2.227,0.997 -2.227,2.226 0,1.23 0.997,2.227 2.227,2.227 L 0,4.453 C 1.23,4.453 2.226,3.456 2.226,2.226 2.226,0.997 1.23,0 0,0"
             style="fill:#ffffff;fill-opacity:1;fill-rule:nonzero;stroke:none"
             id="path324" /></g><g
           id="g326"
           transform="translate(371.7736,274.3679)"><path
             d="m 0,0 -31.912,0 c -1.23,0 -2.227,0.997 -2.227,2.226 0,1.23 0.997,2.227 2.227,2.227 L 0,4.453 C 1.23,4.453 2.226,3.456 2.226,2.226 2.226,0.997 1.23,0 0,0"
             style="fill:#ffffff;fill-opacity:1;fill-rule:nonzero;stroke:none"
             id="path328" /></g><g
           id="g330"
           transform="translate(371.7736,267.5033)"><path
             d="m 0,0 -31.912,0 c -1.23,0 -2.227,0.997 -2.227,2.226 0,1.23 0.997,2.227 2.227,2.227 L 0,4.453 C 1.23,4.453 2.226,3.456 2.226,2.226 2.226,0.997 1.23,0 0,0"
             style="fill:#ffffff;fill-opacity:1;fill-rule:nonzero;stroke:none"
             id="path332" /></g><g
           id="g334"
           transform="translate(371.7736,260.6382)"><path
             d="m 0,0 -31.912,0 c -1.23,0 -2.227,0.997 -2.227,2.226 0,1.23 0.997,2.227 2.227,2.227 L 0,4.453 C 1.23,4.453 2.226,3.456 2.226,2.226 2.226,0.997 1.23,0 0,0"
             style="fill:#ffffff;fill-opacity:1;fill-rule:nonzero;stroke:none"
             id="path336" /></g><g
           id="g338"
           transform="translate(371.7736,253.7736)"><path
             d="m 0,0 -31.912,0 c -1.23,0 -2.227,0.997 -2.227,2.226 0,1.23 0.997,2.227 2.227,2.227 L 0,4.453 C 1.23,4.453 2.226,3.456 2.226,2.226 2.226,0.997 1.23,0 0,0"
             style="fill:#ffffff;fill-opacity:1;fill-rule:nonzero;stroke:none"
             id="path340" /></g><g
           id="g342"
           transform="translate(371.7736,246.9084)"><path
             d="m 0,0 -31.912,0 c -1.23,0 -2.227,0.997 -2.227,2.226 0,1.23 0.997,2.227 2.227,2.227 L 0,4.453 C 1.23,4.453 2.226,3.456 2.226,2.226 2.226,0.997 1.23,0 0,0"
             style="fill:#ffffff;fill-opacity:1;fill-rule:nonzero;stroke:none"
             id="path344" /></g><g
           id="g346"
           transform="translate(371.7736,240.0444)"><path
             d="m 0,0 -31.912,0 c -1.23,0 -2.227,0.997 -2.227,2.226 0,1.23 0.997,2.227 2.227,2.227 L 0,4.453 C 1.23,4.453 2.226,3.456 2.226,2.226 2.226,0.997 1.23,0 0,0"
             style="fill:#ffffff;fill-opacity:1;fill-rule:nonzero;stroke:none"
             id="path348" /></g><g
           id="g350"
           transform="translate(371.7736,233.1792)"><path
             d="m 0,0 -31.912,0 c -1.23,0 -2.227,0.997 -2.227,2.226 0,1.23 0.997,2.227 2.227,2.227 L 0,4.453 C 1.23,4.453 2.226,3.456 2.226,2.226 2.226,0.997 1.23,0 0,0"
             style="fill:#ffffff;fill-opacity:1;fill-rule:nonzero;stroke:none"
             id="path352" /></g><g
           id="g354"
           transform="translate(371.7736,226.3141)"><path
             d="m 0,0 -31.912,0 c -1.23,0 -2.227,0.997 -2.227,2.226 0,1.23 0.997,2.227 2.227,2.227 L 0,4.453 C 1.23,4.453 2.226,3.456 2.226,2.226 2.226,0.997 1.23,0 0,0"
             style="fill:#ffffff;fill-opacity:1;fill-rule:nonzero;stroke:none"
             id="path356" /></g><g
           id="g358"
           transform="translate(371.7736,219.45)"><path
             d="m 0,0 -31.912,0 c -1.23,0 -2.227,0.997 -2.227,2.226 0,1.23 0.997,2.227 2.227,2.227 L 0,4.453 C 1.23,4.453 2.226,3.456 2.226,2.226 2.226,0.997 1.23,0 0,0"
             style="fill:#ffffff;fill-opacity:1;fill-rule:nonzero;stroke:none"
             id="path360" /></g><g
           id="g362"
           transform="translate(371.7736,212.5849)"><path
             d="m 0,0 -31.912,0 c -1.23,0 -2.227,0.997 -2.227,2.226 0,1.23 0.997,2.227 2.227,2.227 L 0,4.453 C 1.23,4.453 2.226,3.456 2.226,2.226 2.226,0.997 1.23,0 0,0"
             style="fill:#ffffff;fill-opacity:1;fill-rule:nonzero;stroke:none"
             id="path364" /></g><g
           id="g366"
           transform="translate(371.7736,205.7198)"><path
             d="m 0,0 -31.912,0 c -1.23,0 -2.227,0.997 -2.227,2.226 0,1.23 0.997,2.227 2.227,2.227 L 0,4.453 C 1.23,4.453 2.226,3.456 2.226,2.226 2.226,0.997 1.23,0 0,0"
             style="fill:#ffffff;fill-opacity:1;fill-rule:nonzero;stroke:none"
             id="path368" /></g><g
           id="g370"
           transform="translate(371.7736,198.8557)"><path
             d="m 0,0 -31.912,0 c -1.23,0 -2.227,0.997 -2.227,2.226 0,1.23 0.997,2.227 2.227,2.227 L 0,4.453 C 1.23,4.453 2.226,3.456 2.226,2.226 2.226,0.997 1.23,0 0,0"
             style="fill:#ffffff;fill-opacity:1;fill-rule:nonzero;stroke:none"
             id="path372" /></g><g
           id="g374"
           transform="translate(201.0816,138)"><path
             d="m 0,0 c -1.23,0 -2.226,0.997 -2.226,2.226 l 0,31.913 c 0,1.229 0.996,2.226 2.226,2.226 1.23,0 2.226,-0.997 2.226,-2.226 l 0,-31.913 C 2.226,0.997 1.23,0 0,0"
             style="fill:#ffffff;fill-opacity:1;fill-rule:nonzero;stroke:none"
             id="path376" /></g><g
           id="g378"
           transform="translate(207.9467,138)"><path
             d="m 0,0 c -1.23,0 -2.226,0.997 -2.226,2.226 l 0,31.913 c 0,1.229 0.996,2.226 2.226,2.226 1.23,0 2.226,-0.997 2.226,-2.226 l 0,-31.913 C 2.226,0.997 1.23,0 0,0"
             style="fill:#ffffff;fill-opacity:1;fill-rule:nonzero;stroke:none"
             id="path380" /></g><g
           id="g382"
           transform="translate(214.8113,138)"><path
             d="m 0,0 c -1.23,0 -2.226,0.997 -2.226,2.226 l 0,31.913 c 0,1.229 0.996,2.226 2.226,2.226 1.23,0 2.226,-0.997 2.226,-2.226 l 0,-31.913 C 2.226,0.997 1.23,0 0,0"
             style="fill:#ffffff;fill-opacity:1;fill-rule:nonzero;stroke:none"
             id="path384" /></g><g
           id="g386"
           transform="translate(221.6759,138)"><path
             d="m 0,0 c -1.23,0 -2.226,0.997 -2.226,2.226 l 0,31.913 c 0,1.229 0.996,2.226 2.226,2.226 1.23,0 2.226,-0.997 2.226,-2.226 l 0,-31.913 C 2.226,0.997 1.23,0 0,0"
             style="fill:#ffffff;fill-opacity:1;fill-rule:nonzero;stroke:none"
             id="path388" /></g><g
           id="g390"
           transform="translate(228.5411,138)"><path
             d="m 0,0 c -1.23,0 -2.226,0.997 -2.226,2.226 l 0,31.913 c 0,1.229 0.996,2.226 2.226,2.226 1.23,0 2.226,-0.997 2.226,-2.226 l 0,-31.913 C 2.226,0.997 1.23,0 0,0"
             style="fill:#ffffff;fill-opacity:1;fill-rule:nonzero;stroke:none"
             id="path392" /></g><g
           id="g394"
           transform="translate(235.4057,138)"><path
             d="m 0,0 c -1.23,0 -2.226,0.997 -2.226,2.226 l 0,31.913 c 0,1.229 0.996,2.226 2.226,2.226 1.23,0 2.226,-0.997 2.226,-2.226 l 0,-31.913 C 2.226,0.997 1.23,0 0,0"
             style="fill:#ffffff;fill-opacity:1;fill-rule:nonzero;stroke:none"
             id="path396" /></g><g
           id="g398"
           transform="translate(242.2703,138)"><path
             d="m 0,0 c -1.23,0 -2.226,0.997 -2.226,2.226 l 0,31.913 c 0,1.229 0.996,2.226 2.226,2.226 1.23,0 2.226,-0.997 2.226,-2.226 l 0,-31.913 C 2.226,0.997 1.23,0 0,0"
             style="fill:#ffffff;fill-opacity:1;fill-rule:nonzero;stroke:none"
             id="path400" /></g><g
           id="g402"
           transform="translate(249.1354,138)"><path
             d="m 0,0 c -1.23,0 -2.226,0.997 -2.226,2.226 l 0,31.913 c 0,1.229 0.996,2.226 2.226,2.226 1.23,0 2.226,-0.997 2.226,-2.226 l 0,-31.913 C 2.226,0.997 1.23,0 0,0"
             style="fill:#ffffff;fill-opacity:1;fill-rule:nonzero;stroke:none"
             id="path404" /></g><g
           id="g406"
           transform="translate(256,138)"><path
             d="m 0,0 c -1.23,0 -2.226,0.997 -2.226,2.226 l 0,31.913 c 0,1.229 0.996,2.226 2.226,2.226 1.23,0 2.226,-0.997 2.226,-2.226 l 0,-31.913 C 2.226,0.997 1.23,0 0,0"
             style="fill:#ffffff;fill-opacity:1;fill-rule:nonzero;stroke:none"
             id="path408" /></g><g
           id="g410"
           transform="translate(262.8651,138)"><path
             d="m 0,0 c -1.23,0 -2.226,0.997 -2.226,2.226 l 0,31.913 c 0,1.229 0.996,2.226 2.226,2.226 1.23,0 2.226,-0.997 2.226,-2.226 l 0,-31.913 C 2.226,0.997 1.23,0 0,0"
             style="fill:#ffffff;fill-opacity:1;fill-rule:nonzero;stroke:none"
             id="path412" /></g><g
           id="g414"
           transform="translate(269.7292,138)"><path
             d="m 0,0 c -1.23,0 -2.226,0.997 -2.226,2.226 l 0,31.913 c 0,1.229 0.996,2.226 2.226,2.226 1.23,0 2.226,-0.997 2.226,-2.226 l 0,-31.913 C 2.226,0.997 1.23,0 0,0"
             style="fill:#ffffff;fill-opacity:1;fill-rule:nonzero;stroke:none"
             id="path416" /></g><g
           id="g418"
           transform="translate(276.5943,138)"><path
             d="m 0,0 c -1.23,0 -2.226,0.997 -2.226,2.226 l 0,31.913 c 0,1.229 0.996,2.226 2.226,2.226 1.23,0 2.226,-0.997 2.226,-2.226 l 0,-31.913 C 2.226,0.997 1.23,0 0,0"
             style="fill:#ffffff;fill-opacity:1;fill-rule:nonzero;stroke:none"
             id="path420" /></g><g
           id="g422"
           transform="translate(283.4595,138)"><path
             d="m 0,0 c -1.23,0 -2.226,0.997 -2.226,2.226 l 0,31.913 c 0,1.229 0.996,2.226 2.226,2.226 1.23,0 2.226,-0.997 2.226,-2.226 l 0,-31.913 C 2.226,0.997 1.23,0 0,0"
             style="fill:#ffffff;fill-opacity:1;fill-rule:nonzero;stroke:none"
             id="path424" /></g><g
           id="g426"
           transform="translate(290.3235,138)"><path
             d="m 0,0 c -1.23,0 -2.226,0.997 -2.226,2.226 l 0,31.913 c 0,1.229 0.996,2.226 2.226,2.226 1.23,0 2.226,-0.997 2.226,-2.226 l 0,-31.913 C 2.226,0.997 1.23,0 0,0"
             style="fill:#ffffff;fill-opacity:1;fill-rule:nonzero;stroke:none"
             id="path428" /></g><g
           id="g430"
           transform="translate(297.1887,138)"><path
             d="m 0,0 c -1.23,0 -2.226,0.997 -2.226,2.226 l 0,31.913 c 0,1.229 0.996,2.226 2.226,2.226 1.23,0 2.226,-0.997 2.226,-2.226 l 0,-31.913 C 2.226,0.997 1.23,0 0,0"
             style="fill:#ffffff;fill-opacity:1;fill-rule:nonzero;stroke:none"
             id="path432" /></g><g
           id="g434"
           transform="translate(304.0538,138)"><path
             d="m 0,0 c -1.23,0 -2.226,0.997 -2.226,2.226 l 0,31.913 c 0,1.229 0.996,2.226 2.226,2.226 1.23,0 2.226,-0.997 2.226,-2.226 l 0,-31.913 C 2.226,0.997 1.23,0 0,0"
             style="fill:#ffffff;fill-opacity:1;fill-rule:nonzero;stroke:none"
             id="path436" /></g><g
           id="g438"
           transform="translate(310.9179,138)"><path
             d="m 0,0 c -1.23,0 -2.226,0.997 -2.226,2.226 l 0,31.913 c 0,1.229 0.996,2.226 2.226,2.226 1.23,0 2.226,-0.997 2.226,-2.226 l 0,-31.913 C 2.226,0.997 1.23,0 0,0"
             style="fill:#ffffff;fill-opacity:1;fill-rule:nonzero;stroke:none"
             id="path440" /></g><g
           id="g442"
           transform="translate(201.0816,337.6354)"><path
             d="m 0,0 c -1.23,0 -2.226,0.997 -2.226,2.226 l 0,31.912 c 0,1.23 0.996,2.227 2.226,2.227 1.23,0 2.226,-0.997 2.226,-2.227 l 0,-31.912 C 2.226,0.997 1.23,0 0,0"
             style="fill:#ffffff;fill-opacity:1;fill-rule:nonzero;stroke:none"
             id="path444" /></g><g
           id="g446"
           transform="translate(207.9467,337.6354)"><path
             d="m 0,0 c -1.23,0 -2.226,0.997 -2.226,2.226 l 0,31.912 c 0,1.23 0.996,2.227 2.226,2.227 1.23,0 2.226,-0.997 2.226,-2.227 l 0,-31.912 C 2.226,0.997 1.23,0 0,0"
             style="fill:#ffffff;fill-opacity:1;fill-rule:nonzero;stroke:none"
             id="path448" /></g><g
           id="g450"
           transform="translate(214.8113,337.6354)"><path
             d="m 0,0 c -1.23,0 -2.226,0.997 -2.226,2.226 l 0,31.912 c 0,1.23 0.996,2.227 2.226,2.227 1.23,0 2.226,-0.997 2.226,-2.227 l 0,-31.912 C 2.226,0.997 1.23,0 0,0"
             style="fill:#ffffff;fill-opacity:1;fill-rule:nonzero;stroke:none"
             id="path452" /></g><g
           id="g454"
           transform="translate(221.6759,337.6354)"><path
             d="m 0,0 c -1.23,0 -2.226,0.997 -2.226,2.226 l 0,31.912 c 0,1.23 0.996,2.227 2.226,2.227 1.23,0 2.226,-0.997 2.226,-2.227 l 0,-31.912 C 2.226,0.997 1.23,0 0,0"
             style="fill:#ffffff;fill-opacity:1;fill-rule:nonzero;stroke:none"
             id="path456" /></g><g
           id="g458"
           transform="translate(228.5411,337.6354)"><path
             d="m 0,0 c -1.23,0 -2.226,0.997 -2.226,2.226 l 0,31.912 c 0,1.23 0.996,2.227 2.226,2.227 1.23,0 2.226,-0.997 2.226,-2.227 l 0,-31.912 C 2.226,0.997 1.23,0 0,0"
             style="fill:#ffffff;fill-opacity:1;fill-rule:nonzero;stroke:none"
             id="path460" /></g><g
           id="g462"
           transform="translate(235.4057,337.6354)"><path
             d="m 0,0 c -1.23,0 -2.226,0.997 -2.226,2.226 l 0,31.912 c 0,1.23 0.996,2.227 2.226,2.227 1.23,0 2.226,-0.997 2.226,-2.227 l 0,-31.912 C 2.226,0.997 1.23,0 0,0"
             style="fill:#ffffff;fill-opacity:1;fill-rule:nonzero;stroke:none"
             id="path464" /></g><g
           id="g466"
           transform="translate(242.2703,337.6354)"><path
             d="m 0,0 c -1.23,0 -2.226,0.997 -2.226,2.226 l 0,31.912 c 0,1.23 0.996,2.227 2.226,2.227 1.23,0 2.226,-0.997 2.226,-2.227 l 0,-31.912 C 2.226,0.997 1.23,0 0,0"
             style="fill:#ffffff;fill-opacity:1;fill-rule:nonzero;stroke:none"
             id="path468" /></g><g
           id="g470"
           transform="translate(249.1354,337.6354)"><path
             d="m 0,0 c -1.23,0 -2.226,0.997 -2.226,2.226 l 0,31.912 c 0,1.23 0.996,2.227 2.226,2.227 1.23,0 2.226,-0.997 2.226,-2.227 l 0,-31.912 C 2.226,0.997 1.23,0 0,0"
             style="fill:#ffffff;fill-opacity:1;fill-rule:nonzero;stroke:none"
             id="path472" /></g><g
           id="g474"
           transform="translate(256,337.6354)"><path
             d="m 0,0 c -1.23,0 -2.226,0.997 -2.226,2.226 l 0,31.912 c 0,1.23 0.996,2.227 2.226,2.227 1.23,0 2.226,-0.997 2.226,-2.227 l 0,-31.912 C 2.226,0.997 1.23,0 0,0"
             style="fill:#ffffff;fill-opacity:1;fill-rule:nonzero;stroke:none"
             id="path476" /></g><g
           id="g478"
           transform="translate(262.8651,337.6354)"><path
             d="m 0,0 c -1.23,0 -2.226,0.997 -2.226,2.226 l 0,31.912 c 0,1.23 0.996,2.227 2.226,2.227 1.23,0 2.226,-0.997 2.226,-2.227 l 0,-31.912 C 2.226,0.997 1.23,0 0,0"
             style="fill:#ffffff;fill-opacity:1;fill-rule:nonzero;stroke:none"
             id="path480" /></g><g
           id="g482"
           transform="translate(269.7292,337.6354)"><path
             d="m 0,0 c -1.23,0 -2.226,0.997 -2.226,2.226 l 0,31.912 c 0,1.23 0.996,2.227 2.226,2.227 1.23,0 2.226,-0.997 2.226,-2.227 l 0,-31.912 C 2.226,0.997 1.23,0 0,0"
             style="fill:#ffffff;fill-opacity:1;fill-rule:nonzero;stroke:none"
             id="path484" /></g><g
           id="g486"
           transform="translate(276.5943,337.6354)"><path
             d="m 0,0 c -1.23,0 -2.226,0.997 -2.226,2.226 l 0,31.912 c 0,1.23 0.996,2.227 2.226,2.227 1.23,0 2.226,-0.997 2.226,-2.227 l 0,-31.912 C 2.226,0.997 1.23,0 0,0"
             style="fill:#ffffff;fill-opacity:1;fill-rule:nonzero;stroke:none"
             id="path488" /></g><g
           id="g490"
           transform="translate(283.4595,337.6354)"><path
             d="m 0,0 c -1.23,0 -2.226,0.997 -2.226,2.226 l 0,31.912 c 0,1.23 0.996,2.227 2.226,2.227 1.23,0 2.226,-0.997 2.226,-2.227 l 0,-31.912 C 2.226,0.997 1.23,0 0,0"
             style="fill:#ffffff;fill-opacity:1;fill-rule:nonzero;stroke:none"
             id="path492" /></g><g
           id="g494"
           transform="translate(290.3235,337.6354)"><path
             d="m 0,0 c -1.23,0 -2.226,0.997 -2.226,2.226 l 0,31.912 c 0,1.23 0.996,2.227 2.226,2.227 1.23,0 2.226,-0.997 2.226,-2.227 l 0,-31.912 C 2.226,0.997 1.23,0 0,0"
             style="fill:#ffffff;fill-opacity:1;fill-rule:nonzero;stroke:none"
             id="path496" /></g><g
           id="g498"
           transform="translate(297.1887,337.6354)"><path
             d="m 0,0 c -1.23,0 -2.226,0.997 -2.226,2.226 l 0,31.912 c 0,1.23 0.996,2.227 2.226,2.227 1.23,0 2.226,-0.997 2.226,-2.227 l 0,-31.912 C 2.226,0.997 1.23,0 0,0"
             style="fill:#ffffff;fill-opacity:1;fill-rule:nonzero;stroke:none"
             id="path500" /></g><g
           id="g502"
           transform="translate(304.0538,337.6354)"><path
             d="m 0,0 c -1.23,0 -2.226,0.997 -2.226,2.226 l 0,31.912 c 0,1.23 0.996,2.227 2.226,2.227 1.23,0 2.226,-0.997 2.226,-2.227 l 0,-31.912 C 2.226,0.997 1.23,0 0,0"
             style="fill:#ffffff;fill-opacity:1;fill-rule:nonzero;stroke:none"
             id="path504" /></g><g
           id="g506"
           transform="translate(310.9179,337.6354)"><path
             d="m 0,0 c -1.23,0 -2.226,0.997 -2.226,2.226 l 0,31.912 c 0,1.23 0.996,2.227 2.226,2.227 1.23,0 2.226,-0.997 2.226,-2.227 l 0,-31.912 C 2.226,0.997 1.23,0 0,0"
             style="fill:#ffffff;fill-opacity:1;fill-rule:nonzero;stroke:none"
             id="path508" /></g><g
           id="g510"
           transform="translate(258.2835,295.0196)" /></g></g></g><path
     d="m 359.99072,330.93241 -33.00924,33.00923 0,4.4e-4 -0.004,0 -5.40666,5.40667 -0.0847,0.0847 c -0.38662,0.36628 -0.90523,0.59396 -1.47995,0.59396 -0.57471,0 -1.09332,-0.22768 -1.47994,-0.59396 l -0.0842,-0.0841 -5.40722,-5.40722 -0.004,0 0,-0.004 -2.88894,-2.88895 0.002,-0.002 -30.12139,-30.12138 0.002,-0.002 c -2.72286,-2.72451 -2.72231,-7.1396 8.8e-4,-9.86301 2.72396,-2.72451 7.1407,-2.72451 9.86411,0 0.0115,0.011 0.0204,0.0231 0.0313,0.0346 l 23.11047,23.10993 0,-67.12829 0.006,0 c -0.0341,-1.82807 0.6418,-3.66714 2.0365,-5.06239 2.72451,-2.72396 7.1407,-2.72396 9.86466,0 1.39471,1.39525 2.07061,3.23432 2.03651,5.06239 l 0.006,0 0,67.13489 22.91359,-22.91304 c 0.0726,-0.0792 0.13859,-0.16169 0.21559,-0.23813 2.72396,-2.72451 7.14015,-2.72451 9.8641,0 2.72231,2.72231 2.72341,7.1352 0.004,9.85915 l 0.0121,0.0115 z m -39.99044,-89.7603 c -43.5355,0 -78.82817,35.29267 -78.82817,78.82817 0,43.53494 35.29267,78.82761 78.82817,78.82761 43.53494,0 78.82761,-35.29267 78.82761,-78.82761 0,-43.5355 -35.29267,-78.82817 -78.82761,-78.82817"
     style="fill:#ffffff;fill-opacity:1;fill-rule:nonzero;stroke:none"
     id="path236-2" /></svg>