<?xml version="1.0" encoding="UTF-8" standalone="no"?>
<svg
   xmlns:dc="http://purl.org/dc/elements/1.1/"
   xmlns:cc="http://creativecommons.org/ns#"
   xmlns:rdf="http://www.w3.org/1999/02/22-rdf-syntax-ns#"
   xmlns:svg="http://www.w3.org/2000/svg"
   xmlns="http://www.w3.org/2000/svg"
   viewBox="0 0 640 640"
   height="640"
   width="640"
   xml:space="preserve"
   version="1.1"
   id="svg2"><metadata
     id="metadata8"><rdf:RDF><cc:Work
         rdf:about=""><dc:format>image/svg+xml</dc:format><dc:type
           rdf:resource="http://purl.org/dc/dcmitype/StillImage" /></cc:Work></rdf:RDF></metadata><defs
     id="defs6"><clipPath
       id="clipPath16"
       clipPathUnits="userSpaceOnUse"><path
         id="path18"
         d="M 0,512 512,512 512,0 0,0 0,512 Z" /></clipPath><clipPath
       id="clipPath24"
       clipPathUnits="userSpaceOnUse"><path
         id="path26"
         d="m 18.325,493.744 475.4,0 0,-475.4877 -475.4,0 0,475.4877 z" /></clipPath><clipPath
       id="clipPath28"
       clipPathUnits="userSpaceOnUse"><path
         id="path30"
         d="M 448.99,63.029 C 389.293,3.332 122.807,3.332 63.11,63.029 3.413,122.726 3.413,389.312 63.01,449.009 c 59.597,59.696 326.283,59.596 385.98,0 59.697,-59.597 59.597,-326.283 0,-385.98" /></clipPath><radialGradient
       id="radialGradient36"
       spreadMethod="pad"
       gradientTransform="matrix(237.72188,0,0,237.72188,256.02499,256)"
       gradientUnits="userSpaceOnUse"
       r="1"
       cy="0"
       cx="0"
       fy="0"
       fx="0"><stop
         id="stop38"
         offset="0"
         style="stop-opacity:1;stop-color:#ffffff" /><stop
         id="stop40"
         offset="0.8587"
         style="stop-opacity:0.14129854;stop-color:#ffffff" /><stop
         id="stop42"
         offset="1"
         style="stop-opacity:0;stop-color:#ffffff" /></radialGradient><mask
       id="mask44"
       height="1"
       width="1"
       y="0"
       x="0"
       maskUnits="userSpaceOnUse"><g
         id="g46"><g
           id="g48"><g
             id="g50"><g
               id="g52"><path
                 id="path54"
                 style="fill:url(#radialGradient36);stroke:none"
                 d="m -32768,32767 65535,0 0,-65535 -65535,0 0,65535 z" /></g></g></g></g></mask><radialGradient
       id="radialGradient56"
       spreadMethod="pad"
       gradientTransform="matrix(237.72188,0,0,237.72188,256.02499,256)"
       gradientUnits="userSpaceOnUse"
       r="1"
       cy="0"
       cx="0"
       fy="0"
       fx="0"><stop
         id="stop58"
         offset="0"
         style="stop-opacity:1;stop-color:#010101" /><stop
         id="stop60"
         offset="0.8587"
         style="stop-opacity:1;stop-color:#010101" /><stop
         id="stop62"
         offset="1"
         style="stop-opacity:1;stop-color:#010101" /></radialGradient><clipPath
       id="clipPath86"
       clipPathUnits="userSpaceOnUse"><path
         id="path88"
         d="m 18.325,493.744 475.4,0 0,-475.4877 -475.4,0 0,475.4877 z" /></clipPath><clipPath
       id="clipPath90"
       clipPathUnits="userSpaceOnUse"><path
         id="path92"
         d="M 448.99,63.029 C 389.293,3.332 122.807,3.332 63.11,63.029 3.413,122.726 3.413,389.312 63.01,449.009 c 59.597,59.696 326.283,59.596 385.98,0 59.697,-59.597 59.597,-326.283 0,-385.98" /></clipPath><radialGradient
       id="radialGradient98"
       spreadMethod="pad"
       gradientTransform="matrix(188.25467,188.36119,-130.35883,130.27895,256.02499,256.04376)"
       gradientUnits="userSpaceOnUse"
       r="1"
       cy="0"
       cx="0"
       fy="0"
       fx="0"><stop
         id="stop100"
         offset="0"
         style="stop-opacity:1;stop-color:#ffffff" /><stop
         id="stop102"
         offset="0.8587"
         style="stop-opacity:0.14129854;stop-color:#ffffff" /><stop
         id="stop104"
         offset="1"
         style="stop-opacity:0;stop-color:#ffffff" /></radialGradient><mask
       id="mask106"
       height="1"
       width="1"
       y="0"
       x="0"
       maskUnits="userSpaceOnUse"><g
         id="g108"><g
           id="g110"><g
             id="g112"><g
               id="g114"><path
                 id="path116"
                 style="fill:url(#radialGradient98);stroke:none"
                 d="m -32768,32767 65535,0 0,-65535 -65535,0 0,65535 z" /></g></g></g></g></mask><radialGradient
       id="radialGradient118"
       spreadMethod="pad"
       gradientTransform="matrix(188.25467,188.36119,-130.35883,130.27895,256.02499,256.04376)"
       gradientUnits="userSpaceOnUse"
       r="1"
       cy="0"
       cx="0"
       fy="0"
       fx="0"><stop
         id="stop120"
         offset="0"
         style="stop-opacity:1;stop-color:#010101" /><stop
         id="stop122"
         offset="0.8587"
         style="stop-opacity:1;stop-color:#010101" /><stop
         id="stop124"
         offset="1"
         style="stop-opacity:1;stop-color:#010101" /></radialGradient><clipPath
       id="clipPath148"
       clipPathUnits="userSpaceOnUse"><path
         id="path150"
         d="m 18.275,493.694 475.387,0 0,-475.4377 -475.387,0 0,475.4377 z" /></clipPath><clipPath
       id="clipPath152"
       clipPathUnits="userSpaceOnUse"><path
         id="path154"
         d="m 63.01,63.029 c 59.697,-59.697 326.183,-59.697 385.88,0 59.697,59.697 59.697,326.183 0,385.88 -59.697,59.696 -326.183,59.696 -385.88,0.1 -59.697,-59.597 -59.597,-326.283 0,-385.98" /></clipPath><radialGradient
       id="radialGradient160"
       spreadMethod="pad"
       gradientTransform="matrix(-188.28767,188.39421,130.38168,130.30179,255.92499,255.99377)"
       gradientUnits="userSpaceOnUse"
       r="1"
       cy="0"
       cx="0"
       fy="0"
       fx="0"><stop
         id="stop162"
         offset="0"
         style="stop-opacity:1;stop-color:#ffffff" /><stop
         id="stop164"
         offset="0.8587"
         style="stop-opacity:0.14129854;stop-color:#ffffff" /><stop
         id="stop166"
         offset="1"
         style="stop-opacity:0;stop-color:#ffffff" /></radialGradient><mask
       id="mask168"
       height="1"
       width="1"
       y="0"
       x="0"
       maskUnits="userSpaceOnUse"><g
         id="g170"><g
           id="g172"><g
             id="g174"><g
               id="g176"><path
                 id="path178"
                 style="fill:url(#radialGradient160);stroke:none"
                 d="m -32768,32767 65535,0 0,-65535 -65535,0 0,65535 z" /></g></g></g></g></mask><radialGradient
       id="radialGradient180"
       spreadMethod="pad"
       gradientTransform="matrix(-188.28767,188.39421,130.38168,130.30179,255.92499,255.99377)"
       gradientUnits="userSpaceOnUse"
       r="1"
       cy="0"
       cx="0"
       fy="0"
       fx="0"><stop
         id="stop182"
         offset="0"
         style="stop-opacity:1;stop-color:#010101" /><stop
         id="stop184"
         offset="0.8587"
         style="stop-opacity:1;stop-color:#010101" /><stop
         id="stop186"
         offset="1"
         style="stop-opacity:1;stop-color:#010101" /></radialGradient><linearGradient
       id="linearGradient218"
       spreadMethod="pad"
       gradientTransform="matrix(0,459.99902,459.99902,0,256.00018,26.000503)"
       gradientUnits="userSpaceOnUse"
       y2="0"
       x2="1"
       y1="0"
       x1="0"><stop
         id="stop220"
         offset="0"
         style="stop-opacity:1;stop-color:#42699a" /><stop
         id="stop222"
         offset="1"
         style="stop-opacity:1;stop-color:#99b8e1" /></linearGradient><clipPath
       id="clipPath230"
       clipPathUnits="userSpaceOnUse"><path
         id="path232"
         d="M 0,512 512,512 512,0 0,0 0,512 Z" /></clipPath><clipPath
       id="clipPath250"
       clipPathUnits="userSpaceOnUse"><path
         id="path252"
         d="m 120.89,367.291 270.22,0 0,-222.579 -270.22,0 0,222.579 z" /></clipPath><linearGradient
       id="linearGradient258"
       spreadMethod="pad"
       gradientTransform="matrix(22.51243,-199.4805,199.4805,22.51243,246.10619,343.24866)"
       gradientUnits="userSpaceOnUse"
       y2="0"
       x2="1"
       y1="0"
       x1="0"><stop
         id="stop260"
         offset="0"
         style="stop-opacity:1;stop-color:#ffffff" /><stop
         id="stop262"
         offset="1"
         style="stop-opacity:0.56862745;stop-color:#ffffff" /></linearGradient><mask
       id="mask264"
       height="1"
       width="1"
       y="0"
       x="0"
       maskUnits="userSpaceOnUse"><g
         id="g266"><g
           id="g268"><g
             id="g270"><g
               id="g272"><path
                 id="path274"
                 style="fill:url(#linearGradient258);stroke:none"
                 d="m -32768,32767 65535,0 0,-65535 -65535,0 0,65535 z" /></g></g></g></g></mask><linearGradient
       id="linearGradient276"
       spreadMethod="pad"
       gradientTransform="matrix(22.5124,199.48,199.48,-22.5124,80.9204,334.3096)"
       gradientUnits="userSpaceOnUse"
       y2="0"
       x2="1"
       y1="0"
       x1="0"><stop
         id="stop278"
         offset="0"
         style="stop-opacity:1;stop-color:#ffffff" /><stop
         id="stop280"
         offset="1"
         style="stop-opacity:1;stop-color:#72cf98" /></linearGradient></defs><g
     transform="matrix(1.25,0,0,-1.25,0,640)"
     id="g10"><g
       id="g12"><g
         clip-path="url(#clipPath16)"
         id="g14"><g
           id="g20"><g
             id="g22" /><g
             id="g64"><g
               style="opacity:0.39999402"
               id="g66"
               clip-path="url(#clipPath24)"><g
                 id="g68"><g
                   id="g70"
                   clip-path="url(#clipPath28)"><g
                     id="g72"><g
                       id="g74" /><g
                       id="g76"
                       mask="url(#mask44)"><g
                         id="g78"><path
                           id="path80"
                           style="fill:url(#radialGradient56);stroke:none"
                           d="M 448.99,63.029 C 389.293,3.332 122.807,3.332 63.11,63.029 3.413,122.726 3.413,389.312 63.01,449.009 c 59.597,59.696 326.283,59.596 385.98,0 59.697,-59.597 59.597,-326.283 0,-385.98" /></g></g></g></g></g></g></g></g><g
           id="g82"><g
             id="g84" /><g
             id="g126"><g
               style="opacity:0.39999402"
               id="g128"
               clip-path="url(#clipPath86)"><g
                 id="g130"><g
                   id="g132"
                   clip-path="url(#clipPath90)"><g
                     id="g134"><g
                       id="g136" /><g
                       id="g138"
                       mask="url(#mask106)"><g
                         id="g140"><path
                           id="path142"
                           style="fill:url(#radialGradient118);stroke:none"
                           d="M 448.99,63.029 C 389.293,3.332 122.807,3.332 63.11,63.029 3.413,122.726 3.413,389.312 63.01,449.009 c 59.597,59.696 326.283,59.596 385.98,0 59.697,-59.597 59.597,-326.283 0,-385.98" /></g></g></g></g></g></g></g></g><g
           id="g144"><g
             id="g146" /><g
             id="g188"><g
               style="opacity:0.39999402"
               id="g190"
               clip-path="url(#clipPath148)"><g
                 id="g192"><g
                   id="g194"
                   clip-path="url(#clipPath152)"><g
                     id="g196"><g
                       id="g198" /><g
                       id="g200"
                       mask="url(#mask168)"><g
                         id="g202"><path
                           id="path204"
                           style="fill:url(#radialGradient180);stroke:none"
                           d="m 63.01,63.029 c 59.697,-59.697 326.183,-59.697 385.88,0 59.697,59.697 59.697,326.183 0,385.88 -59.697,59.696 -326.183,59.696 -385.88,0.1 -59.697,-59.597 -59.597,-326.283 0,-385.98" /></g></g></g></g></g></g></g></g></g></g><g
       id="g206"><g
         id="g208"><g
           id="g214"><g
             id="g216"><path
               id="path224"
               style="fill:url(#linearGradient218);stroke:none"
               d="M 78.721,433.279 C 8.427,362.985 8.427,149.015 78.721,78.721 l 0,0 c 70.294,-70.294 284.264,-70.294 354.558,0 l 0,0 c 70.295,70.294 70.294,284.264 0,354.558 l 0,0 C 398.132,468.426 327.066,486 256,486 l 0,0 C 184.934,486 113.868,468.426 78.721,433.279" /></g></g></g></g><g
       id="g226"><g
         clip-path="url(#clipPath230)"
         id="g228"><g
           transform="translate(165.1856,165.5586)"
           id="g234"><path
             id="path236"
             style="fill:#eeeeec;fill-opacity:1;fill-rule:nonzero;stroke:none"
             d="m 0,0 c -11.858,28.704 -27.577,53.999 -27.927,100.877 -0.361,48.432 41.185,79.789 74.021,79.792 39.755,0.005 74.733,-33.567 76.577,-61.375 1.665,-25.095 -7.266,-61.592 -53.359,-61.321 -22.009,0.128 -44.878,19.274 -44.998,47.759 -0.13,30.739 38.376,33.737 48.087,25.912 3.772,-3.04 3.656,-9.055 0.319,-7.969 -20.733,6.751 -33.542,-6.554 -32.59,-19.79 1.291,-17.96 11.946,-28.645 31.046,-29.554 27.552,-1.309 35.265,25.487 34.56,36.362 -0.855,13.223 -12.384,40.418 -48.246,45.386 C 40.557,158.423 26.523,153.351 16.272,143.412 6.022,133.473 0.259,123.195 -0.583,106.335 -1.454,88.897 2.353,78.665 12.783,55.785 16.509,47.614 26.915,31.128 34.974,14.62 L 0,0 Z" /></g><g
           transform="translate(346.6729,346.228)"
           id="g238"><path
             id="path240"
             style="fill:#a9c4e3;fill-opacity:1;fill-rule:nonzero;stroke:none"
             d="m 0,0 c 11.858,-28.705 27.578,-54 27.927,-100.879 0.361,-48.432 -41.185,-79.788 -74.021,-79.79 -39.755,-0.008 -74.732,33.566 -76.577,61.371 -1.664,25.098 7.266,61.596 53.359,61.323 22.009,-0.128 44.878,-19.274 44.999,-47.758 0.13,-30.738 -38.377,-33.738 -48.088,-25.912 -3.771,3.04 -3.656,9.054 -0.319,7.969 20.733,-6.752 33.542,6.555 32.591,19.79 -1.292,17.96 -11.947,28.643 -31.047,29.552 -27.551,1.309 -35.265,-25.488 -34.56,-36.361 0.856,-13.223 12.384,-40.42 48.246,-45.384 16.933,-2.345 30.967,2.727 41.218,12.666 10.251,9.94 16.014,20.218 16.856,37.075 0.871,17.439 -2.937,27.67 -13.367,50.55 -3.725,8.174 -14.131,24.656 -22.19,41.166 L 0,0 Z" /></g><g
           transform="translate(211.2229,346.3302)"
           id="g242"><path
             id="path244"
             style="fill:#eeeeec;fill-opacity:1;fill-rule:nonzero;stroke:none"
             d="m 0,0 c -32.836,-0.004 -74.315,-31.37 -73.953,-79.803 0.349,-46.877 16.136,-72.199 27.993,-100.902 l 34.888,14.623 c -3.115,6.381 -6.524,12.488 -9.819,18.384 l -7.729,0 0,13.997 c -1.899,3.42 -3.551,6.48 -4.596,8.774 -10.43,22.879 -14.241,33.117 -13.371,50.556 0.843,16.859 6.671,27.037 16.922,36.976 10.251,9.939 24.222,15.087 41.155,12.744 16.959,-2.35 28.412,-9.713 35.932,-18.175 l 7.103,0 0,-10.446 c 3.234,-6.242 4.934,-12.258 5.223,-16.712 0.313,-4.832 -1.211,-12.8 -5.223,-20.055 l 0,-24.86 c 19.054,12.062 23.327,35.646 22.144,53.48 C 74.825,-33.611 39.755,0.005 0,0" /></g><g
           id="g246"><g
             id="g248" /><g
             id="g282"><g
               style="opacity:0.410721"
               id="g284"
               clip-path="url(#clipPath250)"><g
                 id="g286" /><g
                 id="g288"
                 mask="url(#mask264)"><g
                   id="g290"
                   transform="translate(355.2144,366.5124)"><path
                     id="path292"
                     style="fill:none;stroke:url(#linearGradient276);stroke-width:1.20000005;stroke-linecap:butt;stroke-linejoin:miter;stroke-miterlimit:4;stroke-dasharray:none;stroke-opacity:1"
                     d="m 0,0 c -23.459,-9.677 -71.117,-29.475 -72.073,-29.874 -2.999,-1.255 -6.443,-0.775 -8.983,1.254 -15.607,12.745 -35.988,22.529 -56.197,23.606 -0.069,-10e-4 -0.139,-10e-4 -0.209,0 -49.377,3.105 -95.956,-42.058 -96.097,-90.666 0.003,-0.139 0.003,-0.278 0,-0.418 -2.132,-43.063 16.729,-84.24 35.723,-124.927 22.296,9.304 70.247,29.372 71.447,29.874 2.998,1.256 6.443,0.775 8.983,-1.253 15.328,-12.81 34.84,-22.393 54.525,-23.816 0.069,0.001 0.139,0.001 0.209,0 48.539,-4.073 94.882,39.19 97.351,86.697 0.068,0.071 0.138,0.14 0.209,0.209 C 38.401,-85.049 18.582,-42.546 0,0 Z" /></g></g></g></g></g></g></g></g></svg>