<?xml version="1.0" encoding="utf-8"?>
<!-- Generator: Adobe Illustrator 18.0.0, SVG Export Plug-In . SVG Version: 6.00 Build 0)  -->
<!DOCTYPE svg PUBLIC "-//W3C//DTD SVG 1.1//EN" "http://www.w3.org/Graphics/SVG/1.1/DTD/svg11.dtd">
<svg version="1.1" xmlns="http://www.w3.org/2000/svg" xmlns:xlink="http://www.w3.org/1999/xlink" x="0px" y="0px"
	 viewBox="0 0 512 512" enable-background="new 0 0 512 512" xml:space="preserve">
<g id="Layer_3">
	<g>
		<g opacity="0.4" enable-background="new    ">
			
				<radialGradient id="SVGID_1_" cx="1.0125" cy="515" r="118.8609" gradientTransform="matrix(2 0 0 -2 254 1286)" gradientUnits="userSpaceOnUse">
				<stop  offset="0" style="stop-color:#020202"/>
				<stop  offset="0.8587" style="stop-color:#020202;stop-opacity:0.1413"/>
				<stop  offset="1" style="stop-color:#020202;stop-opacity:0"/>
			</radialGradient>
			<path fill="url(#SVGID_1_)" d="M449,449c-59.7,59.7-326.2,59.7-385.9,0S3.4,122.7,63,63s326.3-59.6,386,0S508.6,389.3,449,449z"
				/>
		</g>
		<g opacity="0.4" enable-background="new    ">
			
				<radialGradient id="SVGID_2_" cx="2.0286" cy="516.0684" r="133.1551" gradientTransform="matrix(1.4138 -1.4146 -0.979 -0.9784 758.388 763.7472)" gradientUnits="userSpaceOnUse">
				<stop  offset="0" style="stop-color:#020202"/>
				<stop  offset="0.8587" style="stop-color:#020202;stop-opacity:0.1413"/>
				<stop  offset="1" style="stop-color:#020202;stop-opacity:0"/>
			</radialGradient>
			<path fill="url(#SVGID_2_)" d="M449,449c-59.7,59.7-326.2,59.7-385.9,0S3.4,122.7,63,63s326.3-59.6,386,0S508.6,389.3,449,449z"
				/>
		</g>
		<g opacity="0.4" enable-background="new    ">
			
				<radialGradient id="SVGID_3_" cx="3.4424" cy="513.9732" r="133.1784" gradientTransform="matrix(-1.4138 -1.4146 0.979 -0.9784 -242.3879 763.7472)" gradientUnits="userSpaceOnUse">
				<stop  offset="0" style="stop-color:#020202"/>
				<stop  offset="0.8587" style="stop-color:#020202;stop-opacity:0.1413"/>
				<stop  offset="1" style="stop-color:#020202;stop-opacity:0"/>
			</radialGradient>
			<path fill="url(#SVGID_3_)" d="M63,449c59.7,59.7,326.2,59.7,385.9,0s59.7-326.2,0-385.9S122.7,3.4,63,63S3.4,389.3,63,449z"/>
		</g>
	</g>
	<path fill="#8551A0" d="M433.3,433.3c-70.3,70.3-284.3,70.3-354.6,0S8.4,149,78.7,78.7s284.3-70.3,354.6,0S503.6,363,433.3,433.3z"
		/>
</g>
<g id="Layer_4">
	<g>
		<path fill="#FFFFFF" d="M271.1,100.5C336,108,386.4,163.1,386.4,230c0,72-58.4,130.4-130.4,130.4S125.6,302,125.6,230
			c0-66.9,50.4-122,115.2-129.5C161.7,108.1,99.8,174.8,99.8,256c0,86.3,69.9,156.2,156.2,156.2S412.2,342.3,412.2,256
			C412.2,174.8,350.3,108.1,271.1,100.5z"/>
		<path fill="#3D3D3D" d="M125.6,230c0,72,58.4,130.4,130.4,130.4S386.4,302,386.4,230c0-66.9-50.4-122-115.2-129.5
			c-5-0.5-10-0.7-15.1-0.7s-10.1,0.3-15.1,0.7C176,108,125.6,163.1,125.6,230z M256,152.1c57.4,0,103.9,46.5,103.9,103.9
			c0,57.4-46.5,103.9-103.9,103.9S152.1,313.4,152.1,256C152.1,198.6,198.6,152.1,256,152.1z"/>
	</g>
	<g>
		<path fill="#FFFFFF" d="M320.1,252.8L221.6,196c-1.1-0.7-2.6-0.7-3.7,0c-1.1,0.7-1.9,1.9-1.9,3.2v113.6c0,1.3,0.7,2.5,1.9,3.2
			c0.6,0.3,1.2,0.5,1.9,0.5s1.3-0.2,1.9-0.5l98.4-56.8c1.1-0.7,1.9-1.9,1.9-3.2C321.9,254.7,321.2,253.5,320.1,252.8z"/>
		<path fill="#3D3D3D" d="M298.3,266.4l-77.4-44.7c-0.9-0.5-2-0.5-2.9,0c-0.9,0.5-1.5,1.5-1.5,2.5v89.4c0,1,0.6,2,1.5,2.5
			c0.5,0.3,1,0.4,1.5,0.4c0.5,0,1-0.1,1.5-0.4l77.4-44.7c0.9-0.5,1.5-1.5,1.5-2.5S299.2,266.9,298.3,266.4z"/>
	</g>
</g>
</svg>
