<?xml version="1.0" encoding="utf-8"?>
<!-- Generator: Adobe Illustrator 18.0.0, SVG Export Plug-In . SVG Version: 6.00 Build 0)  -->
<!DOCTYPE svg PUBLIC "-//W3C//DTD SVG 1.1//EN" "http://www.w3.org/Graphics/SVG/1.1/DTD/svg11.dtd">
<svg version="1.1" id="Layer_3" xmlns="http://www.w3.org/2000/svg" xmlns:xlink="http://www.w3.org/1999/xlink" x="0px" y="0px"
	 viewBox="0 0 512 512" enable-background="new 0 0 512 512" xml:space="preserve">
<g>
	<g opacity="0.4" enable-background="new    ">
		
			<radialGradient id="SVGID_1_" cx="1.0125" cy="515" r="118.8609" gradientTransform="matrix(2 0 0 -2 254 1286)" gradientUnits="userSpaceOnUse">
			<stop  offset="0" style="stop-color:#010101"/>
			<stop  offset="0.8587" style="stop-color:#010101;stop-opacity:0.1413"/>
			<stop  offset="1" style="stop-color:#010101;stop-opacity:0"/>
		</radialGradient>
		<path fill="url(#SVGID_1_)" d="M449,449c-59.7,59.7-326.2,59.7-385.9,0S3.4,122.7,63,63s326.3-59.6,386,0S508.6,389.3,449,449z"/>
	</g>
	<g opacity="0.4" enable-background="new    ">
		
			<radialGradient id="SVGID_2_" cx="2.0286" cy="516.0684" r="133.1551" gradientTransform="matrix(1.4138 -1.4146 -0.979 -0.9784 758.388 763.7472)" gradientUnits="userSpaceOnUse">
			<stop  offset="0" style="stop-color:#010101"/>
			<stop  offset="0.8587" style="stop-color:#010101;stop-opacity:0.1413"/>
			<stop  offset="1" style="stop-color:#010101;stop-opacity:0"/>
		</radialGradient>
		<path fill="url(#SVGID_2_)" d="M449,449c-59.7,59.7-326.2,59.7-385.9,0S3.4,122.7,63,63s326.3-59.6,386,0S508.6,389.3,449,449z"/>
	</g>
	<g opacity="0.4" enable-background="new    ">
		
			<radialGradient id="SVGID_3_" cx="3.4424" cy="513.9732" r="133.1784" gradientTransform="matrix(-1.4138 -1.4146 0.979 -0.9784 -242.3879 763.7472)" gradientUnits="userSpaceOnUse">
			<stop  offset="0" style="stop-color:#010101"/>
			<stop  offset="0.8587" style="stop-color:#010101;stop-opacity:0.1413"/>
			<stop  offset="1" style="stop-color:#010101;stop-opacity:0"/>
		</radialGradient>
		<path fill="url(#SVGID_3_)" d="M63,449c59.7,59.7,326.2,59.7,385.9,0s59.7-326.2,0-385.9S122.7,3.4,63,63S3.4,389.3,63,449z"/>
	</g>
</g>
<path fill="#191919" d="M433.3,433.3c-70.3,70.3-284.3,70.3-354.6,0S8.4,149,78.7,78.7s284.3-70.3,354.6,0S503.6,363,433.3,433.3z"
	/>
<g>
	<g>
		<radialGradient id="SVGID_4_" cx="256" cy="256" r="111.3333" gradientUnits="userSpaceOnUse">
			<stop  offset="0" style="stop-color:#000000;stop-opacity:0"/>
			<stop  offset="0.2087" style="stop-color:#000103;stop-opacity:6.686956e-02"/>
			<stop  offset="0.3395" style="stop-color:#01050B;stop-opacity:0.1088"/>
			<stop  offset="0.449" style="stop-color:#030B1A;stop-opacity:0.1438"/>
			<stop  offset="0.5466" style="stop-color:#05142E;stop-opacity:0.1751"/>
			<stop  offset="0.6363" style="stop-color:#072049;stop-opacity:0.2039"/>
			<stop  offset="0.7204" style="stop-color:#0A2E6A;stop-opacity:0.2308"/>
			<stop  offset="0.8" style="stop-color:#0E3F91;stop-opacity:0.2563"/>
			<stop  offset="0.8741" style="stop-color:#1352BE;stop-opacity:0.2801"/>
			<stop  offset="0.9364" style="stop-color:#1765E9;stop-opacity:0.3"/>
			<stop  offset="1" style="stop-color:#1765E9;stop-opacity:0"/>
		</radialGradient>
		<circle fill="url(#SVGID_4_)" cx="256" cy="256" r="111.3"/>
		<radialGradient id="SVGID_5_" cx="256" cy="256" r="100.5" gradientUnits="userSpaceOnUse">
			<stop  offset="0" style="stop-color:#FFFFFF"/>
			<stop  offset="1" style="stop-color:#CBCBCB"/>
		</radialGradient>
		<circle fill="url(#SVGID_5_)" cx="256" cy="256" r="100.5"/>
		<g>
			<radialGradient id="SVGID_6_" cx="208.4203" cy="256.8692" r="105.7999" gradientUnits="userSpaceOnUse">
				<stop  offset="0" style="stop-color:#FFFFFF;stop-opacity:0.5"/>
				<stop  offset="1" style="stop-color:#000000;stop-opacity:0"/>
			</radialGradient>
			<path fill="url(#SVGID_6_)" d="M217.6,348.9l38.3-92.9L163,294.3C173.2,319,193,338.7,217.6,348.9z"/>
			
				<radialGradient id="SVGID_7_" cx="303.0139" cy="164.8466" r="94.9709" gradientTransform="matrix(1 0 0 1.0937 0 -15.4502)" gradientUnits="userSpaceOnUse">
				<stop  offset="0" style="stop-color:#FFFFFF;stop-opacity:0.5"/>
				<stop  offset="1" style="stop-color:#000000;stop-opacity:0"/>
			</radialGradient>
			<path fill="url(#SVGID_7_)" d="M294.3,163.1l-38.2,92.8l92.8-38.3C338.7,192.9,319,173.2,294.3,163.1z"/>
		</g>
		<g>
			<radialGradient id="SVGID_8_" cx="301.4201" cy="256.9518" r="105.7289" gradientUnits="userSpaceOnUse">
				<stop  offset="0" style="stop-color:#FFFFFF;stop-opacity:0.5"/>
				<stop  offset="1" style="stop-color:#000000;stop-opacity:0"/>
			</radialGradient>
			<path fill="url(#SVGID_8_)" d="M348.9,294.3l-92.9-38.3l38.3,92.9C319,338.7,338.7,319,348.9,294.3z"/>
			
				<radialGradient id="SVGID_9_" cx="210.0437" cy="164.8599" r="95.0352" gradientTransform="matrix(1 0 0 1.0937 0 -15.4515)" gradientUnits="userSpaceOnUse">
				<stop  offset="0" style="stop-color:#FFFFFF;stop-opacity:0.5"/>
				<stop  offset="1" style="stop-color:#000000;stop-opacity:0"/>
			</radialGradient>
			<path fill="url(#SVGID_9_)" d="M163.1,217.7l92.9,38.3l-38.3-92.9C193,173.3,173.3,193,163.1,217.7z"/>
		</g>
		<linearGradient id="SVGID_10_" gradientUnits="userSpaceOnUse" x1="182.4954" y1="329.5046" x2="329.5046" y2="182.4954">
			<stop  offset="0" style="stop-color:#FFFFFF"/>
			<stop  offset="0.1046" style="stop-color:#BDBDBD"/>
			<stop  offset="0.2005" style="stop-color:#878787"/>
			<stop  offset="0.283" style="stop-color:#616161"/>
			<stop  offset="0.3489" style="stop-color:#4A4A4A"/>
			<stop  offset="0.39" style="stop-color:#414141"/>
			<stop  offset="0.7154" style="stop-color:#FFFFFF"/>
			<stop  offset="1" style="stop-color:#434343"/>
		</linearGradient>
		<path fill="url(#SVGID_10_)" d="M256,360c-57.3,0-104-46.7-104-104s46.7-104,104-104s104,46.7,104,104S313.3,360,256,360z
			 M256,159c-53.5,0-97,43.5-97,97c0,53.5,43.5,97,97,97c53.5,0,97-43.5,97-97C353,202.5,309.5,159,256,159z"/>
	</g>
	<g>
		<linearGradient id="SVGID_11_" gradientUnits="userSpaceOnUse" x1="256" y1="114.25" x2="256" y2="397.75">
			<stop  offset="0" style="stop-color:#FFFFFF"/>
			<stop  offset="0.1923" style="stop-color:#FCFCFC;stop-opacity:0.7908"/>
			<stop  offset="0.3165" style="stop-color:#F4F4F4;stop-opacity:0.6557"/>
			<stop  offset="0.4214" style="stop-color:#E5E5E5;stop-opacity:0.5415"/>
			<stop  offset="0.5157" style="stop-color:#D0D0D0;stop-opacity:0.439"/>
			<stop  offset="0.6027" style="stop-color:#B5B5B5;stop-opacity:0.3444"/>
			<stop  offset="0.6845" style="stop-color:#939393;stop-opacity:0.2553"/>
			<stop  offset="0.7622" style="stop-color:#6B6B6B;stop-opacity:0.1708"/>
			<stop  offset="0.8366" style="stop-color:#3D3D3D;stop-opacity:8.989149e-02"/>
			<stop  offset="0.906" style="stop-color:#0B0B0B;stop-opacity:1.441705e-02"/>
			<stop  offset="0.9193" style="stop-color:#000000;stop-opacity:0"/>
			<stop  offset="0.9305" style="stop-color:#000000;stop-opacity:0"/>
			<stop  offset="1" style="stop-color:#000000;stop-opacity:0"/>
		</linearGradient>
		<path display="none" fill="url(#SVGID_11_)" d="M256,117.2c76.5,0,138.8,62.2,138.8,138.8S332.5,394.8,256,394.8
			S117.2,332.5,117.2,256S179.5,117.2,256,117.2 M256,383c70,0,127-57,127-127s-57-127-127-127s-127,57-127,127S186,383,256,383
			 M256,114.2c-78.2,0-141.8,63.6-141.8,141.8S177.8,397.8,256,397.8S397.8,334.2,397.8,256S334.2,114.2,256,114.2L256,114.2z
			 M256,380c-68.4,0-124-55.6-124-124s55.6-124,124-124s124,55.6,124,124S324.4,380,256,380L256,380z"/>
		<linearGradient id="SVGID_12_" gradientUnits="userSpaceOnUse" x1="256" y1="117.25" x2="256" y2="394.75">
			<stop  offset="0" style="stop-color:#0B7BFF"/>
			<stop  offset="0.3354" style="stop-color:#0B00FF"/>
			<stop  offset="0.4575" style="stop-color:#0B00FC;stop-opacity:0.7908"/>
			<stop  offset="0.5364" style="stop-color:#0B00F4;stop-opacity:0.6557"/>
			<stop  offset="0.6031" style="stop-color:#0A00E5;stop-opacity:0.5415"/>
			<stop  offset="0.6629" style="stop-color:#0900D0;stop-opacity:0.439"/>
			<stop  offset="0.7182" style="stop-color:#0800B5;stop-opacity:0.3444"/>
			<stop  offset="0.7702" style="stop-color:#060093;stop-opacity:0.2553"/>
			<stop  offset="0.8195" style="stop-color:#05006B;stop-opacity:0.1708"/>
			<stop  offset="0.8668" style="stop-color:#03003D;stop-opacity:8.989149e-02"/>
			<stop  offset="0.9108" style="stop-color:#00000B;stop-opacity:1.441705e-02"/>
			<stop  offset="0.9193" style="stop-color:#000000;stop-opacity:0"/>
			<stop  offset="0.9305" style="stop-color:#000000;stop-opacity:0"/>
			<stop  offset="1" style="stop-color:#000000;stop-opacity:0"/>
		</linearGradient>
		<path fill="url(#SVGID_12_)" d="M256,394.8c-76.5,0-138.8-62.2-138.8-138.8S179.5,117.2,256,117.2S394.8,179.5,394.8,256
			S332.5,394.8,256,394.8z M256,129c-70,0-127,57-127,127s57,127,127,127s127-57,127-127S326,129,256,129z"/>
	</g>
	<linearGradient id="SVGID_13_" gradientUnits="userSpaceOnUse" x1="256" y1="110.75" x2="256" y2="401.25">
		<stop  offset="4.905336e-02" style="stop-color:#1700E9;stop-opacity:0.1"/>
		<stop  offset="0.1123" style="stop-color:#1300BE;stop-opacity:9.335399e-02"/>
		<stop  offset="0.1875" style="stop-color:#0E0091;stop-opacity:8.544160e-02"/>
		<stop  offset="0.2684" style="stop-color:#0A006A;stop-opacity:7.693554e-02"/>
		<stop  offset="0.3537" style="stop-color:#070049;stop-opacity:6.795958e-02"/>
		<stop  offset="0.4449" style="stop-color:#05002E;stop-opacity:5.837231e-02"/>
		<stop  offset="0.544" style="stop-color:#03001A;stop-opacity:4.794822e-02"/>
		<stop  offset="0.6552" style="stop-color:#01000B;stop-opacity:3.625965e-02"/>
		<stop  offset="0.788" style="stop-color:#000003;stop-opacity:2.228986e-02"/>
		<stop  offset="1" style="stop-color:#000000;stop-opacity:0"/>
	</linearGradient>
	<path fill="url(#SVGID_13_)" d="M256,110.8c-80.1,0-145.2,65.2-145.2,145.2c0,80.1,65.2,145.2,145.2,145.2
		c80.1,0,145.2-65.2,145.2-145.2C401.2,175.9,336.1,110.8,256,110.8z M256,376.5c-66.4,0-120.5-54-120.5-120.5
		c0-66.4,54-120.5,120.5-120.5c66.4,0,120.5,54,120.5,120.5C376.5,322.4,322.4,376.5,256,376.5z"/>
</g>
</svg>
