<?xml version="1.0" encoding="UTF-8" standalone="no"?>
<svg
   xmlns:dc="http://purl.org/dc/elements/1.1/"
   xmlns:cc="http://creativecommons.org/ns#"
   xmlns:rdf="http://www.w3.org/1999/02/22-rdf-syntax-ns#"
   xmlns:svg="http://www.w3.org/2000/svg"
   xmlns="http://www.w3.org/2000/svg"
   viewBox="0 0 640 640"
   height="640"
   width="640"
   xml:space="preserve"
   version="1.1"
   id="svg2"><metadata
     id="metadata8"><rdf:RDF><cc:Work
         rdf:about=""><dc:format>image/svg+xml</dc:format><dc:type
           rdf:resource="http://purl.org/dc/dcmitype/StillImage" /></cc:Work></rdf:RDF></metadata><defs
     id="defs6"><clipPath
       id="clipPath16"
       clipPathUnits="userSpaceOnUse"><path
         id="path18"
         d="M 0,512 512,512 512,0 0,0 0,512 Z" /></clipPath><clipPath
       id="clipPath24"
       clipPathUnits="userSpaceOnUse"><path
         id="path26"
         d="m 18.325,493.744 475.4,0 0,-475.4877 -475.4,0 0,475.4877 z" /></clipPath><clipPath
       id="clipPath28"
       clipPathUnits="userSpaceOnUse"><path
         id="path30"
         d="M 448.99,63.029 C 389.293,3.332 122.807,3.332 63.11,63.029 3.413,122.726 3.413,389.312 63.01,449.009 c 59.597,59.696 326.283,59.596 385.98,0 59.697,-59.597 59.597,-326.283 0,-385.98" /></clipPath><radialGradient
       id="radialGradient36"
       spreadMethod="pad"
       gradientTransform="matrix(237.72188,0,0,237.72188,256.02499,256)"
       gradientUnits="userSpaceOnUse"
       r="1"
       cy="0"
       cx="0"
       fy="0"
       fx="0"><stop
         id="stop38"
         offset="0"
         style="stop-opacity:1;stop-color:#ffffff" /><stop
         id="stop40"
         offset="0.8587"
         style="stop-opacity:0.14129854;stop-color:#ffffff" /><stop
         id="stop42"
         offset="1"
         style="stop-opacity:0;stop-color:#ffffff" /></radialGradient><mask
       id="mask44"
       height="1"
       width="1"
       y="0"
       x="0"
       maskUnits="userSpaceOnUse"><g
         id="g46"><g
           id="g48"><g
             id="g50"><g
               id="g52"><path
                 id="path54"
                 style="fill:url(#radialGradient36);stroke:none"
                 d="m -32768,32767 65535,0 0,-65535 -65535,0 0,65535 z" /></g></g></g></g></mask><radialGradient
       id="radialGradient56"
       spreadMethod="pad"
       gradientTransform="matrix(237.72188,0,0,237.72188,256.02499,256)"
       gradientUnits="userSpaceOnUse"
       r="1"
       cy="0"
       cx="0"
       fy="0"
       fx="0"><stop
         id="stop58"
         offset="0"
         style="stop-opacity:1;stop-color:#010101" /><stop
         id="stop60"
         offset="0.8587"
         style="stop-opacity:1;stop-color:#010101" /><stop
         id="stop62"
         offset="1"
         style="stop-opacity:1;stop-color:#010101" /></radialGradient><clipPath
       id="clipPath86"
       clipPathUnits="userSpaceOnUse"><path
         id="path88"
         d="m 18.325,493.744 475.4,0 0,-475.4877 -475.4,0 0,475.4877 z" /></clipPath><clipPath
       id="clipPath90"
       clipPathUnits="userSpaceOnUse"><path
         id="path92"
         d="M 448.99,63.029 C 389.293,3.332 122.807,3.332 63.11,63.029 3.413,122.726 3.413,389.312 63.01,449.009 c 59.597,59.696 326.283,59.596 385.98,0 59.697,-59.597 59.597,-326.283 0,-385.98" /></clipPath><radialGradient
       id="radialGradient98"
       spreadMethod="pad"
       gradientTransform="matrix(188.25467,188.36119,-130.35883,130.27895,256.02499,256.04376)"
       gradientUnits="userSpaceOnUse"
       r="1"
       cy="0"
       cx="0"
       fy="0"
       fx="0"><stop
         id="stop100"
         offset="0"
         style="stop-opacity:1;stop-color:#ffffff" /><stop
         id="stop102"
         offset="0.8587"
         style="stop-opacity:0.14129854;stop-color:#ffffff" /><stop
         id="stop104"
         offset="1"
         style="stop-opacity:0;stop-color:#ffffff" /></radialGradient><mask
       id="mask106"
       height="1"
       width="1"
       y="0"
       x="0"
       maskUnits="userSpaceOnUse"><g
         id="g108"><g
           id="g110"><g
             id="g112"><g
               id="g114"><path
                 id="path116"
                 style="fill:url(#radialGradient98);stroke:none"
                 d="m -32768,32767 65535,0 0,-65535 -65535,0 0,65535 z" /></g></g></g></g></mask><radialGradient
       id="radialGradient118"
       spreadMethod="pad"
       gradientTransform="matrix(188.25467,188.36119,-130.35883,130.27895,256.02499,256.04376)"
       gradientUnits="userSpaceOnUse"
       r="1"
       cy="0"
       cx="0"
       fy="0"
       fx="0"><stop
         id="stop120"
         offset="0"
         style="stop-opacity:1;stop-color:#010101" /><stop
         id="stop122"
         offset="0.8587"
         style="stop-opacity:1;stop-color:#010101" /><stop
         id="stop124"
         offset="1"
         style="stop-opacity:1;stop-color:#010101" /></radialGradient><clipPath
       id="clipPath148"
       clipPathUnits="userSpaceOnUse"><path
         id="path150"
         d="m 18.275,493.694 475.387,0 0,-475.4377 -475.387,0 0,475.4377 z" /></clipPath><clipPath
       id="clipPath152"
       clipPathUnits="userSpaceOnUse"><path
         id="path154"
         d="m 63.01,63.029 c 59.697,-59.697 326.183,-59.697 385.88,0 59.697,59.697 59.697,326.183 0,385.88 -59.697,59.696 -326.183,59.696 -385.88,0.1 -59.697,-59.597 -59.597,-326.283 0,-385.98" /></clipPath><radialGradient
       id="radialGradient160"
       spreadMethod="pad"
       gradientTransform="matrix(-188.28767,188.39421,130.38168,130.30179,255.92499,255.99377)"
       gradientUnits="userSpaceOnUse"
       r="1"
       cy="0"
       cx="0"
       fy="0"
       fx="0"><stop
         id="stop162"
         offset="0"
         style="stop-opacity:1;stop-color:#ffffff" /><stop
         id="stop164"
         offset="0.8587"
         style="stop-opacity:0.14129854;stop-color:#ffffff" /><stop
         id="stop166"
         offset="1"
         style="stop-opacity:0;stop-color:#ffffff" /></radialGradient><mask
       id="mask168"
       height="1"
       width="1"
       y="0"
       x="0"
       maskUnits="userSpaceOnUse"><g
         id="g170"><g
           id="g172"><g
             id="g174"><g
               id="g176"><path
                 id="path178"
                 style="fill:url(#radialGradient160);stroke:none"
                 d="m -32768,32767 65535,0 0,-65535 -65535,0 0,65535 z" /></g></g></g></g></mask><radialGradient
       id="radialGradient180"
       spreadMethod="pad"
       gradientTransform="matrix(-188.28767,188.39421,130.38168,130.30179,255.92499,255.99377)"
       gradientUnits="userSpaceOnUse"
       r="1"
       cy="0"
       cx="0"
       fy="0"
       fx="0"><stop
         id="stop182"
         offset="0"
         style="stop-opacity:1;stop-color:#010101" /><stop
         id="stop184"
         offset="0.8587"
         style="stop-opacity:1;stop-color:#010101" /><stop
         id="stop186"
         offset="1"
         style="stop-opacity:1;stop-color:#010101" /></radialGradient><linearGradient
       id="linearGradient218"
       spreadMethod="pad"
       gradientTransform="matrix(0,-460,-460,0,256,486)"
       gradientUnits="userSpaceOnUse"
       y2="0"
       x2="1"
       y1="0"
       x1="0"><stop
         id="stop220"
         offset="0"
         style="stop-opacity:1;stop-color:#ff1300" /><stop
         id="stop222"
         offset="1"
         style="stop-opacity:1;stop-color:#ff1400" /></linearGradient><clipPath
       id="clipPath230"
       clipPathUnits="userSpaceOnUse"><path
         id="path232"
         d="M 0,512 512,512 512,0 0,0 0,512 Z" /></clipPath></defs><g
     transform="matrix(1.25,0,0,-1.25,0,640)"
     id="g10"><g
       id="g12"><g
         clip-path="url(#clipPath16)"
         id="g14"><g
           id="g20"><g
             id="g22" /><g
             id="g64"><g
               style="opacity:0.39999402"
               id="g66"
               clip-path="url(#clipPath24)"><g
                 id="g68"><g
                   id="g70"
                   clip-path="url(#clipPath28)"><g
                     id="g72"><g
                       id="g74" /><g
                       id="g76"
                       mask="url(#mask44)"><g
                         id="g78"><path
                           id="path80"
                           style="fill:url(#radialGradient56);stroke:none"
                           d="M 448.99,63.029 C 389.293,3.332 122.807,3.332 63.11,63.029 3.413,122.726 3.413,389.312 63.01,449.009 c 59.597,59.696 326.283,59.596 385.98,0 59.697,-59.597 59.597,-326.283 0,-385.98" /></g></g></g></g></g></g></g></g><g
           id="g82"><g
             id="g84" /><g
             id="g126"><g
               style="opacity:0.39999402"
               id="g128"
               clip-path="url(#clipPath86)"><g
                 id="g130"><g
                   id="g132"
                   clip-path="url(#clipPath90)"><g
                     id="g134"><g
                       id="g136" /><g
                       id="g138"
                       mask="url(#mask106)"><g
                         id="g140"><path
                           id="path142"
                           style="fill:url(#radialGradient118);stroke:none"
                           d="M 448.99,63.029 C 389.293,3.332 122.807,3.332 63.11,63.029 3.413,122.726 3.413,389.312 63.01,449.009 c 59.597,59.696 326.283,59.596 385.98,0 59.697,-59.597 59.597,-326.283 0,-385.98" /></g></g></g></g></g></g></g></g><g
           id="g144"><g
             id="g146" /><g
             id="g188"><g
               style="opacity:0.39999402"
               id="g190"
               clip-path="url(#clipPath148)"><g
                 id="g192"><g
                   id="g194"
                   clip-path="url(#clipPath152)"><g
                     id="g196"><g
                       id="g198" /><g
                       id="g200"
                       mask="url(#mask168)"><g
                         id="g202"><path
                           id="path204"
                           style="fill:url(#radialGradient180);stroke:none"
                           d="m 63.01,63.029 c 59.697,-59.697 326.183,-59.697 385.88,0 59.697,59.697 59.697,326.183 0,385.88 -59.697,59.696 -326.183,59.696 -385.88,0.1 -59.697,-59.597 -59.597,-326.283 0,-385.98" /></g></g></g></g></g></g></g></g></g></g><g
       id="g206"><g
         id="g208"><g
           id="g214"><g
             id="g216"><path
               id="path224"
               style="fill:url(#linearGradient218);stroke:none"
               d="M 78.721,433.279 C 8.427,362.985 8.427,149.015 78.721,78.721 l 0,0 c 70.294,-70.294 284.264,-70.294 354.558,0 l 0,0 c 70.294,70.294 70.294,284.264 0,354.558 l 0,0 C 398.132,468.426 327.066,486 256,486 l 0,0 C 184.934,486 113.868,468.426 78.721,433.279" /></g></g></g></g><g
       id="g226"><g
         clip-path="url(#clipPath230)"
         id="g228"><g
           transform="translate(240.6283,368.123)"
           id="g234"><path
             id="path236"
             style="fill:#ffffff;fill-opacity:1;fill-rule:nonzero;stroke:none"
             d="m 0,0 c -0.564,-2.64 0.744,-5.157 2.923,-5.623 l 103.262,-22.076 c 2.179,-0.466 4.403,1.296 4.967,3.935 0.564,2.64 -0.745,5.158 -2.923,5.624 L 4.967,3.936 C 2.788,4.402 0.564,2.64 0,0" /></g><g
           transform="translate(168.3672,198.5942)"
           id="g238"><path
             id="path240"
             style="fill:#ffffff;fill-opacity:1;fill-rule:nonzero;stroke:none"
             d="m 0,0 c -1.237,-2.16 -0.766,-4.735 1.054,-5.749 l 86.219,-48.098 c 1.819,-1.016 4.297,-0.087 5.534,2.074 1.238,2.16 0.766,4.734 -1.054,5.748 L 5.535,2.074 C 3.715,3.089 1.237,2.161 0,0" /></g><g
           transform="translate(157.0256,320.0806)"
           id="g242"><path
             id="path244"
             style="fill:#ffffff;fill-opacity:1;fill-rule:nonzero;stroke:none"
             d="m 0,0 c -0.819,-2.405 0.135,-4.9 2.129,-5.572 l 94.525,-31.85 c 1.995,-0.672 4.275,0.733 5.093,3.138 0.819,2.405 -0.135,4.9 -2.129,5.572 L 5.093,3.138 C 3.099,3.81 0.819,2.405 0,0" /></g><g
           transform="translate(149.7859,329.3902)"
           id="g246"><path
             id="path248"
             style="fill:#ffffff;fill-opacity:1;fill-rule:nonzero;stroke:none"
             d="m 0,0 c 2.944,0 5.33,-2.386 5.33,-5.33 0,-2.944 -2.386,-5.33 -5.33,-5.33 -2.944,0 -5.33,2.386 -5.33,5.33 C -5.33,-2.386 -2.944,0 0,0" /></g><g
           transform="translate(266.8673,288.2522)"
           id="g250"><path
             id="path252"
             style="fill:#ffffff;fill-opacity:1;fill-rule:nonzero;stroke:none"
             d="m 0,0 c 2.944,0 5.33,-2.386 5.33,-5.33 0,-2.944 -2.386,-5.33 -5.33,-5.33 -2.944,0 -5.33,2.386 -5.33,5.33 C -5.33,-2.386 -2.944,0 0,0" /></g><g
           transform="translate(269.8714,149.1905)"
           id="g254"><path
             id="path256"
             style="fill:#ffffff;fill-opacity:1;fill-rule:nonzero;stroke:none"
             d="m 0,0 c 2.944,0 5.33,-2.386 5.33,-5.33 0,-2.944 -2.386,-5.33 -5.33,-5.33 -2.944,0 -5.33,2.386 -5.33,5.33 C -5.33,-2.386 -2.944,0 0,0" /></g><g
           transform="translate(161.258,208.354)"
           id="g258"><path
             id="path260"
             style="fill:#ffffff;fill-opacity:1;fill-rule:nonzero;stroke:none"
             d="m 0,0 c 2.944,0 5.33,-2.386 5.33,-5.33 0,-2.944 -2.386,-5.33 -5.33,-5.33 -2.944,0 -5.33,2.386 -5.33,5.33 C -5.33,-2.386 -2.944,0 0,0" /></g><g
           transform="translate(353.5963,208.8595)"
           id="g262"><path
             id="path264"
             style="fill:#ffffff;fill-opacity:1;fill-rule:nonzero;stroke:none"
             d="m 0,0 c 2.944,0 5.33,-2.386 5.33,-5.33 0,-2.944 -2.386,-5.33 -5.33,-5.33 -2.944,0 -5.33,2.386 -5.33,5.33 C -5.33,-2.386 -2.944,0 0,0" /></g><g
           transform="translate(361.3573,346.9382)"
           id="g266"><path
             id="path268"
             style="fill:#ffffff;fill-opacity:1;fill-rule:nonzero;stroke:none"
             d="m 0,0 c 2.944,0 5.33,-2.386 5.33,-5.33 0,-2.944 -2.386,-5.33 -5.33,-5.33 -2.944,0 -5.33,2.386 -5.33,5.33 C -5.33,-2.386 -2.944,0 0,0" /></g><g
           transform="translate(238.3957,266.2149)"
           id="g270"><path
             id="path272"
             style="fill:#ffffff;fill-opacity:1;fill-rule:nonzero;stroke:none"
             d="m 0,0 c 2.944,0 5.33,-2.386 5.33,-5.33 0,-2.944 -2.386,-5.33 -5.33,-5.33 -2.944,0 -5.33,2.386 -5.33,5.33 C -5.33,-2.386 -2.944,0 0,0" /></g><g
           transform="translate(232.9277,373.4696)"
           id="g274"><path
             id="path276"
             style="fill:#ffffff;fill-opacity:1;fill-rule:nonzero;stroke:none"
             d="m 0,0 c 2.944,0 5.33,-2.386 5.33,-5.33 0,-2.944 -2.386,-5.33 -5.33,-5.33 -2.944,0 -5.33,2.386 -5.33,5.33 C -5.33,-2.386 -2.944,0 0,0" /></g><g
           transform="translate(247.0858,258.2178)"
           id="g278"><path
             id="path280"
             style="fill:#ffffff;fill-opacity:1;fill-rule:nonzero;stroke:none"
             d="m 0,0 c -1.196,-2.369 -0.562,-5.086 1.415,-6.068 l 93.698,-46.541 c 1.977,-0.982 4.549,0.143 5.744,2.511 1.196,2.369 0.563,5.086 -1.414,6.068 L 5.745,2.511 C 3.768,3.493 1.196,2.369 0,0" /></g><g
           transform="translate(354.8849,335.5455)"
           id="g282"><path
             id="path284"
             style="fill:#ffffff;fill-opacity:1;fill-rule:nonzero;stroke:none"
             d="m 0,0 c 1.448,-2.278 1.348,-4.934 -0.222,-5.932 l -74.442,-47.317 c -1.571,-0.998 -4.017,0.039 -5.465,2.317 -1.448,2.278 -1.348,4.935 0.222,5.932 L -5.466,2.317 C -3.895,3.315 -1.448,2.278 0,0" /></g><g
           transform="translate(227.287,364.7274)"
           id="g286"><path
             id="path288"
             style="fill:#ffffff;fill-opacity:1;fill-rule:nonzero;stroke:none"
             d="M 0,0 C 1.271,-2.381 1.191,-4.905 -0.179,-5.637 L -65.12,-40.311 c -1.371,-0.732 -3.513,0.605 -4.784,2.986 -1.271,2.382 -1.191,4.905 0.179,5.637 L -4.783,2.987 C -3.413,3.719 -1.271,2.381 0,0" /></g><g
           transform="translate(232.3123,256.5014)"
           id="g290"><path
             id="path292"
             style="fill:#ffffff;fill-opacity:1;fill-rule:nonzero;stroke:none"
             d="m 0,0 c 1.607,-2.168 1.871,-4.697 0.589,-5.647 l -60.764,-45.04 c -1.281,-0.951 -3.624,0.037 -5.231,2.205 -1.608,2.168 -1.871,4.697 -0.589,5.647 L -5.232,2.205 C -3.95,3.156 -1.607,2.168 0,0" /></g><g
           transform="translate(346.6201,199.0534)"
           id="g294"><path
             id="path296"
             style="fill:#ffffff;fill-opacity:1;fill-rule:nonzero;stroke:none"
             d="m 0,0 c 1.607,-2.168 1.82,-4.735 0.474,-5.732 l -63.772,-47.27 c -1.346,-0.998 -3.74,-0.048 -5.347,2.12 -1.607,2.168 -1.82,4.735 -0.474,5.732 L -5.347,2.12 C -4.001,3.117 -1.607,2.168 0,0" /></g><g
           transform="translate(150.578,314.8901)"
           id="g298"><path
             id="path300"
             style="fill:#ffffff;fill-opacity:1;fill-rule:nonzero;stroke:none"
             d="m 0,0 c -2.445,-0.206 -4.293,-2.006 -4.126,-4.022 l 7.898,-95.48 c 0.167,-2.015 2.284,-3.481 4.729,-3.274 2.445,0.206 4.293,2.006 4.126,4.021 L 4.729,-3.274 C 4.562,-1.26 2.445,0.206 0,0" /></g><g
           transform="translate(234.0213,359.8616)"
           id="g302"><path
             id="path304"
             style="fill:#ffffff;fill-opacity:1;fill-rule:nonzero;stroke:none"
             d="m 0,0 c -2.169,-0.114 -3.872,-1.635 -3.804,-3.396 l 3.215,-83.493 c 0.068,-1.762 1.882,-3.098 4.051,-2.984 2.169,0.114 3.872,1.635 3.804,3.397 L 4.051,-2.983 C 3.982,-1.222 2.169,0.113 0,0" /></g><g
           transform="translate(266.7715,274.5698)"
           id="g306"><path
             id="path308"
             style="fill:#ffffff;fill-opacity:1;fill-rule:nonzero;stroke:none"
             d="m 0,0 c -2.931,-0.169 -5.243,-2.212 -5.165,-4.565 l 3.717,-111.505 c 0.079,-2.354 2.518,-4.124 5.449,-3.956 2.931,0.168 5.243,2.212 5.165,4.565 L 5.449,-3.956 C 5.371,-1.602 2.931,0.168 0,0" /></g><g
           transform="translate(362.5103,331.0851)"
           id="g310"><path
             id="path312"
             style="fill:#ffffff;fill-opacity:1;fill-rule:nonzero;stroke:none"
             d="m 0,0 c 2.925,-0.256 5.175,-2.368 5.027,-4.717 l -7.042,-111.345 c -0.149,-2.349 -2.64,-4.047 -5.565,-3.791 -2.925,0.256 -5.175,2.368 -5.027,4.717 L -5.565,-3.791 C -5.416,-1.441 -2.925,0.256 0,0" /></g></g></g></g></svg>