<?xml version="1.0" encoding="utf-8"?>
<!-- Generator: Adobe Illustrator 18.0.0, SVG Export Plug-In . SVG Version: 6.00 Build 0)  -->
<!DOCTYPE svg PUBLIC "-//W3C//DTD SVG 1.1//EN" "http://www.w3.org/Graphics/SVG/1.1/DTD/svg11.dtd">
<svg version="1.1" id="Layer_3" xmlns="http://www.w3.org/2000/svg" xmlns:xlink="http://www.w3.org/1999/xlink" x="0px" y="0px"
	 viewBox="0 0 512 512" enable-background="new 0 0 512 512" xml:space="preserve">
<g>
	<g>
		<g opacity="0.4" enable-background="new    ">
			
				<radialGradient id="SVGID_1_" cx="1.0125" cy="515" r="118.8609" gradientTransform="matrix(2 0 0 -2 254 1286)" gradientUnits="userSpaceOnUse">
				<stop  offset="0" style="stop-color:#010101"/>
				<stop  offset="0.8587" style="stop-color:#010101;stop-opacity:0.1413"/>
				<stop  offset="1" style="stop-color:#010101;stop-opacity:0"/>
			</radialGradient>
			<path fill="url(#SVGID_1_)" d="M449,449c-59.7,59.7-326.2,59.7-385.9,0S3.4,122.7,63,63s326.3-59.6,386,0S508.6,389.3,449,449z"
				/>
		</g>
		<g opacity="0.4" enable-background="new    ">
			
				<radialGradient id="SVGID_2_" cx="2.0286" cy="516.0684" r="133.1551" gradientTransform="matrix(1.4138 -1.4146 -0.979 -0.9784 758.388 763.7472)" gradientUnits="userSpaceOnUse">
				<stop  offset="0" style="stop-color:#010101"/>
				<stop  offset="0.8587" style="stop-color:#010101;stop-opacity:0.1413"/>
				<stop  offset="1" style="stop-color:#010101;stop-opacity:0"/>
			</radialGradient>
			<path fill="url(#SVGID_2_)" d="M449,449c-59.7,59.7-326.2,59.7-385.9,0S3.4,122.7,63,63s326.3-59.6,386,0S508.6,389.3,449,449z"
				/>
		</g>
		<g opacity="0.4" enable-background="new    ">
			
				<radialGradient id="SVGID_3_" cx="3.4424" cy="513.9732" r="133.1784" gradientTransform="matrix(-1.4138 -1.4146 0.979 -0.9784 -242.3879 763.7472)" gradientUnits="userSpaceOnUse">
				<stop  offset="0" style="stop-color:#010101"/>
				<stop  offset="0.8587" style="stop-color:#010101;stop-opacity:0.1413"/>
				<stop  offset="1" style="stop-color:#010101;stop-opacity:0"/>
			</radialGradient>
			<path fill="url(#SVGID_3_)" d="M63,449c59.7,59.7,326.2,59.7,385.9,0s59.7-326.2,0-385.9S122.7,3.4,63,63S3.4,389.3,63,449z"/>
		</g>
	</g>
	<radialGradient id="SVGID_4_" cx="295" cy="204" r="267.0019" gradientUnits="userSpaceOnUse">
		<stop  offset="0" style="stop-color:#1ACDFB"/>
		<stop  offset="1" style="stop-color:#1F77F3"/>
	</radialGradient>
	<radialGradient id="SVGID_5_" cx="256" cy="256" r="230.5" gradientUnits="userSpaceOnUse">
		<stop  offset="0" style="stop-color:#1ACDFB"/>
		<stop  offset="1" style="stop-color:#1F77F3"/>
	</radialGradient>
	<path fill="url(#SVGID_4_)" stroke="url(#SVGID_5_)" stroke-miterlimit="10" d="M433.3,433.3c-70.3,70.3-284.3,70.3-354.6,0
		S8.4,149,78.7,78.7s284.3-70.3,354.6,0S503.6,363,433.3,433.3z"/>
</g>
<g>
	<path fill="#FFFFFF" d="M454.8,314.2l8.4-93.9l21.5,2.4c-0.1-0.7-0.1-1.4-0.2-2l-21.1-2.3l6.6-73.7c-0.5-1.6-1-3.2-1.6-4.8l-7,78.2
		l-11.7-1.3c0-0.1,0-0.1,0-0.2c0-4.4-2.7-8.2-6.6-9.8l22.5-74.9c-0.4-1-0.8-2-1.2-3l-23.2,77.3c-0.7-0.1-1.4-0.2-2.1-0.2
		c-1.4,0-2.8,0.3-4.1,0.8L373.6,91.2c2.1-1.4,3.8-3.5,4.6-6l72.6,16.2c-0.5-0.8-1-1.6-1.5-2.4l-70.7-15.8c0.1-0.5,0.1-1,0.1-1.5
		c0-6.2-5-11.2-11.2-11.2c-2.3,0-4.5,0.7-6.3,1.9l-51.1-42.9c-1.2-0.2-2.4-0.3-3.7-0.5l53.2,44.7c-1.5,1.5-2.6,3.4-3.1,5.6
		l-84.7-11.1l14.1-41.2c-0.7,0-1.4-0.1-2.1-0.1L269.8,68l-59.3-7.7c0-0.2,0-0.5,0-0.7c0-1.8-0.4-3.5-1-5.1l56.8-28.3
		c-1.4,0-2.9-0.1-4.3-0.1l-53.4,26.6c-2.4-4-6.7-6.6-11.6-6.6c-6.5,0-12,4.6-13.2,10.8l-58.8-7.5c-1.2,0.5-2.4,1-3.6,1.6l62.2,8
		c0,0.2,0,0.5,0,0.7c0,1.8,0.4,3.6,1,5.1l-84.5,42.4c-2.1-3.5-5.7-6-10-6.5l1.4-32.8c-0.7,0.5-1.4,1-2.1,1.5l-1.4,31.2
		C80.8,100.7,75,106.7,75,114c0,3.5,1.3,6.6,3.5,9l-38.2,40c-0.9-0.8-2-1.4-3.1-1.9c-2.6,10.2-4.8,20.8-6.5,31.7v90.9
		c-1.3,0.1-2.6,0.4-3.8,0.8c0.6,8.7,1.4,17.4,2.6,25.9c0.7,0.1,1.5,0.2,2.2,0.2c1.4,0,2.8-0.2,4.1-0.6l49.7,123.8
		c-1.3,0.6-2.5,1.5-3.5,2.5c6.3,5.7,13.5,10.9,21.5,15.6c0.9-1.8,1.5-3.9,1.5-6.1c0-1.8-0.4-3.5-1-5.1l54-26.6
		c1.8,2.8,4.9,4.7,8.5,4.7c1.2,0,2.3-0.2,3.4-0.6l30.4,63.9c0.8,0.1,1.6,0.2,2.4,0.3l-31-65.1c2.1-1.3,3.7-3.3,4.4-5.7l53.6,10.2
		l-12.7,62.1c0.7,0.1,1.3,0.1,2,0.2l12.7-61.9l44.5,8.5c-0.1,0.5-0.1,1-0.1,1.5c0,3.3,1.2,6.4,3.2,8.7l-45.1,44.2
		c0.9,0,1.8,0.1,2.7,0.1l43.8-42.9c2.4,2.1,5.5,3.4,8.9,3.4c5.8,0,10.7-3.6,12.6-8.8l35.6,10.4c-0.2,0.9-0.3,1.9-0.3,2.8
		c0,1.5,0.2,2.9,0.7,4.2L262.3,486c1.9,0,3.7-0.1,5.6-0.1l71.1-29.3c2.2,4.4,6.8,7.5,12.1,7.5c6.2,0,11.4-4.2,13-9.9l29.4,5.8
		c1-0.5,2-0.9,3.1-1.4l-32.1-6.4c0.1-0.5,0.1-1.1,0.1-1.6c0-3.8-1.6-7.3-4.2-9.7l33.6-40.6l40.3,32.3c0.5-0.5,0.9-1,1.4-1.5
		l-40.4-32.3l49.7-60.1c2.2,1.6,4.9,2.5,7.8,2.5c0.9,0,1.7-0.1,2.6-0.3l10.6,38.9c0.4-1.1,0.8-2.1,1.2-3.2l-9.8-36.2
		c5.2-1.9,9-6.8,9-12.7c0-3.7-1.5-7-3.8-9.4l22.1-24.9c0.1-1.1,0.2-2.2,0.3-3.3l-23.9,26.9C459.1,315.5,457,314.6,454.8,314.2z
		 M449.5,218.7l11.7,1.3l-8.4,94c-0.1,0-0.1,0-0.2,0c-0.2,0-0.4,0-0.6,0l-10.6-87.1C445.4,226,448.6,222.8,449.5,218.7z
		 M436.6,226.9c0.8,0.2,1.7,0.3,2.5,0.3c0.1,0,0.2,0,0.3,0l10.6,87.1c-4.2,0.8-7.6,3.6-9.5,7.2l-33.2-11L436.6,226.9z M441.6,335.3
		l-51.4,42.8c-1.3-1.8-3-3.4-5.1-4.4l21.5-61.3l33.1,10.9c-0.4,1.3-0.7,2.7-0.7,4.1C439.1,330.4,440,333.1,441.6,335.3z
		 M255.6,342.5l102.6-42c0.4,0.6,0.9,1.2,1.5,1.7l-36.9,67.5l-67-21.9c0.2-0.7,0.3-1.5,0.3-2.3C256,344.4,255.8,343.4,255.6,342.5z
		 M91.2,230.4l27.5-7.6l11,38.1c-2.6,0.9-4.8,2.5-6.6,4.5l-33.8-25.2c1.3-2.1,2.1-4.6,2.1-7.2C91.5,232.1,91.4,231.2,91.2,230.4z
		 M159.9,122.3l89.7-14.7c0.6,2,1.8,3.7,3.5,4.9l-37.3,71.6c-1.6-0.7-3.4-1.1-5.3-1.1c-3,0-5.9,1-8.1,2.7L156.1,133
		c2.4-2.4,3.9-5.8,3.9-9.5C160,123.1,160,122.7,159.9,122.3z M364.3,291.1l-2.3-68.5l66.6-4.2c0.3,2,1.2,3.9,2.5,5.3L367,292.1
		C366.2,291.5,365.3,291.2,364.3,291.1z M428.5,216.3l-66.6,4.2l-1-30.6c4.3-0.5,8-2.9,10.1-6.5l58.2,29.3
		C428.8,213.8,428.6,215,428.5,216.3z M362.3,291.1c-1.3,0.3-2.4,0.9-3.3,1.8l-87.1-60.1c0.8-1.4,1.2-3,1.3-4.7l86.9-5.5
		L362.3,291.1z M147.2,266l54.8-59c2.2,1.8,5.1,2.9,8.1,3l4.1,77.1c-4.9,0.6-9,3.9-10.8,8.4l-53.3-16.9c0.2-1,0.3-2.1,0.3-3.1
		C150.5,271.9,149.3,268.6,147.2,266z M212.2,209.9c3.8-0.5,7.2-2.6,9.3-5.6l32,19.1c-0.6,1.3-1,2.8-1,4.4c0,3.3,1.5,6.2,3.9,8.1
		l-34,52.7c-1.8-1-3.9-1.6-6.2-1.6L212.2,209.9z M224,195.7l36.4-4.9l1,26.8c-2.8,0.4-5.3,1.9-6.9,4.1l-32-19.1
		c0.9-1.8,1.4-3.9,1.4-6.1C224,196.2,224,196,224,195.7z M258.1,237c0.7,0.4,1.5,0.6,2.2,0.8l-9,60.9l-21.9,0.5
		c-0.4-3.9-2.4-7.2-5.3-9.5L258.1,237z M262.3,238.1c0.2,0,0.3,0,0.5,0c3.2,0,6-1.4,7.9-3.7l87.1,60.1c-0.3,0.6-0.5,1.2-0.5,1.8
		l-103.9,2.3L262.3,238.1z M262.4,190.5l28.1-3.8l-22.6,32.1c-1.3-0.8-2.9-1.2-4.5-1.3L262.4,190.5z M273,226.2
		c-0.4-2.5-1.7-4.6-3.5-6.2l23.6-33.6l53.1-7.1c1.2,5.9,6.4,10.4,12.7,10.7l1,30.7L273,226.2z M346,176.5c0,0.3,0,0.5,0,0.8
		l-51.3,6.9l24.5-34.8l28.7,20.2C346.7,171.6,346,174,346,176.5z M292.1,184.5l-29.7,4l-2.9-74.6c2.1-0.3,3.9-1.3,5.2-2.8l53,37.2
		L292.1,184.5z M260.3,188.8l-36.6,4.9c-0.8-3.7-3-6.8-6.1-8.7l37.3-71.6c0.8,0.3,1.6,0.5,2.5,0.6L260.3,188.8z M200.9,187
		c-0.3,0.3-0.7,0.7-1,1.1l-54.5-36.9l1.1-14.3c0,0,0,0,0,0c3,0,5.9-1,8.1-2.7L200.9,187z M198.8,189.8c-1.1,2-1.8,4.3-1.8,6.7
		c0,0.9,0.1,1.8,0.3,2.6l-56.7,15.6l4.6-61.1L198.8,189.8z M197.8,201c0.6,1.7,1.6,3.3,2.8,4.6l-54.7,58.8c-2.3-2.3-5.3-3.8-8.7-4.3
		l3.3-43.3L197.8,201z M135.2,260c-0.1,0-0.1,0-0.2,0c-1.1,0-2.2,0.1-3.3,0.4l-11-38.1l17.7-4.9L135.2,260z M135,291
		c1.5,0,2.9-0.2,4.3-0.6l9.3,42.1l-46.2,22.6c-0.9-1.3-2.1-2.4-3.4-3.3l30.1-61.9C130.9,290.6,132.9,291,135,291z M141.2,289.7
		c2.5-1.1,4.7-2.9,6.4-5.1l43,27.3l-40.1,19.7L141.2,289.7z M148.6,282.9c0.4-0.8,0.8-1.6,1-2.4l53.2,16.8c-0.2,1-0.4,2-0.4,3.1
		c0,1.8,0.4,3.5,1,5l-10.8,5.3L148.6,282.9z M204.4,307.3c1.2,2.1,3,3.8,5.1,5l-3.2,7.1l-11.6-7.4L204.4,307.3z M211.3,313.2
		c1.5,0.5,3,0.8,4.7,0.8c2.4,0,4.6-0.6,6.5-1.7l16.4,25c-0.6,0.5-1.2,1.1-1.7,1.8L208,320.5L211.3,313.2z M224.2,311.2
		c3-2.3,5-5.9,5.3-10l21.6-0.5L246,335c-0.2,0-0.4,0-0.5,0c-1.8,0-3.4,0.4-4.9,1.2L224.2,311.2z M253.1,300.7l104.2-2.3
		c0,0.1,0,0.2,0.1,0.3l-102.6,42c-1.4-2.6-3.8-4.6-6.8-5.3L253.1,300.7z M361.4,303.1c0.7,0.2,1.4,0.4,2.1,0.4c0,0,0,0,0,0
		l11.4,68.9c-5.4,1.2-9.7,5.4-11,10.7l-39.3-12.8L361.4,303.1z M365.5,303.2c1.6-0.5,2.8-1.7,3.6-3.1l35.6,11.7l-21.4,61.1
		c-1.6-0.6-3.3-0.9-5.1-0.9c-0.4,0-0.9,0-1.3,0.1L365.5,303.2z M405.4,309.9l-35.7-11.8c0-0.3,0.1-0.6,0.1-0.9
		c0-1.4-0.5-2.8-1.3-3.8l64.2-68.5c0.6,0.5,1.3,0.9,2,1.2L405.4,309.9z M367.6,93c1.5,0,3-0.3,4.3-0.9l61.4,115.6
		c-1.3,0.8-2.3,1.9-3.1,3.2L372,181.7c0.7-1.6,1-3.3,1-5.2c0-6.7-4.9-12.3-11.4-13.3L367.6,93z M360.6,90.6c1.4,1.1,3.1,1.9,5,2.2
		l-5.9,70.2c0,0-0.1,0-0.1,0c-4.2,0-8,1.9-10.4,4.9l-28.7-20.2L360.6,90.6z M356.8,85.1c0.5,1.5,1.3,2.9,2.3,4.1l-40.4,57.4
		l-52.9-37.2c0.7-1.2,1.1-2.7,1.1-4.2c0-0.3,0-0.6,0-0.8L356.8,85.1z M271.1,70.2l85.1,11.1c0,0.2,0,0.3,0,0.5c0,0.5,0,0.9,0.1,1.4
		l-90,19.3c-0.8-2.2-2.4-4.1-4.5-5.1L271.1,70.2z M210.2,62.2l58.9,7.7L260,96.7c-0.6-0.1-1.2-0.2-1.9-0.2c-2.5,0-4.8,1.1-6.4,2.7
		l-43.4-32.5C209.2,65.4,209.9,63.9,210.2,62.2z M197,73c4.1,0,7.7-1.8,10.2-4.6l43.4,32.5c-0.8,1.3-1.2,2.8-1.2,4.4
		c0,0.1,0,0.3,0,0.4l-89.7,14.7c-0.6-2.7-2.1-5-4-6.8l33.8-42.9C191.6,72.1,194.2,73,197,73z M185.4,66.4c0.7,1.1,1.5,2.1,2.5,3
		l-33.8,42.9c-2.2-1.5-4.8-2.3-7.6-2.3c-6.4,0-11.7,4.4-13.1,10.3l-31.4-5.2c0-0.4,0.1-0.8,0.1-1.2c0-1.8-0.4-3.6-1-5.1L185.4,66.4z
		 M101.6,117.2l31.4,5.2c0,0.4-0.1,0.8-0.1,1.2c0,6.8,5,12.4,11.5,13.3l-1,13.1l-43.3-29.3C100.8,119.6,101.3,118.4,101.6,117.2z
		 M99.1,122.4l44.2,29.9l-4.8,63l-18.4,5.1l-27-93.7C95.5,125.8,97.6,124.3,99.1,122.4z M88.3,127.5c0.1,0,0.1,0,0.2,0
		c0.9,0,1.9-0.1,2.8-0.3l27,93.7l-27.5,7.6c-1.6-4.6-5.6-8-10.5-8.8L88.3,127.5z M40.4,286.9L71,244.5c2.1,1.3,4.5,2,7,2
		c0.1,0,0.3,0,0.4,0l10.7,103.2c-2.2,0.4-4.2,1.3-5.9,2.6l-41.6-45.8c2.3-2.4,3.7-5.7,3.7-9.3C45.3,293.1,43.4,289.4,40.4,286.9z
		 M41.8,164.5l38.2-40c1.8,1.5,4,2.5,6.4,2.9l-8.1,92.2c-0.1,0-0.1,0-0.2,0c-2.8,0-5.3,0.8-7.5,2.3l-29.7-38.3c2.7-2.5,4.5-6,4.5-10
		C45.3,170,43.9,166.9,41.8,164.5z M32.8,283.8v-96.9c2.4-0.2,4.6-1,6.5-2.2L69,223c-2.7,2.5-4.5,6-4.5,10c0,4.2,1.9,7.9,4.8,10.3
		l-30.5,42.4C37,284.7,35,284,32.8,283.8z M91,432.5c-1.2,0-2.5,0.2-3.6,0.6L37.7,309.4c0.8-0.4,1.6-0.9,2.4-1.5l41.6,45.8
		c-2.3,2.4-3.7,5.7-3.7,9.3c0,7.3,5.8,13.2,13,13.5V432.5z M91.1,349.5L80.4,246.3c3.1-0.6,5.8-2.2,7.8-4.4l33.8,25.2
		c-1.6,2.4-2.5,5.3-2.5,8.4c0,5.8,3.2,10.8,7.8,13.5l-30.1,61.8c-1.7-0.8-3.7-1.3-5.7-1.3C91.4,349.5,91.2,349.5,91.1,349.5z
		 M157.1,412.5l-54,26.7c-2.3-3.8-6.4-6.5-11.1-6.6v-56.1c4.3-0.2,8.1-2.3,10.4-5.6l55.1,33.8c-0.6,1.3-1,2.8-1,4.3
		C156.5,410.2,156.7,411.4,157.1,412.5z M158.6,403l-55.1-33.8c1-1.9,1.5-4,1.5-6.2c0-2.2-0.6-4.4-1.5-6.2l45.5-22.3l14.4,65
		C161.4,400.1,159.8,401.4,158.6,403z M169.7,399.5c-1-0.3-2.1-0.5-3.2-0.5c-0.4,0-0.8,0-1.2,0.1l-14.5-65.5l41.7-20.4l12.9,8.2
		L169.7,399.5z M230,420.1l-53.6-10.2c0-0.3,0-0.6,0-0.9c0-3.7-2-6.9-5-8.6l35.6-78l29,18.4c-0.7,1.4-1.1,3-1.1,4.7
		c0,5,3.5,9.2,8.2,10.2L230,420.1z M276.5,429l-44.5-8.5l13.2-64.5c0.1,0,0.2,0,0.3,0c1.3,0,2.6-0.3,3.8-0.7l33.2,65.7
		C279.6,422.7,277.4,425.6,276.5,429z M289.5,419c-1.8,0-3.6,0.4-5.2,1l-33.2-65.7c1.8-1.1,3.2-2.7,4-4.7l66.6,21.8l-26.7,48.8
		C293.4,419.4,291.5,419,289.5,419z M296.8,421.2l26.9-49.1l39.9,13c-0.1,0.5-0.1,1.1-0.1,1.6c0,2.8,0.8,5.3,2.1,7.5l-64.4,31.4
		C300.1,423.9,298.6,422.3,296.8,421.2z M351,437c-5.8,0-10.7,3.6-12.6,8.8l-35.6-10.4c0.2-0.9,0.3-1.9,0.3-2.8c0-1.8-0.3-3.4-1-5
		l64.7-31.5c1.5,1.9,3.5,3.4,5.8,4.4l-16.9,37.5C354.1,437.3,352.6,437,351,437z M358.8,439.5c-0.4-0.3-0.9-0.6-1.3-0.9l17-37.7
		c1.2,0.3,2.5,0.5,3.8,0.5c4.4,0,8.4-1.9,11.1-5l3,2.4L358.8,439.5z M393.6,397.4l-3-2.4c1.6-2.3,2.5-5.1,2.5-8.2
		c0-2.5-0.6-4.8-1.7-6.9l51.6-43c0.1,0.1,0.2,0.2,0.4,0.4L393.6,397.4z"/>
</g>
<g display="none">
	<path display="inline" d="M323.7,352.2H188.3c-11.3,0-20.4-9.1-20.4-20.4V196.3c0-11.3,9.1-20.4,20.4-20.4h135.5
		c11.3,0,20.4,9.1,20.4,20.4v135.5C344.2,343,335,352.2,323.7,352.2z"/>
	<path display="inline" opacity="0.95" fill="#FFFFFF" d="M323.7,344.2H188.3c-11.3,0-20.4-9.1-20.4-20.4V188.3
		c0-11.3,9.1-20.4,20.4-20.4h135.5c11.3,0,20.4,9.1,20.4,20.4v135.5C344.2,335,335,344.2,323.7,344.2z"/>
	<g display="inline" opacity="0.9">
		<path d="M314.8,191.2H197.2c-3.3,0-6.1,2.7-6.1,6.1v9c0-3.3,2.7-6.1,6.1-6.1h117.5c3.3,0,6.1,2.7,6.1,6.1v-9
			C320.8,193.9,318.1,191.2,314.8,191.2z"/>
		<path fill="#5E5E5E" d="M314.8,200.2H197.2c-3.3,0-6.1,2.7-6.1,6.1v81.9c0,3.3,2.7,6.1,6.1,6.1h14.5c3.3,0,6.1,2.7,6.1,6.1v9v5.5
			c0,3.3,2.7,6.1,6.1,6.1h64.2c3.3,0,6.1-2.7,6.1-6.1v-5.5v-9c0-3.3,2.7-6.1,6.1-6.1h14.5c3.3,0,6.1-2.7,6.1-6.1v-81.9
			C320.8,202.9,318.1,200.2,314.8,200.2z"/>
	</g>
</g>
<g>
	<path opacity="0.4" enable-background="new    " d="M323.7,177.8H188.3c-11.3,0-20.4,9.1-20.4,20.4v135.5
		c0,11.3,9.1,20.4,20.4,20.4h135.5c11.3,0,20.4-9.1,20.4-20.4V198.3C344.2,187,335,177.8,323.7,177.8z M320.8,216.2v81.9
		c0,3.3-2.7,6.1-6.1,6.1h-14.5c-3.3,0-6.1,2.7-6.1,6.1v9v5.5c0,3.3-2.7,6.1-6.1,6.1h-64.2c-3.3,0-6.1-2.7-6.1-6.1v-5.5v-9
		c0-3.3-2.7-6.1-6.1-6.1h-14.5c-3.3,0-6.1-2.7-6.1-6.1v-81.9v-9c0-3.3,2.7-6.1,6.1-6.1h117.5c3.3,0,6.1,2.7,6.1,6.1V216.2z"/>
	<g>
		<path opacity="0.3" fill="#FFFFFF" d="M314.8,191.2H197.2c-3.3,0-6.1,2.7-6.1,6.1v9v81.9c0,3.3,2.7,6.1,6.1,6.1h14.5
			c3.3,0,6.1,2.7,6.1,6.1v9v5.5c0,3.3,2.7,6.1,6.1,6.1h64.2c3.3,0,6.1-2.7,6.1-6.1v-5.5v-9c0-3.3,2.7-6.1,6.1-6.1h14.5
			c3.3,0,6.1-2.7,6.1-6.1v-81.9v-9C320.8,193.9,318.1,191.2,314.8,191.2z"/>
		<path fill="#FFFFFF" d="M323.7,167.8H188.3c-11.3,0-20.4,9.1-20.4,20.4v135.5c0,11.3,9.1,20.4,20.4,20.4h135.5
			c11.3,0,20.4-9.1,20.4-20.4V188.3C344.2,177,335,167.8,323.7,167.8z M320.8,206.2v81.9c0,3.3-2.7,6.1-6.1,6.1h-14.5
			c-3.3,0-6.1,2.7-6.1,6.1v9v5.5c0,3.3-2.7,6.1-6.1,6.1h-64.2c-3.3,0-6.1-2.7-6.1-6.1v-5.5v-9c0-3.3-2.7-6.1-6.1-6.1h-14.5
			c-3.3,0-6.1-2.7-6.1-6.1v-81.9v-9c0-3.3,2.7-6.1,6.1-6.1h117.5c3.3,0,6.1,2.7,6.1,6.1V206.2z"/>
	</g>
</g>
<g id="_x3C_Group_x3E_">
	<path opacity="0.4" enable-background="new    " d="M78.7,426.8c70.3,70.3,284.3,70.3,354.6,0c34.1-34.1,51.6-101.9,52.7-170.8
		c-1-68.9-18.6-136.7-52.7-170.8C398.1,50,327.1,32.5,256,32.5S113.8,50,78.7,85.2C44.6,119.3,27.1,187.1,26,256
		C27.1,324.9,44.6,392.7,78.7,426.8z M92.8,99.3C107.1,85,130,73.1,159.3,64.9c28.7-8.1,62.1-12.4,96.7-12.4
		c34.5,0,68,4.3,96.7,12.4c29.2,8.3,52.2,20.2,66.5,34.4c14.3,14.3,26.2,37.2,34.4,66.5c8.1,28.7,12.4,62.1,12.4,96.7
		c0,34.5-4.3,68-12.4,96.7c-8.3,29.2-20.2,52.2-34.4,66.5c-14.3,14.3-37.2,26.2-66.5,34.4c-28.7,8.1-62.1,12.4-96.7,12.4
		c-34.5,0-68-4.3-96.7-12.4c-29.2-8.3-52.2-20.2-66.5-34.4c-14.3-14.3-26.2-37.2-34.4-66.5C50.3,330.5,46,297,46,262.5
		s4.3-68,12.4-96.7C66.7,136.6,78.6,113.6,92.8,99.3z"/>
	<path fill="#FFFFFF" d="M256,46c34.5,0,68,4.3,96.7,12.4c29.2,8.3,52.2,20.2,66.5,34.4c14.3,14.3,26.2,37.2,34.4,66.5
		C461.7,188,466,221.5,466,256s-4.3,68-12.4,96.7c-8.3,29.2-20.2,52.2-34.4,66.5c-14.3,14.3-37.2,26.2-66.5,34.4
		C324,461.7,290.5,466,256,466s-68-4.3-96.7-12.4c-29.2-8.3-52.2-20.2-66.5-34.4c-14.3-14.3-26.2-37.2-34.4-66.5
		C50.3,324,46,290.5,46,256s4.3-68,12.4-96.7c8.3-29.2,20.2-52.2,34.4-66.5c14.3-14.3,37.2-26.2,66.5-34.4C188,50.3,221.5,46,256,46
		 M256,26c-71.1,0-142.1,17.6-177.3,52.7C8.4,149,8.4,363,78.7,433.3C113.9,468.5,184.9,486,256,486s142.1-17.6,177.3-52.7
		c70.3-70.3,70.3-284.3,0-354.6C398.1,43.6,327.1,26,256,26L256,26z"/>
</g>
</svg>
