<?xml version="1.0" encoding="UTF-8" standalone="no"?>
<svg
   xmlns:dc="http://purl.org/dc/elements/1.1/"
   xmlns:cc="http://creativecommons.org/ns#"
   xmlns:rdf="http://www.w3.org/1999/02/22-rdf-syntax-ns#"
   xmlns:svg="http://www.w3.org/2000/svg"
   xmlns="http://www.w3.org/2000/svg"
   xmlns:sodipodi="http://sodipodi.sourceforge.net/DTD/sodipodi-0.dtd"
   xmlns:inkscape="http://www.inkscape.org/namespaces/inkscape"
   viewBox="0 0 640 640"
   height="640"
   width="640"
   xml:space="preserve"
   version="1.1"
   id="svg2"
   inkscape:version="0.91 r13725"
   sodipodi:docname="network-workgroup.svg"><sodipodi:namedview
     pagecolor="#ffffff"
     bordercolor="#666666"
     borderopacity="1"
     objecttolerance="10"
     gridtolerance="10"
     guidetolerance="10"
     inkscape:pageopacity="0"
     inkscape:pageshadow="2"
     inkscape:window-width="1365"
     inkscape:window-height="767"
     id="namedview116"
     showgrid="false"
     inkscape:zoom="0.36875"
     inkscape:cx="320"
     inkscape:cy="320"
     inkscape:window-x="378"
     inkscape:window-y="96"
     inkscape:window-maximized="0"
     inkscape:current-layer="svg2" /><metadata
     id="metadata8"><rdf:RDF><cc:Work
         rdf:about=""><dc:format>image/svg+xml</dc:format><dc:type
           rdf:resource="http://purl.org/dc/dcmitype/StillImage" /></cc:Work></rdf:RDF></metadata><defs
     id="defs6"><clipPath
       id="clipPath16"
       clipPathUnits="userSpaceOnUse"><path
         id="path18"
         d="M 0,512 512,512 512,0 0,0 0,512 Z" /></clipPath><clipPath
       id="clipPath24"
       clipPathUnits="userSpaceOnUse"><path
         id="path26"
         d="m 18.325,493.744 475.4,0 0,-475.4877 -475.4,0 0,475.4877 z" /></clipPath><clipPath
       id="clipPath28"
       clipPathUnits="userSpaceOnUse"><path
         id="path30"
         d="M 448.99,63.029 C 389.293,3.332 122.807,3.332 63.11,63.029 3.413,122.726 3.413,389.312 63.01,449.009 c 59.597,59.696 326.283,59.596 385.98,0 59.697,-59.597 59.597,-326.283 0,-385.98" /></clipPath><radialGradient
       id="radialGradient36"
       spreadMethod="pad"
       gradientTransform="matrix(237.72188,0,0,237.72188,256.02499,256)"
       gradientUnits="userSpaceOnUse"
       r="1"
       cy="0"
       cx="0"
       fy="0"
       fx="0"><stop
         id="stop38"
         offset="0"
         style="stop-opacity:1;stop-color:#ffffff" /><stop
         id="stop40"
         offset="0.8587"
         style="stop-opacity:0.14129854;stop-color:#ffffff" /><stop
         id="stop42"
         offset="1"
         style="stop-opacity:0;stop-color:#ffffff" /></radialGradient><mask
       id="mask44"
       height="1"
       width="1"
       y="0"
       x="0"
       maskUnits="userSpaceOnUse"><g
         id="g46"><g
           id="g48"><g
             id="g50"><g
               id="g52"><path
                 id="path54"
                 style="fill:url(#radialGradient36);stroke:none"
                 d="m -32768,32767 65535,0 0,-65535 -65535,0 0,65535 z" /></g></g></g></g></mask><radialGradient
       id="radialGradient56"
       spreadMethod="pad"
       gradientTransform="matrix(237.72188,0,0,237.72188,256.02499,256)"
       gradientUnits="userSpaceOnUse"
       r="1"
       cy="0"
       cx="0"
       fy="0"
       fx="0"><stop
         id="stop58"
         offset="0"
         style="stop-opacity:1;stop-color:#010101" /><stop
         id="stop60"
         offset="0.8587"
         style="stop-opacity:1;stop-color:#010101" /><stop
         id="stop62"
         offset="1"
         style="stop-opacity:1;stop-color:#010101" /></radialGradient><clipPath
       id="clipPath86"
       clipPathUnits="userSpaceOnUse"><path
         id="path88"
         d="m 18.325,493.744 475.4,0 0,-475.4877 -475.4,0 0,475.4877 z" /></clipPath><clipPath
       id="clipPath90"
       clipPathUnits="userSpaceOnUse"><path
         id="path92"
         d="M 448.99,63.029 C 389.293,3.332 122.807,3.332 63.11,63.029 3.413,122.726 3.413,389.312 63.01,449.009 c 59.597,59.696 326.283,59.596 385.98,0 59.697,-59.597 59.597,-326.283 0,-385.98" /></clipPath><radialGradient
       id="radialGradient98"
       spreadMethod="pad"
       gradientTransform="matrix(188.25467,188.36119,-130.35883,130.27895,256.02499,256.04376)"
       gradientUnits="userSpaceOnUse"
       r="1"
       cy="0"
       cx="0"
       fy="0"
       fx="0"><stop
         id="stop100"
         offset="0"
         style="stop-opacity:1;stop-color:#ffffff" /><stop
         id="stop102"
         offset="0.8587"
         style="stop-opacity:0.14129854;stop-color:#ffffff" /><stop
         id="stop104"
         offset="1"
         style="stop-opacity:0;stop-color:#ffffff" /></radialGradient><mask
       id="mask106"
       height="1"
       width="1"
       y="0"
       x="0"
       maskUnits="userSpaceOnUse"><g
         id="g108"><g
           id="g110"><g
             id="g112"><g
               id="g114"><path
                 id="path116"
                 style="fill:url(#radialGradient98);stroke:none"
                 d="m -32768,32767 65535,0 0,-65535 -65535,0 0,65535 z" /></g></g></g></g></mask><radialGradient
       id="radialGradient118"
       spreadMethod="pad"
       gradientTransform="matrix(188.25467,188.36119,-130.35883,130.27895,256.02499,256.04376)"
       gradientUnits="userSpaceOnUse"
       r="1"
       cy="0"
       cx="0"
       fy="0"
       fx="0"><stop
         id="stop120"
         offset="0"
         style="stop-opacity:1;stop-color:#010101" /><stop
         id="stop122"
         offset="0.8587"
         style="stop-opacity:1;stop-color:#010101" /><stop
         id="stop124"
         offset="1"
         style="stop-opacity:1;stop-color:#010101" /></radialGradient><clipPath
       id="clipPath148"
       clipPathUnits="userSpaceOnUse"><path
         id="path150"
         d="m 18.275,493.694 475.387,0 0,-475.4377 -475.387,0 0,475.4377 z" /></clipPath><clipPath
       id="clipPath152"
       clipPathUnits="userSpaceOnUse"><path
         id="path154"
         d="m 63.01,63.029 c 59.697,-59.697 326.183,-59.697 385.88,0 59.697,59.697 59.697,326.183 0,385.88 -59.697,59.696 -326.183,59.696 -385.88,0.1 -59.697,-59.597 -59.597,-326.283 0,-385.98" /></clipPath><radialGradient
       id="radialGradient160"
       spreadMethod="pad"
       gradientTransform="matrix(-188.28767,188.39421,130.38168,130.30179,255.92499,255.99377)"
       gradientUnits="userSpaceOnUse"
       r="1"
       cy="0"
       cx="0"
       fy="0"
       fx="0"><stop
         id="stop162"
         offset="0"
         style="stop-opacity:1;stop-color:#ffffff" /><stop
         id="stop164"
         offset="0.8587"
         style="stop-opacity:0.14129854;stop-color:#ffffff" /><stop
         id="stop166"
         offset="1"
         style="stop-opacity:0;stop-color:#ffffff" /></radialGradient><mask
       id="mask168"
       height="1"
       width="1"
       y="0"
       x="0"
       maskUnits="userSpaceOnUse"><g
         id="g170"><g
           id="g172"><g
             id="g174"><g
               id="g176"><path
                 id="path178"
                 style="fill:url(#radialGradient160);stroke:none"
                 d="m -32768,32767 65535,0 0,-65535 -65535,0 0,65535 z" /></g></g></g></g></mask><radialGradient
       id="radialGradient180"
       spreadMethod="pad"
       gradientTransform="matrix(-188.28767,188.39421,130.38168,130.30179,255.92499,255.99377)"
       gradientUnits="userSpaceOnUse"
       r="1"
       cy="0"
       cx="0"
       fy="0"
       fx="0"><stop
         id="stop182"
         offset="0"
         style="stop-opacity:1;stop-color:#010101" /><stop
         id="stop184"
         offset="0.8587"
         style="stop-opacity:1;stop-color:#010101" /><stop
         id="stop186"
         offset="1"
         style="stop-opacity:1;stop-color:#010101" /></radialGradient><radialGradient
       id="radialGradient218"
       spreadMethod="pad"
       gradientTransform="matrix(267.00186,0,0,-267.00186,295,308)"
       gradientUnits="userSpaceOnUse"
       r="1"
       cy="0"
       cx="0"
       fy="0"
       fx="0"><stop
         id="stop220"
         offset="0"
         style="stop-opacity:1;stop-color:#1acdfb" /><stop
         id="stop222"
         offset="1"
         style="stop-opacity:1;stop-color:#1f77f3" /></radialGradient><clipPath
       id="clipPath230"
       clipPathUnits="userSpaceOnUse"><path
         id="path232"
         d="M 0,512 512,512 512,0 0,0 0,512 Z" /></clipPath><radialGradient
       id="radialGradient236"
       spreadMethod="pad"
       gradientTransform="matrix(230.5,0,0,230.5,-177.2792,334.7208)"
       gradientUnits="userSpaceOnUse"
       r="1"
       cy="0"
       cx="0"
       fy="0"
       fx="0"><stop
         id="stop238"
         offset="0"
         style="stop-opacity:1;stop-color:#1acdfb" /><stop
         id="stop240"
         offset="1"
         style="stop-opacity:1;stop-color:#1f77f3" /></radialGradient></defs><g
     transform="matrix(1.25,0,0,-1.25,0,640)"
     id="g10"><g
       id="g12"><g
         clip-path="url(#clipPath16)"
         id="g14"><g
           id="g20"><g
             id="g22" /><g
             id="g64"><g
               style="opacity:0.39999402"
               id="g66"
               clip-path="url(#clipPath24)"><g
                 id="g68"><g
                   id="g70"
                   clip-path="url(#clipPath28)"><g
                     id="g72"><g
                       id="g74" /><g
                       id="g76"
                       mask="url(#mask44)"><g
                         id="g78"><path
                           id="path80"
                           style="fill:url(#radialGradient56);stroke:none"
                           d="M 448.99,63.029 C 389.293,3.332 122.807,3.332 63.11,63.029 3.413,122.726 3.413,389.312 63.01,449.009 c 59.597,59.696 326.283,59.596 385.98,0 59.697,-59.597 59.597,-326.283 0,-385.98" /></g></g></g></g></g></g></g></g><g
           id="g82"><g
             id="g84" /><g
             id="g126"><g
               style="opacity:0.39999402"
               id="g128"
               clip-path="url(#clipPath86)"><g
                 id="g130"><g
                   id="g132"
                   clip-path="url(#clipPath90)"><g
                     id="g134"><g
                       id="g136" /><g
                       id="g138"
                       mask="url(#mask106)"><g
                         id="g140"><path
                           id="path142"
                           style="fill:url(#radialGradient118);stroke:none"
                           d="M 448.99,63.029 C 389.293,3.332 122.807,3.332 63.11,63.029 3.413,122.726 3.413,389.312 63.01,449.009 c 59.597,59.696 326.283,59.596 385.98,0 59.697,-59.597 59.597,-326.283 0,-385.98" /></g></g></g></g></g></g></g></g><g
           id="g144"><g
             id="g146" /><g
             id="g188"><g
               style="opacity:0.39999402"
               id="g190"
               clip-path="url(#clipPath148)"><g
                 id="g192"><g
                   id="g194"
                   clip-path="url(#clipPath152)"><g
                     id="g196"><g
                       id="g198" /><g
                       id="g200"
                       mask="url(#mask168)"><g
                         id="g202"><path
                           id="path204"
                           style="fill:url(#radialGradient180);stroke:none"
                           d="m 63.01,63.029 c 59.697,-59.697 326.183,-59.697 385.88,0 59.697,59.697 59.697,326.183 0,385.88 -59.697,59.696 -326.183,59.696 -385.88,0.1 -59.697,-59.597 -59.597,-326.283 0,-385.98" /></g></g></g></g></g></g></g></g></g></g><g
       id="g206"><g
         id="g208"><g
           id="g214"><g
             id="g216"><path
               id="path224"
               style="fill:url(#radialGradient218);stroke:none"
               d="M 78.721,433.279 C 8.427,362.985 8.427,149.015 78.721,78.721 l 0,0 c 70.294,-70.294 284.264,-70.294 354.558,0 l 0,0 c 70.294,70.294 70.294,284.264 0,354.558 l 0,0 C 398.132,468.426 327.066,486 256,486 l 0,0 C 184.934,486 113.868,468.426 78.721,433.279" /></g></g></g></g><g
       id="g226"><g
         clip-path="url(#clipPath230)"
         id="g228"><g
           transform="translate(433.2792,78.7208)"
           id="g234"><path
             id="path242"
             style="fill:none;stroke:url(#radialGradient236);stroke-width:1;stroke-linecap:butt;stroke-linejoin:miter;stroke-miterlimit:10;stroke-dasharray:none;stroke-opacity:1"
             d="m 0,0 c -70.294,-70.294 -284.264,-70.294 -354.558,0 -70.295,70.294 -70.295,284.264 0,354.558 70.294,70.295 284.264,70.295 354.558,0 C 70.294,284.264 70.294,70.294 0,0 Z" /></g><g
           transform="translate(393.5809,114.6492)"
           id="g244"><path
             id="path246"
             style="fill:#ffffff;fill-opacity:1;fill-rule:nonzero;stroke:none"
             d="m 0,0 -3.047,2.441 c 1.556,2.338 2.466,5.142 2.466,8.16 0,2.49 -0.623,4.833 -1.713,6.89 l 51.607,42.981 c 0.117,-0.121 0.237,-0.238 0.359,-0.355 L 0,0 Z m -34.82,-42.142 c -0.432,0.306 -0.876,0.596 -1.343,0.851 l 17.015,37.659 c 1.22,-0.327 2.495,-0.517 3.817,-0.517 4.409,0 8.355,1.944 11.058,5.011 l 2.999,-2.404 -33.546,-40.6 z m -7.798,2.493 c -5.785,0 -10.706,-3.646 -12.627,-8.76 l -35.637,10.437 c 0.194,0.911 0.301,1.854 0.301,2.823 0,1.767 -0.349,3.45 -0.966,4.996 l 64.709,31.539 c 1.525,-1.902 3.505,-3.422 5.783,-4.382 L -37.991,-40.48 c -1.445,0.528 -2.999,0.831 -4.627,0.831 m -54.128,15.824 26.863,49.096 39.899,-13.025 c -0.06,-0.541 -0.097,-1.088 -0.097,-1.645 0,-2.763 0.774,-5.339 2.096,-7.55 l -64.442,-31.408 c -1.068,1.828 -2.547,3.382 -4.319,4.532 m -7.335,2.176 c -1.837,0 -3.587,-0.37 -5.183,-1.035 l -33.211,65.667 c 1.764,1.118 3.174,2.742 4.018,4.675 l 66.64,-21.755 -26.683,-48.77 c -1.703,0.775 -3.588,1.218 -5.581,1.218 m -13.024,-9.994 -44.472,8.497 13.191,64.512 c 0.102,-0.003 0.202,-0.015 0.305,-0.015 1.35,0 2.636,0.264 3.822,0.728 l 33.216,-65.678 c -2.944,-1.778 -5.147,-4.642 -6.062,-8.044 m -46.437,8.872 -53.583,10.238 c 0.025,0.292 0.044,0.585 0.044,0.884 0,3.684 -1.998,6.894 -4.964,8.629 l 35.585,78 29.021,-18.385 c -0.725,-1.426 -1.142,-3.035 -1.142,-4.744 0,-5.009 3.51,-9.192 8.203,-10.24 l -13.164,-64.382 z m -60.321,20.583 c -1.011,0.344 -2.091,0.539 -3.218,0.539 -0.396,0 -0.785,-0.029 -1.169,-0.074 l -14.479,65.525 41.669,20.426 12.895,-8.168 -35.698,-78.248 z m -11.168,-3.412 -55.058,33.769 c 0.958,1.853 1.508,3.952 1.508,6.182 0,2.247 -0.557,4.362 -1.528,6.226 l 45.531,22.319 14.375,-65.049 c -1.942,-0.638 -3.615,-1.856 -4.828,-3.447 m -1.407,-9.551 -54.023,-26.651 c -2.269,3.842 -6.378,6.453 -11.12,6.628 l 0,56.05 c 4.302,0.158 8.083,2.321 10.443,5.59 l 55.061,-33.771 c -0.637,-1.315 -1.004,-2.785 -1.004,-4.344 0,-1.234 0.234,-2.411 0.643,-3.502 m -66.037,62.982 -10.722,103.243 c 3.096,0.552 5.822,2.157 7.802,4.435 l 33.823,-25.219 c -1.581,-2.43 -2.509,-5.324 -2.509,-8.439 0,-5.77 3.16,-10.793 7.836,-13.462 L -296.34,46.556 c -1.744,0.822 -3.685,1.295 -5.741,1.295 -0.133,0 -0.262,-0.016 -0.394,-0.02 m -0.106,-83.005 c -1.245,-0.046 -2.451,-0.248 -3.588,-0.609 l -49.697,123.775 c 0.841,0.413 1.633,0.908 2.364,1.48 l 41.637,-45.838 c -2.297,-2.42 -3.716,-5.683 -3.716,-9.283 0,-7.287 5.778,-13.21 13,-13.475 l 0,-56.05 z m -58.225,148.724 0,96.851 c 2.38,0.175 4.591,0.957 6.468,2.207 l 29.717,-38.251 c -2.732,-2.471 -4.46,-6.032 -4.46,-10.006 0,-4.153 1.879,-7.864 4.829,-10.341 l -30.511,-42.408 c -1.784,1.095 -3.837,1.786 -6.043,1.948 m 9.003,119.344 38.157,40.023 c 1.797,-1.477 3.988,-2.485 6.387,-2.875 l -8.135,-92.201 c -0.063,0.001 -0.124,0.01 -0.187,0.01 -2.763,0 -5.329,-0.833 -7.468,-2.257 l -29.717,38.251 c 2.733,2.47 4.46,6.032 4.46,10.006 0,3.483 -1.331,6.648 -3.497,9.043 m -1.332,-122.452 30.511,42.408 c 2.052,-1.26 4.459,-1.999 7.043,-1.999 0.133,0 0.262,0.016 0.395,0.02 l 10.721,-103.243 c -2.207,-0.394 -4.224,-1.321 -5.92,-2.648 l -41.637,45.837 c 2.298,2.421 3.716,5.683 3.716,9.284 0,4.153 -1.879,7.864 -4.829,10.341 m 47.868,159.418 c 0.062,-0.001 0.123,-0.009 0.186,-0.009 0.948,0 1.872,0.1 2.764,0.285 l 26.969,-93.665 -27.531,-7.584 c -1.629,4.559 -5.63,7.977 -10.524,8.772 l 8.136,92.201 z m 10.77,5.126 44.236,-29.913 -4.767,-63.004 -18.392,-5.067 -26.978,93.7 c 2.343,0.868 4.378,2.36 5.901,4.284 m 2.529,5.204 31.447,-5.151 c -0.034,-0.392 -0.06,-0.787 -0.06,-1.188 0,-6.771 4.989,-12.36 11.489,-13.334 l -0.995,-13.147 -43.289,29.273 c 0.629,1.095 1.105,2.286 1.408,3.547 m 83.818,50.73 c 0.671,-1.118 1.498,-2.129 2.454,-3.007 l -33.83,-42.873 c -2.156,1.459 -4.756,2.311 -7.555,2.311 -6.365,0 -11.687,-4.411 -13.112,-10.339 l -31.448,5.151 c 0.034,0.392 0.06,0.787 0.06,1.188 0,1.824 -0.366,3.561 -1.022,5.149 l 84.453,42.42 z m 11.569,-6.569 c 4.06,0 7.691,1.8 10.166,4.636 l 43.367,-32.48 c -0.758,-1.295 -1.199,-2.797 -1.199,-4.406 0,-0.14 0.014,-0.276 0.021,-0.415 l -89.742,-14.677 c -0.636,2.652 -2.053,4.994 -3.998,6.779 l 33.83,42.874 c 2.156,-1.459 4.756,-2.311 7.555,-2.311 m 13.222,10.766 58.902,-7.687 -9.171,-26.784 c -0.603,0.131 -1.227,0.205 -1.869,0.205 -2.504,0 -4.757,-1.058 -6.352,-2.744 l -43.365,32.48 c 0.874,1.364 1.518,2.889 1.855,4.53 m 60.926,-7.951 85.125,-11.109 c -0.006,-0.152 -0.023,-0.302 -0.023,-0.456 0,-0.466 0.037,-0.923 0.092,-1.374 l -89.975,-19.324 c -0.76,2.246 -2.405,4.079 -4.523,5.09 l 9.304,27.173 z m 85.604,-14.896 c 0.48,-1.549 1.293,-2.947 2.344,-4.13 l -40.377,-57.416 -52.946,37.198 c 0.676,1.242 1.061,2.665 1.061,4.179 0,0.286 -0.016,0.568 -0.043,0.847 l 89.961,19.322 z m 3.815,-5.517 c 1.428,-1.121 3.132,-1.9 4.995,-2.224 l -5.926,-70.185 c -0.046,0 -0.09,0.007 -0.136,0.007 -4.207,0 -7.964,-1.926 -10.44,-4.943 l -28.704,20.166 40.211,57.179 z m 6.987,-2.399 c 1.531,0.007 2.991,0.318 4.319,0.879 L 39.685,189.6 c -1.261,-0.832 -2.327,-1.929 -3.133,-3.209 l -58.16,29.297 c 0.659,1.591 1.027,3.333 1.027,5.163 0,6.73 -4.93,12.294 -11.372,13.316 l 5.926,70.187 z M 11.789,87.436 -23.903,99.203 c 0.042,0.294 0.072,0.592 0.072,0.898 0,1.437 -0.49,2.757 -1.306,3.813 l 64.174,68.475 c 0.63,-0.489 1.317,-0.906 2.049,-1.244 L 11.789,87.436 Z m -39.873,6.747 c 1.564,0.527 2.847,1.656 3.582,3.11 l 35.63,-11.746 -21.389,-61.11 c -1.583,0.581 -3.285,0.914 -5.07,0.914 -0.439,0 -0.871,-0.028 -1.301,-0.066 l -11.452,68.898 z m -4.079,0.031 c 0.652,-0.231 1.351,-0.363 2.082,-0.363 0.009,0 0.017,0.001 0.025,0.001 l 11.449,-68.879 c -5.394,-1.225 -9.652,-5.401 -11.006,-10.745 l -39.294,12.828 36.744,67.158 z m -108.305,2.454 104.245,2.297 c 0.017,-0.091 0.036,-0.182 0.057,-0.272 L -138.788,56.731 c -1.38,2.622 -3.836,4.581 -6.782,5.305 l 5.102,34.632 z m -28.903,-10.517 c 3.036,2.334 5.044,5.923 5.255,9.996 l 21.62,0.476 -5.053,-34.299 c -0.177,0.009 -0.352,0.027 -0.532,0.027 -1.768,0 -3.431,-0.442 -4.892,-1.213 l -16.398,25.013 z m -12.883,-1.952 c 1.458,-0.539 3.028,-0.848 4.673,-0.848 2.375,0 4.604,0.618 6.543,1.695 l 16.394,-25.007 c -0.642,-0.515 -1.218,-1.105 -1.723,-1.755 l -29.255,18.532 3.368,7.383 z m -6.965,5.834 c 1.232,-2.099 3.006,-3.84 5.141,-5.015 l -3.249,-7.121 -11.626,7.364 9.734,4.772 z m -55.76,24.385 c 0.415,0.756 0.755,1.557 1.04,2.384 l 53.231,-16.846 c -0.235,-0.998 -0.373,-2.035 -0.373,-3.105 0,-1.778 0.353,-3.471 0.977,-5.026 l -10.83,-5.309 -44.045,27.902 z m -7.436,-6.785 c 2.55,1.107 4.734,2.885 6.352,5.104 l 43.022,-27.254 -40.132,-19.672 -9.242,41.822 z m -6.166,-1.282 c 1.482,0 2.91,0.22 4.266,0.608 l 9.293,-42.054 -46.151,-22.623 c -0.939,1.289 -2.09,2.411 -3.418,3.298 l 30.141,61.929 c 1.812,-0.742 3.791,-1.158 5.869,-1.158 m 0.169,30.991 c -0.057,10e-4 -0.112,0.009 -0.169,0.009 -1.14,0 -2.247,-0.131 -3.317,-0.365 l -10.968,38.094 17.678,4.87 -3.224,-42.608 z m 62.629,58.973 c 0.62,-1.736 1.582,-3.304 2.81,-4.629 l -54.718,-58.811 c -2.314,2.286 -5.347,3.834 -8.727,4.308 l 3.278,43.332 57.357,15.8 z m 0.997,11.244 c -1.136,-1.978 -1.795,-4.264 -1.795,-6.708 0,-0.894 0.092,-1.766 0.258,-2.611 l -56.656,-15.607 4.626,61.149 53.567,-36.223 z m 2.081,2.752 c -0.34,-0.346 -0.658,-0.714 -0.96,-1.096 l -54.514,36.865 1.08,14.272 c 0.006,0 0.012,-10e-4 0.018,-10e-4 3.05,0 5.853,1.023 8.114,2.728 l 46.262,-52.768 z m 59.445,-1.764 -36.611,-4.914 c -0.768,3.663 -3.026,6.768 -6.104,8.681 l 37.349,71.623 c 0.776,-0.297 1.602,-0.488 2.466,-0.553 l 2.9,-74.837 z m 31.733,4.26 -29.742,-3.993 -2.893,74.649 c 2.056,0.316 3.873,1.343 5.195,2.828 l 52.954,-37.203 -25.514,-36.281 z m 53.946,8.044 c 0,-0.269 0.025,-0.532 0.04,-0.798 l -51.285,-6.884 24.45,34.768 28.715,-20.173 c -1.211,-2.024 -1.92,-4.383 -1.92,-6.913 m -72.977,-49.682 c -0.396,2.459 -1.652,4.625 -3.459,6.179 l 23.624,33.593 53.102,7.128 c 1.246,-5.945 6.404,-10.436 12.656,-10.69 l 1.016,-30.665 -86.939,-5.545 z m -10.633,35.638 28.097,3.771 -22.558,-32.077 c -1.34,0.761 -2.866,1.225 -4.494,1.319 l -1.045,26.987 z m -0.064,-47.598 c 0.17,-0.008 0.336,-0.026 0.508,-0.026 3.168,0 6,1.43 7.896,3.675 l 87.128,-60.081 c -0.267,-0.563 -0.452,-1.171 -0.541,-1.812 l -103.908,-2.289 8.917,60.533 z m -4.22,1.126 c 0.704,-0.363 1.455,-0.643 2.241,-0.838 l -8.966,-60.866 -21.946,-0.484 c -0.369,3.867 -2.374,7.247 -5.309,9.466 l 33.98,52.722 z m -34.146,41.313 36.439,4.892 1.038,-26.794 c -2.826,-0.383 -5.284,-1.905 -6.904,-4.093 l -31.978,19.146 c 0.917,1.822 1.445,3.873 1.445,6.052 0,0.269 -0.025,0.532 -0.04,0.797 m -11.751,-14.177 c 3.848,0.487 7.187,2.589 9.32,5.611 l 31.975,-19.144 c -0.637,-1.342 -1.004,-2.837 -1.004,-4.421 0,-3.284 1.537,-6.204 3.925,-8.097 l -33.971,-52.71 c -1.838,1.002 -3.937,1.579 -6.166,1.626 l -4.079,77.135 z m -64.991,-56.105 54.849,58.952 c 2.241,-1.796 5.065,-2.888 8.145,-2.953 l 4.079,-77.134 c -4.933,-0.625 -9.03,-3.903 -10.818,-8.367 l -53.288,16.863 c 0.207,1.009 0.315,2.054 0.315,3.124 0,3.59 -1.232,6.887 -3.282,9.515 m 215.079,-25.134 c -1.288,-0.251 -2.431,-0.898 -3.304,-1.809 l -87.126,60.08 c 0.773,1.391 1.227,2.979 1.283,4.67 l 86.878,5.541 2.269,-68.482 z m 66.22,74.855 -66.559,-4.245 -1.013,30.588 c 4.303,0.458 7.99,2.944 10.117,6.477 l 58.17,-29.301 c -0.429,-1.097 -0.677,-2.28 -0.715,-3.519 m -64.222,-74.792 -2.271,68.547 66.62,4.249 c 0.322,-2.029 1.215,-3.862 2.515,-5.334 l -64.169,-68.471 c -0.789,0.532 -1.707,0.883 -2.695,1.009 m -204.355,168.741 89.732,14.676 c 0.568,-2.003 1.825,-3.716 3.506,-4.857 l -37.34,-71.605 c -1.638,0.706 -3.441,1.101 -5.338,1.101 -3.049,0 -5.853,-1.023 -8.113,-2.729 l -46.263,52.769 c 2.395,2.436 3.876,5.774 3.876,9.46 0,0.4 -0.026,0.794 -0.06,1.185 m -68.697,-108.074 27.543,7.587 10.977,-38.125 c -2.567,-0.923 -4.822,-2.495 -6.558,-4.531 l -33.823,25.219 c 1.334,2.093 2.118,4.572 2.118,7.239 0,0.894 -0.092,1.766 -0.257,2.611 M -138.029,54.88 -35.407,96.842 c 0.394,-0.642 0.899,-1.207 1.491,-1.669 L -70.84,27.687 -137.839,49.559 c 0.164,0.739 0.258,1.504 0.258,2.292 0,1.054 -0.159,2.07 -0.448,3.029 m 186.064,7.131 -51.4,-42.809 c -1.322,1.836 -3.048,3.36 -5.058,4.428 L 13.028,84.921 46.172,73.994 c -0.421,-1.307 -0.661,-2.696 -0.661,-4.143 0,-2.927 0.941,-5.629 2.524,-7.84 m -5.06,108.474 c 0.814,-0.2 1.66,-0.318 2.536,-0.318 0.095,0 0.187,0.012 0.281,0.014 l 10.6,-87.089 C 52.231,82.274 48.764,79.54 46.927,75.852 L 13.689,86.81 42.975,170.485 Z m 12.909,8.124 11.749,-1.297 -8.418,-93.971 c -0.068,0.001 -0.135,0.01 -0.204,0.01 -0.213,0 -0.421,-0.022 -0.633,-0.032 l -10.601,87.097 c 4.068,0.887 7.264,4.108 8.107,8.193 m 5.323,-95.452 8.414,93.936 21.494,-2.371 c -0.053,0.679 -0.118,1.354 -0.175,2.032 l -21.14,2.332 6.603,73.71 c -0.515,1.6 -1.043,3.183 -1.583,4.754 l -7.009,-78.245 -11.716,1.293 c 10e-4,0.054 0.008,0.106 0.008,0.161 0,4.438 -2.732,8.233 -6.605,9.809 l 22.469,74.881 c -0.388,1.011 -0.79,2.003 -1.189,3 L 47.583,191.145 c -0.67,0.133 -1.362,0.206 -2.072,0.206 -1.439,0 -2.811,-0.29 -4.062,-0.81 l -61.395,115.637 c 2.146,1.4 3.786,3.509 4.581,6 l 72.59,-16.247 c -0.492,0.806 -0.993,1.596 -1.495,2.385 l -70.668,15.816 c 0.063,0.482 0.107,0.97 0.107,1.469 0,6.213 -5.037,11.25 -11.25,11.25 -2.327,0 -4.489,-0.707 -6.283,-1.918 l -51.134,42.94 c -1.216,0.159 -2.436,0.31 -3.657,0.458 l 53.216,-44.687 c -1.534,-1.499 -2.638,-3.432 -3.119,-5.602 l -84.714,11.055 14.106,41.196 c -0.688,0.048 -1.376,0.1 -2.065,0.145 l -14.065,-41.077 -59.323,7.742 c 0.014,0.249 0.038,0.495 0.038,0.748 0,1.805 -0.361,3.524 -1.003,5.097 l 56.838,28.266 c -1.436,0.035 -2.873,0.07 -4.31,0.09 l -53.427,-26.569 c -2.354,3.957 -6.66,6.616 -11.598,6.616 -6.531,0 -11.977,-4.638 -13.229,-10.799 l -58.842,7.529 c -1.212,-0.512 -2.422,-1.025 -3.61,-1.554 l 62.217,-7.961 c -0.012,-0.238 -0.036,-0.474 -0.036,-0.715 0,-1.824 0.367,-3.562 1.022,-5.149 l -84.452,-42.421 c -2.101,3.5 -5.733,5.968 -9.978,6.468 l 1.447,32.784 c -0.691,-0.507 -1.396,-1.007 -2.07,-1.524 l -1.375,-31.179 c -7.266,-0.216 -13.094,-6.16 -13.094,-13.479 0,-3.484 1.331,-6.649 3.497,-9.043 l -38.156,-40.024 c -0.937,0.77 -1.983,1.409 -3.106,1.907 -2.609,-10.202 -4.76,-20.832 -6.46,-31.743 l 0,-90.898 c -1.332,-0.098 -2.609,-0.391 -3.806,-0.846 0.588,-8.733 1.445,-17.388 2.573,-25.903 0.728,-0.122 1.471,-0.2 2.233,-0.2 1.426,0 2.798,0.224 4.088,0.634 l 49.697,-123.775 c -1.319,-0.648 -2.512,-1.509 -3.547,-2.53 6.251,-5.713 13.495,-10.923 21.534,-15.648 0.922,1.826 1.453,3.883 1.453,6.069 0,1.79 -0.356,3.494 -0.989,5.057 l 54.017,26.648 c 1.767,-2.822 4.896,-4.705 8.472,-4.705 1.184,0 2.315,0.216 3.369,0.594 l 30.41,-63.893 c 0.79,-0.107 1.576,-0.22 2.368,-0.322 l -30.972,65.076 c 2.099,1.274 3.694,3.292 4.408,5.696 l 53.555,-10.232 -12.702,-62.124 c 0.667,-0.062 1.338,-0.114 2.007,-0.173 l 12.661,61.921 44.491,-8.5 c -0.058,-0.507 -0.095,-1.021 -0.095,-1.543 0,-3.319 1.203,-6.354 3.189,-8.705 l -45.126,-44.224 c 0.905,-0.046 1.81,-0.096 2.717,-0.136 l 43.814,42.937 c 2.378,-2.093 5.489,-3.372 8.906,-3.372 5.785,0 10.706,3.646 12.628,8.759 l 35.636,-10.436 c -0.194,-0.911 -0.301,-1.854 -0.301,-2.823 0,-1.468 0.242,-2.878 0.675,-4.201 l -75.868,-31.251 c 1.851,0.027 3.701,0.072 5.55,0.123 l 71.086,29.281 c 2.22,-4.415 6.778,-7.452 12.057,-7.452 6.207,0 11.421,4.194 12.999,9.898 l 29.397,-5.84 c 1.023,0.474 2.047,0.946 3.051,1.432 l -32.056,6.369 c 0.065,0.539 0.109,1.084 0.109,1.641 0,3.828 -1.601,7.277 -4.161,9.734 L 0.287,-2.792 40.543,-35.043 c 0.465,0.477 0.927,0.962 1.386,1.452 L 1.56,-1.25 51.213,58.844 c 2.204,-1.565 4.89,-2.493 7.798,-2.493 0.878,0 1.733,0.09 2.564,0.25 L 72.141,17.722 c 0.406,1.066 0.802,2.143 1.196,3.224 l -9.834,36.187 c 5.244,1.853 9.008,6.839 9.008,12.718 0,3.658 -1.46,6.971 -3.823,9.402 l 22.098,24.912 c 0.098,1.112 0.199,2.224 0.288,3.339 L 67.187,80.576 c -1.718,1.311 -3.755,2.216 -5.98,2.581" /></g></g></g></g><path
     inkscape:connector-curvature="0"
     style="fill:#d9dbda"
     d="m 237.96135,336.58813 c 0.2,-9.6 18,-9.7 20.4,-41.7 0.3,-3.9 0.3,-8.3 -0.3,-12.7 -0.6,-18.3 -15.8,-32.9 -34.4,-32.9 -16.3,0 -29.9,11.2 -33.5,26.2 -2.4,7.4 -2.6,15.2 -1.9,21 4.3,34.4 21,27.7 20.5,42.4 -0.5,14.8 -49.9,11.6 -47,42.5 0.8,8.8 32.3,14.9 59.1,14.9 28.3,0 68.2,-1.8 68.2,-11.9 0,-35 -51.4,-31.4 -51.1,-47.8 z"
     id="path13" /><path
     inkscape:connector-curvature="0"
     style="fill:#d9dbda"
     d="m 427.26135,336.58813 c 0.2,-9.6 18,-9.7 20.4,-41.7 0.3,-3.9 0.3,-8.3 -0.3,-12.7 -0.6,-18.3 -15.8,-32.9 -34.4,-32.9 -16.3,0 -29.9,11.2 -33.5,26.2 -2.4,7.4 -2.6,15.2 -1.9,21 4.3,34.4 21,27.7 20.5,42.4 -0.5,14.8 -49.9,11.6 -47,42.5 0.8,8.8 32.3,14.9 59.1,14.9 28.3,0 68.2,-1.8 68.2,-11.9 0.1,-35 -51.4,-31.4 -51.1,-47.8 z"
     id="path15" /><path
     inkscape:connector-curvature="0"
     style="fill:#ffffff"
     d="m 339.56135,336.88813 c 0.3,-14.8 27.9,-15.1 31.7,-64.8 0.5,-6.1 0.4,-12.9 -0.5,-19.8 -1,-28.4 -24.5,-51.2 -53.4,-51.2 -25.2,0 -46.4,17.3 -52,40.7 -3.7,11.5 -4,23.6 -2.9,32.6 6.6,53.4 32.6,43 31.9,65.9 -0.8,23 -77.4,18.1 -73,66 1.3,13.7 50.1,23.2 91.7,23.2 44,0 105.9,-2.8 105.9,-18.4 0,-54.3 -79.9,-48.6 -79.4,-74.2 z"
     id="path17" /></svg>