<?xml version="1.0" encoding="utf-8"?>
<!-- Generator: Adobe Illustrator 18.0.0, SVG Export Plug-In . SVG Version: 6.00 Build 0)  -->
<!DOCTYPE svg PUBLIC "-//W3C//DTD SVG 1.1//EN" "http://www.w3.org/Graphics/SVG/1.1/DTD/svg11.dtd">
<svg version="1.1" id="Layer_1" xmlns="http://www.w3.org/2000/svg" xmlns:xlink="http://www.w3.org/1999/xlink" x="0px" y="0px"
	 viewBox="0 0 512 512" enable-background="new 0 0 512 512" xml:space="preserve">
<g>
	<g>
		<g opacity="0.4" enable-background="new    ">
			
				<radialGradient id="SVGID_1_" cx="256.525" cy="257.4813" r="237.7344" gradientTransform="matrix(1 0 0 -1 -0.5 513.5)" gradientUnits="userSpaceOnUse">
				<stop  offset="0" style="stop-color:#010101"/>
				<stop  offset="0.8587" style="stop-color:#010101;stop-opacity:0.1413"/>
				<stop  offset="1" style="stop-color:#010101;stop-opacity:0"/>
			</radialGradient>
			<path fill="url(#SVGID_1_)" d="M449,449c-59.7,59.7-326.2,59.7-385.9,0S3.4,122.7,63,63s326.3-59.6,386,0S508.6,389.3,449,449z"
				/>
		</g>
		<g opacity="0.4" enable-background="new    ">
			
				<radialGradient id="SVGID_2_" cx="257.0394" cy="258.0371" r="266.3242" gradientTransform="matrix(0.7069 -0.7073 -0.4895 -0.4892 200.633 564.0107)" gradientUnits="userSpaceOnUse">
				<stop  offset="0" style="stop-color:#010101"/>
				<stop  offset="0.8587" style="stop-color:#010101;stop-opacity:0.1413"/>
				<stop  offset="1" style="stop-color:#010101;stop-opacity:0"/>
			</radialGradient>
			<path fill="url(#SVGID_2_)" d="M449,449c-59.7,59.7-326.2,59.7-385.9,0S3.4,122.7,63,63s326.3-59.6,386,0S508.6,389.3,449,449z"
				/>
		</g>
		<g opacity="0.4" enable-background="new    ">
			
				<radialGradient id="SVGID_3_" cx="257.7463" cy="256.9128" r="266.3709" gradientTransform="matrix(-0.7069 -0.7073 0.4895 -0.4892 312.367 564.0107)" gradientUnits="userSpaceOnUse">
				<stop  offset="0" style="stop-color:#010101"/>
				<stop  offset="0.8587" style="stop-color:#010101;stop-opacity:0.1413"/>
				<stop  offset="1" style="stop-color:#010101;stop-opacity:0"/>
			</radialGradient>
			<path fill="url(#SVGID_3_)" d="M63,449c59.7,59.7,326.2,59.7,385.9,0s59.7-326.2,0-385.9S122.7,3.4,63,63S3.4,389.3,63,449z"/>
		</g>
	</g>
	
		<radialGradient id="SVGID_4_" cx="258.5" cy="-185.5" r="261.0019" gradientTransform="matrix(1 0 0 -1 -0.5 -53.5)" gradientUnits="userSpaceOnUse">
		<stop  offset="0" style="stop-color:#FFC33F"/>
		<stop  offset="1" style="stop-color:#FF8F3F"/>
	</radialGradient>
	<path fill="url(#SVGID_4_)" d="M433.3,433.3c-70.3,70.3-284.3,70.3-354.6,0S8.4,149,78.7,78.7s284.3-70.3,354.6,0
		S503.6,363,433.3,433.3z"/>
</g>
<g>
	<path opacity="0.2" fill="#070707" enable-background="new    " d="M262.9,153.4c-46.4-0.9-84,40.2-84.6,86.2
		c0,0.2-5.6,163.9-8.1,237.3c15.4,3.5,31.7,5.9,48.3,7.4c1.6-63.2,5.5-215.4,8.3-241.6c2.6-24.8,14.7-26.7,28.7-29.5
		c19.4-3.7,40.3,10.9,40.3,30.7L290,484.7c16.9-1.4,33.4-3.7,49.1-7.1c1.5-61,4.4-186.8,4.1-236.4
		C342.6,184.9,316.1,154.5,262.9,153.4z"/>
	<path fill="#FFFFFF" d="M253.4,156.4c-46.4,0-83.9,37.2-84.6,83.4c0,0.2,0,163.2,0,236.9c15.6,3.6,32,6.1,48.8,7.7V241
		c0-19.7,16.1-35.8,35.8-35.8c19.7,0,35.8,16.1,35.8,35.8v243.7c16.8-1.3,33.2-3.6,48.8-7V240.6c0-0.3,0-0.5,0-0.8
		C337.3,193.6,299.6,156.4,253.4,156.4z"/>
</g>
</svg>
