<?xml version="1.0" encoding="UTF-8" standalone="no"?>
<svg
   xmlns:dc="http://purl.org/dc/elements/1.1/"
   xmlns:cc="http://creativecommons.org/ns#"
   xmlns:rdf="http://www.w3.org/1999/02/22-rdf-syntax-ns#"
   xmlns:svg="http://www.w3.org/2000/svg"
   xmlns="http://www.w3.org/2000/svg"
   viewBox="0 0 640 640"
   height="640"
   width="640"
   xml:space="preserve"
   version="1.1"
   id="svg2"><metadata
     id="metadata8"><rdf:RDF><cc:Work
         rdf:about=""><dc:format>image/svg+xml</dc:format><dc:type
           rdf:resource="http://purl.org/dc/dcmitype/StillImage" /></cc:Work></rdf:RDF></metadata><defs
     id="defs6"><clipPath
       id="clipPath16"
       clipPathUnits="userSpaceOnUse"><path
         id="path18"
         d="M 0,512 512,512 512,0 0,0 0,512 Z" /></clipPath><clipPath
       id="clipPath24"
       clipPathUnits="userSpaceOnUse"><path
         id="path26"
         d="m 18.325,493.744 475.4,0 0,-475.4877 -475.4,0 0,475.4877 z" /></clipPath><clipPath
       id="clipPath28"
       clipPathUnits="userSpaceOnUse"><path
         id="path30"
         d="M 448.99,63.029 C 389.293,3.332 122.807,3.332 63.11,63.029 3.413,122.726 3.413,389.312 63.01,449.009 c 59.597,59.696 326.283,59.596 385.98,0 59.697,-59.597 59.597,-326.283 0,-385.98" /></clipPath><radialGradient
       id="radialGradient36"
       spreadMethod="pad"
       gradientTransform="matrix(237.72188,0,0,237.72188,256.02499,256)"
       gradientUnits="userSpaceOnUse"
       r="1"
       cy="0"
       cx="0"
       fy="0"
       fx="0"><stop
         id="stop38"
         offset="0"
         style="stop-opacity:1;stop-color:#ffffff" /><stop
         id="stop40"
         offset="0.8587"
         style="stop-opacity:0.14129854;stop-color:#ffffff" /><stop
         id="stop42"
         offset="1"
         style="stop-opacity:0;stop-color:#ffffff" /></radialGradient><mask
       id="mask44"
       height="1"
       width="1"
       y="0"
       x="0"
       maskUnits="userSpaceOnUse"><g
         id="g46"><g
           id="g48"><g
             id="g50"><g
               id="g52"><path
                 id="path54"
                 style="fill:url(#radialGradient36);stroke:none"
                 d="m -32768,32767 65535,0 0,-65535 -65535,0 0,65535 z" /></g></g></g></g></mask><radialGradient
       id="radialGradient56"
       spreadMethod="pad"
       gradientTransform="matrix(237.72188,0,0,237.72188,256.02499,256)"
       gradientUnits="userSpaceOnUse"
       r="1"
       cy="0"
       cx="0"
       fy="0"
       fx="0"><stop
         id="stop58"
         offset="0"
         style="stop-opacity:1;stop-color:#010101" /><stop
         id="stop60"
         offset="0.8587"
         style="stop-opacity:1;stop-color:#010101" /><stop
         id="stop62"
         offset="1"
         style="stop-opacity:1;stop-color:#010101" /></radialGradient><clipPath
       id="clipPath86"
       clipPathUnits="userSpaceOnUse"><path
         id="path88"
         d="m 18.325,493.744 475.4,0 0,-475.4877 -475.4,0 0,475.4877 z" /></clipPath><clipPath
       id="clipPath90"
       clipPathUnits="userSpaceOnUse"><path
         id="path92"
         d="M 448.99,63.029 C 389.293,3.332 122.807,3.332 63.11,63.029 3.413,122.726 3.413,389.312 63.01,449.009 c 59.597,59.696 326.283,59.596 385.98,0 59.697,-59.597 59.597,-326.283 0,-385.98" /></clipPath><radialGradient
       id="radialGradient98"
       spreadMethod="pad"
       gradientTransform="matrix(188.25467,188.36119,-130.35883,130.27895,256.02499,256.04376)"
       gradientUnits="userSpaceOnUse"
       r="1"
       cy="0"
       cx="0"
       fy="0"
       fx="0"><stop
         id="stop100"
         offset="0"
         style="stop-opacity:1;stop-color:#ffffff" /><stop
         id="stop102"
         offset="0.8587"
         style="stop-opacity:0.14129854;stop-color:#ffffff" /><stop
         id="stop104"
         offset="1"
         style="stop-opacity:0;stop-color:#ffffff" /></radialGradient><mask
       id="mask106"
       height="1"
       width="1"
       y="0"
       x="0"
       maskUnits="userSpaceOnUse"><g
         id="g108"><g
           id="g110"><g
             id="g112"><g
               id="g114"><path
                 id="path116"
                 style="fill:url(#radialGradient98);stroke:none"
                 d="m -32768,32767 65535,0 0,-65535 -65535,0 0,65535 z" /></g></g></g></g></mask><radialGradient
       id="radialGradient118"
       spreadMethod="pad"
       gradientTransform="matrix(188.25467,188.36119,-130.35883,130.27895,256.02499,256.04376)"
       gradientUnits="userSpaceOnUse"
       r="1"
       cy="0"
       cx="0"
       fy="0"
       fx="0"><stop
         id="stop120"
         offset="0"
         style="stop-opacity:1;stop-color:#010101" /><stop
         id="stop122"
         offset="0.8587"
         style="stop-opacity:1;stop-color:#010101" /><stop
         id="stop124"
         offset="1"
         style="stop-opacity:1;stop-color:#010101" /></radialGradient><clipPath
       id="clipPath148"
       clipPathUnits="userSpaceOnUse"><path
         id="path150"
         d="m 18.275,493.694 475.387,0 0,-475.4377 -475.387,0 0,475.4377 z" /></clipPath><clipPath
       id="clipPath152"
       clipPathUnits="userSpaceOnUse"><path
         id="path154"
         d="m 63.01,63.029 c 59.697,-59.697 326.183,-59.697 385.88,0 59.697,59.697 59.697,326.183 0,385.88 -59.697,59.696 -326.183,59.696 -385.88,0.1 -59.697,-59.597 -59.597,-326.283 0,-385.98" /></clipPath><radialGradient
       id="radialGradient160"
       spreadMethod="pad"
       gradientTransform="matrix(-188.28767,188.39421,130.38168,130.30179,255.92499,255.99377)"
       gradientUnits="userSpaceOnUse"
       r="1"
       cy="0"
       cx="0"
       fy="0"
       fx="0"><stop
         id="stop162"
         offset="0"
         style="stop-opacity:1;stop-color:#ffffff" /><stop
         id="stop164"
         offset="0.8587"
         style="stop-opacity:0.14129854;stop-color:#ffffff" /><stop
         id="stop166"
         offset="1"
         style="stop-opacity:0;stop-color:#ffffff" /></radialGradient><mask
       id="mask168"
       height="1"
       width="1"
       y="0"
       x="0"
       maskUnits="userSpaceOnUse"><g
         id="g170"><g
           id="g172"><g
             id="g174"><g
               id="g176"><path
                 id="path178"
                 style="fill:url(#radialGradient160);stroke:none"
                 d="m -32768,32767 65535,0 0,-65535 -65535,0 0,65535 z" /></g></g></g></g></mask><radialGradient
       id="radialGradient180"
       spreadMethod="pad"
       gradientTransform="matrix(-188.28767,188.39421,130.38168,130.30179,255.92499,255.99377)"
       gradientUnits="userSpaceOnUse"
       r="1"
       cy="0"
       cx="0"
       fy="0"
       fx="0"><stop
         id="stop182"
         offset="0"
         style="stop-opacity:1;stop-color:#010101" /><stop
         id="stop184"
         offset="0.8587"
         style="stop-opacity:1;stop-color:#010101" /><stop
         id="stop186"
         offset="1"
         style="stop-opacity:1;stop-color:#010101" /></radialGradient><clipPath
       id="clipPath222"
       clipPathUnits="userSpaceOnUse"><path
         id="path224"
         d="m 308.344,188.069 c -2.771,0 -5.384,-1.098 -7.371,-3.084 l 0,0 -49.186,-49.186 41.608,0 c 1.515,0 2.979,0.313 4.338,0.941 l 0,0 c 1.15,0.47 2.196,1.202 3.084,2.09 l 0,0 46.155,46.155 c 0.888,0.889 1.62,1.934 2.143,3.084 l 0,0 -40.771,0 z" /></clipPath><linearGradient
       id="linearGradient234"
       spreadMethod="pad"
       gradientTransform="matrix(74.799095,74.799156,74.799156,-74.799095,263.28662,124.29926)"
       gradientUnits="userSpaceOnUse"
       y2="0"
       x2="1"
       y1="0"
       x1="0"><stop
         id="stop236"
         offset="0"
         style="stop-opacity:0;stop-color:#ffffff" /><stop
         id="stop238"
         offset="1"
         style="stop-opacity:0.50000763;stop-color:#ffffff" /></linearGradient><mask
       id="mask240"
       height="1"
       width="1"
       y="0"
       x="0"
       maskUnits="userSpaceOnUse"><g
         id="g242"><g
           id="g244"><g
             id="g246"><g
               id="g248"><path
                 id="path250"
                 style="fill:url(#linearGradient234);stroke:none"
                 d="m -32768,32767 65535,0 0,-65535 -65535,0 0,65535 z" /></g></g></g></g></mask><linearGradient
       id="linearGradient256"
       spreadMethod="pad"
       gradientTransform="matrix(74.799095,74.799156,74.799156,-74.799095,263.28662,124.29926)"
       gradientUnits="userSpaceOnUse"
       y2="0"
       x2="1"
       y1="0"
       x1="0"><stop
         id="stop258"
         offset="0"
         style="stop-opacity:1;stop-color:#bcbcbc" /><stop
         id="stop260"
         offset="1"
         style="stop-opacity:1;stop-color:#bcbcbc" /></linearGradient><clipPath
       id="clipPath268"
       clipPathUnits="userSpaceOnUse"><path
         id="path270"
         d="M 0,512 512,512 512,0 0,0 0,512 Z" /></clipPath></defs><g
     transform="matrix(1.25,0,0,-1.25,0,640)"
     id="g10"><g
       id="g12"><g
         clip-path="url(#clipPath16)"
         id="g14"><g
           id="g20"><g
             id="g22" /><g
             id="g64"><g
               style="opacity:0.39999402"
               id="g66"
               clip-path="url(#clipPath24)"><g
                 id="g68"><g
                   id="g70"
                   clip-path="url(#clipPath28)"><g
                     id="g72"><g
                       id="g74" /><g
                       id="g76"
                       mask="url(#mask44)"><g
                         id="g78"><path
                           id="path80"
                           style="fill:url(#radialGradient56);stroke:none"
                           d="M 448.99,63.029 C 389.293,3.332 122.807,3.332 63.11,63.029 3.413,122.726 3.413,389.312 63.01,449.009 c 59.597,59.696 326.283,59.596 385.98,0 59.697,-59.597 59.597,-326.283 0,-385.98" /></g></g></g></g></g></g></g></g><g
           id="g82"><g
             id="g84" /><g
             id="g126"><g
               style="opacity:0.39999402"
               id="g128"
               clip-path="url(#clipPath86)"><g
                 id="g130"><g
                   id="g132"
                   clip-path="url(#clipPath90)"><g
                     id="g134"><g
                       id="g136" /><g
                       id="g138"
                       mask="url(#mask106)"><g
                         id="g140"><path
                           id="path142"
                           style="fill:url(#radialGradient118);stroke:none"
                           d="M 448.99,63.029 C 389.293,3.332 122.807,3.332 63.11,63.029 3.413,122.726 3.413,389.312 63.01,449.009 c 59.597,59.696 326.283,59.596 385.98,0 59.697,-59.597 59.597,-326.283 0,-385.98" /></g></g></g></g></g></g></g></g><g
           id="g144"><g
             id="g146" /><g
             id="g188"><g
               style="opacity:0.39999402"
               id="g190"
               clip-path="url(#clipPath148)"><g
                 id="g192"><g
                   id="g194"
                   clip-path="url(#clipPath152)"><g
                     id="g196"><g
                       id="g198" /><g
                       id="g200"
                       mask="url(#mask168)"><g
                         id="g202"><path
                           id="path204"
                           style="fill:url(#radialGradient180);stroke:none"
                           d="m 63.01,63.029 c 59.697,-59.697 326.183,-59.697 385.88,0 59.697,59.697 59.697,326.183 0,385.88 -59.697,59.696 -326.183,59.696 -385.88,0.1 -59.697,-59.597 -59.597,-326.283 0,-385.98" /></g></g></g></g></g></g></g></g><g
           transform="translate(433.279,78.721)"
           id="g206"><path
             id="path208"
             style="fill:#fcf7e3;fill-opacity:1;fill-rule:nonzero;stroke:none"
             d="m 0,0 c -70.294,-70.294 -284.264,-70.294 -354.558,0 -70.294,70.294 -70.294,284.264 0,354.558 70.294,70.294 284.264,70.294 354.558,0 C 70.294,284.264 70.295,70.294 0,0" /></g><g
           transform="translate(338.0352,135.778)"
           id="g210"><path
             id="path212"
             style="fill:#e5e5e5;fill-opacity:1;fill-rule:nonzero;stroke:none"
             d="m 0,0 -164.07,0 c -6.656,0 -12.052,5.396 -12.052,12.052 l 0,216.34 c 0,6.656 5.396,12.052 12.052,12.052 l 164.07,0 c 6.656,0 12.052,-5.396 12.052,-12.052 l 0,-216.34 C 12.052,5.396 6.656,0 0,0" /></g><g
           transform="translate(300.8481,138.8617)"
           id="g214"><path
             id="path216"
             style="fill:#ffffff;fill-opacity:1;fill-rule:nonzero;stroke:none"
             d="m 0,0 46.155,46.155 c 1.986,1.986 3.084,4.6 3.084,7.37 l 0,173.381 c 0,5.75 -4.705,10.454 -10.454,10.454 l -167.266,0 c -5.75,0 -10.454,-4.704 -10.454,-10.454 l 0,-219.536 c 0,-5.75 4.704,-10.454 10.454,-10.454 l 121.059,0 c 2.77,0 5.436,1.098 7.422,3.084" /></g></g></g><g
       id="g218"><g
         clip-path="url(#clipPath222)"
         id="g220"><g
           id="g226"><g
             id="g228" /><g
             mask="url(#mask240)"
             id="g252"><g
               id="g254"><path
                 id="path262"
                 style="fill:url(#linearGradient256);stroke:none"
                 d="m 308.344,188.069 c -2.771,0 -5.384,-1.098 -7.371,-3.084 l 0,0 -49.186,-49.186 41.608,0 c 1.515,0 2.979,0.313 4.338,0.941 l 0,0 c 1.15,0.47 2.196,1.202 3.084,2.09 l 0,0 46.155,46.155 c 0.888,0.889 1.62,1.934 2.143,3.084 l 0,0 -40.771,0 z" /></g></g></g></g></g><g
       id="g264"><g
         clip-path="url(#clipPath268)"
         id="g266"><g
           transform="translate(293.4257,135.7778)"
           id="g272"><path
             id="path274"
             style="fill:#bcbcbc;fill-opacity:1;fill-rule:nonzero;stroke:none"
             d="m 0,0 c 1.516,0 2.979,0.314 4.338,0.941 1.15,0.523 2.196,1.202 3.084,2.091 l 46.155,46.155 c 0.889,0.888 1.621,1.934 2.091,3.084 0.627,1.359 0.941,2.822 0.941,4.338 l 0,1.673 c 0,-3.346 -2.666,-6.011 -6.011,-6.011 l -35.805,0 c -5.75,0 -10.455,-4.705 -10.455,-10.455 l 0,-35.805 C 4.338,2.666 1.673,0 -1.673,0 L 0,0 Z" /></g><g
           transform="translate(339.6328,376.2222)"
           id="g276"><path
             id="path278"
             style="fill:#f9e280;fill-opacity:1;fill-rule:nonzero;stroke:none"
             d="m 0,0 -167.266,0 c -5.749,0 -10.454,-4.704 -10.454,-10.454 l 0,-50.121 188.174,0 0,50.121 C 10.454,-4.704 5.75,0 0,0" /></g><path
           id="path280"
           style="fill:#cecece;fill-opacity:1;fill-rule:nonzero;stroke:none"
           d="m 168.948,303.337 -2.198,0 0,3.517 2.198,0 0,-3.517 z" /><path
           id="path282"
           style="fill:#cecece;fill-opacity:1;fill-rule:nonzero;stroke:none"
           d="m 177.876,303.337 -4.464,0 0,3.517 4.464,0 0,-3.517 z m 8.929,0 -4.464,0 0,3.517 4.464,0 0,-3.517 z m 8.928,0 -4.464,0 0,3.517 4.464,0 0,-3.517 z m 8.929,0 -4.464,0 0,3.517 4.464,0 0,-3.517 z m 8.928,0 -4.464,0 0,3.517 4.464,0 0,-3.517 z m 8.929,0 -4.464,0 0,3.517 4.464,0 0,-3.517 z m 8.928,0 -4.464,0 0,3.517 4.464,0 0,-3.517 z m 8.928,0 -4.464,0 0,3.517 4.464,0 0,-3.517 z m 8.929,0 -4.464,0 0,3.517 4.464,0 0,-3.517 z m 8.929,0 -4.464,0 0,3.517 4.464,0 0,-3.517 z m 8.928,0 -4.464,0 0,3.517 4.464,0 0,-3.517 z m 8.928,0 -4.464,0 0,3.517 4.464,0 0,-3.517 z m 8.928,0 -4.464,0 0,3.517 4.464,0 0,-3.517 z m 8.929,0 -4.464,0 0,3.517 4.464,0 0,-3.517 z m 8.928,0 -4.464,0 0,3.517 4.464,0 0,-3.517 z m 8.929,0 -4.464,0 0,3.517 4.464,0 0,-3.517 z m 8.928,0 -4.464,0 0,3.517 4.464,0 0,-3.517 z m 8.929,0 -4.464,0 0,3.517 4.464,0 0,-3.517 z m 8.928,0 -4.464,0 0,3.517 4.464,0 0,-3.517 z" /><path
           id="path284"
           style="fill:#cecece;fill-opacity:1;fill-rule:nonzero;stroke:none"
           d="m 345.251,303.337 -2.198,0 0,3.517 2.198,0 0,-3.517 z" /><path
           id="path286"
           style="fill:#ffb90b;fill-opacity:1;fill-rule:nonzero;stroke:none"
           d="m 350.087,315.65 -188.174,0 0,2.847 188.174,0 0,-2.847 z" /></g></g></g></svg>