<?xml version="1.0" encoding="UTF-8" standalone="no"?>
<svg
   xmlns:dc="http://purl.org/dc/elements/1.1/"
   xmlns:cc="http://creativecommons.org/ns#"
   xmlns:rdf="http://www.w3.org/1999/02/22-rdf-syntax-ns#"
   xmlns:svg="http://www.w3.org/2000/svg"
   xmlns="http://www.w3.org/2000/svg"
   viewBox="0 0 640 640"
   height="640"
   width="640"
   xml:space="preserve"
   version="1.1"
   id="svg2"><metadata
     id="metadata8"><rdf:RDF><cc:Work
         rdf:about=""><dc:format>image/svg+xml</dc:format><dc:type
           rdf:resource="http://purl.org/dc/dcmitype/StillImage" /></cc:Work></rdf:RDF></metadata><defs
     id="defs6"><clipPath
       id="clipPath16"
       clipPathUnits="userSpaceOnUse"><path
         id="path18"
         d="M 0,512 512,512 512,0 0,0 0,512 Z" /></clipPath><clipPath
       id="clipPath24"
       clipPathUnits="userSpaceOnUse"><path
         id="path26"
         d="m 18.2752,493.725 475.4498,0 0,-475.4497 -475.4498,0 0,475.4497 z" /></clipPath></defs><g
     transform="matrix(1.25,0,0,-1.25,0,640)"
     id="g10"><g
       id="g12"><g
         clip-path="url(#clipPath16)"
         id="g14"><g
           id="g20"><g
             id="g22" /><g
             id="g28"><g
               style="opacity:0.39999402"
               id="g30"
               clip-path="url(#clipPath24)"><g
                 id="g32"
                 transform="translate(448.964,63.036)"><path
                   id="path34"
                   style="fill:#ffffff;fill-opacity:1;fill-rule:nonzero;stroke:none"
                   d="m 0,0 c -59.681,-59.681 -326.247,-59.681 -385.928,0 -59.681,59.681 -59.681,326.247 0,385.928 59.681,59.681 326.247,59.681 385.928,0 C 59.681,326.247 59.681,59.681 0,0" /></g></g></g></g><g
           transform="translate(433.279,78.721)"
           id="g36"><path
             id="path38"
             style="fill:#333333;fill-opacity:1;fill-rule:nonzero;stroke:none"
             d="m 0,0 c -70.294,-70.294 -284.264,-70.294 -354.558,0 -70.294,70.294 -70.294,284.264 0,354.558 70.294,70.294 284.264,70.294 354.558,0 C 70.294,284.264 70.295,70.294 0,0" /></g><g
           transform="translate(429.2599,74.9371)"
           id="g40"><path
             id="path42"
             style="fill:#333333;fill-opacity:1;fill-rule:nonzero;stroke:none"
             d="m 0,0 c 7.403,46.018 12.141,124.385 12.141,171.934 0,48.619 -4.953,140.049 -12.645,190.631 -74.504,66.03 -281.182,64.63 -350.035,-4.223 -70.294,-70.294 -70.294,-284.264 0,-354.558 C -281.532,-65.223 -74.078,-66.479 0,0" /></g><g
           transform="translate(265.2364,301.8249)"
           id="g44"><path
             id="path46"
             style="fill:#7dff00;fill-opacity:1;fill-rule:nonzero;stroke:none"
             d="M 0,0 C 30.246,0 48.202,-23.537 48.202,-23.537 L 23.606,-44.265 C 12.561,-25.847 8.864,-17.73 -9.521,-15.506 l 0,-52.351 c 4.169,-1.394 8.792,-2.235 13.954,-2.235 35.882,0 69.344,46.475 69.344,46.475 0,0 -30.987,42.058 -78.204,40.589 -1.721,-0.061 -3.423,-0.152 -5.094,-0.284 l 0,-17.255 C -6.438,-0.241 -3.289,0 0,0" /></g><g
           transform="translate(255.7169,189.5519)"
           id="g48"><path
             id="path50"
             style="fill:#7dff00;fill-opacity:1;fill-rule:nonzero;stroke:none"
             d="m 0,0 0,-163.549 c 71.16,-0.047 142.368,17.524 177.562,52.718 70.295,70.294 70.294,284.264 0,354.558 -35.194,35.194 -106.403,52.765 -177.564,52.718 l 0,-153.486 c 1.695,0.134 3.389,0.245 5.094,0.293 C 70.755,145.47 113.55,89.4 113.55,89.4 c 0,0 -49.15,-59.762 -100.341,-59.762 -4.699,0 -9.085,0.427 -13.21,1.167 l 0,-15.949 c 3.527,-0.444 7.185,-0.714 10.997,-0.714 47.645,0 82.097,24.34 115.462,53.126 5.53,-4.428 28.174,-15.2 32.828,-19.915 C 127.565,20.784 53.637,-0.604 11.741,-0.604 7.685,-0.604 3.806,-0.364 0,0" /></g><g
           transform="translate(222.7987,271.3105)"
           id="g52"><path
             id="path54"
             style="fill:#7dff00;fill-opacity:1;fill-rule:nonzero;stroke:none"
             d="m 0,0 c 0,0 14.404,17.233 32.851,15.019 0.021,0 0.042,-0.011 0.066,-0.011 l 0,14.939 C -2.224,26.151 -23.382,2.701 -23.382,2.701 c 0,0 12.235,-45.809 56.299,-53.656 l 0,13.613 C 8.062,-29 0,0 0,0" /></g><g
           transform="translate(255.7152,189.5527)"
           id="g56"><path
             id="path58"
             style="fill:#7dff00;fill-opacity:1;fill-rule:nonzero;stroke:none"
             d="m 0,0 0,14.855 c -58.303,7.341 -78.268,71.591 -78.268,71.591 0,0 26.112,38.545 78.268,42.514 l 0,13.998 C -57.763,138.311 -107.781,89.399 -107.781,89.399 -107.781,89.399 -79.45,7.498 0,0" /></g><g
           transform="translate(249.6466,269.4393)"
           id="g60"><path
             id="path62"
             style="fill:#7dff00;fill-opacity:1;fill-rule:nonzero;stroke:none"
             d="m 0,0 c -5.035,-2.385 -8.526,-7.498 -8.526,-13.439 0,-1.863 0.358,-3.639 0.983,-5.283 l -110.548,-79.754 114.272,74.199 c 2.661,-2.499 6.233,-4.041 10.172,-4.041 l 0,152.128 L 0,0 Z" /></g><g
           transform="translate(269.5282,249.8311)"
           id="g64"><path
             id="path66"
             style="fill:#333333;fill-opacity:1;fill-rule:nonzero;stroke:none"
             d="M 0,0 96.488,6.169 0,12.338 c -1.458,3.191 -4.007,5.77 -7.175,7.27 l -6.353,123.81 0,-152.128 C -7.514,-8.71 -2.346,-5.135 0,0" /></g></g></g></g></svg>