<?xml version="1.0" encoding="UTF-8" standalone="no"?>
<svg
   xmlns:dc="http://purl.org/dc/elements/1.1/"
   xmlns:cc="http://creativecommons.org/ns#"
   xmlns:rdf="http://www.w3.org/1999/02/22-rdf-syntax-ns#"
   xmlns:svg="http://www.w3.org/2000/svg"
   xmlns="http://www.w3.org/2000/svg"
   viewBox="0 0 640 640"
   height="640"
   width="640"
   xml:space="preserve"
   version="1.1"
   id="svg2"><metadata
     id="metadata8"><rdf:RDF><cc:Work
         rdf:about=""><dc:format>image/svg+xml</dc:format><dc:type
           rdf:resource="http://purl.org/dc/dcmitype/StillImage" /></cc:Work></rdf:RDF></metadata><defs
     id="defs6"><clipPath
       id="clipPath16"
       clipPathUnits="userSpaceOnUse"><path
         id="path18"
         d="M 0,512 512,512 512,0 0,0 0,512 Z" /></clipPath><clipPath
       id="clipPath24"
       clipPathUnits="userSpaceOnUse"><path
         id="path26"
         d="m 18.325,493.744 475.4,0 0,-475.4877 -475.4,0 0,475.4877 z" /></clipPath><clipPath
       id="clipPath28"
       clipPathUnits="userSpaceOnUse"><path
         id="path30"
         d="M 448.99,63.029 C 389.293,3.332 122.807,3.332 63.11,63.029 3.413,122.726 3.413,389.312 63.01,449.009 c 59.597,59.696 326.283,59.596 385.98,0 59.697,-59.597 59.597,-326.283 0,-385.98" /></clipPath><radialGradient
       id="radialGradient36"
       spreadMethod="pad"
       gradientTransform="matrix(237.72188,0,0,237.72188,256.02499,256)"
       gradientUnits="userSpaceOnUse"
       r="1"
       cy="0"
       cx="0"
       fy="0"
       fx="0"><stop
         id="stop38"
         offset="0"
         style="stop-opacity:1;stop-color:#ffffff" /><stop
         id="stop40"
         offset="0.8587"
         style="stop-opacity:0.14129854;stop-color:#ffffff" /><stop
         id="stop42"
         offset="1"
         style="stop-opacity:0;stop-color:#ffffff" /></radialGradient><mask
       id="mask44"
       height="1"
       width="1"
       y="0"
       x="0"
       maskUnits="userSpaceOnUse"><g
         id="g46"><g
           id="g48"><g
             id="g50"><g
               id="g52"><path
                 id="path54"
                 style="fill:url(#radialGradient36);stroke:none"
                 d="m -32768,32767 65535,0 0,-65535 -65535,0 0,65535 z" /></g></g></g></g></mask><radialGradient
       id="radialGradient56"
       spreadMethod="pad"
       gradientTransform="matrix(237.72188,0,0,237.72188,256.02499,256)"
       gradientUnits="userSpaceOnUse"
       r="1"
       cy="0"
       cx="0"
       fy="0"
       fx="0"><stop
         id="stop58"
         offset="0"
         style="stop-opacity:1;stop-color:#010101" /><stop
         id="stop60"
         offset="0.8587"
         style="stop-opacity:1;stop-color:#010101" /><stop
         id="stop62"
         offset="1"
         style="stop-opacity:1;stop-color:#010101" /></radialGradient><clipPath
       id="clipPath86"
       clipPathUnits="userSpaceOnUse"><path
         id="path88"
         d="m 18.325,493.744 475.4,0 0,-475.4877 -475.4,0 0,475.4877 z" /></clipPath><clipPath
       id="clipPath90"
       clipPathUnits="userSpaceOnUse"><path
         id="path92"
         d="M 448.99,63.029 C 389.293,3.332 122.807,3.332 63.11,63.029 3.413,122.726 3.413,389.312 63.01,449.009 c 59.597,59.696 326.283,59.596 385.98,0 59.697,-59.597 59.597,-326.283 0,-385.98" /></clipPath><radialGradient
       id="radialGradient98"
       spreadMethod="pad"
       gradientTransform="matrix(188.25467,188.36119,-130.35883,130.27895,256.02499,256.04376)"
       gradientUnits="userSpaceOnUse"
       r="1"
       cy="0"
       cx="0"
       fy="0"
       fx="0"><stop
         id="stop100"
         offset="0"
         style="stop-opacity:1;stop-color:#ffffff" /><stop
         id="stop102"
         offset="0.8587"
         style="stop-opacity:0.14129854;stop-color:#ffffff" /><stop
         id="stop104"
         offset="1"
         style="stop-opacity:0;stop-color:#ffffff" /></radialGradient><mask
       id="mask106"
       height="1"
       width="1"
       y="0"
       x="0"
       maskUnits="userSpaceOnUse"><g
         id="g108"><g
           id="g110"><g
             id="g112"><g
               id="g114"><path
                 id="path116"
                 style="fill:url(#radialGradient98);stroke:none"
                 d="m -32768,32767 65535,0 0,-65535 -65535,0 0,65535 z" /></g></g></g></g></mask><radialGradient
       id="radialGradient118"
       spreadMethod="pad"
       gradientTransform="matrix(188.25467,188.36119,-130.35883,130.27895,256.02499,256.04376)"
       gradientUnits="userSpaceOnUse"
       r="1"
       cy="0"
       cx="0"
       fy="0"
       fx="0"><stop
         id="stop120"
         offset="0"
         style="stop-opacity:1;stop-color:#010101" /><stop
         id="stop122"
         offset="0.8587"
         style="stop-opacity:1;stop-color:#010101" /><stop
         id="stop124"
         offset="1"
         style="stop-opacity:1;stop-color:#010101" /></radialGradient><clipPath
       id="clipPath148"
       clipPathUnits="userSpaceOnUse"><path
         id="path150"
         d="m 18.275,493.694 475.387,0 0,-475.4377 -475.387,0 0,475.4377 z" /></clipPath><clipPath
       id="clipPath152"
       clipPathUnits="userSpaceOnUse"><path
         id="path154"
         d="m 63.01,63.029 c 59.697,-59.697 326.183,-59.697 385.88,0 59.697,59.697 59.697,326.183 0,385.88 -59.697,59.696 -326.183,59.696 -385.88,0.1 -59.697,-59.597 -59.597,-326.283 0,-385.98" /></clipPath><radialGradient
       id="radialGradient160"
       spreadMethod="pad"
       gradientTransform="matrix(-188.28767,188.39421,130.38168,130.30179,255.92499,255.99377)"
       gradientUnits="userSpaceOnUse"
       r="1"
       cy="0"
       cx="0"
       fy="0"
       fx="0"><stop
         id="stop162"
         offset="0"
         style="stop-opacity:1;stop-color:#ffffff" /><stop
         id="stop164"
         offset="0.8587"
         style="stop-opacity:0.14129854;stop-color:#ffffff" /><stop
         id="stop166"
         offset="1"
         style="stop-opacity:0;stop-color:#ffffff" /></radialGradient><mask
       id="mask168"
       height="1"
       width="1"
       y="0"
       x="0"
       maskUnits="userSpaceOnUse"><g
         id="g170"><g
           id="g172"><g
             id="g174"><g
               id="g176"><path
                 id="path178"
                 style="fill:url(#radialGradient160);stroke:none"
                 d="m -32768,32767 65535,0 0,-65535 -65535,0 0,65535 z" /></g></g></g></g></mask><radialGradient
       id="radialGradient180"
       spreadMethod="pad"
       gradientTransform="matrix(-188.28767,188.39421,130.38168,130.30179,255.92499,255.99377)"
       gradientUnits="userSpaceOnUse"
       r="1"
       cy="0"
       cx="0"
       fy="0"
       fx="0"><stop
         id="stop182"
         offset="0"
         style="stop-opacity:1;stop-color:#010101" /><stop
         id="stop184"
         offset="0.8587"
         style="stop-opacity:1;stop-color:#010101" /><stop
         id="stop186"
         offset="1"
         style="stop-opacity:1;stop-color:#010101" /></radialGradient></defs><g
     transform="matrix(1.25,0,0,-1.25,0,640)"
     id="g10"><g
       id="g12"><g
         clip-path="url(#clipPath16)"
         id="g14"><g
           id="g20"><g
             id="g22" /><g
             id="g64"><g
               style="opacity:0.39999402"
               id="g66"
               clip-path="url(#clipPath24)"><g
                 id="g68"><g
                   id="g70"
                   clip-path="url(#clipPath28)"><g
                     id="g72"><g
                       id="g74" /><g
                       id="g76"
                       mask="url(#mask44)"><g
                         id="g78"><path
                           id="path80"
                           style="fill:url(#radialGradient56);stroke:none"
                           d="M 448.99,63.029 C 389.293,3.332 122.807,3.332 63.11,63.029 3.413,122.726 3.413,389.312 63.01,449.009 c 59.597,59.696 326.283,59.596 385.98,0 59.697,-59.597 59.597,-326.283 0,-385.98" /></g></g></g></g></g></g></g></g><g
           id="g82"><g
             id="g84" /><g
             id="g126"><g
               style="opacity:0.39999402"
               id="g128"
               clip-path="url(#clipPath86)"><g
                 id="g130"><g
                   id="g132"
                   clip-path="url(#clipPath90)"><g
                     id="g134"><g
                       id="g136" /><g
                       id="g138"
                       mask="url(#mask106)"><g
                         id="g140"><path
                           id="path142"
                           style="fill:url(#radialGradient118);stroke:none"
                           d="M 448.99,63.029 C 389.293,3.332 122.807,3.332 63.11,63.029 3.413,122.726 3.413,389.312 63.01,449.009 c 59.597,59.696 326.283,59.596 385.98,0 59.697,-59.597 59.597,-326.283 0,-385.98" /></g></g></g></g></g></g></g></g><g
           id="g144"><g
             id="g146" /><g
             id="g188"><g
               style="opacity:0.39999402"
               id="g190"
               clip-path="url(#clipPath148)"><g
                 id="g192"><g
                   id="g194"
                   clip-path="url(#clipPath152)"><g
                     id="g196"><g
                       id="g198" /><g
                       id="g200"
                       mask="url(#mask168)"><g
                         id="g202"><path
                           id="path204"
                           style="fill:url(#radialGradient180);stroke:none"
                           d="m 63.01,63.029 c 59.697,-59.697 326.183,-59.697 385.88,0 59.697,59.697 59.697,326.183 0,385.88 -59.697,59.696 -326.183,59.696 -385.88,0.1 -59.697,-59.597 -59.597,-326.283 0,-385.98" /></g></g></g></g></g></g></g></g><g
           transform="translate(433.279,78.721)"
           id="g206"><path
             id="path208"
             style="fill:#f05e24;fill-opacity:1;fill-rule:nonzero;stroke:none"
             d="m 0,0 c -70.294,-70.294 -284.264,-70.294 -354.558,0 -70.294,70.294 -70.294,284.264 0,354.558 70.294,70.294 284.264,70.294 354.558,0 C 70.294,284.264 70.295,70.294 0,0" /></g><g
           transform="translate(200.1559,276.146)"
           id="g210"><path
             id="path212"
             style="fill:#ffffff;fill-opacity:1;fill-rule:nonzero;stroke:none"
             d="m 0,0 c -0.234,2.912 -0.829,5.493 -1.786,7.744 -0.957,2.249 -2.222,4.125 -3.794,5.624 -1.575,1.499 -3.43,2.593 -5.566,3.283 -2.136,0.691 -4.502,0.932 -7.096,0.724 -2.594,-0.208 -4.896,-0.825 -6.907,-1.849 -2.011,-1.024 -3.68,-2.401 -5.005,-4.133 -1.327,-1.731 -2.289,-3.786 -2.885,-6.161 -0.598,-2.375 -0.779,-5.019 -0.545,-7.931 0.235,-2.913 0.835,-5.493 1.805,-7.743 0.97,-2.249 2.246,-4.117 3.83,-5.603 1.585,-1.485 3.452,-2.573 5.601,-3.261 2.148,-0.691 4.519,-0.93 7.113,-0.721 2.594,0.208 4.89,0.823 6.889,1.846 1.999,1.022 3.656,2.393 4.971,4.112 1.314,1.718 2.264,3.766 2.849,6.14 C 0.059,-5.555 0.234,-2.912 0,0 m 10.131,0.814 c 0.313,-3.89 -0.046,-7.545 -1.076,-10.965 -1.031,-3.42 -2.623,-6.435 -4.778,-9.046 -2.154,-2.612 -4.828,-4.73 -8.022,-6.352 -3.194,-1.623 -6.798,-2.597 -10.811,-2.92 -4.014,-0.322 -7.732,0.063 -11.157,1.154 -3.425,1.092 -6.415,2.753 -8.971,4.987 -2.556,2.233 -4.616,4.954 -6.179,8.166 -1.564,3.211 -2.502,6.762 -2.814,10.652 -0.312,3.891 0.046,7.547 1.077,10.967 1.03,3.419 2.628,6.436 4.795,9.047 2.167,2.612 4.853,4.732 8.06,6.355 3.206,1.625 6.815,2.599 10.829,2.921 4.013,0.323 7.726,-0.068 11.14,-1.173 3.414,-1.105 6.392,-2.768 8.934,-4.99 2.543,-2.221 4.596,-4.937 6.16,-8.149 1.562,-3.212 2.5,-6.763 2.813,-10.654" /></g><g
           transform="translate(246.4305,272.8651)"
           id="g214"><path
             id="path216"
             style="fill:#ffffff;fill-opacity:1;fill-rule:nonzero;stroke:none"
             d="m 0,0 c 0.422,-0.815 0.839,-1.637 1.252,-2.467 0.271,0.909 0.556,1.806 0.855,2.691 0.299,0.887 0.623,1.737 0.977,2.554 L 16.43,33.441 c 0.167,0.383 0.344,0.694 0.535,0.93 0.19,0.237 0.41,0.414 0.659,0.533 0.249,0.117 0.532,0.202 0.848,0.253 0.315,0.049 0.695,0.093 1.135,0.128 l 7.451,0.599 4.267,-53.076 -8.663,-0.696 -2.756,34.282 c -0.05,0.636 -0.088,1.335 -0.113,2.097 -0.024,0.76 -0.031,1.536 -0.02,2.326 L 6.124,-10.573 C 5.811,-11.287 5.376,-11.859 4.818,-12.284 4.26,-12.712 3.589,-12.956 2.804,-13.019 l -1.36,-0.109 c -0.784,-0.063 -1.485,0.071 -2.105,0.404 -0.619,0.331 -1.14,0.826 -1.562,1.481 l -18.718,28.898 c 0.162,-0.799 0.294,-1.584 0.393,-2.351 0.098,-0.768 0.174,-1.482 0.227,-2.143 l 2.755,-34.281 -8.662,-0.697 -4.267,53.075 7.451,0.598 c 0.441,0.036 0.822,0.054 1.142,0.055 0.319,0 0.612,-0.038 0.877,-0.114 0.264,-0.078 0.516,-0.217 0.754,-0.42 0.238,-0.202 0.469,-0.479 0.695,-0.832 L -1.35,2.347 C -0.874,1.598 -0.422,0.817 0,0" /></g><g
           transform="translate(312.2585,265.7637)"
           id="g218"><path
             id="path220"
             style="fill:#ffffff;fill-opacity:1;fill-rule:nonzero;stroke:none"
             d="m 0,0 c 2.226,0.179 4.148,0.537 5.769,1.073 1.619,0.536 3.146,1.219 4.582,2.049 L 9.575,12.775 2.931,12.241 C 2.296,12.191 1.779,12.326 1.384,12.653 0.988,12.978 0.77,13.398 0.728,13.911 L 0.28,19.491 17.935,20.91 19.66,-0.562 C 18.393,-1.65 17.061,-2.613 15.663,-3.451 14.265,-4.29 12.759,-5.009 11.145,-5.606 9.531,-6.203 7.791,-6.695 5.925,-7.079 4.059,-7.463 2.038,-7.742 -0.141,-7.917 c -3.865,-0.311 -7.48,0.075 -10.843,1.159 -3.363,1.086 -6.327,2.731 -8.894,4.937 -2.566,2.207 -4.649,4.922 -6.251,8.143 -1.601,3.221 -2.56,6.801 -2.877,10.74 -0.32,3.988 0.034,7.699 1.063,11.132 1.029,3.432 2.641,6.442 4.834,9.032 2.192,2.59 4.936,4.682 8.232,6.277 3.295,1.595 7.059,2.562 11.292,2.903 4.331,0.348 8.132,0.006 11.405,-1.024 3.271,-1.029 6.092,-2.484 8.459,-4.362 l -2.503,-4.708 c -0.491,-0.951 -1.2,-1.464 -2.13,-1.539 -0.588,-0.047 -1.203,0.1 -1.846,0.442 -0.821,0.402 -1.659,0.803 -2.516,1.203 -0.858,0.398 -1.795,0.729 -2.814,0.992 -1.019,0.262 -2.155,0.455 -3.407,0.576 -1.254,0.121 -2.688,0.117 -4.303,-0.014 -2.619,-0.21 -4.951,-0.841 -6.997,-1.892 -2.046,-1.051 -3.749,-2.457 -5.11,-4.216 -1.36,-1.759 -2.353,-3.821 -2.975,-6.186 -0.622,-2.366 -0.821,-4.967 -0.592,-7.806 0.245,-3.058 0.893,-5.746 1.941,-8.063 1.048,-2.317 2.409,-4.233 4.083,-5.749 1.673,-1.515 3.609,-2.622 5.807,-3.32 C -4.88,0.044 -2.52,-0.203 0,0" /></g><g
           transform="translate(343.4559,265.9808)"
           id="g222"><path
             id="path224"
             style="fill:#ffffff;fill-opacity:1;fill-rule:nonzero;stroke:none"
             d="M 0,0 C -0.061,0.758 0.021,1.491 0.248,2.2 0.474,2.907 0.818,3.526 1.28,4.056 1.743,4.586 2.305,5.024 2.966,5.373 3.628,5.722 4.35,5.928 5.133,5.991 5.891,6.052 6.624,5.963 7.334,5.725 8.042,5.486 8.661,5.142 9.19,4.692 9.719,4.241 10.157,3.685 10.506,3.024 10.855,2.362 11.06,1.652 11.12,0.894 11.183,0.111 11.095,-0.629 10.855,-1.326 10.616,-2.022 10.271,-2.634 9.822,-3.164 9.371,-3.692 8.815,-4.125 8.152,-4.461 7.489,-4.797 6.779,-4.997 6.021,-5.058 5.238,-5.121 4.492,-5.038 3.785,-4.813 3.077,-4.586 2.452,-4.249 1.912,-3.8 1.371,-3.351 0.932,-2.801 0.597,-2.152 0.262,-1.5 0.063,-0.783 0,0 M 6.082,48.882 7.77,27.888 C 7.949,25.66 8.013,23.467 7.966,21.308 7.917,19.149 7.806,16.857 7.632,14.429 l -6.13,-0.493 c -0.56,2.369 -1.036,4.615 -1.428,6.738 -0.393,2.123 -0.678,4.299 -0.858,6.526 l -1.687,20.995 8.553,0.687 z" /></g><g
           transform="translate(149.0756,203.8873)"
           id="g226"><path
             id="path228"
             style="fill:#ffffff;fill-opacity:1;fill-rule:nonzero;stroke:none"
             d="m 0,0 c 1.49,0.119 2.801,0.475 3.936,1.066 1.134,0.591 2.071,1.367 2.811,2.33 0.739,0.962 1.273,2.1 1.6,3.415 0.326,1.314 0.426,2.763 0.299,4.347 l -1.994,24.805 7.704,0.62 1.995,-24.806 C 16.548,9.316 16.335,7.006 15.711,4.852 15.086,2.696 14.091,0.8 12.724,-0.837 11.357,-2.475 9.647,-3.805 7.596,-4.824 5.545,-5.843 3.191,-6.461 0.537,-6.674 c -2.654,-0.213 -5.075,0.02 -7.263,0.699 -2.188,0.68 -4.083,1.719 -5.684,3.118 -1.602,1.398 -2.883,3.112 -3.844,5.14 -0.96,2.027 -1.54,4.273 -1.738,6.735 l -1.994,24.804 7.705,0.62 1.992,-24.775 C -10.162,8.082 -9.832,6.666 -9.299,5.422 -8.767,4.177 -8.063,3.133 -7.188,2.29 -6.313,1.448 -5.269,0.826 -4.054,0.424 -2.841,0.021 -1.49,-0.119 0,0" /></g><g
           transform="translate(180.8539,218.4624)"
           id="g230"><path
             id="path232"
             style="fill:#ffffff;fill-opacity:1;fill-rule:nonzero;stroke:none"
             d="m 0,0 0.976,-12.144 7.82,0.629 c 1.432,0.115 2.616,0.382 3.553,0.804 0.936,0.42 1.673,0.941 2.21,1.561 0.536,0.621 0.902,1.322 1.098,2.106 0.197,0.784 0.26,1.607 0.192,2.465 -0.072,0.898 -0.281,1.694 -0.624,2.387 -0.345,0.693 -0.843,1.268 -1.494,1.725 -0.652,0.456 -1.466,0.78 -2.442,0.971 C 10.313,0.693 9.147,0.736 7.792,0.626 L 0,0 Z m -0.429,5.327 6.158,0.496 c 2.617,0.21 4.563,0.848 5.842,1.914 1.279,1.066 1.835,2.642 1.667,4.729 -0.174,2.163 -0.909,3.655 -2.205,4.474 -1.296,0.821 -3.242,1.126 -5.839,0.918 l -6.589,-0.53 0.966,-12.001 z m -5.817,-24.106 -3.329,41.417 14.293,1.15 c 2.711,0.217 5.047,0.146 7.008,-0.216 1.961,-0.36 3.595,-0.968 4.903,-1.824 1.309,-0.857 2.304,-1.939 2.986,-3.249 0.682,-1.31 1.091,-2.814 1.228,-4.513 0.078,-0.974 0.01,-1.917 -0.206,-2.827 C 20.422,10.247 20.045,9.382 19.506,8.56 18.966,7.738 18.259,6.975 17.384,6.27 16.508,5.565 15.448,4.942 14.204,4.4 c 5.793,-0.823 8.886,-3.668 9.277,-8.537 0.141,-1.758 -0.063,-3.407 -0.612,-4.951 -0.548,-1.543 -1.419,-2.906 -2.611,-4.086 -1.193,-1.183 -2.7,-2.154 -4.523,-2.914 -1.822,-0.762 -3.936,-1.24 -6.342,-1.433 l -15.639,-1.258 z" /></g><g
           transform="translate(228.099,210.2399)"
           id="g234"><path
             id="path236"
             style="fill:#ffffff;fill-opacity:1;fill-rule:nonzero;stroke:none"
             d="m 0,0 c 1.489,0.119 2.801,0.474 3.936,1.066 1.134,0.591 2.071,1.367 2.811,2.33 0.739,0.962 1.273,2.1 1.6,3.414 0.326,1.315 0.425,2.763 0.298,4.348 l -1.994,24.805 7.705,0.62 1.994,-24.806 C 16.547,9.316 16.334,7.006 15.71,4.851 15.087,2.696 14.091,0.8 12.723,-0.838 11.356,-2.476 9.647,-3.805 7.595,-4.824 5.544,-5.844 3.19,-6.461 0.537,-6.674 c -2.655,-0.213 -5.075,0.02 -7.264,0.699 -2.187,0.68 -4.082,1.719 -5.684,3.118 -1.602,1.398 -2.883,3.111 -3.844,5.14 -0.961,2.027 -1.539,4.273 -1.738,6.734 l -1.994,24.805 7.705,0.62 1.992,-24.776 c 0.127,-1.585 0.457,-3 0.99,-4.245 C -8.767,4.177 -8.064,3.133 -7.189,2.29 -6.314,1.448 -5.27,0.826 -4.055,0.424 -2.841,0.021 -1.49,-0.12 0,0" /></g><g
           transform="translate(255.1824,247.8015)"
           id="g238"><path
             id="path240"
             style="fill:#ffffff;fill-opacity:1;fill-rule:nonzero;stroke:none"
             d="M 0,0 C 0.23,-0.01 0.439,-0.05 0.627,-0.122 0.815,-0.194 1.001,-0.304 1.184,-0.452 1.368,-0.6 1.576,-0.8 1.806,-1.051 l 24.025,-25.945 c -0.131,0.662 -0.237,1.312 -0.315,1.949 -0.082,0.638 -0.143,1.233 -0.188,1.787 l -2.024,25.176 6.76,0.544 3.33,-41.418 -3.965,-0.318 c -0.608,-0.049 -1.12,0.006 -1.534,0.165 -0.415,0.158 -0.831,0.471 -1.253,0.937 L 2.714,-12.337 c 0.107,-0.606 0.198,-1.209 0.276,-1.808 0.077,-0.599 0.136,-1.146 0.176,-1.643 l 2.045,-25.434 -6.76,-0.543 -3.329,41.417 4.021,0.323 C -0.517,0.002 -0.23,0.011 0,0" /></g><g
           transform="translate(322.7968,253.2812)"
           id="g242"><path
             id="path244"
             style="fill:#ffffff;fill-opacity:1;fill-rule:nonzero;stroke:none"
             d="m 0,0 0.509,-6.33 -12.461,-1.002 2.821,-35.087 -7.704,-0.619 -2.821,35.087 -12.517,-1.006 -0.507,6.33 L 0,0 Z" /></g><g
           transform="translate(347.1935,219.8132)"
           id="g246"><path
             id="path248"
             style="fill:#ffffff;fill-opacity:1;fill-rule:nonzero;stroke:none"
             d="m 0,0 c 1.488,0.119 2.802,0.474 3.936,1.066 1.133,0.591 2.071,1.367 2.811,2.33 0.739,0.962 1.272,2.1 1.598,3.414 0.328,1.315 0.427,2.763 0.301,4.348 L 6.651,35.963 14.356,36.582 16.35,11.777 C 16.548,9.316 16.334,7.006 15.711,4.851 15.086,2.696 14.09,0.8 12.722,-0.838 11.356,-2.476 9.647,-3.805 7.596,-4.824 5.544,-5.844 3.191,-6.461 0.538,-6.674 c -2.655,-0.213 -5.075,0.019 -7.264,0.699 -2.188,0.68 -4.083,1.719 -5.685,3.118 -1.601,1.398 -2.883,3.112 -3.843,5.139 -0.96,2.028 -1.54,4.274 -1.739,6.735 l -1.993,24.805 7.704,0.62 1.992,-24.777 C -10.162,8.08 -9.833,6.666 -9.3,5.42 -8.768,4.176 -8.063,3.132 -7.188,2.289 -6.314,1.448 -5.27,0.825 -4.054,0.423 -2.841,0.02 -1.491,-0.12 0,0" /></g><g
           transform="translate(374.2176,219.65)"
           id="g250"><path
             id="path252"
             style="fill:#ffffff;fill-opacity:1;fill-rule:nonzero;stroke:none"
             d="M 0,0 C -0.048,0.592 0.016,1.164 0.192,1.717 0.369,2.268 0.639,2.752 0.999,3.165 1.359,3.578 1.797,3.921 2.315,4.192 2.83,4.465 3.395,4.626 4.006,4.675 4.598,4.723 5.17,4.653 5.723,4.465 6.275,4.28 6.759,4.011 7.172,3.66 7.583,3.309 7.927,2.875 8.198,2.36 8.471,1.843 8.631,1.288 8.678,0.697 8.726,0.085 8.658,-0.491 8.47,-1.035 8.282,-1.579 8.014,-2.058 7.663,-2.47 7.311,-2.883 6.878,-3.22 6.361,-3.482 5.843,-3.745 5.289,-3.9 4.697,-3.948 4.086,-3.997 3.505,-3.933 2.953,-3.756 2.399,-3.58 1.913,-3.318 1.491,-2.965 1.068,-2.616 0.726,-2.187 0.465,-1.679 0.205,-1.17 0.049,-0.612 0,0 M 4.746,38.146 6.062,21.762 C 6.203,20.023 6.254,18.313 6.216,16.629 6.178,14.944 6.091,13.155 5.955,11.261 L 1.173,10.876 c -0.438,1.848 -0.81,3.6 -1.115,5.258 -0.307,1.656 -0.53,3.354 -0.669,5.091 l -1.317,16.384 6.674,0.537 z" /></g></g></g></g></svg>