<?xml version="1.0" encoding="UTF-8" standalone="no"?>
<svg
   xmlns:dc="http://purl.org/dc/elements/1.1/"
   xmlns:cc="http://creativecommons.org/ns#"
   xmlns:rdf="http://www.w3.org/1999/02/22-rdf-syntax-ns#"
   xmlns:svg="http://www.w3.org/2000/svg"
   xmlns="http://www.w3.org/2000/svg"
   viewBox="0 0 640 640"
   height="640"
   width="640"
   xml:space="preserve"
   version="1.1"
   id="svg2"><metadata
     id="metadata8"><rdf:RDF><cc:Work
         rdf:about=""><dc:format>image/svg+xml</dc:format><dc:type
           rdf:resource="http://purl.org/dc/dcmitype/StillImage" /></cc:Work></rdf:RDF></metadata><defs
     id="defs6"><clipPath
       id="clipPath16"
       clipPathUnits="userSpaceOnUse"><path
         id="path18"
         d="M 0,512 512,512 512,0 0,0 0,512 Z" /></clipPath><clipPath
       id="clipPath24"
       clipPathUnits="userSpaceOnUse"><path
         id="path26"
         d="m 18.325,493.744 475.4,0 0,-475.4877 -475.4,0 0,475.4877 z" /></clipPath><clipPath
       id="clipPath28"
       clipPathUnits="userSpaceOnUse"><path
         id="path30"
         d="M 448.99,63.029 C 389.293,3.332 122.807,3.332 63.11,63.029 3.413,122.726 3.413,389.312 63.01,449.009 c 59.597,59.696 326.283,59.596 385.98,0 59.697,-59.597 59.597,-326.283 0,-385.98" /></clipPath><radialGradient
       id="radialGradient36"
       spreadMethod="pad"
       gradientTransform="matrix(237.72188,0,0,237.72188,256.02499,256)"
       gradientUnits="userSpaceOnUse"
       r="1"
       cy="0"
       cx="0"
       fy="0"
       fx="0"><stop
         id="stop38"
         offset="0"
         style="stop-opacity:1;stop-color:#ffffff" /><stop
         id="stop40"
         offset="0.8587"
         style="stop-opacity:0.14129854;stop-color:#ffffff" /><stop
         id="stop42"
         offset="1"
         style="stop-opacity:0;stop-color:#ffffff" /></radialGradient><mask
       id="mask44"
       height="1"
       width="1"
       y="0"
       x="0"
       maskUnits="userSpaceOnUse"><g
         id="g46"><g
           id="g48"><g
             id="g50"><g
               id="g52"><path
                 id="path54"
                 style="fill:url(#radialGradient36);stroke:none"
                 d="m -32768,32767 65535,0 0,-65535 -65535,0 0,65535 z" /></g></g></g></g></mask><radialGradient
       id="radialGradient56"
       spreadMethod="pad"
       gradientTransform="matrix(237.72188,0,0,237.72188,256.02499,256)"
       gradientUnits="userSpaceOnUse"
       r="1"
       cy="0"
       cx="0"
       fy="0"
       fx="0"><stop
         id="stop58"
         offset="0"
         style="stop-opacity:1;stop-color:#010101" /><stop
         id="stop60"
         offset="0.8587"
         style="stop-opacity:1;stop-color:#010101" /><stop
         id="stop62"
         offset="1"
         style="stop-opacity:1;stop-color:#010101" /></radialGradient><clipPath
       id="clipPath86"
       clipPathUnits="userSpaceOnUse"><path
         id="path88"
         d="m 18.325,493.744 475.4,0 0,-475.4877 -475.4,0 0,475.4877 z" /></clipPath><clipPath
       id="clipPath90"
       clipPathUnits="userSpaceOnUse"><path
         id="path92"
         d="M 448.99,63.029 C 389.293,3.332 122.807,3.332 63.11,63.029 3.413,122.726 3.413,389.312 63.01,449.009 c 59.597,59.696 326.283,59.596 385.98,0 59.697,-59.597 59.597,-326.283 0,-385.98" /></clipPath><radialGradient
       id="radialGradient98"
       spreadMethod="pad"
       gradientTransform="matrix(188.25467,188.36119,-130.35883,130.27895,256.02499,256.04376)"
       gradientUnits="userSpaceOnUse"
       r="1"
       cy="0"
       cx="0"
       fy="0"
       fx="0"><stop
         id="stop100"
         offset="0"
         style="stop-opacity:1;stop-color:#ffffff" /><stop
         id="stop102"
         offset="0.8587"
         style="stop-opacity:0.14129854;stop-color:#ffffff" /><stop
         id="stop104"
         offset="1"
         style="stop-opacity:0;stop-color:#ffffff" /></radialGradient><mask
       id="mask106"
       height="1"
       width="1"
       y="0"
       x="0"
       maskUnits="userSpaceOnUse"><g
         id="g108"><g
           id="g110"><g
             id="g112"><g
               id="g114"><path
                 id="path116"
                 style="fill:url(#radialGradient98);stroke:none"
                 d="m -32768,32767 65535,0 0,-65535 -65535,0 0,65535 z" /></g></g></g></g></mask><radialGradient
       id="radialGradient118"
       spreadMethod="pad"
       gradientTransform="matrix(188.25467,188.36119,-130.35883,130.27895,256.02499,256.04376)"
       gradientUnits="userSpaceOnUse"
       r="1"
       cy="0"
       cx="0"
       fy="0"
       fx="0"><stop
         id="stop120"
         offset="0"
         style="stop-opacity:1;stop-color:#010101" /><stop
         id="stop122"
         offset="0.8587"
         style="stop-opacity:1;stop-color:#010101" /><stop
         id="stop124"
         offset="1"
         style="stop-opacity:1;stop-color:#010101" /></radialGradient><clipPath
       id="clipPath148"
       clipPathUnits="userSpaceOnUse"><path
         id="path150"
         d="m 18.275,493.694 475.387,0 0,-475.4377 -475.387,0 0,475.4377 z" /></clipPath><clipPath
       id="clipPath152"
       clipPathUnits="userSpaceOnUse"><path
         id="path154"
         d="m 63.01,63.029 c 59.697,-59.697 326.183,-59.697 385.88,0 59.697,59.697 59.697,326.183 0,385.88 -59.697,59.696 -326.183,59.696 -385.88,0.1 -59.697,-59.597 -59.597,-326.283 0,-385.98" /></clipPath><radialGradient
       id="radialGradient160"
       spreadMethod="pad"
       gradientTransform="matrix(-188.28767,188.39421,130.38168,130.30179,255.92499,255.99377)"
       gradientUnits="userSpaceOnUse"
       r="1"
       cy="0"
       cx="0"
       fy="0"
       fx="0"><stop
         id="stop162"
         offset="0"
         style="stop-opacity:1;stop-color:#ffffff" /><stop
         id="stop164"
         offset="0.8587"
         style="stop-opacity:0.14129854;stop-color:#ffffff" /><stop
         id="stop166"
         offset="1"
         style="stop-opacity:0;stop-color:#ffffff" /></radialGradient><mask
       id="mask168"
       height="1"
       width="1"
       y="0"
       x="0"
       maskUnits="userSpaceOnUse"><g
         id="g170"><g
           id="g172"><g
             id="g174"><g
               id="g176"><path
                 id="path178"
                 style="fill:url(#radialGradient160);stroke:none"
                 d="m -32768,32767 65535,0 0,-65535 -65535,0 0,65535 z" /></g></g></g></g></mask><radialGradient
       id="radialGradient180"
       spreadMethod="pad"
       gradientTransform="matrix(-188.28767,188.39421,130.38168,130.30179,255.92499,255.99377)"
       gradientUnits="userSpaceOnUse"
       r="1"
       cy="0"
       cx="0"
       fy="0"
       fx="0"><stop
         id="stop182"
         offset="0"
         style="stop-opacity:1;stop-color:#010101" /><stop
         id="stop184"
         offset="0.8587"
         style="stop-opacity:1;stop-color:#010101" /><stop
         id="stop186"
         offset="1"
         style="stop-opacity:1;stop-color:#010101" /></radialGradient><linearGradient
       id="linearGradient218"
       spreadMethod="pad"
       gradientTransform="matrix(459.99939,0,0,-459.99939,26.000477,256)"
       gradientUnits="userSpaceOnUse"
       y2="0"
       x2="1"
       y1="0"
       x1="0"><stop
         id="stop220"
         offset="0"
         style="stop-opacity:1;stop-color:#ffcc02" /><stop
         id="stop222"
         offset="1"
         style="stop-opacity:1;stop-color:#ffcc02" /></linearGradient><clipPath
       id="clipPath230"
       clipPathUnits="userSpaceOnUse"><path
         id="path232"
         d="M 0,512 512,512 512,0 0,0 0,512 Z" /></clipPath><linearGradient
       id="linearGradient250"
       spreadMethod="pad"
       gradientTransform="matrix(25.938795,0,0,-25.938795,215.54727,233.68019)"
       gradientUnits="userSpaceOnUse"
       y2="0"
       x2="1"
       y1="0"
       x1="0"><stop
         id="stop252"
         offset="0"
         style="stop-opacity:1;stop-color:#ffcc02" /><stop
         id="stop254"
         offset="1"
         style="stop-opacity:1;stop-color:#ffcc02" /></linearGradient><linearGradient
       id="linearGradient270"
       spreadMethod="pad"
       gradientTransform="matrix(82.584717,0,0,-82.584717,221.70142,268.81396)"
       gradientUnits="userSpaceOnUse"
       y2="0"
       x2="1"
       y1="0"
       x1="0"><stop
         id="stop272"
         offset="0"
         style="stop-opacity:1;stop-color:#ffcc02" /><stop
         id="stop274"
         offset="1"
         style="stop-opacity:1;stop-color:#ffcc02" /></linearGradient><linearGradient
       id="linearGradient290"
       spreadMethod="pad"
       gradientTransform="matrix(42.128418,0,0,-42.128418,190.83107,221.35001)"
       gradientUnits="userSpaceOnUse"
       y2="0"
       x2="1"
       y1="0"
       x1="0"><stop
         id="stop292"
         offset="0"
         style="stop-opacity:1;stop-color:#ffcc02" /><stop
         id="stop294"
         offset="1"
         style="stop-opacity:1;stop-color:#ffcc02" /></linearGradient><linearGradient
       id="linearGradient310"
       spreadMethod="pad"
       gradientTransform="matrix(142.3302,0,0,142.3302,184.83876,256)"
       gradientUnits="userSpaceOnUse"
       y2="0"
       x2="1"
       y1="0"
       x1="0"><stop
         id="stop312"
         offset="0"
         style="stop-opacity:1;stop-color:#ffcc02" /><stop
         id="stop314"
         offset="1"
         style="stop-opacity:1;stop-color:#ffcc02" /></linearGradient></defs><g
     transform="matrix(1.25,0,0,-1.25,0,640)"
     id="g10"><g
       id="g12"><g
         clip-path="url(#clipPath16)"
         id="g14"><g
           id="g20"><g
             id="g22" /><g
             id="g64"><g
               style="opacity:0.39999402"
               id="g66"
               clip-path="url(#clipPath24)"><g
                 id="g68"><g
                   id="g70"
                   clip-path="url(#clipPath28)"><g
                     id="g72"><g
                       id="g74" /><g
                       id="g76"
                       mask="url(#mask44)"><g
                         id="g78"><path
                           id="path80"
                           style="fill:url(#radialGradient56);stroke:none"
                           d="M 448.99,63.029 C 389.293,3.332 122.807,3.332 63.11,63.029 3.413,122.726 3.413,389.312 63.01,449.009 c 59.597,59.696 326.283,59.596 385.98,0 59.697,-59.597 59.597,-326.283 0,-385.98" /></g></g></g></g></g></g></g></g><g
           id="g82"><g
             id="g84" /><g
             id="g126"><g
               style="opacity:0.39999402"
               id="g128"
               clip-path="url(#clipPath86)"><g
                 id="g130"><g
                   id="g132"
                   clip-path="url(#clipPath90)"><g
                     id="g134"><g
                       id="g136" /><g
                       id="g138"
                       mask="url(#mask106)"><g
                         id="g140"><path
                           id="path142"
                           style="fill:url(#radialGradient118);stroke:none"
                           d="M 448.99,63.029 C 389.293,3.332 122.807,3.332 63.11,63.029 3.413,122.726 3.413,389.312 63.01,449.009 c 59.597,59.696 326.283,59.596 385.98,0 59.697,-59.597 59.597,-326.283 0,-385.98" /></g></g></g></g></g></g></g></g><g
           id="g144"><g
             id="g146" /><g
             id="g188"><g
               style="opacity:0.39999402"
               id="g190"
               clip-path="url(#clipPath148)"><g
                 id="g192"><g
                   id="g194"
                   clip-path="url(#clipPath152)"><g
                     id="g196"><g
                       id="g198" /><g
                       id="g200"
                       mask="url(#mask168)"><g
                         id="g202"><path
                           id="path204"
                           style="fill:url(#radialGradient180);stroke:none"
                           d="m 63.01,63.029 c 59.697,-59.697 326.183,-59.697 385.88,0 59.697,59.697 59.697,326.183 0,385.88 -59.697,59.696 -326.183,59.696 -385.88,0.1 -59.697,-59.597 -59.597,-326.283 0,-385.98" /></g></g></g></g></g></g></g></g></g></g><g
       id="g206"><g
         id="g208"><g
           id="g214"><g
             id="g216"><path
               id="path224"
               style="fill:url(#linearGradient218);stroke:none"
               d="M 78.721,433.279 C 8.427,362.985 8.427,149.015 78.721,78.721 l 0,0 c 70.294,-70.294 284.264,-70.294 354.558,0 l 0,0 c 70.295,70.294 70.294,284.264 0,354.558 l 0,0 C 398.132,468.426 327.066,486 256,486 l 0,0 C 184.934,486 113.868,468.426 78.721,433.279" /></g></g></g></g><g
       id="g226"><g
         clip-path="url(#clipPath230)"
         id="g228"><g
           transform="translate(397.4527,397.4529)"
           id="g234"><path
             id="path236"
             style="fill:#ffffff;fill-opacity:1;fill-rule:nonzero;stroke:none"
             d="m 0,0 c -41.765,41.765 -143.352,52.959 -217.202,33.593 l -0.7,-0.553 -2.659,-2.259 c -0.855,-0.789 -1.721,-1.564 -2.564,-2.363 -0.817,-0.826 -1.669,-1.617 -2.458,-2.468 -0.786,-0.853 -1.603,-1.678 -2.352,-2.563 l -1.143,-1.31 -1.092,-1.353 c -0.37,-0.445 -0.723,-0.904 -1.062,-1.374 l -1.032,-1.396 c -0.643,-0.962 -1.321,-1.901 -1.911,-2.896 -0.627,-0.973 -1.176,-1.99 -1.745,-2.995 -0.525,-1.029 -1.058,-2.053 -1.519,-3.111 -0.249,-0.521 -0.462,-1.057 -0.679,-1.591 l -0.326,-0.801 -0.293,-0.813 c -0.2,-0.541 -0.392,-1.083 -0.556,-1.635 -0.176,-0.548 -0.348,-1.098 -0.49,-1.655 -0.157,-0.554 -0.299,-1.111 -0.419,-1.674 -0.138,-0.558 -0.243,-1.123 -0.348,-1.688 -0.21,-1.129 -0.362,-2.268 -0.46,-3.41 -0.009,-0.091 -0.01,-0.183 -0.017,-0.274 -0.087,-1.051 -0.116,-2.105 -0.096,-3.154 0,-0.012 0.002,-0.023 0.002,-0.035 0.028,-1.118 0.117,-2.28 0.321,-3.313 l 0.273,-1.388 -1.27,0.639 c -0.953,0.481 -2.04,0.876 -3.126,1.208 -0.177,0.054 -0.354,0.111 -0.53,0.161 -0.818,0.232 -1.648,0.428 -2.483,0.604 -0.463,0.097 -0.926,0.197 -1.394,0.272 -1.313,0.206 -2.635,0.368 -3.966,0.431 -0.664,0.048 -1.33,0.061 -1.997,0.065 -0.666,0.022 -1.333,-0.016 -2,-0.031 -1.333,-0.052 -2.664,-0.167 -3.989,-0.339 -0.665,-0.064 -1.322,-0.198 -1.982,-0.299 -0.662,-0.096 -1.315,-0.242 -1.969,-0.38 l -0.982,-0.207 -0.973,-0.249 c -0.645,-0.177 -1.302,-0.313 -1.939,-0.524 l -1.922,-0.59 -1.895,-0.674 c -0.637,-0.214 -1.254,-0.477 -1.876,-0.729 -0.618,-0.262 -1.251,-0.488 -1.857,-0.778 -1.22,-0.56 -2.449,-1.105 -3.635,-1.738 -0.595,-0.313 -1.204,-0.598 -1.788,-0.933 l -1.756,-0.993 c -0.591,-0.322 -1.165,-0.673 -1.734,-1.033 l -1.715,-1.064 -3.367,-2.234 -3.273,-2.376 -3.18,-2.494 -2.81,-2.362 c 0.563,1.181 1.105,2.839 1.701,3.654 0.886,1.07 1.81,2.136 2.731,3.218 0.942,1.046 1.934,2.034 2.917,3.053 1.036,0.949 2.052,1.941 3.129,2.864 l 1.644,1.357 c 0.547,0.458 1.1,0.911 1.685,1.321 1.151,0.846 2.304,1.705 3.523,2.478 1.199,0.801 2.459,1.519 3.717,2.253 0.622,0.381 1.292,0.676 1.94,1.016 0.653,0.329 1.303,0.669 1.98,0.961 l 2.022,0.904 2.082,0.788 c 0.69,0.275 1.412,0.479 2.121,0.72 0.708,0.239 1.427,0.459 2.159,0.641 0.728,0.19 1.457,0.385 2.202,0.53 0.743,0.15 1.479,0.332 2.236,0.443 1.5,0.273 3.025,0.455 4.565,0.554 0.772,0.042 1.541,0.103 2.32,0.102 0.776,0.018 1.554,0.023 2.337,-0.01 1.563,-0.039 3.132,-0.221 4.703,-0.446 0.193,-0.03 0.387,-0.065 0.58,-0.097 0.142,1.059 0.32,2.105 0.566,3.13 0.152,0.657 0.307,1.313 0.494,1.955 0.171,0.649 0.364,1.287 0.573,1.919 0.397,1.271 0.867,2.511 1.402,3.713 l 0.392,0.904 0.425,0.885 c 0.283,0.59 0.563,1.18 0.877,1.748 0.597,1.157 1.293,2.25 1.966,3.347 0.72,1.065 1.407,2.146 2.205,3.141 0.755,1.027 1.59,1.98 2.39,2.952 0.415,0.474 0.856,0.925 1.282,1.385 0.423,0.462 0.859,0.911 1.31,1.343 0.447,0.436 0.885,0.877 1.337,1.304 l 1.398,1.229 c 0.916,0.831 1.894,1.585 2.866,2.336 0.965,0.757 1.982,1.444 2.984,2.137 0.736,0.493 1.491,0.956 2.247,1.412 -24.62,-7.133 -45.765,-17.804 -59.979,-32.018 -18.868,-18.868 -31.493,-49.951 -37.884,-85.167 1.272,1.531 2.591,3.058 3.909,4.605 1.418,1.574 2.909,3.061 4.388,4.593 1.558,1.428 3.087,2.921 4.708,4.308 l 2.473,2.042 c 0.822,0.689 1.654,1.37 2.533,1.987 1.732,1.273 3.467,2.565 5.3,3.728 1.804,1.204 3.699,2.285 5.593,3.388 0.935,0.574 1.943,1.018 2.917,1.53 0.983,0.494 1.961,1.006 2.979,1.445 l 3.041,1.36 3.132,1.184 c 1.038,0.415 2.125,0.721 3.19,1.084 1.066,0.36 2.148,0.691 3.248,0.964 1.096,0.286 2.192,0.58 3.313,0.798 1.118,0.226 2.225,0.499 3.363,0.665 2.258,0.411 4.552,0.686 6.868,0.834 1.161,0.063 2.318,0.155 3.489,0.154 1.168,0.026 2.339,0.035 3.516,-0.014 2.351,-0.061 4.712,-0.333 7.075,-0.673 0.291,-0.044 0.582,-0.097 0.873,-0.146 0.213,1.593 0.481,3.167 0.851,4.71 0.228,0.988 0.461,1.974 0.742,2.941 0.257,0.975 0.548,1.936 0.863,2.886 0.597,1.911 1.305,3.777 2.109,5.585 l 0.589,1.361 0.64,1.331 c 0.425,0.887 0.846,1.774 1.32,2.629 0.898,1.74 1.945,3.384 2.956,5.035 1.084,1.602 2.117,3.228 3.317,4.725 1.135,1.545 2.391,2.978 3.596,4.441 0.624,0.712 1.288,1.39 1.927,2.082 0.637,0.696 1.293,1.371 1.972,2.021 0.673,0.655 1.331,1.319 2.011,1.961 l 2.103,1.849 c 1.378,1.25 2.849,2.385 4.311,3.515 1.452,1.138 2.982,2.171 4.489,3.214 1.523,1.021 3.097,1.967 4.664,2.898 1.61,0.877 3.182,1.782 4.798,2.611 1.666,0.761 3.287,1.561 4.969,2.255 l 0.108,0.044 c 0.266,0.11 0.57,-0.018 0.679,-0.283 0.091,-0.219 0.02,-0.466 -0.158,-0.606 l -4.121,-3.257 -4,-3.399 c -1.285,-1.187 -2.588,-2.353 -3.856,-3.555 -1.23,-1.241 -2.511,-2.432 -3.698,-3.712 -1.183,-1.284 -2.411,-2.524 -3.539,-3.855 l -1.719,-1.971 -1.642,-2.035 c -0.557,-0.67 -1.088,-1.361 -1.598,-2.067 l -1.552,-2.1 c -0.967,-1.447 -1.987,-2.86 -2.875,-4.357 -0.943,-1.463 -1.77,-2.992 -2.625,-4.505 -0.79,-1.548 -1.591,-3.089 -2.285,-4.68 -0.375,-0.783 -0.696,-1.589 -1.021,-2.393 l -0.491,-1.204 -0.441,-1.223 c -0.3,-0.814 -0.589,-1.63 -0.836,-2.461 -0.265,-0.824 -0.523,-1.651 -0.736,-2.49 -0.237,-0.833 -0.45,-1.671 -0.632,-2.517 -0.207,-0.84 -0.365,-1.689 -0.523,-2.539 -0.316,-1.699 -0.545,-3.413 -0.692,-5.13 -0.013,-0.137 -0.014,-0.275 -0.026,-0.412 -0.13,-1.581 -0.174,-3.166 -0.143,-4.745 0,-0.017 0.002,-0.035 0.002,-0.053 0.043,-1.681 0.176,-3.429 0.483,-4.983 l 0.411,-2.088 -1.911,0.962 c -1.434,0.722 -3.068,1.317 -4.702,1.817 -0.267,0.081 -0.533,0.166 -0.798,0.242 -1.23,0.349 -2.479,0.644 -3.734,0.908 -0.697,0.147 -1.394,0.297 -2.098,0.41 -1.974,0.309 -3.963,0.553 -5.965,0.648 -0.999,0.072 -2.001,0.091 -3.004,0.097 -1.002,0.034 -2.005,-0.023 -3.009,-0.047 -2.005,-0.078 -4.007,-0.25 -6,-0.509 -1.002,-0.096 -1.989,-0.298 -2.982,-0.45 -0.995,-0.144 -1.978,-0.363 -2.962,-0.572 l -1.477,-0.311 -1.464,-0.374 c -0.971,-0.266 -1.959,-0.471 -2.917,-0.789 l -2.891,-0.887 -2.851,-1.014 c -0.957,-0.321 -1.886,-0.718 -2.821,-1.097 -0.93,-0.393 -1.883,-0.734 -2.794,-1.17 -1.836,-0.843 -3.684,-1.662 -5.468,-2.615 -0.895,-0.47 -1.812,-0.899 -2.689,-1.403 l -2.642,-1.494 c -0.889,-0.484 -1.752,-1.012 -2.608,-1.553 l -2.581,-1.601 -5.065,-3.361 -4.922,-3.574 -4.785,-3.752 -2.17,-1.824 c -11.763,-70.563 1.098,-156.248 38.585,-193.736 57.069,-57.068 225.838,-57.068 282.906,0 C 57.068,-225.837 57.068,-57.068 0,0" /></g></g></g><g
       id="g238"><g
         id="g240"><g
           id="g246"><g
             id="g248"><path
               id="path256"
               style="fill:url(#linearGradient250);stroke:none"
               d="m 217.181,245.879 -1.043,-1.061 c -1.081,-1.099 -0.637,-3.289 0.994,-4.894 l 0,0 17.81,-17.528 c 1.631,-1.604 3.829,-2.014 4.91,-0.915 l 0,0 1.044,1.06 c 1.081,1.1 0.636,3.292 -0.995,4.895 l 0,0 -17.81,17.528 c -1.012,0.996 -2.244,1.531 -3.29,1.531 l 0,0 c -0.64,0 -1.21,-0.199 -1.62,-0.616" /></g></g></g></g><g
       id="g258"><g
         id="g260"><g
           id="g266"><g
             id="g268"><path
               id="path276"
               style="fill:url(#linearGradient270);stroke:none"
               d="m 294.058,308.793 c -0.015,-0.016 -0.026,-0.031 -0.042,-0.046 l 0,0 -0.001,0.002 -72.314,-63.403 9.207,-9.061 0.174,-0.172 9.207,-9.061 62.239,73.319 -0.002,0.002 c 0.014,0.015 0.031,0.026 0.044,0.042 l 0,0 c 2.315,2.351 2.283,6.132 -0.067,8.445 l 0,0 c -1.163,1.145 -2.676,1.716 -4.188,1.716 l 0,0 c -1.544,0 -3.088,-0.595 -4.257,-1.783" /></g></g></g></g><g
       id="g278"><g
         id="g280"><g
           id="g286"><g
             id="g288"><path
               id="path296"
               style="fill:url(#linearGradient290);stroke:none"
               d="m 209.159,234.861 c -2.954,-3.002 -3.143,-7.832 -4.806,-13.137 l 0,0 c -1.554,-4.951 -4.212,-12.228 -13.522,-14.609 l 0,0 c 0,0 13.209,-3.801 23.86,-1.295 l 0,0 c 5.785,1.361 12.595,5.414 15.489,8.354 l 0,0 c 5.714,5.804 1.748,11.189 -4.056,16.902 l 0,0 c -3.778,3.718 -7.404,6.659 -11.051,6.659 l 0,0 c -1.956,-0.001 -3.919,-0.847 -5.914,-2.874" /></g></g></g></g><g
       id="g298"><g
         id="g300"><g
           id="g306"><g
             id="g308"><path
               id="path316"
               style="fill:url(#linearGradient310);stroke:none"
               d="m 248.717,302.134 c 39.948,0 60.422,-18.907 60.422,-46.941 l 0,0 c 0,-33.645 -30.393,-60.921 -67.885,-60.921 l 0,0 c -10.553,0 -20.542,2.161 -29.45,6.016 l 0,0 c 12.142,-9.638 27.492,-15.411 44.2,-15.411 l 0,0 c 39.304,0 71.165,31.862 71.165,71.164 l 0,0 c 0,38.196 -33.01,71.082 -78.399,71.082 l 0,0 -0.053,-24.989 z" /></g></g></g></g></g></svg>