<?xml version="1.0" encoding="UTF-8" standalone="no"?>
<svg
   xmlns:dc="http://purl.org/dc/elements/1.1/"
   xmlns:cc="http://creativecommons.org/ns#"
   xmlns:rdf="http://www.w3.org/1999/02/22-rdf-syntax-ns#"
   xmlns:svg="http://www.w3.org/2000/svg"
   xmlns="http://www.w3.org/2000/svg"
   viewBox="0 0 640 640"
   height="640"
   width="640"
   xml:space="preserve"
   version="1.1"
   id="svg2"><metadata
     id="metadata8"><rdf:RDF><cc:Work
         rdf:about=""><dc:format>image/svg+xml</dc:format><dc:type
           rdf:resource="http://purl.org/dc/dcmitype/StillImage" /></cc:Work></rdf:RDF></metadata><defs
     id="defs6"><clipPath
       id="clipPath16"
       clipPathUnits="userSpaceOnUse"><path
         id="path18"
         d="M 0,512 512,512 512,0 0,0 0,512 Z" /></clipPath><clipPath
       id="clipPath24"
       clipPathUnits="userSpaceOnUse"><path
         id="path26"
         d="m 18.2752,493.725 475.4498,0 0,-475.4497 -475.4498,0 0,475.4497 z" /></clipPath><linearGradient
       id="linearGradient48"
       spreadMethod="pad"
       gradientTransform="matrix(0,459.99902,-459.99902,0,256.00018,26.000503)"
       gradientUnits="userSpaceOnUse"
       y2="0"
       x2="1"
       y1="0"
       x1="0"><stop
         id="stop50"
         offset="0"
         style="stop-opacity:1;stop-color:#f7f7f7" /><stop
         id="stop52"
         offset="1"
         style="stop-opacity:1;stop-color:#f7f7f7" /></linearGradient><clipPath
       id="clipPath60"
       clipPathUnits="userSpaceOnUse"><path
         id="path62"
         d="M 0,512 512,512 512,0 0,0 0,512 Z" /></clipPath></defs><g
     transform="matrix(1.25,0,0,-1.25,0,640)"
     id="g10"><g
       id="g12"><g
         clip-path="url(#clipPath16)"
         id="g14"><g
           id="g20"><g
             id="g22" /><g
             id="g28"><g
               style="opacity:0.39999402"
               id="g30"
               clip-path="url(#clipPath24)"><g
                 id="g32"
                 transform="translate(448.964,63.036)"><path
                   id="path34"
                   style="fill:#ffffff;fill-opacity:1;fill-rule:nonzero;stroke:none"
                   d="m 0,0 c -59.681,-59.681 -326.247,-59.681 -385.928,0 -59.681,59.681 -59.681,326.247 0,385.928 59.681,59.681 326.247,59.681 385.928,0 C 59.681,326.247 59.681,59.681 0,0" /></g></g></g></g></g></g><g
       id="g36"><g
         id="g38"><g
           id="g44"><g
             id="g46"><path
               id="path54"
               style="fill:url(#linearGradient48);stroke:none"
               d="M 78.721,433.279 C 8.427,362.985 8.427,149.015 78.721,78.721 l 0,0 c 70.294,-70.294 284.264,-70.294 354.558,0 l 0,0 c 70.295,70.294 70.294,284.264 0,354.558 l 0,0 C 398.132,468.426 327.066,486 256,486 l 0,0 C 184.934,486 113.868,468.426 78.721,433.279" /></g></g></g></g><g
       id="g56"><g
         clip-path="url(#clipPath60)"
         id="g58"><g
           transform="translate(386.0307,216.7193)"
           id="g64"><path
             id="path66"
             style="fill:#73ba25;fill-opacity:1;fill-rule:nonzero;stroke:none"
             d="m 0,0 c 0,-0.203 -0.171,-0.375 -0.384,-0.375 l -0.171,0 c -0.203,0 -0.376,0.171 -0.376,0.375 l 0,3.187 -1.797,0 0,-3.187 c 0,-0.203 -0.182,-0.375 -0.396,-0.375 l -0.159,0 c -0.203,0 -0.376,0.171 -0.376,0.375 l 0,3.187 -1.348,0 c -0.192,0 -0.353,0.139 -0.353,0.353 l 0,0.182 c 0,0.214 0.161,0.342 0.353,0.342 l 4.718,0 c 0.182,0 0.31,-0.065 0.375,-0.171 L 0.974,2.556 1.861,3.893 c 0.075,0.096 0.182,0.171 0.375,0.171 l 0.6,0 0,-4.097 c 0,-0.193 -0.182,-0.375 -0.396,-0.375 l -0.053,0.031 -0.171,0 c -0.204,0 -0.376,0.172 -0.376,0.376 l 0,2.674 L 1.252,1.775 C 1.187,1.689 1.07,1.646 0.963,1.646 l -0.065,0 c -0.107,0 -0.236,0.043 -0.299,0.129 L -0.001,2.673 -0.001,0 0,0 Z" /></g><g
           transform="translate(379.719,186.8725)"
           id="g68"><path
             id="path70"
             style="fill:#73ba25;fill-opacity:1;fill-rule:nonzero;stroke:none"
             d="m 0,0 0,-0.867 c 0,-1.904 -1.445,-3.294 -3.446,-3.294 l -26.026,0 c -1.894,0 -3.306,1.422 -3.306,3.294 l 0,32.65 c 0,1.883 1.466,3.295 3.37,3.295 l 0.011,-0.032 24.872,0 c 2,0 3.455,-1.38 3.455,-3.283 l 0,-0.868 c 0,-1.903 -1.455,-3.283 -3.455,-3.283 l -20.23,0 0,-8.548 15.608,0 c 2.001,0 3.456,-1.402 3.456,-3.305 l 0,-0.857 c 0,-1.915 -1.455,-3.294 -3.456,-3.294 l -15.608,0 0,-8.323 21.31,0 C -1.434,3.284 0,1.883 0,0" /></g><g
           transform="translate(366.5822,307.8642)"
           id="g72"><path
             id="path74"
             style="fill:#ffffff;fill-opacity:1;fill-rule:nonzero;stroke:none"
             d="m 0,0 c 0.193,5.852 -4.387,10.773 -10.238,10.976 -2.834,0.107 -5.531,-0.899 -7.595,-2.835 -2.066,-1.926 -3.275,-4.547 -3.36,-7.381 -0.193,-5.852 4.387,-10.773 10.228,-10.987 2.845,-0.086 5.541,0.92 7.617,2.846 C -1.284,-5.445 -0.086,-2.824 0,0 M -10.495,15.127 C -2.268,14.838 4.184,7.906 3.905,-0.31 3.755,-4.29 2.087,-7.97 -0.824,-10.687 c -2.91,-2.728 -6.697,-4.14 -10.698,-4.001 -8.215,0.3 -14.654,7.221 -14.387,15.437 0.139,3.979 1.807,7.67 4.728,10.387 2.909,2.718 6.707,4.13 10.686,3.991" /></g><g
           transform="translate(362.7845,310.3781)"
           id="g76"><path
             id="path78"
             style="fill:#73ba25;fill-opacity:1;fill-rule:nonzero;stroke:none"
             d="m 0,0 c 0,1.744 -2.109,3.145 -4.707,3.145 -2.598,0 -4.696,-1.401 -4.696,-3.145 0,-1.722 2.096,-3.134 4.696,-3.134 C -2.107,-3.134 0,-1.722 0,0 M -6.44,8.462 C -0.588,8.259 3.99,3.338 3.798,-2.514 3.712,-5.338 2.514,-7.959 0.449,-9.895 c -2.075,-1.926 -4.771,-2.932 -7.617,-2.846 -5.84,0.214 -10.419,5.135 -10.228,10.987 0.086,2.834 1.295,5.455 3.361,7.381 2.064,1.936 4.76,2.942 7.595,2.835" /></g><g
           transform="translate(358.0775,313.5233)"
           id="g80"><path
             id="path82"
             style="fill:#ffffff;fill-opacity:1;fill-rule:nonzero;stroke:none"
             d="M 0,0 C 2.6,0 4.707,-1.401 4.707,-3.145 4.707,-4.867 2.598,-6.28 0,-6.28 c -2.598,0 -4.696,1.413 -4.696,3.135 C -4.696,-1.401 -2.6,0 0,0" /></g><g
           transform="translate(340.0839,197.795)"
           id="g84"><path
             id="path86"
             style="fill:#73ba25;fill-opacity:1;fill-rule:nonzero;stroke:none"
             d="m 0,0 0,-5.231 c 0,-5.992 -3.573,-9.853 -9.147,-9.853 l -21.256,0 c -2.001,0 -3.445,1.402 -3.445,3.295 l 0,0.867 c 0,1.894 1.444,3.284 3.445,3.284 l 20.166,0 c 2.193,0 2.257,3.006 2.257,3.337 l 0,3.135 c 0,1.027 -0.407,2.236 -2.257,2.236 l -14.774,0 c -4.205,0 -8.761,3.444 -8.761,8.997 l 0,4.846 c 0,3.787 3.573,9.243 10.012,9.243 l 0,-0.043 17.353,0 c 2.022,0 3.52,-1.423 3.52,-3.284 l 0,-0.867 c 0,-1.883 -1.488,-3.295 -3.446,-3.295 l -16.111,0 c -2.118,0 -3.327,-1.038 -3.327,-2.856 l 0,-2.878 c 0,-1.177 0.984,-2.791 3.178,-2.791 l 14.549,0 C -4.033,8.141 0,5.616 0,0" /></g><g
           transform="translate(295.9128,221.9505)"
           id="g88"><path
             id="path90"
             style="fill:#73ba25;fill-opacity:1;fill-rule:nonzero;stroke:none"
             d="m 0,0 c 1.937,0 3.446,-1.519 3.446,-3.454 l 0,-25.707 c 0,-5.98 -4.698,-10.314 -11.179,-10.314 l -12.014,0 c -6.483,0 -11.178,4.334 -11.178,10.314 l 0,25.707 c 0,1.936 1.53,3.454 3.445,3.454 l 1.091,0 c 1.926,0 3.455,-1.551 3.455,-3.454 l 0,-24.756 c 0,-1.979 1.594,-3.573 3.562,-3.573 l 11.244,0 c 1.958,0 3.562,1.594 3.562,3.573 l 0,24.755 c 0,1.903 1.551,3.454 3.454,3.454 l 0.023,0 1.089,0 L 0,0 Z" /></g><g
           transform="translate(258.0855,197.795)"
           id="g92"><path
             id="path94"
             style="fill:#73ba25;fill-opacity:1;fill-rule:nonzero;stroke:none"
             d="m 0,0 0,-5.231 c 0,-5.992 -3.594,-9.853 -9.147,-9.853 l -21.267,0 c -2.011,0 -3.455,1.402 -3.455,3.295 l 0,0.867 c 0,1.894 1.455,3.284 3.455,3.284 l 20.166,0 c 2.182,0 2.235,3.006 2.235,3.337 l 0,3.135 c 0,1.027 -0.385,2.236 -2.235,2.236 l -14.774,0 c -4.226,0 -8.762,3.444 -8.762,8.997 l 0,4.846 c 0,3.787 3.563,9.243 10.014,9.243 l 0.021,-0.043 17.362,0 c 2.012,0 3.52,-1.423 3.52,-3.284 l 0,-0.867 c 0,-1.883 -1.487,-3.295 -3.455,-3.295 l -16.111,0 c -2.129,0 -3.338,-1.038 -3.338,-2.856 l 0,-2.878 c 0,-1.177 0.984,-2.791 3.177,-2.791 l 14.539,0 C -4.044,8.141 0,5.616 0,0" /></g><g
           transform="translate(370.4868,307.554)"
           id="g96"><path
             id="path98"
             style="fill:#73ba25;fill-opacity:1;fill-rule:nonzero;stroke:none"
             d="m 0,0 c 0.279,8.216 -6.173,15.148 -14.399,15.437 -3.98,0.139 -7.777,-1.273 -10.686,-3.99 -2.921,-2.718 -4.589,-6.408 -4.729,-10.388 -0.267,-8.216 6.173,-15.137 14.388,-15.437 4.001,-0.139 7.788,1.273 10.698,4.001 C -1.819,-7.66 -0.15,-3.98 0,0 m 9.393,-20.144 1.092,0.203 c 0.298,-0.235 0.256,-0.716 0.159,-1.144 -0.202,-0.995 -0.684,-2.803 -1.016,-3.659 L 9.35,-25.45 c -0.384,-1.048 -0.77,-2.043 -1.509,-2.642 -2.031,-1.851 -5.283,-3.327 -10.375,-5.552 -7.874,-3.445 -20.636,-5.617 -32.489,-5.542 -4.249,0.096 -8.356,0.567 -11.962,0.974 -11.039,1.262 -19.019,2.161 -20.678,-7.874 -2.097,-12.581 9.736,-27.857 9.853,-27.995 l -0.011,-0.418 -0.384,-0.096 c 0,0 -18.861,8.686 -19.322,8.943 l -0.599,0.427 -0.481,0.461 c -1.423,1.368 -4.279,4.438 -10.077,11.158 -11.244,12.997 -24.402,14.709 -34.543,12.238 -2.472,-0.589 -5.617,-2.397 -7.66,-4.429 -5.295,-5.221 -4.696,-15.737 -4.397,-19.566 0.353,-4.333 0.578,-4.654 0.674,-5.007 l -0.064,-0.438 -0.375,-0.043 -0.213,0.15 -15.469,7.563 -0.589,2.525 c -0.396,1.668 -0.856,3.519 -1.733,5.84 -5.531,14.582 -17.961,25.547 -31.655,27.911 -9.253,1.594 -26.123,1.776 -35.056,-15.084 -3.734,-7.039 -3.509,-16.207 0.588,-23.931 4.172,-7.907 11.629,-12.976 20.454,-13.95 8.751,-0.953 15.33,1.07 19.021,5.852 3.723,4.825 4.418,11.393 1.776,16.742 -2.835,5.744 -7.114,8.794 -13.062,9.295 -4.525,0.407 -7.884,-1.476 -9.093,-3.402 -0.353,-0.6 -0.995,-1.712 -1.006,-3.295 l 0,-0.053 c 0,-4.311 3.948,-5.488 4.75,-5.543 0.246,0 1.434,0.033 3.006,0.428 l 0.76,0.245 0.524,0.183 0.385,0.074 c 2.867,0.524 5.627,-1.166 6.429,-3.958 0.139,-0.512 0.214,-1.027 0.214,-1.539 0,-1.851 -0.941,-3.573 -2.503,-4.622 l 0.064,0.023 -0.171,-0.097 -0.257,-0.16 c -0.823,-0.524 -1.583,-0.813 -2.385,-1.059 -2.247,-0.737 -4.237,-1.081 -6.237,-1.081 -6.825,0.011 -16.336,5.884 -16.464,16.913 -0.064,6.227 3.06,11.896 8.558,15.544 6.333,4.183 17.277,5.606 27.429,-0.62 12.495,-7.649 15.758,-22.625 12.495,-32.842 -4.739,-14.795 -18.068,-22.701 -35.666,-21.128 -12.463,1.112 -24.038,7.691 -30.927,17.597 -3.06,4.388 -5.328,9.275 -6.547,14.154 -2.814,11.157 0.032,23.01 2.15,28.263 6.74,16.699 19.641,31.066 38.309,42.716 l 1.176,0.738 c 39.71,24.403 67.813,23.419 88.385,22.702 24.264,-0.845 50.141,-9.211 53.714,-10.398 0.011,0.802 0.151,8.034 0.151,8.034 l 0.107,0.246 0.278,0.075 c 1.627,-0.225 36.49,-5.403 51.179,-13.961 1.817,-1.07 2.716,-2.182 3.84,-3.338 4.055,-4.193 9.425,-21.662 9.992,-25.268 l -0.214,-0.363 c -0.214,-0.075 -0.717,-0.45 -1.391,-0.899 -3.423,-2.396 -11.436,-8.002 -21.705,-7.082 -9.233,0.813 -21.289,6.109 -35.827,15.683 0.643,-1.508 3.669,-8.676 4.183,-9.885 l 0.192,-0.235 c 2.109,-1.091 22.306,-11.382 32.33,-11.179 8.084,0.16 16.717,4.108 20.173,6.183" /></g><g
           transform="translate(204.7786,205.0801)"
           id="g100"><path
             id="path102"
             style="fill:#73ba25;fill-opacity:1;fill-rule:nonzero;stroke:none"
             d="m 0,0 c 1.391,0.662 3.124,1.476 5.413,1.476 l 0.706,0 c 4.001,0 6.59,-2.385 6.59,-6.055 l 0,-16.068 c 0,-0.972 -0.792,-1.764 -1.744,-1.764 l -0.684,0 c -0.974,0 -1.744,0.792 -1.744,1.764 l 0,15.491 c 0,1.455 -1.188,2.642 -2.632,2.642 l -5.809,0 c -1.455,0 -2.631,-1.186 -2.631,-2.642 l 0,-15.491 c 0,-0.972 -0.792,-1.764 -1.744,-1.764 l -0.685,0 c -0.973,0 -1.744,0.792 -1.744,1.764 l 0,20.476 c 0,0.876 0.589,1.496 1.402,1.496 l 0.674,0 c 0.642,0 1.112,-0.278 1.369,-0.823 l 0.482,-0.877 c 0.203,-0.364 0.31,-0.385 0.577,-0.385 0.599,0 1.337,0.364 2.204,0.76" /></g><g
           transform="translate(189.0422,196.4042)"
           id="g104"><path
             id="path106"
             style="fill:#73ba25;fill-opacity:1;fill-rule:nonzero;stroke:none"
             d="m 0,0 0,3.798 c 0,1.326 -1.027,2.353 -2.343,2.353 l -6.397,0 c -1.327,0 -2.343,-1.048 -2.343,-2.353 L -11.083,0 0,0 Z m 4.215,4.322 0,-4.739 c 0,-2.023 -1.177,-3.221 -3.124,-3.221 l -12.163,0 0,-3.573 c 0,-1.764 0.995,-2.685 2.888,-2.685 l 6.74,0 c 1.005,0 1.744,-0.696 1.744,-1.648 l 0,-0.535 c 0,-0.963 -0.739,-1.658 -1.744,-1.658 l -8.216,0 c -3.038,0 -5.606,2.696 -5.606,5.861 l 0,12.23 c 0,3.124 2.643,5.647 5.895,5.647 l 0.01,-0.021 7.671,0 C 1.562,9.981 4.215,7.435 4.215,4.322" /></g><g
           transform="translate(152.595,189.1619)"
           id="g108"><path
             id="path110"
             style="fill:#73ba25;fill-opacity:1;fill-rule:nonzero;stroke:none"
             d="M 0,0 C 0,-1.005 0.556,-1.872 1.38,-2.321 L 0.396,-4.492 c -0.182,0 -0.385,-0.322 -0.385,-0.62 l 0,-10.367 c 0,-0.952 -0.781,-1.743 -1.744,-1.743 l -0.685,0 c -0.984,0 -1.743,0.781 -1.743,1.743 l 0,31.227 c 0,0.834 0.62,1.497 1.358,1.497 l 0.781,0 c 0.663,0 1.198,-0.513 1.316,-0.78 l 0.513,-1.016 C -0.064,15.267 0.16,15.16 0.396,15.16 L 1.369,13.063 C 0.546,12.624 0,11.757 0,10.741 L 0,0 Z" /></g><g
           transform="translate(161.2815,206.5457)"
           id="g112"><path
             id="path114"
             style="fill:#73ba25;fill-opacity:1;fill-rule:nonzero;stroke:none"
             d="m 0,0 c 4.012,0 6.59,-2.385 6.59,-6.054 l 0,-11.918 c 0,-3.733 -2.525,-6.043 -6.59,-6.043 l -0.717,0 c -2.3,0 -4.033,0.79 -5.413,1.422 -0.856,0.395 -1.583,0.717 -2.161,0.717 l 0.984,2.171 c 0.375,-0.202 0.803,-0.321 1.252,-0.321 l 5.809,0 c 1.466,0 2.632,1.187 2.632,2.642 l 0,10.741 c 0,1.477 -1.156,2.631 -2.632,2.631 l -5.809,0 c -0.46,0 -0.888,-0.116 -1.262,-0.309 l -0.974,2.097 c 0.578,0 1.305,0.341 2.14,0.748 1.401,0.663 3.124,1.488 5.424,1.488 L -0.727,0 0,0 Z" /></g><g
           transform="translate(138.3027,188.9158)"
           id="g116"><path
             id="path118"
             style="fill:#73ba25;fill-opacity:1;fill-rule:nonzero;stroke:none"
             d="m 0,0 0,11.233 c 0,1.305 -1.102,2.407 -2.396,2.407 l -6.205,0 c -1.316,0 -2.396,-1.081 -2.396,-2.407 l 0,-11.233 c 0,-1.348 1.027,-2.396 2.343,-2.396 l 6.258,0 C -1.07,-2.396 0,-1.316 0,0 m 4.194,11.842 0,-12.324 c 0,-3.167 -2.568,-5.745 -5.713,-5.745 l -7.959,0 c -3.135,0 -5.691,2.578 -5.691,5.745 l 0,12.324 c 0,3.124 2.642,5.648 5.894,5.648 l 7.574,0 c 3.252,0.001 5.895,-2.535 5.895,-5.648" /></g></g></g></g></svg>