<?xml version="1.0" encoding="UTF-8" standalone="no"?>
<svg
   xmlns:dc="http://purl.org/dc/elements/1.1/"
   xmlns:cc="http://creativecommons.org/ns#"
   xmlns:rdf="http://www.w3.org/1999/02/22-rdf-syntax-ns#"
   xmlns:svg="http://www.w3.org/2000/svg"
   xmlns="http://www.w3.org/2000/svg"
   viewBox="0 0 640 640"
   height="640"
   width="640"
   xml:space="preserve"
   version="1.1"
   id="svg2"><metadata
     id="metadata8"><rdf:RDF><cc:Work
         rdf:about=""><dc:format>image/svg+xml</dc:format><dc:type
           rdf:resource="http://purl.org/dc/dcmitype/StillImage" /></cc:Work></rdf:RDF></metadata><defs
     id="defs6"><clipPath
       id="clipPath16"
       clipPathUnits="userSpaceOnUse"><path
         id="path18"
         d="M 0,512 512,512 512,0 0,0 0,512 Z" /></clipPath><clipPath
       id="clipPath24"
       clipPathUnits="userSpaceOnUse"><path
         id="path26"
         d="m 18.325,493.744 475.4,0 0,-475.4877 -475.4,0 0,475.4877 z" /></clipPath><clipPath
       id="clipPath28"
       clipPathUnits="userSpaceOnUse"><path
         id="path30"
         d="M 448.99,63.029 C 389.293,3.332 122.807,3.332 63.11,63.029 3.413,122.726 3.413,389.312 63.01,449.009 c 59.597,59.696 326.283,59.596 385.98,0 59.697,-59.597 59.597,-326.283 0,-385.98" /></clipPath><radialGradient
       id="radialGradient36"
       spreadMethod="pad"
       gradientTransform="matrix(237.72188,0,0,237.72188,256.02499,256)"
       gradientUnits="userSpaceOnUse"
       r="1"
       cy="0"
       cx="0"
       fy="0"
       fx="0"><stop
         id="stop38"
         offset="0"
         style="stop-opacity:1;stop-color:#ffffff" /><stop
         id="stop40"
         offset="0.8587"
         style="stop-opacity:0.14129854;stop-color:#ffffff" /><stop
         id="stop42"
         offset="1"
         style="stop-opacity:0;stop-color:#ffffff" /></radialGradient><mask
       id="mask44"
       height="1"
       width="1"
       y="0"
       x="0"
       maskUnits="userSpaceOnUse"><g
         id="g46"><g
           id="g48"><g
             id="g50"><g
               id="g52"><path
                 id="path54"
                 style="fill:url(#radialGradient36);stroke:none"
                 d="m -32768,32767 65535,0 0,-65535 -65535,0 0,65535 z" /></g></g></g></g></mask><radialGradient
       id="radialGradient56"
       spreadMethod="pad"
       gradientTransform="matrix(237.72188,0,0,237.72188,256.02499,256)"
       gradientUnits="userSpaceOnUse"
       r="1"
       cy="0"
       cx="0"
       fy="0"
       fx="0"><stop
         id="stop58"
         offset="0"
         style="stop-opacity:1;stop-color:#010101" /><stop
         id="stop60"
         offset="0.8587"
         style="stop-opacity:1;stop-color:#010101" /><stop
         id="stop62"
         offset="1"
         style="stop-opacity:1;stop-color:#010101" /></radialGradient><clipPath
       id="clipPath86"
       clipPathUnits="userSpaceOnUse"><path
         id="path88"
         d="m 18.325,493.744 475.4,0 0,-475.4877 -475.4,0 0,475.4877 z" /></clipPath><clipPath
       id="clipPath90"
       clipPathUnits="userSpaceOnUse"><path
         id="path92"
         d="M 448.99,63.029 C 389.293,3.332 122.807,3.332 63.11,63.029 3.413,122.726 3.413,389.312 63.01,449.009 c 59.597,59.696 326.283,59.596 385.98,0 59.697,-59.597 59.597,-326.283 0,-385.98" /></clipPath><radialGradient
       id="radialGradient98"
       spreadMethod="pad"
       gradientTransform="matrix(188.25467,188.36119,-130.35883,130.27895,256.02499,256.04376)"
       gradientUnits="userSpaceOnUse"
       r="1"
       cy="0"
       cx="0"
       fy="0"
       fx="0"><stop
         id="stop100"
         offset="0"
         style="stop-opacity:1;stop-color:#ffffff" /><stop
         id="stop102"
         offset="0.8587"
         style="stop-opacity:0.14129854;stop-color:#ffffff" /><stop
         id="stop104"
         offset="1"
         style="stop-opacity:0;stop-color:#ffffff" /></radialGradient><mask
       id="mask106"
       height="1"
       width="1"
       y="0"
       x="0"
       maskUnits="userSpaceOnUse"><g
         id="g108"><g
           id="g110"><g
             id="g112"><g
               id="g114"><path
                 id="path116"
                 style="fill:url(#radialGradient98);stroke:none"
                 d="m -32768,32767 65535,0 0,-65535 -65535,0 0,65535 z" /></g></g></g></g></mask><radialGradient
       id="radialGradient118"
       spreadMethod="pad"
       gradientTransform="matrix(188.25467,188.36119,-130.35883,130.27895,256.02499,256.04376)"
       gradientUnits="userSpaceOnUse"
       r="1"
       cy="0"
       cx="0"
       fy="0"
       fx="0"><stop
         id="stop120"
         offset="0"
         style="stop-opacity:1;stop-color:#010101" /><stop
         id="stop122"
         offset="0.8587"
         style="stop-opacity:1;stop-color:#010101" /><stop
         id="stop124"
         offset="1"
         style="stop-opacity:1;stop-color:#010101" /></radialGradient><clipPath
       id="clipPath148"
       clipPathUnits="userSpaceOnUse"><path
         id="path150"
         d="m 18.275,493.694 475.387,0 0,-475.4377 -475.387,0 0,475.4377 z" /></clipPath><clipPath
       id="clipPath152"
       clipPathUnits="userSpaceOnUse"><path
         id="path154"
         d="m 63.01,63.029 c 59.697,-59.697 326.183,-59.697 385.88,0 59.697,59.697 59.697,326.183 0,385.88 -59.697,59.696 -326.183,59.696 -385.88,0.1 -59.697,-59.597 -59.597,-326.283 0,-385.98" /></clipPath><radialGradient
       id="radialGradient160"
       spreadMethod="pad"
       gradientTransform="matrix(-188.28767,188.39421,130.38168,130.30179,255.92499,255.99377)"
       gradientUnits="userSpaceOnUse"
       r="1"
       cy="0"
       cx="0"
       fy="0"
       fx="0"><stop
         id="stop162"
         offset="0"
         style="stop-opacity:1;stop-color:#ffffff" /><stop
         id="stop164"
         offset="0.8587"
         style="stop-opacity:0.14129854;stop-color:#ffffff" /><stop
         id="stop166"
         offset="1"
         style="stop-opacity:0;stop-color:#ffffff" /></radialGradient><mask
       id="mask168"
       height="1"
       width="1"
       y="0"
       x="0"
       maskUnits="userSpaceOnUse"><g
         id="g170"><g
           id="g172"><g
             id="g174"><g
               id="g176"><path
                 id="path178"
                 style="fill:url(#radialGradient160);stroke:none"
                 d="m -32768,32767 65535,0 0,-65535 -65535,0 0,65535 z" /></g></g></g></g></mask><radialGradient
       id="radialGradient180"
       spreadMethod="pad"
       gradientTransform="matrix(-188.28767,188.39421,130.38168,130.30179,255.92499,255.99377)"
       gradientUnits="userSpaceOnUse"
       r="1"
       cy="0"
       cx="0"
       fy="0"
       fx="0"><stop
         id="stop182"
         offset="0"
         style="stop-opacity:1;stop-color:#010101" /><stop
         id="stop184"
         offset="0.8587"
         style="stop-opacity:1;stop-color:#010101" /><stop
         id="stop186"
         offset="1"
         style="stop-opacity:1;stop-color:#010101" /></radialGradient><radialGradient
       id="radialGradient218"
       spreadMethod="pad"
       gradientTransform="matrix(162.63455,-162.63455,-162.63455,-162.63455,268,279.33334)"
       gradientUnits="userSpaceOnUse"
       r="1"
       cy="0"
       cx="0"
       fy="0"
       fx="0"><stop
         id="stop220"
         offset="0"
         style="stop-opacity:1;stop-color:#fac012" /><stop
         id="stop222"
         offset="1"
         style="stop-opacity:1;stop-color:#f7911d" /></radialGradient><clipPath
       id="clipPath230"
       clipPathUnits="userSpaceOnUse"><path
         id="path232"
         d="M 0,512 512,512 512,0 0,0 0,512 Z" /></clipPath><radialGradient
       id="radialGradient254"
       spreadMethod="pad"
       gradientTransform="matrix(162.63455,-162.63455,-162.63455,-162.63455,268,279.33334)"
       gradientUnits="userSpaceOnUse"
       r="1"
       cy="0"
       cx="0"
       fy="0"
       fx="0"><stop
         id="stop256"
         offset="0"
         style="stop-opacity:1;stop-color:#fac012" /><stop
         id="stop258"
         offset="1"
         style="stop-opacity:1;stop-color:#f7911d" /></radialGradient><radialGradient
       id="radialGradient274"
       spreadMethod="pad"
       gradientTransform="matrix(162.63455,-162.63455,-162.63455,-162.63455,268,279.33334)"
       gradientUnits="userSpaceOnUse"
       r="1"
       cy="0"
       cx="0"
       fy="0"
       fx="0"><stop
         id="stop276"
         offset="0"
         style="stop-opacity:1;stop-color:#fac012" /><stop
         id="stop278"
         offset="1"
         style="stop-opacity:1;stop-color:#f7911d" /></radialGradient><radialGradient
       id="radialGradient294"
       spreadMethod="pad"
       gradientTransform="matrix(-4.742691,-186.552,-200.68781,4.7980533,145.69217,157.26837)"
       gradientUnits="userSpaceOnUse"
       r="1"
       cy="0"
       cx="0"
       fy="0"
       fx="0"><stop
         id="stop296"
         offset="0"
         style="stop-opacity:1;stop-color:#fdb514" /><stop
         id="stop298"
         offset="1"
         style="stop-opacity:1;stop-color:#f7911d" /></radialGradient><radialGradient
       id="radialGradient314"
       spreadMethod="pad"
       gradientTransform="matrix(-4.9184866,-193.62042,-199.87849,4.7585359,142.18842,41.817165)"
       gradientUnits="userSpaceOnUse"
       r="1"
       cy="0"
       cx="0"
       fy="0"
       fx="0"><stop
         id="stop316"
         offset="0"
         style="stop-opacity:1;stop-color:#fdb514" /><stop
         id="stop318"
         offset="1"
         style="stop-opacity:1;stop-color:#f7911d" /></radialGradient><radialGradient
       id="radialGradient334"
       spreadMethod="pad"
       gradientTransform="matrix(162.63455,-162.63455,-162.63455,-162.63455,268,279.33334)"
       gradientUnits="userSpaceOnUse"
       r="1"
       cy="0"
       cx="0"
       fy="0"
       fx="0"><stop
         id="stop336"
         offset="0"
         style="stop-opacity:1;stop-color:#fac012" /><stop
         id="stop338"
         offset="1"
         style="stop-opacity:1;stop-color:#f7911d" /></radialGradient></defs><g
     transform="matrix(1.25,0,0,-1.25,0,640)"
     id="g10"><g
       id="g12"><g
         clip-path="url(#clipPath16)"
         id="g14"><g
           id="g20"><g
             id="g22" /><g
             id="g64"><g
               style="opacity:0.39999402"
               id="g66"
               clip-path="url(#clipPath24)"><g
                 id="g68"><g
                   id="g70"
                   clip-path="url(#clipPath28)"><g
                     id="g72"><g
                       id="g74" /><g
                       id="g76"
                       mask="url(#mask44)"><g
                         id="g78"><path
                           id="path80"
                           style="fill:url(#radialGradient56);stroke:none"
                           d="M 448.99,63.029 C 389.293,3.332 122.807,3.332 63.11,63.029 3.413,122.726 3.413,389.312 63.01,449.009 c 59.597,59.696 326.283,59.596 385.98,0 59.697,-59.597 59.597,-326.283 0,-385.98" /></g></g></g></g></g></g></g></g><g
           id="g82"><g
             id="g84" /><g
             id="g126"><g
               style="opacity:0.39999402"
               id="g128"
               clip-path="url(#clipPath86)"><g
                 id="g130"><g
                   id="g132"
                   clip-path="url(#clipPath90)"><g
                     id="g134"><g
                       id="g136" /><g
                       id="g138"
                       mask="url(#mask106)"><g
                         id="g140"><path
                           id="path142"
                           style="fill:url(#radialGradient118);stroke:none"
                           d="M 448.99,63.029 C 389.293,3.332 122.807,3.332 63.11,63.029 3.413,122.726 3.413,389.312 63.01,449.009 c 59.597,59.696 326.283,59.596 385.98,0 59.697,-59.597 59.597,-326.283 0,-385.98" /></g></g></g></g></g></g></g></g><g
           id="g144"><g
             id="g146" /><g
             id="g188"><g
               style="opacity:0.39999402"
               id="g190"
               clip-path="url(#clipPath148)"><g
                 id="g192"><g
                   id="g194"
                   clip-path="url(#clipPath152)"><g
                     id="g196"><g
                       id="g198" /><g
                       id="g200"
                       mask="url(#mask168)"><g
                         id="g202"><path
                           id="path204"
                           style="fill:url(#radialGradient180);stroke:none"
                           d="m 63.01,63.029 c 59.697,-59.697 326.183,-59.697 385.88,0 59.697,59.697 59.697,326.183 0,385.88 -59.697,59.696 -326.183,59.696 -385.88,0.1 -59.697,-59.597 -59.597,-326.283 0,-385.98" /></g></g></g></g></g></g></g></g></g></g><g
       id="g206"><g
         id="g208"><g
           id="g214"><g
             id="g216"><path
               id="path224"
               style="fill:url(#radialGradient218);stroke:none"
               d="M 78.721,433.279 C 8.427,362.985 8.427,149.015 78.721,78.721 l 0,0 c 70.294,-70.294 284.264,-70.294 354.558,0 l 0,0 c 70.294,70.294 70.294,284.264 0,354.558 l 0,0 C 398.132,468.426 327.066,486 256,486 l 0,0 C 184.934,486 113.868,468.426 78.721,433.279" /></g></g></g></g><g
       id="g226"><g
         clip-path="url(#clipPath230)"
         id="g228"><g
           transform="translate(142.9458,403.546)"
           id="g234"><path
             id="path236"
             style="fill:#fdee3c;fill-opacity:1;fill-rule:nonzero;stroke:none"
             d="m 0,0 c 5.166,-1.422 10.309,-2.841 15.406,-4.444 15.297,-4.771 30.18,-11.613 44.382,-20.58 4.832,-2.333 9.607,-4.678 14.328,-7.075 34.597,-15.146 67.019,-34.802 93.104,-60.941 10.208,-10.228 19.445,-21.449 27.463,-33.781 0.849,-0.723 1.671,-1.456 2.494,-2.19 3.566,-3.179 6.9,-6.449 10.012,-9.842 3.462,-3.726 6.665,-7.6 9.642,-11.605 2.975,-4.006 5.717,-8.141 8.263,-12.394 24.225,-44.047 32.068,-92.675 41.266,-139.975 0.459,-5.131 0.641,-10.538 0.497,-16.287 0.355,-8.45 -0.352,-16.603 -1.555,-24.62 9.575,5.609 18.026,11.904 25.031,18.909 1.555,1.555 3.064,3.204 4.55,4.897 -0.731,8.048 -1.99,16.061 -3.82,24 -1.613,6.997 -3.667,13.939 -6.137,20.813 -2.203,7.313 -6.18,15.268 -6.18,21.232 -3.977,61.643 -25.851,119.308 -68.464,165.554 -3.593,3.97 -7.381,7.715 -11.389,11.259 -3.962,3.559 -8.143,6.919 -12.512,10.092 -4.369,3.174 -8.925,6.163 -13.639,8.994 -15.794,8.844 -31.424,17.807 -47.172,26.341 -5.249,2.846 -10.512,5.644 -15.799,8.374 C 56.049,10.096 -4.527,33.061 -68.382,25.286 -73.881,19.093 -78.91,11.984 -83.475,4.115 c 3.216,0.752 6.431,1.52 9.645,2.324 C -48.731,14.281 -23.632,8.005 0,0" /></g><g
           transform="translate(151.0213,193.5577)"
           id="g238"><path
             id="path240"
             style="fill:#fff5f0;fill-opacity:1;fill-rule:nonzero;stroke:none"
             d="m 0,0 c 1.38,2.169 2.804,4.372 4.266,6.604 8.042,12.271 17.234,25.373 26.604,38.064 4.259,5.769 8.555,11.452 12.796,16.934 2.545,3.289 5.07,6.505 7.556,9.623 1.657,2.079 3.297,4.115 4.913,6.099 1.616,1.985 3.209,3.918 4.773,5.793 1.564,1.875 3.098,3.692 4.598,5.442 2.249,2.626 4.42,5.104 6.491,7.408 7.597,8.448 13.868,14.563 17.841,17.102 2.102,1.343 4.389,2.206 6.795,2.653 1.031,0.191 2.085,0.306 3.154,0.35 0.357,0.014 0.715,0.021 1.075,0.019 0.36,-10e-4 0.722,-0.01 1.085,-0.026 0.363,-0.017 0.728,-0.041 1.094,-0.072 0.732,-0.063 1.469,-0.156 2.209,-0.276 1.111,-0.181 2.229,-0.425 3.351,-0.727 0.747,-0.201 1.496,-0.428 2.244,-0.679 1.123,-0.377 2.245,-0.809 3.361,-1.291 1.116,-0.481 2.225,-1.012 3.324,-1.588 2.197,-1.152 4.35,-2.483 6.416,-3.952 1.033,-0.735 2.044,-1.504 3.028,-2.303 1.969,-1.597 3.831,-3.314 5.543,-5.108 0.571,-0.599 1.125,-1.206 1.661,-1.82 5.628,-6.448 9.257,-13.694 9.097,-20.014 0.001,-0.002 33.609,-25.345 13.168,-43.77 -0.294,-0.265 -0.617,-0.546 -0.968,-0.844 C 135.8,16.954 26.987,-50.386 -10.787,-52.205 c -0.674,-0.032 -1.326,-0.044 -1.954,-0.034 -0.629,0.01 -1.233,0.042 -1.814,0.096 -2.901,0.268 -5.19,1.093 -6.754,2.555 C -25.939,-45.258 -15.872,-24.94 0,0 m 187.8,26.307 c 4.052,-2.381 6.737,-6.532 9.364,-11.59 0.096,-0.185 0.193,-0.37 0.288,-0.557 0.722,-1.409 1.444,-2.883 2.192,-4.407 0.391,-0.796 0.791,-1.608 1.2,-2.428 0.623,-1.251 1.269,-2.523 1.958,-3.815 0.451,-0.846 0.926,-1.7 1.415,-2.557 2.048,-3.59 4.455,-7.256 7.518,-10.814 12.032,-13.977 8.379,-37.747 14.165,-53.017 6.938,-18.316 16.347,-86.476 -24.768,-83.233 -7.837,0.618 -23.506,4.255 -43.809,8.202 -0.656,0.128 -1.315,0.255 -1.981,0.383 -16.008,3.081 -34.749,6.297 -54.747,8.377 -52.218,5.432 -106.699,9.719 -119.63,22.155 -2.117,2.035 -3.121,4.288 -2.82,6.8 4.289,35.783 60.112,48.266 108.284,76.52 42.967,25.201 77.629,52.537 93.082,52.168 3.341,-0.08 6.028,-0.859 8.289,-2.187 M -22.403,-145.804 c 0.031,0.566 0.081,1.134 0.17,1.706 0.219,1.421 0.619,2.863 1.21,4.331 0.197,0.489 0.415,0.982 0.655,1.477 0.764,1.577 2.063,2.868 3.841,3.909 0.592,0.347 1.238,0.666 1.935,0.959 2.788,1.17 6.395,1.916 10.686,2.322 1.073,0.101 2.189,0.181 3.346,0.241 1.156,0.06 2.353,0.101 3.589,0.122 0.618,0.01 1.246,0.016 1.883,0.018 1.911,0.004 3.906,-0.032 5.979,-0.104 1.383,-0.048 2.799,-0.112 4.248,-0.192 2.174,-0.118 4.421,-0.27 6.733,-0.451 1.542,-0.12 3.113,-0.254 4.711,-0.399 2.398,-0.217 4.856,-0.46 7.369,-0.725 1.675,-0.177 3.375,-0.363 5.096,-0.557 0.861,-0.097 1.727,-0.196 2.598,-0.298 1.743,-0.202 3.507,-0.412 5.29,-0.628 4.457,-0.541 9.032,-1.121 13.693,-1.72 7.457,-0.958 15.133,-1.966 22.896,-2.939 2.911,-0.365 5.834,-0.725 8.763,-1.075 8.784,-1.053 17.615,-2.021 26.302,-2.788 4.391,-0.388 8.623,-0.787 12.704,-1.2 32.182,-3.252 54.742,-7.316 67.527,-12.777 21.904,5.523 41.855,13.131 58.402,22.824 1.203,8.019 1.911,16.173 1.556,24.625 0.143,5.749 -0.038,11.155 -0.497,16.288 -9.199,47.3 -17.042,95.927 -41.267,139.974 -2.545,4.254 -5.287,8.388 -8.262,12.395 -2.977,4.004 -6.181,7.877 -9.642,11.604 -3.112,3.392 -6.445,6.661 -10.01,9.839 -0.822,0.734 -1.644,1.467 -2.493,2.19 l -0.001,0.001 c -0.001,10e-4 -0.001,10e-4 -0.002,0.002 -8.017,12.331 -17.254,23.551 -27.46,33.778 -26.085,26.137 -58.505,45.793 -93.102,60.938 -4.72,2.398 -9.494,4.742 -14.327,7.075 -14.204,8.968 -29.085,15.811 -44.382,20.58 -5.099,1.603 -10.241,3.022 -15.406,4.444 -23.634,8.006 -48.732,14.281 -73.83,6.439 -3.216,-0.804 -6.433,-1.572 -9.651,-2.325 -6.257,-10.789 -11.638,-22.999 -16.14,-36.246 4.116,2.652 10.34,4.063 18.693,2.19 0,0 1.322,1.234 3.804,2.69 0.552,0.323 1.161,0.657 1.825,0.991 0.665,0.334 1.385,0.668 2.159,0.991 0.774,0.322 1.602,0.633 2.481,0.922 0.88,0.289 1.812,0.555 2.794,0.787 0.491,0.117 0.995,0.224 1.51,0.322 1.032,0.197 2.114,0.354 3.242,0.46 0.565,0.054 1.141,0.094 1.729,0.121 6.469,0.295 14.351,-1.1 23.353,-6.035 0,0 0.375,-0.005 1.109,-0.029 0.367,-0.012 0.824,-0.029 1.369,-0.052 0.907,-0.039 2.058,-0.097 3.444,-0.183 1.108,-0.068 2.366,-0.154 3.769,-0.262 0.701,-0.054 1.439,-0.114 2.212,-0.179 4.64,-0.394 10.563,-1.006 17.638,-1.956 1.762,-0.237 3.408,-0.519 4.954,-0.83 1.546,-0.31 2.991,-0.65 4.351,-1 1.359,-0.35 2.633,-0.712 3.835,-1.068 1.203,-0.355 2.335,-0.705 3.41,-1.032 1.614,-0.49 3.101,-0.928 4.511,-1.257 2.352,-0.547 4.492,-0.789 6.652,-0.457 4.371,0.671 11.914,-0.496 20.399,-3.057 1.132,-0.342 2.28,-0.708 3.439,-1.098 2.319,-0.78 4.684,-1.654 7.053,-2.616 1.184,-0.48 2.369,-0.982 3.55,-1.505 1.771,-0.784 3.532,-1.614 5.266,-2.487 1.156,-0.582 2.299,-1.183 3.425,-1.802 2.251,-1.238 4.433,-2.547 6.501,-3.92 1.034,-0.686 2.04,-1.388 3.013,-2.105 0.973,-0.717 1.912,-1.448 2.812,-2.193 1.801,-1.491 3.447,-3.036 4.896,-4.627 0.362,-0.398 0.712,-0.799 1.048,-1.202 1.011,-1.211 1.905,-2.447 2.664,-3.703 0.253,-0.419 0.491,-0.84 0.713,-1.264 0.667,-1.27 1.194,-2.561 1.562,-3.868 0.368,-1.307 0.577,-2.631 0.61,-3.968 0.044,-1.782 -0.225,-3.587 -0.85,-5.407 -0.312,-0.91 -0.714,-1.823 -1.21,-2.74 -0.495,-0.916 -1.085,-1.835 -1.775,-2.755 -1.723,-2.301 -4.069,-4.611 -7.119,-6.915 C 54.044,105.859 36.687,79.718 13.171,41.822 -15.117,-3.766 -38.04,-46.001 -53.472,-45.531 c -1.307,0.04 -2.561,0.386 -3.76,1.064 -11.014,6.221 -18.241,22.539 -23.452,43.718 -0.336,1.366 -0.664,2.753 -0.983,4.158 -0.48,2.108 -0.942,4.259 -1.388,6.447 -0.297,1.459 -0.587,2.934 -0.87,4.425 -0.992,5.218 -1.901,10.624 -2.748,16.157 -0.484,3.161 -0.947,6.364 -1.395,9.598 -0.335,2.425 -0.661,4.867 -0.98,7.322 -0.212,1.636 -0.421,3.278 -0.627,4.924 -0.103,0.823 -0.205,1.647 -0.307,2.472 -0.203,1.649 -0.404,3.302 -0.602,4.957 -0.198,1.655 -0.394,3.312 -0.589,4.969 -0.486,4.144 -0.961,8.291 -1.432,12.42 -4.049,35.456 -18.405,60.197 -21.574,78.614 -2.153,-8.609 -3.99,-17.508 -5.501,-26.623 3.347,-10.926 6.628,-23.511 9.284,-36.722 0.01,-0.053 0.022,-0.107 0.033,-0.161 0.836,-4.167 1.605,-8.397 2.298,-12.653 0.845,-5.184 1.575,-10.406 2.151,-15.613 0.917,-8.296 1.453,-16.546 1.479,-24.51 0.135,-40.952 23.497,-66.265 22.681,-85.575 -0.03,-0.697 -0.09,-1.386 -0.185,-2.068 -0.281,-2.025 -0.86,-3.984 -1.794,-5.891 -1.049,-2.139 -4.539,-5.73 -10.286,-7.744 -0.368,-0.13 -0.744,-0.253 -1.131,-0.368 -0.138,-0.041 -0.277,-0.082 -0.418,-0.121 -2.433,-0.681 -5.221,-1.068 -8.349,-0.98 8.17,-20.831 18.702,-38.607 31.616,-51.522 12.577,-12.577 29.769,-22.89 49.898,-30.967" /></g></g></g><g
       id="g242"><g
         id="g244"><g
           id="g250"><g
             id="g252"><path
               id="path260"
               style="fill:url(#radialGradient254);stroke:none"
               d="M 237.452,169.883 C 189.279,141.629 133.457,129.145 129.167,93.362 l 0,0 c -0.3,-2.511 0.703,-4.764 2.819,-6.799 l 0,0 C 144.919,74.128 199.399,69.842 251.615,64.409 l 0,0 c 19.999,-2.08 38.74,-5.296 54.749,-8.377 l 0,0 c 0.665,-0.128 1.324,-0.255 1.98,-0.383 l 0,0 c 20.303,-3.948 35.972,-7.584 43.808,-8.201 l 0,0 c 41.116,-3.244 31.706,64.917 24.769,83.233 l 0,0 c -5.786,15.269 -2.134,39.039 -14.166,53.017 l 0,0 c -3.063,3.558 -5.469,7.223 -7.517,10.813 l 0,0 c -0.489,0.856 -0.964,1.711 -1.415,2.557 l 0,0 c -0.688,1.291 -1.334,2.564 -1.958,3.815 l 0,0 c -0.409,0.82 -0.809,1.631 -1.2,2.428 l 0,0 c -0.748,1.524 -1.47,2.998 -2.191,4.407 l 0,0 c -0.097,0.187 -0.193,0.372 -0.288,0.556 l 0,0 c -2.628,5.058 -5.313,9.209 -9.365,11.591 l 0,0 c -2.261,1.328 -4.947,2.106 -8.287,2.186 l 0,0 c -0.104,0.002 -0.208,0.003 -0.314,0.003 l 0,0 c -15.604,0.001 -50.089,-27.14 -92.768,-52.171" /></g></g></g></g><g
       id="g262"><g
         id="g264"><g
           id="g270"><g
             id="g272"><path
               id="path280"
               style="fill:url(#radialGradient274);stroke:none"
               d="m 81.565,380.884 c -0.587,-0.026 -1.163,-0.067 -1.728,-0.12 l 0,0 c -1.129,-0.106 -2.21,-0.264 -3.243,-0.46 l 0,0 c -0.515,-0.098 -1.018,-0.206 -1.51,-0.322 l 0,0 c -0.982,-0.232 -1.914,-0.499 -2.793,-0.788 l 0,0 c -0.88,-0.288 -1.708,-0.599 -2.482,-0.921 l 0,0 c -0.774,-0.323 -1.494,-0.657 -2.159,-0.991 l 0,0 c -0.664,-0.334 -1.273,-0.668 -1.825,-0.992 l 0,0 c -2.482,-1.455 -3.804,-2.689 -3.804,-2.689 l 0,0 c -8.354,1.873 -14.578,0.461 -18.693,-2.191 l 0,0 c -2.415,-7.104 -4.576,-14.503 -6.486,-22.139 l 0,0 c 3.169,-18.417 17.525,-43.157 21.574,-78.613 l 0,0 c 0.472,-4.129 0.947,-8.276 1.432,-12.42 l 0,0 c 0.195,-1.657 0.391,-3.314 0.59,-4.969 l 0,0 c 0.198,-1.655 0.398,-3.308 0.602,-4.958 l 0,0 c 0.101,-0.825 0.203,-1.649 0.307,-2.472 l 0,0 c 0.205,-1.646 0.415,-3.287 0.627,-4.923 l 0,0 c 0.318,-2.455 0.644,-4.897 0.98,-7.323 l 0,0 c 0.446,-3.233 0.911,-6.436 1.394,-9.597 l 0,0 c 0.848,-5.534 1.756,-10.939 2.748,-16.157 l 0,0 c 0.283,-1.491 0.573,-2.967 0.87,-4.426 l 0,0 c 0.446,-2.187 0.908,-4.337 1.388,-6.446 l 0,0 c 0.32,-1.405 0.647,-2.792 0.984,-4.158 l 0,0 c 5.211,-21.18 12.438,-37.498 23.451,-43.719 l 0,0 c 1.199,-0.677 2.453,-1.024 3.76,-1.063 l 0,0 c 15.432,-0.47 38.355,41.764 66.643,87.353 l 0,0 c 23.516,37.896 40.874,64.037 53.978,73.933 l 0,0 c 3.05,2.303 5.395,4.614 7.119,6.915 l 0,0 c 0.689,0.92 1.279,1.839 1.775,2.755 l 0,0 c 0.496,0.917 0.897,1.83 1.209,2.74 l 0,0 c 0.626,1.82 0.895,3.625 0.851,5.407 l 0,0 c -0.034,1.337 -0.243,2.661 -0.611,3.967 l 0,0 c -0.368,1.308 -0.895,2.599 -1.562,3.869 l 0,0 c -0.222,0.423 -0.461,0.845 -0.713,1.263 l 0,0 c -0.759,1.257 -1.653,2.492 -2.664,3.703 l 0,0 c -0.336,0.404 -0.686,0.804 -1.048,1.202 l 0,0 c -1.449,1.591 -3.094,3.137 -4.895,4.627 l 0,0 c -0.901,0.745 -1.84,1.477 -2.813,2.194 l 0,0 c -0.973,0.717 -1.979,1.419 -3.013,2.105 l 0,0 c -2.068,1.373 -4.25,2.681 -6.501,3.92 l 0,0 c -1.126,0.618 -2.269,1.219 -3.425,1.802 l 0,0 c -1.733,0.873 -3.495,1.702 -5.266,2.486 l 0,0 c -1.181,0.523 -2.366,1.025 -3.55,1.506 l 0,0 c -2.368,0.961 -4.734,1.836 -7.053,2.615 l 0,0 c -1.159,0.391 -2.307,0.757 -3.439,1.098 l 0,0 c -8.484,2.561 -16.028,3.729 -20.399,3.058 l 0,0 c -2.16,-0.332 -4.299,-0.09 -6.651,0.457 l 0,0 c -1.411,0.329 -2.898,0.767 -4.512,1.256 l 0,0 c -1.075,0.327 -2.207,0.677 -3.409,1.033 l 0,0 c -1.203,0.356 -2.477,0.717 -3.836,1.068 l 0,0 c -1.36,0.35 -2.805,0.689 -4.35,1 l 0,0 c -1.547,0.31 -3.193,0.593 -4.955,0.83 l 0,0 c -7.075,0.95 -12.998,1.562 -17.637,1.955 l 0,0 c -0.773,0.066 -1.511,0.126 -2.213,0.179 l 0,0 c -1.403,0.108 -2.661,0.194 -3.769,0.262 l 0,0 c -1.386,0.086 -2.537,0.144 -3.444,0.183 l 0,0 c -0.544,0.024 -1.002,0.041 -1.369,0.053 l 0,0 c -0.734,0.024 -1.11,0.028 -1.11,0.028 l 0,0 c -8.249,4.523 -15.559,6.073 -21.702,6.073 l 0,0 c -0.56,0 -1.109,-0.013 -1.65,-0.038" /></g></g></g></g><g
       id="g282"><g
         id="g284"><g
           id="g290"><g
             id="g292"><path
               id="path300"
               style="fill:url(#radialGradient294);stroke:none"
               d="m 250.808,309.63 c -1.069,-0.044 -2.122,-0.16 -3.153,-0.35 l 0,0 c -2.407,-0.447 -4.694,-1.31 -6.795,-2.653 l 0,0 c -3.974,-2.539 -10.245,-8.654 -17.841,-17.102 l 0,0 c -2.073,-2.304 -4.242,-4.782 -6.492,-7.408 l 0,0 c -1.499,-1.751 -3.034,-3.567 -4.598,-5.443 l 0,0 c -1.564,-1.874 -3.156,-3.808 -4.772,-5.792 l 0,0 c -1.617,-1.985 -3.257,-4.02 -4.914,-6.099 l 0,0 c -2.485,-3.119 -5.011,-6.335 -7.556,-9.624 l 0,0 c -4.241,-5.481 -8.536,-11.165 -12.796,-16.934 l 0,0 c -9.37,-12.69 -18.562,-25.793 -26.603,-38.064 l 0,0 c -1.463,-2.231 -2.887,-4.434 -4.267,-6.603 l 0,0 C 135.149,168.618 125.083,148.3 129.712,143.969 l 0,0 c 1.564,-1.462 3.853,-2.286 6.755,-2.555 l 0,0 c 0.58,-0.054 1.184,-0.085 1.813,-0.095 l 0,0 c 0.629,-0.01 1.28,0.002 1.954,0.034 l 0,0 c 37.774,1.818 146.587,69.159 166.262,85.826 l 0,0 c 0.352,0.298 0.674,0.579 0.968,0.843 l 0,0 c 20.441,18.426 -13.168,43.769 -13.168,43.771 l 0,0 c 0.161,6.32 -3.469,13.565 -9.097,20.014 l 0,0 c -0.536,0.614 -1.09,1.221 -1.661,1.819 l 0,0 c -1.712,1.795 -3.573,3.512 -5.542,5.109 l 0,0 c -0.985,0.798 -1.996,1.568 -3.029,2.302 l 0,0 c -2.065,1.47 -4.218,2.8 -6.416,3.952 l 0,0 c -1.098,0.576 -2.209,1.107 -3.324,1.589 l 0,0 c -1.116,0.481 -2.238,0.913 -3.36,1.29 l 0,0 c -0.749,0.252 -1.498,0.478 -2.245,0.68 l 0,0 c -1.121,0.302 -2.24,0.546 -3.351,0.726 l 0,0 c -0.74,0.121 -1.477,0.213 -2.209,0.277 l 0,0 c -0.365,0.031 -0.73,0.055 -1.094,0.071 l 0,0 c -0.362,0.017 -0.724,0.026 -1.084,0.028 l 0,0 c -0.023,0 -0.045,0 -0.067,0 l 0,0 c -0.339,0 -0.674,-0.007 -1.009,-0.02" /></g></g></g></g><g
       id="g302"><g
         id="g304"><g
           id="g310"><g
             id="g312"><path
               id="path320"
               style="fill:url(#radialGradient314);stroke:none"
               d="m 155.933,62.839 c -0.637,-0.002 -1.264,-0.008 -1.883,-0.018 l 0,0 c -1.235,-0.022 -2.432,-0.062 -3.589,-0.122 l 0,0 c -1.156,-0.06 -2.272,-0.14 -3.345,-0.242 l 0,0 c -4.291,-0.405 -7.899,-1.151 -10.687,-2.322 l 0,0 c -0.696,-0.292 -1.343,-0.612 -1.935,-0.958 l 0,0 c -1.778,-1.042 -3.077,-2.333 -3.841,-3.91 l 0,0 c -0.24,-0.495 -0.458,-0.987 -0.655,-1.476 l 0,0 c -0.591,-1.468 -0.99,-2.91 -1.21,-4.331 l 0,0 c -0.089,-0.573 -0.138,-1.141 -0.169,-1.706 l 0,0 C 190.407,22.963 279.994,19.373 349.841,36.985 l 0,0 c -12.786,5.461 -35.345,9.526 -67.525,12.778 l 0,0 c -4.082,0.412 -8.314,0.813 -12.705,1.199 l 0,0 c -8.687,0.767 -17.517,1.736 -26.302,2.789 l 0,0 c -2.928,0.35 -5.851,0.71 -8.763,1.075 l 0,0 c -7.762,0.973 -15.439,1.98 -22.896,2.939 l 0,0 c -4.661,0.599 -9.236,1.179 -13.693,1.72 l 0,0 c -1.782,0.216 -3.546,0.426 -5.29,0.628 l 0,0 c -0.871,0.102 -1.737,0.201 -2.598,0.298 l 0,0 c -1.721,0.194 -3.421,0.38 -5.096,0.557 l 0,0 c -2.512,0.264 -4.971,0.507 -7.369,0.725 l 0,0 c -1.597,0.145 -3.169,0.278 -4.71,0.399 l 0,0 c -2.313,0.181 -4.56,0.332 -6.733,0.451 l 0,0 c -1.449,0.079 -2.866,0.144 -4.248,0.191 l 0,0 c -1.958,0.069 -3.847,0.105 -5.66,0.105 l 0,0 c -0.107,0 -0.213,0 -0.32,0" /></g></g></g></g><g
       id="g322"><g
         id="g324"><g
           id="g330"><g
             id="g332"><path
               id="path340"
               style="fill:url(#radialGradient334);stroke:none"
               d="m 47.104,130.243 c 3.129,-0.088 5.916,0.299 8.35,0.98 l 0,0 c 0.14,0.039 0.279,0.079 0.417,0.12 l 0,0 c 0.387,0.115 0.763,0.239 1.131,0.368 l 0,0 c 5.748,2.015 9.238,5.606 10.286,7.745 l 0,0 c 0.935,1.906 1.513,3.866 1.794,5.89 l 0,0 c 0.095,0.683 0.156,1.372 0.185,2.069 l 0,0 c 0.816,19.31 -22.547,44.623 -22.68,85.575 l 0,0 c -0.026,7.963 -0.562,16.214 -1.48,24.51 l 0,0 c -0.576,5.206 -1.306,10.429 -2.15,15.612 l 0,0 c -0.694,4.256 -1.463,8.486 -2.299,12.654 l 0,0 c -0.01,0.054 -0.022,0.107 -0.033,0.161 l 0,0 c -2.656,13.21 -5.937,25.795 -9.284,36.722 l 0,0 C 20.714,258.547 25.969,184.137 47.104,130.243" /></g></g></g></g></g></svg>