<?xml version="1.0" encoding="utf-8"?>
<!-- Generator: Adobe Illustrator 18.0.0, SVG Export Plug-In . SVG Version: 6.00 Build 0)  -->
<!DOCTYPE svg PUBLIC "-//W3C//DTD SVG 1.1//EN" "http://www.w3.org/Graphics/SVG/1.1/DTD/svg11.dtd">
<svg version="1.1" id="Layer_2" xmlns="http://www.w3.org/2000/svg" xmlns:xlink="http://www.w3.org/1999/xlink" x="0px" y="0px"
	 viewBox="0 0 512 512" enable-background="new 0 0 512 512" xml:space="preserve">
<g>
	<g>
		<g opacity="0.4" enable-background="new    ">
			
				<radialGradient id="SVGID_1_" cx="1.0125" cy="515" r="118.8609" gradientTransform="matrix(2 0 0 -2 254 1286)" gradientUnits="userSpaceOnUse">
				<stop  offset="0" style="stop-color:#010101"/>
				<stop  offset="0.8587" style="stop-color:#010101;stop-opacity:0.1413"/>
				<stop  offset="1" style="stop-color:#010101;stop-opacity:0"/>
			</radialGradient>
			<path fill="url(#SVGID_1_)" d="M449,449c-59.7,59.7-326.2,59.7-385.9,0S3.4,122.7,63,63s326.3-59.6,386,0S508.6,389.3,449,449z"
				/>
		</g>
		<g opacity="0.4" enable-background="new    ">
			
				<radialGradient id="SVGID_2_" cx="2.0286" cy="516.0684" r="133.1551" gradientTransform="matrix(1.4138 -1.4146 -0.979 -0.9784 758.388 763.7472)" gradientUnits="userSpaceOnUse">
				<stop  offset="0" style="stop-color:#010101"/>
				<stop  offset="0.8587" style="stop-color:#010101;stop-opacity:0.1413"/>
				<stop  offset="1" style="stop-color:#010101;stop-opacity:0"/>
			</radialGradient>
			<path fill="url(#SVGID_2_)" d="M449,449c-59.7,59.7-326.2,59.7-385.9,0S3.4,122.7,63,63s326.3-59.6,386,0S508.6,389.3,449,449z"
				/>
		</g>
		<g opacity="0.4" enable-background="new    ">
			
				<radialGradient id="SVGID_3_" cx="3.4424" cy="513.9732" r="133.1784" gradientTransform="matrix(-1.4138 -1.4146 0.979 -0.9784 -242.3879 763.7472)" gradientUnits="userSpaceOnUse">
				<stop  offset="0" style="stop-color:#010101"/>
				<stop  offset="0.8587" style="stop-color:#010101;stop-opacity:0.1413"/>
				<stop  offset="1" style="stop-color:#010101;stop-opacity:0"/>
			</radialGradient>
			<path fill="url(#SVGID_3_)" d="M63,449c59.7,59.7,326.2,59.7,385.9,0s59.7-326.2,0-385.9S122.7,3.4,63,63S3.4,389.3,63,449z"/>
		</g>
	</g>
	<linearGradient id="SVGID_4_" gradientUnits="userSpaceOnUse" x1="256.0002" y1="26.0005" x2="256.0002" y2="485.9995">
		<stop  offset="0" style="stop-color:#F7F7F7"/>
		<stop  offset="1" style="stop-color:#F7F7F7"/>
	</linearGradient>
	<path fill="url(#SVGID_4_)" d="M433.3,78.7C363,8.4,149,8.4,78.7,78.7S8.4,363,78.7,433.3s284.3,70.3,354.6,0
		C503.6,363,503.6,149,433.3,78.7z M120,228c3-30,12-66,39-82C132,162,123,198,120,228z"/>
</g>
<g>
	<g id="Layer_1_4_">
		<g>
			<g>
				<path fill="#1BBC9B" d="M358.2,317.7c0-2-4.2-3.5-9.3-3.5c-5.1,0-9.3,1.6-9.3,3.5c0,0,0,0,0,0c-0.5,0.1-0.9,0.3-1,0.5
					c-0.4,0-0.7-0.1-1.1-0.1c-1.8,0-3.3,0.6-3.3,1.3s1.5,1.3,3.3,1.3c1.8,0,3.3-0.5,3.3-1.2c1.6,1.1,4.6,1.8,8,1.8c0,0,0,0,0,0
					c0,0,0,0,0,0c0,0.3,0.7,0.6,1.5,0.6s1.5-0.3,1.5-0.6c0-0.1,0-0.1-0.1-0.2C355.5,320.6,358.2,319.3,358.2,317.7z"/>
				<ellipse fill="#1BBC9B" cx="336.2" cy="315.6" rx="1" ry="0.4"/>
				<ellipse fill="#1BBC9B" cx="339.6" cy="314.2" rx="1" ry="0.4"/>
			</g>
			<g>
				<path fill="#2C97DF" d="M320.6,346.1c0-0.1,0.1-0.2,0.1-0.4c0-1.2-2-2.1-4.4-2.1c-2.4,0-4.4,0.9-4.4,2.1c0,0.6,0.6,1.2,1.6,1.6
					c-2.2,0.9-3.6,2.3-3.6,3.8c0,1.2,0.8,2.2,2.2,3.1c0,0.1-0.1,0.1-0.1,0.2c0,0.2,0.4,0.4,0.9,0.4c0.1,0,0.2,0,0.3,0
					c1.9,0.9,4.5,1.4,7.4,1.4c5.9,0,10.6-2.3,10.6-5.1C331,348.5,326.4,346.2,320.6,346.1z"/>
				<ellipse fill="#2C97DF" cx="303.3" cy="348.7" rx="2.4" ry="1.1"/>
				<ellipse fill="#2C97DF" cx="306.6" cy="351.5" rx="0.9" ry="0.4"/>
				<ellipse fill="#2C97DF" cx="333.7" cy="348.7" rx="1.2" ry="0.6"/>
				<ellipse fill="#2C97DF" cx="333.7" cy="355.7" rx="1.7" ry="0.8"/>
				<ellipse fill="#2C97DF" cx="324.4" cy="358.8" rx="3.8" ry="1.8"/>
			</g>
			<g>
				<path fill="#34495E" d="M361.4,364.8c0.1-0.1,0.2-0.2,0.2-0.3c0-0.2-0.4-0.4-1-0.4c-0.2,0-0.5,0-0.6,0.1
					c-1.2-0.4-2.6-0.6-4.2-0.6c-3.7,0-6.8,1.3-7.3,2.9c-0.2,0-0.4-0.1-0.6-0.1c-0.9,0-1.6,0.3-1.6,0.7c0,0.4,0.7,0.7,1.6,0.7
					c0.3,0,0.6,0,0.8-0.1c0.9,1.4,3.7,2.4,7,2.4c4,0,7.3-1.5,7.3-3.3C363.1,366.1,362.5,365.4,361.4,364.8z"/>
				<ellipse fill="#34495E" cx="355.5" cy="361.6" rx="2.5" ry="1.1"/>
				<ellipse fill="#34495E" cx="364.7" cy="369" rx="1.6" ry="0.7"/>
				<ellipse fill="#34495E" cx="364.5" cy="364" rx="2.9" ry="1.3"/>
				<ellipse fill="#34495E" cx="350" cy="371" rx="2" ry="0.9"/>
				<ellipse fill="#34495E" cx="359.3" cy="371.6" rx="1.4" ry="0.6"/>
			</g>
		</g>
	</g>
	<g>
		<linearGradient id="SVGID_5_" gradientUnits="userSpaceOnUse" x1="163.0489" y1="190.6617" x2="320.0884" y2="190.6617">
			<stop  offset="0" style="stop-color:#E77E22"/>
			<stop  offset="1" style="stop-color:#E74B3C"/>
		</linearGradient>
		<path fill="url(#SVGID_5_)" d="M375.4,185.3c15.2,9.5,20.6-19.8-4.1-37.7c-50.6-36.7-218.8-4.1-238.7,66c-1.1,3.9-1.2,8-0.8,11.9
			c0.4,3.9,1.6,7.6,3.1,11.1c0.4,0.8,0.8,1.7,1.2,2.5l0.6,1.2l0.3,0.6l0.1,0.2l0.3,0.5c0.1,0.1,0.3,0.5,0.5,0.8l0.6,0.9
			c0.4,0.6,0.8,1,1.2,1.5c0.8,1,1.7,1.9,2.7,2.8c0.5,0.4,1,0.9,1.5,1.3c3.5-6.6,7.9-12.6,13.4-17.8l0,0c-0.3-0.5-0.4-1-0.7-1.6
			c-0.8-2.1-1.2-4.1-1.4-5.9C150.9,192.4,328.4,155.9,375.4,185.3z"/>
		<linearGradient id="SVGID_6_" gradientUnits="userSpaceOnUse" x1="171.663" y1="236.2554" x2="335.2892" y2="236.2554">
			<stop  offset="0" style="stop-color:#E77E22"/>
			<stop  offset="1" style="stop-color:#F1C50E"/>
		</linearGradient>
		<path fill="url(#SVGID_6_)" d="M356.9,222.4c-4.1-2.5-8.6-4.1-13-5.2c-8.8-2-17.1-2.1-25.1-1.9c-8,0.3-15.8,1.2-23.4,2.3
			c-7.6,1.1-15,2.4-22.4,3.9c-14.7,2.8-29,6-43,8.9c-14,2.8-27.8,5.5-41,6.8c-6.5,0.6-13,0.9-18.6,0.4c-2.8-0.3-5.3-0.7-7.3-1.4
			c-2-0.7-3.3-1.5-4.1-2.3c-0.2-0.2-0.4-0.4-0.6-0.7c-0.1-0.1-0.2-0.3-0.2-0.3c0,0,0,0,0,0c0,0,0,0-0.1-0.2l-0.3-0.5l-0.1-0.2
			c0.3,0.5,0,0,0.1,0.1l-0.4-0.8c-5.5,5.1-9.9,11.2-13.4,17.8c3.5,2.8,7.7,4.7,11.5,5.8c4.5,1.4,8.8,2,12.9,2.3
			c8.2,0.5,15.9-0.1,23.3-0.9c14.9-1.8,29.1-5,43.3-8.2c14.2-3.3,28.3-6.8,42.5-9.9c7.1-1.6,14.2-3,21.3-4.2
			c7.1-1.2,14.2-2.2,21.1-2.7c6.9-0.5,13.8-0.4,19.7,0.8c1.3,0.3,2.4,0.6,3.5,1c7-1.4,14-2.9,21-4.3
			C362.1,226.2,359.7,224.1,356.9,222.4z"/>
		<linearGradient id="SVGID_7_" gradientUnits="userSpaceOnUse" x1="246.7654" y1="285.4068" x2="329.9603" y2="285.4068">
			<stop  offset="0" style="stop-color:#50D78A"/>
			<stop  offset="1" style="stop-color:#1BBC9B"/>
		</linearGradient>
		<path fill="url(#SVGID_7_)" d="M346.2,279.1c-1.2-1.7-3.1-3.1-5-4c-1.9-0.9-3.9-1.3-5.8-1.6c-1.9-0.3-3.7-0.3-5.5-0.3
			c-3.5,0-6.9,0.4-10.3,0.9c-6.7,1-13.1,2.4-19.6,4c-6.4,1.6-12.9,3.1-19.4,4.7c-6.5,1.5-13.1,3-19.6,4.1c-3.3,0.5-6.5,0.9-9.7,1.1
			c-3.1,0.1-6.2,0-8.7-0.6c-2.5-0.6-3.9-1.6-4.5-2.7c0,0-0.1-0.1-0.1-0.2l-0.1-0.3c-0.1-0.2,0,0,0-0.1l-0.1-0.2
			c-0.1-0.3-0.3-0.6-0.4-0.9c-0.2-0.6-0.4-1.1-0.6-1.7c-0.2-0.9-0.3-1.7-0.3-2.4c-4-0.3-8-0.7-12-1.3c-0.2,2.3,0.2,4.4,0.7,6.3
			c0.3,1,0.6,1.9,1.1,2.8c0.2,0.4,0.4,0.9,0.6,1.3l0.2,0.3c0,0.1,0.3,0.5,0.2,0.4l0.2,0.3l0.2,0.3c0.2,0.3,0.4,0.6,0.6,0.9l0.6,0.7
			c0.4,0.5,0.8,0.9,1.3,1.4c0.9,0.9,2,1.6,3.1,2.3c2.2,1.3,4.5,2,6.7,2.5c4.4,0.9,8.4,0.8,12.3,0.5c3.8-0.3,7.4-0.9,11-1.5
			c7.1-1.3,13.8-3.1,20.3-4.8c6.5-1.8,12.9-3.5,19.2-5.3c6.3-1.7,12.5-3.3,18.6-4.3c3-0.5,6-0.9,8.9-1c2.8-0.1,5.6,0.1,7.3,0.9
			c0.9,0.4,1.5,0.8,1.9,1.4c0.5,0.6,0.8,1.4,0.9,2.4c0,0.1,0,0.2,0,0.4c2.6-0.5,5.1-1,7.7-1.5C347.9,282.4,347.4,280.7,346.2,279.1z
			"/>
		<path fill="#2C97DF" d="M291.1,316.9c4.6-0.3,8.9-0.4,13,0c4.1,0.4,7.9,1.4,11.2,3.1c3.3,1.6,6,3.9,8.1,6.3c2.1,2.5,3.7,5.1,5,7.7
			c2.6,5.2,3.9,10.2,4.8,14.6c0.9,4.4,1.4,8.2,1.7,11.2c0.3,3.1,0.5,5.4,0.6,7c0.1,1.6,0.1,2.4,0.1,2.4s0-0.8,0-2.4c0-1.6,0-4-0.2-7
			c-0.2-3.1-0.5-6.9-1.2-11.3c-0.7-4.4-1.8-9.6-4.2-15c-1.2-2.7-2.7-5.5-4.9-8.2c-2.1-2.7-4.9-5.3-8.5-7.2c-3.5-2-7.7-3.2-12.1-3.8
			c-1.8-0.3-3.6-0.4-5.4-0.5c-3.8,1.3-7.6,2.4-11.5,3.4C288.7,317.1,289.9,317,291.1,316.9z"/>
		<linearGradient id="SVGID_8_" gradientUnits="userSpaceOnUse" x1="283.2732" y1="300.6385" x2="334.1808" y2="300.6385">
			<stop  offset="0" style="stop-color:#2C97DF"/>
			<stop  offset="1" style="stop-color:#1BBC9B"/>
		</linearGradient>
		<path fill="url(#SVGID_8_)" d="M348.2,284.4c0-0.1,0-0.2,0-0.3c-2.6,0.5-5.1,1-7.7,1.5c0.1,0.9,0.1,1.9,0,2.9
			c-0.2,1.4-0.2,1.6-0.6,2.2c-0.4,0.5-1.2,1.1-2.2,1.6c-1,0.5-2.2,0.9-3.5,1.3c-2.6,0.7-5.3,1.2-8.1,1.5c-5.6,0.7-11.3,1-17,1.4
			c-5.6,0.3-11.2,0.6-16.7,1.2c-2.7,0.3-5.5,0.6-8.2,1.2c-2.7,0.6-5.4,1.2-8.1,2.6c-1.3,0.7-2.6,1.7-3.6,3c-0.5,0.7-0.8,1.4-1,2.2
			c-0.1,0.4-0.1,0.8-0.1,1.1c0,0.4,0,0.8,0,1c0.1,1.3,0.4,2.6,1.2,3.9c0.7,1.3,2,2.5,3.4,3.1c1.4,0.7,2.8,1,4.2,1.2
			c1.3,0.2,2.6,0.2,3.9,0.2c1.2,0,2.4,0,3.6-0.1c3.9-1,7.8-2.2,11.5-3.4c-2.7-0.1-5.4-0.1-8.2,0c-2.3,0-4.6,0.1-6.9,0
			c-2.2-0.1-4.5-0.4-5.9-1.2c-0.7-0.4-1.2-0.9-1.5-1.6c-0.3-0.7-0.5-1.5-0.6-2.4c0-0.3,0-0.4,0-0.6c0-0.2,0-0.3,0.1-0.5
			c0.1-0.3,0.2-0.6,0.4-0.9c0.4-0.5,1.1-1.1,2-1.5c1.8-0.9,4.2-1.4,6.6-1.8c2.5-0.4,5-0.7,7.7-0.8c5.3-0.4,10.8-0.5,16.4-0.6
			c5.7-0.2,11.5-0.3,17.5-0.9c3-0.3,6.1-0.7,9.3-1.4c1.6-0.4,3.2-0.9,4.9-1.6c1.6-0.7,3.4-1.7,4.8-3.3c0.7-0.8,1.3-1.8,1.7-2.8
			l0.1-0.5l0.1-0.3l0.1-0.4l0.1-0.3c0.1-0.4,0.1-0.7,0.2-1.1C348.3,287.7,348.4,286.1,348.2,284.4z"/>
		<linearGradient id="SVGID_9_" gradientUnits="userSpaceOnUse" x1="223.9836" y1="263.715" x2="333.6378" y2="249.3638">
			<stop  offset="0" style="stop-color:#50D78A"/>
			<stop  offset="1" style="stop-color:#F1C50E"/>
		</linearGradient>
		<path fill="url(#SVGID_9_)" d="M370.2,242.3c-0.1-1.3-0.4-2.5-0.7-3.6l-0.3-0.9l-0.2-0.5l-0.1-0.3l-0.2-0.6c0-0.1-0.2-0.5-0.2-0.5
			l-0.2-0.4c-0.4-1-0.9-2-1.5-3c-0.8-1.3-1.7-2.6-2.7-3.9c-7,1.4-14,2.9-21,4.3c1.5,0.5,2.9,1.1,4.1,1.8c2.1,1.2,3.7,2.7,4.9,4.6
			c0.3,0.5,0.6,1,0.8,1.5l0.1,0.2c0.1,0.2,0-0.1,0,0.1l0.2,0.6c0,0.1,0.1,0.2,0.1,0.3l0,0.1l0.1,0.3c0.1,0.5,0.2,0.9,0.3,1.2
			c0,0.4,0,0.6,0,0.9c-0.1,0.5-0.2,0.7-0.5,1.2c-0.4,0.4-1,1-2,1.6c-2,1.2-5,2.2-8.1,3c-3.2,0.8-6.6,1.4-10.1,1.9
			c-7,1-14.3,1.5-21.7,2c-7.4,0.5-14.8,0.8-22.2,1.2c-7.4,0.4-14.9,0.9-22.4,1.6c-7.5,0.8-15.1,1.7-22.8,3.8
			c-3.8,1.1-7.8,2.5-11.6,4.9c-1.9,1.3-3.8,2.8-5.2,4.9c-1.4,2-2.4,4.5-2.6,6.8c0,0.1,0,0.1,0,0.2c4,0.6,8,1.1,12,1.3
			c0-0.2,0-0.3,0-0.5c0.1-0.8,0.4-1.4,0.9-2.1c0.5-0.6,1.2-1.3,2.2-1.9c2-1.2,4.9-2.3,8-3c6.2-1.5,13.3-2.3,20.4-2.8
			c7.1-0.5,14.4-0.8,21.8-1c7.4-0.2,14.8-0.4,22.4-0.7c7.6-0.3,15.2-0.7,23-1.6c3.9-0.5,7.9-1,12-1.9c4.1-0.9,8.3-2.1,12.7-4.4
			c2.2-1.2,4.4-2.7,6.4-4.9c1.9-2.2,3.4-5,3.8-7.8C370.3,244.9,370.3,243.6,370.2,242.3z"/>
	</g>
	<g id="Layer_2_1_">
		<g opacity="0.6">
			<path fill="#3D3D3D" d="M285.3,318.1c2.1,1.4,2.1,5,0.1,8.1L263,360.1c-2.1,3.1-5.4,4.5-7.5,3.1l-2-1.3c-2.1-1.4-2.1-5-0.1-8.1
				l22.4-33.9c2.1-3.1,5.4-4.5,7.5-3.1L285.3,318.1z"/>
			<path fill="#3D3D3D" d="M149.9,248.3l-10.1-5.6l0,0c0,0-0.1,0-0.1-0.1c-4.5-3-10.5-1.7-13.5,2.7c-3,4.5-1.7,10.5,2.7,13.5
				c0,0,0.1,0,0.1,0.1l0,0l12.5,9.7C143.1,261.2,145.7,254.2,149.9,248.3z"/>
			<path fill="#3D3D3D" d="M242.3,300.1c-3,1.4-6,2.8-9,4C236.3,302.9,239.4,301.5,242.3,300.1l-42-23.5c-4.1,0.2-8.3-0.1-12.5-0.9
				c4.2,0.8,8.3,1.1,12.5,0.9l-50.4-28.2c-4.2,5.9-6.8,12.8-8.3,20.2l111.2,85.9l11.6-17.5l0.2-0.3l11.6-17.5L242.3,300.1z"/>
			<path fill="#3D3D3D" d="M299.8,331.5c5.7,3.8,7.6,11.4,12.1,19.3c4.1,7.3,10.8,18,26.4,18.7c0,0-19.7,10.5-37.5,10.1
				c-9.7-0.2-21.9-4.4-27.5-8.1c-11-7.3-6.6-17.2,0.7-28.3C281.4,332.3,288.7,324.2,299.8,331.5z"/>
		</g>
		<g>
			<path fill="#D1D0CF" d="M284.3,313.3c2.1,1.4,2.1,5,0.1,8.1l-22.4,33.9c-2.1,3.1-5.4,4.5-7.5,3.1l-2-1.3c-2.1-1.4-2.1-5-0.1-8.1
				l22.4-33.9c2.1-3.1,5.4-4.5,7.5-3.1L284.3,313.3z"/>
			<path fill="#B59576" d="M246.9,298.5c-5.4,3.2-11.1,5.9-16.9,8.2C235.8,304.4,241.5,301.7,246.9,298.5l-37.1-20.8
				c-8.3,1.5-16.8,2.3-25.2,0.7c8.5,1.7,16.9,0.9,25.2-0.7L138.8,238l0,0c0,0-0.1,0-0.1-0.1c-4.5-3-10.5-1.7-13.5,2.7
				c-3,4.5-1.7,10.5,2.7,13.5c0,0,0.1,0,0.1,0.1l0,0l12.2,9.4c2.3-7,5.9-13.3,11.4-18.3c-5.4,5-9.1,11.4-11.4,18.3l111.5,86.2
				l11.6-17.5l0.2-0.3l11.6-17.5L246.9,298.5z"/>
			<path fill="#302F2F" d="M298.7,326.8c5.7,3.8,7.6,11.4,12.1,19.3c4.1,7.3,10.8,18,26.4,18.7c0,0-19.7,10.5-37.5,10.1
				c-9.7-0.2-21.9-4.4-27.5-8.1c-11-7.3-6.6-17.2,0.7-28.3C280.3,327.5,287.7,319.5,298.7,326.8z"/>
		</g>
	</g>
</g>
</svg>
