<?xml version="1.0" encoding="utf-8"?>
<!-- Generator: Adobe Illustrator 22.0.1, SVG Export Plug-In . SVG Version: 6.00 Build 0)  -->
<svg version="1.1"
	 id="svg2" xmlns:cc="http://creativecommons.org/ns#" xmlns:dc="http://purl.org/dc/elements/1.1/" xmlns:rdf="http://www.w3.org/1999/02/22-rdf-syntax-ns#" xmlns:svg="http://www.w3.org/2000/svg"
	 xmlns="http://www.w3.org/2000/svg" xmlns:xlink="http://www.w3.org/1999/xlink" x="0px" y="0px" viewBox="0 0 640 640"
	 enable-background="new 0 0 640 640" xml:space="preserve">
<g>
	<path id="path208" fill="#EAEAEA" d="M541.599,541.599c-87.868,87.867-355.33,87.867-443.198,0s-87.868-355.33,0-443.198
		s355.33-87.868,443.198,0S629.467,453.731,541.599,541.599"/>
	<path fill="#044872" d="M245.048,207.986c-6.347,6.347-11.903,13.184-16.673,20.389c50.779-33.614,119.847-28.058,164.577,16.673
		s50.287,113.798,16.673,164.577c7.205-4.769,14.042-10.326,20.389-16.673c51.077-51.077,51.077-133.889,0-184.966
		S296.125,156.909,245.048,207.986z"/>
	<path fill="#0092FF" d="M245.048,392.952c-44.73-44.73-50.287-113.798-16.673-164.577c-7.205,4.769-14.042,10.326-20.389,16.673
		c-51.077,51.077-51.077,133.889,0,184.966s133.889,51.077,184.966,0c6.347-6.347,11.903-13.184,16.673-20.389
		C358.846,443.239,289.778,437.682,245.048,392.952z"/>
	<path fill="#054BD8" d="M156.365,156.365c-89.821,89.821-89.821,235.449,0,325.269s235.449,89.821,325.269,0
		s89.821-235.449,0-325.269S246.186,66.545,156.365,156.365z M430.014,392.952c-6.347,6.347-13.184,11.903-20.389,16.673
		c-4.769,7.205-10.326,14.042-16.673,20.389c-51.077,51.077-133.889,51.077-184.966,0s-51.077-133.889,0-184.966
		c6.347-6.347,13.184-11.903,20.389-16.673c4.769-7.205,10.326-14.042,16.673-20.389c51.077-51.077,133.889-51.077,184.966,0
		S481.091,341.875,430.014,392.952z"/>
</g>
</svg>
