<?xml version="1.0" encoding="utf-8"?>
<!-- Generator: Adobe Illustrator 18.0.0, SVG Export Plug-In . SVG Version: 6.00 Build 0)  -->
<!DOCTYPE svg PUBLIC "-//W3C//DTD SVG 1.1//EN" "http://www.w3.org/Graphics/SVG/1.1/DTD/svg11.dtd">
<svg version="1.1" id="Layer_3" xmlns="http://www.w3.org/2000/svg" xmlns:xlink="http://www.w3.org/1999/xlink" x="0px" y="0px"
	 viewBox="0 0 512 512" enable-background="new 0 0 512 512" xml:space="preserve">
<g>
	<g opacity="0.4" enable-background="new    ">
		
			<radialGradient id="SVGID_1_" cx="1.0125" cy="515" r="118.8609" gradientTransform="matrix(2 0 0 -2 254 1286)" gradientUnits="userSpaceOnUse">
			<stop  offset="0" style="stop-color:#010101"/>
			<stop  offset="0.8587" style="stop-color:#010101;stop-opacity:0.1413"/>
			<stop  offset="1" style="stop-color:#010101;stop-opacity:0"/>
		</radialGradient>
		<path fill="url(#SVGID_1_)" d="M449,449c-59.7,59.7-326.2,59.7-385.9,0S3.4,122.7,63,63s326.3-59.6,386,0S508.6,389.3,449,449z"/>
	</g>
	<g opacity="0.4" enable-background="new    ">
		
			<radialGradient id="SVGID_2_" cx="2.0286" cy="516.0684" r="133.1551" gradientTransform="matrix(1.4138 -1.4146 -0.979 -0.9784 758.388 763.7472)" gradientUnits="userSpaceOnUse">
			<stop  offset="0" style="stop-color:#010101"/>
			<stop  offset="0.8587" style="stop-color:#010101;stop-opacity:0.1413"/>
			<stop  offset="1" style="stop-color:#010101;stop-opacity:0"/>
		</radialGradient>
		<path fill="url(#SVGID_2_)" d="M449,449c-59.7,59.7-326.2,59.7-385.9,0S3.4,122.7,63,63s326.3-59.6,386,0S508.6,389.3,449,449z"/>
	</g>
	<g opacity="0.4" enable-background="new    ">
		
			<radialGradient id="SVGID_3_" cx="3.4424" cy="513.9732" r="133.1784" gradientTransform="matrix(-1.4138 -1.4146 0.979 -0.9784 -242.3879 763.7472)" gradientUnits="userSpaceOnUse">
			<stop  offset="0" style="stop-color:#010101"/>
			<stop  offset="0.8587" style="stop-color:#010101;stop-opacity:0.1413"/>
			<stop  offset="1" style="stop-color:#010101;stop-opacity:0"/>
		</radialGradient>
		<path fill="url(#SVGID_3_)" d="M63,449c59.7,59.7,326.2,59.7,385.9,0s59.7-326.2,0-385.9S122.7,3.4,63,63S3.4,389.3,63,449z"/>
	</g>
</g>
<path fill="#CECECE" d="M433.3,433.3c-70.3,70.3-284.3,70.3-354.6,0S8.4,149,78.7,78.7s284.3-70.3,354.6,0S503.6,363,433.3,433.3z"
	/>
<g opacity="0.4">
	<g>
		<path d="M249.9,257.5H134.5c-2.8,0-5-2.3-5-5V137.1c0-2.8,2.2-5,5-5h115.4c2.8,0,5,2.2,5,5v115.4
			C254.9,255.2,252.6,257.5,249.9,257.5z"/>
		<path d="M249.9,385.9H134.5c-2.8,0-5-2.2-5-5V265.5c0-2.8,2.2-5,5-5h115.4c2.8,0,5,2.2,5,5v115.4
			C254.9,383.6,252.6,385.9,249.9,385.9z"/>
	</g>
	<g>
		<path d="M377.5,257.5H262.1c-2.8,0-5-2.3-5-5V137.1c0-2.8,2.2-5,5-5h115.4c2.8,0,5,2.2,5,5v115.4
			C382.5,255.2,380.2,257.5,377.5,257.5z"/>
		<path d="M377.5,385.9H262.1c-2.8,0-5-2.2-5-5V265.5c0-2.8,2.2-5,5-5h115.4c2.8,0,5,2.2,5,5v115.4
			C382.5,383.6,380.2,385.9,377.5,385.9z"/>
	</g>
</g>
<g>
	<g>
		<linearGradient id="SVGID_4_" gradientUnits="userSpaceOnUse" x1="253.3847" y1="253.0025" x2="130.9688" y2="130.5866">
			<stop  offset="0" style="stop-color:#CCCCCC"/>
			<stop  offset="0.1798" style="stop-color:#DEDEDE"/>
			<stop  offset="0.4383" style="stop-color:#F0F0F0"/>
			<stop  offset="0.7071" style="stop-color:#FBFBFB"/>
			<stop  offset="1" style="stop-color:#FFFFFF"/>
		</linearGradient>
		<path fill="url(#SVGID_4_)" d="M249.9,254.5H134.5c-2.8,0-5-2.2-5-5V134.1c0-2.8,2.2-5,5-5h115.4c2.8,0,5,2.2,5,5v115.4
			C254.9,252.2,252.6,254.5,249.9,254.5z"/>
		<linearGradient id="SVGID_5_" gradientUnits="userSpaceOnUse" x1="253.3847" y1="381.4134" x2="130.9688" y2="258.9974">
			<stop  offset="0" style="stop-color:#CCCCCC"/>
			<stop  offset="0.1798" style="stop-color:#DEDEDE"/>
			<stop  offset="0.4383" style="stop-color:#F0F0F0"/>
			<stop  offset="0.7071" style="stop-color:#FBFBFB"/>
			<stop  offset="1" style="stop-color:#FFFFFF"/>
		</linearGradient>
		<path fill="url(#SVGID_5_)" d="M249.9,382.9H134.5c-2.8,0-5-2.2-5-5V262.5c0-2.8,2.2-5,5-5h115.4c2.8,0,5,2.2,5,5v115.4
			C254.9,380.6,252.6,382.9,249.9,382.9z"/>
	</g>
	<g>
		<linearGradient id="SVGID_6_" gradientUnits="userSpaceOnUse" x1="381.0312" y1="253.0025" x2="258.6153" y2="130.5866">
			<stop  offset="0" style="stop-color:#CCCCCC"/>
			<stop  offset="0.1798" style="stop-color:#DEDEDE"/>
			<stop  offset="0.4383" style="stop-color:#F0F0F0"/>
			<stop  offset="0.7071" style="stop-color:#FBFBFB"/>
			<stop  offset="1" style="stop-color:#FFFFFF"/>
		</linearGradient>
		<path fill="url(#SVGID_6_)" d="M377.5,254.5H262.1c-2.8,0-5-2.2-5-5V134.1c0-2.8,2.2-5,5-5h115.4c2.8,0,5,2.2,5,5v115.4
			C382.5,252.2,380.2,254.5,377.5,254.5z"/>
		<linearGradient id="SVGID_7_" gradientUnits="userSpaceOnUse" x1="381.0312" y1="381.4134" x2="258.6153" y2="258.9974">
			<stop  offset="0" style="stop-color:#CCCCCC"/>
			<stop  offset="0.1798" style="stop-color:#DEDEDE"/>
			<stop  offset="0.4383" style="stop-color:#F0F0F0"/>
			<stop  offset="0.7071" style="stop-color:#FBFBFB"/>
			<stop  offset="1" style="stop-color:#FFFFFF"/>
		</linearGradient>
		<path fill="url(#SVGID_7_)" d="M377.5,382.9H262.1c-2.8,0-5-2.2-5-5V262.5c0-2.8,2.2-5,5-5h115.4c2.8,0,5,2.2,5,5v115.4
			C382.5,380.6,380.2,382.9,377.5,382.9z"/>
	</g>
</g>
<g>
	<path fill="#D6220B" d="M247.5,230.1c1.9,4.8,4,9.6,6.2,14.3c0.4,0.7,0.7,1.5,1.1,2.2v-17.5c-0.4-0.9-0.7-1.7-1.1-2.6
		c-0.6-1.7-1.2-3.4-1.8-5.1c-0.6-1.7-1.1-3.4-1.6-5.1c0.4-2.1,0.9-4.3,1.4-6.4c0.4-2.2,0.9-4.3,1.2-6.5c0.4-2.2,0.7-4.3,1-6.5
		c0.3-2.2,0.6-4.4,0.8-6.6c0-0.3,0.1-0.7,0.1-1v-25.2c-2.6,11.4-5.4,22.8-8.4,34.2c-1.6-8.9-2.5-18-3.2-27l-0.5-7.3
		c-0.1-1.2-0.1-2.4-0.1-3.6c0-1.2,0.1-2.4,0.2-3.6c0.1-1.2,0.3-2.4,0.7-3.4c0.4-1.1,1-2.1,1.8-2.6c0.9-0.5,2-0.4,3,0
		c1,0.5,1.9,1.2,2.4,2.1c0,0.1,0.1,0.1,0.1,0.2l0,0c0.2,0.2,0.4,0.4,0.6,0.7c0.2,0.3,0.3,0.5,0.5,0.8c0.3,0.6,0.6,1.2,0.8,1.8
		c0.4,1.3,0.8,2.6,1,3.9l0,0c0.1,0.3,0.3,0.5,0.7,0.5c0.1,0,0.2-0.1,0.3-0.1v-2.3c-0.2-1.3-0.5-2.7-0.8-4c-0.5-1.9-1.2-3.7-2.3-5.4
		c-0.5-0.8-1.3-1.7-2-2.3c-0.8-0.7-1.6-1.3-2.6-1.7c-1-0.4-2.2-0.5-3.2-0.1c-1.1,0.4-1.9,1.1-2.6,1.8c-0.7,0.7-1.3,1.5-1.9,2.4
		c-0.3,0.4-0.5,0.8-0.8,1.3c-0.2,0.4-0.4,0.8-0.6,1.3c-0.8,1.9-1.3,3.7-1.7,5.6c-0.4,1.9-0.7,3.8-0.9,5.7c-0.2,1.9-0.4,3.8-0.5,5.8
		c-0.1,1.9-0.1,3.9-0.1,5.8c0,1,0,1.9,0.1,2.9c0,1,0.1,1.9,0.1,2.9c0.1,1.9,0.3,3.8,0.5,5.8c0.2,1.9,0.5,3.8,0.8,5.7
		c0.7,3.8,1.6,7.5,2.5,11.3c1,3.6,2,7.2,3.1,10.8l-4.1,13.7l-2.1,7l-1.1,3.5c-0.3,1.1-0.8,2.3-1.2,3.4c-0.8,2.3-1.6,4.6-2.5,6.8
		c-0.8,2-1.6,4.1-2.4,6.1h11C242.5,246.5,245.2,238.3,247.5,230.1z"/>
	<path fill="#D6220B" d="M222.3,268.4c-4.2,8.7-8.7,17.3-13.5,25.7c-2.4,4.2-4.9,8.4-7.4,12.5c-2.5,4.1-5.1,8.3-7.7,12.4
		c-2.6,4.1-5.2,8.2-7.9,12.3c-1.3,2-2.6,4.1-4,6c-1.4,1.9-3,3.7-4.6,5.5c-3.3,3.5-6.8,6.8-10.5,9.8c-1.9,1.5-3.8,3-5.8,4.3
		c-1,0.7-2,1.3-3,1.8c-0.5,0.3-1,0.5-1.5,0.7c-0.5,0.2-0.9,0.3-1.2,0.3l0,0c0-0.1-0.1-0.1-0.1-0.2l0-0.1c0-0.1,0-0.1,0-0.2l0-0.3
		c0-0.2,0.1-0.5,0.2-0.7c0.3-1,0.8-2,1.4-3.1c1.2-2,2.6-4,3.9-6l4.1-6c0.7-1,1.4-2.1,2-3c0.4-0.5,0.7-1,1.1-1.5l1.1-1.3
		c3.1-3.6,6.7-6.7,10.5-9.7c3.8-2.9,7.8-5.7,11.8-8.3l0.1,0c0.3-0.2,0.6-0.6,0.6-1c0-0.6-0.5-1.2-1.2-1.2c-0.5,0-0.8,0.1-1.2,0.1
		c-0.3,0.1-0.7,0.1-1,0.2c-0.7,0.2-1.3,0.4-1.9,0.6c-1.2,0.5-2.4,1-3.6,1.6c-2.3,1.2-4.5,2.5-6.7,3.9c-4.3,2.8-8.3,6-12.2,9.3
		l-1.5,1.2l-0.4,0.3l-0.4,0.3l-0.7,0.6c-0.9,0.9-1.9,1.7-2.8,2.6l-2.7,2.8c-0.8,1-1.7,2-2.5,3l-1.1,1.6c-0.4,0.5-0.8,1.1-1.1,1.6
		l-1,1.7l-0.8,1.8c-1,2.5-1.6,5.3-1,8.1c0.7,2.8,2.6,5.2,5,6.6c1.1,0.6,2.3,1.3,3.7,1.7c1.4,0.4,2.8,0.5,4.2,0.3
		c2.8-0.3,5.2-1.5,7.5-2.8c2.2-1.4,4.3-3,6.2-4.7c3.8-3.4,7.3-7.2,10.5-11.1c3.2-3.9,6.3-8,9.3-12.1c2.9-4.1,5.8-8.3,8.5-12.6
		c2.8-4.3,5.4-8.6,8.1-12.9c1.3-2.2,2.6-4.3,3.9-6.5c1.3-2.2,2.6-4.4,3.8-6.6c2.5-4.4,4.9-8.9,7.2-13.4c4.4-8.8,8.5-17.7,12-26.9
		h-11.1c-0.6,1.4-1.2,2.8-1.9,4.2C224.3,264,223.4,266.2,222.3,268.4z"/>
	<path fill="#D6220B" d="M251.4,291l-4.7,1.3l-4.6,1.5l-4.6,1.7c-1.5,0.6-3,1.2-4.5,1.8c-1.5,0.6-3,1.3-4.4,2
		c-1.5,0.7-2.9,1.5-4.3,2.2c-1.4,0.8-2.8,1.6-4.2,2.5c-1.4,0.9-2.7,1.8-4,2.8c-0.1,0.1-0.2,0.3-0.1,0.5c0.1,0.2,0.3,0.3,0.5,0.3l0,0
		c6.6-2.1,13.4-4,20.1-5.8c3.4-0.9,6.8-1.8,10.2-2.6c1.7-0.4,3.4-0.8,5.1-1.2c1-0.2,2-0.5,3-0.7v-7.1L251.4,291z"/>
	<path fill="#D6220B" d="M266.4,250.5c-1.1-1.5-2.1-3-3-4.5c-1.9-3.1-3.7-6.2-5.3-9.5c-0.3-0.7-0.7-1.4-1-2.1v15c0,2.8,2.2,5,5,5
		h7.2c-0.5-0.6-0.9-1.2-1.4-1.8C267.5,252,266.9,251.3,266.4,250.5z"/>
	<path fill="#D6220B" d="M261.1,257.7c0.5,0.8,1.1,1.7,1.6,2.5c0.9,1.3,1.7,2.5,2.7,3.7c0.5,0.6,0.9,1.2,1.4,1.8
		c0.5,0.6,1,1.2,1.5,1.7c2,2.3,4.2,4.4,6.4,6.4c4.1,3.7,8.6,7,13.2,10l-17.5,3.3l-4.8,0.9c-1.6,0.3-3.2,0.6-4.8,0.9
		c-1.2,0.3-2.5,0.5-3.7,0.8v7.1c3.3-0.8,6.7-1.5,10-2.2c1.7-0.4,3.4-0.7,5.1-1c1.7-0.3,3.4-0.7,5.2-0.9l5.2-0.9l5.2-0.8
		c1.7-0.3,3.5-0.5,5.2-0.7l5.1-0.7c5.3,2.9,10.7,5.6,16.3,7.9c5.6,2.3,11.3,4.3,17.2,5.9c1.5,0.4,2.9,0.8,4.4,1.1
		c1.5,0.3,3,0.6,4.5,0.8c1.5,0.3,3,0.4,4.5,0.6c0.8,0.1,1.5,0.1,2.3,0.1c0.8,0,1.5,0.1,2.3,0c0.8,0,1.5,0,2.3-0.1l2.3-0.2
		c0.8-0.1,1.5-0.3,2.2-0.4c0.7-0.2,1.5-0.4,2.2-0.6c1.4-0.5,2.9-1.1,4.1-1.9c1.3-0.8,2.5-1.8,3.3-3.1c0,0,0,0,0,0v0v-0.1
		c0,0,0-0.1-0.1-0.1c-0.1,0-0.1,0-0.2,0l0,0c-0.3,0.4-0.8,0.7-1.3,0.9c-0.5,0.2-1.1,0.4-1.6,0.5c-1.1,0.2-2.3,0.4-3.4,0.4
		c-1.1,0.1-2.3,0.1-3.4,0c-1.1,0-2.3-0.1-3.4-0.2c-1.1-0.1-2.3-0.3-3.4-0.5c-1.1-0.2-2.2-0.5-3.4-0.7c-2.2-0.5-4.4-1.2-6.6-1.8
		c-4.4-1.3-8.7-2.9-13-4.5c-2.1-0.8-4.3-1.7-6.4-2.6c-2-0.9-4.1-1.8-6.1-2.8l6.1-0.4c2.1-0.1,4.2-0.2,6.3-0.3c2.1,0,4.2-0.1,6.3-0.1
		c2.1,0,4.2,0,6.3,0.1c1.1,0,2.1,0.1,3.2,0.1c1.1,0,2.1,0.1,3.2,0.2c1.1,0.1,2.1,0.2,3.2,0.3c1.1,0.1,2.1,0.2,3.1,0.4
		c1,0.1,2.1,0.3,3.1,0.5c1,0.2,2.1,0.5,3.1,0.7c1,0.3,2,0.6,3,1c1,0.4,1.9,0.9,2.8,1.5l0,0c0,0,0,0,0,0c0.5,0.4,0.9,0.8,1.4,1.3
		c0.4,0.5,0.8,1,1.1,1.5c0.6,1.1,1.1,2.3,1.2,3.5l0,0l0,0c0,0,0.1-0.1,0.1-0.1c0.1-0.1,0.4-0.4,0.7-0.8c0.1-0.1,0.1-0.2,0.2-0.3
		c0.2-0.2,0.3-0.5,0.5-0.8c0-0.1,0.1-0.1,0.1-0.2c0.2-0.4,0.4-0.8,0.6-1.2c0.1-0.1,0.1-0.3,0.1-0.4c0,0,0,0,0,0
		c0.1-0.3,0.2-0.6,0.3-0.8c0.1-0.4,0.2-0.9,0.2-1.3c0-0.2,0-0.4,0-0.6c0-0.2,0-0.4-0.1-0.6l-0.1-0.6l-0.2-0.6c0-0.1-0.1-0.1-0.1-0.2
		c0,0,0-0.1-0.1-0.1c-0.1-0.3-0.3-0.6-0.4-0.8l0,0c-0.7-1.3-1.5-2.5-2.6-3.4c-0.1-0.1-0.3-0.2-0.5-0.3c-0.1-0.1-0.2-0.1-0.2-0.2
		c-0.1-0.1-0.3-0.2-0.4-0.3c-0.1-0.1-0.2-0.2-0.4-0.2c-0.7-0.4-1.5-0.8-2.3-1.1c-0.7-0.3-1.4-0.4-2-0.7c-0.7-0.2-1.4-0.3-2.1-0.5
		c-1.4-0.3-2.8-0.5-4.2-0.7c-1.4-0.2-2.8-0.3-4.3-0.4c-1.4-0.1-2.8-0.2-4.3-0.2c-1.4-0.1-2.8-0.1-4.3-0.1c-1.4,0-2.8,0-4.3,0
		c-2.8,0-5.7,0.1-8.5,0.1l-8.5,0.3c-5.7,0.2-11.4,0.5-17,1c-6.3-3.6-12.3-7.6-18-12.2c-1.4-1.1-2.8-2.3-4.2-3.5
		c-1.4-1.2-2.7-2.4-4-3.7c-1.3-1.3-2.6-2.6-3.8-3.9c-0.4-0.5-0.9-1-1.3-1.5h-9.8C261.8,257.5,261.4,257.6,261.1,257.7z M367.2,298.4
		c0-0.3-0.1-0.5-0.1-0.8C367.2,298.1,367.2,298.3,367.2,298.4z M367.1,297.5c-0.1-0.2-0.1-0.4-0.2-0.7
		C366.9,297,367,297.2,367.1,297.5z M366.8,296.6c-0.1-0.2-0.2-0.5-0.3-0.7C366.6,296.1,366.7,296.3,366.8,296.6z M366.4,295.7
		c-0.1-0.2-0.2-0.4-0.3-0.6C366.2,295.3,366.3,295.5,366.4,295.7z M365.9,294.8c-0.1-0.2-0.2-0.4-0.4-0.5
		C365.7,294.5,365.8,294.6,365.9,294.8z M365.4,294.1c-0.2-0.2-0.3-0.4-0.5-0.6C365.1,293.7,365.3,293.9,365.4,294.1z M364.8,293.4
		c-0.4-0.5-0.9-0.9-1.3-1.3C364,292.6,364.5,293,364.8,293.4z M359.1,290c0.1,0,0.2,0.1,0.2,0.1c0.5,0.2,0.9,0.3,1.3,0.5
		c0,0,0,0,0.1,0c0.1,0,0.1,0,0.2,0.1c1.2,0.5,2,1,2.6,1.5c-0.8-0.6-1.7-1.1-2.6-1.5c-0.1,0-0.1-0.1-0.2-0.1
		c-0.4-0.2-0.9-0.3-1.3-0.5C359.3,290.1,359.2,290.1,359.1,290c-0.5-0.2-0.9-0.3-1.4-0.4C358.3,289.8,358.7,289.9,359.1,290z
		 M357.7,289.6c-0.5-0.1-1-0.3-1.5-0.4C356.7,289.3,357.2,289.5,357.7,289.6z M356.1,289.2c-0.4-0.1-0.8-0.2-1.2-0.3
		C355.3,289,355.7,289.1,356.1,289.2z M354.4,288.8c-0.2,0-0.4-0.1-0.6-0.1C353.9,288.7,354.2,288.8,354.4,288.8z M351.5,288.3
		c-0.9-0.1-1.9-0.3-2.9-0.4C349.6,288.1,350.5,288.2,351.5,288.3z M347.8,287.9c-0.6-0.1-1.1-0.1-1.7-0.2
		C346.6,287.7,347.2,287.8,347.8,287.9z M343.7,287.5c-0.1,0-0.2,0-0.3,0C343.5,287.5,343.6,287.5,343.7,287.5z"/>
</g>
</svg>
