<?xml version="1.0" encoding="utf-8"?>
<!-- Generator: Adobe Illustrator 18.0.0, SVG Export Plug-In . SVG Version: 6.00 Build 0)  -->
<!DOCTYPE svg PUBLIC "-//W3C//DTD SVG 1.1//EN" "http://www.w3.org/Graphics/SVG/1.1/DTD/svg11.dtd">
<svg version="1.1" id="Layer_2" xmlns="http://www.w3.org/2000/svg" xmlns:xlink="http://www.w3.org/1999/xlink" x="0px" y="0px"
	 viewBox="0 0 512 512" enable-background="new 0 0 512 512" xml:space="preserve">
<g>
	<g opacity="0.4" enable-background="new    ">
		
			<radialGradient id="SVGID_1_" cx="0.7625" cy="514.25" r="118.8609" gradientTransform="matrix(2 0 0 -2 254.5 1284.5)" gradientUnits="userSpaceOnUse">
			<stop  offset="0" style="stop-color:#010101"/>
			<stop  offset="0.8587" style="stop-color:#010101;stop-opacity:0.1413"/>
			<stop  offset="1" style="stop-color:#010101;stop-opacity:0"/>
		</radialGradient>
		<path fill="url(#SVGID_1_)" d="M448.99,448.971c-59.697,59.697-326.183,59.697-385.88,0s-59.697-326.283-0.1-385.98
			s326.283-59.597,385.98,0S508.587,389.274,448.99,448.971z"/>
	</g>
	<g opacity="0.4" enable-background="new    ">
		
			<radialGradient id="SVGID_2_" cx="1.5285" cy="515.0576" r="133.1551" gradientTransform="matrix(1.4138 -1.4146 -0.979 -0.9784 758.1053 762.0507)" gradientUnits="userSpaceOnUse">
			<stop  offset="0" style="stop-color:#010101"/>
			<stop  offset="0.8587" style="stop-color:#010101;stop-opacity:0.1413"/>
			<stop  offset="1" style="stop-color:#010101;stop-opacity:0"/>
		</radialGradient>
		<path fill="url(#SVGID_2_)" d="M448.99,448.971c-59.697,59.697-326.183,59.697-385.88,0s-59.697-326.283-0.1-385.98
			s326.283-59.597,385.98,0S508.587,389.274,448.99,448.971z"/>
	</g>
	<g opacity="0.4" enable-background="new    ">
		
			<radialGradient id="SVGID_3_" cx="2.5888" cy="513.4733" r="133.1784" gradientTransform="matrix(-1.4138 -1.4146 0.979 -0.9784 -243.1053 762.0507)" gradientUnits="userSpaceOnUse">
			<stop  offset="0" style="stop-color:#010101"/>
			<stop  offset="0.8587" style="stop-color:#010101;stop-opacity:0.1413"/>
			<stop  offset="1" style="stop-color:#010101;stop-opacity:0"/>
		</radialGradient>
		<path fill="url(#SVGID_3_)" d="M63.01,448.971c59.697,59.697,326.183,59.697,385.88,0s59.697-326.183,0-385.88
			s-326.183-59.697-385.88-0.1S3.413,389.274,63.01,448.971z"/>
	</g>
</g>
<path fill="#4A5668" d="M433.279,433.279c-70.294,70.294-284.264,70.294-354.558,0s-70.294-284.264,0-354.558
	s284.264-70.294,354.558,0S503.574,362.985,433.279,433.279z"/>
<path fill="#FFFFFF" d="M338.951,203.26c0-23.517-19.682-43.057-45.319-46.578c-2.071-0.284-3.523-1.951-3.341-3.787l3.88-39.178
	c0.204-2.064-1.646-3.838-4.001-3.838h-68.339c-2.356,0-4.206,1.775-4.001,3.839l3.887,39.176c0.182,1.836-1.27,3.503-3.341,3.787
	c-25.641,3.518-45.327,23.06-45.327,46.579c0,10.757,4.125,20.678,11.048,28.62c0.984,1.128,1.112,2.666,0.298,3.894
	c-7.142,10.766-11.238,23.286-11.238,36.65c0,31.537,22.776,71.148,54.658,86.799c1.735,0.852,2.522,2.673,1.834,4.313l-9.8,23.342
	c-0.582,1.387-2.086,2.309-3.768,2.309l0,0c-1.191,0-2.318,0.472-3.091,1.269c-5.287,5.452-0.987,11.667,4.965,11.667h28.491h19.166
	h30.31c1.191,0,2.318-0.472,3.091-1.269c5.287-5.452,0.987-11.667-4.965-11.667h-0.922l-10.761-25.68
	c-0.686-1.638,0.099-3.457,1.832-4.309c31.867-15.669,54.648-55.253,54.648-86.773c0-13.363-4.096-25.883-11.238-36.65
	c-0.815-1.228-0.686-2.765,0.298-3.894C334.826,223.937,338.951,214.016,338.951,203.26z M180.791,203.26
	c0-19.753,16.228-36.226,37.574-39.673c2.328-0.376,4.521,1.1,4.727,3.174l3.458,34.857c0.151,1.523-0.827,2.963-2.431,3.552
	c-11.755,4.314-22.137,10.94-30.412,19.233c-1.794,1.798-5.064,1.517-6.459-0.537C183.152,217.831,180.791,210.785,180.791,203.26z
	 M285.466,201.624l3.452-34.861c0.205-2.074,2.399-3.551,4.728-3.174c21.341,3.452,37.563,19.923,37.563,39.672
	c0,7.525-2.361,14.571-6.459,20.605c-1.395,2.054-4.665,2.335-6.459,0.537c-8.271-8.29-18.647-14.914-30.396-19.227
	C286.292,204.586,285.315,203.146,285.466,201.624z"/>
<g>
	<path fill="#4A5668" d="M226.814,310.366c0-27.44-22.325-49.766-49.766-49.766c-0.945,0-1.882,0.032-2.814,0.084
		c-0.124,0.675-0.243,1.351-0.346,2.032c1.046-0.069,2.098-0.116,3.161-0.116c26.338,0,47.766,21.428,47.766,47.766
		c0,14.222-6.255,27.004-16.15,35.762c0.502,0.449,1.012,0.888,1.522,1.326C220.382,338.334,226.814,325.089,226.814,310.366z"/>
	<path fill="#4A5668" d="M222.314,310.366c0-24.96-20.306-45.266-45.265-45.266c-1.176,0-2.338,0.059-3.492,0.148
		c-0.075,0.671-0.14,1.344-0.194,2.02c1.216-0.103,2.443-0.168,3.685-0.168c23.856,0,43.265,19.409,43.265,43.266
		c0,13.033-5.801,24.73-14.947,32.668c0.479,0.469,0.964,0.929,1.451,1.387C216.305,336.118,222.314,323.934,222.314,310.366z"/>
	<path fill="#4A5668" d="M217.814,310.366c0-22.479-18.287-40.766-40.765-40.766c-1.294,0-2.573,0.068-3.837,0.186
		c-0.027,0.667-0.037,1.337-0.044,2.009c1.277-0.128,2.571-0.195,3.881-0.195c21.375,0,38.765,17.391,38.765,38.766
		c0,11.771-5.281,22.326-13.59,29.441c0.456,0.487,0.909,0.977,1.373,1.455C212.292,333.78,217.814,322.709,217.814,310.366z"/>
	<path fill="#4A5668" d="M213.313,310.366c0-19.997-16.268-36.266-36.265-36.266c-1.301,0-2.585,0.072-3.851,0.206
		c0.019,0.666,0.045,1.333,0.084,2.005c1.238-0.136,2.494-0.211,3.767-0.211c18.894,0,34.265,15.371,34.265,34.266
		c0,10.444-4.702,19.805-12.094,26.095c0.434,0.506,0.873,1.007,1.316,1.504C208.346,331.308,213.313,321.409,213.313,310.366z"/>
	<path fill="#4A5668" d="M208.813,310.366c0-17.516-14.25-31.766-31.765-31.766c-1.214,0-2.41,0.075-3.588,0.208
		c0.06,0.66,0.134,1.324,0.212,1.989c1.109-0.126,2.234-0.197,3.376-0.197c16.412,0,29.765,13.353,29.765,29.766
		c0,9.05-4.065,17.164-10.46,22.628c0.414,0.523,0.839,1.036,1.262,1.551C204.46,328.714,208.813,320.041,208.813,310.366z"/>
	<path fill="#4A5668" d="M204.313,310.366c0-15.034-12.23-27.265-27.264-27.265c-1.028,0-2.042,0.062-3.041,0.174
		c0.098,0.657,0.2,1.315,0.316,1.975c0.896-0.096,1.804-0.149,2.725-0.149c13.931,0,25.264,11.334,25.264,25.265
		c0,7.586-3.365,14.397-8.676,19.032c0.393,0.54,0.788,1.079,1.191,1.613C200.63,326.007,204.313,318.611,204.313,310.366z"/>
	<path fill="#4A5668" d="M199.813,310.366c0-12.553-10.212-22.765-22.764-22.765c-0.765,0-1.522,0.039-2.268,0.113
		c0.134,0.658,0.29,1.319,0.44,1.979c0.603-0.053,1.211-0.093,1.828-0.093c11.449,0,20.764,9.315,20.764,20.765
		c0,6.06-2.625,11.504-6.779,15.303c0.378,0.565,0.754,1.13,1.142,1.688C196.857,323.185,199.813,317.116,199.813,310.366z"/>
	<path fill="#4A5668" d="M234.969,270.055c0-36.385,21.216-67.906,51.925-82.849l0.23-2.323
		c-31.969,15.045-54.155,47.564-54.155,85.172c0,38.535,23.292,71.727,56.534,86.252c0.699-0.415,1.389-0.846,2.078-1.283
		C258.364,341.108,234.969,308.264,234.969,270.055z"/>
	<path fill="#4A5668" d="M319.408,176.29c0.624,0.609,1.226,1.237,1.808,1.879c1.928-0.121,3.871-0.19,5.829-0.19
		c1.195,0,2.383,0.03,3.568,0.076c-0.503-0.695-1.021-1.38-1.563-2.05c-0.667-0.014-1.334-0.025-2.004-0.025
		C324.474,175.979,321.928,176.086,319.408,176.29z"/>
	<path fill="#4A5668" d="M239.263,270.055c0-33.742,19.139-63.093,47.128-77.781l0.235-2.373
		c-29.258,14.814-49.363,45.178-49.363,80.154c0,37.807,23.491,70.228,56.642,83.442c0.664-0.453,1.327-0.906,1.98-1.379
		C262.82,339.52,239.263,307.489,239.263,270.055z"/>
	<path fill="#4A5668" d="M327.045,182.273c2.16,0,4.3,0.082,6.421,0.236c-0.395-0.705-0.813-1.398-1.246-2.083
		c-1.713-0.098-3.438-0.153-5.175-0.153c-1.33,0-2.653,0.035-3.969,0.092c0.5,0.635,0.978,1.285,1.437,1.947
		C325.354,182.288,326.198,182.273,327.045,182.273z"/>
	<path fill="#4A5668" d="M243.558,270.055c0-31.071,17.073-58.212,42.319-72.587l0.242-2.446
		c-26.529,14.528-44.561,42.712-44.561,75.033c0,36.971,23.595,68.528,56.515,80.424c0.626-0.483,1.241-0.982,1.856-1.482
		C267.169,337.711,243.558,306.599,243.558,270.055z"/>
	<path fill="#4A5668" d="M335.659,187.011c-0.294-0.701-0.604-1.396-0.934-2.081c-2.532-0.227-5.09-0.362-7.68-0.362
		c-0.353,0-0.701,0.022-1.054,0.027c0.386,0.647,0.747,1.307,1.093,1.974C329.979,186.57,332.839,186.72,335.659,187.011z"/>
	<path fill="#4A5668" d="M247.853,270.055c0-28.456,15.093-53.446,37.688-67.409c-0.078-0.331-0.109-0.674-0.075-1.022l0.134-1.349
		c-23.778,14.177-39.747,40.144-39.747,69.78c0,36.027,23.594,66.632,56.136,77.218c0.586-0.506,1.174-1.009,1.75-1.53
		C271.411,335.768,247.853,305.613,247.853,270.055z"/>
	<path fill="#4A5668" d="M337.262,191.544c-0.206-0.707-0.431-1.407-0.673-2.101c-2.759-0.325-5.558-0.511-8.394-0.551
		c0.29,0.666,0.565,1.338,0.816,2.021C331.799,190.981,334.551,191.193,337.262,191.544z"/>
	<path fill="#4A5668" d="M252.147,270.055c0-27.401,14.798-51.399,36.814-64.456c-0.358-0.137-0.705-0.291-1.066-0.424
		c-0.411-0.151-0.779-0.359-1.1-0.609c-21.97,13.552-36.648,37.835-36.648,65.49c0,34.993,23.503,64.581,55.545,73.859
		c0.554-0.529,1.098-1.069,1.641-1.612C275.571,333.626,252.147,304.532,252.147,270.055z"/>
	<path fill="#4A5668" d="M338.305,196.005c-0.123-0.695-0.262-1.385-0.419-2.069c-2.667-0.378-5.378-0.614-8.124-0.71
		c0.194,0.665,0.369,1.336,0.525,2.013C332.998,195.355,335.675,195.606,338.305,196.005z"/>
	<path fill="#4A5668" d="M256.442,270.055c0-26.987,15.227-50.476,37.534-62.355c-0.761-0.346-1.519-0.695-2.294-1.021
		c-22.196,12.435-37.24,36.176-37.24,63.376c0,33.867,23.311,62.387,54.728,70.371c0.53-0.557,1.058-1.118,1.576-1.688
		C279.651,331.359,256.442,303.375,256.442,270.055z"/>
	<path fill="#4A5668" d="M338.846,200.457c-0.046-0.692-0.109-1.381-0.189-2.065c-2.596-0.419-5.234-0.711-7.913-0.846
		c0.109,0.67,0.203,1.344,0.273,2.025C333.67,199.718,336.279,200.023,338.846,200.457z"/>
	<path fill="#4A5668" d="M331.184,203.888c2.621,0.162,5.199,0.483,7.729,0.943c0.02-0.522,0.038-1.045,0.038-1.571
		c0-0.153-0.01-0.303-0.012-0.455c-2.544-0.449-5.134-0.764-7.766-0.922c0.018,0.458,0.035,0.916,0.035,1.377
		C331.209,203.471,331.188,203.678,331.184,203.888z"/>
	<path fill="#4A5668" d="M260.736,270.055c0-26.466,15.591-49.351,38.067-59.977c-0.728-0.387-1.448-0.785-2.19-1.153
		c-22.43,11.212-37.877,34.395-37.877,61.13c0,32.664,23.051,60.032,53.737,66.728c0.494-0.57,0.983-1.145,1.466-1.726
		C283.633,328.956,260.736,302.131,260.736,270.055z"/>
	<path fill="#4A5668" d="M338.536,209.126c0.094-0.659,0.171-1.322,0.233-1.99c-2.514-0.467-5.077-0.791-7.684-0.954
		c-0.055,0.668-0.142,1.328-0.234,1.987C333.46,208.328,336.023,208.653,338.536,209.126z"/>
	<path fill="#4A5668" d="M265.031,270.055c0-25.837,15.888-48.025,38.403-57.332c-0.699-0.43-1.404-0.853-2.119-1.265
		c-22.518,9.927-38.285,32.449-38.285,58.597c0,31.389,22.717,57.555,52.569,62.969c0.466-0.589,0.919-1.187,1.374-1.785
		C287.554,326.411,265.031,300.819,265.031,270.055z"/>
	<path fill="#4A5668" d="M337.71,213.34c0.161-0.646,0.307-1.297,0.438-1.953c-2.514-0.475-5.08-0.799-7.694-0.947
		c-0.136,0.663-0.289,1.32-0.462,1.971C332.616,212.543,335.189,212.866,337.71,213.34z"/>
	<path fill="#4A5668" d="M269.326,270.055c0-25.102,16.112-46.501,38.534-54.428c-0.669-0.473-1.361-0.922-2.047-1.377
		c-22.475,8.58-38.487,30.353-38.487,55.805c0,30.034,22.289,54.949,51.191,59.101c0.444-0.613,0.889-1.226,1.321-1.847
		C291.403,323.748,269.326,299.44,269.326,270.055z"/>
	<path fill="#4A5668" d="M336.446,217.476c0.229-0.633,0.443-1.272,0.641-1.917c-2.537-0.467-5.132-0.764-7.776-0.871
		c-0.225,0.666-0.452,1.331-0.714,1.982C331.267,216.746,333.887,217.019,336.446,217.476z"/>
	<path fill="#4A5668" d="M273.621,270.055c0-24.249,16.245-44.763,38.419-51.264c-0.635-0.513-1.292-1.003-1.945-1.499
		c-22.294,7.179-38.474,28.113-38.474,52.763c0,28.614,21.797,52.231,49.658,55.124c0.418-0.631,0.824-1.268,1.229-1.906
		C295.167,320.961,273.621,297.984,273.621,270.055z"/>
	<path fill="#4A5668" d="M327.045,220.925c2.619,0,5.189,0.211,7.698,0.608c0.298-0.62,0.581-1.246,0.849-1.879
		c-2.608-0.441-5.281-0.686-8.006-0.714c-0.327,0.678-0.684,1.341-1.051,1.999C326.706,220.936,326.874,220.925,327.045,220.925z"/>
	<path fill="#4A5668" d="M277.915,270.055c0-23.28,16.281-42.816,38.051-47.855c-0.596-0.55-1.201-1.091-1.817-1.625
		c-21.97,5.73-38.234,25.74-38.234,49.48c0,27.127,21.237,49.376,47.956,51.022c0.389-0.645,0.775-1.292,1.151-1.943
		C298.868,318.068,277.915,296.466,277.915,270.055z"/>
	<path fill="#4A5668" d="M322.094,225.499c1.627-0.18,3.277-0.28,4.951-0.28c1.865,0,3.699,0.128,5.505,0.35
		c0.379-0.617,0.739-1.244,1.087-1.877c-2.155-0.305-4.354-0.473-6.592-0.473c-0.644,0-1.282,0.023-1.919,0.049
		c-0.129,0.197-0.243,0.402-0.376,0.596C324.135,224.771,323.151,225.309,322.094,225.499z"/>
	<path fill="#4A5668" d="M327.045,314.89c-24.722,0-44.835-20.113-44.835-44.835c0-22.843,17.176-41.737,39.288-44.48
		c-1.162,0.054-2.352-0.317-3.207-1.173c-0.1-0.101-0.209-0.194-0.31-0.294c-21.501,4.234-37.771,23.223-37.771,45.947
		c0,25.571,20.602,46.408,46.078,46.816c0.362-0.661,0.718-1.323,1.066-1.989C327.25,314.883,327.148,314.89,327.045,314.89z"/>
	<path fill="#4A5668" d="M327.045,310.596c-22.354,0-40.54-18.187-40.54-40.541c0-22.354,18.187-40.541,40.54-40.541
		c0.909,0,1.808,0.041,2.703,0.1c0.48-0.623,0.944-1.256,1.391-1.899c-1.348-0.129-2.712-0.201-4.093-0.201
		c-23.457,0-42.54,19.083-42.54,42.541s19.083,42.541,42.54,42.541c0.503,0,1.001-0.021,1.499-0.038
		c0.335-0.679,0.655-1.362,0.975-2.045C328.7,310.563,327.876,310.596,327.045,310.596z"/>
</g>
</svg>
