<?xml version="1.0" encoding="utf-8"?>
<!-- Generator: Adobe Illustrator 18.0.0, SVG Export Plug-In . SVG Version: 6.00 Build 0)  -->
<!DOCTYPE svg PUBLIC "-//W3C//DTD SVG 1.1//EN" "http://www.w3.org/Graphics/SVG/1.1/DTD/svg11.dtd">
<svg version="1.1" xmlns="http://www.w3.org/2000/svg" xmlns:xlink="http://www.w3.org/1999/xlink" x="0px" y="0px"
	 viewBox="0 0 512 512" enable-background="new 0 0 512 512" xml:space="preserve">
<g id="Layer_3">
	<g>
		<g opacity="0.4" enable-background="new    ">
			
				<radialGradient id="SVGID_1_" cx="1.0125" cy="515" r="118.8609" gradientTransform="matrix(2 0 0 -2 254 1286)" gradientUnits="userSpaceOnUse">
				<stop  offset="0" style="stop-color:#020202"/>
				<stop  offset="0.8587" style="stop-color:#020202;stop-opacity:0.1413"/>
				<stop  offset="1" style="stop-color:#020202;stop-opacity:0"/>
			</radialGradient>
			<path fill="url(#SVGID_1_)" d="M449,449c-59.7,59.7-326.2,59.7-385.9,0S3.4,122.7,63,63s326.3-59.6,386,0S508.6,389.3,449,449z"
				/>
		</g>
		<g opacity="0.4" enable-background="new    ">
			
				<radialGradient id="SVGID_2_" cx="2.0286" cy="516.0684" r="133.1551" gradientTransform="matrix(1.4138 -1.4146 -0.979 -0.9784 758.388 763.7472)" gradientUnits="userSpaceOnUse">
				<stop  offset="0" style="stop-color:#020202"/>
				<stop  offset="0.8587" style="stop-color:#020202;stop-opacity:0.1413"/>
				<stop  offset="1" style="stop-color:#020202;stop-opacity:0"/>
			</radialGradient>
			<path fill="url(#SVGID_2_)" d="M449,449c-59.7,59.7-326.2,59.7-385.9,0S3.4,122.7,63,63s326.3-59.6,386,0S508.6,389.3,449,449z"
				/>
		</g>
		<g opacity="0.4" enable-background="new    ">
			
				<radialGradient id="SVGID_3_" cx="3.4424" cy="513.9732" r="133.1784" gradientTransform="matrix(-1.4138 -1.4146 0.979 -0.9784 -242.3879 763.7472)" gradientUnits="userSpaceOnUse">
				<stop  offset="0" style="stop-color:#020202"/>
				<stop  offset="0.8587" style="stop-color:#020202;stop-opacity:0.1413"/>
				<stop  offset="1" style="stop-color:#020202;stop-opacity:0"/>
			</radialGradient>
			<path fill="url(#SVGID_3_)" d="M63,449c59.7,59.7,326.2,59.7,385.9,0s59.7-326.2,0-385.9S122.7,3.4,63,63S3.4,389.3,63,449z"/>
		</g>
	</g>
	
		<radialGradient id="SVGID_4_" cx="262.6667" cy="329.3333" r="286.3335" gradientTransform="matrix(1 0 0 1.0373 0 -12.2683)" gradientUnits="userSpaceOnUse">
		<stop  offset="0" style="stop-color:#D0DF66"/>
		<stop  offset="1" style="stop-color:#70CBCE"/>
	</radialGradient>
	<path fill="url(#SVGID_4_)" d="M433.3,433.3c-70.3,70.3-284.3,70.3-354.6,0S8.4,149,78.7,78.7s284.3-70.3,354.6,0
		S503.6,363,433.3,433.3z"/>
</g>
<g id="Layer_4">
	<path fill="#47C8F5" d="M351.7,363.3H160.3c-11,0-20-9-20-20V152c0-11,9-20,20-20h191.3c11,0,20,9,20,20v191.3
		C371.7,354.3,362.7,363.3,351.7,363.3z"/>
	<path fill="#FFFFFF" d="M228.8,415.7l23-39.8c1.9-3.2,6.5-3.2,8.4,0l23,39.8c1.9,3.2-0.5,7.2-4.2,7.2h-46
		C229.3,422.9,227,418.9,228.8,415.7z"/>
</g>
</svg>
