<?xml version="1.0" encoding="utf-8"?>
<!-- Generator: Adobe Illustrator 18.0.0, SVG Export Plug-In . SVG Version: 6.00 Build 0)  -->
<!DOCTYPE svg PUBLIC "-//W3C//DTD SVG 1.1//EN" "http://www.w3.org/Graphics/SVG/1.1/DTD/svg11.dtd">
<svg version="1.1" id="Layer_3" xmlns="http://www.w3.org/2000/svg" xmlns:xlink="http://www.w3.org/1999/xlink" x="0px" y="0px"
	 viewBox="0 0 512 512" enable-background="new 0 0 512 512" xml:space="preserve">
<g>
	<g opacity="0.4" enable-background="new    ">
		
			<radialGradient id="SVGID_1_" cx="1.0125" cy="515" r="118.8609" gradientTransform="matrix(2 0 0 -2 254 1286)" gradientUnits="userSpaceOnUse">
			<stop  offset="0" style="stop-color:#010101"/>
			<stop  offset="0.8587" style="stop-color:#010101;stop-opacity:0.1413"/>
			<stop  offset="1" style="stop-color:#010101;stop-opacity:0"/>
		</radialGradient>
		<path fill="url(#SVGID_1_)" d="M449,449c-59.7,59.7-326.2,59.7-385.9,0S3.4,122.7,63,63s326.3-59.6,386,0S508.6,389.3,449,449z"/>
	</g>
	<g opacity="0.4" enable-background="new    ">
		
			<radialGradient id="SVGID_2_" cx="2.0286" cy="516.0684" r="133.1551" gradientTransform="matrix(1.4138 -1.4146 -0.979 -0.9784 758.388 763.7472)" gradientUnits="userSpaceOnUse">
			<stop  offset="0" style="stop-color:#010101"/>
			<stop  offset="0.8587" style="stop-color:#010101;stop-opacity:0.1413"/>
			<stop  offset="1" style="stop-color:#010101;stop-opacity:0"/>
		</radialGradient>
		<path fill="url(#SVGID_2_)" d="M449,449c-59.7,59.7-326.2,59.7-385.9,0S3.4,122.7,63,63s326.3-59.6,386,0S508.6,389.3,449,449z"/>
	</g>
	<g opacity="0.4" enable-background="new    ">
		
			<radialGradient id="SVGID_3_" cx="3.4424" cy="513.9732" r="133.1784" gradientTransform="matrix(-1.4138 -1.4146 0.979 -0.9784 -242.3879 763.7472)" gradientUnits="userSpaceOnUse">
			<stop  offset="0" style="stop-color:#010101"/>
			<stop  offset="0.8587" style="stop-color:#010101;stop-opacity:0.1413"/>
			<stop  offset="1" style="stop-color:#010101;stop-opacity:0"/>
		</radialGradient>
		<path fill="url(#SVGID_3_)" d="M63,449c59.7,59.7,326.2,59.7,385.9,0s59.7-326.2,0-385.9S122.7,3.4,63,63S3.4,389.3,63,449z"/>
	</g>
</g>
<path fill="#282828" d="M433.3,433.3c-70.3,70.3-284.3,70.3-354.6,0S8.4,149,78.7,78.7s284.3-70.3,354.6,0S503.6,363,433.3,433.3z"
	/>
<g>
	<g>
		<g>
			<radialGradient id="SVGID_4_" cx="256" cy="256" r="94.978" gradientUnits="userSpaceOnUse">
				<stop  offset="0" style="stop-color:#000000;stop-opacity:0"/>
				<stop  offset="0.2087" style="stop-color:#000103;stop-opacity:6.686956e-02"/>
				<stop  offset="0.3395" style="stop-color:#01050B;stop-opacity:0.1088"/>
				<stop  offset="0.449" style="stop-color:#030B1A;stop-opacity:0.1438"/>
				<stop  offset="0.5466" style="stop-color:#05142E;stop-opacity:0.1751"/>
				<stop  offset="0.6363" style="stop-color:#072049;stop-opacity:0.2039"/>
				<stop  offset="0.7204" style="stop-color:#0A2E6A;stop-opacity:0.2308"/>
				<stop  offset="0.8" style="stop-color:#0E3F91;stop-opacity:0.2563"/>
				<stop  offset="0.8741" style="stop-color:#1352BE;stop-opacity:0.2801"/>
				<stop  offset="0.9364" style="stop-color:#1765E9;stop-opacity:0.3"/>
				<stop  offset="1" style="stop-color:#1765E9;stop-opacity:0"/>
			</radialGradient>
			<circle fill="url(#SVGID_4_)" cx="256" cy="256" r="95"/>
			<radialGradient id="SVGID_5_" cx="256" cy="256" r="85.7361" gradientUnits="userSpaceOnUse">
				<stop  offset="0" style="stop-color:#FFFFFF"/>
				<stop  offset="1" style="stop-color:#CBCBCB"/>
			</radialGradient>
			<circle fill="url(#SVGID_5_)" cx="256" cy="256" r="85.7"/>
			<g>
				<radialGradient id="SVGID_6_" cx="215.41" cy="256.7415" r="90.2575" gradientUnits="userSpaceOnUse">
					<stop  offset="0" style="stop-color:#FFFFFF;stop-opacity:0.5"/>
					<stop  offset="1" style="stop-color:#000000;stop-opacity:0"/>
				</radialGradient>
				<path fill="url(#SVGID_6_)" d="M223.3,335.3l32.7-79.3l-79.2,32.7C185.4,309.7,202.2,326.6,223.3,335.3z"/>
				
					<radialGradient id="SVGID_7_" cx="296.1073" cy="178.2374" r="81.0193" gradientTransform="matrix(1 0 0 1.0937 0 -16.7053)" gradientUnits="userSpaceOnUse">
					<stop  offset="0" style="stop-color:#FFFFFF;stop-opacity:0.5"/>
					<stop  offset="1" style="stop-color:#000000;stop-opacity:0"/>
				</radialGradient>
				<path fill="url(#SVGID_7_)" d="M288.7,176.7l-32.6,79.2l79.2-32.6C326.5,202.2,309.7,185.4,288.7,176.7z"/>
			</g>
			<g>
				<radialGradient id="SVGID_8_" cx="294.7477" cy="256.812" r="90.1969" gradientUnits="userSpaceOnUse">
					<stop  offset="0" style="stop-color:#FFFFFF;stop-opacity:0.5"/>
					<stop  offset="1" style="stop-color:#000000;stop-opacity:0"/>
				</radialGradient>
				<path fill="url(#SVGID_8_)" d="M335.3,288.7l-79.2-32.6l32.6,79.2C309.7,326.6,326.6,309.7,335.3,288.7z"/>
				
					<radialGradient id="SVGID_9_" cx="216.7949" cy="178.2488" r="81.0741" gradientTransform="matrix(1 0 0 1.0937 0 -16.7063)" gradientUnits="userSpaceOnUse">
					<stop  offset="0" style="stop-color:#FFFFFF;stop-opacity:0.5"/>
					<stop  offset="1" style="stop-color:#000000;stop-opacity:0"/>
				</radialGradient>
				<path fill="url(#SVGID_9_)" d="M176.7,223.3l79.2,32.6l-32.6-79.2C202.3,185.4,185.4,202.3,176.7,223.3z"/>
			</g>
			<linearGradient id="SVGID_10_" gradientUnits="userSpaceOnUse" x1="193.2935" y1="318.7065" x2="318.7065" y2="193.2935">
				<stop  offset="0" style="stop-color:#FFFFFF"/>
				<stop  offset="0.1046" style="stop-color:#BDBDBD"/>
				<stop  offset="0.2005" style="stop-color:#878787"/>
				<stop  offset="0.283" style="stop-color:#616161"/>
				<stop  offset="0.3489" style="stop-color:#4A4A4A"/>
				<stop  offset="0.39" style="stop-color:#414141"/>
				<stop  offset="0.7154" style="stop-color:#FFFFFF"/>
				<stop  offset="1" style="stop-color:#434343"/>
			</linearGradient>
			<path fill="url(#SVGID_10_)" d="M256,344.7c-48.9,0-88.7-39.8-88.7-88.7s39.8-88.7,88.7-88.7s88.7,39.8,88.7,88.7
				S304.9,344.7,256,344.7z M256,173.2c-45.6,0-82.8,37.1-82.8,82.8c0,45.6,37.1,82.8,82.8,82.8c45.6,0,82.8-37.1,82.8-82.8
				C338.8,210.4,301.6,173.2,256,173.2z"/>
		</g>
	</g>
	<g>
		<g>
			<radialGradient id="SVGID_11_" cx="393.4919" cy="259.3744" r="44.8415" gradientUnits="userSpaceOnUse">
				<stop  offset="0" style="stop-color:#000000;stop-opacity:0"/>
				<stop  offset="0.2087" style="stop-color:#000103;stop-opacity:6.686956e-02"/>
				<stop  offset="0.3395" style="stop-color:#01050B;stop-opacity:0.1088"/>
				<stop  offset="0.449" style="stop-color:#030B1A;stop-opacity:0.1438"/>
				<stop  offset="0.5466" style="stop-color:#05142E;stop-opacity:0.1751"/>
				<stop  offset="0.6363" style="stop-color:#072049;stop-opacity:0.2039"/>
				<stop  offset="0.7204" style="stop-color:#0A2E6A;stop-opacity:0.2308"/>
				<stop  offset="0.8" style="stop-color:#0E3F91;stop-opacity:0.2563"/>
				<stop  offset="0.8741" style="stop-color:#1352BE;stop-opacity:0.2801"/>
				<stop  offset="0.9364" style="stop-color:#1765E9;stop-opacity:0.3"/>
				<stop  offset="1" style="stop-color:#1765E9;stop-opacity:0"/>
			</radialGradient>
			<circle fill="url(#SVGID_11_)" cx="393.5" cy="259.4" r="44.8"/>
			<radialGradient id="SVGID_12_" cx="393.4919" cy="259.3744" r="40.4782" gradientUnits="userSpaceOnUse">
				<stop  offset="0" style="stop-color:#FFFFFF"/>
				<stop  offset="1" style="stop-color:#CBCBCB"/>
			</radialGradient>
			<circle fill="url(#SVGID_12_)" cx="393.5" cy="259.4" r="40.5"/>
			<g>
				<radialGradient id="SVGID_13_" cx="374.3283" cy="259.7245" r="42.6128" gradientUnits="userSpaceOnUse">
					<stop  offset="0" style="stop-color:#FFFFFF;stop-opacity:0.5"/>
					<stop  offset="1" style="stop-color:#000000;stop-opacity:0"/>
				</radialGradient>
				<path fill="url(#SVGID_13_)" d="M378,296.8l15.4-37.4l-37.4,15.4C360.2,284.7,368.1,292.7,378,296.8z"/>
				
					<radialGradient id="SVGID_14_" cx="412.4275" cy="222.6607" r="38.2512" gradientTransform="matrix(1 0 0 1.0937 0 -20.8688)" gradientUnits="userSpaceOnUse">
					<stop  offset="0" style="stop-color:#FFFFFF;stop-opacity:0.5"/>
					<stop  offset="1" style="stop-color:#000000;stop-opacity:0"/>
				</radialGradient>
				<path fill="url(#SVGID_14_)" d="M408.9,221.9l-15.4,37.4l37.4-15.4C426.8,234,418.9,226,408.9,221.9z"/>
			</g>
			<g>
				<radialGradient id="SVGID_15_" cx="411.7856" cy="259.7577" r="42.5842" gradientUnits="userSpaceOnUse">
					<stop  offset="0" style="stop-color:#FFFFFF;stop-opacity:0.5"/>
					<stop  offset="1" style="stop-color:#000000;stop-opacity:0"/>
				</radialGradient>
				<path fill="url(#SVGID_15_)" d="M430.9,274.8l-37.4-15.4l15.4,37.4C418.9,292.7,426.8,284.8,430.9,274.8z"/>
				
					<radialGradient id="SVGID_16_" cx="374.9822" cy="222.6661" r="38.2771" gradientTransform="matrix(1 0 0 1.0937 0 -20.8693)" gradientUnits="userSpaceOnUse">
					<stop  offset="0" style="stop-color:#FFFFFF;stop-opacity:0.5"/>
					<stop  offset="1" style="stop-color:#000000;stop-opacity:0"/>
				</radialGradient>
				<path fill="url(#SVGID_16_)" d="M356.1,243.9l37.4,15.4l-15.4-37.4C368.1,226.1,360.2,234,356.1,243.9z"/>
			</g>
			<linearGradient id="SVGID_17_" gradientUnits="userSpaceOnUse" x1="363.8866" y1="288.9796" x2="423.0972" y2="229.7691">
				<stop  offset="0" style="stop-color:#FFFFFF"/>
				<stop  offset="0.1046" style="stop-color:#BDBDBD"/>
				<stop  offset="0.2005" style="stop-color:#878787"/>
				<stop  offset="0.283" style="stop-color:#616161"/>
				<stop  offset="0.3489" style="stop-color:#4A4A4A"/>
				<stop  offset="0.39" style="stop-color:#414141"/>
				<stop  offset="0.7154" style="stop-color:#FFFFFF"/>
				<stop  offset="1" style="stop-color:#434343"/>
			</linearGradient>
			<path fill="url(#SVGID_17_)" d="M393.5,301.3c-23.1,0-41.9-18.8-41.9-41.9s18.8-41.9,41.9-41.9c23.1,0,41.9,18.8,41.9,41.9
				S416.6,301.3,393.5,301.3z M393.5,220.3c-21.5,0-39.1,17.5-39.1,39.1c0,21.5,17.5,39.1,39.1,39.1c21.5,0,39.1-17.5,39.1-39.1
				C432.6,237.8,415,220.3,393.5,220.3z"/>
		</g>
		<g>
			<radialGradient id="SVGID_18_" cx="118.5081" cy="259.3744" r="44.8415" gradientUnits="userSpaceOnUse">
				<stop  offset="0" style="stop-color:#000000;stop-opacity:0"/>
				<stop  offset="0.2087" style="stop-color:#000103;stop-opacity:6.686956e-02"/>
				<stop  offset="0.3395" style="stop-color:#01050B;stop-opacity:0.1088"/>
				<stop  offset="0.449" style="stop-color:#030B1A;stop-opacity:0.1438"/>
				<stop  offset="0.5466" style="stop-color:#05142E;stop-opacity:0.1751"/>
				<stop  offset="0.6363" style="stop-color:#072049;stop-opacity:0.2039"/>
				<stop  offset="0.7204" style="stop-color:#0A2E6A;stop-opacity:0.2308"/>
				<stop  offset="0.8" style="stop-color:#0E3F91;stop-opacity:0.2563"/>
				<stop  offset="0.8741" style="stop-color:#1352BE;stop-opacity:0.2801"/>
				<stop  offset="0.9364" style="stop-color:#1765E9;stop-opacity:0.3"/>
				<stop  offset="1" style="stop-color:#1765E9;stop-opacity:0"/>
			</radialGradient>
			<circle fill="url(#SVGID_18_)" cx="118.5" cy="259.4" r="44.8"/>
			<radialGradient id="SVGID_19_" cx="118.5081" cy="259.3744" r="40.4782" gradientUnits="userSpaceOnUse">
				<stop  offset="0" style="stop-color:#FFFFFF"/>
				<stop  offset="1" style="stop-color:#CBCBCB"/>
			</radialGradient>
			<circle fill="url(#SVGID_19_)" cx="118.5" cy="259.4" r="40.5"/>
			<g>
				<radialGradient id="SVGID_20_" cx="99.3446" cy="259.7245" r="42.6128" gradientUnits="userSpaceOnUse">
					<stop  offset="0" style="stop-color:#FFFFFF;stop-opacity:0.5"/>
					<stop  offset="1" style="stop-color:#000000;stop-opacity:0"/>
				</radialGradient>
				<path fill="url(#SVGID_20_)" d="M103.1,296.8l15.4-37.4l-37.4,15.4C85.2,284.7,93.1,292.7,103.1,296.8z"/>
				
					<radialGradient id="SVGID_21_" cx="137.4438" cy="222.6607" r="38.2512" gradientTransform="matrix(1 0 0 1.0937 0 -20.8688)" gradientUnits="userSpaceOnUse">
					<stop  offset="0" style="stop-color:#FFFFFF;stop-opacity:0.5"/>
					<stop  offset="1" style="stop-color:#000000;stop-opacity:0"/>
				</radialGradient>
				<path fill="url(#SVGID_21_)" d="M133.9,221.9l-15.4,37.4l37.4-15.4C151.8,234,143.9,226,133.9,221.9z"/>
			</g>
			<g>
				<radialGradient id="SVGID_22_" cx="136.8019" cy="259.7577" r="42.5842" gradientUnits="userSpaceOnUse">
					<stop  offset="0" style="stop-color:#FFFFFF;stop-opacity:0.5"/>
					<stop  offset="1" style="stop-color:#000000;stop-opacity:0"/>
				</radialGradient>
				<path fill="url(#SVGID_22_)" d="M155.9,274.8l-37.4-15.4l15.4,37.4C143.9,292.7,151.8,284.8,155.9,274.8z"/>
				
					<radialGradient id="SVGID_23_" cx="99.9984" cy="222.6661" r="38.2771" gradientTransform="matrix(1 0 0 1.0937 0 -20.8693)" gradientUnits="userSpaceOnUse">
					<stop  offset="0" style="stop-color:#FFFFFF;stop-opacity:0.5"/>
					<stop  offset="1" style="stop-color:#000000;stop-opacity:0"/>
				</radialGradient>
				<path fill="url(#SVGID_23_)" d="M81.1,243.9l37.4,15.4l-15.4-37.4C93.1,226.1,85.2,234,81.1,243.9z"/>
			</g>
			<linearGradient id="SVGID_24_" gradientUnits="userSpaceOnUse" x1="88.9028" y1="288.9796" x2="148.1134" y2="229.7691">
				<stop  offset="0" style="stop-color:#FFFFFF"/>
				<stop  offset="0.1046" style="stop-color:#BDBDBD"/>
				<stop  offset="0.2005" style="stop-color:#878787"/>
				<stop  offset="0.283" style="stop-color:#616161"/>
				<stop  offset="0.3489" style="stop-color:#4A4A4A"/>
				<stop  offset="0.39" style="stop-color:#414141"/>
				<stop  offset="0.7154" style="stop-color:#FFFFFF"/>
				<stop  offset="1" style="stop-color:#434343"/>
			</linearGradient>
			<path fill="url(#SVGID_24_)" d="M118.5,301.3c-23.1,0-41.9-18.8-41.9-41.9s18.8-41.9,41.9-41.9s41.9,18.8,41.9,41.9
				S141.6,301.3,118.5,301.3z M118.5,220.3c-21.5,0-39.1,17.5-39.1,39.1c0,21.5,17.5,39.1,39.1,39.1c21.5,0,39.1-17.5,39.1-39.1
				C157.6,237.8,140.1,220.3,118.5,220.3z"/>
		</g>
	</g>
	
		<linearGradient id="SVGID_25_" gradientUnits="userSpaceOnUse" x1="230.3802" y1="209.3099" x2="230.3802" y2="270.3141" gradientTransform="matrix(0.866 -0.5 0.5 0.866 -71.3544 154.7016)">
		<stop  offset="0" style="stop-color:#170000"/>
		<stop  offset="0.2147" style="stop-color:#0B0000"/>
		<stop  offset="0.517" style="stop-color:#030000"/>
		<stop  offset="1" style="stop-color:#000000"/>
	</linearGradient>
	<polygon fill="url(#SVGID_25_)" points="232.8,291.2 232.8,220.8 293.8,256 	"/>
</g>
</svg>
