<?xml version="1.0" encoding="UTF-8" standalone="no"?>
<svg
   xmlns:dc="http://purl.org/dc/elements/1.1/"
   xmlns:cc="http://creativecommons.org/ns#"
   xmlns:rdf="http://www.w3.org/1999/02/22-rdf-syntax-ns#"
   xmlns:svg="http://www.w3.org/2000/svg"
   xmlns="http://www.w3.org/2000/svg"
   viewBox="0 0 640 640"
   height="640"
   width="640"
   xml:space="preserve"
   version="1.1"
   id="svg2"><metadata
     id="metadata8"><rdf:RDF><cc:Work
         rdf:about=""><dc:format>image/svg+xml</dc:format><dc:type
           rdf:resource="http://purl.org/dc/dcmitype/StillImage" /></cc:Work></rdf:RDF></metadata><defs
     id="defs6"><clipPath
       id="clipPath16"
       clipPathUnits="userSpaceOnUse"><path
         id="path18"
         d="M 0,512 512,512 512,0 0,0 0,512 Z" /></clipPath><clipPath
       id="clipPath24"
       clipPathUnits="userSpaceOnUse"><path
         id="path26"
         d="m 18.275,493.744 475.45,0 0,-475.4877 -475.45,0 0,475.4877 z" /></clipPath><clipPath
       id="clipPath28"
       clipPathUnits="userSpaceOnUse"><path
         id="path30"
         d="m 18.275,493.744 475.45,0 0,-475.4877 -475.45,0 0,475.4877 z" /></clipPath><clipPath
       id="clipPath32"
       clipPathUnits="userSpaceOnUse"><path
         id="path34"
         d="m 18.325,493.744 475.4,0 0,-475.4877 -475.4,0 0,475.4877 z" /></clipPath><clipPath
       id="clipPath36"
       clipPathUnits="userSpaceOnUse"><path
         id="path38"
         d="M 448.99,63.029 C 389.293,3.332 122.807,3.332 63.11,63.029 3.413,122.726 3.413,389.312 63.01,449.009 c 59.597,59.696 326.283,59.596 385.98,0 59.697,-59.597 59.597,-326.283 0,-385.98" /></clipPath><radialGradient
       id="radialGradient44"
       spreadMethod="pad"
       gradientTransform="matrix(237.72188,0,0,237.72188,256.02499,256)"
       gradientUnits="userSpaceOnUse"
       r="1"
       cy="0"
       cx="0"
       fy="0"
       fx="0"><stop
         id="stop46"
         offset="0"
         style="stop-opacity:1;stop-color:#ffffff" /><stop
         id="stop48"
         offset="0.8587"
         style="stop-opacity:0.14129854;stop-color:#ffffff" /><stop
         id="stop50"
         offset="1"
         style="stop-opacity:0;stop-color:#ffffff" /></radialGradient><mask
       id="mask52"
       height="1"
       width="1"
       y="0"
       x="0"
       maskUnits="userSpaceOnUse"><g
         id="g54"><g
           id="g56"><g
             id="g58"><g
               id="g60"><path
                 id="path62"
                 style="fill:url(#radialGradient44);stroke:none"
                 d="m -32768,32767 65535,0 0,-65535 -65535,0 0,65535 z" /></g></g></g></g></mask><radialGradient
       id="radialGradient64"
       spreadMethod="pad"
       gradientTransform="matrix(237.72188,0,0,237.72188,256.02499,256)"
       gradientUnits="userSpaceOnUse"
       r="1"
       cy="0"
       cx="0"
       fy="0"
       fx="0"><stop
         id="stop66"
         offset="0"
         style="stop-opacity:1;stop-color:#010101" /><stop
         id="stop68"
         offset="0.8587"
         style="stop-opacity:1;stop-color:#010101" /><stop
         id="stop70"
         offset="1"
         style="stop-opacity:1;stop-color:#010101" /></radialGradient><clipPath
       id="clipPath72"
       clipPathUnits="userSpaceOnUse"><path
         id="path74"
         d="m 18.325,493.744 475.4,0 0,-475.4877 -475.4,0 0,475.4877 z" /></clipPath><clipPath
       id="clipPath76"
       clipPathUnits="userSpaceOnUse"><path
         id="path78"
         d="M 448.99,63.029 C 389.293,3.332 122.807,3.332 63.11,63.029 3.413,122.726 3.413,389.312 63.01,449.009 c 59.597,59.696 326.283,59.596 385.98,0 59.697,-59.597 59.597,-326.283 0,-385.98" /></clipPath><radialGradient
       id="radialGradient84"
       spreadMethod="pad"
       gradientTransform="matrix(188.25467,188.36119,-130.35883,130.27895,256.02499,256.04376)"
       gradientUnits="userSpaceOnUse"
       r="1"
       cy="0"
       cx="0"
       fy="0"
       fx="0"><stop
         id="stop86"
         offset="0"
         style="stop-opacity:1;stop-color:#ffffff" /><stop
         id="stop88"
         offset="0.8587"
         style="stop-opacity:0.14129854;stop-color:#ffffff" /><stop
         id="stop90"
         offset="1"
         style="stop-opacity:0;stop-color:#ffffff" /></radialGradient><mask
       id="mask92"
       height="1"
       width="1"
       y="0"
       x="0"
       maskUnits="userSpaceOnUse"><g
         id="g94"><g
           id="g96"><g
             id="g98"><g
               id="g100"><path
                 id="path102"
                 style="fill:url(#radialGradient84);stroke:none"
                 d="m -32768,32767 65535,0 0,-65535 -65535,0 0,65535 z" /></g></g></g></g></mask><radialGradient
       id="radialGradient104"
       spreadMethod="pad"
       gradientTransform="matrix(188.25467,188.36119,-130.35883,130.27895,256.02499,256.04376)"
       gradientUnits="userSpaceOnUse"
       r="1"
       cy="0"
       cx="0"
       fy="0"
       fx="0"><stop
         id="stop106"
         offset="0"
         style="stop-opacity:1;stop-color:#010101" /><stop
         id="stop108"
         offset="0.8587"
         style="stop-opacity:1;stop-color:#010101" /><stop
         id="stop110"
         offset="1"
         style="stop-opacity:1;stop-color:#010101" /></radialGradient><clipPath
       id="clipPath112"
       clipPathUnits="userSpaceOnUse"><path
         id="path114"
         d="m 18.275,493.694 475.387,0 0,-475.4377 -475.387,0 0,475.4377 z" /></clipPath><clipPath
       id="clipPath116"
       clipPathUnits="userSpaceOnUse"><path
         id="path118"
         d="m 63.01,63.029 c 59.697,-59.697 326.183,-59.697 385.88,0 59.697,59.697 59.697,326.183 0,385.88 -59.697,59.696 -326.183,59.696 -385.88,0.1 -59.697,-59.597 -59.597,-326.283 0,-385.98" /></clipPath><radialGradient
       id="radialGradient124"
       spreadMethod="pad"
       gradientTransform="matrix(-188.28767,188.39421,130.38168,130.30179,255.92499,255.99377)"
       gradientUnits="userSpaceOnUse"
       r="1"
       cy="0"
       cx="0"
       fy="0"
       fx="0"><stop
         id="stop126"
         offset="0"
         style="stop-opacity:1;stop-color:#ffffff" /><stop
         id="stop128"
         offset="0.8587"
         style="stop-opacity:0.14129854;stop-color:#ffffff" /><stop
         id="stop130"
         offset="1"
         style="stop-opacity:0;stop-color:#ffffff" /></radialGradient><mask
       id="mask132"
       height="1"
       width="1"
       y="0"
       x="0"
       maskUnits="userSpaceOnUse"><g
         id="g134"><g
           id="g136"><g
             id="g138"><g
               id="g140"><path
                 id="path142"
                 style="fill:url(#radialGradient124);stroke:none"
                 d="m -32768,32767 65535,0 0,-65535 -65535,0 0,65535 z" /></g></g></g></g></mask><radialGradient
       id="radialGradient144"
       spreadMethod="pad"
       gradientTransform="matrix(-188.28767,188.39421,130.38168,130.30179,255.92499,255.99377)"
       gradientUnits="userSpaceOnUse"
       r="1"
       cy="0"
       cx="0"
       fy="0"
       fx="0"><stop
         id="stop146"
         offset="0"
         style="stop-opacity:1;stop-color:#010101" /><stop
         id="stop148"
         offset="0.8587"
         style="stop-opacity:1;stop-color:#010101" /><stop
         id="stop150"
         offset="1"
         style="stop-opacity:1;stop-color:#010101" /></radialGradient><linearGradient
       id="linearGradient156"
       spreadMethod="pad"
       gradientTransform="matrix(0,459.99902,-459.99902,0,256.00018,26.000492)"
       gradientUnits="userSpaceOnUse"
       y2="0"
       x2="1"
       y1="0"
       x1="0"><stop
         id="stop158"
         offset="0"
         style="stop-opacity:1;stop-color:#f6f6f6" /><stop
         id="stop160"
         offset="1"
         style="stop-opacity:1;stop-color:#828487" /></linearGradient><linearGradient
       id="linearGradient262"
       spreadMethod="pad"
       gradientTransform="matrix(0,459.99902,459.99902,0,256.00018,26.000503)"
       gradientUnits="userSpaceOnUse"
       y2="0"
       x2="1"
       y1="0"
       x1="0"><stop
         id="stop264"
         offset="0"
         style="stop-opacity:1;stop-color:#f1f1f2" /><stop
         id="stop266"
         offset="1"
         style="stop-opacity:1;stop-color:#bec0c2" /></linearGradient><clipPath
       id="clipPath274"
       clipPathUnits="userSpaceOnUse"><path
         id="path276"
         d="M 0,512 512,512 512,0 0,0 0,512 Z" /></clipPath><linearGradient
       id="linearGradient322"
       spreadMethod="pad"
       gradientTransform="matrix(0,259.99951,259.99951,0,256.00024,126)"
       gradientUnits="userSpaceOnUse"
       y2="0"
       x2="1"
       y1="0"
       x1="0"><stop
         id="stop324"
         offset="0"
         style="stop-opacity:1;stop-color:#ffffff" /><stop
         id="stop326"
         offset="1"
         style="stop-opacity:1;stop-color:#929497" /></linearGradient><clipPath
       id="clipPath334"
       clipPathUnits="userSpaceOnUse"><path
         id="path336"
         d="M 0,512 512,512 512,0 0,0 0,512 Z" /></clipPath><clipPath
       id="clipPath342"
       clipPathUnits="userSpaceOnUse"><path
         id="path344"
         d="M 26.0005,486 486,486 l 0,-459.9995 -459.9995,0 0,459.9995 z" /></clipPath><clipPath
       id="clipPath362"
       clipPathUnits="userSpaceOnUse"><path
         id="path364"
         d="M 26.0005,486 486,486 l 0,-289.167 -459.9995,0 0,289.167 z" /></clipPath><clipPath
       id="clipPath366"
       clipPathUnits="userSpaceOnUse"><path
         id="path368"
         d="M 433.279,433.279 C 468.427,398.132 486,327.066 486,256 l -20.042,0 c 0,0 -60.456,-59.167 -213.458,-59.167 C 99.5,196.833 46,256 46,256 l -20,0 c 0,71.066 17.574,142.132 52.721,177.279 70.294,70.294 284.264,70.294 354.558,0" /></clipPath><linearGradient
       id="linearGradient374"
       spreadMethod="pad"
       gradientTransform="matrix(0,289.16617,-289.16617,0,256.00018,196.83333)"
       gradientUnits="userSpaceOnUse"
       y2="0"
       x2="1"
       y1="0"
       x1="0"><stop
         id="stop376"
         offset="0"
         style="stop-opacity:1;stop-color:#ffffff" /><stop
         id="stop378"
         offset="1"
         style="stop-opacity:0;stop-color:#ffffff" /></linearGradient><mask
       id="mask380"
       height="1"
       width="1"
       y="0"
       x="0"
       maskUnits="userSpaceOnUse"><g
         id="g382"><g
           id="g384"><g
             id="g386"><g
               id="g388"><path
                 id="path390"
                 style="fill:url(#linearGradient374);stroke:none"
                 d="m -32768,32767 65535,0 0,-65535 -65535,0 0,65535 z" /></g></g></g></g></mask><linearGradient
       id="linearGradient392"
       spreadMethod="pad"
       gradientTransform="matrix(0,289.16617,-289.16617,0,256.00018,196.83333)"
       gradientUnits="userSpaceOnUse"
       y2="0"
       x2="1"
       y1="0"
       x1="0"><stop
         id="stop394"
         offset="0"
         style="stop-opacity:1;stop-color:#737477" /><stop
         id="stop396"
         offset="1"
         style="stop-opacity:1;stop-color:#ffffff" /></linearGradient><radialGradient
       id="radialGradient428"
       spreadMethod="pad"
       gradientTransform="matrix(161.16418,0,0,-161.16418,256,255.99609)"
       gradientUnits="userSpaceOnUse"
       r="1"
       cy="0"
       cx="0"
       fy="0"
       fx="0"><stop
         id="stop430"
         offset="0"
         style="stop-opacity:1;stop-color:#fff1ea" /><stop
         id="stop432"
         offset="1"
         style="stop-opacity:1;stop-color:#ffe8bf" /></radialGradient><clipPath
       id="clipPath440"
       clipPathUnits="userSpaceOnUse"><path
         id="path442"
         d="M 0,512 512,512 512,0 0,0 0,512 Z" /></clipPath></defs><g
     transform="matrix(1.25,0,0,-1.25,0,640)"
     id="g10"><g
       id="g12"><g
         clip-path="url(#clipPath16)"
         id="g14"><g
           id="g20"><g
             id="g22" /><g
             id="g162"><g
               id="g164"
               clip-path="url(#clipPath24)"><g
                 id="g166"><g
                   id="g168" /><g
                   id="g170"><g
                     id="g172"
                     clip-path="url(#clipPath28)"><g
                       id="g174"><g
                         id="g176" /><g
                         id="g178"><g
                           style="opacity:0.39999402"
                           id="g180"
                           clip-path="url(#clipPath32)"><g
                             id="g182"><g
                               id="g184"
                               clip-path="url(#clipPath36)"><g
                                 id="g186"><g
                                   id="g188" /><g
                                   id="g190"
                                   mask="url(#mask52)"><g
                                   id="g192"><path
                                   id="path194"
                                   style="fill:url(#radialGradient64);stroke:none"
                                   d="M 448.99,63.029 C 389.293,3.332 122.807,3.332 63.11,63.029 3.413,122.726 3.413,389.312 63.01,449.009 c 59.597,59.696 326.283,59.596 385.98,0 59.697,-59.597 59.597,-326.283 0,-385.98" /></g></g></g></g></g></g></g></g><g
                       id="g196"><g
                         id="g198" /><g
                         id="g200"><g
                           style="opacity:0.39999402"
                           id="g202"
                           clip-path="url(#clipPath72)"><g
                             id="g204"><g
                               id="g206"
                               clip-path="url(#clipPath76)"><g
                                 id="g208"><g
                                   id="g210" /><g
                                   id="g212"
                                   mask="url(#mask92)"><g
                                   id="g214"><path
                                   id="path216"
                                   style="fill:url(#radialGradient104);stroke:none"
                                   d="M 448.99,63.029 C 389.293,3.332 122.807,3.332 63.11,63.029 3.413,122.726 3.413,389.312 63.01,449.009 c 59.597,59.696 326.283,59.596 385.98,0 59.697,-59.597 59.597,-326.283 0,-385.98" /></g></g></g></g></g></g></g></g><g
                       id="g218"><g
                         id="g220" /><g
                         id="g222"><g
                           style="opacity:0.39999402"
                           id="g224"
                           clip-path="url(#clipPath112)"><g
                             id="g226"><g
                               id="g228"
                               clip-path="url(#clipPath116)"><g
                                 id="g230"><g
                                   id="g232" /><g
                                   id="g234"
                                   mask="url(#mask132)"><g
                                   id="g236"><path
                                   id="path238"
                                   style="fill:url(#radialGradient144);stroke:none"
                                   d="m 63.01,63.029 c 59.697,-59.697 326.183,-59.697 385.88,0 59.697,59.697 59.697,326.183 0,385.88 -59.697,59.696 -326.183,59.696 -385.88,0.1 -59.697,-59.597 -59.597,-326.283 0,-385.98" /></g></g></g></g></g></g></g></g></g></g></g><g
                 id="g240"><g
                   id="g242"><g
                     id="g244"><g
                       id="g246"><path
                         id="path248"
                         style="fill:url(#linearGradient156);stroke:none"
                         d="m 433.279,433.279 c -70.294,70.294 -284.264,70.294 -354.558,0 -70.294,-70.294 -70.294,-284.264 0,-354.558 70.294,-70.294 284.264,-70.294 354.558,0 70.294,70.294 70.295,284.264 0,354.558" /></g></g></g></g></g></g></g></g></g><g
       id="g250"><g
         id="g252"><g
           id="g258"><g
             id="g260"><path
               id="path268"
               style="fill:url(#linearGradient262);stroke:none"
               d="M 78.721,433.279 C 8.427,362.985 8.427,149.015 78.721,78.721 l 0,0 c 70.294,-70.294 284.264,-70.294 354.558,0 l 0,0 c 70.295,70.294 70.294,284.264 0,354.558 l 0,0 C 398.132,468.426 327.066,486 256,486 l 0,0 C 184.934,486 113.868,468.426 78.721,433.279" /></g></g></g></g><g
       id="g270"><g
         clip-path="url(#clipPath274)"
         id="g272"><g
           transform="translate(255.9426,255.6833)"
           id="g278"><path
             id="path280"
             style="fill:#ed0303;fill-opacity:1;fill-rule:nonzero;stroke:none"
             d="m 0,0 -46.338,-227.144 c 30.425,-3.384 62.366,-3.384 92.791,0 L 0.133,-0.088 0,0 Z" /></g><g
           transform="translate(255.9648,259.0311)"
           id="g282"><path
             id="path284"
             style="fill:#ed0303;fill-opacity:1;fill-rule:nonzero;stroke:none"
             d="m 0,0 -0.553,-0.113 0.176,-0.862 0.621,0.94 L 0.07,0 0.298,0.046 0.815,0.829 46.431,224.43 c -30.425,3.383 -62.366,3.383 -92.791,0 L -0.601,0.123 0,0 Z" /></g><g
           transform="translate(257.4445,258.7435)"
           id="g286"><path
             id="path288"
             style="fill:#ed0303;fill-opacity:1;fill-rule:nonzero;stroke:none"
             d="m 0,0 226.323,-46.171 c 3.165,30.524 2.945,62.456 -0.659,92.782 L 1.258,0.832 0,0 Z" /></g><g
           transform="translate(248.6089,260.5317)"
           id="g290"><path
             id="path292"
             style="fill:#ed0303;fill-opacity:1;fill-rule:nonzero;stroke:none"
             d="m 0,0 -219.717,44.823 c -3.604,-30.326 -3.824,-62.258 -0.659,-92.782 L 3.469,-2.294 0,0 Z" /></g><g
           transform="translate(391.7083,51.2932)"
           id="g294"><path
             id="path296"
             style="fill:#ed0303;fill-opacity:1;fill-rule:nonzero;stroke:none"
             d="m 0,0 c 16.553,7.484 30.765,16.622 41.571,27.428 10.806,10.806 19.944,25.017 27.428,41.57 L -134.612,203.61 0,0 Z" /></g><g
           transform="translate(254.0992,259.4117)"
           id="g298"><path
             id="path300"
             style="fill:#ed0303;fill-opacity:1;fill-rule:nonzero;stroke:none"
             d="m 0,0 -133.252,201.553 c -16.793,-7.53 -31.198,-16.757 -42.126,-27.686 -10.929,-10.928 -20.155,-25.332 -27.686,-42.126 L -5.49,1.12 0,0 Z" /></g><g
           transform="translate(256.6362,259.1537)"
           id="g302"><path
             id="path304"
             style="fill:#ed0303;fill-opacity:1;fill-rule:nonzero;stroke:none"
             d="m 0,0 2.066,0.422 201.502,133.217 c -7.39,16.086 -16.357,29.919 -26.925,40.486 -11.165,11.165 -25.963,20.549 -43.226,28.167 L 0.144,0.706 0,0 Z" /></g><g
           transform="translate(254.3918,256.7085)"
           id="g306"><path
             id="path308"
             style="fill:#ed0303;fill-opacity:1;fill-rule:nonzero;stroke:none"
             d="m 0,0 -203.838,-134.762 c 7.618,-17.262 17.003,-32.061 28.167,-43.225 10.568,-10.568 24.4,-19.535 40.486,-26.926 L 0.2,-0.133 0,0 Z" /></g></g></g><g
       id="g310"><g
         id="g312"><g
           id="g318"><g
             id="g320"><path
               id="path328"
               style="fill:url(#linearGradient322);stroke:none"
               d="m 181.678,376.755 c -20.339,-5.69 -30.18,-12.177 -32.237,-14.177 l 0,0 c -2.019,-2.076 -8.505,-11.917 -14.196,-32.256 l 0,0 C 129.284,309.011 126.001,282.617 126.001,256 l 0,0 c 0,-26.617 3.283,-53.011 9.244,-74.322 l 0,0 c 5.691,-20.339 12.177,-30.181 14.177,-32.237 l 0,0 c 2.076,-2.019 11.917,-8.506 32.256,-14.196 l 0,0 C 202.989,129.283 229.383,126 256,126 l 0,0 c 26.617,0 53.011,3.283 74.322,9.245 l 0,0 c 20.341,5.69 30.181,12.177 32.238,14.177 l 0,0 c 2.019,2.075 8.505,11.917 14.196,32.256 l 0,0 C 382.717,202.989 386,229.383 386,256 l 0,0 c 0,26.617 -3.283,53.011 -9.244,74.322 l 0,0 c -5.691,20.339 -12.178,30.18 -14.178,32.237 l 0,0 c -2.075,2.019 -11.917,8.506 -32.256,14.196 l 0,0 c -21.311,5.961 -47.705,9.244 -74.322,9.244 l 0,0 c -26.617,0 -53.011,-3.283 -74.322,-9.244" /></g></g></g></g><g
       id="g330"><g
         clip-path="url(#clipPath334)"
         id="g332"><g
           id="g338"><g
             id="g340" /><g
             id="g346"><g
               style="opacity:0.33999604"
               id="g348"
               clip-path="url(#clipPath342)"><g
                 id="g350"
                 transform="translate(256,26.0005)"><path
                   id="path352"
                   style="fill:#f4f4f4;fill-opacity:1;fill-rule:nonzero;stroke:none"
                   d="m 0,0 c 71.066,0 142.132,17.573 177.279,52.721 70.294,70.294 70.295,284.263 0,354.558 -35.147,35.147 -106.213,52.72 -177.279,52.72 -71.066,0 -142.132,-17.573 -177.279,-52.72 -70.294,-70.295 -70.294,-284.264 0,-354.558 C -142.132,17.573 -71.066,0 0,0 m 0,20 c -34.521,0 -67.947,4.296 -96.662,12.424 -29.233,8.274 -52.219,20.183 -66.475,34.439 -14.255,14.255 -26.164,37.242 -34.438,66.474 -8.128,28.716 -12.424,62.141 -12.424,96.663 0,34.521 4.296,67.946 12.424,96.662 8.274,29.232 20.183,52.219 34.438,66.474 14.256,14.256 37.242,26.165 66.475,34.439 28.715,8.128 62.141,12.424 96.662,12.424 34.521,0 67.947,-4.296 96.662,-12.424 29.233,-8.274 52.219,-20.183 66.475,-34.439 14.256,-14.255 26.165,-37.242 34.439,-66.474 C 205.704,297.946 210,264.521 210,230 210,195.478 205.704,162.053 197.576,133.337 189.301,104.105 177.393,81.118 163.137,66.863 148.881,52.607 125.895,40.698 96.662,32.424 67.947,24.296 34.521,20 0,20" /></g></g></g></g><g
           transform="translate(366.4784,366.4783)"
           id="g354"><path
             id="path356"
             style="fill:#f2f2f2;fill-opacity:1;fill-rule:nonzero;stroke:none"
             d="m 0,0 c -43.806,43.806 -177.15,43.806 -220.957,0 -43.806,-43.806 -43.806,-177.15 0,-220.957 43.807,-43.806 177.151,-43.806 220.957,0 C 43.806,-177.15 43.807,-43.806 0,0" /></g><g
           id="g358"><g
             id="g360" /><g
             id="g398"><g
               style="opacity:0.46000701"
               id="g400"
               clip-path="url(#clipPath362)"><g
                 id="g402"><g
                   id="g404"
                   clip-path="url(#clipPath366)"><g
                     id="g406"><g
                       id="g408" /><g
                       id="g410"
                       mask="url(#mask380)"><g
                         id="g412"><path
                           id="path414"
                           style="fill:url(#linearGradient392);stroke:none"
                           d="M 433.279,433.279 C 468.427,398.132 486,327.066 486,256 l -20.042,0 c 0,0 -60.456,-59.167 -213.458,-59.167 C 99.5,196.833 46,256 46,256 l -20,0 c 0,71.066 17.574,142.132 52.721,177.279 70.294,70.294 284.264,70.294 354.558,0" /></g></g></g></g></g></g></g></g></g></g><g
       id="g416"><g
         id="g418"><g
           id="g424"><g
             id="g426"><path
               id="path434"
               style="fill:url(#radialGradient428);stroke:none"
               d="m 102.999,327.746 c -3.079,-23.935 2.244,-46.987 13.656,-66.224 l 0,0 C 105.863,252.77 98.31,239.997 96.49,225.115 l 0,0 c -3.697,-30.237 17.632,-57.753 47.735,-61.81 l 0,0 c -3.83,-34.132 20.54,-65.054 54.71,-69.232 l 0,0 c 28.537,-3.489 54.92,12.782 65.472,38.071 l 0,0 c 0.757,-0.235 1.521,-0.457 2.298,-0.655 l 0,0 c 4.326,-1.109 8.665,-1.551 12.914,-1.41 l 0,0 c 6.299,-3.201 13.25,-5.381 20.67,-6.289 l 0,0 c 5.958,-0.728 11.818,-0.573 17.463,0.332 l 0,0 c 0.753,-0.22 1.507,-0.442 2.274,-0.638 l 0,0 c 37.767,-9.672 76.224,13.105 85.896,50.873 l 0,0 c 3.093,12.079 2.853,24.223 -0.12,35.478 l 0,0 c 3.845,5.221 6.78,11.244 8.488,17.91 l 0,0 c 5.267,20.57 -2.544,41.415 -18.223,53.752 l 0,0 c 1.196,3.916 2.079,7.986 2.593,12.193 l 0,0 c 0.977,7.986 0.567,15.818 -1.006,23.275 l 0,0 c 7.193,42.415 -19.245,83.961 -61.668,94.824 l 0,0 c -24.828,6.357 -49.905,0.864 -69.26,-12.932 l 0,0 c -14.074,10.139 -30.895,16.894 -49.413,18.918 l 0,0 c -3.773,0.412 -7.531,0.613 -11.247,0.614 l 0,0 c -51.441,0.003 -96.367,-38.545 -103.067,-90.643" /></g></g></g></g><g
       id="g436"><g
         clip-path="url(#clipPath440)"
         id="g438"><g
           transform="translate(332.4124,251.7711)"
           id="g444"><path
             id="path446"
             style="fill:#ffffff;fill-opacity:1;fill-rule:nonzero;stroke:none"
             d="m 0,0 c 0,-46.109 -30.766,-89.173 -83.213,-89.173 -53.323,0 -83.761,43.064 -83.761,89.173 L 0,0 Z" /></g><g
           transform="translate(332.4124,251.7711)"
           id="g448"><path
             id="path450"
             style="fill:#ff0000;fill-opacity:1;fill-rule:nonzero;stroke:none"
             d="m 0,0 c 0,-46.109 -37.379,-78.755 -83.486,-78.755 -46.108,0 -83.487,32.646 -83.487,78.755 L 0,0 Z" /></g><g
           transform="translate(181.641,355.5823)"
           id="g452"><path
             id="path454"
             style="fill:#ffffff;fill-opacity:1;fill-rule:nonzero;stroke:none"
             d="m 0,0 c 24.959,0 45.192,-20.233 45.192,-45.192 0,-24.959 -20.233,-45.193 -45.192,-45.193 -24.959,0 -45.192,20.234 -45.192,45.193 C -45.192,-20.233 -24.959,0 0,0" /></g><g
           transform="translate(216.6135,310.8459)"
           id="g456"><path
             id="path458"
             style="fill:#000000;fill-opacity:1;fill-rule:nonzero;stroke:none"
             d="m 0,0 c 0,-19.09 -15.476,0 -34.567,0 -19.092,0 -34.568,-19.09 -34.568,0 0,19.09 15.476,34.567 34.568,34.567 C -15.476,34.567 0,19.093 0,0" /></g><g
           transform="translate(316.2108,355.5823)"
           id="g460"><path
             id="path462"
             style="fill:#ffffff;fill-opacity:1;fill-rule:nonzero;stroke:none"
             d="m 0,0 c 24.959,0 45.192,-20.233 45.192,-45.192 0,-24.959 -20.233,-45.193 -45.192,-45.193 -24.959,0 -45.192,20.234 -45.192,45.193 C -45.192,-20.233 -24.959,0 0,0" /></g><g
           transform="translate(351.1846,310.8459)"
           id="g464"><path
             id="path466"
             style="fill:#000000;fill-opacity:1;fill-rule:nonzero;stroke:none"
             d="m 0,0 c 0,-19.09 -15.476,0 -34.567,0 -19.092,0 -34.568,-19.09 -34.568,0 0,19.09 15.476,34.567 34.568,34.567 C -15.476,34.567 0,19.093 0,0" /></g></g></g></g></svg>