<?xml version="1.0" encoding="UTF-8" standalone="no"?>
<svg
   xmlns:dc="http://purl.org/dc/elements/1.1/"
   xmlns:cc="http://creativecommons.org/ns#"
   xmlns:rdf="http://www.w3.org/1999/02/22-rdf-syntax-ns#"
   xmlns:svg="http://www.w3.org/2000/svg"
   xmlns="http://www.w3.org/2000/svg"
   xml:space="preserve"
   enable-background="new 0 0 512 512"
   viewBox="0 0 512 512"
   y="0px"
   x="0px"
   id="Layer_2"
   version="1.1"><metadata
     id="metadata98"><rdf:RDF><cc:Work
         rdf:about=""><dc:format>image/svg+xml</dc:format><dc:type
           rdf:resource="http://purl.org/dc/dcmitype/StillImage" /><dc:title></dc:title></cc:Work></rdf:RDF></metadata><defs
     id="defs96" /><g
     id="g3"><g
       id="g5"
       enable-background="new    "
       opacity="0.4"><radialGradient
         gradientUnits="userSpaceOnUse"
         gradientTransform="matrix(2 0 0 -2 254.5 1284.5)"
         r="118.8609"
         cy="514.25"
         cx="0.7625"
         id="SVGID_1_"><stop
           id="stop8"
           style="stop-color:#010101"
           offset="0" /><stop
           id="stop10"
           style="stop-color:#010101;stop-opacity:0.1413"
           offset="0.8587" /><stop
           id="stop12"
           style="stop-color:#010101;stop-opacity:0"
           offset="1" /></radialGradient><path
         id="path14"
         d="M449,449c-59.7,59.7-326.2,59.7-385.9,0S3.4,122.7,63,63s326.3-59.6,386,0S508.6,389.3,449,449z"
         fill="url(#SVGID_1_)" /></g><g
       id="g16"
       enable-background="new    "
       opacity="0.4"><radialGradient
         gradientUnits="userSpaceOnUse"
         gradientTransform="matrix(1.4138 -1.4146 -0.979 -0.9784 758.1053 762.0507)"
         r="133.1551"
         cy="515.0576"
         cx="1.5285"
         id="SVGID_2_"><stop
           id="stop19"
           style="stop-color:#010101"
           offset="0" /><stop
           id="stop21"
           style="stop-color:#010101;stop-opacity:0.1413"
           offset="0.8587" /><stop
           id="stop23"
           style="stop-color:#010101;stop-opacity:0"
           offset="1" /></radialGradient><path
         id="path25"
         d="M449,449c-59.7,59.7-326.2,59.7-385.9,0S3.4,122.7,63,63s326.3-59.6,386,0S508.6,389.3,449,449z"
         fill="url(#SVGID_2_)" /></g><g
       id="g27"
       enable-background="new    "
       opacity="0.4"><radialGradient
         gradientUnits="userSpaceOnUse"
         gradientTransform="matrix(-1.4138 -1.4146 0.979 -0.9784 -243.1053 762.0507)"
         r="133.1784"
         cy="513.4733"
         cx="2.5888"
         id="SVGID_3_"><stop
           id="stop30"
           style="stop-color:#010101"
           offset="0" /><stop
           id="stop32"
           style="stop-color:#010101;stop-opacity:0.1413"
           offset="0.8587" /><stop
           id="stop34"
           style="stop-color:#010101;stop-opacity:0"
           offset="1" /></radialGradient><path
         id="path36"
         d="M63,449c59.7,59.7,326.2,59.7,385.9,0s59.7-326.2,0-385.9S122.7,3.4,63,63S3.4,389.3,63,449z"
         fill="url(#SVGID_3_)" /></g></g><path
     id="path38"
     d="M433.3,433.3c-70.3,70.3-284.3,70.3-354.6,0S8.4,149,78.7,78.7s284.3-70.3,354.6,0S503.6,363,433.3,433.3z"
     fill="#825E46" /><g
     id="g40"><linearGradient
       y2="230.5"
       x2="256"
       y1="422"
       x1="256"
       gradientUnits="userSpaceOnUse"
       id="SVGID_4_"><stop
         id="stop43"
         style="stop-color:#825E46"
         offset="0" /><stop
         id="stop45"
         style="stop-color:#73523C"
         offset="0.3286" /><stop
         id="stop47"
         style="stop-color:#4B3423"
         offset="0.9622" /><stop
         id="stop49"
         style="stop-color:#483221"
         offset="1" /></linearGradient><polygon
       id="polygon51"
       points="90,422 256,230.5 422,422  "
       fill="url(#SVGID_4_)" /><linearGradient
       y2="256"
       x2="426.0442"
       y1="256"
       x1="224.6737"
       gradientUnits="userSpaceOnUse"
       id="SVGID_5_"><stop
         id="stop54"
         style="stop-color:#483221"
         offset="0" /><stop
         id="stop56"
         style="stop-color:#563D2A"
         offset="0.3122" /><stop
         id="stop58"
         style="stop-color:#7B5942"
         offset="0.9016" /><stop
         id="stop60"
         style="stop-color:#825E46"
         offset="1" /></linearGradient><polygon
       id="polygon62"
       points="426,424.2 224.7,256 426,87.8  "
       fill="url(#SVGID_5_)" /><linearGradient
       y2="256"
       x2="287.3263"
       y1="256"
       x1="85.9558"
       gradientUnits="userSpaceOnUse"
       id="SVGID_6_"><stop
         id="stop65"
         style="stop-color:#825E46"
         offset="0" /><stop
         id="stop67"
         style="stop-color:#7B5942"
         offset="9.836614e-02" /><stop
         id="stop69"
         style="stop-color:#563D2A"
         offset="0.6878" /><stop
         id="stop71"
         style="stop-color:#483221"
         offset="1" /></linearGradient><polygon
       id="polygon73"
       points="86,424.2 287.3,256 86,87.8  "
       fill="url(#SVGID_6_)" /></g><g
     id="g75"
     enable-background="new    "
     opacity="0.95"><path
       id="path77"
       d="M335.4,335.4c-24.6,24.6-134.2,24.6-158.8,0   c-24.6-24.6-24.6-134.2,0-158.8s134.2-24.6,158.8,0C359.9,201.2,359.9,310.8,335.4,335.4z"
       enable-background="new    "
       fill="#CCA68D"
       opacity="0.95" /><path
       id="path79"
       d="M253.6,345C253.6,345,253.6,345,253.6,345c-2.9,0-5.9-0.1-8.7-0.2c-1.2-0.1-2.1-1.1-2.1-2.3   c0.1-1.2,1.1-2.2,2.3-2.1c2.8,0.1,5.7,0.2,8.6,0.2c1.2,0,2.2,1,2.2,2.2C255.8,344,254.8,345,253.6,345z M264,344.9   c-1.2,0-2.2-0.9-2.2-2.1c0-1.2,0.9-2.2,2.1-2.3c2.9-0.1,5.8-0.2,8.5-0.4c1.2-0.1,2.3,0.8,2.3,2c0.1,1.2-0.8,2.3-2,2.3   C269.9,344.6,267,344.8,264,344.9C264,344.9,264,344.9,264,344.9z M234.6,344.1c-0.1,0-0.1,0-0.2,0c-3-0.3-5.9-0.6-8.7-1   c-1.2-0.2-2-1.3-1.9-2.5c0.2-1.2,1.3-2,2.5-1.9c2.7,0.4,5.6,0.7,8.5,1c1.2,0.1,2.1,1.2,2,2.4C236.7,343.2,235.7,344.1,234.6,344.1z    M282.9,343.5c-1.1,0-2-0.8-2.2-1.9c-0.1-1.2,0.7-2.3,1.9-2.4c2.9-0.3,5.7-0.8,8.5-1.2c1.2-0.2,2.3,0.6,2.5,1.8   c0.2,1.2-0.6,2.3-1.8,2.5c-2.8,0.5-5.7,0.9-8.7,1.2C283.1,343.5,283,343.5,282.9,343.5z M215.8,341.4c-0.1,0-0.3,0-0.4,0   c-3-0.6-5.9-1.3-8.6-2c-1.2-0.3-1.9-1.5-1.5-2.7c0.3-1.2,1.5-1.9,2.7-1.5c2.6,0.7,5.4,1.4,8.3,1.9c1.2,0.2,2,1.4,1.7,2.6   C217.7,340.7,216.8,341.4,215.8,341.4z M301.7,340.2c-1,0-1.9-0.7-2.1-1.7c-0.3-1.2,0.4-2.4,1.6-2.7c2.9-0.7,5.6-1.5,8.1-2.3   c1.1-0.4,2.4,0.2,2.8,1.4c0.4,1.1-0.2,2.4-1.4,2.8c-2.6,0.9-5.5,1.7-8.5,2.5C302,340.1,301.8,340.2,301.7,340.2z M197.6,336.1   c-0.3,0-0.6-0.1-0.8-0.2c-3.1-1.3-5.8-2.7-8-4.1c-1-0.7-1.3-2-0.6-3c0.7-1,2-1.3,3-0.6c2.1,1.3,4.5,2.6,7.3,3.8   c1.1,0.5,1.7,1.7,1.2,2.9C199.2,335.6,198.4,336.1,197.6,336.1z M319.5,333.7c-0.8,0-1.5-0.4-1.9-1.1c-0.6-1.1-0.2-2.4,0.9-3   c2.7-1.4,4.9-3,6.5-4.6c0.9-0.9,2.2-0.9,3.1,0c0.9,0.9,0.9,2.2,0,3.1c-1.9,1.9-4.5,3.8-7.5,5.4   C320.2,333.6,319.8,333.7,319.5,333.7z M182.5,325c-0.7,0-1.4-0.3-1.8-1c-1.5-2.2-3-4.9-4.3-8c-0.5-1.1,0-2.4,1.2-2.9   c1.1-0.5,2.4,0,2.9,1.2c1.2,2.8,2.5,5.2,3.9,7.2c0.7,1,0.4,2.4-0.6,3.1C183.4,324.9,182.9,325,182.5,325z M332.3,320.2   c-0.3,0-0.7-0.1-1-0.2c-1.1-0.5-1.5-1.9-1-2.9c1.1-2.3,2.2-4.9,3.2-7.7c0.4-1.1,1.6-1.8,2.8-1.4c1.1,0.4,1.8,1.6,1.4,2.8   c-1,3-2.2,5.8-3.4,8.3C333.9,319.8,333.1,320.2,332.3,320.2z M175,307.6c-1,0-1.8-0.6-2.1-1.6c-0.8-2.7-1.5-5.5-2.1-8.6   c-0.2-1.2,0.5-2.3,1.7-2.6c1.2-0.2,2.3,0.5,2.6,1.7c0.6,2.9,1.3,5.7,2,8.2c0.3,1.2-0.3,2.4-1.5,2.7   C175.4,307.6,175.2,307.6,175,307.6z M338.4,302.2c-0.2,0-0.3,0-0.5-0.1c-1.2-0.3-1.9-1.5-1.6-2.6c0.6-2.6,1.2-5.4,1.7-8.3   c0.2-1.2,1.3-2,2.5-1.8c1.2,0.2,2,1.3,1.8,2.5c-0.5,3-1.1,5.9-1.7,8.6C340.3,301.6,339.4,302.2,338.4,302.2z M171.2,289   c-1.1,0-2-0.8-2.2-1.9c-0.4-2.8-0.7-5.7-1-8.7c-0.1-1.2,0.8-2.3,2-2.4c1.2-0.1,2.3,0.8,2.4,2c0.3,2.9,0.6,5.8,1,8.5   c0.2,1.2-0.7,2.3-1.9,2.5C171.4,289,171.3,289,171.2,289z M341.5,283.5c-0.1,0-0.2,0-0.2,0c-1.2-0.1-2.1-1.2-1.9-2.4   c0.3-2.8,0.6-5.6,0.8-8.5c0.1-1.2,1.1-2.1,2.3-2c1.2,0.1,2.1,1.1,2,2.3c-0.2,2.9-0.5,5.9-0.8,8.7   C343.5,282.7,342.6,283.5,341.5,283.5z M169.5,270.1c-1.2,0-2.1-0.9-2.2-2.1c-0.1-2.9-0.2-5.8-0.3-8.7c0-1.2,1-2.2,2.2-2.2   c0,0,0,0,0,0c1.2,0,2.2,1,2.2,2.2c0,2.9,0.1,5.7,0.3,8.6c0.1,1.2-0.9,2.2-2.1,2.3C169.5,270.1,169.5,270.1,169.5,270.1z    M342.8,264.5C342.7,264.5,342.7,264.5,342.8,264.5c-1.3,0-2.2-1-2.2-2.3c0.1-2.1,0.1-4.2,0.1-6.3c0-0.8,0-1.5,0-2.3   c0-1.2,1-2.2,2.2-2.2c0,0,0,0,0,0c1.2,0,2.2,1,2.2,2.2c0,0.8,0,1.6,0,2.3c0,2.1,0,4.3-0.1,6.4C344.9,263.6,343.9,264.5,342.8,264.5   z M169.3,251C169.3,251,169.2,251,169.3,251c-1.3,0-2.2-1-2.2-2.3c0.1-2.9,0.2-5.8,0.4-8.7c0.1-1.2,1.1-2.1,2.3-2   c1.2,0.1,2.1,1.1,2,2.3c-0.2,2.8-0.3,5.7-0.4,8.6C171.4,250.1,170.5,251,169.3,251z M342.5,245.5c-1.2,0-2.1-0.9-2.2-2.1   c-0.2-2.9-0.4-5.8-0.6-8.5c-0.1-1.2,0.8-2.3,2-2.4c1.2-0.1,2.3,0.8,2.4,2c0.3,2.8,0.5,5.8,0.6,8.7c0.1,1.2-0.9,2.2-2.1,2.3   C342.6,245.5,342.5,245.5,342.5,245.5z M170.6,232.1c-0.1,0-0.2,0-0.3,0c-1.2-0.1-2.1-1.2-1.9-2.4c0.3-3,0.7-5.9,1.2-8.7   c0.2-1.2,1.3-2,2.5-1.8c1.2,0.2,2,1.3,1.8,2.5c-0.4,2.7-0.8,5.6-1.2,8.5C172.7,231.3,171.7,232.1,170.6,232.1z M340.7,226.6   c-1.1,0-2-0.8-2.2-1.9c-0.4-2.9-0.9-5.7-1.4-8.4c-0.2-1.2,0.5-2.3,1.7-2.6c1.2-0.2,2.3,0.5,2.6,1.7c0.6,2.7,1,5.6,1.5,8.6   c0.2,1.2-0.7,2.3-1.9,2.5C340.9,226.6,340.8,226.6,340.7,226.6z M173.8,213.3c-0.2,0-0.3,0-0.5-0.1c-1.2-0.3-1.9-1.5-1.6-2.6   c0.7-3,1.5-5.9,2.4-8.5c0.4-1.2,1.6-1.8,2.8-1.4c1.2,0.4,1.8,1.6,1.4,2.8c-0.8,2.5-1.6,5.2-2.3,8.1   C175.7,212.7,174.8,213.3,173.8,213.3z M336.8,208c-1,0-1.8-0.6-2.1-1.6c-0.8-2.9-1.8-5.5-2.8-7.9c-0.5-1.1,0.1-2.4,1.2-2.9   c1.1-0.5,2.4,0.1,2.9,1.2c1,2.5,2,5.4,2.9,8.4c0.3,1.2-0.3,2.4-1.5,2.7C337.2,208,337,208,336.8,208z M180.1,195.4   c-0.3,0-0.7-0.1-1-0.2c-1.1-0.6-1.5-1.9-0.9-3c1.6-3,3.3-5.6,5.2-7.6c0.8-0.9,2.2-0.9,3.1-0.1c0.9,0.8,0.9,2.2,0.1,3.1   c-1.6,1.7-3.1,3.9-4.5,6.6C181.7,195,180.9,195.4,180.1,195.4z M329,190.7c-0.7,0-1.3-0.3-1.8-0.9c-0.7-1-1.5-2-2.3-2.7   c-0.9-0.9-2-1.8-3.3-2.7c-1-0.7-1.3-2.1-0.6-3.1c0.7-1,2.1-1.3,3.1-0.6c1.5,1,2.8,2.1,3.9,3.2c0.9,0.9,1.9,2,2.8,3.3   c0.7,1,0.5,2.4-0.5,3.1C329.9,190.6,329.5,190.7,329,190.7z M193.3,182.3c-0.8,0-1.6-0.4-2-1.2c-0.6-1.1-0.1-2.4,0.9-3   c2.4-1.3,5.2-2.4,8.2-3.5c1.1-0.4,2.4,0.2,2.8,1.3c0.4,1.1-0.2,2.4-1.3,2.8c-2.9,1-5.4,2.1-7.7,3.3   C194,182.2,193.6,182.3,193.3,182.3z M313.7,180c-0.3,0-0.5-0.1-0.8-0.2c-2.4-1-5.1-1.9-8-2.7c-1.2-0.3-1.8-1.5-1.5-2.7   s1.5-1.8,2.7-1.5c3,0.9,5.9,1.8,8.4,2.8c1.1,0.4,1.7,1.7,1.2,2.9C315.4,179.5,314.5,180,313.7,180z M211.2,176   c-1,0-1.9-0.7-2.1-1.7c-0.3-1.2,0.4-2.4,1.6-2.6c2.7-0.6,5.6-1.2,8.6-1.8c1.2-0.2,2.3,0.6,2.5,1.8c0.2,1.2-0.6,2.3-1.8,2.5   c-2.9,0.5-5.7,1.1-8.3,1.7C211.5,176,211.4,176,211.2,176z M295.4,174.8c-0.1,0-0.3,0-0.4,0c-2.7-0.5-5.5-1-8.4-1.4   c-1.2-0.2-2-1.3-1.9-2.5c0.2-1.2,1.3-2,2.5-1.9c3,0.4,5.9,0.9,8.6,1.4c1.2,0.2,2,1.4,1.7,2.6C297.3,174.1,296.4,174.8,295.4,174.8z    M229.9,172.8c-1.1,0-2-0.8-2.2-1.9c-0.1-1.2,0.7-2.3,1.9-2.4c2.8-0.3,5.8-0.6,8.7-0.8c1.2-0.1,2.3,0.8,2.3,2   c0.1,1.2-0.8,2.3-2,2.3c-2.9,0.2-5.7,0.5-8.5,0.8C230.1,172.8,230,172.8,229.9,172.8z M276.5,172.2c-0.1,0-0.1,0-0.2,0   c-2.8-0.2-5.7-0.4-8.5-0.6c-1.2-0.1-2.1-1.1-2.1-2.3c0.1-1.2,1.1-2.1,2.3-2.1c2.9,0.1,5.9,0.3,8.7,0.6c1.2,0.1,2.1,1.2,2,2.4   C278.6,171.4,277.7,172.2,276.5,172.2z M248.9,171.5c-1.2,0-2.2-0.9-2.2-2.1c0-1.2,0.9-2.2,2.1-2.3c2.9-0.1,5.8-0.1,8.7-0.1   c1.2,0,2.2,1,2.2,2.2c0,1.2-1,2.2-2.2,2.2c0,0,0,0,0,0C254.7,171.3,251.8,171.4,248.9,171.5C248.9,171.5,248.9,171.5,248.9,171.5z"
       fill="#FFFFFF" /></g><g
     id="g81"><polygon
       id="polygon83"
       points="   207.5,228 256,200 304.5,228 304.5,284 256,312 207.5,284  "
       stroke-miterlimit="10"
       stroke-linejoin="round"
       stroke-linecap="round"
       stroke-width="4"
       stroke="#FFFFFF"
       fill="#F7F7F7" /><g
       id="g85"><path
         d="M236.6,267.2v-22.4l19.4-11.2l19.4,11.2v22.4L256,278.4L236.6,267.2z"
         fill="#F8C300"
         id="path_6_" /><path
         d="M297.9,235.5l-16.8,9.7l-0.3,21.4l16.9,10.1L297.9,235.5z"
         fill="#D18C3B"
         id="path_5_" /><path
         d="M214.1,276.5l16.8-9.7l0.3-21.4l-16.9-10.1L214.1,276.5z"
         fill="#3941BF"
         id="path_4_" /><path
         d="M252.8,302.6v-19.4l-18.4-10.9l-17.2,9.6L252.8,302.6z"
         fill="#BB3A84"
         id="path_3_" /><path
         d="M294.7,282.1l-16.8-9.7l-18.6,10.5l-0.3,19.7L294.7,282.1z    "
         fill="#A02C35"
         id="path_2_" /><path
         d="M217.3,229.9l16.8,9.7l18.6-10.5l0.3-19.7L217.3,229.9z"
         fill="#3895BD"
         id="path_1_" /><path
         d="M259.2,209.4v19.4l18.4,10.9l17.2-9.6L259.2,209.4z"
         fill="#8FB635"
         id="path" /></g></g></svg>