<?xml version="1.0" encoding="utf-8"?>
<!-- Generator: Adobe Illustrator 18.0.0, SVG Export Plug-In . SVG Version: 6.00 Build 0)  -->
<!DOCTYPE svg PUBLIC "-//W3C//DTD SVG 1.1//EN" "http://www.w3.org/Graphics/SVG/1.1/DTD/svg11.dtd">
<svg version="1.1" id="Layer_3" xmlns="http://www.w3.org/2000/svg" xmlns:xlink="http://www.w3.org/1999/xlink" x="0px" y="0px"
	 viewBox="0 0 512 512" enable-background="new 0 0 512 512" xml:space="preserve">
<g>
	<g opacity="0.4" enable-background="new    ">
		
			<radialGradient id="SVGID_1_" cx="1.0125" cy="515" r="118.8609" gradientTransform="matrix(2 0 0 -2 254 1286)" gradientUnits="userSpaceOnUse">
			<stop  offset="0" style="stop-color:#010101"/>
			<stop  offset="0.8587" style="stop-color:#010101;stop-opacity:0.1413"/>
			<stop  offset="1" style="stop-color:#010101;stop-opacity:0"/>
		</radialGradient>
		<path fill="url(#SVGID_1_)" d="M449,449c-59.7,59.7-326.2,59.7-385.9,0S3.4,122.7,63,63s326.3-59.6,386,0S508.6,389.3,449,449z"/>
	</g>
	<g opacity="0.4" enable-background="new    ">
		
			<radialGradient id="SVGID_2_" cx="2.0286" cy="516.0684" r="133.1551" gradientTransform="matrix(1.4138 -1.4146 -0.979 -0.9784 758.388 763.7472)" gradientUnits="userSpaceOnUse">
			<stop  offset="0" style="stop-color:#010101"/>
			<stop  offset="0.8587" style="stop-color:#010101;stop-opacity:0.1413"/>
			<stop  offset="1" style="stop-color:#010101;stop-opacity:0"/>
		</radialGradient>
		<path fill="url(#SVGID_2_)" d="M449,449c-59.7,59.7-326.2,59.7-385.9,0S3.4,122.7,63,63s326.3-59.6,386,0S508.6,389.3,449,449z"/>
	</g>
	<g opacity="0.4" enable-background="new    ">
		
			<radialGradient id="SVGID_3_" cx="3.4424" cy="513.9732" r="133.1784" gradientTransform="matrix(-1.4138 -1.4146 0.979 -0.9784 -242.3879 763.7472)" gradientUnits="userSpaceOnUse">
			<stop  offset="0" style="stop-color:#010101"/>
			<stop  offset="0.8587" style="stop-color:#010101;stop-opacity:0.1413"/>
			<stop  offset="1" style="stop-color:#010101;stop-opacity:0"/>
		</radialGradient>
		<path fill="url(#SVGID_3_)" d="M63,449c59.7,59.7,326.2,59.7,385.9,0s59.7-326.2,0-385.9S122.7,3.4,63,63S3.4,389.3,63,449z"/>
	</g>
</g>
<radialGradient id="SVGID_4_" cx="254.5001" cy="431.4912" r="314.4397" gradientUnits="userSpaceOnUse">
	<stop  offset="1.933882e-02" style="stop-color:#FAAC18"/>
	<stop  offset="0.3892" style="stop-color:#F16630"/>
	<stop  offset="0.7239" style="stop-color:#E70F6F"/>
	<stop  offset="1" style="stop-color:#642D8C"/>
</radialGradient>
<path fill="url(#SVGID_4_)" d="M433.3,433.3c-70.3,70.3-284.3,70.3-354.6,0S8.4,149,78.7,78.7s284.3-70.3,354.6,0
	S503.6,363,433.3,433.3z"/>
<g>
	<g>
		<polygon fill="#E2E2E2" points="295.3,376.7 292,343.5 220,343.5 216.7,376.7 		"/>
		<rect x="199.4" y="375.8" fill="#969696" width="113.2" height="4.4"/>
		<g>
			<path fill="#0C0C0C" d="M405,131.9H107c-5.4,0-9.7,4.3-9.7,9.7v192.3c0,5.4,4.3,9.7,9.7,9.7H405c5.4,0,9.7-4.3,9.7-9.7V141.6
				C414.7,136.2,410.4,131.9,405,131.9z M401,323.1c0,0.8-0.6,1.4-1.4,1.4H112.4c-0.8,0-1.4-0.6-1.4-1.4V152.2
				c0-0.8,0.6-1.4,1.4-1.4h287.2c0.8,0,1.4,0.6,1.4,1.4V323.1z"/>
			
				<linearGradient id="SVGID_5_" gradientUnits="userSpaceOnUse" x1="257.3838" y1="276.317" x2="414.724" y2="276.317" gradientTransform="matrix(1 0 0 -1 0 514)">
				<stop  offset="0" style="stop-color:#FFFFFF"/>
				<stop  offset="1" style="stop-color:#FFFFFF;stop-opacity:0"/>
			</linearGradient>
			<path opacity="0.4" fill="url(#SVGID_5_)" enable-background="new    " d="M405,343.5c5.4,0,9.7-4.3,9.7-9.7V141.6
				c0-5.4-4.3-9.7-9.7-9.7H257.4L405,343.5z"/>
		</g>
	</g>
</g>
<g>
	<g id="g23" opacity="0.4" enable-background="new    ">
		<path id="path25" d="M248.1,296.4l7.9,9.3l7.9-9.3c-2.1-1.8-4.9-2.9-7.9-2.9S250.3,294.6,248.1,296.4z"/>
		<path id="path27" d="M256,268c-9.2,0-17.7,3.4-24.3,8.9l9.7,11.5c3.9-3.3,9-5.3,14.6-5.3s10.6,2,14.6,5.3l9.7-11.5
			C273.7,271.4,265.2,268,256,268z"/>
		<path id="path29" d="M215.2,257.5L225,269c8.4-7.1,19.2-11.4,31-11.4c11.8,0,22.6,4.3,31,11.4l9.7-11.5c-11-9.3-25.2-15-40.8-15
			C240.5,242.5,226.3,248.1,215.2,257.5z"/>
		<path id="path31" d="M198.8,238l9.7,11.5c13.3-11.3,29.9-17.4,47.5-17.4s34.2,6.1,47.5,17.4l9.7-11.5c-16-13.6-36-21-57.2-21
			C234.8,217,214.8,224.4,198.8,238z"/>
		<path id="path33" d="M256,191.5c-15.4,0-30.3,3-44.4,9c-10.7,4.5-20.5,10.5-29.3,18l9.7,11.5c17.8-15.1,40.3-23.4,63.9-23.4
			s46.1,8.3,63.9,23.4l9.7-11.5c-8.8-7.5-18.6-13.5-29.3-18C286.3,194.6,271.4,191.5,256,191.5z"/>
	</g>
	<g id="g23_1_">
		<path id="path25_1_" fill="#FFFFFF" d="M248.1,291.2l7.9,9.3l7.9-9.3c-2.1-1.8-4.9-2.9-7.9-2.9S250.3,289.4,248.1,291.2z"/>
		<path id="path27_1_" fill="#FFFFFF" d="M256,262.8c-9.2,0-17.7,3.4-24.3,8.9l9.7,11.5c3.9-3.3,9-5.3,14.6-5.3s10.6,2,14.6,5.3
			l9.7-11.5C273.7,266.2,265.2,262.8,256,262.8z"/>
		<path id="path29_1_" fill="#FFFFFF" d="M215.2,252.3l9.7,11.5c8.4-7.1,19.2-11.4,31-11.4c11.8,0,22.6,4.3,31,11.4l9.7-11.5
			c-11-9.3-25.2-15-40.8-15C240.5,237.3,226.3,243,215.2,252.3z"/>
		<path id="path31_1_" fill="#FFFFFF" d="M198.8,232.8l9.7,11.5c13.3-11.3,29.9-17.4,47.5-17.4s34.2,6.1,47.5,17.4l9.7-11.5
			c-16-13.6-36-21-57.2-21C234.8,211.8,214.8,219.2,198.8,232.8z"/>
		<path id="path33_1_" fill="#FFFFFF" d="M256,186.4c-15.4,0-30.3,3-44.4,9c-10.7,4.5-20.5,10.5-29.3,18l9.7,11.5
			c17.8-15.1,40.3-23.4,63.9-23.4s46.1,8.3,63.9,23.4l9.7-11.5c-8.8-7.5-18.6-13.5-29.3-18C286.3,189.4,271.4,186.4,256,186.4z"/>
	</g>
</g>
<g id="_x3C_Group_x3E_">
	<path opacity="0.4" enable-background="new    " d="M78.7,426.8c70.3,70.3,284.3,70.3,354.6,0c34.1-34.1,51.6-101.9,52.7-170.8
		c-1-68.9-18.6-136.7-52.7-170.8C398.1,50,327.1,32.5,256,32.5S113.8,50,78.7,85.2C44.6,119.3,27.1,187.1,26,256
		C27.1,324.9,44.6,392.7,78.7,426.8z M92.8,99.3C107.1,85,130,73.1,159.3,64.9c28.7-8.1,62.1-12.4,96.7-12.4
		c34.5,0,68,4.3,96.7,12.4c29.2,8.3,52.2,20.2,66.5,34.4c14.3,14.3,26.2,37.2,34.4,66.5c8.1,28.7,12.4,62.1,12.4,96.7
		c0,34.5-4.3,68-12.4,96.7c-8.3,29.2-20.2,52.2-34.4,66.5c-14.3,14.3-37.2,26.2-66.5,34.4c-28.7,8.1-62.1,12.4-96.7,12.4
		c-34.5,0-68-4.3-96.7-12.4c-29.2-8.3-52.2-20.2-66.5-34.4c-14.3-14.3-26.2-37.2-34.4-66.5C50.3,330.5,46,297,46,262.5
		s4.3-68,12.4-96.7C66.7,136.6,78.6,113.6,92.8,99.3z"/>
	<path fill="#FFFFFF" d="M256,46c34.5,0,68,4.3,96.7,12.4c29.2,8.3,52.2,20.2,66.5,34.4c14.3,14.3,26.2,37.2,34.4,66.5
		C461.7,188,466,221.5,466,256s-4.3,68-12.4,96.7c-8.3,29.2-20.2,52.2-34.4,66.5c-14.3,14.3-37.2,26.2-66.5,34.4
		C324,461.7,290.5,466,256,466s-68-4.3-96.7-12.4c-29.2-8.3-52.2-20.2-66.5-34.4c-14.3-14.3-26.2-37.2-34.4-66.5
		C50.3,324,46,290.5,46,256s4.3-68,12.4-96.7c8.3-29.2,20.2-52.2,34.4-66.5c14.3-14.3,37.2-26.2,66.5-34.4C188,50.3,221.5,46,256,46
		 M256,26c-71.1,0-142.1,17.6-177.3,52.7C8.4,149,8.4,363,78.7,433.3C113.9,468.5,184.9,486,256,486s142.1-17.6,177.3-52.7
		c70.3-70.3,70.3-284.3,0-354.6C398.1,43.6,327.1,26,256,26L256,26z"/>
</g>
</svg>
