<?xml version="1.0" encoding="UTF-8" standalone="no"?>
<svg
   xmlns:dc="http://purl.org/dc/elements/1.1/"
   xmlns:cc="http://creativecommons.org/ns#"
   xmlns:rdf="http://www.w3.org/1999/02/22-rdf-syntax-ns#"
   xmlns:svg="http://www.w3.org/2000/svg"
   xmlns="http://www.w3.org/2000/svg"
   id="svg2"
   version="1.1"
   xml:space="preserve"
   width="640"
   height="640"
   viewBox="0 0 640 640"><metadata
     id="metadata8"><rdf:RDF><cc:Work
         rdf:about=""><dc:format>image/svg+xml</dc:format><dc:type
           rdf:resource="http://purl.org/dc/dcmitype/StillImage" /><dc:title></dc:title></cc:Work></rdf:RDF></metadata><defs
     id="defs6"><clipPath
       clipPathUnits="userSpaceOnUse"
       id="clipPath16"><path
         d="M 0,512 512,512 512,0 0,0 0,512 Z"
         id="path18" /></clipPath><clipPath
       clipPathUnits="userSpaceOnUse"
       id="clipPath24"><path
         d="m 18.325,493.744 475.4,0 0,-475.4877 -475.4,0 0,475.4877 z"
         id="path26" /></clipPath><clipPath
       clipPathUnits="userSpaceOnUse"
       id="clipPath28"><path
         d="M 448.99,63.029 C 389.293,3.332 122.807,3.332 63.11,63.029 3.413,122.726 3.413,389.312 63.01,449.009 c 59.597,59.696 326.283,59.596 385.98,0 59.697,-59.597 59.597,-326.283 0,-385.98"
         id="path30" /></clipPath><radialGradient
       fx="0"
       fy="0"
       cx="0"
       cy="0"
       r="1"
       gradientUnits="userSpaceOnUse"
       gradientTransform="matrix(237.72188,0,0,237.72188,256.02499,256)"
       spreadMethod="pad"
       id="radialGradient36"><stop
         style="stop-opacity:1;stop-color:#ffffff"
         offset="0"
         id="stop38" /><stop
         style="stop-opacity:0.14129854;stop-color:#ffffff"
         offset="0.8587"
         id="stop40" /><stop
         style="stop-opacity:0;stop-color:#ffffff"
         offset="1"
         id="stop42" /></radialGradient><mask
       maskUnits="userSpaceOnUse"
       x="0"
       y="0"
       width="1"
       height="1"
       id="mask44"><g
         id="g46"><g
           id="g48"><g
             id="g50"><g
               id="g52"><path
                 d="m -32768,32767 65535,0 0,-65535 -65535,0 0,65535 z"
                 style="fill:url(#radialGradient36);stroke:none"
                 id="path54" /></g></g></g></g></mask><radialGradient
       fx="0"
       fy="0"
       cx="0"
       cy="0"
       r="1"
       gradientUnits="userSpaceOnUse"
       gradientTransform="matrix(237.72188,0,0,237.72188,256.02499,256)"
       spreadMethod="pad"
       id="radialGradient56"><stop
         style="stop-opacity:1;stop-color:#010101"
         offset="0"
         id="stop58" /><stop
         style="stop-opacity:1;stop-color:#010101"
         offset="0.8587"
         id="stop60" /><stop
         style="stop-opacity:1;stop-color:#010101"
         offset="1"
         id="stop62" /></radialGradient><clipPath
       clipPathUnits="userSpaceOnUse"
       id="clipPath86"><path
         d="m 18.325,493.744 475.4,0 0,-475.4877 -475.4,0 0,475.4877 z"
         id="path88" /></clipPath><clipPath
       clipPathUnits="userSpaceOnUse"
       id="clipPath90"><path
         d="M 448.99,63.029 C 389.293,3.332 122.807,3.332 63.11,63.029 3.413,122.726 3.413,389.312 63.01,449.009 c 59.597,59.696 326.283,59.596 385.98,0 59.697,-59.597 59.597,-326.283 0,-385.98"
         id="path92" /></clipPath><radialGradient
       fx="0"
       fy="0"
       cx="0"
       cy="0"
       r="1"
       gradientUnits="userSpaceOnUse"
       gradientTransform="matrix(188.25467,188.36119,-130.35883,130.27895,256.02499,256.04376)"
       spreadMethod="pad"
       id="radialGradient98"><stop
         style="stop-opacity:1;stop-color:#ffffff"
         offset="0"
         id="stop100" /><stop
         style="stop-opacity:0.14129854;stop-color:#ffffff"
         offset="0.8587"
         id="stop102" /><stop
         style="stop-opacity:0;stop-color:#ffffff"
         offset="1"
         id="stop104" /></radialGradient><mask
       maskUnits="userSpaceOnUse"
       x="0"
       y="0"
       width="1"
       height="1"
       id="mask106"><g
         id="g108"><g
           id="g110"><g
             id="g112"><g
               id="g114"><path
                 d="m -32768,32767 65535,0 0,-65535 -65535,0 0,65535 z"
                 style="fill:url(#radialGradient98);stroke:none"
                 id="path116" /></g></g></g></g></mask><radialGradient
       fx="0"
       fy="0"
       cx="0"
       cy="0"
       r="1"
       gradientUnits="userSpaceOnUse"
       gradientTransform="matrix(188.25467,188.36119,-130.35883,130.27895,256.02499,256.04376)"
       spreadMethod="pad"
       id="radialGradient118"><stop
         style="stop-opacity:1;stop-color:#010101"
         offset="0"
         id="stop120" /><stop
         style="stop-opacity:1;stop-color:#010101"
         offset="0.8587"
         id="stop122" /><stop
         style="stop-opacity:1;stop-color:#010101"
         offset="1"
         id="stop124" /></radialGradient><clipPath
       clipPathUnits="userSpaceOnUse"
       id="clipPath148"><path
         d="m 18.275,493.694 475.387,0 0,-475.4377 -475.387,0 0,475.4377 z"
         id="path150" /></clipPath><clipPath
       clipPathUnits="userSpaceOnUse"
       id="clipPath152"><path
         d="m 63.01,63.029 c 59.697,-59.697 326.183,-59.697 385.88,0 59.697,59.697 59.697,326.183 0,385.88 -59.697,59.696 -326.183,59.696 -385.88,0.1 -59.697,-59.597 -59.597,-326.283 0,-385.98"
         id="path154" /></clipPath><radialGradient
       fx="0"
       fy="0"
       cx="0"
       cy="0"
       r="1"
       gradientUnits="userSpaceOnUse"
       gradientTransform="matrix(-188.28767,188.39421,130.38168,130.30179,255.92499,255.99377)"
       spreadMethod="pad"
       id="radialGradient160"><stop
         style="stop-opacity:1;stop-color:#ffffff"
         offset="0"
         id="stop162" /><stop
         style="stop-opacity:0.14129854;stop-color:#ffffff"
         offset="0.8587"
         id="stop164" /><stop
         style="stop-opacity:0;stop-color:#ffffff"
         offset="1"
         id="stop166" /></radialGradient><mask
       maskUnits="userSpaceOnUse"
       x="0"
       y="0"
       width="1"
       height="1"
       id="mask168"><g
         id="g170"><g
           id="g172"><g
             id="g174"><g
               id="g176"><path
                 d="m -32768,32767 65535,0 0,-65535 -65535,0 0,65535 z"
                 style="fill:url(#radialGradient160);stroke:none"
                 id="path178" /></g></g></g></g></mask><radialGradient
       fx="0"
       fy="0"
       cx="0"
       cy="0"
       r="1"
       gradientUnits="userSpaceOnUse"
       gradientTransform="matrix(-188.28767,188.39421,130.38168,130.30179,255.92499,255.99377)"
       spreadMethod="pad"
       id="radialGradient180"><stop
         style="stop-opacity:1;stop-color:#010101"
         offset="0"
         id="stop182" /><stop
         style="stop-opacity:1;stop-color:#010101"
         offset="0.8587"
         id="stop184" /><stop
         style="stop-opacity:1;stop-color:#010101"
         offset="1"
         id="stop186" /></radialGradient><linearGradient
       x1="0"
       y1="0"
       x2="1"
       y2="0"
       gradientUnits="userSpaceOnUse"
       gradientTransform="matrix(459.99939,0,0,-459.99939,26.000301,256)"
       spreadMethod="pad"
       id="linearGradient218"><stop
         style="stop-opacity:1;stop-color:#8e8e93"
         offset="0"
         id="stop220" /><stop
         style="stop-opacity:1;stop-color:#8e8e93"
         offset="1"
         id="stop222" /></linearGradient><clipPath
       clipPathUnits="userSpaceOnUse"
       id="clipPath230"><path
         d="M 0,512 512,512 512,0 0,0 0,512 Z"
         id="path232" /></clipPath><clipPath
       clipPathUnits="userSpaceOnUse"
       id="clipPath246"><path
         d="m 174.364,336.495 194.555,0 0,-110.092 -194.555,0 0,110.092 z"
         id="path248" /></clipPath><clipPath
       clipPathUnits="userSpaceOnUse"
       id="clipPath250"><path
         d="m 368.919,237.296 c 0,-13.186 -18.309,-10.708 -31.495,-10.708 l -163.06,109.907 163.06,0 c 13.186,0 23.876,-10.69 23.876,-23.876 l 7.619,-75.323 z"
         id="path252" /></clipPath><linearGradient
       x1="0"
       y1="0"
       x2="1"
       y2="0"
       gradientUnits="userSpaceOnUse"
       gradientTransform="matrix(194.55534,0,0,194.55534,174.36407,281.44922)"
       spreadMethod="pad"
       id="linearGradient258"><stop
         style="stop-opacity:1;stop-color:#ffffff"
         offset="0"
         id="stop260" /><stop
         style="stop-opacity:0;stop-color:#ffffff"
         offset="1"
         id="stop262" /></linearGradient><mask
       maskUnits="userSpaceOnUse"
       x="0"
       y="0"
       width="1"
       height="1"
       id="mask264"><g
         id="g266"><g
           id="g268"><g
             id="g270"><g
               id="g272"><path
                 d="m -32768,32767 65535,0 0,-65535 -65535,0 0,65535 z"
                 style="fill:url(#linearGradient258);stroke:none"
                 id="path274" /></g></g></g></g></mask><linearGradient
       x1="0"
       y1="0"
       x2="1"
       y2="0"
       gradientUnits="userSpaceOnUse"
       gradientTransform="matrix(194.55534,0,0,194.55534,174.36407,281.44922)"
       spreadMethod="pad"
       id="linearGradient276"><stop
         style="stop-opacity:1;stop-color:#ffffff"
         offset="0"
         id="stop278" /><stop
         style="stop-opacity:1;stop-color:#ffffff"
         offset="1"
         id="stop280" /></linearGradient><clipPath
       clipPathUnits="userSpaceOnUse"
       id="clipPath304"><path
         d="m 176.083,259.648 1.333,0 0,75.729 -1.333,0 0,-75.729 z"
         id="path306" /></clipPath><linearGradient
       x1="0"
       y1="0"
       x2="1"
       y2="0"
       gradientUnits="userSpaceOnUse"
       gradientTransform="matrix(0,75.72937,75.72937,0,176.74966,259.64795)"
       spreadMethod="pad"
       id="linearGradient316"><stop
         style="stop-opacity:1;stop-color:#ffffff"
         offset="0"
         id="stop318" /><stop
         style="stop-opacity:0;stop-color:#ffffff"
         offset="1"
         id="stop320" /></linearGradient><mask
       maskUnits="userSpaceOnUse"
       x="0"
       y="0"
       width="1"
       height="1"
       id="mask322"><g
         id="g324"><g
           id="g326"><g
             id="g328"><g
               id="g330"><path
                 d="m -32768,32767 65535,0 0,-65535 -65535,0 0,65535 z"
                 style="fill:url(#linearGradient316);stroke:none"
                 id="path332" /></g></g></g></g></mask><linearGradient
       x1="0"
       y1="0"
       x2="1"
       y2="0"
       gradientUnits="userSpaceOnUse"
       gradientTransform="matrix(0,75.72937,75.72937,0,176.74966,259.64795)"
       spreadMethod="pad"
       id="linearGradient338"><stop
         style="stop-opacity:1;stop-color:#b0b0b0"
         offset="0"
         id="stop340" /><stop
         style="stop-opacity:1;stop-color:#e5e5e5"
         offset="1"
         id="stop342" /></linearGradient><clipPath
       clipPathUnits="userSpaceOnUse"
       id="clipPath350"><path
         d="m 334.584,259.648 1.333,0 0,75.729 -1.333,0 0,-75.729 z"
         id="path352" /></clipPath><linearGradient
       x1="0"
       y1="0"
       x2="1"
       y2="0"
       gradientUnits="userSpaceOnUse"
       gradientTransform="matrix(0,75.72937,75.72937,0,335.25034,259.64795)"
       spreadMethod="pad"
       id="linearGradient362"><stop
         style="stop-opacity:1;stop-color:#ffffff"
         offset="0"
         id="stop364" /><stop
         style="stop-opacity:0;stop-color:#ffffff"
         offset="1"
         id="stop366" /></linearGradient><mask
       maskUnits="userSpaceOnUse"
       x="0"
       y="0"
       width="1"
       height="1"
       id="mask368"><g
         id="g370"><g
           id="g372"><g
             id="g374"><g
               id="g376"><path
                 d="m -32768,32767 65535,0 0,-65535 -65535,0 0,65535 z"
                 style="fill:url(#linearGradient362);stroke:none"
                 id="path378" /></g></g></g></g></mask><linearGradient
       x1="0"
       y1="0"
       x2="1"
       y2="0"
       gradientUnits="userSpaceOnUse"
       gradientTransform="matrix(0,75.72937,75.72937,0,335.25034,259.64795)"
       spreadMethod="pad"
       id="linearGradient384"><stop
         style="stop-opacity:1;stop-color:#b0b0b0"
         offset="0"
         id="stop386" /><stop
         style="stop-opacity:1;stop-color:#e5e5e5"
         offset="1"
         id="stop388" /></linearGradient><clipPath
       clipPathUnits="userSpaceOnUse"
       id="clipPath396"><path
         d="M 0,512 512,512 512,0 0,0 0,512 Z"
         id="path398" /></clipPath></defs><g
     id="g10"
     transform="matrix(1.25,0,0,-1.25,0,640)"><g
       id="g12"><g
         id="g14"
         clip-path="url(#clipPath16)"><g
           id="g20"><g
             id="g22" /><g
             id="g64"><g
               clip-path="url(#clipPath24)"
               id="g66"
               style="opacity:0.39999402"><g
                 id="g68"><g
                   clip-path="url(#clipPath28)"
                   id="g70"><g
                     id="g72"><g
                       id="g74" /><g
                       mask="url(#mask44)"
                       id="g76"><g
                         id="g78"><path
                           d="M 448.99,63.029 C 389.293,3.332 122.807,3.332 63.11,63.029 3.413,122.726 3.413,389.312 63.01,449.009 c 59.597,59.696 326.283,59.596 385.98,0 59.697,-59.597 59.597,-326.283 0,-385.98"
                           style="fill:url(#radialGradient56);stroke:none"
                           id="path80" /></g></g></g></g></g></g></g></g><g
           id="g82"><g
             id="g84" /><g
             id="g126"><g
               clip-path="url(#clipPath86)"
               id="g128"
               style="opacity:0.39999402"><g
                 id="g130"><g
                   clip-path="url(#clipPath90)"
                   id="g132"><g
                     id="g134"><g
                       id="g136" /><g
                       mask="url(#mask106)"
                       id="g138"><g
                         id="g140"><path
                           d="M 448.99,63.029 C 389.293,3.332 122.807,3.332 63.11,63.029 3.413,122.726 3.413,389.312 63.01,449.009 c 59.597,59.696 326.283,59.596 385.98,0 59.697,-59.597 59.597,-326.283 0,-385.98"
                           style="fill:url(#radialGradient118);stroke:none"
                           id="path142" /></g></g></g></g></g></g></g></g><g
           id="g144"><g
             id="g146" /><g
             id="g188"><g
               clip-path="url(#clipPath148)"
               id="g190"
               style="opacity:0.39999402"><g
                 id="g192"><g
                   clip-path="url(#clipPath152)"
                   id="g194"><g
                     id="g196"><g
                       id="g198" /><g
                       mask="url(#mask168)"
                       id="g200"><g
                         id="g202"><path
                           d="m 63.01,63.029 c 59.697,-59.697 326.183,-59.697 385.88,0 59.697,59.697 59.697,326.183 0,385.88 -59.697,59.696 -326.183,59.696 -385.88,0.1 -59.697,-59.597 -59.597,-326.283 0,-385.98"
                           style="fill:url(#radialGradient180);stroke:none"
                           id="path204" /></g></g></g></g></g></g></g></g></g></g><g
       id="g206"><g
         id="g208"><g
           id="g214"><g
             id="g216"><path
               d="M 78.721,433.279 C 8.427,362.985 8.427,149.015 78.721,78.721 l 0,0 c 70.294,-70.294 284.263,-70.294 354.558,0 l 0,0 c 70.294,70.294 70.294,284.264 0,354.558 l 0,0 C 398.132,468.426 327.066,486 256,486 l 0,0 C 184.934,486 113.868,468.426 78.721,433.279"
               style="fill:#ff6600;stroke:none"
               id="path224" /></g></g></g></g><g
       id="g226"><g
         id="g228"
         clip-path="url(#clipPath230)"><g
           id="g234"
           transform="translate(322.2814,326.6808)"><path
             d="m 0,0 c 0,-2.357 -1.91,-4.267 -4.267,-4.267 l -124.029,0 c -2.357,0 -4.267,1.91 -4.267,4.267 l 0,44.377 c 0,2.357 1.91,4.267 4.267,4.267 l 124.029,0 C -1.91,48.644 0,46.734 0,44.377 L 0,0 Z"
             style="fill:#231f20;fill-opacity:1;fill-rule:nonzero;stroke:none"
             id="path236" /></g><g
           id="g238"
           transform="translate(368.9194,237.2961)"><path
             d="m 0,0 c 0,-13.187 -18.309,-10.708 -31.496,-10.708 l -163.059,0 c -13.187,0 -31.283,-2.478 -31.283,10.708 l 7.407,75.323 c 0,13.186 10.69,23.876 23.876,23.876 l 163.06,0 c 13.186,0 23.876,-10.69 23.876,-23.876 L 0,0 Z"
             style="fill:#f4f4f4;fill-opacity:1;fill-rule:nonzero;stroke:none"
             id="path240" /></g><g
           id="g242"><g
             id="g244" /><g
             id="g282"><g
               clip-path="url(#clipPath246)"
               id="g284"
               style="opacity:0.39999402"><g
                 id="g286"><g
                   clip-path="url(#clipPath250)"
                   id="g288"><g
                     id="g290"><g
                       id="g292" /><g
                       mask="url(#mask264)"
                       id="g294"><g
                         id="g296"><path
                           d="m 368.919,237.296 c 0,-13.186 -18.309,-10.708 -31.495,-10.708 l -163.06,109.907 163.06,0 c 13.186,0 23.876,-10.69 23.876,-23.876 l 7.619,-75.323 z"
                           style="fill:url(#linearGradient276);stroke:none"
                           id="path298" /></g></g></g></g></g></g></g></g></g></g><g
       id="g300"><g
         id="g302"
         clip-path="url(#clipPath304)"><g
           id="g308"><g
             id="g310" /><g
             id="g334"
             mask="url(#mask322)"><g
               id="g336"><path
                 d="m 176.083,259.648 1.333,0 0,75.729 -1.333,0 0,-75.729 z"
                 style="fill:url(#linearGradient338);stroke:none"
                 id="path344" /></g></g></g></g></g><g
       id="g346"><g
         id="g348"
         clip-path="url(#clipPath350)"><g
           id="g354"><g
             id="g356" /><g
             id="g380"
             mask="url(#mask368)"><g
               id="g382"><path
                 d="m 334.584,259.648 1.333,0 0,75.729 -1.333,0 0,-75.729 z"
                 style="fill:url(#linearGradient384);stroke:none"
                 id="path390" /></g></g></g></g></g><g
       id="g392"><g
         id="g394"
         clip-path="url(#clipPath396)"><g
           id="g400"
           transform="translate(369.026,162.2773)"><path
             d="m 0,0 c 0,-14.14 -11.462,-25.602 -25.602,-25.602 l -174.848,0 c -14.14,0 -25.602,11.462 -25.602,25.602 l 0,66.647 c 0,14.14 11.462,25.602 25.602,25.602 l 174.848,0 C -11.462,92.249 0,80.787 0,66.647 L 0,0 Z"
             style="fill:#f4f4f4;fill-opacity:1;fill-rule:nonzero;stroke:none"
             id="path402" /></g><g
           id="g404"
           transform="translate(369.026,167.3977)"><path
             d="m 0,0 c 0,-14.14 -11.462,-25.602 -25.602,-25.602 l -174.848,0 c -14.14,0 -25.602,11.462 -25.602,25.602 l 0,66.647 c 0,14.14 11.462,25.602 25.602,25.602 l 174.848,0 C -11.462,92.249 0,80.787 0,66.647 L 0,0 Z"
             style="fill:#231f20;fill-opacity:1;fill-rule:nonzero;stroke:none"
             id="path406" /></g><g
           id="g408"
           transform="translate(294.119,246.4606)"><path
             d="m 0,0 c 0,-2.357 -1.91,-4.267 -4.267,-4.267 l -67.703,0 c -2.357,0 -4.267,1.91 -4.267,4.267 l 0,2.276 c 0,2.357 1.91,4.267 4.267,4.267 l 67.703,0 C -1.91,6.543 0,4.633 0,2.276 L 0,0 Z"
             style="fill:#1d3bed;fill-opacity:1;fill-rule:nonzero;stroke:none"
             id="path410" /></g></g></g></g><path
     d="m 320,364.11312 c -21.25625,0 -38.48875,-17.23125 -38.48875,-38.48875 0,-21.25625 17.2325,-38.4875 38.48875,-38.4875 21.25625,0 38.48875,17.23125 38.48875,38.4875 0,21.2575 -17.2325,38.48875 -38.48875,38.48875 m 0,-97.48375 c -55.28625,0 -100.10125,58.995 -100.10125,58.995 0,0 44.8175,58.99626 100.10125,58.99626 55.28625,0 100.10125,-58.99626 100.10125,-58.99626 0,0 -44.8175,-58.995 -100.10125,-58.995"
     style="opacity:0.39999402;fill:#000000;fill-opacity:1;fill-rule:nonzero;stroke:none"
     id="path268" /><path
     d="m 320,352.86312 c -21.25625,0 -38.48875,-17.23125 -38.48875,-38.48875 0,-21.25625 17.2325,-38.4875 38.48875,-38.4875 21.25625,0 38.48875,17.23125 38.48875,38.4875 0,21.2575 -17.2325,38.48875 -38.48875,38.48875 m 0,-97.48375 c -55.28625,0 -100.10125,58.995 -100.10125,58.995 0,0 44.8175,58.99626 100.10125,58.99626 55.28625,0 100.10125,-58.99626 100.10125,-58.99626 0,0 -44.8175,-58.995 -100.10125,-58.995"
     style="opacity:0.94999701;fill:#ffcc00;fill-opacity:1;fill-rule:nonzero;stroke:none"
     id="path284" /></svg>