<?xml version="1.0" encoding="UTF-8" standalone="no"?>
<svg
   xmlns:dc="http://purl.org/dc/elements/1.1/"
   xmlns:cc="http://creativecommons.org/ns#"
   xmlns:rdf="http://www.w3.org/1999/02/22-rdf-syntax-ns#"
   xmlns:svg="http://www.w3.org/2000/svg"
   xmlns="http://www.w3.org/2000/svg"
   viewBox="0 0 640 640"
   height="640"
   width="640"
   xml:space="preserve"
   version="1.1"
   id="svg2"><metadata
     id="metadata8"><rdf:RDF><cc:Work
         rdf:about=""><dc:format>image/svg+xml</dc:format><dc:type
           rdf:resource="http://purl.org/dc/dcmitype/StillImage" /></cc:Work></rdf:RDF></metadata><defs
     id="defs6"><clipPath
       id="clipPath16"
       clipPathUnits="userSpaceOnUse"><path
         id="path18"
         d="M 0,512 512,512 512,0 0,0 0,512 Z" /></clipPath><clipPath
       id="clipPath24"
       clipPathUnits="userSpaceOnUse"><path
         id="path26"
         d="m 18.325,493.744 475.4,0 0,-475.4877 -475.4,0 0,475.4877 z" /></clipPath><clipPath
       id="clipPath28"
       clipPathUnits="userSpaceOnUse"><path
         id="path30"
         d="M 448.99,63.029 C 389.293,3.332 122.807,3.332 63.11,63.029 3.413,122.726 3.413,389.312 63.01,449.009 c 59.597,59.696 326.283,59.596 385.98,0 59.697,-59.597 59.597,-326.283 0,-385.98" /></clipPath><radialGradient
       id="radialGradient36"
       spreadMethod="pad"
       gradientTransform="matrix(237.72188,0,0,237.72188,256.02499,256)"
       gradientUnits="userSpaceOnUse"
       r="1"
       cy="0"
       cx="0"
       fy="0"
       fx="0"><stop
         id="stop38"
         offset="0"
         style="stop-opacity:1;stop-color:#ffffff" /><stop
         id="stop40"
         offset="0.8587"
         style="stop-opacity:0.14129854;stop-color:#ffffff" /><stop
         id="stop42"
         offset="1"
         style="stop-opacity:0;stop-color:#ffffff" /></radialGradient><mask
       id="mask44"
       height="1"
       width="1"
       y="0"
       x="0"
       maskUnits="userSpaceOnUse"><g
         id="g46"><g
           id="g48"><g
             id="g50"><g
               id="g52"><path
                 id="path54"
                 style="fill:url(#radialGradient36);stroke:none"
                 d="m -32768,32767 65535,0 0,-65535 -65535,0 0,65535 z" /></g></g></g></g></mask><radialGradient
       id="radialGradient56"
       spreadMethod="pad"
       gradientTransform="matrix(237.72188,0,0,237.72188,256.02499,256)"
       gradientUnits="userSpaceOnUse"
       r="1"
       cy="0"
       cx="0"
       fy="0"
       fx="0"><stop
         id="stop58"
         offset="0"
         style="stop-opacity:1;stop-color:#010101" /><stop
         id="stop60"
         offset="0.8587"
         style="stop-opacity:1;stop-color:#010101" /><stop
         id="stop62"
         offset="1"
         style="stop-opacity:1;stop-color:#010101" /></radialGradient><clipPath
       id="clipPath86"
       clipPathUnits="userSpaceOnUse"><path
         id="path88"
         d="m 18.325,493.744 475.4,0 0,-475.4877 -475.4,0 0,475.4877 z" /></clipPath><clipPath
       id="clipPath90"
       clipPathUnits="userSpaceOnUse"><path
         id="path92"
         d="M 448.99,63.029 C 389.293,3.332 122.807,3.332 63.11,63.029 3.413,122.726 3.413,389.312 63.01,449.009 c 59.597,59.696 326.283,59.596 385.98,0 59.697,-59.597 59.597,-326.283 0,-385.98" /></clipPath><radialGradient
       id="radialGradient98"
       spreadMethod="pad"
       gradientTransform="matrix(188.25467,188.36119,-130.35883,130.27895,256.02499,256.04376)"
       gradientUnits="userSpaceOnUse"
       r="1"
       cy="0"
       cx="0"
       fy="0"
       fx="0"><stop
         id="stop100"
         offset="0"
         style="stop-opacity:1;stop-color:#ffffff" /><stop
         id="stop102"
         offset="0.8587"
         style="stop-opacity:0.14129854;stop-color:#ffffff" /><stop
         id="stop104"
         offset="1"
         style="stop-opacity:0;stop-color:#ffffff" /></radialGradient><mask
       id="mask106"
       height="1"
       width="1"
       y="0"
       x="0"
       maskUnits="userSpaceOnUse"><g
         id="g108"><g
           id="g110"><g
             id="g112"><g
               id="g114"><path
                 id="path116"
                 style="fill:url(#radialGradient98);stroke:none"
                 d="m -32768,32767 65535,0 0,-65535 -65535,0 0,65535 z" /></g></g></g></g></mask><radialGradient
       id="radialGradient118"
       spreadMethod="pad"
       gradientTransform="matrix(188.25467,188.36119,-130.35883,130.27895,256.02499,256.04376)"
       gradientUnits="userSpaceOnUse"
       r="1"
       cy="0"
       cx="0"
       fy="0"
       fx="0"><stop
         id="stop120"
         offset="0"
         style="stop-opacity:1;stop-color:#010101" /><stop
         id="stop122"
         offset="0.8587"
         style="stop-opacity:1;stop-color:#010101" /><stop
         id="stop124"
         offset="1"
         style="stop-opacity:1;stop-color:#010101" /></radialGradient><clipPath
       id="clipPath148"
       clipPathUnits="userSpaceOnUse"><path
         id="path150"
         d="m 18.275,493.694 475.387,0 0,-475.4377 -475.387,0 0,475.4377 z" /></clipPath><clipPath
       id="clipPath152"
       clipPathUnits="userSpaceOnUse"><path
         id="path154"
         d="m 63.01,63.029 c 59.697,-59.697 326.183,-59.697 385.88,0 59.697,59.697 59.697,326.183 0,385.88 -59.697,59.696 -326.183,59.696 -385.88,0.1 -59.697,-59.597 -59.597,-326.283 0,-385.98" /></clipPath><radialGradient
       id="radialGradient160"
       spreadMethod="pad"
       gradientTransform="matrix(-188.28767,188.39421,130.38168,130.30179,255.92499,255.99377)"
       gradientUnits="userSpaceOnUse"
       r="1"
       cy="0"
       cx="0"
       fy="0"
       fx="0"><stop
         id="stop162"
         offset="0"
         style="stop-opacity:1;stop-color:#ffffff" /><stop
         id="stop164"
         offset="0.8587"
         style="stop-opacity:0.14129854;stop-color:#ffffff" /><stop
         id="stop166"
         offset="1"
         style="stop-opacity:0;stop-color:#ffffff" /></radialGradient><mask
       id="mask168"
       height="1"
       width="1"
       y="0"
       x="0"
       maskUnits="userSpaceOnUse"><g
         id="g170"><g
           id="g172"><g
             id="g174"><g
               id="g176"><path
                 id="path178"
                 style="fill:url(#radialGradient160);stroke:none"
                 d="m -32768,32767 65535,0 0,-65535 -65535,0 0,65535 z" /></g></g></g></g></mask><radialGradient
       id="radialGradient180"
       spreadMethod="pad"
       gradientTransform="matrix(-188.28767,188.39421,130.38168,130.30179,255.92499,255.99377)"
       gradientUnits="userSpaceOnUse"
       r="1"
       cy="0"
       cx="0"
       fy="0"
       fx="0"><stop
         id="stop182"
         offset="0"
         style="stop-opacity:1;stop-color:#010101" /><stop
         id="stop184"
         offset="0.8587"
         style="stop-opacity:1;stop-color:#010101" /><stop
         id="stop186"
         offset="1"
         style="stop-opacity:1;stop-color:#010101" /></radialGradient><linearGradient
       id="linearGradient218"
       spreadMethod="pad"
       gradientTransform="matrix(0,459.99902,459.99902,0,256.00018,26.000503)"
       gradientUnits="userSpaceOnUse"
       y2="0"
       x2="1"
       y1="0"
       x1="0"><stop
         id="stop220"
         offset="0"
         style="stop-opacity:1;stop-color:#81f1fd" /><stop
         id="stop222"
         offset="1"
         style="stop-opacity:1;stop-color:#2279f0" /></linearGradient><clipPath
       id="clipPath230"
       clipPathUnits="userSpaceOnUse"><path
         id="path232"
         d="M 0,512 512,512 512,0 0,0 0,512 Z" /></clipPath></defs><g
     transform="matrix(1.25,0,0,-1.25,0,640)"
     id="g10"><g
       id="g12"><g
         clip-path="url(#clipPath16)"
         id="g14"><g
           id="g20"><g
             id="g22" /><g
             id="g64"><g
               style="opacity:0.39999402"
               id="g66"
               clip-path="url(#clipPath24)"><g
                 id="g68"><g
                   id="g70"
                   clip-path="url(#clipPath28)"><g
                     id="g72"><g
                       id="g74" /><g
                       id="g76"
                       mask="url(#mask44)"><g
                         id="g78"><path
                           id="path80"
                           style="fill:url(#radialGradient56);stroke:none"
                           d="M 448.99,63.029 C 389.293,3.332 122.807,3.332 63.11,63.029 3.413,122.726 3.413,389.312 63.01,449.009 c 59.597,59.696 326.283,59.596 385.98,0 59.697,-59.597 59.597,-326.283 0,-385.98" /></g></g></g></g></g></g></g></g><g
           id="g82"><g
             id="g84" /><g
             id="g126"><g
               style="opacity:0.39999402"
               id="g128"
               clip-path="url(#clipPath86)"><g
                 id="g130"><g
                   id="g132"
                   clip-path="url(#clipPath90)"><g
                     id="g134"><g
                       id="g136" /><g
                       id="g138"
                       mask="url(#mask106)"><g
                         id="g140"><path
                           id="path142"
                           style="fill:url(#radialGradient118);stroke:none"
                           d="M 448.99,63.029 C 389.293,3.332 122.807,3.332 63.11,63.029 3.413,122.726 3.413,389.312 63.01,449.009 c 59.597,59.696 326.283,59.596 385.98,0 59.697,-59.597 59.597,-326.283 0,-385.98" /></g></g></g></g></g></g></g></g><g
           id="g144"><g
             id="g146" /><g
             id="g188"><g
               style="opacity:0.39999402"
               id="g190"
               clip-path="url(#clipPath148)"><g
                 id="g192"><g
                   id="g194"
                   clip-path="url(#clipPath152)"><g
                     id="g196"><g
                       id="g198" /><g
                       id="g200"
                       mask="url(#mask168)"><g
                         id="g202"><path
                           id="path204"
                           style="fill:url(#radialGradient180);stroke:none"
                           d="m 63.01,63.029 c 59.697,-59.697 326.183,-59.697 385.88,0 59.697,59.697 59.697,326.183 0,385.88 -59.697,59.696 -326.183,59.696 -385.88,0.1 -59.697,-59.597 -59.597,-326.283 0,-385.98" /></g></g></g></g></g></g></g></g></g></g><g
       id="g206"><g
         id="g208"><g
           id="g214"><g
             id="g216"><path
               id="path224"
               style="fill:url(#linearGradient218);stroke:none"
               d="M 78.721,433.279 C 8.427,362.985 8.427,149.015 78.721,78.721 l 0,0 c 70.294,-70.294 284.264,-70.294 354.558,0 l 0,0 c 70.295,70.294 70.294,284.264 0,354.558 l 0,0 C 398.132,468.426 327.066,486 256,486 l 0,0 C 184.934,486 113.868,468.426 78.721,433.279" /></g></g></g></g><g
       id="g226"><g
         clip-path="url(#clipPath230)"
         id="g228"><g
           transform="translate(457.572,125.9248)"
           id="g234"><path
             id="path236"
             style="fill:#ffffff;fill-opacity:1;fill-rule:nonzero;stroke:none"
             d="m 0,0 c -5.943,4.283 -12.861,7.377 -20.285,9.031 -7.03,1.576 -14.512,1.881 -22.204,1.14 5.478,1.713 10.686,2.606 15.457,2.689 6.427,0.112 12.021,-1.314 16.522,-3.623 C -6,6.928 -2.579,3.779 -0.1,0.798 0.387,0.208 0.828,-0.371 1.246,-0.94 0.831,-0.624 0.424,-0.303 0,0 m -129.023,-26.392 c -0.98,-0.686 -1.963,-1.348 -2.95,-1.987 -4.791,4.234 -9.219,9.618 -13.224,15.818 -6.116,9.397 -11.317,20.413 -16.386,31.276 -1.819,3.899 -3.63,7.787 -5.468,11.599 0.732,-1.328 1.467,-2.666 2.21,-4.017 5.439,-9.866 11.345,-20.385 18.802,-29.233 3.701,-4.436 7.795,-8.341 12.131,-11.588 3.748,-2.796 7.697,-4.997 11.718,-6.683 -2.259,-1.826 -4.537,-3.567 -6.833,-5.185 m -25.546,-9.53 c -3.999,0.527 -7.592,2.649 -10.656,6.467 -3.07,3.807 -5.591,9.184 -7.692,15.051 -2.107,5.883 -3.843,12.227 -5.474,18.567 -1.629,6.349 -3.155,12.719 -4.773,18.909 -0.709,2.71 -1.441,5.379 -2.199,8.006 3.093,0.588 6.135,1.321 9.118,2.193 2.901,-6.542 5.676,-13.616 8.547,-20.921 4.524,-11.471 9.32,-23.643 15.585,-34.951 2.337,-4.214 4.884,-8.284 7.658,-12.071 -3.468,-1.153 -6.897,-1.694 -10.114,-1.25 M -197.97,74.037 c -3.371,1.181 -6.651,1.768 -9.755,2.014 -1.554,0.164 -3.066,0.12 -4.531,0.131 -0.51,-0.032 -14.322,-0.202 -21.155,-8.882 -22.03,10.949 -37.212,33.683 -37.212,59.908 0,36.87 29.996,66.865 66.865,66.865 36.869,0 66.864,-29.994 66.864,-66.864 0,-29.271 -18.913,-54.191 -45.155,-63.227 -1.869,1.748 -3.767,3.323 -5.682,4.683 -3.41,2.44 -6.872,4.19 -10.239,5.372 m -0.09,-13.434 c -1.863,2.596 -3.85,4.816 -5.904,6.566 -1.418,1.216 -2.857,2.204 -4.292,3.013 3.422,-1.1 6.944,-2.803 10.405,-5.41 1.428,-1.071 2.839,-2.296 4.226,-3.661 -1.462,-0.223 -2.944,-0.381 -4.435,-0.508 m -5.699,-0.259 c -7.513,0 -14.733,1.264 -21.48,3.56 1.634,3.593 4.907,6.356 11.377,4.935 2.954,-0.648 5.65,-3.041 8.315,-5.777 0.802,-0.82 1.583,-1.729 2.343,-2.704 -0.186,-0.002 -0.369,-0.014 -0.555,-0.014 M 12.977,29.809 c -4.56,4.717 -10.549,9.21 -17.609,11.954 -7.049,2.77 -15.076,3.758 -23.402,2.703 -8.332,-1.05 -16.968,-3.994 -25.575,-8.475 -8.618,-4.468 -17.231,-10.418 -25.725,-17.405 -4.248,-3.494 -8.477,-7.23 -12.663,-11.191 -2.083,-2.003 -4.182,-4.003 -6.247,-6.104 -2.006,-2.034 -4.021,-4.079 -6.045,-6.131 -0.232,-0.232 -0.468,-0.462 -0.701,-0.694 -4.37,-0.141 -8.725,0.207 -12.996,1.246 -4.03,0.985 -7.986,2.529 -11.771,4.78 -3.779,2.265 -7.425,5.107 -10.857,8.569 -6.903,6.857 -12.967,15.908 -18.862,25.013 -0.961,1.483 -1.921,2.965 -2.881,4.443 33.352,15.596 56.462,49.443 56.462,88.694 0,54.05 -43.816,97.865 -97.865,97.865 -54.05,0 -97.865,-43.816 -97.865,-97.865 0,-41.141 25.388,-76.347 61.35,-90.82 l -19.999,-19.999 17.364,-29.305 42.311,42.311 c 3.286,0.105 6.53,0.372 9.727,0.793 0.791,-3.296 1.531,-6.706 2.24,-10.201 1.264,-6.201 2.45,-12.69 3.783,-19.386 1.34,-6.692 2.809,-13.607 4.851,-20.574 2.048,-6.919 4.72,-14.058 8.801,-20.072 2.039,-2.969 4.413,-5.608 7.028,-7.56 2.604,-1.988 5.411,-3.301 8.213,-4.047 5.635,-1.485 11.183,-0.835 16.429,0.626 2.608,0.735 5.158,1.681 7.662,2.775 1.028,-0.85 2.068,-1.664 3.125,-2.426 9.188,-6.688 19.236,-9.818 28.914,-10.683 4.854,-0.456 9.646,-0.361 14.338,0.07 l 1.789,0.191 1.738,0.211 1.649,0.222 1.65,0.197 c 2.107,0.213 4.196,0.553 6.264,0.66 8.274,0.657 16.214,0.371 23.555,-0.878 2.108,-0.362 4.161,-0.805 6.165,-1.312 6.869,4.528 13.047,9.454 18.385,14.792 2.311,2.312 4.542,4.787 6.702,7.399 -1.967,0.925 -3.986,1.781 -6.062,2.546 -7.46,2.752 -15.58,4.202 -24.039,4.548 -8.463,0.332 -17.269,-0.524 -26.192,-2.399 -2.239,-0.414 -4.462,-1.06 -6.714,-1.588 -1.081,-0.275 -2.166,-0.551 -3.255,-0.829 l -1.557,-0.383 -1.521,-0.353 c -4.156,-0.899 -8.367,-1.498 -12.581,-1.624 -4.947,-0.166 -9.908,0.333 -14.743,1.687 5.652,3.856 11.112,8.109 16.449,12.529 1.923,0.021 3.835,0.11 5.73,0.262 4.622,0.433 9.096,1.129 13.664,2.164 2.245,0.51 4.18,1.019 6.437,1.588 2.019,0.526 4.024,0.984 6.01,1.418 7.945,1.674 15.608,2.495 22.728,2.332 7.116,-0.171 13.683,-1.344 19.373,-3.433 5.543,-2.024 10.226,-4.91 13.906,-8.154 10.511,15.747 18.87,35.244 25.063,56.975 -0.672,0.775 -1.378,1.553 -2.128,2.328" /></g></g></g></g></svg>