<?xml version="1.0" encoding="UTF-8" standalone="no"?>
<svg
   xmlns:dc="http://purl.org/dc/elements/1.1/"
   xmlns:cc="http://creativecommons.org/ns#"
   xmlns:rdf="http://www.w3.org/1999/02/22-rdf-syntax-ns#"
   xmlns:svg="http://www.w3.org/2000/svg"
   xmlns="http://www.w3.org/2000/svg"
   viewBox="0 0 640 640"
   height="640"
   width="640"
   xml:space="preserve"
   version="1.1"
   id="svg2"><metadata
     id="metadata8"><rdf:RDF><cc:Work
         rdf:about=""><dc:format>image/svg+xml</dc:format><dc:type
           rdf:resource="http://purl.org/dc/dcmitype/StillImage" /></cc:Work></rdf:RDF></metadata><defs
     id="defs6"><clipPath
       id="clipPath16"
       clipPathUnits="userSpaceOnUse"><path
         id="path18"
         d="M 0,512 512,512 512,0 0,0 0,512 Z" /></clipPath><clipPath
       id="clipPath24"
       clipPathUnits="userSpaceOnUse"><path
         id="path26"
         d="m 18.325,493.744 475.4,0 0,-475.4877 -475.4,0 0,475.4877 z" /></clipPath><clipPath
       id="clipPath28"
       clipPathUnits="userSpaceOnUse"><path
         id="path30"
         d="M 448.99,63.029 C 389.293,3.332 122.807,3.332 63.11,63.029 3.413,122.726 3.413,389.312 63.01,449.009 c 59.597,59.696 326.283,59.596 385.98,0 59.697,-59.597 59.597,-326.283 0,-385.98" /></clipPath><radialGradient
       id="radialGradient36"
       spreadMethod="pad"
       gradientTransform="matrix(237.72188,0,0,237.72188,256.02499,256)"
       gradientUnits="userSpaceOnUse"
       r="1"
       cy="0"
       cx="0"
       fy="0"
       fx="0"><stop
         id="stop38"
         offset="0"
         style="stop-opacity:1;stop-color:#ffffff" /><stop
         id="stop40"
         offset="0.8587"
         style="stop-opacity:0.14129854;stop-color:#ffffff" /><stop
         id="stop42"
         offset="1"
         style="stop-opacity:0;stop-color:#ffffff" /></radialGradient><mask
       id="mask44"
       height="1"
       width="1"
       y="0"
       x="0"
       maskUnits="userSpaceOnUse"><g
         id="g46"><g
           id="g48"><g
             id="g50"><g
               id="g52"><path
                 id="path54"
                 style="fill:url(#radialGradient36);stroke:none"
                 d="m -32768,32767 65535,0 0,-65535 -65535,0 0,65535 z" /></g></g></g></g></mask><radialGradient
       id="radialGradient56"
       spreadMethod="pad"
       gradientTransform="matrix(237.72188,0,0,237.72188,256.02499,256)"
       gradientUnits="userSpaceOnUse"
       r="1"
       cy="0"
       cx="0"
       fy="0"
       fx="0"><stop
         id="stop58"
         offset="0"
         style="stop-opacity:1;stop-color:#010101" /><stop
         id="stop60"
         offset="0.8587"
         style="stop-opacity:1;stop-color:#010101" /><stop
         id="stop62"
         offset="1"
         style="stop-opacity:1;stop-color:#010101" /></radialGradient><clipPath
       id="clipPath86"
       clipPathUnits="userSpaceOnUse"><path
         id="path88"
         d="m 18.325,493.744 475.4,0 0,-475.4877 -475.4,0 0,475.4877 z" /></clipPath><clipPath
       id="clipPath90"
       clipPathUnits="userSpaceOnUse"><path
         id="path92"
         d="M 448.99,63.029 C 389.293,3.332 122.807,3.332 63.11,63.029 3.413,122.726 3.413,389.312 63.01,449.009 c 59.597,59.696 326.283,59.596 385.98,0 59.697,-59.597 59.597,-326.283 0,-385.98" /></clipPath><radialGradient
       id="radialGradient98"
       spreadMethod="pad"
       gradientTransform="matrix(188.25467,188.36119,-130.35883,130.27895,256.02499,256.04376)"
       gradientUnits="userSpaceOnUse"
       r="1"
       cy="0"
       cx="0"
       fy="0"
       fx="0"><stop
         id="stop100"
         offset="0"
         style="stop-opacity:1;stop-color:#ffffff" /><stop
         id="stop102"
         offset="0.8587"
         style="stop-opacity:0.14129854;stop-color:#ffffff" /><stop
         id="stop104"
         offset="1"
         style="stop-opacity:0;stop-color:#ffffff" /></radialGradient><mask
       id="mask106"
       height="1"
       width="1"
       y="0"
       x="0"
       maskUnits="userSpaceOnUse"><g
         id="g108"><g
           id="g110"><g
             id="g112"><g
               id="g114"><path
                 id="path116"
                 style="fill:url(#radialGradient98);stroke:none"
                 d="m -32768,32767 65535,0 0,-65535 -65535,0 0,65535 z" /></g></g></g></g></mask><radialGradient
       id="radialGradient118"
       spreadMethod="pad"
       gradientTransform="matrix(188.25467,188.36119,-130.35883,130.27895,256.02499,256.04376)"
       gradientUnits="userSpaceOnUse"
       r="1"
       cy="0"
       cx="0"
       fy="0"
       fx="0"><stop
         id="stop120"
         offset="0"
         style="stop-opacity:1;stop-color:#010101" /><stop
         id="stop122"
         offset="0.8587"
         style="stop-opacity:1;stop-color:#010101" /><stop
         id="stop124"
         offset="1"
         style="stop-opacity:1;stop-color:#010101" /></radialGradient><clipPath
       id="clipPath148"
       clipPathUnits="userSpaceOnUse"><path
         id="path150"
         d="m 18.275,493.694 475.387,0 0,-475.4377 -475.387,0 0,475.4377 z" /></clipPath><clipPath
       id="clipPath152"
       clipPathUnits="userSpaceOnUse"><path
         id="path154"
         d="m 63.01,63.029 c 59.697,-59.697 326.183,-59.697 385.88,0 59.697,59.697 59.697,326.183 0,385.88 -59.697,59.696 -326.183,59.696 -385.88,0.1 -59.697,-59.597 -59.597,-326.283 0,-385.98" /></clipPath><radialGradient
       id="radialGradient160"
       spreadMethod="pad"
       gradientTransform="matrix(-188.28767,188.39421,130.38168,130.30179,255.92499,255.99377)"
       gradientUnits="userSpaceOnUse"
       r="1"
       cy="0"
       cx="0"
       fy="0"
       fx="0"><stop
         id="stop162"
         offset="0"
         style="stop-opacity:1;stop-color:#ffffff" /><stop
         id="stop164"
         offset="0.8587"
         style="stop-opacity:0.14129854;stop-color:#ffffff" /><stop
         id="stop166"
         offset="1"
         style="stop-opacity:0;stop-color:#ffffff" /></radialGradient><mask
       id="mask168"
       height="1"
       width="1"
       y="0"
       x="0"
       maskUnits="userSpaceOnUse"><g
         id="g170"><g
           id="g172"><g
             id="g174"><g
               id="g176"><path
                 id="path178"
                 style="fill:url(#radialGradient160);stroke:none"
                 d="m -32768,32767 65535,0 0,-65535 -65535,0 0,65535 z" /></g></g></g></g></mask><radialGradient
       id="radialGradient180"
       spreadMethod="pad"
       gradientTransform="matrix(-188.28767,188.39421,130.38168,130.30179,255.92499,255.99377)"
       gradientUnits="userSpaceOnUse"
       r="1"
       cy="0"
       cx="0"
       fy="0"
       fx="0"><stop
         id="stop182"
         offset="0"
         style="stop-opacity:1;stop-color:#010101" /><stop
         id="stop184"
         offset="0.8587"
         style="stop-opacity:1;stop-color:#010101" /><stop
         id="stop186"
         offset="1"
         style="stop-opacity:1;stop-color:#010101" /></radialGradient><linearGradient
       id="linearGradient218"
       spreadMethod="pad"
       gradientTransform="matrix(0,459.99902,459.99902,0,256.00018,26.000488)"
       gradientUnits="userSpaceOnUse"
       y2="0"
       x2="1"
       y1="0"
       x1="0"><stop
         id="stop220"
         offset="0"
         style="stop-opacity:1;stop-color:#ff7c31" /><stop
         id="stop222"
         offset="1"
         style="stop-opacity:1;stop-color:#ff3c31" /></linearGradient><clipPath
       id="clipPath230"
       clipPathUnits="userSpaceOnUse"><path
         id="path232"
         d="M 0,512 512,512 512,0 0,0 0,512 Z" /></clipPath></defs><g
     transform="matrix(1.25,0,0,-1.25,0,640)"
     id="g10"><g
       id="g12"><g
         clip-path="url(#clipPath16)"
         id="g14"><g
           id="g20"><g
             id="g22" /><g
             id="g64"><g
               style="opacity:0.39999402"
               id="g66"
               clip-path="url(#clipPath24)"><g
                 id="g68"><g
                   id="g70"
                   clip-path="url(#clipPath28)"><g
                     id="g72"><g
                       id="g74" /><g
                       id="g76"
                       mask="url(#mask44)"><g
                         id="g78"><path
                           id="path80"
                           style="fill:url(#radialGradient56);stroke:none"
                           d="M 448.99,63.029 C 389.293,3.332 122.807,3.332 63.11,63.029 3.413,122.726 3.413,389.312 63.01,449.009 c 59.597,59.696 326.283,59.596 385.98,0 59.697,-59.597 59.597,-326.283 0,-385.98" /></g></g></g></g></g></g></g></g><g
           id="g82"><g
             id="g84" /><g
             id="g126"><g
               style="opacity:0.39999402"
               id="g128"
               clip-path="url(#clipPath86)"><g
                 id="g130"><g
                   id="g132"
                   clip-path="url(#clipPath90)"><g
                     id="g134"><g
                       id="g136" /><g
                       id="g138"
                       mask="url(#mask106)"><g
                         id="g140"><path
                           id="path142"
                           style="fill:url(#radialGradient118);stroke:none"
                           d="M 448.99,63.029 C 389.293,3.332 122.807,3.332 63.11,63.029 3.413,122.726 3.413,389.312 63.01,449.009 c 59.597,59.696 326.283,59.596 385.98,0 59.697,-59.597 59.597,-326.283 0,-385.98" /></g></g></g></g></g></g></g></g><g
           id="g144"><g
             id="g146" /><g
             id="g188"><g
               style="opacity:0.39999402"
               id="g190"
               clip-path="url(#clipPath148)"><g
                 id="g192"><g
                   id="g194"
                   clip-path="url(#clipPath152)"><g
                     id="g196"><g
                       id="g198" /><g
                       id="g200"
                       mask="url(#mask168)"><g
                         id="g202"><path
                           id="path204"
                           style="fill:url(#radialGradient180);stroke:none"
                           d="m 63.01,63.029 c 59.697,-59.697 326.183,-59.697 385.88,0 59.697,59.697 59.697,326.183 0,385.88 -59.697,59.696 -326.183,59.696 -385.88,0.1 -59.697,-59.597 -59.597,-326.283 0,-385.98" /></g></g></g></g></g></g></g></g></g></g><g
       id="g206"><g
         id="g208"><g
           id="g214"><g
             id="g216"><path
               id="path224"
               style="fill:url(#linearGradient218);stroke:none"
               d="M 78.721,433.279 C 8.427,362.985 8.427,149.015 78.721,78.721 l 0,0 c 70.294,-70.294 284.264,-70.294 354.558,0 l 0,0 c 70.295,70.294 70.294,284.264 0,354.558 l 0,0 C 398.132,468.426 327.066,486 256,486 l 0,0 C 184.934,486 113.868,468.426 78.721,433.279" /></g></g></g></g><g
       id="g226"><g
         clip-path="url(#clipPath230)"
         id="g228"><path
           id="path234"
           style="fill:#ffffff;fill-opacity:1;fill-rule:nonzero;stroke:none"
           d="m 347.851,184.117 18.54,0 0,9.021 -18.54,0 0,-9.021 z m -47.936,-0.002 27.944,0 0,28.297 -27.944,0 0,-28.297 z m -29.357,-38.797 -9.279,0 c -0.267,-3.243 -0.5,-6.085 -0.767,-9.326 l -8.952,0 0,18.601 c 2.904,0.154 5.564,0.294 8.746,0.463 l 0,9.026 c -2.604,0.215 -5.444,0.451 -8.99,0.744 l 0,9.376 -0.195,-0.195 28.475,0 0,9.336 c -2.701,0.237 -5.541,0.488 -8.744,0.77 l 0,9.301 18.601,0 0,9.188 c -2.84,0.236 -5.68,0.473 -9.245,0.77 l 0,9.384 -0.202,-0.189 9.278,0 0,18.913 -18.913,0 0,-9.277 0.189,0.202 -9.263,0 c -0.289,-3.294 -0.539,-6.151 -0.822,-9.36 l -8.961,0 0,18.438 c 2.821,0.25 5.658,0.502 8.898,0.791 l 0,9.058 c -2.809,0.142 -5.483,0.277 -8.856,0.446 -0.166,3.082 -0.333,6.169 -0.492,9.264 0.008,0.009 -0.191,-0.219 -0.191,-0.219 l 19.315,0 c 0.169,-2.858 0.325,-5.517 0.514,-8.713 l 9.122,0 0,18.235 c 3.448,0.303 6.273,0.551 10.02,0.881 l 0,9.345 -0.202,-0.189 9.828,0 0,9.828 -0.189,-0.202 9.626,0 0,-19.26 0.2,0.19 -9.274,0 0,-19.016 c 3.305,-0.301 6.152,-0.561 8.843,-0.806 l 0,-8.935 c -3.147,-0.182 -5.989,-0.346 -8.846,-0.512 l 0,-8.865 18.912,0 0,28.497 -0.192,-0.192 9.828,0 -0.192,0.192 0,-9.269 9.828,0 0,9.269 -0.189,-0.202 c 3.271,-0.005 6.541,-0.009 9.811,-0.014 l -0.196,0.195 c 0.076,-9.686 0.152,-19.372 0.227,-29.06 -3.203,0.084 -6.405,0.167 -9.608,0.251 -0.156,3.066 -0.313,6.132 -0.455,8.929 l -8.992,0 0,-8.718 c 3.42,0 6.526,0 9.624,-0.009 -0.008,-3.261 -0.008,-6.513 -0.008,-9.499 l 9.244,0 0,9.243 9.555,0 0,-19.338 19.106,0 0,-66.953 -57.298,0 c -0.126,2.859 -0.244,5.533 -0.381,8.64 l -9.186,0 c -0.162,-2.895 -0.322,-5.752 -0.496,-8.873 l -8.971,0 c -0.234,2.773 -0.473,5.625 -0.793,9.425 l -18.999,0 0.189,-0.202 c 0.026,3.196 0.052,6.393 0.078,9.59 3.066,0.155 6.132,0.311 9.38,0.476 l 0,9.421 c 3.28,-0.012 6.558,-0.025 9.838,-0.037 l 0,-9.36 18.767,0 c 0,3.434 0,6.519 0.008,9.597 3.383,-0.084 6.758,-0.161 10.132,-0.237 l 0,-9.604 19.228,0 0,-9.239 18.864,0 0,18.367 -8.966,0 c -0.276,-3.222 -0.52,-6.077 -0.797,-9.324 l -9.297,0 0,18.925 -9.205,0 c -0.263,-3.248 -0.494,-6.085 -0.756,-9.321 l -9.266,0 0,9.343 -9.734,0 0,-9.088 c -6.391,-0.085 -12.782,-0.17 -19.174,-0.255 l 0,9.293 -9.446,0 0,-9.256 -9.364,0 c 0,-3.728 0,-6.807 -0.009,-9.879 -3.264,0.008 -6.519,0.008 -10.107,0.008 l 0,-9.42 0.186,0.202 z" /><path
           id="path236"
           style="fill:#ffffff;fill-opacity:1;fill-rule:nonzero;stroke:none"
           d="m 145.471,318.987 47.517,0 0,47.396 -47.517,0 0,-47.396 z m -9.604,57.115 66.597,0 0,-66.592 -66.597,0 0,66.592 z" /><path
           id="path238"
           style="fill:#ffffff;fill-opacity:1;fill-rule:nonzero;stroke:none"
           d="m 318.975,319.047 47.396,0 0,47.517 -47.396,0 0,-47.517 z m 56.995,-9.723 -66.594,0 0,66.597 66.594,0 0,-66.597 z" /><path
           id="path240"
           style="fill:#ffffff;fill-opacity:1;fill-rule:nonzero;stroke:none"
           d="m 145.491,145.714 47.325,0 0,47.296 -47.325,0 0,-47.296 z m 57.216,-9.775 -66.597,0 0,66.603 66.597,0 0,-66.603 z" /><g
           transform="translate(251.287,338.0337)"
           id="g242"><path
             id="path244"
             style="fill:#ffffff;fill-opacity:1;fill-rule:nonzero;stroke:none"
             d="m 0,0 -9.821,0 0.188,-0.202 0,9.269 -9.828,0 0,-9.269 0.189,0.202 -18.9,0 0,9.275 c 2.861,0.16 5.711,0.318 8.85,0.493 l 0,8.975 c -2.758,0.231 -5.607,0.469 -8.878,0.742 l 0,9.033 c 2.743,0.163 5.422,0.323 8.731,0.521 0.255,2.742 0.52,5.587 0.829,8.917 l 9.165,0 0,-18.436 9.288,0 c 0.247,2.67 0.511,5.521 0.841,9.084 l 28.22,0 c 0.205,3.486 0.374,6.343 0.557,9.47 l 28.382,0 0,-8.835 c -2.901,-0.253 -5.75,-0.5 -8.97,-0.78 l 0,-9.071 c 2.898,-0.134 5.582,-0.258 8.754,-0.403 l 0,-18.986 -18.876,0 0.19,-0.2 0,18.892 -29.099,0 0,-18.892 L 0,0 Z" /></g><g
           transform="translate(203.1213,280.0204)"
           id="g246"><path
             id="path248"
             style="fill:#ffffff;fill-opacity:1;fill-rule:nonzero;stroke:none"
             d="m 0,0 0,9.258 c -3.307,0.296 -6.166,0.552 -9.37,0.839 l 0,8.726 47.334,0 0,-8.812 C 35.111,9.835 32.259,9.659 29.12,9.465 l 0,-18.52 8.984,0 c 0.206,2.803 0.415,5.656 0.647,8.813 l 18.451,0 0,-8.919 c -2.752,-0.234 -5.606,-0.478 -9.438,-0.804 0,-6.506 0,-12.86 -0.007,-19.225 -0.008,-0.008 0.192,0.219 0.184,0.21 -3.204,0.085 -6.401,0.177 -9.598,0.27 l 0.189,-0.202 0,9.269 -9.828,0 0,-9.269 0.189,0.202 -9.822,0 0.189,-0.202 0,19.464 -9.827,0 0.192,-0.192 0,9.828 -9.828,0 L 0,0 Z" /></g><g
           transform="translate(145.3155,251.1293)"
           id="g250"><path
             id="path252"
             style="fill:#ffffff;fill-opacity:1;fill-rule:nonzero;stroke:none"
             d="M 0,0 0,9.268 C -3.237,9.53 -6.077,9.76 -9.328,10.023 l 0,19.075 9.289,0 0,-9.307 9.08,0 0,9.111 -9.276,0 0,9.269 c -3.081,0.275 -5.937,0.53 -9.143,0.815 l 0,8.722 47.311,0 0,-8.74 C 35.149,38.753 32.295,38.532 29.02,38.279 28.883,35.369 28.755,32.686 28.602,29.439 25.737,29.187 22.881,28.937 19.049,28.6 l 0,-18.98 0.203,0.189 -9.828,0 0,-9.828 0.188,0.202 C 6.343,0.187 3.074,0.191 -0.196,0.196 L 0,0 Z" /></g><g
           transform="translate(347.6334,251.0855)"
           id="g254"><path
             id="path256"
             style="fill:#ffffff;fill-opacity:1;fill-rule:nonzero;stroke:none"
             d="m 0,0 0,9.601 18.816,0 0,9.333 c -2.63,0.244 -5.487,0.509 -8.807,0.818 l 0,28.158 9.059,0 0,-18.387 c 3.298,-0.299 6.142,-0.555 9.364,-0.847 l 0,-28.327 C 25.501,0.211 22.825,0.085 19.673,-0.063 l 0,-9.097 c 2.797,-0.219 5.656,-0.443 8.814,-0.691 l 0,-18.424 -8.909,0 c -0.236,2.744 -0.481,5.603 -0.76,8.844 -2.869,0.171 -5.554,0.329 -8.975,0.532 l 0,19.097 -10.037,0 C -0.195,0.196 0,0 0,0" /></g><g
           transform="translate(212.743,212.7683)"
           id="g258"><path
             id="path260"
             style="fill:#ffffff;fill-opacity:1;fill-rule:nonzero;stroke:none"
             d="m 0,0 -38.158,0 c -0.27,2.989 -0.528,5.82 -0.847,9.348 l -18.809,0 0,29.195 -0.189,-0.202 9.828,0 -0.192,0.192 0,-9.828 9.828,0 -0.192,0.192 0,-9.359 c 3.729,-0.316 6.56,-0.556 9.394,-0.796 0.29,-3.289 0.539,-6.106 0.838,-9.495 l 28.311,0 0,-9.449 L 0,0 Z" /></g><g
           transform="translate(279.9951,318.7491)"
           id="g262"><path
             id="path264"
             style="fill:#ffffff;fill-opacity:1;fill-rule:nonzero;stroke:none"
             d="m 0,0 0,-18.88 c 3.195,-0.283 6.013,-0.533 9.32,-0.825 0.237,-2.819 0.475,-5.651 0.791,-9.415 l 9.348,0 -0.195,0.195 c 0.006,-3.273 0.013,-6.544 0.02,-9.817 l 0.189,0.202 -9.829,0 0,-9.828 0.203,0.189 -9.308,0 c -0.251,3.042 -0.485,5.886 -0.753,9.144 -2.931,0.248 -5.772,0.489 -9.21,0.782 l 0,38.253 -0.203,-0.189 9.829,0 L 0,0 Z" /></g><g
           transform="translate(318.7473,260.7468)"
           id="g266"><path
             id="path268"
             style="fill:#ffffff;fill-opacity:1;fill-rule:nonzero;stroke:none"
             d="m 0,0 0,38.136 9.405,0 0,-18.739 19.099,0 0,-9.242 C 25.685,9.92 22.836,9.682 19.076,9.368 l 0,-19.016 0.188,0.203 -9.828,0 0.192,-0.193 0,9.828 -9.828,0 L 0,0 Z" /></g><g
           transform="translate(231.5378,164.81)"
           id="g270"><path
             id="path272"
             style="fill:#ffffff;fill-opacity:1;fill-rule:nonzero;stroke:none"
             d="m 0,0 c 0.088,-6.56 0.176,-13.119 0.264,-19.68 l 0.195,0.196 -9.256,0 c -0.275,-3.274 -0.514,-6.119 -0.785,-9.347 l -8.956,0 0,47.407 9.326,0 0,-18.761 c 3.587,0 6.505,0 9.431,-0.007 C 0.228,-0.201 0,0 0,0" /></g><g
           transform="translate(251.3156,174.2024)"
           id="g274"><path
             id="path276"
             style="fill:#ffffff;fill-opacity:1;fill-rule:nonzero;stroke:none"
             d="m 0,0 -9.324,0 c -0.246,-3.078 -0.471,-5.889 -0.753,-9.408 -3.177,0 -6.43,0 -9.691,0.008 -0.008,0.008 0.219,-0.193 0.211,-0.185 -0.008,9.315 -0.008,18.623 -0.008,28.443 3.44,0.221 6.273,0.402 9.507,0.61 0.182,2.906 0.348,5.575 0.548,8.801 l 18.499,0 0,-8.672 C 6.345,19.371 3.503,19.13 -0.196,18.815 c 0,-6.385 0,-12.698 0,-19.011 L 0,0 Z" /></g><g
           transform="translate(193.4853,251.1133)"
           id="g278"><path
             id="path280"
             style="fill:#ffffff;fill-opacity:1;fill-rule:nonzero;stroke:none"
             d="m 0,0 0,9.297 c 3.028,0.248 5.869,0.481 9.636,0.79 l 0,9.37 -0.202,-0.189 9.828,0 -0.192,0.192 0,-19.464 9.827,0 -0.189,0.202 c -0.004,-6.49 -0.009,-12.98 -0.013,-19.47 l 0.202,0.189 -9.389,0 c -0.292,3.561 -0.525,6.404 -0.774,9.434 l -9.297,0 0,9.837 -9.638,0 L 0,0 Z" /></g><g
           transform="translate(145.1199,251.3241)"
           id="g282"><path
             id="path284"
             style="fill:#ffffff;fill-opacity:1;fill-rule:nonzero;stroke:none"
             d="m 0,0 0,-38.14 -9.117,0 0,37.944 9.312,0 C 0.196,-0.195 0,0 0,0" /></g><g
           transform="translate(260.4449,318.9834)"
           id="g286"><path
             id="path288"
             style="fill:#ffffff;fill-opacity:1;fill-rule:nonzero;stroke:none"
             d="m 0,0 0,-28.884 -8.719,0 0,28.699 c 3.092,0 6.011,0 8.938,-0.007 C 0.227,-0.201 0,0 0,0" /></g><g
           transform="translate(280.007,328.1886)"
           id="g290"><path
             id="path292"
             style="fill:#ffffff;fill-opacity:1;fill-rule:nonzero;stroke:none"
             d="m 0,0 18.852,0 0,-18.668 -8.711,0 c -0.229,2.683 -0.471,5.514 -0.788,9.228 l -9.364,0 0.202,-0.188 0,9.828 L 0,0 Z" /></g><g
           transform="translate(241.4655,338.0337)"
           id="g294"><path
             id="path296"
             style="fill:#ffffff;fill-opacity:1;fill-rule:nonzero;stroke:none"
             d="m 0,0 0,-28.524 -9.451,0 0,28.524 -0.188,-0.202 9.828,0 L 0,0 Z" /></g><g
           transform="translate(222.18,212.7556)"
           id="g298"><path
             id="path300"
             style="fill:#ffffff;fill-opacity:1;fill-rule:nonzero;stroke:none"
             d="m 0,0 0,-18.882 -9.437,0 0,18.895 -0.189,-0.202 9.827,0 L 0,0 Z" /></g><g
           transform="translate(222.18,231.8413)"
           id="g302"><path
             id="path304"
             style="fill:#ffffff;fill-opacity:1;fill-rule:nonzero;stroke:none"
             d="m 0,0 9.293,0 0,-19.086 -9.293,0 0.202,-0.189 0,19.465 L 0,0 Z" /></g><g
           transform="translate(174.0152,251.0998)"
           id="g306"><path
             id="path308"
             style="fill:#ffffff;fill-opacity:1;fill-rule:nonzero;stroke:none"
             d="m 0,0 c 6.49,0.004 12.98,0.009 19.47,0.013 l -0.202,0.189 c 0.063,-3.279 0.126,-6.559 0.189,-9.837 -6.488,0.067 -12.974,0.135 -19.461,0.201 l 0.192,-0.192 0,9.828 L 0,0 Z" /></g><path
           id="path310"
           style="fill:#ffffff;fill-opacity:1;fill-rule:nonzero;stroke:none"
           d="m 213.082,327.96 8.884,0 0,-18.427 -8.884,0 0,18.427 z" /><g
           transform="translate(203.1213,270.5699)"
           id="g312"><path
             id="path314"
             style="fill:#ffffff;fill-opacity:1;fill-rule:nonzero;stroke:none"
             d="m 0,0 -18.893,0 0,9.451 18.893,0 -0.202,0.188 0,-9.828 L 0,0 Z" /></g><path
           id="path316"
           style="fill:#ffffff;fill-opacity:1;fill-rule:nonzero;stroke:none"
           d="m 347.167,290.072 -8.746,0 0,8.868 8.746,0 0,-8.868 z" /><g
           transform="translate(299.4551,289.6286)"
           id="g318"><path
             id="path320"
             style="fill:#ffffff;fill-opacity:1;fill-rule:nonzero;stroke:none"
             d="m 0,0 0,9.276 9.111,0 0,-9.08 -9.306,0 C -0.196,0.196 0,0 0,0" /></g><g
           transform="translate(280.0061,338.0311)"
           id="g322"><path
             id="path324"
             style="fill:#ffffff;fill-opacity:1;fill-rule:nonzero;stroke:none"
             d="m 0,0 0,-9.843 0.191,0.2 -9.829,0 0.193,-0.192 c -0.064,3.279 -0.128,6.557 -0.191,9.835 3.275,-0.067 6.55,-0.133 9.827,-0.2 L 0,0 Z" /></g><g
           transform="translate(270.5716,318.7491)"
           id="g326"><path
             id="path328"
             style="fill:#ffffff;fill-opacity:1;fill-rule:nonzero;stroke:none"
             d="m 0,0 c -3.37,0.073 -6.739,0.147 -10.118,0.227 -0.009,0.007 0.218,-0.193 0.21,-0.186 0.085,3.203 0.178,6.399 0.272,9.594 l -0.202,-0.189 9.828,0 -0.192,0.193 0,-9.829 L 0,0 Z" /></g><g
           transform="translate(231.8025,145.13)"
           id="g330"><path
             id="path332"
             style="fill:#ffffff;fill-opacity:1;fill-rule:nonzero;stroke:none"
             d="m 0,0 9.276,0 0,-9.111 -9.08,0 0,9.306 C 0.196,0.196 0,0 0,0" /></g><g
           transform="translate(280.0086,145.318)"
           id="g334"><path
             id="path336"
             style="fill:#ffffff;fill-opacity:1;fill-rule:nonzero;stroke:none"
             d="m 0,0 0,-9.278 -9.45,0 0,9.278 -0.189,-0.202 9.829,0 L 0,0 Z" /></g><g
           transform="translate(308.9048,260.7468)"
           id="g338"><path
             id="path340"
             style="fill:#ffffff;fill-opacity:1;fill-rule:nonzero;stroke:none"
             d="m 0,0 9.843,0 -0.199,0.191 0,-9.829 0.192,0.193 -9.635,0 0,9.636 L 0,0 Z" /></g><g
           transform="translate(164.3657,260.7484)"
           id="g342"><path
             id="path344"
             style="fill:#ffffff;fill-opacity:1;fill-rule:nonzero;stroke:none"
             d="m 0,0 9.649,0 0,-9.649 0.188,0.203 -9.828,0 0.192,-0.193 0,9.829 L 0,0 Z" /></g><g
           transform="translate(241.4655,251.3114)"
           id="g346"><path
             id="path348"
             style="fill:#ffffff;fill-opacity:1;fill-rule:nonzero;stroke:none"
             d="m 0,0 0,-9.278 -9.45,0 0,9.278 -0.189,-0.202 9.829,0 L 0,0 Z" /></g><g
           transform="translate(280.2076,212.7556)"
           id="g350"><path
             id="path352"
             style="fill:#ffffff;fill-opacity:1;fill-rule:nonzero;stroke:none"
             d="m 0,0 -9.649,0 0,9.649 -0.188,-0.203 9.635,0 0,-9.636 L 0,0 Z" /></g><g
           transform="translate(260.9356,328.385)"
           id="g354"><path
             id="path356"
             style="fill:#ffffff;fill-opacity:1;fill-rule:nonzero;stroke:none"
             d="m 0,0 -9.649,0 0,9.649 -0.188,-0.203 c 3.275,0.067 6.55,0.133 9.826,0.2 C -0.074,6.368 -0.138,3.089 -0.202,-0.189 L 0,0 Z" /></g><path
           id="path358"
           style="fill:#ffffff;fill-opacity:1;fill-rule:nonzero;stroke:none"
           d="m 309.256,202.629 9.053,0 0,-8.72 -9.053,0 0,8.72 z" /><path
           id="path360"
           style="fill:#ffffff;fill-opacity:1;fill-rule:nonzero;stroke:none"
           d="m 183.201,328.543 -27.944,0 0,28.297 27.944,0 0,-28.297 z" /><path
           id="path362"
           style="fill:#ffffff;fill-opacity:1;fill-rule:nonzero;stroke:none"
           d="m 328.531,356.778 28.297,0 0,-27.944 -28.297,0 0,27.944 z" /><path
           id="path364"
           style="fill:#ffffff;fill-opacity:1;fill-rule:nonzero;stroke:none"
           d="m 183.473,155.301 -28.244,0 0,28.122 28.244,0 0,-28.122 z" /><path
           id="path366"
           style="fill:#ffffff;fill-opacity:1;fill-rule:nonzero;stroke:none"
           d="m 270.561,337.831 -9.828,0 0,9.269 9.828,0 0,-9.269 z" /><path
           id="path368"
           style="fill:#ffffff;fill-opacity:1;fill-rule:nonzero;stroke:none"
           d="m 193.283,241.666 9.828,0 0,-9.269 -9.828,0 0,9.269 z" /></g></g></g></svg>