<?xml version="1.0" encoding="utf-8"?>
<!-- Generator: Adobe Illustrator 18.0.0, SVG Export Plug-In . SVG Version: 6.00 Build 0)  -->
<!DOCTYPE svg PUBLIC "-//W3C//DTD SVG 1.1//EN" "http://www.w3.org/Graphics/SVG/1.1/DTD/svg11.dtd">
<svg version="1.1" id="Layer_3" xmlns="http://www.w3.org/2000/svg" xmlns:xlink="http://www.w3.org/1999/xlink" x="0px" y="0px"
	 viewBox="0 0 512 512" enable-background="new 0 0 512 512" xml:space="preserve">
<g>
	<g opacity="0.4" enable-background="new    ">
		
			<radialGradient id="SVGID_1_" cx="1.0125" cy="515" r="118.8609" gradientTransform="matrix(2 0 0 -2 254 1286)" gradientUnits="userSpaceOnUse">
			<stop  offset="0" style="stop-color:#010101"/>
			<stop  offset="0.8587" style="stop-color:#010101;stop-opacity:0.1413"/>
			<stop  offset="1" style="stop-color:#010101;stop-opacity:0"/>
		</radialGradient>
		<path fill="url(#SVGID_1_)" d="M449,449c-59.7,59.7-326.2,59.7-385.9,0S3.4,122.7,63,63s326.3-59.6,386,0S508.6,389.3,449,449z"/>
	</g>
	<g opacity="0.4" enable-background="new    ">
		
			<radialGradient id="SVGID_2_" cx="2.0286" cy="516.0684" r="133.1551" gradientTransform="matrix(1.4138 -1.4146 -0.979 -0.9784 758.388 763.7472)" gradientUnits="userSpaceOnUse">
			<stop  offset="0" style="stop-color:#010101"/>
			<stop  offset="0.8587" style="stop-color:#010101;stop-opacity:0.1413"/>
			<stop  offset="1" style="stop-color:#010101;stop-opacity:0"/>
		</radialGradient>
		<path fill="url(#SVGID_2_)" d="M449,449c-59.7,59.7-326.2,59.7-385.9,0S3.4,122.7,63,63s326.3-59.6,386,0S508.6,389.3,449,449z"/>
	</g>
	<g opacity="0.4" enable-background="new    ">
		
			<radialGradient id="SVGID_3_" cx="3.4424" cy="513.9732" r="133.1784" gradientTransform="matrix(-1.4138 -1.4146 0.979 -0.9784 -242.3879 763.7472)" gradientUnits="userSpaceOnUse">
			<stop  offset="0" style="stop-color:#010101"/>
			<stop  offset="0.8587" style="stop-color:#010101;stop-opacity:0.1413"/>
			<stop  offset="1" style="stop-color:#010101;stop-opacity:0"/>
		</radialGradient>
		<path fill="url(#SVGID_3_)" d="M63,449c59.7,59.7,326.2,59.7,385.9,0s59.7-326.2,0-385.9S122.7,3.4,63,63S3.4,389.3,63,449z"/>
	</g>
</g>
<radialGradient id="SVGID_4_" cx="256" cy="256" r="230" gradientUnits="userSpaceOnUse">
	<stop  offset="0" style="stop-color:#E90006"/>
	<stop  offset="0.2178" style="stop-color:#E60006"/>
	<stop  offset="0.3977" style="stop-color:#DB0006"/>
	<stop  offset="0.5643" style="stop-color:#CA0007"/>
	<stop  offset="0.7227" style="stop-color:#B20007"/>
	<stop  offset="0.874" style="stop-color:#930008"/>
	<stop  offset="1" style="stop-color:#730009"/>
</radialGradient>
<path fill="url(#SVGID_4_)" d="M433.3,433.3c-70.3,70.3-284.3,70.3-354.6,0S8.4,149,78.7,78.7s284.3-70.3,354.6,0
	S503.6,363,433.3,433.3z"/>
<g>
	<circle fill="#FFFFFD" cx="256" cy="256" r="170"/>
	<linearGradient id="SVGID_5_" gradientUnits="userSpaceOnUse" x1="80" y1="256" x2="432" y2="256">
		<stop  offset="0" style="stop-color:#FFFFFF"/>
		<stop  offset="0.1046" style="stop-color:#BDBDBD"/>
		<stop  offset="0.2005" style="stop-color:#878787"/>
		<stop  offset="0.283" style="stop-color:#616161"/>
		<stop  offset="0.3489" style="stop-color:#4A4A4A"/>
		<stop  offset="0.39" style="stop-color:#414141"/>
		<stop  offset="0.7154" style="stop-color:#FFFFFF"/>
		<stop  offset="1" style="stop-color:#434343"/>
	</linearGradient>
	<path fill="url(#SVGID_5_)" d="M256,432c-97,0-176-79-176-176S159,80,256,80s176,79,176,176S353,432,256,432z M256,92
		c-90.4,0-164,73.6-164,164s73.6,164,164,164s164-73.6,164-164S346.4,92,256,92z"/>
</g>
<g>
	<g>
		<defs>
			<circle id="SVGID_6_" cx="256" cy="256" r="170"/>
		</defs>
		<clipPath id="SVGID_7_">
			<use xlink:href="#SVGID_6_"  overflow="visible"/>
		</clipPath>
		<path clip-path="url(#SVGID_7_)" fill="#191919" d="M382,476.2c0-3.3,2.7-5.9,5.9-5.9s5.9,2.7,5.9,5.9c0,1.4-0.5,2.8-1.4,3.8
			c2.6-0.6,5.2-1.3,7.6-2c-0.2-0.6-0.3-1.2-0.3-1.8c0-3.3,2.7-5.9,5.9-5.9c2.7,0,4.9,1.8,5.7,4.2c5.8-2,10.8-4.2,14.9-6.4
			c1.5-0.7,3-1.5,4.5-2.4c-2.6-0.6-4.5-3-4.5-5.7c0-3.3,2.7-5.9,5.9-5.9s5.9,2.7,5.9,5.9c0,0.3,0,0.5-0.1,0.8
			c6-4.7,11.1-10.5,15.1-17.1c0.1-2,1.1-3.7,2.6-4.7c0.1-0.2,0.2-0.4,0.3-0.6c4.7-8.6,9-21.4,12.6-37.2c-0.3,0-0.6,0.1-0.9,0.1
			c-3.3,0-5.9-2.7-5.9-5.9s2.7-5.9,5.9-5.9c1.2,0,2.2,0.3,3.2,0.9c0.5-2.4,0.9-4.9,1.4-7.4c-0.9-1-1.4-2.4-1.4-3.8
			c0-2.1,1.1-4,2.8-5.1c1-6.7,2-13.7,2.8-21c-3.1-0.1-5.7-2.7-5.7-5.9c0-3.3,2.7-5.9,5.9-5.9c0.3,0,0.7,0,1,0.1
			c0.7-6.9,1.2-14,1.7-21.3c-0.8,0.4-1.7,0.6-2.7,0.6c-3.3,0-5.9-2.7-5.9-5.9s2.7-5.9,5.9-5.9c1.2,0,2.3,0.4,3.3,1
			c0.1-2.7,0.3-5.5,0.4-8.2c-0.5-0.9-0.8-1.9-0.8-3c0-1.3,0.4-2.4,1.1-3.4c0.1-2.8,0.2-5.7,0.2-8.6c-1.1,1.1-2.5,1.7-4.2,1.7
			c-3.3,0-5.9-2.7-5.9-5.9s2.7-5.9,5.9-5.9c1.7,0,3.2,0.7,4.3,1.9c0-2.7,0.1-5.4,0.1-8.1c-1-1.1-1.6-2.5-1.6-4c0-1.5,0.6-2.9,1.6-4
			c0-2.7,0-5.4-0.1-8.1c-1.1,1.1-2.6,1.9-4.3,1.9c-3.3,0-5.9-2.7-5.9-5.9c0-3.3,2.7-5.9,5.9-5.9c1.6,0,3.1,0.7,4.2,1.7
			c-0.1-2.9-0.1-5.7-0.2-8.6c-0.7-1-1.1-2.1-1.1-3.4c0-1.1,0.3-2.1,0.8-3c-0.1-2.8-0.2-5.5-0.4-8.2c-0.9,0.6-2.1,1-3.3,1
			c-3.3,0-5.9-2.7-5.9-5.9c0-3.3,2.7-5.9,5.9-5.9c1,0,1.9,0.2,2.7,0.6c-0.5-7.3-1-14.4-1.7-21.3c-0.3,0.1-0.6,0.1-1,0.1
			c-3.3,0-5.9-2.7-5.9-5.9c0-3.2,2.5-5.8,5.7-5.9c-0.9-7.5-1.8-14.6-2.9-21.5c-1.7-1-2.8-2.9-2.8-5c0-1.4,0.5-2.7,1.3-3.7
			c-0.4-2.5-0.9-5-1.4-7.4c-0.9,0.6-2,0.9-3.1,0.9c-3.3,0-5.9-2.7-5.9-5.9c0-3.3,2.7-5.9,5.9-5.9c0.3,0,0.5,0,0.8,0.1
			c-3.6-15.7-7.9-28.2-12.6-36.8c-0.2-0.4-0.4-0.8-0.6-1.3c-1.2-1-2.1-2.4-2.2-4c-3.9-6.6-9.1-12.4-15.1-17.1c0,0.1,0,0.2,0,0.3
			c0,3.3-2.7,5.9-5.9,5.9s-5.9-2.7-5.9-5.9c0-2.6,1.7-4.8,4-5.6c-1.3-0.7-2.7-1.5-4-2.1c-4.1-2.3-9.2-4.4-15.1-6.4
			c-0.8,2.3-3,3.9-5.6,3.9c-3.3,0-5.9-2.7-5.9-5.9c0-0.5,0.1-1,0.2-1.4c-2.3-0.6-4.7-1.3-7.1-1.9c0.6,0.9,1,2.1,1,3.3
			c0,3.3-2.7,5.9-5.9,5.9s-5.9-2.7-5.9-5.9c0-2.2,1.2-4.1,2.9-5.1c-11.4-2.4-24.2-4.6-38.2-6.3c-1,0.7-2.2,1.2-3.5,1.2
			c-1.8,0-3.4-0.8-4.5-2.1c-2.7-0.3-5.4-0.6-8.2-0.9c-1,1.8-2.9,3-5.1,3c-2.6,0-4.7-1.6-5.6-3.9c-2.2-0.2-4.3-0.3-6.5-0.5
			c-0.7,2.5-3,4.4-5.7,4.4c-3,0-5.5-2.3-5.9-5.2c-2-0.1-4-0.2-6-0.3c-0.2,3.1-2.8,5.5-5.9,5.5c-3.3,0-5.9-2.7-5.9-5.9c0,0,0,0,0-0.1
			c-2-0.1-4-0.1-6-0.2c0,0.1,0,0.2,0,0.2c0,3.3-2.7,5.9-5.9,5.9s-5.9-2.7-5.9-5.9c0-0.2,0-0.3,0-0.5c-2,0-4,0-6-0.1
			c0,0.2,0,0.4,0,0.6c0,3.3-2.6,5.9-5.9,5.9v0c-3.3,0-5.9-2.7-5.9-5.9c0-0.2,0-0.4,0-0.6c-2,0-4,0-6,0.1c0,0.2,0,0.3,0,0.5
			c0,3.3-2.7,5.9-5.9,5.9c-3.3,0-5.9-2.7-5.9-5.9c0-0.1,0-0.2,0-0.2c-2,0.1-4,0.1-6,0.2c0,0,0,0,0,0.1c0,3.3-2.6,5.9-5.9,5.9
			c-3.1,0-5.7-2.4-5.9-5.5c-2,0.1-4,0.2-6,0.3c-0.4,2.9-2.9,5.2-5.9,5.2c-2.8,0-5.1-1.9-5.7-4.4c-2.2,0.2-4.4,0.3-6.5,0.5
			c-0.8,2.3-3,3.9-5.6,3.9c-2.2,0-4.1-1.2-5.1-3c-2.8,0.3-5.5,0.6-8.2,0.8c-1.1,1.3-2.7,2.1-4.5,2.1c-1.3,0-2.5-0.4-3.5-1.2
			c-13.9,1.7-26.7,3.8-38,6.3c1.8,1,3,2.9,3,5.2c0,3.3-2.7,5.9-5.9,5.9s-5.9-2.7-5.9-5.9c0-1.3,0.4-2.4,1.1-3.4
			c-2.5,0.6-4.9,1.2-7.2,1.9c0.1,0.5,0.2,1,0.2,1.5c0,3.3-2.7,5.9-5.9,5.9c-2.6,0-4.8-1.7-5.6-4c-6,2.1-11.2,4.3-15.4,6.6
			c-1.4,0.6-2.7,1.4-4,2.1c2.3,0.8,4,3,4,5.6c0,3.3-2.7,5.9-5.9,5.9c-3.3,0-5.9-2.7-5.9-5.9c0-0.1,0-0.3,0-0.4
			C64.3,76,59.4,81.6,55.4,88c0,0,0,0,0,0.1c0,2.1-1.1,4-2.8,5c-0.1,0.3-0.3,0.6-0.4,0.9c-4.7,8.6-8.9,21.1-12.6,36.8
			c0.3,0,0.5-0.1,0.8-0.1c3.3,0,5.9,2.7,5.9,5.9s-2.7,5.9-5.9,5.9c-1.2,0-2.2-0.3-3.1-0.9c-0.5,2.3-0.9,4.7-1.3,7.1
			c1,1.1,1.6,2.5,1.6,4.1c0,2.3-1.3,4.3-3.2,5.2c-1,6.7-2,13.8-2.8,21.2c0,0,0.1,0,0.1,0c3.3,0,5.9,2.7,5.9,5.9
			c0,3.3-2.7,5.9-5.9,5.9c-0.5,0-0.9-0.1-1.3-0.2c-0.7,7-1.2,14.2-1.7,21.6c0.9-0.5,1.9-0.9,3.1-0.9c3.3,0,5.9,2.7,5.9,5.9
			s-2.7,5.9-5.9,5.9c-1.4,0-2.6-0.5-3.6-1.3c-0.1,2.8-0.3,5.6-0.4,8.4c0.6,0.9,0.9,2,0.9,3.1c0,1.3-0.4,2.5-1.1,3.5
			c-0.1,2.9-0.2,5.9-0.3,8.9c1.1-1.3,2.7-2.1,4.5-2.1c3.3,0,5.9,2.6,5.9,5.9s-2.7,5.9-5.9,5.9c-1.9,0-3.6-0.9-4.7-2.3
			c0,2.8-0.1,5.7-0.1,8.5c1,1.1,1.6,2.5,1.6,4.1l0,0c0,1.6-0.6,3-1.6,4c0,2.9,0,5.7,0.1,8.5c1.1-1.4,2.8-2.3,4.7-2.3
			c3.3,0,5.9,2.7,5.9,5.9s-2.7,5.9-5.9,5.9c-1.8,0-3.4-0.8-4.5-2.1c0.1,3,0.2,6,0.3,8.9c0.7,1,1.1,2.2,1.1,3.5
			c0,1.1-0.3,2.2-0.9,3.1c0.1,2.8,0.3,5.6,0.4,8.4c1-0.8,2.3-1.3,3.6-1.3c3.3,0,5.9,2.7,5.9,5.9s-2.7,5.9-5.9,5.9
			c-1.1,0-2.2-0.3-3.1-0.9c0.5,7.4,1.1,14.6,1.7,21.6c0.4-0.1,0.9-0.2,1.3-0.2c3.3,0,5.9,2.7,5.9,5.9S35,353,31.7,353
			c0,0-0.1,0-0.1,0c0.8,7.2,1.8,14.2,2.8,20.8c1.9,1,3.3,3,3.3,5.3c0,1.6-0.6,3.1-1.7,4.1c0.4,2.4,0.9,4.8,1.3,7.1
			c0.9-0.6,2-1,3.2-1c3.3,0,5.9,2.7,5.9,5.9s-2.7,5.9-5.9,5.9c-0.3,0-0.6,0-0.9-0.1c3.6,15.9,7.9,28.6,12.7,37.2
			c0,0.1,0.1,0.2,0.1,0.3c1.9,1,3.1,3,3.1,5.2c0,0.1,0,0.3,0,0.4c3.9,6.4,8.9,12,14.8,16.6c0-0.3-0.1-0.5-0.1-0.8
			c0-3.3,2.7-5.9,5.9-5.9c3.3,0,5.9,2.7,5.9,5.9c0,2.8-1.9,5.1-4.5,5.7c1.5,0.8,3,1.6,4.5,2.4c1.5,0.8,3.1,1.6,4.8,2.4
			c0.5,0.1,1,0.4,1.4,0.6c2.7,1.2,5.8,2.4,9,3.5c0.7-2.5,3-4.4,5.7-4.4c3.3,0,5.9,2.7,5.9,5.9c0,0.7-0.1,1.3-0.3,1.9
			c2.5,0.7,5.1,1.3,7.8,2c-0.9-1-1.5-2.4-1.5-3.9c0-3.3,2.7-5.9,5.9-5.9s5.9,2.7,5.9,5.9c0,2.4-1.5,4.5-3.6,5.4
			c11.3,2.5,24.1,4.6,38.1,6.3c1-0.9,2.4-1.5,3.9-1.5c2,0,3.8,1,4.9,2.5c2.5,0.3,5.1,0.5,7.6,0.8c1-2,3-3.3,5.3-3.3
			c2.7,0,5,1.8,5.7,4.3c2.1,0.2,4.2,0.3,6.3,0.5c0.5-2.7,2.9-4.8,5.8-4.8c3.2,0,5.7,2.5,5.9,5.6c2,0.1,4,0.2,6,0.3
			c0-3.3,2.7-5.9,5.9-5.9c3.3,0,5.9,2.7,5.9,5.9c0,0.2,0,0.3,0,0.5c2,0.1,4,0.1,6,0.2c0-0.2,0-0.4,0-0.7c0-3.3,2.6-5.9,5.9-5.9
			c3.3,0,5.9,2.7,5.9,5.9c0,0.3,0,0.6-0.1,0.9c2,0,4.1,0,6.1,0.1c-0.1-0.3-0.1-0.6-0.1-1c0-3.3,2.6-5.9,5.9-5.9
			c3.3,0,5.9,2.7,5.9,5.9c0,0.3,0,0.6-0.1,1c2.1,0,4.1,0,6.1-0.1c0-0.3-0.1-0.6-0.1-0.9c0-3.3,2.7-5.9,5.9-5.9s5.9,2.7,5.9,5.9
			c0,0.2,0,0.4,0,0.7c2-0.1,4-0.1,6-0.2c0-0.2,0-0.3,0-0.5c0-3.3,2.7-5.9,5.9-5.9c3.3,0,5.9,2.6,5.9,5.9c2-0.1,4-0.2,6-0.3
			c0.2-3.1,2.8-5.6,5.9-5.6c2.9,0,5.3,2.1,5.8,4.8c2.1-0.2,4.2-0.3,6.3-0.5c0.7-2.5,3-4.3,5.7-4.3c2.3,0,4.4,1.4,5.3,3.3
			c2.6-0.3,5.1-0.5,7.6-0.8c1.1-1.5,2.8-2.5,4.9-2.5c1.5,0,2.9,0.6,3.9,1.5c14-1.8,26.9-3.9,38.3-6.4
			C383.4,480.6,382,478.6,382,476.2z M382,443.8c0-3.3,2.7-5.9,5.9-5.9s5.9,2.7,5.9,5.9s-2.7,5.9-5.9,5.9S382,447.1,382,443.8z
			 M248.3,427.6c0-3.3,2.6-5.9,5.9-5.9l0,0c3.3,0,5.9,2.7,5.9,5.9s-2.6,5.9-5.9,5.9v0C250.9,433.5,248.3,430.9,248.3,427.6z
			 M248.3,395.2c0-3.3,2.6-5.9,5.9-5.9v0c3.3,0,5.9,2.7,5.9,5.9s-2.6,5.9-5.9,5.9v0C250.9,401.1,248.3,398.5,248.3,395.2z
			 M248.3,363.2c0-3.3,2.6-5.9,5.9-5.9v0c3.3,0,5.9,2.7,5.9,5.9c0,3.3-2.6,5.9-5.9,5.9v0C250.9,369.1,248.3,366.5,248.3,363.2z
			 M248.3,330.9c0-3.3,2.6-5.9,5.9-5.9v0c3.3,0,5.9,2.7,5.9,5.9s-2.6,5.9-5.9,5.9v0C250.9,336.8,248.3,334.1,248.3,330.9z
			 M248.3,298.5c0-3.3,2.6-5.9,5.9-5.9v0c3.3,0,5.9,2.7,5.9,5.9c0,3.3-2.6,5.9-5.9,5.9v0C250.9,304.4,248.3,301.7,248.3,298.5z
			 M248.3,266.1L248.3,266.1c0-3.3,2.6-5.9,5.9-5.9c3.3,0,5.9,2.7,5.9,5.9l0,0c0,3.3-2.6,5.9-5.9,5.9v0
			C250.9,272,248.3,269.4,248.3,266.1z M135.5,266.1L135.5,266.1c0,3.3-2.7,5.9-5.9,5.9s-5.9-2.6-5.9-5.9h0c0-3.3,2.7-5.9,5.9-5.9
			S135.5,262.8,135.5,266.1z M132.7,249.9c0-3.3,2.7-5.9,5.9-5.9s5.9,2.6,5.9,5.9s-2.6,5.9-5.9,5.9S132.7,253.2,132.7,249.9z
			 M138.6,276.4c3.3,0,5.9,2.7,5.9,5.9s-2.6,5.9-5.9,5.9s-5.9-2.7-5.9-5.9S135.3,276.4,138.6,276.4z M141.4,266.1L141.4,266.1
			c0-3.3,2.6-5.9,5.9-5.9c3.3,0,5.9,2.7,5.9,5.9c0,3.3-2.7,5.9-5.9,5.9C144.1,272,141.4,269.4,141.4,266.1z M150.5,249.9
			c0-3.3,2.6-5.9,5.9-5.9c3.3,0,5.9,2.6,5.9,5.9s-2.7,5.9-5.9,5.9C153.1,255.8,150.5,253.2,150.5,249.9z M156.4,276.4
			c3.3,0,5.9,2.7,5.9,5.9s-2.7,5.9-5.9,5.9c-3.3,0-5.9-2.7-5.9-5.9S153.1,276.4,156.4,276.4z M159.2,266.1L159.2,266.1
			c0-3.3,2.6-5.9,5.9-5.9s5.9,2.7,5.9,5.9c0,3.3-2.7,5.9-5.9,5.9C161.9,272,159.2,269.4,159.2,266.1z M168.3,249.9
			c0-3.3,2.6-5.9,5.9-5.9c3.3,0,5.9,2.6,5.9,5.9s-2.7,5.9-5.9,5.9S168.3,253.2,168.3,249.9z M174.2,276.4c3.3,0,5.9,2.7,5.9,5.9
			s-2.7,5.9-5.9,5.9s-5.9-2.7-5.9-5.9S171,276.4,174.2,276.4z M177.1,266.1L177.1,266.1c0-3.3,2.6-5.9,5.9-5.9
			c3.3,0,5.9,2.7,5.9,5.9c0,3.3-2.7,5.9-5.9,5.9C179.7,272,177.1,269.4,177.1,266.1z M186.1,249.9c0-3.3,2.6-5.9,5.9-5.9
			c3.3,0,5.9,2.6,5.9,5.9s-2.7,5.9-5.9,5.9C188.8,255.8,186.1,253.2,186.1,249.9z M192,276.4c3.3,0,5.9,2.7,5.9,5.9
			s-2.7,5.9-5.9,5.9s-5.9-2.7-5.9-5.9S188.8,276.4,192,276.4z M194.9,266.1c0-3.3,2.6-5.9,5.9-5.9c3.3,0,5.9,2.7,5.9,5.9h0
			c0,3.3-2.7,5.9-5.9,5.9C197.5,272,194.9,269.4,194.9,266.1z M203.9,249.9c0-3.3,2.7-5.9,5.9-5.9c3.3,0,5.9,2.6,5.9,5.9
			s-2.6,5.9-5.9,5.9S203.9,253.2,203.9,249.9z M209.9,276.4c3.3,0,5.9,2.7,5.9,5.9s-2.6,5.9-5.9,5.9s-5.9-2.7-5.9-5.9
			S206.6,276.4,209.9,276.4z M212.7,266.1L212.7,266.1c0-3.3,2.6-5.9,5.9-5.9c3.3,0,5.9,2.7,5.9,5.9h0c0,3.3-2.7,5.9-5.9,5.9
			C215.3,272,212.7,269.4,212.7,266.1z M221.7,249.9c0-3.3,2.7-5.9,5.9-5.9c3.3,0,5.9,2.6,5.9,5.9s-2.6,5.9-5.9,5.9
			C224.4,255.8,221.7,253.2,221.7,249.9z M227.7,276.4c3.3,0,5.9,2.7,5.9,5.9s-2.6,5.9-5.9,5.9c-3.3,0-5.9-2.7-5.9-5.9
			S224.4,276.4,227.7,276.4z M230.5,266.1c0-3.3,2.6-5.9,5.9-5.9c3.3,0,5.9,2.7,5.9,5.9h0c0,3.3-2.7,5.9-5.9,5.9
			C233.1,272,230.5,269.4,230.5,266.1z M239.6,249.9c0-3.3,2.7-5.9,5.9-5.9c3.3,0,5.9,2.6,5.9,5.9s-2.7,5.9-5.9,5.9
			C242.2,255.8,239.6,253.2,239.6,249.9z M245.5,276.4c3.3,0,5.9,2.7,5.9,5.9s-2.7,5.9-5.9,5.9c-3.3,0-5.9-2.7-5.9-5.9
			S242.2,276.4,245.5,276.4z M257.3,249.9c0-3.3,2.7-5.9,5.9-5.9s5.9,2.6,5.9,5.9s-2.7,5.9-5.9,5.9S257.3,253.2,257.3,249.9z
			 M263.2,276.4c3.3,0,5.9,2.7,5.9,5.9s-2.7,5.9-5.9,5.9s-5.9-2.7-5.9-5.9S260,276.4,263.2,276.4z M266.1,266.1L266.1,266.1
			c0-3.3,2.7-5.9,5.9-5.9s5.9,2.7,5.9,5.9l0,0c0,3.3-2.7,5.9-5.9,5.9S266.1,269.4,266.1,266.1z M275.1,249.9c0-3.3,2.7-5.9,5.9-5.9
			s5.9,2.6,5.9,5.9s-2.7,5.9-5.9,5.9S275.1,253.2,275.1,249.9z M281,276.4c3.3,0,5.9,2.7,5.9,5.9s-2.7,5.9-5.9,5.9s-5.9-2.7-5.9-5.9
			S277.8,276.4,281,276.4z M283.9,266.1L283.9,266.1c0-3.3,2.7-5.9,5.9-5.9s5.9,2.7,5.9,5.9l0,0c0,3.3-2.7,5.9-5.9,5.9
			C286.5,272,283.9,269.4,283.9,266.1z M292.9,249.9c0-3.3,2.7-5.9,5.9-5.9s5.9,2.6,5.9,5.9s-2.7,5.9-5.9,5.9
			S292.9,253.2,292.9,249.9z M298.9,276.4c3.3,0,5.9,2.7,5.9,5.9s-2.7,5.9-5.9,5.9s-5.9-2.7-5.9-5.9S295.6,276.4,298.9,276.4z
			 M301.7,266.1L301.7,266.1c0-3.3,2.7-5.9,5.9-5.9c3.3,0,5.9,2.7,5.9,5.9l0,0c0,3.3-2.7,5.9-5.9,5.9
			C304.3,272,301.7,269.4,301.7,266.1z M310.7,249.9c0-3.3,2.7-5.9,5.9-5.9s5.9,2.6,5.9,5.9s-2.7,5.9-5.9,5.9
			S310.7,253.2,310.7,249.9z M316.7,276.4c3.3,0,5.9,2.7,5.9,5.9s-2.7,5.9-5.9,5.9s-5.9-2.7-5.9-5.9S313.4,276.4,316.7,276.4z
			 M319.5,266.1L319.5,266.1c0-3.3,2.7-5.9,5.9-5.9s5.9,2.7,5.9,5.9h0c0,3.3-2.7,5.9-5.9,5.9S319.5,269.4,319.5,266.1z M328.6,249.9
			c0-3.3,2.7-5.9,5.9-5.9c3.3,0,5.9,2.6,5.9,5.9s-2.7,5.9-5.9,5.9S328.6,253.2,328.6,249.9z M334.5,276.4c3.3,0,5.9,2.7,5.9,5.9
			s-2.7,5.9-5.9,5.9s-5.9-2.7-5.9-5.9S331.2,276.4,334.5,276.4z M337.3,266.1L337.3,266.1c0-3.3,2.7-5.9,5.9-5.9s5.9,2.7,5.9,5.9
			l0,0c0,3.3-2.7,5.9-5.9,5.9S337.3,269.4,337.3,266.1z M346.4,249.9c0-3.3,2.7-5.9,5.9-5.9s5.9,2.6,5.9,5.9s-2.7,5.9-5.9,5.9
			S346.4,253.2,346.4,249.9z M352.3,276.4c3.3,0,5.9,2.7,5.9,5.9s-2.7,5.9-5.9,5.9c-3.3,0-5.9-2.7-5.9-5.9S349,276.4,352.3,276.4z
			 M355.1,266.1L355.1,266.1c0-3.3,2.7-5.9,5.9-5.9s5.9,2.7,5.9,5.9l0,0c0,3.3-2.7,5.9-5.9,5.9C357.8,272,355.1,269.4,355.1,266.1z
			 M364.2,249.9c0-3.3,2.7-5.9,5.9-5.9s5.9,2.6,5.9,5.9s-2.7,5.9-5.9,5.9S364.2,253.2,364.2,249.9z M370.1,276.4
			c3.3,0,5.9,2.7,5.9,5.9s-2.7,5.9-5.9,5.9s-5.9-2.7-5.9-5.9S366.8,276.4,370.1,276.4z M372.9,266.1L372.9,266.1
			c0-3.3,2.7-5.9,5.9-5.9s5.9,2.7,5.9,5.9l0,0c0,3.3-2.7,5.9-5.9,5.9C375.6,272,372.9,269.4,372.9,266.1z M387.9,276.4
			c3.3,0,5.9,2.7,5.9,5.9s-2.7,5.9-5.9,5.9s-5.9-2.7-5.9-5.9S384.7,276.4,387.9,276.4z M390.7,266.1c0-3.3,2.7-5.9,5.9-5.9
			s5.9,2.7,5.9,5.9h0c0,3.3-2.7,5.9-5.9,5.9C393.4,272,390.8,269.4,390.7,266.1L390.7,266.1z M396.7,292.5c3.3,0,5.9,2.7,5.9,5.9
			s-2.7,5.9-5.9,5.9s-5.9-2.7-5.9-5.9C390.7,295.2,393.4,292.5,396.7,292.5z M399.8,282.3c0-3.3,2.7-5.9,5.9-5.9s5.9,2.7,5.9,5.9
			s-2.7,5.9-5.9,5.9S399.8,285.6,399.8,282.3z M408.6,266.1c0-3.3,2.7-5.9,5.9-5.9s5.9,2.7,5.9,5.9h0c0,3.3-2.7,5.9-5.9,5.9
			C411.2,272,408.6,269.4,408.6,266.1L408.6,266.1z M414.5,292.5c3.3,0,5.9,2.7,5.9,5.9s-2.7,5.9-5.9,5.9s-5.9-2.7-5.9-5.9
			C408.6,295.2,411.2,292.5,414.5,292.5z M417.6,282.3c0-3.3,2.7-5.9,5.9-5.9s5.9,2.7,5.9,5.9s-2.7,5.9-5.9,5.9
			S417.6,285.6,417.6,282.3z M417.6,249.9c0-3.3,2.7-5.9,5.9-5.9s5.9,2.6,5.9,5.9s-2.7,5.9-5.9,5.9S417.6,253.2,417.6,249.9z
			 M414.5,239.6c-3.3,0-5.9-2.6-5.9-5.9c0-3.3,2.7-5.9,5.9-5.9s5.9,2.7,5.9,5.9S417.8,239.6,414.5,239.6z M411.7,249.9
			c0,3.3-2.7,5.9-5.9,5.9s-5.9-2.7-5.9-5.9c0-3.3,2.7-5.9,5.9-5.9S411.7,246.6,411.7,249.9z M396.7,239.6c-3.3,0-5.9-2.6-5.9-5.9
			c0-3.3,2.7-5.9,5.9-5.9s5.9,2.7,5.9,5.9S399.9,239.6,396.7,239.6z M393.8,249.9c0,3.3-2.7,5.9-5.9,5.9s-5.9-2.7-5.9-5.9
			c0-3.3,2.7-5.9,5.9-5.9S393.8,246.6,393.8,249.9z M378.9,239.6c-3.3,0-5.9-2.6-5.9-5.9c0-3.3,2.7-5.9,5.9-5.9s5.9,2.7,5.9,5.9
			S382.1,239.6,378.9,239.6z M370.1,223.5c-3.3,0-5.9-2.7-5.9-5.9c0-3.3,2.7-5.9,5.9-5.9s5.9,2.7,5.9,5.9S373.4,223.5,370.1,223.5z
			 M367,233.7c0,3.3-2.7,5.9-5.9,5.9s-5.9-2.6-5.9-5.9c0-3.3,2.7-5.9,5.9-5.9S367,230.4,367,233.7z M352.3,223.5
			c-3.3,0-5.9-2.7-5.9-5.9c0-3.3,2.7-5.9,5.9-5.9s5.9,2.7,5.9,5.9C358.2,220.8,355.6,223.5,352.3,223.5z M349.2,233.7
			c0,3.3-2.7,5.9-5.9,5.9s-5.9-2.6-5.9-5.9c0-3.3,2.7-5.9,5.9-5.9S349.2,230.4,349.2,233.7z M334.5,223.5c-3.3,0-5.9-2.7-5.9-5.9
			c0-3.3,2.7-5.9,5.9-5.9c3.3,0,5.9,2.7,5.9,5.9S337.8,223.5,334.5,223.5z M331.3,233.7c0,3.3-2.7,5.9-5.9,5.9s-5.9-2.6-5.9-5.9
			c0-3.3,2.7-5.9,5.9-5.9C328.7,227.8,331.3,230.4,331.3,233.7z M316.7,223.5c-3.3,0-5.9-2.7-5.9-5.9c0-3.3,2.7-5.9,5.9-5.9
			s5.9,2.7,5.9,5.9S319.9,223.5,316.7,223.5z M313.5,233.7c0,3.3-2.7,5.9-5.9,5.9s-5.9-2.6-5.9-5.9c0-3.3,2.7-5.9,5.9-5.9
			C310.9,227.8,313.5,230.4,313.5,233.7z M298.9,223.5c-3.3,0-5.9-2.7-5.9-5.9c0-3.3,2.7-5.9,5.9-5.9s5.9,2.7,5.9,5.9
			S302.1,223.5,298.9,223.5z M295.7,233.7c0,3.3-2.7,5.9-5.9,5.9s-5.9-2.6-5.9-5.9c0-3.3,2.7-5.9,5.9-5.9
			C293.1,227.8,295.7,230.4,295.7,233.7z M281,223.5c-3.3,0-5.9-2.7-5.9-5.9c0-3.3,2.7-5.9,5.9-5.9s5.9,2.7,5.9,5.9
			C287,220.8,284.3,223.5,281,223.5z M277.9,233.7c0,3.3-2.7,5.9-5.9,5.9s-5.9-2.6-5.9-5.9c0-3.3,2.7-5.9,5.9-5.9
			S277.9,230.4,277.9,233.7z M263.2,223.5c-3.3,0-5.9-2.7-5.9-5.9c0-3.3,2.7-5.9,5.9-5.9s5.9,2.7,5.9,5.9S266.5,223.5,263.2,223.5z
			 M260.1,233.7c0,3.3-2.6,5.9-5.9,5.9c-3.3,0-5.9-2.7-5.9-5.9s2.6-5.9,5.9-5.9C257.5,227.8,260.1,230.5,260.1,233.7z M245.5,223.5
			c-3.3,0-5.9-2.7-5.9-5.9c0-3.3,2.7-5.9,5.9-5.9c3.3,0,5.9,2.7,5.9,5.9C251.4,220.8,248.8,223.5,245.5,223.5z M242.3,233.7
			c0,3.3-2.7,5.9-5.9,5.9c-3.3,0-5.9-2.6-5.9-5.9c0-3.3,2.6-5.9,5.9-5.9C239.7,227.8,242.3,230.4,242.3,233.7z M227.7,223.5
			c-3.3,0-5.9-2.7-5.9-5.9c0-3.3,2.7-5.9,5.9-5.9c3.3,0,5.9,2.7,5.9,5.9S230.9,223.5,227.7,223.5z M224.5,233.7
			c0,3.3-2.6,5.9-5.9,5.9c-3.3,0-5.9-2.6-5.9-5.9c0-3.3,2.7-5.9,5.9-5.9C221.9,227.8,224.5,230.4,224.5,233.7z M209.9,223.5
			c-3.3,0-5.9-2.7-5.9-5.9c0-3.3,2.7-5.9,5.9-5.9c3.3,0,5.9,2.7,5.9,5.9S213.1,223.5,209.9,223.5z M206.7,233.7
			c0,3.3-2.7,5.9-5.9,5.9c-3.3,0-5.9-2.6-5.9-5.9c0-3.3,2.6-5.9,5.9-5.9C204.1,227.8,206.7,230.4,206.7,233.7z M192,223.5
			c-3.3,0-5.9-2.7-5.9-5.9c0-3.3,2.6-5.9,5.9-5.9c3.3,0,5.9,2.7,5.9,5.9C198,220.8,195.3,223.5,192,223.5z M188.9,233.7
			c0,3.3-2.6,5.9-5.9,5.9c-3.3,0-5.9-2.6-5.9-5.9c0-3.3,2.7-5.9,5.9-5.9C186.2,227.8,188.9,230.4,188.9,233.7z M174.2,223.5
			c-3.3,0-5.9-2.7-5.9-5.9c0-3.3,2.6-5.9,5.9-5.9c3.3,0,5.9,2.7,5.9,5.9S177.5,223.5,174.2,223.5z M171.1,233.7
			c0,3.3-2.6,5.9-5.9,5.9s-5.9-2.6-5.9-5.9c0-3.3,2.7-5.9,5.9-5.9S171.1,230.4,171.1,233.7z M156.4,223.5c-3.3,0-5.9-2.7-5.9-5.9
			c0-3.3,2.6-5.9,5.9-5.9c3.3,0,5.9,2.7,5.9,5.9C162.3,220.8,159.7,223.5,156.4,223.5z M153.3,233.7c0,3.3-2.6,5.9-5.9,5.9
			c-3.3,0-5.9-2.6-5.9-5.9c0-3.3,2.7-5.9,5.9-5.9C150.6,227.8,153.3,230.4,153.3,233.7z M138.6,223.5c-3.3,0-5.9-2.7-5.9-5.9
			c0-3.3,2.7-5.9,5.9-5.9s5.9,2.7,5.9,5.9S141.9,223.5,138.6,223.5z M135.5,233.7c0,3.3-2.7,5.9-5.9,5.9s-5.9-2.6-5.9-5.9
			c0-3.3,2.7-5.9,5.9-5.9S135.5,230.4,135.5,233.7z M126.7,249.9c0,3.3-2.7,5.9-5.9,5.9s-5.9-2.7-5.9-5.9c0-3.3,2.7-5.9,5.9-5.9
			S126.7,246.6,126.7,249.9z M117.6,266.1L117.6,266.1c0,3.3-2.7,5.9-5.9,5.9c-3.3,0-5.9-2.6-5.9-5.9c0-3.3,2.7-5.9,5.9-5.9
			S117.6,262.8,117.6,266.1z M111.7,239.6c-3.3,0-5.9-2.6-5.9-5.9c0-3.3,2.7-5.9,5.9-5.9s5.9,2.7,5.9,5.9S115,239.6,111.7,239.6z
			 M108.9,249.9c0,3.3-2.7,5.9-5.9,5.9s-5.9-2.7-5.9-5.9c0-3.3,2.7-5.9,5.9-5.9S108.9,246.6,108.9,249.9z M99.8,266.1L99.8,266.1
			c0,3.3-2.7,5.9-5.9,5.9s-5.9-2.6-5.9-5.9c0-3.3,2.7-5.9,5.9-5.9S99.8,262.8,99.8,266.1z M93.9,239.6c-3.3,0-5.9-2.6-5.9-5.9
			c0-3.3,2.7-5.9,5.9-5.9s5.9,2.7,5.9,5.9C99.8,237,97.2,239.6,93.9,239.6z M91.1,249.9c0,3.3-2.7,5.9-5.9,5.9
			c-3.3,0-5.9-2.7-5.9-5.9c0-3.3,2.7-5.9,5.9-5.9C88.4,244,91.1,246.6,91.1,249.9z M91.1,282.3c0,3.3-2.7,5.9-5.9,5.9
			c-3.3,0-5.9-2.7-5.9-5.9s2.7-5.9,5.9-5.9C88.4,276.4,91.1,279,91.1,282.3z M93.9,292.5c3.3,0,5.9,2.7,5.9,5.9s-2.7,5.9-5.9,5.9
			s-5.9-2.7-5.9-5.9C88,295.2,90.6,292.5,93.9,292.5z M97,282.3c0-3.3,2.7-5.9,5.9-5.9s5.9,2.7,5.9,5.9s-2.7,5.9-5.9,5.9
			S97,285.6,97,282.3z M111.7,292.5c3.3,0,5.9,2.7,5.9,5.9s-2.7,5.9-5.9,5.9s-5.9-2.7-5.9-5.9C105.8,295.2,108.4,292.5,111.7,292.5z
			 M114.9,282.3c0-3.3,2.7-5.9,5.9-5.9s5.9,2.7,5.9,5.9s-2.7,5.9-5.9,5.9S114.9,285.6,114.9,282.3z M129.5,292.5
			c3.3,0,5.9,2.7,5.9,5.9s-2.7,5.9-5.9,5.9s-5.9-2.7-5.9-5.9C123.6,295.2,126.3,292.5,129.5,292.5z M138.6,308.7
			c3.3,0,5.9,2.7,5.9,5.9s-2.6,5.9-5.9,5.9s-5.9-2.7-5.9-5.9C132.7,311.4,135.3,308.7,138.6,308.7z M141.4,298.5
			c0-3.3,2.7-5.9,5.9-5.9c3.3,0,5.9,2.7,5.9,5.9s-2.6,5.9-5.9,5.9S141.4,301.7,141.4,298.5z M156.4,308.7c3.3,0,5.9,2.7,5.9,5.9
			s-2.7,5.9-5.9,5.9c-3.3,0-5.9-2.7-5.9-5.9C150.5,311.4,153.1,308.7,156.4,308.7z M159.2,298.5c0-3.3,2.7-5.9,5.9-5.9
			s5.9,2.7,5.9,5.9s-2.6,5.9-5.9,5.9S159.2,301.7,159.2,298.5z M174.2,308.7c3.3,0,5.9,2.7,5.9,5.9s-2.7,5.9-5.9,5.9
			s-5.9-2.7-5.9-5.9C168.3,311.4,171,308.7,174.2,308.7z M177,298.5c0-3.3,2.7-5.9,5.9-5.9c3.3,0,5.9,2.7,5.9,5.9s-2.6,5.9-5.9,5.9
			S177,301.7,177,298.5z M192,308.7c3.3,0,5.9,2.7,5.9,5.9s-2.7,5.9-5.9,5.9s-5.9-2.7-5.9-5.9C186.1,311.4,188.8,308.7,192,308.7z
			 M194.9,298.5c0-3.3,2.6-5.9,5.9-5.9c3.3,0,5.9,2.7,5.9,5.9s-2.7,5.9-5.9,5.9C197.5,304.4,194.9,301.7,194.9,298.5z M209.9,308.7
			c3.3,0,5.9,2.7,5.9,5.9s-2.6,5.9-5.9,5.9s-5.9-2.7-5.9-5.9C203.9,311.4,206.6,308.7,209.9,308.7z M212.7,298.5
			c0-3.3,2.7-5.9,5.9-5.9c3.3,0,5.9,2.7,5.9,5.9s-2.6,5.9-5.9,5.9S212.7,301.7,212.7,298.5z M227.7,308.7c3.3,0,5.9,2.7,5.9,5.9
			s-2.6,5.9-5.9,5.9c-3.3,0-5.9-2.7-5.9-5.9C221.7,311.4,224.4,308.7,227.7,308.7z M230.5,298.5c0-3.3,2.6-5.9,5.9-5.9
			c3.3,0,5.9,2.7,5.9,5.9s-2.7,5.9-5.9,5.9C233.1,304.4,230.5,301.7,230.5,298.5z M245.5,308.7c3.3,0,5.9,2.7,5.9,5.9
			s-2.7,5.9-5.9,5.9c-3.3,0-5.9-2.7-5.9-5.9C239.6,311.4,242.2,308.7,245.5,308.7z M263.2,308.7c3.3,0,5.9,2.7,5.9,5.9
			s-2.7,5.9-5.9,5.9s-5.9-2.7-5.9-5.9C257.3,311.4,260,308.7,263.2,308.7z M266,298.5c0-3.3,2.7-5.9,5.9-5.9s5.9,2.7,5.9,5.9
			s-2.7,5.9-5.9,5.9S266,301.7,266,298.5z M281,308.7c3.3,0,5.9,2.7,5.9,5.9s-2.7,5.9-5.9,5.9s-5.9-2.7-5.9-5.9
			C275.1,311.4,277.8,308.7,281,308.7z M283.9,298.5c0-3.3,2.7-5.9,5.9-5.9s5.9,2.7,5.9,5.9s-2.7,5.9-5.9,5.9
			S283.9,301.7,283.9,298.5z M298.9,308.7c3.3,0,5.9,2.7,5.9,5.9s-2.7,5.9-5.9,5.9s-5.9-2.7-5.9-5.9
			C292.9,311.4,295.6,308.7,298.9,308.7z M301.7,298.5c0-3.3,2.7-5.9,5.9-5.9s5.9,2.7,5.9,5.9s-2.7,5.9-5.9,5.9
			C304.3,304.4,301.7,301.7,301.7,298.5z M316.7,308.7c3.3,0,5.9,2.7,5.9,5.9s-2.7,5.9-5.9,5.9s-5.9-2.7-5.9-5.9
			C310.7,311.4,313.4,308.7,316.7,308.7z M319.5,298.5c0-3.3,2.7-5.9,5.9-5.9s5.9,2.7,5.9,5.9s-2.7,5.9-5.9,5.9
			C322.1,304.4,319.5,301.7,319.5,298.5z M334.5,308.7c3.3,0,5.9,2.7,5.9,5.9s-2.7,5.9-5.9,5.9s-5.9-2.7-5.9-5.9
			C328.6,311.4,331.2,308.7,334.5,308.7z M337.3,298.5c0-3.3,2.7-5.9,5.9-5.9s5.9,2.7,5.9,5.9s-2.7,5.9-5.9,5.9
			S337.3,301.7,337.3,298.5z M352.3,308.7c3.3,0,5.9,2.7,5.9,5.9s-2.7,5.9-5.9,5.9c-3.3,0-5.9-2.7-5.9-5.9
			C346.4,311.4,349,308.7,352.3,308.7z M355.1,298.5c0-3.3,2.7-5.9,5.9-5.9s5.9,2.7,5.9,5.9s-2.7,5.9-5.9,5.9
			S355.1,301.7,355.1,298.5z M370.1,308.7c3.3,0,5.9,2.7,5.9,5.9s-2.7,5.9-5.9,5.9s-5.9-2.7-5.9-5.9
			C364.2,311.4,366.8,308.7,370.1,308.7z M372.9,298.5c0-3.3,2.7-5.9,5.9-5.9s5.9,2.7,5.9,5.9s-2.7,5.9-5.9,5.9
			C375.6,304.4,372.9,301.7,372.9,298.5z M387.9,308.7c3.3,0,5.9,2.7,5.9,5.9s-2.7,5.9-5.9,5.9s-5.9-2.7-5.9-5.9
			C382,311.4,384.7,308.7,387.9,308.7z M396.7,324.9c3.3,0,5.9,2.7,5.9,5.9s-2.7,5.9-5.9,5.9s-5.9-2.7-5.9-5.9
			S393.4,324.9,396.7,324.9z M399.8,314.7c0-3.3,2.7-5.9,5.9-5.9s5.9,2.7,5.9,5.9s-2.7,5.9-5.9,5.9S399.8,317.9,399.8,314.7z
			 M414.5,324.9c3.3,0,5.9,2.7,5.9,5.9s-2.7,5.9-5.9,5.9s-5.9-2.7-5.9-5.9S411.2,324.9,414.5,324.9z M417.6,314.7
			c0-3.3,2.7-5.9,5.9-5.9s5.9,2.7,5.9,5.9s-2.7,5.9-5.9,5.9S417.6,317.9,417.6,314.7z M426.4,298.5c0-3.3,2.7-5.9,5.9-5.9
			s5.9,2.7,5.9,5.9s-2.7,5.9-5.9,5.9C429,304.4,426.4,301.7,426.4,298.5z M426.4,266.1L426.4,266.1c0-3.3,2.7-5.9,5.9-5.9
			c3.3,0,5.9,2.7,5.9,5.9l0,0c0,3.3-2.7,5.9-5.9,5.9C429,272,426.4,269.4,426.4,266.1z M426.4,233.7c0-3.3,2.7-5.9,5.9-5.9
			s5.9,2.7,5.9,5.9c0,3.3-2.7,5.9-5.9,5.9C429,239.6,426.4,237,426.4,233.7z M423.6,223.5c-3.3,0-5.9-2.7-5.9-5.9
			c0-3.3,2.7-5.9,5.9-5.9s5.9,2.7,5.9,5.9S426.8,223.5,423.6,223.5z M414.5,207.3c-3.3,0-5.9-2.7-5.9-5.9c0-3.3,2.7-5.9,5.9-5.9
			s5.9,2.7,5.9,5.9C420.4,204.6,417.8,207.3,414.5,207.3z M411.7,217.5c0,3.3-2.7,5.9-5.9,5.9s-5.9-2.7-5.9-5.9
			c0-3.3,2.7-5.9,5.9-5.9S411.7,214.3,411.7,217.5z M396.7,207.3c-3.3,0-5.9-2.7-5.9-5.9c0-3.3,2.7-5.9,5.9-5.9s5.9,2.7,5.9,5.9
			C402.6,204.6,399.9,207.3,396.7,207.3z M393.8,217.5c0,3.3-2.7,5.9-5.9,5.9s-5.9-2.7-5.9-5.9c0-3.3,2.7-5.9,5.9-5.9
			S393.8,214.3,393.8,217.5z M378.9,207.3c-3.3,0-5.9-2.7-5.9-5.9c0-3.3,2.7-5.9,5.9-5.9s5.9,2.7,5.9,5.9
			C384.8,204.6,382.1,207.3,378.9,207.3z M370.1,191.1c-3.3,0-5.9-2.7-5.9-5.9c0-3.3,2.7-5.9,5.9-5.9s5.9,2.7,5.9,5.9
			C376,188.4,373.4,191.1,370.1,191.1z M367,201.3c0,3.3-2.7,5.9-5.9,5.9s-5.9-2.7-5.9-5.9c0-3.3,2.7-5.9,5.9-5.9
			S367,198.1,367,201.3z M352.3,191.1c-3.3,0-5.9-2.7-5.9-5.9c0-3.3,2.7-5.9,5.9-5.9s5.9,2.7,5.9,5.9
			C358.2,188.4,355.6,191.1,352.3,191.1z M349.2,201.3c0,3.3-2.7,5.9-5.9,5.9s-5.9-2.7-5.9-5.9c0-3.3,2.7-5.9,5.9-5.9
			S349.2,198.1,349.2,201.3z M334.5,191.1c-3.3,0-5.9-2.7-5.9-5.9c0-3.3,2.7-5.9,5.9-5.9c3.3,0,5.9,2.7,5.9,5.9
			C340.4,188.4,337.8,191.1,334.5,191.1z M331.3,201.3c0,3.3-2.7,5.9-5.9,5.9s-5.9-2.7-5.9-5.9c0-3.3,2.7-5.9,5.9-5.9
			C328.7,195.4,331.3,198.1,331.3,201.3z M316.7,191.1c-3.3,0-5.9-2.7-5.9-5.9c0-3.3,2.7-5.9,5.9-5.9s5.9,2.7,5.9,5.9
			C322.6,188.4,319.9,191.1,316.7,191.1z M313.5,201.3c0,3.3-2.7,5.9-5.9,5.9s-5.9-2.7-5.9-5.9c0-3.3,2.7-5.9,5.9-5.9
			C310.9,195.4,313.5,198.1,313.5,201.3z M298.9,191.1c-3.3,0-5.9-2.7-5.9-5.9c0-3.3,2.7-5.9,5.9-5.9s5.9,2.7,5.9,5.9
			C304.8,188.4,302.1,191.1,298.9,191.1z M295.7,201.3c0,3.3-2.7,5.9-5.9,5.9s-5.9-2.7-5.9-5.9c0-3.3,2.7-5.9,5.9-5.9
			C293.1,195.4,295.7,198.1,295.7,201.3z M281,191.1c-3.3,0-5.9-2.7-5.9-5.9c0-3.3,2.7-5.9,5.9-5.9s5.9,2.7,5.9,5.9
			C287,188.4,284.3,191.1,281,191.1z M277.9,201.3c0,3.3-2.7,5.9-5.9,5.9s-5.9-2.7-5.9-5.9c0-3.3,2.7-5.9,5.9-5.9
			S277.9,198.1,277.9,201.3z M263.2,191.1c-3.3,0-5.9-2.7-5.9-5.9c0-3.3,2.7-5.9,5.9-5.9s5.9,2.7,5.9,5.9
			C269.1,188.4,266.5,191.1,263.2,191.1z M260.1,201.3c0,3.3-2.6,5.9-5.9,5.9c-3.3,0-5.9-2.7-5.9-5.9c0-3.3,2.6-5.9,5.9-5.9
			C257.5,195.4,260.1,198.1,260.1,201.3z M245.5,191.1c-3.3,0-5.9-2.7-5.9-5.9c0-3.3,2.7-5.9,5.9-5.9c3.3,0,5.9,2.7,5.9,5.9
			C251.4,188.4,248.8,191.1,245.5,191.1z M242.3,201.3c0,3.3-2.7,5.9-5.9,5.9c-3.3,0-5.9-2.7-5.9-5.9c0-3.3,2.6-5.9,5.9-5.9
			C239.7,195.4,242.3,198.1,242.3,201.3z M227.7,191.1c-3.3,0-5.9-2.7-5.9-5.9c0-3.3,2.7-5.9,5.9-5.9c3.3,0,5.9,2.7,5.9,5.9
			C233.6,188.4,230.9,191.1,227.7,191.1z M224.5,201.3c0,3.3-2.6,5.9-5.9,5.9c-3.3,0-5.9-2.7-5.9-5.9c0-3.3,2.7-5.9,5.9-5.9
			C221.9,195.4,224.5,198.1,224.5,201.3z M209.9,191.1c-3.3,0-5.9-2.7-5.9-5.9c0-3.3,2.7-5.9,5.9-5.9c3.3,0,5.9,2.7,5.9,5.9
			C215.8,188.4,213.1,191.1,209.9,191.1z M206.7,201.3c0,3.3-2.7,5.9-5.9,5.9c-3.3,0-5.9-2.7-5.9-5.9c0-3.3,2.6-5.9,5.9-5.9
			C204.1,195.4,206.7,198.1,206.7,201.3z M192,191.1c-3.3,0-5.9-2.7-5.9-5.9c0-3.3,2.6-5.9,5.9-5.9c3.3,0,5.9,2.7,5.9,5.9
			C198,188.4,195.3,191.1,192,191.1z M188.9,201.3c0,3.3-2.6,5.9-5.9,5.9c-3.3,0-5.9-2.7-5.9-5.9c0-3.3,2.7-5.9,5.9-5.9
			C186.2,195.4,188.9,198.1,188.9,201.3z M174.2,191.1c-3.3,0-5.9-2.7-5.9-5.9c0-3.3,2.6-5.9,5.9-5.9c3.3,0,5.9,2.7,5.9,5.9
			C180.1,188.4,177.5,191.1,174.2,191.1z M171.1,201.3c0,3.3-2.6,5.9-5.9,5.9s-5.9-2.7-5.9-5.9c0-3.3,2.7-5.9,5.9-5.9
			S171.1,198.1,171.1,201.3z M156.4,191.1c-3.3,0-5.9-2.7-5.9-5.9c0-3.3,2.6-5.9,5.9-5.9c3.3,0,5.9,2.7,5.9,5.9
			C162.3,188.4,159.7,191.1,156.4,191.1z M153.3,201.3c0,3.3-2.6,5.9-5.9,5.9c-3.3,0-5.9-2.7-5.9-5.9c0-3.3,2.7-5.9,5.9-5.9
			C150.6,195.4,153.3,198.1,153.3,201.3z M138.6,191.1c-3.3,0-5.9-2.7-5.9-5.9c0-3.3,2.7-5.9,5.9-5.9s5.9,2.7,5.9,5.9
			C144.5,188.4,141.9,191.1,138.6,191.1z M135.5,201.3c0,3.3-2.7,5.9-5.9,5.9s-5.9-2.7-5.9-5.9c0-3.3,2.7-5.9,5.9-5.9
			S135.5,198.1,135.5,201.3z M126.7,217.5c0,3.3-2.7,5.9-5.9,5.9s-5.9-2.7-5.9-5.9c0-3.3,2.7-5.9,5.9-5.9S126.7,214.3,126.7,217.5z
			 M111.7,207.3c-3.3,0-5.9-2.7-5.9-5.9c0-3.3,2.7-5.9,5.9-5.9s5.9,2.7,5.9,5.9C117.6,204.6,115,207.3,111.7,207.3z M108.9,217.5
			c0,3.3-2.7,5.9-5.9,5.9s-5.9-2.7-5.9-5.9c0-3.3,2.7-5.9,5.9-5.9S108.9,214.3,108.9,217.5z M93.9,207.3c-3.3,0-5.9-2.7-5.9-5.9
			c0-3.3,2.7-5.9,5.9-5.9s5.9,2.7,5.9,5.9C99.8,204.6,97.2,207.3,93.9,207.3z M91.1,217.5c0,3.3-2.7,5.9-5.9,5.9
			c-3.3,0-5.9-2.7-5.9-5.9c0-3.3,2.7-5.9,5.9-5.9C88.4,211.6,91.1,214.3,91.1,217.5z M82,233.7c0,3.3-2.7,5.9-5.9,5.9
			c-3.3,0-5.9-2.6-5.9-5.9c0-3.3,2.7-5.9,5.9-5.9C79.4,227.8,82,230.4,82,233.7z M82,266.1L82,266.1c0,3.3-2.7,5.9-5.9,5.9
			c-3.3,0-5.9-2.6-5.9-5.9c0-3.3,2.7-5.9,5.9-5.9C79.4,260.2,82,262.8,82,266.1z M82,298.5c0,3.3-2.7,5.9-5.9,5.9
			c-3.3,0-5.9-2.7-5.9-5.9s2.7-5.9,5.9-5.9C79.4,292.5,82,295.2,82,298.5z M85.2,308.7c3.3,0,5.9,2.7,5.9,5.9s-2.7,5.9-5.9,5.9
			c-3.3,0-5.9-2.7-5.9-5.9C79.2,311.4,81.9,308.7,85.2,308.7z M93.9,324.9c3.3,0,5.9,2.7,5.9,5.9s-2.7,5.9-5.9,5.9s-5.9-2.7-5.9-5.9
			S90.6,324.9,93.9,324.9z M97,314.7c0-3.3,2.7-5.9,5.9-5.9s5.9,2.7,5.9,5.9s-2.7,5.9-5.9,5.9S97,317.9,97,314.7z M111.7,324.9
			c3.3,0,5.9,2.7,5.9,5.9s-2.7,5.9-5.9,5.9s-5.9-2.7-5.9-5.9S108.4,324.9,111.7,324.9z M114.9,314.7c0-3.3,2.7-5.9,5.9-5.9
			s5.9,2.7,5.9,5.9s-2.7,5.9-5.9,5.9S114.9,317.9,114.9,314.7z M129.5,324.9c3.3,0,5.9,2.7,5.9,5.9s-2.7,5.9-5.9,5.9
			s-5.9-2.7-5.9-5.9S126.3,324.9,129.5,324.9z M138.6,341.1c3.3,0,5.9,2.7,5.9,5.9s-2.6,5.9-5.9,5.9s-5.9-2.7-5.9-5.9
			S135.3,341.1,138.6,341.1z M141.4,330.9c0-3.3,2.7-5.9,5.9-5.9c3.3,0,5.9,2.7,5.9,5.9s-2.6,5.9-5.9,5.9
			C144.1,336.8,141.4,334.1,141.4,330.9z M156.4,341.1c3.3,0,5.9,2.7,5.9,5.9s-2.7,5.9-5.9,5.9c-3.3,0-5.9-2.7-5.9-5.9
			S153.1,341.1,156.4,341.1z M159.2,330.9c0-3.3,2.7-5.9,5.9-5.9s5.9,2.7,5.9,5.9s-2.6,5.9-5.9,5.9S159.2,334.1,159.2,330.9z
			 M174.2,341.1c3.3,0,5.9,2.7,5.9,5.9s-2.7,5.9-5.9,5.9s-5.9-2.7-5.9-5.9S171,341.1,174.2,341.1z M177,330.9c0-3.3,2.7-5.9,5.9-5.9
			c3.3,0,5.9,2.7,5.9,5.9s-2.6,5.9-5.9,5.9C179.7,336.8,177,334.1,177,330.9z M192,341.1c3.3,0,5.9,2.7,5.9,5.9s-2.7,5.9-5.9,5.9
			s-5.9-2.7-5.9-5.9S188.8,341.1,192,341.1z M194.9,330.9c0-3.3,2.6-5.9,5.9-5.9c3.3,0,5.9,2.7,5.9,5.9s-2.7,5.9-5.9,5.9
			C197.5,336.8,194.9,334.1,194.9,330.9z M209.9,341.1c3.3,0,5.9,2.7,5.9,5.9s-2.6,5.9-5.9,5.9s-5.9-2.7-5.9-5.9
			S206.6,341.1,209.9,341.1z M212.7,330.9c0-3.3,2.7-5.9,5.9-5.9c3.3,0,5.9,2.7,5.9,5.9s-2.6,5.9-5.9,5.9
			C215.3,336.8,212.7,334.1,212.7,330.9z M227.7,341.1c3.3,0,5.9,2.7,5.9,5.9s-2.6,5.9-5.9,5.9c-3.3,0-5.9-2.7-5.9-5.9
			S224.4,341.1,227.7,341.1z M230.5,330.9c0-3.3,2.6-5.9,5.9-5.9c3.3,0,5.9,2.7,5.9,5.9s-2.7,5.9-5.9,5.9
			C233.1,336.8,230.5,334.1,230.5,330.9z M245.5,341.1c3.3,0,5.9,2.7,5.9,5.9s-2.7,5.9-5.9,5.9c-3.3,0-5.9-2.7-5.9-5.9
			S242.2,341.1,245.5,341.1z M263.2,341.1c3.3,0,5.9,2.7,5.9,5.9s-2.7,5.9-5.9,5.9s-5.9-2.7-5.9-5.9S260,341.1,263.2,341.1z
			 M266,330.9c0-3.3,2.7-5.9,5.9-5.9s5.9,2.7,5.9,5.9s-2.7,5.9-5.9,5.9S266,334.1,266,330.9z M281,341.1c3.3,0,5.9,2.7,5.9,5.9
			s-2.7,5.9-5.9,5.9s-5.9-2.7-5.9-5.9S277.8,341.1,281,341.1z M283.9,330.9c0-3.3,2.7-5.9,5.9-5.9s5.9,2.7,5.9,5.9s-2.7,5.9-5.9,5.9
			C286.5,336.8,283.9,334.1,283.9,330.9z M298.9,341.1c3.3,0,5.9,2.7,5.9,5.9s-2.7,5.9-5.9,5.9s-5.9-2.7-5.9-5.9
			S295.6,341.1,298.9,341.1z M301.7,330.9c0-3.3,2.7-5.9,5.9-5.9s5.9,2.7,5.9,5.9s-2.7,5.9-5.9,5.9
			C304.3,336.8,301.7,334.1,301.7,330.9z M316.7,341.1c3.3,0,5.9,2.7,5.9,5.9s-2.7,5.9-5.9,5.9s-5.9-2.7-5.9-5.9
			S313.4,341.1,316.7,341.1z M319.5,330.9c0-3.3,2.7-5.9,5.9-5.9s5.9,2.7,5.9,5.9s-2.7,5.9-5.9,5.9
			C322.1,336.8,319.5,334.1,319.5,330.9z M334.5,341.1c3.3,0,5.9,2.7,5.9,5.9s-2.7,5.9-5.9,5.9s-5.9-2.7-5.9-5.9
			S331.2,341.1,334.5,341.1z M337.3,330.9c0-3.3,2.7-5.9,5.9-5.9s5.9,2.7,5.9,5.9s-2.7,5.9-5.9,5.9S337.3,334.1,337.3,330.9z
			 M352.3,341.1c3.3,0,5.9,2.7,5.9,5.9s-2.7,5.9-5.9,5.9c-3.3,0-5.9-2.7-5.9-5.9S349,341.1,352.3,341.1z M355.1,330.9
			c0-3.3,2.7-5.9,5.9-5.9s5.9,2.7,5.9,5.9s-2.7,5.9-5.9,5.9S355.1,334.1,355.1,330.9z M370.1,341.1c3.3,0,5.9,2.7,5.9,5.9
			s-2.7,5.9-5.9,5.9s-5.9-2.7-5.9-5.9S366.8,341.1,370.1,341.1z M372.9,330.9c0-3.3,2.7-5.9,5.9-5.9s5.9,2.7,5.9,5.9
			s-2.7,5.9-5.9,5.9C375.6,336.8,372.9,334.1,372.9,330.9z M387.9,341.1c3.3,0,5.9,2.7,5.9,5.9s-2.7,5.9-5.9,5.9s-5.9-2.7-5.9-5.9
			S384.7,341.1,387.9,341.1z M396.7,357.3c3.3,0,5.9,2.7,5.9,5.9s-2.7,5.9-5.9,5.9s-5.9-2.7-5.9-5.9S393.4,357.3,396.7,357.3z
			 M399.8,347c0-3.3,2.7-5.9,5.9-5.9s5.9,2.7,5.9,5.9s-2.7,5.9-5.9,5.9S399.8,350.3,399.8,347z M414.5,357.3c3.3,0,5.9,2.7,5.9,5.9
			s-2.7,5.9-5.9,5.9s-5.9-2.7-5.9-5.9S411.2,357.3,414.5,357.3z M417.6,347c0-3.3,2.7-5.9,5.9-5.9s5.9,2.7,5.9,5.9s-2.7,5.9-5.9,5.9
			S417.6,350.3,417.6,347z M426.4,330.9c0-3.3,2.7-5.9,5.9-5.9s5.9,2.7,5.9,5.9s-2.7,5.9-5.9,5.9C429,336.8,426.4,334.1,426.4,330.9
			z M435.4,314.7c0-3.3,2.7-5.9,5.9-5.9s5.9,2.7,5.9,5.9s-2.7,5.9-5.9,5.9C438.1,320.6,435.4,317.9,435.4,314.7z M435.4,282.3
			c0-3.3,2.7-5.9,5.9-5.9s5.9,2.7,5.9,5.9s-2.7,5.9-5.9,5.9C438.1,288.2,435.4,285.6,435.4,282.3z M435.4,249.9
			c0-3.3,2.7-5.9,5.9-5.9s5.9,2.6,5.9,5.9s-2.7,5.9-5.9,5.9C438.1,255.8,435.4,253.2,435.4,249.9z M435.4,217.5
			c0-3.3,2.7-5.9,5.9-5.9s5.9,2.7,5.9,5.9s-2.7,5.9-5.9,5.9C438.1,223.5,435.4,220.8,435.4,217.5z M432.3,207.3
			c-3.3,0-5.9-2.7-5.9-5.9c0-3.3,2.7-5.9,5.9-5.9s5.9,2.7,5.9,5.9C438.2,204.6,435.6,207.3,432.3,207.3z M423.6,191.1
			c-3.3,0-5.9-2.7-5.9-5.9c0-3.3,2.7-5.9,5.9-5.9s5.9,2.7,5.9,5.9C429.5,188.4,426.8,191.1,423.6,191.1z M414.5,174.9
			c-3.3,0-5.9-2.7-5.9-5.9c0-3.3,2.7-5.9,5.9-5.9s5.9,2.6,5.9,5.9C420.4,172.2,417.8,174.9,414.5,174.9z M411.7,185.2
			c0,3.3-2.7,5.9-5.9,5.9s-5.9-2.7-5.9-5.9c0-3.3,2.7-5.9,5.9-5.9S411.7,181.9,411.7,185.2z M396.7,174.9c-3.3,0-5.9-2.7-5.9-5.9
			c0-3.3,2.7-5.9,5.9-5.9s5.9,2.6,5.9,5.9C402.6,172.2,399.9,174.9,396.7,174.9z M393.8,185.2c0,3.3-2.7,5.9-5.9,5.9
			s-5.9-2.7-5.9-5.9c0-3.3,2.7-5.9,5.9-5.9S393.8,181.9,393.8,185.2z M378.9,174.9c-3.3,0-5.9-2.7-5.9-5.9c0-3.3,2.7-5.9,5.9-5.9
			s5.9,2.6,5.9,5.9C384.8,172.2,382.1,174.9,378.9,174.9z M370.1,158.7c-3.3,0-5.9-2.7-5.9-5.9c0-3.3,2.7-5.9,5.9-5.9
			s5.9,2.7,5.9,5.9C376,156,373.4,158.7,370.1,158.7z M367,169c0,3.3-2.7,5.9-5.9,5.9s-5.9-2.7-5.9-5.9c0-3.3,2.7-5.9,5.9-5.9
			S367,165.7,367,169z M352.3,158.7c-3.3,0-5.9-2.7-5.9-5.9c0-3.3,2.7-5.9,5.9-5.9s5.9,2.7,5.9,5.9
			C358.2,156,355.6,158.7,352.3,158.7z M349.2,169c0,3.3-2.7,5.9-5.9,5.9s-5.9-2.7-5.9-5.9c0-3.3,2.7-5.9,5.9-5.9
			S349.2,165.7,349.2,169z M334.5,158.7c-3.3,0-5.9-2.7-5.9-5.9c0-3.3,2.7-5.9,5.9-5.9c3.3,0,5.9,2.7,5.9,5.9
			C340.4,156,337.8,158.7,334.5,158.7z M331.3,169c0,3.3-2.7,5.9-5.9,5.9s-5.9-2.7-5.9-5.9c0-3.3,2.7-5.9,5.9-5.9
			C328.7,163,331.3,165.7,331.3,169z M316.7,158.7c-3.3,0-5.9-2.7-5.9-5.9c0-3.3,2.7-5.9,5.9-5.9s5.9,2.7,5.9,5.9
			C322.6,156,319.9,158.7,316.7,158.7z M313.5,169c0,3.3-2.7,5.9-5.9,5.9s-5.9-2.7-5.9-5.9c0-3.3,2.7-5.9,5.9-5.9
			C310.9,163,313.5,165.7,313.5,169z M298.9,158.7c-3.3,0-5.9-2.7-5.9-5.9c0-3.3,2.7-5.9,5.9-5.9s5.9,2.7,5.9,5.9
			C304.8,156,302.1,158.7,298.9,158.7z M295.7,169c0,3.3-2.7,5.9-5.9,5.9s-5.9-2.7-5.9-5.9c0-3.3,2.7-5.9,5.9-5.9
			C293.1,163,295.7,165.7,295.7,169z M281,158.7c-3.3,0-5.9-2.7-5.9-5.9c0-3.3,2.7-5.9,5.9-5.9s5.9,2.7,5.9,5.9
			C287,156,284.3,158.7,281,158.7z M277.9,169c0,3.3-2.7,5.9-5.9,5.9s-5.9-2.7-5.9-5.9c0-3.3,2.7-5.9,5.9-5.9S277.9,165.7,277.9,169
			z M263.2,158.7c-3.3,0-5.9-2.7-5.9-5.9c0-3.3,2.7-5.9,5.9-5.9s5.9,2.7,5.9,5.9C269.1,156,266.5,158.7,263.2,158.7z M260.1,169
			c0,3.3-2.6,5.9-5.9,5.9c-3.3,0-5.9-2.7-5.9-5.9c0-3.3,2.6-5.9,5.9-5.9C257.5,163.1,260.1,165.7,260.1,169z M245.5,158.7
			c-3.3,0-5.9-2.7-5.9-5.9c0-3.3,2.7-5.9,5.9-5.9c3.3,0,5.9,2.7,5.9,5.9C251.4,156,248.8,158.7,245.5,158.7z M242.3,169
			c0,3.3-2.7,5.9-5.9,5.9c-3.3,0-5.9-2.7-5.9-5.9c0-3.3,2.6-5.9,5.9-5.9C239.7,163,242.3,165.7,242.3,169z M227.7,158.7
			c-3.3,0-5.9-2.7-5.9-5.9c0-3.3,2.7-5.9,5.9-5.9c3.3,0,5.9,2.7,5.9,5.9C233.6,156,230.9,158.7,227.7,158.7z M224.5,169
			c0,3.3-2.6,5.9-5.9,5.9c-3.3,0-5.9-2.7-5.9-5.9c0-3.3,2.7-5.9,5.9-5.9C221.9,163,224.5,165.7,224.5,169z M209.9,158.7
			c-3.3,0-5.9-2.7-5.9-5.9c0-3.3,2.7-5.9,5.9-5.9c3.3,0,5.9,2.7,5.9,5.9C215.8,156,213.1,158.7,209.9,158.7z M206.7,169
			c0,3.3-2.7,5.9-5.9,5.9c-3.3,0-5.9-2.7-5.9-5.9c0-3.3,2.6-5.9,5.9-5.9C204.1,163,206.7,165.7,206.7,169z M192,158.7
			c-3.3,0-5.9-2.7-5.9-5.9c0-3.3,2.6-5.9,5.9-5.9c3.3,0,5.9,2.7,5.9,5.9C198,156,195.3,158.7,192,158.7z M188.9,169
			c0,3.3-2.6,5.9-5.9,5.9c-3.3,0-5.9-2.7-5.9-5.9c0-3.3,2.7-5.9,5.9-5.9C186.2,163,188.9,165.7,188.9,169z M174.2,158.7
			c-3.3,0-5.9-2.7-5.9-5.9c0-3.3,2.6-5.9,5.9-5.9c3.3,0,5.9,2.7,5.9,5.9C180.1,156,177.5,158.7,174.2,158.7z M171.1,169
			c0,3.3-2.6,5.9-5.9,5.9s-5.9-2.7-5.9-5.9c0-3.3,2.7-5.9,5.9-5.9S171.1,165.7,171.1,169z M156.4,158.7c-3.3,0-5.9-2.7-5.9-5.9
			c0-3.3,2.6-5.9,5.9-5.9c3.3,0,5.9,2.7,5.9,5.9C162.3,156,159.7,158.7,156.4,158.7z M153.3,169c0,3.3-2.6,5.9-5.9,5.9
			c-3.3,0-5.9-2.7-5.9-5.9c0-3.3,2.7-5.9,5.9-5.9C150.6,163,153.3,165.7,153.3,169z M138.6,158.7c-3.3,0-5.9-2.7-5.9-5.9
			c0-3.3,2.7-5.9,5.9-5.9s5.9,2.7,5.9,5.9C144.5,156,141.9,158.7,138.6,158.7z M135.5,169c0,3.3-2.7,5.9-5.9,5.9s-5.9-2.7-5.9-5.9
			c0-3.3,2.7-5.9,5.9-5.9S135.5,165.7,135.5,169z M126.7,185.2c0,3.3-2.7,5.9-5.9,5.9s-5.9-2.7-5.9-5.9c0-3.3,2.7-5.9,5.9-5.9
			S126.7,181.9,126.7,185.2z M111.7,174.9c-3.3,0-5.9-2.7-5.9-5.9c0-3.3,2.7-5.9,5.9-5.9s5.9,2.6,5.9,5.9
			C117.6,172.2,115,174.9,111.7,174.9z M108.9,185.2c0,3.3-2.7,5.9-5.9,5.9s-5.9-2.7-5.9-5.9c0-3.3,2.7-5.9,5.9-5.9
			S108.9,181.9,108.9,185.2z M93.9,174.9c-3.3,0-5.9-2.7-5.9-5.9c0-3.3,2.7-5.9,5.9-5.9s5.9,2.6,5.9,5.9
			C99.8,172.2,97.2,174.9,93.9,174.9z M91.1,185.2c0,3.3-2.7,5.9-5.9,5.9c-3.3,0-5.9-2.7-5.9-5.9c0-3.3,2.7-5.9,5.9-5.9
			C88.4,179.2,91.1,181.9,91.1,185.2z M82,201.3c0,3.3-2.7,5.9-5.9,5.9c-3.3,0-5.9-2.7-5.9-5.9c0-3.3,2.7-5.9,5.9-5.9
			C79.4,195.4,82,198.1,82,201.3z M73.3,217.5c0,3.3-2.7,5.9-5.9,5.9c-3.3,0-5.9-2.7-5.9-5.9c0-3.3,2.7-5.9,5.9-5.9
			C70.6,211.6,73.3,214.3,73.3,217.5z M73.3,249.9c0,3.3-2.7,5.9-5.9,5.9c-3.3,0-5.9-2.7-5.9-5.9c0-3.3,2.7-5.9,5.9-5.9
			C70.6,244,73.3,246.6,73.3,249.9z M73.3,282.3c0,3.3-2.7,5.9-5.9,5.9c-3.3,0-5.9-2.7-5.9-5.9s2.7-5.9,5.9-5.9
			C70.6,276.4,73.3,279,73.3,282.3z M73.3,314.7c0,3.3-2.7,5.9-5.9,5.9c-3.3,0-5.9-2.7-5.9-5.9s2.7-5.9,5.9-5.9
			C70.6,308.7,73.3,311.4,73.3,314.7z M76.1,324.9c3.3,0,5.9,2.7,5.9,5.9s-2.7,5.9-5.9,5.9c-3.3,0-5.9-2.7-5.9-5.9
			S72.8,324.9,76.1,324.9z M85.2,341.1c3.3,0,5.9,2.7,5.9,5.9s-2.7,5.9-5.9,5.9c-3.3,0-5.9-2.7-5.9-5.9S81.9,341.1,85.2,341.1z
			 M93.9,357.3c3.3,0,5.9,2.7,5.9,5.9s-2.7,5.9-5.9,5.9s-5.9-2.7-5.9-5.9C88,360,90.6,357.3,93.9,357.3z M97,347
			c0-3.3,2.7-5.9,5.9-5.9s5.9,2.7,5.9,5.9s-2.7,5.9-5.9,5.9S97,350.3,97,347z M111.7,357.3c3.3,0,5.9,2.7,5.9,5.9s-2.7,5.9-5.9,5.9
			s-5.9-2.7-5.9-5.9C105.8,360,108.4,357.3,111.7,357.3z M114.9,347c0-3.3,2.7-5.9,5.9-5.9s5.9,2.7,5.9,5.9s-2.7,5.9-5.9,5.9
			S114.9,350.3,114.9,347z M129.5,357.3c3.3,0,5.9,2.7,5.9,5.9s-2.7,5.9-5.9,5.9s-5.9-2.7-5.9-5.9
			C123.6,360,126.3,357.3,129.5,357.3z M138.6,373.1c3.3,0,5.9,2.7,5.9,5.9s-2.6,5.9-5.9,5.9s-5.9-2.7-5.9-5.9
			S135.3,373.1,138.6,373.1z M141.4,363.2c0-3.3,2.7-5.9,5.9-5.9c3.3,0,5.9,2.7,5.9,5.9s-2.6,5.9-5.9,5.9S141.4,366.5,141.4,363.2z
			 M156.4,373.1c3.3,0,5.9,2.7,5.9,5.9s-2.7,5.9-5.9,5.9c-3.3,0-5.9-2.7-5.9-5.9S153.1,373.1,156.4,373.1z M159.2,363.2
			c0-3.3,2.7-5.9,5.9-5.9s5.9,2.7,5.9,5.9s-2.6,5.9-5.9,5.9S159.2,366.5,159.2,363.2z M174.2,373.1c3.3,0,5.9,2.7,5.9,5.9
			s-2.7,5.9-5.9,5.9s-5.9-2.7-5.9-5.9S171,373.1,174.2,373.1z M177,363.2c0-3.3,2.7-5.9,5.9-5.9c3.3,0,5.9,2.7,5.9,5.9
			s-2.6,5.9-5.9,5.9S177,366.5,177,363.2z M192,373.1c3.3,0,5.9,2.7,5.9,5.9s-2.7,5.9-5.9,5.9s-5.9-2.7-5.9-5.9
			S188.8,373.1,192,373.1z M194.9,363.2c0-3.3,2.6-5.9,5.9-5.9c3.3,0,5.9,2.7,5.9,5.9s-2.7,5.9-5.9,5.9
			C197.5,369.2,194.9,366.5,194.9,363.2z M209.9,373.1c3.3,0,5.9,2.7,5.9,5.9s-2.6,5.9-5.9,5.9s-5.9-2.7-5.9-5.9
			S206.6,373.1,209.9,373.1z M212.7,363.2c0-3.3,2.7-5.9,5.9-5.9c3.3,0,5.9,2.7,5.9,5.9s-2.6,5.9-5.9,5.9S212.7,366.5,212.7,363.2z
			 M227.7,373.1c3.3,0,5.9,2.7,5.9,5.9s-2.6,5.9-5.9,5.9c-3.3,0-5.9-2.7-5.9-5.9S224.4,373.1,227.7,373.1z M230.5,363.2
			c0-3.3,2.6-5.9,5.9-5.9c3.3,0,5.9,2.7,5.9,5.9s-2.7,5.9-5.9,5.9C233.1,369.2,230.5,366.5,230.5,363.2z M245.5,373.1
			c3.3,0,5.9,2.7,5.9,5.9s-2.7,5.9-5.9,5.9c-3.3,0-5.9-2.7-5.9-5.9S242.2,373.1,245.5,373.1z M263.2,373.1c3.3,0,5.9,2.7,5.9,5.9
			s-2.7,5.9-5.9,5.9s-5.9-2.7-5.9-5.9S260,373.1,263.2,373.1z M266,363.2c0-3.3,2.7-5.9,5.9-5.9s5.9,2.7,5.9,5.9s-2.7,5.9-5.9,5.9
			S266,366.5,266,363.2z M281,373.1c3.3,0,5.9,2.7,5.9,5.9s-2.7,5.9-5.9,5.9s-5.9-2.7-5.9-5.9S277.8,373.1,281,373.1z M283.9,363.2
			c0-3.3,2.7-5.9,5.9-5.9s5.9,2.7,5.9,5.9s-2.7,5.9-5.9,5.9S283.9,366.5,283.9,363.2z M298.9,373.1c3.3,0,5.9,2.7,5.9,5.9
			s-2.7,5.9-5.9,5.9s-5.9-2.7-5.9-5.9S295.6,373.1,298.9,373.1z M301.7,363.2c0-3.3,2.7-5.9,5.9-5.9s5.9,2.7,5.9,5.9
			s-2.7,5.9-5.9,5.9C304.3,369.2,301.7,366.5,301.7,363.2z M316.7,373.1c3.3,0,5.9,2.7,5.9,5.9s-2.7,5.9-5.9,5.9s-5.9-2.7-5.9-5.9
			S313.4,373.1,316.7,373.1z M319.5,363.2c0-3.3,2.7-5.9,5.9-5.9s5.9,2.7,5.9,5.9s-2.7,5.9-5.9,5.9
			C322.1,369.2,319.5,366.5,319.5,363.2z M334.5,373.1c3.3,0,5.9,2.7,5.9,5.9s-2.7,5.9-5.9,5.9s-5.9-2.7-5.9-5.9
			S331.2,373.1,334.5,373.1z M337.3,363.2c0-3.3,2.7-5.9,5.9-5.9s5.9,2.7,5.9,5.9s-2.7,5.9-5.9,5.9S337.3,366.5,337.3,363.2z
			 M352.3,373.1c3.3,0,5.9,2.7,5.9,5.9s-2.7,5.9-5.9,5.9c-3.3,0-5.9-2.7-5.9-5.9S349,373.1,352.3,373.1z M355.1,363.2
			c0-3.3,2.7-5.9,5.9-5.9s5.9,2.7,5.9,5.9s-2.7,5.9-5.9,5.9S355.1,366.5,355.1,363.2z M370.1,373.1c3.3,0,5.9,2.7,5.9,5.9
			s-2.7,5.9-5.9,5.9s-5.9-2.7-5.9-5.9S366.8,373.1,370.1,373.1z M372.9,363.2c0-3.3,2.7-5.9,5.9-5.9s5.9,2.7,5.9,5.9
			s-2.7,5.9-5.9,5.9C375.6,369.2,372.9,366.5,372.9,363.2z M387.9,373.1c3.3,0,5.9,2.7,5.9,5.9s-2.7,5.9-5.9,5.9s-5.9-2.7-5.9-5.9
			S384.7,373.1,387.9,373.1z M396.7,389.3c3.3,0,5.9,2.7,5.9,5.9s-2.7,5.9-5.9,5.9s-5.9-2.7-5.9-5.9S393.4,389.3,396.7,389.3z
			 M399.8,379c0-3.3,2.7-5.9,5.9-5.9s5.9,2.7,5.9,5.9s-2.7,5.9-5.9,5.9S399.8,382.3,399.8,379z M414.5,389.3c3.3,0,5.9,2.7,5.9,5.9
			s-2.7,5.9-5.9,5.9s-5.9-2.7-5.9-5.9S411.2,389.3,414.5,389.3z M417.6,379c0-3.3,2.7-5.9,5.9-5.9s5.9,2.7,5.9,5.9s-2.7,5.9-5.9,5.9
			S417.6,382.3,417.6,379z M426.4,363.2c0-3.3,2.7-5.9,5.9-5.9s5.9,2.7,5.9,5.9s-2.7,5.9-5.9,5.9C429,369.2,426.4,366.5,426.4,363.2
			z M441.4,373.1c3.3,0,5.9,2.7,5.9,5.9s-2.7,5.9-5.9,5.9s-5.9-2.7-5.9-5.9S438.1,373.1,441.4,373.1z M435.4,347
			c0-3.3,2.7-5.9,5.9-5.9s5.9,2.7,5.9,5.9s-2.7,5.9-5.9,5.9C438.1,353,435.4,350.3,435.4,347z M444.2,330.9c0-3.3,2.7-5.9,5.9-5.9
			s5.9,2.7,5.9,5.9s-2.7,5.9-5.9,5.9S444.2,334.1,444.2,330.9z M444.2,298.5c0-3.3,2.7-5.9,5.9-5.9s5.9,2.7,5.9,5.9
			s-2.7,5.9-5.9,5.9S444.2,301.7,444.2,298.5z M444.2,266.1L444.2,266.1c0-3.3,2.7-5.9,5.9-5.9s5.9,2.7,5.9,5.9l0,0
			c0,3.3-2.7,5.9-5.9,5.9C446.8,272,444.2,269.4,444.2,266.1z M444.2,233.7c0-3.3,2.7-5.9,5.9-5.9s5.9,2.7,5.9,5.9
			c0,3.3-2.7,5.9-5.9,5.9S444.2,237,444.2,233.7z M444.2,201.3c0-3.3,2.7-5.9,5.9-5.9s5.9,2.7,5.9,5.9c0,3.3-2.7,5.9-5.9,5.9
			S444.2,204.6,444.2,201.3z M441.4,191.1c-3.3,0-5.9-2.7-5.9-5.9c0-3.3,2.7-5.9,5.9-5.9s5.9,2.7,5.9,5.9
			C447.3,188.4,444.6,191.1,441.4,191.1z M435.4,152.8c0-3.3,2.7-5.9,5.9-5.9s5.9,2.7,5.9,5.9c0,3.3-2.7,5.9-5.9,5.9
			C438.1,158.7,435.4,156,435.4,152.8z M438.2,169c0,3.3-2.7,5.9-5.9,5.9s-5.9-2.7-5.9-5.9c0-3.3,2.7-5.9,5.9-5.9
			C435.6,163,438.2,165.7,438.2,169z M423.6,158.7c-3.3,0-5.9-2.7-5.9-5.9c0-3.3,2.7-5.9,5.9-5.9s5.9,2.7,5.9,5.9
			C429.5,156,426.8,158.7,423.6,158.7z M414.5,142.5c-3.3,0-5.9-2.7-5.9-5.9c0-3.3,2.7-5.9,5.9-5.9s5.9,2.7,5.9,5.9
			C420.4,139.9,417.8,142.5,414.5,142.5z M411.7,152.8c0,3.3-2.7,5.9-5.9,5.9s-5.9-2.7-5.9-5.9c0-3.3,2.7-5.9,5.9-5.9
			S411.7,149.5,411.7,152.8z M396.7,142.5c-3.3,0-5.9-2.7-5.9-5.9c0-3.3,2.7-5.9,5.9-5.9s5.9,2.7,5.9,5.9
			C402.6,139.9,399.9,142.5,396.7,142.5z M393.8,152.8c0,3.3-2.7,5.9-5.9,5.9s-5.9-2.7-5.9-5.9c0-3.3,2.7-5.9,5.9-5.9
			S393.8,149.5,393.8,152.8z M378.9,142.5c-3.3,0-5.9-2.7-5.9-5.9c0-3.3,2.7-5.9,5.9-5.9s5.9,2.7,5.9,5.9
			C384.8,139.9,382.1,142.5,378.9,142.5z M370.1,126.3c-3.3,0-5.9-2.7-5.9-5.9s2.7-5.9,5.9-5.9s5.9,2.7,5.9,5.9
			C376,123.7,373.4,126.3,370.1,126.3z M367,136.6c0,3.3-2.7,5.9-5.9,5.9s-5.9-2.7-5.9-5.9c0-3.3,2.7-5.9,5.9-5.9
			S367,133.3,367,136.6z M352.3,126.3c-3.3,0-5.9-2.7-5.9-5.9s2.7-5.9,5.9-5.9s5.9,2.7,5.9,5.9C358.2,123.7,355.6,126.3,352.3,126.3
			z M349.2,136.6c0,3.3-2.7,5.9-5.9,5.9s-5.9-2.7-5.9-5.9c0-3.3,2.7-5.9,5.9-5.9S349.2,133.3,349.2,136.6z M334.5,126.3
			c-3.3,0-5.9-2.7-5.9-5.9s2.7-5.9,5.9-5.9c3.3,0,5.9,2.7,5.9,5.9C340.4,123.7,337.8,126.3,334.5,126.3z M331.3,136.6
			c0,3.3-2.7,5.9-5.9,5.9s-5.9-2.7-5.9-5.9c0-3.3,2.7-5.9,5.9-5.9C328.7,130.7,331.3,133.3,331.3,136.6z M316.7,126.3
			c-3.3,0-5.9-2.7-5.9-5.9s2.7-5.9,5.9-5.9s5.9,2.7,5.9,5.9C322.6,123.7,319.9,126.3,316.7,126.3z M313.5,136.6
			c0,3.3-2.7,5.9-5.9,5.9s-5.9-2.7-5.9-5.9c0-3.3,2.7-5.9,5.9-5.9C310.9,130.7,313.5,133.3,313.5,136.6z M298.9,126.3
			c-3.3,0-5.9-2.7-5.9-5.9s2.7-5.9,5.9-5.9s5.9,2.7,5.9,5.9C304.8,123.7,302.1,126.3,298.9,126.3z M295.7,136.6
			c0,3.3-2.7,5.9-5.9,5.9s-5.9-2.7-5.9-5.9c0-3.3,2.7-5.9,5.9-5.9C293.1,130.7,295.7,133.3,295.7,136.6z M281,126.3
			c-3.3,0-5.9-2.7-5.9-5.9s2.7-5.9,5.9-5.9s5.9,2.7,5.9,5.9C287,123.7,284.3,126.3,281,126.3z M277.9,136.6c0,3.3-2.7,5.9-5.9,5.9
			s-5.9-2.7-5.9-5.9c0-3.3,2.7-5.9,5.9-5.9S277.9,133.3,277.9,136.6z M263.2,126.3c-3.3,0-5.9-2.7-5.9-5.9s2.7-5.9,5.9-5.9
			s5.9,2.7,5.9,5.9C269.1,123.7,266.5,126.3,263.2,126.3z M260.1,136.6c0,3.3-2.6,5.9-5.9,5.9v0c-3.3,0-5.9-2.7-5.9-5.9
			c0-3.3,2.6-5.9,5.9-5.9C257.5,130.7,260.1,133.3,260.1,136.6z M245.5,126.3c-3.3,0-5.9-2.7-5.9-5.9s2.7-5.9,5.9-5.9
			c3.3,0,5.9,2.7,5.9,5.9C251.4,123.7,248.8,126.3,245.5,126.3z M242.3,136.6c0,3.3-2.7,5.9-5.9,5.9c-3.3,0-5.9-2.7-5.9-5.9
			c0-3.3,2.6-5.9,5.9-5.9C239.7,130.7,242.3,133.3,242.3,136.6z M227.7,126.3c-3.3,0-5.9-2.7-5.9-5.9s2.7-5.9,5.9-5.9
			c3.3,0,5.9,2.7,5.9,5.9C233.6,123.7,230.9,126.3,227.7,126.3z M224.5,136.6c0,3.3-2.6,5.9-5.9,5.9c-3.3,0-5.9-2.7-5.9-5.9
			c0-3.3,2.7-5.9,5.9-5.9C221.9,130.7,224.5,133.3,224.5,136.6z M209.9,126.3c-3.3,0-5.9-2.7-5.9-5.9s2.7-5.9,5.9-5.9
			c3.3,0,5.9,2.7,5.9,5.9C215.8,123.7,213.1,126.3,209.9,126.3z M206.7,136.6c0,3.3-2.7,5.9-5.9,5.9c-3.3,0-5.9-2.7-5.9-5.9
			c0-3.3,2.6-5.9,5.9-5.9C204.1,130.7,206.7,133.3,206.7,136.6z M192,126.3c-3.3,0-5.9-2.7-5.9-5.9s2.6-5.9,5.9-5.9
			c3.3,0,5.9,2.7,5.9,5.9C198,123.7,195.3,126.3,192,126.3z M188.9,136.6c0,3.3-2.6,5.9-5.9,5.9c-3.3,0-5.9-2.7-5.9-5.9
			c0-3.3,2.7-5.9,5.9-5.9C186.2,130.7,188.9,133.3,188.9,136.6z M174.2,126.3c-3.3,0-5.9-2.7-5.9-5.9s2.6-5.9,5.9-5.9
			c3.3,0,5.9,2.7,5.9,5.9C180.1,123.7,177.5,126.3,174.2,126.3z M171.1,136.6c0,3.3-2.6,5.9-5.9,5.9s-5.9-2.7-5.9-5.9
			c0-3.3,2.7-5.9,5.9-5.9S171.1,133.3,171.1,136.6z M156.4,126.3c-3.3,0-5.9-2.7-5.9-5.9s2.6-5.9,5.9-5.9c3.3,0,5.9,2.7,5.9,5.9
			C162.3,123.7,159.7,126.3,156.4,126.3z M153.3,136.6c0,3.3-2.6,5.9-5.9,5.9c-3.3,0-5.9-2.7-5.9-5.9c0-3.3,2.7-5.9,5.9-5.9
			C150.6,130.7,153.3,133.3,153.3,136.6z M138.6,126.3c-3.3,0-5.9-2.7-5.9-5.9s2.7-5.9,5.9-5.9s5.9,2.7,5.9,5.9
			C144.5,123.7,141.9,126.3,138.6,126.3z M135.5,136.6c0,3.3-2.7,5.9-5.9,5.9s-5.9-2.7-5.9-5.9c0-3.3,2.7-5.9,5.9-5.9
			S135.5,133.3,135.5,136.6z M126.7,152.8c0,3.3-2.7,5.9-5.9,5.9s-5.9-2.7-5.9-5.9c0-3.3,2.7-5.9,5.9-5.9S126.7,149.5,126.7,152.8z
			 M111.7,142.5c-3.3,0-5.9-2.7-5.9-5.9c0-3.3,2.7-5.9,5.9-5.9s5.9,2.7,5.9,5.9C117.6,139.9,115,142.5,111.7,142.5z M108.9,152.8
			c0,3.3-2.7,5.9-5.9,5.9S97,156,97,152.8c0-3.3,2.7-5.9,5.9-5.9S108.9,149.5,108.9,152.8z M93.9,142.5c-3.3,0-5.9-2.7-5.9-5.9
			c0-3.3,2.7-5.9,5.9-5.9s5.9,2.7,5.9,5.9C99.8,139.9,97.2,142.5,93.9,142.5z M91.1,152.8c0,3.3-2.7,5.9-5.9,5.9
			c-3.3,0-5.9-2.7-5.9-5.9c0-3.3,2.7-5.9,5.9-5.9C88.4,146.9,91.1,149.5,91.1,152.8z M82,169c0,3.3-2.7,5.9-5.9,5.9
			c-3.3,0-5.9-2.7-5.9-5.9c0-3.3,2.7-5.9,5.9-5.9C79.4,163,82,165.7,82,169z M67.3,158.7c-3.3,0-5.9-2.7-5.9-5.9
			c0-3.3,2.7-5.9,5.9-5.9c3.3,0,5.9,2.7,5.9,5.9C73.3,156,70.6,158.7,67.3,158.7z M73.3,185.2c0,3.3-2.7,5.9-5.9,5.9
			c-3.3,0-5.9-2.7-5.9-5.9c0-3.3,2.7-5.9,5.9-5.9C70.6,179.2,73.3,181.9,73.3,185.2z M64.2,201.3c0,3.3-2.7,5.9-5.9,5.9
			c-3.3,0-5.9-2.7-5.9-5.9c0-3.3,2.7-5.9,5.9-5.9C61.5,195.4,64.2,198.1,64.2,201.3z M64.2,233.7c0,3.3-2.7,5.9-5.9,5.9
			c-3.3,0-5.9-2.6-5.9-5.9c0-3.3,2.7-5.9,5.9-5.9C61.5,227.8,64.2,230.4,64.2,233.7z M64.2,266.1c0,3.3-2.7,5.9-5.9,5.9
			c-3.3,0-5.9-2.6-5.9-5.9c0-3.3,2.7-5.9,5.9-5.9C61.5,260.2,64.2,262.8,64.2,266.1z M64.2,298.5c0,3.3-2.7,5.9-5.9,5.9
			c-3.3,0-5.9-2.7-5.9-5.9s2.7-5.9,5.9-5.9C61.5,292.5,64.2,295.2,64.2,298.5z M64.2,330.9c0,3.3-2.7,5.9-5.9,5.9
			c-3.3,0-5.9-2.7-5.9-5.9s2.7-5.9,5.9-5.9C61.5,324.9,64.2,327.6,64.2,330.9z M67.3,341.1c3.3,0,5.9,2.7,5.9,5.9s-2.7,5.9-5.9,5.9
			c-3.3,0-5.9-2.7-5.9-5.9S64.1,341.1,67.3,341.1z M73.3,379c0,3.3-2.7,5.9-5.9,5.9c-3.3,0-5.9-2.7-5.9-5.9s2.7-5.9,5.9-5.9
			C70.6,373.1,73.3,375.8,73.3,379z M70.2,363.2c0-3.3,2.7-5.9,5.9-5.9c3.3,0,5.9,2.7,5.9,5.9s-2.7,5.9-5.9,5.9
			C72.8,369.2,70.2,366.5,70.2,363.2z M85.2,373.1c3.3,0,5.9,2.7,5.9,5.9s-2.7,5.9-5.9,5.9c-3.3,0-5.9-2.7-5.9-5.9
			S81.9,373.1,85.2,373.1z M93.9,389.3c3.3,0,5.9,2.7,5.9,5.9s-2.7,5.9-5.9,5.9s-5.9-2.7-5.9-5.9S90.6,389.3,93.9,389.3z M97,379
			c0-3.3,2.7-5.9,5.9-5.9s5.9,2.7,5.9,5.9s-2.7,5.9-5.9,5.9S97,382.3,97,379z M111.7,389.3c3.3,0,5.9,2.7,5.9,5.9s-2.7,5.9-5.9,5.9
			s-5.9-2.7-5.9-5.9S108.4,389.3,111.7,389.3z M114.9,379c0-3.3,2.7-5.9,5.9-5.9s5.9,2.7,5.9,5.9s-2.7,5.9-5.9,5.9
			S114.9,382.3,114.9,379z M129.5,389.3c3.3,0,5.9,2.7,5.9,5.9s-2.7,5.9-5.9,5.9s-5.9-2.7-5.9-5.9S126.3,389.3,129.5,389.3z
			 M138.6,405.5c3.3,0,5.9,2.7,5.9,5.9s-2.6,5.9-5.9,5.9s-5.9-2.7-5.9-5.9C132.7,408.1,135.3,405.5,138.6,405.5z M141.4,395.2
			c0-3.3,2.7-5.9,5.9-5.9c3.3,0,5.9,2.7,5.9,5.9s-2.6,5.9-5.9,5.9S141.4,398.5,141.4,395.2z M156.4,405.5c3.3,0,5.9,2.7,5.9,5.9
			s-2.7,5.9-5.9,5.9c-3.3,0-5.9-2.7-5.9-5.9C150.5,408.1,153.1,405.5,156.4,405.5z M159.2,395.2c0-3.3,2.7-5.9,5.9-5.9
			s5.9,2.7,5.9,5.9s-2.6,5.9-5.9,5.9S159.2,398.5,159.2,395.2z M174.2,405.5c3.3,0,5.9,2.7,5.9,5.9s-2.7,5.9-5.9,5.9
			s-5.9-2.7-5.9-5.9C168.3,408.1,171,405.5,174.2,405.5z M177,395.2c0-3.3,2.7-5.9,5.9-5.9c3.3,0,5.9,2.7,5.9,5.9s-2.6,5.9-5.9,5.9
			S177,398.5,177,395.2z M192,405.5c3.3,0,5.9,2.7,5.9,5.9s-2.7,5.9-5.9,5.9s-5.9-2.7-5.9-5.9C186.1,408.1,188.8,405.5,192,405.5z
			 M194.9,395.2c0-3.3,2.6-5.9,5.9-5.9c3.3,0,5.9,2.7,5.9,5.9s-2.7,5.9-5.9,5.9C197.5,401.1,194.9,398.5,194.9,395.2z M209.9,405.5
			c3.3,0,5.9,2.7,5.9,5.9s-2.6,5.9-5.9,5.9s-5.9-2.7-5.9-5.9C203.9,408.1,206.6,405.5,209.9,405.5z M212.7,395.2
			c0-3.3,2.7-5.9,5.9-5.9c3.3,0,5.9,2.7,5.9,5.9s-2.6,5.9-5.9,5.9S212.7,398.5,212.7,395.2z M227.7,405.5c3.3,0,5.9,2.7,5.9,5.9
			s-2.6,5.9-5.9,5.9c-3.3,0-5.9-2.7-5.9-5.9C221.7,408.1,224.4,405.5,227.7,405.5z M230.5,395.2c0-3.3,2.6-5.9,5.9-5.9
			c3.3,0,5.9,2.7,5.9,5.9s-2.7,5.9-5.9,5.9C233.1,401.1,230.5,398.5,230.5,395.2z M245.5,405.5c3.3,0,5.9,2.7,5.9,5.9
			s-2.7,5.9-5.9,5.9c-3.3,0-5.9-2.7-5.9-5.9C239.6,408.1,242.2,405.5,245.5,405.5z M263.2,405.5c3.3,0,5.9,2.7,5.9,5.9
			s-2.7,5.9-5.9,5.9s-5.9-2.7-5.9-5.9C257.3,408.1,260,405.5,263.2,405.5z M266,395.2c0-3.3,2.7-5.9,5.9-5.9s5.9,2.7,5.9,5.9
			s-2.7,5.9-5.9,5.9S266,398.5,266,395.2z M281,405.5c3.3,0,5.9,2.7,5.9,5.9s-2.7,5.9-5.9,5.9s-5.9-2.7-5.9-5.9
			C275.1,408.1,277.8,405.5,281,405.5z M283.9,395.2c0-3.3,2.7-5.9,5.9-5.9s5.9,2.7,5.9,5.9s-2.7,5.9-5.9,5.9
			S283.9,398.5,283.9,395.2z M298.9,405.5c3.3,0,5.9,2.7,5.9,5.9s-2.7,5.9-5.9,5.9s-5.9-2.7-5.9-5.9
			C292.9,408.1,295.6,405.5,298.9,405.5z M301.7,395.2c0-3.3,2.7-5.9,5.9-5.9s5.9,2.7,5.9,5.9s-2.7,5.9-5.9,5.9
			C304.3,401.1,301.7,398.5,301.7,395.2z M316.7,405.5c3.3,0,5.9,2.7,5.9,5.9s-2.7,5.9-5.9,5.9s-5.9-2.7-5.9-5.9
			C310.7,408.1,313.4,405.5,316.7,405.5z M319.5,395.2c0-3.3,2.7-5.9,5.9-5.9s5.9,2.7,5.9,5.9s-2.7,5.9-5.9,5.9
			C322.1,401.1,319.5,398.5,319.5,395.2z M334.5,405.5c3.3,0,5.9,2.7,5.9,5.9s-2.7,5.9-5.9,5.9s-5.9-2.7-5.9-5.9
			C328.6,408.1,331.2,405.5,334.5,405.5z M337.3,395.2c0-3.3,2.7-5.9,5.9-5.9s5.9,2.7,5.9,5.9s-2.7,5.9-5.9,5.9
			S337.3,398.5,337.3,395.2z M352.3,405.5c3.3,0,5.9,2.7,5.9,5.9s-2.7,5.9-5.9,5.9c-3.3,0-5.9-2.7-5.9-5.9
			C346.4,408.1,349,405.5,352.3,405.5z M355.1,395.2c0-3.3,2.7-5.9,5.9-5.9s5.9,2.7,5.9,5.9s-2.7,5.9-5.9,5.9
			S355.1,398.5,355.1,395.2z M370.1,405.5c3.3,0,5.9,2.7,5.9,5.9s-2.7,5.9-5.9,5.9s-5.9-2.7-5.9-5.9
			C364.2,408.1,366.8,405.5,370.1,405.5z M372.9,395.2c0-3.3,2.7-5.9,5.9-5.9s5.9,2.7,5.9,5.9s-2.7,5.9-5.9,5.9
			C375.6,401.1,372.9,398.5,372.9,395.2z M387.9,405.5c3.3,0,5.9,2.7,5.9,5.9s-2.7,5.9-5.9,5.9s-5.9-2.7-5.9-5.9
			C382,408.1,384.7,405.5,387.9,405.5z M396.7,421.7c3.3,0,5.9,2.7,5.9,5.9s-2.7,5.9-5.9,5.9s-5.9-2.7-5.9-5.9
			S393.4,421.7,396.7,421.7z M399.8,411.4c0-3.3,2.7-5.9,5.9-5.9s5.9,2.7,5.9,5.9s-2.7,5.9-5.9,5.9S399.8,414.7,399.8,411.4z
			 M414.5,421.7c3.3,0,5.9,2.7,5.9,5.9s-2.7,5.9-5.9,5.9s-5.9-2.7-5.9-5.9S411.2,421.7,414.5,421.7z M417.6,411.4
			c0-3.3,2.7-5.9,5.9-5.9s5.9,2.7,5.9,5.9s-2.7,5.9-5.9,5.9S417.6,414.7,417.6,411.4z M426.4,395.2c0-3.3,2.7-5.9,5.9-5.9
			s5.9,2.7,5.9,5.9s-2.7,5.9-5.9,5.9C429,401.1,426.4,398.5,426.4,395.2z M441.4,405.5c3.3,0,5.9,2.7,5.9,5.9s-2.7,5.9-5.9,5.9
			s-5.9-2.7-5.9-5.9C435.4,408.1,438.1,405.5,441.4,405.5z M444.2,395.2c0-3.3,2.7-5.9,5.9-5.9s5.9,2.7,5.9,5.9s-2.7,5.9-5.9,5.9
			S444.2,398.5,444.2,395.2z M444.2,363.2c0-3.3,2.7-5.9,5.9-5.9s5.9,2.7,5.9,5.9s-2.7,5.9-5.9,5.9S444.2,366.5,444.2,363.2z
			 M453.3,347c0-3.3,2.7-5.9,5.9-5.9s5.9,2.7,5.9,5.9s-2.7,5.9-5.9,5.9S453.3,350.3,453.3,347z M453.3,314.7c0-3.3,2.7-5.9,5.9-5.9
			s5.9,2.7,5.9,5.9s-2.7,5.9-5.9,5.9S453.3,317.9,453.3,314.7z M453.3,282.3c0-3.3,2.7-5.9,5.9-5.9s5.9,2.7,5.9,5.9
			s-2.7,5.9-5.9,5.9S453.3,285.6,453.3,282.3z M453.3,249.9c0-3.3,2.7-5.9,5.9-5.9s5.9,2.6,5.9,5.9s-2.7,5.9-5.9,5.9
			S453.3,253.2,453.3,249.9z M453.3,217.5c0-3.3,2.7-5.9,5.9-5.9s5.9,2.7,5.9,5.9s-2.7,5.9-5.9,5.9S453.3,220.8,453.3,217.5z
			 M453.3,185.2c0-3.3,2.7-5.9,5.9-5.9s5.9,2.7,5.9,5.9c0,3.3-2.7,5.9-5.9,5.9S453.3,188.4,453.3,185.2z M450.1,174.9
			c-3.3,0-5.9-2.7-5.9-5.9c0-3.3,2.7-5.9,5.9-5.9s5.9,2.6,5.9,5.9C456,172.2,453.4,174.9,450.1,174.9z M444.2,136.6
			c0-3.3,2.7-5.9,5.9-5.9s5.9,2.7,5.9,5.9s-2.7,5.9-5.9,5.9S444.2,139.9,444.2,136.6z M441.4,126.3c-3.3,0-5.9-2.7-5.9-5.9
			s2.7-5.9,5.9-5.9s5.9,2.7,5.9,5.9C447.3,123.7,444.6,126.3,441.4,126.3z M438.2,136.6c0,3.3-2.7,5.9-5.9,5.9s-5.9-2.7-5.9-5.9
			c0-3.3,2.7-5.9,5.9-5.9C435.6,130.7,438.2,133.3,438.2,136.6z M423.6,126.3c-3.3,0-5.9-2.7-5.9-5.9s2.7-5.9,5.9-5.9
			s5.9,2.7,5.9,5.9C429.5,123.7,426.8,126.3,423.6,126.3z M414.5,110.1c-3.3,0-5.9-2.7-5.9-5.9s2.7-5.9,5.9-5.9s5.9,2.7,5.9,5.9
			C420.4,107.5,417.8,110.1,414.5,110.1z M411.7,120.4c0,3.3-2.7,5.9-5.9,5.9s-5.9-2.7-5.9-5.9c0-3.3,2.7-5.9,5.9-5.9
			S411.7,117.1,411.7,120.4z M396.7,110.1c-3.3,0-5.9-2.7-5.9-5.9s2.7-5.9,5.9-5.9s5.9,2.7,5.9,5.9
			C402.6,107.5,399.9,110.1,396.7,110.1z M393.8,120.4c0,3.3-2.7,5.9-5.9,5.9s-5.9-2.7-5.9-5.9c0-3.3,2.7-5.9,5.9-5.9
			S393.8,117.1,393.8,120.4z M378.9,110.1c-3.3,0-5.9-2.7-5.9-5.9s2.7-5.9,5.9-5.9s5.9,2.7,5.9,5.9
			C384.8,107.5,382.1,110.1,378.9,110.1z M370.1,93.9c-3.3,0-5.9-2.7-5.9-5.9s2.7-5.9,5.9-5.9s5.9,2.7,5.9,5.9
			S373.4,93.9,370.1,93.9z M367,104.2c0,3.3-2.7,5.9-5.9,5.9s-5.9-2.7-5.9-5.9s2.7-5.9,5.9-5.9S367,100.9,367,104.2z M352.3,93.9
			c-3.3,0-5.9-2.7-5.9-5.9s2.7-5.9,5.9-5.9s5.9,2.7,5.9,5.9S355.6,93.9,352.3,93.9z M349.2,104.2c0,3.3-2.7,5.9-5.9,5.9
			s-5.9-2.7-5.9-5.9s2.7-5.9,5.9-5.9S349.2,100.9,349.2,104.2z M334.5,93.9c-3.3,0-5.9-2.7-5.9-5.9s2.7-5.9,5.9-5.9
			c3.3,0,5.9,2.7,5.9,5.9S337.8,93.9,334.5,93.9z M331.3,104.2c0,3.3-2.7,5.9-5.9,5.9s-5.9-2.7-5.9-5.9s2.7-5.9,5.9-5.9
			C328.7,98.3,331.3,100.9,331.3,104.2z M316.7,93.9c-3.3,0-5.9-2.7-5.9-5.9s2.7-5.9,5.9-5.9s5.9,2.7,5.9,5.9S319.9,93.9,316.7,93.9
			z M313.5,104.2c0,3.3-2.7,5.9-5.9,5.9s-5.9-2.7-5.9-5.9s2.7-5.9,5.9-5.9C310.9,98.3,313.5,100.9,313.5,104.2z M298.9,93.9
			c-3.3,0-5.9-2.7-5.9-5.9s2.7-5.9,5.9-5.9s5.9,2.7,5.9,5.9S302.1,93.9,298.9,93.9z M295.7,104.2c0,3.3-2.7,5.9-5.9,5.9
			s-5.9-2.7-5.9-5.9s2.7-5.9,5.9-5.9C293.1,98.3,295.7,100.9,295.7,104.2z M281,93.9c-3.3,0-5.9-2.7-5.9-5.9s2.7-5.9,5.9-5.9
			s5.9,2.7,5.9,5.9S284.3,93.9,281,93.9z M277.9,104.2c0,3.3-2.7,5.9-5.9,5.9s-5.9-2.7-5.9-5.9s2.7-5.9,5.9-5.9
			S277.9,100.9,277.9,104.2z M263.2,93.9c-3.3,0-5.9-2.7-5.9-5.9s2.7-5.9,5.9-5.9s5.9,2.7,5.9,5.9S266.5,93.9,263.2,93.9z
			 M260.1,104.2c0,3.3-2.6,5.9-5.9,5.9v0c-3.3,0-5.9-2.7-5.9-5.9s2.6-5.9,5.9-5.9C257.5,98.3,260.1,100.9,260.1,104.2z M245.5,93.9
			c-3.3,0-5.9-2.7-5.9-5.9s2.7-5.9,5.9-5.9c3.3,0,5.9,2.7,5.9,5.9S248.8,93.9,245.5,93.9z M242.3,104.2c0,3.3-2.7,5.9-5.9,5.9
			c-3.3,0-5.9-2.7-5.9-5.9s2.6-5.9,5.9-5.9C239.7,98.3,242.3,100.9,242.3,104.2z M227.7,93.9c-3.3,0-5.9-2.7-5.9-5.9
			s2.7-5.9,5.9-5.9c3.3,0,5.9,2.7,5.9,5.9S230.9,93.9,227.7,93.9z M224.5,104.2c0,3.3-2.6,5.9-5.9,5.9c-3.3,0-5.9-2.7-5.9-5.9
			s2.7-5.9,5.9-5.9C221.9,98.3,224.5,100.9,224.5,104.2z M209.9,93.9c-3.3,0-5.9-2.7-5.9-5.9s2.7-5.9,5.9-5.9c3.3,0,5.9,2.7,5.9,5.9
			S213.1,93.9,209.9,93.9z M206.7,104.2c0,3.3-2.7,5.9-5.9,5.9c-3.3,0-5.9-2.7-5.9-5.9s2.6-5.9,5.9-5.9
			C204.1,98.3,206.7,100.9,206.7,104.2z M192,93.9c-3.3,0-5.9-2.7-5.9-5.9s2.6-5.9,5.9-5.9c3.3,0,5.9,2.7,5.9,5.9
			S195.3,93.9,192,93.9z M188.9,104.2c0,3.3-2.6,5.9-5.9,5.9c-3.3,0-5.9-2.7-5.9-5.9s2.7-5.9,5.9-5.9
			C186.2,98.3,188.9,100.9,188.9,104.2z M174.2,93.9c-3.3,0-5.9-2.7-5.9-5.9s2.6-5.9,5.9-5.9c3.3,0,5.9,2.7,5.9,5.9
			S177.5,93.9,174.2,93.9z M171.1,104.2c0,3.3-2.6,5.9-5.9,5.9s-5.9-2.7-5.9-5.9s2.7-5.9,5.9-5.9S171.1,100.9,171.1,104.2z
			 M156.4,93.9c-3.3,0-5.9-2.7-5.9-5.9s2.6-5.9,5.9-5.9c3.3,0,5.9,2.7,5.9,5.9S159.7,93.9,156.4,93.9z M153.3,104.2
			c0,3.3-2.6,5.9-5.9,5.9c-3.3,0-5.9-2.7-5.9-5.9s2.7-5.9,5.9-5.9C150.6,98.3,153.3,100.9,153.3,104.2z M138.6,93.9
			c-3.3,0-5.9-2.7-5.9-5.9s2.7-5.9,5.9-5.9s5.9,2.7,5.9,5.9S141.9,93.9,138.6,93.9z M135.5,104.2c0,3.3-2.7,5.9-5.9,5.9
			s-5.9-2.7-5.9-5.9s2.7-5.9,5.9-5.9S135.5,100.9,135.5,104.2z M126.7,120.4c0,3.3-2.7,5.9-5.9,5.9s-5.9-2.7-5.9-5.9
			c0-3.3,2.7-5.9,5.9-5.9S126.7,117.1,126.7,120.4z M111.7,110.1c-3.3,0-5.9-2.7-5.9-5.9s2.7-5.9,5.9-5.9s5.9,2.7,5.9,5.9
			C117.6,107.5,115,110.1,111.7,110.1z M108.9,120.4c0,3.3-2.7,5.9-5.9,5.9s-5.9-2.7-5.9-5.9c0-3.3,2.7-5.9,5.9-5.9
			S108.9,117.1,108.9,120.4z M93.9,110.1c-3.3,0-5.9-2.7-5.9-5.9s2.7-5.9,5.9-5.9s5.9,2.7,5.9,5.9C99.8,107.5,97.2,110.1,93.9,110.1
			z M91.1,120.4c0,3.3-2.7,5.9-5.9,5.9c-3.3,0-5.9-2.7-5.9-5.9c0-3.3,2.7-5.9,5.9-5.9C88.4,114.5,91.1,117.1,91.1,120.4z M82,136.6
			c0,3.3-2.7,5.9-5.9,5.9c-3.3,0-5.9-2.7-5.9-5.9c0-3.3,2.7-5.9,5.9-5.9C79.4,130.7,82,133.3,82,136.6z M67.3,126.3
			c-3.3,0-5.9-2.7-5.9-5.9s2.7-5.9,5.9-5.9c3.3,0,5.9,2.7,5.9,5.9C73.3,123.7,70.6,126.3,67.3,126.3z M64.2,136.6
			c0,3.3-2.7,5.9-5.9,5.9c-3.3,0-5.9-2.7-5.9-5.9c0-3.3,2.7-5.9,5.9-5.9C61.5,130.7,64.2,133.3,64.2,136.6z M64.2,169
			c0,3.3-2.7,5.9-5.9,5.9c-3.3,0-5.9-2.7-5.9-5.9c0-3.3,2.7-5.9,5.9-5.9C61.5,163,64.2,165.7,64.2,169z M55.4,185.2
			c0,3.3-2.7,5.9-5.9,5.9c-3.3,0-5.9-2.7-5.9-5.9c0-3.3,2.7-5.9,5.9-5.9C52.8,179.2,55.4,181.9,55.4,185.2z M55.4,217.5
			c0,3.3-2.7,5.9-5.9,5.9c-3.3,0-5.9-2.7-5.9-5.9c0-3.3,2.7-5.9,5.9-5.9C52.8,211.6,55.4,214.3,55.4,217.5z M55.4,249.9
			c0,3.3-2.7,5.9-5.9,5.9c-3.3,0-5.9-2.7-5.9-5.9c0-3.3,2.7-5.9,5.9-5.9C52.8,244,55.4,246.6,55.4,249.9z M55.4,282.3
			c0,3.3-2.7,5.9-5.9,5.9c-3.3,0-5.9-2.7-5.9-5.9s2.7-5.9,5.9-5.9C52.8,276.4,55.4,279,55.4,282.3z M55.4,314.7
			c0,3.3-2.7,5.9-5.9,5.9c-3.3,0-5.9-2.7-5.9-5.9s2.7-5.9,5.9-5.9C52.8,308.7,55.4,311.4,55.4,314.7z M55.4,347
			c0,3.3-2.7,5.9-5.9,5.9c-3.3,0-5.9-2.7-5.9-5.9s2.7-5.9,5.9-5.9C52.8,341.1,55.4,343.8,55.4,347z M58.3,357.3
			c3.3,0,5.9,2.7,5.9,5.9s-2.7,5.9-5.9,5.9c-3.3,0-5.9-2.7-5.9-5.9S55,357.3,58.3,357.3z M64.2,395.2c0,3.3-2.7,5.9-5.9,5.9
			c-3.3,0-5.9-2.7-5.9-5.9s2.7-5.9,5.9-5.9C61.5,389.3,64.2,391.9,64.2,395.2z M67.3,405.5c3.3,0,5.9,2.7,5.9,5.9s-2.7,5.9-5.9,5.9
			c-3.3,0-5.9-2.7-5.9-5.9C61.4,408.1,64.1,405.5,67.3,405.5z M70.2,395.2c0-3.3,2.7-5.9,5.9-5.9c3.3,0,5.9,2.7,5.9,5.9
			s-2.7,5.9-5.9,5.9C72.8,401.1,70.2,398.5,70.2,395.2z M85.2,405.5c3.3,0,5.9,2.7,5.9,5.9s-2.7,5.9-5.9,5.9c-3.3,0-5.9-2.7-5.9-5.9
			C79.2,408.1,81.9,405.5,85.2,405.5z M93.9,421.7c3.3,0,5.9,2.7,5.9,5.9s-2.7,5.9-5.9,5.9s-5.9-2.7-5.9-5.9S90.6,421.7,93.9,421.7z
			 M97,411.4c0-3.3,2.7-5.9,5.9-5.9s5.9,2.7,5.9,5.9s-2.7,5.9-5.9,5.9S97,414.7,97,411.4z M111.7,421.7c3.3,0,5.9,2.7,5.9,5.9
			s-2.7,5.9-5.9,5.9s-5.9-2.7-5.9-5.9S108.4,421.7,111.7,421.7z M114.9,411.4c0-3.3,2.7-5.9,5.9-5.9s5.9,2.7,5.9,5.9
			s-2.7,5.9-5.9,5.9S114.9,414.7,114.9,411.4z M129.5,421.7c3.3,0,5.9,2.7,5.9,5.9s-2.7,5.9-5.9,5.9s-5.9-2.7-5.9-5.9
			S126.3,421.7,129.5,421.7z M138.6,437.9c3.3,0,5.9,2.7,5.9,5.9s-2.6,5.9-5.9,5.9s-5.9-2.7-5.9-5.9S135.3,437.9,138.6,437.9z
			 M141.4,427.6c0-3.3,2.7-5.9,5.9-5.9c3.3,0,5.9,2.7,5.9,5.9s-2.6,5.9-5.9,5.9S141.4,430.9,141.4,427.6z M156.4,437.9
			c3.3,0,5.9,2.7,5.9,5.9s-2.7,5.9-5.9,5.9c-3.3,0-5.9-2.7-5.9-5.9S153.1,437.9,156.4,437.9z M159.2,427.6c0-3.3,2.7-5.9,5.9-5.9
			s5.9,2.7,5.9,5.9s-2.6,5.9-5.9,5.9S159.2,430.9,159.2,427.6z M174.2,437.9c3.3,0,5.9,2.7,5.9,5.9s-2.7,5.9-5.9,5.9
			s-5.9-2.7-5.9-5.9S171,437.9,174.2,437.9z M177,427.6c0-3.3,2.7-5.9,5.9-5.9c3.3,0,5.9,2.7,5.9,5.9s-2.6,5.9-5.9,5.9
			S177,430.9,177,427.6z M192,437.9c3.3,0,5.9,2.7,5.9,5.9s-2.7,5.9-5.9,5.9s-5.9-2.7-5.9-5.9S188.8,437.9,192,437.9z M194.9,427.6
			c0-3.3,2.6-5.9,5.9-5.9c3.3,0,5.9,2.7,5.9,5.9s-2.7,5.9-5.9,5.9C197.5,433.5,194.9,430.9,194.9,427.6z M209.9,437.9
			c3.3,0,5.9,2.7,5.9,5.9s-2.6,5.9-5.9,5.9s-5.9-2.7-5.9-5.9S206.6,437.9,209.9,437.9z M212.7,427.6c0-3.3,2.7-5.9,5.9-5.9
			c3.3,0,5.9,2.7,5.9,5.9s-2.6,5.9-5.9,5.9S212.7,430.9,212.7,427.6z M227.7,437.9c3.3,0,5.9,2.7,5.9,5.9s-2.6,5.9-5.9,5.9
			c-3.3,0-5.9-2.7-5.9-5.9S224.4,437.9,227.7,437.9z M230.5,427.6c0-3.3,2.6-5.9,5.9-5.9c3.3,0,5.9,2.7,5.9,5.9s-2.7,5.9-5.9,5.9
			C233.1,433.5,230.5,430.9,230.5,427.6z M245.5,437.9c3.3,0,5.9,2.7,5.9,5.9s-2.7,5.9-5.9,5.9c-3.3,0-5.9-2.7-5.9-5.9
			S242.2,437.9,245.5,437.9z M263.2,437.9c3.3,0,5.9,2.7,5.9,5.9s-2.7,5.9-5.9,5.9s-5.9-2.7-5.9-5.9S260,437.9,263.2,437.9z
			 M266,427.6c0-3.3,2.7-5.9,5.9-5.9s5.9,2.7,5.9,5.9s-2.7,5.9-5.9,5.9S266,430.9,266,427.6z M281,437.9c3.3,0,5.9,2.7,5.9,5.9
			s-2.7,5.9-5.9,5.9s-5.9-2.7-5.9-5.9S277.8,437.9,281,437.9z M283.9,427.6c0-3.3,2.7-5.9,5.9-5.9s5.9,2.7,5.9,5.9s-2.7,5.9-5.9,5.9
			S283.9,430.9,283.9,427.6z M298.9,437.9c3.3,0,5.9,2.7,5.9,5.9s-2.7,5.9-5.9,5.9s-5.9-2.7-5.9-5.9S295.6,437.9,298.9,437.9z
			 M301.7,427.6c0-3.3,2.7-5.9,5.9-5.9s5.9,2.7,5.9,5.9s-2.7,5.9-5.9,5.9C304.3,433.5,301.7,430.9,301.7,427.6z M316.7,437.9
			c3.3,0,5.9,2.7,5.9,5.9s-2.7,5.9-5.9,5.9s-5.9-2.7-5.9-5.9S313.4,437.9,316.7,437.9z M319.5,427.6c0-3.3,2.7-5.9,5.9-5.9
			s5.9,2.7,5.9,5.9s-2.7,5.9-5.9,5.9C322.1,433.5,319.5,430.9,319.5,427.6z M334.5,437.9c3.3,0,5.9,2.7,5.9,5.9s-2.7,5.9-5.9,5.9
			s-5.9-2.7-5.9-5.9S331.2,437.9,334.5,437.9z M337.3,427.6c0-3.3,2.7-5.9,5.9-5.9s5.9,2.7,5.9,5.9s-2.7,5.9-5.9,5.9
			S337.3,430.9,337.3,427.6z M352.3,437.9c3.3,0,5.9,2.7,5.9,5.9s-2.7,5.9-5.9,5.9c-3.3,0-5.9-2.7-5.9-5.9S349,437.9,352.3,437.9z
			 M355.1,427.6c0-3.3,2.7-5.9,5.9-5.9s5.9,2.7,5.9,5.9s-2.7,5.9-5.9,5.9S355.1,430.9,355.1,427.6z M370.1,437.9
			c3.3,0,5.9,2.7,5.9,5.9s-2.7,5.9-5.9,5.9s-5.9-2.7-5.9-5.9S366.8,437.9,370.1,437.9z M372.9,427.6c0-3.3,2.7-5.9,5.9-5.9
			s5.9,2.7,5.9,5.9s-2.7,5.9-5.9,5.9C375.6,433.5,372.9,430.9,372.9,427.6z M396.7,465.9c-3.3,0-5.9-2.7-5.9-5.9s2.7-5.9,5.9-5.9
			s5.9,2.7,5.9,5.9C402.6,463.2,399.9,465.9,396.7,465.9z M399.8,443.8c0-3.3,2.7-5.9,5.9-5.9s5.9,2.7,5.9,5.9s-2.7,5.9-5.9,5.9
			S399.8,447.1,399.8,443.8z M414.5,465.9c-3.3,0-5.9-2.7-5.9-5.9s2.7-5.9,5.9-5.9s5.9,2.7,5.9,5.9
			C420.4,463.2,417.8,465.9,414.5,465.9z M423.6,449.7c-3.3,0-5.9-2.7-5.9-5.9s2.7-5.9,5.9-5.9s5.9,2.7,5.9,5.9
			S426.8,449.7,423.6,449.7z M426.4,427.6c0-3.3,2.7-5.9,5.9-5.9s5.9,2.7,5.9,5.9s-2.7,5.9-5.9,5.9
			C429,433.5,426.4,430.9,426.4,427.6z M441.4,449.7c-3.3,0-5.9-2.7-5.9-5.9s2.7-5.9,5.9-5.9s5.9,2.7,5.9,5.9
			S444.6,449.7,441.4,449.7z M450.1,433.5c-3.3,0-5.9-2.7-5.9-5.9s2.7-5.9,5.9-5.9s5.9,2.7,5.9,5.9S453.4,433.5,450.1,433.5z
			 M465.1,411.4c0,3.3-2.7,5.9-5.9,5.9s-5.9-2.7-5.9-5.9s2.7-5.9,5.9-5.9S465.1,408.1,465.1,411.4z M459.2,384.9
			c-3.3,0-5.9-2.7-5.9-5.9s2.7-5.9,5.9-5.9s5.9,2.7,5.9,5.9S462.5,384.9,459.2,384.9z M473.9,363.2c0,3.3-2.7,5.9-5.9,5.9
			s-5.9-2.7-5.9-5.9s2.7-5.9,5.9-5.9S473.9,360,473.9,363.2z M473.9,330.9c0,3.3-2.7,5.9-5.9,5.9s-5.9-2.7-5.9-5.9s2.7-5.9,5.9-5.9
			S473.9,327.6,473.9,330.9z M473.9,298.5c0,3.3-2.7,5.9-5.9,5.9s-5.9-2.7-5.9-5.9s2.7-5.9,5.9-5.9S473.9,295.2,473.9,298.5z
			 M473.9,266.1L473.9,266.1c0,3.3-2.7,5.9-5.9,5.9c-3.3,0-5.9-2.6-5.9-5.9l0,0c0-3.3,2.7-5.9,5.9-5.9S473.9,262.8,473.9,266.1z
			 M473.9,233.7c0,3.3-2.7,5.9-5.9,5.9s-5.9-2.6-5.9-5.9c0-3.3,2.7-5.9,5.9-5.9S473.9,230.4,473.9,233.7z M473.9,201.3
			c0,3.3-2.7,5.9-5.9,5.9s-5.9-2.7-5.9-5.9c0-3.3,2.7-5.9,5.9-5.9S473.9,198.1,473.9,201.3z M473.9,169c0,3.3-2.7,5.9-5.9,5.9
			s-5.9-2.7-5.9-5.9c0-3.3,2.7-5.9,5.9-5.9S473.9,165.7,473.9,169z M465.1,152.8c0,3.3-2.7,5.9-5.9,5.9s-5.9-2.7-5.9-5.9
			c0-3.3,2.7-5.9,5.9-5.9S465.1,149.5,465.1,152.8z M459.2,114.5c3.3,0,5.9,2.7,5.9,5.9c0,3.3-2.7,5.9-5.9,5.9s-5.9-2.7-5.9-5.9
			C453.3,117.1,455.9,114.5,459.2,114.5z M456,104.2c0,3.3-2.7,5.9-5.9,5.9s-5.9-2.7-5.9-5.9s2.7-5.9,5.9-5.9S456,100.9,456,104.2z
			 M441.4,82.1c3.3,0,5.9,2.7,5.9,5.9s-2.7,5.9-5.9,5.9s-5.9-2.7-5.9-5.9S438.1,82.1,441.4,82.1z M438.2,104.2
			c0,3.3-2.7,5.9-5.9,5.9s-5.9-2.7-5.9-5.9s2.7-5.9,5.9-5.9C435.6,98.3,438.2,100.9,438.2,104.2z M429.5,88c0,3.3-2.7,5.9-5.9,5.9
			s-5.9-2.7-5.9-5.9s2.7-5.9,5.9-5.9S429.5,84.7,429.5,88z M414.5,65.9c3.3,0,5.9,2.7,5.9,5.9c0,3.3-2.7,5.9-5.9,5.9
			s-5.9-2.7-5.9-5.9C408.6,68.6,411.2,65.9,414.5,65.9z M411.7,88c0,3.3-2.7,5.9-5.9,5.9s-5.9-2.7-5.9-5.9s2.7-5.9,5.9-5.9
			S411.7,84.7,411.7,88z M396.7,65.9c3.3,0,5.9,2.7,5.9,5.9c0,3.3-2.7,5.9-5.9,5.9s-5.9-2.7-5.9-5.9
			C390.7,68.6,393.4,65.9,396.7,65.9z M393.8,88c0,3.3-2.7,5.9-5.9,5.9S382,91.3,382,88s2.7-5.9,5.9-5.9S393.8,84.7,393.8,88z
			 M384.8,71.8c0,3.3-2.7,5.9-5.9,5.9s-5.9-2.7-5.9-5.9c0-3.3,2.7-5.9,5.9-5.9S384.8,68.6,384.8,71.8z M370.1,49.7
			c3.3,0,5.9,2.7,5.9,5.9s-2.7,5.9-5.9,5.9s-5.9-2.7-5.9-5.9S366.8,49.7,370.1,49.7z M367,71.8c0,3.3-2.7,5.9-5.9,5.9
			s-5.9-2.7-5.9-5.9c0-3.3,2.7-5.9,5.9-5.9S367,68.6,367,71.8z M352.3,49.7c3.3,0,5.9,2.7,5.9,5.9s-2.7,5.9-5.9,5.9
			c-3.3,0-5.9-2.7-5.9-5.9C346.4,52.4,349,49.7,352.3,49.7z M349.2,71.8c0,3.3-2.7,5.9-5.9,5.9s-5.9-2.7-5.9-5.9
			c0-3.3,2.7-5.9,5.9-5.9S349.2,68.6,349.2,71.8z M334.5,49.7c3.3,0,5.9,2.7,5.9,5.9s-2.7,5.9-5.9,5.9s-5.9-2.7-5.9-5.9
			S331.2,49.7,334.5,49.7z M331.3,71.8c0,3.3-2.7,5.9-5.9,5.9s-5.9-2.7-5.9-5.9c0-3.3,2.7-5.9,5.9-5.9
			C328.7,65.9,331.3,68.6,331.3,71.8z M316.7,49.7c3.3,0,5.9,2.7,5.9,5.9s-2.7,5.9-5.9,5.9s-5.9-2.7-5.9-5.9S313.4,49.7,316.7,49.7z
			 M313.5,71.8c0,3.3-2.7,5.9-5.9,5.9s-5.9-2.7-5.9-5.9c0-3.3,2.7-5.9,5.9-5.9C310.9,65.9,313.5,68.6,313.5,71.8z M298.9,49.7
			c3.3,0,5.9,2.7,5.9,5.9s-2.7,5.9-5.9,5.9s-5.9-2.7-5.9-5.9S295.6,49.7,298.9,49.7z M295.7,71.8c0,3.3-2.7,5.9-5.9,5.9
			s-5.9-2.7-5.9-5.9c0-3.3,2.7-5.9,5.9-5.9C293.1,65.9,295.7,68.6,295.7,71.8z M281,49.7c3.3,0,5.9,2.7,5.9,5.9s-2.7,5.9-5.9,5.9
			s-5.9-2.7-5.9-5.9S277.8,49.7,281,49.7z M277.9,71.8c0,3.3-2.7,5.9-5.9,5.9s-5.9-2.7-5.9-5.9c0-3.3,2.7-5.9,5.9-5.9
			S277.9,68.6,277.9,71.8z M263.2,49.7c3.3,0,5.9,2.7,5.9,5.9s-2.7,5.9-5.9,5.9s-5.9-2.7-5.9-5.9S260,49.7,263.2,49.7z M254.2,65.9
			c3.3,0,5.9,2.7,5.9,5.9c0,3.3-2.6,5.9-5.9,5.9v0c-3.3,0-5.9-2.7-5.9-5.9C248.3,68.6,250.9,65.9,254.2,65.9L254.2,65.9z
			 M245.5,49.7c3.3,0,5.9,2.7,5.9,5.9s-2.7,5.9-5.9,5.9c-3.3,0-5.9-2.7-5.9-5.9S242.2,49.7,245.5,49.7z M242.3,71.8
			c0,3.3-2.7,5.9-5.9,5.9c-3.3,0-5.9-2.7-5.9-5.9c0-3.3,2.6-5.9,5.9-5.9C239.7,65.9,242.3,68.6,242.3,71.8z M227.7,49.7
			c3.3,0,5.9,2.7,5.9,5.9s-2.6,5.9-5.9,5.9c-3.3,0-5.9-2.7-5.9-5.9C221.7,52.4,224.4,49.7,227.7,49.7z M224.5,71.8
			c0,3.3-2.6,5.9-5.9,5.9c-3.3,0-5.9-2.7-5.9-5.9c0-3.3,2.7-5.9,5.9-5.9C221.9,65.9,224.5,68.6,224.5,71.8z M209.9,49.7
			c3.3,0,5.9,2.7,5.9,5.9s-2.6,5.9-5.9,5.9s-5.9-2.7-5.9-5.9S206.6,49.7,209.9,49.7z M206.7,71.8c0,3.3-2.7,5.9-5.9,5.9
			c-3.3,0-5.9-2.7-5.9-5.9c0-3.3,2.6-5.9,5.9-5.9C204.1,65.9,206.7,68.6,206.7,71.8z M192,49.7c3.3,0,5.9,2.7,5.9,5.9
			s-2.7,5.9-5.9,5.9s-5.9-2.7-5.9-5.9S188.8,49.7,192,49.7z M188.9,71.8c0,3.3-2.6,5.9-5.9,5.9c-3.3,0-5.9-2.7-5.9-5.9
			c0-3.3,2.7-5.9,5.9-5.9C186.2,65.9,188.9,68.6,188.9,71.8z M174.2,49.7c3.3,0,5.9,2.7,5.9,5.9s-2.7,5.9-5.9,5.9s-5.9-2.7-5.9-5.9
			S171,49.7,174.2,49.7z M171.1,71.8c0,3.3-2.6,5.9-5.9,5.9s-5.9-2.7-5.9-5.9c0-3.3,2.7-5.9,5.9-5.9S171.1,68.6,171.1,71.8z
			 M156.4,49.7c3.3,0,5.9,2.7,5.9,5.9s-2.7,5.9-5.9,5.9c-3.3,0-5.9-2.7-5.9-5.9S153.1,49.7,156.4,49.7z M153.3,71.8
			c0,3.3-2.6,5.9-5.9,5.9c-3.3,0-5.9-2.7-5.9-5.9c0-3.3,2.7-5.9,5.9-5.9C150.6,65.9,153.3,68.6,153.3,71.8z M138.6,49.7
			c3.3,0,5.9,2.7,5.9,5.9s-2.6,5.9-5.9,5.9s-5.9-2.7-5.9-5.9S135.3,49.7,138.6,49.7z M129.5,65.9c3.3,0,5.9,2.7,5.9,5.9
			c0,3.3-2.7,5.9-5.9,5.9s-5.9-2.7-5.9-5.9C123.6,68.6,126.3,65.9,129.5,65.9z M126.7,88c0,3.3-2.7,5.9-5.9,5.9s-5.9-2.7-5.9-5.9
			s2.7-5.9,5.9-5.9S126.7,84.7,126.7,88z M111.7,65.9c3.3,0,5.9,2.7,5.9,5.9c0,3.3-2.7,5.9-5.9,5.9s-5.9-2.7-5.9-5.9
			C105.8,68.6,108.4,65.9,111.7,65.9z M108.9,88c0,3.3-2.7,5.9-5.9,5.9S97,91.3,97,88s2.7-5.9,5.9-5.9S108.9,84.7,108.9,88z
			 M93.9,65.9c3.3,0,5.9,2.7,5.9,5.9c0,3.3-2.7,5.9-5.9,5.9S88,75.1,88,71.8C88,68.6,90.6,65.9,93.9,65.9z M85.2,82.1
			c3.3,0,5.9,2.7,5.9,5.9s-2.7,5.9-5.9,5.9c-3.3,0-5.9-2.7-5.9-5.9S81.9,82.1,85.2,82.1z M82,104.2c0,3.3-2.7,5.9-5.9,5.9
			c-3.3,0-5.9-2.7-5.9-5.9s2.7-5.9,5.9-5.9C79.4,98.3,82,100.9,82,104.2z M67.3,82.1c3.3,0,5.9,2.7,5.9,5.9s-2.7,5.9-5.9,5.9
			c-3.3,0-5.9-2.7-5.9-5.9S64.1,82.1,67.3,82.1z M58.3,98.3c3.3,0,5.9,2.7,5.9,5.9c0,3.3-2.7,5.9-5.9,5.9c-3.3,0-5.9-2.7-5.9-5.9
			C52.4,100.9,55,98.3,58.3,98.3z M43.6,120.4c0-3.3,2.7-5.9,5.9-5.9c3.3,0,5.9,2.7,5.9,5.9c0,3.3-2.7,5.9-5.9,5.9
			C46.3,126.3,43.6,123.7,43.6,120.4z M49.5,146.9c3.3,0,5.9,2.7,5.9,5.9c0,3.3-2.7,5.9-5.9,5.9c-3.3,0-5.9-2.7-5.9-5.9
			C43.6,149.5,46.3,146.9,49.5,146.9z M34.5,169c0-3.3,2.7-5.9,5.9-5.9c3.3,0,5.9,2.6,5.9,5.9c0,3.3-2.7,5.9-5.9,5.9
			C37.2,174.9,34.5,172.2,34.5,169z M34.5,201.3c0-3.3,2.7-5.9,5.9-5.9c3.3,0,5.9,2.7,5.9,5.9c0,3.3-2.7,5.9-5.9,5.9
			C37.2,207.3,34.5,204.6,34.5,201.3z M34.5,233.7c0-3.3,2.7-5.9,5.9-5.9c3.3,0,5.9,2.7,5.9,5.9c0,3.3-2.7,5.9-5.9,5.9
			C37.2,239.6,34.5,237,34.5,233.7z M34.5,266.1c0-3.3,2.7-5.9,5.9-5.9c3.3,0,5.9,2.7,5.9,5.9c0,3.3-2.7,5.9-5.9,5.9
			C37.2,272,34.5,269.4,34.5,266.1z M34.5,298.5c0-3.3,2.7-5.9,5.9-5.9c3.3,0,5.9,2.7,5.9,5.9s-2.7,5.9-5.9,5.9
			C37.2,304.4,34.5,301.7,34.5,298.5z M34.5,330.9c0-3.3,2.7-5.9,5.9-5.9c3.3,0,5.9,2.7,5.9,5.9s-2.7,5.9-5.9,5.9
			C37.2,336.8,34.5,334.1,34.5,330.9z M34.5,363.2c0-3.3,2.7-5.9,5.9-5.9c3.3,0,5.9,2.7,5.9,5.9s-2.7,5.9-5.9,5.9
			C37.2,369.2,34.5,366.5,34.5,363.2z M43.6,379c0-3.3,2.7-5.9,5.9-5.9c3.3,0,5.9,2.7,5.9,5.9s-2.7,5.9-5.9,5.9
			C46.3,384.9,43.6,382.3,43.6,379z M49.5,417.3c-3.3,0-5.9-2.7-5.9-5.9s2.7-5.9,5.9-5.9c3.3,0,5.9,2.7,5.9,5.9
			C55.4,414.7,52.8,417.3,49.5,417.3z M52.4,427.6c0-3.3,2.7-5.9,5.9-5.9c3.3,0,5.9,2.7,5.9,5.9s-2.7,5.9-5.9,5.9
			C55,433.5,52.4,430.9,52.4,427.6z M67.3,449.7c-3.3,0-5.9-2.7-5.9-5.9s2.7-5.9,5.9-5.9c3.3,0,5.9,2.7,5.9,5.9
			S70.6,449.7,67.3,449.7z M70.2,427.6c0-3.3,2.7-5.9,5.9-5.9c3.3,0,5.9,2.7,5.9,5.9s-2.7,5.9-5.9,5.9
			C72.8,433.5,70.2,430.9,70.2,427.6z M79.2,443.8c0-3.3,2.7-5.9,5.9-5.9c3.3,0,5.9,2.7,5.9,5.9s-2.7,5.9-5.9,5.9
			C81.9,449.7,79.2,447.1,79.2,443.8z M93.9,465.9c-3.3,0-5.9-2.7-5.9-5.9s2.7-5.9,5.9-5.9s5.9,2.7,5.9,5.9
			C99.8,463.2,97.2,465.9,93.9,465.9z M97,443.8c0-3.3,2.7-5.9,5.9-5.9s5.9,2.7,5.9,5.9s-2.7,5.9-5.9,5.9S97,447.1,97,443.8z
			 M111.7,465.9c-3.3,0-5.9-2.7-5.9-5.9s2.7-5.9,5.9-5.9s5.9,2.7,5.9,5.9C117.6,463.2,115,465.9,111.7,465.9z M114.9,443.8
			c0-3.3,2.7-5.9,5.9-5.9s5.9,2.7,5.9,5.9s-2.7,5.9-5.9,5.9S114.9,447.1,114.9,443.8z M123.6,460c0-3.3,2.7-5.9,5.9-5.9
			s5.9,2.7,5.9,5.9c0,3.3-2.7,5.9-5.9,5.9S123.6,463.2,123.6,460z M138.6,482.1c-3.3,0-5.9-2.7-5.9-5.9s2.7-5.9,5.9-5.9
			s5.9,2.7,5.9,5.9C144.5,479.4,141.9,482.1,138.6,482.1z M141.4,460c0-3.3,2.7-5.9,5.9-5.9c3.3,0,5.9,2.7,5.9,5.9
			c0,3.3-2.6,5.9-5.9,5.9S141.4,463.2,141.4,460z M156.4,482.1c-3.3,0-5.9-2.7-5.9-5.9s2.6-5.9,5.9-5.9c3.3,0,5.9,2.7,5.9,5.9
			C162.3,479.4,159.7,482.1,156.4,482.1z M159.2,460c0-3.3,2.7-5.9,5.9-5.9s5.9,2.7,5.9,5.9c0,3.3-2.6,5.9-5.9,5.9
			S159.2,463.2,159.2,460z M174.2,482.1c-3.3,0-5.9-2.7-5.9-5.9s2.6-5.9,5.9-5.9c3.3,0,5.9,2.7,5.9,5.9
			C180.1,479.4,177.5,482.1,174.2,482.1z M177,460c0-3.3,2.7-5.9,5.9-5.9c3.3,0,5.9,2.7,5.9,5.9c0,3.3-2.6,5.9-5.9,5.9
			S177,463.2,177,460z M192,482.1c-3.3,0-5.9-2.7-5.9-5.9s2.6-5.9,5.9-5.9c3.3,0,5.9,2.7,5.9,5.9C198,479.4,195.3,482.1,192,482.1z
			 M194.9,460c0-3.3,2.6-5.9,5.9-5.9c3.3,0,5.9,2.7,5.9,5.9c0,3.3-2.7,5.9-5.9,5.9C197.5,465.9,194.9,463.2,194.9,460z M209.9,482.1
			c-3.3,0-5.9-2.7-5.9-5.9s2.7-5.9,5.9-5.9c3.3,0,5.9,2.7,5.9,5.9C215.8,479.4,213.1,482.1,209.9,482.1z M212.7,460
			c0-3.3,2.7-5.9,5.9-5.9c3.3,0,5.9,2.7,5.9,5.9c0,3.3-2.6,5.9-5.9,5.9S212.7,463.2,212.7,460z M227.7,482.1c-3.3,0-5.9-2.7-5.9-5.9
			s2.7-5.9,5.9-5.9c3.3,0,5.9,2.7,5.9,5.9C233.6,479.4,230.9,482.1,227.7,482.1z M230.5,460c0-3.3,2.6-5.9,5.9-5.9
			c3.3,0,5.9,2.7,5.9,5.9c0,3.3-2.7,5.9-5.9,5.9C233.1,465.9,230.5,463.2,230.5,460z M245.5,482.1c-3.3,0-5.9-2.7-5.9-5.9
			s2.7-5.9,5.9-5.9c3.3,0,5.9,2.7,5.9,5.9C251.4,479.4,248.8,482.1,245.5,482.1z M248.3,460c0-3.3,2.6-5.9,5.9-5.9
			c3.3,0,5.9,2.7,5.9,5.9c0,3.3-2.6,5.9-5.9,5.9v0C250.9,465.9,248.3,463.2,248.3,460z M263.2,482.1c-3.3,0-5.9-2.7-5.9-5.9
			s2.7-5.9,5.9-5.9s5.9,2.7,5.9,5.9C269.1,479.4,266.5,482.1,263.2,482.1z M266,460c0-3.3,2.7-5.9,5.9-5.9s5.9,2.7,5.9,5.9
			c0,3.3-2.7,5.9-5.9,5.9S266,463.2,266,460z M281,482.1c-3.3,0-5.9-2.7-5.9-5.9s2.7-5.9,5.9-5.9s5.9,2.7,5.9,5.9
			C287,479.4,284.3,482.1,281,482.1z M283.9,460c0-3.3,2.7-5.9,5.9-5.9s5.9,2.7,5.9,5.9c0,3.3-2.7,5.9-5.9,5.9
			S283.9,463.2,283.9,460z M298.9,482.1c-3.3,0-5.9-2.7-5.9-5.9s2.7-5.9,5.9-5.9s5.9,2.7,5.9,5.9
			C304.8,479.4,302.1,482.1,298.9,482.1z M301.7,460c0-3.3,2.7-5.9,5.9-5.9s5.9,2.7,5.9,5.9c0,3.3-2.7,5.9-5.9,5.9
			C304.3,465.9,301.7,463.2,301.7,460z M316.7,482.1c-3.3,0-5.9-2.7-5.9-5.9s2.7-5.9,5.9-5.9s5.9,2.7,5.9,5.9
			C322.6,479.4,319.9,482.1,316.7,482.1z M319.5,460c0-3.3,2.7-5.9,5.9-5.9s5.9,2.7,5.9,5.9c0,3.3-2.7,5.9-5.9,5.9
			C322.1,465.9,319.5,463.2,319.5,460z M334.5,482.1c-3.3,0-5.9-2.7-5.9-5.9s2.7-5.9,5.9-5.9c3.3,0,5.9,2.7,5.9,5.9
			C340.4,479.4,337.8,482.1,334.5,482.1z M337.3,460c0-3.3,2.7-5.9,5.9-5.9s5.9,2.7,5.9,5.9c0,3.3-2.7,5.9-5.9,5.9
			S337.3,463.2,337.3,460z M352.3,482.1c-3.3,0-5.9-2.7-5.9-5.9s2.7-5.9,5.9-5.9s5.9,2.7,5.9,5.9
			C358.2,479.4,355.6,482.1,352.3,482.1z M355.1,460c0-3.3,2.7-5.9,5.9-5.9s5.9,2.7,5.9,5.9c0,3.3-2.7,5.9-5.9,5.9
			S355.1,463.2,355.1,460z M370.1,482.1c-3.3,0-5.9-2.7-5.9-5.9s2.7-5.9,5.9-5.9s5.9,2.7,5.9,5.9C376,479.4,373.4,482.1,370.1,482.1
			z M372.9,460c0-3.3,2.7-5.9,5.9-5.9s5.9,2.7,5.9,5.9c0,3.3-2.7,5.9-5.9,5.9C375.6,465.9,372.9,463.2,372.9,460z"/>
	</g>
	<linearGradient id="SVGID_8_" gradientUnits="userSpaceOnUse" x1="80" y1="256" x2="432" y2="256">
		<stop  offset="0" style="stop-color:#FFFFFF"/>
		<stop  offset="0.1046" style="stop-color:#BDBDBD"/>
		<stop  offset="0.2005" style="stop-color:#878787"/>
		<stop  offset="0.283" style="stop-color:#616161"/>
		<stop  offset="0.3489" style="stop-color:#4A4A4A"/>
		<stop  offset="0.39" style="stop-color:#414141"/>
		<stop  offset="0.7154" style="stop-color:#FFFFFF"/>
		<stop  offset="1" style="stop-color:#434343"/>
	</linearGradient>
	<path fill="url(#SVGID_8_)" d="M256,432c-97,0-176-79-176-176S159,80,256,80s176,79,176,176S353,432,256,432z M256,92
		c-90.4,0-164,73.6-164,164s73.6,164,164,164s164-73.6,164-164S346.4,92,256,92z"/>
</g>
<g>
	<g>
		<circle fill="#191919" cx="256" cy="378.2" r="86.2"/>
		<path fill="#BCBCBC" d="M256,310c37.6,0,68.2,30.6,68.2,68.2s-30.6,68.2-68.2,68.2s-68.2-30.6-68.2-68.2S218.4,310,256,310
			 M256,292c-47.6,0-86.2,38.6-86.2,86.2s38.6,86.2,86.2,86.2c47.6,0,86.2-38.6,86.2-86.2S303.6,292,256,292L256,292z"/>
	</g>
	<g>
		<polygon fill="#D8D8D8" points="247.6,328.5 256,298.6 264.4,328.5 		"/>
		<polygon fill="#FF0000" points="247.6,328.5 256,298.6 256,328.5 		"/>
	</g>
	<g>
		<g>
			<g>
				<radialGradient id="SVGID_9_" cx="256" cy="378.25" r="54.9795" gradientUnits="userSpaceOnUse">
					<stop  offset="0" style="stop-color:#FFFFFF"/>
					<stop  offset="1" style="stop-color:#CBCBCB"/>
				</radialGradient>
				<circle fill="url(#SVGID_9_)" cx="256" cy="378.2" r="55"/>
				<g>
					<radialGradient id="SVGID_10_" cx="229.9711" cy="378.7255" r="57.8789" gradientUnits="userSpaceOnUse">
						<stop  offset="0" style="stop-color:#FFFFFF;stop-opacity:0.5"/>
						<stop  offset="1" style="stop-color:#000000;stop-opacity:0"/>
					</radialGradient>
					<path fill="url(#SVGID_10_)" d="M235,429.1l21-50.8l-50.8,20.9C210.7,412.7,221.5,423.5,235,429.1z"/>
					
						<radialGradient id="SVGID_11_" cx="281.7194" cy="328.3837" r="51.9547" gradientTransform="matrix(1 0 0 1.0937 0 -30.7777)" gradientUnits="userSpaceOnUse">
						<stop  offset="0" style="stop-color:#FFFFFF;stop-opacity:0.5"/>
						<stop  offset="1" style="stop-color:#000000;stop-opacity:0"/>
					</radialGradient>
					<path fill="url(#SVGID_11_)" d="M277,327.4L256,378.2l50.8-20.9C301.2,343.8,290.4,333,277,327.4z"/>
				</g>
				<g>
					<radialGradient id="SVGID_12_" cx="280.8475" cy="378.7707" r="57.84" gradientUnits="userSpaceOnUse">
						<stop  offset="0" style="stop-color:#FFFFFF;stop-opacity:0.5"/>
						<stop  offset="1" style="stop-color:#000000;stop-opacity:0"/>
					</radialGradient>
					<path fill="url(#SVGID_12_)" d="M306.8,399.2L256,378.3l20.9,50.8C290.5,423.5,301.3,412.7,306.8,399.2z"/>
					
						<radialGradient id="SVGID_13_" cx="230.8592" cy="328.391" r="51.9899" gradientTransform="matrix(1 0 0 1.0937 0 -30.7784)" gradientUnits="userSpaceOnUse">
						<stop  offset="0" style="stop-color:#FFFFFF;stop-opacity:0.5"/>
						<stop  offset="1" style="stop-color:#000000;stop-opacity:0"/>
					</radialGradient>
					<path fill="url(#SVGID_13_)" d="M205.2,357.3l50.8,20.9L235,327.4C221.5,333,210.7,343.8,205.2,357.3z"/>
				</g>
				<linearGradient id="SVGID_14_" gradientUnits="userSpaceOnUse" x1="215.7886" y1="418.4614" x2="296.2114" y2="338.0386">
					<stop  offset="0" style="stop-color:#FFFFFF"/>
					<stop  offset="0.1046" style="stop-color:#BDBDBD"/>
					<stop  offset="0.2005" style="stop-color:#878787"/>
					<stop  offset="0.283" style="stop-color:#616161"/>
					<stop  offset="0.3489" style="stop-color:#4A4A4A"/>
					<stop  offset="0.39" style="stop-color:#414141"/>
					<stop  offset="0.7154" style="stop-color:#FFFFFF"/>
					<stop  offset="1" style="stop-color:#434343"/>
				</linearGradient>
				<path fill="url(#SVGID_14_)" d="M256,435.1c-31.4,0-56.9-25.5-56.9-56.9s25.5-56.9,56.9-56.9s56.9,25.5,56.9,56.9
					S287.4,435.1,256,435.1z M256,325.2c-29.3,0-53.1,23.8-53.1,53.1c0,29.3,23.8,53.1,53.1,53.1c29.3,0,53.1-23.8,53.1-53.1
					C309.1,349,285.3,325.2,256,325.2z"/>
			</g>
		</g>
	</g>
</g>
</svg>
