<?xml version="1.0" encoding="utf-8"?>
<!-- Generator: Adobe Illustrator 18.0.0, SVG Export Plug-In . SVG Version: 6.00 Build 0)  -->
<!DOCTYPE svg PUBLIC "-//W3C//DTD SVG 1.1//EN" "http://www.w3.org/Graphics/SVG/1.1/DTD/svg11.dtd">
<svg version="1.1" id="Layer_2" xmlns="http://www.w3.org/2000/svg" xmlns:xlink="http://www.w3.org/1999/xlink" x="0px" y="0px"
	 viewBox="0 0 512 512" style="enable-background:new 0 0 512 512;" xml:space="preserve">
<g>
	<g style="opacity:0.4;enable-background:new    ;">
		
			<radialGradient id="SVGID_1_" cx="0.7625" cy="-2.2406" r="118.8672" gradientTransform="matrix(2 0 0 2 254.5 260.5)" gradientUnits="userSpaceOnUse">
			<stop  offset="0" style="stop-color:#010101"/>
			<stop  offset="0.8587" style="stop-color:#010101;stop-opacity:0.1413"/>
			<stop  offset="1" style="stop-color:#010101;stop-opacity:0"/>
		</radialGradient>
		<path style="fill:url(#SVGID_1_);" d="M449,449c-59.7,59.7-326.2,59.7-385.9,0S3.4,122.7,63,63s326.3-59.6,386,0
			S508.6,389.3,449,449z"/>
	</g>
	<g style="opacity:0.4;enable-background:new    ;">
		
			<radialGradient id="SVGID_2_" cx="1.5219" cy="-3.0479" r="133.1528" gradientTransform="matrix(1.4138 -1.4146 0.979 0.9784 256.8573 261.1099)" gradientUnits="userSpaceOnUse">
			<stop  offset="0" style="stop-color:#010101"/>
			<stop  offset="0.8587" style="stop-color:#010101;stop-opacity:0.1413"/>
			<stop  offset="1" style="stop-color:#010101;stop-opacity:0"/>
		</radialGradient>
		<path style="fill:url(#SVGID_2_);" d="M449,449c-59.7,59.7-326.2,59.7-385.9,0S3.4,122.7,63,63s326.3-59.6,386,0
			S508.6,389.3,449,449z"/>
	</g>
	<g style="opacity:0.4;enable-background:new    ;">
		
			<radialGradient id="SVGID_3_" cx="2.5822" cy="-1.4638" r="133.1761" gradientTransform="matrix(-1.4138 -1.4146 -0.979 0.9784 258.1427 261.1099)" gradientUnits="userSpaceOnUse">
			<stop  offset="0" style="stop-color:#010101"/>
			<stop  offset="0.8587" style="stop-color:#010101;stop-opacity:0.1413"/>
			<stop  offset="1" style="stop-color:#010101;stop-opacity:0"/>
		</radialGradient>
		<path style="fill:url(#SVGID_3_);" d="M63,449c59.7,59.7,326.2,59.7,385.9,0s59.7-326.2,0-385.9S122.7,3.4,63,63S3.4,389.3,63,449
			z"/>
	</g>
</g>
<radialGradient id="SVGID_4_" cx="256" cy="-23" r="230.025" gradientTransform="matrix(1 0 0 -1 0 233)" gradientUnits="userSpaceOnUse">
	<stop  offset="0" style="stop-color:#212121"/>
	<stop  offset="1" style="stop-color:#121212"/>
</radialGradient>
<path style="fill:url(#SVGID_4_);" d="M433.3,433.3c-70.3,70.3-284.3,70.3-354.6,0S8.4,149,78.7,78.7s284.3-70.3,354.6,0
	S503.6,363,433.3,433.3z"/>
<g style="opacity:0.2;">
	<g>
		<path style="fill:#0025FF;" d="M412.7,252.5L412.7,252.5c2,0,3.7,2.1,3.7,4.7v-0.8H409v0.8C409,254.6,410.7,252.5,412.7,252.5z"/>
		<path style="fill:#0025FF;" d="M401.1,246.6L401.1,246.6c2,0,3.7,2.1,3.7,4.7v5.2h-7.4v-5.2C397.4,248.7,399.1,246.6,401.1,246.6z
			"/>
		<path style="fill:#0025FF;" d="M389.5,231.2L389.5,231.2c2,0,3.7,2.1,3.7,4.7v20.6h-7.4v-20.6
			C385.8,233.3,387.5,231.2,389.5,231.2z"/>
		<path style="fill:#0025FF;" d="M377.9,239.5L377.9,239.5c2,0,3.7,2.1,3.7,4.7v12.2h-7.4v-12.2
			C374.2,241.6,375.9,239.5,377.9,239.5z"/>
		<path style="fill:#0025FF;" d="M366.3,177.7L366.3,177.7c2,0,3.7,2.1,3.7,4.7v74.1h-7.4v-74.1
			C362.6,179.8,364.2,177.7,366.3,177.7z"/>
		<path style="fill:#0025FF;" d="M354.7,162.3L354.7,162.3c2,0,3.7,2.1,3.7,4.7v89.4H351V167C351,164.4,352.6,162.3,354.7,162.3z"/>
		<path style="fill:#0025FF;" d="M343.1,246.6L343.1,246.6c2,0,3.7,2.1,3.7,4.7v5.2h-7.4v-5.2C339.4,248.7,341,246.6,343.1,246.6z"
			/>
		<path style="fill:#0025FF;" d="M331.5,195.6L331.5,195.6c2,0,3.7,2.1,3.7,4.7v56.1h-7.4v-56.1
			C327.8,197.8,329.4,195.6,331.5,195.6z"/>
		<path style="fill:#0025FF;" d="M319.8,212.2L319.8,212.2c2,0,3.7,2.1,3.7,4.7v39.6h-7.4v-39.6
			C316.2,214.3,317.8,212.2,319.8,212.2z"/>
		<path style="fill:#0025FF;" d="M308.2,231.2L308.2,231.2c2,0,3.7,2.1,3.7,4.7v20.6h-7.4v-20.6
			C304.6,233.3,306.2,231.2,308.2,231.2z"/>
		<path style="fill:#0025FF;" d="M296.6,248.5L296.6,248.5c2,0,3.7,2.1,3.7,4.7v3.2h-7.4v-3.2C292.9,250.7,294.6,248.5,296.6,248.5z
			"/>
		<path style="fill:#0025FF;" d="M285,248.5L285,248.5c2,0,3.7,2.1,3.7,4.7v3.2h-7.4v-3.2C281.3,250.7,283,248.5,285,248.5z"/>
		<path style="fill:#0025FF;" d="M273.4,243L273.4,243c2,0,3.7,2.1,3.7,4.7v8.8h-7.4v-8.8C269.7,245.1,271.4,243,273.4,243z"/>
		<path style="fill:#0025FF;" d="M261.8,219.7L261.8,219.7c2,0,3.7,2.1,3.7,4.7v32.1h-7.4v-32.1
			C258.1,221.8,259.8,219.7,261.8,219.7z"/>
		<path style="fill:#0025FF;" d="M250.2,187.1L250.2,187.1c2,0,3.7,2.1,3.7,4.7v64.7h-7.4v-64.7
			C246.5,189.2,248.2,187.1,250.2,187.1z"/>
		<path style="fill:#0025FF;" d="M238.6,203.5L238.6,203.5c2,0,3.7,2.1,3.7,4.7v48.3h-7.4v-48.3
			C234.9,205.6,236.6,203.5,238.6,203.5z"/>
		<path style="fill:#0025FF;" d="M227,221L227,221c2,0,3.7,2.1,3.7,4.7v30.8h-7.4v-30.8C223.3,223.1,224.9,221,227,221z"/>
		<path style="fill:#0025FF;" d="M215.4,246.9L215.4,246.9c2,0,3.7,2.1,3.7,4.7v4.9h-7.4v-4.9C211.7,249,213.3,246.9,215.4,246.9z"
			/>
		<path style="fill:#0025FF;" d="M203.8,235L203.8,235c2,0,3.7,2.1,3.7,4.7v16.7h-7.4v-16.7C200.1,237.1,201.7,235,203.8,235z"/>
		<path style="fill:#0025FF;" d="M192.2,246.9L192.2,246.9c2,0,3.7,2.1,3.7,4.7v4.9h-7.4v-4.9C188.5,249,190.1,246.9,192.2,246.9z"
			/>
		<path style="fill:#0025FF;" d="M180.5,235.7L180.5,235.7c2,0,3.7,2.1,3.7,4.7v16.1h-7.4v-16.1
			C176.9,237.8,178.5,235.7,180.5,235.7z"/>
		<path style="fill:#0025FF;" d="M168.9,223.9L168.9,223.9c2,0,3.7,2.1,3.7,4.7v27.8h-7.4v-27.8C165.2,226,166.9,223.9,168.9,223.9z
			"/>
		<path style="fill:#0025FF;" d="M157.3,184.6L157.3,184.6c2,0,3.7,2.1,3.7,4.7v67.1h-7.4v-67.1
			C153.6,186.7,155.3,184.6,157.3,184.6z"/>
		<path style="fill:#0025FF;" d="M145.7,206.4L145.7,206.4c2,0,3.7,2.1,3.7,4.7v45.4H142v-45.4C142,208.5,143.7,206.4,145.7,206.4z"
			/>
		<path style="fill:#0025FF;" d="M134.1,195.6L134.1,195.6c2,0,3.7,2.1,3.7,4.7v56.1h-7.4v-56.1
			C130.4,197.8,132.1,195.6,134.1,195.6z"/>
		<path style="fill:#0025FF;" d="M122.5,211.2L122.5,211.2c2,0,3.7,2.1,3.7,4.7v40.6h-7.4v-40.6
			C118.8,213.3,120.5,211.2,122.5,211.2z"/>
		<path style="fill:#0025FF;" d="M110.9,243L110.9,243c2,0,3.7,2.1,3.7,4.7v8.8h-7.4v-8.8C107.2,245.1,108.9,243,110.9,243z"/>
		<path style="fill:#0025FF;" d="M99.3,231.7L99.3,231.7c2,0,3.7,2.1,3.7,4.7v20h-7.4v-20C95.6,233.9,97.2,231.7,99.3,231.7z"/>
	</g>
	<g>
		<path style="fill:#0025FF;" d="M412.7,259.5L412.7,259.5c2,0,3.7-2.1,3.7-4.7v0.8H409v-0.8C409,257.4,410.7,259.5,412.7,259.5z"/>
		<path style="fill:#0025FF;" d="M401.1,265.4L401.1,265.4c2,0,3.7-2.1,3.7-4.7v-5.2h-7.4v5.2C397.4,263.3,399.1,265.4,401.1,265.4z
			"/>
		<path style="fill:#0025FF;" d="M389.5,280.8L389.5,280.8c2,0,3.7-2.1,3.7-4.7v-20.6h-7.4v20.6
			C385.8,278.7,387.5,280.8,389.5,280.8z"/>
		<path style="fill:#0025FF;" d="M377.9,272.5L377.9,272.5c2,0,3.7-2.1,3.7-4.7v-12.2h-7.4v12.2
			C374.2,270.4,375.9,272.5,377.9,272.5z"/>
		<path style="fill:#0025FF;" d="M366.3,334.3L366.3,334.3c2,0,3.7-2.1,3.7-4.7v-74.1h-7.4v74.1
			C362.6,332.2,364.2,334.3,366.3,334.3z"/>
		<path style="fill:#0025FF;" d="M354.7,349.7L354.7,349.7c2,0,3.7-2.1,3.7-4.7v-89.4H351V345C351,347.6,352.6,349.7,354.7,349.7z"
			/>
		<path style="fill:#0025FF;" d="M343.1,265.4L343.1,265.4c2,0,3.7-2.1,3.7-4.7v-5.2h-7.4v5.2C339.4,263.3,341,265.4,343.1,265.4z"
			/>
		<path style="fill:#0025FF;" d="M331.5,316.4L331.5,316.4c2,0,3.7-2.1,3.7-4.7v-56.1h-7.4v56.1
			C327.8,314.2,329.4,316.4,331.5,316.4z"/>
		<path style="fill:#0025FF;" d="M319.8,299.8L319.8,299.8c2,0,3.7-2.1,3.7-4.7v-39.6h-7.4v39.6
			C316.2,297.7,317.8,299.8,319.8,299.8z"/>
		<path style="fill:#0025FF;" d="M308.2,280.8L308.2,280.8c2,0,3.7-2.1,3.7-4.7v-20.6h-7.4v20.6
			C304.6,278.7,306.2,280.8,308.2,280.8z"/>
		<path style="fill:#0025FF;" d="M296.6,263.5L296.6,263.5c2,0,3.7-2.1,3.7-4.7v-3.2h-7.4v3.2C292.9,261.3,294.6,263.5,296.6,263.5z
			"/>
		<path style="fill:#0025FF;" d="M285,263.5L285,263.5c2,0,3.7-2.1,3.7-4.7v-3.2h-7.4v3.2C281.3,261.3,283,263.5,285,263.5z"/>
		<path style="fill:#0025FF;" d="M273.4,269L273.4,269c2,0,3.7-2.1,3.7-4.7v-8.8h-7.4v8.8C269.7,266.9,271.4,269,273.4,269z"/>
		<path style="fill:#0025FF;" d="M261.8,292.3L261.8,292.3c2,0,3.7-2.1,3.7-4.7v-32.1h-7.4v32.1
			C258.1,290.2,259.8,292.3,261.8,292.3z"/>
		<path style="fill:#0025FF;" d="M250.2,324.9L250.2,324.9c2,0,3.7-2.1,3.7-4.7v-64.7h-7.4v64.7
			C246.5,322.8,248.2,324.9,250.2,324.9z"/>
		<path style="fill:#0025FF;" d="M238.6,308.5L238.6,308.5c2,0,3.7-2.1,3.7-4.7v-48.3h-7.4v48.3
			C234.9,306.4,236.6,308.5,238.6,308.5z"/>
		<path style="fill:#0025FF;" d="M227,291L227,291c2,0,3.7-2.1,3.7-4.7v-30.8h-7.4v30.8C223.3,288.9,224.9,291,227,291z"/>
		<path style="fill:#0025FF;" d="M215.4,265.1L215.4,265.1c2,0,3.7-2.1,3.7-4.7v-4.9h-7.4v4.9C211.7,263,213.3,265.1,215.4,265.1z"
			/>
		<path style="fill:#0025FF;" d="M203.8,277L203.8,277c2,0,3.7-2.1,3.7-4.7v-16.7h-7.4v16.7C200.1,274.9,201.7,277,203.8,277z"/>
		<path style="fill:#0025FF;" d="M192.2,265.1L192.2,265.1c2,0,3.7-2.1,3.7-4.7v-4.9h-7.4v4.9C188.5,263,190.1,265.1,192.2,265.1z"
			/>
		<path style="fill:#0025FF;" d="M180.5,276.3L180.5,276.3c2,0,3.7-2.1,3.7-4.7v-16.1h-7.4v16.1
			C176.9,274.2,178.5,276.3,180.5,276.3z"/>
		<path style="fill:#0025FF;" d="M168.9,288.1L168.9,288.1c2,0,3.7-2.1,3.7-4.7v-27.8h-7.4v27.8C165.2,286,166.9,288.1,168.9,288.1z
			"/>
		<path style="fill:#0025FF;" d="M157.3,327.4L157.3,327.4c2,0,3.7-2.1,3.7-4.7v-67.1h-7.4v67.1
			C153.6,325.3,155.3,327.4,157.3,327.4z"/>
		<path style="fill:#0025FF;" d="M145.7,305.6L145.7,305.6c2,0,3.7-2.1,3.7-4.7v-45.4H142v45.4C142,303.5,143.7,305.6,145.7,305.6z"
			/>
		<path style="fill:#0025FF;" d="M134.1,316.4L134.1,316.4c2,0,3.7-2.1,3.7-4.7v-56.1h-7.4v56.1
			C130.4,314.2,132.1,316.4,134.1,316.4z"/>
		<path style="fill:#0025FF;" d="M122.5,300.8L122.5,300.8c2,0,3.7-2.1,3.7-4.7v-40.6h-7.4v40.6
			C118.8,298.7,120.5,300.8,122.5,300.8z"/>
		<path style="fill:#0025FF;" d="M110.9,269L110.9,269c2,0,3.7-2.1,3.7-4.7v-8.8h-7.4v8.8C107.2,266.9,108.9,269,110.9,269z"/>
		<path style="fill:#0025FF;" d="M99.3,280.3L99.3,280.3c2,0,3.7-2.1,3.7-4.7v-20h-7.4v20C95.6,278.1,97.2,280.3,99.3,280.3z"/>
	</g>
</g>
<g>
	<rect x="414" y="219" style="fill:#FFFFFF;" width="3.8" height="74"/>
	<rect x="399.6" y="219" style="fill:#FFFFFF;" width="3.8" height="74"/>
	<rect x="385.2" y="219" style="fill:#FFFFFF;" width="3.8" height="74"/>
	<rect x="370.8" y="219" style="fill:#FFFFFF;" width="3.8" height="74"/>
	<rect x="356.3" y="219" style="fill:#FFFFFF;" width="3.8" height="74"/>
	<rect x="327.5" y="219" style="fill:#FFFFFF;" width="3.8" height="74"/>
	<rect x="313.1" y="219" style="fill:#FFFFFF;" width="3.8" height="74"/>
	<rect x="298.7" y="219" style="fill:#FFFFFF;" width="3.8" height="74"/>
	<rect x="284.3" y="219" style="fill:#FFFFFF;" width="3.8" height="74"/>
	<rect x="269.8" y="219" style="fill:#FFFFFF;" width="3.8" height="74"/>
	<rect x="241" y="219" style="fill:#FFFFFF;" width="3.8" height="74"/>
	<rect x="226.6" y="219" style="fill:#FFFFFF;" width="3.8" height="74"/>
	<rect x="212.2" y="219" style="fill:#FFFFFF;" width="3.8" height="74"/>
	<rect x="197.8" y="219" style="fill:#FFFFFF;" width="3.8" height="74"/>
	<rect x="183.3" y="219" style="fill:#FFFFFF;" width="3.8" height="74"/>
	<rect x="154.5" y="219" style="fill:#FFFFFF;" width="3.8" height="74"/>
	<rect x="140.1" y="219" style="fill:#FFFFFF;" width="3.8" height="74"/>
	<rect x="125.7" y="219" style="fill:#FFFFFF;" width="3.8" height="74"/>
	<rect x="111.3" y="219" style="fill:#FFFFFF;" width="3.8" height="74"/>
	<rect x="96.8" y="219" style="fill:#FFFFFF;" width="3.8" height="74"/>
</g>
<g>
	<rect x="341.9" y="184.5" style="fill:#FFFFFF;" width="3.8" height="143"/>
	<rect x="255.4" y="184.5" style="fill:#FFFFFF;" width="3.8" height="143"/>
	<rect x="168.9" y="184.5" style="fill:#FFFFFF;" width="3.8" height="143"/>
</g>
<g style="opacity:0.5;">
	<rect x="25.5" y="259.5" style="fill:#FFFFFF;" width="462" height="2"/>
</g>
<g id="_x3C_Group_x3E_">
	<path style="opacity:0.4;enable-background:new    ;" d="M78.7,426.8c70.3,70.3,284.3,70.3,354.6,0
		c34.1-34.1,51.6-101.9,52.7-170.8c-1-68.9-18.6-136.7-52.7-170.8C398.1,50,327.1,32.5,256,32.5S113.8,50,78.7,85.2
		C44.6,119.3,27.1,187.1,26,256C27.1,324.9,44.6,392.7,78.7,426.8z M92.8,99.3C107.1,85,130,73.1,159.3,64.9
		c28.7-8.1,62.1-12.4,96.7-12.4c34.5,0,68,4.3,96.7,12.4c29.2,8.3,52.2,20.2,66.5,34.4c14.3,14.3,26.2,37.2,34.4,66.5
		c8.1,28.7,12.4,62.1,12.4,96.7c0,34.5-4.3,68-12.4,96.7c-8.3,29.2-20.2,52.2-34.4,66.5c-14.3,14.3-37.2,26.2-66.5,34.4
		c-28.7,8.1-62.1,12.4-96.7,12.4c-34.5,0-68-4.3-96.7-12.4c-29.2-8.3-52.2-20.2-66.5-34.4c-14.3-14.3-26.2-37.2-34.4-66.5
		C50.3,330.5,46,297,46,262.5s4.3-68,12.4-96.7C66.7,136.6,78.6,113.6,92.8,99.3z"/>
	<path style="fill:#FFFFFF;" d="M256,46c34.5,0,68,4.3,96.7,12.4c29.2,8.3,52.2,20.2,66.5,34.4c14.3,14.3,26.2,37.2,34.4,66.5
		C461.7,188,466,221.5,466,256s-4.3,68-12.4,96.7c-8.3,29.2-20.2,52.2-34.4,66.5c-14.3,14.3-37.2,26.2-66.5,34.4
		C324,461.7,290.5,466,256,466s-68-4.3-96.7-12.4c-29.2-8.3-52.2-20.2-66.5-34.4c-14.3-14.3-26.2-37.2-34.4-66.5
		C50.3,324,46,290.5,46,256s4.3-68,12.4-96.7c8.3-29.2,20.2-52.2,34.4-66.5c14.3-14.3,37.2-26.2,66.5-34.4C188,50.3,221.5,46,256,46
		 M256,26c-71.1,0-142.1,17.6-177.3,52.7C8.4,149,8.4,363,78.7,433.3C113.9,468.5,184.9,486,256,486s142.1-17.6,177.3-52.7
		c70.3-70.3,70.3-284.3,0-354.6C398.1,43.6,327.1,26,256,26L256,26z"/>
</g>
<rect x="217.9" y="149" style="fill:#FF0000;" width="5.8" height="214"/>
</svg>
