<?xml version="1.0" encoding="utf-8"?>
<!-- Generator: Adobe Illustrator 16.0.0, SVG Export Plug-In . SVG Version: 6.00 Build 0)  -->
<!DOCTYPE svg PUBLIC "-//W3C//DTD SVG 1.1//EN" "http://www.w3.org/Graphics/SVG/1.1/DTD/svg11.dtd">
<svg version="1.1"
	 id="svg2" inkscape:version="0.92.4 5da689c313, 2019-01-14" sodipodi:docname="reddit.svg" xmlns:dc="http://purl.org/dc/elements/1.1/" xmlns:cc="http://creativecommons.org/ns#" xmlns:rdf="http://www.w3.org/1999/02/22-rdf-syntax-ns#" xmlns:svg="http://www.w3.org/2000/svg" xmlns:sodipodi="http://sodipodi.sourceforge.net/DTD/sodipodi-0.dtd" xmlns:inkscape="http://www.inkscape.org/namespaces/inkscape"
	 xmlns="http://www.w3.org/2000/svg" xmlns:xlink="http://www.w3.org/1999/xlink" x="0px" y="0px" width="640px" height="640px"
	 viewBox="0 0 640 640" style="enable-background:new 0 0 640 640;" xml:space="preserve">
<g>
	<g>
		<g id="g20">
			<defs>
				<polygon id="SVGID_1_" points="18.325,493.744 493.725,493.744 493.725,18.256 18.325,18.256 18.325,493.744 				"/>
			</defs>
			<clipPath id="SVGID_2_">
				<use xlink:href="#SVGID_1_"  style="overflow:visible;"/>
			</clipPath>
			<g id="g64" style="clip-path:url(#SVGID_2_);">
				<g id="g66" style="opacity:0.4;">
					<g id="g68">
						<defs>
							<path id="SVGID_3_" d="M448.99,63.029c-59.697-59.698-326.183-59.698-385.88,0c-59.698,59.697-59.698,326.283-0.1,385.98
								c59.597,59.696,326.283,59.596,385.98,0C508.687,389.412,508.587,122.726,448.99,63.029"/>
						</defs>
						<clipPath id="SVGID_4_">
							<use xlink:href="#SVGID_3_"  style="overflow:visible;"/>
						</clipPath>
						<g id="g70" style="clip-path:url(#SVGID_4_);">
							<g id="g72">
								<g id="g74">
								</g>
								<defs>
									
										<filter id="Adobe_OpacityMaskFilter" filterUnits="userSpaceOnUse" x="18.324" y="-493.744" width="475.401" height="475.488">
										<feColorMatrix  type="matrix" values="1 0 0 0 0  0 1 0 0 0  0 0 1 0 0  0 0 0 1 0"/>
									</filter>
								</defs>
								<mask maskUnits="userSpaceOnUse" x="18.324" y="-493.744" width="475.401" height="475.488" id="mask44">
									<g id="g46" style="filter:url(#Adobe_OpacityMaskFilter);">
										<g id="g48">
											<g id="g50">
												<g id="g52">
													
														<radialGradient id="path54_1_" cx="-153.2772" cy="-153.6615" r="1" gradientTransform="matrix(237.7218 0 0 -237.7218 36642.0625 -36221.6406)" gradientUnits="userSpaceOnUse">
														<stop  offset="0" style="stop-color:#FFFFFF"/>
														<stop  offset="0.8587" style="stop-color:#FFFFFF;stop-opacity:0.1413"/>
														<stop  offset="1" style="stop-color:#FFFFFF;stop-opacity:0"/>
													</radialGradient>
													<path id="path54" style="fill:url(#path54_1_);" d="M-26214.4-25701.6h52428v52428h-52428V-25701.6z"/>
												</g>
											</g>
										</g>
									</g>
								</mask>
								<g id="g76" style="mask:url(#mask44);">
									<g id="g78">
										
											<radialGradient id="path80_1_" cx="-153.2615" cy="-154.2701" r="1.0005" gradientTransform="matrix(297.1523 0 0 297.1523 45798.082 46097.8047)" gradientUnits="userSpaceOnUse">
											<stop  offset="0" style="stop-color:#010101"/>
											<stop  offset="0.8587" style="stop-color:#010101"/>
											<stop  offset="1" style="stop-color:#010101"/>
										</radialGradient>
										<path id="path80" inkscape:connector-curvature="0" style="fill:url(#path80_1_);" d="M448.99,63.029
											c-59.697-59.698-326.183-59.698-385.88,0c-59.698,59.697-59.698,326.283-0.1,385.98
											c59.597,59.696,326.283,59.596,385.98,0C508.687,389.412,508.587,122.726,448.99,63.029"/>
									</g>
								</g>
							</g>
						</g>
					</g>
				</g>
			</g>
		</g>
		<g>
			<g id="g84">
			</g>
			<g id="g10" transform="matrix(1.25,0,0,-1.25,0,640)" sodipodi:insensitive="true" style="display:none;">
				<g id="g82" style="display:inline;">
					<defs>
						<polygon id="SVGID_5_" points="18.325,493.744 493.725,493.744 493.725,18.256 18.325,18.256 18.325,493.744 						"/>
					</defs>
					<clipPath id="SVGID_6_">
						<use xlink:href="#SVGID_5_"  style="overflow:visible;"/>
					</clipPath>
					<g id="g126" style="clip-path:url(#SVGID_6_);">
						<g id="g128" style="opacity:0.4;">
							<g id="g130">
								<defs>
									<path id="SVGID_7_" d="M448.99,63.029c-59.697-59.698-326.183-59.698-385.88,0c-59.698,59.697-59.698,326.283-0.1,385.98
										c59.597,59.696,326.283,59.596,385.98,0C508.687,389.412,508.587,122.726,448.99,63.029"/>
								</defs>
								<clipPath id="SVGID_8_">
									<use xlink:href="#SVGID_7_"  style="overflow:visible;"/>
								</clipPath>
								<g id="g132" style="clip-path:url(#SVGID_8_);">
									<g id="g134">
										<g id="g136">
										</g>
										<defs>
											
												<filter id="Adobe_OpacityMaskFilter_1_" filterUnits="userSpaceOnUse" x="18.324" y="-493.744" width="475.401" height="475.488">
												<feColorMatrix  type="matrix" values="1 0 0 0 0  0 1 0 0 0  0 0 1 0 0  0 0 0 1 0"/>
											</filter>
										</defs>
										<mask maskUnits="userSpaceOnUse" x="18.324" y="-493.744" width="475.401" height="475.488" id="mask106">
											<g id="g108" style="filter:url(#Adobe_OpacityMaskFilter_1_);">
												<g id="g110">
													<g id="g112">
														<g id="g114">
															
																<radialGradient id="path116_1_" cx="-153.035" cy="-153.6217" r="1" gradientTransform="matrix(188.2547 -188.3612 -130.3588 -130.2789 8988.4072 -48532.3555)" gradientUnits="userSpaceOnUse">
																<stop  offset="0" style="stop-color:#FFFFFF"/>
																<stop  offset="0.8587" style="stop-color:#FFFFFF;stop-opacity:0.1413"/>
																<stop  offset="1" style="stop-color:#FFFFFF;stop-opacity:0"/>
															</radialGradient>
															<path id="path116" style="fill:url(#path116_1_);" d="M-26214.4-25701.6h52428v52428h-52428V-25701.6z"/>
														</g>
													</g>
												</g>
											</g>
										</mask>
										<g id="g138" style="mask:url(#mask106);">
											<g id="g140">
												
													<radialGradient id="path142_1_" cx="-153.41" cy="-154.1889" r="1.0006" gradientTransform="matrix(235.3183 235.4515 -162.9485 162.8487 11231.1113 61486.1641)" gradientUnits="userSpaceOnUse">
													<stop  offset="0" style="stop-color:#010101"/>
													<stop  offset="0.8587" style="stop-color:#010101"/>
													<stop  offset="1" style="stop-color:#010101"/>
												</radialGradient>
												<path id="path142" inkscape:connector-curvature="0" style="fill:url(#path142_1_);" d="M448.99,63.029
													c-59.697-59.698-326.183-59.698-385.88,0c-59.698,59.697-59.698,326.283-0.1,385.98
													c59.597,59.696,326.283,59.596,385.98,0C508.687,389.412,508.587,122.726,448.99,63.029"/>
											</g>
										</g>
									</g>
								</g>
							</g>
						</g>
					</g>
				</g>
				<g id="g12" style="display:inline;">
					<g id="g146">
					</g>
					<g id="g14">
						<g id="g144">
							<defs>
								<rect id="SVGID_9_" x="-41.148" y="-41.173" width="594.233" height="594.297"/>
							</defs>
							<clipPath id="SVGID_10_">
								<use xlink:href="#SVGID_9_"  style="overflow:visible;"/>
							</clipPath>
							<g id="g188" style="clip-path:url(#SVGID_10_);">
								<g id="g190" style="opacity:0.4;">
									<g id="g192">
										<defs>
											<path id="SVGID_11_" d="M63.01,63.029c59.697-59.698,326.183-59.698,385.88,0c59.697,59.697,59.697,326.183,0,385.88
												c-59.697,59.696-326.183,59.696-385.88,0.1C3.313,389.412,3.413,122.726,63.01,63.029"/>
										</defs>
										<clipPath id="SVGID_12_">
											<use xlink:href="#SVGID_11_"  style="overflow:visible;"/>
										</clipPath>
										<g id="g194" style="clip-path:url(#SVGID_12_);">
											<g id="g196">
												<g id="g198">
												</g>
												<defs>
													
														<filter id="Adobe_OpacityMaskFilter_2_" filterUnits="userSpaceOnUse" x="18.274" y="-493.694" width="475.388" height="475.438">
														<feColorMatrix  type="matrix" values="1 0 0 0 0  0 1 0 0 0  0 0 1 0 0  0 0 0 1 0"/>
													</filter>
												</defs>
												<mask maskUnits="userSpaceOnUse" x="18.274" y="-493.694" width="475.388" height="475.438" id="mask168">
													<g id="g170" style="filter:url(#Adobe_OpacityMaskFilter_2_);">
														<g id="g172">
															<g id="g174">
																<g id="g176">
																	
																		<radialGradient id="path178_1_" cx="-152.9381" cy="-153.7623" r="1" gradientTransform="matrix(-188.2877 -188.3942 130.3817 -130.3018 -8543.8877 -48540.875)" gradientUnits="userSpaceOnUse">
																		<stop  offset="0" style="stop-color:#FFFFFF"/>
																		<stop  offset="0.8587" style="stop-color:#FFFFFF;stop-opacity:0.1413"/>
																		<stop  offset="1" style="stop-color:#FFFFFF;stop-opacity:0"/>
																	</radialGradient>
																	<path id="path178" style="fill:url(#path178_1_);" d="M-26214.4-25701.6h52428v52428h-52428V-25701.6z"/>
																</g>
															</g>
														</g>
													</g>
												</mask>
												<g id="g200" style="mask:url(#mask168);">
													<g id="g202">
														
															<radialGradient id="path204_1_" cx="-153.3318" cy="-154.3029" r="1.0002" gradientTransform="matrix(-235.3596 235.4928 162.9771 162.8772 -10684.3379 61496.832)" gradientUnits="userSpaceOnUse">
															<stop  offset="0" style="stop-color:#010101"/>
															<stop  offset="0.8587" style="stop-color:#010101"/>
															<stop  offset="1" style="stop-color:#010101"/>
														</radialGradient>
														<path id="path204" inkscape:connector-curvature="0" style="fill:url(#path204_1_);" d="M63.01,63.029
															c59.697-59.698,326.183-59.698,385.88,0c59.697,59.697,59.697,326.183,0,385.88
															c-59.697,59.696-326.183,59.696-385.88,0.1C3.313,389.412,3.413,122.726,63.01,63.029"/>
													</g>
												</g>
											</g>
										</g>
									</g>
								</g>
							</g>
						</g>
						<g id="g206" transform="translate(433.279,78.721)">
							<path id="path208" inkscape:connector-curvature="0" style="fill:#EAEAEA;" d="M0-0.001
								c-70.295-70.294-284.264-70.294-354.558,0c-70.295,70.295-70.295,284.265,0,354.559c70.294,70.294,284.263,70.294,354.558,0
								C70.294,284.264,70.295,70.294,0-0.001"/>
						</g>
					</g>
				</g>
			</g>
		</g>
	</g>
	<path id="path4161" inkscape:connector-curvature="0" style="fill:#FF4500;" d="M222.417,27.26
		c-50.203,4.126-95.55,17.324-124.649,36.279c-38.046,24.784-59.327,69.71-69.328,146.363c-2.585,19.811-2.585,72.393,0,92.203
		c10.002,76.652,31.282,121.579,69.328,146.362c77.228,50.306,241.825,49.776,318.173-1.024
		c35.961-23.928,58.145-71.068,67.373-143.169c2.754-21.516,2.754-75.026,0-96.542c-7.61-59.455-24.782-103.601-50.178-128.998
		C405.374,50.973,352.34,32.21,287.378,27.169C270.622,25.868,238.806,25.913,222.417,27.26L222.417,27.26z"/>
	<g>
		<path style="fill-rule:evenodd;clip-rule:evenodd;fill:#FFFFFF;" d="M432,263.563c0-5.041,0-10.084,0-15.125
			c-0.53-4.984-0.93-9.986-1.611-14.95c-5.177-37.774-20.56-70.78-46.886-98.408c-27.955-29.337-62.08-47.088-102.259-52.956
			c-5.872-0.858-11.787-1.423-17.682-2.123c-5.042,0-10.083,0-15.125,0c-4.995,0.531-10.009,0.931-14.983,1.614
			c-37.771,5.188-70.779,20.574-98.399,46.905c-29.33,27.962-47.079,62.088-52.936,102.27c-0.854,5.862-1.42,11.764-2.12,17.648
			c0,5.041,0,10.084,0,15.125c0.53,4.984,0.93,9.986,1.611,14.95c5.177,37.775,20.561,70.781,46.886,98.408
			c27.955,29.337,62.08,47.087,102.259,52.956c5.872,0.858,11.787,1.423,17.682,2.123c5.042,0,10.083,0,15.125,0
			c4.995-0.531,10.009-0.931,14.984-1.615c37.772-5.188,70.779-20.573,98.399-46.905c29.33-27.961,47.078-62.088,52.935-102.27
			C430.735,275.349,431.301,269.446,432,263.563z M312.597,352.451c-13.561,2.892-26.964,5.751-40.367,8.611
			c-4.871,1.039-6.992-0.22-7.987-4.9c-3.731-17.547-7.452-35.096-11.128-52.654c-1.475-7.046-1.425-6.959-8.512-7.466
			c-21.721-1.554-42.002-7.595-60.244-19.753c-1.615-1.076-2.566-1.004-4.134,0.177c-12.117,9.127-28.77,6.456-37.205-5.84
			c-8.462-12.335-4.922-28.764,8.081-36.739c2.025-1.242,2.473-2.563,2.246-4.702c-1.201-11.343,1.606-21.809,7.355-31.511
			c8.978-15.152,22.408-25.255,38.091-32.48c26.061-12.006,53.425-14.62,81.529-10.079c18.063,2.919,34.998,9.078,49.832,20.041
			c18.516,13.684,30.385,30.934,28.535,55.257c-0.079,1.041,1.141,2.591,2.172,3.243c12.955,8.18,16.663,24.425,8.29,36.799
			c-8.447,12.482-25.148,15.184-37.422,5.918c-1.603-1.21-2.553-1.148-4.122-0.097c-16.192,10.843-34.151,16.811-53.409,19.11
			c-4.143,0.494-8.293,0.921-12.612,1.398c3.891,18.253,7.687,36.067,11.537,54.132c12.873-2.74,25.232-5.37,37.462-7.973
			c2.434-11.261,9.259-17.579,18.73-17.59c8.542-0.009,16.423,6.282,18.173,14.509c1.859,8.741-2.437,17.341-10.458,21.042
			C329.914,364.188,319.62,363.43,312.597,352.451z"/>
		<path style="fill-rule:evenodd;clip-rule:evenodd;fill:#FFFFFF;" d="M296.226,219.673c-9.956,0.032-18.143,8.3-18.007,18.184
			c0.134,9.741,8.317,17.872,18.039,17.924c9.905,0.053,18.066-8.135,18.067-18.127C314.326,227.613,306.3,219.64,296.226,219.673z"
			/>
		<path style="fill-rule:evenodd;clip-rule:evenodd;fill:#FFFFFF;" d="M215.701,219.677c-10.057-0.009-18.049,7.995-18.026,18.055
			c0.023,9.968,8.252,18.155,18.143,18.047c9.735-0.106,17.886-8.271,17.964-17.995C233.862,227.881,225.68,219.686,215.701,219.677
			z"/>
		<path style="fill-rule:evenodd;clip-rule:evenodd;fill:#FFFFFF;" d="M256.095,175.703c-10.993,0.453-21.789,1.67-31.825,6.273
			c-4.086,1.875-7.803,4.682-11.398,7.442c-2.059,1.581-2.121,4.093-0.27,6.081c1.816,1.95,4.217,2.098,6.153,0.366
			c6.885-6.161,15.325-8.48,24.082-9.854c12.596-1.976,25.152-1.477,37.265,2.663c4.445,1.52,8.54,4.241,12.547,6.8
			c2.455,1.57,4.572,2.136,6.763,0.073c1.947-1.835,1.571-4.662-0.87-6.891c-6.832-6.238-15.238-9.168-24.091-10.776
			C268.399,176.783,262.218,176.404,256.095,175.703z"/>
	</g>
</g>
</svg>
