<?xml version="1.0" encoding="utf-8"?>
<!-- Generator: Adobe Illustrator 18.0.0, SVG Export Plug-In . SVG Version: 6.00 Build 0)  -->
<!DOCTYPE svg PUBLIC "-//W3C//DTD SVG 1.1//EN" "http://www.w3.org/Graphics/SVG/1.1/DTD/svg11.dtd">
<svg version="1.1" id="Layer_3" xmlns="http://www.w3.org/2000/svg" xmlns:xlink="http://www.w3.org/1999/xlink" x="0px" y="0px"
	 viewBox="0 0 512 512" style="enable-background:new 0 0 512 512;" xml:space="preserve">
<g>
	<g style="opacity:0.4;enable-background:new    ;">
		
			<radialGradient id="SVGID_1_" cx="1.0125" cy="515" r="118.8609" gradientTransform="matrix(2 0 0 -2 254 1286)" gradientUnits="userSpaceOnUse">
			<stop  offset="0" style="stop-color:#010101"/>
			<stop  offset="0.8587" style="stop-color:#010101;stop-opacity:0.1413"/>
			<stop  offset="1" style="stop-color:#010101;stop-opacity:0"/>
		</radialGradient>
		<path style="fill:url(#SVGID_1_);" d="M449,449c-59.7,59.7-326.2,59.7-385.9,0S3.4,122.7,63,63s326.3-59.6,386,0
			S508.6,389.3,449,449z"/>
	</g>
	<g style="opacity:0.4;enable-background:new    ;">
		
			<radialGradient id="SVGID_2_" cx="2.0286" cy="516.0684" r="133.1551" gradientTransform="matrix(1.4138 -1.4146 -0.979 -0.9784 758.388 763.7472)" gradientUnits="userSpaceOnUse">
			<stop  offset="0" style="stop-color:#010101"/>
			<stop  offset="0.8587" style="stop-color:#010101;stop-opacity:0.1413"/>
			<stop  offset="1" style="stop-color:#010101;stop-opacity:0"/>
		</radialGradient>
		<path style="fill:url(#SVGID_2_);" d="M449,449c-59.7,59.7-326.2,59.7-385.9,0S3.4,122.7,63,63s326.3-59.6,386,0
			S508.6,389.3,449,449z"/>
	</g>
	<g style="opacity:0.4;enable-background:new    ;">
		
			<radialGradient id="SVGID_3_" cx="3.4424" cy="513.9732" r="133.1784" gradientTransform="matrix(-1.4138 -1.4146 0.979 -0.9784 -242.3879 763.7472)" gradientUnits="userSpaceOnUse">
			<stop  offset="0" style="stop-color:#010101"/>
			<stop  offset="0.8587" style="stop-color:#010101;stop-opacity:0.1413"/>
			<stop  offset="1" style="stop-color:#010101;stop-opacity:0"/>
		</radialGradient>
		<path style="fill:url(#SVGID_3_);" d="M63,449c59.7,59.7,326.2,59.7,385.9,0s59.7-326.2,0-385.9S122.7,3.4,63,63S3.4,389.3,63,449
			z"/>
	</g>
</g>
<g>
	<path style="fill:#FF65D4;" d="M437,279.1c-14.2,14.2-30.7,24.8-48.2,31.9c-21.7,8.7-45.1,11.9-68.1,9.7
		c-14.5-1.4-28.8-5-42.4-10.8c-7.7-3.3-15.2-7.3-22.3-11.9c-4.6-3-9-6.3-13.3-9.8c-3.4-2.8-6.7-5.8-9.8-9s-6.1-6.5-9-9.8
		c0.5,5.5,1.3,11,2.4,16.4c1.7,8.4,4.2,16.4,7.3,24.2c5.5,13.7,13.1,26.4,22.3,37.6c14.6,17.9,33.5,32.1,55,41.3
		c17.4,7.4,36.5,11.5,56.7,11.5c10.2,0,20.1-1.1,29.6-3.1c30.1-6.3,56.8-21.9,76.8-43.8c13.9-52.5,15.6-116.8,5.2-172.2
		c-0.8,26.1-8.6,52-23.4,74.7C450.5,264.2,444.2,271.9,437,279.1z"/>
	<path style="fill:#00BD9B;" d="M75,232.9c14.2-14.2,30.7-24.8,48.2-31.9c21.7-8.7,45.1-11.9,68.1-9.7c14.5,1.4,28.8,5,42.4,10.8
		c7.7,3.3,15.2,7.3,22.3,11.9c4.6,3,9,6.3,13.3,9.8c3.4,2.8,6.7,5.8,9.8,9s6.1,6.5,9,9.8c-0.5-5.5-1.3-11-2.4-16.4
		c-1.7-8.4-4.2-16.4-7.3-24.2c-5.5-13.7-13.1-26.4-22.3-37.6c-14.6-17.9-33.5-32.1-55-41.3c-17.4-7.4-36.5-11.5-56.7-11.5
		c-10.2,0-20.1,1.1-29.6,3.1C84.6,121,58,136.7,37.9,158.5C24,211,22.3,275.3,32.8,330.7c0.8-26.1,8.6-52,23.4-74.7
		C61.5,247.8,67.8,240.1,75,232.9z"/>
	<path style="fill:#9C56B8;" d="M397.3,397.3c-9.6,2-19.5,3.1-29.6,3.1c-20.1,0-39.3-4.1-56.7-11.5c-21.5-9.2-40.4-23.5-55-41.3
		c-9.2-11.3-16.8-23.9-22.3-37.6c-3.1-7.8-5.6-15.8-7.3-24.2c-1.1-5.3-1.9-10.8-2.4-16.4c-0.4-4.4-0.6-8.8-0.6-13.3
		s0.2-8.9,0.6-13.3c-3.6,4.3-6.8,8.7-9.8,13.3c-4.7,7.1-8.7,14.6-11.9,22.3c-5.8,13.6-9.4,27.9-10.8,42.4c-2.3,23,1,46.4,9.7,68.1
		c7,17.6,17.7,34,31.9,48.2c7.2,7.2,14.9,13.4,23.1,18.8c22.7,14.8,48.6,22.6,74.7,23.4c42.7-8.1,80-23.4,102.6-45.9
		c18.4-18.4,32-46.8,40.8-79.8C454,375.3,427.4,391,397.3,397.3z"/>
	<path style="fill:#51D88B;" d="M114.7,114.7c9.6-2,19.5-3.1,29.6-3.1c20.1,0,39.3,4.1,56.7,11.5c21.5,9.2,40.4,23.5,55,41.3
		c9.2,11.3,16.8,23.9,22.3,37.6c3.1,7.8,5.6,15.8,7.3,24.2c1.1,5.3,1.9,10.8,2.4,16.4c0.4,4.4,0.6,8.8,0.6,13.3s-0.2,8.9-0.6,13.3
		c3.6-4.3,6.8-8.7,9.8-13.3c4.7-7.1,8.7-14.6,11.9-22.3c5.8-13.6,9.4-27.9,10.8-42.4c2.3-23-1-46.4-9.7-68.1
		c-7-17.6-17.7-34-31.9-48.2c-7.2-7.2-14.9-13.4-23.1-18.8c-22.7-14.8-48.6-22.6-74.7-23.4c-42.7,8.1-80,23.4-102.6,45.9
		c-18.4,18.4-32,46.8-40.8,79.8C58,136.7,84.6,121,114.7,114.7z"/>
	<path style="fill:#2D98E0;" d="M114.7,397.3c-2-9.6-3.1-19.5-3.1-29.6c0-20.1,4.1-39.3,11.5-56.7c9.2-21.5,23.5-40.4,41.3-55
		c11.3-9.2,23.9-16.8,37.6-22.3c7.8-3.1,15.8-5.6,24.2-7.3c5.3-1.1,10.8-1.9,16.4-2.4c4.4-0.4,8.8-0.6,13.3-0.6s8.9,0.2,13.3,0.6
		c-4.3-3.6-8.7-6.8-13.3-9.8c-7.1-4.7-14.6-8.7-22.3-11.9c-13.6-5.8-27.9-9.4-42.4-10.8c-23-2.3-46.4,1-68.1,9.7
		c-17.6,7-34,17.7-48.2,31.9c-7.2,7.2-13.4,14.9-18.8,23.1c-14.8,22.7-22.6,48.6-23.4,74.7c8.1,42.7,23.4,80,45.9,102.6
		c18.4,18.4,46.8,32,79.8,40.8C136.7,454,121,427.4,114.7,397.3z"/>
	<path style="fill:#E84C3D;" d="M353.5,37.9c21.8,20,37.5,46.7,43.8,76.8c2,9.6,3.1,19.5,3.1,29.6c0,20.1-4.1,39.3-11.5,56.7
		c-9.2,21.5-23.5,40.4-41.3,55c-11.3,9.2-23.9,16.8-37.6,22.3c-7.8,3.1-15.8,5.6-24.2,7.3c-5.3,1.1-10.8,1.9-16.4,2.4
		c-4.4,0.4-8.8,0.6-13.3,0.6s-8.9-0.2-13.3-0.6c4.3,3.6,8.7,6.8,13.3,9.8c7.1,4.7,14.6,8.7,22.3,11.9c13.6,5.8,27.9,9.4,42.4,10.8
		c23,2.3,46.4-1,68.1-9.7c17.6-7,34-17.7,48.2-31.9c7.2-7.2,13.4-14.9,18.8-23.1c14.8-22.7,22.6-48.6,23.4-74.7
		c-8.1-42.7-23.4-80-45.9-102.6C414.8,60.3,386.5,46.7,353.5,37.9z"/>
	<path style="fill:#6659FF;" d="M232.9,437c-14.2-14.2-24.8-30.7-31.9-48.2c-8.7-21.7-11.9-45.1-9.7-68.1c1.4-14.5,5-28.8,10.8-42.4
		c3.3-7.7,7.3-15.2,11.9-22.3c3-4.6,6.3-9,9.8-13.3c2.8-3.4,5.8-6.7,9-9.8s6.5-6.1,9.8-9c-5.5,0.5-11,1.3-16.4,2.4
		c-8.4,1.7-16.4,4.2-24.2,7.3c-13.7,5.5-26.4,13.1-37.6,22.3c-17.9,14.6-32.1,33.5-41.3,55c-7.4,17.4-11.5,36.5-11.5,56.7
		c0,10.2,1.1,20.1,3.1,29.6c6.3,30.1,21.9,56.8,43.8,76.8c52.5,13.9,116.8,15.6,172.2,5.2c-26.1-0.8-52-8.6-74.7-23.4
		C247.8,450.5,240.1,444.2,232.9,437z"/>
	<path style="fill:#F1C50E;" d="M279.1,75c14.2,14.2,24.8,30.7,31.9,48.2c8.7,21.7,11.9,45.1,9.7,68.1c-1.4,14.5-5,28.8-10.8,42.4
		c-3.3,7.7-7.3,15.2-11.9,22.3c-3,4.6-6.3,9-9.8,13.3c-2.8,3.4-5.8,6.7-9,9.8s-6.5,6.1-9.8,9c5.5-0.5,11-1.3,16.4-2.4
		c8.4-1.7,16.4-4.2,24.2-7.3c13.7-5.5,26.4-13.1,37.6-22.3c17.9-14.6,32.1-33.5,41.3-55c7.4-17.4,11.5-36.5,11.5-56.7
		c0-10.2-1.1-20.1-3.1-29.6C391,84.6,375.3,58,353.5,37.9C301,24,236.7,22.3,181.3,32.8c26.1,0.8,52,8.6,74.7,23.4
		C264.2,61.5,271.9,67.8,279.1,75z"/>
</g>
<g>
	<radialGradient id="SVGID_4_" cx="256.7235" cy="223.9592" r="129.5101" gradientUnits="userSpaceOnUse">
		<stop  offset="0" style="stop-color:#FFFFFF"/>
		<stop  offset="1" style="stop-color:#FF864A"/>
	</radialGradient>
	<path style="fill:url(#SVGID_4_);" d="M256,125.9c-43.4,0-78.5,35.2-78.5,78.5c0,15.9,4.7,30.7,12.8,43L256,354.6l65.7-107.1
		c8.1-12.4,12.8-27.1,12.8-43C334.5,161,299.4,125.9,256,125.9z"/>
	<path style="fill:#FFFFFF;" d="M256,132.1c39.9,0,72.4,32.5,72.4,72.4c0,14.2-4.1,27.9-11.8,39.7l-0.1,0.1l-0.1,0.1L256,342.8
		l-60.4-98.6l-0.1-0.1l-0.1-0.1c-7.7-11.8-11.8-25.5-11.8-39.7C183.6,164.5,216.1,132.1,256,132.1 M256,125.9
		c-43.4,0-78.5,35.2-78.5,78.5c0,15.9,4.7,30.7,12.8,43L256,354.6l65.7-107.1c8.1-12.4,12.8-27.1,12.8-43
		C334.5,161,299.4,125.9,256,125.9L256,125.9z"/>
	<g>
		<path style="fill:#FFFFFF;" d="M273.4,219c-1.4-1.4-3.3-2.2-5.4-2.2c-1.2,0-2.3,0.3-3.4,0.8c-2.1-1-4.6-1-6.7,0
			c-2.1-1-4.6-1-6.7,0c-2.1-1-4.6-1-6.7,0c-1-0.5-2.2-0.8-3.4-0.8c-4.2,0-7.6,3.4-7.6,7.6c0,3.9,2.9,7.1,6.7,7.5V313l0,0.4l1.7,0
			v-83.2l-0.4,0c-0.3,0-0.6,0-0.9,0c-3-0.2-5.4-2.8-5.4-5.8c0-3.2,2.6-5.8,5.8-5.8c0.6,0,1.1,0.1,1.6,0.2c-1.6,1.4-2.5,3.4-2.5,5.6
			c0,2.4,1.1,4.6,3.1,6.1c0.3,0.3,0.7,0.5,1,0.6l0.2,0.1l0.2-0.1c0.3-0.2,0.7-0.4,1-0.6c0.9-0.7,1.7-1.6,2.2-2.6
			c0.5,1,1.3,1.9,2.2,2.6c0.3,0.3,0.7,0.5,1,0.6l0.2,0.1l0.2-0.1c0.3-0.2,0.7-0.4,1-0.6c0.9-0.7,1.7-1.6,2.2-2.6
			c0.5,1,1.3,1.9,2.2,2.6c0.3,0.3,0.7,0.5,1,0.6l0.2,0.1l0.2-0.1c0.3-0.2,0.6-0.4,1-0.6c0.9-0.7,1.7-1.6,2.2-2.6
			c0.5,1,1.3,1.9,2.2,2.6c0.3,0.3,0.7,0.5,1,0.6l0.2,0.1l0.2-0.1c0.3-0.2,0.7-0.4,1-0.6c1.9-1.5,3.1-3.7,3.1-6.1
			c0-2.2-0.9-4.2-2.5-5.6c0.5-0.2,1.1-0.2,1.6-0.2c3.2,0,5.8,2.6,5.8,5.8c0,2.9-2.1,5.3-5,5.8c-0.3,0-0.6,0.1-0.9,0.1l-0.4,0v83.1
			h1.7v-81.5c3.6-0.6,6.2-3.8,6.2-7.5C275.6,222.4,274.8,220.5,273.4,219z M267.2,224.4c0,1.9-0.9,3.7-2.5,4.8
			c-1.6-1.1-2.5-2.9-2.5-4.8c0-1.9,0.9-3.7,2.5-4.8C266.3,220.7,267.2,222.5,267.2,224.4z M261.3,220.9c-0.4-0.8-1-1.5-1.6-2.1
			c1.1-0.3,2.2-0.3,3.3,0C262.3,219.4,261.8,220.1,261.3,220.9z M260.5,224.4c0,1.9-0.9,3.7-2.5,4.8c-1.6-1.1-2.5-2.9-2.5-4.8
			s0.9-3.7,2.5-4.8C259.5,220.7,260.5,222.5,260.5,224.4z M254.6,220.9c-0.4-0.8-1-1.5-1.6-2.1c1.1-0.3,2.2-0.3,3.3,0
			C255.6,219.4,255,220.1,254.6,220.9z M253.8,224.4c0,1.9-0.9,3.7-2.5,4.8c-1.6-1.1-2.5-2.9-2.5-4.8s0.9-3.7,2.5-4.8
			C252.8,220.7,253.8,222.5,253.8,224.4z M249.5,218.8c-0.7,0.6-1.2,1.3-1.6,2.1c-0.4-0.8-1-1.5-1.6-2.1
			C247.3,218.5,248.5,218.5,249.5,218.8z M247,224.4c0,1.9-0.9,3.7-2.5,4.8c-1.6-1.1-2.5-2.9-2.5-4.8c0-1.9,0.9-3.7,2.5-4.8
			C246.1,220.7,247,222.5,247,224.4z"/>
		<path style="fill:#3A3A3A;" d="M287.5,354.6v-51.4h-63v51.4l0,0c0,17.4,14.1,31.5,31.5,31.5S287.5,372,287.5,354.6
			C287.5,354.6,287.5,354.6,287.5,354.6z"/>
	</g>
</g>
</svg>
