<?xml version="1.0" encoding="UTF-8" standalone="no"?>
<svg
   xmlns:dc="http://purl.org/dc/elements/1.1/"
   xmlns:cc="http://creativecommons.org/ns#"
   xmlns:rdf="http://www.w3.org/1999/02/22-rdf-syntax-ns#"
   xmlns:svg="http://www.w3.org/2000/svg"
   xmlns="http://www.w3.org/2000/svg"
   viewBox="0 0 640 640"
   height="640"
   width="640"
   xml:space="preserve"
   version="1.1"
   id="svg2"><metadata
     id="metadata8"><rdf:RDF><cc:Work
         rdf:about=""><dc:format>image/svg+xml</dc:format><dc:type
           rdf:resource="http://purl.org/dc/dcmitype/StillImage" /></cc:Work></rdf:RDF></metadata><defs
     id="defs6"><clipPath
       id="clipPath16"
       clipPathUnits="userSpaceOnUse"><path
         id="path18"
         d="M 0,512 512,512 512,0 0,0 0,512 Z" /></clipPath><clipPath
       id="clipPath24"
       clipPathUnits="userSpaceOnUse"><path
         id="path26"
         d="m 18.325,493.744 475.4,0 0,-475.4877 -475.4,0 0,475.4877 z" /></clipPath><clipPath
       id="clipPath28"
       clipPathUnits="userSpaceOnUse"><path
         id="path30"
         d="M 448.99,63.029 C 389.293,3.332 122.807,3.332 63.11,63.029 3.413,122.726 3.413,389.312 63.01,449.009 c 59.597,59.696 326.283,59.596 385.98,0 59.697,-59.597 59.597,-326.283 0,-385.98" /></clipPath><radialGradient
       id="radialGradient36"
       spreadMethod="pad"
       gradientTransform="matrix(237.72188,0,0,237.72188,256.02499,256)"
       gradientUnits="userSpaceOnUse"
       r="1"
       cy="0"
       cx="0"
       fy="0"
       fx="0"><stop
         id="stop38"
         offset="0"
         style="stop-opacity:1;stop-color:#ffffff" /><stop
         id="stop40"
         offset="0.8587"
         style="stop-opacity:0.14129854;stop-color:#ffffff" /><stop
         id="stop42"
         offset="1"
         style="stop-opacity:0;stop-color:#ffffff" /></radialGradient><mask
       id="mask44"
       height="1"
       width="1"
       y="0"
       x="0"
       maskUnits="userSpaceOnUse"><g
         id="g46"><g
           id="g48"><g
             id="g50"><g
               id="g52"><path
                 id="path54"
                 style="fill:url(#radialGradient36);stroke:none"
                 d="m -32768,32767 65535,0 0,-65535 -65535,0 0,65535 z" /></g></g></g></g></mask><radialGradient
       id="radialGradient56"
       spreadMethod="pad"
       gradientTransform="matrix(237.72188,0,0,237.72188,256.02499,256)"
       gradientUnits="userSpaceOnUse"
       r="1"
       cy="0"
       cx="0"
       fy="0"
       fx="0"><stop
         id="stop58"
         offset="0"
         style="stop-opacity:1;stop-color:#010101" /><stop
         id="stop60"
         offset="0.8587"
         style="stop-opacity:1;stop-color:#010101" /><stop
         id="stop62"
         offset="1"
         style="stop-opacity:1;stop-color:#010101" /></radialGradient><clipPath
       id="clipPath86"
       clipPathUnits="userSpaceOnUse"><path
         id="path88"
         d="m 18.325,493.744 475.4,0 0,-475.4877 -475.4,0 0,475.4877 z" /></clipPath><clipPath
       id="clipPath90"
       clipPathUnits="userSpaceOnUse"><path
         id="path92"
         d="M 448.99,63.029 C 389.293,3.332 122.807,3.332 63.11,63.029 3.413,122.726 3.413,389.312 63.01,449.009 c 59.597,59.696 326.283,59.596 385.98,0 59.697,-59.597 59.597,-326.283 0,-385.98" /></clipPath><radialGradient
       id="radialGradient98"
       spreadMethod="pad"
       gradientTransform="matrix(188.25467,188.36119,-130.35883,130.27895,256.02499,256.04376)"
       gradientUnits="userSpaceOnUse"
       r="1"
       cy="0"
       cx="0"
       fy="0"
       fx="0"><stop
         id="stop100"
         offset="0"
         style="stop-opacity:1;stop-color:#ffffff" /><stop
         id="stop102"
         offset="0.8587"
         style="stop-opacity:0.14129854;stop-color:#ffffff" /><stop
         id="stop104"
         offset="1"
         style="stop-opacity:0;stop-color:#ffffff" /></radialGradient><mask
       id="mask106"
       height="1"
       width="1"
       y="0"
       x="0"
       maskUnits="userSpaceOnUse"><g
         id="g108"><g
           id="g110"><g
             id="g112"><g
               id="g114"><path
                 id="path116"
                 style="fill:url(#radialGradient98);stroke:none"
                 d="m -32768,32767 65535,0 0,-65535 -65535,0 0,65535 z" /></g></g></g></g></mask><radialGradient
       id="radialGradient118"
       spreadMethod="pad"
       gradientTransform="matrix(188.25467,188.36119,-130.35883,130.27895,256.02499,256.04376)"
       gradientUnits="userSpaceOnUse"
       r="1"
       cy="0"
       cx="0"
       fy="0"
       fx="0"><stop
         id="stop120"
         offset="0"
         style="stop-opacity:1;stop-color:#010101" /><stop
         id="stop122"
         offset="0.8587"
         style="stop-opacity:1;stop-color:#010101" /><stop
         id="stop124"
         offset="1"
         style="stop-opacity:1;stop-color:#010101" /></radialGradient><clipPath
       id="clipPath148"
       clipPathUnits="userSpaceOnUse"><path
         id="path150"
         d="m 18.275,493.694 475.387,0 0,-475.4377 -475.387,0 0,475.4377 z" /></clipPath><clipPath
       id="clipPath152"
       clipPathUnits="userSpaceOnUse"><path
         id="path154"
         d="m 63.01,63.029 c 59.697,-59.697 326.183,-59.697 385.88,0 59.697,59.697 59.697,326.183 0,385.88 -59.697,59.696 -326.183,59.696 -385.88,0.1 -59.697,-59.597 -59.597,-326.283 0,-385.98" /></clipPath><radialGradient
       id="radialGradient160"
       spreadMethod="pad"
       gradientTransform="matrix(-188.28767,188.39421,130.38168,130.30179,255.92499,255.99377)"
       gradientUnits="userSpaceOnUse"
       r="1"
       cy="0"
       cx="0"
       fy="0"
       fx="0"><stop
         id="stop162"
         offset="0"
         style="stop-opacity:1;stop-color:#ffffff" /><stop
         id="stop164"
         offset="0.8587"
         style="stop-opacity:0.14129854;stop-color:#ffffff" /><stop
         id="stop166"
         offset="1"
         style="stop-opacity:0;stop-color:#ffffff" /></radialGradient><mask
       id="mask168"
       height="1"
       width="1"
       y="0"
       x="0"
       maskUnits="userSpaceOnUse"><g
         id="g170"><g
           id="g172"><g
             id="g174"><g
               id="g176"><path
                 id="path178"
                 style="fill:url(#radialGradient160);stroke:none"
                 d="m -32768,32767 65535,0 0,-65535 -65535,0 0,65535 z" /></g></g></g></g></mask><radialGradient
       id="radialGradient180"
       spreadMethod="pad"
       gradientTransform="matrix(-188.28767,188.39421,130.38168,130.30179,255.92499,255.99377)"
       gradientUnits="userSpaceOnUse"
       r="1"
       cy="0"
       cx="0"
       fy="0"
       fx="0"><stop
         id="stop182"
         offset="0"
         style="stop-opacity:1;stop-color:#010101" /><stop
         id="stop184"
         offset="0.8587"
         style="stop-opacity:1;stop-color:#010101" /><stop
         id="stop186"
         offset="1"
         style="stop-opacity:1;stop-color:#010101" /></radialGradient><radialGradient
       id="radialGradient218"
       spreadMethod="pad"
       gradientTransform="matrix(229.9996,0,0,-229.9996,256,256)"
       gradientUnits="userSpaceOnUse"
       r="1"
       cy="0"
       cx="0"
       fy="0"
       fx="0"><stop
         id="stop220"
         offset="0"
         style="stop-opacity:1;stop-color:#94f7ff" /><stop
         id="stop222"
         offset="1"
         style="stop-opacity:1;stop-color:#15b2ff" /></radialGradient><clipPath
       id="clipPath230"
       clipPathUnits="userSpaceOnUse"><path
         id="path232"
         d="M 0,512 512,512 512,0 0,0 0,512 Z" /></clipPath><clipPath
       id="clipPath270"
       clipPathUnits="userSpaceOnUse"><path
         id="path272"
         d="m 151.667,176 207.333,0 0,-54.667 -207.333,0 0,54.667 z" /></clipPath><clipPath
       id="clipPath288"
       clipPathUnits="userSpaceOnUse"><path
         id="path290"
         d="m 106.923,416.006 98.227,0 0,-92.34 -98.227,0 0,92.34 z" /></clipPath><clipPath
       id="clipPath304"
       clipPathUnits="userSpaceOnUse"><path
         id="path306"
         d="m 107.055,415.068 93.342,0 0,-87.652 -93.342,0 0,87.652 z" /></clipPath><clipPath
       id="clipPath320"
       clipPathUnits="userSpaceOnUse"><path
         id="path322"
         d="m 317.707,186.922 91.669,0 0,-98.5376 -91.669,0 0,98.5376 z" /></clipPath><clipPath
       id="clipPath336"
       clipPathUnits="userSpaceOnUse"><path
         id="path338"
         d="m 317.179,185.468 87.445,0 0,-93.4908 -87.445,0 0,93.4908 z" /></clipPath></defs><g
     transform="matrix(1.25,0,0,-1.25,0,640)"
     id="g10"><g
       id="g12"><g
         clip-path="url(#clipPath16)"
         id="g14"><g
           id="g20"><g
             id="g22" /><g
             id="g64"><g
               style="opacity:0.39999402"
               id="g66"
               clip-path="url(#clipPath24)"><g
                 id="g68"><g
                   id="g70"
                   clip-path="url(#clipPath28)"><g
                     id="g72"><g
                       id="g74" /><g
                       id="g76"
                       mask="url(#mask44)"><g
                         id="g78"><path
                           id="path80"
                           style="fill:url(#radialGradient56);stroke:none"
                           d="M 448.99,63.029 C 389.293,3.332 122.807,3.332 63.11,63.029 3.413,122.726 3.413,389.312 63.01,449.009 c 59.597,59.696 326.283,59.596 385.98,0 59.697,-59.597 59.597,-326.283 0,-385.98" /></g></g></g></g></g></g></g></g><g
           id="g82"><g
             id="g84" /><g
             id="g126"><g
               style="opacity:0.39999402"
               id="g128"
               clip-path="url(#clipPath86)"><g
                 id="g130"><g
                   id="g132"
                   clip-path="url(#clipPath90)"><g
                     id="g134"><g
                       id="g136" /><g
                       id="g138"
                       mask="url(#mask106)"><g
                         id="g140"><path
                           id="path142"
                           style="fill:url(#radialGradient118);stroke:none"
                           d="M 448.99,63.029 C 389.293,3.332 122.807,3.332 63.11,63.029 3.413,122.726 3.413,389.312 63.01,449.009 c 59.597,59.696 326.283,59.596 385.98,0 59.697,-59.597 59.597,-326.283 0,-385.98" /></g></g></g></g></g></g></g></g><g
           id="g144"><g
             id="g146" /><g
             id="g188"><g
               style="opacity:0.39999402"
               id="g190"
               clip-path="url(#clipPath148)"><g
                 id="g192"><g
                   id="g194"
                   clip-path="url(#clipPath152)"><g
                     id="g196"><g
                       id="g198" /><g
                       id="g200"
                       mask="url(#mask168)"><g
                         id="g202"><path
                           id="path204"
                           style="fill:url(#radialGradient180);stroke:none"
                           d="m 63.01,63.029 c 59.697,-59.697 326.183,-59.697 385.88,0 59.697,59.697 59.697,326.183 0,385.88 -59.697,59.696 -326.183,59.696 -385.88,0.1 -59.697,-59.597 -59.597,-326.283 0,-385.98" /></g></g></g></g></g></g></g></g></g></g><g
       id="g206"><g
         id="g208"><g
           id="g214"><g
             id="g216"><path
               id="path224"
               style="fill:url(#radialGradient218);stroke:none"
               d="M 78.721,433.279 C 8.427,362.985 8.427,149.015 78.721,78.721 l 0,0 c 70.294,-70.294 284.263,-70.294 354.558,0 l 0,0 c 70.294,70.294 70.294,284.264 0,354.558 l 0,0 C 398.132,468.426 327.066,486 256,486 l 0,0 C 184.934,486 113.868,468.426 78.721,433.279" /></g></g></g></g><g
       id="g226"><g
         clip-path="url(#clipPath230)"
         id="g228"><g
           transform="translate(180.3895,87.6093)"
           id="g234"><path
             id="path236"
             style="fill:#5bc3b7;fill-opacity:1;fill-rule:nonzero;stroke:none"
             d="M 0,0 25.306,43.833 -37.27,152.22 -84.952,69.632 -72.978,48.895 -50.603,87.648 0,0 Z" /></g><g
           transform="translate(357.3987,132.2743)"
           id="g238"><path
             id="path240"
             style="fill:#5bc3b7;fill-opacity:1;fill-rule:nonzero;stroke:none"
             d="M 0,0 -44.906,77.78 -87.989,3.158 -43.083,-74.621 0,0 Z" /></g><g
           transform="translate(238.7047,188.6159)"
           id="g242"><path
             id="path244"
             style="fill:#66d3c3;fill-opacity:1;fill-rule:nonzero;stroke:none"
             d="m 0,0 -58.315,-101.007 34.413,-59.605 c 27.115,-2.659 55.28,-2.659 82.396,0 L 75.611,-130.964 0,0 Z" /></g><g
           transform="translate(107.4111,136.5024)"
           id="g246"><path
             id="path248"
             style="fill:#27ae61;fill-opacity:1;fill-rule:nonzero;stroke:none"
             d="m 0,0 0,0.001 0,0 0,0 -11.974,20.738 -28.517,49.394 -28.608,-49.551 c 8.301,-30.651 20.795,-57.158 37.499,-75.314 L 0,0 Z" /></g><g
           transform="translate(211.0939,34.4267)"
           id="g250"><path
             id="path252"
             style="fill:#51d88b;fill-opacity:1;fill-rule:nonzero;stroke:none"
             d="m 0,0 -30.704,53.183 -50.604,87.648 -22.374,-38.754 0,-0.001 -31.6,-54.733 c 0.957,-1.041 1.924,-2.064 2.909,-3.049 C -104.062,15.983 -52.441,-0.917 3.708,-6.423 L 2.389,-4.137 0,0 Z" /></g><g
           transform="translate(401.9808,116.1742)"
           id="g254"><path
             id="path256"
             style="fill:#1bbc9b;fill-opacity:1;fill-rule:nonzero;stroke:none"
             d="m 0,0 -26.939,46.66 -17.643,-30.56 -43.083,-74.622 0,-0.001 0,0 -17.117,-29.647 c 21.04,2.063 41.442,5.724 60.221,10.989 L -17.643,-30.559 0,0 Z" /></g><g
           transform="translate(401.9811,116.1747)"
           id="g258"><path
             id="path260"
             style="fill:#27ae61;fill-opacity:1;fill-rule:nonzero;stroke:none"
             d="m 0,0 0,0 0,-0.001 -17.643,-30.56 -26.917,-46.62 c 31.336,8.786 58.155,22.025 75.858,39.727 20.2,20.201 34.583,52.276 43.174,89.387 L 52.228,90.46 0,0 Z" /></g><g
           transform="translate(256,224.7854)"
           id="g262"><path
             id="path264"
             style="fill:#ffd110;fill-opacity:1;fill-rule:nonzero;stroke:none"
             d="M 0,0 C 26.076,0 47.215,21.139 47.215,47.215 47.215,73.291 26.076,94.429 0,94.429 -26.076,94.429 -47.215,73.291 -47.215,47.215 -47.215,21.139 -26.076,0 0,0" /></g><g
           id="g266"><g
             id="g268" /><g
             id="g274"><g
               style="opacity:0.25"
               id="g276"
               clip-path="url(#clipPath270)"><g
                 id="g278"
                 transform="translate(151.6667,121.3333)"><path
                   id="path280"
                   style="fill:#383838;fill-opacity:1;fill-rule:nonzero;stroke:none"
                   d="m 0,0 c 64,9.333 140.667,10 207.333,0.667 l -0.666,54 L 0,53.333 0,0 Z" /></g></g></g></g><path
           id="path282"
           style="fill:#ffffff;fill-opacity:1;fill-rule:nonzero;stroke:none"
           d="m 160,367.759 192,0 0,-192 -192,0 0,192 z m -13,13 0,-206.631 0,-11.369 0,-31.518 218,0 0,31.518 0,11.369 0,206.631 -218,0 z" /><g
           id="g284"><g
             id="g286" /><g
             id="g292"><g
               style="opacity:0.25"
               id="g294"
               clip-path="url(#clipPath288)"><g
                 id="g296"
                 transform="translate(205.1501,388.0317)"><path
                   id="path298"
                   style="fill:#353535;fill-opacity:1;fill-rule:nonzero;stroke:none"
                   d="m 0,0 -9.795,7.031 -4.381,6.714 -5.406,3.432 -4.728,10.797 -2.725,-2.45 4.8,-7.862 5.406,-3.433 4.381,-6.714 7.695,-7.182 -70.137,-60.949 -4.341,7.227 -7.538,5.885 -4.184,9.276 -4.175,2.523 -3.099,-2.787 6.963,-2.876 4.087,-9.839 7.708,-5.019 5.4,-8.14 c 0,0 30.866,35.75 74.069,64.366" /></g></g></g></g><g
           id="g300"><g
             id="g302" /><g
             id="g308"><g
               style="opacity:0.80000299"
               id="g310"
               clip-path="url(#clipPath304)"><g
                 id="g312"
                 transform="translate(192.7019,395.5468)"><path
                   id="path314"
                   style="fill:#fff5ca;fill-opacity:1;fill-rule:nonzero;stroke:none"
                   d="m 0,0 -4.381,6.714 -5.406,3.433 -4.8,7.862 -0.923,1.512 -70.137,-60.949 2.967,-1.792 4.176,-2.523 4.184,-9.277 7.537,-5.884 4.341,-7.227 L 7.695,-7.182 0,0 Z" /></g></g></g></g><g
           id="g316"><g
             id="g318" /><g
             id="g324"><g
               style="opacity:0.25"
               id="g326"
               clip-path="url(#clipPath320)"><g
                 id="g328"
                 transform="translate(409.3759,162.7347)"><path
                   id="path330"
                   style="fill:#353535;fill-opacity:1;fill-rule:nonzero;stroke:none"
                   d="m 0,0 -10.705,5.549 -5.301,6.014 -5.843,2.619 -6.232,10.005 -2.344,-2.817 5.881,-7.09 5.843,-2.619 5.301,-6.014 8.648,-6.001 -60.64,-70.403 -5.336,6.527 -8.305,4.739 -5.475,8.578 -4.495,1.896 -2.666,-3.203 7.304,-1.845 5.46,-9.149 8.35,-3.857 6.515,-7.279 c 0,0 25.403,39.817 64.04,74.35" /></g></g></g></g><g
           id="g332"><g
             id="g334" /><g
             id="g340"><g
               style="opacity:0.80000299"
               id="g342"
               clip-path="url(#clipPath336)"><g
                 id="g344"
                 transform="translate(395.9762,168.3812)"><path
                   id="path346"
                   style="fill:#fff5ca;fill-opacity:1;fill-rule:nonzero;stroke:none"
                   d="m 0,0 -5.301,6.014 -5.844,2.62 -5.88,7.09 -1.131,1.363 -60.641,-70.403 3.193,-1.347 4.495,-1.896 5.475,-8.578 8.305,-4.74 5.336,-6.527 L 8.648,-6.001 0,0 Z" /></g></g></g></g></g></g></g></svg>