<?xml version="1.0" encoding="utf-8"?>
<!-- Generator: Adobe Illustrator 18.0.0, SVG Export Plug-In . SVG Version: 6.00 Build 0)  -->
<!DOCTYPE svg PUBLIC "-//W3C//DTD SVG 1.1//EN" "http://www.w3.org/Graphics/SVG/1.1/DTD/svg11.dtd">
<svg version="1.1" id="Layer_1" xmlns="http://www.w3.org/2000/svg" xmlns:xlink="http://www.w3.org/1999/xlink" x="0px" y="0px"
	 viewBox="0 0 512 512" style="enable-background:new 0 0 512 512;" xml:space="preserve">
<g>
	<g style="opacity:0.4;enable-background:new    ;">
		
			<radialGradient id="SVGID_1_" cx="256.525" cy="257.4813" r="237.7344" gradientTransform="matrix(1 0 0 -1 -0.5 513.5)" gradientUnits="userSpaceOnUse">
			<stop  offset="0" style="stop-color:#010101"/>
			<stop  offset="0.8587" style="stop-color:#010101;stop-opacity:0.1413"/>
			<stop  offset="1" style="stop-color:#010101;stop-opacity:0"/>
		</radialGradient>
		<path style="fill:url(#SVGID_1_);" d="M449,449c-59.7,59.7-326.2,59.7-385.9,0S3.4,122.7,63,63s326.3-59.6,386,0
			S508.6,389.3,449,449z"/>
	</g>
	<g style="opacity:0.4;enable-background:new    ;">
		
			<radialGradient id="SVGID_2_" cx="257.0394" cy="258.0371" r="266.3242" gradientTransform="matrix(0.7069 -0.7073 -0.4895 -0.4892 200.633 564.0107)" gradientUnits="userSpaceOnUse">
			<stop  offset="0" style="stop-color:#010101"/>
			<stop  offset="0.8587" style="stop-color:#010101;stop-opacity:0.1413"/>
			<stop  offset="1" style="stop-color:#010101;stop-opacity:0"/>
		</radialGradient>
		<path style="fill:url(#SVGID_2_);" d="M449,449c-59.7,59.7-326.2,59.7-385.9,0S3.4,122.7,63,63s326.3-59.6,386,0
			S508.6,389.3,449,449z"/>
	</g>
	<g style="opacity:0.4;enable-background:new    ;">
		
			<radialGradient id="SVGID_3_" cx="257.7463" cy="256.9128" r="266.3709" gradientTransform="matrix(-0.7069 -0.7073 0.4895 -0.4892 312.367 564.0107)" gradientUnits="userSpaceOnUse">
			<stop  offset="0" style="stop-color:#010101"/>
			<stop  offset="0.8587" style="stop-color:#010101;stop-opacity:0.1413"/>
			<stop  offset="1" style="stop-color:#010101;stop-opacity:0"/>
		</radialGradient>
		<path style="fill:url(#SVGID_3_);" d="M63,449c59.7,59.7,326.2,59.7,385.9,0s59.7-326.2,0-385.9S122.7,3.4,63,63S3.4,389.3,63,449
			z"/>
	</g>
</g>
<path style="fill:#333333;" d="M433.3,433.3c-70.3,70.3-284.3,70.3-354.6,0S8.4,149,78.7,78.7s284.3-70.3,354.6,0
	S503.6,363,433.3,433.3z"/>
<g id="_x3C_Group_x3E_">
	<path style="opacity:0.4;enable-background:new    ;" d="M78.7,426.8c70.3,70.3,284.3,70.3,354.6,0
		c34.1-34.1,51.6-101.9,52.7-170.8c-1-68.9-18.6-136.7-52.7-170.8C398.1,50,327.1,32.5,256,32.5S113.8,50,78.7,85.2
		C44.6,119.3,27.1,187.1,26,256C27.1,324.9,44.6,392.7,78.7,426.8z M92.8,99.3C107.1,85,130,73.1,159.3,64.9
		c28.7-8.1,62.1-12.4,96.7-12.4c34.5,0,68,4.3,96.7,12.4c29.2,8.3,52.2,20.2,66.5,34.4c14.3,14.3,26.2,37.2,34.4,66.5
		c8.1,28.7,12.4,62.1,12.4,96.7c0,34.5-4.3,68-12.4,96.7c-8.3,29.2-20.2,52.2-34.4,66.5c-14.3,14.3-37.2,26.2-66.5,34.4
		c-28.7,8.1-62.1,12.4-96.7,12.4c-34.5,0-68-4.3-96.7-12.4c-29.2-8.3-52.2-20.2-66.5-34.4c-14.3-14.3-26.2-37.2-34.4-66.5
		C50.3,330.5,46,297,46,262.5s4.3-68,12.4-96.7C66.7,136.6,78.6,113.6,92.8,99.3z"/>
	<path style="fill:#FFFFFF;" d="M256,46c34.5,0,68,4.3,96.7,12.4c29.2,8.3,52.2,20.2,66.5,34.4c14.3,14.3,26.2,37.2,34.4,66.5
		C461.7,188,466,221.5,466,256s-4.3,68-12.4,96.7c-8.3,29.2-20.2,52.2-34.4,66.5c-14.3,14.3-37.2,26.2-66.5,34.4
		C324,461.7,290.5,466,256,466s-68-4.3-96.7-12.4c-29.2-8.3-52.2-20.2-66.5-34.4c-14.3-14.3-26.2-37.2-34.4-66.5
		C50.3,324,46,290.5,46,256s4.3-68,12.4-96.7c8.3-29.2,20.2-52.2,34.4-66.5c14.3-14.3,37.2-26.2,66.5-34.4C188,50.3,221.5,46,256,46
		 M256,26c-71.1,0-142.1,17.6-177.3,52.7C8.4,149,8.4,363,78.7,433.3C113.9,468.5,184.9,486,256,486s142.1-17.6,177.3-52.7
		c70.3-70.3,70.3-284.3,0-354.6C398.1,43.6,327.1,26,256,26L256,26z"/>
</g>
<g>
	<path style="fill:#C106EF;" d="M357.3,110.3H232.6H230c-2.3,0-4.6,0.5-6.7,1.5c-1.8,0.8-3.4,1.8-4.8,3.2l-71.7,71.7
		c-1.4,1.4-2.5,3-3.2,4.8c-0.9,2.1-1.5,4.4-1.5,6.7l-0.1,3.6V389c0,7,5.7,12.7,12.7,12.7h202.7c7,0,12.7-5.7,12.7-12.7V123
		C370,116,364.3,110.3,357.3,110.3z"/>
	<path style="fill:#EFEFEF;" d="M142,255.7V389c0,7,5.7,12.7,12.7,12.7h202.7c7,0,12.7-5.7,12.7-12.7V255.7H142z"/>
	<path style="opacity:0.7;fill:#5D5D5D;enable-background:new    ;" d="M218.4,115.1l-71.7,71.7c-1.4,1.4-2.5,3-3.2,4.8
		c-0.9,2.1-1.5,4.4-1.5,6.7V263l76.4-76.4c3.1-3.1,4.8-7.2,4.8-11.5v-63.3C221.5,112.6,219.8,113.8,218.4,115.1z"/>
	<path style="fill:#F0DEFF;" d="M230,110.3c-2.3,0-4.6,0.5-6.7,1.5c-1.8,0.8-3.4,1.8-4.8,3.2l-71.7,71.7c-1.4,1.4-2.5,3-3.2,4.8
		c-0.9,2.1-1.5,4.4-1.5,6.7v2.6c0-5.2,4.1-9.3,9.3-9.3H207c8.9,0,16.2-7.3,16.2-16.2v-55.7c0-5.2,4.1-9.3,9.3-9.3H230z"/>
	<g>
		<g>
			<path style="fill:#F0F0F0;" d="M314.3,237.4h-76.7v-9.9h76.7V237.4z"/>
			<path style="fill:#F0F0F0;" d="M314.3,255.6h-114v-9.9h114V255.6z"/>
			<path d="M314.3,273.8h-114V264h114V273.8z"/>
			<path d="M314.3,292.1h-114v-9.9h114V292.1z"/>
			<path d="M273.8,310.3h-73.4v-9.9h73.4V310.3z"/>
		</g>
	</g>
</g>
<g>
	<g>
		<path style="fill:#00C9FF;" d="M73.5,256c0,0,1.4-0.2,4.1-0.7c2.7-0.4,6.6-1,11.6-1.6c5-0.6,11-1.4,18-2.1
			c7-0.7,14.8-1.6,23.3-2.2c8.6-0.7,17.8-1.5,27.6-2c9.8-0.6,20.1-1.1,30.8-1.5c5.3-0.2,10.8-0.4,16.3-0.6
			c5.5-0.2,11.1-0.3,16.7-0.4c11.2-0.3,22.6-0.3,34-0.4c11.4,0.1,22.8,0.1,34,0.3c5.6,0.1,11.2,0.2,16.7,0.4
			c5.5,0.2,10.9,0.4,16.3,0.6c10.7,0.4,21,0.9,30.8,1.5c4.9,0.3,9.7,0.6,14.3,1c4.6,0.4,9.1,0.7,13.3,1.1c4.3,0.4,8.4,0.6,12.3,1
			c3.9,0.4,7.6,0.8,11.1,1.1c7,0.7,13,1.5,18,2.1c5,0.6,8.9,1.3,11.6,1.6c2.7,0.4,4.1,0.7,4.1,0.7s-1.4,0.2-4.1,0.7
			c-2.7,0.4-6.6,1-11.6,1.6c-5,0.6-11,1.4-18,2.1c-3.5,0.4-7.2,0.7-11.1,1.1c-3.9,0.4-8,0.7-12.3,1c-4.3,0.3-8.7,0.7-13.3,1.1
			c-4.6,0.3-9.4,0.6-14.3,1c-9.8,0.6-20.1,1.1-30.8,1.5c-5.3,0.2-10.8,0.4-16.3,0.6c-5.5,0.2-11.1,0.3-16.7,0.4
			c-11.2,0.3-22.6,0.3-34,0.3c-11.4-0.1-22.8-0.1-34-0.4c-5.6-0.1-11.2-0.2-16.7-0.4c-5.5-0.2-10.9-0.4-16.3-0.6
			c-10.7-0.4-21-1-30.8-1.5c-9.8-0.6-19.1-1.3-27.6-2c-8.6-0.6-16.4-1.5-23.3-2.2c-7-0.7-13-1.5-18-2.1c-5-0.6-8.9-1.2-11.6-1.6
			C74.9,256.2,73.5,256,73.5,256z"/>
	</g>
	<g>
		<path style="fill:#9FE4FF;" d="M103.2,256c0,0,1.2-0.2,3.4-0.7c2.2-0.4,5.5-1,9.7-1.6c4.2-0.6,9.2-1.4,15.1-2.1
			c5.8-0.7,12.4-1.5,19.5-2.2c14.3-1.4,31-2.7,48.9-3.5c4.5-0.2,9-0.4,13.6-0.6c4.6-0.2,9.3-0.3,14-0.4c9.4-0.3,18.9-0.3,28.5-0.4
			c9.5,0.1,19.1,0.1,28.5,0.3c4.7,0.1,9.4,0.2,14,0.4c4.6,0.2,9.2,0.4,13.6,0.6c17.9,0.8,34.6,2.1,48.9,3.5
			c7.2,0.7,13.7,1.5,19.5,2.2c5.8,0.7,10.9,1.5,15.1,2.1c4.2,0.6,7.5,1.3,9.7,1.6c2.2,0.4,3.4,0.7,3.4,0.7s-1.2,0.2-3.4,0.7
			c-2.2,0.4-5.5,1-9.7,1.6c-4.2,0.6-9.2,1.4-15.1,2.1c-5.8,0.7-12.4,1.6-19.5,2.2c-14.3,1.4-31,2.7-48.9,3.5
			c-4.5,0.2-9,0.4-13.6,0.6c-4.6,0.2-9.3,0.3-14,0.4c-9.4,0.3-18.9,0.3-28.5,0.3c-9.5-0.1-19.1-0.1-28.5-0.4
			c-4.7-0.1-9.4-0.2-14-0.4c-4.6-0.2-9.2-0.4-13.6-0.6c-17.9-0.8-34.6-2.1-48.9-3.5c-7.2-0.7-13.7-1.5-19.5-2.2
			c-5.8-0.7-10.9-1.5-15.1-2.1c-4.2-0.6-7.5-1.2-9.7-1.6C104.4,256.2,103.2,256,103.2,256z"/>
	</g>
</g>
</svg>
