<?xml version="1.0" encoding="utf-8"?>
<!-- Generator: Adobe Illustrator 18.0.0, SVG Export Plug-In . SVG Version: 6.00 Build 0)  -->
<!DOCTYPE svg PUBLIC "-//W3C//DTD SVG 1.1//EN" "http://www.w3.org/Graphics/SVG/1.1/DTD/svg11.dtd">
<svg version="1.1" id="Layer_3" xmlns="http://www.w3.org/2000/svg" xmlns:xlink="http://www.w3.org/1999/xlink" x="0px" y="0px"
	 viewBox="0 0 512 512" enable-background="new 0 0 512 512" xml:space="preserve">
<g>
	<g opacity="0.4" enable-background="new    ">
		
			<radialGradient id="SVGID_1_" cx="1.0125" cy="515" r="118.8609" gradientTransform="matrix(2 0 0 -2 254 1286)" gradientUnits="userSpaceOnUse">
			<stop  offset="0" style="stop-color:#020202"/>
			<stop  offset="0.8587" style="stop-color:#020202;stop-opacity:0.1413"/>
			<stop  offset="1" style="stop-color:#020202;stop-opacity:0"/>
		</radialGradient>
		<path fill="url(#SVGID_1_)" d="M449,449c-59.7,59.7-326.2,59.7-385.9,0S3.4,122.7,63,63s326.3-59.6,386,0S508.6,389.3,449,449z"/>
	</g>
	<g opacity="0.4" enable-background="new    ">
		
			<radialGradient id="SVGID_2_" cx="2.0286" cy="516.0684" r="133.1551" gradientTransform="matrix(1.4138 -1.4146 -0.979 -0.9784 758.388 763.7472)" gradientUnits="userSpaceOnUse">
			<stop  offset="0" style="stop-color:#020202"/>
			<stop  offset="0.8587" style="stop-color:#020202;stop-opacity:0.1413"/>
			<stop  offset="1" style="stop-color:#020202;stop-opacity:0"/>
		</radialGradient>
		<path fill="url(#SVGID_2_)" d="M449,449c-59.7,59.7-326.2,59.7-385.9,0S3.4,122.7,63,63s326.3-59.6,386,0S508.6,389.3,449,449z"/>
	</g>
	<g opacity="0.4" enable-background="new    ">
		
			<radialGradient id="SVGID_3_" cx="3.4424" cy="513.9732" r="133.1784" gradientTransform="matrix(-1.4138 -1.4146 0.979 -0.9784 -242.3879 763.7472)" gradientUnits="userSpaceOnUse">
			<stop  offset="0" style="stop-color:#020202"/>
			<stop  offset="0.8587" style="stop-color:#020202;stop-opacity:0.1413"/>
			<stop  offset="1" style="stop-color:#020202;stop-opacity:0"/>
		</radialGradient>
		<path fill="url(#SVGID_3_)" d="M63,449c59.7,59.7,326.2,59.7,385.9,0s59.7-326.2,0-385.9S122.7,3.4,63,63S3.4,389.3,63,449z"/>
	</g>
</g>
<radialGradient id="SVGID_4_" cx="252" cy="30.2539" r="407.0785" gradientUnits="userSpaceOnUse">
	<stop  offset="1.933882e-02" style="stop-color:#FAAD1C"/>
	<stop  offset="0.3892" style="stop-color:#F26731"/>
	<stop  offset="0.7239" style="stop-color:#E71670"/>
	<stop  offset="1" style="stop-color:#652F8C"/>
</radialGradient>
<path fill="url(#SVGID_4_)" d="M78.7,433.3c70.3,70.3,284.3,70.3,354.6,0s70.3-284.3,0-354.6S149,8.4,78.7,78.7S8.4,363,78.7,433.3z
	"/>
<path opacity="0.2" fill="#FFFFFF" d="M404.7,424.3c0,0-67.8,15.9-145.9,15.9c-82.4,0-149.4-15.9-149.4-15.9
	c-10.4,0-19,8.1-19.9,18.3c75.9,58.3,260.8,57.8,335-1.4C422.9,431.7,414.6,424.3,404.7,424.3z"/>
<path d="M81.2,76.3c0,0,107.4-19.3,174.8-19.3c78.7,0,174.8,19.3,174.8,19.3C358.9,9.2,153.1,9.2,81.2,76.3z"/>
<g opacity="0.4">
	<path d="M256,199.8c35.5,0,64.2,28.7,64.2,64.2s-28.7,64.2-64.2,64.2s-64.2-28.7-64.2-64.2S220.5,199.8,256,199.8 M256,182.2
		c-45.1,0-81.8,36.7-81.8,81.8s36.7,81.8,81.8,81.8s81.8-36.7,81.8-81.8S301.1,182.2,256,182.2L256,182.2z"/>
	<circle cx="256" cy="264" r="48.5"/>
</g>
<g opacity="0.95">
	<path fill="#FFFFFF" d="M256,191.8c35.5,0,64.2,28.7,64.2,64.2s-28.7,64.2-64.2,64.2s-64.2-28.7-64.2-64.2S220.5,191.8,256,191.8
		 M256,174.2c-45.1,0-81.8,36.7-81.8,81.8s36.7,81.8,81.8,81.8s81.8-36.7,81.8-81.8S301.1,174.2,256,174.2L256,174.2z"/>
	<circle fill="#FFFFFF" cx="256" cy="256" r="48.5"/>
</g>
</svg>
