<?xml version="1.0" encoding="UTF-8" standalone="no"?>
<svg
   xmlns:dc="http://purl.org/dc/elements/1.1/"
   xmlns:cc="http://creativecommons.org/ns#"
   xmlns:rdf="http://www.w3.org/1999/02/22-rdf-syntax-ns#"
   xmlns:svg="http://www.w3.org/2000/svg"
   xmlns="http://www.w3.org/2000/svg"
   viewBox="0 0 640 640"
   height="640"
   width="640"
   xml:space="preserve"
   version="1.1"
   id="svg2"><metadata
     id="metadata8"><rdf:RDF><cc:Work
         rdf:about=""><dc:format>image/svg+xml</dc:format><dc:type
           rdf:resource="http://purl.org/dc/dcmitype/StillImage" /></cc:Work></rdf:RDF></metadata><defs
     id="defs6"><clipPath
       id="clipPath16"
       clipPathUnits="userSpaceOnUse"><path
         id="path18"
         d="M 0,512 512,512 512,0 0,0 0,512 Z" /></clipPath><clipPath
       id="clipPath24"
       clipPathUnits="userSpaceOnUse"><path
         id="path26"
         d="m 18.325,493.744 475.4,0 0,-475.4877 -475.4,0 0,475.4877 z" /></clipPath><clipPath
       id="clipPath28"
       clipPathUnits="userSpaceOnUse"><path
         id="path30"
         d="M 448.99,63.029 C 389.293,3.332 122.807,3.332 63.11,63.029 3.413,122.726 3.413,389.312 63.01,449.009 c 59.597,59.696 326.283,59.596 385.98,0 59.697,-59.597 59.597,-326.283 0,-385.98" /></clipPath><radialGradient
       id="radialGradient36"
       spreadMethod="pad"
       gradientTransform="matrix(237.72188,0,0,237.72188,256.02499,256)"
       gradientUnits="userSpaceOnUse"
       r="1"
       cy="0"
       cx="0"
       fy="0"
       fx="0"><stop
         id="stop38"
         offset="0"
         style="stop-opacity:1;stop-color:#ffffff" /><stop
         id="stop40"
         offset="0.8587"
         style="stop-opacity:0.14129854;stop-color:#ffffff" /><stop
         id="stop42"
         offset="1"
         style="stop-opacity:0;stop-color:#ffffff" /></radialGradient><mask
       id="mask44"
       height="1"
       width="1"
       y="0"
       x="0"
       maskUnits="userSpaceOnUse"><g
         id="g46"><g
           id="g48"><g
             id="g50"><g
               id="g52"><path
                 id="path54"
                 style="fill:url(#radialGradient36);stroke:none"
                 d="m -32768,32767 65535,0 0,-65535 -65535,0 0,65535 z" /></g></g></g></g></mask><radialGradient
       id="radialGradient56"
       spreadMethod="pad"
       gradientTransform="matrix(237.72188,0,0,237.72188,256.02499,256)"
       gradientUnits="userSpaceOnUse"
       r="1"
       cy="0"
       cx="0"
       fy="0"
       fx="0"><stop
         id="stop58"
         offset="0"
         style="stop-opacity:1;stop-color:#010101" /><stop
         id="stop60"
         offset="0.8587"
         style="stop-opacity:1;stop-color:#010101" /><stop
         id="stop62"
         offset="1"
         style="stop-opacity:1;stop-color:#010101" /></radialGradient><clipPath
       id="clipPath86"
       clipPathUnits="userSpaceOnUse"><path
         id="path88"
         d="m 18.325,493.744 475.4,0 0,-475.4877 -475.4,0 0,475.4877 z" /></clipPath><clipPath
       id="clipPath90"
       clipPathUnits="userSpaceOnUse"><path
         id="path92"
         d="M 448.99,63.029 C 389.293,3.332 122.807,3.332 63.11,63.029 3.413,122.726 3.413,389.312 63.01,449.009 c 59.597,59.696 326.283,59.596 385.98,0 59.697,-59.597 59.597,-326.283 0,-385.98" /></clipPath><radialGradient
       id="radialGradient98"
       spreadMethod="pad"
       gradientTransform="matrix(188.25467,188.36119,-130.35883,130.27895,256.02499,256.04376)"
       gradientUnits="userSpaceOnUse"
       r="1"
       cy="0"
       cx="0"
       fy="0"
       fx="0"><stop
         id="stop100"
         offset="0"
         style="stop-opacity:1;stop-color:#ffffff" /><stop
         id="stop102"
         offset="0.8587"
         style="stop-opacity:0.14129854;stop-color:#ffffff" /><stop
         id="stop104"
         offset="1"
         style="stop-opacity:0;stop-color:#ffffff" /></radialGradient><mask
       id="mask106"
       height="1"
       width="1"
       y="0"
       x="0"
       maskUnits="userSpaceOnUse"><g
         id="g108"><g
           id="g110"><g
             id="g112"><g
               id="g114"><path
                 id="path116"
                 style="fill:url(#radialGradient98);stroke:none"
                 d="m -32768,32767 65535,0 0,-65535 -65535,0 0,65535 z" /></g></g></g></g></mask><radialGradient
       id="radialGradient118"
       spreadMethod="pad"
       gradientTransform="matrix(188.25467,188.36119,-130.35883,130.27895,256.02499,256.04376)"
       gradientUnits="userSpaceOnUse"
       r="1"
       cy="0"
       cx="0"
       fy="0"
       fx="0"><stop
         id="stop120"
         offset="0"
         style="stop-opacity:1;stop-color:#010101" /><stop
         id="stop122"
         offset="0.8587"
         style="stop-opacity:1;stop-color:#010101" /><stop
         id="stop124"
         offset="1"
         style="stop-opacity:1;stop-color:#010101" /></radialGradient><clipPath
       id="clipPath148"
       clipPathUnits="userSpaceOnUse"><path
         id="path150"
         d="m 18.275,493.694 475.387,0 0,-475.4377 -475.387,0 0,475.4377 z" /></clipPath><clipPath
       id="clipPath152"
       clipPathUnits="userSpaceOnUse"><path
         id="path154"
         d="m 63.01,63.029 c 59.697,-59.697 326.183,-59.697 385.88,0 59.697,59.697 59.697,326.183 0,385.88 -59.697,59.696 -326.183,59.696 -385.88,0.1 -59.697,-59.597 -59.597,-326.283 0,-385.98" /></clipPath><radialGradient
       id="radialGradient160"
       spreadMethod="pad"
       gradientTransform="matrix(-188.28767,188.39421,130.38168,130.30179,255.92499,255.99377)"
       gradientUnits="userSpaceOnUse"
       r="1"
       cy="0"
       cx="0"
       fy="0"
       fx="0"><stop
         id="stop162"
         offset="0"
         style="stop-opacity:1;stop-color:#ffffff" /><stop
         id="stop164"
         offset="0.8587"
         style="stop-opacity:0.14129854;stop-color:#ffffff" /><stop
         id="stop166"
         offset="1"
         style="stop-opacity:0;stop-color:#ffffff" /></radialGradient><mask
       id="mask168"
       height="1"
       width="1"
       y="0"
       x="0"
       maskUnits="userSpaceOnUse"><g
         id="g170"><g
           id="g172"><g
             id="g174"><g
               id="g176"><path
                 id="path178"
                 style="fill:url(#radialGradient160);stroke:none"
                 d="m -32768,32767 65535,0 0,-65535 -65535,0 0,65535 z" /></g></g></g></g></mask><radialGradient
       id="radialGradient180"
       spreadMethod="pad"
       gradientTransform="matrix(-188.28767,188.39421,130.38168,130.30179,255.92499,255.99377)"
       gradientUnits="userSpaceOnUse"
       r="1"
       cy="0"
       cx="0"
       fy="0"
       fx="0"><stop
         id="stop182"
         offset="0"
         style="stop-opacity:1;stop-color:#010101" /><stop
         id="stop184"
         offset="0.8587"
         style="stop-opacity:1;stop-color:#010101" /><stop
         id="stop186"
         offset="1"
         style="stop-opacity:1;stop-color:#010101" /></radialGradient><linearGradient
       id="linearGradient218"
       spreadMethod="pad"
       gradientTransform="matrix(459.99939,0,0,-459.99939,26.000477,256)"
       gradientUnits="userSpaceOnUse"
       y2="0"
       x2="1"
       y1="0"
       x1="0"><stop
         id="stop220"
         offset="0"
         style="stop-opacity:1;stop-color:#d7cfc4" /><stop
         id="stop222"
         offset="1"
         style="stop-opacity:1;stop-color:#e3dcc9" /></linearGradient><clipPath
       id="clipPath230"
       clipPathUnits="userSpaceOnUse"><path
         id="path232"
         d="M 0,512 512,512 512,0 0,0 0,512 Z" /></clipPath><clipPath
       id="clipPath254"
       clipPathUnits="userSpaceOnUse"><path
         id="path256"
         d="m 112.279,381.949 281.691,0 0,-262.215 -281.691,0 0,262.215 z" /></clipPath></defs><g
     transform="matrix(1.25,0,0,-1.25,0,640)"
     id="g10"><g
       id="g12"><g
         clip-path="url(#clipPath16)"
         id="g14"><g
           id="g20"><g
             id="g22" /><g
             id="g64"><g
               style="opacity:0.39999402"
               id="g66"
               clip-path="url(#clipPath24)"><g
                 id="g68"><g
                   id="g70"
                   clip-path="url(#clipPath28)"><g
                     id="g72"><g
                       id="g74" /><g
                       id="g76"
                       mask="url(#mask44)"><g
                         id="g78"><path
                           id="path80"
                           style="fill:url(#radialGradient56);stroke:none"
                           d="M 448.99,63.029 C 389.293,3.332 122.807,3.332 63.11,63.029 3.413,122.726 3.413,389.312 63.01,449.009 c 59.597,59.696 326.283,59.596 385.98,0 59.697,-59.597 59.597,-326.283 0,-385.98" /></g></g></g></g></g></g></g></g><g
           id="g82"><g
             id="g84" /><g
             id="g126"><g
               style="opacity:0.39999402"
               id="g128"
               clip-path="url(#clipPath86)"><g
                 id="g130"><g
                   id="g132"
                   clip-path="url(#clipPath90)"><g
                     id="g134"><g
                       id="g136" /><g
                       id="g138"
                       mask="url(#mask106)"><g
                         id="g140"><path
                           id="path142"
                           style="fill:url(#radialGradient118);stroke:none"
                           d="M 448.99,63.029 C 389.293,3.332 122.807,3.332 63.11,63.029 3.413,122.726 3.413,389.312 63.01,449.009 c 59.597,59.696 326.283,59.596 385.98,0 59.697,-59.597 59.597,-326.283 0,-385.98" /></g></g></g></g></g></g></g></g><g
           id="g144"><g
             id="g146" /><g
             id="g188"><g
               style="opacity:0.39999402"
               id="g190"
               clip-path="url(#clipPath148)"><g
                 id="g192"><g
                   id="g194"
                   clip-path="url(#clipPath152)"><g
                     id="g196"><g
                       id="g198" /><g
                       id="g200"
                       mask="url(#mask168)"><g
                         id="g202"><path
                           id="path204"
                           style="fill:url(#radialGradient180);stroke:none"
                           d="m 63.01,63.029 c 59.697,-59.697 326.183,-59.697 385.88,0 59.697,59.697 59.697,326.183 0,385.88 -59.697,59.696 -326.183,59.696 -385.88,0.1 -59.697,-59.597 -59.597,-326.283 0,-385.98" /></g></g></g></g></g></g></g></g></g></g><g
       id="g206"><g
         id="g208"><g
           id="g214"><g
             id="g216"><path
               id="path224"
               style="fill:url(#linearGradient218);stroke:none"
               d="M 78.721,433.279 C 8.427,362.985 8.427,149.015 78.721,78.721 l 0,0 c 70.294,-70.294 284.264,-70.294 354.558,0 l 0,0 c 70.295,70.294 70.294,284.264 0,354.558 l 0,0 C 398.132,468.426 327.066,486 256,486 l 0,0 C 184.934,486 113.868,468.426 78.721,433.279" /></g></g></g></g><g
       id="g226"><g
         clip-path="url(#clipPath230)"
         id="g228"><g
           transform="translate(280.7115,196.3404)"
           id="g234"><path
             id="path236"
             style="fill:#e84c3d;fill-opacity:1;fill-rule:nonzero;stroke:none"
             d="m 0,0 c -7.962,-6.63 -16.225,-12.62 -24.712,-17.968 -13.064,-8.231 -26.652,-14.947 -40.478,-20.096 -21.621,-8.052 -43.813,-12.299 -65.453,-12.653 -34.065,-0.557 -66.756,8.551 -93.706,27.684 -6.443,4.573 -12.564,9.708 -18.289,15.434 -2.807,2.806 -5.461,5.715 -7.986,8.704 6.977,-48.705 22.899,-92.305 47.757,-117.805 21.709,-12.244 45.985,-19.112 71.618,-19.112 9.058,0 17.945,0.868 26.613,2.515 28.683,5.45 54.933,19.556 76.782,40.004 16.505,15.449 30.494,34.515 41.133,56.187 6.369,12.975 11.537,26.884 15.318,41.514 2.572,9.954 4.497,20.243 5.731,30.796 C 28.705,28.092 22.598,21.198 15.987,14.587 10.821,9.421 5.479,4.564 0,0" /></g><g
           transform="translate(331.9398,255.999)"
           id="g238"><path
             id="path240"
             style="fill:#f1c50e;fill-opacity:1;fill-rule:nonzero;stroke:none"
             d="m 0,0 c -4.82,8.049 -10.209,15.913 -16.167,23.525 0.579,-6.717 0.876,-13.534 0.876,-20.432 0,-9.35 -0.557,-18.543 -1.609,-27.548 -1.233,-10.552 -3.158,-20.841 -5.731,-30.796 -3.781,-14.631 -8.949,-28.539 -15.319,-41.514 -10.638,-21.672 -24.627,-40.738 -41.132,-56.186 -21.849,-20.449 -48.098,-34.555 -76.782,-40.005 -8.668,-1.647 -17.555,-2.514 -26.614,-2.514 -25.631,0 -49.907,6.867 -71.618,19.111 0.295,-0.302 0.58,-0.622 0.877,-0.919 42.918,-42.918 139.394,-59.629 224.028,-50.139 5.656,4.17 11.053,8.781 16.136,13.865 4.802,4.803 9.186,9.885 13.178,15.198 18.95,25.226 28.804,55.808 29.868,87.979 0.748,22.594 -2.842,45.968 -10.644,68.815 C 14.511,-27.399 8.051,-13.443 0,0" /></g><g
           transform="translate(332.0627,57.6461)"
           id="g242"><path
             id="path244"
             style="fill:#00bd9b;fill-opacity:1;fill-rule:nonzero;stroke:none"
             d="m 0,0 c -3.991,-5.313 -8.376,-10.396 -13.177,-15.198 -5.084,-5.084 -10.483,-9.696 -16.139,-13.867 53.401,5.987 102.068,22.413 129.613,49.263 12.244,21.71 19.111,45.986 19.111,71.618 0,6.792 -0.494,13.485 -1.428,20.064 -4.439,31.237 -19.095,59.829 -41.09,83.33 -16,17.095 -35.881,31.49 -58.519,42.259 -12.306,5.854 -25.424,10.638 -39.183,14.193 -9.584,2.477 -19.479,4.356 -29.62,5.593 5.159,-4.341 10.189,-8.951 15.068,-13.829 6.899,-6.899 13.252,-14.105 19.075,-21.547 5.957,-7.613 11.346,-15.476 16.166,-23.525 8.051,-13.444 14.511,-27.4 19.347,-41.56 C 27.026,133.946 30.616,110.573 29.868,87.978 28.804,55.808 18.95,25.226 0,0" /></g><g
           transform="translate(433.279,78.721)"
           id="g246"><path
             id="path248"
             style="fill:#51d88b;fill-opacity:1;fill-rule:nonzero;stroke:none"
             d="m 0,0 c 44.929,44.928 61.137,148.546 48.633,235.833 -2.524,2.99 -5.179,5.899 -7.986,8.706 -5.725,5.724 -11.847,10.858 -18.289,15.432 -26.95,19.132 -59.641,28.241 -93.707,27.683 -21.64,-0.354 -43.832,-4.6 -65.453,-12.652 -13.825,-5.149 -27.413,-11.864 -40.478,-20.097 -8.486,-5.347 -16.75,-11.336 -24.712,-17.967 7.103,0.647 14.313,0.99 21.619,0.99 9.757,0 19.344,-0.604 28.724,-1.747 10.141,-1.237 20.036,-3.116 29.62,-5.593 13.758,-3.555 26.876,-8.339 39.182,-14.192 22.638,-10.77 42.519,-25.165 58.519,-42.26 21.995,-23.501 36.653,-52.092 41.09,-83.33 0.935,-6.579 1.429,-13.272 1.429,-20.064 C 18.191,45.109 11.323,20.831 -0.922,-0.88 -0.619,-0.585 -0.298,-0.298 0,0" /></g><g
           id="g250"><g
             id="g252" /><g
             id="g258"><g
               style="opacity:0.60000598"
               id="g260"
               clip-path="url(#clipPath254)"><g
                 id="g262"
                 transform="translate(331.1382,218.6836)"><path
                   id="path264"
                   style="fill:#3d3d3d;fill-opacity:1;fill-rule:nonzero;stroke:none"
                   d="m 0,0 c 2.684,-2.727 1.578,-8.167 -2.47,-12.15 l -44.218,-43.518 c -4.048,-3.984 -9.505,-5.002 -12.189,-2.275 l -2.592,2.633 c -2.684,2.727 -1.578,8.168 2.47,12.151 L -14.78,0.358 c 4.047,3.984 9.504,5.003 12.188,2.275 L 0,0 Z" /></g><g
                 id="g266"
                 transform="translate(137.7797,377.4136)"><path
                   id="path268"
                   style="fill:#3d3d3d;fill-opacity:1;fill-rule:nonzero;stroke:none"
                   d="m 0,0 -0.005,-0.005 c -0.036,0.036 -0.065,0.077 -0.101,0.114 -5.743,5.836 -15.131,5.911 -20.968,0.167 -5.836,-5.743 -5.912,-15.132 -0.167,-20.968 0.035,-0.037 0.075,-0.067 0.111,-0.103 l -0.005,-0.005 154.528,-182.04 22.861,22.497 0.431,0.426 22.861,22.497 L 0,0 Z" /></g><g
                 id="g270"
                 transform="translate(348.4636,193.9608)"><path
                   id="path272"
                   style="fill:#3d3d3d;fill-opacity:1;fill-rule:nonzero;stroke:none"
                   d="m 0,0 c 7.336,-7.455 7.802,-19.448 11.935,-32.619 3.858,-12.292 10.456,-30.361 33.571,-36.27 0,0 -32.797,-9.436 -59.241,-3.216 -14.363,3.378 -31.271,13.441 -38.456,20.742 -14.184,14.412 -4.341,27.781 10.071,41.965 C -27.708,4.785 -14.184,14.412 0,0" /></g></g></g></g><g
           transform="translate(336.8886,229.0002)"
           id="g274"><path
             id="path276"
             style="fill:#d1d0cf;fill-opacity:1;fill-rule:nonzero;stroke:none"
             d="m 0,0 c 2.684,-2.727 1.578,-8.167 -2.47,-12.15 l -44.218,-43.518 c -4.048,-3.984 -9.505,-5.002 -12.189,-2.275 l -2.592,2.633 c -2.684,2.727 -1.578,8.168 2.47,12.151 L -14.78,0.358 c 4.047,3.984 9.504,5.003 12.188,2.275 L 0,0 Z" /></g><g
           transform="translate(143.5302,387.7303)"
           id="g278"><path
             id="path280"
             style="fill:#b59576;fill-opacity:1;fill-rule:nonzero;stroke:none"
             d="M 0,0 -0.005,-0.005 C -0.041,0.031 -0.07,0.072 -0.106,0.109 -5.85,5.945 -15.237,6.02 -21.074,0.276 c -5.836,-5.743 -5.912,-15.132 -0.167,-20.968 0.035,-0.037 0.075,-0.067 0.111,-0.103 l -0.005,-0.005 154.528,-182.04 22.861,22.497 0.431,0.426 22.861,22.497 L 0,0 Z" /></g><g
           transform="translate(354.214,204.2775)"
           id="g282"><path
             id="path284"
             style="fill:#302f2f;fill-opacity:1;fill-rule:nonzero;stroke:none"
             d="m 0,0 c 7.336,-7.455 7.802,-19.448 11.935,-32.619 3.858,-12.292 10.456,-30.361 33.571,-36.27 0,0 -32.797,-9.436 -59.241,-3.216 -14.363,3.378 -31.271,13.441 -38.456,20.742 -14.184,14.412 -4.341,27.781 10.071,41.965 C -27.708,4.785 -14.184,14.412 0,0" /></g></g></g></g></svg>