<?xml version="1.0" encoding="UTF-8" standalone="no"?>
<svg
   xmlns:dc="http://purl.org/dc/elements/1.1/"
   xmlns:cc="http://creativecommons.org/ns#"
   xmlns:rdf="http://www.w3.org/1999/02/22-rdf-syntax-ns#"
   xmlns:svg="http://www.w3.org/2000/svg"
   xmlns="http://www.w3.org/2000/svg"
   viewBox="0 0 640 640"
   height="640"
   width="640"
   xml:space="preserve"
   version="1.1"
   id="svg2"><metadata
     id="metadata8"><rdf:RDF><cc:Work
         rdf:about=""><dc:format>image/svg+xml</dc:format><dc:type
           rdf:resource="http://purl.org/dc/dcmitype/StillImage" /></cc:Work></rdf:RDF></metadata><defs
     id="defs6"><clipPath
       id="clipPath16"
       clipPathUnits="userSpaceOnUse"><path
         id="path18"
         d="M 0,512 512,512 512,0 0,0 0,512 Z" /></clipPath><clipPath
       id="clipPath24"
       clipPathUnits="userSpaceOnUse"><path
         id="path26"
         d="m 18.325,493.744 475.4,0 0,-475.4877 -475.4,0 0,475.4877 z" /></clipPath><clipPath
       id="clipPath28"
       clipPathUnits="userSpaceOnUse"><path
         id="path30"
         d="M 448.99,63.029 C 389.293,3.332 122.807,3.332 63.11,63.029 3.413,122.726 3.413,389.312 63.01,449.009 c 59.597,59.696 326.283,59.596 385.98,0 59.697,-59.597 59.597,-326.283 0,-385.98" /></clipPath><radialGradient
       id="radialGradient36"
       spreadMethod="pad"
       gradientTransform="matrix(237.72188,0,0,237.72188,256.02499,256)"
       gradientUnits="userSpaceOnUse"
       r="1"
       cy="0"
       cx="0"
       fy="0"
       fx="0"><stop
         id="stop38"
         offset="0"
         style="stop-opacity:1;stop-color:#ffffff" /><stop
         id="stop40"
         offset="0.8587"
         style="stop-opacity:0.14129854;stop-color:#ffffff" /><stop
         id="stop42"
         offset="1"
         style="stop-opacity:0;stop-color:#ffffff" /></radialGradient><mask
       id="mask44"
       height="1"
       width="1"
       y="0"
       x="0"
       maskUnits="userSpaceOnUse"><g
         id="g46"><g
           id="g48"><g
             id="g50"><g
               id="g52"><path
                 id="path54"
                 style="fill:url(#radialGradient36);stroke:none"
                 d="m -32768,32767 65535,0 0,-65535 -65535,0 0,65535 z" /></g></g></g></g></mask><radialGradient
       id="radialGradient56"
       spreadMethod="pad"
       gradientTransform="matrix(237.72188,0,0,237.72188,256.02499,256)"
       gradientUnits="userSpaceOnUse"
       r="1"
       cy="0"
       cx="0"
       fy="0"
       fx="0"><stop
         id="stop58"
         offset="0"
         style="stop-opacity:1;stop-color:#010101" /><stop
         id="stop60"
         offset="0.8587"
         style="stop-opacity:1;stop-color:#010101" /><stop
         id="stop62"
         offset="1"
         style="stop-opacity:1;stop-color:#010101" /></radialGradient><clipPath
       id="clipPath86"
       clipPathUnits="userSpaceOnUse"><path
         id="path88"
         d="m 18.325,493.744 475.4,0 0,-475.4877 -475.4,0 0,475.4877 z" /></clipPath><clipPath
       id="clipPath90"
       clipPathUnits="userSpaceOnUse"><path
         id="path92"
         d="M 448.99,63.029 C 389.293,3.332 122.807,3.332 63.11,63.029 3.413,122.726 3.413,389.312 63.01,449.009 c 59.597,59.696 326.283,59.596 385.98,0 59.697,-59.597 59.597,-326.283 0,-385.98" /></clipPath><radialGradient
       id="radialGradient98"
       spreadMethod="pad"
       gradientTransform="matrix(188.25467,188.36119,-130.35883,130.27895,256.02499,256.04376)"
       gradientUnits="userSpaceOnUse"
       r="1"
       cy="0"
       cx="0"
       fy="0"
       fx="0"><stop
         id="stop100"
         offset="0"
         style="stop-opacity:1;stop-color:#ffffff" /><stop
         id="stop102"
         offset="0.8587"
         style="stop-opacity:0.14129854;stop-color:#ffffff" /><stop
         id="stop104"
         offset="1"
         style="stop-opacity:0;stop-color:#ffffff" /></radialGradient><mask
       id="mask106"
       height="1"
       width="1"
       y="0"
       x="0"
       maskUnits="userSpaceOnUse"><g
         id="g108"><g
           id="g110"><g
             id="g112"><g
               id="g114"><path
                 id="path116"
                 style="fill:url(#radialGradient98);stroke:none"
                 d="m -32768,32767 65535,0 0,-65535 -65535,0 0,65535 z" /></g></g></g></g></mask><radialGradient
       id="radialGradient118"
       spreadMethod="pad"
       gradientTransform="matrix(188.25467,188.36119,-130.35883,130.27895,256.02499,256.04376)"
       gradientUnits="userSpaceOnUse"
       r="1"
       cy="0"
       cx="0"
       fy="0"
       fx="0"><stop
         id="stop120"
         offset="0"
         style="stop-opacity:1;stop-color:#010101" /><stop
         id="stop122"
         offset="0.8587"
         style="stop-opacity:1;stop-color:#010101" /><stop
         id="stop124"
         offset="1"
         style="stop-opacity:1;stop-color:#010101" /></radialGradient><clipPath
       id="clipPath148"
       clipPathUnits="userSpaceOnUse"><path
         id="path150"
         d="m 18.275,493.694 475.387,0 0,-475.4377 -475.387,0 0,475.4377 z" /></clipPath><clipPath
       id="clipPath152"
       clipPathUnits="userSpaceOnUse"><path
         id="path154"
         d="m 63.01,63.029 c 59.697,-59.697 326.183,-59.697 385.88,0 59.697,59.697 59.697,326.183 0,385.88 -59.697,59.696 -326.183,59.696 -385.88,0.1 -59.697,-59.597 -59.597,-326.283 0,-385.98" /></clipPath><radialGradient
       id="radialGradient160"
       spreadMethod="pad"
       gradientTransform="matrix(-188.28767,188.39421,130.38168,130.30179,255.92499,255.99377)"
       gradientUnits="userSpaceOnUse"
       r="1"
       cy="0"
       cx="0"
       fy="0"
       fx="0"><stop
         id="stop162"
         offset="0"
         style="stop-opacity:1;stop-color:#ffffff" /><stop
         id="stop164"
         offset="0.8587"
         style="stop-opacity:0.14129854;stop-color:#ffffff" /><stop
         id="stop166"
         offset="1"
         style="stop-opacity:0;stop-color:#ffffff" /></radialGradient><mask
       id="mask168"
       height="1"
       width="1"
       y="0"
       x="0"
       maskUnits="userSpaceOnUse"><g
         id="g170"><g
           id="g172"><g
             id="g174"><g
               id="g176"><path
                 id="path178"
                 style="fill:url(#radialGradient160);stroke:none"
                 d="m -32768,32767 65535,0 0,-65535 -65535,0 0,65535 z" /></g></g></g></g></mask><radialGradient
       id="radialGradient180"
       spreadMethod="pad"
       gradientTransform="matrix(-188.28767,188.39421,130.38168,130.30179,255.92499,255.99377)"
       gradientUnits="userSpaceOnUse"
       r="1"
       cy="0"
       cx="0"
       fy="0"
       fx="0"><stop
         id="stop182"
         offset="0"
         style="stop-opacity:1;stop-color:#010101" /><stop
         id="stop184"
         offset="0.8587"
         style="stop-opacity:1;stop-color:#010101" /><stop
         id="stop186"
         offset="1"
         style="stop-opacity:1;stop-color:#010101" /></radialGradient><radialGradient
       id="radialGradient218"
       spreadMethod="pad"
       gradientTransform="matrix(229.9996,0,0,-229.9996,256.00018,256)"
       gradientUnits="userSpaceOnUse"
       r="1"
       cy="0"
       cx="0"
       fy="0"
       fx="0"><stop
         id="stop220"
         offset="0"
         style="stop-opacity:1;stop-color:#363436" /><stop
         id="stop222"
         offset="0.29109689"
         style="stop-opacity:1;stop-color:#363436" /><stop
         id="stop224"
         offset="1"
         style="stop-opacity:1;stop-color:#000000" /></radialGradient><clipPath
       id="clipPath232"
       clipPathUnits="userSpaceOnUse"><path
         id="path234"
         d="M 0,512 512,512 512,0 0,0 0,512 Z" /></clipPath></defs><g
     transform="matrix(1.25,0,0,-1.25,0,640)"
     id="g10"><g
       id="g12"><g
         clip-path="url(#clipPath16)"
         id="g14"><g
           id="g20"><g
             id="g22" /><g
             id="g64"><g
               style="opacity:0.39999402"
               id="g66"
               clip-path="url(#clipPath24)"><g
                 id="g68"><g
                   id="g70"
                   clip-path="url(#clipPath28)"><g
                     id="g72"><g
                       id="g74" /><g
                       id="g76"
                       mask="url(#mask44)"><g
                         id="g78"><path
                           id="path80"
                           style="fill:url(#radialGradient56);stroke:none"
                           d="M 448.99,63.029 C 389.293,3.332 122.807,3.332 63.11,63.029 3.413,122.726 3.413,389.312 63.01,449.009 c 59.597,59.696 326.283,59.596 385.98,0 59.697,-59.597 59.597,-326.283 0,-385.98" /></g></g></g></g></g></g></g></g><g
           id="g82"><g
             id="g84" /><g
             id="g126"><g
               style="opacity:0.39999402"
               id="g128"
               clip-path="url(#clipPath86)"><g
                 id="g130"><g
                   id="g132"
                   clip-path="url(#clipPath90)"><g
                     id="g134"><g
                       id="g136" /><g
                       id="g138"
                       mask="url(#mask106)"><g
                         id="g140"><path
                           id="path142"
                           style="fill:url(#radialGradient118);stroke:none"
                           d="M 448.99,63.029 C 389.293,3.332 122.807,3.332 63.11,63.029 3.413,122.726 3.413,389.312 63.01,449.009 c 59.597,59.696 326.283,59.596 385.98,0 59.697,-59.597 59.597,-326.283 0,-385.98" /></g></g></g></g></g></g></g></g><g
           id="g144"><g
             id="g146" /><g
             id="g188"><g
               style="opacity:0.39999402"
               id="g190"
               clip-path="url(#clipPath148)"><g
                 id="g192"><g
                   id="g194"
                   clip-path="url(#clipPath152)"><g
                     id="g196"><g
                       id="g198" /><g
                       id="g200"
                       mask="url(#mask168)"><g
                         id="g202"><path
                           id="path204"
                           style="fill:url(#radialGradient180);stroke:none"
                           d="m 63.01,63.029 c 59.697,-59.697 326.183,-59.697 385.88,0 59.697,59.697 59.697,326.183 0,385.88 -59.697,59.696 -326.183,59.696 -385.88,0.1 -59.697,-59.597 -59.597,-326.283 0,-385.98" /></g></g></g></g></g></g></g></g></g></g><g
       id="g206"><g
         id="g208"><g
           id="g214"><g
             id="g216"><path
               id="path226"
               style="fill:url(#radialGradient218);stroke:none"
               d="M 78.721,433.279 C 8.427,362.985 8.427,149.015 78.721,78.721 l 0,0 c 70.294,-70.294 284.264,-70.294 354.558,0 l 0,0 c 70.295,70.294 70.294,284.264 0,354.558 l 0,0 C 398.132,468.426 327.066,486 256,486 l 0,0 C 184.934,486 113.868,468.426 78.721,433.279" /></g></g></g></g><g
       id="g228"><g
         clip-path="url(#clipPath232)"
         id="g230"><g
           transform="translate(142.7163,322.7754)"
           id="g236"><path
             id="path238"
             style="fill:#ffffff;fill-opacity:1;fill-rule:nonzero;stroke:none"
             d="m 0,0 c -12.423,0 -24.102,4.838 -32.886,13.623 -18.134,18.133 -18.134,47.638 0,65.772 8.784,8.784 20.463,13.622 32.886,13.622 12.422,0 24.102,-4.838 32.886,-13.622 18.133,-18.134 18.133,-47.639 0,-65.772 C 24.102,4.838 12.422,0 0,0 M 47.701,20.154 C 59.135,40.87 56.092,67.502 38.543,85.052 28.248,95.347 14.56,101.017 0,101.017 c -14.56,0 -28.248,-5.67 -38.543,-15.965 -21.253,-21.253 -21.253,-55.834 0,-77.087 C -28.248,-2.33 -14.56,-8 0,-8 c 9.359,0 18.352,2.355 26.321,6.763 6.1,8.082 13.301,15.286 21.38,21.391" /></g><g
           transform="translate(369.2842,189.2236)"
           id="g240"><path
             id="path242"
             style="fill:#ffffff;fill-opacity:1;fill-rule:nonzero;stroke:none"
             d="M 0,0 C 12.422,0 24.102,-4.837 32.886,-13.621 41.67,-22.405 46.507,-34.085 46.508,-46.508 46.507,-58.93 41.67,-70.609 32.886,-79.394 24.102,-88.178 12.422,-93.015 0,-93.016 c -12.423,0.001 -24.103,4.838 -32.887,13.622 -8.784,8.785 -13.621,20.464 -13.621,32.886 0,12.423 4.837,24.103 13.621,32.887 C -24.103,-4.837 -12.423,0 0,0 m -47.745,-20.186 c -4.408,-7.969 -6.763,-16.962 -6.763,-26.322 0,-14.558 5.669,-28.247 15.965,-38.542 10.295,-10.296 23.983,-15.966 38.543,-15.966 14.559,0 28.247,5.67 38.542,15.966 10.296,10.295 15.966,23.984 15.966,38.542 0,14.56 -5.67,28.248 -15.966,38.543 C 28.247,2.331 14.559,8 0,8 -9.359,8 -18.353,5.645 -26.322,1.237 -32.434,-6.859 -39.649,-14.074 -47.745,-20.186" /></g><g
           transform="translate(320.6493,359.5057)"
           id="g244"><path
             id="path246"
             style="fill:#ffffff;fill-opacity:1;fill-rule:nonzero;stroke:none"
             d="m 0,0 c -0.268,-4.991 -0.742,-9.943 -1.415,-14.848 2.491,-1.78 4.901,-3.666 7.23,-5.645 1.182,7.276 1.952,14.657 2.271,22.12 11.788,2.163 23.826,3.39 36.028,3.632 -0.242,-12.203 -1.468,-24.241 -3.631,-36.029 -7.463,-0.319 -14.844,-1.089 -22.12,-2.271 1.979,-2.329 3.865,-4.739 5.645,-7.23 4.905,0.673 9.857,1.147 14.847,1.415 -1.377,-6.199 -3.025,-12.319 -4.926,-18.349 1.733,-3.682 3.271,-7.473 4.589,-11.367 3.525,9.756 6.396,19.761 8.569,29.968 0.516,0.004 1.03,0.019 1.547,0.019 43.09,0 83.844,-15.191 116.148,-43.038 -0.187,3.658 -0.413,7.308 -0.694,10.942 -32.747,25.98 -73.003,40.091 -115.433,40.095 2.066,11.743 3.228,23.723 3.459,35.857 37.485,-0.572 73.46,-10.385 105.324,-28.34 -0.723,3.492 -1.488,6.951 -2.311,10.36 -31.474,16.465 -66.549,25.441 -103,25.98 -0.54,36.452 -9.515,71.526 -25.98,102.999 -3.409,0.823 -6.868,1.588 -10.361,2.312 C 33.742,86.717 43.554,50.743 44.127,13.259 31.993,13.027 20.013,11.866 8.27,9.8 8.266,52.229 -5.844,92.485 -31.825,125.231 c -3.633,0.282 -7.283,0.508 -10.942,0.695 C -14.92,93.621 0.271,52.867 0.271,9.778 0.271,9.262 0.256,8.747 0.252,8.232 -9.956,6.058 -19.96,3.187 -29.717,-0.338 c 3.894,-1.318 7.686,-2.857 11.368,-4.589 6.031,1.9 12.15,3.549 18.349,4.927" /></g><g
           transform="translate(268.6592,42.0918)"
           id="g248"><path
             id="path250"
             style="fill:#ffffff;fill-opacity:1;fill-rule:nonzero;stroke:none"
             d="m 0,0 c 5.523,-5.523 11.425,-10.527 17.639,-15.006 4.271,0.304 8.521,0.673 12.747,1.107 -8.874,5.465 -17.175,12.001 -24.73,19.555 -27.803,27.804 -40.832,64.864 -39.111,101.352 -2.672,0.517 -5.309,1.131 -7.908,1.839 C -43.609,69.717 -29.83,29.83 0,0" /></g><g
           transform="translate(369.2842,285.022)"
           id="g252"><path
             id="path254"
             style="fill:#ffffff;fill-opacity:1;fill-rule:nonzero;stroke:none"
             d="M 0,0 C -2.761,0 -5.508,-0.09 -8.242,-0.249 -7.531,-2.85 -6.915,-5.49 -6.396,-8.165 -4.272,-8.065 -2.141,-8 0,-8 c 35.873,0 69.601,-13.971 94.968,-39.337 7.631,-7.632 14.142,-15.965 19.549,-24.788 0.436,4.234 0.806,8.493 1.112,12.773 -4.448,6.192 -9.443,12.109 -15.005,17.671 C 73.746,-14.803 38.011,0 0,0" /></g><g
           transform="translate(142.7163,234.9785)"
           id="g256"><path
             id="path258"
             style="fill:#ffffff;fill-opacity:1;fill-rule:nonzero;stroke:none"
             d="m 0,0 c -35.875,0 -69.602,13.97 -94.968,39.337 -7.631,7.631 -14.142,15.963 -19.549,24.786 -0.436,-4.234 -0.806,-8.494 -1.112,-12.774 4.447,-6.191 9.442,-12.107 15.004,-17.669 C -73.747,6.802 -38.011,-8 0,-8 2.761,-8 5.508,-7.91 8.242,-7.751 7.531,-5.15 6.914,-2.51 6.395,0.165 4.271,0.065 2.141,0 0,0" /></g><g
           transform="translate(142.7163,278.8765)"
           id="g260"><path
             id="path262"
             style="fill:#ffffff;fill-opacity:1;fill-rule:nonzero;stroke:none"
             d="m 0,0 c -24.148,0 -46.852,9.404 -63.927,26.48 -35.25,35.249 -35.25,92.605 0,127.854 17.075,17.076 39.779,26.48 63.927,26.48 24.148,0 46.852,-9.404 63.927,-26.48 19.374,-19.373 28.082,-45.42 26.152,-70.805 2.669,0.58 5.373,1.061 8.111,1.44 1.485,26.98 -8.04,54.456 -28.606,75.023 C 50.998,178.578 26.286,188.814 0,188.814 c -1.813,0 -3.618,-0.053 -5.415,-0.15 -23.884,-8.491 -44.229,-19.91 -58.58,-34.261 -14.352,-14.352 -25.77,-34.697 -34.262,-58.581 -0.097,-1.797 -0.15,-3.602 -0.15,-5.415 0,-26.285 10.236,-50.997 28.823,-69.584 C -50.998,2.236 -26.286,-8 0,-8 c 1.817,0 3.627,0.05 5.428,0.147 0.379,2.746 0.86,5.458 1.44,8.134 C 4.593,0.11 2.305,0 0,0" /></g><g
           transform="translate(191.3502,152.4952)"
           id="g264"><path
             id="path266"
             style="fill:#ffffff;fill-opacity:1;fill-rule:nonzero;stroke:none"
             d="m 0,0 c 0.268,4.991 0.742,9.943 1.415,14.847 -2.491,1.78 -4.901,3.667 -7.23,5.645 -1.182,-7.275 -1.952,-14.656 -2.271,-22.119 -11.788,-2.163 -23.825,-3.39 -36.028,-3.632 0.242,12.203 1.469,24.241 3.631,36.028 7.463,0.32 14.844,1.09 22.12,2.271 -1.979,2.329 -3.865,4.739 -5.645,7.231 -4.904,-0.674 -9.857,-1.147 -14.847,-1.416 1.378,6.2 3.026,12.319 4.926,18.35 -1.732,3.682 -3.271,7.474 -4.589,11.367 -3.525,-9.756 -6.396,-19.761 -8.569,-29.968 -0.516,-0.005 -1.03,-0.019 -1.547,-0.019 -43.089,0 -83.843,15.191 -116.148,43.037 0.187,-3.658 0.414,-7.308 0.695,-10.942 32.747,-25.98 73.002,-40.09 115.432,-40.095 -2.066,-11.742 -3.228,-23.722 -3.459,-35.856 -37.485,0.572 -73.459,10.385 -105.323,28.34 0.723,-3.493 1.488,-6.952 2.311,-10.36 31.473,-16.465 66.548,-25.441 102.999,-25.98 0.54,-36.452 9.515,-71.527 25.98,-103 3.409,-0.823 6.868,-1.588 10.36,-2.311 -17.955,31.864 -27.767,67.838 -28.34,105.323 12.134,0.232 24.114,1.393 35.857,3.459 0.004,-42.43 14.115,-82.686 40.095,-115.432 3.634,-0.281 7.284,-0.508 10.942,-0.695 -27.846,32.305 -43.038,73.059 -43.038,116.149 0,0.516 0.015,1.031 0.019,1.546 10.207,2.174 20.211,5.045 29.968,8.569 C 25.822,1.655 22.031,3.194 18.348,4.927 12.318,3.026 6.199,1.378 0,0" /></g><g
           transform="translate(243.3418,469.9092)"
           id="g268"><path
             id="path270"
             style="fill:#ffffff;fill-opacity:1;fill-rule:nonzero;stroke:none"
             d="m 0,0 c -5.523,5.523 -11.425,10.526 -17.638,15.005 -4.271,-0.304 -8.523,-0.673 -12.748,-1.107 8.873,-5.465 17.174,-12 24.729,-19.555 27.803,-27.804 40.832,-64.864 39.111,-101.352 2.672,-0.517 5.31,-1.131 7.909,-1.84 C 43.608,-69.718 29.83,-29.831 0,0" /></g><g
           transform="translate(369.2842,233.123)"
           id="g272"><path
             id="path274"
             style="fill:#ffffff;fill-opacity:1;fill-rule:nonzero;stroke:none"
             d="m 0,0 c 24.147,0 46.851,-9.404 63.927,-26.479 35.249,-35.25 35.249,-92.605 0,-127.855 -17.076,-17.075 -39.78,-26.479 -63.927,-26.479 -24.148,0 -46.852,9.404 -63.928,26.479 -19.373,19.374 -28.081,45.421 -26.151,70.805 -2.669,-0.579 -5.373,-1.06 -8.111,-1.44 -1.485,-26.979 8.04,-54.455 28.606,-75.021 18.586,-18.587 43.298,-28.823 69.584,-28.823 1.814,0 3.619,0.053 5.416,0.15 23.883,8.491 44.227,19.91 58.579,34.261 14.309,14.309 25.704,34.573 34.188,58.365 1.536,27.042 -7.986,54.6 -28.6,75.214 C 50.997,-2.236 26.285,8 0,8 -1.818,8 -3.628,7.95 -5.429,7.853 -5.808,5.107 -6.289,2.395 -6.868,-0.281 -4.593,-0.11 -2.306,0 0,0" /></g><g
           transform="translate(276.0001,353.1978)"
           id="g276"><path
             id="path278"
             style="fill:#ffffff;fill-opacity:1;fill-rule:nonzero;stroke:none"
             d="m 0,0 c 0.386,3.225 0.643,6.462 0.796,9.702 -6.733,1.302 -13.683,1.992 -20.796,1.992 -5.123,0 -10.16,-0.362 -15.094,-1.046 -0.693,-12.59 -3.776,-25.072 -9.268,-36.692 C -30.508,-15.66 -15.64,-6.938 0,0" /></g><g
           transform="translate(326.4645,339.0127)"
           id="g280"><path
             id="path282"
             style="fill:#ffffff;fill-opacity:1;fill-rule:nonzero;stroke:none"
             d="m 0,0 c -0.866,-5.332 -1.946,-10.609 -3.266,-15.813 5.204,1.319 10.482,2.399 15.814,3.265 C 8.712,-8.033 4.515,-3.836 0,0" /></g><g
           transform="translate(290.9326,359.168)"
           id="g284"><path
             id="path286"
             style="fill:#ffffff;fill-opacity:1;fill-rule:nonzero;stroke:none"
             d="M 0,0 C -2.048,0.693 -4.127,1.32 -6.228,1.893 -6.312,0.44 -6.411,-1.013 -6.538,-2.463 -4.374,-1.605 -2.191,-0.791 0,0" /></g><g
           transform="translate(274.3818,237.6182)"
           id="g288"><path
             id="path290"
             style="fill:#ffffff;fill-opacity:1;fill-rule:nonzero;stroke:none"
             d="m 0,0 c -0.854,-0.854 -1.721,-1.691 -2.589,-2.527 -18.192,-19.186 -29.631,-42.468 -34.314,-66.807 22.109,10.442 42.53,24.625 60.497,42.202 0.575,0.604 1.131,1.22 1.724,1.814 0.747,0.746 1.507,1.475 2.273,2.194 C 44.978,-5.248 59.018,15.039 69.372,36.987 44.383,32.204 21.31,20.412 2.52,2.582 1.687,1.717 0.852,0.852 0,0" /></g><g
           transform="translate(283.3013,347.6208)"
           id="g292"><path
             id="path294"
             style="fill:#ffffff;fill-opacity:1;fill-rule:nonzero;stroke:none"
             d="m 0,0 c -2.669,-17.471 -8.584,-34.536 -17.752,-50.211 15.06,10.144 31.439,17.962 48.69,23.274 2.206,7.83 3.877,15.836 4.995,23.974 C 30.624,0.83 24.958,4.154 18.999,6.958 12.558,4.928 6.218,2.61 0,0" /></g><g
           transform="translate(361.0419,284.7733)"
           id="g296"><path
             id="path298"
             style="fill:#ffffff;fill-opacity:1;fill-rule:nonzero;stroke:none"
             d="M 0,0 C -0.568,2.078 -1.188,4.134 -1.874,6.16 -2.657,3.994 -3.46,1.836 -4.308,-0.304 -2.877,-0.18 -1.44,-0.083 0,0" /></g><g
           transform="translate(320.684,314.2401)"
           id="g300"><path
             id="path302"
             style="fill:#ffffff;fill-opacity:1;fill-rule:nonzero;stroke:none"
             d="m 0,0 c -5.304,-17.223 -13.105,-33.578 -23.226,-48.617 15.417,9.044 32.395,15.073 50.202,17.771 2.594,6.189 4.899,12.497 6.919,18.906 C 31.091,-5.98 27.767,-0.314 23.974,4.994 15.836,3.876 7.829,2.206 0,0" /></g><g
           transform="translate(184.7657,280.2556)"
           id="g304"><path
             id="path306"
             style="fill:#ffffff;fill-opacity:1;fill-rule:nonzero;stroke:none"
             d="m 0,0 c -11.383,-5.386 -23.773,-8.538 -36.621,-9.232 -0.678,-4.911 -1.037,-9.925 -1.037,-15.024 0,-7.134 0.694,-14.105 2.004,-20.856 3.241,0.153 6.464,0.406 9.659,0.784 C -19.07,-28.701 -10.365,-13.845 0,0" /></g><g
           transform="translate(327.2316,231.7425)"
           id="g308"><path
             id="path310"
             style="fill:#ffffff;fill-opacity:1;fill-rule:nonzero;stroke:none"
             d="m 0,0 c 11.384,5.387 23.774,8.539 36.624,9.233 0.678,4.912 1.037,9.926 1.037,15.025 0,7.134 -0.694,14.105 -2.004,20.856 C 32.416,44.962 29.193,44.708 25.997,44.33 19.072,28.703 10.366,13.846 0,0" /></g><g
           transform="translate(185.5352,172.9877)"
           id="g312"><path
             id="path314"
             style="fill:#ffffff;fill-opacity:1;fill-rule:nonzero;stroke:none"
             d="M 0,0 C 0.866,5.332 1.946,10.609 3.265,15.813 -1.938,14.494 -7.216,13.414 -12.548,12.548 -8.712,8.033 -4.515,3.836 0,0" /></g><g
           transform="translate(221.066,152.8326)"
           id="g316"><path
             id="path318"
             style="fill:#ffffff;fill-opacity:1;fill-rule:nonzero;stroke:none"
             d="M 0,0 C 2.049,-0.694 4.128,-1.32 6.23,-1.893 6.314,-0.44 6.413,1.013 6.541,2.464 4.375,1.605 2.192,0.792 0,0" /></g><g
           transform="translate(237.6172,274.3828)"
           id="g320"><path
             id="path322"
             style="fill:#ffffff;fill-opacity:1;fill-rule:nonzero;stroke:none"
             d="M 0,0 C 0.86,0.86 1.734,1.703 2.608,2.545 20.79,21.728 32.223,45.003 36.905,69.334 14.806,58.897 -5.607,44.722 -23.567,27.157 c -0.583,-0.614 -1.148,-1.239 -1.749,-1.841 -0.754,-0.753 -1.52,-1.487 -2.293,-2.212 -17.378,-17.871 -31.412,-38.151 -41.763,-60.092 24.981,4.781 48.046,16.566 66.832,34.385 C -1.7,-1.73 -0.859,-0.859 0,0" /></g><g
           transform="translate(236,158.8033)"
           id="g324"><path
             id="path326"
             style="fill:#ffffff;fill-opacity:1;fill-rule:nonzero;stroke:none"
             d="m 0,0 c -0.386,-3.225 -0.643,-6.462 -0.796,-9.703 6.733,-1.302 13.683,-1.992 20.796,-1.992 5.123,0 10.16,0.362 15.094,1.046 0.694,12.591 3.777,25.074 9.27,36.695 C 30.509,15.661 15.641,6.938 0,0" /></g><g
           transform="translate(330.7412,181.2588)"
           id="g328"><path
             id="path330"
             style="fill:#ffffff;fill-opacity:1;fill-rule:nonzero;stroke:none"
             d="m 0,0 c 3.677,3.677 7.793,6.753 12.221,9.202 9.318,12.345 16.065,26.737 19.454,42.381 -20.707,-1.55 -40.016,-10.065 -55.198,-24.425 -0.599,-0.612 -1.188,-1.233 -1.795,-1.84 -0.591,-0.59 -1.195,-1.164 -1.791,-1.747 -14.768,-15.6 -22.905,-35.212 -24.427,-55.235 15.626,3.392 30.002,10.134 42.334,19.443 C -6.753,-7.793 -3.677,-3.677 0,0" /></g><g
           transform="translate(181.2593,330.7407)"
           id="g332"><path
             id="path334"
             style="fill:#ffffff;fill-opacity:1;fill-rule:nonzero;stroke:none"
             d="m 0,0 c -3.677,-3.677 -7.794,-6.753 -12.222,-9.202 -9.318,-12.345 -16.065,-26.737 -19.453,-42.382 20.694,1.549 39.992,10.055 55.168,24.398 0.609,0.623 1.207,1.253 1.824,1.869 0.599,0.599 1.212,1.181 1.816,1.773 C 41.886,-7.949 50.015,11.653 51.536,31.665 35.891,28.269 21.501,21.515 9.158,12.188 6.746,7.817 3.703,3.703 0,0" /></g><g
           transform="translate(268.6592,243.3408)"
           id="g336"><path
             id="path338"
             style="fill:#ffffff;fill-opacity:1;fill-rule:nonzero;stroke:none"
             d="M 0,0 C 0.876,0.876 1.762,1.737 2.656,2.587 20.835,21.519 34.355,43.778 42.651,67.969 18.471,59.678 -3.777,46.168 -22.702,28.003 c -0.858,-0.904 -1.729,-1.799 -2.615,-2.686 -0.883,-0.882 -1.775,-1.749 -2.676,-2.605 -18.17,-18.927 -31.683,-41.179 -39.976,-65.362 24.187,8.294 46.443,21.81 65.372,39.984 C -1.745,-1.769 -0.88,-0.88 0,0" /></g><g
           transform="translate(150.9579,227.2272)"
           id="g340"><path
             id="path342"
             style="fill:#ffffff;fill-opacity:1;fill-rule:nonzero;stroke:none"
             d="M 0,0 C 0.568,-2.078 1.188,-4.134 1.874,-6.16 2.656,-3.994 3.46,-1.836 4.308,0.304 2.876,0.18 1.439,0.083 0,0" /></g><g
           transform="translate(191.3157,197.7604)"
           id="g344"><path
             id="path346"
             style="fill:#ffffff;fill-opacity:1;fill-rule:nonzero;stroke:none"
             d="M 0,0 C 5.303,17.222 13.104,33.576 23.223,48.615 7.807,39.572 -9.17,33.544 -26.976,30.846 -29.57,24.657 -31.875,18.349 -33.895,11.94 -31.091,5.981 -27.767,0.315 -23.974,-4.994 -15.835,-3.876 -7.829,-2.206 0,0" /></g><g
           transform="translate(228.6996,164.3806)"
           id="g348"><path
             id="path350"
             style="fill:#ffffff;fill-opacity:1;fill-rule:nonzero;stroke:none"
             d="M 0,0 C 2.67,17.472 8.585,34.538 17.754,50.213 2.693,40.068 -13.687,32.248 -30.94,26.936 -33.145,19.106 -34.816,11.1 -35.934,2.962 -30.625,-0.831 -24.96,-4.155 -19.001,-6.959 -12.559,-4.929 -6.219,-2.61 0,0" /></g><g
           transform="translate(190.4175,342.9289)"
           id="g352"><path
             id="path354"
             style="fill:#000000;fill-opacity:1;fill-rule:nonzero;stroke:none"
             d="m 0,0 c -8.079,-6.105 -15.28,-13.308 -21.38,-21.391 4.428,2.45 8.544,5.525 12.222,9.203 C -5.455,-8.485 -2.413,-4.371 0,0" /></g><g
           transform="translate(321.5393,169.038)"
           id="g356"><path
             id="path358"
             style="fill:#000000;fill-opacity:1;fill-rule:nonzero;stroke:none"
             d="M 0,0 C 8.096,6.111 15.311,13.326 21.423,21.423 16.995,18.973 12.879,15.898 9.202,12.221 5.525,8.544 2.449,4.428 0,0" /></g><g
           transform="translate(301.9731,214.4943)"
           id="g360"><path
             id="path362"
             style="fill:#000000;fill-opacity:1;fill-rule:nonzero;stroke:none"
             d="m 0,0 c -0.766,-0.72 -1.526,-1.448 -2.273,-2.195 -0.593,-0.593 -1.149,-1.209 -1.724,-1.813 -17.967,-17.577 -38.388,-31.76 -60.498,-42.202 4.684,24.338 16.122,47.621 34.315,66.807 0.868,0.836 1.734,1.673 2.589,2.527 0.852,0.852 1.686,1.716 2.52,2.582 18.79,17.83 41.862,29.622 66.852,34.405 C 31.427,38.163 17.386,17.875 0,0 m -101.283,-13.804 c 8.293,24.183 21.806,46.435 39.976,65.362 0.901,0.856 1.794,1.724 2.676,2.606 0.886,0.886 1.757,1.782 2.615,2.686 18.925,18.164 41.174,31.674 65.353,39.966 -8.296,-24.192 -21.816,-46.451 -39.995,-65.382 -0.894,-0.85 -1.78,-1.712 -2.656,-2.588 -0.88,-0.879 -1.745,-1.768 -2.597,-2.665 C -54.84,8.007 -77.096,-5.51 -101.283,-13.804 m -32.444,36.705 c 10.35,21.94 24.384,42.221 41.762,60.091 0.773,0.726 1.54,1.46 2.293,2.213 0.602,0.602 1.166,1.227 1.749,1.84 17.96,17.566 38.373,31.741 60.472,42.177 -4.682,-24.33 -16.115,-47.606 -34.297,-66.789 -0.874,-0.841 -1.748,-1.684 -2.608,-2.545 -0.859,-0.858 -1.7,-1.73 -2.54,-2.602 -18.786,-17.82 -41.851,-29.604 -66.831,-34.385 M 54.761,69.975 c 0.847,2.14 1.651,4.298 2.433,6.464 -1.317,3.894 -2.856,7.685 -4.589,11.367 C 50.586,81.397 48.281,75.089 45.687,68.9 27.88,66.201 10.902,60.173 -4.515,51.128 c 10.121,15.04 17.922,31.395 23.226,48.618 7.829,2.205 15.835,3.876 23.973,4.994 -1.78,2.492 -3.666,4.902 -5.645,7.231 -5.332,-0.866 -10.609,-1.947 -15.813,-3.266 1.319,5.204 2.399,10.481 3.265,15.813 -2.329,1.979 -4.739,3.865 -7.23,5.646 -1.118,-8.139 -2.789,-16.145 -4.995,-23.974 -17.25,-5.312 -33.63,-13.131 -48.689,-23.275 9.168,15.675 15.082,32.74 17.751,50.212 6.218,2.609 12.558,4.927 18.999,6.957 -3.682,1.733 -7.474,3.272 -11.368,4.59 -2.191,-0.792 -4.373,-1.605 -6.538,-2.463 0.128,1.45 0.227,2.902 0.31,4.355 -2.599,0.709 -5.236,1.323 -7.908,1.84 -0.153,-3.241 -0.41,-6.478 -0.796,-9.703 -15.64,-6.938 -30.508,-15.659 -44.362,-26.044 5.492,11.621 8.575,24.103 9.268,36.692 -2.738,-0.379 -5.442,-0.86 -8.11,-1.44 -1.522,-20.012 -9.651,-39.613 -24.403,-55.209 -0.605,-0.592 -1.218,-1.173 -1.817,-1.772 -0.617,-0.617 -1.215,-1.247 -1.824,-1.869 -15.176,-14.344 -34.474,-22.849 -55.168,-24.398 -0.58,-2.676 -1.061,-5.388 -1.44,-8.133 12.849,0.693 25.238,3.845 36.622,9.231 -10.366,-13.845 -19.07,-28.701 -25.996,-44.328 -3.195,-0.378 -6.418,-0.631 -9.659,-0.784 0.519,-2.675 1.136,-5.315 1.847,-7.916 1.439,0.083 2.876,0.18 4.307,0.304 -0.847,-2.14 -1.651,-4.298 -2.433,-6.464 1.318,-3.894 2.857,-7.685 4.589,-11.367 2.02,6.409 4.325,12.717 6.919,18.906 17.805,2.698 34.783,8.726 50.199,17.769 -10.12,-15.039 -17.92,-31.393 -23.223,-48.615 -7.83,-2.206 -15.836,-3.876 -23.974,-4.994 1.78,-2.492 3.666,-4.902 5.645,-7.231 5.332,0.866 10.61,1.947 15.813,3.266 -1.319,-5.204 -2.399,-10.482 -3.265,-15.814 2.329,-1.979 4.739,-3.865 7.23,-5.645 1.119,8.138 2.789,16.144 4.995,23.974 17.252,5.312 33.632,13.132 48.693,23.277 -9.169,-15.675 -15.084,-32.741 -17.754,-50.213 -6.219,-2.61 -12.559,-4.928 -19.001,-6.958 3.683,-1.733 7.474,-3.272 11.368,-4.59 2.191,0.792 4.375,1.606 6.54,2.464 -0.127,-1.451 -0.227,-2.904 -0.31,-4.357 2.599,-0.708 5.236,-1.323 7.908,-1.839 0.153,3.241 0.41,6.478 0.796,9.703 15.641,6.938 30.509,15.661 44.364,26.046 -5.493,-11.621 -8.577,-24.104 -9.27,-36.695 2.738,0.38 5.442,0.861 8.111,1.44 1.522,20.024 9.66,39.636 24.427,55.235 0.596,0.584 1.2,1.157 1.791,1.748 0.607,0.607 1.196,1.227 1.795,1.84 15.182,14.359 34.491,22.875 55.198,24.425 0.579,2.676 1.06,5.388 1.439,8.133 -12.849,-0.694 -25.24,-3.846 -36.624,-9.233 10.367,13.846 19.072,28.703 25.998,44.33 3.195,0.378 6.418,0.632 9.659,0.785 -0.519,2.675 -1.135,5.315 -1.846,7.916 -1.44,-0.083 -2.877,-0.18 -4.308,-0.304" /></g></g></g></g></svg>