<?xml version="1.0" encoding="utf-8"?>
<!-- Generator: Adobe Illustrator 18.0.0, SVG Export Plug-In . SVG Version: 6.00 Build 0)  -->
<!DOCTYPE svg PUBLIC "-//W3C//DTD SVG 1.1//EN" "http://www.w3.org/Graphics/SVG/1.1/DTD/svg11.dtd">
<svg version="1.1" id="Layer_2" xmlns="http://www.w3.org/2000/svg" xmlns:xlink="http://www.w3.org/1999/xlink" x="0px" y="0px"
	 viewBox="0 0 512 512" enable-background="new 0 0 512 512" xml:space="preserve">
<g>
	<g opacity="0.4" enable-background="new    ">
		
			<radialGradient id="SVGID_1_" cx="0.7625" cy="514.25" r="118.8609" gradientTransform="matrix(2 0 0 -2 254.5 1284.5)" gradientUnits="userSpaceOnUse">
			<stop  offset="0" style="stop-color:#010101"/>
			<stop  offset="0.8587" style="stop-color:#010101;stop-opacity:0.1413"/>
			<stop  offset="1" style="stop-color:#010101;stop-opacity:0"/>
		</radialGradient>
		<path fill="url(#SVGID_1_)" d="M449,449c-59.7,59.7-326.2,59.7-385.9,0S3.4,122.7,63,63s326.3-59.6,386,0S508.6,389.3,449,449z"/>
	</g>
	<g opacity="0.4" enable-background="new    ">
		
			<radialGradient id="SVGID_2_" cx="1.5285" cy="515.0576" r="133.1551" gradientTransform="matrix(1.4138 -1.4146 -0.979 -0.9784 758.1053 762.0507)" gradientUnits="userSpaceOnUse">
			<stop  offset="0" style="stop-color:#010101"/>
			<stop  offset="0.8587" style="stop-color:#010101;stop-opacity:0.1413"/>
			<stop  offset="1" style="stop-color:#010101;stop-opacity:0"/>
		</radialGradient>
		<path fill="url(#SVGID_2_)" d="M449,449c-59.7,59.7-326.2,59.7-385.9,0S3.4,122.7,63,63s326.3-59.6,386,0S508.6,389.3,449,449z"/>
	</g>
	<g opacity="0.4" enable-background="new    ">
		
			<radialGradient id="SVGID_3_" cx="2.5888" cy="513.4733" r="133.1784" gradientTransform="matrix(-1.4138 -1.4146 0.979 -0.9784 -243.1053 762.0507)" gradientUnits="userSpaceOnUse">
			<stop  offset="0" style="stop-color:#010101"/>
			<stop  offset="0.8587" style="stop-color:#010101;stop-opacity:0.1413"/>
			<stop  offset="1" style="stop-color:#010101;stop-opacity:0"/>
		</radialGradient>
		<path fill="url(#SVGID_3_)" d="M63,449c59.7,59.7,326.2,59.7,385.9,0s59.7-326.2,0-385.9S122.7,3.4,63,63S3.4,389.3,63,449z"/>
	</g>
</g>
<radialGradient id="SVGID_4_" cx="256.0002" cy="535" r="229.9996" gradientTransform="matrix(1 0 0 1 0 -279)" gradientUnits="userSpaceOnUse">
	<stop  offset="0" style="stop-color:#0F0F0F"/>
	<stop  offset="0.6368" style="stop-color:#070707"/>
	<stop  offset="1" style="stop-color:#000000"/>
</radialGradient>
<path fill="url(#SVGID_4_)" d="M433.3,433.3c-70.3,70.3-284.3,70.3-354.6,0S8.4,149,78.7,78.7s284.3-70.3,354.6,0
	S503.6,363,433.3,433.3z"/>
<g>
	<path fill="none" d="M336.4,402.2c8.8,8.8,20.5,13.6,32.9,13.6c12.4,0,24.1-4.8,32.9-13.6s13.6-20.5,13.6-32.9
		c0-12.4-4.8-24.1-13.6-32.9s-20.5-13.6-32.9-13.6c-12.4,0-24.1,4.8-32.9,13.6s-13.6,20.5-13.6,32.9
		C322.8,381.7,327.6,393.4,336.4,402.2z"/>
	<path fill="none" d="M167.3,319.2c-3.8-5.3-7.1-11-9.9-16.9c-1.9,6-3.5,12.2-4.9,18.3C157.5,320.4,162.4,319.9,167.3,319.2z"/>
	<path fill="none" d="M206.6,78.8c-17.1-17.1-39.8-26.5-63.9-26.5s-46.9,9.4-63.9,26.5c-35.2,35.2-35.2,92.6,0,127.9
		c17.1,17.1,39.8,26.5,63.9,26.5c2.3,0,4.6-0.1,6.9-0.3c3.4-15.6,10.1-30,19.5-42.4c-8,4.4-17,6.8-26.3,6.8
		c-14.6,0-28.2-5.7-38.5-16c-21.3-21.3-21.3-55.8,0-77.1c10.3-10.3,24-16,38.5-16s28.2,5.7,38.5,16c17.5,17.5,20.6,44.2,9.2,64.9
		c12.3-9.3,26.7-16.1,42.4-19.5C234.7,124.2,226,98.2,206.6,78.8z"/>
	<path fill="none" d="M209.7,354.6c-6-2.8-11.6-6.1-16.9-9.9c-0.7,4.9-1.1,9.9-1.4,14.8C197.5,358.1,203.7,356.5,209.7,354.6z"/>
	<path fill="none" d="M364.8,147.2c-12.2,0.2-24.2,1.5-36,3.6c-0.3,7.5-1.1,14.8-2.3,22.1c4.5,3.8,8.7,8,12.5,12.5
		c7.3-1.2,14.7-2,22.1-2.3C363.3,171.5,364.5,159.4,364.8,147.2z"/>
	<path fill="none" d="M302.3,157.4c6,2.8,11.6,6.1,16.9,9.9c0.7-4.9,1.1-9.9,1.4-14.8C314.5,153.9,308.3,155.5,302.3,157.4z"/>
	<path fill="none" d="M175.6,109.8c-8.8-8.8-20.5-13.6-32.9-13.6c-12.4,0-24.1,4.8-32.9,13.6c-18.1,18.1-18.1,47.6,0,65.8
		c8.8,8.8,20.5,13.6,32.9,13.6c12.4,0,24.1-4.8,32.9-13.6C193.7,157.5,193.7,128,175.6,109.8z"/>
	<path fill="none" d="M344.7,192.8c3.8,5.3,7.1,11,9.9,16.9c1.9-6,3.5-12.2,4.9-18.3C354.5,191.6,349.6,192.1,344.7,192.8z"/>
	<path fill="none" d="M147.2,364.8c12.2-0.2,24.2-1.5,36-3.6c0.3-7.5,1.1-14.8,2.3-22.1c-4.5-3.8-8.7-8-12.5-12.5
		c-7.3,1.2-14.7,2-22.1,2.3C148.7,340.5,147.5,352.6,147.2,364.8z"/>
	<path fill="none" d="M305.4,433.2c17.1,17.1,39.8,26.5,63.9,26.5c24.1,0,46.9-9.4,63.9-26.5c35.2-35.2,35.2-92.6,0-127.9
		c-17.1-17.1-39.8-26.5-63.9-26.5c-2.3,0-4.6,0.1-6.9,0.3c-3.4,15.6-10.1,30-19.5,42.4c8-4.4,17-6.8,26.3-6.8
		c14.6,0,28.2,5.7,38.5,16c10.3,10.3,16,24,16,38.5c0,14.6-5.7,28.2-16,38.5c-10.3,10.3-24,16-38.5,16c-14.6,0-28.2-5.7-38.5-16
		c-10.3-10.3-16-24-16-38.5c0-9.4,2.4-18.4,6.8-26.3c-12.3,9.3-26.7,16.1-42.3,19.4C277.3,387.8,286,413.8,305.4,433.2z"/>
	<path fill="#FFFFFF" d="M190.4,169.1c11.4-20.7,8.4-47.3-9.2-64.9c-10.3-10.3-24-16-38.5-16s-28.2,5.7-38.5,16
		c-21.3,21.3-21.3,55.8,0,77.1c10.3,10.3,24,16,38.5,16c9.4,0,18.4-2.4,26.3-6.8C175.1,182.4,182.3,175.2,190.4,169.1z M142.7,189.2
		c-12.4,0-24.1-4.8-32.9-13.6c-18.1-18.1-18.1-47.6,0-65.8c8.8-8.8,20.5-13.6,32.9-13.6c12.4,0,24.1,4.8,32.9,13.6
		c18.1,18.1,18.1,47.6,0,65.8C166.8,184.4,155.1,189.2,142.7,189.2z"/>
	<path fill="#FFFFFF" d="M321.5,343c-4.4,8-6.8,17-6.8,26.3c0,14.6,5.7,28.2,16,38.5c10.3,10.3,24,16,38.5,16
		c14.6,0,28.2-5.7,38.5-16c10.3-10.3,16-24,16-38.5c0-14.6-5.7-28.2-16-38.5c-10.3-10.3-24-16-38.5-16c-9.4,0-18.4,2.4-26.3,6.8
		C336.9,329.6,329.6,336.9,321.5,343z M369.3,322.8c12.4,0,24.1,4.8,32.9,13.6s13.6,20.5,13.6,32.9c0,12.4-4.8,24.1-13.6,32.9
		s-20.5,13.6-32.9,13.6c-12.4,0-24.1-4.8-32.9-13.6s-13.6-20.5-13.6-32.9c0-12.4,4.8-24.1,13.6-32.9S356.9,322.8,369.3,322.8z"/>
	<path fill="#FFFFFF" d="M320.6,152.5c-0.3,5-0.7,9.9-1.4,14.8c2.5,1.8,4.9,3.7,7.2,5.6c1.2-7.3,2-14.7,2.3-22.1
		c11.8-2.2,23.8-3.4,36-3.6c-0.2,12.2-1.5,24.2-3.6,36c-7.5,0.3-14.8,1.1-22.1,2.3c2,2.3,3.9,4.7,5.6,7.2c4.9-0.7,9.9-1.1,14.8-1.4
		c-1.4,6.2-3,12.3-4.9,18.3c1.7,3.7,3.3,7.5,4.6,11.4c3.5-9.8,6.4-19.8,8.6-30c0.5,0,1,0,1.5,0c43.1,0,83.8,15.2,116.1,43
		c-0.2-3.7-0.4-7.3-0.7-10.9c-32.7-26-73-40.1-115.4-40.1c2.1-11.7,3.2-23.7,3.5-35.9c37.5,0.6,73.5,10.4,105.3,28.3
		c-0.7-3.5-1.5-7-2.3-10.4c-31.5-16.5-66.5-25.4-103-26c-0.5-36.5-9.5-71.5-26-103c-3.4-0.8-6.9-1.6-10.4-2.3
		c18,31.9,27.8,67.8,28.3,105.3c-12.1,0.2-24.1,1.4-35.9,3.5c0-42.4-14.1-82.7-40.1-115.4c-3.6-0.3-7.3-0.5-10.9-0.7
		c27.8,32.3,43,73.1,43,116.1c0,0.5,0,1,0,1.5c-10.2,2.2-20.2,5-30,8.6c3.9,1.3,7.7,2.9,11.4,4.6
		C308.3,155.5,314.5,153.9,320.6,152.5z"/>
	<path fill="#FFFFFF" d="M268.7,469.9c5.5,5.5,11.4,10.5,17.6,15c4.3-0.3,8.5-0.7,12.7-1.1c-8.9-5.5-17.2-12-24.7-19.6
		c-27.8-27.8-40.8-64.9-39.1-101.4c-2.7-0.5-5.3-1.1-7.9-1.8C225.1,400.2,238.8,440.1,268.7,469.9z"/>
	<path fill="#FFFFFF" d="M369.3,227c-2.8,0-5.5,0.1-8.2,0.2c0.7,2.6,1.3,5.2,1.8,7.9c2.1-0.1,4.3-0.2,6.4-0.2
		c35.9,0,69.6,14,95,39.3c7.6,7.6,14.1,16,19.5,24.8c0.4-4.2,0.8-8.5,1.1-12.8c-4.4-6.2-9.4-12.1-15-17.7
		C443,241.8,407.3,227,369.3,227z"/>
	<path fill="#FFFFFF" d="M142.7,277c-35.9,0-69.6-14-95-39.3c-7.6-7.6-14.1-16-19.5-24.8c-0.4,4.2-0.8,8.5-1.1,12.8
		c4.4,6.2,9.4,12.1,15,17.7C69,270.2,104.7,285,142.7,285c2.8,0,5.5-0.1,8.2-0.2c-0.7-2.6-1.3-5.2-1.8-7.9
		C147,277,144.9,277,142.7,277z"/>
	<path fill="#FFFFFF" d="M142.7,233.1c-24.1,0-46.9-9.4-63.9-26.5c-35.2-35.2-35.2-92.6,0-127.9c17.1-17.1,39.8-26.5,63.9-26.5
		s46.9,9.4,63.9,26.5c19.4,19.4,28.1,45.4,26.2,70.8c2.7-0.6,5.4-1.1,8.1-1.4c1.5-27-8-54.5-28.6-75c-18.6-18.6-43.3-28.8-69.6-28.8
		c-1.8,0-3.6,0.1-5.4,0.2C113.4,53,93.1,64.4,78.7,78.7C64.4,93.1,53,113.4,44.5,137.3c-0.1,1.8-0.2,3.6-0.2,5.4
		c0,26.3,10.2,51,28.8,69.6c18.6,18.6,43.3,28.8,69.6,28.8c1.8,0,3.6-0.1,5.4-0.1c0.4-2.7,0.9-5.5,1.4-8.1
		C147.3,233,145,233.1,142.7,233.1z"/>
	<path fill="#FFFFFF" d="M191.4,359.5c0.3-5,0.7-9.9,1.4-14.8c-2.5-1.8-4.9-3.7-7.2-5.6c-1.2,7.3-2,14.7-2.3,22.1
		c-11.8,2.2-23.8,3.4-36,3.6c0.2-12.2,1.5-24.2,3.6-36c7.5-0.3,14.8-1.1,22.1-2.3c-2-2.3-3.9-4.7-5.6-7.2c-4.9,0.7-9.9,1.1-14.8,1.4
		c1.4-6.2,3-12.3,4.9-18.3c-1.7-3.7-3.3-7.5-4.6-11.4c-3.5,9.8-6.4,19.8-8.6,30c-0.5,0-1,0-1.5,0c-43.1,0-83.8-15.2-116.1-43
		c0.2,3.7,0.4,7.3,0.7,10.9c32.7,26,73,40.1,115.4,40.1c-2.1,11.7-3.2,23.7-3.5,35.9c-37.5-0.6-73.5-10.4-105.3-28.3
		c0.7,3.5,1.5,7,2.3,10.4c31.5,16.5,66.5,25.4,103,26c0.5,36.5,9.5,71.5,26,103c3.4,0.8,6.9,1.6,10.4,2.3
		c-18-31.9-27.8-67.8-28.3-105.3c12.1-0.2,24.1-1.4,35.9-3.5c0,42.4,14.1,82.7,40.1,115.4c3.6,0.3,7.3,0.5,10.9,0.7
		c-27.8-32.3-43-73.1-43-116.1c0-0.5,0-1,0-1.5c10.2-2.2,20.2-5,30-8.6c-3.9-1.3-7.7-2.9-11.4-4.6
		C203.7,356.5,197.5,358.1,191.4,359.5z"/>
	<path fill="#FFFFFF" d="M243.3,42.1c-5.5-5.5-11.4-10.5-17.6-15c-4.3,0.3-8.5,0.7-12.7,1.1c8.9,5.5,17.2,12,24.7,19.6
		c27.8,27.8,40.8,64.9,39.1,101.4c2.7,0.5,5.3,1.1,7.9,1.8C287,111.8,273.2,71.9,243.3,42.1z"/>
	<path fill="#FFFFFF" d="M369.3,278.9c24.1,0,46.9,9.4,63.9,26.5c35.2,35.2,35.2,92.6,0,127.9c-17.1,17.1-39.8,26.5-63.9,26.5
		c-24.1,0-46.9-9.4-63.9-26.5c-19.4-19.4-28.1-45.4-26.2-70.8c-2.7,0.6-5.4,1.1-8.1,1.4c-1.5,27,8,54.5,28.6,75
		c18.6,18.6,43.3,28.8,69.6,28.8c1.8,0,3.6-0.1,5.4-0.2c23.9-8.5,44.2-19.9,58.6-34.3c14.3-14.3,25.7-34.6,34.2-58.4
		c1.5-27-8-54.6-28.6-75.2c-18.6-18.6-43.3-28.8-69.6-28.8c-1.8,0-3.6,0.1-5.4,0.1c-0.4,2.7-0.9,5.5-1.4,8.1
		C364.7,279,367,278.9,369.3,278.9z"/>
	<path fill="#FFFFFF" d="M276,158.8c0.4-3.2,0.6-6.5,0.8-9.7c-6.7-1.3-13.7-2-20.8-2c-5.1,0-10.2,0.4-15.1,1
		c-0.7,12.6-3.8,25.1-9.3,36.7C245.5,174.5,260.4,165.7,276,158.8z"/>
	<path fill="#FFFFFF" d="M326.5,173c-0.9,5.3-1.9,10.6-3.3,15.8c5.2-1.3,10.5-2.4,15.8-3.3C335.2,181,331,176.8,326.5,173z"/>
	<path fill="#FFFFFF" d="M290.9,152.8c-2-0.7-4.1-1.3-6.2-1.9c-0.1,1.5-0.2,2.9-0.3,4.4C286.6,154.4,288.7,153.6,290.9,152.8z"/>
	<path fill="#FFFFFF" d="M274.4,274.4c-0.9,0.9-1.7,1.7-2.6,2.5c-18.2,19.2-29.6,42.5-34.3,66.8c22.1-10.4,42.5-24.6,60.5-42.2
		c0.6-0.6,1.1-1.2,1.7-1.8c0.7-0.7,1.5-1.5,2.3-2.2c17.4-17.9,31.4-38.2,41.8-60.1c-25,4.8-48.1,16.6-66.9,34.4
		C276.1,272.7,275.2,273.5,274.4,274.4z"/>
	<path fill="#FFFFFF" d="M283.3,164.4c-2.7,17.5-8.6,34.5-17.8,50.2c15.1-10.1,31.4-18,48.7-23.3c2.2-7.8,3.9-15.8,5-24
		c-5.3-3.8-11-7.1-16.9-9.9C295.9,159.5,289.5,161.8,283.3,164.4z"/>
	<path fill="#FFFFFF" d="M361,227.2c-0.6-2.1-1.2-4.1-1.9-6.2c-0.8,2.2-1.6,4.3-2.4,6.5C358.2,227.4,359.6,227.3,361,227.2z"/>
	<path fill="#FFFFFF" d="M320.7,197.8c-5.3,17.2-13.1,33.6-23.2,48.6c15.4-9,32.4-15.1,50.2-17.8c2.6-6.2,4.9-12.5,6.9-18.9
		c-2.8-6-6.1-11.6-9.9-16.9C336.5,193.9,328.5,195.6,320.7,197.8z"/>
	<path fill="#FFFFFF" d="M184.8,231.7c-11.4,5.4-23.8,8.5-36.6,9.2c-0.7,4.9-1,9.9-1,15c0,7.1,0.7,14.1,2,20.9
		c3.2-0.2,6.5-0.4,9.7-0.8C165.7,260.4,174.4,245.6,184.8,231.7z"/>
	<path fill="#FFFFFF" d="M327.2,280.3c11.4-5.4,23.8-8.5,36.6-9.2c0.7-4.9,1-9.9,1-15c0-7.1-0.7-14.1-2-20.9
		c-3.2,0.2-6.5,0.4-9.7,0.8C346.3,251.6,337.6,266.4,327.2,280.3z"/>
	<path fill="#FFFFFF" d="M185.5,339c0.9-5.3,1.9-10.6,3.3-15.8c-5.2,1.3-10.5,2.4-15.8,3.3C176.8,331,181,335.2,185.5,339z"/>
	<path fill="#FFFFFF" d="M221.1,359.2c2,0.7,4.1,1.3,6.2,1.9c0.1-1.5,0.2-2.9,0.3-4.4C225.4,357.6,223.3,358.4,221.1,359.2z"/>
	<path fill="#FFFFFF" d="M237.6,237.6c0.9-0.9,1.7-1.7,2.6-2.5c18.2-19.2,29.6-42.5,34.3-66.8c-22.1,10.4-42.5,24.6-60.5,42.2
		c-0.6,0.6-1.1,1.2-1.7,1.8c-0.8,0.8-1.5,1.5-2.3,2.2c-17.4,17.9-31.4,38.2-41.8,60.1c25-4.8,48-16.6,66.8-34.4
		C235.9,239.3,236.8,238.5,237.6,237.6z"/>
	<path fill="#FFFFFF" d="M236,353.2c-0.4,3.2-0.6,6.5-0.8,9.7c6.7,1.3,13.7,2,20.8,2c5.1,0,10.2-0.4,15.1-1
		c0.7-12.6,3.8-25.1,9.3-36.7C266.5,337.5,251.6,346.3,236,353.2z"/>
	<path fill="#FFFFFF" d="M330.7,330.7c3.7-3.7,7.8-6.8,12.2-9.2c9.3-12.3,16.1-26.7,19.5-42.4c-20.7,1.6-40,10.1-55.2,24.4
		c-0.6,0.6-1.2,1.2-1.8,1.8c-0.6,0.6-1.2,1.2-1.8,1.7c-14.8,15.6-22.9,35.2-24.4,55.2c15.6-3.4,30-10.1,42.3-19.4
		C324,338.5,327.1,334.4,330.7,330.7z"/>
	<path fill="#FFFFFF" d="M181.3,181.3c-3.7,3.7-7.8,6.8-12.2,9.2c-9.3,12.3-16.1,26.7-19.5,42.4c20.7-1.5,40-10.1,55.2-24.4
		c0.6-0.6,1.2-1.3,1.8-1.9c0.6-0.6,1.2-1.2,1.8-1.8c14.8-15.6,22.9-35.2,24.4-55.2c-15.6,3.4-30,10.2-42.4,19.5
		C188,173.4,185,177.6,181.3,181.3z"/>
	<path fill="#FFFFFF" d="M268.7,268.7c0.9-0.9,1.8-1.7,2.7-2.6c18.2-18.9,31.7-41.2,40-65.4c-24.2,8.3-46.4,21.8-65.4,40
		c-0.9,0.9-1.7,1.8-2.6,2.7c-0.9,0.9-1.8,1.7-2.7,2.6c-18.2,18.9-31.7,41.2-40,65.4c24.2-8.3,46.4-21.8,65.4-40
		C266.9,270.4,267.8,269.5,268.7,268.7z"/>
	<path fill="#FFFFFF" d="M151,284.8c0.6,2.1,1.2,4.1,1.9,6.2c0.8-2.2,1.6-4.3,2.4-6.5C153.8,284.6,152.4,284.7,151,284.8z"/>
	<path fill="#FFFFFF" d="M191.3,314.2c5.3-17.2,13.1-33.6,23.2-48.6c-15.4,9-32.4,15.1-50.2,17.8c-2.6,6.2-4.9,12.5-6.9,18.9
		c2.8,6,6.1,11.6,9.9,16.9C175.5,318.1,183.5,316.4,191.3,314.2z"/>
	<path fill="#FFFFFF" d="M228.7,347.6c2.7-17.5,8.6-34.5,17.8-50.2c-15.1,10.1-31.4,18-48.7,23.3c-2.2,7.8-3.9,15.8-5,24
		c5.3,3.8,11,7.1,16.9,9.9C216.1,352.5,222.5,350.2,228.7,347.6z"/>
	<path d="M190.4,169.1c-8.1,6.1-15.3,13.3-21.4,21.4c4.4-2.4,8.5-5.5,12.2-9.2C185,177.6,188,173.4,190.4,169.1z"/>
	<path d="M321.5,343c8.1-6.1,15.3-13.3,21.4-21.4c-4.4,2.4-8.5,5.5-12.2,9.2C327.1,334.4,324,338.5,321.5,343z"/>
	<path d="M356.7,227.5c0.8-2.1,1.7-4.3,2.4-6.5c-1.3-3.9-2.9-7.7-4.6-11.4c-2,6.4-4.3,12.7-6.9,18.9c-17.8,2.7-34.8,8.7-50.2,17.8
		c10.1-15,17.9-31.4,23.2-48.6c7.8-2.2,15.8-3.9,24-5c-1.8-2.5-3.7-4.9-5.6-7.2c-5.3,0.9-10.6,1.9-15.8,3.3
		c1.3-5.2,2.4-10.5,3.3-15.8c-2.3-2-4.7-3.9-7.2-5.6c-1.1,8.1-2.8,16.1-5,24c-17.3,5.3-33.6,13.1-48.7,23.3
		c9.2-15.7,15.1-32.7,17.8-50.2c6.2-2.6,12.6-4.9,19-7c-3.7-1.7-7.5-3.3-11.4-4.6c-2.2,0.8-4.4,1.6-6.5,2.5c0.1-1.5,0.2-2.9,0.3-4.4
		c-2.6-0.7-5.2-1.3-7.9-1.8c-0.2,3.2-0.4,6.5-0.8,9.7c-15.6,6.9-30.5,15.7-44.4,26c5.5-11.6,8.6-24.1,9.3-36.7
		c-2.7,0.4-5.4,0.9-8.1,1.4c-1.5,20-9.7,39.6-24.4,55.2c-0.6,0.6-1.2,1.2-1.8,1.8c-0.6,0.6-1.2,1.2-1.8,1.9
		c-15.2,14.3-34.5,22.8-55.2,24.4c-0.6,2.7-1.1,5.4-1.4,8.1c12.8-0.7,25.2-3.8,36.6-9.2c-10.4,13.8-19.1,28.7-26,44.3
		c-3.2,0.4-6.4,0.6-9.7,0.8c0.5,2.7,1.1,5.3,1.8,7.9c1.4-0.1,2.9-0.2,4.3-0.3c-0.8,2.1-1.7,4.3-2.4,6.5c1.3,3.9,2.9,7.7,4.6,11.4
		c2-6.4,4.3-12.7,6.9-18.9c17.8-2.7,34.8-8.7,50.2-17.8c-10.1,15-17.9,31.4-23.2,48.6c-7.8,2.2-15.8,3.9-24,5
		c1.8,2.5,3.7,4.9,5.6,7.2c5.3-0.9,10.6-1.9,15.8-3.3c-1.3,5.2-2.4,10.5-3.3,15.8c2.3,2,4.7,3.9,7.2,5.6c1.1-8.1,2.8-16.1,5-24
		c17.3-5.3,33.6-13.1,48.7-23.3c-9.2,15.7-15.1,32.7-17.8,50.2c-6.2,2.6-12.6,4.9-19,7c3.7,1.7,7.5,3.3,11.4,4.6
		c2.2-0.8,4.4-1.6,6.5-2.5c-0.1,1.5-0.2,2.9-0.3,4.4c2.6,0.7,5.2,1.3,7.9,1.8c0.2-3.2,0.4-6.5,0.8-9.7c15.6-6.9,30.5-15.7,44.4-26
		c-5.5,11.6-8.6,24.1-9.3,36.7c2.7-0.4,5.4-0.9,8.1-1.4c1.5-20,9.7-39.6,24.4-55.2c0.6-0.6,1.2-1.2,1.8-1.7c0.6-0.6,1.2-1.2,1.8-1.8
		c15.2-14.4,34.5-22.9,55.2-24.4c0.6-2.7,1.1-5.4,1.4-8.1c-12.8,0.7-25.2,3.8-36.6,9.2c10.4-13.8,19.1-28.7,26-44.3
		c3.2-0.4,6.4-0.6,9.7-0.8c-0.5-2.7-1.1-5.3-1.8-7.9C359.6,227.3,358.2,227.4,356.7,227.5z M168.2,274.6
		c10.4-21.9,24.4-42.2,41.8-60.1c0.8-0.7,1.5-1.5,2.3-2.2c0.6-0.6,1.2-1.2,1.7-1.8c18-17.6,38.4-31.7,60.5-42.2
		c-4.7,24.3-16.1,47.6-34.3,66.8c-0.9,0.8-1.7,1.7-2.6,2.5c-0.9,0.9-1.7,1.7-2.5,2.6C216.3,258,193.2,269.8,168.2,274.6z
		 M200.7,311.3c8.3-24.2,21.8-46.4,40-65.4c0.9-0.9,1.8-1.7,2.7-2.6c0.9-0.9,1.8-1.8,2.6-2.7c18.9-18.2,41.2-31.7,65.4-40
		c-8.3,24.2-21.8,46.5-40,65.4c-0.9,0.8-1.8,1.7-2.7,2.6c-0.9,0.9-1.7,1.8-2.6,2.7C247.1,289.5,224.9,303,200.7,311.3z M302,297.5
		c-0.8,0.7-1.5,1.4-2.3,2.2c-0.6,0.6-1.1,1.2-1.7,1.8c-18,17.6-38.4,31.8-60.5,42.2c4.7-24.3,16.1-47.6,34.3-66.8
		c0.9-0.8,1.7-1.7,2.6-2.5c0.9-0.9,1.7-1.7,2.5-2.6c18.8-17.8,41.9-29.6,66.9-34.4C333.4,259.3,319.4,279.6,302,297.5z"/>
</g>
</svg>
