<?xml version="1.0" encoding="utf-8"?>
<!-- Generator: Adobe Illustrator 18.0.0, SVG Export Plug-In . SVG Version: 6.00 Build 0)  -->
<!DOCTYPE svg PUBLIC "-//W3C//DTD SVG 1.1//EN" "http://www.w3.org/Graphics/SVG/1.1/DTD/svg11.dtd">
<svg version="1.1" xmlns="http://www.w3.org/2000/svg" xmlns:xlink="http://www.w3.org/1999/xlink" x="0px" y="0px"
	 viewBox="0 0 512 512" enable-background="new 0 0 512 512" xml:space="preserve">
<g id="Layer_3">
</g>
<g id="Layer_2">
	<g>
		<g opacity="0.4" enable-background="new    ">
			
				<radialGradient id="SVGID_1_" cx="1.0125" cy="515" r="118.8609" gradientTransform="matrix(2 0 0 -2 254 1286)" gradientUnits="userSpaceOnUse">
				<stop  offset="0" style="stop-color:#020202"/>
				<stop  offset="0.8587" style="stop-color:#020202;stop-opacity:0.1413"/>
				<stop  offset="1" style="stop-color:#020202;stop-opacity:0"/>
			</radialGradient>
			<path fill="url(#SVGID_1_)" d="M448.99,448.971c-59.697,59.697-326.183,59.697-385.88,0s-59.697-326.283-0.1-385.98
				s326.283-59.597,385.98,0S508.587,389.274,448.99,448.971z"/>
		</g>
		<g opacity="0.4" enable-background="new    ">
			
				<radialGradient id="SVGID_2_" cx="2.0286" cy="516.0684" r="133.1551" gradientTransform="matrix(1.4138 -1.4146 -0.979 -0.9784 758.388 763.7472)" gradientUnits="userSpaceOnUse">
				<stop  offset="0" style="stop-color:#020202"/>
				<stop  offset="0.8587" style="stop-color:#020202;stop-opacity:0.1413"/>
				<stop  offset="1" style="stop-color:#020202;stop-opacity:0"/>
			</radialGradient>
			<path fill="url(#SVGID_2_)" d="M448.99,448.971c-59.697,59.697-326.183,59.697-385.88,0s-59.697-326.283-0.1-385.98
				s326.283-59.597,385.98,0S508.587,389.274,448.99,448.971z"/>
		</g>
		<g opacity="0.4" enable-background="new    ">
			
				<radialGradient id="SVGID_3_" cx="3.4424" cy="513.9732" r="133.1784" gradientTransform="matrix(-1.4138 -1.4146 0.979 -0.9784 -242.3879 763.7472)" gradientUnits="userSpaceOnUse">
				<stop  offset="0" style="stop-color:#020202"/>
				<stop  offset="0.8587" style="stop-color:#020202;stop-opacity:0.1413"/>
				<stop  offset="1" style="stop-color:#020202;stop-opacity:0"/>
			</radialGradient>
			<path fill="url(#SVGID_3_)" d="M63.01,448.971c59.697,59.697,326.183,59.697,385.88,0s59.697-326.183,0-385.88
				s-326.183-59.697-385.88-0.1S3.413,389.274,63.01,448.971z"/>
		</g>
	</g>
	<radialGradient id="SVGID_4_" cx="256" cy="256" r="230" gradientUnits="userSpaceOnUse">
		<stop  offset="0" style="stop-color:#679A3D"/>
		<stop  offset="1" style="stop-color:#0A6B37"/>
	</radialGradient>
	<path fill="url(#SVGID_4_)" d="M433.279,433.279c-70.294,70.294-284.264,70.294-354.558,0s-70.294-284.264,0-354.558
		s284.264-70.294,354.558,0S503.574,362.985,433.279,433.279z"/>
	<g>
		<g>
			<path fill="#1B957E" d="M26.581,233.885l130.534-34.976l-39.252-146.49c-15.512,7.27-28.87,16.03-39.142,26.302
				C47.227,110.215,29.854,170.552,26.581,233.885z"/>
			<path fill="#34B990" d="M198.908,354.885l-41.794-155.977L26.581,233.885c-2.965,57.367,5.648,117.174,25.838,160.252
				L198.908,354.885z"/>
			<path fill="#472A49" d="M78.721,433.279c31.494,31.494,91.832,48.867,155.164,52.14l-34.976-130.534l-146.49,39.252
				C59.689,409.649,68.448,423.007,78.721,433.279z"/>
		</g>
		<g>
			<path fill="#70CBDB" d="M117.863,52.419l39.252,146.49l155.977-41.794L278.115,26.581
				C220.748,23.616,160.942,32.229,117.863,52.419z"/>
			
				<rect x="175.26" y="175.26" transform="matrix(0.9659 -0.2588 0.2588 0.9659 -57.5347 74.9807)" fill="#2E333A" width="161.479" height="161.479"/>
			<path fill="#DF1767" d="M394.137,459.581l-39.252-146.49l-155.977,41.794l34.976,130.534
				C291.252,488.384,351.058,479.771,394.137,459.581z"/>
		</g>
		<g>
			<path fill="#67873A" d="M313.092,157.115l146.49-39.252c-7.27-15.512-16.03-28.87-26.302-39.142
				c-31.494-31.494-91.832-48.867-155.164-52.14L313.092,157.115z"/>
			<path fill="#E9A724" d="M459.581,117.863l-146.49,39.252l41.794,155.977l130.534-34.976
				C488.384,220.748,479.771,160.942,459.581,117.863z"/>
			<path fill="#CE202A" d="M485.419,278.115l-130.534,34.976l39.252,146.49c15.512-7.27,28.87-16.03,39.142-26.302
				C464.774,401.785,482.146,341.448,485.419,278.115z"/>
		</g>
	</g>
	<path opacity="0.4" d="M378.958,224.111c-27.667-92.219-67.629-113.736-159.848-86.069
		c-92.219,27.667-113.736,67.629-86.069,159.848c27.667,92.219,67.629,113.736,159.848,86.069
		C385.108,356.292,406.625,316.33,378.958,224.111z M332.315,283.977l-17.388,5.823l6.026,17.992
		c2.44,7.286-1.488,15.17-8.774,17.61c-1.585,0.531-3.198,0.76-4.776,0.719c-5.682-0.147-10.923-3.792-12.832-9.493l-6.026-17.993
		l-35.858,12.009l6.027,17.993c2.44,7.285-1.488,15.169-8.774,17.61c-1.584,0.531-3.198,0.76-4.777,0.719
		c-5.68-0.147-10.923-3.792-12.832-9.493l-6.027-17.993l-17.391,5.824c-1.584,0.531-3.198,0.76-4.777,0.719
		c-5.68-0.147-10.923-3.792-12.832-9.493c-2.44-7.285,1.488-15.169,8.774-17.61l17.389-5.824l-11.56-34.515l-17.389,5.824
		c-1.585,0.531-3.198,0.76-4.777,0.719c-5.68-0.147-10.923-3.792-12.832-9.493c-2.44-7.286,1.488-15.169,8.774-17.61l17.387-5.823
		l-6.026-17.993c-2.441-7.286,1.488-15.169,8.774-17.61c7.287-2.438,15.169,1.489,17.608,8.774l6.027,17.993l35.859-12.009
		l-6.026-17.993c-2.44-7.286,1.488-15.17,8.774-17.61c7.284-2.44,15.169,1.488,17.608,8.774l6.026,17.993l17.39-5.824
		c7.288-2.439,15.169,1.489,17.608,8.774c2.44,7.286-1.488,15.169-8.774,17.61l-17.389,5.824l11.561,34.516l17.39-5.824
		c7.287-2.437,15.169,1.489,17.608,8.774C343.53,273.653,339.601,281.537,332.315,283.977z"/>
	<path fill="#FFFFFF" d="M378.958,219.111c-27.667-92.219-67.629-113.736-159.848-86.069
		c-92.219,27.667-113.736,67.629-86.069,159.848c27.667,92.219,67.629,113.736,159.848,86.069
		C385.108,351.292,406.625,311.33,378.958,219.111z M332.315,278.977l-17.388,5.823l6.026,17.992
		c2.44,7.286-1.488,15.17-8.774,17.61c-1.585,0.531-3.198,0.76-4.776,0.719c-5.682-0.147-10.923-3.792-12.832-9.493l-6.026-17.993
		l-35.858,12.009l6.027,17.993c2.44,7.285-1.488,15.169-8.774,17.61c-1.584,0.531-3.198,0.76-4.777,0.719
		c-5.68-0.147-10.923-3.792-12.832-9.493l-6.027-17.993l-17.391,5.824c-1.584,0.531-3.198,0.76-4.777,0.719
		c-5.68-0.147-10.923-3.792-12.832-9.493c-2.44-7.285,1.488-15.169,8.774-17.61l17.389-5.824l-11.56-34.515l-17.389,5.824
		c-1.585,0.531-3.198,0.76-4.777,0.719c-5.68-0.147-10.923-3.792-12.832-9.493c-2.44-7.286,1.488-15.169,8.774-17.61l17.387-5.823
		l-6.026-17.993c-2.441-7.286,1.488-15.169,8.774-17.61c7.287-2.438,15.169,1.489,17.608,8.774l6.027,17.993l35.859-12.009
		l-6.026-17.993c-2.44-7.286,1.488-15.17,8.774-17.61c7.284-2.44,15.169,1.488,17.608,8.774l6.026,17.993l17.39-5.824
		c7.288-2.439,15.169,1.489,17.608,8.774c2.44,7.286-1.488,15.169-8.774,17.61l-17.389,5.824l11.561,34.516l17.39-5.824
		c7.287-2.437,15.169,1.489,17.608,8.774C343.53,268.653,339.601,276.537,332.315,278.977z"/>
	
		<image display="none" overflow="visible" width="550" height="258" xlink:href="../../../../../Downloads/view.png"  transform="matrix(1 0 0 1 136.6667 117.4751)">
	</image>
</g>
</svg>
