<?xml version="1.0" encoding="UTF-8" standalone="no"?>
<svg
   xmlns:dc="http://purl.org/dc/elements/1.1/"
   xmlns:cc="http://creativecommons.org/ns#"
   xmlns:rdf="http://www.w3.org/1999/02/22-rdf-syntax-ns#"
   xmlns:svg="http://www.w3.org/2000/svg"
   xmlns="http://www.w3.org/2000/svg"
   viewBox="0 0 640 640"
   height="640"
   width="640"
   xml:space="preserve"
   version="1.1"
   id="svg2"><metadata
     id="metadata8"><rdf:RDF><cc:Work
         rdf:about=""><dc:format>image/svg+xml</dc:format><dc:type
           rdf:resource="http://purl.org/dc/dcmitype/StillImage" /></cc:Work></rdf:RDF></metadata><defs
     id="defs6"><clipPath
       id="clipPath16"
       clipPathUnits="userSpaceOnUse"><path
         id="path18"
         d="M 0,512 512,512 512,0 0,0 0,512 Z" /></clipPath><clipPath
       id="clipPath24"
       clipPathUnits="userSpaceOnUse"><path
         id="path26"
         d="m 18.325,493.744 475.4,0 0,-475.4877 -475.4,0 0,475.4877 z" /></clipPath><clipPath
       id="clipPath28"
       clipPathUnits="userSpaceOnUse"><path
         id="path30"
         d="M 448.99,63.029 C 389.293,3.332 122.807,3.332 63.11,63.029 3.413,122.726 3.413,389.312 63.01,449.009 c 59.597,59.696 326.283,59.596 385.98,0 59.697,-59.597 59.597,-326.283 0,-385.98" /></clipPath><radialGradient
       id="radialGradient36"
       spreadMethod="pad"
       gradientTransform="matrix(237.72188,0,0,237.72188,256.02499,256)"
       gradientUnits="userSpaceOnUse"
       r="1"
       cy="0"
       cx="0"
       fy="0"
       fx="0"><stop
         id="stop38"
         offset="0"
         style="stop-opacity:1;stop-color:#ffffff" /><stop
         id="stop40"
         offset="0.8587"
         style="stop-opacity:0.14129854;stop-color:#ffffff" /><stop
         id="stop42"
         offset="1"
         style="stop-opacity:0;stop-color:#ffffff" /></radialGradient><mask
       id="mask44"
       height="1"
       width="1"
       y="0"
       x="0"
       maskUnits="userSpaceOnUse"><g
         id="g46"><g
           id="g48"><g
             id="g50"><g
               id="g52"><path
                 id="path54"
                 style="fill:url(#radialGradient36);stroke:none"
                 d="m -32768,32767 65535,0 0,-65535 -65535,0 0,65535 z" /></g></g></g></g></mask><radialGradient
       id="radialGradient56"
       spreadMethod="pad"
       gradientTransform="matrix(237.72188,0,0,237.72188,256.02499,256)"
       gradientUnits="userSpaceOnUse"
       r="1"
       cy="0"
       cx="0"
       fy="0"
       fx="0"><stop
         id="stop58"
         offset="0"
         style="stop-opacity:1;stop-color:#010101" /><stop
         id="stop60"
         offset="0.8587"
         style="stop-opacity:1;stop-color:#010101" /><stop
         id="stop62"
         offset="1"
         style="stop-opacity:1;stop-color:#010101" /></radialGradient><clipPath
       id="clipPath86"
       clipPathUnits="userSpaceOnUse"><path
         id="path88"
         d="m 18.325,493.744 475.4,0 0,-475.4877 -475.4,0 0,475.4877 z" /></clipPath><clipPath
       id="clipPath90"
       clipPathUnits="userSpaceOnUse"><path
         id="path92"
         d="M 448.99,63.029 C 389.293,3.332 122.807,3.332 63.11,63.029 3.413,122.726 3.413,389.312 63.01,449.009 c 59.597,59.696 326.283,59.596 385.98,0 59.697,-59.597 59.597,-326.283 0,-385.98" /></clipPath><radialGradient
       id="radialGradient98"
       spreadMethod="pad"
       gradientTransform="matrix(188.25467,188.36119,-130.35883,130.27895,256.02499,256.04376)"
       gradientUnits="userSpaceOnUse"
       r="1"
       cy="0"
       cx="0"
       fy="0"
       fx="0"><stop
         id="stop100"
         offset="0"
         style="stop-opacity:1;stop-color:#ffffff" /><stop
         id="stop102"
         offset="0.8587"
         style="stop-opacity:0.14129854;stop-color:#ffffff" /><stop
         id="stop104"
         offset="1"
         style="stop-opacity:0;stop-color:#ffffff" /></radialGradient><mask
       id="mask106"
       height="1"
       width="1"
       y="0"
       x="0"
       maskUnits="userSpaceOnUse"><g
         id="g108"><g
           id="g110"><g
             id="g112"><g
               id="g114"><path
                 id="path116"
                 style="fill:url(#radialGradient98);stroke:none"
                 d="m -32768,32767 65535,0 0,-65535 -65535,0 0,65535 z" /></g></g></g></g></mask><radialGradient
       id="radialGradient118"
       spreadMethod="pad"
       gradientTransform="matrix(188.25467,188.36119,-130.35883,130.27895,256.02499,256.04376)"
       gradientUnits="userSpaceOnUse"
       r="1"
       cy="0"
       cx="0"
       fy="0"
       fx="0"><stop
         id="stop120"
         offset="0"
         style="stop-opacity:1;stop-color:#010101" /><stop
         id="stop122"
         offset="0.8587"
         style="stop-opacity:1;stop-color:#010101" /><stop
         id="stop124"
         offset="1"
         style="stop-opacity:1;stop-color:#010101" /></radialGradient><clipPath
       id="clipPath148"
       clipPathUnits="userSpaceOnUse"><path
         id="path150"
         d="m 18.275,493.694 475.387,0 0,-475.4377 -475.387,0 0,475.4377 z" /></clipPath><clipPath
       id="clipPath152"
       clipPathUnits="userSpaceOnUse"><path
         id="path154"
         d="m 63.01,63.029 c 59.697,-59.697 326.183,-59.697 385.88,0 59.697,59.697 59.697,326.183 0,385.88 -59.697,59.696 -326.183,59.696 -385.88,0.1 -59.697,-59.597 -59.597,-326.283 0,-385.98" /></clipPath><radialGradient
       id="radialGradient160"
       spreadMethod="pad"
       gradientTransform="matrix(-188.28767,188.39421,130.38168,130.30179,255.92499,255.99377)"
       gradientUnits="userSpaceOnUse"
       r="1"
       cy="0"
       cx="0"
       fy="0"
       fx="0"><stop
         id="stop162"
         offset="0"
         style="stop-opacity:1;stop-color:#ffffff" /><stop
         id="stop164"
         offset="0.8587"
         style="stop-opacity:0.14129854;stop-color:#ffffff" /><stop
         id="stop166"
         offset="1"
         style="stop-opacity:0;stop-color:#ffffff" /></radialGradient><mask
       id="mask168"
       height="1"
       width="1"
       y="0"
       x="0"
       maskUnits="userSpaceOnUse"><g
         id="g170"><g
           id="g172"><g
             id="g174"><g
               id="g176"><path
                 id="path178"
                 style="fill:url(#radialGradient160);stroke:none"
                 d="m -32768,32767 65535,0 0,-65535 -65535,0 0,65535 z" /></g></g></g></g></mask><radialGradient
       id="radialGradient180"
       spreadMethod="pad"
       gradientTransform="matrix(-188.28767,188.39421,130.38168,130.30179,255.92499,255.99377)"
       gradientUnits="userSpaceOnUse"
       r="1"
       cy="0"
       cx="0"
       fy="0"
       fx="0"><stop
         id="stop182"
         offset="0"
         style="stop-opacity:1;stop-color:#010101" /><stop
         id="stop184"
         offset="0.8587"
         style="stop-opacity:1;stop-color:#010101" /><stop
         id="stop186"
         offset="1"
         style="stop-opacity:1;stop-color:#010101" /></radialGradient><radialGradient
       id="radialGradient218"
       spreadMethod="pad"
       gradientTransform="matrix(229.9996,0,0,-229.9996,256,256)"
       gradientUnits="userSpaceOnUse"
       r="1"
       cy="0"
       cx="0"
       fy="0"
       fx="0"><stop
         id="stop220"
         offset="0"
         style="stop-opacity:1;stop-color:#ffd02a" /><stop
         id="stop222"
         offset="1"
         style="stop-opacity:1;stop-color:#00a7aa" /></radialGradient><clipPath
       id="clipPath230"
       clipPathUnits="userSpaceOnUse"><path
         id="path232"
         d="M 0,512 512,512 512,0 0,0 0,512 Z" /></clipPath><clipPath
       id="clipPath276"
       clipPathUnits="userSpaceOnUse"><path
         id="path278"
         d="m 257.384,380.136 157.34,0 0,-211.638 -157.34,0 0,211.638 z" /></clipPath><clipPath
       id="clipPath280"
       clipPathUnits="userSpaceOnUse"><path
         id="path282"
         d="m 405.035,168.498 c 5.351,0 9.689,4.338 9.689,9.688 l 0,192.262 c 0,5.35 -4.338,9.688 -9.689,9.688 l -147.651,0 147.651,-211.638 z" /></clipPath><linearGradient
       id="linearGradient288"
       spreadMethod="pad"
       gradientTransform="matrix(157.34021,0,0,157.34021,257.38379,274.31699)"
       gradientUnits="userSpaceOnUse"
       y2="0"
       x2="1"
       y1="0"
       x1="0"><stop
         id="stop290"
         offset="0"
         style="stop-opacity:1;stop-color:#ffffff" /><stop
         id="stop292"
         offset="1"
         style="stop-opacity:0;stop-color:#ffffff" /></linearGradient><mask
       id="mask294"
       height="1"
       width="1"
       y="0"
       x="0"
       maskUnits="userSpaceOnUse"><g
         id="g296"><g
           id="g298"><g
             id="g300"><g
               id="g302"><path
                 id="path304"
                 style="fill:url(#linearGradient288);stroke:none"
                 d="m -32768,32767 65535,0 0,-65535 -65535,0 0,65535 z" /></g></g></g></g></mask><linearGradient
       id="linearGradient306"
       spreadMethod="pad"
       gradientTransform="matrix(157.34021,0,0,157.34021,257.38379,274.31699)"
       gradientUnits="userSpaceOnUse"
       y2="0"
       x2="1"
       y1="0"
       x1="0"><stop
         id="stop308"
         offset="0"
         style="stop-opacity:1;stop-color:#ffffff" /><stop
         id="stop310"
         offset="1"
         style="stop-opacity:1;stop-color:#ffffff" /></linearGradient><linearGradient
       id="linearGradient342"
       spreadMethod="pad"
       gradientTransform="matrix(0,-58.011181,-58.011181,0,256,299.00558)"
       gradientUnits="userSpaceOnUse"
       y2="0"
       x2="1"
       y1="0"
       x1="0"><stop
         id="stop344"
         offset="0"
         style="stop-opacity:1;stop-color:#170000" /><stop
         id="stop346"
         offset="0.33401138"
         style="stop-opacity:1;stop-color:#231f20" /><stop
         id="stop348"
         offset="1"
         style="stop-opacity:1;stop-color:#231f20" /></linearGradient><clipPath
       id="clipPath356"
       clipPathUnits="userSpaceOnUse"><path
         id="path358"
         d="M 0,512 512,512 512,0 0,0 0,512 Z" /></clipPath><clipPath
       id="clipPath364"
       clipPathUnits="userSpaceOnUse"><path
         id="path366"
         d="m 306.267,477.909 172.939,0 0,-185.676 -172.939,0 0,185.676 z" /></clipPath><linearGradient
       id="linearGradient388"
       spreadMethod="pad"
       gradientTransform="matrix(69.412346,69.412346,-69.412346,69.412346,338.53961,335.87292)"
       gradientUnits="userSpaceOnUse"
       y2="0"
       x2="1"
       y1="0"
       x1="0"><stop
         id="stop390"
         offset="0"
         style="stop-opacity:1;stop-color:#ffffff" /><stop
         id="stop392"
         offset="0.2198"
         style="stop-opacity:1;stop-color:#ededed" /><stop
         id="stop394"
         offset="0.4116"
         style="stop-opacity:1;stop-color:#e2e2e2" /><stop
         id="stop396"
         offset="0.548"
         style="stop-opacity:1;stop-color:#ededed" /><stop
         id="stop398"
         offset="0.7855"
         style="stop-opacity:1;stop-color:#fafafa" /><stop
         id="stop400"
         offset="1"
         style="stop-opacity:1;stop-color:#ffffff" /></linearGradient><clipPath
       id="clipPath408"
       clipPathUnits="userSpaceOnUse"><path
         id="path410"
         d="M 0,512 512,512 512,0 0,0 0,512 Z" /></clipPath></defs><g
     transform="matrix(1.25,0,0,-1.25,0,640)"
     id="g10"><g
       id="g12"><g
         clip-path="url(#clipPath16)"
         id="g14"><g
           id="g20"><g
             id="g22" /><g
             id="g64"><g
               style="opacity:0.39999402"
               id="g66"
               clip-path="url(#clipPath24)"><g
                 id="g68"><g
                   id="g70"
                   clip-path="url(#clipPath28)"><g
                     id="g72"><g
                       id="g74" /><g
                       id="g76"
                       mask="url(#mask44)"><g
                         id="g78"><path
                           id="path80"
                           style="fill:url(#radialGradient56);stroke:none"
                           d="M 448.99,63.029 C 389.293,3.332 122.807,3.332 63.11,63.029 3.413,122.726 3.413,389.312 63.01,449.009 c 59.597,59.696 326.283,59.596 385.98,0 59.697,-59.597 59.597,-326.283 0,-385.98" /></g></g></g></g></g></g></g></g><g
           id="g82"><g
             id="g84" /><g
             id="g126"><g
               style="opacity:0.39999402"
               id="g128"
               clip-path="url(#clipPath86)"><g
                 id="g130"><g
                   id="g132"
                   clip-path="url(#clipPath90)"><g
                     id="g134"><g
                       id="g136" /><g
                       id="g138"
                       mask="url(#mask106)"><g
                         id="g140"><path
                           id="path142"
                           style="fill:url(#radialGradient118);stroke:none"
                           d="M 448.99,63.029 C 389.293,3.332 122.807,3.332 63.11,63.029 3.413,122.726 3.413,389.312 63.01,449.009 c 59.597,59.696 326.283,59.596 385.98,0 59.697,-59.597 59.597,-326.283 0,-385.98" /></g></g></g></g></g></g></g></g><g
           id="g144"><g
             id="g146" /><g
             id="g188"><g
               style="opacity:0.39999402"
               id="g190"
               clip-path="url(#clipPath148)"><g
                 id="g192"><g
                   id="g194"
                   clip-path="url(#clipPath152)"><g
                     id="g196"><g
                       id="g198" /><g
                       id="g200"
                       mask="url(#mask168)"><g
                         id="g202"><path
                           id="path204"
                           style="fill:url(#radialGradient180);stroke:none"
                           d="m 63.01,63.029 c 59.697,-59.697 326.183,-59.697 385.88,0 59.697,59.697 59.697,326.183 0,385.88 -59.697,59.696 -326.183,59.696 -385.88,0.1 -59.697,-59.597 -59.597,-326.283 0,-385.98" /></g></g></g></g></g></g></g></g></g></g><g
       id="g206"><g
         id="g208"><g
           id="g214"><g
             id="g216"><path
               id="path224"
               style="fill:url(#radialGradient218);stroke:none"
               d="M 78.721,433.279 C 8.427,362.985 8.427,149.015 78.721,78.721 l 0,0 c 70.294,-70.294 284.263,-70.294 354.558,0 l 0,0 c 70.294,70.294 70.294,284.264 0,354.558 l 0,0 C 398.132,468.426 327.066,486 256,486 l 0,0 C 184.934,486 113.868,468.426 78.721,433.279" /></g></g></g></g><g
       id="g226"><g
         clip-path="url(#clipPath230)"
         id="g228"><g
           transform="translate(180.3895,87.6093)"
           id="g234"><path
             id="path236"
             style="fill:#5bc3b7;fill-opacity:1;fill-rule:nonzero;stroke:none"
             d="M 0,0 25.306,43.833 -37.27,152.22 -84.952,69.632 -72.978,48.895 -50.603,87.648 0,0 Z" /></g><g
           transform="translate(357.3987,132.2743)"
           id="g238"><path
             id="path240"
             style="fill:#5bc3b7;fill-opacity:1;fill-rule:nonzero;stroke:none"
             d="M 0,0 -44.906,77.78 -87.989,3.158 -43.083,-74.621 0,0 Z" /></g><g
           transform="translate(238.7047,188.6159)"
           id="g242"><path
             id="path244"
             style="fill:#66d3c3;fill-opacity:1;fill-rule:nonzero;stroke:none"
             d="m 0,0 -58.315,-101.007 34.413,-59.605 c 27.115,-2.659 55.28,-2.659 82.396,0 L 75.611,-130.964 0,0 Z" /></g><g
           transform="translate(107.4111,136.5024)"
           id="g246"><path
             id="path248"
             style="fill:#27ae61;fill-opacity:1;fill-rule:nonzero;stroke:none"
             d="m 0,0 0,0.001 0,0 0,0 -11.974,20.738 -28.517,49.394 -28.608,-49.551 c 8.301,-30.651 20.795,-57.158 37.499,-75.314 L 0,0 Z" /></g><g
           transform="translate(211.0939,34.4267)"
           id="g250"><path
             id="path252"
             style="fill:#51d88b;fill-opacity:1;fill-rule:nonzero;stroke:none"
             d="m 0,0 -30.704,53.183 -50.604,87.648 -22.374,-38.754 0,-0.001 -31.6,-54.733 c 0.957,-1.041 1.924,-2.064 2.909,-3.049 C -104.062,15.983 -52.441,-0.917 3.708,-6.423 L 2.389,-4.137 0,0 Z" /></g><g
           transform="translate(401.9808,116.1742)"
           id="g254"><path
             id="path256"
             style="fill:#1bbc9b;fill-opacity:1;fill-rule:nonzero;stroke:none"
             d="m 0,0 -26.939,46.66 -17.643,-30.56 -43.083,-74.622 0,-0.001 0,0 -17.117,-29.647 c 21.04,2.063 41.442,5.724 60.221,10.989 L -17.643,-30.559 0,0 Z" /></g><g
           transform="translate(401.9811,116.1747)"
           id="g258"><path
             id="path260"
             style="fill:#27ae61;fill-opacity:1;fill-rule:nonzero;stroke:none"
             d="m 0,0 0,0 0,-0.001 -17.643,-30.56 -26.917,-46.62 c 31.336,8.786 58.155,22.025 75.858,39.727 20.2,20.201 34.583,52.276 43.174,89.387 L 52.228,90.46 0,0 Z" /></g><g
           transform="translate(295.3115,135.3151)"
           id="g262"><path
             id="path264"
             style="fill:#e2e2e2;fill-opacity:1;fill-rule:nonzero;stroke:none"
             d="m 0,0 -3.324,33.183 -71.975,0 L -78.623,0 0,0 Z" /></g><path
           id="path266"
           style="fill:#969696;fill-opacity:1;fill-rule:nonzero;stroke:none"
           d="m 199.391,136.22 113.219,0 0,-4.356 -113.219,0 0,4.356 z" /><g
           transform="translate(400.9859,188.8613)"
           id="g268"><path
             id="path270"
             style="fill:#0c0c0c;fill-opacity:1;fill-rule:nonzero;stroke:none"
             d="m 0,0 c 0,-0.772 -0.625,-1.397 -1.397,-1.397 l -287.178,0 c -0.772,0 -1.397,0.625 -1.397,1.397 l 0,170.912 c 0,0.772 0.625,1.397 1.397,1.397 l 287.178,0 c 0.772,0 1.397,-0.625 1.397,-1.397 L 0,0 Z m 4.049,191.275 -298.07,0 c -5.351,0 -9.689,-4.338 -9.689,-9.689 l 0,-192.26 c 0,-5.351 4.338,-9.689 9.689,-9.689 l 298.07,0 c 5.351,0 9.689,4.338 9.689,9.689 l 0,192.26 c 0,5.351 -4.338,9.689 -9.689,9.689" /></g><g
           id="g272"><g
             id="g274" /><g
             id="g312"><g
               style="opacity:0.39999402"
               id="g314"
               clip-path="url(#clipPath276)"><g
                 id="g316"><g
                   id="g318"
                   clip-path="url(#clipPath280)"><g
                     id="g320"><g
                       id="g322" /><g
                       id="g324"
                       mask="url(#mask294)"><g
                         id="g326"><path
                           id="path328"
                           style="fill:url(#linearGradient306);stroke:none"
                           d="m 405.035,168.498 c 5.351,0 9.689,4.338 9.689,9.688 l 0,192.262 c 0,5.35 -4.338,9.688 -9.689,9.688 l -147.651,0 147.651,-211.638 z" /></g></g></g></g></g></g></g></g></g></g><g
       id="g330"><g
         id="g332"><g
           id="g338"><g
             id="g340"><path
               id="path350"
               style="fill:url(#linearGradient342);stroke:none"
               d="m 252.429,274.123 -43.098,24.882 0,-58.01 43.098,24.882 0,-24.882 50.24,29.005 -50.24,29.005 0,-24.882 z" /></g></g></g></g><g
       id="g352"><g
         clip-path="url(#clipPath356)"
         id="g354"><g
           id="g360"><g
             id="g362" /><g
             id="g368"><g
               style="opacity:0.30000299"
               id="g370"
               clip-path="url(#clipPath364)"><g
                 id="g372"
                 transform="translate(479.2057,330.7948)"><path
                   id="path374"
                   style="fill:#353535;fill-opacity:1;fill-rule:nonzero;stroke:none"
                   d="m 0,0 c -8.085,42.616 -23.385,79.942 -45.927,102.484 -21.013,21.014 -54.871,35.74 -93.887,44.19 -1.346,0.15 -2.699,0.297 -4.063,0.44 -16.708,-18.282 -29.062,-59.356 -29.062,-86.075 0,-56.782 45.009,-102.465 101.711,-99.461 C -44.881,-37.026 -14.599,-19.175 0,0" /></g></g></g></g></g></g><g
       id="g376"><g
         id="g378"><g
           id="g384"><g
             id="g386"><path
               id="path402"
               style="fill:url(#linearGradient388);stroke:none"
               d="m 308.426,408.572 c 0,-56.781 46.032,-102.812 102.813,-102.812 l 0,0 c 26.719,0 51.054,10.194 69.337,26.902 l 0,0 -145.248,145.247 c -16.707,-18.282 -26.902,-42.618 -26.902,-69.337" /></g></g></g></g><g
       id="g404"><g
         clip-path="url(#clipPath408)"
         id="g406"><g
           transform="translate(433.2788,433.2791)"
           id="g412"><path
             id="path414"
             style="fill:#565655;fill-opacity:1;fill-rule:nonzero;stroke:none"
             d="m 0,0 c -21.014,21.014 -54.873,35.74 -93.89,44.19 -1.324,0.148 -2.658,0.292 -4,0.434 L 45.135,-98.402 C 36.861,-57.489 21.82,-21.82 0,0" /></g></g></g></g></svg>