<?xml version="1.0" encoding="utf-8"?>
<!-- Generator: Adobe Illustrator 18.0.0, SVG Export Plug-In . SVG Version: 6.00 Build 0)  -->
<!DOCTYPE svg PUBLIC "-//W3C//DTD SVG 1.1//EN" "http://www.w3.org/Graphics/SVG/1.1/DTD/svg11.dtd">
<svg version="1.1" id="Layer_2" xmlns="http://www.w3.org/2000/svg" xmlns:xlink="http://www.w3.org/1999/xlink" x="0px" y="0px"
	 viewBox="0 0 512 512" style="enable-background:new 0 0 512 512;" xml:space="preserve">
<g>
	<g>
		<g style="opacity:0.4;enable-background:new    ;">
			
				<radialGradient id="SVGID_1_" cx="256.525" cy="259.5" r="237.7344" gradientTransform="matrix(1 0 0 -1 -0.5 515.5)" gradientUnits="userSpaceOnUse">
				<stop  offset="0" style="stop-color:#010101"/>
				<stop  offset="0.8587" style="stop-color:#010101;stop-opacity:0.1413"/>
				<stop  offset="1" style="stop-color:#010101;stop-opacity:0"/>
			</radialGradient>
			<path style="fill:url(#SVGID_1_);" d="M449,449c-59.7,59.7-326.2,59.7-385.9,0S3.4,122.7,63,63s326.3-59.6,386,0
				S508.6,389.3,449,449z"/>
		</g>
		<g style="opacity:0.4;enable-background:new    ;">
			
				<radialGradient id="SVGID_2_" cx="258.0531" cy="261.0998" r="266.3242" gradientTransform="matrix(0.7069 -0.7073 -0.4895 -0.4892 201.4156 566.2072)" gradientUnits="userSpaceOnUse">
				<stop  offset="0" style="stop-color:#010101"/>
				<stop  offset="0.8587" style="stop-color:#010101;stop-opacity:0.1413"/>
				<stop  offset="1" style="stop-color:#010101;stop-opacity:0"/>
			</radialGradient>
			<path style="fill:url(#SVGID_2_);" d="M449,449c-59.7,59.7-326.2,59.7-385.9,0S3.4,122.7,63,63s326.3-59.6,386,0
				S508.6,389.3,449,449z"/>
		</g>
		<g style="opacity:0.4;enable-background:new    ;">
			
				<radialGradient id="SVGID_3_" cx="260.1738" cy="257.9314" r="266.3709" gradientTransform="matrix(-0.7069 -0.7073 0.4895 -0.4892 313.5844 566.2072)" gradientUnits="userSpaceOnUse">
				<stop  offset="0" style="stop-color:#010101"/>
				<stop  offset="0.8587" style="stop-color:#010101;stop-opacity:0.1413"/>
				<stop  offset="1" style="stop-color:#010101;stop-opacity:0"/>
			</radialGradient>
			<path style="fill:url(#SVGID_3_);" d="M63,449c59.7,59.7,326.2,59.7,385.9,0s59.7-326.2,0-385.9S122.7,3.4,63,63
				S3.4,389.3,63,449z"/>
		</g>
	</g>
	<path style="fill:#FFFFFF;" d="M433.3,433.3c-70.3,70.3-284.3,70.3-354.6,0S8.4,149,78.7,78.7s284.3-70.3,354.6,0
		S503.6,363,433.3,433.3z"/>
	<g>
		<radialGradient id="SVGID_4_" cx="252" cy="30.254" r="407.0785" gradientUnits="userSpaceOnUse">
			<stop  offset="1.933882e-02" style="stop-color:#F9AC1B"/>
			<stop  offset="0.3892" style="stop-color:#F16630"/>
			<stop  offset="0.7239" style="stop-color:#E6136F"/>
			<stop  offset="1" style="stop-color:#642F8B"/>
		</radialGradient>
		<path style="fill:url(#SVGID_4_);" d="M78.7,433.3c70.3,70.3,284.3,70.3,354.6,0s70.3-284.3,0-354.6S149,8.4,78.7,78.7
			S8.4,363,78.7,433.3z"/>
		<path style="opacity:0.2;fill:#FFFFFF;" d="M404.7,424.3c0,0-67.8,15.9-145.9,15.9c-82.4,0-149.4-15.9-149.4-15.9
			c-10.4,0-19,8.1-19.9,18.3c75.9,58.3,260.8,57.8,335-1.4C422.9,431.7,414.6,424.3,404.7,424.3z"/>
		<path d="M81.2,76.3c0,0,107.4-19.3,174.8-19.3c78.7,0,174.8,19.3,174.8,19.3C358.9,9.2,153.1,9.2,81.2,76.3z"/>
	</g>
</g>
<g style="opacity:0.5;">
	<circle cx="256" cy="277.7" r="41.3"/>
	<path d="M355.3,206.6h-44.5c-3.9,0-7.1-3.2-7.1-7.1v-4.6c0-9.8-7.9-17.7-17.7-17.7h-60.1c-9.8,0-17.7,7.9-17.7,17.7v4.6
		c0,3.9-3.2,7.1-7.1,7.1h-44.5c-9.8,0-17.7,7.9-17.7,17.7v106.8c0,9.8,7.9,17.7,17.7,17.7h198.7c9.8,0,17.7-7.9,17.7-17.7V224.3
		C373,214.5,365.1,206.6,355.3,206.6z M256,329.6c-28.6,0-51.9-23.3-51.9-51.9c0-28.6,23.3-51.9,51.9-51.9
		c28.6,0,51.9,23.3,51.9,51.9C307.9,306.3,284.6,329.6,256,329.6z"/>
</g>
<g style="opacity:0.95;">
	<circle style="fill:#FFFFFF;" cx="256" cy="270.7" r="41.3"/>
	<path style="fill:#FFFFFF;" d="M355.3,199.6h-44.5c-3.9,0-7.1-3.2-7.1-7.1v-4.6c0-9.8-7.9-17.7-17.7-17.7h-60.1
		c-9.8,0-17.7,7.9-17.7,17.7v4.6c0,3.9-3.2,7.1-7.1,7.1h-44.5c-9.8,0-17.7,7.9-17.7,17.7v106.8c0,9.8,7.9,17.7,17.7,17.7h198.7
		c9.8,0,17.7-7.9,17.7-17.7V217.3C373,207.5,365.1,199.6,355.3,199.6z M256,322.6c-28.6,0-51.9-23.3-51.9-51.9
		c0-28.6,23.3-51.9,51.9-51.9c28.6,0,51.9,23.3,51.9,51.9C307.9,299.3,284.6,322.6,256,322.6z"/>
</g>
</svg>
