<?xml version="1.0" encoding="utf-8"?>
<!-- Generator: Adobe Illustrator 18.0.0, SVG Export Plug-In . SVG Version: 6.00 Build 0)  -->
<!DOCTYPE svg PUBLIC "-//W3C//DTD SVG 1.1//EN" "http://www.w3.org/Graphics/SVG/1.1/DTD/svg11.dtd">
<svg version="1.1" id="Layer_2" xmlns="http://www.w3.org/2000/svg" xmlns:xlink="http://www.w3.org/1999/xlink" x="0px" y="0px"
	 viewBox="0 0 512 512" style="enable-background:new 0 0 512 512;" xml:space="preserve">
<g>
	<g style="opacity:0.4;enable-background:new    ;">
		
			<radialGradient id="SVGID_1_" cx="0.7625" cy="514.25" r="118.8609" gradientTransform="matrix(2 0 0 -2 254.5 1284.5)" gradientUnits="userSpaceOnUse">
			<stop  offset="0" style="stop-color:#010101"/>
			<stop  offset="0.8587" style="stop-color:#010101;stop-opacity:0.1413"/>
			<stop  offset="1" style="stop-color:#010101;stop-opacity:0"/>
		</radialGradient>
		<path style="fill:url(#SVGID_1_);" d="M449,449c-59.7,59.7-326.2,59.7-385.9,0S3.4,122.7,63,63s326.3-59.6,386,0
			S508.6,389.3,449,449z"/>
	</g>
	<g style="opacity:0.4;enable-background:new    ;">
		
			<radialGradient id="SVGID_2_" cx="1.5285" cy="515.0576" r="133.1551" gradientTransform="matrix(1.4138 -1.4146 -0.979 -0.9784 758.1053 762.0507)" gradientUnits="userSpaceOnUse">
			<stop  offset="0" style="stop-color:#010101"/>
			<stop  offset="0.8587" style="stop-color:#010101;stop-opacity:0.1413"/>
			<stop  offset="1" style="stop-color:#010101;stop-opacity:0"/>
		</radialGradient>
		<path style="fill:url(#SVGID_2_);" d="M449,449c-59.7,59.7-326.2,59.7-385.9,0S3.4,122.7,63,63s326.3-59.6,386,0
			S508.6,389.3,449,449z"/>
	</g>
	<g style="opacity:0.4;enable-background:new    ;">
		
			<radialGradient id="SVGID_3_" cx="2.5888" cy="513.4733" r="133.1784" gradientTransform="matrix(-1.4138 -1.4146 0.979 -0.9784 -243.1053 762.0507)" gradientUnits="userSpaceOnUse">
			<stop  offset="0" style="stop-color:#010101"/>
			<stop  offset="0.8587" style="stop-color:#010101;stop-opacity:0.1413"/>
			<stop  offset="1" style="stop-color:#010101;stop-opacity:0"/>
		</radialGradient>
		<path style="fill:url(#SVGID_3_);" d="M63,449c59.7,59.7,326.2,59.7,385.9,0s59.7-326.2,0-385.9S122.7,3.4,63,63S3.4,389.3,63,449
			z"/>
	</g>
</g>
<radialGradient id="SVGID_4_" cx="259" cy="415" r="350.5432" gradientUnits="userSpaceOnUse">
	<stop  offset="0" style="stop-color:#FEFF94"/>
	<stop  offset="1" style="stop-color:#FF035F"/>
</radialGradient>
<path style="fill:url(#SVGID_4_);" d="M433.3,433.3c-70.3,70.3-284.3,70.3-354.6,0S8.4,149,78.7,78.7s284.3-70.3,354.6,0
	S503.6,363,433.3,433.3z"/>
<g style="opacity:0.4;">
	<path d="M123.7,261.2l30.5,52.8l30.5-52.8H163c0.5-51,41.9-92.1,92.9-92.1c37.6,0,70,22.3,84.6,54.4l10.6-18.4
		c-19.4-32.3-54.8-54-95.2-54c-61,0-110.4,49.2-110.9,110.1L123.7,261.2L123.7,261.2L123.7,261.2z"/>
	<path d="M348.9,261.2c0,0.3,0,0.6,0,0.8c0,51.3-41.6,93-93,93c-38.7,0-71.8-23.6-85.8-57.2l-10.7,18.9
		c19.1,33.5,55.1,56.2,96.5,56.2c61.2,0,110.9-49.7,110.9-110.9c0-0.3,0-0.6,0-0.8h21.4l-30.5-52.8l-30.5,52.8L348.9,261.2
		L348.9,261.2z"/>
	<path id="_x3C_Path_x3E_" d="M255.3,194.8c8.1,19.8,17,31.4,22.6,37.9c4.5,5.1,28.9,27.7,0.7,63c16.8-34.6,10.7-55.1-19.2-67.7
		c0,27.6,0,48.4,0,73.2c0.9,30.2-30,32-37.6,24c-7.8-8.3,10.6-35.8,33.5-26.7C255.3,276.3,255.3,234.9,255.3,194.8z"/>
</g>
<g>
	<path style="fill:#FFFFFF;" d="M123.7,255.2l30.5,52.8l30.5-52.8H163c0.5-51,41.9-92.1,92.9-92.1c37.6,0,70,22.3,84.6,54.4
		l10.6-18.4c-19.4-32.3-54.8-54-95.2-54c-61,0-110.4,49.2-110.9,110.1L123.7,255.2L123.7,255.2L123.7,255.2z"/>
	<path style="fill:#FFFFFF;" d="M348.9,255.2c0,0.3,0,0.6,0,0.8c0,51.3-41.6,93-93,93c-38.7,0-71.8-23.6-85.8-57.2l-10.7,18.9
		c19.1,33.5,55.1,56.2,96.5,56.2c61.2,0,110.9-49.7,110.9-110.9c0-0.3,0-0.6,0-0.8h21.4l-30.5-52.8l-30.5,52.8L348.9,255.2
		L348.9,255.2z"/>
	<path id="_x3C_Path_x3E__1_" style="fill:#FFFFFF;" d="M255.3,188.8c8.1,19.8,17,31.4,22.6,37.9c4.5,5.1,28.9,27.7,0.7,63
		c16.8-34.6,10.7-55.1-19.2-67.7c0,27.6,0,48.4,0,73.2c0.9,30.2-30,32-37.6,24c-7.8-8.3,10.6-35.8,33.5-26.7
		C255.3,270.3,255.3,228.9,255.3,188.8z"/>
</g>
</svg>
