<?xml version="1.0" encoding="UTF-8" standalone="no"?>
<svg
   xmlns:dc="http://purl.org/dc/elements/1.1/"
   xmlns:cc="http://creativecommons.org/ns#"
   xmlns:rdf="http://www.w3.org/1999/02/22-rdf-syntax-ns#"
   xmlns:svg="http://www.w3.org/2000/svg"
   xmlns="http://www.w3.org/2000/svg"
   viewBox="0 0 640 640"
   height="640"
   width="640"
   xml:space="preserve"
   version="1.1"
   id="svg2"><metadata
     id="metadata8"><rdf:RDF><cc:Work
         rdf:about=""><dc:format>image/svg+xml</dc:format><dc:type
           rdf:resource="http://purl.org/dc/dcmitype/StillImage" /></cc:Work></rdf:RDF></metadata><defs
     id="defs6"><clipPath
       id="clipPath16"
       clipPathUnits="userSpaceOnUse"><path
         id="path18"
         d="M 0,512 512,512 512,0 0,0 0,512 Z" /></clipPath><clipPath
       id="clipPath24"
       clipPathUnits="userSpaceOnUse"><path
         id="path26"
         d="m 18.325,493.744 475.4,0 0,-475.4877 -475.4,0 0,475.4877 z" /></clipPath><clipPath
       id="clipPath28"
       clipPathUnits="userSpaceOnUse"><path
         id="path30"
         d="M 448.99,63.029 C 389.293,3.332 122.807,3.332 63.11,63.029 3.413,122.726 3.413,389.312 63.01,449.009 c 59.597,59.696 326.283,59.596 385.98,0 59.697,-59.597 59.597,-326.283 0,-385.98" /></clipPath><radialGradient
       id="radialGradient36"
       spreadMethod="pad"
       gradientTransform="matrix(237.72188,0,0,237.72188,256.02499,256)"
       gradientUnits="userSpaceOnUse"
       r="1"
       cy="0"
       cx="0"
       fy="0"
       fx="0"><stop
         id="stop38"
         offset="0"
         style="stop-opacity:1;stop-color:#ffffff" /><stop
         id="stop40"
         offset="0.8587"
         style="stop-opacity:0.14129854;stop-color:#ffffff" /><stop
         id="stop42"
         offset="1"
         style="stop-opacity:0;stop-color:#ffffff" /></radialGradient><mask
       id="mask44"
       height="1"
       width="1"
       y="0"
       x="0"
       maskUnits="userSpaceOnUse"><g
         id="g46"><g
           id="g48"><g
             id="g50"><g
               id="g52"><path
                 id="path54"
                 style="fill:url(#radialGradient36);stroke:none"
                 d="m -32768,32767 65535,0 0,-65535 -65535,0 0,65535 z" /></g></g></g></g></mask><radialGradient
       id="radialGradient56"
       spreadMethod="pad"
       gradientTransform="matrix(237.72188,0,0,237.72188,256.02499,256)"
       gradientUnits="userSpaceOnUse"
       r="1"
       cy="0"
       cx="0"
       fy="0"
       fx="0"><stop
         id="stop58"
         offset="0"
         style="stop-opacity:1;stop-color:#010101" /><stop
         id="stop60"
         offset="0.8587"
         style="stop-opacity:1;stop-color:#010101" /><stop
         id="stop62"
         offset="1"
         style="stop-opacity:1;stop-color:#010101" /></radialGradient><clipPath
       id="clipPath86"
       clipPathUnits="userSpaceOnUse"><path
         id="path88"
         d="m 18.325,493.744 475.4,0 0,-475.4877 -475.4,0 0,475.4877 z" /></clipPath><clipPath
       id="clipPath90"
       clipPathUnits="userSpaceOnUse"><path
         id="path92"
         d="M 448.99,63.029 C 389.293,3.332 122.807,3.332 63.11,63.029 3.413,122.726 3.413,389.312 63.01,449.009 c 59.597,59.696 326.283,59.596 385.98,0 59.697,-59.597 59.597,-326.283 0,-385.98" /></clipPath><radialGradient
       id="radialGradient98"
       spreadMethod="pad"
       gradientTransform="matrix(188.25467,188.36119,-130.35883,130.27895,256.02499,256.04376)"
       gradientUnits="userSpaceOnUse"
       r="1"
       cy="0"
       cx="0"
       fy="0"
       fx="0"><stop
         id="stop100"
         offset="0"
         style="stop-opacity:1;stop-color:#ffffff" /><stop
         id="stop102"
         offset="0.8587"
         style="stop-opacity:0.14129854;stop-color:#ffffff" /><stop
         id="stop104"
         offset="1"
         style="stop-opacity:0;stop-color:#ffffff" /></radialGradient><mask
       id="mask106"
       height="1"
       width="1"
       y="0"
       x="0"
       maskUnits="userSpaceOnUse"><g
         id="g108"><g
           id="g110"><g
             id="g112"><g
               id="g114"><path
                 id="path116"
                 style="fill:url(#radialGradient98);stroke:none"
                 d="m -32768,32767 65535,0 0,-65535 -65535,0 0,65535 z" /></g></g></g></g></mask><radialGradient
       id="radialGradient118"
       spreadMethod="pad"
       gradientTransform="matrix(188.25467,188.36119,-130.35883,130.27895,256.02499,256.04376)"
       gradientUnits="userSpaceOnUse"
       r="1"
       cy="0"
       cx="0"
       fy="0"
       fx="0"><stop
         id="stop120"
         offset="0"
         style="stop-opacity:1;stop-color:#010101" /><stop
         id="stop122"
         offset="0.8587"
         style="stop-opacity:1;stop-color:#010101" /><stop
         id="stop124"
         offset="1"
         style="stop-opacity:1;stop-color:#010101" /></radialGradient><clipPath
       id="clipPath148"
       clipPathUnits="userSpaceOnUse"><path
         id="path150"
         d="m 18.275,493.694 475.387,0 0,-475.4377 -475.387,0 0,475.4377 z" /></clipPath><clipPath
       id="clipPath152"
       clipPathUnits="userSpaceOnUse"><path
         id="path154"
         d="m 63.01,63.029 c 59.697,-59.697 326.183,-59.697 385.88,0 59.697,59.697 59.697,326.183 0,385.88 -59.697,59.696 -326.183,59.696 -385.88,0.1 -59.697,-59.597 -59.597,-326.283 0,-385.98" /></clipPath><radialGradient
       id="radialGradient160"
       spreadMethod="pad"
       gradientTransform="matrix(-188.28767,188.39421,130.38168,130.30179,255.92499,255.99377)"
       gradientUnits="userSpaceOnUse"
       r="1"
       cy="0"
       cx="0"
       fy="0"
       fx="0"><stop
         id="stop162"
         offset="0"
         style="stop-opacity:1;stop-color:#ffffff" /><stop
         id="stop164"
         offset="0.8587"
         style="stop-opacity:0.14129854;stop-color:#ffffff" /><stop
         id="stop166"
         offset="1"
         style="stop-opacity:0;stop-color:#ffffff" /></radialGradient><mask
       id="mask168"
       height="1"
       width="1"
       y="0"
       x="0"
       maskUnits="userSpaceOnUse"><g
         id="g170"><g
           id="g172"><g
             id="g174"><g
               id="g176"><path
                 id="path178"
                 style="fill:url(#radialGradient160);stroke:none"
                 d="m -32768,32767 65535,0 0,-65535 -65535,0 0,65535 z" /></g></g></g></g></mask><radialGradient
       id="radialGradient180"
       spreadMethod="pad"
       gradientTransform="matrix(-188.28767,188.39421,130.38168,130.30179,255.92499,255.99377)"
       gradientUnits="userSpaceOnUse"
       r="1"
       cy="0"
       cx="0"
       fy="0"
       fx="0"><stop
         id="stop182"
         offset="0"
         style="stop-opacity:1;stop-color:#010101" /><stop
         id="stop184"
         offset="0.8587"
         style="stop-opacity:1;stop-color:#010101" /><stop
         id="stop186"
         offset="1"
         style="stop-opacity:1;stop-color:#010101" /></radialGradient><clipPath
       id="clipPath226"
       clipPathUnits="userSpaceOnUse"><path
         id="path228"
         d="m 112.668,315.618 286.664,0 0,-119.236 -286.664,0 0,119.236 z" /></clipPath></defs><g
     transform="matrix(1.25,0,0,-1.25,0,640)"
     id="g10"><g
       id="g12"><g
         clip-path="url(#clipPath16)"
         id="g14"><g
           id="g20"><g
             id="g22" /><g
             id="g64"><g
               style="opacity:0.39999402"
               id="g66"
               clip-path="url(#clipPath24)"><g
                 id="g68"><g
                   id="g70"
                   clip-path="url(#clipPath28)"><g
                     id="g72"><g
                       id="g74" /><g
                       id="g76"
                       mask="url(#mask44)"><g
                         id="g78"><path
                           id="path80"
                           style="fill:url(#radialGradient56);stroke:none"
                           d="M 448.99,63.029 C 389.293,3.332 122.807,3.332 63.11,63.029 3.413,122.726 3.413,389.312 63.01,449.009 c 59.597,59.696 326.283,59.596 385.98,0 59.697,-59.597 59.597,-326.283 0,-385.98" /></g></g></g></g></g></g></g></g><g
           id="g82"><g
             id="g84" /><g
             id="g126"><g
               style="opacity:0.39999402"
               id="g128"
               clip-path="url(#clipPath86)"><g
                 id="g130"><g
                   id="g132"
                   clip-path="url(#clipPath90)"><g
                     id="g134"><g
                       id="g136" /><g
                       id="g138"
                       mask="url(#mask106)"><g
                         id="g140"><path
                           id="path142"
                           style="fill:url(#radialGradient118);stroke:none"
                           d="M 448.99,63.029 C 389.293,3.332 122.807,3.332 63.11,63.029 3.413,122.726 3.413,389.312 63.01,449.009 c 59.597,59.696 326.283,59.596 385.98,0 59.697,-59.597 59.597,-326.283 0,-385.98" /></g></g></g></g></g></g></g></g><g
           id="g144"><g
             id="g146" /><g
             id="g188"><g
               style="opacity:0.39999402"
               id="g190"
               clip-path="url(#clipPath148)"><g
                 id="g192"><g
                   id="g194"
                   clip-path="url(#clipPath152)"><g
                     id="g196"><g
                       id="g198" /><g
                       id="g200"
                       mask="url(#mask168)"><g
                         id="g202"><path
                           id="path204"
                           style="fill:url(#radialGradient180);stroke:none"
                           d="m 63.01,63.029 c 59.697,-59.697 326.183,-59.697 385.88,0 59.697,59.697 59.697,326.183 0,385.88 -59.697,59.696 -326.183,59.696 -385.88,0.1 -59.697,-59.597 -59.597,-326.283 0,-385.98" /></g></g></g></g></g></g></g></g><g
           transform="translate(433.2792,78.7208)"
           id="g206"><path
             id="path208"
             style="fill:#c10524;fill-opacity:1;fill-rule:nonzero;stroke:none"
             d="m 0,0 c -70.294,-70.294 -284.264,-70.294 -354.558,0 -70.295,70.294 -70.295,284.264 0,354.558 70.294,70.295 284.264,70.295 354.558,0 C 70.294,284.264 70.294,70.294 0,0" /></g><g
           transform="translate(342.1953,126.5186)"
           id="g210"><path
             id="path212"
             style="fill:#000000;fill-opacity:1;fill-rule:nonzero;stroke:none"
             d="m 0,0 c -8.188,7.696 -17.414,14.301 -27.452,19.57 -3.424,-3.277 -6.817,-6.476 -10.135,-9.604 -6.398,-6.031 -12.441,-11.728 -17.863,-17.193 -8.192,-8.192 -19.104,-12.693 -30.745,-12.693 -11.642,0 -22.553,4.501 -30.726,12.672 -4.332,4.3 -9.054,8.817 -14.053,13.6 -4.261,4.076 -8.707,8.331 -13.235,12.764 -10.016,-5.304 -19.236,-11.915 -27.432,-19.604 25.151,-16.609 54.611,-25.531 85.446,-25.531 31.139,0 60.881,9.092 86.195,26.019" /></g><g
           transform="translate(292.8139,229.4809)"
           id="g214"><path
             id="path216"
             style="fill:#000000;fill-opacity:1;fill-rule:nonzero;stroke:none"
             d="m 0,0 c -2.789,0.279 -5.02,2.51 -5.299,5.299 -1.394,9.203 -3.068,30.399 8.367,41.834 11.434,11.435 32.63,9.761 41.834,8.367 2.789,-0.279 5.02,-2.51 5.299,-5.299 1.394,-9.204 3.068,-30.4 -8.367,-41.834 C 30.399,-3.068 9.203,-1.394 0,0 M -68.329,5.299 C -68.608,2.51 -70.839,0.279 -73.628,0 c -9.203,-1.394 -30.399,-3.068 -41.834,8.367 -11.434,11.434 -9.761,32.63 -8.366,41.834 0.278,2.789 2.51,5.02 5.298,5.299 9.204,1.394 30.4,3.068 41.834,-8.367 11.435,-11.156 9.762,-32.352 8.367,-41.834 m 31.515,166.22 c -68.05,0 -123.271,-55.221 -123.271,-123.271 0,-67.492 61.636,-117.135 97.892,-153.112 13.944,-13.944 36.814,-13.944 50.758,0 35.978,36.256 97.892,81.716 97.892,153.112 0,68.05 -55.221,123.271 -123.271,123.271" /></g><g
           transform="translate(256,436.5)"
           id="g218"><path
             id="path220"
             style="fill:#000000;fill-opacity:1;fill-rule:nonzero;stroke:none"
             d="m 0,0 c -99.687,0 -180.5,-80.813 -180.5,-180.5 0,-99.687 80.813,-180.5 180.5,-180.5 99.687,0 180.5,80.813 180.5,180.5 C 180.5,-80.813 99.687,0 0,0 m 0,-25 c 41.536,0 80.585,-16.175 109.955,-45.545 29.37,-29.37 45.545,-68.419 45.545,-109.955 0,-41.536 -16.175,-80.585 -45.545,-109.955 C 80.585,-319.825 41.536,-336 0,-336 c -41.536,0 -80.585,16.175 -109.955,45.545 -29.37,29.37 -45.545,68.419 -45.545,109.955 0,41.536 16.175,80.585 45.545,109.955 C -80.585,-41.175 -41.536,-25 0,-25" /></g><g
           id="g222"><g
             id="g224" /><g
             id="g230"><g
               style="opacity:0.69000202"
               id="g232"
               clip-path="url(#clipPath226)"><g
                 id="g234"
                 transform="translate(339.7157,315.6177)"><path
                   id="path236"
                   style="fill:#ffffff;fill-opacity:1;fill-rule:nonzero;stroke:none"
                   d="m 0,0 -167.431,0 c -32.926,0 -59.617,-26.692 -59.617,-59.618 0,-32.926 26.691,-59.617 59.617,-59.617 l 167.43,0 c 32.926,0 59.618,26.691 59.618,59.617 C 59.617,-26.692 32.926,0 0,0" /></g></g></g></g><g
           transform="translate(196.0937,269.1791)"
           id="g238"><path
             id="path240"
             style="fill:#000000;fill-opacity:1;fill-rule:nonzero;stroke:none"
             d="m 0,0 c -1.454,2.519 -4.675,3.381 -7.193,1.927 l -36.535,-21.094 c -2.519,-1.453 -3.382,-4.674 -1.927,-7.193 1.454,-2.519 4.675,-3.381 7.193,-1.927 L -1.927,-7.193 C 0.591,-5.739 1.455,-2.518 0,0" /></g><g
           transform="translate(194.1669,250.0133)"
           id="g242"><path
             id="path244"
             style="fill:#000000;fill-opacity:1;fill-rule:nonzero;stroke:none"
             d="m 0,0 -36.535,21.093 c -2.519,1.454 -5.739,0.591 -7.193,-1.926 -1.454,-2.519 -0.591,-5.739 1.927,-7.194 L -5.266,-9.12 c 2.518,-1.454 5.738,-0.591 7.193,1.927 C 3.381,-4.675 2.518,-1.454 0,0" /></g><g
           transform="translate(173.2666,282.3591)"
           id="g246"><path
             id="path248"
             style="fill:#000000;fill-opacity:1;fill-rule:nonzero;stroke:none"
             d="m 0,0 c -2.908,0 -5.266,-2.357 -5.266,-5.266 l 0,-42.187 c 0,-2.908 2.358,-5.265 5.266,-5.265 2.908,0 5.266,2.357 5.266,5.265 l 0,42.187 C 5.266,-2.357 2.908,0 0,0" /></g><g
           transform="translate(251.2503,269.1791)"
           id="g250"><path
             id="path252"
             style="fill:#000000;fill-opacity:1;fill-rule:nonzero;stroke:none"
             d="m 0,0 c -1.454,2.519 -4.675,3.381 -7.193,1.927 l -36.535,-21.094 c -2.519,-1.453 -3.382,-4.674 -1.927,-7.193 1.454,-2.519 4.675,-3.381 7.193,-1.927 L -1.927,-7.193 C 0.591,-5.739 1.454,-2.518 0,0" /></g><g
           transform="translate(249.3226,250.0133)"
           id="g254"><path
             id="path256"
             style="fill:#000000;fill-opacity:1;fill-rule:nonzero;stroke:none"
             d="m 0,0 -36.535,21.093 c -2.519,1.454 -5.739,0.591 -7.193,-1.926 -1.454,-2.519 -0.591,-5.739 1.927,-7.194 L -5.266,-9.12 c 2.518,-1.454 5.738,-0.591 7.193,1.927 C 3.381,-4.675 2.519,-1.454 0,0" /></g><g
           transform="translate(228.4223,282.3591)"
           id="g258"><path
             id="path260"
             style="fill:#000000;fill-opacity:1;fill-rule:nonzero;stroke:none"
             d="m 0,0 c -2.908,0 -5.266,-2.357 -5.266,-5.266 l 0,-42.187 c 0,-2.908 2.358,-5.265 5.266,-5.265 2.908,0 5.266,2.357 5.266,5.265 l 0,42.187 C 5.266,-2.357 2.908,0 0,0" /></g><g
           transform="translate(306.406,269.1791)"
           id="g262"><path
             id="path264"
             style="fill:#000000;fill-opacity:1;fill-rule:nonzero;stroke:none"
             d="m 0,0 c -1.454,2.519 -4.675,3.381 -7.193,1.927 l -36.535,-21.094 c -2.519,-1.453 -3.382,-4.674 -1.927,-7.193 1.454,-2.519 4.675,-3.381 7.193,-1.927 L -1.927,-7.193 C 0.591,-5.739 1.454,-2.518 0,0" /></g><g
           transform="translate(304.4792,250.0133)"
           id="g266"><path
             id="path268"
             style="fill:#000000;fill-opacity:1;fill-rule:nonzero;stroke:none"
             d="m 0,0 -36.535,21.093 c -2.519,1.454 -5.739,0.591 -7.193,-1.926 -1.454,-2.519 -0.591,-5.739 1.927,-7.194 L -5.266,-9.12 c 2.518,-1.454 5.738,-0.591 7.193,1.927 C 3.381,-4.675 2.518,-1.454 0,0" /></g><g
           transform="translate(283.5781,282.3591)"
           id="g270"><path
             id="path272"
             style="fill:#000000;fill-opacity:1;fill-rule:nonzero;stroke:none"
             d="m 0,0 c -2.908,0 -5.266,-2.357 -5.266,-5.266 l 0,-42.187 c 0,-2.908 2.358,-5.265 5.266,-5.265 2.908,0 5.266,2.357 5.266,5.265 l 0,42.187 C 5.266,-2.357 2.908,0 0,0" /></g><g
           transform="translate(361.5618,269.1791)"
           id="g274"><path
             id="path276"
             style="fill:#000000;fill-opacity:1;fill-rule:nonzero;stroke:none"
             d="m 0,0 c -1.454,2.519 -4.675,3.381 -7.193,1.927 l -36.535,-21.094 c -2.519,-1.453 -3.382,-4.674 -1.927,-7.193 1.454,-2.519 4.675,-3.381 7.193,-1.927 L -1.927,-7.193 C 0.592,-5.739 1.454,-2.518 0,0" /></g><g
           transform="translate(359.6341,250.0133)"
           id="g278"><path
             id="path280"
             style="fill:#000000;fill-opacity:1;fill-rule:nonzero;stroke:none"
             d="m 0,0 -36.535,21.093 c -2.519,1.454 -5.739,0.591 -7.193,-1.926 -1.454,-2.519 -0.591,-5.739 1.927,-7.194 L -5.266,-9.12 c 2.518,-1.454 5.738,-0.591 7.193,1.927 C 3.381,-4.675 2.519,-1.454 0,0" /></g><g
           transform="translate(338.7338,282.3591)"
           id="g282"><path
             id="path284"
             style="fill:#000000;fill-opacity:1;fill-rule:nonzero;stroke:none"
             d="m 0,0 c -2.908,0 -5.266,-2.357 -5.266,-5.266 l 0,-42.187 c 0,-2.908 2.358,-5.265 5.266,-5.265 2.908,0 5.266,2.357 5.266,5.265 l 0,42.187 C 5.266,-2.357 2.908,0 0,0" /></g></g></g></g></svg>