<?xml version="1.0" encoding="UTF-8" standalone="no"?>
<svg
   xmlns:dc="http://purl.org/dc/elements/1.1/"
   xmlns:cc="http://creativecommons.org/ns#"
   xmlns:rdf="http://www.w3.org/1999/02/22-rdf-syntax-ns#"
   xmlns:svg="http://www.w3.org/2000/svg"
   xmlns="http://www.w3.org/2000/svg"
   id="svg2"
   version="1.1"
   xml:space="preserve"
   width="640"
   height="640"
   viewBox="0 0 640 640"><metadata
     id="metadata8"><rdf:RDF><cc:Work
         rdf:about=""><dc:format>image/svg+xml</dc:format><dc:type
           rdf:resource="http://purl.org/dc/dcmitype/StillImage" /><dc:title></dc:title></cc:Work></rdf:RDF></metadata><defs
     id="defs6"><clipPath
       clipPathUnits="userSpaceOnUse"
       id="clipPath16"><path
         d="M 0,512 512,512 512,0 0,0 0,512 Z"
         id="path18" /></clipPath><clipPath
       clipPathUnits="userSpaceOnUse"
       id="clipPath24"><path
         d="m 18.325,493.744 475.4,0 0,-475.4877 -475.4,0 0,475.4877 z"
         id="path26" /></clipPath><clipPath
       clipPathUnits="userSpaceOnUse"
       id="clipPath28"><path
         d="M 448.99,63.029 C 389.293,3.332 122.807,3.332 63.11,63.029 3.413,122.726 3.413,389.312 63.01,449.009 c 59.597,59.696 326.283,59.596 385.98,0 59.697,-59.597 59.597,-326.283 0,-385.98"
         id="path30" /></clipPath><radialGradient
       fx="0"
       fy="0"
       cx="0"
       cy="0"
       r="1"
       gradientUnits="userSpaceOnUse"
       gradientTransform="matrix(237.72188,0,0,237.72188,256.02499,256)"
       spreadMethod="pad"
       id="radialGradient36"><stop
         style="stop-opacity:1;stop-color:#ffffff"
         offset="0"
         id="stop38" /><stop
         style="stop-opacity:0.14129854;stop-color:#ffffff"
         offset="0.8587"
         id="stop40" /><stop
         style="stop-opacity:0;stop-color:#ffffff"
         offset="1"
         id="stop42" /></radialGradient><mask
       maskUnits="userSpaceOnUse"
       x="0"
       y="0"
       width="1"
       height="1"
       id="mask44"><g
         id="g46"><g
           id="g48"><g
             id="g50"><g
               id="g52"><path
                 d="m -32768,32767 65535,0 0,-65535 -65535,0 0,65535 z"
                 style="fill:url(#radialGradient36);stroke:none"
                 id="path54" /></g></g></g></g></mask><radialGradient
       fx="0"
       fy="0"
       cx="0"
       cy="0"
       r="1"
       gradientUnits="userSpaceOnUse"
       gradientTransform="matrix(237.72188,0,0,237.72188,256.02499,256)"
       spreadMethod="pad"
       id="radialGradient56"><stop
         style="stop-opacity:1;stop-color:#010101"
         offset="0"
         id="stop58" /><stop
         style="stop-opacity:1;stop-color:#010101"
         offset="0.8587"
         id="stop60" /><stop
         style="stop-opacity:1;stop-color:#010101"
         offset="1"
         id="stop62" /></radialGradient><clipPath
       clipPathUnits="userSpaceOnUse"
       id="clipPath86"><path
         d="m 18.325,493.744 475.4,0 0,-475.4877 -475.4,0 0,475.4877 z"
         id="path88" /></clipPath><clipPath
       clipPathUnits="userSpaceOnUse"
       id="clipPath90"><path
         d="M 448.99,63.029 C 389.293,3.332 122.807,3.332 63.11,63.029 3.413,122.726 3.413,389.312 63.01,449.009 c 59.597,59.696 326.283,59.596 385.98,0 59.697,-59.597 59.597,-326.283 0,-385.98"
         id="path92" /></clipPath><radialGradient
       fx="0"
       fy="0"
       cx="0"
       cy="0"
       r="1"
       gradientUnits="userSpaceOnUse"
       gradientTransform="matrix(188.25467,188.36119,-130.35883,130.27895,256.02499,256.04376)"
       spreadMethod="pad"
       id="radialGradient98"><stop
         style="stop-opacity:1;stop-color:#ffffff"
         offset="0"
         id="stop100" /><stop
         style="stop-opacity:0.14129854;stop-color:#ffffff"
         offset="0.8587"
         id="stop102" /><stop
         style="stop-opacity:0;stop-color:#ffffff"
         offset="1"
         id="stop104" /></radialGradient><mask
       maskUnits="userSpaceOnUse"
       x="0"
       y="0"
       width="1"
       height="1"
       id="mask106"><g
         id="g108"><g
           id="g110"><g
             id="g112"><g
               id="g114"><path
                 d="m -32768,32767 65535,0 0,-65535 -65535,0 0,65535 z"
                 style="fill:url(#radialGradient98);stroke:none"
                 id="path116" /></g></g></g></g></mask><radialGradient
       fx="0"
       fy="0"
       cx="0"
       cy="0"
       r="1"
       gradientUnits="userSpaceOnUse"
       gradientTransform="matrix(188.25467,188.36119,-130.35883,130.27895,256.02499,256.04376)"
       spreadMethod="pad"
       id="radialGradient118"><stop
         style="stop-opacity:1;stop-color:#010101"
         offset="0"
         id="stop120" /><stop
         style="stop-opacity:1;stop-color:#010101"
         offset="0.8587"
         id="stop122" /><stop
         style="stop-opacity:1;stop-color:#010101"
         offset="1"
         id="stop124" /></radialGradient><clipPath
       clipPathUnits="userSpaceOnUse"
       id="clipPath148"><path
         d="m 18.275,493.694 475.387,0 0,-475.4377 -475.387,0 0,475.4377 z"
         id="path150" /></clipPath><clipPath
       clipPathUnits="userSpaceOnUse"
       id="clipPath152"><path
         d="m 63.01,63.029 c 59.697,-59.697 326.183,-59.697 385.88,0 59.697,59.697 59.697,326.183 0,385.88 -59.697,59.696 -326.183,59.696 -385.88,0.1 -59.697,-59.597 -59.597,-326.283 0,-385.98"
         id="path154" /></clipPath><radialGradient
       fx="0"
       fy="0"
       cx="0"
       cy="0"
       r="1"
       gradientUnits="userSpaceOnUse"
       gradientTransform="matrix(-188.28767,188.39421,130.38168,130.30179,255.92499,255.99377)"
       spreadMethod="pad"
       id="radialGradient160"><stop
         style="stop-opacity:1;stop-color:#ffffff"
         offset="0"
         id="stop162" /><stop
         style="stop-opacity:0.14129854;stop-color:#ffffff"
         offset="0.8587"
         id="stop164" /><stop
         style="stop-opacity:0;stop-color:#ffffff"
         offset="1"
         id="stop166" /></radialGradient><mask
       maskUnits="userSpaceOnUse"
       x="0"
       y="0"
       width="1"
       height="1"
       id="mask168"><g
         id="g170"><g
           id="g172"><g
             id="g174"><g
               id="g176"><path
                 d="m -32768,32767 65535,0 0,-65535 -65535,0 0,65535 z"
                 style="fill:url(#radialGradient160);stroke:none"
                 id="path178" /></g></g></g></g></mask><radialGradient
       fx="0"
       fy="0"
       cx="0"
       cy="0"
       r="1"
       gradientUnits="userSpaceOnUse"
       gradientTransform="matrix(-188.28767,188.39421,130.38168,130.30179,255.92499,255.99377)"
       spreadMethod="pad"
       id="radialGradient180"><stop
         style="stop-opacity:1;stop-color:#010101"
         offset="0"
         id="stop182" /><stop
         style="stop-opacity:1;stop-color:#010101"
         offset="0.8587"
         id="stop184" /><stop
         style="stop-opacity:1;stop-color:#010101"
         offset="1"
         id="stop186" /></radialGradient><linearGradient
       x1="0"
       y1="0"
       x2="1"
       y2="0"
       gradientUnits="userSpaceOnUse"
       gradientTransform="matrix(459.99939,0,0,459.99939,26.000477,256)"
       spreadMethod="pad"
       id="linearGradient218"><stop
         style="stop-opacity:1;stop-color:#1f1f21"
         offset="0"
         id="stop220" /><stop
         style="stop-opacity:1;stop-color:#1f1f21"
         offset="1"
         id="stop222" /></linearGradient><clipPath
       clipPathUnits="userSpaceOnUse"
       id="clipPath230"><path
         d="M 0,512 512,512 512,0 0,0 0,512 Z"
         id="path232" /></clipPath><clipPath
       clipPathUnits="userSpaceOnUse"
       id="clipPath286"><path
         d="M 0,512 512,512 512,0 0,0 0,512 Z"
         id="path288" /></clipPath></defs><g
     id="g10"
     transform="matrix(1.25,0,0,-1.25,0,640)"><g
       id="g12"><g
         id="g14"
         clip-path="url(#clipPath16)"><g
           id="g20"><g
             id="g22" /><g
             id="g64"><g
               clip-path="url(#clipPath24)"
               id="g66"
               style="opacity:0.39999402"><g
                 id="g68"><g
                   clip-path="url(#clipPath28)"
                   id="g70"><g
                     id="g72"><g
                       id="g74" /><g
                       mask="url(#mask44)"
                       id="g76"><g
                         id="g78"><path
                           d="M 448.99,63.029 C 389.293,3.332 122.807,3.332 63.11,63.029 3.413,122.726 3.413,389.312 63.01,449.009 c 59.597,59.696 326.283,59.596 385.98,0 59.697,-59.597 59.597,-326.283 0,-385.98"
                           style="fill:url(#radialGradient56);stroke:none"
                           id="path80" /></g></g></g></g></g></g></g></g><g
           id="g82"><g
             id="g84" /><g
             id="g126"><g
               clip-path="url(#clipPath86)"
               id="g128"
               style="opacity:0.39999402"><g
                 id="g130"><g
                   clip-path="url(#clipPath90)"
                   id="g132"><g
                     id="g134"><g
                       id="g136" /><g
                       mask="url(#mask106)"
                       id="g138"><g
                         id="g140"><path
                           d="M 448.99,63.029 C 389.293,3.332 122.807,3.332 63.11,63.029 3.413,122.726 3.413,389.312 63.01,449.009 c 59.597,59.696 326.283,59.596 385.98,0 59.697,-59.597 59.597,-326.283 0,-385.98"
                           style="fill:url(#radialGradient118);stroke:none"
                           id="path142" /></g></g></g></g></g></g></g></g><g
           id="g144"><g
             id="g146" /><g
             id="g188"><g
               clip-path="url(#clipPath148)"
               id="g190"
               style="opacity:0.39999402"><g
                 id="g192"><g
                   clip-path="url(#clipPath152)"
                   id="g194"><g
                     id="g196"><g
                       id="g198" /><g
                       mask="url(#mask168)"
                       id="g200"><g
                         id="g202"><path
                           d="m 63.01,63.029 c 59.697,-59.697 326.183,-59.697 385.88,0 59.697,59.697 59.697,326.183 0,385.88 -59.697,59.696 -326.183,59.696 -385.88,0.1 -59.697,-59.597 -59.597,-326.283 0,-385.98"
                           style="fill:url(#radialGradient180);stroke:none"
                           id="path204" /></g></g></g></g></g></g></g></g></g></g><g
       id="g206"><g
         id="g208"><g
           id="g214"><g
             id="g216"><path
               d="M 78.721,433.279 C 8.427,362.985 8.427,149.015 78.721,78.721 l 0,0 c 70.294,-70.294 284.264,-70.294 354.558,0 l 0,0 c 70.295,70.294 70.294,284.264 0,354.558 l 0,0 C 398.132,468.426 327.066,486 256,486 l 0,0 C 184.934,486 113.868,468.426 78.721,433.279"
               style="fill:#ff8c00;stroke:none;fill-opacity:1"
               id="path224" /></g></g></g></g><g
       id="g226"><g
         id="g228"
         clip-path="url(#clipPath230)"><g
           id="g234"
           transform="translate(422.0173,376.3018)"><path
             d="m 0,0 27.936,0 2.323,4.685 C 26.02,14.902 21.231,24.124 15.937,32.135 L 0,0 Z"
             style="fill:#ffffff;fill-opacity:1;fill-rule:nonzero;stroke:none"
             id="path236" /></g><g
           id="g238"
           transform="translate(383.2319,376.3018)"><path
             d="m 0,0 27.936,0 20.323,40.98 c -2.167,2.686 -4.395,5.21 -6.697,7.512 -4.634,4.633 -10.076,8.995 -16.22,13.067 L 27.936,56.329 0,0 Z"
             style="fill:#ffffff;fill-opacity:1;fill-rule:nonzero;stroke:none"
             id="path240" /></g><g
           id="g242"
           transform="translate(344.4464,376.3018)"><path
             d="m 0,0 27.936,0 27.935,56.329 -6.93,13.974 C 38.627,75.496 26.989,80.038 14.285,83.854 L 27.936,56.329 0,0 Z"
             style="fill:#ffffff;fill-opacity:1;fill-rule:nonzero;stroke:none"
             id="path244" /></g><g
           id="g246"
           transform="translate(305.6609,376.3018)"><path
             d="M 0,0 27.936,0 55.871,56.329 40.506,87.311 C 30.674,89.769 20.317,91.822 9.535,93.433 L 27.936,56.329 0,0 Z"
             style="fill:#ffffff;fill-opacity:1;fill-rule:nonzero;stroke:none"
             id="path248" /></g><g
           id="g250"
           transform="translate(266.8754,376.3018)"><path
             d="M 0,0 27.936,0 55.871,56.329 36.705,94.976 c -9.436,1.106 -19.153,1.878 -29.081,2.31 L 27.936,56.329 0,0 Z"
             style="fill:#ffffff;fill-opacity:1;fill-rule:nonzero;stroke:none"
             id="path252" /></g><g
           id="g254"
           transform="translate(228.0899,376.3018)"><path
             d="m 0,0 27.936,0 27.935,56.329 -20.481,41.3 c -2.483,0.043 -4.975,0.069 -7.48,0.069 -6.836,0 -13.592,-0.164 -20.252,-0.482 L 27.936,56.329 0,0 Z"
             style="fill:#ffffff;fill-opacity:1;fill-rule:nonzero;stroke:none"
             id="path256" /></g><g
           id="g258"
           transform="translate(189.3044,376.3018)"><path
             d="M 0,0 27.936,0 55.871,56.329 35.916,96.566 C 26.851,95.899 17.996,94.94 9.401,93.702 L 27.936,56.329 0,0 Z"
             style="fill:#ffffff;fill-opacity:1;fill-rule:nonzero;stroke:none"
             id="path260" /></g><g
           id="g262"
           transform="translate(150.519,376.3018)"><path
             d="M 0,0 27.936,0 55.871,56.329 38.127,92.108 C 29.382,90.59 20.951,88.775 12.882,86.683 L 27.936,56.329 0,0 Z"
             style="fill:#ffffff;fill-opacity:1;fill-rule:nonzero;stroke:none"
             id="path264" /></g><g
           id="g266"
           transform="translate(170.3148,476.9589)"><path
             d="M 0,0 C 0.019,0.004 0.038,0.009 0.057,0.013 0.038,0.009 0.019,0.004 0,0"
             style="fill:#ffffff;fill-opacity:1;fill-rule:nonzero;stroke:none"
             id="path268" /></g><g
           id="g270"
           transform="translate(111.7335,376.3018)"><path
             d="M 0,0 27.936,0 55.871,56.329 42.131,84.034 C 33.729,81.533 25.781,78.719 18.376,75.605 L 27.936,56.329 0,0 Z"
             style="fill:#ffffff;fill-opacity:1;fill-rule:nonzero;stroke:none"
             id="path272" /></g><g
           id="g274"
           transform="translate(111.7335,437.9351)"><path
             d="m 0,0 c 2.761,0 5,-2.239 5,-5 0,-2.761 -2.239,-5 -5,-5 -2.761,0 -5,2.239 -5,5 0,2.761 2.239,5 5,5 M 17.086,-5.304 9.509,9.973 C -4.263,3.33 -15.815,-4.429 -24.527,-13.141 -36.136,-24.75 -46.055,-41.393 -53.888,-61.633 l 43.038,0 27.936,56.329 z"
             style="fill:#ffffff;fill-opacity:1;fill-rule:nonzero;stroke:none"
             id="path276" /></g><g
           id="g278"
           transform="translate(53.6014,364.3464)"><path
             d="m 0,0 404.797,0 c -0.641,1.969 -1.3,3.908 -1.976,5.82 L 1.977,5.82 C 1.3,3.908 0.641,1.969 0,0"
             style="fill:#ffffff;fill-opacity:1;fill-rule:nonzero;stroke:none"
             id="path280" /></g></g></g><g
       id="g282"><g
         id="g284"
         clip-path="url(#clipPath286)"><g
           id="g290"
           transform="translate(112.6555,136.0713)"><path
             d="m 0,0 c 0,3.775 2.551,6.429 6.123,6.429 3.57,0 6.019,-2.654 6.019,-6.429 0,-3.674 -2.347,-6.429 -6.122,-6.429 C 2.449,-6.429 0,-3.674 0,0"
             style="fill:#ffffff;fill-opacity:1;fill-rule:nonzero;stroke:none"
             id="path292" /></g><g
           id="g294"
           transform="translate(133.7742,136.0713)"><path
             d="m 0,0 c 0,3.775 2.551,6.429 6.123,6.429 3.57,0 6.019,-2.654 6.019,-6.429 0,-3.674 -2.347,-6.429 -6.122,-6.429 C 2.449,-6.429 0,-3.674 0,0"
             style="fill:#ffffff;fill-opacity:1;fill-rule:nonzero;stroke:none"
             id="path296" /></g><g
           id="g298"
           transform="translate(154.8936,136.0713)"><path
             d="m 0,0 c 0,3.775 2.551,6.429 6.122,6.429 3.571,0 6.02,-2.654 6.02,-6.429 0,-3.674 -2.347,-6.429 -6.122,-6.429 C 2.449,-6.429 0,-3.674 0,0"
             style="fill:#ffffff;fill-opacity:1;fill-rule:nonzero;stroke:none"
             id="path300" /></g><g
           id="g302"
           transform="translate(176.0124,136.0713)"><path
             d="m 0,0 c 0,3.775 2.551,6.429 6.122,6.429 3.571,0 6.02,-2.654 6.02,-6.429 0,-3.674 -2.347,-6.429 -6.122,-6.429 C 2.449,-6.429 0,-3.674 0,0"
             style="fill:#ffffff;fill-opacity:1;fill-rule:nonzero;stroke:none"
             id="path304" /></g><g
           id="g306"
           transform="translate(197.1311,136.0713)"><path
             d="m 0,0 c 0,3.775 2.551,6.429 6.122,6.429 3.571,0 6.02,-2.654 6.02,-6.429 0,-3.674 -2.347,-6.429 -6.122,-6.429 C 2.449,-6.429 0,-3.674 0,0"
             style="fill:#ffffff;fill-opacity:1;fill-rule:nonzero;stroke:none"
             id="path308" /></g><g
           id="g310"
           transform="translate(218.2505,136.0713)"><path
             d="m 0,0 c 0,3.775 2.551,6.429 6.123,6.429 3.57,0 6.019,-2.654 6.019,-6.429 0,-3.674 -2.347,-6.429 -6.122,-6.429 C 2.449,-6.429 0,-3.674 0,0"
             style="fill:#ffffff;fill-opacity:1;fill-rule:nonzero;stroke:none"
             id="path312" /></g><g
           id="g314"
           transform="translate(239.3692,136.0713)"><path
             d="m 0,0 c 0,3.775 2.551,6.429 6.123,6.429 3.57,0 6.019,-2.654 6.019,-6.429 0,-3.674 -2.347,-6.429 -6.122,-6.429 C 2.449,-6.429 0,-3.674 0,0"
             style="fill:#ffffff;fill-opacity:1;fill-rule:nonzero;stroke:none"
             id="path316" /></g><g
           id="g318"
           transform="translate(260.4879,136.0713)"><path
             d="m 0,0 c 0,3.775 2.551,6.429 6.123,6.429 3.57,0 6.019,-2.654 6.019,-6.429 0,-3.674 -2.347,-6.429 -6.122,-6.429 C 2.449,-6.429 0,-3.674 0,0"
             style="fill:#ffffff;fill-opacity:1;fill-rule:nonzero;stroke:none"
             id="path320" /></g><g
           id="g322"
           transform="translate(281.6074,136.0713)"><path
             d="M 0,0 C 0,3.775 2.551,6.429 6.122,6.429 9.693,6.429 12.143,3.775 12.143,0 12.143,-3.674 9.795,-6.429 6.02,-6.429 2.449,-6.429 0,-3.674 0,0"
             style="fill:#ffffff;fill-opacity:1;fill-rule:nonzero;stroke:none"
             id="path324" /></g><g
           id="g326"
           transform="translate(302.7274,136.0713)"><path
             d="m 0,0 c 0,3.775 2.551,6.429 6.123,6.429 3.57,0 6.019,-2.654 6.019,-6.429 0,-3.674 -2.346,-6.429 -6.122,-6.429 C 2.449,-6.429 0,-3.674 0,0"
             style="fill:#ffffff;fill-opacity:1;fill-rule:nonzero;stroke:none"
             id="path328" /></g><g
           id="g330"
           transform="translate(323.8462,136.0713)"><path
             d="m 0,0 c 0,3.775 2.551,6.429 6.123,6.429 3.57,0 6.019,-2.654 6.019,-6.429 0,-3.674 -2.346,-6.429 -6.122,-6.429 C 2.449,-6.429 0,-3.674 0,0"
             style="fill:#ffffff;fill-opacity:1;fill-rule:nonzero;stroke:none"
             id="path332" /></g><g
           id="g334"
           transform="translate(344.9649,136.0713)"><path
             d="m 0,0 c 0,3.775 2.551,6.429 6.123,6.429 3.57,0 6.019,-2.654 6.019,-6.429 0,-3.674 -2.346,-6.429 -6.122,-6.429 C 2.449,-6.429 0,-3.674 0,0"
             style="fill:#ffffff;fill-opacity:1;fill-rule:nonzero;stroke:none"
             id="path336" /></g><g
           id="g338"
           transform="translate(366.0836,136.0713)"><path
             d="m 0,0 c 0,3.775 2.551,6.429 6.123,6.429 3.57,0 6.019,-2.654 6.019,-6.429 0,-3.674 -2.346,-6.429 -6.122,-6.429 C 2.449,-6.429 0,-3.674 0,0"
             style="fill:#ffffff;fill-opacity:1;fill-rule:nonzero;stroke:none"
             id="path340" /></g><g
           id="g342"
           transform="translate(387.2023,136.0713)"><path
             d="m 0,0 c 0,3.775 2.551,6.429 6.123,6.429 3.57,0 6.019,-2.654 6.019,-6.429 0,-3.674 -2.346,-6.429 -6.122,-6.429 C 2.449,-6.429 0,-3.674 0,0"
             style="fill:#ffffff;fill-opacity:1;fill-rule:nonzero;stroke:none"
             id="path344" /></g><g
           id="g346"
           transform="translate(215.357,188.0056)"><path
             d="M 0,0 0.051,0 118.676,118.625 105.001,132.301 -37.339,-10.039 0,0 Z"
             style="fill:#ffffff;fill-opacity:1;fill-rule:nonzero;stroke:none"
             id="path348" /></g><g
           id="g350"
           transform="translate(188.0056,215.357)"><path
             d="m 0,0 0,0 -10.039,-37.39 0.051,0 142.34,142.339 -13.727,13.727 L 0,0 Z"
             style="fill:#bbbbbb;fill-opacity:1;fill-rule:nonzero;stroke:none"
             id="path352" /></g></g></g></g></svg>