<?xml version="1.0" encoding="UTF-8" standalone="no"?>
<svg
   xmlns:dc="http://purl.org/dc/elements/1.1/"
   xmlns:cc="http://creativecommons.org/ns#"
   xmlns:rdf="http://www.w3.org/1999/02/22-rdf-syntax-ns#"
   xmlns:svg="http://www.w3.org/2000/svg"
   xmlns="http://www.w3.org/2000/svg"
   viewBox="0 0 640 640"
   height="640"
   width="640"
   xml:space="preserve"
   version="1.1"
   id="svg2"><metadata
     id="metadata8"><rdf:RDF><cc:Work
         rdf:about=""><dc:format>image/svg+xml</dc:format><dc:type
           rdf:resource="http://purl.org/dc/dcmitype/StillImage" /></cc:Work></rdf:RDF></metadata><defs
     id="defs6"><clipPath
       id="clipPath16"
       clipPathUnits="userSpaceOnUse"><path
         id="path18"
         d="M 0,512 512,512 512,0 0,0 0,512 Z" /></clipPath><clipPath
       id="clipPath24"
       clipPathUnits="userSpaceOnUse"><path
         id="path26"
         d="m 18.325,493.744 475.4,0 0,-475.4877 -475.4,0 0,475.4877 z" /></clipPath><clipPath
       id="clipPath28"
       clipPathUnits="userSpaceOnUse"><path
         id="path30"
         d="M 448.99,63.029 C 389.293,3.332 122.807,3.332 63.11,63.029 3.413,122.726 3.413,389.312 63.01,449.009 c 59.597,59.696 326.283,59.596 385.98,0 59.697,-59.597 59.597,-326.283 0,-385.98" /></clipPath><radialGradient
       id="radialGradient36"
       spreadMethod="pad"
       gradientTransform="matrix(237.72188,0,0,237.72188,256.02499,256)"
       gradientUnits="userSpaceOnUse"
       r="1"
       cy="0"
       cx="0"
       fy="0"
       fx="0"><stop
         id="stop38"
         offset="0"
         style="stop-opacity:1;stop-color:#ffffff" /><stop
         id="stop40"
         offset="0.8587"
         style="stop-opacity:0.14129854;stop-color:#ffffff" /><stop
         id="stop42"
         offset="1"
         style="stop-opacity:0;stop-color:#ffffff" /></radialGradient><mask
       id="mask44"
       height="1"
       width="1"
       y="0"
       x="0"
       maskUnits="userSpaceOnUse"><g
         id="g46"><g
           id="g48"><g
             id="g50"><g
               id="g52"><path
                 id="path54"
                 style="fill:url(#radialGradient36);stroke:none"
                 d="m -32768,32767 65535,0 0,-65535 -65535,0 0,65535 z" /></g></g></g></g></mask><radialGradient
       id="radialGradient56"
       spreadMethod="pad"
       gradientTransform="matrix(237.72188,0,0,237.72188,256.02499,256)"
       gradientUnits="userSpaceOnUse"
       r="1"
       cy="0"
       cx="0"
       fy="0"
       fx="0"><stop
         id="stop58"
         offset="0"
         style="stop-opacity:1;stop-color:#010101" /><stop
         id="stop60"
         offset="0.8587"
         style="stop-opacity:1;stop-color:#010101" /><stop
         id="stop62"
         offset="1"
         style="stop-opacity:1;stop-color:#010101" /></radialGradient><clipPath
       id="clipPath86"
       clipPathUnits="userSpaceOnUse"><path
         id="path88"
         d="m 18.325,493.744 475.4,0 0,-475.4877 -475.4,0 0,475.4877 z" /></clipPath><clipPath
       id="clipPath90"
       clipPathUnits="userSpaceOnUse"><path
         id="path92"
         d="M 448.99,63.029 C 389.293,3.332 122.807,3.332 63.11,63.029 3.413,122.726 3.413,389.312 63.01,449.009 c 59.597,59.696 326.283,59.596 385.98,0 59.697,-59.597 59.597,-326.283 0,-385.98" /></clipPath><radialGradient
       id="radialGradient98"
       spreadMethod="pad"
       gradientTransform="matrix(188.25467,188.36119,-130.35883,130.27895,256.02499,256.04376)"
       gradientUnits="userSpaceOnUse"
       r="1"
       cy="0"
       cx="0"
       fy="0"
       fx="0"><stop
         id="stop100"
         offset="0"
         style="stop-opacity:1;stop-color:#ffffff" /><stop
         id="stop102"
         offset="0.8587"
         style="stop-opacity:0.14129854;stop-color:#ffffff" /><stop
         id="stop104"
         offset="1"
         style="stop-opacity:0;stop-color:#ffffff" /></radialGradient><mask
       id="mask106"
       height="1"
       width="1"
       y="0"
       x="0"
       maskUnits="userSpaceOnUse"><g
         id="g108"><g
           id="g110"><g
             id="g112"><g
               id="g114"><path
                 id="path116"
                 style="fill:url(#radialGradient98);stroke:none"
                 d="m -32768,32767 65535,0 0,-65535 -65535,0 0,65535 z" /></g></g></g></g></mask><radialGradient
       id="radialGradient118"
       spreadMethod="pad"
       gradientTransform="matrix(188.25467,188.36119,-130.35883,130.27895,256.02499,256.04376)"
       gradientUnits="userSpaceOnUse"
       r="1"
       cy="0"
       cx="0"
       fy="0"
       fx="0"><stop
         id="stop120"
         offset="0"
         style="stop-opacity:1;stop-color:#010101" /><stop
         id="stop122"
         offset="0.8587"
         style="stop-opacity:1;stop-color:#010101" /><stop
         id="stop124"
         offset="1"
         style="stop-opacity:1;stop-color:#010101" /></radialGradient><clipPath
       id="clipPath148"
       clipPathUnits="userSpaceOnUse"><path
         id="path150"
         d="m 18.275,493.694 475.387,0 0,-475.4377 -475.387,0 0,475.4377 z" /></clipPath><clipPath
       id="clipPath152"
       clipPathUnits="userSpaceOnUse"><path
         id="path154"
         d="m 63.01,63.029 c 59.697,-59.697 326.183,-59.697 385.88,0 59.697,59.697 59.697,326.183 0,385.88 -59.697,59.696 -326.183,59.696 -385.88,0.1 -59.697,-59.597 -59.597,-326.283 0,-385.98" /></clipPath><radialGradient
       id="radialGradient160"
       spreadMethod="pad"
       gradientTransform="matrix(-188.28767,188.39421,130.38168,130.30179,255.92499,255.99377)"
       gradientUnits="userSpaceOnUse"
       r="1"
       cy="0"
       cx="0"
       fy="0"
       fx="0"><stop
         id="stop162"
         offset="0"
         style="stop-opacity:1;stop-color:#ffffff" /><stop
         id="stop164"
         offset="0.8587"
         style="stop-opacity:0.14129854;stop-color:#ffffff" /><stop
         id="stop166"
         offset="1"
         style="stop-opacity:0;stop-color:#ffffff" /></radialGradient><mask
       id="mask168"
       height="1"
       width="1"
       y="0"
       x="0"
       maskUnits="userSpaceOnUse"><g
         id="g170"><g
           id="g172"><g
             id="g174"><g
               id="g176"><path
                 id="path178"
                 style="fill:url(#radialGradient160);stroke:none"
                 d="m -32768,32767 65535,0 0,-65535 -65535,0 0,65535 z" /></g></g></g></g></mask><radialGradient
       id="radialGradient180"
       spreadMethod="pad"
       gradientTransform="matrix(-188.28767,188.39421,130.38168,130.30179,255.92499,255.99377)"
       gradientUnits="userSpaceOnUse"
       r="1"
       cy="0"
       cx="0"
       fy="0"
       fx="0"><stop
         id="stop182"
         offset="0"
         style="stop-opacity:1;stop-color:#010101" /><stop
         id="stop184"
         offset="0.8587"
         style="stop-opacity:1;stop-color:#010101" /><stop
         id="stop186"
         offset="1"
         style="stop-opacity:1;stop-color:#010101" /></radialGradient><linearGradient
       id="linearGradient226"
       spreadMethod="pad"
       gradientTransform="matrix(0,78.350296,78.350296,0,256,407.64972)"
       gradientUnits="userSpaceOnUse"
       y2="0"
       x2="1"
       y1="0"
       x1="0"><stop
         id="stop228"
         offset="0"
         style="stop-opacity:1;stop-color:#e6e7e8" /><stop
         id="stop230"
         offset="1"
         style="stop-opacity:1;stop-color:#ffffff" /></linearGradient><clipPath
       id="clipPath238"
       clipPathUnits="userSpaceOnUse"><path
         id="path240"
         d="M 0,512 512,512 512,0 0,0 0,512 Z" /></clipPath><clipPath
       id="clipPath246"
       clipPathUnits="userSpaceOnUse"><path
         id="path248"
         d="m 26.0087,485.991 459.9823,0 0,-459.9823 -459.9823,0 0,459.9823 z" /></clipPath></defs><g
     transform="matrix(1.25,0,0,-1.25,0,640)"
     id="g10"><g
       id="g12"><g
         clip-path="url(#clipPath16)"
         id="g14"><g
           id="g20"><g
             id="g22" /><g
             id="g64"><g
               style="opacity:0.39999402"
               id="g66"
               clip-path="url(#clipPath24)"><g
                 id="g68"><g
                   id="g70"
                   clip-path="url(#clipPath28)"><g
                     id="g72"><g
                       id="g74" /><g
                       id="g76"
                       mask="url(#mask44)"><g
                         id="g78"><path
                           id="path80"
                           style="fill:url(#radialGradient56);stroke:none"
                           d="M 448.99,63.029 C 389.293,3.332 122.807,3.332 63.11,63.029 3.413,122.726 3.413,389.312 63.01,449.009 c 59.597,59.696 326.283,59.596 385.98,0 59.697,-59.597 59.597,-326.283 0,-385.98" /></g></g></g></g></g></g></g></g><g
           id="g82"><g
             id="g84" /><g
             id="g126"><g
               style="opacity:0.39999402"
               id="g128"
               clip-path="url(#clipPath86)"><g
                 id="g130"><g
                   id="g132"
                   clip-path="url(#clipPath90)"><g
                     id="g134"><g
                       id="g136" /><g
                       id="g138"
                       mask="url(#mask106)"><g
                         id="g140"><path
                           id="path142"
                           style="fill:url(#radialGradient118);stroke:none"
                           d="M 448.99,63.029 C 389.293,3.332 122.807,3.332 63.11,63.029 3.413,122.726 3.413,389.312 63.01,449.009 c 59.597,59.696 326.283,59.596 385.98,0 59.697,-59.597 59.597,-326.283 0,-385.98" /></g></g></g></g></g></g></g></g><g
           id="g144"><g
             id="g146" /><g
             id="g188"><g
               style="opacity:0.39999402"
               id="g190"
               clip-path="url(#clipPath148)"><g
                 id="g192"><g
                   id="g194"
                   clip-path="url(#clipPath152)"><g
                     id="g196"><g
                       id="g198" /><g
                       id="g200"
                       mask="url(#mask168)"><g
                         id="g202"><path
                           id="path204"
                           style="fill:url(#radialGradient180);stroke:none"
                           d="m 63.01,63.029 c 59.697,-59.697 326.183,-59.697 385.88,0 59.697,59.697 59.697,326.183 0,385.88 -59.697,59.696 -326.183,59.696 -385.88,0.1 -59.697,-59.597 -59.597,-326.283 0,-385.98" /></g></g></g></g></g></g></g></g><g
           transform="translate(433.2792,78.7208)"
           id="g206"><path
             id="path208"
             style="fill:#ff5d15;fill-opacity:1;fill-rule:nonzero;stroke:none"
             d="m 0,0 c -70.294,-70.294 -284.264,-70.294 -354.558,0 -70.295,70.294 -70.295,284.264 0,354.558 70.294,70.295 284.264,70.295 354.558,0 C 70.294,284.264 70.294,70.294 0,0" /></g><g
           transform="translate(52.8187,395)"
           id="g210"><path
             id="path212"
             style="fill:#d64005;fill-opacity:1;fill-rule:nonzero;stroke:none"
             d="m 0,0 406.363,0 c -4.682,9.862 -9.978,18.826 -15.885,26.667 l -374.593,0 C 9.977,18.826 4.682,9.862 0,0" /></g></g></g><g
       id="g214"><g
         id="g216"><g
           id="g222"><g
             id="g224"><path
               id="path232"
               style="fill:url(#linearGradient226);stroke:none"
               d="M 78.721,433.279 C 71.571,426.128 65.16,417.471 59.465,407.65 l 0,0 393.07,0 c -5.695,9.821 -12.106,18.478 -19.256,25.629 l 0,0 C 398.132,468.426 327.066,486 256,486 l 0,0 C 184.934,486 113.868,468.426 78.721,433.279" /></g></g></g></g><g
       id="g234"><g
         clip-path="url(#clipPath238)"
         id="g236"><g
           id="g242"><g
             id="g244" /><g
             id="g250"><g
               style="opacity:0.10000598"
               id="g252"
               clip-path="url(#clipPath246)"><g
                 id="g254"
                 transform="translate(461.9821,123.1905)"><path
                   id="path256"
                   style="fill:#ffffff;fill-opacity:1;fill-rule:nonzero;stroke:none"
                   d="m 0,0 -73.173,-73.173 c 5.844,2.534 11.427,5.255 16.673,8.189 l 48.311,48.311 C -5.255,-11.426 -2.533,-5.843 0,0" /></g><g
                 id="g258"
                 transform="translate(473.6668,157.0071)"><path
                   id="path260"
                   style="fill:#ffffff;fill-opacity:1;fill-rule:nonzero;stroke:none"
                   d="m 0,0 -118.674,-118.674 c 4.089,1.109 8.103,2.292 12.035,3.55 L -3.55,-12.035 C -2.292,-8.103 -1.109,-4.089 0,0" /></g><g
                 id="g262"
                 transform="translate(479.9919,185.463)"><path
                   id="path264"
                   style="fill:#ffffff;fill-opacity:1;fill-rule:nonzero;stroke:none"
                   d="m 0,0 -153.455,-153.455 c 3.543,0.627 7.048,1.308 10.518,2.034 L -2.034,-10.518 C -1.308,-7.048 -0.627,-3.543 0,0" /></g><g
                 id="g266"
                 transform="translate(483.6306,211.233)"><path
                   id="path268"
                   style="fill:#ffffff;fill-opacity:1;fill-rule:nonzero;stroke:none"
                   d="m 0,0 -182.864,-182.864 c 3.231,0.346 6.443,0.731 9.637,1.153 L -1.152,-9.637 C -0.731,-6.443 -0.346,-3.23 0,0" /></g><g
                 id="g270"
                 transform="translate(485.4922,235.2255)"><path
                   id="path272"
                   style="fill:#ffffff;fill-opacity:1;fill-rule:nonzero;stroke:none"
                   d="m 0,0 -208.718,-208.718 c 3.017,0.147 6.025,0.332 9.027,0.543 L -0.542,-9.027 C -0.332,-6.025 -0.146,-3.017 0,0" /></g><g
                 id="g274"
                 transform="translate(485.9857,257.8499)"><path
                   id="path276"
                   style="fill:#ffffff;fill-opacity:1;fill-rule:nonzero;stroke:none"
                   d="m 0,0 -231.836,-231.836 c 2.841,-0.012 5.682,-0.006 8.522,0.038 L -0.037,-8.522 C 0.007,-5.682 0.012,-2.841 0,0" /></g><g
                 id="g278"
                 transform="translate(485.3521,279.3477)"><path
                   id="path280"
                   style="fill:#ffffff;fill-opacity:1;fill-rule:nonzero;stroke:none"
                   d="m 0,0 -252.7,-252.7 c 2.701,-0.147 5.406,-0.271 8.117,-0.367 L 0.368,-8.117 C 0.272,-5.406 0.147,-2.701 0,0" /></g><g
                 id="g282"
                 transform="translate(483.7244,299.8518)"><path
                   id="path284"
                   style="fill:#ffffff;fill-opacity:1;fill-rule:nonzero;stroke:none"
                   d="m 0,0 -271.576,-271.576 c 2.573,-0.27 5.156,-0.515 7.748,-0.736 L 0.736,-7.749 C 0.514,-5.157 0.27,-2.573 0,0" /></g><g
                 id="g286"
                 transform="translate(481.1736,319.4319)"><path
                   id="path288"
                   style="fill:#ffffff;fill-opacity:1;fill-rule:nonzero;stroke:none"
                   d="m 0,0 -288.606,-288.606 c 2.454,-0.384 4.922,-0.744 7.402,-1.082 L 1.083,-7.402 C 0.744,-4.921 0.384,-2.454 0,0" /></g><g
                 id="g290"
                 transform="translate(477.7344,338.124)"><path
                   id="path292"
                   style="fill:#ffffff;fill-opacity:1;fill-rule:nonzero;stroke:none"
                   d="m 0,0 -303.858,-303.858 c 2.336,-0.497 4.691,-0.97 7.063,-1.422 L 1.421,-7.063 C 0.969,-4.692 0.497,-2.337 0,0" /></g><g
                 id="g294"
                 transform="translate(473.4116,355.932)"><path
                   id="path296"
                   style="fill:#ffffff;fill-opacity:1;fill-rule:nonzero;stroke:none"
                   d="m 0,0 -317.344,-317.344 c 2.22,-0.609 4.461,-1.196 6.723,-1.761 L 1.761,-6.723 C 1.196,-4.461 0.61,-2.219 0,0" /></g><g
                 id="g298"
                 transform="translate(468.1825,372.8338)"><path
                   id="path300"
                   style="fill:#ffffff;fill-opacity:1;fill-rule:nonzero;stroke:none"
                   d="m 0,0 -329.016,-329.016 c 2.097,-0.727 4.221,-1.432 6.37,-2.114 L 2.114,-6.37 C 1.431,-4.221 0.727,-2.098 0,0" /></g><g
                 id="g302"
                 transform="translate(461.9955,388.7781)"><path
                   id="path304"
                   style="fill:#ffffff;fill-opacity:1;fill-rule:nonzero;stroke:none"
                   d="m 0,0 -163.873,-163.873 -50.135,-50.135 -124.766,-124.766 c 1.968,-0.852 3.966,-1.682 5.995,-2.489 l 118.771,118.771 36.967,36.967 L 2.49,-5.995 C 1.682,-3.966 0.853,-1.968 0,0" /></g><g
                 id="g306"
                 transform="translate(454.7654,403.6799)"><path
                   id="path308"
                   style="fill:#ffffff;fill-opacity:1;fill-rule:nonzero;stroke:none"
                   d="m 0,0 -167.672,-167.672 -9.954,-9.954 -15.075,-15.075 -14.077,-14.077 -139.667,-139.667 c 1.824,-0.991 3.686,-1.958 5.583,-2.902 l 134.084,134.085 14.077,14.076 19.303,19.304 9.954,9.953 L 2.902,-5.583 C 1.958,-3.686 0.991,-1.824 0,0" /></g><g
                 id="g310"
                 transform="translate(446.3649,417.4102)"><path
                   id="path312"
                   style="fill:#ffffff;fill-opacity:1;fill-rule:nonzero;stroke:none"
                   d="m 0,0 -170.301,-170.301 -9.954,-9.954 -4.046,-4.046 -14.076,-14.076 -153.398,-153.398 c 1.661,-1.148 3.37,-2.269 5.117,-3.367 l 148.281,148.28 14.076,14.077 8.275,8.274 9.953,9.954 169.44,169.44 C 2.269,-3.37 1.148,-1.661 0,0" /></g><g
                 id="g314"
                 transform="translate(436.6069,429.7836)"><path
                   id="path316"
                   style="fill:#ffffff;fill-opacity:1;fill-rule:nonzero;stroke:none"
                   d="m 0,0 -136.522,-136.522 -79.069,-79.069 -138.8,-138.8 c 1.467,-1.333 3.004,-2.63 4.575,-3.909 l 161.197,161.196 21.274,21.275 L 3.91,-4.574 C 2.631,-3.003 1.333,-1.466 0,0" /></g><g
                 id="g318"
                 transform="translate(425.2092,440.5168)"><path
                   id="path320"
                   style="fill:#ffffff;fill-opacity:1;fill-rule:nonzero;stroke:none"
                   d="m 0,0 -135.387,-135.387 -9.98,-9.98 -17.778,-17.778 -18.013,-18.013 -172.568,-172.568 c 1.279,-1.571 2.577,-3.108 3.91,-4.574 l 138.867,138.867 79.496,79.496 L 4.574,-3.91 C 3.108,-2.577 1.571,-1.279 0,0" /></g><g
                 id="g322"
                 transform="translate(412.2933,449.7317)"><path
                   id="path324"
                   style="fill:#ffffff;fill-opacity:1;fill-rule:nonzero;stroke:none"
                   d="m 0,0 -132.734,-132.734 -9.98,-9.98 -7.515,-7.515 -14.076,-14.076 -5.013,-5.013 -9.953,-9.953 -170.754,-170.754 c 1.098,-1.747 2.219,-3.457 3.367,-5.117 l 171.615,171.615 9.953,9.953 0.785,0.785 14.076,14.075 11.45,11.451 9.98,9.979 L 5.117,-3.367 C 3.457,-2.219 1.747,-1.098 0,0" /></g><g
                 id="g326"
                 transform="translate(262.064,315.7099)"><path
                   id="path328"
                   style="fill:#ffffff;fill-opacity:1;fill-rule:nonzero;stroke:none"
                   d="M 0,0 0,-2.56 1.187,-1.373 0,0 Z" /></g><g
                 id="g330"
                 transform="translate(398.0971,457.6669)"><path
                   id="path332"
                   style="fill:#ffffff;fill-opacity:1;fill-rule:nonzero;stroke:none"
                   d="m 0,0 -128.8,-128.8 -21.309,-21.309 -16.042,-16.042 -9.954,-9.954 -167.659,-167.659 c 0.944,-1.897 1.911,-3.759 2.902,-5.583 l 168.986,168.986 9.953,9.954 11.814,11.814 14.076,14.076 0,2.56 1.187,-1.373 9.98,9.98 L 5.583,-2.902 C 3.758,-1.911 1.897,-0.944 0,0" /></g><g
                 id="g334"
                 transform="translate(382.7833,464.4849)"><path
                   id="path336"
                   style="fill:#ffffff;fill-opacity:1;fill-rule:nonzero;stroke:none"
                   d="m 0,0 -123.75,-123.75 -11.045,-11.045 -200.473,-200.473 c 0.807,-2.029 1.637,-4.027 2.489,-5.995 l 165.187,165.186 9.953,9.953 22.844,22.845 14.98,14.979 L 5.995,-2.49 C 4.027,-1.637 2.029,-0.807 0,0" /></g><g
                 id="g338"
                 transform="translate(366.4637,470.2962)"><path
                   id="path340"
                   style="fill:#ffffff;fill-opacity:1;fill-rule:nonzero;stroke:none"
                   d="m 0,0 -117.693,-117.693 -0.783,-0.783 -206.284,-206.284 c 0.682,-2.149 1.387,-4.273 2.114,-6.37 l 204.17,204.17 4.718,4.717 L 6.37,-2.114 C 4.273,-1.387 2.149,-0.682 0,0" /></g><g
                 id="g342"
                 transform="translate(349.2092,475.173)"><path
                   id="path344"
                   style="fill:#ffffff;fill-opacity:1;fill-rule:nonzero;stroke:none"
                   d="m 0,0 -312.382,-312.382 c 0.565,-2.262 1.152,-4.504 1.761,-6.723 L 6.723,-1.761 C 4.504,-1.152 2.262,-0.565 0,0" /></g><g
                 id="g346"
                 transform="translate(331.0609,479.1555)"><path
                   id="path348"
                   style="fill:#ffffff;fill-opacity:1;fill-rule:nonzero;stroke:none"
                   d="m 0,0 -298.216,-298.216 c 0.451,-2.372 0.924,-4.727 1.421,-7.064 L 7.063,-1.421 C 4.726,-0.925 2.371,-0.452 0,0" /></g><g
                 id="g350"
                 transform="translate(312.0308,482.2563)"><path
                   id="path352"
                   style="fill:#ffffff;fill-opacity:1;fill-rule:nonzero;stroke:none"
                   d="m 0,0 -282.287,-282.287 c 0.338,-2.481 0.698,-4.948 1.083,-7.402 L 7.402,-1.083 C 4.948,-0.698 2.48,-0.338 0,0" /></g><g
                 id="g354"
                 transform="translate(292.1033,484.4601)"><path
                   id="path356"
                   style="fill:#ffffff;fill-opacity:1;fill-rule:nonzero;stroke:none"
                   d="m 0,0 -264.563,-264.563 c 0.221,-2.593 0.466,-5.176 0.735,-7.749 L 7.749,-0.736 C 5.175,-0.466 2.592,-0.221 0,0" /></g><g
                 id="g358"
                 transform="translate(271.2311,485.7198)"><path
                   id="path360"
                   style="fill:#ffffff;fill-opacity:1;fill-rule:nonzero;stroke:none"
                   d="m 0,0 -244.951,-244.951 c 0.096,-2.71 0.22,-5.416 0.368,-8.117 l 252.7,252.7 C 5.416,-0.22 2.71,-0.096 0,0" /></g><g
                 id="g362"
                 transform="translate(249.3287,485.9482)"><path
                   id="path364"
                   style="fill:#ffffff;fill-opacity:1;fill-rule:nonzero;stroke:none"
                   d="m 0,0 -223.277,-223.277 c -0.044,-2.84 -0.05,-5.681 -0.037,-8.522 L 8.522,0.037 C 5.681,0.05 2.84,0.044 0,0" /></g><g
                 id="g366"
                 transform="translate(226.199,484.9499)"><path
                   id="path368"
                   style="fill:#ffffff;fill-opacity:1;fill-rule:nonzero;stroke:none"
                   d="m 0,0 -199.149,-199.149 c -0.21,-3.001 -0.396,-6.01 -0.542,-9.027 L 9.027,0.542 C 6.01,0.396 3.001,0.21 0,0" /></g><g
                 id="g370"
                 transform="translate(201.5963,482.478)"><path
                   id="path372"
                   style="fill:#ffffff;fill-opacity:1;fill-rule:nonzero;stroke:none"
                   d="m 0,0 -172.074,-172.074 c -0.422,-3.194 -0.807,-6.407 -1.153,-9.637 L 9.637,1.152 C 6.406,0.807 3.194,0.422 0,0" /></g><g
                 id="g374"
                 transform="translate(174.9456,477.9582)"><path
                   id="path376"
                   style="fill:#ffffff;fill-opacity:1;fill-rule:nonzero;stroke:none"
                   d="m 0,0 -140.904,-140.904 c -0.725,-3.47 -1.406,-6.975 -2.034,-10.518 L 10.518,2.034 C 6.975,1.407 3.47,0.726 0,0" /></g><g
                 id="g378"
                 transform="translate(144.9726,470.1166)"><path
                   id="path380"
                   style="fill:#ffffff;fill-opacity:1;fill-rule:nonzero;stroke:none"
                   d="m 0,0 -103.089,-103.089 c -1.258,-3.932 -2.442,-7.946 -3.55,-12.035 L 12.035,3.55 C 7.945,2.442 3.931,1.258 0,0" /></g><g
                 id="g382"
                 transform="translate(106.5175,453.7933)"><path
                   id="path384"
                   style="fill:#ffffff;fill-opacity:1;fill-rule:nonzero;stroke:none"
                   d="m 0,0 -48.311,-48.311 c -2.934,-5.246 -5.655,-10.83 -8.189,-16.673 L 16.673,8.189 C 10.83,5.656 5.247,2.934 0,0" /></g></g></g></g><g
           transform="translate(338.7391,300.3617)"
           id="g386"><path
             id="path388"
             style="fill:#ffffff;fill-opacity:1;fill-rule:nonzero;stroke:none"
             d="m 0,0 -51.737,13.863 13.863,-51.737 13.431,13.431 c 31.391,-31.952 31.222,-83.298 -0.514,-115.035 -23.363,-23.362 -57.352,-29.618 -86.408,-18.772 l 4.821,-17.993 c 32.148,-8.062 67.602,0.472 92.742,25.612 37.897,37.897 38.065,99.23 0.514,137.342 L 0.001,0 0.001,0.001 0,0 Z" /></g><g
           transform="translate(198.7475,160.3701)"
           id="g390"><path
             id="path392"
             style="fill:#ffffff;fill-opacity:1;fill-rule:nonzero;stroke:none"
             d="m 0,0 c -0.175,0.172 -0.353,0.341 -0.527,0.515 -31.912,31.912 -31.912,83.651 0,115.562 24.029,24.029 59.299,29.961 88.881,17.803 l -5.151,18.401 c -32.706,8.998 -69.184,0.651 -94.885,-25.049 -38.071,-38.072 -38.071,-99.798 0,-137.87 0.175,-0.174 0.356,-0.337 0.531,-0.511 L -24.473,-24.471 27.264,-38.334 13.401,13.403 0,0 Z" /></g><g
           transform="translate(174.5,336.3427)"
           id="g394"><path
             id="path396"
             style="fill:#231f20;fill-opacity:1;fill-rule:nonzero;stroke:none"
             d="m 0,0 c 0,-12.15 -9.85,-22 -22,-22 -12.15,0 -22,9.85 -22,22 0,12.15 9.85,22 22,22 C -9.85,22 0,12.15 0,0" /></g><g
           transform="translate(152.5,358.3427)"
           id="g398"><path
             id="path400"
             style="fill:#ffffff;fill-opacity:1;fill-rule:nonzero;stroke:none"
             d="m 0,0 c -12.15,0 -22,-9.85 -22,-22 0,-12.15 9.85,-22 22,-22 12.15,0 22,9.85 22,22 C 22,-9.85 12.15,0 0,0 m 0,-5 c 9.374,0 17,-7.626 17,-17 0,-9.374 -7.626,-17 -17,-17 -9.374,0 -17,7.626 -17,17 0,9.374 7.626,17 17,17" /></g><g
           transform="translate(381.5,336.3427)"
           id="g402"><path
             id="path404"
             style="fill:#231f20;fill-opacity:1;fill-rule:nonzero;stroke:none"
             d="m 0,0 c 0,-12.15 -9.85,-22 -22,-22 -12.15,0 -22,9.85 -22,22 0,12.15 9.85,22 22,22 C -9.85,22 0,12.15 0,0" /></g><g
           transform="translate(359.5,358.3427)"
           id="g406"><path
             id="path408"
             style="fill:#ffffff;fill-opacity:1;fill-rule:nonzero;stroke:none"
             d="m 0,0 c -12.15,0 -22,-9.85 -22,-22 0,-12.15 9.85,-22 22,-22 12.15,0 22,9.85 22,22 C 22,-9.85 12.15,0 0,0 m 0,-5 c 9.374,0 17,-7.626 17,-17 0,-9.374 -7.626,-17 -17,-17 -9.374,0 -17,7.626 -17,17 0,9.374 7.626,17 17,17" /></g><g
           transform="translate(372.3622,331.5623)"
           id="g410"><path
             id="path412"
             style="fill:#d64005;fill-opacity:1;fill-rule:nonzero;stroke:none"
             d="M 0,0 C 0,5.57 -5.505,10.086 -12.295,10.086 -19.086,10.086 -24.59,5.57 -24.59,0 c 0,-28.701 -2.009,-64.684 -17.672,-88.383 -6.431,-9.732 -14.777,-16.809 -25.514,-21.637 -12.412,-5.581 -28.759,-8.411 -48.586,-8.411 -20.783,0 -37.726,2.846 -50.357,8.459 -10.705,4.757 -18.909,11.746 -25.077,21.366 -6.144,9.58 -10.402,21.819 -13.017,37.415 -2.238,13.347 -3.293,29.392 -3.319,50.422 0.024,0.255 0.048,0.509 0.048,0.769 0,5.57 -5.505,10.086 -12.296,10.086 -6.79,0 -12.295,-4.516 -12.295,-10.086 0,-76.526 12.321,-138.562 116.313,-138.562 99.674,0 116.187,61.575 116.309,137.707 C -0.024,-0.573 0,-0.289 0,0" /></g><g
           transform="translate(372.3622,331.9262)"
           id="g414"><path
             id="path416"
             style="fill:#ffe5cc;fill-opacity:1;fill-rule:nonzero;stroke:none"
             d="M 0,0 C 0,5.369 -5.505,9.722 -12.295,9.722 -19.086,9.722 -24.59,5.369 -24.59,0 c 0,-27.665 -2.009,-62.35 -17.672,-85.194 -6.431,-9.38 -14.777,-16.202 -25.514,-20.856 -12.412,-5.379 -28.759,-8.107 -48.586,-8.107 -20.783,0 -37.726,2.743 -50.357,8.153 -10.705,4.586 -18.909,11.323 -25.077,20.595 -6.144,9.235 -10.402,21.032 -13.017,36.065 -2.238,12.866 -3.293,28.331 -3.319,48.603 0.024,0.245 0.048,0.491 0.048,0.741 0,5.369 -5.505,9.722 -12.296,9.722 -6.79,0 -12.295,-4.353 -12.295,-9.722 0,-73.764 12.321,-133.562 116.313,-133.562 99.674,0 116.187,59.354 116.309,132.737 C -0.024,-0.552 0,-0.278 0,0" /></g></g></g></g></svg>