<?xml version="1.0" encoding="UTF-8" standalone="no"?>
<svg
   xmlns:dc="http://purl.org/dc/elements/1.1/"
   xmlns:cc="http://creativecommons.org/ns#"
   xmlns:rdf="http://www.w3.org/1999/02/22-rdf-syntax-ns#"
   xmlns:svg="http://www.w3.org/2000/svg"
   xmlns="http://www.w3.org/2000/svg"
   viewBox="0 0 640 640"
   height="640"
   width="640"
   xml:space="preserve"
   version="1.1"
   id="svg2"><metadata
     id="metadata8"><rdf:RDF><cc:Work
         rdf:about=""><dc:format>image/svg+xml</dc:format><dc:type
           rdf:resource="http://purl.org/dc/dcmitype/StillImage" /></cc:Work></rdf:RDF></metadata><defs
     id="defs6"><clipPath
       id="clipPath16"
       clipPathUnits="userSpaceOnUse"><path
         id="path18"
         d="M 0,512 512,512 512,0 0,0 0,512 Z" /></clipPath><clipPath
       id="clipPath24"
       clipPathUnits="userSpaceOnUse"><path
         id="path26"
         d="m 18.325,493.744 475.4,0 0,-475.4877 -475.4,0 0,475.4877 z" /></clipPath><clipPath
       id="clipPath28"
       clipPathUnits="userSpaceOnUse"><path
         id="path30"
         d="M 448.99,63.029 C 389.293,3.332 122.807,3.332 63.11,63.029 3.413,122.726 3.413,389.312 63.01,449.009 c 59.597,59.696 326.283,59.596 385.98,0 59.697,-59.597 59.597,-326.283 0,-385.98" /></clipPath><radialGradient
       id="radialGradient36"
       spreadMethod="pad"
       gradientTransform="matrix(237.72188,0,0,237.72188,256.02499,256)"
       gradientUnits="userSpaceOnUse"
       r="1"
       cy="0"
       cx="0"
       fy="0"
       fx="0"><stop
         id="stop38"
         offset="0"
         style="stop-opacity:1;stop-color:#ffffff" /><stop
         id="stop40"
         offset="0.8587"
         style="stop-opacity:0.14129854;stop-color:#ffffff" /><stop
         id="stop42"
         offset="1"
         style="stop-opacity:0;stop-color:#ffffff" /></radialGradient><mask
       id="mask44"
       height="1"
       width="1"
       y="0"
       x="0"
       maskUnits="userSpaceOnUse"><g
         id="g46"><g
           id="g48"><g
             id="g50"><g
               id="g52"><path
                 id="path54"
                 style="fill:url(#radialGradient36);stroke:none"
                 d="m -32768,32767 65535,0 0,-65535 -65535,0 0,65535 z" /></g></g></g></g></mask><radialGradient
       id="radialGradient56"
       spreadMethod="pad"
       gradientTransform="matrix(237.72188,0,0,237.72188,256.02499,256)"
       gradientUnits="userSpaceOnUse"
       r="1"
       cy="0"
       cx="0"
       fy="0"
       fx="0"><stop
         id="stop58"
         offset="0"
         style="stop-opacity:1;stop-color:#010101" /><stop
         id="stop60"
         offset="0.8587"
         style="stop-opacity:1;stop-color:#010101" /><stop
         id="stop62"
         offset="1"
         style="stop-opacity:1;stop-color:#010101" /></radialGradient><clipPath
       id="clipPath86"
       clipPathUnits="userSpaceOnUse"><path
         id="path88"
         d="m 18.325,493.744 475.4,0 0,-475.4877 -475.4,0 0,475.4877 z" /></clipPath><clipPath
       id="clipPath90"
       clipPathUnits="userSpaceOnUse"><path
         id="path92"
         d="M 448.99,63.029 C 389.293,3.332 122.807,3.332 63.11,63.029 3.413,122.726 3.413,389.312 63.01,449.009 c 59.597,59.696 326.283,59.596 385.98,0 59.697,-59.597 59.597,-326.283 0,-385.98" /></clipPath><radialGradient
       id="radialGradient98"
       spreadMethod="pad"
       gradientTransform="matrix(188.25467,188.36119,-130.35883,130.27895,256.02499,256.04376)"
       gradientUnits="userSpaceOnUse"
       r="1"
       cy="0"
       cx="0"
       fy="0"
       fx="0"><stop
         id="stop100"
         offset="0"
         style="stop-opacity:1;stop-color:#ffffff" /><stop
         id="stop102"
         offset="0.8587"
         style="stop-opacity:0.14129854;stop-color:#ffffff" /><stop
         id="stop104"
         offset="1"
         style="stop-opacity:0;stop-color:#ffffff" /></radialGradient><mask
       id="mask106"
       height="1"
       width="1"
       y="0"
       x="0"
       maskUnits="userSpaceOnUse"><g
         id="g108"><g
           id="g110"><g
             id="g112"><g
               id="g114"><path
                 id="path116"
                 style="fill:url(#radialGradient98);stroke:none"
                 d="m -32768,32767 65535,0 0,-65535 -65535,0 0,65535 z" /></g></g></g></g></mask><radialGradient
       id="radialGradient118"
       spreadMethod="pad"
       gradientTransform="matrix(188.25467,188.36119,-130.35883,130.27895,256.02499,256.04376)"
       gradientUnits="userSpaceOnUse"
       r="1"
       cy="0"
       cx="0"
       fy="0"
       fx="0"><stop
         id="stop120"
         offset="0"
         style="stop-opacity:1;stop-color:#010101" /><stop
         id="stop122"
         offset="0.8587"
         style="stop-opacity:1;stop-color:#010101" /><stop
         id="stop124"
         offset="1"
         style="stop-opacity:1;stop-color:#010101" /></radialGradient><clipPath
       id="clipPath148"
       clipPathUnits="userSpaceOnUse"><path
         id="path150"
         d="m 18.275,493.694 475.387,0 0,-475.4377 -475.387,0 0,475.4377 z" /></clipPath><clipPath
       id="clipPath152"
       clipPathUnits="userSpaceOnUse"><path
         id="path154"
         d="m 63.01,63.029 c 59.697,-59.697 326.183,-59.697 385.88,0 59.697,59.697 59.697,326.183 0,385.88 -59.697,59.696 -326.183,59.696 -385.88,0.1 -59.697,-59.597 -59.597,-326.283 0,-385.98" /></clipPath><radialGradient
       id="radialGradient160"
       spreadMethod="pad"
       gradientTransform="matrix(-188.28767,188.39421,130.38168,130.30179,255.92499,255.99377)"
       gradientUnits="userSpaceOnUse"
       r="1"
       cy="0"
       cx="0"
       fy="0"
       fx="0"><stop
         id="stop162"
         offset="0"
         style="stop-opacity:1;stop-color:#ffffff" /><stop
         id="stop164"
         offset="0.8587"
         style="stop-opacity:0.14129854;stop-color:#ffffff" /><stop
         id="stop166"
         offset="1"
         style="stop-opacity:0;stop-color:#ffffff" /></radialGradient><mask
       id="mask168"
       height="1"
       width="1"
       y="0"
       x="0"
       maskUnits="userSpaceOnUse"><g
         id="g170"><g
           id="g172"><g
             id="g174"><g
               id="g176"><path
                 id="path178"
                 style="fill:url(#radialGradient160);stroke:none"
                 d="m -32768,32767 65535,0 0,-65535 -65535,0 0,65535 z" /></g></g></g></g></mask><radialGradient
       id="radialGradient180"
       spreadMethod="pad"
       gradientTransform="matrix(-188.28767,188.39421,130.38168,130.30179,255.92499,255.99377)"
       gradientUnits="userSpaceOnUse"
       r="1"
       cy="0"
       cx="0"
       fy="0"
       fx="0"><stop
         id="stop182"
         offset="0"
         style="stop-opacity:1;stop-color:#010101" /><stop
         id="stop184"
         offset="0.8587"
         style="stop-opacity:1;stop-color:#010101" /><stop
         id="stop186"
         offset="1"
         style="stop-opacity:1;stop-color:#010101" /></radialGradient><linearGradient
       id="linearGradient218"
       spreadMethod="pad"
       gradientTransform="matrix(0,459.99902,459.99902,0,256.00018,26.000503)"
       gradientUnits="userSpaceOnUse"
       y2="0"
       x2="1"
       y1="0"
       x1="0"><stop
         id="stop220"
         offset="0"
         style="stop-opacity:1;stop-color:#d8d8d8" /><stop
         id="stop222"
         offset="1"
         style="stop-opacity:1;stop-color:#f6f6f6" /></linearGradient><clipPath
       id="clipPath230"
       clipPathUnits="userSpaceOnUse"><path
         id="path232"
         d="M 0,512 512,512 512,0 0,0 0,512 Z" /></clipPath><clipPath
       id="clipPath242"
       clipPathUnits="userSpaceOnUse"><path
         id="path244"
         d="m 89.1108,427.397 333.7782,0 0,-181.461 -333.7782,0 0,181.461 z" /></clipPath><clipPath
       id="clipPath262"
       clipPathUnits="userSpaceOnUse"><path
         id="path264"
         d="m 235.789,329.46 40.421,0 0,-149.671 -40.421,0 0,149.671 z" /></clipPath><clipPath
       id="clipPath282"
       clipPathUnits="userSpaceOnUse"><path
         id="path284"
         d="m 235.79,334.211 40.422,0 0,-149.672 -40.422,0 0,149.672 z" /></clipPath><clipPath
       id="clipPath302"
       clipPathUnits="userSpaceOnUse"><path
         id="path304"
         d="m 232.039,340.211 47.922,0 0,-47.922 -47.922,0 0,47.922 z" /></clipPath><clipPath
       id="clipPath322"
       clipPathUnits="userSpaceOnUse"><path
         id="path324"
         d="m 232.039,216.711 47.922,0 0,-47.922 -47.922,0 0,47.922 z" /></clipPath></defs><g
     transform="matrix(1.25,0,0,-1.25,0,640)"
     id="g10"><g
       id="g12"><g
         clip-path="url(#clipPath16)"
         id="g14"><g
           id="g20"><g
             id="g22" /><g
             id="g64"><g
               style="opacity:0.39999402"
               id="g66"
               clip-path="url(#clipPath24)"><g
                 id="g68"><g
                   id="g70"
                   clip-path="url(#clipPath28)"><g
                     id="g72"><g
                       id="g74" /><g
                       id="g76"
                       mask="url(#mask44)"><g
                         id="g78"><path
                           id="path80"
                           style="fill:url(#radialGradient56);stroke:none"
                           d="M 448.99,63.029 C 389.293,3.332 122.807,3.332 63.11,63.029 3.413,122.726 3.413,389.312 63.01,449.009 c 59.597,59.696 326.283,59.596 385.98,0 59.697,-59.597 59.597,-326.283 0,-385.98" /></g></g></g></g></g></g></g></g><g
           id="g82"><g
             id="g84" /><g
             id="g126"><g
               style="opacity:0.39999402"
               id="g128"
               clip-path="url(#clipPath86)"><g
                 id="g130"><g
                   id="g132"
                   clip-path="url(#clipPath90)"><g
                     id="g134"><g
                       id="g136" /><g
                       id="g138"
                       mask="url(#mask106)"><g
                         id="g140"><path
                           id="path142"
                           style="fill:url(#radialGradient118);stroke:none"
                           d="M 448.99,63.029 C 389.293,3.332 122.807,3.332 63.11,63.029 3.413,122.726 3.413,389.312 63.01,449.009 c 59.597,59.696 326.283,59.596 385.98,0 59.697,-59.597 59.597,-326.283 0,-385.98" /></g></g></g></g></g></g></g></g><g
           id="g144"><g
             id="g146" /><g
             id="g188"><g
               style="opacity:0.39999402"
               id="g190"
               clip-path="url(#clipPath148)"><g
                 id="g192"><g
                   id="g194"
                   clip-path="url(#clipPath152)"><g
                     id="g196"><g
                       id="g198" /><g
                       id="g200"
                       mask="url(#mask168)"><g
                         id="g202"><path
                           id="path204"
                           style="fill:url(#radialGradient180);stroke:none"
                           d="m 63.01,63.029 c 59.697,-59.697 326.183,-59.697 385.88,0 59.697,59.697 59.697,326.183 0,385.88 -59.697,59.696 -326.183,59.696 -385.88,0.1 -59.697,-59.597 -59.597,-326.283 0,-385.98" /></g></g></g></g></g></g></g></g></g></g><g
       id="g206"><g
         id="g208"><g
           id="g214"><g
             id="g216"><path
               id="path224"
               style="fill:url(#linearGradient218);stroke:none"
               d="M 78.721,433.279 C 8.427,362.985 8.427,149.015 78.721,78.721 l 0,0 c 70.294,-70.294 284.264,-70.294 354.558,0 l 0,0 c 70.295,70.294 70.294,284.264 0,354.558 l 0,0 C 398.132,468.426 327.066,486 256,486 l 0,0 C 184.934,486 113.868,468.426 78.721,433.279" /></g></g></g></g><g
       id="g226"><g
         clip-path="url(#clipPath230)"
         id="g228"><g
           transform="translate(388.1095,123.8904)"
           id="g234"><path
             id="path236"
             style="fill:#aa6d30;fill-opacity:1;fill-rule:nonzero;stroke:none"
             d="m 0,0 c -52.384,-52.384 -211.836,-52.384 -264.219,0 -52.384,52.384 -52.384,211.836 0,264.219 52.383,52.384 211.835,52.384 264.219,0 C 52.384,211.836 52.384,52.384 0,0" /></g><g
           id="g238"><g
             id="g240" /><g
             id="g246"><g
               style="opacity:0.39999402"
               id="g248"
               clip-path="url(#clipPath242)"><g
                 id="g250"
                 transform="translate(388.1095,388.1096)"><path
                   id="path252"
                   style="fill:#000000;fill-opacity:1;fill-rule:nonzero;stroke:none"
                   d="m 0,0 c -26.189,26.189 -79.14,39.285 -132.093,39.288 l -0.033,0 C -185.08,39.285 -238.03,26.189 -264.219,0 c -17.325,-17.325 -28.914,-46.364 -34.78,-79.364 5.866,-17.469 17.455,-32.841 34.78,-42.012 52.383,-27.73 211.835,-27.73 264.219,0 17.325,9.17 28.914,24.543 34.78,42.011 C 28.914,-46.364 17.325,-17.325 0,0" /></g></g></g></g><g
           transform="translate(388.1095,388.1096)"
           id="g254"><path
             id="path256"
             style="fill:#d1985a;fill-opacity:1;fill-rule:nonzero;stroke:none"
             d="m 0,0 c -26.189,26.189 -79.14,39.285 -132.094,39.288 l -0.032,0 C -185.079,39.285 -238.03,26.189 -264.219,0 c -16.817,-16.817 -28.226,-44.676 -34.245,-76.477 6.019,-16.216 17.428,-30.422 34.245,-38.997 52.383,-26.711 211.835,-26.711 264.219,0 16.817,8.575 28.226,22.781 34.245,38.996 C 28.226,-44.676 16.817,-16.817 0,0" /></g><g
           id="g258"><g
             id="g260" /><g
             id="g266"><g
               style="opacity:0.39999402"
               id="g268"
               clip-path="url(#clipPath262)"><g
                 id="g270"
                 transform="translate(256,327.46)"><path
                   id="path272"
                   style="fill:#000000;fill-opacity:1;fill-rule:nonzero;stroke:none"
                   d="m 0,0 c -10.042,0 -18.21,-8.169 -18.21,-18.21 0,-9.021 14.286,-94.26 18.21,-117.509 C 3.925,-112.47 18.211,-27.231 18.211,-18.21 18.211,-8.168 10.042,0 0,0 m 0,-147.671 -0.986,5.793 c -0.785,4.613 -19.225,113.095 -19.225,123.668 0,11.144 9.066,20.21 20.21,20.21 C 11.144,2 20.21,-7.066 20.21,-18.21 20.21,-28.783 1.77,-137.265 0.984,-141.878 L 0,-147.671 Z" /></g></g></g></g><g
           transform="translate(256,337.46)"
           id="g274"><path
             id="path276"
             style="fill:#efefef;fill-opacity:1;fill-rule:nonzero;stroke:none"
             d="m 0,0 c -10.042,0 -18.21,-8.169 -18.21,-18.21 0,-9.021 14.286,-94.26 18.21,-117.509 C 3.925,-112.47 18.211,-27.231 18.211,-18.21 18.211,-8.168 10.042,0 0,0 m 0,-147.671 -0.986,5.793 c -0.785,4.613 -19.225,113.095 -19.225,123.668 0,11.144 9.066,20.21 20.21,20.21 C 11.144,2 20.21,-7.066 20.21,-18.21 20.21,-28.783 1.77,-137.265 0.984,-141.878 L 0,-147.671 Z" /></g><g
           id="g278"><g
             id="g280" /><g
             id="g286"><g
               style="opacity:0.39999402"
               id="g288"
               clip-path="url(#clipPath282)"><g
                 id="g290"
                 transform="translate(256,322.259)"><path
                   id="path292"
                   style="fill:#000000;fill-opacity:1;fill-rule:nonzero;stroke:none"
                   d="m 0,0 c -3.925,-23.249 -18.21,-108.488 -18.21,-117.509 0,-10.042 8.169,-18.211 18.21,-18.211 10.042,0 18.211,8.169 18.211,18.211 C 18.211,-108.488 3.925,-23.249 0,0 m 0,-137.72 c -11.144,0 -20.21,9.066 -20.21,20.211 0,10.572 18.439,119.055 19.225,123.668 L 0.001,11.952 0.986,6.159 C 1.771,1.546 20.212,-106.937 20.212,-117.509 20.211,-128.654 11.145,-137.72 0,-137.72" /></g></g></g></g><g
           transform="translate(256,313.259)"
           id="g294"><path
             id="path296"
             style="fill:#efefef;fill-opacity:1;fill-rule:nonzero;stroke:none"
             d="m 0,0 c -3.925,-23.249 -18.21,-108.488 -18.21,-117.509 0,-10.042 8.169,-18.211 18.21,-18.211 10.042,0 18.211,8.169 18.211,18.211 C 18.211,-108.488 3.925,-23.249 0,0 m 0,-137.72 c -11.144,0 -20.21,9.066 -20.21,20.211 0,10.572 18.439,119.055 19.225,123.668 L 0.001,11.952 0.986,6.159 C 1.771,1.546 20.212,-106.937 20.212,-117.509 20.211,-128.654 11.145,-137.72 0,-137.72" /></g><g
           id="g298"><g
             id="g300" /><g
             id="g306"><g
               style="opacity:0.39999402"
               id="g308"
               clip-path="url(#clipPath302)"><g
                 id="g310"
                 transform="translate(256,340.211)"><path
                   id="path312"
                   style="fill:#000000;fill-opacity:1;fill-rule:nonzero;stroke:none"
                   d="m 0,0 c 13.233,0 23.961,-10.728 23.961,-23.961 0,-13.233 -10.728,-23.961 -23.961,-23.961 -13.233,0 -23.961,10.728 -23.961,23.961 C -23.961,-10.728 -13.233,0 0,0" /></g></g></g></g><g
           transform="translate(256,343.211)"
           id="g314"><path
             id="path316"
             style="fill:#e0e0e0;fill-opacity:1;fill-rule:nonzero;stroke:none"
             d="m 0,0 c 13.233,0 23.961,-10.728 23.961,-23.961 0,-13.233 -10.728,-23.961 -23.961,-23.961 -13.233,0 -23.961,10.728 -23.961,23.961 C -23.961,-10.728 -13.233,0 0,0" /></g><g
           id="g318"><g
             id="g320" /><g
             id="g326"><g
               style="opacity:0.39999402"
               id="g328"
               clip-path="url(#clipPath322)"><g
                 id="g330"
                 transform="translate(256,216.711)"><path
                   id="path332"
                   style="fill:#000000;fill-opacity:1;fill-rule:nonzero;stroke:none"
                   d="m 0,0 c 13.233,0 23.961,-10.728 23.961,-23.961 0,-13.233 -10.728,-23.961 -23.961,-23.961 -13.233,0 -23.961,10.728 -23.961,23.961 C -23.961,-10.728 -13.233,0 0,0" /></g></g></g></g><g
           transform="translate(256,219.711)"
           id="g334"><path
             id="path336"
             style="fill:#e0e0e0;fill-opacity:1;fill-rule:nonzero;stroke:none"
             d="m 0,0 c 13.233,0 23.961,-10.728 23.961,-23.961 0,-13.233 -10.728,-23.961 -23.961,-23.961 -13.233,0 -23.961,10.728 -23.961,23.961 C -23.961,-10.728 -13.233,0 0,0" /></g><g
           transform="translate(256,335.774)"
           id="g338"><path
             id="path340"
             style="fill:#ededed;fill-opacity:1;fill-rule:nonzero;stroke:none"
             d="m 0,0 c 9.126,0 16.524,-7.398 16.524,-16.524 0,-9.126 -7.398,-16.524 -16.524,-16.524 -9.126,0 -16.524,7.398 -16.524,16.524 C -16.524,-7.398 -9.126,0 0,0" /></g><g
           transform="translate(256,212.274)"
           id="g342"><path
             id="path344"
             style="fill:#ededed;fill-opacity:1;fill-rule:nonzero;stroke:none"
             d="m 0,0 c 9.126,0 16.524,-7.398 16.524,-16.524 0,-9.126 -7.398,-16.524 -16.524,-16.524 -9.126,0 -16.524,7.398 -16.524,16.524 C -16.524,-7.398 -9.126,0 0,0" /></g></g></g></g></svg>