<?xml version="1.0" encoding="utf-8"?>
<!-- Generator: Adobe Illustrator 18.0.0, SVG Export Plug-In . SVG Version: 6.00 Build 0)  -->
<!DOCTYPE svg PUBLIC "-//W3C//DTD SVG 1.1//EN" "http://www.w3.org/Graphics/SVG/1.1/DTD/svg11.dtd">
<svg version="1.1" id="Layer_3" xmlns="http://www.w3.org/2000/svg" xmlns:xlink="http://www.w3.org/1999/xlink" x="0px" y="0px"
	 viewBox="0 0 512 512" enable-background="new 0 0 512 512" xml:space="preserve">
<g>
	<g opacity="0.4" enable-background="new    ">
		
			<radialGradient id="SVGID_1_" cx="1.0125" cy="515" r="118.8609" gradientTransform="matrix(2 0 0 -2 254 1286)" gradientUnits="userSpaceOnUse">
			<stop  offset="0" style="stop-color:#010101"/>
			<stop  offset="0.8587" style="stop-color:#010101;stop-opacity:0.1413"/>
			<stop  offset="1" style="stop-color:#010101;stop-opacity:0"/>
		</radialGradient>
		<path fill="url(#SVGID_1_)" d="M449,449c-59.7,59.7-326.2,59.7-385.9,0S3.4,122.7,63,63s326.3-59.6,386,0S508.6,389.3,449,449z"/>
	</g>
	<g opacity="0.4" enable-background="new    ">
		
			<radialGradient id="SVGID_2_" cx="2.0286" cy="516.0684" r="133.1551" gradientTransform="matrix(1.4138 -1.4146 -0.979 -0.9784 758.388 763.7472)" gradientUnits="userSpaceOnUse">
			<stop  offset="0" style="stop-color:#010101"/>
			<stop  offset="0.8587" style="stop-color:#010101;stop-opacity:0.1413"/>
			<stop  offset="1" style="stop-color:#010101;stop-opacity:0"/>
		</radialGradient>
		<path fill="url(#SVGID_2_)" d="M449,449c-59.7,59.7-326.2,59.7-385.9,0S3.4,122.7,63,63s326.3-59.6,386,0S508.6,389.3,449,449z"/>
	</g>
	<g opacity="0.4" enable-background="new    ">
		
			<radialGradient id="SVGID_3_" cx="3.4424" cy="513.9732" r="133.1784" gradientTransform="matrix(-1.4138 -1.4146 0.979 -0.9784 -242.3879 763.7472)" gradientUnits="userSpaceOnUse">
			<stop  offset="0" style="stop-color:#010101"/>
			<stop  offset="0.8587" style="stop-color:#010101;stop-opacity:0.1413"/>
			<stop  offset="1" style="stop-color:#010101;stop-opacity:0"/>
		</radialGradient>
		<path fill="url(#SVGID_3_)" d="M63,449c59.7,59.7,326.2,59.7,385.9,0s59.7-326.2,0-385.9S122.7,3.4,63,63S3.4,389.3,63,449z"/>
	</g>
</g>
<path fill="#0A0A0A" d="M433.3,433.3c-70.3,70.3-284.3,70.3-354.6,0S8.4,149,78.7,78.7s284.3-70.3,354.6,0S503.6,363,433.3,433.3z"
	/>
<path fill="#FFFFFF" d="M300.8,265.1v-69.8c0-24.8-20.1-44.8-44.8-44.8c-24.8,0-44.8,20.1-44.8,44.8v69.8
	c-8.6,10.2-13.8,23.4-13.8,37.8c0,32.4,26.3,58.7,58.7,58.7s58.7-26.3,58.7-58.7C314.7,288.5,309.5,275.3,300.8,265.1z M261.3,301.4
	v19.5c0,2.9-2.4,5.3-5.3,5.3c-2.9,0-5.3-2.4-5.3-5.3v-19.5c-3.7-1.9-6.2-5.8-6.2-10.2c0-6.4,5.2-11.5,11.5-11.5s11.5,5.2,11.5,11.5
	C267.5,295.6,265,299.5,261.3,301.4z M290,255.1c-9.6-6.8-21.3-10.9-34-10.9c-12.7,0-24.4,4-34,10.9v-59.8c0-18.7,15.2-34,34-34
	s34,15.2,34,34V255.1z"/>
<path fill="#FFFFFF" d="M256,116.6c37.2,0,72.3,14.5,98.6,40.8c26.3,26.3,40.8,61.4,40.8,98.6c0,37.2-14.5,72.3-40.8,98.6
	c-26.3,26.3-61.4,40.8-98.6,40.8s-72.3-14.5-98.6-40.8c-26.3-26.3-40.8-61.4-40.8-98.6c0-37.2,14.5-72.3,40.8-98.6
	C183.7,131.1,218.8,116.6,256,116.6 M256,94.1c-89.4,0-161.9,72.5-161.9,161.9c0,89.4,72.5,161.9,161.9,161.9
	c89.4,0,161.9-72.5,161.9-161.9C417.9,166.6,345.4,94.1,256,94.1L256,94.1z"/>
</svg>
