<?xml version="1.0" encoding="UTF-8" standalone="no"?>
<svg
   xmlns:dc="http://purl.org/dc/elements/1.1/"
   xmlns:cc="http://creativecommons.org/ns#"
   xmlns:rdf="http://www.w3.org/1999/02/22-rdf-syntax-ns#"
   xmlns:svg="http://www.w3.org/2000/svg"
   xmlns="http://www.w3.org/2000/svg"
   viewBox="0 0 640 640"
   height="640"
   width="640"
   xml:space="preserve"
   version="1.1"
   id="svg2"><metadata
     id="metadata8"><rdf:RDF><cc:Work
         rdf:about=""><dc:format>image/svg+xml</dc:format><dc:type
           rdf:resource="http://purl.org/dc/dcmitype/StillImage" /></cc:Work></rdf:RDF></metadata><defs
     id="defs6"><clipPath
       id="clipPath16"
       clipPathUnits="userSpaceOnUse"><path
         id="path18"
         d="M 0,512 512,512 512,0 0,0 0,512 Z" /></clipPath><clipPath
       id="clipPath24"
       clipPathUnits="userSpaceOnUse"><path
         id="path26"
         d="m 18.275,493.744 475.45,0 0,-475.4877 -475.45,0 0,475.4877 z" /></clipPath><clipPath
       id="clipPath28"
       clipPathUnits="userSpaceOnUse"><path
         id="path30"
         d="m 18.275,493.744 475.45,0 0,-475.4877 -475.45,0 0,475.4877 z" /></clipPath><clipPath
       id="clipPath32"
       clipPathUnits="userSpaceOnUse"><path
         id="path34"
         d="m 18.325,493.744 475.4,0 0,-475.4877 -475.4,0 0,475.4877 z" /></clipPath><clipPath
       id="clipPath36"
       clipPathUnits="userSpaceOnUse"><path
         id="path38"
         d="M 448.99,63.029 C 389.293,3.332 122.807,3.332 63.11,63.029 3.413,122.726 3.413,389.312 63.01,449.009 c 59.597,59.696 326.283,59.596 385.98,0 59.697,-59.597 59.597,-326.283 0,-385.98" /></clipPath><radialGradient
       id="radialGradient44"
       spreadMethod="pad"
       gradientTransform="matrix(237.72188,0,0,237.72188,256.02499,256)"
       gradientUnits="userSpaceOnUse"
       r="1"
       cy="0"
       cx="0"
       fy="0"
       fx="0"><stop
         id="stop46"
         offset="0"
         style="stop-opacity:1;stop-color:#ffffff" /><stop
         id="stop48"
         offset="0.8587"
         style="stop-opacity:0.14129854;stop-color:#ffffff" /><stop
         id="stop50"
         offset="1"
         style="stop-opacity:0;stop-color:#ffffff" /></radialGradient><mask
       id="mask52"
       height="1"
       width="1"
       y="0"
       x="0"
       maskUnits="userSpaceOnUse"><g
         id="g54"><g
           id="g56"><g
             id="g58"><g
               id="g60"><path
                 id="path62"
                 style="fill:url(#radialGradient44);stroke:none"
                 d="m -32768,32767 65535,0 0,-65535 -65535,0 0,65535 z" /></g></g></g></g></mask><radialGradient
       id="radialGradient64"
       spreadMethod="pad"
       gradientTransform="matrix(237.72188,0,0,237.72188,256.02499,256)"
       gradientUnits="userSpaceOnUse"
       r="1"
       cy="0"
       cx="0"
       fy="0"
       fx="0"><stop
         id="stop66"
         offset="0"
         style="stop-opacity:1;stop-color:#010101" /><stop
         id="stop68"
         offset="0.8587"
         style="stop-opacity:1;stop-color:#010101" /><stop
         id="stop70"
         offset="1"
         style="stop-opacity:1;stop-color:#010101" /></radialGradient><clipPath
       id="clipPath72"
       clipPathUnits="userSpaceOnUse"><path
         id="path74"
         d="m 18.325,493.744 475.4,0 0,-475.4877 -475.4,0 0,475.4877 z" /></clipPath><clipPath
       id="clipPath76"
       clipPathUnits="userSpaceOnUse"><path
         id="path78"
         d="M 448.99,63.029 C 389.293,3.332 122.807,3.332 63.11,63.029 3.413,122.726 3.413,389.312 63.01,449.009 c 59.597,59.696 326.283,59.596 385.98,0 59.697,-59.597 59.597,-326.283 0,-385.98" /></clipPath><radialGradient
       id="radialGradient84"
       spreadMethod="pad"
       gradientTransform="matrix(188.25467,188.36119,-130.35883,130.27895,256.02499,256.04376)"
       gradientUnits="userSpaceOnUse"
       r="1"
       cy="0"
       cx="0"
       fy="0"
       fx="0"><stop
         id="stop86"
         offset="0"
         style="stop-opacity:1;stop-color:#ffffff" /><stop
         id="stop88"
         offset="0.8587"
         style="stop-opacity:0.14129854;stop-color:#ffffff" /><stop
         id="stop90"
         offset="1"
         style="stop-opacity:0;stop-color:#ffffff" /></radialGradient><mask
       id="mask92"
       height="1"
       width="1"
       y="0"
       x="0"
       maskUnits="userSpaceOnUse"><g
         id="g94"><g
           id="g96"><g
             id="g98"><g
               id="g100"><path
                 id="path102"
                 style="fill:url(#radialGradient84);stroke:none"
                 d="m -32768,32767 65535,0 0,-65535 -65535,0 0,65535 z" /></g></g></g></g></mask><radialGradient
       id="radialGradient104"
       spreadMethod="pad"
       gradientTransform="matrix(188.25467,188.36119,-130.35883,130.27895,256.02499,256.04376)"
       gradientUnits="userSpaceOnUse"
       r="1"
       cy="0"
       cx="0"
       fy="0"
       fx="0"><stop
         id="stop106"
         offset="0"
         style="stop-opacity:1;stop-color:#010101" /><stop
         id="stop108"
         offset="0.8587"
         style="stop-opacity:1;stop-color:#010101" /><stop
         id="stop110"
         offset="1"
         style="stop-opacity:1;stop-color:#010101" /></radialGradient><clipPath
       id="clipPath112"
       clipPathUnits="userSpaceOnUse"><path
         id="path114"
         d="m 18.275,493.694 475.387,0 0,-475.4377 -475.387,0 0,475.4377 z" /></clipPath><clipPath
       id="clipPath116"
       clipPathUnits="userSpaceOnUse"><path
         id="path118"
         d="m 63.01,63.029 c 59.697,-59.697 326.183,-59.697 385.88,0 59.697,59.697 59.697,326.183 0,385.88 -59.697,59.696 -326.183,59.696 -385.88,0.1 -59.697,-59.597 -59.597,-326.283 0,-385.98" /></clipPath><radialGradient
       id="radialGradient124"
       spreadMethod="pad"
       gradientTransform="matrix(-188.28767,188.39421,130.38168,130.30179,255.92499,255.99377)"
       gradientUnits="userSpaceOnUse"
       r="1"
       cy="0"
       cx="0"
       fy="0"
       fx="0"><stop
         id="stop126"
         offset="0"
         style="stop-opacity:1;stop-color:#ffffff" /><stop
         id="stop128"
         offset="0.8587"
         style="stop-opacity:0.14129854;stop-color:#ffffff" /><stop
         id="stop130"
         offset="1"
         style="stop-opacity:0;stop-color:#ffffff" /></radialGradient><mask
       id="mask132"
       height="1"
       width="1"
       y="0"
       x="0"
       maskUnits="userSpaceOnUse"><g
         id="g134"><g
           id="g136"><g
             id="g138"><g
               id="g140"><path
                 id="path142"
                 style="fill:url(#radialGradient124);stroke:none"
                 d="m -32768,32767 65535,0 0,-65535 -65535,0 0,65535 z" /></g></g></g></g></mask><radialGradient
       id="radialGradient144"
       spreadMethod="pad"
       gradientTransform="matrix(-188.28767,188.39421,130.38168,130.30179,255.92499,255.99377)"
       gradientUnits="userSpaceOnUse"
       r="1"
       cy="0"
       cx="0"
       fy="0"
       fx="0"><stop
         id="stop146"
         offset="0"
         style="stop-opacity:1;stop-color:#010101" /><stop
         id="stop148"
         offset="0.8587"
         style="stop-opacity:1;stop-color:#010101" /><stop
         id="stop150"
         offset="1"
         style="stop-opacity:1;stop-color:#010101" /></radialGradient><linearGradient
       id="linearGradient156"
       spreadMethod="pad"
       gradientTransform="matrix(459.99939,0,0,-459.99939,26.00049,256)"
       gradientUnits="userSpaceOnUse"
       y2="0"
       x2="1"
       y1="0"
       x1="0"><stop
         id="stop158"
         offset="0"
         style="stop-opacity:1;stop-color:#ff3c31" /><stop
         id="stop160"
         offset="1"
         style="stop-opacity:1;stop-color:#ff3c31" /></linearGradient></defs><g
     transform="matrix(1.25,0,0,-1.25,0,640)"
     id="g10"><g
       id="g12"><g
         clip-path="url(#clipPath16)"
         id="g14"><g
           id="g20"><g
             id="g22" /><g
             id="g162"><g
               id="g164"
               clip-path="url(#clipPath24)"><g
                 id="g166"><g
                   id="g168" /><g
                   id="g170"><g
                     id="g172"
                     clip-path="url(#clipPath28)"><g
                       id="g174"><g
                         id="g176" /><g
                         id="g178"><g
                           style="opacity:0.39999402"
                           id="g180"
                           clip-path="url(#clipPath32)"><g
                             id="g182"><g
                               id="g184"
                               clip-path="url(#clipPath36)"><g
                                 id="g186"><g
                                   id="g188" /><g
                                   id="g190"
                                   mask="url(#mask52)"><g
                                   id="g192"><path
                                   id="path194"
                                   style="fill:url(#radialGradient64);stroke:none"
                                   d="M 448.99,63.029 C 389.293,3.332 122.807,3.332 63.11,63.029 3.413,122.726 3.413,389.312 63.01,449.009 c 59.597,59.696 326.283,59.596 385.98,0 59.697,-59.597 59.597,-326.283 0,-385.98" /></g></g></g></g></g></g></g></g><g
                       id="g196"><g
                         id="g198" /><g
                         id="g200"><g
                           style="opacity:0.39999402"
                           id="g202"
                           clip-path="url(#clipPath72)"><g
                             id="g204"><g
                               id="g206"
                               clip-path="url(#clipPath76)"><g
                                 id="g208"><g
                                   id="g210" /><g
                                   id="g212"
                                   mask="url(#mask92)"><g
                                   id="g214"><path
                                   id="path216"
                                   style="fill:url(#radialGradient104);stroke:none"
                                   d="M 448.99,63.029 C 389.293,3.332 122.807,3.332 63.11,63.029 3.413,122.726 3.413,389.312 63.01,449.009 c 59.597,59.696 326.283,59.596 385.98,0 59.697,-59.597 59.597,-326.283 0,-385.98" /></g></g></g></g></g></g></g></g><g
                       id="g218"><g
                         id="g220" /><g
                         id="g222"><g
                           style="opacity:0.39999402"
                           id="g224"
                           clip-path="url(#clipPath112)"><g
                             id="g226"><g
                               id="g228"
                               clip-path="url(#clipPath116)"><g
                                 id="g230"><g
                                   id="g232" /><g
                                   id="g234"
                                   mask="url(#mask132)"><g
                                   id="g236"><path
                                   id="path238"
                                   style="fill:url(#radialGradient144);stroke:none"
                                   d="m 63.01,63.029 c 59.697,-59.697 326.183,-59.697 385.88,0 59.697,59.697 59.697,326.183 0,385.88 -59.697,59.696 -326.183,59.696 -385.88,0.1 -59.697,-59.597 -59.597,-326.283 0,-385.98" /></g></g></g></g></g></g></g></g></g></g></g><g
                 id="g240"><g
                   id="g242"><g
                     id="g244"><g
                       id="g246"><path
                         id="path248"
                         style="fill:url(#linearGradient156);stroke:none"
                         d="m 433.279,78.721 c -70.294,-70.294 -284.264,-70.294 -354.558,0 -70.294,70.294 -70.294,284.264 0,354.558 70.294,70.294 284.264,70.294 354.558,0 70.294,-70.294 70.295,-284.264 0,-354.558" /></g></g></g></g></g></g></g><g
           transform="translate(78.721,78.721)"
           id="g250"><path
             id="path252"
             style="fill:#9c56b8;fill-opacity:1;fill-rule:nonzero;stroke:none"
             d="m 0,0 c 70.294,-70.294 284.264,-70.294 354.558,0 6.742,6.742 12.831,14.815 18.279,23.946 l -391.116,0 C -12.831,14.815 -6.742,6.742 0,0" /></g><g
           transform="translate(60.442,102.667)"
           id="g254"><path
             id="path256"
             style="fill:#2d98e0;fill-opacity:1;fill-rule:nonzero;stroke:none"
             d="m 0,0 391.116,0 c 12.503,20.953 21.599,47.528 27.292,76.666 l -445.7,0 C -21.598,47.528 -12.503,20.953 0,0" /></g><g
           transform="translate(33.1501,179.334)"
           id="g258"><path
             id="path260"
             style="fill:#00bd9b;fill-opacity:1;fill-rule:nonzero;stroke:none"
             d="m 0,0 445.7,0 c 4.761,24.364 7.15,50.512 7.15,76.666 l -460,0 C -7.15,50.512 -4.76,24.364 0,0" /></g><g
           transform="translate(26.0005,256)"
           id="g262"><path
             id="path264"
             style="fill:#51d88b;fill-opacity:1;fill-rule:nonzero;stroke:none"
             d="m 0,0 459.999,0 c 0,26.155 -2.389,52.303 -7.15,76.667 l -445.699,0 C 2.389,52.303 0,26.155 0,0" /></g><g
           transform="translate(33.1503,332.667)"
           id="g266"><path
             id="path268"
             style="fill:#f1c50e;fill-opacity:1;fill-rule:nonzero;stroke:none"
             d="m 0,0 445.7,0 c -5.694,29.138 -14.789,55.713 -27.292,76.666 l -391.116,0 C 14.789,55.713 5.694,29.138 0,0" /></g><g
           transform="translate(433.279,433.279)"
           id="g270"><path
             id="path272"
             style="fill:#e84c3d;fill-opacity:1;fill-rule:nonzero;stroke:none"
             d="m 0,0 c -70.294,70.294 -284.264,70.294 -354.558,0 -6.741,-6.741 -12.83,-14.814 -18.278,-23.945 l 391.115,0 C 12.83,-14.814 6.741,-6.741 0,0" /></g><g
           transform="translate(341.8783,323.2997)"
           id="g274"><path
             id="path276"
             style="fill:#ffffff;fill-opacity:1;fill-rule:nonzero;stroke:none"
             d="m 0,0 c -3.5,3.5 -9.228,3.5 -12.728,0 l -64.473,-64.474 c -3.501,-3.5 -9.228,-3.5 -12.728,0 l -39.946,39.946 c -3.5,3.5 -9.228,3.5 -12.728,0 l -22.334,-22.335 c -3.501,-3.501 -3.501,-9.228 0,-12.728 l 39.944,-39.945 12.728,-12.728 22.336,-22.335 c 3.5,-3.501 9.227,-3.501 12.727,0 l 22.335,22.335 c 3.5,3.5 9.228,9.228 12.728,12.728 l 64.474,64.473 c 3.5,3.5 3.5,9.228 0,12.728 L 0,0 Z" /></g></g></g></g></svg>