<?xml version="1.0" encoding="utf-8"?>
<!-- Generator: Adobe Illustrator 16.0.0, SVG Export Plug-In . SVG Version: 6.00 Build 0)  -->
<!DOCTYPE svg PUBLIC "-//W3C//DTD SVG 1.1//EN" "http://www.w3.org/Graphics/SVG/1.1/DTD/svg11.dtd">
<svg version="1.1"
	 id="svg2" xmlns:rdf="http://www.w3.org/1999/02/22-rdf-syntax-ns#" xmlns:svg="http://www.w3.org/2000/svg" xmlns:cc="http://creativecommons.org/ns#" xmlns:dc="http://purl.org/dc/elements/1.1/"
	 xmlns="http://www.w3.org/2000/svg" xmlns:xlink="http://www.w3.org/1999/xlink" x="0px" y="0px" width="640px" height="640px"
	 viewBox="0 0 640 640" enable-background="new 0 0 640 640" xml:space="preserve">
<g>
	<g>
		<g>
			<g>
				<g>
					<g id="g22">
					</g>
					<g>
						<g id="g20">
							<defs>
								<polygon id="SVGID_1_" points="18.325,493.744 493.725,493.744 493.725,18.256 18.325,18.256 18.325,493.744 								"/>
							</defs>
							<clipPath id="SVGID_2_">
								<use xlink:href="#SVGID_1_"  overflow="visible"/>
							</clipPath>
							<g id="g64" clip-path="url(#SVGID_2_)">
								<g id="g66" opacity="0.4">
									<g id="g68">
										<defs>
											<path id="SVGID_3_" d="M448.99,63.029c-59.697-59.698-326.183-59.698-385.88,0c-59.698,59.697-59.698,326.283-0.1,385.98
												c59.597,59.696,326.283,59.596,385.98,0C508.687,389.412,508.587,122.726,448.99,63.029"/>
										</defs>
										<clipPath id="SVGID_4_">
											<use xlink:href="#SVGID_3_"  overflow="visible"/>
										</clipPath>
										<g id="g70" clip-path="url(#SVGID_4_)">
											<g id="g72">
												<g id="g74">
												</g>
												<defs>
													
														<filter id="Adobe_OpacityMaskFilter" filterUnits="userSpaceOnUse" x="18.324" y="-493.744" width="475.401" height="475.488">
														<feColorMatrix  type="matrix" values="1 0 0 0 0  0 1 0 0 0  0 0 1 0 0  0 0 0 1 0"/>
													</filter>
												</defs>
												<mask maskUnits="userSpaceOnUse" x="18.324" y="-493.744" width="475.401" height="475.488" id="mask44">
													<g id="g46" filter="url(#Adobe_OpacityMaskFilter)">
														<g id="g48">
															<g id="g50">
																<g id="g52">
																	
																		<radialGradient id="path54_1_" cx="51.5229" cy="51.1385" r="1" gradientTransform="matrix(237.7218 0 0 -237.7218 -12043.334 12463.8564)" gradientUnits="userSpaceOnUse">
																		<stop  offset="0" style="stop-color:#FFFFFF"/>
																		<stop  offset="0.8587" style="stop-color:#FFFFFF;stop-opacity:0.1413"/>
																		<stop  offset="1" style="stop-color:#FFFFFF;stop-opacity:0"/>
																	</radialGradient>
																	<path id="path54" fill="url(#path54_1_)" d="M-26214.4-25701.6h52428v52428h-52428V-25701.6z"/>
																</g>
															</g>
														</g>
													</g>
												</mask>
												<g id="g76" mask="url(#mask44)">
													<g id="g78">
														
															<radialGradient id="path80_1_" cx="51.5377" cy="50.5299" r="1.0005" gradientTransform="matrix(297.1523 0 0 297.1523 -15058.7168 -14758.9941)" gradientUnits="userSpaceOnUse">
															<stop  offset="0" style="stop-color:#010101"/>
															<stop  offset="0.8587" style="stop-color:#010101"/>
															<stop  offset="1" style="stop-color:#010101"/>
														</radialGradient>
														<path id="path80" fill="url(#path80_1_)" d="M448.99,63.029c-59.697-59.698-326.183-59.698-385.88,0
															c-59.698,59.697-59.698,326.283-0.1,385.98c59.597,59.696,326.283,59.596,385.98,0
															C508.687,389.412,508.587,122.726,448.99,63.029"/>
													</g>
												</g>
											</g>
										</g>
									</g>
								</g>
							</g>
						</g>
						<g>
							<g id="g84">
							</g>
							<g id="g10" transform="matrix(1.25,0,0,-1.25,0,640)">
								<g id="g82">
									<defs>
										<polygon id="SVGID_5_" points="18.325,493.744 493.725,493.744 493.725,18.256 18.325,18.256 18.325,493.744 										
											"/>
									</defs>
									<clipPath id="SVGID_6_">
										<use xlink:href="#SVGID_5_"  overflow="visible"/>
									</clipPath>
									<g id="g126" clip-path="url(#SVGID_6_)">
										<g id="g128" opacity="0.4">
											<g id="g130">
												<defs>
													<path id="SVGID_7_" d="M448.99,63.029c-59.697-59.698-326.183-59.698-385.88,0
														c-59.698,59.697-59.698,326.283-0.1,385.98c59.597,59.696,326.283,59.596,385.98,0
														C508.687,389.412,508.587,122.726,448.99,63.029"/>
												</defs>
												<clipPath id="SVGID_8_">
													<use xlink:href="#SVGID_7_"  overflow="visible"/>
												</clipPath>
												<g id="g132" clip-path="url(#SVGID_8_)">
													<g id="g134">
														<g id="g136">
														</g>
														<defs>
															
																<filter id="Adobe_OpacityMaskFilter_1_" filterUnits="userSpaceOnUse" x="18.324" y="-493.744" width="475.401" height="475.488">
																<feColorMatrix  type="matrix" values="1 0 0 0 0  0 1 0 0 0  0 0 1 0 0  0 0 0 1 0"/>
															</filter>
														</defs>
														<mask maskUnits="userSpaceOnUse" x="18.324" y="-493.744" width="475.401" height="475.488" id="mask106">
															<g id="g108" filter="url(#Adobe_OpacityMaskFilter_1_)">
																<g id="g110">
																	<g id="g112">
																		<g id="g114">
																			
																				<radialGradient id="path116_1_" cx="51.765" cy="51.1783" r="1" gradientTransform="matrix(188.2547 -188.3612 -130.3588 -130.2789 -2868.5925 16725.1426)" gradientUnits="userSpaceOnUse">
																				<stop  offset="0" style="stop-color:#FFFFFF"/>
																				<stop  offset="0.8587" style="stop-color:#FFFFFF;stop-opacity:0.1413"/>
																				<stop  offset="1" style="stop-color:#FFFFFF;stop-opacity:0"/>
																			</radialGradient>
																			<path id="path116" fill="url(#path116_1_)" d="M-26214.4-25701.6h52428v52428h-52428V-25701.6z"/>
																		</g>
																	</g>
																</g>
															</g>
														</mask>
														<g id="g138" mask="url(#mask106)">
															<g id="g140">
																
																	<radialGradient id="path142_1_" cx="51.39" cy="50.6111" r="1.0006" gradientTransform="matrix(235.3183 235.4515 -162.9485 162.8487 -3590.2888 -20085.709)" gradientUnits="userSpaceOnUse">
																	<stop  offset="0" style="stop-color:#010101"/>
																	<stop  offset="0.8587" style="stop-color:#010101"/>
																	<stop  offset="1" style="stop-color:#010101"/>
																</radialGradient>
																<path id="path142" fill="url(#path142_1_)" d="M448.99,63.029c-59.697-59.698-326.183-59.698-385.88,0
																	c-59.698,59.697-59.698,326.283-0.1,385.98c59.597,59.696,326.283,59.596,385.98,0
																	C508.687,389.412,508.587,122.726,448.99,63.029"/>
															</g>
														</g>
													</g>
												</g>
											</g>
										</g>
									</g>
								</g>
								<g id="g12">
									<g id="g146">
									</g>
									<g id="g14">
										<g id="g144">
											<defs>
												<rect id="SVGID_9_" x="-41.148" y="-41.173" width="594.233" height="594.297"/>
											</defs>
											<clipPath id="SVGID_10_">
												<use xlink:href="#SVGID_9_"  overflow="visible"/>
											</clipPath>
											<g id="g188" clip-path="url(#SVGID_10_)">
												<g id="g190" opacity="0.4">
													<g id="g192">
														<defs>
															<path id="SVGID_11_" d="M63.01,63.029c59.697-59.698,326.183-59.698,385.88,0c59.697,59.697,59.697,326.183,0,385.88
																c-59.697,59.696-326.183,59.696-385.88,0.1C3.313,389.412,3.413,122.726,63.01,63.029"/>
														</defs>
														<clipPath id="SVGID_12_">
															<use xlink:href="#SVGID_11_"  overflow="visible"/>
														</clipPath>
														<g id="g194" clip-path="url(#SVGID_12_)">
															<g id="g196">
																<g id="g198">
																</g>
																<defs>
																	
																		<filter id="Adobe_OpacityMaskFilter_2_" filterUnits="userSpaceOnUse" x="18.274" y="-493.694" width="475.388" height="475.438">
																		<feColorMatrix  type="matrix" values="1 0 0 0 0  0 1 0 0 0  0 0 1 0 0  0 0 0 1 0"/>
																	</filter>
																</defs>
																<mask maskUnits="userSpaceOnUse" x="18.274" y="-493.694" width="475.388" height="475.438" id="mask168">
																	<g id="g170" filter="url(#Adobe_OpacityMaskFilter_2_)">
																		<g id="g172">
																			<g id="g174">
																				<g id="g176">
																					
																						<radialGradient id="path178_1_" cx="51.8619" cy="51.0377" r="1" gradientTransform="matrix(-188.2877 -188.3942 130.3817 -130.3018 3315.313 16728.0469)" gradientUnits="userSpaceOnUse">
																						<stop  offset="0" style="stop-color:#FFFFFF"/>
																						<stop  offset="0.8587" style="stop-color:#FFFFFF;stop-opacity:0.1413"/>
																						<stop  offset="1" style="stop-color:#FFFFFF;stop-opacity:0"/>
																					</radialGradient>
																					<path id="path178" fill="url(#path178_1_)" d="M-26214.4-25701.6h52428v52428h-52428V-25701.6z"/>
																				</g>
																			</g>
																		</g>
																	</g>
																</mask>
																<g id="g200" mask="url(#mask168)">
																	<g id="g202">
																		
																			<radialGradient id="path204_1_" cx="51.4682" cy="50.4971" r="1.0002" gradientTransform="matrix(-235.3596 235.4928 162.9771 162.8772 4139.6631 -20089.3398)" gradientUnits="userSpaceOnUse">
																			<stop  offset="0" style="stop-color:#010101"/>
																			<stop  offset="0.8587" style="stop-color:#010101"/>
																			<stop  offset="1" style="stop-color:#010101"/>
																		</radialGradient>
																		<path id="path204" fill="url(#path204_1_)" d="M63.01,63.029c59.697-59.698,326.183-59.698,385.88,0
																			c59.697,59.697,59.697,326.183,0,385.88c-59.697,59.696-326.183,59.696-385.88,0.1
																			C3.313,389.412,3.413,122.726,63.01,63.029"/>
																	</g>
																</g>
															</g>
														</g>
													</g>
												</g>
											</g>
										</g>
									</g>
								</g>
								<g id="g206">
									<g id="g208">
										<g id="g214">
											<g id="g216">
												
													<linearGradient id="path224_1_" gradientUnits="userSpaceOnUse" x1="51.4607" y1="50.7682" x2="52.4607" y2="50.7682" gradientTransform="matrix(0 574.9987 574.9987 0 -28935.7949 -29563.7969)">
													<stop  offset="0" style="stop-color:#81F1FD"/>
													<stop  offset="1" style="stop-color:#2279F0"/>
												</linearGradient>
												<path id="path224" fill="url(#path224_1_)" d="M78.721,433.279c-70.295-70.294-70.295-284.264,0-354.559l0,0
													c70.294-70.294,284.263-70.294,354.558,0l0,0c70.295,70.295,70.294,284.265,0,354.559l0,0
													C398.131,468.426,327.066,486,256,486l0,0C184.934,486,113.868,468.426,78.721,433.279"/>
											</g>
										</g>
									</g>
								</g>
								<g id="g226">
									<g>
										<defs>
											<rect id="SVGID_13_" x="-64" y="-64" width="640" height="640"/>
										</defs>
										<clipPath id="SVGID_14_">
											<use xlink:href="#SVGID_13_"  overflow="visible"/>
										</clipPath>
									</g>
								</g>
							</g>
						</g>
					</g>
				</g>
			</g>
		</g>
	</g>
</g>
<path fill="#FFFFFF" d="M177.794,160l50.268,0c10.678,0,17.795,7.118,17.795,17.794c-0.001,21.32,3.559,56.781,10.676,78.102
	c1.796,5.322,0,12.44-3.559,17.794l-18.106,14.585c0,0-5.27,4.201-6.073,11.41c-0.46,4.12-0.576,8.192,1.788,12.288
	c11.583,20.072,25.687,38.391,42.821,54.625c16.922,16.031,34.552,31.237,54.624,42.82c4.097,2.363,8.169,2.248,12.288,1.789
	c7.21-0.806,11.41-6.075,11.41-6.075l14.584-18.106c5.354-3.558,12.473-5.354,17.794-3.558
	c21.321,7.116,56.781,10.676,78.102,10.676c10.677,0,17.794,7.118,17.794,17.794v50.27c0,10.676-7.117,17.793-17.794,17.793
	c-83.54,0.002-159.089-33.779-213.753-88.451c0,0,0,0,0,0C193.781,336.883,160,261.335,160,177.794
	C160,167.118,167.119,160,177.794,160z"/>
</svg>
