<?xml version="1.0" encoding="UTF-8" standalone="no"?>
<svg
   xmlns:dc="http://purl.org/dc/elements/1.1/"
   xmlns:cc="http://creativecommons.org/ns#"
   xmlns:rdf="http://www.w3.org/1999/02/22-rdf-syntax-ns#"
   xmlns:svg="http://www.w3.org/2000/svg"
   xmlns="http://www.w3.org/2000/svg"
   xmlns:sodipodi="http://sodipodi.sourceforge.net/DTD/sodipodi-0.dtd"
   xmlns:inkscape="http://www.inkscape.org/namespaces/inkscape"
   viewBox="0 0 640 640"
   height="640"
   width="640"
   xml:space="preserve"
   version="1.1"
   id="svg2"
   inkscape:version="0.91 r13725"
   sodipodi:docname="texmaker.svg"><sodipodi:namedview
     pagecolor="#ffffff"
     bordercolor="#666666"
     borderopacity="1"
     objecttolerance="10"
     gridtolerance="10"
     guidetolerance="10"
     inkscape:pageopacity="0"
     inkscape:pageshadow="2"
     inkscape:window-width="1366"
     inkscape:window-height="713"
     id="namedview101"
     showgrid="false"
     inkscape:snap-bbox="true"
     inkscape:bbox-paths="true"
     inkscape:bbox-nodes="true"
     inkscape:snap-bbox-edge-midpoints="true"
     inkscape:snap-bbox-midpoints="true"
     inkscape:snap-smooth-nodes="true"
     inkscape:object-nodes="true"
     inkscape:snap-intersection-paths="true"
     inkscape:object-paths="true"
     inkscape:snap-midpoints="true"
     inkscape:zoom="0.36875"
     inkscape:cx="343.05085"
     inkscape:cy="356.61017"
     inkscape:window-x="0"
     inkscape:window-y="27"
     inkscape:window-maximized="1"
     inkscape:current-layer="svg2"
     inkscape:snap-global="false" /><metadata
     id="metadata8"><rdf:RDF><cc:Work
         rdf:about=""><dc:format>image/svg+xml</dc:format><dc:type
           rdf:resource="http://purl.org/dc/dcmitype/StillImage" /><dc:title></dc:title></cc:Work></rdf:RDF></metadata><defs
     id="defs6"><clipPath
       id="clipPath16"
       clipPathUnits="userSpaceOnUse"><path
         id="path18"
         d="M 0,512 512,512 512,0 0,0 0,512 Z" /></clipPath><clipPath
       id="clipPath24"
       clipPathUnits="userSpaceOnUse"><path
         id="path26"
         d="m 18.325,493.744 475.4,0 0,-475.4877 -475.4,0 0,475.4877 z" /></clipPath><clipPath
       id="clipPath28"
       clipPathUnits="userSpaceOnUse"><path
         id="path30"
         d="M 448.99,63.029 C 389.293,3.332 122.807,3.332 63.11,63.029 3.413,122.726 3.413,389.312 63.01,449.009 c 59.597,59.696 326.283,59.596 385.98,0 59.697,-59.597 59.597,-326.283 0,-385.98" /></clipPath><radialGradient
       id="radialGradient36"
       spreadMethod="pad"
       gradientTransform="matrix(237.72188,0,0,237.72188,256.02499,256)"
       gradientUnits="userSpaceOnUse"
       r="1"
       cy="0"
       cx="0"
       fy="0"
       fx="0"><stop
         id="stop38"
         offset="0"
         style="stop-opacity:1;stop-color:#ffffff" /><stop
         id="stop40"
         offset="0.8587"
         style="stop-opacity:0.14129854;stop-color:#ffffff" /><stop
         id="stop42"
         offset="1"
         style="stop-opacity:0;stop-color:#ffffff" /></radialGradient><mask
       id="mask44"
       height="1"
       width="1"
       y="0"
       x="0"
       maskUnits="userSpaceOnUse"><g
         id="g46"><g
           id="g48"><g
             id="g50"><g
               id="g52"><path
                 id="path54"
                 style="fill:url(#radialGradient36);stroke:none"
                 d="m -32768,32767 65535,0 0,-65535 -65535,0 0,65535 z" /></g></g></g></g></mask><radialGradient
       id="radialGradient56"
       spreadMethod="pad"
       gradientTransform="matrix(237.72188,0,0,237.72188,256.02499,256)"
       gradientUnits="userSpaceOnUse"
       r="1"
       cy="0"
       cx="0"
       fy="0"
       fx="0"><stop
         id="stop58"
         offset="0"
         style="stop-opacity:1;stop-color:#010101" /><stop
         id="stop60"
         offset="0.8587"
         style="stop-opacity:1;stop-color:#010101" /><stop
         id="stop62"
         offset="1"
         style="stop-opacity:1;stop-color:#010101" /></radialGradient><clipPath
       id="clipPath86"
       clipPathUnits="userSpaceOnUse"><path
         id="path88"
         d="m 18.325,493.744 475.4,0 0,-475.4877 -475.4,0 0,475.4877 z" /></clipPath><clipPath
       id="clipPath90"
       clipPathUnits="userSpaceOnUse"><path
         id="path92"
         d="M 448.99,63.029 C 389.293,3.332 122.807,3.332 63.11,63.029 3.413,122.726 3.413,389.312 63.01,449.009 c 59.597,59.696 326.283,59.596 385.98,0 59.697,-59.597 59.597,-326.283 0,-385.98" /></clipPath><radialGradient
       id="radialGradient98"
       spreadMethod="pad"
       gradientTransform="matrix(188.25467,188.36119,-130.35883,130.27895,256.02499,256.04376)"
       gradientUnits="userSpaceOnUse"
       r="1"
       cy="0"
       cx="0"
       fy="0"
       fx="0"><stop
         id="stop100"
         offset="0"
         style="stop-opacity:1;stop-color:#ffffff" /><stop
         id="stop102"
         offset="0.8587"
         style="stop-opacity:0.14129854;stop-color:#ffffff" /><stop
         id="stop104"
         offset="1"
         style="stop-opacity:0;stop-color:#ffffff" /></radialGradient><mask
       id="mask106"
       height="1"
       width="1"
       y="0"
       x="0"
       maskUnits="userSpaceOnUse"><g
         id="g108"><g
           id="g110"><g
             id="g112"><g
               id="g114"><path
                 id="path116"
                 style="fill:url(#radialGradient98);stroke:none"
                 d="m -32768,32767 65535,0 0,-65535 -65535,0 0,65535 z" /></g></g></g></g></mask><radialGradient
       id="radialGradient118"
       spreadMethod="pad"
       gradientTransform="matrix(188.25467,188.36119,-130.35883,130.27895,256.02499,256.04376)"
       gradientUnits="userSpaceOnUse"
       r="1"
       cy="0"
       cx="0"
       fy="0"
       fx="0"><stop
         id="stop120"
         offset="0"
         style="stop-opacity:1;stop-color:#010101" /><stop
         id="stop122"
         offset="0.8587"
         style="stop-opacity:1;stop-color:#010101" /><stop
         id="stop124"
         offset="1"
         style="stop-opacity:1;stop-color:#010101" /></radialGradient><clipPath
       id="clipPath148"
       clipPathUnits="userSpaceOnUse"><path
         id="path150"
         d="m 18.275,493.694 475.387,0 0,-475.4377 -475.387,0 0,475.4377 z" /></clipPath><clipPath
       id="clipPath152"
       clipPathUnits="userSpaceOnUse"><path
         id="path154"
         d="m 63.01,63.029 c 59.697,-59.697 326.183,-59.697 385.88,0 59.697,59.697 59.697,326.183 0,385.88 -59.697,59.696 -326.183,59.696 -385.88,0.1 -59.697,-59.597 -59.597,-326.283 0,-385.98" /></clipPath><radialGradient
       id="radialGradient160"
       spreadMethod="pad"
       gradientTransform="matrix(-188.28767,188.39421,130.38168,130.30179,255.92499,255.99377)"
       gradientUnits="userSpaceOnUse"
       r="1"
       cy="0"
       cx="0"
       fy="0"
       fx="0"><stop
         id="stop162"
         offset="0"
         style="stop-opacity:1;stop-color:#ffffff" /><stop
         id="stop164"
         offset="0.8587"
         style="stop-opacity:0.14129854;stop-color:#ffffff" /><stop
         id="stop166"
         offset="1"
         style="stop-opacity:0;stop-color:#ffffff" /></radialGradient><mask
       id="mask168"
       height="1"
       width="1"
       y="0"
       x="0"
       maskUnits="userSpaceOnUse"><g
         id="g170"><g
           id="g172"><g
             id="g174"><g
               id="g176"><path
                 id="path178"
                 style="fill:url(#radialGradient160);stroke:none"
                 d="m -32768,32767 65535,0 0,-65535 -65535,0 0,65535 z" /></g></g></g></g></mask><radialGradient
       id="radialGradient180"
       spreadMethod="pad"
       gradientTransform="matrix(-188.28767,188.39421,130.38168,130.30179,255.92499,255.99377)"
       gradientUnits="userSpaceOnUse"
       r="1"
       cy="0"
       cx="0"
       fy="0"
       fx="0"><stop
         id="stop182"
         offset="0"
         style="stop-opacity:1;stop-color:#010101" /><stop
         id="stop184"
         offset="0.8587"
         style="stop-opacity:1;stop-color:#010101" /><stop
         id="stop186"
         offset="1"
         style="stop-opacity:1;stop-color:#010101" /></radialGradient><linearGradient
       gradientTransform="matrix(0,-1,1,0,-1.5e-6,47.999998)"
       gradientUnits="userSpaceOnUse"
       x2="47"
       x1="1"
       id="linearGradient3764"><stop
         id="stop4234"
         style="stop-color:#a0db43;stop-opacity:1" /><stop
         id="stop4236"
         style="stop-color:#aade54;stop-opacity:1"
         offset="1" /></linearGradient></defs><g
     transform="matrix(1.25,0,0,-1.25,-5.5024009e-4,640.00024)"
     id="g10"><g
       id="g12"><g
         clip-path="url(#clipPath16)"
         id="g14"><g
           id="g20"><g
             id="g22" /><g
             id="g64"><g
               style="opacity:0.39999402"
               id="g66"
               clip-path="url(#clipPath24)"><g
                 id="g68"><g
                   id="g70"
                   clip-path="url(#clipPath28)"><g
                     id="g72"><g
                       id="g74" /><g
                       id="g76"
                       mask="url(#mask44)"><g
                         id="g78"><path
                           id="path80"
                           style="fill:url(#radialGradient56);stroke:none"
                           d="M 448.99,63.029 C 389.293,3.332 122.807,3.332 63.11,63.029 3.413,122.726 3.413,389.312 63.01,449.009 c 59.597,59.696 326.283,59.596 385.98,0 59.697,-59.597 59.597,-326.283 0,-385.98"
                           inkscape:connector-curvature="0" /></g></g></g></g></g></g></g></g><g
           id="g82"><g
             id="g84" /><g
             id="g126"><g
               style="opacity:0.39999402"
               id="g128"
               clip-path="url(#clipPath86)"><g
                 id="g130"><g
                   id="g132"
                   clip-path="url(#clipPath90)"><g
                     id="g134"><g
                       id="g136" /><g
                       id="g138"
                       mask="url(#mask106)"><g
                         id="g140"><path
                           id="path142"
                           style="fill:url(#radialGradient118);stroke:none"
                           d="M 448.99,63.029 C 389.293,3.332 122.807,3.332 63.11,63.029 3.413,122.726 3.413,389.312 63.01,449.009 c 59.597,59.696 326.283,59.596 385.98,0 59.697,-59.597 59.597,-326.283 0,-385.98"
                           inkscape:connector-curvature="0" /></g></g></g></g></g></g></g></g><g
           id="g144"><g
             id="g146" /><g
             id="g188"><g
               style="opacity:0.39999402"
               id="g190"
               clip-path="url(#clipPath148)"><g
                 id="g192"><g
                   id="g194"
                   clip-path="url(#clipPath152)"><g
                     id="g196"><g
                       id="g198" /><g
                       id="g200"
                       mask="url(#mask168)"><g
                         id="g202"><path
                           id="path204"
                           style="fill:url(#radialGradient180);stroke:none"
                           d="m 63.01,63.029 c 59.697,-59.697 326.183,-59.697 385.88,0 59.697,59.697 59.697,326.183 0,385.88 -59.697,59.696 -326.183,59.696 -385.88,0.1 -59.697,-59.597 -59.597,-326.283 0,-385.98"
                           inkscape:connector-curvature="0" /></g></g></g></g></g></g></g></g><g
           transform="translate(433.2807,78.7193)"
           id="g206"><path
             id="path208"
             style="fill:#e6e6e6;fill-opacity:1;fill-rule:nonzero;stroke:none"
             d="m 0,0 c -70.292,-70.292 -284.269,-70.292 -354.561,0 -70.293,70.292 -70.293,284.269 0,354.561 70.292,70.293 284.269,70.293 354.561,0 C 70.292,284.269 70.292,70.292 0,0"
             inkscape:connector-curvature="0" /></g><g
           transform="translate(320.5963,366.3397)"
           id="g210" /></g></g></g><g
     id="g4340"
     transform="matrix(0.71313349,0,0,0.71313349,120.68074,105.2532)"
     style="fill:#000000"><path
       id="path4262"
       style="fill:#000000;fill-opacity:1;fill-rule:nonzero;stroke:none"
       d="m 198.47474,174.71432 -183.59877,0 -5.381839,70.68286 5.68996,0 c 4.087733,-52.95565 8.668458,-62.24035 57.926666,-62.24035 l 17.562872,0 c 6.100787,0.96544 6.100787,4.88884 6.100787,12.20157 l 0,174.04704 c 0,11.62641 -0.965444,15.07737 -27.771933,15.07737 l -9.058745,0 0,7.70301 93.545402,0 0,-7.70301 -9.05874,0 c -26.39566,0 -27.36111,-3.53312 -27.36111,-15.07737 l 0,-174.04704 c 0,-7.06623 0,-10.8253 5.77213,-12.20157 l 17.41908,0 c 48.62142,0 53.51027,9.22307 57.70071,62.24035 l 5.54617,0"
       inkscape:connector-curvature="0" /><path
       id="path4264"
       style="fill:#000000;fill-opacity:1;fill-rule:nonzero;stroke:none"
       d="m 358.06066,381.1551 -5.68996,0 c -6.98407,47.43003 -11.15397,73.18891 -67.08812,73.18891 l -44.12287,0 c -12.67402,0 -13.24918,-1.60223 -13.24918,-12.59186 l 0,-89.39605 29.92878,0 c 30.01094,0 32.90727,11.0718 32.90727,38.04262 l 5.13535,0 0,-83.13093 -5.13535,0 c 0,26.47783 -2.89633,37.3853 -32.90727,37.3853 l -29.92878,0 0,-79.26915 c 0,-10.74314 0.55462,-12.36591 13.24918,-12.36591 l 43.48609,0 c 49.19658,0 54.9687,19.65809 59.3851,61.82953 l 5.77212,0 -7.62084,-70.68286 -161.04435,0 0,8.83279 c 22.55442,0 26.14916,0 26.14916,14.35842 l 0,172.50643 c 0,14.35842 -3.61528,14.35842 -26.14916,14.35842 l 0,7.70301 165.35803,0"
       inkscape:connector-curvature="0" /><path
       id="path4266"
       style="fill:#000000;fill-opacity:1;fill-rule:nonzero;stroke:none"
       d="m 443.73871,271.23823 47.0192,-68.36169 c 4.72452,-6.6554 14.35842,-20.4592 40.44596,-20.87003 l 0,-7.70301 -58.48128,0 0,7.70301 c 10.18852,0.96545 12.75619,7.37435 12.75619,12.5097 0,3.86177 -1.60223,6.42945 -3.86178,9.55173 l -41.96602,61.21329 -47.0192,-69.1628 c -2.23901,-3.53311 -2.56767,-4.49856 -2.56767,-5.464 0,-2.89633 3.45095,-8.3398 14.0503,-8.66846 l 0,-7.70301 -68.05356,0 0,7.70301 c 17.50125,0 23.19121,0.63678 30.17527,10.59935 l 61.37762,90.58744 -55.359,81.28221 c -13.63947,19.82242 -34.263,20.21271 -40.36379,20.21271 l 0,7.70301 58.39912,0 0,-7.70301 c -9.79824,-0.96545 -12.67403,-7.37435 -12.67403,-12.5097 0,-4.1699 1.60223,-6.42945 3.20445,-8.66846 l 50.88098,-74.6268 55.27683,81.69304 c 2.48551,3.53311 2.48551,4.49856 2.48551,5.464 0,2.56767 -2.81417,8.03168 -13.96814,8.66846 l 0,7.78518 68.05357,0 0,-7.78518 c -20.37704,0 -23.5815,-1.52006 -29.84662,-10.59935"
       inkscape:connector-curvature="0" /></g><path
     style="fill:#44aa00"
     d="M 555.28711 395.76562 C 555.28711 395.76562 549.7566 395.43152 548.05859 399.68945 L 533.625 425.49414 C 533.625 425.49414 526.8837 431.11525 517.57031 429.25 C 517.57031 429.25 507.89685 428.32447 505.63281 425.99609 C 505.63281 425.99609 491.03173 401.34773 490.32422 400.07422 C 490.32422 400.07422 487.62297 394.45391 481.96289 396.70508 L 458.44922 406.57031 C 458.44922 406.57031 453.72669 409.51667 454.91016 413.76172 L 463.25977 445.16211 C 463.25977 445.16211 461.47151 452.84237 456.04297 457.04883 C 456.04297 457.04883 446.4599 464.1236 441.8418 463.26172 L 416.17773 457.04883 C 416.17773 457.04883 408.74235 454.38531 405.82227 460.83008 L 396.21289 484.47461 C 396.21289 484.47461 394.37308 489.36257 399.44141 492.39844 L 424.65625 506.84375 C 424.65625 506.84375 432.68221 510.5227 430.32812 524.5957 C 430.32812 524.5957 430.80451 534.93826 420.60352 540.54688 C 410.40252 546.16836 401.61719 551.80273 401.61719 551.80273 C 401.61719 551.80273 395.99566 554.50366 398.41406 560.5625 C 400.84532 566.62135 409.92578 583.85937 409.92578 583.85938 C 409.92578 583.85938 411.61147 588.18289 419.72852 585.03125 L 441.89258 579.03516 C 441.89258 579.03516 448.32557 577.09269 455.15625 583.13867 C 455.15625 583.13867 457.67318 584.8589 460.02734 587.25 C 477.43025 581.60439 493.50314 574.7894 507.66992 566.78125 C 494.1256 562.80844 482.39705 553.03232 476.43164 539.04297 C 465.83188 514.20298 477.37093 485.45213 502.21094 474.86523 C 527.05094 464.23972 555.78809 475.80454 566.375 500.64453 C 567.03311 502.18491 567.60594 503.73968 568.0957 505.30469 C 575.82551 491.19957 582.40429 475.28476 587.85938 458.11328 C 586.98362 457.49426 586.13666 456.78426 585.36328 455.94141 C 585.36328 455.94141 576.52598 447.42658 579.24023 440.13281 L 584.96484 415.38281 C 584.96484 415.38281 586.43116 408.14099 580.95117 405.50391 L 555.28711 395.76562 z "
     id="path4371" /></svg>