<?xml version="1.0" encoding="UTF-8" standalone="no"?>
<svg
   xmlns:dc="http://purl.org/dc/elements/1.1/"
   xmlns:cc="http://creativecommons.org/ns#"
   xmlns:rdf="http://www.w3.org/1999/02/22-rdf-syntax-ns#"
   xmlns:svg="http://www.w3.org/2000/svg"
   xmlns="http://www.w3.org/2000/svg"
   xml:space="preserve"
   enable-background="new 0 0 512 512"
   viewBox="0 0 512 512"
   y="0px"
   x="0px"
   id="Layer_3"
   version="1.1"><metadata
     id="metadata97"><rdf:RDF><cc:Work
         rdf:about=""><dc:format>image/svg+xml</dc:format><dc:type
           rdf:resource="http://purl.org/dc/dcmitype/StillImage" /><dc:title></dc:title></cc:Work></rdf:RDF></metadata><defs
     id="defs95" /><g
     id="g3"><g
       id="g5"
       enable-background="new    "
       opacity="0.4"><radialGradient
         gradientUnits="userSpaceOnUse"
         gradientTransform="matrix(2 0 0 -2 254.5 1284.5)"
         r="118.8609"
         cy="514.25"
         cx="0.7625"
         id="SVGID_1_"><stop
           id="stop8"
           style="stop-color:#010101"
           offset="0" /><stop
           id="stop10"
           style="stop-color:#010101;stop-opacity:0.1413"
           offset="0.8587" /><stop
           id="stop12"
           style="stop-color:#010101;stop-opacity:0"
           offset="1" /></radialGradient><path
         id="path14"
         d="M448.99,448.971c-59.697,59.697-326.183,59.697-385.88,0s-59.697-326.283-0.1-385.98    s326.283-59.597,385.98,0S508.587,389.274,448.99,448.971z"
         fill="url(#SVGID_1_)" /></g><g
       id="g16"
       enable-background="new    "
       opacity="0.4"><radialGradient
         gradientUnits="userSpaceOnUse"
         gradientTransform="matrix(1.4138 -1.4146 -0.979 -0.9784 758.1053 762.0507)"
         r="133.1551"
         cy="515.0576"
         cx="1.5285"
         id="SVGID_2_"><stop
           id="stop19"
           style="stop-color:#010101"
           offset="0" /><stop
           id="stop21"
           style="stop-color:#010101;stop-opacity:0.1413"
           offset="0.8587" /><stop
           id="stop23"
           style="stop-color:#010101;stop-opacity:0"
           offset="1" /></radialGradient><path
         id="path25"
         d="M448.99,448.971c-59.697,59.697-326.183,59.697-385.88,0s-59.697-326.283-0.1-385.98    s326.283-59.597,385.98,0S508.587,389.274,448.99,448.971z"
         fill="url(#SVGID_2_)" /></g><g
       id="g27"
       enable-background="new    "
       opacity="0.4"><radialGradient
         gradientUnits="userSpaceOnUse"
         gradientTransform="matrix(-1.4138 -1.4146 0.979 -0.9784 -243.1053 762.0507)"
         r="133.1784"
         cy="513.4733"
         cx="2.5888"
         id="SVGID_3_"><stop
           id="stop30"
           style="stop-color:#010101"
           offset="0" /><stop
           id="stop32"
           style="stop-color:#010101;stop-opacity:0.1413"
           offset="0.8587" /><stop
           id="stop34"
           style="stop-color:#010101;stop-opacity:0"
           offset="1" /></radialGradient><path
         id="path36"
         d="M63.01,448.971c59.697,59.697,326.183,59.697,385.88,0s59.697-326.183,0-385.88    s-326.183-59.697-385.88-0.1S3.413,389.274,63.01,448.971z"
         fill="url(#SVGID_3_)" /></g></g><radialGradient
     gradientUnits="userSpaceOnUse"
     gradientTransform="matrix(1 0 0 1 0 -279)"
     r="229.9996"
     cy="535"
     cx="256.0002"
     id="SVGID_4_"><stop
       id="stop39"
       style="stop-color:#FFFFFF"
       offset="0" /><stop
       id="stop41"
       style="stop-color:#F7FCFC"
       offset="0.3361" /><stop
       id="stop43"
       style="stop-color:#E1F3F5"
       offset="0.8555" /><stop
       id="stop45"
       style="stop-color:#DAF0F2"
       offset="1" /></radialGradient><path
     id="path47"
     d="M433.279,433.279c-70.294,70.294-284.264,70.294-354.558,0s-70.294-284.264,0-354.558  s284.264-70.294,354.558,0S503.574,362.985,433.279,433.279z"
     fill="url(#SVGID_4_)" /><g
     id="g49"><g
       id="g51"><path
         id="path53"
         d="M228.533,108.187c0,0,36.481,37.489,16.422,78.625c-6.719,13.78-24.041,32.266-50.672,34.71    c-3.432,0.462,13.486,54.576,13.655,54.352c49.154-16.109,68.803-61.434,69.627-85.797    C279.776,124.689,228.533,108.187,228.533,108.187z"
         fill="#1AD4FF" /><path
         id="path55"
         d="M229.394,122.805c0,0,28.541,37.484,6.135,72.083c-7.506,11.59-25.002,26.235-49.078,25.526    c-3.119,0.04,6.124,50.261,6.301,50.08c45.699-9.059,68.194-47.447,71.579-69.14C273.416,143.13,229.394,122.805,229.394,122.805z    "
         fill="#2BDEFC" /><path
         id="path57"
         d="M229.355,134.061c0,0,26.34,34.592,5.662,66.522c-6.927,10.696-23.073,24.211-45.292,23.557    c-2.878,0.037,5.652,46.384,5.814,46.217c42.174-8.361,62.933-43.787,66.057-63.807    C269.98,152.818,229.355,134.061,229.355,134.061z"
         fill="#3AE7F9" /><path
         id="path59"
         d="M225.966,145.144c0,0,21.951,27.335,5.949,53.502c-5.36,8.766-18.517,21.373-36.44,21.308    c-2.319,0.089,5.944,35.893,6.071,35.755c33.82-7.617,49.816-36.605,51.917-52.807    C259.103,159.417,225.966,145.144,225.966,145.144z"
         fill="#48EEF7" /><path
         id="path61"
         d="M229.185,97.991c0,0,43.387,42.367,23.328,83.504c-6.719,13.78-23.43,34.625-50.061,37.07    c-3.432,0.462-54.288,42.916-22.25,54.255c21.573,7.844,49.071-0.775,49.24-0.998c49.154-16.109,65.533-58.746,66.357-83.109    C298.01,123.323,229.185,97.991,229.185,97.991z"
         fill="#0BCBFF" /></g><g
       id="g63"><path
         id="path65"
         d="M333.29,131.185c0,0,13.835,53.976-26.504,81.352c-13.513,9.171-39.316,17.069-65.218,5.211    c-3.416-1.393-16.469,57.574-16.194,57.458c53.956,11.171,96.136-20.292,109.811-42.366    C371.889,173.595,333.29,131.185,333.29,131.185z"
         fill="#1AD4FF" /><path
         id="path67"
         d="M326.337,145.148c0,0,6.502,49.763-32.541,69.854c-13.079,6.73-37.008,10.987-58.877-2.43    c-2.902-1.616-20.983,49.686-20.725,49.612c47.027,15.853,88.16-7.692,102.786-25.941    C356.238,187.263,326.337,145.148,326.337,145.148z"
         fill="#2BDEFC" /><path
         id="path69"
         d="M320.334,155.527c0,0,6,45.924-30.03,64.466c-12.07,6.211-34.153,10.14-54.335-2.243    c-2.679-1.492-19.365,45.853-19.126,45.785c43.399,14.63,81.359-7.099,94.857-23.94    C347.929,194.393,320.334,155.527,320.334,155.527z"
         fill="#3AE7F9" /><path
         id="path71"
         d="M311.328,163.971c0,0,5.793,36.892-22.864,52.588c-9.599,5.258-28.438,9.933-44.964,0.372    c-2.19-1.147-13.534,36.315-13.343,36.255c35.286,10.889,65.431-7.416,75.961-21.272    C334.38,194.724,311.328,163.971,311.328,163.971z"
         fill="#48EEF7" /></g><g
       id="g73"><path
         id="path75"
         d="M321.712,317.05c-8.356,75.705-67.012,87.718-67.012,87.718s45.718-37.887,22.934-77.713    C277.634,327.055,325.672,309.582,321.712,317.05z"
         fill="#06BDEF"
         display="none" /><path
         id="path77"
         d="M285.824,363.201c2.371,19.39,2.371,42.492,28.456,50.808c0,0-14.338-15.709,3.242-47.693L285.824,363.201    z"
         fill="#06BDEF" /><path
         id="path79"
         d="M240.4,211.202c-0.029-0.008-0.053-0.02-0.081-0.031c-1.28-0.521-34.299-8.828-59.449,1.749    c-37.955,15.579-51.586,54.248-20.576,80.922c0.057,0.049,0.1,0.111,0.124,0.182c2.55,7.276,11.052,15.916,14.318,19.052    c0.333,0.32,0.875-0.006,0.744-0.448c-1.061-3.592-3.056-12.575-0.276-22.618c0.011-0.038,0.026-0.077,0.045-0.112    c9.313-17.318,31.541-13.177,35.706-12.825c32.286,1.364,53.696,25.525,62.626,41.756c33.305,51.749-10.847,92.409-10.847,92.409    C343.966,391.832,367.096,245.841,240.4,211.202z"
         fill="#21D0F9" /></g><g
       id="g81"><path
         id="path83"
         d="M240.177,285.233c-2.719-1.473-5.584-2.787-8.579-3.919C236.654,283.978,240.071,285.277,240.177,285.233z    "
         fill="#0BCBFF" /><path
         id="path85"
         d="M246.787,213.118c-0.048-0.019-4.289-1.341-6.429-1.928c-0.218-0.259-33.918-9.023-59.486,1.73    c-37.99,15.594-51.612,54.321-20.489,80.998c3.118,9.09,15.648,20.37,15.648,20.37s-4.446-11.28-0.808-24.337    C220.677,221.5,260,313.127,331.504,270.357c79.173-47.357,7.793-148.247,7.793-148.247s17.814,62.417-22.709,89.52    C295.851,225.5,246.831,213.138,246.787,213.118"
         fill="#06BDEF" /></g><g
       id="g87"><path
         id="path89"
         d="M160.415,294.007c3.169,9.074,15.615,20.28,15.615,20.28s-7.888-18.51-6.566-24.038    C169.464,290.249,164.345,289.863,160.415,294.007z"
         fill="#00CFFF" /><path
         id="path91"
         d="M163.992,262.229c-2.48,0-4.491,2.01-4.491,4.491c0,2.48,2.011,4.491,4.491,4.491    c2.48,0,4.491-2.011,4.491-4.491C168.482,264.239,166.472,262.229,163.992,262.229z M163.992,269.706    c-1.585,0-2.87-1.285-2.87-2.87c0-1.585,1.285-2.87,2.87-2.87c1.585,0,2.87,1.285,2.87,2.87    C166.862,268.421,165.577,269.706,163.992,269.706z"
         fill="#FFFFFF" /></g></g></svg>