<?xml version="1.0" encoding="utf-8"?>
<!-- Generator: Adobe Illustrator 18.0.0, SVG Export Plug-In . SVG Version: 6.00 Build 0)  -->
<!DOCTYPE svg PUBLIC "-//W3C//DTD SVG 1.1//EN" "http://www.w3.org/Graphics/SVG/1.1/DTD/svg11.dtd">
<svg version="1.1" id="Layer_3" xmlns="http://www.w3.org/2000/svg" xmlns:xlink="http://www.w3.org/1999/xlink" x="0px" y="0px"
	 viewBox="0 0 512 512" enable-background="new 0 0 512 512" xml:space="preserve">
<g>
	<g opacity="0.4" enable-background="new    ">
		
			<radialGradient id="SVGID_1_" cx="1.0125" cy="515" r="118.8609" gradientTransform="matrix(2 0 0 -2 254 1286)" gradientUnits="userSpaceOnUse">
			<stop  offset="0" style="stop-color:#010101"/>
			<stop  offset="0.8587" style="stop-color:#010101;stop-opacity:0.1413"/>
			<stop  offset="1" style="stop-color:#010101;stop-opacity:0"/>
		</radialGradient>
		<path fill="url(#SVGID_1_)" d="M449,449c-59.7,59.7-326.2,59.7-385.9,0S3.4,122.7,63,63s326.3-59.6,386,0S508.6,389.3,449,449z"/>
	</g>
	<g opacity="0.4" enable-background="new    ">
		
			<radialGradient id="SVGID_2_" cx="2.0286" cy="516.0684" r="133.1551" gradientTransform="matrix(1.4138 -1.4146 -0.979 -0.9784 758.388 763.7472)" gradientUnits="userSpaceOnUse">
			<stop  offset="0" style="stop-color:#010101"/>
			<stop  offset="0.8587" style="stop-color:#010101;stop-opacity:0.1413"/>
			<stop  offset="1" style="stop-color:#010101;stop-opacity:0"/>
		</radialGradient>
		<path fill="url(#SVGID_2_)" d="M449,449c-59.7,59.7-326.2,59.7-385.9,0S3.4,122.7,63,63s326.3-59.6,386,0S508.6,389.3,449,449z"/>
	</g>
	<g opacity="0.4" enable-background="new    ">
		
			<radialGradient id="SVGID_3_" cx="3.4424" cy="513.9732" r="133.1784" gradientTransform="matrix(-1.4138 -1.4146 0.979 -0.9784 -242.3879 763.7472)" gradientUnits="userSpaceOnUse">
			<stop  offset="0" style="stop-color:#010101"/>
			<stop  offset="0.8587" style="stop-color:#010101;stop-opacity:0.1413"/>
			<stop  offset="1" style="stop-color:#010101;stop-opacity:0"/>
		</radialGradient>
		<path fill="url(#SVGID_3_)" d="M63,449c59.7,59.7,326.2,59.7,385.9,0s59.7-326.2,0-385.9S122.7,3.4,63,63S3.4,389.3,63,449z"/>
	</g>
</g>
<linearGradient id="SVGID_4_" gradientUnits="userSpaceOnUse" x1="26" y1="256" x2="486" y2="256">
	<stop  offset="0" style="stop-color:#F7F7F7"/>
	<stop  offset="1" style="stop-color:#F7F7F7"/>
</linearGradient>
<path fill="url(#SVGID_4_)" d="M433.3,433.3c-70.3,70.3-284.3,70.3-354.6,0S8.4,149,78.7,78.7s284.3-70.3,354.6,0
	S503.6,363,433.3,433.3z"/>
<g id="g10">
	<g id="g3" transform="matrix(0.99999544,0,0,1,-0.33400284,-0.33499999)">
		<path id="path5" fill="#E0AF35" d="M256.3,393.2c75.6,0,136.9-61.3,136.9-136.9c0-75.6-61.3-136.9-136.9-136.9
			c-75.6,0-136.9,61.3-136.9,136.9C119.4,331.9,180.7,393.2,256.3,393.2z"/>
		<path id="path7" fill="#FFFFFF" d="M256.3,389.1c73.4,0,132.9-59.5,132.9-132.9c0-73.4-59.5-132.9-132.9-132.9
			c-73.4,0-132.9,59.5-132.9,132.9C123.5,329.6,183,389.1,256.3,389.1z"/>
		<path id="path9" fill="#E0AF35" d="M256.3,361.5c58.1,0,105.2-47.1,105.2-105.2c0-58.1-47.1-105.2-105.2-105.2
			c-58.1,0-105.2,47.1-105.2,105.2C151.1,314.4,198.2,361.5,256.3,361.5L256.3,361.5z"/>
		<path id="path11" fill="#124471" d="M256.3,358.9c56.7,0,102.6-45.9,102.6-102.6c0-56.7-45.9-102.6-102.6-102.6
			c-56.7,0-102.6,45.9-102.6,102.6C153.7,312.9,199.7,358.9,256.3,358.9L256.3,358.9z"/>
		<g id="g17">
			<polyline id="polyline13_1_" fill="#FFFFFF" points="263.6,270.7 253.8,270.6 263.6,269.7 			"/>
			<path id="path20" d="M263.6,270.7l-9.8-0.1c0,0,0,0,0,0c0,0,0,0,0,0l9.8-0.9l0,0l-9.5,0.9L263.6,270.7L263.6,270.7L263.6,270.7
				L263.6,270.7z"/>
		</g>
		<g id="g22">
			<path id="path15_1_" fill="#FFFFFF" d="M249.4,325.4l4.4,2.4l4.6-2.4l-4.6-49.5L249.4,325.4L249.4,325.4z M253.8,274.8l15.8,48.1
				l3.5,1.4l2-2.7L253.8,274.8z M269.6,323.1l-2.3,2.9l-3.4-1.4l-10.2-49.5L269.6,323.1z M264,324.7l-2.4,1.9l-3.2-1.2l-4.6-49.7
				L264,324.7L264,324.7z M253.8,274.8L238,322.9l-3.5,1.4l-2-2.7L253.8,274.8z M238,323.1l2.3,2.9l3.4-1.4l10.2-49.5L238,323.1
				L238,323.1z M243.6,324.7l2.4,1.9l3.2-1.2l4.6-49.7L243.6,324.7L243.6,324.7z"/>
			<path id="path25" fill="#FFFFFF" d="M253.8,327.8C253.8,327.8,253.8,327.8,253.8,327.8l-4.5-2.4c0,0,0,0,0,0l1.5-16.5l-1.5,16.6
				c0,0,0,0,0,0l-3.2,1.2c0,0,0,0,0,0l-2.4-1.9c0,0,0,0,0,0l0-0.1l-3.3,1.4c0,0,0,0,0,0l-2.3-2.9c0,0,0,0,0,0l0-0.1l-3.4,1.4
				c0,0,0,0,0,0l-2-2.7c0,0,0,0,0,0l21.3-46.8c0,0,0,0,0,0l0,0v0v0c0,0,0,0,0,0l0,0v0l0,0l0,0l0,0l0,0c0,0,0,0,0,0c0,0,0,0,0,0l0,0
				c0,0,0,0,0,0l0,0l0,0l0,0l0,0l0,0l0,0h0l0,0c0,0,0,0,0,0l0,0c0,0,0,0,0,0l0,0c0,0,0,0,0,0l0,0h0l0,0l0,0c0,0,0,0,0,0l0,0h0l0,0
				c0,0,0,0,0,0l0,0c0,0,0,0,0,0l0,0l0,0c0,0,0,0,0,0l0,0c0,0,0,0,0,0l0,0l0,0c0,0,0,0,0,0l0,0c0,0,0,0,0,0l21.3,46.8c0,0,0,0,0,0
				l-2,2.7c0,0,0,0,0,0l-3.4-1.4l0,0.1c0,0,0,0,0,0l-2.3,2.9c0,0,0,0,0,0l-3.3-1.4l0,0.1c0,0,0,0,0,0l-2.4,1.9c0,0,0,0,0,0l-3.2-1.2
				c0,0,0,0,0,0L253.8,327.8C253.8,327.8,253.8,327.8,253.8,327.8z M249.4,325.4l4.4,2.4l4.5-2.3l-3.3-35.8l-1.2-13.2L249.4,325.4z
				 M258.4,325.4l3.1,1.2l2.4-1.9l-10-48.3l1.2,13.1L258.4,325.4C258.4,325.4,258.4,325.4,258.4,325.4z M243.7,324.7l2.4,1.9
				l3.1-1.2l4.5-48.9L243.7,324.7z M238,323.1l2.3,2.9l3.3-1.4l10-48.8L238,323.1z M264,324.6l3.3,1.4l2.3-2.9L254,275.8L264,324.6z
				 M269.6,322.8l3.5,1.4l2-2.7l-20.9-46L269.6,322.8z M232.6,321.5l2,2.7l3.5-1.4l15.5-47.4L232.6,321.5z M253.9,275.7l4.3,21
				l-4.4-21.4l-4.3,21.1L253.9,275.7C253.8,275.7,253.8,275.7,253.9,275.7C253.8,275.7,253.8,275.7,253.9,275.7
				C253.8,275.7,253.9,275.7,253.9,275.7z M253.8,275.1l2.8,8.4l-2.8-8.6l-2.7,8.2L253.8,275.1C253.8,275.1,253.8,275.1,253.8,275.1
				L253.8,275.1L253.8,275.1C253.8,275.1,253.8,275.1,253.8,275.1L253.8,275.1C253.8,275,253.8,275,253.8,275.1
				C253.8,275,253.8,275,253.8,275.1L253.8,275.1L253.8,275.1C253.8,275,253.8,275,253.8,275.1L253.8,275.1L253.8,275.1L253.8,275.1
				L253.8,275.1C253.8,275,253.8,275,253.8,275.1C253.8,275,253.8,275,253.8,275.1L253.8,275.1L253.8,275.1
				C253.8,275.1,253.8,275.1,253.8,275.1C253.8,275.1,253.8,275.1,253.8,275.1L253.8,275.1z"/>
		</g>
		<g id="g27">
			<polygon id="polygon17_1_" fill="#FFFFFF" points="258.4,325.4 253.8,275.9 249.4,325.4 249.4,325.4 253.8,327.8 			"/>
			<path id="path30" d="M253.8,327.8C253.8,327.8,253.8,327.8,253.8,327.8l-4.4-2.4c0,0,0,0,0,0l4.4-49.5c0,0,0,0,0,0s0,0,0,0
				l4.6,49.5c0,0,0,0,0,0L253.8,327.8C253.8,327.8,253.8,327.8,253.8,327.8z M249.4,325.4l4.4,2.4l4.6-2.4l-4.6-49.3L249.4,325.4z"
				/>
		</g>
		<path id="path32" d="M253.8,325.7L253.8,325.7l0-49.7h0V325.7z M253.8,270.7L253.8,270.7l9.7-0.5l0,0L253.8,270.7z"/>
		<g id="g34">
			<polyline id="polyline21_1_" fill="#FFFFFF" points="263.4,271.8 253.8,270.9 263.2,270.7 			"/>
			<path id="path37" d="M263.4,271.8l-9.6-0.9c0,0,0,0,0,0c0,0,0,0,0,0l9.4-0.1l0,0l-9.1,0.1L263.4,271.8L263.4,271.8z"/>
		</g>
		
			<rect id="rect39" x="253.8" y="271" transform="matrix(0.9994 3.559880e-02 -3.559880e-02 0.9994 9.8127 -9.0299)" width="9.3" height="0"/>
		<g id="g41">
			<polyline id="polyline25_1_" fill="#FFFFFF" points="263.4,272.8 253.8,271.2 263.4,271.8 			"/>
			<path id="path44" d="M263.4,272.8l-9.6-1.6c0,0,0,0,0,0c0,0,0,0,0,0l9.6,0.6l0,0l-9.3-0.6L263.4,272.8L263.4,272.8z"/>
		</g>
		
			<rect id="rect46" x="253.8" y="271.7" transform="matrix(0.9934 0.1145 -0.1145 0.9934 32.8127 -27.8213)" width="9.6" height="0"/>
		<g id="g48">
			<polyline id="polyline29_1_" fill="#FFFFFF" points="263.2,273.8 253.8,271.4 263.4,272.8 			"/>
			<path id="path51" d="M263.2,273.8l-9.4-2.4c0,0,0,0,0,0c0,0,0,0,0,0c0,0,0,0,0,0l9.6,1.3l0,0l-9.3-1.3L263.2,273.8L263.2,273.8z"
				/>
		</g>
		<rect id="rect53" x="253.7" y="272.4" transform="matrix(0.9806 0.196 -0.196 0.9806 58.4088 -45.4136)" width="9.9" height="0"/>
		<g id="g55">
			<polyline id="polyline33_1_" fill="#FFFFFF" points="263.2,275 253.8,271.7 263.4,273.9 			"/>
			<path id="path58" d="M263.2,275l-9.4-3.3c0,0,0,0,0,0c0,0,0,0,0,0l9.5,2.1l0,0l-9.3-2.1L263.2,275L263.2,275z"/>
		</g>
		
			<rect id="rect60" x="253.6" y="273.1" transform="matrix(0.9598 0.2807 -0.2807 0.9598 87.0795 -61.65)" width="10.3" height="0"/>
		<g id="g62">
			<polyline id="polyline37_1_" fill="#FFFFFF" points="263.5,276.4 253.8,272 263.6,275.2 			"/>
			<path id="path65" d="M263.5,276.4l-9.7-4.4c0,0,0,0,0,0c0,0,0,0,0,0l9.8,3.2l0,0l-9.5-3.1L263.5,276.4L263.5,276.4z"/>
		</g>
		
			<rect id="rect67" x="253.5" y="273.9" transform="matrix(0.9354 0.3536 -0.3536 0.9354 113.5604 -73.7799)" width="10.5" height="0"/>
		<g id="g69">
			<polyline id="polyline41_1_" fill="#FFFFFF" points="264,278.3 253.8,272.3 263.5,276.4 			"/>
			<path id="path72" d="M264,278.3l-10.2-6c0,0,0,0,0,0c0,0,0,0,0,0l9.7,4.1l0,0l-9.5-4L264,278.3L264,278.3z"/>
		</g>
		
			<rect id="rect74" x="253.2" y="274.9" transform="matrix(0.8914 0.4531 -0.4531 0.8914 152.6823 -87.4936)" width="11.5" height="0"/>
		<g id="g76">
			<polyline id="polyline45_1_" fill="#FFFFFF" points="264.4,280.6 253.8,272.6 263.9,278.2 			"/>
			<path id="path79" d="M264.4,280.6l-10.6-8c0,0,0,0,0,0c0,0,0,0,0,0l10.1,5.6l0,0l-9.9-5.5L264.4,280.6L264.4,280.6z"/>
		</g>
		
			<rect id="rect81" x="252.8" y="276.1" transform="matrix(0.8364 0.5481 -0.5481 0.8364 193.7177 -96.8693)" width="12.8" height="0"/>
		<g id="g83">
			<polyline id="polyline49_1_" fill="#FFFFFF" points="264.7,283.2 253.8,272.9 264.6,280.6 			"/>
			<path id="path86" d="M264.7,283.2L253.8,273c0,0,0,0,0,0c0,0,0,0,0,0l10.8,7.7l0,0l-10.6-7.5L264.7,283.2L264.7,283.2z"/>
		</g>
		
			<rect id="rect88" x="252.3" y="277.3" transform="matrix(0.7734 0.6339 -0.6339 0.7734 234.4895 -101.4235)" width="13.7" height="0"/>
		<g id="g90">
			<polyline id="polyline53_1_" fill="#FFFFFF" points="265,286.6 253.8,273.3 264.7,283 			"/>
			<path id="path93" d="M265,286.7l-11.2-13.3c0,0,0,0,0,0c0,0,0,0,0,0l10.9,9.7l0,0l-10.7-9.6L265,286.7L265,286.7z"/>
		</g>
		
			<rect id="rect95" x="251.4" y="279.1" transform="matrix(0.6936 0.7203 -0.7203 0.6936 280.4871 -101.3097)" width="15.9" height="0"/>
		<g id="g97">
			<polyline id="polyline57_1_" fill="#FFFFFF" points="265.3,291.5 253.8,273.7 265.1,286.7 			"/>
			<path id="path100" d="M265.3,291.5l-11.5-17.8c0,0,0,0,0,0c0,0,0,0,0,0l11.3,12.9l0,0l-11.1-12.8L265.3,291.5L265.3,291.5z"/>
		</g>
		
			<rect id="rect102" x="250.3" y="280.8" transform="matrix(0.6062 0.7953 -0.7953 0.6062 325.3885 -95.5708)" width="17.7" height="0"/>
		<g id="g104">
			<polyline id="polyline61_1_" fill="#FFFFFF" points="267,303.8 253.8,274.3 265.4,291.6 			"/>
			<path id="path107" d="M267,303.8l-13.2-29.4c0,0,0,0,0,0c0,0,0,0,0,0l11.6,17.2l0,0l-11.5-17.1L267,303.8L267,303.8z"/>
		</g>
		
			<rect id="rect109" x="247.4" y="285.1" transform="matrix(0.4844 0.8748 -0.8748 0.4844 383.386 -80.2645)" width="24.7" height="0"/>
		<g id="g111">
			<polygon id="polygon65_1_" fill="#FFFFFF" points="273.1,324.3 275.1,321.5 253.8,274.8 253.8,274.8 269.6,322.9 			"/>
			<path id="path114" d="M273.1,324.3C273.1,324.3,273.1,324.3,273.1,324.3l-3.5-1.4c0,0,0,0,0,0l-15.8-48.1c0,0,0,0,0,0
				c0,0,0,0,0,0l21.3,46.8c0,0,0,0,0,0L273.1,324.3C273.1,324.3,273.1,324.3,273.1,324.3z M269.6,322.9l3.5,1.4l2-2.7L253.9,275
				L269.6,322.9z"/>
		</g>
		
			<rect id="rect116" x="237.4" y="298.8" transform="matrix(0.3641 0.9314 -0.9314 0.3641 445.6304 -55.1408)" width="51.5" height="0"/>
		<g id="g118">
			<polygon id="polygon69_1_" fill="#FFFFFF" points="264,324.6 253.8,275.1 269.6,323.1 269.6,323.1 267.3,326 			"/>
			<path id="path121" d="M267.3,326C267.3,326,267.3,326,267.3,326l-3.4-1.4c0,0,0,0,0,0l-10.2-49.5c0,0,0,0,0,0c0,0,0,0,0,0
				l15.8,48c0,0,0,0,0,0L267.3,326C267.3,326,267.3,326,267.3,326z M264,324.6l3.3,1.4l2.3-2.9l-15.7-47.8L264,324.6z"/>
		</g>
		
			<rect id="rect123" x="234.7" y="299.8" transform="matrix(0.255 0.9669 -0.9669 0.255 483.8842 -28.3398)" width="51.2" height="0"/>
		<g id="g125">
			<polygon id="polygon73_1_" fill="#FFFFFF" points="258.4,325.4 253.8,275.7 264,324.7 264,324.7 261.5,326.6 			"/>
			<path id="path128" d="M261.5,326.7C261.5,326.7,261.5,326.7,261.5,326.7l-3.2-1.2c0,0,0,0,0,0l-4.6-49.7c0,0,0,0,0,0c0,0,0,0,0,0
				c0,0,0,0,0,0l10.2,49c0,0,0,0,0,0L261.5,326.7C261.5,326.7,261.5,326.7,261.5,326.7z M258.4,325.4l3.2,1.2l2.4-1.9L253.8,276
				L258.4,325.4z"/>
		</g>
		
			<rect id="rect130" x="232.3" y="300.6" transform="matrix(0.1472 0.9891 -0.9891 0.1472 516.9901 1.6933)" width="50.5" height="0"/>
		<g id="g132">
			<polyline id="polyline77_1_" fill="#FFFFFF" points="244,270.7 253.8,270.6 244,269.7 			"/>
			<path id="path135" d="M244,270.7L244,270.7l9.5-0.1l-9.5-0.9l0,0l9.8,0.9c0,0,0,0,0,0c0,0,0,0,0,0L244,270.7z"/>
		</g>
		
			<rect id="rect137" x="244.2" y="270.4" transform="matrix(0.999 4.430081e-02 -4.430081e-02 0.999 12.2247 -10.7647)" width="9.7" height="0"/>
		<g id="g139">
			<polyline id="polyline81_1_" fill="#FFFFFF" points="244.2,271.8 253.8,270.9 244.4,270.7 			"/>
			<path id="path142" d="M244.2,271.8L244.2,271.8l9.3-0.9l-9.1-0.1l0,0l9.4,0.1c0,0,0,0,0,0s0,0,0,0L244.2,271.8z"/>
		</g>
		<rect id="rect144" x="244.5" y="271" width="9.3" height="0"/>
		<g id="g146">
			<polyline id="polyline85_1_" fill="#FFFFFF" points="244.2,272.8 253.8,271.2 244.2,271.8 			"/>
			<path id="path149" d="M244.2,272.8L244.2,272.8l9.3-1.6l-9.3,0.6l0,0l9.6-0.6h0c0,0,0,0,0,0c0,0,0,0,0,0L244.2,272.8z"/>
		</g>
		<rect id="rect151" x="244.2" y="271.7" width="9.6" height="0"/>
		<g id="g153">
			<polyline id="polyline89_1_" fill="#FFFFFF" points="244.4,273.8 253.8,271.4 244.2,272.8 			"/>
			<path id="path156" d="M244.4,273.8L244.4,273.8l9.2-2.4l-9.3,1.3l0,0l9.6-1.3c0,0,0,0,0,0c0,0,0,0,0,0c0,0,0,0,0,0L244.4,273.8z"
				/>
		</g>
		
			<rect id="rect158" x="249" y="267.5" transform="matrix(0.1987 0.9801 -0.9801 0.1987 466.4797 -25.7142)" width="0" height="9.9"/>
		<g id="g160">
			<polyline id="polyline93_1_" fill="#FFFFFF" points="244.4,275 253.8,271.7 244.2,273.9 			"/>
			<path id="path163" d="M244.4,275L244.4,275l9.1-3.2l-9.3,2.1l0,0l9.6-2.1c0,0,0,0,0,0s0,0,0,0L244.4,275z"/>
		</g>
		<rect id="rect165" x="248.9" y="268" transform="matrix(0.28 0.96 -0.96 0.28 441.4224 -42.2306)" width="0" height="10.3"/>
		<g id="g167">
			<polyline id="polyline97_1_" fill="#FFFFFF" points="244.1,276.4 253.8,272 244,275.2 			"/>
			<path id="path170" d="M244.1,276.4L244.1,276.4l9.5-4.3l-9.5,3.1l0,0l9.8-3.2c0,0,0,0,0,0c0,0,0,0,0,0L244.1,276.4z"/>
		</g>
		
			<rect id="rect172" x="248.9" y="268.7" transform="matrix(0.3599 0.933 -0.933 0.3599 414.8711 -56.9174)" width="0" height="10.5"/>
		<g id="g174">
			<polyline id="polyline101_1_" fill="#FFFFFF" points="243.6,278.3 253.8,272.3 244.1,276.4 			"/>
			<path id="path177" d="M243.6,278.3L243.6,278.3l10-5.9l-9.5,4l0,0l9.7-4.1c0,0,0,0,0,0c0,0,0,0,0,0L243.6,278.3z"/>
		</g>
		
			<rect id="rect179" x="248.7" y="269.2" transform="matrix(0.4472 0.8944 -0.8944 0.4472 383.3562 -70.4431)" width="0" height="11.5"/>
		<g id="g181">
			<polyline id="polyline105_1_" fill="#FFFFFF" points="243.2,280.6 253.8,272.6 243.7,278.2 			"/>
			<path id="path184" d="M243.2,280.6L243.2,280.6l10.5-7.9l-9.9,5.5l0,0l10.1-5.6c0,0,0,0,0,0s0,0,0,0L243.2,280.6z"/>
		</g>
		
			<rect id="rect186" x="248.5" y="269.7" transform="matrix(0.5394 0.842 -0.842 0.5394 346.9108 -82.0574)" width="0" height="12.8"/>
		<g id="g188">
			<polyline id="polyline109_1_" fill="#FFFFFF" points="242.9,283.2 253.8,272.9 243,280.6 			"/>
			<path id="path191" d="M242.9,283.2L242.9,283.2l10.7-10.1l-10.6,7.5l0,0l10.8-7.7c0,0,0,0,0,0c0,0,0,0,0,0L242.9,283.2z"/>
		</g>
		
			<rect id="rect193" x="248.5" y="270.4" transform="matrix(0.6376 0.7704 -0.7704 0.6376 303.6833 -90.9503)" width="0" height="13.7"/>
		<g id="g195">
			<polyline id="polyline113_1_" fill="#FFFFFF" points="242.6,286.6 253.8,273.3 242.9,283 			"/>
			<path id="path198" d="M242.6,286.7L242.6,286.7l11.1-13.2l-10.7,9.6l0,0l10.9-9.7c0,0,0,0,0,0c0,0,0,0,0,0L242.6,286.7z"/>
		</g>
		
			<rect id="rect200" x="248.3" y="271.1" transform="matrix(0.7203 0.6936 -0.6936 0.7203 263.0173 -94.1654)" width="0" height="15.9"/>
		<g id="g202">
			<polyline id="polyline117_1_" fill="#FFFFFF" points="242.3,291.5 253.8,273.7 242.5,286.7 			"/>
			<path id="path205" d="M242.3,291.5L242.3,291.5l11.4-17.7l-11.1,12.8l0,0l11.3-12.9c0,0,0,0,0,0c0,0,0,0,0,0L242.3,291.5z"/>
		</g>
		
			<rect id="rect207" x="248.4" y="271.9" transform="matrix(0.7936 0.6084 -0.6084 0.7936 222.1079 -93.2013)" width="0" height="17.7"/>
		<g id="g209">
			<polyline id="polyline121_1_" fill="#FFFFFF" points="240.6,303.8 253.8,274.3 242.2,291.6 			"/>
			<path id="path212" d="M240.6,303.8L240.6,303.8l13.1-29.3l-11.5,17.1l0,0l11.6-17.2c0,0,0,0,0,0c0,0,0,0,0,0L240.6,303.8z"/>
		</g>
		
			<rect id="rect214" x="247.8" y="272.8" transform="matrix(0.8779 0.4789 -0.4789 0.8779 166.8112 -83.8502)" width="0" height="24.7"/>
		<g id="g216">
			<polygon id="polygon125_1_" fill="#FFFFFF" points="234.5,324.3 232.5,321.5 253.8,274.8 253.8,274.8 238,322.9 			"/>
			<path id="path219" d="M234.5,324.3C234.5,324.3,234.5,324.3,234.5,324.3l-2-2.8c0,0,0,0,0,0l21.3-46.8c0,0,0,0,0,0c0,0,0,0,0,0
				l-15.8,48.1c0,0,0,0,0,0L234.5,324.3C234.5,324.3,234.5,324.3,234.5,324.3z M232.5,321.5l2,2.7l3.5-1.4l15.7-47.9L232.5,321.5z"
				/>
		</g>
		
			<rect id="rect221" x="244.4" y="273" transform="matrix(0.9285 0.3714 -0.3714 0.9285 128.4401 -69.4082)" width="0" height="51.5"/>
		<g id="g223">
			<polygon id="polygon129_1_" fill="#FFFFFF" points="243.6,324.6 253.8,275.1 238,323.1 238,323.1 240.3,326 			"/>
			<path id="path226" d="M240.3,326C240.3,326,240.3,326,240.3,326l-2.3-3c0,0,0,0,0,0l15.8-48c0,0,0,0,0,0c0,0,0,0,0,0l-10.2,49.5
				c0,0,0,0,0,0L240.3,326C240.3,326,240.3,326,240.3,326z M238,323.1l2.3,2.9l3.4-1.4l10.1-49.3L238,323.1z"/>
		</g>
		
			<rect id="rect228" x="247.3" y="274.2" transform="matrix(0.9645 0.2642 -0.2642 0.9645 88.0047 -54.6758)" width="0" height="51.3"/>
		<g id="g230">
			<polygon id="polygon133_1_" fill="#FFFFFF" points="249.2,325.4 253.8,275.7 243.6,324.7 243.6,324.7 246.1,326.6 			"/>
			<path id="path233" d="M246.1,326.7C246.1,326.7,246.1,326.7,246.1,326.7l-2.4-1.9c0,0,0,0,0,0l10.2-49c0,0,0,0,0,0c0,0,0,0,0,0
				c0,0,0,0,0,0l-4.6,49.7c0,0,0,0,0,0L246.1,326.7C246.1,326.7,246.1,326.7,246.1,326.7z M243.7,324.7l2.4,1.9l3.2-1.2l4.5-49.5
				L243.7,324.7z"/>
		</g>
		<rect id="rect235" x="250.1" y="275.4" width="0" height="50.5"/>
		<g id="g237">
			<path id="path137_1_" fill="#B2B2B2" d="M331.2,316.4c0,0-2.4-0.3-3.8-1.7c-1-1-2.5-4.6-2.5-4.6c-2.1-4.8-5.1-9.3-10.2-9.3
				c-5.1,0-11,5.9-13.1,10.7c0,0-0.4,0.7-0.8,1c-0.4,0.3-1.3,0.2-1.3,0.2H194.1c-2.1,0-3.7,1.6-3.9,3.6v0c0.1,2,1.8,3.6,3.9,3.6
				h105.4c0,0,0.8-0.1,1.3,0.2c0.4,0.3,0.8,1,0.8,1c2.1,4.8,8,10.7,13.1,10.7c5.1,0,8.1-4.5,10.2-9.3c0,0,1.5-3.6,2.5-4.6
				C328.9,316.7,331.2,316.4,331.2,316.4L331.2,316.4z"/>
			<path id="path240" d="M314.7,332c-2.3,0-5.1-1.3-7.7-3.6c-2.3-2-4.4-4.7-5.4-7.2c0,0-0.4-0.7-0.8-1c-0.3-0.2-0.8-0.2-1-0.2
				c-0.1,0-0.2,0-0.2,0H194.1c-2.1,0-3.8-1.6-3.9-3.7h0l0,0c0.1-2,1.8-3.6,3.9-3.6h105.4c0,0,0.1,0,0.2,0c0.3,0,0.7,0,1-0.2
				c0.4-0.3,0.8-1,0.8-1c1.1-2.5,3.1-5.1,5.4-7.2c2.6-2.3,5.4-3.6,7.7-3.6c1.2,0,2.4,0.3,3.5,0.8c1,0.5,1.9,1.2,2.8,2.1
				c1.4,1.5,2.7,3.5,4,6.4c0,0,1.6,3.6,2.5,4.6c1.4,1.4,3.7,1.7,3.7,1.7v0c0,0-2.4,0.3-3.7,1.7c-1,1-2.5,4.5-2.5,4.6
				c-1.3,2.9-2.6,4.9-4,6.4c-0.9,0.9-1.8,1.6-2.8,2.1C317.1,331.7,315.9,332,314.7,332z M299.8,320c0.3,0,0.7,0,1,0.2
				c0.4,0.3,0.8,1,0.8,1c1.1,2.4,3.1,5.1,5.4,7.1c2.6,2.3,5.3,3.6,7.7,3.6c1.2,0,2.4-0.3,3.5-0.8c1-0.5,1.9-1.2,2.8-2.1
				c1.4-1.5,2.7-3.5,4-6.4c0,0,1.6-3.6,2.5-4.6c1.2-1.3,3.2-1.7,3.7-1.7c-0.4-0.1-2.5-0.5-3.7-1.7c-1-1-2.5-4.6-2.5-4.6
				c-1.3-2.9-2.6-4.9-4-6.4c-0.9-0.9-1.8-1.6-2.8-2.1c-1.1-0.5-2.2-0.8-3.5-0.8c-2.3,0-5.1,1.3-7.7,3.6c-2.3,2-4.3,4.7-5.4,7.1
				c0,0-0.4,0.7-0.8,1c-0.3,0.2-0.8,0.3-1.1,0.3c-0.1,0-0.2,0-0.2,0H194.1c-2,0-3.7,1.6-3.9,3.6c0.1,2,1.8,3.6,3.9,3.6h105.4
				C299.5,320,299.6,320,299.8,320z"/>
		</g>
		<path id="path242" d="M314.7,331.2c-1.1,0-2.3-0.4-3.6-1.1c-1.2-0.7-2.3-1.6-3.5-2.8c-2.1-2.1-4-4.8-5-7l-1-1.4c0,0,0,0,0,0
			c0,0,0,0,0,0l1,1.4c1,2.3,2.9,5,5,7c1.2,1.2,2.4,2.1,3.5,2.8C312.4,330.8,313.6,331.2,314.7,331.2c2.1,0,4.1-0.9,5.8-2.7
			c1.4-1.4,2.6-3.3,3.7-5.8c0,0,1.2-3,2.2-4.6c0.9-1.4,2.2-1.7,2.3-1.7v0h0.8l0,0c-1.3,0.5-2.4,1.1-2.4,1.1c0,0,0,0,0,0c0,0,0,0,0,0
			c0,0,1-0.6,2.3-1.1h-0.7c0,0-1.3,0.3-2.3,1.7c-1,1.6-2.2,4.6-2.2,4.6c-1.1,2.5-2.3,4.4-3.7,5.8
			C318.8,330.3,316.8,331.2,314.7,331.2z M192.2,313.7C192.2,313.7,192.2,313.7,192.2,313.7C192.2,313.7,192.2,313.7,192.2,313.7
			c0.6-0.6,1.4-0.6,1.9-0.6c0,0,0.1,0,0.1,0h106c0,0,1-0.1,1.2-0.3c0.4-0.4,0.6-0.7,0.6-0.7c1-2.2,3-4.8,5.3-6.9
			c2.6-2.4,5.3-3.7,7.4-3.7c2.1,0,4.1,0.9,5.8,2.7c1.4,1.4,2.6,3.3,3.7,5.8c0,0,0.6,1.5,1.3,2.9c0,0,0,0,0,0c0,0,0,0,0,0
			c-0.7-1.4-1.3-2.9-1.3-2.9c-1.1-2.5-2.3-4.4-3.7-5.8c-1.7-1.8-3.7-2.7-5.8-2.7c-2.1,0-4.7,1.3-7.4,3.7c-2.3,2.1-4.3,4.7-5.3,6.9
			c0,0-0.1,0.3-0.6,0.7c-0.2,0.2-1.2,0.3-1.2,0.3h-106c0,0-0.1,0-0.1,0C193.6,313.1,192.8,313.2,192.2,313.7
			C192.2,313.7,192.2,313.7,192.2,313.7z"/>
		<path id="path141" d="M327.5,316.4c0,0-1,0.4-1.4,1.3c-1.3,3-3.4,3.6-4.6,5c-1.2,1.4-1.9,2.8-3.1,4c-1.3,1.2-3.7,0.9-3.7,0.9
			s2.2-1,2.9-1.4c0.7-0.4,1.8-1.7,1.9-2.6c0.1-0.9,0-2.4,0-2.4s3.9-0.3,4.6-1.3c0.7-0.9,1.4-3.6,1.4-3.6L327.5,316.4 M303.7,316.4
			h-1.5c0,0,2-3.1,3-4.3c1-1.2,2.4-3.1,2.9-3.9c0.5-0.8,1.3-2.4,1.3-2.4l1.1,1.3l-1.2,4.5l-3.8,1.2L303.7,316.4"/>
		<g id="g245">
			<path id="path143_1_" fill="#B2B2B2" d="M309.1,311.2c-0.1-0.3,0-0.1,0-0.4c-0.1-2.9,2.1-5.3,4.9-5.5c2.9-0.1,5.3,2.1,5.5,4.9
				c0,0.3,0,0.6,0,0.9c0.3-0.1,0.6-0.1,0.8-0.1c2.9-0.1,5.3,2.1,5.5,4.9c0.1,2.9-2.1,5.3-4.9,5.5c-0.3,0-0.7,0-1,0
				c0,0.3,0.1,0.7,0.1,1c0,2.9-2.3,5.2-5.2,5.2c-2.9,0-5.2-2.3-5.2-5.2c0-0.3,0-0.6,0.1-0.8c-0.3,0-0.6,0-0.9,0
				c-2.9,0-5.2-2.3-5.2-5.2c0-2.9,2.3-5.2,5.2-5.2C309,311.2,308.8,311.2,309.1,311.2L309.1,311.2z"/>
			<path id="path248" d="M314.7,327.6c-2.9,0-5.2-2.3-5.2-5.2c0-0.3,0-0.6,0.1-0.8c-0.3,0-0.6,0-0.9,0c-2.9,0-5.2-2.3-5.2-5.2
				c0-2.9,2.3-5.2,5.2-5.2c0.2,0,0.2,0,0.2,0c0,0,0,0,0.1,0c0-0.2,0-0.2,0-0.2c0,0,0-0.1,0-0.2c-0.1-2.9,2.1-5.3,5-5.5
				c0.1,0,0.2,0,0.3,0c2.8,0,5.1,2.2,5.2,5c0,0.3,0,0.6,0,0.9c0.3-0.1,0.6-0.1,0.8-0.1c0.1,0,0.2,0,0.3,0c2.8,0,5.1,2.2,5.2,5
				c0.1,1.4-0.4,2.7-1.3,3.8c-0.9,1-2.2,1.6-3.6,1.7c-0.1,0-0.1,0-0.2,0c-0.3,0-0.6,0-0.8,0c0,0.1,0,0.2,0.1,0.3
				c0,0.2,0.1,0.5,0.1,0.7C319.9,325.3,317.6,327.6,314.7,327.6z M309.6,321.5L309.6,321.5c0,0.3-0.1,0.6-0.1,0.9
				c0,2.9,2.3,5.2,5.2,5.2c2.9,0,5.2-2.3,5.2-5.2c0-0.2,0-0.4-0.1-0.7c0-0.1,0-0.2-0.1-0.3l0,0l0,0c0.2,0,0.5,0,0.8,0
				c0.1,0,0.2,0,0.2,0c1.4-0.1,2.7-0.7,3.6-1.7c0.9-1,1.4-2.4,1.3-3.7c-0.1-2.8-2.4-4.9-5.2-4.9c-0.1,0-0.2,0-0.3,0
				c-0.2,0-0.5,0-0.8,0.1l0,0l0,0c0-0.3,0-0.6,0-0.9c-0.1-2.8-2.4-4.9-5.2-4.9c-0.1,0-0.2,0-0.3,0c-2.9,0.1-5.1,2.6-4.9,5.5
				c0,0.1,0,0.2,0,0.2c0,0,0,0,0,0.2l0,0l0,0c-0.1,0-0.2,0-0.2-0.1c0,0,0,0-0.2,0c-2.9,0-5.2,2.3-5.2,5.2c0,2.9,2.3,5.2,5.2,5.2
				C309,321.6,309.3,321.6,309.6,321.5L309.6,321.5z"/>
		</g>
		<g id="g250">
			<path id="path145_1_" fill="#124471" d="M318.4,320.1c0.7,0.4,1.5,0.6,2.3,0.5c2.4-0.1,4.3-2.2,4.1-4.6c-0.1-2.4-2.2-4.3-4.6-4.1
				c-0.8,0-1.6,0.3-2.3,0.8c0.4-0.7,0.6-1.5,0.5-2.3c-0.1-2.4-2.2-4.3-4.6-4.1c-2.4,0.1-4.3,2.2-4.1,4.6c0,0.5,0.2,1,0.3,1.5
				c-0.5-0.2-1-0.3-1.5-0.3c-2.4,0-4.4,1.9-4.4,4.4c0,2.4,2,4.4,4.4,4.4c0.9,0,1.7-0.2,2.3-0.7c-0.4,0.7-0.7,1.5-0.7,2.3
				c0,2.4,1.9,4.4,4.4,4.4c2.4,0,4.4-1.9,4.4-4.4C319.1,321.5,318.8,320.7,318.4,320.1L318.4,320.1z"/>
			<path id="path253" d="M314.7,326.7c-2.4,0-4.4-2-4.4-4.4c0-0.8,0.2-1.6,0.6-2.3c-0.7,0.4-1.4,0.6-2.3,0.6c-2.4,0-4.4-2-4.4-4.4
				c0-2.4,2-4.4,4.4-4.4c0.5,0,1,0.1,1.5,0.3c-0.2-0.5-0.3-1-0.3-1.5c-0.1-1.2,0.3-2.3,1.1-3.2c0.8-0.9,1.9-1.4,3-1.4
				c0.1,0,0.2,0,0.2,0c2.3,0,4.2,1.8,4.4,4.1c0,0.8-0.1,1.6-0.5,2.3c0.7-0.5,1.4-0.7,2.2-0.8c0.1,0,0.2,0,0.2,0
				c2.3,0,4.2,1.8,4.4,4.2c0.1,1.2-0.3,2.3-1.1,3.1c-0.8,0.9-1.9,1.4-3,1.4c-0.8,0-1.6-0.1-2.3-0.5c0.4,0.7,0.6,1.5,0.6,2.3
				C319.1,324.8,317.1,326.7,314.7,326.7z M311,320.1L311,320.1c-0.4,0.7-0.6,1.5-0.6,2.3c0,2.4,1.9,4.3,4.3,4.3
				c2.4,0,4.3-1.9,4.3-4.3c0-0.8-0.2-1.6-0.7-2.3l0,0c0.7,0.4,1.5,0.6,2.3,0.5c1.2-0.1,2.2-0.6,3-1.4c0.8-0.9,1.2-2,1.1-3.1
				c-0.1-2.3-2-4.1-4.3-4.1c-0.1,0-0.2,0-0.2,0c-0.8,0-1.6,0.3-2.3,0.8l0,0c0.4-0.7,0.6-1.5,0.5-2.3c-0.1-2.3-2-4.1-4.3-4.1
				c-0.1,0-0.2,0-0.2,0c-1.2,0.1-2.2,0.6-3,1.4c-0.8,0.9-1.2,2-1.1,3.1c0,0.5,0.1,1,0.3,1.5l0,0l0,0c-0.5-0.2-1-0.3-1.5-0.3
				c-2.4,0-4.3,1.9-4.3,4.3c0,2.4,1.9,4.3,4.3,4.3C309.6,320.7,310.3,320.5,311,320.1z"/>
		</g>
		<path id="path255" d="M302.1,320.6C302,320.6,302,320.6,302.1,320.6c0,0-0.2-0.3-0.6-0.7c-0.2-0.2-1.2-0.3-1.2-0.3h-106
			c0,0-0.1,0-0.1,0c-0.5,0-1.3,0-1.9-0.6c0,0,0,0,0,0c0,0,0,0,0,0c0.6,0.6,1.4,0.6,1.9,0.6c0,0,0.1,0,0.1,0l0.1,0h106
			c0,0,1,0.1,1.2,0.3C301.9,320.3,302.1,320.6,302.1,320.6C302.1,320.6,302.1,320.6,302.1,320.6
			C302.1,320.6,302.1,320.6,302.1,320.6z"/>
		<path id="path257" d="M303,321.2c0,0-0.9-1.9-1.7-2.2c-0.9-0.4-2.6-0.2-2.6-0.2H193.2c-0.7,0-2.1-0.9-2.1-2c0,0,0.9,1.3,2.1,1.4
			h105.4c0,0,2.2-0.2,2.8,0.3C302.1,318.9,303,321.2,303,321.2"/>
		<g id="g259">
			<path id="path151_1_" fill="#B2B2B2" d="M296.4,322.3c0.8,0,1.4-0.6,1.4-1.4V310c0-0.8-0.6-1.4-1.4-1.4c-0.8,0-1.4,0.6-1.4,1.4
				v10.9C295,321.7,295.7,322.3,296.4,322.3z"/>
			<path id="path262" d="M296.4,322.3c-0.8,0-1.4-0.6-1.4-1.4V310c0-0.8,0.6-1.4,1.4-1.4c0.8,0,1.4,0.6,1.4,1.4v10.9
				C297.9,321.7,297.2,322.3,296.4,322.3z M296.4,308.6c-0.8,0-1.4,0.6-1.4,1.4v10.9c0,0.8,0.6,1.4,1.4,1.4c0.8,0,1.4-0.6,1.4-1.4
				V310C297.8,309.2,297.2,308.6,296.4,308.6z"/>
		</g>
		<path id="path264" d="M296.4,321.9c-0.8,0-1.4-0.6-1.4-1.4h0C295,321.2,295.7,321.9,296.4,321.9c0.8,0,1.4-0.7,1.4-1.4h0
			C297.9,321.2,297.2,321.9,296.4,321.9z M297.9,310.7L297.9,310.7c0-0.8-0.7-1.4-1.4-1.4c-0.8,0-1.4,0.6-1.4,1.4h0
			c0-0.8,0.6-1.4,1.4-1.4C297.2,309.2,297.9,309.9,297.9,310.7z"/>
		<g id="g266">
			<path id="path155_1_" d="M297.9,319.4c0,0.8-0.6,1.4-1.4,1.4c-0.8,0-1.4-0.6-1.4-1.4v0.3c0,0.8,0.6,1.4,1.4,1.4
				c0.8,0,1.4-0.6,1.4-1.4V319.4z"/>
			<path id="path269" d="M296.4,321.1c-0.8,0-1.4-0.6-1.4-1.4v-0.3h0c0,0.8,0.6,1.4,1.4,1.4s1.4-0.6,1.4-1.4h0v0.3
				C297.9,320.4,297.2,321.1,296.4,321.1z M295,319.7c0,0.8,0.6,1.4,1.4,1.4c0.8,0,1.4-0.6,1.4-1.4c-0.1,0.7-0.7,1.2-1.4,1.2
				C295.7,320.8,295.2,320.3,295,319.7z"/>
		</g>
		<path id="path157" fill="#94693C" d="M204.9,312.4c0.1-0.3,0.2-0.5,0.4-0.8"/>
		<g id="g272">
			<path id="path159_1_" fill="#94693C" d="M190.7,308c2.4,0.8,4.9-1,7-2.4l0.3,0.4c-0.9,3.5-0.6,7.5-2,10.8l1.6,0.2l0.2-0.6
				c1.2-0.7,2.6-1.6,3.8-2.7c0,0,3.9-1.6,3.6-1.7l1.4-3c3.6-2.7,5.5-6.5,7.4-10.1c3.7-9.4,5.9-19.7,6.4-30.4c0,0,1-0.4,1.2-0.1
				c0.3,0.1,2.7-0.2,3.2-1.1l2,0.5l2.6-0.1c1.8-0.5,2.5-1.6,2.9-3l1.5-0.2l3.4-2.9c-0.9-1.1-1.4-1.8-2.3-3.2c0,0-5.2-6.7-6.8-19.5
				c-0.9-7.1,0.9-19.5,0.9-19.5h2.3c-2.7-1.3-6-2.8-7.8-5.5c-1.3-7,4.4-13.2,1.5-20.1c-5.1-8.4-16.4-8.9-24.6-5.9
				c-13.9,8.2-14.5,24.5-17,38.7l-2.3,32.3c-0.6,7.9,0.4,15.9-0.3,23.7c1.9-0.6,3.8-1.8,5.1-3.5c1.1,5.3,0.5,11.3,0,16.7
				c2.7-0.1,4.9-2,6.3-4.1l0.3,0.3c-0.2,5.3-0.9,10.4-2.1,15.2L190.7,308L190.7,308z M330.1,277.1c-5.8-18.2-3-38.7-6.7-57.7
				l0.3-1.4c-1.1-7-4.6-13.2-6.8-19.7c-2.7-5.5-5.2-11.9-11.4-15.2c-4-3.5-10.3-1.8-15-0.9c-4.6,2-11.3,5.4-11.1,11.5
				c-0.2,5,2.5,8.8,3,13.5c-0.1,5.8-7,9.9-10.9,12.2h7.2c0,0,1.5,6.2,1.2,14.1c-0.2,7.5-1.4,15.9-6.6,24.2c-0.2,0.3-2.4,3.6-6.1,7.6
				l7.5,2.6l0.6-2c0.2,0.3,0.4,0.3,0.8,0.5c0.7,0.4,1.8,0.2,2.7,0.3l1.6-0.1c1-0.3,1.8-1.1,2.1-2.1l1,0.3l0.4,0.3
				c0.9,0.1,2.3,0.5,2.9-0.3l1.2,2l0.8,3.4c4,10.5,4.4,23.2,14.9,30.4l0.9,0.4l1.8,0.8l4.9,7.1c1.4,1.8,3.2,2.7,4.9,3.8
				c0.7,0.1,1.7,2.2,2.3,1.6l0.8-2l-1.4-7.3c1.1,0.5,2.3,0.4,3.3,0.7l1.6-1.3c-1.4-4.4-2.2-9.2-2.9-14v-1c3.8,2.4,5.3,0.5,5.3,0.5
				c-1.2-4.7-2-10.6-2.3-16.3l0.7-0.2c0.5,1.1,1,2.1,1.8,3c0.8,0.8,1.9,1.5,3,1.2L330.1,277.1L330.1,277.1z"/>
			<path id="path275" d="M197.6,317L197.6,317l-1.7-0.2l0,0c0.8-1.9,1-4.1,1.2-6.2c0.2-1.5,0.3-3.1,0.7-4.5l-0.3-0.4
				c-1.8,1.3-3.8,2.6-5.7,2.6c0,0,0,0,0,0c-0.4,0-0.8-0.1-1.2-0.2l0,0l-0.3-0.8l0,0c1.2-4.7,2-9.8,2.1-15.2l-0.3-0.3
				c-0.8,1.2-3,4-6.3,4.1l0,0l0.1-0.6c0.5-5.1,1-11-0.1-16.1c-1.2,1.5-3,2.8-5.1,3.5l0,0l0,0c0.4-4.1,0.3-8.3,0.2-12.4
				c-0.1-3.7-0.2-7.5,0.1-11.2l2.3-32.3c0.3-1.8,0.6-3.8,0.9-5.6c1-6.3,2-12.9,4.2-18.7c1.2-3.1,2.7-5.8,4.5-8.1
				c2-2.6,4.4-4.7,7.3-6.4c3-1.1,6.2-1.7,9.4-1.7c3.2,0,6.1,0.6,8.6,1.8c2.8,1.3,5.1,3.3,6.6,5.8c0.7,1.7,1,3.5,0.8,5.5
				c-0.2,1.8-0.7,3.6-1.2,5.4c-0.8,2.9-1.7,6-1.1,9.2c1.9,2.8,5.3,4.4,7.8,5.5l0,0H229c-0.1,0.5-1.7,12.5-0.9,19.4
				c0.4,2.9,0.9,5.8,1.7,8.5c0.6,2.1,1.4,4.2,2.3,6.1c1.5,3.2,2.8,4.9,2.8,5c0.9,1.3,1.4,2,2.3,3.2l0,0l0,0l-3.4,2.9l0,0l-1.5,0.1
				c-0.4,1.7-1.3,2.6-2.9,3l-2.6,0.1l0,0l-2-0.5c-0.4,0.8-2.5,1.1-3.1,1.1c-0.1,0-0.1,0-0.2,0l0,0l0,0c0-0.1-0.1-0.1-0.3-0.1
				c-0.3,0-0.8,0.2-0.9,0.2c-0.3,5.3-0.9,10.6-2,15.6c-1.1,5.1-2.6,10.1-4.4,14.7c-0.1,0.2-0.2,0.3-0.2,0.5
				c-1.8,3.5-3.7,7.1-7.2,9.6l-1.4,3c0,0,0,0,0,0c0,0,0,0.1-1.8,0.9c-0.9,0.4-1.8,0.8-1.8,0.8c-1.3,1.2-2.8,2.1-3.8,2.7L197.6,317z
				 M196,316.8l1.6,0.2l0.2-0.6l0,0c1-0.6,2.5-1.5,3.8-2.7l0,0c1.4-0.6,3.5-1.5,3.6-1.7l0,0l0,0l1.4-3l0,0c3.5-2.5,5.3-6.1,7.2-9.6
				c0.1-0.2,0.2-0.3,0.2-0.5c1.9-4.7,3.3-9.6,4.4-14.7c1.1-5.1,1.7-10.3,2-15.6l0,0l0,0c0,0,0.6-0.2,0.9-0.2c0.2,0,0.3,0,0.3,0.1
				c0,0,0.1,0,0.2,0c0.6,0,2.6-0.3,3-1.1l0,0l0,0l2,0.5l2.6-0.1c1.5-0.4,2.5-1.3,2.9-3l0,0l0,0l1.5-0.1l3.4-2.9
				c-0.9-1.1-1.4-1.8-2.3-3.2c0,0-1.3-1.7-2.8-5c-0.9-1.9-1.6-4-2.3-6.1c-0.8-2.7-1.4-5.5-1.7-8.5c-0.2-2-0.4-5.8,0.1-12.4
				c0.3-3.9,0.8-7,0.8-7.1l0,0h2.2c-2.5-1.2-5.9-2.7-7.7-5.5l0,0c-0.6-3.2,0.3-6.2,1.1-9.2c0.5-1.8,1-3.6,1.2-5.4
				c0.2-2,0-3.8-0.8-5.5c-1.6-2.6-3.8-4.5-6.6-5.8c-2.5-1.2-5.4-1.7-8.6-1.7c-3.1,0-6.4,0.6-9.4,1.7c-2.9,1.7-5.3,3.8-7.3,6.4
				c-1.8,2.3-3.3,4.9-4.5,8.1c-2.3,5.8-3.3,12.3-4.2,18.7c-0.3,1.9-0.6,3.8-0.9,5.6l-2.3,32.3c-0.3,3.7-0.2,7.5-0.1,11.2
				c0.1,4.1,0.2,8.3-0.2,12.4c2.1-0.7,3.9-1.9,5.1-3.5l0,0l0,0c1.1,5.1,0.5,11,0.1,16.1l-0.1,0.6c1.1,0,3.8-0.5,6.2-4.1l0,0l0,0
				l0.3,0.3v0c-0.2,5.4-0.9,10.5-2.1,15.2l0.3,0.8c0.4,0.1,0.8,0.2,1.2,0.2h0c2,0,3.9-1.3,5.7-2.6l0,0l0,0l0.3,0.4l0,0
				c-0.4,1.5-0.5,3-0.7,4.5C197,312.7,196.8,314.9,196,316.8z M318,314.3c-0.3,0-0.6-0.4-1-0.8c-0.4-0.4-0.7-0.8-1-0.9l0,0
				c-0.2-0.1-0.5-0.3-0.7-0.4c-1.5-0.9-3-1.8-4.2-3.4l-4.9-7.1l-1.8-0.8l-0.9-0.4c-1.8-1.3-3.4-2.7-4.8-4.4
				c-1.2-1.5-2.3-3.3-3.3-5.3c-1.8-3.7-2.9-7.9-4-11.9c-0.8-2.9-1.6-6-2.7-8.8l-0.8-3.4l-1.2-1.9c-0.2,0.3-0.7,0.5-1.3,0.5
				c-0.4,0-0.9-0.1-1.3-0.1c-0.1,0-0.3,0-0.4-0.1l0,0l-0.4-0.3l-0.9-0.3c-0.2,1-1,1.8-2.1,2.1l-1.6,0.1c-0.2,0-0.3,0-0.5,0
				c-0.1,0-0.2,0-0.3,0c-0.1,0-0.2,0-0.3,0c-0.5,0-1,0-1.4-0.2c-0.1,0-0.2-0.1-0.3-0.1c-0.2-0.1-0.4-0.1-0.5-0.3l-0.6,2l0,0
				l-7.5-2.6l0,0c3.9-4.2,6.1-7.6,6.1-7.6c5.5-8.7,6.4-17.5,6.6-24.2c0.3-7.7-1.1-13.8-1.2-14.1h-7.2l0,0c1.6-0.9,4.5-2.6,6.9-4.8
				c1.2-1.1,2.2-2.3,2.8-3.4c0.8-1.3,1.2-2.7,1.2-4c-0.2-2.1-0.9-4-1.5-5.8c-0.8-2.4-1.7-4.9-1.5-7.7c0-1.4,0.3-2.8,1-4.1
				c0.6-1.1,1.6-2.2,2.8-3.2c2.3-1.9,5.3-3.3,7.4-4.2c0.4-0.1,0.9-0.2,1.4-0.3c2.2-0.4,4.7-0.9,7.1-0.9c2.8,0,4.9,0.7,6.6,2.1
				c2.5,1.3,4.6,3.3,6.5,6.1c1.7,2.4,2.9,5.1,4.2,7.7c0.2,0.5,0.5,1,0.7,1.5c0.8,2.2,1.7,4.4,2.5,6.5c1.7,4.2,3.5,8.6,4.3,13.3l0,0
				l0,0l-0.3,1.4c1.6,8.1,2,16.7,2.3,24.9c0.3,5.5,0.5,11.2,1.1,16.7c0.7,6.2,1.7,11.4,3.2,16.1l0,0l0,0l-2,0.4
				c-0.2,0-0.3,0.1-0.5,0.1c-1.1,0-2-0.7-2.5-1.3c-0.7-0.9-1.3-1.8-1.8-3l-0.7,0.2c0.3,6,1.1,11.8,2.3,16.3l0,0l0,0
				c0,0-0.6,0.7-1.9,0.7c-1,0-2.2-0.4-3.4-1.2v1l0,0.2c0.7,4.6,1.5,9.4,2.9,13.8l0,0l0,0l-1.6,1.3l0,0c-0.4-0.1-0.9-0.2-1.4-0.3
				c-0.6-0.1-1.3-0.2-1.9-0.4l1.4,7.3l0,0l-0.8,2C318.2,314.2,318.1,314.3,318,314.3z M315.9,312.6c0.3,0,0.7,0.5,1,0.9
				c0.4,0.4,0.7,0.8,1,0.8c0.1,0,0.1,0,0.2-0.1l0.8-2l-1.4-7.3l0,0c0.6,0.3,1.3,0.4,1.9,0.4c0.5,0.1,0.9,0.1,1.4,0.3l1.6-1.3
				c-1.4-4.4-2.1-9.1-2.9-13.8l0-0.2l0-1l0,0c1.3,0.8,2.4,1.2,3.4,1.2c1.2,0,1.8-0.6,1.9-0.7c-1.1-4.5-1.9-10.3-2.3-16.3l0,0l0,0
				l0.7-0.2l0,0c0.5,1.1,1.1,2.1,1.8,3c0.6,0.6,1.5,1.3,2.5,1.3c0.2,0,0.3,0,0.5-0.1l1.9-0.4c-1.5-4.7-2.6-9.9-3.2-16.1
				c-0.6-5.5-0.9-11.2-1.1-16.7c-0.4-8.3-0.8-16.8-2.3-24.9l0,0l0,0l0.3-1.4c-0.8-4.7-2.6-9-4.3-13.3c-0.9-2.1-1.8-4.3-2.5-6.5
				c-0.2-0.5-0.5-1-0.7-1.5c-1.2-2.6-2.5-5.2-4.2-7.7c-1.9-2.7-4-4.7-6.5-6c-1.6-1.4-3.8-2.1-6.6-2.1c-2.4,0-4.9,0.5-7.1,0.9
				c-0.5,0.1-0.9,0.2-1.4,0.3c-2,0.9-5,2.2-7.3,4.2c-1.2,1-2.1,2.1-2.7,3.2c-0.7,1.3-1.1,2.7-1,4.1c-0.1,2.8,0.7,5.3,1.5,7.7
				c0.6,1.8,1.3,3.8,1.5,5.8c0,1.3-0.4,2.7-1.2,4c-0.7,1.1-1.6,2.3-2.8,3.4c-2.3,2.1-5.2,3.8-6.8,4.8h7.1l0,0
				c0,0.1,1.5,6.2,1.2,14.1c-0.2,6.7-1.2,15.5-6.6,24.2c0,0-2.2,3.4-6.1,7.6l7.5,2.6l0.6-2l0,0c0.1,0.2,0.3,0.3,0.5,0.4
				c0.1,0,0.2,0.1,0.3,0.1c0.4,0.2,0.9,0.2,1.4,0.2c0.1,0,0.2,0,0.3,0c0.1,0,0.2,0,0.3,0c0.2,0,0.4,0,0.5,0l1.6-0.1
				c1-0.3,1.8-1.2,2.1-2.1l0,0l0,0l1,0.3l0.4,0.3c0.1,0,0.2,0,0.4,0.1c0.4,0.1,0.8,0.1,1.3,0.1c0.6,0,1-0.2,1.3-0.5l0,0l1.2,2
				l0.8,3.4c1.1,2.8,1.9,5.9,2.7,8.8c1.1,4,2.2,8.1,4,11.9c1,2,2,3.7,3.3,5.3c1.4,1.7,3,3.2,4.8,4.4l0.9,0.4l1.8,0.8l0,0l4.9,7.1
				c1.2,1.5,2.7,2.5,4.2,3.4C315.5,312.3,315.7,312.4,315.9,312.6z"/>
		</g>
		<g id="g277">
			<path id="path161_1_" fill="#FFFFFF" d="M266.7,219.4c-0.2-1.3-0.9-3.6-1.4-5.1c0.5-2.2-1.6-4.3-0.8-6.3
				c-1.4-3.8-1.7-7.6-1.8-11.7c-0.6-2.5-0.7-5.3-1.7-7.6c-1.2-2.7-4.8-3.6-7-4.1c-2.2-0.5-5.6-0.6-5.6-0.6c-1-0.1-2.7,0.5-2.6,1.3
				c1.2,1.9,1.1,3.7,0.8,5.3l-3,0.8c2.5,0.6,5,2.6,4.8,3.9c-0.4,1.1-2.3,1.3-2.5,1.1c0,0-3.5-3.1-3.9-3.2c-0.5-0.1-1.7-1.1-1.5-0.8
				c0.1,0.1,1.3,1.6,2.1,2.5c0.8,0.8,1.2,2,1.2,2c0.8,0.8,1.2,1.5,1.1,3.1l-1.1,3l-0.8,2.9c0,1.5-1.7,2.9-1.5,4.6
				c-0.6,1.2-1.4,2.6-1.1,3.8l-2.2,5.2L266.7,219.4L266.7,219.4L266.7,219.4z"/>
			<path id="path280" d="M266.8,219.4h-28.5l0,0l2.1-5.2c-0.3-1.1,0.3-2.3,0.8-3.3c0.1-0.2,0.2-0.3,0.2-0.5
				c-0.1-0.9,0.3-1.7,0.8-2.5c0.4-0.7,0.7-1.4,0.7-2.1l0,0l0.8-2.9l1.1-3c0.1-1.6-0.3-2.3-1.1-3.1l0,0c0,0-0.4-1.2-1.2-2
				c-0.7-0.7-1.7-1.9-2-2.3c-0.1-0.1-0.1-0.1-0.1-0.2c0,0,0,0,0-0.1c0,0,0,0,0,0c0,0,0.2,0.1,0.5,0.3c0.3,0.2,0.8,0.5,1.1,0.6
				c0.4,0.1,3.8,3.1,3.9,3.2c0.1,0,0.2,0.1,0.4,0.1c0.3,0,0.8-0.1,1.2-0.3c0.3-0.2,0.8-0.4,0.9-0.9c0.1-0.6-0.4-1.4-1.3-2.2
				c-0.9-0.7-2.2-1.4-3.4-1.7v0l3-0.8c0.3-1.5,0.5-3.4-0.8-5.3l0,0c0-0.2,0-0.3,0.2-0.5c0.4-0.5,1.5-0.8,2.3-0.8c0.1,0,0.1,0,0.2,0
				c0,0,3.5,0.2,5.6,0.6c1.1,0.2,2.5,0.6,3.8,1.2c1.5,0.7,2.6,1.7,3.1,2.9c0.7,1.6,1,3.3,1.2,5c0.1,0.9,0.3,1.7,0.5,2.6
				c0.1,4.4,0.5,8.1,1.8,11.7l0,0l0,0c-0.4,1.1-0.1,2.1,0.3,3.2c0.3,1,0.7,2,0.4,3.1c0.1,0.3,0.2,0.6,0.3,0.9
				C266.1,216.6,266.6,218.3,266.8,219.4L266.8,219.4z M238.3,219.4h28.4c-0.2-1.1-0.7-2.8-1.1-4.2c-0.1-0.3-0.2-0.6-0.3-0.9l0,0
				l0,0c0.2-1.1-0.1-2.1-0.4-3.1c-0.4-1.1-0.7-2.2-0.3-3.2c-1.3-3.6-1.7-7.3-1.8-11.7c-0.2-0.9-0.3-1.7-0.5-2.6
				c-0.3-1.7-0.6-3.4-1.2-5c-0.5-1.2-1.6-2.2-3.1-2.9c-1.3-0.6-2.7-1-3.8-1.2c-2.1-0.5-5.6-0.6-5.6-0.6c-0.1,0-0.1,0-0.2,0
				c-0.7,0-1.8,0.3-2.2,0.8c-0.1,0.2-0.2,0.3-0.2,0.5c1.2,1.9,1.1,3.7,0.8,5.3l0,0l0,0l-3,0.8c1.2,0.3,2.4,0.9,3.4,1.7
				c1,0.8,1.5,1.6,1.4,2.2c-0.2,0.5-0.6,0.8-0.9,0.9c-0.4,0.2-0.9,0.3-1.2,0.3c-0.2,0-0.4,0-0.4-0.1c0,0-3.5-3.1-3.9-3.2
				c-0.2-0.1-0.7-0.4-1.1-0.6c-0.2-0.1-0.4-0.2-0.4-0.3c0,0,0,0,0,0c0,0,0.1,0.1,0.1,0.2c0.4,0.4,1.3,1.6,2,2.3c0.8,0.8,1.2,2,1.2,2
				c0.8,0.8,1.2,1.5,1.1,3.1l0,0l-1.1,3l-0.8,2.9c0,0.7-0.4,1.4-0.8,2.1c-0.4,0.8-0.9,1.6-0.8,2.5l0,0l0,0c-0.1,0.2-0.2,0.3-0.2,0.5
				c-0.5,1.1-1.1,2.3-0.8,3.3l0,0l0,0L238.3,219.4z"/>
		</g>
		<g id="g282">
			<path id="path163_1_" fill="#E0AF35" d="M245.9,185.2c1.2,1.9,1.1,3.7,0.8,5.3l-3,0.8c2.5,0.6,5,2.6,4.8,3.9
				c-0.4,1.1-2.3,1.3-2.5,1.1c0,0-3.5-3.1-3.9-3.2c-0.5-0.1-1.7-1.1-1.5-0.8c0.1,0.1,1.3,1.6,2.1,2.5c0.8,0.8,1.2,2,1.2,2
				c-5.2-2.9-7.1-3.2-7.1-3.2l-0.7,0.9c-0.3-3-1.1-5.9,0.6-8.4C238.3,184.2,242.8,184.8,245.9,185.2L245.9,185.2z"/>
			<path id="path285" fill="#E0AF35" d="M243.8,196.8c-2.7-1.5-4.5-2.3-5.5-2.7c-1-0.4-1.5-0.5-1.6-0.5l-0.7,0.9l0,0
				c-0.1-0.5-0.1-1.1-0.2-1.6c-0.3-2.4-0.6-4.7,0.8-6.8c0.8-0.8,2.2-1.2,4.3-1.2c1.7,0,3.5,0.3,5,0.5l0,0l0,0c1.3,2.1,1.1,4,0.8,5.3
				l0,0l0,0l-3,0.8c1.2,0.3,2.4,0.9,3.4,1.7c1,0.8,1.5,1.6,1.4,2.2c-0.3,0.9-1.5,1.2-2.1,1.2c-0.2,0-0.4,0-0.4-0.1
				c0,0-3.5-3.1-3.9-3.2c-0.2-0.1-0.7-0.4-1.1-0.6c-0.2-0.1-0.4-0.2-0.4-0.3c0,0,0,0,0,0c0,0,0.1,0.1,0.1,0.2c0.4,0.4,1.3,1.6,2,2.3
				C243.4,195.5,243.8,196.7,243.8,196.8L243.8,196.8z M236.7,193.5L236.7,193.5c0,0,0.5,0.1,1.6,0.5c1,0.4,2.8,1.2,5.5,2.7
				c-0.1-0.2-0.5-1.3-1.2-2c-0.7-0.7-1.7-1.9-2-2.3c-0.1-0.1-0.1-0.1-0.1-0.2c0,0,0,0,0-0.1c0,0,0,0,0,0c0,0,0.2,0.1,0.5,0.3
				c0.3,0.2,0.8,0.5,1.1,0.6c0.4,0.1,3.8,3.1,3.9,3.2c0.1,0,0.2,0.1,0.4,0.1c0.3,0,0.8-0.1,1.2-0.3c0.3-0.2,0.8-0.4,0.9-0.9
				c0.1-0.6-0.4-1.4-1.3-2.2c-0.9-0.7-2.2-1.4-3.4-1.7v0l3-0.8c0.3-1.3,0.5-3.2-0.8-5.3l0,0c-1.5-0.2-3.3-0.5-5-0.5
				c-2.1,0-3.5,0.4-4.3,1.2c-1.4,2.1-1.1,4.4-0.8,6.8c0.1,0.5,0.1,1,0.2,1.6L236.7,193.5z"/>
		</g>
		<path id="path287" d="M243.8,196.8L243.8,196.8c-5-2.5-7-3.2-7.1-3.2l-0.7,0.9l0,0c-0.1-0.5-0.1-1.1-0.2-1.6
			c-0.3-2.4-0.6-4.7,0.8-6.8c0.8-0.8,2.1-1.2,4.1-1.2c0.1,0,0.1,0,0.2,0c1.7,0,3.5,0.3,5,0.5l0,0l0,0l0,0c-1.5-0.2-3.3-0.5-5-0.5
			c-0.1,0-0.1,0-0.2,0c-2,0-3.4,0.4-4.1,1.2c-1.4,2.1-1.1,4.4-0.8,6.8c0.1,0.5,0.1,1,0.2,1.6l0.7-0.9l0,0
			C236.7,193.5,238.6,194.2,243.8,196.8L243.8,196.8L243.8,196.8z"/>
		<path id="path167" d="M243.9,203.1c1.1-1.4,1.9-2.7,2.5-4.9c-0.3-0.2-0.3-0.4-0.5-0.6c-0.5,0.2-0.5,1.8-0.7,2.6L243.9,203.1
			 M241.6,193c0,0,2.9,2.1,4.3,3.4c1.2,0.3,2.4-0.2,2.8-1.5c0-0.6-0.9-1.8-2.2-2.6c-0.5-0.2-1.1-0.6-1.6-0.8c1,0.9,3.3,2,2.8,3.9
			c-1,0.9-1.5,0.6-2,0.1L241.6,193 M243.1,192.8l3.6,1.6c0,0,0.7,0,0-0.2c-2.8-1.3-5.3-4.6-8.6-3.2c-1.1,0.6-1.6,2.3-2.1,3.4
			l0.7-0.8c0,0,0.9-1.4,1.4-1.6c2.3-0.8,3.7,0.2,3.7,0.2L243.1,192.8 M245.7,190.4c-0.1,0.2,0.3,0.7,0.1,0.7c-0.6,0.3-2.1,0.2-2.8,0
			C243.3,191,244.8,189.8,245.7,190.4 M238.9,185.9c-1.8,1.3-1.9,2.6-2.6,4.6C236,188.2,236.8,185.6,238.9,185.9 M242.9,196
			c-2.6-2-3-2-5.8-3.1c0,0,0.2-0.3,0.3-0.5c3,1.2,4.1,2.3,4.1,2.3L242.9,196 M246.6,189.3l0.2,0.6c1.3-1.4,0.7-3-1-4.6l0.6,1.6
			C247,188.6,246.5,188.8,246.6,189.3"/>
		<g id="g290">
			<path id="path169_1_" d="M247,190.6c1.3-0.2,1.4,2.1,3,2c1.3,0.1,2.5-0.8,3.2-2.2c1.1,0.1,2,0.2,2.9-0.2l0.2-0.2
				c-0.9,0.3-2,0.2-3-0.2c-1.3-0.4-2.6-1.4-3.7-1.4c-1.1-0.1-1.6,0.7-2.1,1.8L247,190.6L247,190.6z"/>
			<path id="path293" d="M249.9,192.6c-0.8,0-1.2-0.6-1.6-1.1c-0.3-0.5-0.7-0.9-1.2-0.9c0,0-0.1,0-0.2,0l0,0l0.5-0.3
				c0.5-1,0.9-1.8,1.9-1.8c0,0,0.1,0,0.2,0c0.7,0,1.4,0.4,2.2,0.7c0.5,0.2,1,0.5,1.5,0.6c0.8,0.2,1.4,0.4,1.9,0.4
				c0.4,0,0.8-0.1,1.1-0.2l0,0l-0.2,0.2c-0.5,0.2-1,0.4-1.6,0.4c-0.4,0-0.8,0-1.3-0.1l-0.1,0c-0.7,1.3-1.8,2.2-3.1,2.2
				c0,0-0.1,0-0.1,0C250,192.6,249.9,192.6,249.9,192.6z M247.1,190.6c0.5,0,0.9,0.4,1.2,0.9c0.4,0.5,0.8,1.1,1.5,1.1
				c0,0,0.1,0,0.1,0c0,0,0.1,0,0.1,0c1.2,0,2.4-0.8,3-2.2l0,0l0.1,0c0.4,0.1,0.9,0.1,1.3,0.1c0.6,0,1.1-0.1,1.5-0.4l0.1-0.2
				c-0.3,0.1-0.7,0.2-1,0.2c-0.5,0-1.2-0.1-1.9-0.4c-0.5-0.2-1-0.4-1.5-0.6c-0.8-0.4-1.5-0.7-2.2-0.7c-0.1,0-0.1,0-0.2,0
				c-1,0-1.5,0.8-1.9,1.8l0,0l0,0L247.1,190.6C247.1,190.6,247.1,190.6,247.1,190.6z"/>
		</g>
		<path id="path171" fill="#FFFFFF" d="M249.2,189.5c-0.1,0.7-0.3,1.4,0.6,1.8c1.1,0.2,1.3-0.5,1.6-1.3c0.1-0.1,1,0.2,1,0.3
			c-0.1,0.5-0.5,1.4-1.3,1.7c-0.6,0.2-1,0.2-1.5,0c-0.8-0.3-1.4-1.3-1.4-1.9C248,189.7,248.8,189.4,249.2,189.5"/>
		<path id="path173" d="M239.4,219.4c0.8-0.1,1.4-0.9,2.1-1.1c0.3,0.4-1.3,0.7-1,1.1H239.4 M245.5,219.4c0.8-0.3,1.8-1.6,2.6-1.6
			c0.5,0.4-0.8,1-0.6,1.6H245.5 M254.8,219.4c0.6-0.3,1.4-1.6,2.3-1.4c0.8,0.3,0,0.8-0.3,1.4H254.8 M263.6,219.4l-0.6-0.9
			c-0.1-0.3-0.7-0.8-0.5-1c0.7,0.4,0.7,1,2,1.9H263.6 M249.2,207.8c-0.6,0.7-1.5,1-2.4,1.1c-0.6,0.1-1-0.2-1.4-0.4v-0.3
			c1.1,0.3,1.9,0.6,2.9,0C248.7,208,248.9,207.7,249.2,207.8 M255.2,207.3c-1.4,2.4-2.3,2-3.9,0.6c-0.3-0.1,1.7,0.6,2.1,0.4
			L255.2,207.3 M258.7,215.8c-0.9,0.2-1.7,1.6-2.7,0.6c-0.6-0.5-1.1-1.1-0.9-2c0.9,0.6,1.9,0.8,2.9,0.3c0.9-1.5,2.6-2,2.6-3.8
			C261,212.7,259.7,214.5,258.7,215.8 M250.6,216.6c-0.7-0.2-1.6,0.4-2.5,0c-0.8-0.6-0.7-1.6-1-2.4c1,1.1,1.8,1.4,3,1.2
			c1-1.1,2.7-2.3,3.3-3.8C252.9,213.4,251.8,215.1,250.6,216.6 M243.4,216.6c-0.6-0.5-1.1,0.4-1.7-0.1c-0.3-1-0.6-2.2-0.3-3.4
			c0.4,0.8,0.1,2,1.3,2.3c1.7,0.2,1.8-1.9,3.2-2.4C245.6,214.4,244,215.3,243.4,216.6 M185.8,222.1c3.2-6.5,5.4-13.5,6.8-20.8
			C191,208.5,189.8,215.9,185.8,222.1"/>
		<path id="path175" fill="#94693C" d="M227.2,233.5c-0.6-0.6-0.3-1.7,0.3-2.3L227.2,233.5"/>
		<path id="path298" d="M184.9,256.2c-0.6,6.9-1.1,13.9-1.2,20.9c1.6-6.6,2.1-13.8,2.5-20.9H184.9 M191.9,256.2c0,0.8,0,1.6,0,2.5
			c-0.5,2-2.1,3.5-2.9,5.3c-2.7,5.7-1.5,13.1-7.4,17.3c0.6,0.8,1.1-0.2,1.6-0.3c4.3-2.4,3.6-7.7,5.8-11.4c0.3,5.7,0.1,11.8,0.8,17.1
			c1.8-6.3,0.6-13.7,0.5-20.3c0.6-2.3,1.9-4.3,3.3-6.3c0.1-1.3,0.1-2.7,0.1-4L191.9,256.2 M199.4,256.2c-0.3,4.6-0.6,9.1-1.1,13.6
			c-2.3,2.7-3,6.1-3.5,9.4c-2.3,5.3-1.8,12.2-7.9,15.5l-0.2,0.4c2.7-0.1,4.9-3.2,6.1-5.3c1.2-3.3,2.3-6.6,3.5-9.9
			c0.3,6.5-0.5,13.4-1.1,19.6c2.7-7.2,2.6-15.9,2.3-24c0.3-1.8,0.9-3.6,2.6-4.7c0,0,0.3-6.9,0.6-14.6L199.4,256.2 M207.1,256.2
			c-0.3,8.1-0.8,16.2-1.6,24.1c-4,6.3-5.8,13.5-7.3,20.8c-0.6,2.9-3.5,5-6.1,6.2h-1.8l0.3,0.8c2.9,0.2,5.1-1.3,7.3-3
			c-0.4-2.4,1.8-3.8,2.3-5.9c1-2.9,1.3-6.1,2.9-8.9c-0.6,5.9-1.1,12-2,17.5c1.7-3,1.7-6.8,2.5-10.1c0.6-4.6,1.3-8.9,1.6-13.5
			l2.2-2.1c0,0,0.6-14.2,1.1-25.7L207.1,256.2 M213.3,256.2c-0.4,11.2-1.1,22.9-1.8,34.1c-5.2,5.4-3.5,13.5-7.3,19.5
			c-0.3,1.5-1.3,2.8-2.5,4l3.6-2c2.3-5.4,4-11.6,5.7-17.4l2.6-3c0.5-12.2,1-23.6,1.2-35L213.3,256.2 M220.5,256.2
			c-0.3,4.2-0.8,8.4-0.1,12.3l0.6-0.1c0.6-3.7,0.7-8.1,0.8-12.3H220.5 M223.6,256.2c-0.2,3.1-0.6,6.2-0.9,9.3c0,0,0.4,0.2,0.5,0
			c0.8-2.9,1-6.2,1.1-9.3H223.6 M226.7,256.2c-0.1,4-0.6,8.9-1.9,11.1l2,0.5c0.7-3.8,0.9-7.6,1-11.6L226.7,256.2 M230.1,256.2
			c-0.2,3-0.6,6-0.7,8.9c1-2.4,1.3-5.7,1.5-8.9H230.1 M233.4,256.2c0,0.1,0.1,0.1,0.1,0.1c-0.5,1.7-0.7,6.5-1.2,8.3l2.5,2.2
			c0-1.5,6.5-0.8,6.5-0.8c-3.3-3.3-5.8-6.6-7.7-9.9L233.4,256.2 M233.5,256.2c-4.4-7.5-5.4-14.5-5.7-20.2c-0.1-4.6,0.2-8.3,0.2-8.3
			l-1.4,3.6c-1.6,1-3,0.2-4.6-0.4c-0.8-1.1-2.2-2.3-1.4-3.9c0.5-0.8,1.1-1.3,1.6-1.8c-1.5,0.5-3.4,2.5-5.1,0.9
			c-0.8-1.8-2.4-3.5-1.5-5.8c0.5-0.7,0.7-1.6,1.5-2.2c-0.8-0.2-1.8,0.5-2.6-0.3c-1.1-1.8-0.9-3.7-0.8-5.8c0.7-0.8,1.1-1.5,2-2
			c-1-0.4-2.4-1.4-2.3-2.8c0.2-3.2,1.1-6.1,3.4-8.4l-0.1-0.2c-2.7,2.4-6,4.3-9.6,3c-1.2-0.5-1.3-1.8-1.6-2.8
			c-1.7,2.8-5.1,3.5-8.4,3.8c-1.8-0.1-2.8-2.2-4.4-2.6c0.8,1.3,2.1,2.9,3.5,3.8c-0.6,6.8-3.2,12.7-6.1,18.5c-1.5,1.8-4,1.5-6.1,2
			c0.8,1.1,2.5,0.8,3.3,2c-0.7,10-1.7,19.9-2.6,29.9h1.2c0.3-5,0.5-10,1.1-14.8l0.8-15.1l3-1.6l2.7,2.9c-1,9.6-1.6,18.8-1.8,28.6
			h1.7c0.3-9.1,0.4-18.1,0.9-27.6c0.8-0.6,2.2-0.2,2.9-0.3c0.8,1.9,1.6,3.8,3.2,5.2c-0.6,7.3-0.8,15-1.3,22.7h1.3
			c0.4-10.2,0.9-21.9,0.9-21.9c0.2-0.4,0.6-0.3,0.9-0.3c1,2.5,1.4,6.3,4.7,6.8c0.1,5.1,0.1,10.2,0,15.4h1.3
			c0.3-7.7,0.6-14.2,0.6-14.2c0.9,1.5,2,3.8,4.1,3.7h0.4c-0.1,3.4-0.2,7-0.3,10.6h1.5c0-3,0.1-6,0-9c1.7,0.9,3.1,3,5.5,2.4l0.3,0.4
			c0.1,2,0.1,4.1-0.1,6.2h1.3c0.1-2,0.1-4,0.3-5.9c0.4,0.2,1.3,0.7,1.6,1.4c0,1.5,0,3-0.1,4.5h0.6c0-1.4,0.1-2.8,0.1-4l2.3,0.4
			c0.1,1,0.1,2.3,0,3.6h1.1c0-1,0.1-2,0.1-3l2.3-1.7c0.1,1.5,0.1,3.1,0,4.7h0.8c0.1-1.7,0.2-3.3,0.3-4.8c0,0,1.9,4.1,2.2,4.8
			L233.5,256.2"/>
		<g id="g300">
			<path id="path179_1_" fill="#94693C" d="M226.8,309c-0.9-0.2-1.7-0.3-2.6-0.5c3.5-13.2,4.1-27.8,7.8-40.8
				c1.3-1.1,0.9-3.6,6.5-4.3c0.4,0.8-3.4,0.7-4.2,2.6c3.7-2.4,5.8-1.5,8,0.2c6.8,5.1,2.4,14.9,2.6,22l-0.5,1.1l-0.4,14.9
				c-0.8,1.5-0.3,3.6-0.4,5.4c-1.6-0.5-3.6-2.5-5.6-1.1h-0.6L226.8,309L226.8,309z M234.1,257l-1.1,7.8c0,0,2.5-1.5,3.2-1.7
				c0.7-0.2,2.2-0.2,2.2-0.2s-1.7-2-2.3-2.8C235.5,259.3,234.1,257,234.1,257L234.1,257z"/>
			<path id="path303" d="M243.5,309.5L243.5,309.5c-0.5-0.1-0.9-0.4-1.4-0.7c-0.9-0.4-1.7-0.9-2.7-0.9c-0.5,0-1,0.2-1.5,0.5l0,0
				h-0.6l-10.5,0.5l0,0c-0.5-0.1-0.9-0.2-1.3-0.3c-0.4-0.1-0.8-0.2-1.3-0.2l0,0l0,0c1.7-6.3,2.7-13.1,3.7-19.6
				c1.1-7.1,2.2-14.5,4.1-21.2l0,0l0,0c0.3-0.3,0.6-0.7,0.8-1.1c0.7-1.2,1.6-2.7,5.6-3.2l0,0l0,0c0,0.1,0,0.1,0,0.2
				c-0.1,0.2-0.6,0.4-1.2,0.6c-1,0.3-2.5,0.7-2.9,1.8c1.5-1,2.9-1.5,4.1-1.5c1.6,0,2.8,0.8,3.9,1.7c1.2,0.9,2,1.9,2.7,3.2
				c0.6,1.1,0.9,2.3,1.1,3.8c0.3,2.7-0.1,5.7-0.5,8.5c-0.3,2.3-0.6,4.5-0.6,6.5l0,0l-0.5,1.1l-0.4,14.9c-0.6,1-0.5,2.3-0.4,3.6
				C243.5,308.3,243.5,308.9,243.5,309.5L243.5,309.5z M239.4,308c0.9,0,1.8,0.5,2.7,0.9c0.5,0.3,1,0.5,1.4,0.6c0-0.6,0-1.2,0-1.8
				c-0.1-1.3-0.1-2.6,0.5-3.6l0.4-14.9l0.5-1.1c-0.1-2,0.3-4.2,0.6-6.5c0.4-2.9,0.8-5.8,0.5-8.5c-0.2-1.5-0.5-2.7-1.1-3.8
				c-0.6-1.2-1.5-2.3-2.6-3.1c-1.9-1.5-3-1.7-3.9-1.7c-1.2,0-2.6,0.5-4.1,1.5l0,0l0,0c0.4-1.1,1.9-1.5,2.9-1.9
				c0.6-0.2,1.1-0.3,1.2-0.5c0-0.1,0-0.1,0-0.2c-4,0.5-4.9,2-5.6,3.2c-0.2,0.4-0.5,0.8-0.8,1.1c-1.9,6.8-3.1,14.1-4.1,21.2
				c-1,6.5-2,13.2-3.7,19.6c0.4,0.1,0.8,0.2,1.3,0.2c0.4,0.1,0.9,0.2,1.3,0.3l10.5-0.5h0.6C238.3,308.1,238.8,308,239.4,308z
				 M232.9,264.9L232.9,264.9l1.2-7.9l0,0c0,0,1.4,2.3,2,3.1c0.6,0.8,2.2,2.8,2.3,2.8l0,0l0,0c0,0-0.1,0-0.2,0c-0.4,0-1.4,0-1.9,0.2
				C235.5,263.4,233,264.9,232.9,264.9L232.9,264.9z M234.1,257.1l-1.1,7.8c0.3-0.2,2.6-1.5,3.2-1.7c0.5-0.2,1.4-0.2,1.9-0.2
				c0.1,0,0.2,0,0.2,0c-0.2-0.2-1.7-2.1-2.2-2.8C235.5,259.4,234.3,257.4,234.1,257.1z"/>
		</g>
		<path id="path181" d="M211.3,302.7c-1,1.2-1.6,2.7-3,3.5c0.8-2.7,3.3-5.4,4.4-8.3c4-9.1,5.8-19.2,6.6-29.7
			C219.8,280.6,216.9,292.4,211.3,302.7 M222.4,209.6c-0.4,2.4,0,4.8,1.4,6.7c-3.9-3.4-2.2-8.3-1.5-12.7c0.8-3,2.8-6.3,1.4-9.6
			C226.9,199.1,222.4,204.3,222.4,209.6"/>
		<path id="path183" fill="#94693C" d="M207.2,204c-1.3,7.7-5.2,14.4-9.9,20.7c-0.9,0.8-2.3,0.9-3.5,0.4c-0.8-0.4-1.6-1.3-2.1-2
			c2.3-6,4.6-12,5.6-18.5c3,0.3,5.3-1.6,7.6-3.2C205.3,202.4,206.4,203.2,207.2,204 M213.7,210.7c-1.1,2.2-2.2,4.6-1.5,7.1
			c-3,4.4-5.3,9.6-9.9,13c-1.6,0.8-2.8-0.8-3.4-2c-2-4.2,3.3-6.9,4.2-10.6c2.2-4.5,4.1-9.1,5.2-14c2.1,0.2,3.8-0.7,5.3-2
			C213.1,204.8,211,208.6,213.7,210.7"/>
		<path id="path185" d="M201.1,212.7c-0.6-0.5,0-1.5,0.2-2.2c0.9-1.8,1.4-3.7,1.8-5.8l0.1,0.4L201.1,212.7 M203.9,226.2
			c-1.1,0.8-1.8,2.6-3.5,2c-0.3-1.3,1.4-1,2-1.7c3.5-5.3,6.2-10.9,8.6-16.7C209.1,215.4,206.5,220.8,203.9,226.2 M215.7,214.9
			l2.4-1.5C217.9,214.6,216.7,214.7,215.7,214.9 M198.7,219.4c-1.1,1.3-1.3,3.8-3.4,4.6c2.2-2.9,3.5-6.8,4.9-10.4
			C200.7,215.8,198.9,217,198.7,219.4"/>
		<path id="path187" fill="#94693C" d="M215,226c0.5,1,2.4,1,1.8,2.3c-2.5,3.6-4.4,7.9-8.1,10.6c-1.9,0.8-3.3-1.4-4.4-2.6
			c-0.6-1-0.8-2.1-0.9-3.3c4.5-3.9,6.5-9,9.4-13.7C215.6,220.5,213.1,224,215,226"/>
		<path id="path189" d="M218.8,223.7l2.4-3.2C220.6,221.8,220,222.9,218.8,223.7 M225,228.7l0.9-2.1l-0.2,1.3L225,228.7"/>
		<path id="path310" fill="#94693C" d="M221.9,232.4h0.4v0.8l-6.8,10.6c-0.6,0.6-1.7,0.8-2.5,0.4c-1.3-0.9-3-2.2-3-3.9
			c4.1-3,5.4-7.7,7.9-11.6C218.6,230.2,219.7,232.6,221.9,232.4"/>
		<path id="path193" d="M207.2,236.6h-1.3c-0.3-0.9,1.2-0.6,1.6-1.2c1.8-1.9,3.1-4,4.4-6.1C210.8,232,209.1,234.9,207.2,236.6"/>
		<path id="path195" fill="#94693C" d="M225.7,233.8c-0.4,2.1,2.7,3,1.7,5.3c-2.3,2.7-3.1,6.3-5.6,9.1c-1.8,1.4-3.3-0.6-4.7-1.4
			c-0.4-0.5-0.6-1.1-0.8-1.6c3.4-3.4,5-7.5,7-11.4C224,234.4,224.9,233.8,225.7,233.8"/>
		<path id="path197" d="M214.2,242.1c-0.6,0.4-1.1,0.8-1.8,0.8c2.3-1.8,4-4.9,5.6-7.5L214.2,242.1"/>
		<path id="path199" fill="#94693C" d="M229.2,245.3c-0.2,1-1.2,2.3-2.3,2.9c-0.5-0.1-0.9,0.1-1.3,0.4c-0.1,0.3,0.1,0.4,0.3,0.6
			c1,0,1.9-0.4,2.7-1c0.3-0.4,0.7-1,1-1.4c0.1,0.8,0.5,1.6,0.8,2.5c-0.1,0.2-1.1,0.7-1.4,0.8c-1.8,1.5-3.9,0-5.5-1l-0.4-0.4l5.1-9.5
			C228.2,241.2,228.8,243.4,229.2,245.3"/>
		<path id="path201" d="M218.1,246.4c2.7-1.1,3.7-4.1,5.2-6.4C221.9,242.3,221.7,246.5,218.1,246.4 M210.7,198.9
			c0.6-1.1,0.7-2.3,1.8-3.2C212.7,196.9,211.7,197.9,210.7,198.9 M215.8,204.9c-0.1-1.1,1.2-1.5,1.8-2.6
			C217.6,203.1,216.3,204.1,215.8,204.9 M279.8,233.5c-0.2,3.2,0.5,18.4-12.7,31.8l7.5,2.7l0.6-2c0.2,0.3,0.4,0.3,0.8,0.5
			c0.7,0.4,0.5,0.3,1.4,0.3l2.9-0.2c1-0.3,1.8-1.1,2.1-2.1l1,0.3l0.4,0.3c0.9,0.1,2.3,0.5,2.9-0.3l1.2,2l0.8,3.4
			c4,10.5,4.4,23.2,14.9,30.4l0.9,0.4l1.8,0.8l4.9,7.1c1.4,1.8,3.2,2.7,4.9,3.8c0.7,0.1,1.7,2.2,2.3,1.6l0.8-2l-1.4-7.3
			c1.1,0.5,2.3,0.4,3.3,0.7l1.6-1.3l-0.8,0.2c-1.6-0.8-3.6-1-5-2.5c-6.2-6.7-5.1-16.5-11.4-23.1c-2.4-13-3.2-26.8-5.2-40.1
			c2-1.9,1.3-5.6,4.6-6.4c2.1,11.5,2.1,23.8,3.5,35.6c1.3,0.5,2.5,1.3,3.4,2.5c0.7,9.6,1.8,18.9,5.5,27.2c-0.4-3.2-1.6-6.5-2-9.9
			l-1.2-11.7c1.6,4.9,2.4,10.9,5.8,13.1c3.6,2.4,5.3,0.5,5.3,0.5c-0.6-0.8-1.1-0.3-1.8-0.6c-10.4-3.9-5.1-17.2-13.1-23.4l-2.8-30.7
			l-0.6-4.4c1.1-2.1,1.5-4.5,2-6.8l3.2-1l0.3,2l1.7,33l1.5,1.1c0.9,7.7,0.9,15.9,3.9,22.6c-1.9-6.4-2-14.1-2.3-21.1
			c4.4,3.2,3.3,8.9,5.8,13l0.7-0.2c-2.4-5.7-1.2-12.8-7.6-16.5c-0.8-11.8-1.5-23.7-2.3-35.5c0.4-0.7,0.5-1.5,1.1-2.1
			c0.8,2,3.3,2.3,5.1,2.3c2,15.9,2,32.7,5.8,47.8c-2.1-15.8-3.3-32.4-4.9-48.6c0.9-0.4,2-1,2.6-2c-0.3-0.6,0.4-0.9,0-1.4
			c-1.6,1.4-3.6,2.6-5.6,1.8l-1.7-1.8c-3.4-6-6.1-12.3-8.8-18.7c0.8,0.3,2.4,0.2,3.4-0.4c1.1-1,2.1-2.3,2.7-3.7
			c-1.7,1.4-4.5,2.7-6.8,1.7l-0.3-0.3c-2.9,2.2-6.9,4.2-10.8,2.7c-0.7,1.8-1.3,4.2-3.5,4.9l-1.7,0.1c0.4,1.1,1.6,2.2,2.2,3.4
			c0.4,1.8,0.7,4.4-0.3,6.1c-0.6,1.8-4,0.8-2.7,3.4c0.2,1.8,0.4,4-0.8,5.4c-1.6,1.8-3.7,3.3-5.8,3c-0.3,1.7-2.7,4.9-2.7,4.9
			S279.9,231.8,279.8,233.5 M283.1,209.6c2.2-6.8-5.5-12.6-1.5-19.4C279.4,197.1,287.2,202.8,283.1,209.6 M298.9,194.3l-0.1,0.1
			c-0.5-0.3-1-1.1-0.8-1.6C298.4,193.1,298.9,193.6,298.9,194.3"/>
		<g id="g317">
			<path id="path203_1_" fill="#94693C" d="M305.3,197.9c2.8,6.1,5.2,12.5,8.3,18.5c0.1,1.5-0.7,2.6-1.5,3.7c-1,0.7-2.3,1.1-3.5,0.8
				c-5-6-8.6-12.5-11.9-19.2C300.1,202.1,302.9,200.2,305.3,197.9L305.3,197.9z"/>
			<path id="path320" d="M309.6,221c-0.3,0-0.6,0-0.9-0.1l0,0l0,0c-5.4-6.4-9-13.3-11.9-19.2l0,0l0,0c0.3,0,0.6,0,0.8,0c0,0,0,0,0,0
				c1.4,0,2.7-0.4,4.1-1.1c1.1-0.6,2.3-1.5,3.6-2.7l0,0l0,0c1.1,2.4,2.1,4.8,3.1,7.1c1.6,3.8,3.3,7.7,5.2,11.4l0,0
				c0.1,1.5-0.8,2.7-1.5,3.7l0,0C311.6,220.5,310.6,221,309.6,221z M308.7,220.9c0.3,0.1,0.6,0.1,0.9,0.1c1,0,2-0.5,2.5-0.9
				c0.7-1,1.6-2.2,1.5-3.7c-2-3.7-3.6-7.6-5.2-11.4c-1-2.3-2-4.8-3.1-7.1c-1.3,1.2-2.4,2.1-3.5,2.7c-1.4,0.8-2.8,1.1-4.1,1.1
				c0,0,0,0,0,0c-0.3,0-0.5,0-0.8,0C299.7,207.6,303.3,214.4,308.7,220.9z"/>
		</g>
		<path id="path322" d="M292.2,201.3c-1.1,0-2.5-0.9-3.6-1.6l0.3-0.6C290.4,198.8,291.5,200.4,292.2,201.3 M319.3,214.2
			c-2.1-4.9-4.2-9.9-5.6-14.9C315.9,204.1,317.3,209.2,319.3,214.2 M310.8,218.7c-1.8-0.5-2.5-2.9-3.5-4.4c-2-3.9-4.6-7.7-5.4-12.1
			C303.8,208.1,308.2,213,310.8,218.7"/>
		<g id="g324">
			<path id="path207_1_" fill="#94693C" d="M307,222.1c0.5,2.3-0.1,4.4-1.2,6.2c-0.9,1.2-2.2,2.1-3.7,1.7c-3.5-4.4-7-8.8-9.2-13.7
				c-0.3-1.2,0.8-2.2,0.9-3.4c0.4-2.4-0.4-4.4-1-6.4c1.2-1.1,2.1-2.7,2.5-4.2C299.2,208.7,301.6,216.1,307,222.1L307,222.1z"/>
			<path id="path327" d="M302.8,230.1c-0.2,0-0.5,0-0.7-0.1l0,0l0,0c-3.4-4.2-6.9-8.7-9.2-13.7c-0.2-0.7,0.1-1.4,0.4-2
				c0.2-0.4,0.4-0.9,0.5-1.3c0.3-2-0.2-3.7-0.7-5.4c-0.1-0.3-0.2-0.7-0.3-1l0,0l0,0c1.2-1.1,2.1-2.6,2.5-4.2l0,0l0,0
				c1.5,2.3,2.7,4.8,4,7.3c2.2,4.3,4.4,8.7,7.8,12.5l0,0l0,0c0.6,2.6-0.3,4.8-1.2,6.2C304.8,229.5,303.8,230.1,302.8,230.1z
				 M302.1,230c0.2,0.1,0.4,0.1,0.7,0.1c1.3,0,2.3-1,3-1.8c0.9-1.4,1.8-3.6,1.2-6.2c-3.4-3.8-5.6-8.2-7.8-12.5
				c-1.2-2.4-2.5-4.9-3.9-7.2c-0.5,1.6-1.4,3.1-2.5,4.2c0.1,0.3,0.2,0.7,0.3,1c0.5,1.7,1,3.4,0.7,5.4c-0.1,0.5-0.3,0.9-0.5,1.3
				c-0.3,0.6-0.6,1.3-0.4,2C295.2,221.3,298.7,225.8,302.1,230z"/>
		</g>
		<path id="path209" d="M290.1,210.1c0.4,0.5,0.6,1.1,0.8,1.7c-1.3-0.9-2.9-1.8-3.8-3.2C288.4,208.4,289.2,209.4,290.1,210.1
			 M304.6,227.5c-0.6,0.9-1.5-0.4-1.8-0.9c-3.2-5.5-6.6-10.8-8.5-16.9C297.7,215.7,300.5,221.9,304.6,227.5 M285.6,220.7
			c-1.8-1.3-3-3.1-3.8-5C284,216.3,285.1,218.7,285.6,220.7"/>
		<path id="path211" fill="#94693C" d="M291.5,216.9c2.6,5.3,5.7,10.4,9.7,15.1c0.5,2-0.8,3.4-1.8,4.7c-1.1,0.9-2.4,1.3-3.9,1.1
			c-3.2-3.4-5.1-7.3-7.5-11.1c2.3-2.7,2.4-6.3,2.9-9.7H291.5"/>
		<path id="path213" d="M297,233.2c0.6,0.8,2.3,0.2,2.1,1.6c-0.9,0.5-1.6-0.2-2.4-0.4c-2.1-3.3-4.3-6.6-5.8-10.2
			C292.7,227.3,294.8,230.1,297,233.2"/>
		<path id="path215" fill="#94693C" d="M286.3,226.8c1.9,4.4,4.5,8.5,7.7,12.3c0.2,1.8-1.3,3.3-2.7,4.2c-1.4,0.5-3.1-0.4-3.5-1.8
			c-1.3-4.8-7.8-8.7-4.2-14.3C284.5,227.1,285.4,227,286.3,226.8"/>
		<path id="path217" d="M289.7,239.5c0.5,1,2.6,0.9,1.8,2.4c-1.3,0.2-2.3-0.8-2.8-1.8l-3.8-9.7L289.7,239.5"/>
		<path id="path334" fill="#94693C" d="M287.2,243.9c-0.9,2.2-3.2,2.8-5.3,3c-1.2-0.1-3.3-0.6-3.6-1.2c0.4-1.8,1-4.8,1.3-7.2
			c1.6,2.1,1.6,6.5,4.9,6.7c0.5-0.2,0.3-0.7,0.3-1.1c-2.7-1.2-3.7-4.9-5.1-7.3c0.2-1.2,0.2-2.4,0.2-3.7c0.3-0.3,0.8-0.6,1.4-0.7
			L287.2,243.9"/>
		<g id="g336">
			<path id="path221_1_" fill="#94693C" d="M286.1,248.2c1.3-1,1.5-4.5,3.8-2.3l1.8-0.3l0.6,1.6c1.1,13.3,3.7,26.3,5.9,39
				c4,3.5,4.7,8.6,6.8,13c-5.8-3.7-9-10.2-11.2-16.4c-2-4.9-3.2-10.1-5-15C288.9,268,286.6,254.5,286.1,248.2L286.1,248.2z"/>
			<path id="path339" d="M305.2,299.4L305.2,299.4c-1.4-0.9-2.7-2-3.9-3.3c-1.1-1.2-2.1-2.5-3.1-4c-1.6-2.5-3-5.5-4.2-9.1
				c-1.1-2.7-2-5.6-2.8-8.3c-0.7-2.2-1.4-4.5-2.2-6.7c0-0.1-2.3-13.5-2.8-19.7l0,0l0,0c0.4-0.3,0.7-0.9,1-1.5
				c0.4-0.8,0.8-1.5,1.5-1.5c0.4,0,0.8,0.2,1.3,0.7l1.8-0.3l0,0l0.6,1.6c1,11.2,2.9,22.3,4.8,33c0.4,2,0.7,4.1,1.1,6.1
				c2.8,2.5,4,5.8,5.2,9C304,296.7,304.5,298,305.2,299.4L305.2,299.4z M286.2,248.2c0.4,6.3,2.8,19.6,2.8,19.7
				c0.8,2.2,1.5,4.5,2.2,6.7c0.8,2.8,1.7,5.6,2.8,8.3c1.3,3.6,2.7,6.6,4.2,9.1c0.9,1.5,2,2.9,3.1,4c1.2,1.3,2.5,2.4,3.9,3.2
				c-0.6-1.3-1.1-2.6-1.6-4c-1.2-3.2-2.4-6.5-5.2-9l0,0l0,0c-0.4-2-0.7-4.1-1.1-6.1c-1.9-10.7-3.9-21.7-4.8-33l-0.6-1.6l-1.8,0.3
				l0,0c-0.5-0.5-0.9-0.7-1.3-0.7c-0.6,0-1,0.7-1.4,1.5C286.9,247.3,286.6,247.9,286.2,248.2z"/>
		</g>
		<path id="path223" fill="#94693C" d="M281.6,249c0.4,4.4,1.5,8.5,2.6,12.6c0.4-1.9-0.7-3.5-0.8-5.5c-0.3-2.2-0.5-4.5-1.1-6.6
			c0.5-0.4,1.1-0.5,1.7-0.4c0.8,5.3,1.9,10.6,3.2,15.8c-0.5-1.1-1.9-0.3-2.7-0.8c-5.7-2.9-2.8-10.2-4.9-15l0.2-0.8L281.6,249"/>
		<g id="g342">
			<path id="path225_1_" fill="#94693C" d="M317.6,311.3l-1.2-7.2c-3.6-4-5.3-8.9-6.8-13.7c-0.5,4.2,0.8,8.3,1.4,12.1h-0.2
				c-2.4-5.4-2.7-11.6-3.4-17.7c-1-1.7-2-3.9-4.1-4.8c-1.3-13.5-3.7-26.6-4.9-40.1h-3.2l-1.3,4.2c1.6,13.7,3.2,27.4,6.2,40.6
				c6,7.6,4.9,18.4,13.7,24.6L317.6,311.3L317.6,311.3z"/>
			<path id="path345" d="M317.6,311.3L317.6,311.3l-3.8-1.9c-2.3-1.6-4.1-3.7-5.5-6.4c-1.3-2.4-2.2-5-3.1-7.6
				c-1.3-3.7-2.5-7.5-5.1-10.7l0,0c-2.9-12.8-4.5-25.9-6.2-40.6l0,0l1.3-4.3h3.2l0,0c0.6,6.9,1.6,13.9,2.5,20.6
				c0.9,6.4,1.8,13,2.4,19.6c1.7,0.8,2.7,2.5,3.6,4.1c0.2,0.3,0.3,0.5,0.4,0.8l0,0c0.1,0.8,0.2,1.6,0.2,2.3c0.5,5.2,1,10.6,3.1,15.3
				h0.2c-0.2-1.1-0.4-2.1-0.6-3.2c-0.6-2.9-1.2-5.8-0.8-8.9l0,0c0.7,2.2,1.6,4.8,2.7,7.1c1.2,2.6,2.6,4.7,4.2,6.5l0,0l0,0
				L317.6,311.3z M300.1,284.8c2.5,3.2,3.8,7,5.1,10.7c0.9,2.5,1.8,5.2,3.1,7.6c1.5,2.7,3.3,4.8,5.5,6.4l3.7,1.9l-1.2-7.2
				c-1.6-1.8-3-3.9-4.2-6.5c-1.1-2.4-1.9-4.9-2.6-7.1c-0.3,3,0.2,6,0.8,8.8c0.2,1.1,0.4,2.2,0.6,3.3l0,0h-0.2l0,0
				c-2.1-4.7-2.6-10.1-3.1-15.3c-0.1-0.8-0.2-1.6-0.2-2.3c-0.1-0.2-0.3-0.5-0.4-0.8c-0.9-1.5-1.9-3.3-3.6-4l0,0l0,0
				c-0.6-6.6-1.5-13.2-2.4-19.6c-0.9-6.7-1.9-13.6-2.5-20.5h-3.2l-1.3,4.2C295.6,258.9,297.3,272,300.1,284.8z"/>
		</g>
		<path id="path227" fill="#94693C" d="M275.7,264.2c0.2,0.3,0.4,0.5,0.7,0.7c0.7,0.4,1.7,0.4,2.6,0.5c1-0.2,1.9-1.3,2.1-2.1
			c-2.4-4.1-1.8-10.6-2.6-15.4c-0.2,0.1-0.5-0.5-0.7-0.2c-0.4,1-1,2.4-1,3c0.6,3.4,1.7,7.1,1,10.7c-1-3.1-0.1-6.9-1.4-9.8
			c-0.9,1.9-1.3,2.8-2.2,4.4l1.3,7.5C275.6,263.8,275.6,264,275.7,264.2 M273.2,257.7l1.1,5.3c0,0-0.7-1.2-1.9-1.4
			c-1.2-0.2-1.9-0.1-1.9-0.1L273.2,257.7"/>
		<g id="g348">
			<path id="path229_1_" fill="#94693C" d="M272.3,308.2c-1.8,0.8-3.8,1.3-5.8,2l-0.4-8.8l-0.5-0.5l-1-11.4V289l-0.5-0.6
				c1.3-7.8-3.9-15.9,0.9-22.7c1.8-1.2,3.9-2.2,6.2-1.5c1.3,0.4,2.4,1.5,3.5,2.4c-0.1-0.6-0.6-1.5-1.2-2.1c-1.2-1.6-3.2-1.6-4.9-2
				c1.3-0.5,2.5-0.5,3.8,0c1.8,0.8,3.1,2.5,4.1,4c1.4,4.6,1.6,9.6,2.7,14.3c1.6,9.2,4,18,5.8,27.2c-1.5-0.2-2.8,0.3-4.3,0.1
				L272.3,308.2L272.3,308.2z"/>
			<path id="path351" d="M266.6,310.2L266.6,310.2l-0.4-8.8l-0.5-0.5l0,0l-1-11.4V289l-0.5-0.6l0,0c0.5-3.1,0-6.2-0.5-9.2
				c-0.4-2.4-0.8-4.7-0.7-6.9c0-1.2,0.2-2.3,0.5-3.3c0.4-1.1,0.9-2.2,1.6-3.2l0,0c1.7-1.2,3.2-1.7,4.7-1.7c0.5,0,1,0.1,1.5,0.2
				c1.1,0.4,2,1.1,2.9,1.9c0.2,0.2,0.4,0.3,0.6,0.5c-0.1-0.5-0.5-1.3-1.2-2c-1-1.3-2.6-1.6-4-1.8c-0.3,0-0.6-0.1-0.8-0.1l0,0l0,0
				c0.6-0.3,1.3-0.4,1.9-0.4s1.3,0.1,1.9,0.4c1.7,0.7,3.1,2.5,4.1,4.1l0,0c0.8,2.6,1.2,5.3,1.6,8c0.3,2.1,0.6,4.3,1.1,6.3
				c0.9,5,2,10,3.1,14.8c0.9,4.1,1.9,8.3,2.7,12.5l0,0l0,0c-0.2,0-0.5,0-0.7,0c-0.5,0-1,0.1-1.4,0.1c-0.5,0.1-0.9,0.1-1.4,0.1
				c-0.3,0-0.5,0-0.7,0l-8.5-0.1c-1.4,0.6-2.8,1-4.2,1.5C267.6,309.9,267.1,310,266.6,310.2L266.6,310.2z M265.7,300.9l0.5,0.5l0,0
				l0.4,8.8c0.5-0.2,1-0.3,1.5-0.5c1.5-0.4,2.9-0.9,4.2-1.5l0,0l8.5,0.1c0.2,0,0.5,0,0.7,0c0.5,0,1-0.1,1.4-0.1
				c0.5-0.1,0.9-0.1,1.4-0.1c0.2,0,0.5,0,0.7,0c-0.8-4.2-1.8-8.4-2.7-12.4c-1.1-4.8-2.2-9.8-3.1-14.8c-0.5-2.1-0.8-4.2-1.1-6.3
				c-0.4-2.6-0.8-5.4-1.6-8c-1.1-1.6-2.4-3.3-4.1-4c-0.6-0.3-1.3-0.4-1.9-0.4c-0.6,0-1.2,0.1-1.8,0.4c0.2,0,0.5,0.1,0.8,0.1
				c1.4,0.2,3,0.5,4.1,1.8c0.7,0.8,1.2,1.5,1.2,2.1l0,0l0,0c-0.2-0.2-0.4-0.3-0.6-0.5c-0.9-0.8-1.8-1.5-2.9-1.9
				c-0.5-0.1-1-0.2-1.5-0.2c-1.5,0-2.9,0.5-4.7,1.7c-1.3,1.9-2,3.9-2.1,6.5c-0.1,2.2,0.3,4.5,0.7,6.9c0.5,3,1,6.2,0.5,9.2l0.5,0.6
				v0.5L265.7,300.9z"/>
		</g>
		<g id="g353">
			<path id="path231_1_" d="M280.8,308.3c-8.8-5.9-7-16.5-10-24.9c-0.4-2.3-0.9-4.6-1.5-6.8c0.4,7.3,2.7,14.1,3.9,21.1
				c1.1,1.8,1,4.2,1.4,6.2c-0.6,1.5-1,3-2.3,4.3L280.8,308.3L280.8,308.3z M237.3,308.5l-2.6-6.5c0.4-2.9,0.9-6,0.8-8.9
				c-1.2,5.5-3,12.1-8.7,15.9L237.3,308.5L237.3,308.5z"/>
			<path id="path356" d="M226.7,309L226.7,309c2.6-1.8,4.6-4.2,6.1-7.4c1.3-2.9,2.1-5.9,2.7-8.6l0,0c0.2,2.8-0.3,5.6-0.7,8.3
				c0,0.2-0.1,0.4-0.1,0.6l2.6,6.5l0,0L226.7,309z M235.4,293.1c-0.6,2.6-1.3,5.6-2.6,8.5c-1.5,3.2-3.5,5.6-6,7.3l10.4-0.5l-2.6-6.5
				l0,0c0-0.2,0.1-0.4,0.1-0.6C235.2,298.7,235.6,295.9,235.4,293.1z M280.9,308.3L280.9,308.3l-8.6-0.1l0,0
				c1.1-1.1,1.6-2.4,2.1-3.7c0.1-0.2,0.1-0.4,0.2-0.5c-0.1-0.7-0.2-1.4-0.3-2.1c-0.2-1.4-0.3-2.9-1.1-4.1l0,0
				c-0.4-2.4-1-4.9-1.6-7.2c-1-4.5-2.1-9.1-2.4-13.9l0,0c0.6,2.1,1,4.3,1.4,6.5l0.1,0.4c0.9,2.6,1.4,5.5,1.9,8.3
				c0.5,3.1,1,6.3,2.2,9.2c0.6,1.5,1.4,2.9,2.3,4.1C278.2,306.2,279.4,307.3,280.9,308.3L280.9,308.3z M272.4,308.2l8.4,0.1
				c-1.4-1-2.6-2.1-3.7-3.4c-0.9-1.2-1.7-2.5-2.3-4.1c-1.1-2.9-1.7-6.1-2.2-9.2c-0.5-2.8-0.9-5.7-1.9-8.3l-0.1-0.4
				c-0.4-2.1-0.8-4.3-1.4-6.3c0.3,4.7,1.3,9.3,2.4,13.8c0.5,2.4,1.1,4.8,1.6,7.2c0.8,1.2,0.9,2.7,1.1,4.1c0.1,0.7,0.2,1.4,0.3,2.1
				l0,0l0,0c-0.1,0.2-0.1,0.4-0.2,0.6C273.9,305.8,273.5,307.1,272.4,308.2z"/>
		</g>
		<path id="path358" d="M243.8,271.4v0.1c-1.5-0.4-3.5-0.8-4.9-2.1c-1.8,1-4.2,1.1-6.4,1v-0.3c2.2-0.8,4.4-1.5,6.4-2.8
			C240.3,269,242.5,270.3,243.8,271.4 M238.2,277.5l0.9,0.1c1.7,3.3,3.7,6.4,4.9,9.9c-3.5-2.2-3.8-6.6-5.8-9.7l-2.6,14.9
			c0.6-7.7,2.3-14.9,3.2-22.5C239.1,272.8,238.4,275,238.2,277.5"/>
		<g id="g360">
			<path id="path235_1_" d="M272.2,271.2c3,6.8,4.9,14.4,7.8,20.8c-3.4-6.6-6.1-13.8-8.2-20.8H272.2z"/>
			<path id="path363" d="M280.1,292.1L280.1,292.1L280.1,292.1c-3.3-6.4-6-13.4-8.2-20.8l0,0h0.3l0,0c1.4,3.3,2.7,6.9,3.9,10.3
				C277.4,285.2,278.6,288.8,280.1,292.1L280.1,292.1L280.1,292.1L280.1,292.1z M271.9,271.3c2.1,7.3,4.8,14.1,7.9,20.3
				c-1.4-3.2-2.6-6.5-3.8-10.1c-1.2-3.4-2.4-6.9-3.8-10.3L271.9,271.3L271.9,271.3L271.9,271.3z"/>
		</g>
		<path id="path237" d="M237.4,274c-2.7,7.2-3.2,15.4-9,21.4l-0.3-0.3l6.1-12.7l3.2-10.1L237.4,274 M238,290.1c1.5,4.4,3.4,8.7,5,13
			c-3.1-3.6-5.2-8.2-5.3-13H238 M269.7,293.9c-0.7,1.8-1.2,3.6-2.7,5l3-8.2C270.6,291.4,270.3,293,269.7,293.9"/>
		<path id="path239" fill="#FFFFFF" d="M279.8,233.5c0,0,0.6,15.7-8.9,27.4c-10.4,12.8-17.1,15.1-17.1,15.1s-6.7-2.4-17.1-15.1
			c-9.5-11.6-8.9-27.4-8.9-27.4H279.8L279.8,233.5L279.8,233.5z"/>
		<path id="path241" fill="#B11E39" d="M251.8,275v-41.5h-4.4v38.4C247.4,271.9,249.3,273.4,251.8,275z M234.8,258.4v-24.9h-4.1
			v16.7C230.7,250.2,232.7,255.5,234.8,258.4z M243,267.9v-34.5h-4.1v30.1C238.9,263.5,240.7,265.6,243,267.9z M255.8,275v-41.5h4.4
			v38.4C260.2,271.9,258.3,273.4,255.8,275L255.8,275z M272.8,258.4v-24.9h4.1v16.7C276.9,250.2,274.9,255.5,272.8,258.4z
			 M264.6,267.9v-34.5h4.1v30.1C268.7,263.5,266.9,265.6,264.6,267.9z"/>
		<path id="path243" fill="#76BAE4" d="M278.6,219.4c0,0,1.6,7.1,1.2,14.1c0,0-52.1,0-52.1,0c0-7.1,1.2-14.1,1.2-14.1H278.6
			L278.6,219.4z"/>
		<g id="g369">
			<polygon id="polygon245_1_" points="141.6,285.4 141.6,285.4 145.3,290.8 144.2,294 			"/>
			<path id="path372" d="M144.2,294L144.2,294C144.2,294,144.2,294,144.2,294l-2.7-8.6c0,0,0,0,0,0c0,0,0,0,0,0l3.8,5.3c0,0,0,0,0,0
				L144.2,294C144.2,294,144.2,294,144.2,294z M141.6,285.5l2.6,8.4l1.1-3.2L141.6,285.5z"/>
		</g>
		<g id="g374">
			<polygon id="polygon247_1_" fill="#FFFFFF" points="141.6,285.4 141.6,285.4 141.5,292 144.2,294 			"/>
			<path id="path377" d="M144.2,294C144.2,294,144.2,294,144.2,294l-2.7-2c0,0,0,0,0,0l0.1-6.5c0,0,0,0,0,0c0,0,0,0,0,0c0,0,0,0,0,0
				L144.2,294C144.3,294,144.2,294,144.2,294C144.2,294,144.2,294,144.2,294z M141.5,291.9l2.7,2l-2.6-8.4L141.5,291.9z"/>
		</g>
		<g id="g379">
			<polygon id="polygon249_1_" points="135.3,293.9 135.3,293.9 141.5,292 144.2,294 			"/>
			<path id="path382" d="M144.2,294L144.2,294l-9-0.1c0,0,0,0,0,0c0,0,0,0,0,0l6.2-1.9c0,0,0,0,0,0L144.2,294
				C144.3,294,144.3,294,144.2,294C144.2,294,144.2,294,144.2,294z M135.4,293.9l8.8,0.1l-2.7-2L135.4,293.9z"/>
		</g>
		<g id="g384">
			<polygon id="polygon251_1_" fill="#FFFFFF" points="135.3,293.9 135.3,293.9 141.4,296 144.2,294 			"/>
			<path id="path387" d="M141.4,296C141.4,296,141.4,296,141.4,296l-6.2-2.1c0,0,0,0,0,0c0,0,0,0,0,0l0,0l9,0.1c0,0,0,0,0,0
				c0,0,0,0,0,0L141.4,296C141.5,296,141.5,296,141.4,296z M135.4,293.9l6.1,2.1l2.7-1.9L135.4,293.9z"/>
		</g>
		<g id="g389">
			<polygon id="polygon253_1_" points="141.4,302.5 141.4,302.5 141.4,296 144.2,294 			"/>
			<path id="path392" d="M141.4,302.5C141.4,302.5,141.4,302.5,141.4,302.5C141.4,302.5,141.3,302.5,141.4,302.5l0.1-6.5
				c0,0,0,0,0,0l2.8-2c0,0,0,0,0,0c0,0,0,0,0,0L141.4,302.5C141.4,302.5,141.4,302.5,141.4,302.5z M141.5,296l-0.1,6.4l2.8-8.4
				L141.5,296z"/>
		</g>
		<g id="g394">
			<polygon id="polygon255_1_" fill="#FFFFFF" points="141.4,302.5 141.4,302.5 145.3,297.3 144.2,294 			"/>
			<path id="path397" d="M141.4,302.5C141.4,302.5,141.4,302.5,141.4,302.5C141.3,302.5,141.3,302.5,141.4,302.5l2.9-8.5
				c0,0,0,0,0,0l0,0c0,0,0,0,0,0l1,3.3c0,0,0,0,0,0L141.4,302.5C141.4,302.5,141.4,302.5,141.4,302.5z M144.2,294l-2.8,8.4l3.8-5.1
				L144.2,294z"/>
		</g>
		<g id="g399">
			<polygon id="polygon257_1_" points="151.4,299.4 151.4,299.4 145.3,297.3 144.2,294 			"/>
			<path id="path402" d="M151.4,299.4C151.4,299.4,151.4,299.4,151.4,299.4l-6.2-2.1c0,0,0,0,0,0l-1-3.3c0,0,0,0,0,0c0,0,0,0,0,0
				L151.4,299.4C151.4,299.3,151.4,299.4,151.4,299.4C151.4,299.4,151.4,299.4,151.4,299.4z M145.3,297.3l6.1,2.1l-7.1-5.3
				L145.3,297.3z"/>
		</g>
		<g id="g404">
			<polygon id="polygon259_1_" fill="#FFFFFF" points="151.4,299.4 151.4,299.4 147.7,294 144.2,294 			"/>
			<path id="path407" d="M151.4,299.4C151.4,299.4,151.4,299.4,151.4,299.4l-7.2-5.4c0,0,0,0,0,0s0,0,0,0l0,0l3.4,0c0,0,0,0,0,0
				L151.4,299.4C151.4,299.4,151.4,299.4,151.4,299.4C151.4,299.4,151.4,299.4,151.4,299.4z M144.3,294l7.1,5.3l-3.7-5.2L144.3,294z
				"/>
		</g>
		<g id="g409">
			<polygon id="polygon261_1_" points="151.6,288.8 151.6,288.8 147.7,294 144.2,294 			"/>
			<path id="path412" d="M147.7,294.1L147.7,294.1l-3.4,0c0,0,0,0,0,0c0,0,0,0,0,0l7.3-5.2c0,0,0,0,0,0c0,0,0,0,0,0L147.7,294.1
				C147.7,294.1,147.7,294.1,147.7,294.1z M144.3,294l3.4,0l3.8-5.1L144.3,294z"/>
		</g>
		<g id="g414">
			<polygon id="polygon263_1_" fill="#FFFFFF" points="151.6,288.8 151.6,288.8 145.3,290.8 144.2,294 			"/>
			<path id="path417" d="M144.2,294C144.2,294,144.2,294,144.2,294C144.2,294,144.2,294,144.2,294l1.1-3.3c0,0,0,0,0,0l6.2-1.9
				c0,0,0,0,0,0c0,0,0,0,0,0L144.2,294C144.2,294,144.2,294,144.2,294z M145.3,290.8l-1.1,3.2l7.2-5.1L145.3,290.8z"/>
		</g>
		<g id="g419">
			<polygon id="polygon265_1_" points="372.2,282.2 372.2,282.2 372.5,288.7 369.9,290.9 			"/>
			<path id="path422" d="M369.9,290.9C369.9,290.9,369.9,290.9,369.9,290.9C369.9,290.9,369.9,290.9,369.9,290.9l2.3-8.7
				c0,0,0,0,0,0c0,0,0,0,0,0c0,0,0,0,0,0l0.3,6.5c0,0,0,0,0,0L369.9,290.9C369.9,290.9,369.9,290.9,369.9,290.9z M372.2,282.3
				l-2.3,8.5l2.6-2.1L372.2,282.3z"/>
		</g>
		<g id="g424">
			<polygon id="polygon267_1_" fill="#FFFFFF" points="372.2,282.2 372.2,282.2 368.7,287.7 369.9,290.9 			"/>
			<path id="path427" d="M369.9,290.9C369.9,290.9,369.9,290.9,369.9,290.9l-1.2-3.2c0,0,0,0,0,0l3.6-5.4c0,0,0,0,0,0c0,0,0,0,0,0
				L369.9,290.9C369.9,290.9,369.9,290.9,369.9,290.9z M368.7,287.7l1.2,3.1l2.3-8.5L368.7,287.7z"/>
		</g>
		<g id="g429">
			<polygon id="polygon269_1_" points="362.4,285.9 362.4,285.9 368.7,287.7 369.9,290.9 			"/>
			<path id="path432" d="M369.9,290.9C369.9,290.9,369.9,290.9,369.9,290.9l-7.5-4.9c0,0,0,0,0,0c0,0,0,0,0,0l6.3,1.7c0,0,0,0,0,0
				L369.9,290.9C369.9,290.9,369.9,290.9,369.9,290.9C369.9,290.9,369.9,290.9,369.9,290.9z M362.5,286l7.4,4.8l-1.2-3.1L362.5,286z
				"/>
		</g>
		<g id="g434">
			<polygon id="polygon271_1_" fill="#FFFFFF" points="362.4,285.9 362.4,285.9 366.5,291 369.9,290.9 			"/>
			<path id="path437" d="M366.5,291C366.5,291,366.4,291,366.5,291l-4.1-5.1c0,0,0,0,0,0c0,0,0,0,0,0l7.5,4.9c0,0,0,0,0,0
				c0,0,0,0,0,0L366.5,291C366.5,291,366.5,291,366.5,291z M362.5,286l4,5l3.4-0.2L362.5,286z"/>
		</g>
		<g id="g439">
			<polygon id="polygon273_1_" points="362.9,296.5 362.9,296.5 366.5,291 369.9,290.9 			"/>
			<path id="path442" d="M362.9,296.5C362.9,296.5,362.9,296.5,362.9,296.5C362.9,296.5,362.9,296.5,362.9,296.5l3.6-5.5
				c0,0,0,0,0,0l3.4-0.2c0,0,0,0,0,0s0,0,0,0L362.9,296.5C362.9,296.5,362.9,296.5,362.9,296.5z M366.5,291l-3.5,5.4l6.9-5.5
				L366.5,291z"/>
		</g>
		<g id="g444">
			<polygon id="polygon275_1_" fill="#FFFFFF" points="362.9,296.5 362.9,296.5 369,294.2 369.9,290.9 			"/>
			<path id="path447" d="M362.9,296.5C362.9,296.5,362.9,296.5,362.9,296.5C362.9,296.5,362.9,296.5,362.9,296.5l7-5.6c0,0,0,0,0,0
				c0,0,0,0,0,0l-0.9,3.3c0,0,0,0,0,0L362.9,296.5C362.9,296.5,362.9,296.5,362.9,296.5z M369.8,290.9l-6.9,5.5l6-2.3L369.8,290.9z"
				/>
		</g>
		<g id="g449">
			<polygon id="polygon277_1_" points="373,299.2 373,299.2 369,294.2 369.9,290.9 			"/>
			<path id="path452" d="M373,299.2C373,299.2,373,299.2,373,299.2l-4.1-5.1c0,0,0,0,0,0l0.9-3.3c0,0,0,0,0,0c0,0,0,0,0,0L373,299.2
				C373.1,299.2,373.1,299.2,373,299.2C373,299.2,373,299.2,373,299.2z M369,294.2l4,5l-3.1-8.2L369,294.2z"/>
		</g>
		<g id="g454">
			<polygon id="polygon279_1_" fill="#FFFFFF" points="373,299.2 373,299.2 372.7,292.7 369.9,290.9 			"/>
			<path id="path457" d="M373,299.2C373,299.2,373,299.2,373,299.2l-3.2-8.4c0,0,0,0,0,0c0,0,0,0,0,0l2.9,1.9c0,0,0,0,0,0L373,299.2
				C373.1,299.2,373.1,299.2,373,299.2C373,299.2,373,299.2,373,299.2z M369.9,290.9l3.1,8.2l-0.3-6.4L369.9,290.9z"/>
		</g>
		<g id="g459">
			<polygon id="polygon281_1_" points="378.8,290.4 378.8,290.4 372.7,292.7 369.9,290.9 			"/>
			<path id="path462" d="M372.7,292.7C372.7,292.7,372.7,292.7,372.7,292.7l-2.9-1.9c0,0,0,0,0,0c0,0,0,0,0,0l8.9-0.4c0,0,0,0,0,0
				c0,0,0,0,0,0L372.7,292.7C372.7,292.7,372.7,292.7,372.7,292.7z M369.9,290.9l2.8,1.8l6-2.3L369.9,290.9z"/>
		</g>
		<g id="g464">
			<polygon id="polygon283_1_" fill="#FFFFFF" points="378.8,290.4 378.8,290.4 372.5,288.7 369.9,290.9 			"/>
			<path id="path467" d="M369.9,290.9C369.9,290.9,369.9,290.9,369.9,290.9C369.9,290.9,369.9,290.8,369.9,290.9l2.7-2.2
				c0,0,0,0,0,0l6.3,1.7c0,0,0,0,0,0c0,0,0,0,0,0L369.9,290.9C369.9,290.9,369.9,290.9,369.9,290.9z M372.5,288.7l-2.6,2.1l8.8-0.4
				L372.5,288.7z"/>
		</g>
		<g id="g469">
			<path id="path285_1_" d="M264.6,289.5L264.6,289.5c2.6-2.4,4.2-5.5,4.4-8.8l-0.1-0.1c-0.9,3-3,5.6-4.2,8.5V289.5z"/>
			<path id="path472" d="M264.6,289.5l0-0.5c0.5-1.3,1.2-2.5,1.9-3.7c0.9-1.5,1.8-3.1,2.3-4.8l0,0l0.1,0.1v0
				C268.9,283.9,267.3,287,264.6,289.5L264.6,289.5L264.6,289.5L264.6,289.5z M264.6,289v0.4c2.7-2.5,4.2-5.6,4.3-8.8l-0.1-0.1
				c-0.5,1.7-1.4,3.3-2.3,4.8C265.9,286.6,265.2,287.8,264.6,289z"/>
		</g>
		<path id="path474" d="M269,275.2h-0.1l-0.2-2.4l0.2-0.1l0.1,2V275.2 M273.7,269.5c-1.8,0.4-3.5-0.1-5.1-0.8c-1.5,0.9-3,1.8-4.8,2
			c1-1.3,3.2-2.2,4.6-3.8C269.9,268.4,271.7,269.2,273.7,269.5"/>
		<g id="g476">
			<path id="path289_1_" fill="#E0AF35" d="M234.1,313.1c0,0,1.3-5.1,5.1-5.1c3.8,0,3.5,0.8,4.3,1.5c0.7,0.6,1.5,1.6,1.2,2.2
				c0,0.1-0.3,0.3-0.3,0.4c-0.1,0.1-1.7,1-2.1,1.1c-1,0.3-3,0.4-4.1,0.5c-1.5,0.1-2.8-0.7-3.2-0.7
				C234.6,313,234.1,313.1,234.1,313.1L234.1,313.1z"/>
			<path id="path479" d="M237.8,313.7c-0.9,0-1.7-0.3-2.2-0.5c-0.3-0.1-0.5-0.2-0.6-0.2h0c-0.4,0-0.9,0.1-0.9,0.1l0,0l0,0
				c0,0,0.3-1.3,1.1-2.6c0.5-0.7,1-1.3,1.6-1.8c0.7-0.5,1.5-0.8,2.4-0.8c3,0,3.4,0.5,3.9,1.1c0.1,0.1,0.2,0.3,0.4,0.4
				c0.8,0.7,1.5,1.7,1.2,2.2c0,0.1-0.3,0.3-0.3,0.4c-0.1,0.1-1.8,1-2.1,1.1c-0.8,0.2-2.2,0.3-3.4,0.4c-0.3,0-0.5,0-0.8,0.1
				C238,313.7,237.9,313.7,237.8,313.7z M235,313L235,313c0.1,0,0.3,0.1,0.6,0.2c0.5,0.2,1.3,0.5,2.2,0.5c0.1,0,0.2,0,0.3,0
				c0.2,0,0.5,0,0.8-0.1c1.1-0.1,2.6-0.2,3.4-0.4c0.3-0.1,2-1,2.1-1.1c0.1-0.1,0.3-0.3,0.3-0.3c0.1-0.3,0-0.6-0.2-1.1
				c-0.2-0.4-0.6-0.8-1-1.1c-0.2-0.1-0.3-0.3-0.4-0.5c-0.4-0.6-0.9-1.1-3.9-1.1c-0.9,0-1.7,0.3-2.4,0.8c-0.6,0.4-1.1,1-1.6,1.8
				c-0.7,1.2-1.1,2.4-1.1,2.5C234.2,313.1,234.6,313,235,313z"/>
		</g>
		<path id="path291" d="M235.6,312.9c0,0-0.7-0.8,0.2-1.7c0.1-0.1,0.6-0.2,0.9-0.7c0.5-1,2.2-1.4,3.1-1.3c1.3,0.1,4.2,2.4,4.2,2.4
			s0.6,1,0,0.6c-0.5-0.4-0.9-0.9-1.7-0.7c-0.8,0.2-2.2,1.2-3.1,0.9c-0.9-0.3-1.8-1.1-2.2-1C236.4,311.5,235.6,312.9,235.6,312.9"/>
		<g id="g482">
			<path id="path293_1_" fill="#E0AF35" d="M244.7,311.6c0.8,0.4,1.5,1.1,2.1,2c0.6,1,0.6,3,0,4.4c-0.4,1-3.2,2.4-3.2,2.4
				s1.4-2.9,1.3-4c-0.1-1-0.8-1.5-1.3-2.1c-0.5-0.5-1.4-1-1.4-1s1.1-1,1.7-1.2C244.5,311.9,244.7,311.6,244.7,311.6z"/>
			<path id="path485" d="M243.5,320.4L243.5,320.4c0-0.1,1.4-2.9,1.3-4.1c-0.1-0.9-0.6-1.4-1.2-1.9c0,0-0.1-0.1-0.1-0.1
				c-0.5-0.5-1.4-1-1.4-1l0,0l0,0c0,0,1.1-1,1.7-1.2c0.6-0.2,0.8-0.5,0.8-0.5l0,0l0,0c0.8,0.4,1.5,1.1,2.1,2c0.3,0.5,0.5,1.2,0.4,2
				c0,0.8-0.2,1.7-0.5,2.4C246.3,319.1,243.6,320.4,243.5,320.4L243.5,320.4z M242.2,313.3c0.1,0.1,0.9,0.6,1.4,1
				c0,0,0.1,0.1,0.1,0.1c0.5,0.5,1.1,1,1.2,2c0.1,1.1-1.1,3.7-1.3,4c0.3-0.2,2.7-1.4,3.2-2.3c0.3-0.7,0.5-1.5,0.5-2.4
				c0-0.9-0.1-1.6-0.4-2c-0.6-0.9-1.3-1.6-2.1-2c0,0.1-0.3,0.3-0.8,0.5C243.3,312.3,242.3,313.2,242.2,313.3z"/>
		</g>
		<path id="path295" d="M243.6,312.3l0.5-0.2c0,0,1.5,1.2,1.9,2.5c0.2,0.5,0.5,1.5-0.2,3c-0.4,0.9-1.1,1.6-1.1,1.6s0.6-1.1,1-2.6
			c0.2-0.7,0-1.7-1-2.8C244.4,313.1,243.6,312.3,243.6,312.3"/>
		<g id="g488">
			<path id="path297_1_" fill="#E0AF35" d="M229.2,312.9c0,0-0.4,2-0.3,3.6c0.1,1.7,1.4,3.6,2.7,3.8c1.6,0.3,2.5,0.2,2.5,0.2
				c-0.5-0.5-2.1-1.6-2.2-2.8c-0.1-1.2,0.4-1.6,0.5-2.4c0.1-0.8,0.4-1.2,0.4-1.2s-1.1-0.6-1.7-0.8
				C230.5,313,229.2,312.9,229.2,312.9z"/>
			<path id="path491" d="M233.5,320.6L233.5,320.6c-0.4,0-1.1,0-1.9-0.2c-0.6-0.1-1.3-0.6-1.8-1.3c-0.5-0.7-0.9-1.6-0.9-2.5
				c-0.1-1.6,0.3-3.6,0.3-3.6l0,0l0,0c0,0,1.4,0.1,2,0.4c0.6,0.2,1.7,0.8,1.7,0.8l0,0l0,0c0,0-0.3,0.4-0.4,1.2
				c0,0.3-0.1,0.5-0.2,0.8c-0.2,0.4-0.4,0.9-0.3,1.6c0.1,1,1.2,2,1.9,2.5c0.1,0.1,0.2,0.2,0.3,0.3l0,0l0,0
				C234.1,320.5,233.9,320.6,233.5,320.6z M229.2,312.9c0,0.2-0.4,2.1-0.3,3.6c0.1,1.7,1.4,3.6,2.7,3.8c0.8,0.2,1.5,0.2,1.9,0.2l0,0
				c0.3,0,0.5,0,0.6,0c-0.1-0.1-0.2-0.1-0.3-0.2c-0.7-0.6-1.8-1.6-1.9-2.6c-0.1-0.8,0.1-1.2,0.3-1.6c0.1-0.2,0.2-0.5,0.2-0.8
				c0.1-0.7,0.4-1.1,0.4-1.2c-0.1-0.1-1.1-0.6-1.7-0.8C230.5,313.1,229.3,313,229.2,312.9z"/>
		</g>
		<path id="path299" d="M230.8,313.2c0,0-0.6,1.2-0.6,2.2c0,1.7,0.1,2.3,0.5,3c0.3,0.6,1.9,1.5,1.9,1.5s-1.2-0.9-1.4-2.3
			c-0.2-1.4,0.1-3.2,0.4-4L230.8,313.2"/>
		<g id="g494">
			<path id="path301_1_" fill="#E0AF35" d="M230.7,308.7c0,0-4.2,0.2-5,0c-0.9-0.2-1-0.4-1.7-0.3c-0.7,0-4,0.8-4.7,2.1
				c-0.7,1.3-1.2,2.1-1.1,2.4c0,0.2,1.3,0.4,1.8,0.6c0.4,0.2,2.1,0.4,2.4,0.5c2.1,0.5,4.6-0.2,3.7,0c1.1-0.2,2.5-0.7,2.8-0.9
				c0.3-0.3,0.7-0.7,0.9-1.1C229.8,311.3,230.7,308.7,230.7,308.7L230.7,308.7z M236.7,308.9c0,0-1.7-3.9-3-5.3c0,0-1.9,2.5-2.4,3.6
				c-0.6,1.1-2.2,3.8-2.2,4.2c0,0.4-0.3,1.2-0.2,1.3c0.1,0.2,0.3,0.2,1.3,0.4c0.9,0.2,1.4,0.4,1.8,0.7c0.4,0.3,1.3,0.4,1.5,0.4
				c0.3,0,0.6-1,0.6-1s0.6-1.8,1.1-2.4C235.6,310,236.7,308.9,236.7,308.9z"/>
			<path id="path497" d="M233.3,314.2c-0.4,0-1.1-0.1-1.4-0.4c-0.4-0.3-0.9-0.6-1.8-0.7c-0.8-0.1-1.1-0.2-1.2-0.3
				c0,0-0.1,0.1-0.1,0.1c-0.3,0.3-1.5,0.7-2.6,0.9c0,0,0,0,0,0c0,0.1-1.1,0.2-2.1,0.2c-0.6,0-1.2-0.1-1.7-0.2
				c-0.1,0-0.4-0.1-0.7-0.1c-0.6-0.1-1.4-0.2-1.7-0.3c-0.1-0.1-0.4-0.1-0.7-0.2c-0.5-0.1-1.1-0.2-1.1-0.4c0-0.2,0.2-0.7,0.7-1.6
				c0.1-0.2,0.3-0.5,0.4-0.8c0.7-1.4,4.1-2.1,4.7-2.1c0.1,0,0.1,0,0.2,0c0.3,0,0.5,0.1,0.8,0.1c0.2,0,0.4,0.1,0.7,0.2
				c0.3,0.1,1,0.1,2,0.1c1,0,2.1,0,2.6,0l0.2-0.3c0.3-0.5,0.5-1,0.7-1.3c0.5-1.1,2.4-3.5,2.4-3.6l0,0l0,0c1.3,1.4,3,5.3,3,5.3l0,0
				l0,0c0,0-1.1,1.2-1.5,1.8c-0.4,0.6-1.1,2.4-1.1,2.4c0,0-0.4,1-0.6,1C233.4,314.2,233.4,314.2,233.3,314.2z M228.9,312.7
				c0.1,0.1,0.4,0.2,1.2,0.3c0.9,0.2,1.4,0.4,1.8,0.7c0.3,0.3,1,0.4,1.4,0.4c0.1,0,0.1,0,0.2,0c0.3,0,0.6-1,0.6-1
				c0,0,0.6-1.8,1.1-2.5c0.4-0.6,1.4-1.7,1.5-1.8c-0.1-0.2-1.8-3.9-3-5.3c-0.2,0.2-1.9,2.5-2.4,3.5c-0.2,0.3-0.4,0.8-0.7,1.3
				l-0.2,0.3c0.2,0,0.3,0,0.3,0l0,0l0,0c0,0-0.9,2.6-1,3C229.5,312.1,229.2,312.5,228.9,312.7z M224.2,308.3c-0.1,0-0.1,0-0.2,0
				c-0.6,0-3.9,0.7-4.7,2.1c-0.2,0.3-0.3,0.6-0.4,0.8c-0.5,0.8-0.7,1.4-0.7,1.5c0,0.1,0.6,0.3,1.1,0.4c0.3,0.1,0.5,0.1,0.7,0.2
				c0.3,0.1,1.1,0.2,1.7,0.3c0.3,0.1,0.6,0.1,0.7,0.1c0.5,0.1,1.1,0.2,1.7,0.2c1,0,1.8-0.1,2.1-0.2c0,0-0.1,0-0.1,0l0,0h0
				c1.2-0.2,2.5-0.7,2.8-0.9c0,0,0.1-0.1,0.1-0.1v0c0,0,0,0,0,0c-0.1-0.1,0-0.3,0.1-0.6c0.1-0.3,0.1-0.5,0.1-0.7
				c0-0.3,0.6-1.5,1.3-2.6l0,0c-0.6,0-1.6,0-2.6,0c-1.1,0-1.8,0-2-0.1c-0.3-0.1-0.5-0.1-0.7-0.2
				C224.7,308.4,224.5,308.3,224.2,308.3z M230.4,308.7c-0.6,1.1-1.3,2.4-1.3,2.6c0,0.2-0.1,0.5-0.1,0.7c-0.1,0.3-0.1,0.5-0.1,0.6
				c0,0,0,0,0,0c0.3-0.3,0.6-0.6,0.7-1c0.1-0.4,0.9-2.8,1-3C230.6,308.7,230.5,308.7,230.4,308.7z"/>
		</g>
		<path id="path499" d="M234.9,311.1c0,0-0.7-0.8-1.2-1c-0.6-0.2-1.5-0.3-1.5-0.3s-0.8,0.3-0.8,0.6c0,0.3,0,0.7,0.1,0.8
			c0.2,0.1,0.5,0.4,1.3,0.6c0.8,0.2,1.7,0.5,1.7,0.5L234.9,311.1"/>
		<g id="g501">
			<path id="path305_1_" fill="#E0AF35" d="M218.5,313c0,0-0.4,2,0.2,4.2c0.4,1.4,1.4,2.7,2.4,3.1c1,0.4,4,0.1,4,0.1s-1.9-0.3-3-2.3
				c-0.5-1-0.4-2.4-0.4-3c0.1-0.7,0.4-1.3,0.4-1.3s-1.6-0.3-1.9-0.4C219.7,313.4,218.5,313,218.5,313z"/>
			<path id="path504" d="M222.8,320.6L222.8,320.6c-0.8,0-1.4-0.1-1.7-0.2c-1.1-0.4-2-1.7-2.4-3.1c-0.6-2.2-0.2-4.2-0.2-4.2l0,0l0,0
				c0,0,1.2,0.4,1.6,0.4c0.3,0.1,1.9,0.4,1.9,0.4l0,0l0,0c0,0-0.3,0.6-0.4,1.3c-0.1,0.7-0.2,2.1,0.4,3c1.1,1.9,3,2.2,3,2.2l0,0
				C225,320.5,223.9,320.6,222.8,320.6z M218.5,313c0,0.2-0.4,2.1,0.2,4.2c0.4,1.4,1.4,2.7,2.4,3.1c0.3,0.1,0.9,0.2,1.7,0.2
				c0.9,0,1.9-0.1,2.1-0.1c-0.4-0.1-2-0.5-2.9-2.2c-0.5-0.9-0.4-2.3-0.4-3.1c0.1-0.6,0.3-1.2,0.3-1.3c-0.2,0-1.6-0.3-1.9-0.4
				C219.7,313.4,218.6,313.1,218.5,313z"/>
		</g>
		<path id="path307" d="M219.7,313.4c0,0-0.1,1.6,0,2.5c0.1,0.9,0.8,1.8,0.8,1.8s-0.3-1.2-0.3-1.9c0-0.7,0.1-2.4,0.1-2.4
			L219.7,313.4 M229.3,310.6c0,0-2.3-0.1-3.4,0c-1.1,0.1-1.7,0.4-2,0.5c-0.2,0.2-1.8,0.4-1.8,0.4l-2,1.9l1.3,0.2
			c1.4-0.2,0.5-1.1,3-1.2c1.3-0.1,4.1-0.9,4.7-1.3L229.3,310.6"/>
		<g id="g507">
			<path id="path309_1_" fill="#E0AF35" d="M274.6,308c0,0-0.8,0-2.3,0.2c-1.5,0.2-4.2,0.1-4.9,0.8c-0.7,0.7-2.8,1.7-3.5,3.1
				c-0.7,1.5-0.8,2.3-0.6,2.5c0.3,0.2,0.4,0.2,1.2,0.3c0.8,0.1,1.7,0.5,2.8,0.6c1.9,0.3,2.8-0.8,3.5-1.1c0.9-0.5,2.9-1,3.6-1.2
				c0.7-0.1,0.4-1.9,0.4-1.9L274.6,308L274.6,308z M267,315.5c0,0-0.1,1.9,0.5,3c0.6,1.2,1.2,1.2,1.9,1.4c0.8,0.2,1.7,0.2,1.7,0.2
				s-1.2,1.3-2.5,1.1c-1.3-0.2-3.3-1.9-3.8-2.7c-0.9-1.3-0.8-3.7-0.8-3.7s1.4,0.2,1.9,0.3C266.4,315.3,267,315.5,267,315.5z"/>
			<path id="path510" d="M269,321.3c-0.1,0-0.2,0-0.3,0c-1.3-0.2-3.2-1.8-3.8-2.7c-0.9-1.3-0.8-3.7-0.8-3.7l0,0c0,0,0,0,0,0
				c-0.3,0-0.4,0-0.6-0.2c-0.3-0.3-0.1-1.2,0.6-2.5c0.5-1,1.6-1.7,2.5-2.3c0.4-0.3,0.8-0.6,1-0.8c0.5-0.5,2.1-0.6,3.5-0.7
				c0.5,0,1-0.1,1.4-0.1c1.4-0.2,2.3-0.2,2.3-0.2l0,0l0,0l0.2,3.3c0,0.1,0.3,1.8-0.4,1.9c-0.7,0.1-2.7,0.7-3.6,1.2
				c-0.2,0.1-0.3,0.2-0.5,0.3c-0.6,0.4-1.3,0.9-2.3,0.9l0,0c-0.2,0-0.4,0-0.7-0.1c-0.2,0-0.3-0.1-0.5-0.1c0.1,0,0.2,0.1,0.2,0.1l0,0
				l0,0c0,0-0.1,1.9,0.5,3c0.6,1.1,1.1,1.2,1.7,1.4c0.1,0,0.1,0,0.2,0c0.5,0.1,1.2,0.2,1.5,0.2c0.1,0,0.2,0,0.2,0l0,0l0,0
				C271.1,320.2,270.1,321.3,269,321.3z M264,314.9c0,0.2,0,2.4,0.8,3.7c0.6,0.9,2.5,2.5,3.8,2.7c0.1,0,0.2,0,0.3,0
				c1.1,0,2-0.9,2.1-1.1c0,0-0.1,0-0.2,0c-0.3,0-1,0-1.5-0.2c-0.1,0-0.1,0-0.2,0c-0.7-0.2-1.1-0.3-1.7-1.4c-0.6-1.1-0.5-2.9-0.5-3
				c0,0-0.3-0.1-0.5-0.2c-0.3-0.1-0.5-0.1-0.7-0.2c-0.2-0.1-0.4-0.1-0.6-0.1C264.7,315,264.1,314.9,264,314.9z M274.6,308
				c-0.1,0-0.9,0.1-2.2,0.2c-0.4,0-0.9,0.1-1.4,0.1c-1.4,0.1-2.9,0.2-3.5,0.7c-0.2,0.2-0.6,0.5-1.1,0.8c-0.9,0.6-2,1.4-2.5,2.3
				c-0.9,1.9-0.7,2.4-0.6,2.5c0.2,0.2,0.3,0.2,0.6,0.2c0.1,0,0.3,0,0.5,0.1c0.2,0,0.4,0.1,0.7,0.1c0.3,0.1,0.6,0.1,0.7,0.1
				c0.2,0.1,0.4,0.1,0.6,0.2c0.3,0.1,0.6,0.1,0.8,0.2c0.2,0,0.4,0.1,0.6,0.1c1.1,0,1.8-0.5,2.3-0.9c0.2-0.1,0.4-0.3,0.5-0.3
				c0.9-0.5,2.9-1,3.6-1.2c0.6-0.1,0.4-1.9,0.4-1.9L274.6,308z M265.6,315.1c0,0,0.1,0,0.1,0c0.1,0,0.2,0,0.2,0.1c0,0-0.1,0-0.1,0
				C265.8,315.2,265.7,315.2,265.6,315.1z M264.2,314.9c0.1,0,0.3,0,0.5,0.1c-0.1,0-0.1,0-0.2,0
				C264.4,314.9,264.3,314.9,264.2,314.9z"/>
		</g>
		<path id="path311" d="M273.7,309.8c0,0.2-0.8,0.9-0.8,0.9l-2.5,0.8l-1.9,0.8l-1.7,1.2c0,0-0.9,1-1,1.2c-0.1,0.2-0.2,0.6-0.2,0.6
			l1.3,0.4c0,0,0-0.4,0.4-0.7c0.3-0.3,0.7-0.5,0.9-0.7c0.5-0.4,1.4-0.9,1.9-1c0.5-0.1,1.7-0.8,1.9-1c0.2-0.2,0.7,0,1.2-0.3
			C273.7,311.4,273.7,309.8,273.7,309.8 M265.6,315.1c0,0-0.1,1.8,0.1,2.5c0.2,0.7,1,1.3,1,1.3s-0.5-1.4-0.5-2.1
			c0-0.4,0.2-1.6,0.2-1.6L265.6,315.1"/>
		<g id="g513">
			<path id="path313_1_" fill="#E0AF35" d="M279.5,308.2c0.7-0.1,1.3,0,2.9-0.3c1.6-0.3,2.7,0,3.8,0.3c1.7,0.4,3.5,1.7,3.8,2.1
				c0.4,0.5,0.9,2.5,0,2.9c-0.9,0.4-2,1.1-2.8,0.8c-0.8-0.3-3.2-0.4-4.3-0.6c-1.1-0.2-1.9-0.1-1.9-0.1L279.5,308.2z M290.3,313.1
				c0,0,0.4,1,0.4,2.3c0,1.3-0.3,2.3-0.7,3.1c-0.4,1-2.6,1.9-2.6,1.9s0.9-1.3,1.2-2.3c0.3-1,0-2.3-0.2-2.8c-0.1-0.5-0.6-1.2-0.6-1.2
				s0.5-0.1,0.9-0.2C289.1,313.7,290.3,313.1,290.3,313.1L290.3,313.1z"/>
			<path id="path516" d="M287.4,320.5L287.4,320.5c0-0.1,0.9-1.4,1.2-2.4c0.3-0.9,0-2.2-0.1-2.8l0-0.1c-0.1-0.5-0.5-1-0.6-1.2
				c-0.2,0-0.4,0-0.6-0.1c-0.5-0.2-1.5-0.3-2.6-0.4c-0.7-0.1-1.3-0.1-1.7-0.2c-0.6-0.1-1.1-0.1-1.5-0.1c-0.3,0-0.4,0-0.4,0l0,0l0,0
				l-1.6-5.2l0,0c0.2,0,0.5,0,0.7-0.1c0.5,0,1.1-0.1,2.2-0.2c0.4-0.1,0.8-0.1,1.2-0.1c0.9,0,1.7,0.2,2.5,0.4l0.1,0
				c1.7,0.4,3.5,1.7,3.8,2.1c0.3,0.4,0.6,1.5,0.5,2.2c-0.1,0.3-0.2,0.5-0.3,0.6c0,0,0,0,0,0l0,0l0,0c0,0,0.4,1,0.4,2.3
				c0,1.3-0.3,2.3-0.7,3.1C289.6,319.6,287.4,320.4,287.4,320.5L287.4,320.5z M287.9,314.1c0.1,0.2,0.5,0.7,0.6,1.2l0,0.1
				c0.1,0.5,0.4,1.8,0.1,2.8c-0.3,0.9-1,2.1-1.2,2.3c0.3-0.1,2.1-0.9,2.5-1.8c0.4-0.9,0.7-1.8,0.7-3.1c0-1.2-0.3-2.2-0.4-2.3
				c0,0-0.1,0-0.2,0.1c0,0,0,0,0,0c-0.1,0.1-0.2,0.1-0.3,0.2C289.1,313.7,288.5,314,287.9,314.1L287.9,314.1z M281.5,313.3
				c0.3,0,0.8,0,1.5,0.1c0.4,0.1,1,0.1,1.7,0.2c1,0.1,2.1,0.2,2.6,0.4c0.2,0.1,0.4,0.1,0.6,0.1l0,0l0,0c0,0,0.5-0.1,0.9-0.2
				c0.3-0.1,1-0.4,1.3-0.6c0.2-0.1,0.4-0.3,0.4-0.7c0.2-0.7-0.2-1.8-0.5-2.2c-0.3-0.4-2.2-1.7-3.8-2.1l-0.1,0
				c-0.8-0.2-1.5-0.4-2.5-0.4c-0.4,0-0.8,0-1.2,0.1c-1.1,0.2-1.7,0.2-2.2,0.2c-0.3,0-0.5,0-0.7,0.1l1.6,5.1
				C281.1,313.3,281.3,313.3,281.5,313.3z"/>
		</g>
		<path id="path315" d="M289.1,313.7c0,0,0.3,0.2,0.6,1.3c0.2,0.9,0.1,2.2,0.1,2.2s0.4-1.4,0.3-2.2c-0.1-0.8-0.5-1.5-0.5-1.5
			L289.1,313.7"/>
		<g id="g519">
			<path id="path317_1_" fill="#E0AF35" d="M276,305.6c-1,0-2.2,0.7-2.8,1.5c-0.7,0.8-0.6,2.2-0.3,3.1c0.3,0.9,1.1,2.4,1.9,3.3
				c0.8,0.9,2.2,1.5,3.5,1.4c1.3-0.1,3.2-0.2,3.3-1.2c0-1-0.4-2.3-0.6-3.3c-0.3-1-0.7-2.1-1.4-2.9
				C278.4,306.2,277.9,305.6,276,305.6L276,305.6z"/>
			<path id="path522" d="M278,315L278,315c-1.2,0-2.5-0.5-3.3-1.4c-0.8-0.9-1.6-2.4-1.9-3.3c-0.2-0.5-0.2-1.1-0.2-1.6
				c0-0.6,0.2-1.2,0.5-1.5c0.7-0.9,1.9-1.5,2.9-1.5c0.1,0,0.1,0,0.2,0c1.7,0,2.3,0.6,3.3,1.9c0.7,0.9,1.2,2.1,1.4,2.9
				c0,0.1,0,0.2,0.1,0.2c0.3,1,0.6,2.1,0.6,3.1c0,1-2,1.2-3.3,1.2l0,0C278.2,315,278.1,315,278,315z M276.2,305.6
				c-0.1,0-0.1,0-0.2,0c-0.9,0-2.1,0.6-2.8,1.5c-0.3,0.4-0.5,0.9-0.5,1.5c0,0.5,0.1,1.1,0.2,1.6c0.3,0.9,1.1,2.5,1.9,3.3
				c0.8,0.8,2,1.4,3.2,1.4l0,0c0.1,0,0.2,0,0.2,0l0,0c1.3-0.1,3.2-0.2,3.3-1.2c0-1-0.3-2.1-0.6-3.1c0-0.1,0-0.2-0.1-0.2
				c-0.2-0.8-0.7-2-1.4-2.9C278.4,306.2,277.9,305.6,276.2,305.6z"/>
		</g>
		<path id="path319" d="M280.8,310.1c0,0,0.2,0.6,0.2,0.7c0,0.2,0,0.7,0,0.7s-1.2,0.9-1.8,0.8c-0.6-0.1-1.7-0.2-2.4-0.9
			c-0.7-0.7-1.2-1.7-1.2-1.7s2.4,1,3.5,1C279.5,310.7,280.8,310.1,280.8,310.1"/>
		<g id="g525">
			<path id="path321_1_" fill="#E0AF35" d="M276.9,314.6c0,0,0.9,1,0.9,1.9c0,0.8-0.1,1.7-0.4,2.3c-0.4,0.6-1.2,2-1.2,2
				s0.8,0.1,1.7-0.4c0.9-0.6,2-1.5,2.4-2.7c0.3-1.2,0.1-3.2,0.1-3.2s-1.4,0.4-2.5,0.4C277.5,315,276.9,314.6,276.9,314.6z"/>
			<path id="path528" d="M276.4,320.9c-0.1,0-0.2,0-0.2,0l0,0l0,0c0,0,0.8-1.4,1.2-2c0.3-0.5,0.5-1.4,0.4-2.3c0-0.8-0.9-1.8-0.9-1.9
				l0,0c0,0,0.6,0.4,1,0.4c1.1,0,2.5-0.4,2.5-0.4l0,0l0,0c0,0,0.2,2-0.1,3.2c-0.4,1.3-1.7,2.3-2.4,2.7
				C277.3,320.8,276.7,320.9,276.4,320.9z M276.2,320.8c0.1,0,0.9,0.1,1.7-0.4c0.7-0.4,2-1.4,2.4-2.7c0.3-1.1,0.2-2.9,0.1-3.1
				c-0.2,0-1.4,0.4-2.5,0.4c-0.4,0-0.8-0.2-1-0.3c0.2,0.2,0.8,1.1,0.9,1.8c0,0.9-0.1,1.8-0.4,2.3
				C277.1,319.4,276.3,320.7,276.2,320.8z"/>
		</g>
		<path id="path323" d="M278.7,315.8c0,0,0,1.5-0.1,2c-0.1,0.5-0.5,1.4-0.5,1.4s0.8-1.2,0.9-1.9c0.1-0.7,0-1.6,0-1.6L278.7,315.8
			 M289.1,310c0.7,0.8,1.5,1.7,0.9,2.8c-0.1,0.2-0.3,0.1-0.4,0.1c-0.7-0.8-0.3-2.5-1.8-2.6c-1.9-1.1-4.8,0.5-6.5-0.9
			c2-0.4,4.6-0.4,6.8,0L289.1,310"/>
		<g id="g531">
			<polygon id="polygon325_1_" fill="#B2B2B2" points="197.3,324 194.8,324 194.8,320.6 218.5,320.6 218.5,324 215.9,324 
				215.9,327.5 218.5,327.5 218.5,332.5 207.7,332.5 207.7,327.5 209.6,327.5 209.6,324 203.7,324 203.7,324 203.7,327.5 
				205.6,327.5 205.6,332.5 194.8,332.5 194.8,327.5 197.3,327.5 			"/>
			<path id="path534" d="M218.5,332.5h-10.8v-5h1.9V324h-5.9v3.5h1.9v5h-10.8v-5h2.5V324h-2.5v-3.4h23.7v3.4h-2.5v3.5h2.5V332.5z
				 M207.7,332.5h10.7v-5h-2.5v-3.6h2.5v-3.3h-23.6v3.3h2.5v3.6h-2.5v5h10.7v-5h-1.9v-3.6h6v3.6h-1.9V332.5z"/>
		</g>
		<path id="path536" d="M217.6,332h-9.9v0L217.6,332l0-4.4h0V332L217.6,332z M204.7,332h-9.9v0L204.7,332l0-4.4h0L204.7,332
			L204.7,332z M215.1,327.5L215.1,327.5l0-4.1h2.5v-2.8h0v2.8h-2.5V327.5z M202.8,327.5L202.8,327.5l0-4.1h6.8v0.6h0v-0.5h-6.8
			L202.8,327.5L202.8,327.5z M197.3,324L197.3,324l0-0.5h-2.4v0h2.5V324z"/>
		<path id="path329" d="M266.2,219.4l-2.1-5.2l0.6-0.1l-1.6-5.1l0.7,0.1l-2-4.3l0.8,0.2l-0.9-4.2h0.5l-0.8-3.2l0.8-0.1l-1.3-4
			l0.8,3.7l-0.9-0.2l1,3.2l-0.8-0.2l1.2,4.4l-1-0.1l1.9,4.2c0,0-1.3-0.6-1-0.1c0.3,0.5,2,5.2,2,5.2l-0.9,0.1l2.2,5.5L266.2,219.4"/>
	</g>
	<g id="g539">
		<path id="polygon541" d="M193.2,350.4L193.2,350.4L193.2,350.4z"/>
		<path id="polygon543" d="M377.8,214.5L377.8,214.5L377.8,214.5z"/>
		<path id="polygon545" d="M256.3,127.8L256.3,127.8L256.3,127.8z"/>
		<path id="polygon547" d="M229.9,130.7L229.9,130.7L229.9,130.7z"/>
		<path id="path549" d="M382.9,255.6c0-0.9,0-1.8,0-2.7c0.3,0,0.7,0.1,1,0.1c0.7-1.7,1-4,0.9-5.8c-0.2-2.7-1.2-5.2-2.7-7
			c-0.4-3-0.8-5.9-1.4-8.8l1.7-0.5c-0.1-0.3-0.3-0.7-0.4-1.1c-0.1-0.3-0.2-0.7-0.2-1.1l-1.6,0.4c-0.7-3.5-1.6-6.9-2.6-10.3
			c0.4-0.6,0.7-1.1,1.1-1.7l-0.7-2.7l-1.6,0.4c-0.6-1.7-1.2-3.5-1.9-5.2c0.1,0,0.2-0.1,0.2-0.1c0.4-0.2,0.8-0.3,1.2-0.4l0,0
			l-4.3-9.7l-1.3,0.6c-0.9-1.9-1.9-3.8-3-5.7c0.1,0,0.2-0.1,0.4-0.1c-0.1-2.4-0.9-4.5-2.2-6.6c-1.5-2.3-3.3-4-5.4-4.9
			c-2.9-4.1-6.1-8.1-9.6-11.9l0.7-1.4c-0.3-0.2-0.5-0.4-0.8-0.7c-0.2-0.3-0.5-0.5-0.7-0.8l-1.5,0.6c-0.8-0.8-1.6-1.6-2.4-2.4
			c-3.8-3.8-7.9-7.3-12.1-10.6c0.5-0.2,0.9-0.5,1.4-0.7c-0.4-0.2-0.8-0.4-1.2-0.7c-0.4-0.3-0.7-0.5-1.1-0.8
			c-0.3,0.2-0.7,0.5-1.2,0.7c-1.9-1.4-3.9-2.8-5.9-4.1c0.1-0.4,0.1-0.9,0.2-1.3c-0.7-0.4-1.5-0.8-2.2-1.3c-0.7-0.5-1.3-1-2-1.5
			c0,0.5-0.1,1-0.1,1.5c-1.1-0.6-2.1-1.3-3.2-1.9c0,0,0-0.1,0.1-0.1c0.2-0.4,0.4-0.7,0.6-1l-12.9-6.3c-0.1,0.4-0.2,0.8-0.4,1.1
			c0,0,0,0.1-0.1,0.1c-1.4-0.6-2.8-1.2-4.3-1.7l0.4-1c-0.7-0.2-1.4-0.3-2-0.6c-0.7-0.2-1.3-0.6-1.9-0.8l0,0l-0.4,1
			c-2.4-0.8-4.7-1.6-7.1-2.2c-0.2-0.3-0.5-0.6-0.8-0.8c-1-0.9-3-1.3-4.3-1.6l-5.8-1.4l-0.3,1.2c-2.2-0.4-4.4-0.7-6.6-1l0.1-1.4
			c-0.4,0-0.8,0-1.1,0c-0.4,0-0.8-0.1-1.1-0.2l-0.1,1.2c-3.4-0.4-6.8-0.6-10.3-0.8l0.1-1.1c-0.7,0-1.4,0.1-2.1,0
			c-0.7,0-1.4-0.2-2.1-0.3l-0.1,1.3c-0.1,0-0.1,0-0.2,0c-1.9,0-3.8,0-5.7,0.1c0-0.1,0-0.3,0.1-0.4c-1.7-0.7-4-0.9-5.8-0.7
			c-2.4,0.3-4.5,1-6.2,2.3c-2.8,0.4-5.6,0.9-8.3,1.4c-0.1-0.4-0.1-0.7-0.1-1.1l-10.3,2.6l0.3,1c-1.8,0.5-3.5,1.1-5.3,1.7
			c0-0.1,0-0.2,0-0.2c-0.8-0.3-2.7-0.4-4.6,0.4c-1.8,0.7-3,1.8-3.7,3.1c-6.4,2.7-12.6,6-18.4,9.7l-0.5-0.8c-0.6,0.4-1.1,0.9-1.7,1.2
			c-0.6,0.4-1.2,0.7-1.8,1l0.5,0.8c-3.2,2.2-6.3,4.5-9.3,7l-1.1-0.6c-0.2,0.3-0.5,0.5-0.8,0.8c-0.3,0.2-0.5,0.4-0.9,0.6l0.4,1.2
			c-2.2,1.9-4.4,4-6.5,6.1c-0.8,0.8-1.6,1.6-2.4,2.5L163,168c-0.2,0.3-0.4,0.6-0.6,0.9c-0.2,0.3-0.5,0.6-0.8,0.8l0.8,0.7
			c-2.5,2.7-4.9,5.6-7.2,8.5c-0.4,0-0.9,0-1.3,0.1l-1.8,2.1l0.9,0.7c-1.9,2.7-3.8,5.5-5.5,8.3c-1.6,0.9-3,2.3-4.2,4.6
			c-1.2,2.2-1.7,4.3-1.6,6.2c-0.9,1.9-1.8,3.8-2.6,5.7c-0.5,1.2-1,2.4-1.5,3.6l-0.9-0.3c-0.2,0.7-0.4,1.4-0.6,2
			c-0.2,0.7-0.6,1.3-0.9,1.9l0.9,0.3c-0.5,1.5-1,2.9-1.5,4.4c-0.4-0.1-0.7-0.3-1-0.4l-3.5,13.9c0.4,0,0.8,0.1,1.1,0.1
			c-0.6,3.3-1.1,6.7-1.5,10.1l-1.2,0.4c0,0.4,0,0.7,0,1.1c0,0.4-0.1,0.7-0.2,1l1.2,0.6c-0.3,3.5-0.4,7.1-0.4,10.6c0,0.6,0,1.1,0,1.7
			l-1.2,0.1c0.1,0.4,0.1,0.7,0.2,1.1c0,0.4,0,0.8,0,1.1l1.1-0.1c0.1,3.7,0.4,7.4,0.8,11c-0.3,0.4-0.7,0.7-1,1.1l0.2,2.7l1.3-0.1
			c0.5,3.3,1.1,6.5,1.8,9.7l16.7-3.8c-0.5-2.4-1-4.8-1.4-7.2l0.5,0c-0.1-0.4-0.1-0.7-0.2-1.1c0-0.4,0-0.7,0-1.1l-0.7,0.1
			c-0.5-3.9-0.9-7.7-1-11.7c0.2-0.3,0.5-0.5,0.7-0.8l-0.2-2.4l-0.6,0c0-0.1,0-0.2,0-0.3c0-0.6,0-1.2,0-1.8l0.6,0.3
			c0-0.4,0-0.9,0-1.3c0-0.4,0.1-0.9,0.2-1.3c-0.2-0.1-0.5-0.2-0.7-0.3c0.1-3.3,0.4-6.6,0.8-9.9c0.3-0.1,0.6-0.1,1-0.2
			c0-0.8,0-1.6,0.1-2.4c0.1-0.8,0.2-1.6,0.4-2.4l-0.7,0.2c0.3-1.9,0.7-3.7,1.1-5.6l1,0.2c0.1-0.7,0.2-1.4,0.4-2.1
			c0.2-0.7,0.4-1.3,0.6-2l-1-0.2c0.7-2.4,1.4-4.9,2.2-7.3l1,0.4c0.2-0.7,0.4-1.4,0.6-2c0.2-0.7,0.6-1.3,0.9-1.9l-1-0.4
			c0.9-2.4,1.9-4.7,3-7c1.5-1,2.8-2.4,3.8-4.3c1-1.9,1.5-3.8,1.6-5.6c1.3-2.2,2.7-4.3,4.2-6.4l0.5,0.4c0.2-0.3,0.4-0.6,0.6-0.9
			c0.2-0.3,0.5-0.5,0.8-0.8l-0.6-0.5c2.3-3.1,4.8-6.1,7.4-9c0.4,0,0.8,0,1.2,0l1.5-1.8l-0.6-0.5c0.4-0.4,0.8-0.9,1.3-1.3
			c0.1-0.1,0.1-0.1,0.2-0.2l0.2,0.7c0.3-0.3,0.6-0.6,1-0.9c0.3-0.3,0.7-0.5,1-0.8c-0.1-0.3-0.2-0.5-0.4-0.8c2.4-2.3,4.9-4.4,7.5-6.5
			c0.3,0.2,0.6,0.4,0.9,0.5c0.6-0.6,1.1-1.1,1.7-1.7c0.6-0.5,1.3-1,1.9-1.4l-0.7-0.4c0.6-0.4,1.2-0.9,1.8-1.3l0.4,0.7l8.9-5.6
			c-0.2-0.2-0.3-0.4-0.5-0.6c2.7-1.5,5.5-2.9,8.3-4.2c0,0,0,0,0,0c1.5,0.3,3.2,0,4.6-0.5c1.7-0.7,3.1-1.7,3.9-3
			c1.6-0.6,3.2-1.1,4.9-1.6l0.2,0.7l10.3-2.7c-0.1-0.2-0.2-0.4-0.3-0.6c2-0.4,4.1-0.7,6.2-1c1.7,0.6,3.6,0.9,5.6,0.6
			c1.7-0.2,3.5-0.7,5-1.6c1.6-0.1,3.2-0.1,4.8-0.1c0.8,0,1.6,0,2.4,0c1.5,0.9,3.3,1.4,5.1,1.5c1.6,0.1,3.3-0.1,4.8-0.8
			c2.4,0.3,4.8,0.6,7.2,1l-0.2,0.6c0.7,0.1,1.4,0.2,2.1,0.3c0.7,0.2,1.3,0.4,2,0.6l0.2-0.8c1.6,0.3,3.2,0.7,4.7,1.1l0.3,0.9
			c0.8,0.1,1.7,0.2,2.5,0.4c0.8,0.2,1.6,0.5,2.4,0.7l-0.2-0.6c0.9,0.3,1.7,0.6,2.6,0.8l-0.3,0.8c0.7,0.2,1.4,0.3,2,0.6
			c0.7,0.2,1.3,0.6,1.9,0.8l0.3-0.8c2.4,0.9,4.8,1.9,7.2,3.1l-0.4,0.7c0.7,0.3,1.3,0.5,1.9,0.8c0.6,0.3,1.2,0.7,1.8,1l0.4-0.7
			c3.4,1.7,6.6,3.7,9.8,5.8l-0.4,0.6c0.6,0.4,1.2,0.7,1.8,1.1c0.6,0.4,1.1,0.9,1.6,1.3l0.4-0.6c3.6,2.6,7.1,5.4,10.5,8.5l-0.3,0.1
			c0.3,0.3,0.7,0.6,1,0.9c0.3,0.3,0.5,0.7,0.8,1c0.2-0.1,0.3-0.2,0.5-0.2c0.4,0.4,0.9,0.8,1.3,1.3c2,2,3.8,4,5.6,6
			c-0.1,0.2-0.2,0.4-0.3,0.6c0.6,0.6,1.2,1.1,1.7,1.7c0.6,0.6,1,1.2,1.5,1.8l0.2-0.3c1.3,1.7,2.6,3.4,3.9,5.2
			c0.3,1.7,1.1,3.5,2.1,5.1c1,1.6,2.3,3,3.7,4.3c0.8,1.5,1.6,3,2.4,4.5l-0.4,0.2l4.3,9.7c0.1-0.1,0.2-0.1,0.2-0.2
			c0.3,0.9,0.6,1.7,0.9,2.6l-0.2,0c0.1,0.3,0.3,0.7,0.4,1.1c0.1,0.3,0.1,0.7,0.2,1.1l0.3-0.1c1.3,3.8,2.3,7.8,3.1,11.8
			c-0.1,0.1-0.1,0.2-0.2,0.3l0.6,2.3l0.1,0c0.5,2.7,0.9,5.4,1.2,8.1c-0.4,1.4-0.5,2.8-0.4,4.4c0.1,1.3,0.4,2.6,0.9,3.9
			c0,1.1,0.1,2.2,0.1,3.3c0,1.9-0.1,3.9-0.2,5.8l-0.3,0c0,0.7,0,1.4,0,2.1c-0.1,0.7-0.2,1.4-0.3,2.1l0.3,0
			c-0.4,4.1-0.9,8.1-1.8,12.1l16.8,3.4c0.6-3.2,1.2-6.4,1.6-9.7c0.6,0.4,1.2,0.8,1.8,1.2c0-0.4,0-0.9,0-1.3c0-0.5,0.1-0.9,0.2-1.4
			c-0.5-0.3-1.1-0.6-1.7-0.9c0.2-2.2,0.4-4.5,0.5-6.7c0.6-0.2,1.2-0.5,1.7-0.7c0-0.8,0-1.7,0-2.5c0-0.8,0.2-1.7,0.3-2.5
			c-0.6,0.3-1.2,0.6-1.9,0.9C382.8,256.9,382.9,256.3,382.9,255.6z M363.9,188.8c0.2,0.4,0.5,0.8,0.6,1.2c-0.4-0.7-0.8-1.4-1.3-2
			C363.5,188.2,363.7,188.5,363.9,188.8z M383,247.4c0.1,0.7,0,1.5-0.3,2.2c-0.1-1.4-0.2-2.9-0.3-4.3
			C382.7,245.9,382.9,246.6,383,247.4z"/>
		<path id="path551" d="M362.2,303c-1.2,2.7-2.6,5.4-4,8.1l-2.7-0.4c-0.1,0.2-0.2,0.5-0.3,0.7c-0.1,0.2-0.3,0.4-0.4,0.6l1.7,2.2
			c-0.9,1.6-1.9,3.1-2.8,4.6c-0.4-0.4-0.8-0.8-1.1-1.3c-1.2,0.6-2.4,1.6-3.1,2.7c-1.5,2.1-2.1,4.4-1.5,6.6c-0.7,0.9-1.4,1.7-2,2.6
			l-1.8-1.5c-0.3,0.4-0.5,0.8-0.9,1.2c-0.3,0.4-0.7,0.7-1,1.1l0,0l1.8,1.5c-0.6,0.7-1.2,1.4-1.9,2.1c-0.7-0.4-1.5-0.4-2.4-0.2
			c-0.9,0.3-1.9,1.3-2.5,2l-2.9,3l0,0l1.6,1.6c-1.5,1.4-3.1,2.8-4.7,4.2l-0.6-0.7c1.5-1.3,2.6-2.1,3.6-2.7c-0.2-0.2-0.4-0.4-0.6-0.6
			c-0.2-0.2-0.3-0.5-0.5-0.7l0,0l-5.7,4.9l1.5,1.7c-0.8,0.6-1.6,1.3-2.4,1.9c-0.4-0.5-0.9-1.1-1.4-1.6c-0.2,0.2-0.4,0.4-0.6,0.6
			c-0.2,0.2-0.5,0.3-0.7,0.4c0.1,0.8,0.3,1.6,0.4,2.4c-1.3,0.9-2.6,1.9-4,2.8c-0.6,0.4-1.2,0.8-1.8,1.2c-0.7-0.4-1.4-0.8-2.1-1.3
			c-0.2,0.2-0.4,0.4-0.6,0.5c-0.2,0.2-0.5,0.2-0.7,0.4c0.3,0.6,0.6,1.3,0.9,1.9c-1.9,1.1-3.8,2.2-5.7,3.2l-2-1.7
			c-0.2,0.2-0.4,0.3-0.6,0.4c-0.2,0.1-0.4,0.2-0.7,0.3l0.2,2.6c-4.5,2.2-9.1,4.1-13.9,5.7l-0.2-0.5l4.8-1.7l-0.6-1.3l-7.2,2.6
			l0.6,1.8c-1.1,0.3-2.1,0.6-3.2,0.9c-1.4-1-3.3-1.6-6-1c-2.5,0.6-4.3,1.9-5.3,3.5c-2.7,0.5-5.5,0.8-8.2,1.1
			c0.1-0.4,0.2-0.8,0.3-1.2c-0.5-0.4-1.8-0.9-3.2-0.8c-2.2,0.1-3.5,1.1-4.1,2.5c-1.6,0.1-3.2,0.1-4.8,0.1c-0.5,0-0.9,0-1.4,0l0-0.7
			c2,0,3.3,0.1,4.5,0.3c0-0.3-0.1-0.6-0.1-0.8c0-0.3,0.1-0.6,0.1-0.8l0,0l-7.5,0l0,2.1c-1.6-0.1-3.1-0.1-4.7-0.3l0.1-1
			c1.2,0.1,2.3,0.4,3.5,0.6c0-0.3,0-0.6,0-0.9c0-0.3,0.1-0.5,0.2-0.8l-10.1-0.9c0,0.3,0,0.6,0,0.8c0,0.3-0.1,0.6-0.2,0.8
			c1,0,2.3-0.1,3.7,0.1l-0.1,1c-2.7-0.3-5.4-0.6-8.1-1.1l-0.5-2.7c-0.3,0-0.5,0-0.7-0.1c-0.2,0-0.5-0.1-0.7-0.2l-1.5,2.3
			c-2.7-0.6-5.4-1.2-8.1-2l0.3-1c1.1,0.3,2.2,0.8,3.3,1.3c0-0.3,0.1-0.6,0.2-0.8c0.1-0.3,0.2-0.5,0.3-0.8l-9.7-2.9
			c0,0.3-0.1,0.6-0.1,0.8c-0.1,0.3-0.2,0.5-0.3,0.8c1,0.2,2.2,0.4,3.6,0.8l-0.3,1c-1.7-0.5-3.4-1.1-5.1-1.7c0.4-0.5,0.8-1,1.3-1.5
			c-0.2-0.6-1.2-1.5-2.5-2.1c-2.3-0.9-4.1-0.4-5.2,1c-2.2-1-4.4-2-6.6-3.1c-0.1-1.7-1-3.3-3-4.5l-5.8-3.4l-1.2,2.1
			c-1.8-1.2-3.6-2.4-5.4-3.7l0.7-1c1.6,1.1,2.6,2.1,3.5,2.9c0.1-0.2,0.3-0.5,0.4-0.7c0.2-0.2,0.4-0.4,0.6-0.6l-6.1-4.4l-1.5,2.1
			c-1.3-1-2.6-2-3.9-3.1l0.8-1c0.9,0.8,1.7,1.6,2.5,2.5c0.2-0.2,0.3-0.5,0.5-0.7c0.2-0.2,0.4-0.4,0.6-0.6l-7.6-6.6
			c-0.1,0.2-0.3,0.5-0.5,0.7c-0.2,0.2-0.4,0.4-0.6,0.6c0.9,0.6,1.9,1.3,2.9,2.2l-0.9,1c-1.3-1.2-2.7-2.4-3.9-3.6l1.9-1.9
			c-0.4-0.3-0.8-0.6-1.1-1c-0.4-0.3-0.7-0.7-1-1.1l0,0l-1.9,2c-0.7-0.7-1.3-1.4-2-2.1l2-1.7c-0.2-0.2-0.4-0.4-0.6-0.6
			c-0.2-0.2-0.3-0.4-0.5-0.6l-2.1,1.7c-1.3-1.4-2.6-2.9-3.9-4.4c0.2-1.3,0.3-2.6,0.5-3.8l-1.3-1.5l-2.1,1.7
			c-0.6-0.8-1.2-1.5-1.7-2.3l2.3-1.5c-0.2-0.2-0.3-0.4-0.5-0.6c-0.1-0.2-0.3-0.5-0.4-0.7l-2.4,1.5c-1.4-2-2.7-4-4-6.1l2.4-1.6
			c-0.3-0.4-0.6-0.8-0.9-1.2c-0.3-0.4-0.5-0.9-0.7-1.3l0,0l-2.3,1.5c-1-1.7-1.9-3.3-2.8-5l-9.5,4.9c1.7,3.3,3.6,6.5,5.5,9.6
			c0.2,0.5,0.5,1,0.8,1.5c0.3,0.4,0.6,0.9,1,1.2c1.6,2.3,3.2,4.6,4.9,6.8l0,0c0.1,0.1,0.1,0.1,0.2,0.2c2.1,2.6,4.2,5.2,6.5,7.7
			c0,0,0,0,0,0.1l1.1,1.3l0.1-0.1c0.9,0.9,1.8,1.8,2.6,2.7l0,0c0.1,0.1,0.1,0.1,0.2,0.2c0.5,0.5,1.1,1.1,1.6,1.6
			c0.1,0.1,0.2,0.2,0.2,0.3l0,0c1.5,1.4,3,2.8,4.5,4.1l0,0.1c0.2,0.2,0.5,0.3,0.7,0.5c0.3,0.2,0.6,0.5,0.9,0.7
			c0.2,0.2,0.5,0.5,0.7,0.7l0,0l0.1-0.1c1.5,1.2,3,2.5,4.6,3.6l0,0l6.1,4.4c0,0,0-0.1,0.1-0.1c0.9,0.6,1.7,1.1,2.6,1.7l-0.1,0.2
			l4.8,2.7c0.4,0.2,0.8,0.4,1.2,0.6c3.9,2.2,7.9,4.2,12,5.9c0.6,0.8,1.6,1.5,2.5,1.8c1.1,0.5,2.3,0.6,3.3,0.5
			c2.3,0.9,4.6,1.6,6.9,2.4l-0.1,0.3c0.5,0.1,1,0.2,1.4,0.3c0.5,0.1,0.9,0.3,1.4,0.5l0.1-0.3c1.6,0.5,3.2,0.9,4.9,1.3l-0.3,0.4
			c0.3,0,0.6,0.1,0.9,0.1c0.3,0.1,0.6,0.2,0.9,0.2c0.1-0.1,0.1-0.2,0.2-0.4c2.3,0.5,4.6,1,7,1.4c0,0.1,0,0.3,0,0.4
			c0.6,0.1,1.1,0.1,1.7,0.2c0.6,0.1,1.1,0.3,1.6,0.4l-0.1-0.6c1.6,0.2,3.3,0.4,4.9,0.6l0,0.4c0.5,0,1,0,1.5,0c0.5,0,1,0.1,1.5,0.2
			l0-0.4c1.9,0.1,3.8,0.3,5.7,0.3l0,0.6l7.5,0c0-0.2-0.1-0.4-0.1-0.6c0.6,0,1.2,0,1.8-0.1c0,0.2-0.1,0.3-0.1,0.5
			c1,0.6,2.2,0.8,3.3,0.7c1.7-0.1,3.1-0.7,4-1.7c3.8-0.4,7.5-0.9,11.3-1.6c1.3,0.5,2.9,0.6,4.6,0.2l0,0c1.8-0.4,3.2-1.2,4.2-2.2
			c2-0.5,4-1.1,6-1.7l0.3,0.8l2.5-0.9l-0.3-0.8c3.8-1.3,7.5-2.7,11.2-4.4l0.1,0.7c0.3-0.2,0.5-0.3,0.8-0.5c0.3-0.1,0.6-0.2,0.8-0.4
			c0-0.2-0.1-0.4-0.1-0.6c2.1-1,4.2-2,6.3-3.1c0.1,0.1,0.3,0.3,0.4,0.4c0.5-0.3,1-0.6,1.5-0.9c0.5-0.3,1-0.4,1.5-0.7l-0.5-0.5
			c0.6-0.3,1.2-0.7,1.8-1c0.1,0.2,0.2,0.5,0.3,0.7c0.2-0.2,0.4-0.4,0.7-0.6c0.3-0.2,0.5-0.3,0.8-0.4c-0.1-0.2-0.2-0.4-0.3-0.6
			c1.4-0.8,2.7-1.7,4.1-2.6c0,0,0,0,0.1,0c0.1,0.1,0.3,0.2,0.4,0.2c0.2-0.2,0.4-0.3,0.6-0.4c0-0.1,0-0.3-0.1-0.4
			c1.4-0.9,2.7-1.9,4.1-2.9c0.1,0.2,0.2,0.3,0.4,0.5c0.4-0.3,0.8-0.7,1.3-1c0.5-0.3,0.9-0.6,1.4-0.8c-0.2-0.2-0.3-0.4-0.5-0.5
			c0.8-0.6,1.5-1.2,2.3-1.8l0.3,0.3l5.7-4.9c-0.1-0.1-0.2-0.2-0.3-0.3c0.7-0.6,1.4-1.3,2-1.9l0.4,0.4c0.3-0.4,0.6-0.8,1-1.1
			c0.3-0.4,0.7-0.7,1.1-1l-0.3-0.3c0.8-0.8,1.6-1.7,2.4-2.5l0.5,0.1c0.4-0.5,0.7-0.9,1.2-1.3c0.4-0.4,0.9-0.8,1.3-1.2l-0.6-0.1
			c0.6-0.7,1.2-1.3,1.8-2l0.3,0.3c0.3-0.4,0.6-0.8,0.9-1.2c0.3-0.4,0.7-0.7,1-1.1l-0.3-0.3c1.4-1.7,2.7-3.4,4-5.1
			c1-0.6,1.8-1.4,2.6-2.4c0.7-1,1.3-2.2,1.5-3.5c0.5-0.7,0.9-1.4,1.4-2.2l0.3,0.4c0.1-0.3,0.2-0.6,0.4-0.9c0.2-0.3,0.3-0.5,0.5-0.8
			c-0.1-0.1-0.2-0.2-0.3-0.3c1.2-2,2.4-4.1,3.5-6.1c0.1,0,0.3,0.1,0.4,0.1c0.2-0.5,0.5-1,0.7-1.5c0.3-0.5,0.6-0.9,0.9-1.4l-0.6-0.1
			c0.9-1.7,1.7-3.4,2.5-5.2L362.2,303z M214.7,362.5c1,0.4,1.5,1.3,1.5,2.4c-1.4-0.5-2.8-1-4.1-1.6
			C212.4,362.3,213.3,361.9,214.7,362.5z M198.2,354.8c1.3,0.7,2.1,1.7,2.3,3c-1.6-0.9-3.1-1.8-4.7-2.7l0.7-1.2L198.2,354.8z
			 M281.5,367.8c1.1-0.2,2.1,0,2.9,0.6c-1.8,0.5-3.7,0.9-5.5,1.2C279.4,368.6,280.3,368,281.5,367.8z M264.9,370.5
			c0.8,0,1.5,0.3,1.9,0.9c-1.3,0.1-2.6,0.2-3.9,0.3C263.1,371,263.7,370.5,264.9,370.5z M264.5,382.4c-0.3,0-0.7,0-1-0.1
			c0.7,0,1.3-0.1,2-0.1C265.2,382.3,264.8,382.4,264.5,382.4z M340,336c-0.7,0.7-1.4,1.4-2,2.1l-0.9-0.9
			C337.8,336.4,338.7,335.3,340,336z M350.4,320.9c0.7-0.9,1.8-1.5,2.9-1.6c-1.1,1.7-2.3,3.4-3.5,5.1
			C349.4,323.2,349.5,322,350.4,320.9z"/>
	</g>
	<rect id="rect553" x="233.7" y="186.3" width="32.7" height="8.3"/>
</g>
</svg>
