<?xml version="1.0" encoding="UTF-8" standalone="no"?>
<svg
   xmlns:dc="http://purl.org/dc/elements/1.1/"
   xmlns:cc="http://creativecommons.org/ns#"
   xmlns:rdf="http://www.w3.org/1999/02/22-rdf-syntax-ns#"
   xmlns:svg="http://www.w3.org/2000/svg"
   xmlns="http://www.w3.org/2000/svg"
   viewBox="0 0 640 640"
   height="640"
   width="640"
   xml:space="preserve"
   version="1.1"
   id="svg2"><metadata
     id="metadata8"><rdf:RDF><cc:Work
         rdf:about=""><dc:format>image/svg+xml</dc:format><dc:type
           rdf:resource="http://purl.org/dc/dcmitype/StillImage" /></cc:Work></rdf:RDF></metadata><defs
     id="defs6"><clipPath
       id="clipPath16"
       clipPathUnits="userSpaceOnUse"><path
         id="path18"
         d="M 0,512 512,512 512,0 0,0 0,512 Z" /></clipPath><clipPath
       id="clipPath24"
       clipPathUnits="userSpaceOnUse"><path
         id="path26"
         d="m 18.325,493.744 475.4,0 0,-475.4877 -475.4,0 0,475.4877 z" /></clipPath><clipPath
       id="clipPath28"
       clipPathUnits="userSpaceOnUse"><path
         id="path30"
         d="M 448.99,63.029 C 389.293,3.332 122.807,3.332 63.11,63.029 3.413,122.726 3.413,389.312 63.01,449.009 c 59.597,59.696 326.283,59.596 385.98,0 59.697,-59.597 59.597,-326.283 0,-385.98" /></clipPath><radialGradient
       id="radialGradient36"
       spreadMethod="pad"
       gradientTransform="matrix(237.72188,0,0,237.72188,256.02499,256)"
       gradientUnits="userSpaceOnUse"
       r="1"
       cy="0"
       cx="0"
       fy="0"
       fx="0"><stop
         id="stop38"
         offset="0"
         style="stop-opacity:1;stop-color:#ffffff" /><stop
         id="stop40"
         offset="0.8587"
         style="stop-opacity:0.14129854;stop-color:#ffffff" /><stop
         id="stop42"
         offset="1"
         style="stop-opacity:0;stop-color:#ffffff" /></radialGradient><mask
       id="mask44"
       height="1"
       width="1"
       y="0"
       x="0"
       maskUnits="userSpaceOnUse"><g
         id="g46"><g
           id="g48"><g
             id="g50"><g
               id="g52"><path
                 id="path54"
                 style="fill:url(#radialGradient36);stroke:none"
                 d="m -32768,32767 65535,0 0,-65535 -65535,0 0,65535 z" /></g></g></g></g></mask><radialGradient
       id="radialGradient56"
       spreadMethod="pad"
       gradientTransform="matrix(237.72188,0,0,237.72188,256.02499,256)"
       gradientUnits="userSpaceOnUse"
       r="1"
       cy="0"
       cx="0"
       fy="0"
       fx="0"><stop
         id="stop58"
         offset="0"
         style="stop-opacity:1;stop-color:#010101" /><stop
         id="stop60"
         offset="0.8587"
         style="stop-opacity:1;stop-color:#010101" /><stop
         id="stop62"
         offset="1"
         style="stop-opacity:1;stop-color:#010101" /></radialGradient><clipPath
       id="clipPath86"
       clipPathUnits="userSpaceOnUse"><path
         id="path88"
         d="m 18.325,493.744 475.4,0 0,-475.4877 -475.4,0 0,475.4877 z" /></clipPath><clipPath
       id="clipPath90"
       clipPathUnits="userSpaceOnUse"><path
         id="path92"
         d="M 448.99,63.029 C 389.293,3.332 122.807,3.332 63.11,63.029 3.413,122.726 3.413,389.312 63.01,449.009 c 59.597,59.696 326.283,59.596 385.98,0 59.697,-59.597 59.597,-326.283 0,-385.98" /></clipPath><radialGradient
       id="radialGradient98"
       spreadMethod="pad"
       gradientTransform="matrix(188.25467,188.36119,-130.35883,130.27895,256.02499,256.04376)"
       gradientUnits="userSpaceOnUse"
       r="1"
       cy="0"
       cx="0"
       fy="0"
       fx="0"><stop
         id="stop100"
         offset="0"
         style="stop-opacity:1;stop-color:#ffffff" /><stop
         id="stop102"
         offset="0.8587"
         style="stop-opacity:0.14129854;stop-color:#ffffff" /><stop
         id="stop104"
         offset="1"
         style="stop-opacity:0;stop-color:#ffffff" /></radialGradient><mask
       id="mask106"
       height="1"
       width="1"
       y="0"
       x="0"
       maskUnits="userSpaceOnUse"><g
         id="g108"><g
           id="g110"><g
             id="g112"><g
               id="g114"><path
                 id="path116"
                 style="fill:url(#radialGradient98);stroke:none"
                 d="m -32768,32767 65535,0 0,-65535 -65535,0 0,65535 z" /></g></g></g></g></mask><radialGradient
       id="radialGradient118"
       spreadMethod="pad"
       gradientTransform="matrix(188.25467,188.36119,-130.35883,130.27895,256.02499,256.04376)"
       gradientUnits="userSpaceOnUse"
       r="1"
       cy="0"
       cx="0"
       fy="0"
       fx="0"><stop
         id="stop120"
         offset="0"
         style="stop-opacity:1;stop-color:#010101" /><stop
         id="stop122"
         offset="0.8587"
         style="stop-opacity:1;stop-color:#010101" /><stop
         id="stop124"
         offset="1"
         style="stop-opacity:1;stop-color:#010101" /></radialGradient><clipPath
       id="clipPath148"
       clipPathUnits="userSpaceOnUse"><path
         id="path150"
         d="m 18.275,493.694 475.387,0 0,-475.4377 -475.387,0 0,475.4377 z" /></clipPath><clipPath
       id="clipPath152"
       clipPathUnits="userSpaceOnUse"><path
         id="path154"
         d="m 63.01,63.029 c 59.697,-59.697 326.183,-59.697 385.88,0 59.697,59.697 59.697,326.183 0,385.88 -59.697,59.696 -326.183,59.696 -385.88,0.1 -59.697,-59.597 -59.597,-326.283 0,-385.98" /></clipPath><radialGradient
       id="radialGradient160"
       spreadMethod="pad"
       gradientTransform="matrix(-188.28767,188.39421,130.38168,130.30179,255.92499,255.99377)"
       gradientUnits="userSpaceOnUse"
       r="1"
       cy="0"
       cx="0"
       fy="0"
       fx="0"><stop
         id="stop162"
         offset="0"
         style="stop-opacity:1;stop-color:#ffffff" /><stop
         id="stop164"
         offset="0.8587"
         style="stop-opacity:0.14129854;stop-color:#ffffff" /><stop
         id="stop166"
         offset="1"
         style="stop-opacity:0;stop-color:#ffffff" /></radialGradient><mask
       id="mask168"
       height="1"
       width="1"
       y="0"
       x="0"
       maskUnits="userSpaceOnUse"><g
         id="g170"><g
           id="g172"><g
             id="g174"><g
               id="g176"><path
                 id="path178"
                 style="fill:url(#radialGradient160);stroke:none"
                 d="m -32768,32767 65535,0 0,-65535 -65535,0 0,65535 z" /></g></g></g></g></mask><radialGradient
       id="radialGradient180"
       spreadMethod="pad"
       gradientTransform="matrix(-188.28767,188.39421,130.38168,130.30179,255.92499,255.99377)"
       gradientUnits="userSpaceOnUse"
       r="1"
       cy="0"
       cx="0"
       fy="0"
       fx="0"><stop
         id="stop182"
         offset="0"
         style="stop-opacity:1;stop-color:#010101" /><stop
         id="stop184"
         offset="0.8587"
         style="stop-opacity:1;stop-color:#010101" /><stop
         id="stop186"
         offset="1"
         style="stop-opacity:1;stop-color:#010101" /></radialGradient></defs><g
     transform="matrix(1.25,0,0,-1.25,0,640)"
     id="g10"><g
       id="g12"><g
         clip-path="url(#clipPath16)"
         id="g14"><g
           id="g20"><g
             id="g22" /><g
             id="g64"><g
               style="opacity:0.39999402"
               id="g66"
               clip-path="url(#clipPath24)"><g
                 id="g68"><g
                   id="g70"
                   clip-path="url(#clipPath28)"><g
                     id="g72"><g
                       id="g74" /><g
                       id="g76"
                       mask="url(#mask44)"><g
                         id="g78"><path
                           id="path80"
                           style="fill:url(#radialGradient56);stroke:none"
                           d="M 448.99,63.029 C 389.293,3.332 122.807,3.332 63.11,63.029 3.413,122.726 3.413,389.312 63.01,449.009 c 59.597,59.696 326.283,59.596 385.98,0 59.697,-59.597 59.597,-326.283 0,-385.98" /></g></g></g></g></g></g></g></g><g
           id="g82"><g
             id="g84" /><g
             id="g126"><g
               style="opacity:0.39999402"
               id="g128"
               clip-path="url(#clipPath86)"><g
                 id="g130"><g
                   id="g132"
                   clip-path="url(#clipPath90)"><g
                     id="g134"><g
                       id="g136" /><g
                       id="g138"
                       mask="url(#mask106)"><g
                         id="g140"><path
                           id="path142"
                           style="fill:url(#radialGradient118);stroke:none"
                           d="M 448.99,63.029 C 389.293,3.332 122.807,3.332 63.11,63.029 3.413,122.726 3.413,389.312 63.01,449.009 c 59.597,59.696 326.283,59.596 385.98,0 59.697,-59.597 59.597,-326.283 0,-385.98" /></g></g></g></g></g></g></g></g><g
           id="g144"><g
             id="g146" /><g
             id="g188"><g
               style="opacity:0.39999402"
               id="g190"
               clip-path="url(#clipPath148)"><g
                 id="g192"><g
                   id="g194"
                   clip-path="url(#clipPath152)"><g
                     id="g196"><g
                       id="g198" /><g
                       id="g200"
                       mask="url(#mask168)"><g
                         id="g202"><path
                           id="path204"
                           style="fill:url(#radialGradient180);stroke:none"
                           d="m 63.01,63.029 c 59.697,-59.697 326.183,-59.697 385.88,0 59.697,59.697 59.697,326.183 0,385.88 -59.697,59.696 -326.183,59.696 -385.88,0.1 -59.697,-59.597 -59.597,-326.283 0,-385.98" /></g></g></g></g></g></g></g></g><g
           transform="translate(433.279,78.721)"
           id="g206"><path
             id="path208"
             style="fill:#fe3300;fill-opacity:1;fill-rule:nonzero;stroke:none"
             d="m 0,0 c -70.294,-70.294 -284.264,-70.294 -354.558,0 -70.294,70.294 -70.294,284.264 0,354.558 70.294,70.294 284.264,70.294 354.558,0 C 70.294,284.264 70.295,70.294 0,0" /></g><g
           transform="translate(259.3644,247.2525)"
           id="g210"><path
             id="path212"
             style="fill:#fefdfd;fill-opacity:1;fill-rule:nonzero;stroke:none"
             d="m 0,0 c -0.169,2.453 -0.26,5.086 -1.203,7.598 -1.589,4.229 -4.665,6.491 -8.936,6.515 -4.026,0.024 -7.432,-2.15 -8.905,-6.076 -2.006,-5.346 -2.04,-10.815 -0.024,-16.167 1.586,-4.213 4.847,-6.265 9.16,-6.154 4.142,0.106 7.107,2.269 8.674,6.35 C -0.276,-5.436 -0.128,-2.804 0,0 m -20.501,17.764 c 4.517,4.872 9.207,7.595 15.381,7.706 8.914,0.161 14.872,-4.14 18.43,-11.791 4.14,-8.902 4.063,-18.151 0.246,-27.16 -5.72,-13.501 -22.724,-17.105 -33.545,-5.06 -0.157,-0.136 -0.447,-0.267 -0.453,-0.411 -0.254,-5.527 -0.251,-5.553 -5.756,-5.517 -3.221,0.021 -7.489,-1.085 -9.388,0.537 -2.216,1.893 -0.692,6.297 -0.706,9.598 -0.078,18.081 0.015,36.162 -0.097,54.242 -0.016,2.588 0.479,3.648 3.298,3.42 3.331,-0.27 6.706,-0.182 10.051,-0.02 2.07,0.1 2.612,-0.616 2.582,-2.622 -0.109,-7.373 -0.043,-14.749 -0.043,-22.922" /></g><g
           transform="translate(333.6726,252.5064)"
           id="g214"><path
             id="path216"
             style="fill:#fefdfd;fill-opacity:1;fill-rule:nonzero;stroke:none"
             d="M 0,0 C 2.51,0 5.029,0.127 7.528,-0.037 9.888,-0.191 10.03,0.82 9.554,2.73 8.537,6.813 5.421,9.529 1.16,9.819 -3.649,10.147 -7.762,7.381 -9.419,2.876 -10.15,0.889 -10.244,-0.256 -7.527,-0.042 -5.033,0.154 -2.51,0 0,0 m 7.931,-9.59 c -5.27,0 -10.541,-0.074 -15.808,0.037 -2.06,0.043 -2.462,-0.689 -1.999,-2.544 1.16,-4.655 5.146,-7.808 10.555,-8.222 7.123,-0.546 13.796,1.112 20.063,4.362 2.527,1.31 3.418,0.886 3.035,-1.947 -0.016,-0.118 -0.003,-0.239 -0.002,-0.359 0.042,-9.337 0.049,-9.369 -9.261,-11.296 -6.356,-1.316 -12.747,-2.033 -19.244,-0.994 -13.438,2.151 -20.422,9.594 -21.65,23.183 -1.1,12.164 5.093,22.602 15.953,25.939 12.641,3.886 26.135,1.528 32.719,-9.142 3.294,-5.339 3.779,-11.222 3.784,-17.266 0.002,-1.867 -1.095,-1.758 -2.338,-1.755 C 18.469,-9.581 13.2,-9.589 7.931,-9.59" /></g><g
           transform="translate(115.6077,247.3099)"
           id="g218"><path
             id="path220"
             style="fill:#fefdfd;fill-opacity:1;fill-rule:nonzero;stroke:none"
             d="m 0,0 c 0,3.355 -0.148,6.718 0.05,10.062 0.141,2.38 -0.638,3.045 -2.997,2.988 -4.845,-0.119 -4.849,0.021 -4.849,4.854 0,0.719 0.115,1.461 -0.019,2.153 -0.727,3.744 0.935,4.952 4.444,4.331 2.589,-0.457 3.906,0.447 3.374,3.252 -0.022,0.115 -0.01,0.239 -0.002,0.358 0.236,3.302 -0.497,6.644 0.406,9.919 4.768,0.074 9.536,0.196 14.305,0.195 1.471,-0.001 1.09,-1.312 1.101,-2.184 0.038,-3.115 0.099,-6.234 -0.016,-9.344 -0.064,-1.74 0.557,-2.275 2.259,-2.23 3.831,0.101 7.669,-0.044 11.5,0.063 1.731,0.048 2.176,-0.556 2.263,-2.251 0.47,-9.179 0.521,-9.176 -8.547,-9.176 -7.444,0 -7.444,0 -7.444,-7.378 0.001,-4.553 0.041,-9.106 -0.011,-13.658 -0.038,-3.228 1.416,-4.94 4.693,-5.012 2.631,-0.058 5.263,-0.196 7.893,-0.165 1.549,0.019 2.232,-0.552 2.049,-2.1 -0.014,-0.118 -0.005,-0.24 10e-4,-0.359 0.426,-8.855 0.426,-8.864 -8.511,-8.849 -2.754,0.005 -5.515,-0.03 -8.262,0.138 -8.66,0.53 -13.093,4.956 -13.532,13.615 C -0.033,-7.194 0.118,-3.593 0.118,0 0.079,0 0.039,0 0,0" /></g><g
           transform="translate(282.9663,257.0275)"
           id="g222"><path
             id="path224"
             style="fill:#fefdfd;fill-opacity:1;fill-rule:nonzero;stroke:none"
             d="m 0,0 c 0,10.174 0.06,20.349 -0.046,30.522 -0.024,2.276 0.498,3.186 2.96,3.025 3.456,-0.227 6.94,-0.12 10.409,-0.031 1.693,0.044 2.598,-0.182 2.591,-2.28 -0.074,-21.067 -0.069,-42.134 -0.007,-63.2 0.006,-2.037 -0.864,-2.364 -2.589,-2.318 -3.468,0.094 -6.953,0.199 -10.409,-0.029 -2.504,-0.165 -2.972,0.83 -2.951,3.07 C 0.053,-20.828 0,-10.414 0,0" /></g><g
           transform="translate(191.2642,258.2158)"
           id="g226"><path
             id="path228"
             style="fill:#fefdfd;fill-opacity:1;fill-rule:nonzero;stroke:none"
             d="m 0,0 c -3.051,1.232 -5.733,1.944 -8.485,1.886 -6.622,-0.14 -11.204,-4.257 -11.662,-11.242 -0.492,-7.516 -0.4,-15.082 -0.26,-22.621 0.053,-2.889 -0.83,-3.718 -3.616,-3.521 -3.338,0.236 -6.707,0.125 -10.059,0.027 -1.693,-0.049 -2.303,0.508 -2.297,2.245 0.05,14.736 0.065,29.472 -0.012,44.208 -0.011,2.167 0.866,2.607 2.78,2.53 3.11,-0.125 6.244,-0.225 9.339,0.022 2.894,0.231 4.312,-0.551 3.81,-3.664 -0.13,-0.808 -0.02,-1.654 -0.02,-2.428 1.366,-0.531 1.582,0.6 2.025,1.122 4.393,5.189 10.182,6.293 16.566,5.883 C -0.3,14.345 0.059,13.663 0.028,12.205 -0.055,8.257 0,4.307 0,0" /></g><g
           transform="translate(383.9471,264.1041)"
           id="g230"><path
             id="path232"
             style="fill:#fefdfd;fill-opacity:1;fill-rule:nonzero;stroke:none"
             d="m 0,0 c 4.806,6.966 10.791,9.075 17.959,8.577 1.734,-0.121 2.54,-0.51 2.464,-2.467 -0.151,-3.895 -0.045,-7.8 -0.045,-11.858 -3.201,0.922 -6.228,2.075 -9.523,1.611 -6.663,-0.937 -10.415,-4.965 -10.7,-12.227 -0.277,-7.054 -0.336,-14.132 -0.061,-21.183 0.13,-3.341 -0.986,-4.084 -4.022,-3.841 -3.212,0.256 -6.463,0.138 -9.692,0.026 -1.724,-0.059 -2.245,0.536 -2.238,2.246 0.055,14.846 0.055,29.692 0.001,44.538 -0.006,1.78 0.684,2.243 2.332,2.195 3.23,-0.095 6.488,-0.272 9.69,0.041 C -0.571,7.978 0.532,6.807 0.02,3.695 -0.113,2.883 0,2.031 0,0" /></g><g
           transform="translate(214.8868,247.3445)"
           id="g234"><path
             id="path236"
             style="fill:#fefdfd;fill-opacity:1;fill-rule:nonzero;stroke:none"
             d="m 0,0 c 0,-7.18 -0.076,-14.361 0.045,-21.539 0.037,-2.232 -0.423,-3.237 -2.922,-3.087 -3.577,0.216 -7.179,0.135 -10.766,0.022 -1.751,-0.054 -2.22,0.588 -2.214,2.268 0.052,14.839 0.054,29.678 10e-4,44.517 -0.007,1.777 0.68,2.238 2.328,2.196 3.588,-0.092 7.186,-0.16 10.767,0.02 2.264,0.114 2.845,-0.682 2.808,-2.858 C -0.077,14.361 0,7.18 0,0" /></g></g></g></g></svg>