<?xml version="1.0" encoding="UTF-8" standalone="no"?>
<svg
   xmlns:dc="http://purl.org/dc/elements/1.1/"
   xmlns:cc="http://creativecommons.org/ns#"
   xmlns:rdf="http://www.w3.org/1999/02/22-rdf-syntax-ns#"
   xmlns:svg="http://www.w3.org/2000/svg"
   xmlns="http://www.w3.org/2000/svg"
   viewBox="0 0 640 640"
   height="640"
   width="640"
   xml:space="preserve"
   version="1.1"
   id="svg2"><metadata
     id="metadata8"><rdf:RDF><cc:Work
         rdf:about=""><dc:format>image/svg+xml</dc:format><dc:type
           rdf:resource="http://purl.org/dc/dcmitype/StillImage" /></cc:Work></rdf:RDF></metadata><defs
     id="defs6"><clipPath
       id="clipPath16"
       clipPathUnits="userSpaceOnUse"><path
         id="path18"
         d="M 0,512 512,512 512,0 0,0 0,512 Z" /></clipPath><clipPath
       id="clipPath24"
       clipPathUnits="userSpaceOnUse"><path
         id="path26"
         d="m 18.325,493.744 475.4,0 0,-475.4877 -475.4,0 0,475.4877 z" /></clipPath><clipPath
       id="clipPath28"
       clipPathUnits="userSpaceOnUse"><path
         id="path30"
         d="M 448.99,63.029 C 389.293,3.332 122.807,3.332 63.11,63.029 3.413,122.726 3.413,389.312 63.01,449.009 c 59.597,59.696 326.283,59.596 385.98,0 59.697,-59.597 59.597,-326.283 0,-385.98" /></clipPath><radialGradient
       id="radialGradient36"
       spreadMethod="pad"
       gradientTransform="matrix(237.72188,0,0,237.72188,256.02499,256)"
       gradientUnits="userSpaceOnUse"
       r="1"
       cy="0"
       cx="0"
       fy="0"
       fx="0"><stop
         id="stop38"
         offset="0"
         style="stop-opacity:1;stop-color:#ffffff" /><stop
         id="stop40"
         offset="0.8587"
         style="stop-opacity:0.14129854;stop-color:#ffffff" /><stop
         id="stop42"
         offset="1"
         style="stop-opacity:0;stop-color:#ffffff" /></radialGradient><mask
       id="mask44"
       height="1"
       width="1"
       y="0"
       x="0"
       maskUnits="userSpaceOnUse"><g
         id="g46"><g
           id="g48"><g
             id="g50"><g
               id="g52"><path
                 id="path54"
                 style="fill:url(#radialGradient36);stroke:none"
                 d="m -32768,32767 65535,0 0,-65535 -65535,0 0,65535 z" /></g></g></g></g></mask><radialGradient
       id="radialGradient56"
       spreadMethod="pad"
       gradientTransform="matrix(237.72188,0,0,237.72188,256.02499,256)"
       gradientUnits="userSpaceOnUse"
       r="1"
       cy="0"
       cx="0"
       fy="0"
       fx="0"><stop
         id="stop58"
         offset="0"
         style="stop-opacity:1;stop-color:#010101" /><stop
         id="stop60"
         offset="0.8587"
         style="stop-opacity:1;stop-color:#010101" /><stop
         id="stop62"
         offset="1"
         style="stop-opacity:1;stop-color:#010101" /></radialGradient><clipPath
       id="clipPath86"
       clipPathUnits="userSpaceOnUse"><path
         id="path88"
         d="m 18.325,493.744 475.4,0 0,-475.4877 -475.4,0 0,475.4877 z" /></clipPath><clipPath
       id="clipPath90"
       clipPathUnits="userSpaceOnUse"><path
         id="path92"
         d="M 448.99,63.029 C 389.293,3.332 122.807,3.332 63.11,63.029 3.413,122.726 3.413,389.312 63.01,449.009 c 59.597,59.696 326.283,59.596 385.98,0 59.697,-59.597 59.597,-326.283 0,-385.98" /></clipPath><radialGradient
       id="radialGradient98"
       spreadMethod="pad"
       gradientTransform="matrix(188.25467,188.36119,-130.35883,130.27895,256.02499,256.04376)"
       gradientUnits="userSpaceOnUse"
       r="1"
       cy="0"
       cx="0"
       fy="0"
       fx="0"><stop
         id="stop100"
         offset="0"
         style="stop-opacity:1;stop-color:#ffffff" /><stop
         id="stop102"
         offset="0.8587"
         style="stop-opacity:0.14129854;stop-color:#ffffff" /><stop
         id="stop104"
         offset="1"
         style="stop-opacity:0;stop-color:#ffffff" /></radialGradient><mask
       id="mask106"
       height="1"
       width="1"
       y="0"
       x="0"
       maskUnits="userSpaceOnUse"><g
         id="g108"><g
           id="g110"><g
             id="g112"><g
               id="g114"><path
                 id="path116"
                 style="fill:url(#radialGradient98);stroke:none"
                 d="m -32768,32767 65535,0 0,-65535 -65535,0 0,65535 z" /></g></g></g></g></mask><radialGradient
       id="radialGradient118"
       spreadMethod="pad"
       gradientTransform="matrix(188.25467,188.36119,-130.35883,130.27895,256.02499,256.04376)"
       gradientUnits="userSpaceOnUse"
       r="1"
       cy="0"
       cx="0"
       fy="0"
       fx="0"><stop
         id="stop120"
         offset="0"
         style="stop-opacity:1;stop-color:#010101" /><stop
         id="stop122"
         offset="0.8587"
         style="stop-opacity:1;stop-color:#010101" /><stop
         id="stop124"
         offset="1"
         style="stop-opacity:1;stop-color:#010101" /></radialGradient><clipPath
       id="clipPath148"
       clipPathUnits="userSpaceOnUse"><path
         id="path150"
         d="m 18.275,493.694 475.387,0 0,-475.4377 -475.387,0 0,475.4377 z" /></clipPath><clipPath
       id="clipPath152"
       clipPathUnits="userSpaceOnUse"><path
         id="path154"
         d="m 63.01,63.029 c 59.697,-59.697 326.183,-59.697 385.88,0 59.697,59.697 59.697,326.183 0,385.88 -59.697,59.696 -326.183,59.696 -385.88,0.1 -59.697,-59.597 -59.597,-326.283 0,-385.98" /></clipPath><radialGradient
       id="radialGradient160"
       spreadMethod="pad"
       gradientTransform="matrix(-188.28767,188.39421,130.38168,130.30179,255.92499,255.99377)"
       gradientUnits="userSpaceOnUse"
       r="1"
       cy="0"
       cx="0"
       fy="0"
       fx="0"><stop
         id="stop162"
         offset="0"
         style="stop-opacity:1;stop-color:#ffffff" /><stop
         id="stop164"
         offset="0.8587"
         style="stop-opacity:0.14129854;stop-color:#ffffff" /><stop
         id="stop166"
         offset="1"
         style="stop-opacity:0;stop-color:#ffffff" /></radialGradient><mask
       id="mask168"
       height="1"
       width="1"
       y="0"
       x="0"
       maskUnits="userSpaceOnUse"><g
         id="g170"><g
           id="g172"><g
             id="g174"><g
               id="g176"><path
                 id="path178"
                 style="fill:url(#radialGradient160);stroke:none"
                 d="m -32768,32767 65535,0 0,-65535 -65535,0 0,65535 z" /></g></g></g></g></mask><radialGradient
       id="radialGradient180"
       spreadMethod="pad"
       gradientTransform="matrix(-188.28767,188.39421,130.38168,130.30179,255.92499,255.99377)"
       gradientUnits="userSpaceOnUse"
       r="1"
       cy="0"
       cx="0"
       fy="0"
       fx="0"><stop
         id="stop182"
         offset="0"
         style="stop-opacity:1;stop-color:#010101" /><stop
         id="stop184"
         offset="0.8587"
         style="stop-opacity:1;stop-color:#010101" /><stop
         id="stop186"
         offset="1"
         style="stop-opacity:1;stop-color:#010101" /></radialGradient></defs><g
     transform="matrix(1.25,0,0,-1.25,0,640)"
     id="g10"><g
       id="g12"><g
         clip-path="url(#clipPath16)"
         id="g14"><g
           id="g20"><g
             id="g22" /><g
             id="g64"><g
               style="opacity:0.39999402"
               id="g66"
               clip-path="url(#clipPath24)"><g
                 id="g68"><g
                   id="g70"
                   clip-path="url(#clipPath28)"><g
                     id="g72"><g
                       id="g74" /><g
                       id="g76"
                       mask="url(#mask44)"><g
                         id="g78"><path
                           id="path80"
                           style="fill:url(#radialGradient56);stroke:none"
                           d="M 448.99,63.029 C 389.293,3.332 122.807,3.332 63.11,63.029 3.413,122.726 3.413,389.312 63.01,449.009 c 59.597,59.696 326.283,59.596 385.98,0 59.697,-59.597 59.597,-326.283 0,-385.98" /></g></g></g></g></g></g></g></g><g
           id="g82"><g
             id="g84" /><g
             id="g126"><g
               style="opacity:0.39999402"
               id="g128"
               clip-path="url(#clipPath86)"><g
                 id="g130"><g
                   id="g132"
                   clip-path="url(#clipPath90)"><g
                     id="g134"><g
                       id="g136" /><g
                       id="g138"
                       mask="url(#mask106)"><g
                         id="g140"><path
                           id="path142"
                           style="fill:url(#radialGradient118);stroke:none"
                           d="M 448.99,63.029 C 389.293,3.332 122.807,3.332 63.11,63.029 3.413,122.726 3.413,389.312 63.01,449.009 c 59.597,59.696 326.283,59.596 385.98,0 59.697,-59.597 59.597,-326.283 0,-385.98" /></g></g></g></g></g></g></g></g><g
           id="g144"><g
             id="g146" /><g
             id="g188"><g
               style="opacity:0.39999402"
               id="g190"
               clip-path="url(#clipPath148)"><g
                 id="g192"><g
                   id="g194"
                   clip-path="url(#clipPath152)"><g
                     id="g196"><g
                       id="g198" /><g
                       id="g200"
                       mask="url(#mask168)"><g
                         id="g202"><path
                           id="path204"
                           style="fill:url(#radialGradient180);stroke:none"
                           d="m 63.01,63.029 c 59.697,-59.697 326.183,-59.697 385.88,0 59.697,59.697 59.697,326.183 0,385.88 -59.697,59.696 -326.183,59.696 -385.88,0.1 -59.697,-59.597 -59.597,-326.283 0,-385.98" /></g></g></g></g></g></g></g></g><g
           transform="translate(433.2792,78.7208)"
           id="g206"><path
             id="path208"
             style="fill:#cde200;fill-opacity:1;fill-rule:nonzero;stroke:none"
             d="m 0,0 c -70.294,-70.294 -284.264,-70.294 -354.558,0 -70.295,70.294 -70.295,284.264 0,354.558 70.294,70.295 284.264,70.295 354.558,0 C 70.294,284.264 70.294,70.294 0,0" /></g><g
           transform="translate(402.7831,238.386)"
           id="g210"><path
             id="path212"
             style="fill:#ffffff;fill-opacity:1;fill-rule:nonzero;stroke:none"
             d="m 0,0 0,35.227 -33.072,11.742 c -2.781,10.758 -7.07,20.909 -12.595,30.245 l 0.046,0.046 15.083,31.689 -24.91,24.91 -31.689,-15.082 -0.046,-0.046 c -9.337,5.525 -19.489,9.814 -30.245,12.593 l -11.742,33.072 -35.227,0 -11.742,-33.072 c -10.757,-2.779 -20.909,-7.068 -30.245,-12.594 l -0.046,0.047 -31.689,15.082 -24.91,-24.91 15.082,-31.689 0.047,-0.046 c -5.526,-9.337 -9.815,-19.489 -12.594,-30.245 l -33.072,-11.742 0,-35.227 33.072,-11.742 c 2.779,-10.757 7.07,-20.909 12.594,-30.245 l -0.047,-0.046 -15.082,-31.687 24.91,-24.911 31.689,15.084 0.046,0.045 c 9.337,-5.524 19.489,-9.812 30.245,-12.594 l 11.742,-33.072 35.227,0 11.742,33.072 c 10.757,2.78 20.909,7.07 30.245,12.594 l 0.046,-0.045 31.689,-15.084 24.91,24.911 -15.083,31.687 -0.046,0.046 c 5.525,9.337 9.813,19.489 12.595,30.245 L 0,0 Z" /></g><g
           transform="translate(344.6444,280.0132)"
           id="g214"><path
             id="path216"
             style="fill:#cde200;fill-opacity:1;fill-rule:nonzero;stroke:none"
             d="M 0,0 -8.198,20.29 -29.98,19.357 c -4.105,5.55 -8.938,10.398 -14.292,14.49 l 0.015,0.037 1.314,21.763 -20.146,8.551 -14.742,-16.062 -0.016,-0.037 c -6.664,1.009 -13.51,1.118 -20.351,0.215 l -14.46,16.317 -20.29,-8.198 0.933,-21.782 c -5.55,-4.104 -10.399,-8.937 -14.49,-14.293 l -0.038,0.017 -21.762,1.313 -8.551,-20.145 16.061,-14.743 0.039,-0.015 c -1.01,-6.664 -1.118,-13.51 -0.216,-20.352 l -16.317,-14.46 8.198,-20.29 21.782,0.933 c 4.104,-5.549 8.938,-10.398 14.292,-14.49 l -0.016,-0.037 -1.313,-21.762 20.145,-8.551 14.742,16.063 0.016,0.036 c 6.664,-1.009 13.509,-1.116 20.352,-0.215 l 14.459,-16.317 20.291,8.198 -0.933,21.782 c 5.549,4.104 10.398,8.938 14.49,14.292 l 0.037,-0.015 21.762,-1.314 8.551,20.145 -16.062,14.742 -0.036,0.016 c 1.009,6.663 1.116,13.509 0.215,20.351 L 0,0 Z" /></g><g
           transform="translate(226.776,256.0001)"
           id="g218"><path
             id="path220"
             style="fill:#ffffff;fill-opacity:1;fill-rule:nonzero;stroke:none"
             d="M 0,0 C 0,9.887 4.915,18.62 12.429,23.908 L 5.111,36.161 C -3.644,30.311 -10.153,21.368 -12.857,10.893 -9.697,8.317 -7.681,4.397 -7.681,0 c 0,-4.397 -2.016,-8.318 -5.176,-10.893 2.704,-10.475 9.213,-19.418 17.968,-25.268 l 7.318,12.253 C 4.916,-18.621 0,-9.889 0,0" /></g><g
           transform="translate(205.0464,265.9989)"
           id="g222"><path
             id="path224"
             style="fill:#ffffff;fill-opacity:1;fill-rule:nonzero;stroke:none"
             d="m 0,0 c -5.527,0 -10.009,-4.472 -10.009,-9.999 0,-5.526 4.482,-10.008 10.009,-10.008 5.524,0 9.999,4.483 9.999,10.008 C 9.999,-4.472 5.524,0 0,0" /></g><g
           transform="translate(281.2121,221.8697)"
           id="g226"><path
             id="path228"
             style="fill:#ffffff;fill-opacity:1;fill-rule:nonzero;stroke:none"
             d="m 0,0 c -1.612,-0.042 -3.244,-0.469 -4.739,-1.332 -4.786,-2.762 -6.422,-8.883 -3.659,-13.667 2.762,-4.785 8.881,-6.421 13.667,-3.659 C 10.053,-15.895 11.69,-9.784 8.928,-5 7.029,-1.711 3.547,0.092 0,0" /></g><g
           transform="translate(276.4737,291.4706)"
           id="g230"><path
             id="path232"
             style="fill:#ffffff;fill-opacity:1;fill-rule:nonzero;stroke:none"
             d="m 0,0 c 4.784,-2.763 10.905,-1.124 13.667,3.659 2.763,4.785 1.127,10.895 -3.659,13.658 -1.644,0.949 -3.454,1.38 -5.223,1.341 -3.378,-0.076 -6.632,-1.86 -8.445,-5 C -6.422,8.875 -4.785,2.762 0,0" /></g><g
           transform="translate(256,226.7766)"
           id="g234"><path
             id="path236"
             style="fill:#ffffff;fill-opacity:1;fill-rule:nonzero;stroke:none"
             d="m 0,0 c -4.399,0 -8.565,0.978 -12.308,2.719 l -6.954,-12.458 c 5.807,-2.875 12.344,-4.497 19.263,-4.497 4.023,0 7.912,0.56 11.609,1.584 0.654,4.018 3.039,7.718 6.843,9.915 3.797,2.192 8.196,2.405 12.001,0.968 7.397,7.273 12.212,17.169 12.912,28.192 L 29.103,26.637 C 27.79,11.707 15.268,0 0,0" /></g><g
           transform="translate(274.4526,287.9625)"
           id="g238"><path
             id="path240"
             style="fill:#ffffff;fill-opacity:1;fill-rule:nonzero;stroke:none"
             d="m 0,0 c -3.804,2.195 -6.189,5.897 -6.843,9.915 -3.696,1.023 -7.586,1.584 -11.609,1.584 -6.918,0 -13.456,-1.621 -19.262,-4.498 l 6.954,-12.457 c 3.742,1.741 7.909,2.719 12.308,2.719 15.267,0 27.792,-11.71 29.103,-26.637 l 14.263,0.216 C 24.212,-18.138 19.39,-8.241 11.991,-0.968 8.188,-2.405 3.797,-2.193 0,0" /></g></g></g></g></svg>