<?xml version="1.0" encoding="utf-8"?>
<!-- Generator: Adobe Illustrator 18.0.0, SVG Export Plug-In . SVG Version: 6.00 Build 0)  -->
<!DOCTYPE svg PUBLIC "-//W3C//DTD SVG 1.1//EN" "http://www.w3.org/Graphics/SVG/1.1/DTD/svg11.dtd">
<svg version="1.1" id="Layer_1" xmlns="http://www.w3.org/2000/svg" xmlns:xlink="http://www.w3.org/1999/xlink" x="0px" y="0px"
	 viewBox="0 0 512 512" enable-background="new 0 0 512 512" xml:space="preserve">
<g>
	<g opacity="0.4" enable-background="new    ">
		
			<radialGradient id="SVGID_1_" cx="1.0125" cy="515" r="118.8609" gradientTransform="matrix(2 0 0 -2 254 1286)" gradientUnits="userSpaceOnUse">
			<stop  offset="0" style="stop-color:#020202"/>
			<stop  offset="0.8587" style="stop-color:#020202;stop-opacity:0.1413"/>
			<stop  offset="1" style="stop-color:#020202;stop-opacity:0"/>
		</radialGradient>
		<path fill="url(#SVGID_1_)" d="M449,449c-59.7,59.7-326.2,59.7-385.9,0S3.4,122.7,63,63s326.3-59.6,386,0S508.6,389.3,449,449z"/>
	</g>
	<g opacity="0.4" enable-background="new    ">
		
			<radialGradient id="SVGID_2_" cx="2.0286" cy="516.0684" r="133.1551" gradientTransform="matrix(1.4138 -1.4146 -0.979 -0.9784 758.388 763.7472)" gradientUnits="userSpaceOnUse">
			<stop  offset="0" style="stop-color:#020202"/>
			<stop  offset="0.8587" style="stop-color:#020202;stop-opacity:0.1413"/>
			<stop  offset="1" style="stop-color:#020202;stop-opacity:0"/>
		</radialGradient>
		<path fill="url(#SVGID_2_)" d="M449,449c-59.7,59.7-326.2,59.7-385.9,0S3.4,122.7,63,63s326.3-59.6,386,0S508.6,389.3,449,449z"/>
	</g>
	<g opacity="0.4" enable-background="new    ">
		
			<radialGradient id="SVGID_3_" cx="3.4424" cy="513.9732" r="133.1784" gradientTransform="matrix(-1.4138 -1.4146 0.979 -0.9784 -242.3879 763.7472)" gradientUnits="userSpaceOnUse">
			<stop  offset="0" style="stop-color:#020202"/>
			<stop  offset="0.8587" style="stop-color:#020202;stop-opacity:0.1413"/>
			<stop  offset="1" style="stop-color:#020202;stop-opacity:0"/>
		</radialGradient>
		<path fill="url(#SVGID_3_)" d="M63,449c59.7,59.7,326.2,59.7,385.9,0s59.7-326.2,0-385.9S122.7,3.4,63,63S3.4,389.3,63,449z"/>
	</g>
</g>
<g>
	<radialGradient id="path208_1_" cx="256" cy="256" r="229.9995" gradientUnits="userSpaceOnUse">
		<stop  offset="0" style="stop-color:#A4D397"/>
		<stop  offset="1" style="stop-color:#86D4EB"/>
	</radialGradient>
	<path id="path208" fill="url(#path208_1_)" d="M433.3,433.3c-70.3,70.3-284.3,70.3-354.6,0S8.4,149,78.7,78.7s284.3-70.3,354.6,0
		S503.6,363,433.3,433.3"/>
</g>
<g>
	<polygon fill="#65C2EE" points="381.9,385.1 130.1,385.1 149,123.3 363,123.3 	"/>
	<path fill="#DEDDDD" d="M357.2,349.4H154.8c-13.6,0-24.6,11-24.6,24.6c0,13.6,11,24.6,24.6,24.6h202.4c13.6,0,24.6-11,24.6-24.6
		C381.8,360.4,370.8,349.4,357.2,349.4z"/>
	<path fill="#EFEFEF" d="M357.6,355.9H154.4c-13.7,0-24.7,11.1-24.7,24.7c0,13.7,11.1,24.7,24.7,24.7h203.3
		c13.7,0,24.7-11.1,24.7-24.7C382.4,367,371.3,355.9,357.6,355.9z"/>
	<path fill="#EFEDEE" d="M347.1,106.6H164.9c-8.9,0-16.1,7.2-16.1,16.1c0,8.9,7.2,16.1,16.1,16.1h182.3c8.9,0,16.1-7.2,16.1-16.1
		C363.2,113.8,356,106.6,347.1,106.6z"/>
	<path fill="#E2E2E2" d="M347.2,110.7H164.8c-8.9,0-16.1,7.1-16.1,16c0,8.8,7.2,16,16.1,16h182.4c8.9,0,16.1-7.1,16.1-16
		C363.3,117.8,356.1,110.7,347.2,110.7z"/>
	<path fill="#FFFFFF" d="M317.1,295.6c-1.4-1.2-3.1-2.2-4.8-3.2c-3.1-1.7-5.3-4-6.3-7.2c-0.6-2-1-4.1-1.4-6.2
		c-1.1,1.4-1.5,2.7-1.1,6.1c0.4,4.3,2.3,7.6,7,9c1.3,0.4,2.5,1,3.6,1.6c3.2,1.9,3.4,4,0.1,5.9c-2.1,1.2-4.4,2.3-6.8,2.9
		c-6.7,2-12.6,5.1-17.9,9.5c-1.4,1.2-3.2,2.1-5,2.7c-5.8,1.9-10.6-0.8-11.7-6.4c-0.3-1.5-0.2-3.2,0-4.7c0.9-6.2,1.5-12.4-0.4-18.6
		c-1-3.3-1.2-6.8,0.5-10c1.2-2.2,2.9-2.5,4.5-0.5c0.9,1.2,1.7,2.6,2.4,4c1.2,2.2,3,3.5,5.6,3.8c4.2,0.5,7.8-0.6,10.6-3.7
		c0.9-1,1.7-2.2,2.7-3.2c0.6-0.7,1.5-1.3,2.2-1.9c0.8-0.7,1.8-1.4,2.2-2.3c0.6-1.3,0.9-2.8,1-4.3c0.5-6.8-1.3-13.3-3.7-19.6
		c-2.8-7.5-6.3-14.8-12.3-20.6c-10.7-10.4-14.9-23.1-14.7-37.3c0-3.5-0.3-6.9-1.5-10.3c-2.4-6.6-5.9-12.5-12.8-15.9
		c-5.3-2.6-11-3.5-16.8-3.2c-3.2,0.1-6.4,0.7-9.3,2.3c-8,4.3-11.6,10.9-11.5,19.3c0.2,9.9,0.9,19.8,1.2,29.7c0,1-0.1,2.1-0.6,2.9
		c-2.6,4-5.1,8.1-8.1,11.9c-3.5,4.5-7.4,8.8-9.5,14.2c-2.7,6.9-5,13.9-9.1,20.3c-1.7,2.7-1.4,5.8-1.1,8.8c0.1,0.9,0.5,1.9,1.8,1.1
		c2-1.2,4.1-1.1,5.9,0.2c1.8,1.3,3.8,2.6,5,4.3c5.5,7.3,10.9,14.7,16,22.3c1.7,2.5,2.6,5.5,3.3,8.4c1.3,5-1.4,8.5-6.7,9.6
		c-2.8,0.6-5.4,0.1-8.1-0.5c-7.3-1.8-14.6-3.6-21.9-5.4c-3-0.7-6-1.1-9-1.9c-3.1-0.8-3.7-2.2-2.4-5c0.4-0.9,0.9-1.8,1.4-2.7
		c1.3-2.4,1.3-4.8,0.1-7.3c-0.7-1.4-1.4-2.8-1.9-4.2c-1-3.1,0.3-4.4,3.8-4.3c1.7,0.1,3.3,0,5-0.2c5.3-0.7,8.1-5.3,6.3-9.9
		c-0.7,4.5-3.5,7.2-8.4,7.8c-1.9,0.2-3.8,0.3-5.6,0.6c-2.2,0.4-3.3,1.5-3.1,3.6c0.2,2,0.7,4,1.2,6c0.7,2.8,0.7,5.4-0.6,8
		c-0.6,1.1-1,2.3-1.4,3.5c-0.8,2.7,0.2,4.6,2.9,5.8c1.2,0.5,2.4,0.9,3.6,1.2c4.8,1,9.8,1.6,14.5,2.8c5.8,1.5,11.4,3.5,17.2,5.1
		c1.9,0.5,3.9,0.7,5.9,0.7c3.1-0.1,5.4-2,7.8-3.6c3.2-2.1,6.6-3.6,10.5-3.7c8.3-0.2,16.6-0.2,24.9-0.3c3.2,0,5.7,0.9,7.3,3.7
		c1.2,2.1,3.2,3.5,5.6,3.9c2.3,0.4,4.8,0.7,7.1,0.5c2-0.2,4.3-0.6,5.7-1.8c6.7-5.7,14-10.3,22.2-13.9c2.5-1.1,4.8-2.8,6.9-4.6
		C319.3,299.5,319.1,297.3,317.1,295.6z M266.7,209.8c2,1.1,3.7,1.9,5.3,2.9c1.1,0.6,1.1,1.7,0.6,2.6c-0.5,1-1.6,1.1-2.3,0.4
		c-1.3-1.3-2.6-2.7-3.6-4.1C266.3,211.2,266.6,210.3,266.7,209.8z M255,175.2c0.2-0.8,0.7-1.6,0.8-2.5c0.2-1.6,0.9-2,2.3-1.1
		c1,0.7,2,1.5,3.3,2.5c-0.9,0.3-1.5,0.5-2,0.7c-1.1,0.4-2.2,0.9-3.3,1.3c-0.4,0.2-0.9,0.2-1.3,0.2C254.9,176,254.9,175.6,255,175.2z
		 M211.9,237.9c0.8,1.9-0.8,4.4-2.6,4.5C210.1,241,211,239.5,211.9,237.9z M270.7,290.6c0.8,4.7,0.2,9.3-0.8,13.9
		c-0.5,2.3-1,4.6-1.5,6.9c-1.8-0.3-2.3-0.7-2-2.2c0.3-1.7,1.1-3.3,1.4-5c0.5-2.5,0.9-4.9,1.2-7.4c0.1-0.6-0.1-1.4-0.3-2
		c-0.3-1-1.1-1.1-1.9-0.5c-0.5,0.4-0.9,0.8-1.2,1.3c-2.8,4.5-7.2,6.7-12.3,7.9c-5,1.2-10.1,1.9-15.2,0.5c-1.8-0.5-3.3-1.6-5-2.4
		c-0.7-0.3-1.5-0.8-2.2-0.7c-1.4,0.2-1.6,1-0.7,2.1c1.7,2,2.9,4.1,2.8,6.7c0,1.4-0.4,2-2.1,3.1c0.8-5.9-2.5-10.3-5.9-14.7
		c0.5-0.2,0.9-0.3,1.2-0.4c2.2-0.6,3.7-1.8,4.2-4c0.5-2.3-0.2-4.3-2.2-5.8c-4.9-3.8-9.9-7.6-14.8-11.4c-2.2-1.8-4.4-3.6-6.4-5.5
		c-2.5-2.4-3-5.7-3.5-8.9c-0.4-2.6-0.2-5.1,1.7-7.4c-0.1,0.6-0.1,1.1-0.2,1.7c-0.6,4-0.3,7.8,1.9,11.3c0.7,1.1,1.5,2.7,3,2.2
		c0.8-0.3,1.3-1.9,1.4-3c0.2-1.8,0.2-3.6,0.1-5.4c-0.1-3.1,0.2-6.1,1.5-9c1.7-4,3.6-7.9,5.6-11.8c0.8-1.5,2.1-2.7,3.3-4.2
		c-1.5-2.9-1.1-5.8,0.3-8.7c0.7-1.4,1.4-2.7,2.2-4.1c1.6-2.6,2.9-5.3,2.8-8.5c0.1,0,0.3-0.1,0.4-0.1c0.4,0.4,0.8,0.8,1.2,1.3
		c1.7,2,3.2,4.2,5,6.1c1.8,1.9,3.9,2.2,6.4,1.1c1.2-0.6,2.4-1.3,3.6-2c3.9-2.3,7.8-4.6,11.7-7c0.8-0.5,2.3-0.8,1.6-2.1
		c-0.7-1.2-1.9-0.5-2.8-0.1c-3.2,1.5-6.4,3.2-9.7,4.6c-1.7,0.7-3.7,0.9-5.7,1.1c-3,0.3-5.2-1.2-7.1-3.7c1,0.1,1.6,0.2,2.3,0.2
		c3.9,0.5,7.6,0,11.3-1.5c3.7-1.5,7.5-2.8,11.3-4.3c0.4-0.2,1-0.4,1.1-0.7c0.2-0.6,0.1-1.2,0.1-1.8c-0.6,0.1-1.6-0.1-1.9,0.2
		c-1.4,1.9-3.5,2.6-5.6,3.2c-4.9,1.4-9.7,3.1-15,2.7c-2.1-0.1-3.8-0.8-5.2-2.4c-0.8-1-1.9-1.8-2.9-2.5c-1.1-0.7-1.2-1.6-0.7-2.6
		c0.4-0.8,1.1-1.4,1.8-2c2.1-1.7,4.4-3.3,6.4-5.2c1.6-1.4-0.2-7-2.4-7.5c-2.1-0.5-3.9,0.5-4.4,2.6c-0.8,2.7,0.3,5.3,3,6.7
		c-0.6,0.5-1.1,1.2-1.8,1.3c-0.3,0.1-1.1-0.7-1.3-1.2c-2-3.7-2.3-7.6-0.2-11.4c0.8-1.5,1.9-2.8,3.9-2.8c2,0,3.5,1.1,4.1,2.7
		c0.8,2.3,1.4,4.7,1.7,7.2c0.2,1.3,0.6,1.6,1.8,1.6c2,0,3.9,0.2,5.6,0.3c0-1.4,0-3.2,0-4.9c0.1-4.3,2.7-6.9,7.6-7.7
		c3.1-0.5,6.3,1.6,7.9,5c1.3,2.9,1.2,6,1,9c-0.1,1.5-2.4,2.5-3.6,1.5c-0.4-0.3-0.5-1.4-0.3-1.9c0.9-2.1,0.7-4.1-0.4-6.1
		c-1-1.8-2.7-2.5-4.9-2.3c-2,0.2-3,1.6-3.4,3.2c-0.3,1.3-0.4,2.7-0.3,4.1c0,1.1,0.5,1.9,1.8,2.3c2.9,1,5.8,2.2,8.6,3.3
		c2,0.8,2.7,1.8,2.2,3.8c-0.2,1-0.5,2.1-0.7,3.1c-0.8,3-0.3,5.8,1.7,8.2c3.7,4.5,5.7,9.7,7.1,15.2c0.2,0.8,0.7,1.5,1.3,2.1
		c2.7,2.7,3.9,6.2,5,9.7c1.9,5.6,2.3,11.4,2.4,17.2c0,0.4,0,0.7,0,1.1c0.2,2.8,1,4,3.1,4.3c2.4,0.4,4.8-0.9,5.6-3.2
		c1.2-3.1,1.2-6.3,0.8-9.5c-1-7.4-4.1-14-8.4-20.2c-0.3-0.4-0.5-0.8-0.8-1.2c0,0,0-0.1,0.1-0.1c6,3.5,14.1,20,9.6,33
		c0.8,0.4,1.7,0.8,2.6,1.3c0.8,0.5,1.6,1.1,2.2,1.8c-2.8-1.2-5.7-1.6-8.7-1.4c-3.9,0.3-6,2-6.9,5.5c-4.8,0.1-6.6,2.8-6.8,8.2
		C269.7,284.6,270.2,287.6,270.7,290.6z M231.3,192.9c0,0,0.2-0.5,0.2-0.5c0.3,0,0.9,0.1,0.9,0.3c0.4,1.1,0.8,2.3,1.1,3.4
		c-0.2,0.1-0.4,0.2-0.6,0.3c-0.2-0.1-0.5-0.2-0.5-0.4C232.2,194.9,232.8,193.6,231.3,192.9z M255.6,195.2c-0.8-1.2-1.6-2.2-2.3-3.2
		c0-0.1,0-0.2,0-0.3c0.6,0.3,1.4,0.6,1.9,1C255.9,193.3,256.4,194.2,255.6,195.2z"/>
	<linearGradient id="SVGID_4_" gradientUnits="userSpaceOnUse" x1="155.8666" y1="235.9906" x2="296.0543" y2="231.492">
		<stop  offset="0" style="stop-color:#FFFFFF;stop-opacity:0"/>
		<stop  offset="1" style="stop-color:#FFFFFF"/>
	</linearGradient>
	<polygon opacity="0.6" fill="url(#SVGID_4_)" points="180.7,360.3 146.3,360.3 163.5,110.7 304.8,110.7 	"/>
</g>
</svg>
