<?xml version="1.0" encoding="UTF-8" standalone="no"?>
<svg
   xmlns:dc="http://purl.org/dc/elements/1.1/"
   xmlns:cc="http://creativecommons.org/ns#"
   xmlns:rdf="http://www.w3.org/1999/02/22-rdf-syntax-ns#"
   xmlns:svg="http://www.w3.org/2000/svg"
   xmlns="http://www.w3.org/2000/svg"
   id="svg2"
   version="1.1"
   xml:space="preserve"
   width="640"
   height="640"
   viewBox="0 0 640 640"><metadata
     id="metadata8"><rdf:RDF><cc:Work
         rdf:about=""><dc:format>image/svg+xml</dc:format><dc:type
           rdf:resource="http://purl.org/dc/dcmitype/StillImage" /><dc:title></dc:title></cc:Work></rdf:RDF></metadata><defs
     id="defs6"><clipPath
       clipPathUnits="userSpaceOnUse"
       id="clipPath16"><path
         d="M 0,512 512,512 512,0 0,0 0,512 Z"
         id="path18" /></clipPath><clipPath
       clipPathUnits="userSpaceOnUse"
       id="clipPath24"><path
         d="m 18.275,493.744 475.45,0 0,-475.4877 -475.45,0 0,475.4877 z"
         id="path26" /></clipPath><clipPath
       clipPathUnits="userSpaceOnUse"
       id="clipPath28"><path
         d="m 18.275,493.744 475.45,0 0,-475.4877 -475.45,0 0,475.4877 z"
         id="path30" /></clipPath><clipPath
       clipPathUnits="userSpaceOnUse"
       id="clipPath32"><path
         d="m 18.325,493.744 475.4,0 0,-475.4877 -475.4,0 0,475.4877 z"
         id="path34" /></clipPath><clipPath
       clipPathUnits="userSpaceOnUse"
       id="clipPath36"><path
         d="M 448.99,63.029 C 389.293,3.332 122.807,3.332 63.11,63.029 3.413,122.726 3.413,389.312 63.01,449.009 c 59.597,59.696 326.283,59.596 385.98,0 59.697,-59.597 59.597,-326.283 0,-385.98"
         id="path38" /></clipPath><radialGradient
       fx="0"
       fy="0"
       cx="0"
       cy="0"
       r="1"
       gradientUnits="userSpaceOnUse"
       gradientTransform="matrix(237.72188,0,0,237.72188,256.02499,256)"
       spreadMethod="pad"
       id="radialGradient44"><stop
         style="stop-opacity:1;stop-color:#ffffff"
         offset="0"
         id="stop46" /><stop
         style="stop-opacity:0.14129854;stop-color:#ffffff"
         offset="0.8587"
         id="stop48" /><stop
         style="stop-opacity:0;stop-color:#ffffff"
         offset="1"
         id="stop50" /></radialGradient><mask
       maskUnits="userSpaceOnUse"
       x="0"
       y="0"
       width="1"
       height="1"
       id="mask52"><g
         id="g54"><g
           id="g56"><g
             id="g58"><g
               id="g60"><path
                 d="m -32768,32767 65535,0 0,-65535 -65535,0 0,65535 z"
                 style="fill:url(#radialGradient44);stroke:none"
                 id="path62" /></g></g></g></g></mask><radialGradient
       fx="0"
       fy="0"
       cx="0"
       cy="0"
       r="1"
       gradientUnits="userSpaceOnUse"
       gradientTransform="matrix(237.72188,0,0,237.72188,256.02499,256)"
       spreadMethod="pad"
       id="radialGradient64"><stop
         style="stop-opacity:1;stop-color:#010101"
         offset="0"
         id="stop66" /><stop
         style="stop-opacity:1;stop-color:#010101"
         offset="0.8587"
         id="stop68" /><stop
         style="stop-opacity:1;stop-color:#010101"
         offset="1"
         id="stop70" /></radialGradient><clipPath
       clipPathUnits="userSpaceOnUse"
       id="clipPath72"><path
         d="m 18.325,493.744 475.4,0 0,-475.4877 -475.4,0 0,475.4877 z"
         id="path74" /></clipPath><clipPath
       clipPathUnits="userSpaceOnUse"
       id="clipPath76"><path
         d="M 448.99,63.029 C 389.293,3.332 122.807,3.332 63.11,63.029 3.413,122.726 3.413,389.312 63.01,449.009 c 59.597,59.696 326.283,59.596 385.98,0 59.697,-59.597 59.597,-326.283 0,-385.98"
         id="path78" /></clipPath><radialGradient
       fx="0"
       fy="0"
       cx="0"
       cy="0"
       r="1"
       gradientUnits="userSpaceOnUse"
       gradientTransform="matrix(188.25467,188.36119,-130.35883,130.27895,256.02499,256.04376)"
       spreadMethod="pad"
       id="radialGradient84"><stop
         style="stop-opacity:1;stop-color:#ffffff"
         offset="0"
         id="stop86" /><stop
         style="stop-opacity:0.14129854;stop-color:#ffffff"
         offset="0.8587"
         id="stop88" /><stop
         style="stop-opacity:0;stop-color:#ffffff"
         offset="1"
         id="stop90" /></radialGradient><mask
       maskUnits="userSpaceOnUse"
       x="0"
       y="0"
       width="1"
       height="1"
       id="mask92"><g
         id="g94"><g
           id="g96"><g
             id="g98"><g
               id="g100"><path
                 d="m -32768,32767 65535,0 0,-65535 -65535,0 0,65535 z"
                 style="fill:url(#radialGradient84);stroke:none"
                 id="path102" /></g></g></g></g></mask><radialGradient
       fx="0"
       fy="0"
       cx="0"
       cy="0"
       r="1"
       gradientUnits="userSpaceOnUse"
       gradientTransform="matrix(188.25467,188.36119,-130.35883,130.27895,256.02499,256.04376)"
       spreadMethod="pad"
       id="radialGradient104"><stop
         style="stop-opacity:1;stop-color:#010101"
         offset="0"
         id="stop106" /><stop
         style="stop-opacity:1;stop-color:#010101"
         offset="0.8587"
         id="stop108" /><stop
         style="stop-opacity:1;stop-color:#010101"
         offset="1"
         id="stop110" /></radialGradient><clipPath
       clipPathUnits="userSpaceOnUse"
       id="clipPath112"><path
         d="m 18.275,493.694 475.387,0 0,-475.4377 -475.387,0 0,475.4377 z"
         id="path114" /></clipPath><clipPath
       clipPathUnits="userSpaceOnUse"
       id="clipPath116"><path
         d="m 63.01,63.029 c 59.697,-59.697 326.183,-59.697 385.88,0 59.697,59.697 59.697,326.183 0,385.88 -59.697,59.696 -326.183,59.696 -385.88,0.1 -59.697,-59.597 -59.597,-326.283 0,-385.98"
         id="path118" /></clipPath><radialGradient
       fx="0"
       fy="0"
       cx="0"
       cy="0"
       r="1"
       gradientUnits="userSpaceOnUse"
       gradientTransform="matrix(-188.28767,188.39421,130.38168,130.30179,255.92499,255.99377)"
       spreadMethod="pad"
       id="radialGradient124"><stop
         style="stop-opacity:1;stop-color:#ffffff"
         offset="0"
         id="stop126" /><stop
         style="stop-opacity:0.14129854;stop-color:#ffffff"
         offset="0.8587"
         id="stop128" /><stop
         style="stop-opacity:0;stop-color:#ffffff"
         offset="1"
         id="stop130" /></radialGradient><mask
       maskUnits="userSpaceOnUse"
       x="0"
       y="0"
       width="1"
       height="1"
       id="mask132"><g
         id="g134"><g
           id="g136"><g
             id="g138"><g
               id="g140"><path
                 d="m -32768,32767 65535,0 0,-65535 -65535,0 0,65535 z"
                 style="fill:url(#radialGradient124);stroke:none"
                 id="path142" /></g></g></g></g></mask><radialGradient
       fx="0"
       fy="0"
       cx="0"
       cy="0"
       r="1"
       gradientUnits="userSpaceOnUse"
       gradientTransform="matrix(-188.28767,188.39421,130.38168,130.30179,255.92499,255.99377)"
       spreadMethod="pad"
       id="radialGradient144"><stop
         style="stop-opacity:1;stop-color:#010101"
         offset="0"
         id="stop146" /><stop
         style="stop-opacity:1;stop-color:#010101"
         offset="0.8587"
         id="stop148" /><stop
         style="stop-opacity:1;stop-color:#010101"
         offset="1"
         id="stop150" /></radialGradient></defs><g
     id="g10"
     transform="matrix(1.25,0,0,-1.25,0,640)"><g
       id="g12"><g
         id="g14"
         clip-path="url(#clipPath16)"><g
           id="g20"><g
             id="g22" /><g
             id="g152"><g
               clip-path="url(#clipPath24)"
               id="g154"><g
                 id="g156"><g
                   id="g158" /><g
                   id="g160"><g
                     clip-path="url(#clipPath28)"
                     id="g162"><g
                       id="g164"><g
                         id="g166" /><g
                         id="g168"><g
                           clip-path="url(#clipPath32)"
                           id="g170"
                           style="opacity:0.39999402"><g
                             id="g172"><g
                               clip-path="url(#clipPath36)"
                               id="g174"><g
                                 id="g176"><g
                                   id="g178" /><g
                                   mask="url(#mask52)"
                                   id="g180"><g
                                   id="g182"><path
                                   d="M 448.99,63.029 C 389.293,3.332 122.807,3.332 63.11,63.029 3.413,122.726 3.413,389.312 63.01,449.009 c 59.597,59.696 326.283,59.596 385.98,0 59.697,-59.597 59.597,-326.283 0,-385.98"
                                   style="fill:url(#radialGradient64);stroke:none"
                                   id="path184" /></g></g></g></g></g></g></g></g><g
                       id="g186"><g
                         id="g188" /><g
                         id="g190"><g
                           clip-path="url(#clipPath72)"
                           id="g192"
                           style="opacity:0.39999402"><g
                             id="g194"><g
                               clip-path="url(#clipPath76)"
                               id="g196"><g
                                 id="g198"><g
                                   id="g200" /><g
                                   mask="url(#mask92)"
                                   id="g202"><g
                                   id="g204"><path
                                   d="M 448.99,63.029 C 389.293,3.332 122.807,3.332 63.11,63.029 3.413,122.726 3.413,389.312 63.01,449.009 c 59.597,59.696 326.283,59.596 385.98,0 59.697,-59.597 59.597,-326.283 0,-385.98"
                                   style="fill:url(#radialGradient104);stroke:none"
                                   id="path206" /></g></g></g></g></g></g></g></g><g
                       id="g208"><g
                         id="g210" /><g
                         id="g212"><g
                           clip-path="url(#clipPath112)"
                           id="g214"
                           style="opacity:0.39999402"><g
                             id="g216"><g
                               clip-path="url(#clipPath116)"
                               id="g218"><g
                                 id="g220"><g
                                   id="g222" /><g
                                   mask="url(#mask132)"
                                   id="g224"><g
                                   id="g226"><path
                                   d="m 63.01,63.029 c 59.697,-59.697 326.183,-59.697 385.88,0 59.697,59.697 59.697,326.183 0,385.88 -59.697,59.696 -326.183,59.696 -385.88,0.1 -59.697,-59.597 -59.597,-326.283 0,-385.98"
                                   style="fill:url(#radialGradient144);stroke:none"
                                   id="path228" /></g></g></g></g></g></g></g></g></g></g></g><g
                 transform="translate(433.279,433.279)"
                 id="g230"><path
                   d="m 0,0 c -70.294,70.294 -284.264,70.294 -354.558,0 -70.294,-70.294 -70.294,-284.264 0,-354.558 70.294,-70.294 284.264,-70.294 354.558,0 C 70.294,-284.264 70.295,-70.294 0,0"
                   style="fill:#000016;fill-opacity:1;fill-rule:nonzero;stroke:none"
                   id="path232" /></g></g></g></g><g
           id="g234"
           transform="translate(361.2026,374.0441)"><path
             d="m 0,0 -19.334,0 -171.737,0 -19.334,0 c -12.24,0 -22.162,-9.922 -22.162,-22.162 l 0,-19.334 0,-171.737 0,-19.334 c 0,-12.24 9.922,-22.162 22.162,-22.162 l 19.334,0 171.737,0 19.334,0 c 12.24,0 22.162,9.922 22.162,22.162 l 0,19.334 0,171.737 0,19.334 C 22.162,-9.922 12.24,0 0,0"
             style="fill:#ffffff;fill-opacity:1;fill-rule:nonzero;stroke:none"
             id="path236" /></g><g
           id="g238"
           transform="translate(150.7974,137.9558)"><path
             d="m 0,0 19.334,0 171.737,0 19.334,0 c 12.24,0 22.162,9.922 22.162,22.162 l 0,19.334 0,171.737 0,19.334 c 0,12.24 -9.922,22.162 -22.162,22.162 l -19.334,0 -171.737,0 -19.334,0 c -12.24,0 -22.162,-9.922 -22.162,-22.162 l 0,-19.334 0,-171.737 0,-19.334 C -22.162,9.922 -12.24,0 0,0"
             style="fill:#ffffff;fill-opacity:1;fill-rule:nonzero;stroke:none"
             id="path240" /></g><g
           id="g242"
           transform="translate(361.2026,377.3205)"><path
             d="m 0,0 -19.334,0 -171.737,0 -19.334,0 c -12.24,0 -22.162,-9.922 -22.162,-22.162 l 0,-19.334 0,-171.737 0,-19.334 c 0,-12.24 9.922,-22.162 22.162,-22.162 l 19.334,0 171.737,0 19.334,0 c 12.24,0 22.162,9.922 22.162,22.162 l 0,19.334 0,171.737 0,19.334 C 22.162,-9.922 12.24,0 0,0 m 0,-1 c 11.669,0 21.162,-9.493 21.162,-21.162 l 0,-19.334 0,-171.737 0,-19.334 c 0,-11.669 -9.493,-21.162 -21.162,-21.162 l -19.334,0 -171.737,0 -19.334,0 c -11.669,0 -21.162,9.493 -21.162,21.162 l 0,19.334 0,171.737 0,19.334 c 0,11.669 9.493,21.162 21.162,21.162 l 19.334,0 171.737,0 L 0,-1"
             style="fill:#e5e5e5;fill-opacity:1;fill-rule:nonzero;stroke:none"
             id="path244" /></g><g
           id="g246"
           transform="translate(361.2026,380.1312)"><path
             d="m 0,0 -19.334,0 -171.737,0 -19.334,0 c -12.24,0 -22.162,-9.922 -22.162,-22.162 l 0,-19.334 0,-171.737 0,-19.334 c 0,-12.24 9.922,-22.162 22.162,-22.162 l 19.334,0 171.737,0 19.334,0 c 12.24,0 22.162,9.922 22.162,22.162 l 0,19.334 0,171.737 0,19.334 C 22.162,-9.922 12.24,0 0,0 m 0,-1 c 11.669,0 21.162,-9.493 21.162,-21.162 l 0,-19.334 0,-171.737 0,-19.334 c 0,-11.669 -9.493,-21.162 -21.162,-21.162 l -19.334,0 -171.737,0 -19.334,0 c -11.669,0 -21.162,9.493 -21.162,21.162 l 0,19.334 0,171.737 0,19.334 c 0,11.669 9.493,21.162 21.162,21.162 l 19.334,0 171.737,0 L 0,-1"
             style="fill:#e5e5e5;fill-opacity:1;fill-rule:nonzero;stroke:none"
             id="path248" /></g><g
           id="g250"
           transform="translate(361.2026,384.6857)"><path
             d="m 0,0 -19.334,0 -171.737,0 -19.334,0 c -12.24,0 -22.162,-9.922 -22.162,-22.162 l 0,-19.334 0,-171.737 0,-19.334 c 0,-12.24 9.922,-22.162 22.162,-22.162 l 19.334,0 171.737,0 19.334,0 c 12.24,0 22.162,9.922 22.162,22.162 l 0,19.334 0,171.737 0,19.334 C 22.162,-9.922 12.24,0 0,0 m 0,-1 c 11.669,0 21.162,-9.493 21.162,-21.162 l 0,-19.334 0,-171.737 0,-19.334 c 0,-11.669 -9.493,-21.162 -21.162,-21.162 l -19.334,0 -171.737,0 -19.334,0 c -11.669,0 -21.162,9.493 -21.162,21.162 l 0,19.334 0,171.737 0,19.334 c 0,11.669 9.493,21.162 21.162,21.162 l 19.334,0 171.737,0 L 0,-1"
             style="fill:#e5e5e5;fill-opacity:1;fill-rule:nonzero;stroke:none"
             id="path252" /></g><g
           id="g254"
           transform="translate(361.2026,388.233)"><path
             d="m 0,0 -19.334,0 -171.737,0 -19.334,0 c -12.24,0 -22.162,-9.922 -22.162,-22.162 l 0,-19.334 0,-171.737 0,-19.334 c 0,-12.24 9.922,-22.162 22.162,-22.162 l 19.334,0 171.737,0 19.334,0 c 12.24,0 22.162,9.922 22.162,22.162 l 0,19.334 0,171.737 0,19.334 C 22.162,-9.922 12.24,0 0,0 m 0,-1 c 11.669,0 21.162,-9.493 21.162,-21.162 l 0,-19.334 0,-171.737 0,-19.334 c 0,-11.669 -9.493,-21.162 -21.162,-21.162 l -19.334,0 -171.737,0 -19.334,0 c -11.669,0 -21.162,9.493 -21.162,21.162 l 0,19.334 0,171.737 0,19.334 c 0,11.669 9.493,21.162 21.162,21.162 l 19.334,0 171.737,0 L 0,-1"
             style="fill:#e5e5e5;fill-opacity:1;fill-rule:nonzero;stroke:none"
             id="path256" /></g><g
           id="g258"
           transform="translate(128.6353,361.2026)"><path
             d="m 0,0 0,-210.405 c 0,-12.24 9.922,-22.162 22.162,-22.162 l 19.334,0 127.365,127.364 -127.365,127.365 -19.334,0 C 9.922,22.162 0,12.24 0,0"
             style="fill:#ffffff;fill-opacity:1;fill-rule:nonzero;stroke:none"
             id="path260" /></g><g
           id="g262"
           transform="translate(341.8686,128.6353)"><path
             d="m 0,0 19.334,0 c 12.24,0 22.162,9.922 22.162,22.162 l 0,210.405 c 0,12.24 -9.922,22.162 -22.162,22.162 L 0,254.729 -127.365,127.365 0,0 Z"
             style="fill:#f7f7f7;fill-opacity:1;fill-rule:nonzero;stroke:none"
             id="path264" /></g><g
           id="g266"
           transform="translate(383.3647,150.7974)"><path
             d="M 0,0 0,19.334 -127.365,146.699 -254.729,19.334 -254.729,0 c 0,-12.24 9.922,-22.162 22.162,-22.162 l 210.405,0 C -9.922,-22.162 0,-12.24 0,0"
             style="fill:#f4f4f4;fill-opacity:1;fill-rule:nonzero;stroke:none"
             id="path268" /></g><g
           id="g270"
           transform="translate(273.8079,232.3118)"><path
             d="m 0,0 109.557,109.557 0,19.334 c 0,12.24 -9.923,22.162 -22.162,22.162 l -210.406,0 c -12.239,0 -22.162,-9.922 -22.162,-22.162 l 0,-19.334 L -35.616,0 C -25.781,-9.835 -9.835,-9.835 0,0"
             style="fill:#e8e8e8;fill-opacity:1;fill-rule:nonzero;stroke:none"
             id="path272" /></g><g
           id="g274"
           transform="translate(158.8563,321.7892)"><path
             d="m 0,0 -10.074,-10.074 0,-13.747 L 0,-13.747 0,0 Z"
             style="fill:#000000;fill-opacity:1;fill-rule:nonzero;stroke:none"
             id="path276" /></g><g
           id="g278"
           transform="translate(293.135,353.1437)"><path
             d="m 0,0 10.074,10.074 -13.748,0 L -13.748,0 0,0 Z"
             style="fill:#3f8cfc;fill-opacity:1;fill-rule:nonzero;stroke:none"
             id="path280" /></g><g
           id="g282"
           transform="translate(270.8401,353.1437)"><path
             d="m 0,0 10.074,10.074 -13.747,0 L -13.747,0 0,0 Z"
             style="fill:#fc354d;fill-opacity:1;fill-rule:nonzero;stroke:none"
             id="path284" /></g><g
           id="g286"
           transform="translate(337.7233,353.1437)"><path
             d="m 0,0 9.612,9.612 c -1.376,0.297 -2.8,0.462 -4.265,0.462 l -9.02,0 L -13.747,0 0,0 Z"
             style="fill:#fc354d;fill-opacity:1;fill-rule:nonzero;stroke:none"
             id="path288" /></g><g
           id="g290"
           transform="translate(158.8563,343.07)"><path
             d="m 0,0 c 0,0.362 0.021,0.72 0.059,1.073 l -10.133,-10.133 0,-13.748 L 0,-12.734 0,0 Z"
             style="fill:#fc354d;fill-opacity:1;fill-rule:nonzero;stroke:none"
             id="path292" /></g><g
           id="g294"
           transform="translate(168.93,353.1437)"><path
             d="M 0,0 12.734,0 22.808,10.074 9.06,10.074 -1.073,-0.059 C -0.72,-0.021 -0.362,0 0,0"
             style="fill:#000000;fill-opacity:1;fill-rule:nonzero;stroke:none"
             id="path296" /></g><g
           id="g298"
           transform="translate(352.7408,345.8672)"><path
             d="M 0,0 7.577,7.577 C 5.88,10.393 3.519,12.753 0.703,14.45 L -6.874,6.873 C -3.566,5.915 -0.958,3.307 0,0"
             style="fill:#3f8cfc;fill-opacity:1;fill-rule:nonzero;stroke:none"
             id="path300" /></g><g
           id="g302"
           transform="translate(226.2517,353.1437)"><path
             d="m 0,0 10.074,10.074 -13.747,0 L -13.747,0 0,0 Z"
             style="fill:#3f8cfc;fill-opacity:1;fill-rule:nonzero;stroke:none"
             id="path304" /></g><g
           id="g306"
           transform="translate(203.9578,353.1437)"><path
             d="m 0,0 10.074,10.074 -13.747,0 L -13.747,0 0,0 Z"
             style="fill:#fc354d;fill-opacity:1;fill-rule:nonzero;stroke:none"
             id="path308" /></g><g
           id="g310"
           transform="translate(248.5461,353.1437)"><path
             d="m 0,0 0.172,0.172 9.902,9.902 -13.748,0 L -13.748,0 0,0 Z"
             style="fill:#000000;fill-opacity:1;fill-rule:nonzero;stroke:none"
             id="path312" /></g><g
           id="g314"
           transform="translate(353.1442,212.505)"><path
             d="m 0,0 10.074,10.074 0,13.747 L 0,13.747 0,0 Z"
             style="fill:#3f8cfc;fill-opacity:1;fill-rule:nonzero;stroke:none"
             id="path316" /></g><g
           id="g318"
           transform="translate(353.1442,190.2106)"><path
             d="m 0,0 10.074,10.074 0,13.747 L 0,13.748 0,0 Z"
             style="fill:#000000;fill-opacity:1;fill-rule:nonzero;stroke:none"
             id="path320" /></g><g
           id="g322"
           transform="translate(353.1442,323.9762)"><path
             d="m 0,0 10.074,10.074 0,9.02 c 0,1.465 -0.165,2.889 -0.462,4.265 L 0,13.748 0,0 Z"
             style="fill:#000000;fill-opacity:1;fill-rule:nonzero;stroke:none"
             id="path324" /></g><g
           id="g326"
           transform="translate(343.0705,148.7822)"><path
             d="m 0,0 c 11.127,0 20.147,9.02 20.147,20.147 l 0,0.514 L -0.514,0 0,0 Z"
             style="fill:#3f8cfc;fill-opacity:1;fill-rule:nonzero;stroke:none"
             id="path328" /></g><g
           id="g330"
           transform="translate(168.93,363.2173)"><path
             d="m 0,0 c -11.127,0 -20.147,-9.02 -20.147,-20.147 l 0,-0.513 L 0.513,0 0,0 Z"
             style="fill:#3f8cfc;fill-opacity:1;fill-rule:nonzero;stroke:none"
             id="path332" /></g><g
           id="g334"
           transform="translate(353.1442,168.9295)"><path
             d="m 0,0 c 0,-0.362 -0.021,-0.719 -0.059,-1.072 l 10.133,10.133 0,13.747 L 0,12.734 0,0 Z"
             style="fill:#fc354d;fill-opacity:1;fill-rule:nonzero;stroke:none"
             id="path336" /></g><g
           id="g338"
           transform="translate(353.1442,301.6822)"><path
             d="m 0,0 10.074,10.074 0,13.747 L 0,13.747 0,0 Z"
             style="fill:#fc354d;fill-opacity:1;fill-rule:nonzero;stroke:none"
             id="path340" /></g><g
           id="g342"
           transform="translate(353.1442,279.3873)"><path
             d="m 0,0 10.074,10.074 0,13.748 L 0,13.748 0,0 Z"
             style="fill:#3f8cfc;fill-opacity:1;fill-rule:nonzero;stroke:none"
             id="path344" /></g><g
           id="g346"
           transform="translate(353.1442,234.799)"><path
             d="m 0,0 10.074,10.074 0,13.747 L 0,13.747 0,0 Z"
             style="fill:#fc354d;fill-opacity:1;fill-rule:nonzero;stroke:none"
             id="path348" /></g><g
           id="g350"
           transform="translate(353.1442,257.0929)"><path
             d="m 0,0 10.074,10.074 0,13.747 L 0,13.748 0,0 Z"
             style="fill:#000000;fill-opacity:1;fill-rule:nonzero;stroke:none"
             id="path352" /></g><g
           id="g354"
           transform="translate(315.4294,353.1437)"><path
             d="m 0,0 10.074,10.074 -13.748,0 L -13.748,0 0,0 Z"
             style="fill:#000000;fill-opacity:1;fill-rule:nonzero;stroke:none"
             id="path356" /></g><g
           id="g358"
           transform="translate(343.0705,158.8558)"><path
             d="m 0,0 -12.734,0 -10.074,-10.074 13.747,0 L 1.072,0.059 C 0.719,0.021 0.362,0 0,0"
             style="fill:#000000;fill-opacity:1;fill-rule:nonzero;stroke:none"
             id="path360" /></g><g
           id="g362"
           transform="translate(174.2763,158.8558)"><path
             d="m 0,0 -9.612,-9.612 c 1.376,-0.297 2.801,-0.462 4.266,-0.462 l 9.02,0 L 13.748,0 0,0 Z"
             style="fill:#fc354d;fill-opacity:1;fill-rule:nonzero;stroke:none"
             id="path364" /></g><g
           id="g366"
           transform="translate(158.8563,232.6131)"><path
             d="m 0,0 -10.074,-10.074 0,-13.748 L 0,-13.748 0,0 Z"
             style="fill:#3f8cfc;fill-opacity:1;fill-rule:nonzero;stroke:none"
             id="path368" /></g><g
           id="g370"
           transform="translate(308.0419,158.8558)"><path
             d="m 0,0 -10.074,-10.074 13.748,0 L 13.748,0 0,0 Z"
             style="fill:#fc354d;fill-opacity:1;fill-rule:nonzero;stroke:none"
             id="path372" /></g><g
           id="g374"
           transform="translate(158.8563,254.907)"><path
             d="m 0,0 -10.074,-10.074 0,-13.747 L 0,-13.747 0,0 Z"
             style="fill:#000000;fill-opacity:1;fill-rule:nonzero;stroke:none"
             id="path376" /></g><g
           id="g378"
           transform="translate(158.8563,188.0237)"><path
             d="m 0,0 -10.074,-10.074 0,-9.02 c 0,-1.465 0.165,-2.889 0.462,-4.265 L 0,-13.747 0,0 Z"
             style="fill:#000000;fill-opacity:1;fill-rule:nonzero;stroke:none"
             id="path380" /></g><g
           id="g382"
           transform="translate(158.8563,210.3181)"><path
             d="m 0,0 -10.074,-10.074 0,-13.747 L 0,-13.748 0,0 Z"
             style="fill:#fc354d;fill-opacity:1;fill-rule:nonzero;stroke:none"
             id="path384" /></g><g
           id="g386"
           transform="translate(159.2596,166.133)"><path
             d="m 0,0 -7.577,-7.577 c 1.697,-2.816 4.058,-5.176 6.873,-6.874 l 7.577,7.577 C 3.566,-5.915 0.958,-3.308 0,0"
             style="fill:#3f8cfc;fill-opacity:1;fill-rule:nonzero;stroke:none"
             id="path388" /></g><g
           id="g390"
           transform="translate(196.5707,158.8558)"><path
             d="m 0,0 -10.074,-10.074 13.747,0 L 13.747,0 0,0 Z"
             style="fill:#000000;fill-opacity:1;fill-rule:nonzero;stroke:none"
             id="path392" /></g><g
           id="g394"
           transform="translate(241.1596,158.8558)"><path
             d="m 0,0 -10.074,-10.074 13.748,0 L 13.748,0 0,0 Z"
             style="fill:#fc354d;fill-opacity:1;fill-rule:nonzero;stroke:none"
             id="path396" /></g><g
           id="g398"
           transform="translate(158.8563,299.4953)"><path
             d="m 0,0 -10.074,-10.074 0,-13.747 L 0,-13.747 0,0 Z"
             style="fill:#3f8cfc;fill-opacity:1;fill-rule:nonzero;stroke:none"
             id="path400" /></g><g
           id="g402"
           transform="translate(218.8647,158.8558)"><path
             d="m 0,0 -10.074,-10.074 13.748,0 L 13.748,0 0,0 Z"
             style="fill:#3f8cfc;fill-opacity:1;fill-rule:nonzero;stroke:none"
             id="path404" /></g><g
           id="g406"
           transform="translate(263.454,158.8558)"><path
             d="m 0,0 -10.074,-10.074 13.747,0 L 13.747,0 0,0 Z"
             style="fill:#000000;fill-opacity:1;fill-rule:nonzero;stroke:none"
             id="path408" /></g><g
           id="g410"
           transform="translate(285.7479,158.8558)"><path
             d="m 0,0 -10.074,-10.074 13.747,0 L 13.747,0 0,0 Z"
             style="fill:#3f8cfc;fill-opacity:1;fill-rule:nonzero;stroke:none"
             id="path412" /></g><g
           id="g414"
           transform="translate(158.8563,277.2014)"><path
             d="m 0,0 -10.074,-10.074 0,-13.747 L 0,-13.748 0,0 Z"
             style="fill:#fc354d;fill-opacity:1;fill-rule:nonzero;stroke:none"
             id="path416" /></g></g></g></g></svg>