<?xml version="1.0" encoding="UTF-8" standalone="no"?>
<svg
   xmlns:dc="http://purl.org/dc/elements/1.1/"
   xmlns:cc="http://creativecommons.org/ns#"
   xmlns:rdf="http://www.w3.org/1999/02/22-rdf-syntax-ns#"
   xmlns:svg="http://www.w3.org/2000/svg"
   xmlns="http://www.w3.org/2000/svg"
   viewBox="0 0 640 640"
   height="640"
   width="640"
   xml:space="preserve"
   version="1.1"
   id="svg2"><metadata
     id="metadata8"><rdf:RDF><cc:Work
         rdf:about=""><dc:format>image/svg+xml</dc:format><dc:type
           rdf:resource="http://purl.org/dc/dcmitype/StillImage" /></cc:Work></rdf:RDF></metadata><defs
     id="defs6"><clipPath
       id="clipPath16"
       clipPathUnits="userSpaceOnUse"><path
         id="path18"
         d="M 0,512 512,512 512,0 0,0 0,512 Z" /></clipPath><clipPath
       id="clipPath24"
       clipPathUnits="userSpaceOnUse"><path
         id="path26"
         d="m 18.325,493.744 475.4,0 0,-475.4877 -475.4,0 0,475.4877 z" /></clipPath><clipPath
       id="clipPath28"
       clipPathUnits="userSpaceOnUse"><path
         id="path30"
         d="M 448.99,63.029 C 389.293,3.332 122.807,3.332 63.11,63.029 3.413,122.726 3.413,389.312 63.01,449.009 c 59.597,59.696 326.283,59.596 385.98,0 59.697,-59.597 59.597,-326.283 0,-385.98" /></clipPath><radialGradient
       id="radialGradient36"
       spreadMethod="pad"
       gradientTransform="matrix(237.72188,0,0,237.72188,256.02499,256)"
       gradientUnits="userSpaceOnUse"
       r="1"
       cy="0"
       cx="0"
       fy="0"
       fx="0"><stop
         id="stop38"
         offset="0"
         style="stop-opacity:1;stop-color:#ffffff" /><stop
         id="stop40"
         offset="0.8587"
         style="stop-opacity:0.14129854;stop-color:#ffffff" /><stop
         id="stop42"
         offset="1"
         style="stop-opacity:0;stop-color:#ffffff" /></radialGradient><mask
       id="mask44"
       height="1"
       width="1"
       y="0"
       x="0"
       maskUnits="userSpaceOnUse"><g
         id="g46"><g
           id="g48"><g
             id="g50"><g
               id="g52"><path
                 id="path54"
                 style="fill:url(#radialGradient36);stroke:none"
                 d="m -32768,32767 65535,0 0,-65535 -65535,0 0,65535 z" /></g></g></g></g></mask><radialGradient
       id="radialGradient56"
       spreadMethod="pad"
       gradientTransform="matrix(237.72188,0,0,237.72188,256.02499,256)"
       gradientUnits="userSpaceOnUse"
       r="1"
       cy="0"
       cx="0"
       fy="0"
       fx="0"><stop
         id="stop58"
         offset="0"
         style="stop-opacity:1;stop-color:#010101" /><stop
         id="stop60"
         offset="0.8587"
         style="stop-opacity:1;stop-color:#010101" /><stop
         id="stop62"
         offset="1"
         style="stop-opacity:1;stop-color:#010101" /></radialGradient><clipPath
       id="clipPath86"
       clipPathUnits="userSpaceOnUse"><path
         id="path88"
         d="m 18.325,493.744 475.4,0 0,-475.4877 -475.4,0 0,475.4877 z" /></clipPath><clipPath
       id="clipPath90"
       clipPathUnits="userSpaceOnUse"><path
         id="path92"
         d="M 448.99,63.029 C 389.293,3.332 122.807,3.332 63.11,63.029 3.413,122.726 3.413,389.312 63.01,449.009 c 59.597,59.696 326.283,59.596 385.98,0 59.697,-59.597 59.597,-326.283 0,-385.98" /></clipPath><radialGradient
       id="radialGradient98"
       spreadMethod="pad"
       gradientTransform="matrix(188.25467,188.36119,-130.35883,130.27895,256.02499,256.04376)"
       gradientUnits="userSpaceOnUse"
       r="1"
       cy="0"
       cx="0"
       fy="0"
       fx="0"><stop
         id="stop100"
         offset="0"
         style="stop-opacity:1;stop-color:#ffffff" /><stop
         id="stop102"
         offset="0.8587"
         style="stop-opacity:0.14129854;stop-color:#ffffff" /><stop
         id="stop104"
         offset="1"
         style="stop-opacity:0;stop-color:#ffffff" /></radialGradient><mask
       id="mask106"
       height="1"
       width="1"
       y="0"
       x="0"
       maskUnits="userSpaceOnUse"><g
         id="g108"><g
           id="g110"><g
             id="g112"><g
               id="g114"><path
                 id="path116"
                 style="fill:url(#radialGradient98);stroke:none"
                 d="m -32768,32767 65535,0 0,-65535 -65535,0 0,65535 z" /></g></g></g></g></mask><radialGradient
       id="radialGradient118"
       spreadMethod="pad"
       gradientTransform="matrix(188.25467,188.36119,-130.35883,130.27895,256.02499,256.04376)"
       gradientUnits="userSpaceOnUse"
       r="1"
       cy="0"
       cx="0"
       fy="0"
       fx="0"><stop
         id="stop120"
         offset="0"
         style="stop-opacity:1;stop-color:#010101" /><stop
         id="stop122"
         offset="0.8587"
         style="stop-opacity:1;stop-color:#010101" /><stop
         id="stop124"
         offset="1"
         style="stop-opacity:1;stop-color:#010101" /></radialGradient><clipPath
       id="clipPath148"
       clipPathUnits="userSpaceOnUse"><path
         id="path150"
         d="m 18.275,493.694 475.387,0 0,-475.4377 -475.387,0 0,475.4377 z" /></clipPath><clipPath
       id="clipPath152"
       clipPathUnits="userSpaceOnUse"><path
         id="path154"
         d="m 63.01,63.029 c 59.697,-59.697 326.183,-59.697 385.88,0 59.697,59.697 59.697,326.183 0,385.88 -59.697,59.696 -326.183,59.696 -385.88,0.1 -59.697,-59.597 -59.597,-326.283 0,-385.98" /></clipPath><radialGradient
       id="radialGradient160"
       spreadMethod="pad"
       gradientTransform="matrix(-188.28767,188.39421,130.38168,130.30179,255.92499,255.99377)"
       gradientUnits="userSpaceOnUse"
       r="1"
       cy="0"
       cx="0"
       fy="0"
       fx="0"><stop
         id="stop162"
         offset="0"
         style="stop-opacity:1;stop-color:#ffffff" /><stop
         id="stop164"
         offset="0.8587"
         style="stop-opacity:0.14129854;stop-color:#ffffff" /><stop
         id="stop166"
         offset="1"
         style="stop-opacity:0;stop-color:#ffffff" /></radialGradient><mask
       id="mask168"
       height="1"
       width="1"
       y="0"
       x="0"
       maskUnits="userSpaceOnUse"><g
         id="g170"><g
           id="g172"><g
             id="g174"><g
               id="g176"><path
                 id="path178"
                 style="fill:url(#radialGradient160);stroke:none"
                 d="m -32768,32767 65535,0 0,-65535 -65535,0 0,65535 z" /></g></g></g></g></mask><radialGradient
       id="radialGradient180"
       spreadMethod="pad"
       gradientTransform="matrix(-188.28767,188.39421,130.38168,130.30179,255.92499,255.99377)"
       gradientUnits="userSpaceOnUse"
       r="1"
       cy="0"
       cx="0"
       fy="0"
       fx="0"><stop
         id="stop182"
         offset="0"
         style="stop-opacity:1;stop-color:#010101" /><stop
         id="stop184"
         offset="0.8587"
         style="stop-opacity:1;stop-color:#010101" /><stop
         id="stop186"
         offset="1"
         style="stop-opacity:1;stop-color:#010101" /></radialGradient><linearGradient
       id="linearGradient218"
       spreadMethod="pad"
       gradientTransform="matrix(460,0,0,-460,26,256)"
       gradientUnits="userSpaceOnUse"
       y2="0"
       x2="1"
       y1="0"
       x1="0"><stop
         id="stop220"
         offset="0"
         style="stop-opacity:1;stop-color:#f7f7f7" /><stop
         id="stop222"
         offset="1"
         style="stop-opacity:1;stop-color:#f7f7f7" /></linearGradient><clipPath
       id="clipPath230"
       clipPathUnits="userSpaceOnUse"><path
         id="path232"
         d="M 0,512 512,512 512,0 0,0 0,512 Z" /></clipPath></defs><g
     transform="matrix(1.25,0,0,-1.25,0,640)"
     id="g10"><g
       id="g12"><g
         clip-path="url(#clipPath16)"
         id="g14"><g
           id="g20"><g
             id="g22" /><g
             id="g64"><g
               style="opacity:0.39999402"
               id="g66"
               clip-path="url(#clipPath24)"><g
                 id="g68"><g
                   id="g70"
                   clip-path="url(#clipPath28)"><g
                     id="g72"><g
                       id="g74" /><g
                       id="g76"
                       mask="url(#mask44)"><g
                         id="g78"><path
                           id="path80"
                           style="fill:url(#radialGradient56);stroke:none"
                           d="M 448.99,63.029 C 389.293,3.332 122.807,3.332 63.11,63.029 3.413,122.726 3.413,389.312 63.01,449.009 c 59.597,59.696 326.283,59.596 385.98,0 59.697,-59.597 59.597,-326.283 0,-385.98" /></g></g></g></g></g></g></g></g><g
           id="g82"><g
             id="g84" /><g
             id="g126"><g
               style="opacity:0.39999402"
               id="g128"
               clip-path="url(#clipPath86)"><g
                 id="g130"><g
                   id="g132"
                   clip-path="url(#clipPath90)"><g
                     id="g134"><g
                       id="g136" /><g
                       id="g138"
                       mask="url(#mask106)"><g
                         id="g140"><path
                           id="path142"
                           style="fill:url(#radialGradient118);stroke:none"
                           d="M 448.99,63.029 C 389.293,3.332 122.807,3.332 63.11,63.029 3.413,122.726 3.413,389.312 63.01,449.009 c 59.597,59.696 326.283,59.596 385.98,0 59.697,-59.597 59.597,-326.283 0,-385.98" /></g></g></g></g></g></g></g></g><g
           id="g144"><g
             id="g146" /><g
             id="g188"><g
               style="opacity:0.39999402"
               id="g190"
               clip-path="url(#clipPath148)"><g
                 id="g192"><g
                   id="g194"
                   clip-path="url(#clipPath152)"><g
                     id="g196"><g
                       id="g198" /><g
                       id="g200"
                       mask="url(#mask168)"><g
                         id="g202"><path
                           id="path204"
                           style="fill:url(#radialGradient180);stroke:none"
                           d="m 63.01,63.029 c 59.697,-59.697 326.183,-59.697 385.88,0 59.697,59.697 59.697,326.183 0,385.88 -59.697,59.696 -326.183,59.696 -385.88,0.1 -59.697,-59.597 -59.597,-326.283 0,-385.98" /></g></g></g></g></g></g></g></g></g></g><g
       id="g206"><g
         id="g208"><g
           id="g214"><g
             id="g216"><path
               id="path224"
               style="fill:url(#linearGradient218);stroke:none"
               d="M 78.721,433.279 C 8.427,362.985 8.427,149.015 78.721,78.721 l 0,0 c 70.294,-70.294 284.264,-70.294 354.558,0 l 0,0 c 70.294,70.294 70.294,284.264 0,354.558 l 0,0 C 398.132,468.426 327.066,486 256,486 l 0,0 C 184.934,486 113.868,468.426 78.721,433.279" /></g></g></g></g><g
       id="g226"><g
         clip-path="url(#clipPath230)"
         id="g228"><g
           transform="translate(332.955,377.3293)"
           id="g234"><path
             id="path236"
             style="fill:#ddd6b6;fill-opacity:1;fill-rule:nonzero;stroke:none"
             d="m 0,0 c -1.337,-2.214 -2.74,-4.388 -4.126,-6.572 -0.754,-1.188 -2.116,-2.299 -0.978,-3.857 1.127,-1.543 2.781,-2.059 4.688,-1.809 0.894,0.118 1.799,1.031 2.662,0.321 1.532,-1.258 3.144,-2.74 2.458,-4.942 -0.809,-2.601 -2.036,-5.069 -5.307,-5.363 -2.612,-0.234 -3.735,0.946 -3.917,3.577 -0.095,1.373 -0.82,2.795 -2.587,3.09 -1.659,0.276 -3.008,-0.039 -3.818,-1.677 -0.326,-0.659 -0.718,-1.285 -1.591,-1.296 -2.858,-0.063 -5.328,1.507 -8.089,2.012 -1.784,0.327 -2.523,0.143 -3.401,-1.154 -0.959,-1.418 -1.261,-2.614 0.038,-4.15 1.852,-2.189 1.358,-4.235 -1.144,-5.542 -2.529,-1.32 -4.949,-0.416 -7.071,0.943 -2.469,1.582 -3.037,5.808 0.591,6.576 0.79,0.168 1.193,0.652 1.578,1.323 1.779,3.101 0.608,5.013 -3.753,6.096 -7.704,1.915 -15.447,3.696 -23.075,5.876 -1.861,0.532 -2.532,0.07 -3.399,-1.209 -0.913,-1.345 -1.106,-2.573 -0.053,-3.967 2.179,-2.887 1.277,-5.262 -2.232,-5.99 -2.36,-0.489 -4.496,0.165 -6.292,1.658 -2.162,1.797 -1.858,5.734 0.52,6.198 2.536,0.494 2.581,2.185 2.701,4.036 0.126,1.944 -1.164,2.257 -2.724,2.749 -8.257,2.606 -16.811,3.988 -25.131,6.304 -1.387,0.386 -2.483,0.636 -3.235,-0.667 -0.819,-1.418 -2.02,-2.775 -0.252,-4.606 0.863,-0.894 1.641,-2.783 0.664,-3.923 -0.991,-1.156 -2.496,-2.236 -4.273,-2.086 -1.102,0.092 -2.173,0.518 -3.264,0.766 -2.3,0.522 -3.069,2.495 -3.318,4.322 -0.208,1.517 0.939,2.669 2.738,3.168 1.637,0.454 2.03,2.145 2.131,3.725 0.098,1.524 -0.861,2.057 -2.162,2.663 -2.525,1.175 -5.444,0.953 -7.838,2.437 -0.077,0.814 0.447,1.342 0.89,1.918 1.526,1.982 0.911,3.972 -0.215,5.789 -1.045,1.685 -2.762,0.984 -4.224,0.679 -1.042,-0.217 -2.051,-0.586 -2.944,0.219 -0.629,0.566 -1.25,0.671 -1.882,0.594 0.82,0.262 1.643,0.515 2.469,0.763 -59.071,-17.705 -102.121,-72.475 -102.121,-137.309 0,-79.161 64.172,-143.334 143.333,-143.334 79.161,0 143.334,64.173 143.334,143.334 0,49.347 -24.943,92.862 -62.904,118.645 C 3.194,0.519 2.912,0.708 2.629,0.898 0.931,2.035 0.689,1.142 0,0" /></g><g
           transform="translate(308.9494,359.6582)"
           id="g238"><path
             id="path240"
             style="fill:#867459;fill-opacity:1;fill-rule:nonzero;stroke:none"
             d="m 0,0 c -0.96,-1.418 -1.261,-2.614 0.038,-4.151 1.852,-2.188 1.357,-4.234 -1.145,-5.541 -2.528,-1.32 -4.948,-0.417 -7.07,0.943 -2.47,1.582 -3.038,5.808 0.591,6.576 0.79,0.167 1.193,0.651 1.578,1.322 1.778,3.102 0.607,5.014 -3.753,6.097 -7.704,1.914 -15.447,3.695 -23.075,5.876 -1.861,0.532 -2.532,0.07 -3.4,-1.209 -0.912,-1.345 -1.105,-2.573 -0.052,-3.968 2.179,-2.887 1.276,-5.262 -2.232,-5.989 -2.36,-0.489 -4.497,0.164 -6.293,1.657 -2.161,1.797 -1.858,5.735 0.521,6.198 2.535,0.495 2.579,2.186 2.701,4.037 0.126,1.944 -1.164,2.257 -2.724,2.749 -8.257,2.606 -16.812,3.987 -25.131,6.304 -1.389,0.386 -2.484,0.636 -3.236,-0.667 -0.818,-1.418 -2.019,-2.775 -0.251,-4.607 0.863,-0.893 1.641,-2.783 0.663,-3.922 -0.991,-1.156 -2.497,-2.236 -4.273,-2.087 -1.101,0.093 -2.172,0.519 -3.264,0.767 -2.299,0.521 -3.068,2.495 -3.318,4.322 -0.208,1.518 0.939,2.669 2.738,3.168 1.637,0.454 2.03,2.145 2.132,3.724 0.097,1.525 -0.861,2.058 -2.162,2.663 -2.525,1.176 -5.444,0.955 -7.839,2.438 -4.303,-2.386 -6.078,-1.805 -7.459,2.747 -0.518,1.708 -1.772,2.325 -3.099,2.669 -1.441,0.374 -2.911,-0.192 -3.789,-1.502 -2.067,-3.082 -4.058,-6.217 -6.055,-9.345 -0.831,-1.3 -0.54,-2.103 0.904,-2.928 3.127,-1.788 6.05,-3.929 9.16,-5.75 1.365,-0.799 2.525,-1.509 2.002,-3.276 -0.513,-1.731 -1.193,-3.396 -3.465,-3.348 -2.694,0.055 -3.339,-1.579 -3.192,-3.864 0.18,-2.785 3.9,-5.528 6.92,-5.106 3.285,0.459 4.04,1.521 2.989,4.68 -0.565,1.695 -0.193,2.867 1.087,4.014 1.395,1.25 2.554,1.184 4.124,0.138 7.022,-4.672 14.108,-9.251 21.239,-13.758 1.3,-0.822 2.621,-1.434 2.132,-3.217 -0.505,-1.84 -1.199,-3.544 -3.677,-3.472 -2.25,0.066 -2.994,-1.338 -3.04,-3.426 -0.059,-2.652 1.833,-3.711 3.664,-4.894 1.97,-1.272 3.969,-0.899 5.754,0.173 1.878,1.127 0.897,2.815 0.392,4.336 -0.522,1.571 0.115,2.648 1.366,3.655 1.231,0.992 2.27,1.158 3.623,0.272 2.931,-1.915 5.886,-3.802 8.917,-5.553 1.662,-0.959 1.507,-1.825 0.542,-3.222 -1.757,-2.541 -3.223,-5.284 -5.006,-7.804 -1.244,-1.759 -0.717,-3.308 0.111,-4.86 0.893,-1.672 2.342,-1.683 4.022,-1.206 1.35,0.384 2.979,0.841 4.009,-0.518 1.226,-1.617 1.914,-3.487 0.621,-5.469 -1.167,-1.789 -2.026,-4.091 -4.703,-3.914 -2.376,0.157 -3.653,1.671 -3.926,4.026 -0.224,1.933 -1.794,2.538 -3.269,2.803 -1.427,0.256 -2.844,-0.305 -3.725,-1.676 -1.951,-3.035 -3.918,-6.06 -5.855,-9.104 -0.779,-1.222 -0.802,-2.079 0.756,-2.957 3.136,-1.767 6.05,-3.926 9.158,-5.75 1.342,-0.787 2.606,-1.449 2.11,-3.228 -0.511,-1.841 -1.215,-3.524 -3.692,-3.453 -2.246,0.065 -2.983,-1.36 -3.019,-3.445 -0.047,-2.651 1.85,-3.707 3.683,-4.883 1.968,-1.262 3.965,-0.896 5.751,0.192 1.886,1.15 0.864,2.822 0.367,4.344 -0.513,1.57 0.138,2.645 1.391,3.65 1.241,0.996 2.272,1.121 3.624,0.248 3.201,-2.067 6.546,-3.918 9.678,-6.082 1.438,-0.994 2.133,-0.757 2.964,0.571 1.807,2.888 3.82,5.657 5.484,8.623 1.037,1.847 2.357,2.704 4.342,2.287 1.92,-0.404 2.493,-2.013 2.631,-3.731 0.111,-1.369 0.541,-2.565 1.932,-2.824 2.373,-0.44 4.632,0.122 5.934,2.277 1.115,1.844 1.817,3.82 0.535,6.123 -1.302,2.338 -2.981,2.031 -4.953,1.405 -1.927,-0.611 -3.049,0.722 -4.148,1.898 -1.02,1.094 -0.234,2.21 0.343,3.134 4.432,7.09 8.988,14.103 13.343,21.239 1.093,1.791 2.343,2.711 4.338,2.291 1.923,-0.406 2.495,-2.012 2.635,-3.727 0.112,-1.37 0.539,-2.57 1.928,-2.828 2.369,-0.439 4.632,0.114 5.936,2.27 1.115,1.844 1.821,3.821 0.539,6.123 -1.298,2.332 -2.973,2.044 -4.949,1.41 -1.927,-0.617 -3.077,0.697 -4.143,1.898 -1.083,1.219 -0.128,2.357 0.512,3.381 1.862,2.976 4.067,5.773 5.62,8.898 1.822,3.664 4.648,6.778 5.799,10.787 C 8.633,-0.922 6.162,0.648 3.402,1.154 1.616,1.482 0.878,1.297 0,0" /></g></g></g></g></svg>