<?xml version="1.0" encoding="UTF-8" standalone="no"?>
<svg
   xmlns:dc="http://purl.org/dc/elements/1.1/"
   xmlns:cc="http://creativecommons.org/ns#"
   xmlns:rdf="http://www.w3.org/1999/02/22-rdf-syntax-ns#"
   xmlns:svg="http://www.w3.org/2000/svg"
   xmlns="http://www.w3.org/2000/svg"
   viewBox="0 0 640 640"
   height="640"
   width="640"
   xml:space="preserve"
   version="1.1"
   id="svg2"><metadata
     id="metadata8"><rdf:RDF><cc:Work
         rdf:about=""><dc:format>image/svg+xml</dc:format><dc:type
           rdf:resource="http://purl.org/dc/dcmitype/StillImage" /></cc:Work></rdf:RDF></metadata><defs
     id="defs6"><clipPath
       id="clipPath16"
       clipPathUnits="userSpaceOnUse"><path
         id="path18"
         d="M 0,512 512,512 512,0 0,0 0,512 Z" /></clipPath><clipPath
       id="clipPath24"
       clipPathUnits="userSpaceOnUse"><path
         id="path26"
         d="m 18.325,493.744 475.4,0 0,-475.4877 -475.4,0 0,475.4877 z" /></clipPath><clipPath
       id="clipPath28"
       clipPathUnits="userSpaceOnUse"><path
         id="path30"
         d="M 448.99,63.029 C 389.293,3.332 122.807,3.332 63.11,63.029 3.413,122.726 3.413,389.312 63.01,449.009 c 59.597,59.696 326.283,59.596 385.98,0 59.697,-59.597 59.597,-326.283 0,-385.98" /></clipPath><radialGradient
       id="radialGradient36"
       spreadMethod="pad"
       gradientTransform="matrix(237.72188,0,0,237.72188,256.02499,256)"
       gradientUnits="userSpaceOnUse"
       r="1"
       cy="0"
       cx="0"
       fy="0"
       fx="0"><stop
         id="stop38"
         offset="0"
         style="stop-opacity:1;stop-color:#ffffff" /><stop
         id="stop40"
         offset="0.8587"
         style="stop-opacity:0.14129854;stop-color:#ffffff" /><stop
         id="stop42"
         offset="1"
         style="stop-opacity:0;stop-color:#ffffff" /></radialGradient><mask
       id="mask44"
       height="1"
       width="1"
       y="0"
       x="0"
       maskUnits="userSpaceOnUse"><g
         id="g46"><g
           id="g48"><g
             id="g50"><g
               id="g52"><path
                 id="path54"
                 style="fill:url(#radialGradient36);stroke:none"
                 d="m -32768,32767 65535,0 0,-65535 -65535,0 0,65535 z" /></g></g></g></g></mask><radialGradient
       id="radialGradient56"
       spreadMethod="pad"
       gradientTransform="matrix(237.72188,0,0,237.72188,256.02499,256)"
       gradientUnits="userSpaceOnUse"
       r="1"
       cy="0"
       cx="0"
       fy="0"
       fx="0"><stop
         id="stop58"
         offset="0"
         style="stop-opacity:1;stop-color:#010101" /><stop
         id="stop60"
         offset="0.8587"
         style="stop-opacity:1;stop-color:#010101" /><stop
         id="stop62"
         offset="1"
         style="stop-opacity:1;stop-color:#010101" /></radialGradient><clipPath
       id="clipPath86"
       clipPathUnits="userSpaceOnUse"><path
         id="path88"
         d="m 18.325,493.744 475.4,0 0,-475.4877 -475.4,0 0,475.4877 z" /></clipPath><clipPath
       id="clipPath90"
       clipPathUnits="userSpaceOnUse"><path
         id="path92"
         d="M 448.99,63.029 C 389.293,3.332 122.807,3.332 63.11,63.029 3.413,122.726 3.413,389.312 63.01,449.009 c 59.597,59.696 326.283,59.596 385.98,0 59.697,-59.597 59.597,-326.283 0,-385.98" /></clipPath><radialGradient
       id="radialGradient98"
       spreadMethod="pad"
       gradientTransform="matrix(188.25467,188.36119,-130.35883,130.27895,256.02499,256.04376)"
       gradientUnits="userSpaceOnUse"
       r="1"
       cy="0"
       cx="0"
       fy="0"
       fx="0"><stop
         id="stop100"
         offset="0"
         style="stop-opacity:1;stop-color:#ffffff" /><stop
         id="stop102"
         offset="0.8587"
         style="stop-opacity:0.14129854;stop-color:#ffffff" /><stop
         id="stop104"
         offset="1"
         style="stop-opacity:0;stop-color:#ffffff" /></radialGradient><mask
       id="mask106"
       height="1"
       width="1"
       y="0"
       x="0"
       maskUnits="userSpaceOnUse"><g
         id="g108"><g
           id="g110"><g
             id="g112"><g
               id="g114"><path
                 id="path116"
                 style="fill:url(#radialGradient98);stroke:none"
                 d="m -32768,32767 65535,0 0,-65535 -65535,0 0,65535 z" /></g></g></g></g></mask><radialGradient
       id="radialGradient118"
       spreadMethod="pad"
       gradientTransform="matrix(188.25467,188.36119,-130.35883,130.27895,256.02499,256.04376)"
       gradientUnits="userSpaceOnUse"
       r="1"
       cy="0"
       cx="0"
       fy="0"
       fx="0"><stop
         id="stop120"
         offset="0"
         style="stop-opacity:1;stop-color:#010101" /><stop
         id="stop122"
         offset="0.8587"
         style="stop-opacity:1;stop-color:#010101" /><stop
         id="stop124"
         offset="1"
         style="stop-opacity:1;stop-color:#010101" /></radialGradient><clipPath
       id="clipPath148"
       clipPathUnits="userSpaceOnUse"><path
         id="path150"
         d="m 18.275,493.694 475.387,0 0,-475.4377 -475.387,0 0,475.4377 z" /></clipPath><clipPath
       id="clipPath152"
       clipPathUnits="userSpaceOnUse"><path
         id="path154"
         d="m 63.01,63.029 c 59.697,-59.697 326.183,-59.697 385.88,0 59.697,59.697 59.697,326.183 0,385.88 -59.697,59.696 -326.183,59.696 -385.88,0.1 -59.697,-59.597 -59.597,-326.283 0,-385.98" /></clipPath><radialGradient
       id="radialGradient160"
       spreadMethod="pad"
       gradientTransform="matrix(-188.28767,188.39421,130.38168,130.30179,255.92499,255.99377)"
       gradientUnits="userSpaceOnUse"
       r="1"
       cy="0"
       cx="0"
       fy="0"
       fx="0"><stop
         id="stop162"
         offset="0"
         style="stop-opacity:1;stop-color:#ffffff" /><stop
         id="stop164"
         offset="0.8587"
         style="stop-opacity:0.14129854;stop-color:#ffffff" /><stop
         id="stop166"
         offset="1"
         style="stop-opacity:0;stop-color:#ffffff" /></radialGradient><mask
       id="mask168"
       height="1"
       width="1"
       y="0"
       x="0"
       maskUnits="userSpaceOnUse"><g
         id="g170"><g
           id="g172"><g
             id="g174"><g
               id="g176"><path
                 id="path178"
                 style="fill:url(#radialGradient160);stroke:none"
                 d="m -32768,32767 65535,0 0,-65535 -65535,0 0,65535 z" /></g></g></g></g></mask><radialGradient
       id="radialGradient180"
       spreadMethod="pad"
       gradientTransform="matrix(-188.28767,188.39421,130.38168,130.30179,255.92499,255.99377)"
       gradientUnits="userSpaceOnUse"
       r="1"
       cy="0"
       cx="0"
       fy="0"
       fx="0"><stop
         id="stop182"
         offset="0"
         style="stop-opacity:1;stop-color:#010101" /><stop
         id="stop184"
         offset="0.8587"
         style="stop-opacity:1;stop-color:#010101" /><stop
         id="stop186"
         offset="1"
         style="stop-opacity:1;stop-color:#010101" /></radialGradient></defs><g
     transform="matrix(1.25,0,0,-1.25,0,640)"
     id="g10"><g
       id="g12"><g
         clip-path="url(#clipPath16)"
         id="g14"><g
           id="g20"><g
             id="g22" /><g
             id="g64"><g
               style="opacity:0.39999402"
               id="g66"
               clip-path="url(#clipPath24)"><g
                 id="g68"><g
                   id="g70"
                   clip-path="url(#clipPath28)"><g
                     id="g72"><g
                       id="g74" /><g
                       id="g76"
                       mask="url(#mask44)"><g
                         id="g78"><path
                           id="path80"
                           style="fill:url(#radialGradient56);stroke:none"
                           d="M 448.99,63.029 C 389.293,3.332 122.807,3.332 63.11,63.029 3.413,122.726 3.413,389.312 63.01,449.009 c 59.597,59.696 326.283,59.596 385.98,0 59.697,-59.597 59.597,-326.283 0,-385.98" /></g></g></g></g></g></g></g></g><g
           id="g82"><g
             id="g84" /><g
             id="g126"><g
               style="opacity:0.39999402"
               id="g128"
               clip-path="url(#clipPath86)"><g
                 id="g130"><g
                   id="g132"
                   clip-path="url(#clipPath90)"><g
                     id="g134"><g
                       id="g136" /><g
                       id="g138"
                       mask="url(#mask106)"><g
                         id="g140"><path
                           id="path142"
                           style="fill:url(#radialGradient118);stroke:none"
                           d="M 448.99,63.029 C 389.293,3.332 122.807,3.332 63.11,63.029 3.413,122.726 3.413,389.312 63.01,449.009 c 59.597,59.696 326.283,59.596 385.98,0 59.697,-59.597 59.597,-326.283 0,-385.98" /></g></g></g></g></g></g></g></g><g
           id="g144"><g
             id="g146" /><g
             id="g188"><g
               style="opacity:0.39999402"
               id="g190"
               clip-path="url(#clipPath148)"><g
                 id="g192"><g
                   id="g194"
                   clip-path="url(#clipPath152)"><g
                     id="g196"><g
                       id="g198" /><g
                       id="g200"
                       mask="url(#mask168)"><g
                         id="g202"><path
                           id="path204"
                           style="fill:url(#radialGradient180);stroke:none"
                           d="m 63.01,63.029 c 59.697,-59.697 326.183,-59.697 385.88,0 59.697,59.697 59.697,326.183 0,385.88 -59.697,59.696 -326.183,59.696 -385.88,0.1 -59.697,-59.597 -59.597,-326.283 0,-385.98" /></g></g></g></g></g></g></g></g><g
           transform="translate(433.2792,78.7208)"
           id="g206"><path
             id="path208"
             style="fill:#1e1e1d;fill-opacity:1;fill-rule:nonzero;stroke:none"
             d="m 0,0 c -70.294,-70.294 -284.264,-70.294 -354.558,0 -70.295,70.294 -70.295,284.264 0,354.558 70.294,70.295 284.264,70.295 354.558,0 C 70.294,284.264 70.294,70.294 0,0" /></g><g
           transform="translate(209.9509,265.9547)"
           id="g210"><path
             id="path212"
             style="fill:#82c223;fill-opacity:1;fill-rule:nonzero;stroke:none"
             d="m 0,0 16.894,0 c 4.58,0 8.301,-1.602 11.163,-4.923 2.577,-3.306 3.58,-7.387 3.005,-12.039 -0.719,-4.652 -2.862,-8.633 -6.586,-11.985 -3.724,-3.378 -7.873,-5.093 -12.597,-5.093 -4.724,0 -8.446,1.718 -11.164,5.093 -2.721,3.352 -3.724,7.329 -3.149,11.985 L 0,0 Z m -8.089,25.369 -2.102,-14.5 -12.697,0 c -7.716,0 -14.86,-2.735 -21.432,-8.189 -1.733,-1.431 -3.276,-2.923 -4.653,-4.508 -0.773,1.588 -1.732,3.077 -2.902,4.508 -4.495,5.454 -10.636,8.189 -18.352,8.189 l -16.408,0 c -0.589,-3.064 0,-5.669 1.732,-7.833 1.75,-2.163 4.139,-3.262 7.217,-3.262 l 5.371,0 c 4.597,0 8.188,-1.646 10.779,-4.967 2.592,-3.317 3.465,-7.298 2.592,-11.896 -0.873,-4.611 -3.222,-8.53 -7.073,-11.81 -3.851,-3.262 -8.116,-4.922 -12.696,-4.922 l -5.371,0 c -3.078,0 -5.885,-1.058 -8.459,-3.222 -2.575,-2.163 -4.166,-4.754 -4.741,-7.832 l 16.462,0 c 7.716,0 14.819,2.691 21.385,8.103 1.718,1.417 3.276,2.937 4.638,4.522 0.774,-1.589 1.777,-3.105 2.965,-4.522 4.494,-5.412 10.581,-8.103 18.293,-8.103 l 16.463,0 c 0.588,3.077 0,5.669 -1.75,7.832 -1.749,2.164 -4.179,3.222 -7.243,3.222 l -5.323,0 c -4.611,0 -8.219,1.66 -10.825,4.922 -2.618,3.276 -3.491,7.203 -2.605,11.81 0.873,4.598 3.249,8.575 7.114,11.896 3.865,3.324 8.116,4.967 12.71,4.967 l 5.371,0 c 2.992,0 5.741,1.072 8.274,3.136 l -2.903,-19.872 c -1.16,-7.846 0.671,-14.487 5.542,-19.985 4.755,-5.583 11.15,-8.328 18.883,-8.328 7.873,0 15.031,2.748 21.474,8.328 6.442,5.498 10.307,12.139 11.454,19.985 1.147,7.86 -0.719,14.501 -5.44,19.998 -4.867,5.454 -11.307,8.233 -19.18,8.233 l -16.75,0 0.284,2.191 c 0.572,3.235 -0.143,6.069 -2.29,8.418 -1.869,2.345 -4.542,3.491 -7.808,3.491" /></g><g
           transform="translate(284.6763,277.2205)"
           id="g214"><path
             id="path216"
             style="fill:#ffffff;fill-opacity:1;fill-rule:nonzero;stroke:none"
             d="m 0,0 c -7.873,0 -15.031,-2.763 -21.33,-8.274 -6.443,-5.597 -10.307,-12.228 -11.454,-20.084 l -4.153,-28.187 c 3.29,0 6.299,1.103 8.877,3.451 2.721,2.304 4.293,5.094 4.724,8.404 l 2.434,16.332 c 0.719,4.693 2.862,8.716 6.586,12.125 3.725,3.324 8.017,4.967 12.598,4.967 4.724,0 8.445,-1.646 11.163,-4.967 2.721,-3.406 3.724,-7.428 3.005,-12.125 L 10.16,-44.69 c -0.572,-3.249 0.284,-5.97 2.29,-8.315 2.003,-2.335 4.58,-3.536 7.874,-3.536 l 4.152,28.186 c 0.572,4.694 2.862,8.716 6.586,12.126 3.725,3.323 7.874,4.967 12.598,4.967 4.58,0 8.301,-1.647 11.022,-4.967 2.722,-3.407 3.865,-7.429 3.15,-12.126 l -2.434,-16.332 c -0.428,-3.248 0.284,-5.97 2.29,-8.315 2.003,-2.334 4.58,-3.536 7.873,-3.536 l 2.003,13.2 c 0.859,-1.732 1.859,-3.379 3.29,-4.923 4.868,-5.511 11.163,-8.273 18.896,-8.273 l 16.75,0 c 0.428,3.104 -0.284,5.771 -2.15,7.976 -1.859,2.177 -4.437,3.262 -7.446,3.262 l -5.439,0 c -4.724,0 -8.445,1.688 -11.163,5.012 -2.862,3.306 -3.865,7.284 -3.29,11.936 0.719,4.694 3.006,8.716 6.727,12.125 3.724,3.324 8.017,4.967 12.597,4.967 l 5.44,0 c 3.149,0 6.011,1.161 8.589,3.352 2.433,2.191 3.864,4.782 4.292,7.914 l -16.606,0 c -7.873,0 -14.887,-2.762 -21.33,-8.274 -3.149,-2.749 -5.724,-5.758 -7.589,-9.034 -0.859,3.29 -2.578,6.313 -4.868,9.034 -4.868,5.512 -11.163,8.274 -19.04,8.274 -4.293,0 -8.589,-1.016 -12.885,-2.992 -4.293,-1.975 -8.161,-4.624 -11.307,-8.102 -2.29,3.478 -5.295,6.213 -8.876,8.188 C 8.445,-0.986 4.436,0 0,0" /></g></g></g></g></svg>