<?xml version="1.0" encoding="utf-8"?>
<!-- Generator: Adobe Illustrator 18.0.0, SVG Export Plug-In . SVG Version: 6.00 Build 0)  -->
<!DOCTYPE svg PUBLIC "-//W3C//DTD SVG 1.1//EN" "http://www.w3.org/Graphics/SVG/1.1/DTD/svg11.dtd">
<svg version="1.1" id="Layer_1" xmlns="http://www.w3.org/2000/svg" xmlns:xlink="http://www.w3.org/1999/xlink" x="0px" y="0px"
	 viewBox="0 0 512 512" enable-background="new 0 0 512 512" xml:space="preserve">
<g>
	<g>
		<g opacity="0.4" enable-background="new    ">
			
				<radialGradient id="SVGID_1_" cx="256.525" cy="254.5188" r="237.7344" gradientTransform="matrix(1 0 0 1 -0.5 1.5)" gradientUnits="userSpaceOnUse">
				<stop  offset="0" style="stop-color:#010101"/>
				<stop  offset="0.8587" style="stop-color:#010101;stop-opacity:0.1413"/>
				<stop  offset="1" style="stop-color:#010101;stop-opacity:0"/>
			</radialGradient>
			<path fill="url(#SVGID_1_)" d="M449,449c-59.7,59.7-326.2,59.7-385.9,0S3.4,122.7,63,63s326.3-59.6,386,0S508.6,389.3,449,449z"
				/>
		</g>
		<g opacity="0.4" enable-background="new    ">
			
				<radialGradient id="SVGID_2_" cx="257.0394" cy="253.9629" r="266.3242" gradientTransform="matrix(0.7069 -0.7073 0.4895 0.4892 -49.991 313.5403)" gradientUnits="userSpaceOnUse">
				<stop  offset="0" style="stop-color:#010101"/>
				<stop  offset="0.8587" style="stop-color:#010101;stop-opacity:0.1413"/>
				<stop  offset="1" style="stop-color:#010101;stop-opacity:0"/>
			</radialGradient>
			<path fill="url(#SVGID_2_)" d="M449,449c-59.7,59.7-326.2,59.7-385.9,0S3.4,122.7,63,63s326.3-59.6,386,0S508.6,389.3,449,449z"
				/>
		</g>
		<g opacity="0.4" enable-background="new    ">
			
				<radialGradient id="SVGID_3_" cx="257.7463" cy="255.0872" r="266.3709" gradientTransform="matrix(-0.7069 -0.7073 -0.4895 0.4892 562.991 313.5403)" gradientUnits="userSpaceOnUse">
				<stop  offset="0" style="stop-color:#010101"/>
				<stop  offset="0.8587" style="stop-color:#010101;stop-opacity:0.1413"/>
				<stop  offset="1" style="stop-color:#010101;stop-opacity:0"/>
			</radialGradient>
			<path fill="url(#SVGID_3_)" d="M63,449c59.7,59.7,326.2,59.7,385.9,0s59.7-326.2,0-385.9S122.7,3.4,63,63S3.4,389.3,63,449z"/>
		</g>
	</g>
	
		<radialGradient id="SVGID_4_" cx="250.5" cy="819.5" r="261.0019" gradientTransform="matrix(1 0 0 1 -0.5 -565.5)" gradientUnits="userSpaceOnUse">
		<stop  offset="0" style="stop-color:#FFFFFF"/>
		<stop  offset="1" style="stop-color:#E5E5E5"/>
	</radialGradient>
	<path fill="url(#SVGID_4_)" d="M433.3,433.3c-70.3,70.3-284.3,70.3-354.6,0S8.4,149,78.7,78.7s284.3-70.3,354.6,0
		S503.6,363,433.3,433.3z"/>
</g>
<g>
	<g>
		<path fill="#4F4F4F" d="M353.3,325.3h-89.1c-4.1,0-7.5-3.4-7.5-7.5l0,0c0-4.1,3.4-7.5,7.5-7.5h89.1c4.1,0,7.5,3.4,7.5,7.5l0,0
			C360.8,321.9,357.4,325.3,353.3,325.3z"/>
		<path fill="#4F4F4F" d="M294.9,235.8c0,73.6-27.1,73.6-27.1,73.6h82c0,0-27.8,0-27.8-73.6H294.9z"/>
		<path fill="#4F4F4F" d="M325,234.4h-32.7c-4.2,0-7.6-3.4-7.6-7.6v0c0-4.2,3.4-7.6,7.6-7.6H325c4.2,0,7.6,3.4,7.6,7.6v0
			C332.7,231,329.3,234.4,325,234.4z"/>
		<path fill="#4F4F4F" d="M351.9,361h-86.4c-9.6,0-17.4-7.8-17.4-17.4v0c0-9.6,7.8-17.4,17.4-17.4h86.4c9.6,0,17.4,7.8,17.4,17.4v0
			C369.3,353.2,361.5,361,351.9,361z"/>
		<circle fill="#4F4F4F" cx="308.7" cy="190.4" r="28.2"/>
		<path fill="#4F4F4F" d="M359.9,376.9H257.6c-4.1,0-7.5-3.4-7.5-7.5v0c0-4.1,3.4-7.5,7.5-7.5h102.3c4.1,0,7.5,3.4,7.5,7.5v0
			C367.4,373.5,364,376.9,359.9,376.9z"/>
	</g>
	<g>
		<path d="M261.9,288.1h-79.5c-21.9,0-39.7,20-39.7,44.8s21.7,44.8,21.7,44.8h115.6c0,0,21.7-20,21.7-44.8S283.8,288.1,261.9,288.1z
			"/>
		<path d="M271.6,287.2h-98.9c-4.6,0-8.3-3.7-8.3-8.3l0,0c0-4.6,3.7-8.3,8.3-8.3h98.9c4.6,0,8.3,3.7,8.3,8.3l0,0
			C279.9,283.4,276.2,287.2,271.6,287.2z"/>
		<path d="M283.7,396.2H160.5c-4.1-1-7.4-4.7-7.4-9.3v0c0-4.6,3.3-8.3,7.4-8.3h123.2c4.1,0,7.4,3.7,7.4,8.3v0
			C291.1,391.6,287.8,395.3,283.7,396.2z"/>
		<polygon points="192.9,191.8 181,269.6 263.3,269.6 251.3,191.8 		"/>
		<path d="M249.3,190.9H195c-4.7,0-8.5-3.8-8.5-8.5v0c0-4.7,3.8-8.5,8.5-8.5h54.3c4.7,0,8.5,3.8,8.5,8.5v0
			C257.8,187.1,254,190.9,249.3,190.9z"/>
		<g>
			<path d="M254.9,115.8v11.4c0,5.6-3.6,10.1-8.1,10.1h0v-21.5h-8.4v21.5l0,0c-3.7,0-6.8-3.8-6.8-8.4v-13.1h-19v13.1
				c0,4.6-3,8.4-6.7,8.4h0v-21.5h-8.4v21.5h0c-4.5,0-8.1-4.5-8.1-10.1v-11.4h-15.3v21.5h0v0c0,9.7,3.5,18.8,9.6,24.8l11,10.9h54.9
				l11-10.9c6.1-6,9.6-15.2,9.6-24.8v0h0v-21.5H254.9z"/>
		</g>
	</g>
</g>
</svg>
