<?xml version="1.0" encoding="utf-8"?>
<!-- Generator: Adobe Illustrator 18.0.0, SVG Export Plug-In . SVG Version: 6.00 Build 0)  -->
<!DOCTYPE svg PUBLIC "-//W3C//DTD SVG 1.1//EN" "http://www.w3.org/Graphics/SVG/1.1/DTD/svg11.dtd">
<svg version="1.1" id="Layer_1" xmlns="http://www.w3.org/2000/svg" xmlns:xlink="http://www.w3.org/1999/xlink" x="0px" y="0px"
	 viewBox="0 0 512 512" enable-background="new 0 0 512 512" xml:space="preserve">
<path fill="#BFBEBE" d="M256,22C126.8,22,22,126.8,22,256s104.8,234,234,234s234-104.8,234-234S385.2,22,256,22z M374.7,288.5
	l-98,98v0h0l-16.1,16.1l-0.3,0.3c-1.1,1.1-2.7,1.8-4.4,1.8c-1.7,0-3.2-0.7-4.4-1.8l-0.2-0.2l-16.1-16.1h0v0l-8.6-8.6l0,0l-89.4-89.4
	l0,0c-8.1-8.1-8.1-21.2,0-29.3c8.1-8.1,21.2-8.1,29.3,0c0,0,0.1,0.1,0.1,0.1l68.6,68.6V128.6h0c-0.1-5.4,1.9-10.9,6-15
	c8.1-8.1,21.2-8.1,29.3,0c4.1,4.1,6.1,9.6,6,15h0v199.3l68-68c0.2-0.2,0.4-0.5,0.6-0.7c8.1-8.1,21.2-8.1,29.3,0
	C382.7,267.2,382.7,280.3,374.7,288.5L374.7,288.5z"/>
</svg>
