<?xml version="1.0" encoding="UTF-8" standalone="no"?>
<!-- Generator: Adobe Illustrator 18.0.0, SVG Export Plug-In . SVG Version: 6.00 Build 0)  -->

<svg
   xmlns:dc="http://purl.org/dc/elements/1.1/"
   xmlns:cc="http://creativecommons.org/ns#"
   xmlns:rdf="http://www.w3.org/1999/02/22-rdf-syntax-ns#"
   xmlns:svg="http://www.w3.org/2000/svg"
   xmlns="http://www.w3.org/2000/svg"
   xmlns:sodipodi="http://sodipodi.sourceforge.net/DTD/sodipodi-0.dtd"
   xmlns:inkscape="http://www.inkscape.org/namespaces/inkscape"
   version="1.1"
   id="Layer_1"
   x="0px"
   y="0px"
   viewBox="0 0 512 512"
   enable-background="new 0 0 512 512"
   xml:space="preserve"
   sodipodi:docname="folder-documents-symbolic.svg"
   inkscape:version="0.92.3 (2405546, 2018-03-11)"><metadata
   id="metadata11"><rdf:RDF><cc:Work
       rdf:about=""><dc:format>image/svg+xml</dc:format><dc:type
         rdf:resource="http://purl.org/dc/dcmitype/StillImage" /><dc:title></dc:title></cc:Work></rdf:RDF></metadata><defs
   id="defs9" /><sodipodi:namedview
   pagecolor="#ffffff"
   bordercolor="#666666"
   borderopacity="1"
   objecttolerance="10"
   gridtolerance="10"
   guidetolerance="10"
   inkscape:pageopacity="0"
   inkscape:pageshadow="2"
   inkscape:window-width="1530"
   inkscape:window-height="941"
   id="namedview7"
   showgrid="false"
   inkscape:zoom="0.921875"
   inkscape:cx="390.50848"
   inkscape:cy="308.0678"
   inkscape:window-x="94"
   inkscape:window-y="127"
   inkscape:window-maximized="0"
   inkscape:current-layer="layer1" />

<g
   inkscape:groupmode="layer"
   id="layer1"
   inkscape:label="Layer 1"><g
     style=""
     id="g4">
	
</g><path
     inkscape:connector-curvature="0"
     style="fill:#bebebe;fill-opacity:1;stroke:none;stroke-width:0.33966205;stroke-opacity:0.56818183"
     d="m 91.154711,26.000001 c -36.095733,0 -65.154713,29.05898 -65.154713,65.154718 V 420.84528 C 25.999998,456.94103 55.058978,486 91.154711,486 H 420.84528 C 456.94102,486 486,456.94103 486,420.84528 V 91.154719 C 486,55.058981 456.94102,26.000001 420.84528,26.000001 Z M 239.94167,46.847635 h 5.42723 c -10.98874,0 -19.72702,8.739204 -19.72702,19.86033 V 185.06868 c 0,18.93238 -15.48993,34.42233 -34.42234,34.42233 H 72.99067 c -10.988726,0 -19.858865,8.73771 -19.858865,19.85886 v -5.562 c 0,-5.03101 1.059465,-9.79548 3.045407,-14.29686 1.456329,-3.97185 3.970632,-7.28265 6.883293,-10.1953 L 215.4495,56.7778 c 2.91268,-2.912652 6.48533,-5.162156 10.19238,-6.883294 4.50141,-1.985922 9.26879,-3.046871 14.29979,-3.046871 z"
     id="rect1368"
     sodipodi:nodetypes="sssssssssscsssscsccccs" /></g><g
   inkscape:groupmode="layer"
   id="layer2"
   inkscape:label="Layer 2" /></svg>