<?xml version="1.0" encoding="utf-8"?>
<!-- Generator: Adobe Illustrator 18.0.0, SVG Export Plug-In . SVG Version: 6.00 Build 0)  -->
<!DOCTYPE svg PUBLIC "-//W3C//DTD SVG 1.1//EN" "http://www.w3.org/Graphics/SVG/1.1/DTD/svg11.dtd">
<svg version="1.1" id="Layer_1" xmlns="http://www.w3.org/2000/svg" xmlns:xlink="http://www.w3.org/1999/xlink" x="0px" y="0px"
	 viewBox="0 0 512 512" enable-background="new 0 0 512 512" xml:space="preserve">
<g>
	<path opacity="0.7" fill="#BFBEBE" d="M469.3,40.5H266.1c-6.4,0-12.4,2.9-16.3,7.9l-11,13.9c-3.9,4.9-9.8,7.8-16.1,7.8h-180
		C31.3,70.1,22,79.4,22,90.8v91.1c0-11,9-20,20-20h428c11,0,20,9,20,20V70.1v-8.8C490,49.8,480.7,40.5,469.3,40.5z"/>
	<path fill="#BFBEBE" d="M470,161.9H42c-11,0-20,9-20,20v279v0.5c0,5.5,4.5,10,10,10h0.5h446.9h0.5c5.5,0,10-4.5,10-10v-0.5v-279
		C490,170.9,481,161.9,470,161.9z"/>
</g>
</svg>
