<?xml version="1.0" encoding="utf-8"?>
<!-- Generator: Adobe Illustrator 18.0.0, SVG Export Plug-In . SVG Version: 6.00 Build 0)  -->
<!DOCTYPE svg PUBLIC "-//W3C//DTD SVG 1.1//EN" "http://www.w3.org/Graphics/SVG/1.1/DTD/svg11.dtd">
<svg version="1.1"
	 id="Layer_2" xmlns:dc="http://purl.org/dc/elements/1.1/" xmlns:rdf="http://www.w3.org/1999/02/22-rdf-syntax-ns#" xmlns:cc="http://creativecommons.org/ns#" xmlns:svg="http://www.w3.org/2000/svg"
	 xmlns="http://www.w3.org/2000/svg" xmlns:xlink="http://www.w3.org/1999/xlink" x="0px" y="0px" viewBox="0 0 1024 1024"
	 enable-background="new 0 0 1024 1024" xml:space="preserve">
<path id="path3" fill="#54b3e5" d="M931.4,88.4H531.8c-12.4,0-24.2,5.8-32,15.4L478.2,131c-7.6,9.6-19.4,15.4-31.6,15.4h-354
	C70.2,146.6,52,164.8,52,187.2v727.6c0,11.4,9.2,20.6,20.6,20.6h878.6c11.4,0,20.6-9.2,20.6-20.6V146.6v-17.4
	C972,106.6,953.8,88.4,931.4,88.4z"/>
<path id="path11" fill="#68caf3" d="M952,935.6H72c-11,0-20-9-20-20V367c0-22,18-40,40-40h840c22,0,40,18,40,40v548.6
	C972,926.6,963,935.6,952,935.6z"/>
<linearGradient id="path11_2_" gradientUnits="userSpaceOnUse" x1="138.6625" y1="1010.5125" x2="885.3375" y2="263.8375">
	<stop  offset="0" style="stop-color:#00BBF2"/>
	<stop  offset="1" style="stop-color:#00577A"/>
</linearGradient>
<path id="path11_1_" fill="url(#path11_2_)" d="M952,935.6H72c-11,0-20-9-20-20V367c0-22,18-40,40-40h840c22,0,40,18,40,40v548.6
	C972,926.6,963,935.6,952,935.6z"/>
<g id="g13">
	<path id="path15" fill="#FFFFFF" d="M725.6,653.6c-1.4-1.4-3.4-1-5-1c-32.4,0-64.8,0-97.2,0.2c-1.8,0-3.6-0.2-5,0.8
		c-1.2,2.2-2.4,4.4-3.8,6.6c-10,16.4-19.8,33-30,49.4c-8,12.8-15.8,25.4-23.4,38.4c-1.4,2.4-1.6,3.8,1.8,3.6c0.8,0,1.6,0,2.4,0
		c70.2,0,140.6-0.2,210.8-0.2c2.4,0,4.6,0,7.8,0c-5.6-9.4-10.8-18.4-16.2-27C753.8,700.6,739.8,677,725.6,653.6z"/>
	<path id="path17" fill="#FFFFFF" d="M623,620c1.4-2,0.2-3-1.4-4c-16.2-10.6-32.6-21-48.8-31.8c-2.4-1.6-3.4-1.2-4.6,1.2
		c-3.6,6.4-7.6,12.8-11.4,19.2c-11.2,18.8-22.4,37.6-33.8,56.4c-1.6,2.8-3.2,5.8-5,8.6c-19.6,33.4-39.4,66.6-59.2,100
		c-2.6,4.6-5.4,9-8,13.6c-0.4,0.8-1.8,1.8,0.2,3c16,10.8,32,21.4,47.8,32.4c3,2,3.4,0,4.4-1.8c26.8-44.2,53.4-88.4,80.2-132.6
		C596.8,662.8,609.8,641.4,623,620z"/>
	<path id="path19" fill="#FFFFFF" d="M647.8,466.8c14.2,33.2,29.4,66,45.2,98.6c0.2,0.2,0.4,0.6,0.6,0.8c0.2,0.4,0.2,0.6,0.4,1
		c0.2,0.2,0.4,0.6,0.6,0.8c0.2,0.4,0.2,0.6,0.4,1c0.2,0.2,0.4,0.6,0.6,0.8c0.2,0.4,0.2,0.8,0.4,1s0.4,0.6,0.6,0.8
		c0.2,0.4,0.2,0.8,0.4,1c3.6,7,7,14,10.6,21h-0.2c0.2,0.4,0.6,0.6,0.8,1c0,0.6,0.2,1.2,0.2,1.6c0.4,0.4,0.6,0.8,1,1.2
		c0.2,0.2,0.2,0.4,0,0.6c0.4,0.4,0.6,0.8,1,1.4c0.2,0.2,0.2,0.4,0,0.6c0.4,0.4,0.6,1,1,1.4c0.2,0.2,0.2,0.4,0,0.6
		c2.8,3.2,4.4,7.2,6.4,11c17.2,32.2,34.8,64,54.8,94.4c3.6,5.6,3.6,5.6,9.2,2.4c9.8-5.8,19.6-11.8,29.8-17.2
		c3.2-1.8,3.2-3.2,1.8-6.2c-6.2-11.6-12.2-23.4-18.2-35.2c-7-13.2-14-26.6-21.2-39.8c-26-48.4-52.2-96.6-81.2-143.2
		c-9.6-15.4-19.8-30.6-32.2-44c-4.6-5-9.8-9.6-16.2-12.2c-5.8-2.4-9.4,0-9.2,6.2c0,1.6,0.2,3.2,0.4,4.8
		C636.6,438.6,641.8,453,647.8,466.8z"/>
	<path id="path21" fill="#FFFFFF" d="M922.4,653.4c-0.8,0-1.6-0.2-2.4-0.2c-35,0-70.2,0.2-105.2,0.2c-1.4,0-3-0.4-4,1
		c1.2,2.6,2.2,5.2,3.6,7.8c14,28.6,28,57,41.8,85.6c1.2,2.6,2.6,3.2,5.4,3.2c18.6-0.2,37.2-0.4,55.8,0c4.4,0,5.2-1.4,5-5.4
		C922.4,715,922.4,684.2,922.4,653.4z"/>
	<path id="path23" fill="#FFFFFF" d="M448.2,752c3.4,0,5.4-1.2,7.2-4c8-13.6,16.2-27.2,24.2-40.6c10.6-17.6,21.2-35.2,31.8-52.8
		c-1.2-1.6-3-1-4.4-1c-9,0-17.8,0-26.8-0.2c-21.2-0.2-42.4-0.4-63.6-0.6c-1.8,0-4-1-5,1.6c0,2.2,0.2,4.4,0.2,6.6
		c0,28.4,0.2,57,0.2,85.4c0,4,0.8,5.6,5.2,5.4C427.4,751.6,437.8,751.6,448.2,752z"/>
	<path id="path25" fill="#FFFFFF" d="M899.2,835.2c-12.6-21.4-26.4-41.8-42-61.2c-2.4-3-4.2-3-7.4-1.2c-8.6,5.2-17.2,10.2-26,15.2
		c-1.4,0.8-1.8,0.8-1.2,2.6c5.8,17.6,11.6,35,18.6,52c6.6,15.8,13.6,31.6,23.6,45.6c4.6,6.6,10.6,10.4,17,10.2
		c14.6,0,26.6-7.4,32.2-18.8c3.4-6.6,3-13.2-0.6-19.6C908.8,852,904.2,843.4,899.2,835.2z"/>
	<path id="path27" fill="#FFFFFF" d="M847.8,756.4c-9.2-18.2-18.4-36.6-27.6-55c-0.4-1-0.8-2.2-2.4-2c-0.4,0.2-0.8,0.4-1.2,0.6
		c-11.2,6.6-22.4,13.2-33.8,19.6c-2.8,1.6-1.8,3-0.8,5c10.6,17.4,21,34.6,31.4,52c1.2,2.2,2.2,2.4,4.4,1.2
		c9.4-6,18.8-11.8,28.4-17.6C848.2,759.4,849,758.6,847.8,756.4z"/>
	<path id="path29" fill="#FFFFFF" d="M423.2,890.6c0.4,0.2,0.6,0.4,1,0.4c23.4-19.4,46.8-38.8,70.6-58.6
		c-17-11.8-33.6-23.2-50.8-35.2C436.8,829,430,859.8,423.2,890.6z"/>
	<path id="path31" fill="#FFFFFF" d="M577,577c1.6,0.6,3,1.8,4.4,2.8c14.4,9.4,28.6,19,43,28.4c1.4,0.8,2.6,3,4.4,0
		c9.2-15.4,18.6-30.8,27.8-46.2c0.4-0.6,0.8-1,1-1.4c-0.2-1-0.8-1.4-1.4-1.8c-16.2-10.6-32.4-21.4-48.6-32.2c-1.6-1-2.6-1.2-3.8,0.8
		c-9.4,15.2-18.8,30.6-28.4,45.8C574.4,575,574.6,576.2,577,577z"/>
	<path id="path33" fill="#FFFFFF" d="M611.2,520.6c13.8,8.8,27.4,17.8,41.2,26.8c8.8,5.8,9,5.8,12.4-4.2c2.2-6.4,4.2-13,0.6-19.4
		c-7.2-12.8-18.4-19.8-32-21.4c-11.4,0.2-18,6-23.2,14.4C608.8,518.8,609.2,519.2,611.2,520.6z"/>
</g>
</svg>
