<?xml version="1.0" encoding="utf-8"?>
<!-- Generator: Adobe Illustrator 18.0.0, SVG Export Plug-In . SVG Version: 6.00 Build 0)  -->
<!DOCTYPE svg PUBLIC "-//W3C//DTD SVG 1.1//EN" "http://www.w3.org/Graphics/SVG/1.1/DTD/svg11.dtd">
<svg version="1.1"
	 id="Layer_2" xmlns:cc="http://creativecommons.org/ns#" xmlns:svg="http://www.w3.org/2000/svg" xmlns:rdf="http://www.w3.org/1999/02/22-rdf-syntax-ns#" xmlns:dc="http://purl.org/dc/elements/1.1/"
	 xmlns="http://www.w3.org/2000/svg" xmlns:xlink="http://www.w3.org/1999/xlink" x="0px" y="0px" viewBox="0 0 1024 1024"
	 enable-background="new 0 0 1024 1024" xml:space="preserve">
<path id="path3" fill="#54b3e5" d="M931.4,88.4H531.8c-12.4,0-24.2,5.8-32,15.4L478.2,131c-7.6,9.6-19.4,15.4-31.6,15.4h-354
	C70.2,146.6,52,164.8,52,187.2v727.6c0,11.4,9.2,20.6,20.6,20.6h878.6c11.4,0,20.6-9.2,20.6-20.6V146.6v-17.4
	C972,106.6,953.8,88.4,931.4,88.4z"/>
<g id="g15">
	<path id="path17" fill="#009CDC" stroke="#009CDC" stroke-width="0.125" d="M52,915.6c0,11,9,20,20,20h880c11,0,20-9,20-20v-81.3
		H52V915.6z"/>
	<rect id="rect19" x="52" y="732.7" fill="#963D97" stroke="#963D97" stroke-width="0.125" width="920" height="101.5"/>
	<rect id="rect21" x="52" y="631.2" fill="#E03A3E" stroke="#E03A3E" stroke-width="0.125" width="920" height="101.5"/>
	<rect id="rect23" x="52" y="529.7" fill="#F58220" stroke="#F58220" stroke-width="0.125" width="920" height="101.5"/>
	<rect id="rect25" x="52" y="428.1" fill="#FDB827" stroke="#FDB827" stroke-width="0.125" width="920" height="101.5"/>
	<path id="path27" fill="#62BB46" stroke="#62BB46" stroke-width="0.125" d="M932,327H92c-22,0-40,18-40,40v61.1h920V367
		C972,345,954,327,932,327z"/>
</g>
<g id="g29">
	<path id="path31" fill="#FFFFFF" d="M942.9,733.9c-11.1,24.5-16.4,35.5-30.6,57.2c-19.9,30.3-47.9,68-82.7,68.3
		c-30.9,0.3-38.8-20.1-80.7-19.9c-41.9,0.2-50.6,20.2-81.5,19.9c-34.7-0.3-61.3-34.4-81.2-64.7c-55.6-84.7-61.4-184-27.1-236.9
		c24.4-37.5,62.8-59.5,99-59.5c36.8,0,60,20.2,90.4,20.2c29.5,0,47.5-20.2,90.1-20.2c32.2,0,66.3,17.5,90.6,47.8
		C849.6,589.9,862.5,703.6,942.9,733.9z"/>
	<g id="g33">
		<path id="path35" fill="#FFFFFF" d="M806.3,464.6c15.5-19.9,27.2-47.9,23-76.5c-25.3,1.7-54.8,17.8-72.1,38.8
			c-15.7,19-28.6,47.2-23.6,74.7C761.2,502.4,789.7,485.9,806.3,464.6z"/>
	</g>
</g>
</svg>
