<?xml version="1.0" encoding="utf-8"?>
<!-- Generator: Adobe Illustrator 18.0.0, SVG Export Plug-In . SVG Version: 6.00 Build 0)  -->
<!DOCTYPE svg PUBLIC "-//W3C//DTD SVG 1.1//EN" "http://www.w3.org/Graphics/SVG/1.1/DTD/svg11.dtd">
<svg version="1.1"
	 id="Layer_2" xmlns:cc="http://creativecommons.org/ns#" xmlns:svg="http://www.w3.org/2000/svg" xmlns:rdf="http://www.w3.org/1999/02/22-rdf-syntax-ns#" xmlns:dc="http://purl.org/dc/elements/1.1/"
	 xmlns="http://www.w3.org/2000/svg" xmlns:xlink="http://www.w3.org/1999/xlink" x="0px" y="0px" viewBox="0 0 1024 1024"
	 enable-background="new 0 0 1024 1024" xml:space="preserve">
<path id="path3" fill="#54b3e5" d="M931.4,88.4H531.8c-12.4,0-24.2,5.8-32,15.4L478.2,131c-7.6,9.6-19.4,15.4-31.6,15.4h-354
	C70.2,146.6,52,164.8,52,187.2v727.6c0,11.4,9.2,20.6,20.6,20.6h878.6c11.4,0,20.6-9.2,20.6-20.6V146.6v-17.4
	C972,106.6,953.8,88.4,931.4,88.4z"/>
<path id="path11" fill="#68caf3" d="M952,935.6H72c-11,0-20-9-20-20V367c0-22,18-40,40-40h840c22,0,40,18,40,40v548.6
	C972,926.6,963,935.6,952,935.6z"/>
<g>
	<g id="g13">
		<g id="g15">
			<g id="g17">
				<path id="path19" fill="#62BB46" stroke="#62BB46" stroke-width="0.125" d="M347.6,560.2c0.2-0.2,0.2-0.4,0.4-0.6
					c21-32.4,54.2-51.4,85.6-51.4c31.8,0,51.8,17.4,78,17.4c25.6,0,41-17.4,77.8-17.4c27.8,0,57.2,15.2,78.2,41.2
					c-5.8,3.2-11,6.8-15.8,10.8H347.6z"/>
				<g id="g21">
					<path id="path23" fill="#62BB46" stroke="#62BB46" stroke-width="0.125" d="M561.4,479c13.4-17.2,23.6-41.4,19.8-66.2
						c-21.8,1.4-47.4,15.4-62.2,33.4c-13.6,16.4-24.6,40.8-20.4,64.4C522.6,511.6,547.2,497.4,561.4,479z"/>
				</g>
			</g>
		</g>
		<g id="g25">
			<g id="g27">
				<path id="path29" fill="#FDB827" stroke="#FDB827" stroke-width="0.125" d="M347.6,560.2c-9,14-14.8,32-17,52h291.8
					c3.2-19.4,12.8-37.8,29.4-52H347.6z"/>
			</g>
		</g>
		<g id="g31">
			<g id="g33">
				<path id="path35" fill="#F58220" stroke="#F58220" stroke-width="0.125" d="M332.2,664.2c-2.8-18.2-3.4-35.8-1.6-52h291.8
					c-2.8,17.6-0.4,35.8,6.8,52H332.2z"/>
			</g>
		</g>
		<g id="g37">
			<g id="g39">
				<path id="path41" fill="#E03A3E" stroke="#E03A3E" stroke-width="0.125" d="M346.4,716.2c-6.8-17.4-11.6-35-14.2-52h297.2
					c9.2,20.8,26.2,38.4,50.2,47.4c-0.8,1.6-1.4,3-2,4.6H346.4z"/>
			</g>
		</g>
		<g id="g43">
			<g id="g45">
				<path id="path47" fill="#963D97" stroke="#963D97" stroke-width="0.125" d="M677.4,716.2c-8.2,18-13,27.4-24.4,44.8
					c-1.6,2.4-3.2,4.8-4.8,7.2H374c-0.8-1.4-1.8-2.6-2.6-4c-10.2-15.6-18.6-31.8-25-48H677.4z"/>
			</g>
		</g>
		<g id="g49">
			<g id="g51">
				<path id="path53" fill="#009CDC" stroke="#009CDC" stroke-width="0.125" d="M648.2,768c-16.8,24.6-39.4,51.6-66.6,51.8
					C555,820,548,802.4,512,802.6c-36.2,0.2-43.8,17.4-70.4,17.2c-28.6-0.2-50.6-26.8-67.6-52L648.2,768z"/>
			</g>
		</g>
	</g>
</g>
</svg>
