<?xml version="1.0" encoding="utf-8"?>
<!-- Generator: Adobe Illustrator 18.0.0, SVG Export Plug-In . SVG Version: 6.00 Build 0)  -->
<!DOCTYPE svg PUBLIC "-//W3C//DTD SVG 1.1//EN" "http://www.w3.org/Graphics/SVG/1.1/DTD/svg11.dtd">
<svg version="1.1"
	 id="Layer_2" xmlns:dc="http://purl.org/dc/elements/1.1/" xmlns:cc="http://creativecommons.org/ns#" xmlns:rdf="http://www.w3.org/1999/02/22-rdf-syntax-ns#" xmlns:svg="http://www.w3.org/2000/svg"
	 xmlns="http://www.w3.org/2000/svg" xmlns:xlink="http://www.w3.org/1999/xlink" x="0px" y="0px" viewBox="0 0 1024 1024"
	 enable-background="new 0 0 1024 1024" xml:space="preserve">
<path id="path3" fill="#54b3e5" d="M931.4,88.4H531.8c-12.4,0-24.2,5.8-32,15.4L478.2,131c-7.6,9.6-19.4,15.4-31.6,15.4h-354
	C70.2,146.6,52,164.8,52,187.2v727.6c0,11.4,9.2,20.6,20.6,20.6h878.6c11.4,0,20.6-9.2,20.6-20.6V146.6v-17.4
	C972,106.6,953.8,88.4,931.4,88.4z"/>
<g id="g5" display="none">
	<polygon id="polygon7" display="inline" fill="#FFFFFF" points="144.2,272.2 92,324.4 92,872.6 932,872.6 932,272.2 	"/>
	<polygon id="polygon9" display="inline" fill="#B2B3B3" points="144.2,324.4 144.2,272.2 92,324.4 	"/>
</g>
<radialGradient id="path16_1_" cx="84" cy="609.3545" r="343.0464" gradientTransform="matrix(2 0 0 -1.9554 0 2020.8374)" gradientUnits="userSpaceOnUse">
	<stop  offset="0" style="stop-color:#F15823"/>
	<stop  offset="1" style="stop-color:#4C2D8A"/>
</radialGradient>
<path id="path16" fill="url(#path16_1_)" d="M952,935.6H72c-11,0-20-9-20-20V367c0-22,18-40,40-40h840c22,0,40,18,40,40v548.6
	C972,926.6,963,935.6,952,935.6z"/>
<g id="g18">
	<path id="path20" fill="#282828" d="M760,518.4c50.6-11.8,101,19.6,112.8,70.2s-19.6,101-70.2,112.8
		c-50.6,11.8-101-19.6-112.8-70.2S709.4,530,760,518.4 M751.8,483.4c-69.8,16.2-113.2,86.2-97,156s86.2,113.2,156,97
		s113.2-86.2,97-156C891.4,510.6,821.4,467,751.8,483.4L751.8,483.4z"/>
	<path id="path22" fill="#C02026" d="M697,858.6c42-6.2,85.6-12.6,108.4-48c20.6-32,20.4-83.6-1-157.4l-11.6,3.4
		c20.2,70.4,21,118.6,2.4,147.6c-19.8,30.8-60.6,36.8-100,42.6c-37.8,5.6-77,11.4-97.6,39.8c-9.2,12.6-14,29-14.6,49h12
		c0.4-17.6,4.6-31.4,12.2-42C625,869.4,660,864.2,697,858.6z"/>
	
		<linearGradient id="polygon29_1_" gradientUnits="userSpaceOnUse" x1="358.5618" y1="849.6539" x2="378.6123" y2="776.1404" gradientTransform="matrix(2 0 0 -2 0 2048)">
		<stop  offset="0" style="stop-color:#FFFFFF"/>
		<stop  offset="1" style="stop-color:#9E9E9E"/>
	</linearGradient>
	<polygon id="polygon29" fill="url(#polygon29_1_)" points="815.8,548 723,569.8 663.4,314.2 756.2,292.4 	"/>
	<g id="g31">
		<circle id="circle33" fill="#EAEAEA" cx="781.2" cy="609.8" r="94"/>
		<path id="path35" fill="#FFFFFF" d="M781.4,532.4c36,0,67,24.6,75.2,59.8c9.6,41.6-16.2,83.2-57.8,92.8c-5.8,1.4-11.8,2-17.6,2
			c-36,0-67-24.6-75.2-59.8c-9.6-41.6,16.2-83.2,57.8-92.8C769.4,533,775.4,532.4,781.4,532.4L781.4,532.4 M781.4,515.8
			c-7,0-14.2,0.8-21.4,2.4c-50.6,11.8-82,62.2-70.2,112.8c10.2,43.4,48.8,72.6,91.4,72.6c7,0,14.2-0.8,21.4-2.4
			c50.6-11.8,82-62.2,70.2-112.8C862.6,545.2,824,515.8,781.4,515.8L781.4,515.8z"/>
	</g>
</g>
<g id="g37">
	<path id="path39" fill="#232323" d="M440.8,861c0-190.4-154.2-344.6-344.6-344.6c-15,0-29.6,1-44.2,2.8v396.4c0,11,9,20,20,20
		h360.6C437.8,911.6,440.8,886.6,440.8,861z"/>
	
		<linearGradient id="path84_1_" gradientUnits="userSpaceOnUse" x1="26" y1="661" x2="220.4" y2="661" gradientTransform="matrix(2 0 0 -2 0 2048)">
		<stop  offset="0" style="stop-color:#010101;stop-opacity:0"/>
		<stop  offset="0.1132" style="stop-color:#040404;stop-opacity:0.2264"/>
		<stop  offset="0.1813" style="stop-color:#0D0D0D;stop-opacity:0.3626"/>
		<stop  offset="0.2375" style="stop-color:#191919;stop-opacity:0.475"/>
		<stop  offset="0.2872" style="stop-color:#2E2E2E;stop-opacity:0.5744"/>
		<stop  offset="0.3326" style="stop-color:#494949;stop-opacity:0.6652"/>
		<stop  offset="0.3749" style="stop-color:#686969;stop-opacity:0.7498"/>
		<stop  offset="0.4148" style="stop-color:#908F8F;stop-opacity:0.8297"/>
		<stop  offset="0.4528" style="stop-color:#BCBCBB;stop-opacity:0.9057"/>
		<stop  offset="0.4881" style="stop-color:#EDEDED;stop-opacity:0.9761"/>
		<stop  offset="0.5" style="stop-color:#FFFFFF"/>
		<stop  offset="0.5119" style="stop-color:#EDEDED;stop-opacity:0.9761"/>
		<stop  offset="0.5472" style="stop-color:#BCBCBB;stop-opacity:0.9057"/>
		<stop  offset="0.5852" style="stop-color:#908F8F;stop-opacity:0.8297"/>
		<stop  offset="0.6251" style="stop-color:#686969;stop-opacity:0.7498"/>
		<stop  offset="0.6674" style="stop-color:#494949;stop-opacity:0.6652"/>
		<stop  offset="0.7128" style="stop-color:#2E2E2E;stop-opacity:0.5744"/>
		<stop  offset="0.7625" style="stop-color:#191919;stop-opacity:0.475"/>
		<stop  offset="0.8187" style="stop-color:#0D0D0D;stop-opacity:0.3626"/>
		<stop  offset="0.8868" style="stop-color:#040404;stop-opacity:0.2264"/>
		<stop  offset="1" style="stop-color:#010101;stop-opacity:0"/>
	</linearGradient>
	<path id="path84" fill="url(#path84_1_)" d="M440.8,861c0-190.4-154.2-344.6-344.6-344.6c-15,0-29.6,1-44.2,2.8v396.4
		c0,11,9,20,20,20h360.6C437.8,911.6,440.8,886.6,440.8,861z"/>
	
		<linearGradient id="path97_1_" gradientUnits="userSpaceOnUse" x1="-0.8562" y1="737.5438" x2="198.3937" y2="538.2938" gradientTransform="matrix(2 0 0 -2 0 2048)">
		<stop  offset="0" style="stop-color:#010101;stop-opacity:0"/>
		<stop  offset="0.3254" style="stop-color:#040404;stop-opacity:0.6509"/>
		<stop  offset="0.5" style="stop-color:#2A2A2A"/>
		<stop  offset="0.6705" style="stop-color:#040404;stop-opacity:0.6589"/>
		<stop  offset="1" style="stop-color:#010101;stop-opacity:0"/>
	</linearGradient>
	<path id="path97" fill="url(#path97_1_)" d="M440.8,861c0-190.4-154.2-344.6-344.6-344.6c-15,0-29.6,1-44.2,2.8v396.4
		c0,11,9,20,20,20h360.6C437.8,911.6,440.8,886.6,440.8,861z"/>
	<path id="path99" fill="#010101" d="M439.8,935.6c5.2-24,8-49,8-74.6C447.8,667,290,509.2,96,509.2c-15,0-29.6,1-44.2,2.8v14.4
		c14.4-1.8,29.2-2.8,44.2-2.8c186,0,337.4,151.4,337.4,337.4c0,25.6-2.8,50.6-8.4,74.6H439.8z"/>
	<path id="path101" fill="#010101" d="M271.2,861c0-96.6-78.4-175-175-175c-15.2,0-30,2-44.2,5.6v224c0,11,9,20,20,20h182.6
		C265.2,913,271.2,887.6,271.2,861z"/>
	<path id="path103" fill="#F8971D" d="M234.6,861c0-76.4-62-138.4-138.4-138.4c-15.4,0-30.2,2.6-44.2,7.2v185.8c0,11,9,20,20,20
		h140.8C226.6,914,234.6,888.4,234.6,861z"/>
	<path id="path105" fill="#E5E5E5" d="M195.4,935.6c15.6-20.8,25-46.6,25-74.6c0-68.4-55.6-124.2-124.2-124.2
		c-15.6,0-30.4,2.8-44.2,8.2v4c13.6-5.4,28.6-8.4,44.2-8.4c66.4,0,120.4,54,120.4,120.4c0,28.2-9.8,54-26,74.6H195.4z"/>
	<path id="path107" fill="#E5E5E5" d="M96.2,917c30.8,0,55.8-25,55.8-55.8s-25-55.8-55.8-55.8c-18,0-33.8,8.4-44.2,21.6v6.4
		c9.2-14.6,25.6-24.4,44.2-24.4c28.8,0,52.2,23.4,52.2,52.2s-23.4,52.2-52.2,52.2c-18.6,0-34.8-9.8-44.2-24.4v6.4
		C62.2,908.4,78.2,917,96.2,917z"/>
	<circle id="circle109" fill="#010101" cx="96.2" cy="861" r="44"/>
	<path id="path111" fill="#010101" d="M288.4,935.6c9-23.2,14-48.2,14-74.6c0-113.8-92.6-206.2-206.2-206.2
		c-15.2,0-29.8,1.6-44.2,4.8v3c14.2-3.2,29-4.8,44.2-4.8c112.2,0,203.4,91.2,203.4,203.4c0,26.2-5,51.4-14.2,74.6h3V935.6z"/>
	<path id="path113" fill="#010101" d="M359,935.6c6.8-23.8,10.4-48.8,10.4-74.6c0-150.6-122.6-273.2-273.2-273.2
		c-15,0-29.8,1.2-44.2,3.6v2.8c14.4-2.4,29-3.6,44.2-3.6c149,0,270.4,121.2,270.4,270.4c0,25.8-3.6,50.8-10.4,74.6H359z"/>
</g>
</svg>
