<?xml version="1.0" encoding="utf-8"?>
<!-- Generator: Adobe Illustrator 18.0.0, SVG Export Plug-In . SVG Version: 6.00 Build 0)  -->
<!DOCTYPE svg PUBLIC "-//W3C//DTD SVG 1.1//EN" "http://www.w3.org/Graphics/SVG/1.1/DTD/svg11.dtd">
<svg version="1.1"
	 id="Layer_2" xmlns:dc="http://purl.org/dc/elements/1.1/" xmlns:cc="http://creativecommons.org/ns#" xmlns:rdf="http://www.w3.org/1999/02/22-rdf-syntax-ns#" xmlns:svg="http://www.w3.org/2000/svg"
	 xmlns="http://www.w3.org/2000/svg" xmlns:xlink="http://www.w3.org/1999/xlink" x="0px" y="0px" viewBox="0 0 1024 1024"
	 enable-background="new 0 0 1024 1024" xml:space="preserve">
<path id="path3" fill="#54b3e5" d="M931.4,88.4H531.8c-12.4,0-24.2,5.8-32,15.4L478.2,131c-7.6,9.6-19.4,15.4-31.6,15.4h-354
	C70.2,146.6,52,164.8,52,187.2v727.6c0,11.4,9.2,20.6,20.6,20.6h878.6c11.4,0,20.6-9.2,20.6-20.6V146.6v-17.4
	C972,106.6,953.8,88.4,931.4,88.4z"/>
<g id="g5" display="none">
	<polygon id="polygon7" display="inline" fill="#FFFFFF" points="144.2,272.2 92,324.4 92,872.6 932,872.6 932,272.2 	"/>
	<polygon id="polygon9" display="inline" fill="#B2B3B3" points="144.2,324.4 144.2,272.2 92,324.4 	"/>
</g>
<path id="path11" fill="#F58120" d="M951.2,935.6H72.8c-11.6,0-20.8-9.4-20.8-20.8V367c0-22,18-40,40-40h839c22.6,0,41,18.4,41,41
	v546.6C972,926.2,962.6,935.6,951.2,935.6z"/>
<path id="path13" fill="#FFFFFF" d="M669.8,438c-196.2,0-355.2,159-355.2,355.2c0,50.6,10.6,98.8,29.6,142.2h176.6
	c-24-25-41.6-56-50.6-90.6c15-12.2,24.6-30.8,24.6-51.6s-9.6-39.4-24.6-51.6c12.8-49.6,43.6-92,85.2-119.8l34.6,58
	c-35.6,25-59,66.4-59,113.4c0,46.8,23.4,88.2,59,113.4l-17.2,29H602l9.2-16.6c17.8,8.2,37.4,12.8,58.4,12.8
	c72.4,0,131.8-55.6,138-126.2l67.6,1c-3.2,50-24.2,95-56.6,129h132.6c11.4,0,20.8-9.4,20.8-21V606.4
	C909.4,505.3,797.5,438,669.8,438z M475.6,793.2c0,26.2-21.2,47.4-47.4,47.4c-26.2,0-47.4-21.2-47.4-47.4s21.2-47.4,47.4-47.4
	S475.6,767,475.6,793.2z M749.6,560.4c8.6-14.8,24-23.4,40-23.8c8.4-0.2,17,1.8,24.8,6.4c22.6,13,30.4,42,17.4,64.8
	c-13,22.6-42.2,30.4-64.8,17.4C744.2,612,736.4,583,749.6,560.4z M807.8,781c-6.2-70.8-65.6-126.2-138-126.2
	c-20.8,0-40.6,4.6-58.4,12.8l-33-59c27.6-13.6,58.6-21.4,91.4-21.4c19,0,37.6,2.6,55,7.6c3.2,19,14.4,36.6,32.4,47
	s38.8,11.4,56.8,4.6c35,34.4,58,81.4,61.2,133.6L807.8,781z"/>
</svg>
