<?xml version="1.0" encoding="utf-8"?>
<!-- Generator: Adobe Illustrator 18.0.0, SVG Export Plug-In . SVG Version: 6.00 Build 0)  -->
<!DOCTYPE svg PUBLIC "-//W3C//DTD SVG 1.1//EN" "http://www.w3.org/Graphics/SVG/1.1/DTD/svg11.dtd">
<svg version="1.1"
	 id="Layer_1" xmlns:dc="http://purl.org/dc/elements/1.1/" xmlns:cc="http://creativecommons.org/ns#" xmlns:rdf="http://www.w3.org/1999/02/22-rdf-syntax-ns#" xmlns:svg="http://www.w3.org/2000/svg"
	 xmlns="http://www.w3.org/2000/svg" xmlns:xlink="http://www.w3.org/1999/xlink" x="0px" y="0px" viewBox="0 0 1024 1024"
	 enable-background="new 0 0 1024 1024" xml:space="preserve">
<g id="Layer_2">
	<path id="path4" fill="#54b3e5" d="M931.4,88.4H531.8c-12.4,0-24.2,5.8-32,15.4L478.2,131c-7.6,9.6-19.4,15.4-31.6,15.4h-354
		C70.2,146.6,52,164.8,52,187.2v727.6c0,11.4,9.2,20.6,20.6,20.6h878.6c11.4,0,20.6-9.2,20.6-20.6V146.6v-17.4
		C972,106.6,953.8,88.4,931.4,88.4z"/>
	<g id="g6" display="none">
		<polygon id="polygon8" display="inline" fill="#FFFFFF" points="144.2,272.2 92,324.4 92,872.6 932,872.6 932,272.2 		"/>
		<polygon id="polygon10" display="inline" fill="#B2B3B3" points="144.2,324.4 144.2,272.2 92,324.4 		"/>
	</g>
	<path id="path12" fill="#68caf3" d="M952,935.6H72c-11,0-20-9-20-20V367c0-22,18-40,40-40h840c22,0,40,18,40,40v548.6
		C972,926.6,963,935.6,952,935.6z"/>
</g>
<g id="g23">
	<path id="path25" fill="#FFFFFF" d="M486.5,796.8l25.5,30.1l25.5-30.1c-6.9-5.8-15.8-9.3-25.5-9.3S493.4,791,486.5,796.8z"/>
	<path id="path27" fill="#FFFFFF" d="M512,704.8c-30,0-57.5,10.9-78.8,28.9l31.6,37.4c12.7-10.8,29.2-17.3,47.2-17.3
		c18,0,34.4,6.5,47.2,17.3l31.6-37.4C569.5,715.7,542,704.8,512,704.8z"/>
	<path id="path29" fill="#FFFFFF" d="M379.8,670.6l31.6,37.4c27.2-23,62.3-36.9,100.5-36.9c38.3,0,73.4,13.9,100.5,36.9l31.6-37.4
		c-35.7-30.2-81.8-48.5-132.2-48.5C461.7,622.1,415.5,640.4,379.8,670.6z"/>
	<path id="path31" fill="#FFFFFF" d="M326.4,607.4l31.6,37.4c43-36.5,97-56.4,154-56.4s111,19.9,154,56.4l31.6-37.4
		c-51.8-44-116.9-68-185.6-68S378.2,563.4,326.4,607.4z"/>
	<path id="path33" fill="#FFFFFF" d="M512,456.8c-50,0-98.4,9.8-144.1,29.1c-34.6,14.6-66.4,34.2-94.9,58.4l31.6,37.4
		c57.9-49.1,130.6-75.9,207.4-75.9s149.5,26.8,207.4,75.9l31.6-37.4c-28.5-24.2-60.3-43.8-94.9-58.4
		C610.4,466.6,562,456.8,512,456.8z"/>
	<circle id="circle35" fill="#FFFFFF" cx="512" cy="828.8" r="41.2"/>
</g>
</svg>
