<?xml version="1.0" encoding="utf-8"?>
<!-- Generator: Adobe Illustrator 18.0.0, SVG Export Plug-In . SVG Version: 6.00 Build 0)  -->
<!DOCTYPE svg PUBLIC "-//W3C//DTD SVG 1.1//EN" "http://www.w3.org/Graphics/SVG/1.1/DTD/svg11.dtd">
<svg version="1.1"
	 id="Layer_2" xmlns:dc="http://purl.org/dc/elements/1.1/" xmlns:cc="http://creativecommons.org/ns#" xmlns:rdf="http://www.w3.org/1999/02/22-rdf-syntax-ns#" xmlns:svg="http://www.w3.org/2000/svg"
	 xmlns="http://www.w3.org/2000/svg" xmlns:xlink="http://www.w3.org/1999/xlink" x="0px" y="0px" viewBox="0 0 1024 1024"
	 enable-background="new 0 0 1024 1024" xml:space="preserve">
<g>
	<path id="path3_1_" fill="#54b3e5" d="M931.4,88.4H531.8c-12.4,0-24.2,5.8-32,15.4L478.2,131c-7.6,9.6-19.4,15.4-31.6,15.4h-354
		C70.2,146.6,52,164.8,52,187.2v727.6c0,11.4,9.2,20.6,20.6,20.6h878.6c11.4,0,20.6-9.2,20.6-20.6V146.6v-17.4
		C972,106.6,953.8,88.4,931.4,88.4z"/>
	<g opacity="0.15">
		<path fill="#FFFFFF" d="M92.7,146.5c-5.6,0.1-11,1.2-15.8,3.3l-21.5,21.5c-2.1,4.9-3.3,10.3-3.3,16v1.4l42.2-42.2H92.7z"/>
		<polygon fill="#FFFFFF" points="108.4,146.5 52.1,202.8 52.1,217 122.6,146.5 		"/>
		<polygon fill="#FFFFFF" points="136.7,146.5 52.1,231.1 52.1,245.2 150.8,146.5 		"/>
		<polygon fill="#FFFFFF" points="164.9,146.5 52.1,259.3 52.1,273.4 179,146.5 		"/>
		<polygon fill="#FFFFFF" points="193.1,146.5 52.1,287.5 52.1,301.7 207.3,146.5 		"/>
		<polygon fill="#FFFFFF" points="221.3,146.5 52.1,315.7 52.1,329.9 235.5,146.5 		"/>
		<polygon fill="#FFFFFF" points="249.6,146.5 52.1,344 52.1,358.1 263.7,146.5 		"/>
		<polygon fill="#FFFFFF" points="277.8,146.5 52.1,372.2 52.1,386.3 291.9,146.5 		"/>
		<polygon fill="#FFFFFF" points="306,146.5 52.1,400.4 52.1,414.6 320.2,146.5 		"/>
		<polygon fill="#FFFFFF" points="334.3,146.5 52.1,428.7 52.1,442.8 348.4,146.5 		"/>
		<polygon fill="#FFFFFF" points="362.5,146.5 52.1,456.9 52.1,471 376.6,146.5 		"/>
		<polygon fill="#FFFFFF" points="390.7,146.5 52.1,485.1 52.1,499.3 404.9,146.5 		"/>
		<polygon fill="#FFFFFF" points="419,146.5 52.1,513.4 52.1,527.5 433.1,146.5 		"/>
		<path fill="#FFFFFF" d="M499.9,103.9l-15.5,19.5l31.7-31.7C509.8,94.4,504.2,98.5,499.9,103.9z"/>
		<path fill="#FFFFFF" d="M447.2,146.5L52.1,541.6v14.1L466.8,141C460.9,144.4,454.1,146.4,447.2,146.5z"/>
		<polygon fill="#FFFFFF" points="533.4,88.5 52.1,569.8 52.1,584 547.6,88.5 		"/>
		<polygon fill="#FFFFFF" points="561.6,88.5 52.1,598 52.1,612.2 575.8,88.5 		"/>
		<polygon fill="#FFFFFF" points="589.9,88.5 52.1,626.3 52.1,640.4 604,88.5 		"/>
		<polygon fill="#FFFFFF" points="618.1,88.5 52.1,654.5 52.1,668.6 632.2,88.5 		"/>
		<polygon fill="#FFFFFF" points="646.3,88.5 52.1,682.7 52.1,696.9 660.5,88.5 		"/>
		<polygon fill="#FFFFFF" points="674.6,88.5 52.1,711 52.1,725.1 688.7,88.5 		"/>
		<polygon fill="#FFFFFF" points="702.8,88.5 52.1,739.2 52.1,753.3 716.9,88.5 		"/>
		<polygon fill="#FFFFFF" points="731,88.5 52.1,767.4 52.1,781.6 745.2,88.5 		"/>
		<polygon fill="#FFFFFF" points="759.2,88.5 52.1,795.6 52.1,809.8 773.4,88.5 		"/>
		<polygon fill="#FFFFFF" points="787.5,88.5 52.1,823.9 52.1,838 801.6,88.5 		"/>
		<polygon fill="#FFFFFF" points="815.7,88.5 52.1,852.1 52.1,866.3 829.9,88.5 		"/>
		<polygon fill="#FFFFFF" points="843.9,88.5 52.1,880.3 52.1,894.5 858.1,88.5 		"/>
		<path fill="#FFFFFF" d="M872.2,88.5L52.1,908.6v6.3c0,2.3,0.4,4.6,1.1,6.7L886.3,88.5H872.2z"/>
		<path fill="#FFFFFF" d="M900.4,88.5L58.8,930.1c2.6,2.4,5.7,4.1,9.3,4.9L914.5,88.5H900.4z"/>
		<path fill="#FFFFFF" d="M931.5,88.5h-2.9l-847,847h14.1L941.5,89.8C938.3,88.9,935,88.5,931.5,88.5z"/>
		<path fill="#FFFFFF" d="M951.5,93.8L109.9,935.5H124L959.6,99.9C957.2,97.5,954.5,95.5,951.5,93.8z"/>
		<path fill="#FFFFFF" d="M965.9,107.7L138.1,935.5h14.1l818-818C969.2,114,967.8,110.7,965.9,107.7z"/>
		<polygon fill="#FFFFFF" points="971.9,129.9 166.3,935.5 180.5,935.5 971.9,144.1 		"/>
		<polygon fill="#FFFFFF" points="971.9,158.1 194.5,935.5 208.7,935.5 971.9,172.3 		"/>
		<polygon fill="#FFFFFF" points="971.9,186.4 222.8,935.5 236.9,935.5 971.9,200.5 		"/>
		<polygon fill="#FFFFFF" points="971.9,214.6 251,935.5 265.2,935.5 971.9,228.8 		"/>
		<polygon fill="#FFFFFF" points="971.9,242.8 279.2,935.5 293.4,935.5 971.9,257 		"/>
		<polygon fill="#FFFFFF" points="971.9,271.1 307.5,935.5 321.6,935.5 971.9,285.2 		"/>
		<polygon fill="#FFFFFF" points="971.9,299.3 335.7,935.5 349.8,935.5 971.9,313.4 		"/>
		<polygon fill="#FFFFFF" points="971.9,327.5 363.9,935.5 378.1,935.5 971.9,341.7 		"/>
		<polygon fill="#FFFFFF" points="971.9,355.8 392.2,935.5 406.3,935.5 971.9,369.9 		"/>
		<polygon fill="#FFFFFF" points="971.9,384 420.4,935.5 434.5,935.5 971.9,398.1 		"/>
		<polygon fill="#FFFFFF" points="971.9,412.2 448.6,935.5 462.8,935.5 971.9,426.4 		"/>
		<polygon fill="#FFFFFF" points="971.9,440.4 476.8,935.5 491,935.5 971.9,454.6 		"/>
		<polygon fill="#FFFFFF" points="971.9,468.7 505.1,935.5 519.2,935.5 971.9,482.8 		"/>
		<polygon fill="#FFFFFF" points="971.9,496.9 533.3,935.5 547.4,935.5 971.9,511 		"/>
		<polygon fill="#FFFFFF" points="971.9,525.1 561.5,935.5 575.7,935.5 971.9,539.3 		"/>
		<polygon fill="#FFFFFF" points="971.9,553.4 589.8,935.5 603.9,935.5 971.9,567.5 		"/>
		<polygon fill="#FFFFFF" points="971.9,581.6 618,935.5 632.1,935.5 971.9,595.7 		"/>
		<polygon fill="#FFFFFF" points="971.9,609.8 646.2,935.5 660.4,935.5 971.9,624 		"/>
		<polygon fill="#FFFFFF" points="971.9,638.1 674.5,935.5 688.6,935.5 971.9,652.2 		"/>
		<polygon fill="#FFFFFF" points="971.9,666.3 702.7,935.5 716.8,935.5 971.9,680.4 		"/>
		<polygon fill="#FFFFFF" points="971.9,694.5 730.9,935.5 745.1,935.5 971.9,708.7 		"/>
		<polygon fill="#FFFFFF" points="971.9,722.7 759.1,935.5 773.3,935.5 971.9,736.9 		"/>
		<polygon fill="#FFFFFF" points="971.9,751 787.4,935.5 801.5,935.5 971.9,765.1 		"/>
		<polygon fill="#FFFFFF" points="971.9,779.2 815.6,935.5 829.7,935.5 971.9,793.3 		"/>
		<polygon fill="#FFFFFF" points="971.9,807.4 843.8,935.5 858,935.5 971.9,821.6 		"/>
		<polygon fill="#FFFFFF" points="971.9,835.7 872.1,935.5 886.2,935.5 971.9,849.8 		"/>
		<polygon fill="#FFFFFF" points="971.9,863.9 900.3,935.5 914.4,935.5 971.9,878 		"/>
		<polygon fill="#FFFFFF" points="971.9,892.1 928.5,935.5 942.7,935.5 971.9,906.3 		"/>
		<path fill="#FFFFFF" d="M970.8,921.4l-13,13C964,932.4,968.8,927.6,970.8,921.4z"/>
	</g>
	<g id="g7">
		<path id="path9" fill="#FFFFFF" d="M245.6,280.6L120.4,405.8c-5.4,5.4-8.4,12.6-8.4,20v470.5c0,15.8,12.8,28.5,28.6,28.5h742.9
			c15.8,0,28.5-12.8,28.5-28.5V300.8c0-15.8-12.8-28.5-28.5-28.5H265.8C258.2,272.2,251,275.2,245.6,280.6z"/>
		<g id="g11">
			
				<linearGradient id="path18_1_" gradientUnits="userSpaceOnUse" x1="40.4" y1="770.1" x2="141.95" y2="871.65" gradientTransform="matrix(2 0 0 -2 0 2048)">
				<stop  offset="0" style="stop-color:#B2B3B3;stop-opacity:0"/>
				<stop  offset="1" style="stop-color:#B2B3B3;stop-opacity:0.5"/>
			</linearGradient>
			<path id="path18" fill="url(#path18_1_)" d="M245.6,280.6L120.4,405.8c-2.4,2.4-4.4,5.2-5.8,8.4c-1.6,3.6-2.6,7.6-2.6,11.8v113
				l133.6-133.6c5.4-5.4,8.4-12.6,8.4-20V274.8C251,276.2,248,278.2,245.6,280.6z"/>
			<path id="path20" fill="#B2B3B3" d="M265.8,272.2c-4,0-8,1-11.8,2.6c-3,1.4-5.8,3.4-8.4,5.8L120.4,405.8
				c-2.4,2.4-4.4,5.2-5.8,8.4c-1.6,3.6-2.6,7.6-2.6,11.8v4.6c0-9,7.4-16.4,16.4-16.4h97.2c15.6,0,28.4-12.8,28.4-28.4v-97.2
				c0-9,7.4-16.4,16.4-16.4L265.8,272.2L265.8,272.2z"/>
		</g>
	</g>
	<path id="path11_1_" opacity="0.2" enable-background="new    " d="M952,935.6H72c-11,0-20-9-20-20V613.8c0-22,18-40,40-40h840
		c22,0,40,18,40,40v301.8C972,926.6,963,935.6,952,935.6z"/>
	<path id="path13" fill="#68caf3" d="M952,935.6H72c-11,0-20-9-20-20V655.4c0-22,18-40,40-40h840c22,0,40,18,40,40v260.2
		C972,926.6,963,935.6,952,935.6z"/>
	<g opacity="0.15">
		<path fill="#FFFFFF" d="M57.8,634.7l13.5-13.5C65.8,624.6,61.2,629.2,57.8,634.7z"/>
		<path fill="#FFFFFF" d="M52.1,668.6l53.2-53.2H92c-0.3,0-0.5,0-0.8,0l-39.1,39.1V668.6z"/>
		<polygon fill="#FFFFFF" points="52.1,696.9 133.6,615.4 119.4,615.4 52.1,682.7 		"/>
		<polygon fill="#FFFFFF" points="52.1,725.1 161.8,615.4 147.7,615.4 52.1,711 		"/>
		<polygon fill="#FFFFFF" points="52.1,753.3 190,615.4 175.9,615.4 52.1,739.2 		"/>
		<polygon fill="#FFFFFF" points="52.1,781.6 218.3,615.4 204.1,615.4 52.1,767.4 		"/>
		<polygon fill="#FFFFFF" points="52.1,809.8 246.5,615.4 232.3,615.4 52.1,795.6 		"/>
		<polygon fill="#FFFFFF" points="52.1,838 274.7,615.4 260.6,615.4 52.1,823.9 		"/>
		<polygon fill="#FFFFFF" points="52.1,866.3 303,615.4 288.8,615.4 52.1,852.1 		"/>
		<polygon fill="#FFFFFF" points="52.1,894.5 331.2,615.4 317,615.4 52.1,880.3 		"/>
		<path fill="#FFFFFF" d="M52.1,914.9c0,2.3,0.4,4.6,1.1,6.7l306.2-306.2h-14.1L52.1,908.6V914.9z"/>
		<path fill="#FFFFFF" d="M68.1,935l319.6-319.6h-14.1L58.8,930.1C61.4,932.4,64.6,934.2,68.1,935z"/>
		<polygon fill="#FFFFFF" points="95.8,935.5 415.9,615.4 401.7,615.4 81.6,935.5 		"/>
		<polygon fill="#FFFFFF" points="124,935.5 444.1,615.4 430,615.4 109.9,935.5 		"/>
		<polygon fill="#FFFFFF" points="152.2,935.5 472.3,615.4 458.2,615.4 138.1,935.5 		"/>
		<polygon fill="#FFFFFF" points="180.5,935.5 500.6,615.4 486.4,615.4 166.3,935.5 		"/>
		<polygon fill="#FFFFFF" points="208.7,935.5 528.8,615.4 514.6,615.4 194.5,935.5 		"/>
		<polygon fill="#FFFFFF" points="236.9,935.5 557,615.4 542.9,615.4 222.8,935.5 		"/>
		<polygon fill="#FFFFFF" points="265.2,935.5 585.3,615.4 571.1,615.4 251,935.5 		"/>
		<polygon fill="#FFFFFF" points="293.4,935.5 613.5,615.4 599.3,615.4 279.2,935.5 		"/>
		<polygon fill="#FFFFFF" points="321.6,935.5 641.7,615.4 627.6,615.4 307.5,935.5 		"/>
		<polygon fill="#FFFFFF" points="349.8,935.5 669.9,615.4 655.8,615.4 335.7,935.5 		"/>
		<polygon fill="#FFFFFF" points="378.1,935.5 698.2,615.4 684,615.4 363.9,935.5 		"/>
		<polygon fill="#FFFFFF" points="406.3,935.5 726.4,615.4 712.3,615.4 392.2,935.5 		"/>
		<polygon fill="#FFFFFF" points="434.5,935.5 754.6,615.4 740.5,615.4 420.4,935.5 		"/>
		<polygon fill="#FFFFFF" points="462.8,935.5 782.9,615.4 768.7,615.4 448.6,935.5 		"/>
		<polygon fill="#FFFFFF" points="491,935.5 811.1,615.4 796.9,615.4 476.8,935.5 		"/>
		<polygon fill="#FFFFFF" points="519.2,935.5 839.3,615.4 825.2,615.4 505.1,935.5 		"/>
		<polygon fill="#FFFFFF" points="547.4,935.5 867.5,615.4 853.4,615.4 533.3,935.5 		"/>
		<polygon fill="#FFFFFF" points="575.7,935.5 895.8,615.4 881.6,615.4 561.5,935.5 		"/>
		<polygon fill="#FFFFFF" points="603.9,935.5 924,615.4 909.9,615.4 589.8,935.5 		"/>
		<path fill="#FFFFFF" d="M632.1,935.5L948.6,619c-3.4-1.6-7.1-2.7-10.9-3.2L618,935.5H632.1z"/>
		<path fill="#FFFFFF" d="M660.4,935.5l303.8-303.8c-2-2.7-4.3-5.1-6.9-7.2l-311,311H660.4z"/>
		<path fill="#FFFFFF" d="M688.6,935.5l283.3-283.3c-0.3-4-1.2-7.9-2.7-11.5L674.5,935.5H688.6z"/>
		<polygon fill="#FFFFFF" points="971.9,666.3 702.7,935.5 716.8,935.5 971.9,680.4 		"/>
		<polygon fill="#FFFFFF" points="971.9,694.5 730.9,935.5 745.1,935.5 971.9,708.7 		"/>
		<polygon fill="#FFFFFF" points="971.9,722.7 759.1,935.5 773.3,935.5 971.9,736.9 		"/>
		<polygon fill="#FFFFFF" points="971.9,751 787.4,935.5 801.5,935.5 971.9,765.1 		"/>
		<polygon fill="#FFFFFF" points="971.9,779.2 815.6,935.5 829.7,935.5 971.9,793.3 		"/>
		<polygon fill="#FFFFFF" points="971.9,807.4 843.8,935.5 858,935.5 971.9,821.6 		"/>
		<polygon fill="#FFFFFF" points="971.9,835.7 872.1,935.5 886.2,935.5 971.9,849.8 		"/>
		<polygon fill="#FFFFFF" points="971.9,863.9 900.3,935.5 914.4,935.5 971.9,878 		"/>
		<polygon fill="#FFFFFF" points="971.9,892.1 928.5,935.5 942.7,935.5 971.9,906.3 		"/>
		<path fill="#FFFFFF" d="M970.8,921.4l-13,13C964,932.4,968.8,927.6,970.8,921.4z"/>
	</g>
</g>
</svg>
