<?xml version="1.0" encoding="utf-8"?>
<!-- Generator: Adobe Illustrator 18.0.0, SVG Export Plug-In . SVG Version: 6.00 Build 0)  -->
<!DOCTYPE svg PUBLIC "-//W3C//DTD SVG 1.1//EN" "http://www.w3.org/Graphics/SVG/1.1/DTD/svg11.dtd">
<svg version="1.1"
	 id="Layer_2" xmlns:dc="http://purl.org/dc/elements/1.1/" xmlns:cc="http://creativecommons.org/ns#" xmlns:rdf="http://www.w3.org/1999/02/22-rdf-syntax-ns#" xmlns:svg="http://www.w3.org/2000/svg"
	 xmlns="http://www.w3.org/2000/svg" xmlns:xlink="http://www.w3.org/1999/xlink" x="0px" y="0px" viewBox="0 0 1024 1024"
	 enable-background="new 0 0 1024 1024" xml:space="preserve">
<path id="path3" fill="#54b3e5" d="M931.4,88.4H531.8c-12.4,0-24.2,5.8-32,15.4L478.2,131c-7.6,9.6-19.4,15.4-31.6,15.4h-354
	C70.2,146.6,52,164.8,52,187.2v727.6c0,11.4,9.2,20.6,20.6,20.6h878.6c11.4,0,20.6-9.2,20.6-20.6V146.6v-17.4
	C972,106.6,953.8,88.4,931.4,88.4z"/>
<g id="g5" display="none">
	<polygon id="polygon7" display="inline" fill="#FFFFFF" points="144.2,272.2 92,324.4 92,872.6 932,872.6 932,272.2 	"/>
	<polygon id="polygon9" display="inline" fill="#B2B3B3" points="144.2,324.4 144.2,272.2 92,324.4 	"/>
</g>
<linearGradient id="path16_1_" gradientUnits="userSpaceOnUse" x1="256" y1="556.2" x2="256" y2="860.5" gradientTransform="matrix(2 0 0 -2 0 2048)">
	<stop  offset="0" style="stop-color:#39C6F4"/>
	<stop  offset="1" style="stop-color:#0066B3"/>
</linearGradient>
<path id="path16" fill="url(#path16_1_)" d="M952,935.6H72c-11,0-20-9-20-20V367c0-22,18-40,40-40h840c22,0,40,18,40,40v548.6
	C972,926.6,963,935.6,952,935.6z"/>
<g id="g18">
	<path id="path20" fill="#FFFFFF" d="M642,481.8c-2.2-1.4-4.2-2.6-6.4-4c-41,33.8-81.8,67.4-123.2,101.4
		c62,36.2,123.4,71.8,184.6,107.4c37.4-30.8,74.4-61.4,111.4-91.8c1.8-1.4,3.8-2.6,5.6-3.8c0-0.4,0-0.8,0-1.2
		c-1.8-0.8-3.6-1.4-5.2-2.4C753.2,552.2,697.6,517,642,481.8z"/>
	<path id="path22" fill="#FFFFFF" d="M332.6,688.2c3.2,2.4,5.4,1.6,8.2-0.2c55.4-35.2,110.8-70.4,166-105.6c1.4-0.8,2.6-2,4.4-3.2
		c-39.6-34-78.6-67.4-117.8-101.2c-60.8,39.2-121.6,78.4-182.8,118c1.6,1.2,2.2,2,3,2.6C253.2,628.2,293,658.2,332.6,688.2z"/>
	<path id="path24" fill="#FFFFFF" d="M697,892.8c-2.6,1.4-4.4,2.4-6,3.4c-18.2,10.8-36.6,21.6-54.6,32.6c-3.8,2.2-6.2,2.2-9.8-0.4
		c-36.2-27.4-72.6-54.6-108.6-82c-4.4-3.4-7.2-3.8-11.8-0.2c-35.4,27.4-71,54.6-106.4,82c-3.6,2.8-6,2.8-9.8,0.6
		c-18.6-11.2-37.6-22.2-56.4-33.2c-1.8-1-3.6-2-6.4-3.6c0,14.2-0.2,27.4,0.2,40.4c0,1,0.8,2.2,1.6,3h367c0.6-1,1-2,1-2.8
		C697.2,919.8,697,906.8,697,892.8z"/>
	<path id="path26" fill="#FFFFFF" d="M701.4,690.8c-3.4-3-5.8-3-9.6-0.6c-58,36.6-116.2,72.8-174.2,109.4c-4.2,2.6-7,2.8-11.4,0.2
		c-54.8-35.2-110-70-165-105c-1.8-1.2-3.6-2.2-5.2-3.2c-40.6,30.6-81,61-121.4,91.4c-1.4,1.2-3.2,2-4.8,2.8c0,0.4,0,0.8,0,1.2
		c2,0.8,4,1.6,5.8,2.6C272.8,823,329.8,856.4,386.8,890c4.6,2.8,7.8,3,12.2-0.6c35.8-27.8,72-55.4,108-83c1.6-1.2,3.4-2.6,5-3.8
		c38.4,28.8,76.2,57.2,113.8,86c5.6,4.2,9.2,4,14.8,0.6c55.8-33.4,111.6-66.6,167.6-99.8c1.8-1,3.8-1.8,5.8-2.6c0-0.4,0-0.8,0-1.2
		c-2-1.4-4.2-2.8-6-4.4C772.4,751.2,736.8,721.2,701.4,690.8z"/>
</g>
</svg>
