<?xml version="1.0" encoding="utf-8"?>
<!-- Generator: Adobe Illustrator 18.0.0, SVG Export Plug-In . SVG Version: 6.00 Build 0)  -->
<!DOCTYPE svg PUBLIC "-//W3C//DTD SVG 1.1//EN" "http://www.w3.org/Graphics/SVG/1.1/DTD/svg11.dtd">
<svg version="1.1"
	 id="Layer_2" xmlns:dc="http://purl.org/dc/elements/1.1/" xmlns:cc="http://creativecommons.org/ns#" xmlns:rdf="http://www.w3.org/1999/02/22-rdf-syntax-ns#" xmlns:svg="http://www.w3.org/2000/svg"
	 xmlns="http://www.w3.org/2000/svg" xmlns:xlink="http://www.w3.org/1999/xlink" x="0px" y="0px" viewBox="0 0 1024 1024"
	 enable-background="new 0 0 1024 1024" xml:space="preserve">
<path id="path3" fill="#54b3e5" d="M931.4,88.4H531.8c-12.4,0-24.2,5.8-32,15.4L478.2,131c-7.6,9.6-19.4,15.4-31.6,15.4h-354
	C70.2,146.6,52,164.8,52,187.2v727.6c0,11.4,9.2,20.6,20.6,20.6h878.6c11.4,0,20.6-9.2,20.6-20.6V146.6v-17.4
	C972,106.6,953.8,88.4,931.4,88.4z"/>
<g id="g5" display="none">
	<polygon id="polygon7" display="inline" fill="#FFFFFF" points="144.2,272.2 92,324.4 92,872.6 932,872.6 932,272.2 	"/>
	<polygon id="polygon9" display="inline" fill="#B2B3B3" points="144.2,324.4 144.2,272.2 92,324.4 	"/>
</g>
<radialGradient id="path11_2_" cx="712" cy="380.7" r="424.0892" gradientTransform="matrix(1 0 0 -1 0 1024)" gradientUnits="userSpaceOnUse">
	<stop  offset="0" style="stop-color:#0F0F0F"/>
	<stop  offset="1" style="stop-color:#050505"/>
</radialGradient>
<path id="path11_1_" fill="url(#path11_2_)" d="M952,935.6H72c-11,0-20-9-20-20V367c0-22,18-40,40-40h840c22,0,40,18,40,40v548.6
	C972,926.6,963,935.6,952,935.6z"/>
<path id="path13" display="none" fill="#FFFFFF" d="M886.8,426H785.2l-33.8,95.4c-31,8-60.2,20.4-87.2,36.4l-0.2-0.2L572.8,514
	L501,585.8l43.4,91.4l0.2,0.2c-16,27-28.2,56.2-36.4,87.2l-95.4,33.8V900l95.4,33.8c0.2,0.6,0.4,1.2,0.6,1.8h181.8
	c-15-25.4-23.8-54.8-23.8-86.4c0-93.4,75.8-169.2,169.2-169.2c55.8,0,105.2,27,136,68.6V539.2c-16.4-7.2-33.6-13.4-51.4-18
	L886.8,426z"/>
<g>
	
		<radialGradient id="SVGID_1_" cx="705.4" cy="392.7" r="280.0995" gradientTransform="matrix(1 0 0 -1 0 1024)" gradientUnits="userSpaceOnUse">
		<stop  offset="0" style="stop-color:#828282"/>
		<stop  offset="1" style="stop-color:#050505;stop-opacity:0.5"/>
	</radialGradient>
	<path fill="url(#SVGID_1_)" d="M959,915.6V785.7L894.6,677L959,567.4V367c0-22-18-40-40-40h-25.7L776,542.6L658.7,327H451.8
		l205.6,350.1L504.2,935.6h205L776,814l66.8,121.6H939C950,935.6,959,926.6,959,915.6z"/>
	
		<linearGradient id="SVGID_2_" gradientUnits="userSpaceOnUse" x1="716.95" y1="56.4" x2="716.95" y2="729" gradientTransform="matrix(1 0 0 -1 0 1024)">
		<stop  offset="0" style="stop-color:#000000"/>
		<stop  offset="0.5" style="stop-color:#C4C4C4"/>
		<stop  offset="1" style="stop-color:#000000"/>
	</linearGradient>
	<path display="none" fill="url(#SVGID_2_)" d="M932,295h-4.7h-19l-9.1,16.7L810,475.6l-89.2-163.9l-9.1-16.7h-19H485.8h-55.9
		l28.3,48.2l196,333.8L510.7,919.3L482,967.6h56.2h205h18.9l9.1-16.6l38.7-70.5l38.7,70.5l9.1,16.6h18.9H952c28.7,0,52-23.3,52-52
		V750.3v-8.8l-4.5-7.5l-33.8-57l33.8-57.6l4.4-7.5v-8.7V367C1004,327.3,971.7,295,932,295z"/>
	
		<radialGradient id="SVGID_3_" cx="728.9" cy="392.7" r="275.4052" gradientTransform="matrix(1 0 0 -1 0 1024)" gradientUnits="userSpaceOnUse">
		<stop  offset="0" style="stop-color:#FFFFFF"/>
		<stop  offset="1" style="stop-color:#363636"/>
	</radialGradient>
	<path fill="url(#SVGID_3_)" d="M928.6,677.1l43.4-73.9V367c0-22-18-40-40-40h-4.7L810,542.6L692.7,327H485.8l205.6,350.1
		L538.2,935.6h205L810,814l66.8,121.6H952c11,0,20-9,20-20V750.3L928.6,677.1z"/>
</g>
</svg>
