<?xml version="1.0" encoding="utf-8"?>
<!-- Generator: Adobe Illustrator 18.0.0, SVG Export Plug-In . SVG Version: 6.00 Build 0)  -->
<!DOCTYPE svg PUBLIC "-//W3C//DTD SVG 1.1//EN" "http://www.w3.org/Graphics/SVG/1.1/DTD/svg11.dtd">
<svg version="1.1" id="Layer_1" xmlns="http://www.w3.org/2000/svg" xmlns:xlink="http://www.w3.org/1999/xlink" x="0px" y="0px"
	 viewBox="0 0 512 512" enable-background="new 0 0 512 512" xml:space="preserve">
<g>
	<circle fill="#BFBEBE" cx="256" cy="285.3" r="82.5"/>
	<path fill="#BFBEBE" d="M454.6,143.2h-89c-7.8,0-14.1-6.3-14.1-14.1v-9.2c0-19.5-15.8-35.4-35.4-35.4H195.9
		c-19.5,0-35.4,15.8-35.4,35.4v9.2c0,7.8-6.3,14.1-14.1,14.1h-89C37.8,143.2,22,159,22,178.6v213.5c0,19.5,15.8,35.4,35.4,35.4
		h397.3c19.5,0,35.4-15.8,35.4-35.4V178.6C490,159,474.2,143.2,454.6,143.2z M256,389.1c-57.2,0-103.7-46.5-103.7-103.7
		c0-57.2,46.5-103.7,103.7-103.7c57.2,0,103.7,46.5,103.7,103.7C359.7,342.5,313.2,389.1,256,389.1z"/>
</g>
</svg>
