<?xml version="1.0" encoding="utf-8"?>
<!-- Generator: Adobe Illustrator 18.0.0, SVG Export Plug-In . SVG Version: 6.00 Build 0)  -->
<!DOCTYPE svg PUBLIC "-//W3C//DTD SVG 1.1//EN" "http://www.w3.org/Graphics/SVG/1.1/DTD/svg11.dtd">
<svg version="1.1"
	 id="Layer_2" xmlns:dc="http://purl.org/dc/elements/1.1/" xmlns:cc="http://creativecommons.org/ns#" xmlns:rdf="http://www.w3.org/1999/02/22-rdf-syntax-ns#" xmlns:svg="http://www.w3.org/2000/svg"
	 xmlns="http://www.w3.org/2000/svg" xmlns:xlink="http://www.w3.org/1999/xlink" x="0px" y="0px" viewBox="0 0 1024 1024"
	 enable-background="new 0 0 1024 1024" xml:space="preserve">
<path id="path3" fill="#54b3e5" d="M931.4,88.4H531.8c-12.4,0-24.2,5.8-32,15.4L478.2,131c-7.6,9.6-19.4,15.4-31.6,15.4h-354
	C70.2,146.6,52,164.8,52,187.2v727.6c0,11.4,9.2,20.6,20.6,20.6h878.6c11.4,0,20.6-9.2,20.6-20.6V146.6v-17.4
	C972,106.6,953.8,88.4,931.4,88.4z"/>
<path id="path11" fill="#68caf3" d="M952,935.6H72c-11,0-20-9-20-20V367c0-22,18-40,40-40h840c22,0,40,18,40,40v548.6
	C972,926.6,963,935.6,952,935.6z"/>
<g>
	<g>
		<path fill="#FFFFFF" d="M656.9,935.6V823.3c0-54.5-30.3-101.9-75-126.3c-7.7,8-15.4,15.3-22.6,22c-5.3,4.9-10.2,9.6-14.6,14
			c-8.7,8.7-20.3,13.5-32.6,13.5s-23.9-4.8-32.6-13.5c-3.8-3.8-8-7.8-12.4-12.1c-7.5-7.2-15.7-15.1-23.8-23.6
			c-45.3,24.8-76.1,72.9-76.1,128.2v110.1H656.9z"/>
		<path fill="#FFFFFF" d="M512,485.9c-58.2,0-105.3,47.2-105.3,105.3c0,57.6,52.7,100,83.6,130.9c12,12,31.5,12,43.5,0
			c30.8-30.9,83.6-69.9,83.6-130.9C617.3,533.1,570.2,485.9,512,485.9z M485.1,627.8c-0.4,2.4-2.2,4.2-4.6,4.6
			c-7.9,1.2-26.1,2.6-35.8-7.1c-9.8-9.8-8.3-27.9-7.1-35.8c0.4-2.4,2.2-4.2,4.6-4.6c7.9-1.2,26.1-2.6,35.8,7.1
			C487.8,601.7,486.3,619.9,485.1,627.8z M543.4,632.3c-2.4-0.4-4.2-2.2-4.6-4.6c-1.2-7.9-2.6-26.1,7.1-35.8
			c9.8-9.8,27.9-8.3,35.8-7.1c2.4,0.4,4.2,2.2,4.6,4.6c1.2,7.9,2.6,26.1-7.1,35.8C569.5,635,551.3,633.5,543.4,632.3z"/>
	</g>
	<g>
		<path fill="#FFFFFF" d="M848.3,935.6v-79.4c0-45.1-25.1-84.4-62.1-104.5c-6.4,6.6-12.8,12.6-18.7,18.2c-4.3,4-8.4,7.9-12,11.5
			c-4.8,4.8-10.8,8.5-17.4,10.1c-13.7,3.4-27.2-0.5-36.7-10c-3.1-3.1-6.6-6.5-10.2-10c-6.2-6-13-12.5-19.7-19.6
			c-4.3,2.4-8.5,5-12.5,7.9c8.5,19.7,13.2,41.2,13.2,63.4v112.4H848.3z"/>
		<path fill="#FFFFFF" d="M728.4,577c-48.2,0-87.2,39-87.2,87.2c0,47.7,43.7,82.8,69.2,108.4c9.9,10,26.1,10,36,0
			c25.5-25.6,69.2-57.9,69.2-108.4C815.6,616,776.6,577,728.4,577z M706.2,694.4c-0.3,2-1.8,3.5-3.8,3.8c-6.6,1-21.6,2.2-29.7-5.9
			c-8.1-8.1-6.9-23.1-5.9-29.7c0.3-2,1.8-3.5,3.8-3.8c6.6-1,21.6-2.2,29.7,5.9C708.3,672.8,707.2,687.9,706.2,694.4z M754.4,698.2
			c-2-0.3-3.5-1.8-3.8-3.8c-1-6.6-2.2-21.6,5.9-29.7c8.1-8.1,23.1-6.9,29.7-5.9c2,0.3,3.5,1.8,3.8,3.8c1,6.6,2.2,21.6-5.9,29.7
			S761,699.2,754.4,698.2z"/>
	</g>
	<g>
		<path fill="#FFFFFF" d="M351.8,935.6V825.5c0-23.1,5-45.5,14.1-65.9c-4-2.9-8.2-5.5-12.5-7.9c-6.4,6.6-12.8,12.6-18.7,18.2
			c-4.3,4-8.4,7.9-12,11.5c-4.8,4.8-10.8,8.5-17.4,10.1c-13.7,3.4-27.2-0.5-36.7-10c-3.1-3.1-6.6-6.5-10.2-10
			c-6.2-6-13-12.5-19.7-19.6c-37.5,20.5-63,60.3-63,106.1v77.6H351.8z"/>
		<path fill="#FFFFFF" d="M295.6,577c-48.2,0-87.2,39-87.2,87.2c0,47.7,43.7,82.8,69.2,108.4c9.9,10,26.1,10,36,0
			c25.5-25.6,69.2-57.9,69.2-108.4C382.8,616,343.8,577,295.6,577z M273.4,694.4c-0.3,2-1.8,3.5-3.8,3.8c-6.6,1-21.6,2.2-29.7-5.9
			c-8.1-8.1-6.9-23.1-5.9-29.7c0.3-2,1.8-3.5,3.8-3.8c6.6-1,21.6-2.2,29.7,5.9C275.5,672.8,274.4,687.9,273.4,694.4z M321.6,698.2
			c-2-0.3-3.5-1.8-3.8-3.8c-1-6.6-2.2-21.6,5.9-29.7c8.1-8.1,23.1-6.9,29.7-5.9c2,0.3,3.5,1.8,3.8,3.8c1,6.6,2.2,21.6-5.9,29.7
			S328.2,699.2,321.6,698.2z"/>
	</g>
</g>
</svg>
