<?xml version="1.0" encoding="utf-8"?>
<!-- Generator: Adobe Illustrator 18.0.0, SVG Export Plug-In . SVG Version: 6.00 Build 0)  -->
<!DOCTYPE svg PUBLIC "-//W3C//DTD SVG 1.1//EN" "http://www.w3.org/Graphics/SVG/1.1/DTD/svg11.dtd">
<svg version="1.1"
	 id="Layer_2" xmlns:dc="http://purl.org/dc/elements/1.1/" xmlns:cc="http://creativecommons.org/ns#" xmlns:rdf="http://www.w3.org/1999/02/22-rdf-syntax-ns#" xmlns:svg="http://www.w3.org/2000/svg"
	 xmlns="http://www.w3.org/2000/svg" xmlns:xlink="http://www.w3.org/1999/xlink" x="0px" y="0px" viewBox="0 0 1024 1024"
	 enable-background="new 0 0 1024 1024" xml:space="preserve">
<path id="path3" fill="#54b3e5" d="M931.4,88.4H531.8c-12.4,0-24.2,5.8-32,15.4L478.2,131c-7.6,9.6-19.4,15.4-31.6,15.4h-354
	C70.2,146.6,52,164.8,52,187.2v727.6c0,11.4,9.2,20.6,20.6,20.6h878.6c11.4,0,20.6-9.2,20.6-20.6V146.6v-17.4
	C972,106.6,953.8,88.4,931.4,88.4z"/>
<path id="path11" fill="#68caf3" d="M952,935.6H72c-11,0-20-9-20-20V367c0-22,18-40,40-40h840c22,0,40,18,40,40v548.6
	C972,926.6,963,935.6,952,935.6z"/>
<g opacity="0.15">
	<path fill="#FFFFFF" d="M92.7,146.5c-5.6,0.1-11,1.2-15.8,3.3l-21.5,21.5c-2.1,4.9-3.3,10.3-3.3,16v1.4l42.2-42.2H92.7z"/>
	<polygon fill="#FFFFFF" points="108.4,146.5 52.1,202.8 52.1,217 122.6,146.5 	"/>
	<polygon fill="#FFFFFF" points="136.7,146.5 52.1,231.1 52.1,245.2 150.8,146.5 	"/>
	<polygon fill="#FFFFFF" points="164.9,146.5 52.1,259.3 52.1,273.4 179,146.5 	"/>
	<polygon fill="#FFFFFF" points="193.1,146.5 52.1,287.5 52.1,301.7 207.3,146.5 	"/>
	<polygon fill="#FFFFFF" points="221.3,146.5 52.1,315.7 52.1,329.9 235.5,146.5 	"/>
	<polygon fill="#FFFFFF" points="249.6,146.5 52.1,344 52.1,358.1 263.7,146.5 	"/>
	<polygon fill="#FFFFFF" points="277.8,146.5 52.1,372.2 52.1,386.3 291.9,146.5 	"/>
	<polygon fill="#FFFFFF" points="306,146.5 52.1,400.4 52.1,414.6 320.2,146.5 	"/>
	<polygon fill="#FFFFFF" points="334.3,146.5 52.1,428.7 52.1,442.8 348.4,146.5 	"/>
	<polygon fill="#FFFFFF" points="362.5,146.5 52.1,456.9 52.1,471 376.6,146.5 	"/>
	<polygon fill="#FFFFFF" points="390.7,146.5 52.1,485.1 52.1,499.3 404.9,146.5 	"/>
	<polygon fill="#FFFFFF" points="419,146.5 52.1,513.4 52.1,527.5 433.1,146.5 	"/>
	<path fill="#FFFFFF" d="M499.9,103.9l-15.5,19.5l31.7-31.7C509.8,94.4,504.2,98.5,499.9,103.9z"/>
	<path fill="#FFFFFF" d="M447.2,146.5L52.1,541.6v14.1L466.8,141C460.9,144.4,454.1,146.4,447.2,146.5z"/>
	<polygon fill="#FFFFFF" points="533.4,88.5 52.1,569.8 52.1,584 547.6,88.5 	"/>
	<polygon fill="#FFFFFF" points="561.6,88.5 52.1,598 52.1,612.2 575.8,88.5 	"/>
	<polygon fill="#FFFFFF" points="589.9,88.5 52.1,626.3 52.1,640.4 604,88.5 	"/>
	<polygon fill="#FFFFFF" points="618.1,88.5 52.1,654.5 52.1,668.6 632.2,88.5 	"/>
	<polygon fill="#FFFFFF" points="646.3,88.5 52.1,682.7 52.1,696.9 660.5,88.5 	"/>
	<polygon fill="#FFFFFF" points="674.6,88.5 52.1,711 52.1,725.1 688.7,88.5 	"/>
	<polygon fill="#FFFFFF" points="702.8,88.5 52.1,739.2 52.1,753.3 716.9,88.5 	"/>
	<polygon fill="#FFFFFF" points="731,88.5 52.1,767.4 52.1,781.6 745.2,88.5 	"/>
	<polygon fill="#FFFFFF" points="759.2,88.5 52.1,795.6 52.1,809.8 773.4,88.5 	"/>
	<polygon fill="#FFFFFF" points="787.5,88.5 52.1,823.9 52.1,838 801.6,88.5 	"/>
	<polygon fill="#FFFFFF" points="815.7,88.5 52.1,852.1 52.1,866.3 829.9,88.5 	"/>
	<polygon fill="#FFFFFF" points="843.9,88.5 52.1,880.3 52.1,894.5 858.1,88.5 	"/>
	<path fill="#FFFFFF" d="M872.2,88.5L52.1,908.6v6.3c0,2.3,0.4,4.6,1.1,6.7L886.3,88.5H872.2z"/>
	<path fill="#FFFFFF" d="M900.4,88.5L58.8,930.1c2.6,2.4,5.7,4.1,9.3,4.9L914.5,88.5H900.4z"/>
	<path fill="#FFFFFF" d="M931.5,88.5h-2.9l-847,847h14.1L941.5,89.8C938.3,88.9,935,88.5,931.5,88.5z"/>
	<path fill="#FFFFFF" d="M951.5,93.8L109.9,935.5H124L959.6,99.9C957.2,97.5,954.5,95.5,951.5,93.8z"/>
	<path fill="#FFFFFF" d="M965.9,107.7L138.1,935.5h14.1l818-818C969.2,114,967.8,110.7,965.9,107.7z"/>
	<polygon fill="#FFFFFF" points="971.9,129.9 166.3,935.5 180.5,935.5 971.9,144.1 	"/>
	<polygon fill="#FFFFFF" points="971.9,158.1 194.5,935.5 208.7,935.5 971.9,172.3 	"/>
	<polygon fill="#FFFFFF" points="971.9,186.4 222.8,935.5 236.9,935.5 971.9,200.5 	"/>
	<polygon fill="#FFFFFF" points="971.9,214.6 251,935.5 265.2,935.5 971.9,228.8 	"/>
	<polygon fill="#FFFFFF" points="971.9,242.8 279.2,935.5 293.4,935.5 971.9,257 	"/>
	<polygon fill="#FFFFFF" points="971.9,271.1 307.5,935.5 321.6,935.5 971.9,285.2 	"/>
	<polygon fill="#FFFFFF" points="971.9,299.3 335.7,935.5 349.8,935.5 971.9,313.4 	"/>
	<polygon fill="#FFFFFF" points="971.9,327.5 363.9,935.5 378.1,935.5 971.9,341.7 	"/>
	<polygon fill="#FFFFFF" points="971.9,355.8 392.2,935.5 406.3,935.5 971.9,369.9 	"/>
	<polygon fill="#FFFFFF" points="971.9,384 420.4,935.5 434.5,935.5 971.9,398.1 	"/>
	<polygon fill="#FFFFFF" points="971.9,412.2 448.6,935.5 462.8,935.5 971.9,426.4 	"/>
	<polygon fill="#FFFFFF" points="971.9,440.4 476.8,935.5 491,935.5 971.9,454.6 	"/>
	<polygon fill="#FFFFFF" points="971.9,468.7 505.1,935.5 519.2,935.5 971.9,482.8 	"/>
	<polygon fill="#FFFFFF" points="971.9,496.9 533.3,935.5 547.4,935.5 971.9,511 	"/>
	<polygon fill="#FFFFFF" points="971.9,525.1 561.5,935.5 575.7,935.5 971.9,539.3 	"/>
	<polygon fill="#FFFFFF" points="971.9,553.4 589.8,935.5 603.9,935.5 971.9,567.5 	"/>
	<polygon fill="#FFFFFF" points="971.9,581.6 618,935.5 632.1,935.5 971.9,595.7 	"/>
	<polygon fill="#FFFFFF" points="971.9,609.8 646.2,935.5 660.4,935.5 971.9,624 	"/>
	<polygon fill="#FFFFFF" points="971.9,638.1 674.5,935.5 688.6,935.5 971.9,652.2 	"/>
	<polygon fill="#FFFFFF" points="971.9,666.3 702.7,935.5 716.8,935.5 971.9,680.4 	"/>
	<polygon fill="#FFFFFF" points="971.9,694.5 730.9,935.5 745.1,935.5 971.9,708.7 	"/>
	<polygon fill="#FFFFFF" points="971.9,722.7 759.1,935.5 773.3,935.5 971.9,736.9 	"/>
	<polygon fill="#FFFFFF" points="971.9,751 787.4,935.5 801.5,935.5 971.9,765.1 	"/>
	<polygon fill="#FFFFFF" points="971.9,779.2 815.6,935.5 829.7,935.5 971.9,793.3 	"/>
	<polygon fill="#FFFFFF" points="971.9,807.4 843.8,935.5 858,935.5 971.9,821.6 	"/>
	<polygon fill="#FFFFFF" points="971.9,835.7 872.1,935.5 886.2,935.5 971.9,849.8 	"/>
	<polygon fill="#FFFFFF" points="971.9,863.9 900.3,935.5 914.4,935.5 971.9,878 	"/>
	<polygon fill="#FFFFFF" points="971.9,892.1 928.5,935.5 942.7,935.5 971.9,906.3 	"/>
	<path fill="#FFFFFF" d="M970.8,921.4l-13,13C964,932.4,968.8,927.6,970.8,921.4z"/>
</g>
<g>
	<path fill="#FFFFFF" d="M928.6,934.9L907.8,891c7.7-12.9,13.6-26.9,17.4-41.9l45.8-16.5V784l-45.8-16.4c-3.9-15-9.9-29-17.4-41.9
		l20.8-43.9l-34.4-34.4l-43.9,20.8c-12.9-7.7-26.9-13.6-41.9-17.4L792,605h-48.7L727,650.8c-15,3.9-29,9.9-41.9,17.4l-43.9-20.8
		l-34.4,34.4l20.8,43.9c-7.7,12.9-13.6,26.9-17.4,41.9L564.3,784v48.7l45.8,16.4c3.9,15,9.9,29,17.4,41.9l-20.8,43.9l0.7,0.7h320.5
		L928.6,934.9z M768,889.4c-45,0-81.2-36.4-81.2-81.2c0-45,36.4-81.2,81.2-81.2c45,0,81.2,36.4,81.2,81.2
		C849.1,853.1,812.8,889.4,768,889.4z"/>
	<path fill="#FFFFFF" d="M513.4,570.1l-18.6,26.2l18.4,26.7l31.3-8.3c7.7,6.6,16.2,12.3,25.4,16.5l5.1,32l32,6l16.4-27.9
		c10.2-0.7,20.1-2.9,29.5-6.5l26.2,18.9l26.7-18.4l-8.3-31.3c6.6-7.7,12.3-16.2,16.5-25.4l31.7-5.1l6-32l-27.9-16.4
		c-0.7-10.2-2.9-20.1-6.5-29.5l18.9-26.2l-18.4-26.7l-31.3,8.3c-7.7-6.6-16.2-12.3-25.4-16.5l-5.1-32l-32-6l-16.4,27.9
		c-10.2,0.7-20.1,2.9-29.5,6.5L551.9,412l-26.7,18.4l8.3,31.3c-6.6,7.7-12.3,16.2-16.5,25.4l-32,5.1l-6,32l27.9,16.4
		C507.6,550.6,509.8,560.7,513.4,570.1z M562.4,523.2c5.5-29.5,33.7-48.9,63-43.4c29.5,5.5,48.9,33.7,43.4,63
		c-5.5,29.3-33.7,48.9-63,43.4C576.2,581,557,552.5,562.4,523.2z"/>
	<path fill="#FFFFFF" d="M557.8,776.7l22.7-8.2v-24.2l-22.7-8.2c-1.9-7.5-4.9-14.5-8.7-20.6l10.4-21.6l-17-17l-21.6,10.4
		c-6.5-3.7-13.5-6.8-20.6-8.7l-8.2-22.7h-24.2l-8.2,22.7c-7.5,1.9-14.5,4.9-20.6,8.7l-21.6-10.4l-17,17l10.4,21.6
		c-3.7,6.5-6.8,13.5-8.7,20.6l-22.7,8.2v24.2l22.7,8.2c1.9,7.5,4.9,14.5,8.7,20.6l-10.4,21.6l17,17l21.6-10.4
		c6.5,3.7,13.5,6.8,20.6,8.7l8.2,22.7h24.2l8.2-22.7c7.5-1.9,14.5-4.9,20.6-8.7l21.6,10.4l17-17l-10.4-21.6
		C552.9,790.8,556,784,557.8,776.7z M479.6,796.8c-22.1,0-40.4-17.9-40.4-40.4c0-22.1,17.9-40.4,40.4-40.4
		c22.1,0,40.4,17.9,40.4,40.4C520,778.7,502.1,796.8,479.6,796.8z"/>
</g>
</svg>
