<?xml version="1.0" encoding="utf-8"?>
<!-- Generator: Adobe Illustrator 18.0.0, SVG Export Plug-In . SVG Version: 6.00 Build 0)  -->
<!DOCTYPE svg PUBLIC "-//W3C//DTD SVG 1.1//EN" "http://www.w3.org/Graphics/SVG/1.1/DTD/svg11.dtd">
<svg version="1.1"
	 id="Layer_2" xmlns:dc="http://purl.org/dc/elements/1.1/" xmlns:cc="http://creativecommons.org/ns#" xmlns:rdf="http://www.w3.org/1999/02/22-rdf-syntax-ns#" xmlns:svg="http://www.w3.org/2000/svg"
	 xmlns="http://www.w3.org/2000/svg" xmlns:xlink="http://www.w3.org/1999/xlink" x="0px" y="0px" viewBox="0 0 1024 1024"
	 enable-background="new 0 0 1024 1024" xml:space="preserve">
<path id="path3" fill="#54b3e5" d="M931.4,88.4H531.8c-12.4,0-24.2,5.8-32,15.4L478.2,131c-7.6,9.6-19.4,15.4-31.6,15.4h-354
	C70.2,146.6,52,164.8,52,187.2v727.6c0,11.4,9.2,20.6,20.6,20.6h878.6c11.4,0,20.6-9.2,20.6-20.6V146.6v-17.4
	C972,106.6,953.8,88.4,931.4,88.4z"/>
<g id="g5" display="none">
	<polygon id="polygon7" display="inline" fill="#FFFFFF" points="144.2,272.2 92,324.4 92,872.6 932,872.6 932,272.2 	"/>
	<polygon id="polygon9" display="inline" fill="#B2B3B3" points="144.2,324.4 144.2,272.2 92,324.4 	"/>
</g>
<path id="path11" fill="#68CAF3" d="M952,935.6H72c-11,0-20-9-20-20V367c0-22,18-40,40-40h840c22,0,40,18,40,40v548.6
	C972,926.6,963,935.6,952,935.6z"/>
<g id="Layer_2_copy">
	<g id="g14">
		
			<radialGradient id="path31_1_" cx="256" cy="724.8" r="188.8313" gradientTransform="matrix(2 0 0 -2 0 2048)" gradientUnits="userSpaceOnUse">
			<stop  offset="0" style="stop-color:#4995D1"/>
			<stop  offset="0.1136" style="stop-color:#488EC5"/>
			<stop  offset="0.271" style="stop-color:#467FAE"/>
			<stop  offset="0.4538" style="stop-color:#3E688F"/>
			<stop  offset="0.6559" style="stop-color:#314A68"/>
			<stop  offset="0.8712" style="stop-color:#1E283F"/>
			<stop  offset="1" style="stop-color:#0F1027"/>
		</radialGradient>
		<path id="path31" fill="url(#path31_1_)" d="M157.4,779.8l104.8-181.4l137.4,238L472,710.8l67.4,116.8L634,663.8l98.6,170.8
			l38.8-67.2l59.2,102.4l0,0l114.8-198.6l26.6,46.2V367c0-22-18-40-40-40H92c-22,0-40,18-40,40v378.4l42.8-74L157.4,779.8z"/>
		<polygon id="polygon33" fill="#68CAF3" points="477.2,935.6 477.2,935.6 539.4,827.6 		"/>
		<polygon id="polygon35" fill="#68CAF3" points="539.4,827.6 601.8,935.6 601.8,935.6 		"/>
		<polygon id="polygon37" fill="#68CAF3" points="674.4,935.6 674.4,935.6 732.8,834.6 		"/>
		<polygon id="polygon39" fill="#68CAF3" points="183.6,825.4 183.6,825.4 232.8,740.2 		"/>
		<polygon id="polygon41" fill="#5DC4B8" points="344,932.8 399.6,836.4 262,598.4 157.4,779.8 183.6,825.4 232.8,740.2 		"/>
		<polygon id="polygon43" fill="#5DC4B8" points="674.4,935.6 732.8,834.6 634,663.8 539.4,827.6 601.8,935.6 		"/>
		<polygon id="polygon45" fill="#70C9BE" points="539.4,827.6 472,710.8 399.6,836.4 344,932.8 345.6,935.6 477.2,935.6 
			601.8,935.6 		"/>
		<path id="path47" fill="#27AE61" d="M72,935.6h48l63.6-110.2l0,0l0,0l0,0l-26.2-45.6L94.8,671.4l-42.8,74v170.2
			C52,926.6,61,935.6,72,935.6z"/>
		<polygon id="polygon49" fill="#27AE61" points="183.6,825.4 183.6,825.4 157.4,779.8 		"/>
		<polygon id="polygon51" fill="#69C186" points="232.8,740.2 183.6,825.4 183.6,825.4 120,935.6 345.6,935.6 344,932.8 		"/>
		<polygon id="polygon53" fill="#69C186" points="416.8,1058.8 423.4,1070.6 423.4,1070.6 		"/>
		<polygon id="polygon55" fill="#69C186" points="183.6,825.4 183.6,825.4 120,935.6 120,935.6 		"/>
		<polygon id="polygon57" fill="#29B99A" points="771.4,767.6 732.8,834.6 674.4,935.6 792.8,935.6 830.6,870 		"/>
		<path id="path59" fill="#27AE61" d="M830.6,870L830.6,870L830.6,870l-37.8,65.6H952c11,0,20-9,20-20v-198l-26.6-46.2L830.6,870z"
			/>
		<polygon id="rect61" fill="#27AE61" points="792.8,935.6 830.7,870 830.7,870 		"/>
	</g>
	<circle id="circle63" fill="#FED402" cx="512" cy="580.4" r="68.4"/>
</g>
<g id="g65">
	<g id="g67">
		<path id="path69" fill="#FFFFFF" d="M314.2,400.2v375v20.6V853h395.6v-57.2v-20.6v-375H314.2z M337.8,423.8h348.4v348.4H337.8
			V423.8z"/>
	</g>
	<g id="g71">
		<g id="g73">
			<polygon id="polygon75" fill="#E2E2E2" points="711.8,734.6 709.8,735 709.8,775.2 709.8,795.8 709.8,817.4 751,809 739.6,753 
				735.4,732.8 709.8,606.8 709.8,725 			"/>
		</g>
		<g id="g77">
			<polygon id="polygon79" fill="#E2E2E2" points="363.4,888 534.8,853 356.2,853 			"/>
		</g>
		<g id="g81">
			<polygon id="polygon83" fill="#E2E2E2" points="300.8,462.6 314.2,459.8 314.2,435.8 273,444.2 314.2,646.6 314.2,528.2 			"/>
		</g>
		<g id="g85">
			<polygon id="polygon87" fill="#E2E2E2" points="642.2,393.2 643.8,400.2 667.8,400.2 660.6,365.4 489.2,400.2 607.6,400.2 			"/>
		</g>
	</g>
</g>
</svg>
