<?xml version="1.0" encoding="utf-8"?>
<!-- Generator: Adobe Illustrator 18.0.0, SVG Export Plug-In . SVG Version: 6.00 Build 0)  -->
<!DOCTYPE svg PUBLIC "-//W3C//DTD SVG 1.1//EN" "http://www.w3.org/Graphics/SVG/1.1/DTD/svg11.dtd">
<svg version="1.1"
	 id="Layer_2" xmlns:dc="http://purl.org/dc/elements/1.1/" xmlns:rdf="http://www.w3.org/1999/02/22-rdf-syntax-ns#" xmlns:cc="http://creativecommons.org/ns#" xmlns:svg="http://www.w3.org/2000/svg"
	 xmlns="http://www.w3.org/2000/svg" xmlns:xlink="http://www.w3.org/1999/xlink" x="0px" y="0px" viewBox="0 0 1024 1024"
	 enable-background="new 0 0 1024 1024" xml:space="preserve">
<path id="path3" fill="#54b3e5" d="M931.4,88.4H531.8c-12.4,0-24.2,5.8-32,15.4L478.2,131c-7.6,9.6-19.4,15.4-31.6,15.4h-354
	C70.2,146.6,52,164.8,52,187.2v727.6c0,11.4,9.2,20.6,20.6,20.6h878.6c11.4,0,20.6-9.2,20.6-20.6V146.6v-17.4
	C972,106.6,953.8,88.4,931.4,88.4z"/>
<linearGradient id="path11_1_" gradientUnits="userSpaceOnUse" x1="138.6625" y1="263.7375" x2="885.3375" y2="1010.4125">
	<stop  offset="0" style="stop-color:#FECE08"/>
	<stop  offset="1" style="stop-color:#FF541D"/>
</linearGradient>
<path id="path11" fill="url(#path11_1_)" d="M952,935.5H72c-11,0-20-9-20-20V366.9c0-22,18-40,40-40h840c22,0,40,18,40,40v548.6
	C972,926.5,963,935.5,952,935.5z"/>
<g>
	<path fill="#FFFFFF" d="M972,660.2v-44.7l-179.9-27.3c-6.5-1-12.1-5.1-15-11l-79.5-163.7c-7.2-14.9-28.4-15-35.9-0.2L580.2,576
		c-2.9,5.9-8.6,9.9-15.1,10.8l-180.3,25.1c-16.4,2.3-23.1,22.4-11.3,34L503,773.8c4.7,4.6,6.8,11.3,5.6,17.7l-25.6,144h131.7
		l52.6-27.2c5.8-3,12.8-3,18.6,0.1l50.8,27.1h132.7L846,793.6c-1.1-6.5,1.1-13.1,5.9-17.7L972,660.2z"/>
	<path fill="#F2F2F2" d="M972,660.2v-44.7l-179.9-27.3c-6.5-1-12.1-5.1-15-11l-79.5-163.7c-3.9-8.1-11.9-11.8-19.6-11.2v503.8
		c2.7,0.2,5.4,1,7.9,2.3l50.8,27.1h132.7L846,793.6c-1.1-6.5,1.1-13.1,5.9-17.7L972,660.2z"/>
</g>
</svg>
