<?xml version="1.0" encoding="utf-8"?>
<!-- Generator: Adobe Illustrator 18.0.0, SVG Export Plug-In . SVG Version: 6.00 Build 0)  -->
<!DOCTYPE svg PUBLIC "-//W3C//DTD SVG 1.1//EN" "http://www.w3.org/Graphics/SVG/1.1/DTD/svg11.dtd">
<svg version="1.1"
	 id="Layer_2" xmlns:dc="http://purl.org/dc/elements/1.1/" xmlns:cc="http://creativecommons.org/ns#" xmlns:rdf="http://www.w3.org/1999/02/22-rdf-syntax-ns#" xmlns:svg="http://www.w3.org/2000/svg"
	 xmlns="http://www.w3.org/2000/svg" xmlns:xlink="http://www.w3.org/1999/xlink" x="0px" y="0px" viewBox="0 0 1024 1024"
	 enable-background="new 0 0 1024 1024" xml:space="preserve">
<path id="path3" fill="#54b3e5" d="M931.4,88.4H531.8c-12.4,0-24.2,5.8-32,15.4L478.2,131c-7.6,9.6-19.4,15.4-31.6,15.4h-354
	C70.2,146.6,52,164.8,52,187.2v727.6c0,11.4,9.2,20.6,20.6,20.6h878.6c11.4,0,20.6-9.2,20.6-20.6V146.6v-17.4
	C972,106.6,953.8,88.4,931.4,88.4z"/>
<g id="g5" display="none">
	<polygon id="polygon7" display="inline" fill="#FFFFFF" points="144.2,272.2 92,324.4 92,872.6 932,872.6 932,272.2 	"/>
	<polygon id="polygon9" display="inline" fill="#B2B3B3" points="144.2,324.4 144.2,272.2 92,324.4 	"/>
</g>
<path id="path11" fill="#68CAF3" d="M952,935.6H72c-11,0-20-9-20-20V367c0-22,18-40,40-40h840c22,0,40,18,40,40v548.6
	C972,926.6,963,935.6,952,935.6z"/>
<path id="path20" fill="#68caf3" d="M952,935.6H72c-11,0-20-9-20-20V367c0-22,18-40,40-40h840c22,0,40,18,40,40v548.6
	C972,926.6,963,935.6,952,935.6z"/>
<path id="path13_1_" fill="#161616" d="M972,498.4c-48.8-79-136.2-131.6-235.8-131.6C583,366.8,459,491,459,644
	c0,120.8,88.2,216.4,165.2,291.4h225.2c43.4-41.2,90.4-88.2,122.8-144.6V498.4H972z"/>
<path id="path13" fill="#FFFFFF" d="M972,498.4c-48.8-79-136.2-131.6-235.8-131.6C583,366.8,459,491,459,644
	c0,120.8,88.2,216.4,165.2,291.4h225.2c43.4-41.2,90.4-88.2,122.8-144.6V498.4H972z M665.4,740.4c-1,6.2-5.8,11-12,12
	c-20.8,3.2-68.6,7-94.4-18.8c-25.8-25.8-22-73.4-18.8-94.4c1-6.2,5.8-11,12-12c20.8-3.2,68.6-7,94.4,18.8
	C672.4,671.8,668.6,719.4,665.4,740.4z M818.8,752.4c-6.2-1-11-5.8-12-12c-3.2-20.8-7-68.6,18.8-94.4c25.8-25.8,73.4-22,94.4-18.8
	c6.2,1,11,5.8,12,12c3.2,20.8,7,68.6-18.8,94.4C887.4,759.4,839.6,755.6,818.8,752.4z"/>
</svg>
