<?xml version="1.0" encoding="utf-8"?>
<!-- Generator: Adobe Illustrator 18.0.0, SVG Export Plug-In . SVG Version: 6.00 Build 0)  -->
<!DOCTYPE svg PUBLIC "-//W3C//DTD SVG 1.1//EN" "http://www.w3.org/Graphics/SVG/1.1/DTD/svg11.dtd">
<svg version="1.1"
	 id="Layer_2" xmlns:dc="http://purl.org/dc/elements/1.1/" xmlns:cc="http://creativecommons.org/ns#" xmlns:rdf="http://www.w3.org/1999/02/22-rdf-syntax-ns#" xmlns:svg="http://www.w3.org/2000/svg"
	 xmlns="http://www.w3.org/2000/svg" xmlns:xlink="http://www.w3.org/1999/xlink" x="0px" y="0px" viewBox="0 0 1024 1024"
	 enable-background="new 0 0 1024 1024" xml:space="preserve">
<path id="path3" fill="#54b3e5" d="M931.4,88.4H531.8c-12.4,0-24.2,5.8-32,15.4L478.2,131c-7.6,9.6-19.4,15.4-31.6,15.4h-354
	C70.2,146.6,52,164.8,52,187.2v727.6c0,11.4,9.2,20.6,20.6,20.6h878.6c11.4,0,20.6-9.2,20.6-20.6V146.6v-17.4
	C972,106.6,953.8,88.4,931.4,88.4z"/>
<g id="g5" display="none">
	<polygon id="polygon7" display="inline" fill="#FFFFFF" points="144.2,272.2 92,324.4 92,872.6 932,872.6 932,272.2 	"/>
	<polygon id="polygon9" display="inline" fill="#B2B3B3" points="144.2,324.4 144.2,272.2 92,324.4 	"/>
</g>
<linearGradient id="path11_1_" gradientUnits="userSpaceOnUse" x1="138.6625" y1="1010.5125" x2="885.3375" y2="263.8375">
	<stop  offset="0" style="stop-color:#008CFF"/>
	<stop  offset="1" style="stop-color:#009EFF"/>
</linearGradient>
<path id="path11" fill="url(#path11_1_)" d="M952,935.6H72c-11,0-20-9-20-20V367c0-22,18-40,40-40h840c22,0,40,18,40,40v548.6
	C972,926.6,963,935.6,952,935.6z"/>
<g id="g13">
	<polygon fill="#FFFFFF" points="972,817.6 972,593.5 859.9,705.6 	"/>
	<polygon fill="#FFFFFF" points="972,864.4 972,845.7 846,719.7 710.6,855.1 791.2,935.6 900.8,935.6 	"/>
	<polygon fill="#FFFFFF" points="972,547.2 845.1,420.2 709.7,555.6 845.1,691 972,564 	"/>
	
		<rect id="rect21" x="599.9" y="609.2" transform="matrix(-0.7071 0.7071 -0.7071 -0.7071 1686.0037 711.556)" fill="#FFFFFF" width="191.4" height="191.4"/>
</g>
</svg>
