<?xml version="1.0" encoding="utf-8"?>
<!-- Generator: Adobe Illustrator 18.0.0, SVG Export Plug-In . SVG Version: 6.00 Build 0)  -->
<!DOCTYPE svg PUBLIC "-//W3C//DTD SVG 1.1//EN" "http://www.w3.org/Graphics/SVG/1.1/DTD/svg11.dtd">
<svg version="1.1"
	 id="Layer_2" xmlns:dc="http://purl.org/dc/elements/1.1/" xmlns:cc="http://creativecommons.org/ns#" xmlns:rdf="http://www.w3.org/1999/02/22-rdf-syntax-ns#" xmlns:svg="http://www.w3.org/2000/svg"
	 xmlns="http://www.w3.org/2000/svg" xmlns:xlink="http://www.w3.org/1999/xlink" x="0px" y="0px" viewBox="0 0 1024 1024"
	 enable-background="new 0 0 1024 1024" xml:space="preserve">
<path id="path3" fill="#54b3e5" d="M931.4,88.4H531.8c-12.4,0-24.2,5.8-32,15.4L478.2,131c-7.6,9.6-19.4,15.4-31.6,15.4h-354
	C70.2,146.6,52,164.8,52,187.2v727.6c0,11.4,9.2,20.6,20.6,20.6h878.6c11.4,0,20.6-9.2,20.6-20.6V146.6v-17.4
	C972,106.6,953.8,88.4,931.4,88.4z"/>
<g id="g5" display="none">
	<polygon id="polygon7" display="inline" fill="#FFFFFF" points="144.2,272.2 92,324.4 92,872.6 932,872.6 932,272.2 	"/>
	<polygon id="polygon9" display="inline" fill="#B2B3B3" points="144.2,324.4 144.2,272.2 92,324.4 	"/>
</g>
<path id="path11" fill="#68caf3" d="M952,935.6H72c-11,0-20-9-20-20V367c0-22,18-40,40-40h840c22,0,40,18,40,40v548.6
	C972,926.6,963,935.6,952,935.6z"/>
<path fill="#FFFFFF" d="M932,409.5h-20c-1.9,0-3.5-1.6-3.5-3.5s1.6-3.5,3.5-3.5h20c1.9,0,3.5,1.6,3.5,3.5S933.9,409.5,932,409.5z
	 M897,409.5h-20c-1.9,0-3.5-1.6-3.5-3.5s1.6-3.5,3.5-3.5h20c1.9,0,3.5,1.6,3.5,3.5S898.9,409.5,897,409.5z M862,409.5h-20
	c-1.9,0-3.5-1.6-3.5-3.5s1.6-3.5,3.5-3.5h20c1.9,0,3.5,1.6,3.5,3.5S863.9,409.5,862,409.5z M827,409.5h-20c-1.9,0-3.5-1.6-3.5-3.5
	s1.6-3.5,3.5-3.5h20c1.9,0,3.5,1.6,3.5,3.5S828.9,409.5,827,409.5z M792,409.5h-20c-1.9,0-3.5-1.6-3.5-3.5s1.6-3.5,3.5-3.5h20
	c1.9,0,3.5,1.6,3.5,3.5S793.9,409.5,792,409.5z M757,409.5h-20c-1.9,0-3.5-1.6-3.5-3.5s1.6-3.5,3.5-3.5h20c1.9,0,3.5,1.6,3.5,3.5
	S758.9,409.5,757,409.5z M722,409.5h-20c-1.9,0-3.5-1.6-3.5-3.5s1.6-3.5,3.5-3.5h20c1.9,0,3.5,1.6,3.5,3.5S723.9,409.5,722,409.5z
	 M687,409.5h-20c-1.9,0-3.5-1.6-3.5-3.5s1.6-3.5,3.5-3.5h20c1.9,0,3.5,1.6,3.5,3.5S688.9,409.5,687,409.5z M652,409.5h-20
	c-1.9,0-3.5-1.6-3.5-3.5s1.6-3.5,3.5-3.5h20c1.9,0,3.5,1.6,3.5,3.5S653.9,409.5,652,409.5z M617,409.5h-20c-1.9,0-3.5-1.6-3.5-3.5
	s1.6-3.5,3.5-3.5h20c1.9,0,3.5,1.6,3.5,3.5S618.9,409.5,617,409.5z M582,409.5h-20c-1.9,0-3.5-1.6-3.5-3.5s1.6-3.5,3.5-3.5h20
	c1.9,0,3.5,1.6,3.5,3.5S583.9,409.5,582,409.5z M547,409.5h-20c-1.9,0-3.5-1.6-3.5-3.5s1.6-3.5,3.5-3.5h20c1.9,0,3.5,1.6,3.5,3.5
	S548.9,409.5,547,409.5z M512,409.5h-20c-1.9,0-3.5-1.6-3.5-3.5s1.6-3.5,3.5-3.5h20c1.9,0,3.5,1.6,3.5,3.5S513.9,409.5,512,409.5z
	 M477,409.5h-20c-1.9,0-3.5-1.6-3.5-3.5s1.6-3.5,3.5-3.5h20c1.9,0,3.5,1.6,3.5,3.5S478.9,409.5,477,409.5z M442,409.5h-20
	c-1.9,0-3.5-1.6-3.5-3.5s1.6-3.5,3.5-3.5h20c1.9,0,3.5,1.6,3.5,3.5S443.9,409.5,442,409.5z M407,409.5h-20c-1.9,0-3.5-1.6-3.5-3.5
	s1.6-3.5,3.5-3.5h20c1.9,0,3.5,1.6,3.5,3.5S408.9,409.5,407,409.5z M372,409.5h-20c-1.9,0-3.5-1.6-3.5-3.5s1.6-3.5,3.5-3.5h20
	c1.9,0,3.5,1.6,3.5,3.5S373.9,409.5,372,409.5z M337,409.5h-20c-1.9,0-3.5-1.6-3.5-3.5s1.6-3.5,3.5-3.5h20c1.9,0,3.5,1.6,3.5,3.5
	S338.9,409.5,337,409.5z M302,409.5h-20c-1.9,0-3.5-1.6-3.5-3.5s1.6-3.5,3.5-3.5h20c1.9,0,3.5,1.6,3.5,3.5S303.9,409.5,302,409.5z
	 M267,409.5h-20c-1.9,0-3.5-1.6-3.5-3.5s1.6-3.5,3.5-3.5h20c1.9,0,3.5,1.6,3.5,3.5S268.9,409.5,267,409.5z M232,409.5h-20
	c-1.9,0-3.5-1.6-3.5-3.5s1.6-3.5,3.5-3.5h20c1.9,0,3.5,1.6,3.5,3.5S233.9,409.5,232,409.5z M197,409.5h-20c-1.9,0-3.5-1.6-3.5-3.5
	s1.6-3.5,3.5-3.5h20c1.9,0,3.5,1.6,3.5,3.5S198.9,409.5,197,409.5z M162,409.5h-20c-1.9,0-3.5-1.6-3.5-3.5s1.6-3.5,3.5-3.5h20
	c1.9,0,3.5,1.6,3.5,3.5S163.9,409.5,162,409.5z M127,409.5h-20c-1.9,0-3.5-1.6-3.5-3.5s1.6-3.5,3.5-3.5h20c1.9,0,3.5,1.6,3.5,3.5
	S128.9,409.5,127,409.5z M92,409.5H72c-1.9,0-3.5-1.6-3.5-3.5s1.6-3.5,3.5-3.5h20c1.9,0,3.5,1.6,3.5,3.5S93.9,409.5,92,409.5z"/>
<g id="g15">
	<path id="path17" fill="#DCDBDB" d="M867.8,569.4c0.8,5.4-3,9.8-8.4,9.8h-67c-5.4,0-9.2-4.4-8.4-9.8l18.8-125.6
		c0.8-5.4,5.8-9.8,11.2-9.8h24.2c5.4,0,10.4,4.4,11.2,9.8L867.8,569.4z"/>
	<g id="g19">
		<path id="path21" fill="#DCDBDB" d="M849,417.4c0,5.4-4.4,9.8-9.8,9.8h-26.6c-5.4,0-9.8-4.4-9.8-9.8v-26.6c0-5.4,4.4-9.8,9.8-9.8
			h26.6c5.4,0,9.8,4.4,9.8,9.8V417.4z"/>
		<path id="path23" fill="#F9F9FA" d="M843.2,414c0,4-3.2,7.4-7.4,7.4H816c-4,0-7.4-3.2-7.4-7.4v-19.8c0-4,3.2-7.4,7.4-7.4h19.8
			c4,0,7.4,3.2,7.4,7.4V414z"/>
	</g>
	<path id="path25" fill="#F9F9FA" d="M859.2,550.6c0.6,4.2-2.4,7.8-6.8,7.8h-53.2c-4.4,0-7.4-3.4-6.6-7.8l15-99.8
		c0.6-4.2,4.6-7.8,9-7.8h19.2c4.4,0,8.4,3.4,9,7.8L859.2,550.6z"/>
</g>
</svg>
