<?xml version="1.0" encoding="utf-8"?>
<!-- Generator: Adobe Illustrator 18.0.0, SVG Export Plug-In . SVG Version: 6.00 Build 0)  -->
<!DOCTYPE svg PUBLIC "-//W3C//DTD SVG 1.1//EN" "http://www.w3.org/Graphics/SVG/1.1/DTD/svg11.dtd">
<svg version="1.1"
	 id="Layer_2" xmlns:dc="http://purl.org/dc/elements/1.1/" xmlns:rdf="http://www.w3.org/1999/02/22-rdf-syntax-ns#" xmlns:svg="http://www.w3.org/2000/svg" xmlns:cc="http://creativecommons.org/ns#"
	 xmlns="http://www.w3.org/2000/svg" xmlns:xlink="http://www.w3.org/1999/xlink" x="0px" y="0px" viewBox="0 0 512 512"
	 enable-background="new 0 0 512 512" xml:space="preserve">
<path id="path3" fill="#7B1FA2" d="M465.7,44.2H265.9c-6.2,0-12.1,2.9-16,7.7l-10.8,13.6c-3.8,4.8-9.7,7.7-15.8,7.7h-177
	C35.1,73.3,26,82.4,26,93.6v363.8c0,5.7,4.6,10.3,10.3,10.3h439.3c5.7,0,10.3-4.6,10.3-10.3V73.3v-8.7
	C486,53.3,476.9,44.2,465.7,44.2z"/>
<path id="path11" fill="#9C27B0" d="M476,467.8H36c-5.5,0-10-4.5-10-10V183.4c0-11,9-20,20-20h420c11,0,20,9,20,20v274.3
	C486,463.2,481.5,467.8,476,467.8z"/>
<g>
	<linearGradient id="path13_1_" gradientUnits="userSpaceOnUse" x1="442.6687" y1="131.9187" x2="69.3313" y2="505.2563">
		<stop  offset="0" style="stop-color:#FFE67F;stop-opacity:0"/>
		<stop  offset="1" style="stop-color:#E99E00"/>
	</linearGradient>
	<path id="path13" fill="url(#path13_1_)" d="M476,467.8H36c-5.5,0-10-4.5-10-10V183.5c0-11,9-20,20-20h420c11,0,20,9,20,20v274.3
		C486,463.3,481.5,467.8,476,467.8z"/>
	<g id="g15">
		<path id="path17" fill="#FBA919" d="M69.5,327.5c0,9.9-13.6,16.8-13.6,16.8c4-11.6-9.5-18.3-9.5-28.3s12.9-17.1,12.9-17.1
			C58,315.2,69.5,317.6,69.5,327.5z"/>
		<path id="path19" fill="#F15D22" d="M299.9,467.8C268.8,405.6,179.4,408.3,218,306c25-66.2-56-124.8-56-124.8
			s42.4,69.6-51.7,127.2c-38,23.2-69,61-84.3,100.4v49c0,5.5,4.5,10,10,10H299.9z"/>
		<path id="path21" fill="#F15D22" d="M121.1,216.9c0,18.5-25.4,31.3-25.4,31.3C103.1,226.6,78,214,78,195.5s24.1-32,24.1-32
			C99.5,194,121.1,198.4,121.1,216.9z"/>
		<path id="path23" fill="#F47920" d="M322.1,467.8c-28-13.1-49.7-29.1-31.6-82.8c16.7-49.4-39.8-96.8-39.8-96.8
			s13.2,65.8-54.8,92.8c-41.8,16.6-67.2,50.5-74.1,86.8H322.1z"/>
		<path id="path25" fill="#EF9324" d="M121.1,359c0,20.8,28.6,35.3,28.6,35.3c-8.3-24.4,20-38.6,20-59.4s-27.2-36-27.2-36
			C145.4,333.3,121.1,338.2,121.1,359z"/>
	</g>
	<path id="path27" d="M486,272.7c-25.3-54-80-91.3-143.6-91.5c-42.9-0.3-85.5,18.2-114.9,49.1c-26.6,28-41.5,61.4-43.7,99.6
		c-2.8,47.4,12.7,89,46.6,122.7c5.6,5.6,11.4,10.6,17.4,15.2h188.9c21.1-15.7,38.1-36.5,49.3-60.3L486,272.7L486,272.7z
		 M340.1,344.9c-19.6,33.8-39.2,67.7-58.8,101.5c-2.2,3.8-3,4.1-6.7,1.7c-25.6-16.4-43.6-39-53.6-67.8c-4.1-11.8-5.7-24-6.3-36.3
		c-0.2-3.4,1.7-3.9,4.5-3.9c19.7,0.1,39.4,0,59.1,0c19.7,0,39.4,0,59.1,0C342.2,340.1,342.6,340.7,340.1,344.9z M339,335.1
		c-15.4-26.9-30.8-53.7-46.2-80.6c-4-7-8.2-14-12.3-21c-2-3.3-1.9-4.2,1.5-5.9c12.7-6.5,25.9-11.2,40.1-13.5
		c11.3-1.8,22.6-2.2,33.8-1c14.4,1.6,28.3,5.4,41.3,11.8c9.7,4.8,9.2,3.3,3.7,12.8c-11.9,20.6-23.7,41.2-35.6,61.8
		c-6.8,11.9-13.7,23.8-20.6,35.6c-0.7,1.2-1.6,2.4-2.9,4.1C340.8,337.6,339.8,336.4,339,335.1z M450.4,407.9
		c-10.4,16.5-23.9,30-40.4,40.3c-3.5,2.2-4.3,2-6.4-1.7c-18.6-31.9-37.1-63.8-55.6-95.7c-1.4-2.4-2.8-4.7-4.1-7.1
		c-1.5-2.9-1.1-3.6,2.2-3.6c8.8-0.1,17.6,0,26.4,0c11.3,0,22.7,0,34,0c19.4,0,38.9,0,58.3,0c4.7,0,5.1,0.3,5,5.1
		C469.2,367.9,462.5,388.7,450.4,407.9z"/>
	<g id="g29">
		<path id="path31" fill="#F47920" d="M288.5,340c-11.4-29.8-37.8-51.8-37.8-51.8s5.2,25.9-7.7,51.8c-5.1,10.2-13,20.5-25.1,29.1
			c0.8,3.7,1.9,7.4,3.1,11.1c10,28.8,27.9,51.4,53.6,67.9c3.7,2.4,4.5,2.1,6.7-1.7c1.8-3.2,3.7-6.4,5.5-9.5
			c-4.6-12-4.3-28.3,3.7-51.9C295.8,369.3,293.8,353.9,288.5,340z"/>
		<path id="path33" fill="#F15D22" d="M237.4,219.1c0,12,16.4,20.3,16.4,20.3c-4.8-14,11.5-22.1,11.5-34.1s-15.6-20.7-15.6-20.7
			C251.3,204.4,237.4,207.2,237.4,219.1z"/>
	</g>
</g>
</svg>
