<?xml version="1.0" encoding="utf-8"?>
<!-- Generator: Adobe Illustrator 18.0.0, SVG Export Plug-In . SVG Version: 6.00 Build 0)  -->
<!DOCTYPE svg PUBLIC "-//W3C//DTD SVG 1.1//EN" "http://www.w3.org/Graphics/SVG/1.1/DTD/svg11.dtd">
<svg version="1.1" id="Layer_1" xmlns="http://www.w3.org/2000/svg" xmlns:xlink="http://www.w3.org/1999/xlink" x="0px" y="0px"
	 viewBox="0 0 512 512" enable-background="new 0 0 512 512" xml:space="preserve">
<path fill="#BFBEBE" d="M256,22C126.8,22,22,126.8,22,256s104.8,234,234,234s234-104.8,234-234S385.2,22,256,22z M363.8,329.3
	c2.1-3.1,5.5-5,9.3-5c2,0,4,0.6,5.7,1.6c2.6,1.6,4.5,4.2,5.2,7.1c0.7,3,0.1,6-1.6,8.6c-15.3,22.9-36.6,41.2-61.6,52.9
	c-20.1,9.4-41.5,14.1-63.5,14.1c-5.6,0-11.3-0.3-16.9-1c-3-0.3-5.7-1.9-7.6-4.3c-1.9-2.4-2.6-5.4-2.1-8.5c0.9-5.5,5.5-9.4,11-9.4
	c0.4,0,0.8,0,1.3,0.1c4.8,0.5,9.6,0.8,14.3,0.8c18.8,0,37-4,54.1-12C332.7,364.4,350.8,348.8,363.8,329.3z M111,170.8
	C111,170.8,111,170.8,111,170.8c-2,0-4-0.6-5.7-1.6c-2.7-1.6-4.5-4.1-5.2-7.1c-0.7-3-0.1-6,1.6-8.6c18.8-28.4,45.1-51,76-65.5
	c24.7-11.5,50.9-17.3,78-17.3c7,0,14,0.4,21,1.2c3,0.3,5.7,1.9,7.6,4.3c1.9,2.4,2.6,5.4,2.1,8.4l0,0.1c-0.8,5.3-5.5,9.3-10.9,9.3
	c-0.4,0-0.8,0-1.3-0.1c-6.1-0.7-12.4-1.1-18.5-1.1c-23.8,0-46.9,5.1-68.6,15.3c-27.2,12.7-50.4,32.6-66.9,57.6
	C118.2,169,114.7,170.8,111,170.8z M151.3,184.7c-2.1,3-5.5,4.8-9.2,4.8c-2,0-4-0.6-5.7-1.6c-2.7-1.6-4.5-4.2-5.2-7.2
	c-0.6-3,0-6.1,1.7-8.6c15.2-22.1,36.1-39.7,60.4-51.1c20.1-9.4,41.5-14.1,63.5-14.1c4.7,0,9.5,0.2,14.1,0.7c3,0.3,5.8,1.8,7.7,4.2
	c1.9,2.4,2.7,5.5,2.2,8.5c-0.9,5.8-6.1,9.9-12,9.4c-4-0.4-8-0.6-12-0.6c-18.8,0-37,4-54.1,12C182,150.9,164.2,166,151.3,184.7z
	 M188.7,256c0-37.2,30.1-67.3,67.3-67.3s67.3,30.1,67.3,67.3c0,37.2-30.1,67.3-67.3,67.3S188.7,293.2,188.7,256z M410.3,358.5
	c-18.8,28.4-45.1,51-76,65.5c-24.7,11.5-50.9,17.3-78,17.3c0,0,0,0,0,0c-7,0-14-0.4-21-1.2c-3-0.3-5.7-1.9-7.6-4.3
	c-1.9-2.4-2.6-5.4-2.1-8.4c0.8-5.4,5.5-9.4,10.9-9.4c0.4,0,0.8,0,1.3,0.1c6.1,0.7,12.4,1.1,18.5,1.1c23.8,0,46.9-5.1,68.6-15.3
	c27.2-12.7,50.4-32.6,66.9-57.6c2-3.1,5.5-4.9,9.2-4.9c2,0,4,0.6,5.7,1.6c2.7,1.6,4.5,4.1,5.2,7.1
	C412.6,352.9,412,355.9,410.3,358.5z"/>
</svg>
