<?xml version="1.0" encoding="utf-8"?>
<!-- Generator: Adobe Illustrator 17.0.0, SVG Export Plug-In . SVG Version: 6.00 Build 0)  -->
<!DOCTYPE svg PUBLIC "-//W3C//DTD SVG 1.1//EN" "http://www.w3.org/Graphics/SVG/1.1/DTD/svg11.dtd">
<svg version="1.1" id="Layer_2" xmlns="http://www.w3.org/2000/svg" xmlns:xlink="http://www.w3.org/1999/xlink" x="0px" y="0px"
	 width="512px" height="512px" viewBox="0 0 512 512" enable-background="new 0 0 512 512" xml:space="preserve">
<g>
	<path fill="#F4F4F4" d="M381.008,452.5c0,16.569-13.431,30-30,30H160.992c-16.569,0-30-13.431-30-30v-393c0-16.569,13.431-30,30-30
		h190.015c16.569,0,30,13.431,30,30V452.5z"/>
	<path fill="#191919" d="M132.492,448.5c0,2.209,1.791,4,4,4h239.015c2.209,0,4-1.791,4-4v-385c0-2.209-1.791-4-4-4H136.492
		c-2.209,0-4,1.791-4,4V448.5z"/>
	<path d="M372.858,437.561c0,1.657-1.343,3-3,3H142.142c-1.657,0-3-1.343-3-3V74.439c0-1.657,1.343-3,3-3h227.716
		c1.657,0,3,1.343,3,3V437.561z"/>
	<linearGradient id="SVGID_1_" gradientUnits="userSpaceOnUse" x1="130.9925" y1="256" x2="381.0075" y2="256">
		<stop  offset="0" style="stop-color:#FFFFFF"/>
		<stop  offset="1" style="stop-color:#FFFFFF;stop-opacity:0"/>
	</linearGradient>
	<path opacity="0.4" fill="url(#SVGID_1_)" enable-background="new    " d="M381.008,452.5c0,16.569-13.431,30-30,30l-220.015-423
		c0-16.569,13.431-30,30-30h190.015c16.569,0,30,13.431,30,30V452.5z"/>
	<path fill="#EAEAEA" d="M351.008,484H160.992c-17.369,0-31.5-14.131-31.5-31.5v-393c0-17.369,14.131-31.5,31.5-31.5h190.016
		c17.369,0,31.5,14.131,31.5,31.5v393C382.508,469.869,368.377,484,351.008,484z M160.992,31c-15.715,0-28.5,12.785-28.5,28.5v393
		c0,15.715,12.785,28.5,28.5,28.5h190.016c15.715,0,28.5-12.785,28.5-28.5v-393c0-15.715-12.785-28.5-28.5-28.5H160.992z"/>
</g>
</svg>
