<?xml version="1.0" encoding="utf-8"?>
<!-- Generator: Adobe Illustrator 17.0.0, SVG Export Plug-In . SVG Version: 6.00 Build 0)  -->
<!DOCTYPE svg PUBLIC "-//W3C//DTD SVG 1.1//EN" "http://www.w3.org/Graphics/SVG/1.1/DTD/svg11.dtd">
<svg version="1.1" id="Layer_1" xmlns="http://www.w3.org/2000/svg" xmlns:xlink="http://www.w3.org/1999/xlink" x="0px" y="0px"
	 width="512px" height="512px" viewBox="0 0 512 512" enable-background="new 0 0 512 512" xml:space="preserve">
<g>
	<g>
		<path fill="#E6E7E8" d="M392.958,483.225H119.042c-9.44,0-17.12-7.68-17.12-17.12V45.895c0-9.44,7.68-17.12,17.12-17.12h273.916
			c9.44,0,17.12,7.68,17.12,17.12v420.211C410.077,475.545,402.398,483.225,392.958,483.225z M119.042,31.888
			c-7.723,0-14.007,6.284-14.007,14.007v420.211c0,7.724,6.284,14.007,14.007,14.007h273.916c7.724,0,14.007-6.283,14.007-14.007
			V45.895c0-7.723-6.283-14.007-14.007-14.007H119.042z"/>
	</g>
	<g>
		<circle fill="#F7F7F7" cx="256" cy="459.88" r="12.451"/>
		<path fill="#DDDDDD" d="M256,473.109c-7.295,0-13.229-5.935-13.229-13.229s5.934-13.229,13.229-13.229
			c7.294,0,13.229,5.935,13.229,13.229S263.294,473.109,256,473.109z M256,448.208c-6.437,0-11.673,5.236-11.673,11.673
			s5.236,11.673,11.673,11.673s11.673-5.236,11.673-11.673S262.437,448.208,256,448.208z"/>
	</g>
	<g>
		<path fill="#191919" d="M396.07,436.535c0,1.719-1.394,3.113-3.113,3.113H120.599c-1.719,0-3.113-1.394-3.113-3.113V75.465
			c0-1.719,1.394-3.113,3.113-3.113h272.359c1.719,0,3.113,1.394,3.113,3.113v361.07H396.07z"/>
		<circle fill="#231F20" cx="256" cy="52.12" r="4.41"/>
	</g>
	<linearGradient id="SVGID_1_" gradientUnits="userSpaceOnUse" x1="131.479" y1="256" x2="351.5051" y2="256">
		<stop  offset="0" style="stop-color:#FFFFFF"/>
		<stop  offset="1" style="stop-color:#FFFFFF;stop-opacity:0"/>
	</linearGradient>
	<path opacity="0.4" fill="url(#SVGID_1_)" enable-background="new    " d="M408.521,466.106c0,8.595-6.968,15.563-15.563,15.563
		L103.479,45.894c0-8.595,6.968-15.563,15.563-15.563h273.916c8.595,0,15.563,6.968,15.563,15.563V466.106z"/>
</g>
</svg>
