<?xml version="1.0" encoding="utf-8"?>
<!-- Generator: Adobe Illustrator 17.0.0, SVG Export Plug-In . SVG Version: 6.00 Build 0)  -->
<!DOCTYPE svg PUBLIC "-//W3C//DTD SVG 1.1//EN" "http://www.w3.org/Graphics/SVG/1.1/DTD/svg11.dtd">
<svg version="1.1" id="Layer_1" xmlns="http://www.w3.org/2000/svg" xmlns:xlink="http://www.w3.org/1999/xlink" x="0px" y="0px"
	 width="512px" height="512px" viewBox="0 0 512 512" enable-background="new 0 0 512 512" xml:space="preserve">
<g>
	<g>
		<path fill="#F4F4F4" d="M360.766,453.903c0,16.569-13.431,30-30,30H181.234c-16.569,0-30-13.431-30-30V58.097
			c0-16.569,13.431-30,30-30h149.533c16.569,0,30,13.431,30,30v395.806H360.766z"/>
		<path fill="#EAEAEA" d="M330.767,31.097c14.888,0,27,12.112,27,27l-0.001,395.806c0,14.888-12.112,27-27,27H181.234
			c-14.888,0-27-12.112-27-27V58.097c0-14.888,12.112-27,27-27H330.767 M330.767,28.097H181.234c-16.569,0-30,13.431-30,30v395.806
			c0,16.569,13.431,30,30,30h149.532c16.569,0,30-13.431,30-30h0.001V58.097C360.767,41.528,347.336,28.097,330.767,28.097
			L330.767,28.097z"/>
	</g>
	<path d="M345.32,417.441c0,1.105-0.895,2-2,2H168.68c-1.105,0-2-0.895-2-2V94.559c0-1.105,0.895-2,2-2h174.64c1.105,0,2,0.895,2,2
		V417.441z"/>
	<g>
		<circle fill="#F4F4F4" cx="256" cy="451.78" r="19.515"/>
		<path fill="#EAEAEA" d="M256,472.295c-11.312,0-20.515-9.203-20.515-20.515c0-11.312,9.203-20.516,20.515-20.516
			c11.312,0,20.515,9.203,20.515,20.516C276.515,463.092,267.312,472.295,256,472.295z M256,433.265
			c-10.209,0-18.515,8.306-18.515,18.516c0,10.209,8.306,18.515,18.515,18.515c10.209,0,18.515-8.306,18.515-18.515
			C274.515,441.57,266.209,433.265,256,433.265z"/>
	</g>
	<circle cx="256" cy="49.84" r="3.702"/>
	<path d="M277.476,67.303c0,1.105-0.895,2-2,2h-38.951c-1.105,0-2-0.895-2-2v-1.254c0-1.105,0.895-2,2-2h38.951c1.105,0,2,0.895,2,2
		V67.303z"/>
	
		<linearGradient id="SVGID_1_" gradientUnits="userSpaceOnUse" x1="301.234" y1="-162" x2="510.767" y2="-162" gradientTransform="matrix(1 0 0 -1 -150 94)">
		<stop  offset="0" style="stop-color:#FFFFFF"/>
		<stop  offset="1" style="stop-color:#FFFFFF;stop-opacity:0"/>
	</linearGradient>
	<path opacity="0.4" fill="url(#SVGID_1_)" enable-background="new    " d="M360.766,453.903c0,16.569-13.431,30-30,30
		L151.234,58.097c0-16.569,13.431-30,30-30h149.533c16.569,0,30,13.431,30,30v395.806H360.766z"/>
</g>
</svg>
