<?xml version="1.0" encoding="utf-8"?>
<!-- Generator: Adobe Illustrator 18.0.0, SVG Export Plug-In . SVG Version: 6.00 Build 0)  -->
<!DOCTYPE svg PUBLIC "-//W3C//DTD SVG 1.1//EN" "http://www.w3.org/Graphics/SVG/1.1/DTD/svg11.dtd">
<svg version="1.1" id="Layer_1" xmlns="http://www.w3.org/2000/svg" xmlns:xlink="http://www.w3.org/1999/xlink" x="0px" y="0px"
	 viewBox="0 0 512 512" enable-background="new 0 0 512 512" xml:space="preserve">
<path fill="#FFFFFF" d="M412.4,239.7c0-50.4-24-95.3-61.1-123.9c-8.4-44.9-47.9-79-95.3-79c-47.3,0-86.8,34.1-95.3,79
	c-37.1,28.6-61.1,73.5-61.1,123.9c0,78.9,58.7,144.3,134.7,154.9v18.6c-8,6.4-13.1,16.2-13.1,27.2c0,19.2,15.6,34.8,34.8,34.8
	s34.8-15.6,34.8-34.8c0-11-5.1-20.8-13.1-27.2v-18.6C353.7,384,412.4,318.6,412.4,239.7z M404.3,239.7
	c0,74.4-55.1,136.1-126.6,146.7v-20.6c60.2-10.3,106.2-62.9,106.2-126.1c0-31.8-11.7-60.9-31-83.3v-22.6c0-2.1-0.1-4.2-0.2-6.3
	C384.3,154.7,404.3,194.9,404.3,239.7z M353,255.8v-86.3c14.3,19.7,22.8,44,22.8,70.3c0,58.6-42.4,107.6-98.1,117.8v-7.3
	C320.7,340.4,353,301.8,353,255.8z M167.2,159.4v-11.7v-14c0-4.5,0.3-9,1-13.4c0.6-4,1.5-7.9,2.6-11.7
	c10.9-36.8,44.9-63.7,85.2-63.7c40.3,0,74.3,26.9,85.2,63.7c1.1,3.8,2,7.7,2.6,11.7c0.7,4.4,1,8.8,1,13.4v14v11.7v96.3
	c0,49-39.8,88.8-88.8,88.8c-49,0-88.8-39.8-88.8-88.8V159.4z M234.3,350.3v7.3c-55.7-10.2-98.1-59.2-98.1-117.8
	c0-26.2,8.5-50.5,22.8-70.3v86.3C159,301.8,191.3,340.4,234.3,350.3z M107.7,239.7c0-44.8,20-85.1,51.5-112.3
	c-0.1,2.1-0.2,4.2-0.2,6.3v22.6c-19.3,22.4-31,51.5-31,83.4c0,63.1,46,115.7,106.2,126.1v20.6C162.8,375.9,107.7,314.1,107.7,239.7z
	"/>
</svg>
