<?xml version="1.0" encoding="utf-8"?>
<!-- Generator: Adobe Illustrator 17.0.0, SVG Export Plug-In . SVG Version: 6.00 Build 0)  -->
<!DOCTYPE svg PUBLIC "-//W3C//DTD SVG 1.1//EN" "http://www.w3.org/Graphics/SVG/1.1/DTD/svg11.dtd">
<svg version="1.1" id="Layer_1_copy" xmlns="http://www.w3.org/2000/svg" xmlns:xlink="http://www.w3.org/1999/xlink" x="0px"
	 y="0px" width="512px" height="512px" viewBox="0 0 512 512" enable-background="new 0 0 512 512" xml:space="preserve">
<g>
	<g enable-background="new    ">
		<path opacity="0.5" fill="#E2E0E0" enable-background="new    " d="M256,163.388c-51.066,0-92.612,41.546-92.612,92.612
			s41.546,92.612,92.612,92.612s92.612-41.546,92.612-92.612S307.066,163.388,256,163.388z M256,303.5
			c-26.192,0-47.5-21.308-47.5-47.5s21.308-47.5,47.5-47.5s47.5,21.308,47.5,47.5S282.192,303.5,256,303.5z"/>
		<path fill="#FFFFFF" d="M256,208.5c-26.192,0-47.5,21.308-47.5,47.5s21.308,47.5,47.5,47.5s47.5-21.308,47.5-47.5
			S282.192,208.5,256,208.5z M256,298.5c-23.435,0-42.5-19.065-42.5-42.5s19.065-42.5,42.5-42.5s42.5,19.065,42.5,42.5
			S279.435,298.5,256,298.5z"/>
	</g>
</g>
<g>
	<g enable-background="new    ">
		<g>
			<path fill="#FFFFFF" d="M255.999,159.388c-53.358,0-96.612,43.254-96.612,96.612s43.254,96.612,96.612,96.612
				s96.612-43.254,96.612-96.612S309.357,159.388,255.999,159.388z M255.999,346.612c-49.964,0-90.612-40.648-90.612-90.612
				s40.648-90.612,90.612-90.612s90.612,40.648,90.612,90.612C346.611,305.963,305.963,346.612,255.999,346.612z"/>
			<path opacity="0.5" fill="#FFFFFF" enable-background="new    " d="M417.804,94.195
				c-43.219-43.219-100.683-67.021-161.805-67.021c-61.121,0-118.584,23.802-161.805,67.021
				C50.975,137.414,27.173,194.878,27.173,256s23.802,118.586,67.022,161.805c43.219,43.22,100.682,67.022,161.805,67.022
				s118.586-23.802,161.805-67.022c43.22-43.219,67.022-100.682,67.022-161.805C484.825,194.877,461.022,137.414,417.804,94.195z
				 M413.562,413.562c-42.086,42.087-98.043,65.265-157.562,65.265s-115.476-23.178-157.562-65.265
				C56.351,371.475,33.173,315.518,33.173,256c0-59.519,23.178-115.476,65.264-157.562c42.087-42.086,98.043-65.264,157.562-65.264
				s115.476,23.178,157.562,65.264S478.825,196.48,478.827,256C478.827,315.519,455.649,371.475,413.562,413.562z"/>
		</g>
		<path fill="#F7F7F7" d="M413.561,98.438c-42.086-42.086-98.043-65.264-157.562-65.264S140.524,56.352,98.437,98.438
			C56.351,140.524,33.173,196.481,33.173,256s23.178,115.476,65.265,157.562c42.086,42.087,98.043,65.265,157.562,65.265
			s115.476-23.178,157.562-65.265c42.087-42.086,65.265-98.043,65.265-157.562C478.825,196.481,455.647,140.524,413.561,98.438z
			 M255.999,352.612c-53.358,0-96.612-43.254-96.612-96.612s43.254-96.612,96.612-96.612s96.612,43.254,96.612,96.612
			S309.357,352.612,255.999,352.612z"/>
	</g>
</g>
<path id="path3743" fill="#E600FF" d="M194.163,248.593c12.086,29.482,25.278,46.791,33.693,56.373
	c6.643,7.566,43.051,41.204,1.089,93.774c24.931-51.473,15.957-81.987-28.615-100.807c0,41.118,0,71.956,0,108.962
	c1.398,44.876-44.706,47.621-55.95,35.685c-11.614-12.328,15.77-53.226,49.782-39.796
	C194.163,369.889,194.163,308.214,194.163,248.593z"/>
</svg>
