<?xml version="1.0" encoding="utf-8"?>
<!-- Generator: Adobe Illustrator 18.0.0, SVG Export Plug-In . SVG Version: 6.00 Build 0)  -->
<!DOCTYPE svg PUBLIC "-//W3C//DTD SVG 1.1//EN" "http://www.w3.org/Graphics/SVG/1.1/DTD/svg11.dtd">
<svg version="1.1" id="Layer_1" xmlns="http://www.w3.org/2000/svg" xmlns:xlink="http://www.w3.org/1999/xlink" x="0px" y="0px"
	 viewBox="0 0 512 512" enable-background="new 0 0 512 512" xml:space="preserve">
<g>
	<path fill="#FFFFFF" d="M411.7,492.3H100.3c-44.5,0-80.6-36.2-80.6-80.6V100.3c0-44.5,36.2-80.6,80.6-80.6h311.4
		c44.5,0,80.6,36.2,80.6,80.6v311.4C492.3,456.1,456.1,492.3,411.7,492.3z M100.3,77.6c-12.5,0-22.7,10.2-22.7,22.7v311.4
		c0,12.5,10.2,22.7,22.7,22.7h311.4c12.5,0,22.7-10.2,22.7-22.7V100.3c0-12.5-10.2-22.7-22.7-22.7H100.3z"/>
</g>
</svg>
