<?xml version="1.0" encoding="UTF-8" standalone="no"?>
<svg
   xmlns:dc="http://purl.org/dc/elements/1.1/"
   xmlns:cc="http://creativecommons.org/ns#"
   xmlns:rdf="http://www.w3.org/1999/02/22-rdf-syntax-ns#"
   xmlns:svg="http://www.w3.org/2000/svg"
   xmlns="http://www.w3.org/2000/svg"
   version="1.1"
   id="Layer_1"
   x="0px"
   y="0px"
   viewBox="0 0 512 512"
   enable-background="new 0 0 512 512"
   xml:space="preserve"><metadata
   id="metadata11"><rdf:RDF><cc:Work
       rdf:about=""><dc:format>image/svg+xml</dc:format><dc:type
         rdf:resource="http://purl.org/dc/dcmitype/StillImage" /><dc:title></dc:title></cc:Work></rdf:RDF></metadata><defs
   id="defs9" />

<g
   id="layer1"><g
     style=""
     id="g4">
	
</g><path
     id="rect1368"
     d="M 91.154297 26 C 55.058564 26 26 55.058559 26 91.154297 L 26 420.8457 C 26 456.94145 55.058564 486 91.154297 486 L 420.8457 486 C 456.94144 486 486 456.94145 486 420.8457 L 486 91.154297 C 486 55.058559 456.94144 26 420.8457 26 L 91.154297 26 z M 252.74609 87.410156 C 287.05729 87.410156 319.31466 100.2082 343.57617 123.44531 C 367.83768 146.68242 381.19822 177.57894 381.19922 210.44141 C 381.19922 243.30388 367.83826 274.19845 343.57617 297.43555 C 319.31466 320.67323 287.05728 333.4707 252.74609 333.4707 C 218.43489 333.4707 186.17753 320.67323 161.91602 297.43555 C 137.65394 274.19845 124.29102 243.30388 124.29102 210.44141 C 124.29102 177.57894 137.65256 146.68242 161.91406 123.44531 C 186.17615 100.2082 218.4349 87.410156 252.74609 87.410156 z M 252.74609 157.09766 C 221.98656 157.09766 197.05078 180.98065 197.05078 210.44141 C 197.05078 239.90218 221.98656 263.7832 252.74609 263.7832 C 283.50563 263.7832 308.43945 239.90218 308.43945 210.44141 C 308.43945 180.98065 283.50563 157.09766 252.74609 157.09766 z M 89.492188 404.60938 C 90.338026 404.61537 91.183219 404.65748 92.025391 404.73633 L 420.00391 404.73633 C 420.83635 404.65833 421.67175 404.61593 422.50781 404.60938 C 438.68393 404.60886 451.79738 417.72232 451.79688 433.89844 C 451.79631 450.07379 438.68316 463.18607 422.50781 463.18555 C 421.66331 463.18055 420.81942 463.13865 419.97852 463.06055 L 91.996094 463.06055 C 91.163625 463.13795 90.328225 463.17964 89.492188 463.18555 C 73.316835 463.18606 60.203692 450.07379 60.203125 433.89844 C 60.202615 417.72233 73.316073 404.60886 89.492188 404.60938 z "
     style="fill:#bebebe;fill-opacity:1;stroke:none;stroke-width:0.33966205;stroke-opacity:0.56818183" /><g
     id="g848"
     transform="translate(0,177.89831)"><g
       transform="translate(0.54237747)"
       id="g842" /></g></g><g
   id="layer2" /></svg>