<?xml version="1.0" encoding="UTF-8" standalone="no"?>
<svg
   xmlns:dc="http://purl.org/dc/elements/1.1/"
   xmlns:cc="http://creativecommons.org/ns#"
   xmlns:rdf="http://www.w3.org/1999/02/22-rdf-syntax-ns#"
   xmlns:svg="http://www.w3.org/2000/svg"
   xmlns="http://www.w3.org/2000/svg"
   xmlns:sodipodi="http://sodipodi.sourceforge.net/DTD/sodipodi-0.dtd"
   xmlns:inkscape="http://www.inkscape.org/namespaces/inkscape"
   version="1.1"
   id="Layer_1"
   x="0px"
   y="0px"
   viewBox="0 0 512 512"
   enable-background="new 0 0 512 512"
   xml:space="preserve"
   sodipodi:docname="drive-harddisk-system-symbolic.svg"
   inkscape:version="0.92.3 (2405546, 2018-03-11)"><sodipodi:namedview
   pagecolor="#ffffff"
   bordercolor="#666666"
   borderopacity="1"
   objecttolerance="10"
   gridtolerance="10"
   guidetolerance="10"
   inkscape:pageopacity="0"
   inkscape:pageshadow="2"
   inkscape:window-width="1214"
   inkscape:window-height="840"
   id="namedview11"
   showgrid="false"
   inkscape:zoom="1.3037281"
   inkscape:cx="-105.99191"
   inkscape:cy="-52.525747"
   inkscape:window-x="697"
   inkscape:window-y="131"
   inkscape:window-maximized="0"
   inkscape:current-layer="Layer_1" /><metadata
   id="metadata11"><rdf:RDF><cc:Work
       rdf:about=""><dc:format>image/svg+xml</dc:format><dc:type
         rdf:resource="http://purl.org/dc/dcmitype/StillImage" /><dc:title /></cc:Work></rdf:RDF></metadata><defs
   id="defs9" />

<g
   id="layer1"><g
     style=""
     id="g4">
	
</g><path
     id="rect1368"
     d="M 91.154297 26 C 55.058564 26 26 55.058559 26 91.154297 L 26 420.8457 C 26 456.94145 55.058564 486 91.154297 486 L 420.8457 486 C 456.94144 486 486 456.94145 486 420.8457 L 486 91.154297 C 486 55.058559 456.94144 26 420.8457 26 L 91.154297 26 z M 266.70898 116.40625 C 298.30523 116.45 296.52758 149.74812 296.33008 167.70312 C 296.20133 179.46687 302.70812 187.43352 309.35938 195.82227 C 315.30062 202.84602 323.08086 213.11133 327.53711 224.89258 C 331.16836 234.49258 332.58188 245.11711 328.98438 255.78711 C 330.06187 256.19586 331.13211 256.80367 332.16211 257.70117 C 332.16711 257.70667 332.17078 257.71084 332.17578 257.71484 C 334.76328 259.91859 335.57313 263.3175 336.29688 266.46875 C 337.02188 269.6225 337.69563 272.58414 339.10938 274.18164 C 339.11037 274.18364 339.11423 274.1855 339.11523 274.1875 L 339.11523 274.18945 C 343.41898 278.9657 345.29188 282.53711 345.10938 285.72461 C 344.92687 288.91336 342.56766 291.10953 339.66016 292.86328 C 333.84516 296.37078 325.07672 299.02859 319.79297 305.43359 L 318.76953 304.58984 L 319.78516 305.44336 C 314.24266 312.03961 307.38555 315.84156 300.93555 316.35156 C 294.49555 316.85906 288.45102 313.88461 285.19727 307.38086 C 285.19377 307.37206 285.18955 307.36252 285.18555 307.35352 C 284.75055 306.52227 284.43164 305.64633 284.21289 304.73633 C 275.82164 305.20133 268.5275 302.65695 262.6875 303.12695 C 254.08 303.60195 248.70609 305.67737 243.80859 305.70117 C 241.91609 309.86117 238.23141 312.56336 233.69141 313.59961 C 227.43141 315.02961 219.5818 313.59117 211.8418 309.54492 L 212.45703 308.36914 L 211.83398 309.54102 C 204.60398 305.70852 195.4293 306.05953 188.6543 304.64453 C 185.2668 303.93703 182.27195 302.6857 180.81445 299.8457 C 179.35945 297.01195 179.6232 293.10453 181.68945 287.45703 C 182.3357 285.44453 181.84719 282.47859 181.36719 279.33984 C 180.88594 276.20109 180.41719 272.81359 181.99219 269.87109 C 181.99619 269.86609 181.99995 269.86147 182.00195 269.85547 C 182.00195 269.85547 182.00195 269.85352 182.00195 269.85352 C 183.74195 266.51477 186.60945 265.13352 189.2207 264.19727 C 191.8307 263.26102 194.20484 262.6293 195.87109 260.9668 C 197.65609 259.0793 199.25633 256.27469 201.42383 253.96094 C 201.71383 253.65219 202.01789 253.35266 202.33789 253.06641 C 201.31664 246.33391 202.42164 239.22023 204.74414 232.24023 C 209.66789 217.45273 220.06016 203.24625 227.44141 194.46875 C 233.72391 185.53875 235.5757 178.34008 236.2207 169.20508 C 236.74445 156.71508 227.3807 119.41211 262.68945 116.56836 C 264.0857 116.45706 265.42398 116.40425 266.70898 116.40625 z M 270.98828 144.06836 L 270.90039 144.07031 C 269.07039 144.08656 267.52562 144.63633 265.95312 145.83008 C 264.38188 147.02508 263.26258 148.49406 262.36133 150.53906 C 261.45883 152.58281 261.07266 154.5925 261.09766 156.9375 L 261.09766 157.11914 C 261.11266 157.78164 261.16023 158.41359 261.24023 159.02734 C 262.65898 159.36484 264.17164 159.91023 265.77539 160.70898 C 265.66539 160.07523 265.61977 159.42148 265.63477 158.70898 C 265.63477 158.65643 265.63553 158.6137 265.64453 158.5625 C 265.68703 157.265 265.91023 156.17422 266.36523 155.07422 C 266.82148 153.97547 267.37063 153.18516 268.10938 152.56641 C 268.81437 151.97641 269.49359 151.70708 270.27734 151.70508 C 270.31604 151.70508 270.35453 151.70503 270.39453 151.70703 C 271.22703 151.73328 271.92289 152.04195 272.61914 152.7207 C 273.31414 153.39945 273.79703 154.21586 274.17578 155.34961 C 274.53578 156.43211 274.69808 157.48711 274.67188 158.72461 C 274.67187 158.78461 274.6543 158.82836 274.6543 158.88086 C 274.6118 160.16961 274.38859 161.25188 273.93359 162.35938 C 273.63234 163.09312 273.28945 163.68008 272.87695 164.17383 C 274.0132 164.56883 275.37609 165.0532 277.15234 165.81445 C 277.40859 165.91945 277.65703 166.02883 277.89453 166.14258 C 278.59578 165.29508 279.17945 164.31594 279.68945 163.14844 C 280.5832 161.10344 280.9882 159.10375 280.9707 156.75 C 280.9532 156.69 280.95312 156.63813 280.95312 156.57812 C 280.91062 154.28437 280.47055 152.35125 279.56055 150.375 C 278.6318 148.34875 277.48156 146.89633 275.88281 145.73633 C 274.31031 144.59508 272.78078 144.06836 270.98828 144.06836 z M 246.44727 146.01172 C 246.34727 146.00972 246.24508 146.01353 246.14258 146.01953 C 244.82758 146.08828 243.7368 146.62938 242.6543 147.70312 C 241.5718 148.77688 240.82438 150.08297 240.26562 151.88672 C 239.70687 153.69047 239.51055 155.43344 239.62305 157.46094 L 239.62305 157.47852 C 239.74305 159.50602 240.14609 161.22586 240.90234 162.94336 C 241.53984 164.39461 242.27078 165.49484 243.20703 166.37109 C 243.63578 166.05484 244.00445 165.78484 244.31445 165.55859 C 244.7982 165.20234 245.07797 164.99281 245.66797 164.53906 C 245.57422 164.47281 245.48172 164.39966 245.38672 164.31836 C 244.82047 163.82836 244.38141 163.19133 244.00391 162.29883 C 243.63391 161.43008 243.42672 160.57102 243.32422 159.54102 C 243.32422 159.49727 243.31641 159.46362 243.31641 159.41992 C 243.22141 158.35492 243.28016 157.42742 243.50391 156.48242 C 243.72766 155.53742 244.03727 154.825 244.50977 154.25 C 244.98227 153.67375 245.48078 153.38128 246.08203 153.33008 C 246.13828 153.32508 246.195 153.32227 246.25 153.32227 C 246.78375 153.31852 247.26945 153.52109 247.7832 153.96484 C 248.34945 154.45484 248.77977 155.09094 249.16602 155.99219 C 249.52727 156.85969 249.74125 157.72094 249.84375 158.74219 C 249.84375 158.78594 249.84452 158.81948 249.85352 158.86328 C 249.92732 159.63203 249.91456 160.32195 249.81836 161.00195 C 250.80336 160.35195 251.93234 159.74984 253.21484 159.30859 C 253.43984 159.23109 253.67125 159.15995 253.90625 159.09375 C 253.97375 158.3175 253.97948 157.51336 253.92578 156.66211 L 253.92578 156.64648 C 253.81328 154.61898 253.41055 152.90109 252.6543 151.18359 C 251.8993 149.46484 250.99648 148.24477 249.80273 147.29102 C 248.70148 146.41227 247.63727 146.01472 246.44727 146.01172 z M 257.60742 160.07617 C 256.15992 160.08117 254.86578 160.33953 253.70703 160.73828 C 250.33828 161.89828 248.10242 164.31508 246.70117 165.64258 L 246.70117 165.64453 C 246.70017 165.64553 246.69631 165.64644 246.69531 165.64844 C 246.42281 165.90969 246.06648 166.14734 245.20898 166.77734 C 244.34523 167.41109 243.04984 168.36102 241.18359 169.75977 C 239.52484 171.00352 238.9868 172.61937 239.56055 174.51562 C 240.13305 176.41063 241.95773 178.59703 245.30273 180.48828 L 245.30859 180.49023 L 245.3125 180.49414 C 247.38875 181.71289 248.80805 183.35656 250.43555 184.66406 C 252.06305 185.97156 253.8618 186.99492 256.87305 187.16992 C 260.4093 187.37492 263.01109 186.315 265.30859 185 C 267.60734 183.68625 269.55797 182.08172 271.79297 181.35547 L 271.79688 181.35352 L 271.80078 181.35352 C 276.38703 179.92102 279.65398 177.03688 280.67773 174.29688 C 281.18898 172.92687 281.1757 171.62508 280.56445 170.42383 C 279.9532 169.22258 278.70086 168.08203 276.56836 167.20703 L 276.5625 167.20508 L 276.55664 167.20312 C 272.12414 165.30562 270.20031 165.17125 267.72656 163.5625 C 263.69906 160.97375 260.37242 160.06617 257.60742 160.07617 z M 276.93945 171.50977 L 277.0293 173.01953 C 276.3493 173.05953 275.17555 173.54812 273.7793 174.32812 C 272.38305 175.10688 270.74109 176.14695 268.93359 177.18945 C 265.31859 179.2757 261.02789 181.39648 256.49414 181.39648 C 251.96539 181.39648 248.38625 179.30367 245.8125 177.26367 C 244.525 176.24367 243.47961 175.23164 242.69336 174.49414 C 242.29961 174.12664 241.96922 173.82633 241.73047 173.64258 C 241.58297 173.52883 241.45664 173.48505 241.43164 173.46875 C 241.41664 173.4575 241.45414 173.47039 241.49414 173.08789 L 241.51953 171.94727 C 242.06328 171.94727 242.32859 172.19336 242.65234 172.44336 C 242.97734 172.69461 243.32531 173.01562 243.72656 173.39062 C 244.52906 174.14313 245.53445 175.11508 246.75195 176.08008 C 249.18695 178.00883 252.43039 179.88477 256.49414 179.88477 C 260.55039 179.88477 264.63273 177.92711 268.17773 175.88086 C 269.95148 174.85711 271.58602 173.81836 273.04102 173.00586 C 274.49602 172.19461 275.7457 171.58097 276.93945 171.50977 z M 280.96875 176.9375 C 279.2161 179.43947 276.13413 181.58067 272.25977 182.79297 C 272.25777 182.79297 272.25395 182.79487 272.25195 182.79688 C 270.4182 183.39563 268.48305 184.9275 266.06055 186.3125 C 263.6343 187.7 260.67211 188.90273 256.78711 188.67773 C 253.45711 188.48398 251.25203 187.26125 249.48828 185.84375 C 247.72828 184.42875 246.3693 182.86969 244.56055 181.80469 C 244.55955 181.80469 244.55569 181.80473 244.55469 181.80273 C 243.93719 181.45148 242.54828 180.5132 242.14453 180.2207 C 241.36078 194.99695 231.4968 213.53922 226.7793 224.23047 C 223.5418 231.93547 221.61227 240.1718 221.38477 248.24805 C 212.87102 236.8993 219.08977 222.36055 222.41602 216.06055 C 226.12727 209.1693 226.70594 207.275 225.80469 207.9375 C 222.45719 213.39875 217.21047 222.09867 215.16797 231.04492 C 214.10422 235.70617 213.91102 240.42797 215.29102 244.79297 C 216.67102 249.15797 219.62008 253.17898 224.89258 256.45898 C 224.89258 256.45898 224.89453 256.45898 224.89453 256.45898 C 232.07078 260.86023 236.95414 265.26617 239.83789 269.16992 C 242.72139 273.07367 243.62656 276.49031 242.72656 278.91406 C 242.27531 280.12531 241.36461 281.0707 240.06836 281.6582 C 239.02711 282.1307 237.73695 282.37795 236.2207 282.37695 C 236.99195 283.3457 237.76648 284.32961 238.52148 285.31836 C 239.70398 286.86586 240.85422 288.43578 241.85547 290.01953 C 256.63172 300.10328 274.03547 296.2282 286.57422 287.2832 C 287.82047 283.0032 289.04867 278.95945 289.23242 275.9707 L 289.23242 275.96875 C 289.53367 270.025 289.84555 264.73898 290.93555 260.36523 C 292.0268 255.98898 293.98898 252.42133 297.58398 250.45508 C 298.16023 250.13883 298.73539 249.885 299.30664 249.6875 C 299.34664 249.3175 299.4005 248.95125 299.4668 248.59375 C 300.4968 241.76375 306.59695 241.42937 314.25195 244.79688 C 321.63195 248.13563 324.40039 251.05281 323.15039 255.00781 C 323.19539 255.00581 323.24016 255.00491 323.28516 255.00391 C 323.77016 254.99291 324.26719 254.99031 324.77344 255.00781 C 326.30844 250.01906 323.11617 246.36195 314.48242 242.1582 C 313.90242 241.8832 313.32938 241.62953 312.76562 241.39453 C 313.91812 236.71203 313.69023 231.96687 312.61523 227.45312 C 310.26023 217.55312 303.78672 208.78313 298.85547 204.42188 C 297.94547 204.38438 298.03414 205.18289 299.86914 206.96289 C 304.41414 211.14539 314.35336 226.16492 308.97461 240.10742 C 307.43836 239.71367 306.00172 239.52445 304.69922 239.56445 C 302.64172 228.1982 297.88078 218.76617 295.48828 214.32617 C 290.98578 205.95742 283.98125 188.80875 280.96875 176.9375 z M 305.58008 244.9043 C 303.50317 244.91416 302.00528 250.23748 301.44141 249.62695 C 302.07244 252.51498 303.75546 259.069 306.37305 259.74609 C 310.15305 260.77609 315.66953 256.86641 316.95703 254.41016 C 318.48703 251.15391 316.73406 248.93781 311.13281 246.35156 C 309.05156 245.42031 307.15008 244.8983 305.58008 244.9043 z M 299.24219 252.58203 C 299.11469 252.64453 298.98547 252.71125 298.85547 252.78125 C 296.07547 254.3025 294.50602 257.01031 293.50977 261.00781 C 292.51227 265.00406 292.18086 270.18594 291.88086 276.11719 L 291.88086 276.12305 L 291.88086 276.13086 C 291.59711 280.76086 289.47695 286.45641 288.00195 292.00391 C 286.5257 297.55141 285.79633 302.81203 287.54883 306.14453 L 287.55469 306.15625 L 287.56055 306.16992 C 290.3843 311.83867 295.17406 314.14188 300.72656 313.70312 C 306.27781 313.26562 312.58195 309.88687 317.75195 303.73438 C 323.7057 296.52188 333.02781 293.76359 338.28906 290.58984 C 340.92031 289.00359 342.34453 287.54102 342.45703 285.57227 C 342.56953 283.60352 341.24797 280.52148 337.13672 275.95898 L 337.13477 275.95508 L 337.13086 275.95312 C 334.99211 273.54563 334.42273 270.165 333.70898 267.0625 C 332.99648 263.96 332.17336 261.19156 330.44336 259.72656 L 330.4375 259.7207 L 330.42969 259.71289 C 328.17844 257.74419 325.97711 257.5945 323.34961 257.6582 C 322.78336 257.672 322.19906 257.70091 321.60156 257.72461 C 318.60781 261.16711 311.51445 265.38805 306.5957 264.0918 C 302.1007 262.95805 299.55969 257.71953 299.24219 252.58203 z M 208.87891 252.96875 C 206.50766 252.985 204.93383 254.09664 203.36133 255.77539 C 201.49758 257.76539 199.90586 260.56844 197.78711 262.80469 L 197.77344 262.81641 L 197.76367 262.83008 C 195.46992 265.12758 192.56594 265.81656 190.11719 266.69531 C 187.66844 267.57406 185.69461 268.50125 184.34961 271.09375 L 184.3457 271.10352 L 184.33984 271.11133 C 183.28984 273.06133 183.52094 275.86 183.99219 278.9375 C 184.46469 282.01375 185.18219 285.29281 184.21094 288.28906 L 184.20508 288.3125 L 184.19531 288.33594 C 182.23031 293.69219 182.25203 296.83156 183.17578 298.63281 C 184.10078 300.43281 186.11297 301.40188 189.19922 302.04688 C 195.36922 303.33437 204.98727 302.90891 213.07227 307.19141 C 213.07427 307.19341 213.07808 307.19431 213.08008 307.19531 C 220.38758 311.01431 227.70406 312.24422 233.10156 311.01172 C 238.50031 309.77922 242.01844 306.38414 242.49219 300.15039 L 242.49219 300.13281 L 242.49414 300.11719 C 242.86039 296.46219 240.04711 291.68523 236.41211 286.92773 C 232.77836 282.16898 228.48953 277.50617 226.45703 273.26367 L 226.45508 273.25781 L 226.45117 273.25195 C 223.92242 267.82195 221.46211 262.92609 218.81836 259.33984 C 216.17461 255.75359 213.42945 253.55242 210.2832 253.07617 C 209.81445 253.00487 209.37594 252.96975 208.96094 252.96875 L 208.87891 252.96875 z M 89.492188 404.60938 C 90.338026 404.61537 91.183219 404.65748 92.025391 404.73633 L 420.00391 404.73633 C 420.83635 404.65833 421.67175 404.61593 422.50781 404.60938 C 438.68393 404.60886 451.79738 417.72232 451.79688 433.89844 C 451.79631 450.07379 438.68316 463.18607 422.50781 463.18555 C 421.66331 463.18055 420.81942 463.13865 419.97852 463.06055 L 91.996094 463.06055 C 91.163625 463.13795 90.328225 463.17964 89.492188 463.18555 C 73.316835 463.18606 60.203692 450.07379 60.203125 433.89844 C 60.202615 417.72233 73.316073 404.60886 89.492188 404.60938 z "
     style="fill:#bebebe;fill-opacity:1;stroke:none;stroke-width:0.33966205;stroke-opacity:0.56818183" /><g
     id="g848"
     transform="translate(0,177.89831)"><g
       transform="translate(0.54237747)"
       id="g842" /></g></g><g
   id="layer2" /></svg>