<?xml version="1.0" encoding="utf-8"?>
<!-- Generator: Adobe Illustrator 18.0.0, SVG Export Plug-In . SVG Version: 6.00 Build 0)  -->
<!DOCTYPE svg PUBLIC "-//W3C//DTD SVG 1.1//EN" "http://www.w3.org/Graphics/SVG/1.1/DTD/svg11.dtd">
<svg version="1.1" id="Layer_1" xmlns="http://www.w3.org/2000/svg" xmlns:xlink="http://www.w3.org/1999/xlink" x="0px" y="0px"
	 viewBox="0 0 512 512" enable-background="new 0 0 512 512" xml:space="preserve">
<g display="none">
	<path display="inline" fill="#FFFFFF" d="M410.8,446.8H101.2c-4,0-7.2,3.2-7.2,7.2s3.2,7.2,7.2,7.2h309.7c4,0,7.2-3.2,7.2-7.2
		S414.8,446.8,410.8,446.8z"/>
</g>
<path fill-rule="evenodd" clip-rule="evenodd" fill="#FFFFFF" d="M453.9,449.9L453.9,449.9L453.9,449.9c0-0.8-0.1-27.9-2.8-67.6
	c0,0,0-0.1,0-0.2c0.1-0.8,0.1-1.5,0.1-2.3c0-1.3-26.2-330.7-26.2-330.7c-0.5-16.3-15.1-29.4-33.1-29.4H120.1
	c-17.2,0-31.4,12.1-32.9,27.5c0,0-26.3,331.4-26.3,332.7c0,0.7,0,1.5,0.1,2.2c0,0.2,0,0.3,0,0.3l-2.8,67.6h0c0,0.1,0,0.2,0,0.3
	c0,0.8,0,1.5,0.1,2.3l-0.1,0.8h0c0,0.1,0,0.2,0,0.3c0,21.4,17.3,38.7,38.7,38.7h318.3c21.4,0,38.7-17.3,38.7-38.7c0-0.1,0-0.2,0-0.3
	h0l0-0.1c0-0.1,0-0.3,0-0.8c0-0.7,0.1-1.5,0.1-2.2C453.9,450.1,453.9,450,453.9,449.9z M415.2,482.3H96.8
	c-15.9,0-28.7-12.9-28.7-28.7c0-15.9,12.9-28.7,28.7-28.7h318.3c15.9,0,28.7,12.9,28.7,28.7C443.9,469.4,431,482.3,415.2,482.3z"/>
</svg>
