<?xml version="1.0" encoding="UTF-8" standalone="no"?>
<svg
   xmlns:dc="http://purl.org/dc/elements/1.1/"
   xmlns:cc="http://creativecommons.org/ns#"
   xmlns:rdf="http://www.w3.org/1999/02/22-rdf-syntax-ns#"
   xmlns:svg="http://www.w3.org/2000/svg"
   xmlns="http://www.w3.org/2000/svg"
   xml:space="preserve"
   enable-background="new 0 0 512 512"
   viewBox="0 0 512 512"
   y="0px"
   x="0px"
   id="Layer_1"
   version="1.1"><metadata
   id="metadata11"><rdf:RDF><cc:Work
       rdf:about=""><dc:format>image/svg+xml</dc:format><dc:type
         rdf:resource="http://purl.org/dc/dcmitype/StillImage" /><dc:title></dc:title></cc:Work></rdf:RDF></metadata><defs
   id="defs9" />

<g
   id="layer1"><g
     id="g4"
     style="">
	
</g><path
     id="rect1368"
     d="M 91.154297 26 C 55.058564 26 26 55.058559 26 91.154297 L 26 420.8457 C 26 456.94145 55.058564 486 91.154297 486 L 420.8457 486 C 456.94144 486 486 456.94145 486 420.8457 L 486 91.154297 C 486 55.058559 456.94144 26 420.8457 26 L 91.154297 26 z M 324.37109 106.0332 L 358.83008 140.62891 L 315.44727 183.32617 L 280.98633 149.14062 L 324.37109 106.0332 z M 192.57422 107.67969 L 205.75391 120.58594 L 166.34961 160.12305 L 153.16992 146.94336 L 192.57422 107.67969 z M 218.93164 133.62891 L 232.11133 146.80664 L 192.71094 186.07031 L 179.53125 172.89258 L 218.93164 133.62891 z M 255.31445 167.26367 C 278.79072 167.26367 297.59961 186.20846 297.59961 209.41016 C 297.59961 232.74914 278.65343 251.55859 255.31445 251.55859 C 231.97547 251.55859 213.02734 232.74914 213.02734 209.41016 C 213.02734 186.20846 231.97547 167.26367 255.31445 167.26367 z M 255.31445 185.79688 C 242.27208 185.79688 231.70117 196.36779 231.70117 209.41016 C 231.70117 222.45253 242.27208 233.02539 255.31445 233.02539 C 268.35682 233.02539 278.92578 222.45253 278.92578 209.41016 C 278.92578 196.36779 268.35682 185.79688 255.31445 185.79688 z M 227.44336 270.09375 L 283.18359 270.09375 L 283.18359 288.62695 L 227.44336 288.62695 L 227.44336 270.09375 z M 227.58203 307.16016 L 283.32031 307.16016 L 283.32031 325.69531 L 227.58203 325.69531 L 227.58203 307.16016 z M 89.492188 404.60938 A 29.288136 29.288136 0 0 1 92.025391 404.73633 L 420.00391 404.73633 A 29.288136 29.288136 0 0 1 422.50781 404.60938 A 29.288136 29.288136 0 0 1 451.79688 433.89844 A 29.288136 29.288136 0 0 1 422.50781 463.18555 A 29.288136 29.288136 0 0 1 419.97852 463.06055 L 91.996094 463.06055 A 29.288136 29.288136 0 0 1 89.492188 463.18555 A 29.288136 29.288136 0 0 1 60.203125 433.89844 A 29.288136 29.288136 0 0 1 89.492188 404.60938 z "
     style="fill:#bebebe;fill-opacity:1;stroke:none;stroke-width:0.33966205;stroke-opacity:0.56818183" /><g
     transform="translate(0,177.89831)"
     id="g848"><g
       id="g842"
       transform="translate(0.54237747)" /></g></g><g
   id="layer2" /></svg>