<?xml version="1.0" encoding="utf-8"?>
<!-- Generator: Adobe Illustrator 18.0.0, SVG Export Plug-In . SVG Version: 6.00 Build 0)  -->
<!DOCTYPE svg PUBLIC "-//W3C//DTD SVG 1.1//EN" "http://www.w3.org/Graphics/SVG/1.1/DTD/svg11.dtd">
<svg version="1.1" id="Layer_1" xmlns="http://www.w3.org/2000/svg" xmlns:xlink="http://www.w3.org/1999/xlink" x="0px" y="0px"
	 viewBox="0 0 512 512" enable-background="new 0 0 512 512" xml:space="preserve">
<g display="none">
	<path display="inline" fill="#FFFFFF" d="M410.8,446.8H101.2c-4,0-7.2,3.2-7.2,7.2s3.2,7.2,7.2,7.2h309.7c4,0,7.2-3.2,7.2-7.2
		S414.8,446.8,410.8,446.8z"/>
</g>
<g>
	<path fill="#FFFFFF" d="M415.2,424.8H96.8c-15.9,0-28.7,12.9-28.7,28.7c0,15.9,12.9,28.7,28.7,28.7h318.3
		c15.9,0,28.7-12.9,28.7-28.7C443.9,437.7,431,424.8,415.2,424.8z"/>
	<path fill="#FFFFFF" d="M237.6,179.2c0.1,1.6,0.4,3,1,4.4c0.5,1.2,1.1,2,1.8,2.7c0.3-0.3,0.6-0.5,0.9-0.7c0.4-0.3,0.6-0.5,1.1-0.8
		c-0.1-0.1-0.1-0.1-0.2-0.2c-0.5-0.4-0.8-0.9-1.1-1.6c-0.3-0.7-0.5-1.4-0.5-2.2c0,0,0-0.1,0-0.1c-0.1-0.9,0-1.6,0.2-2.4
		c0.2-0.8,0.4-1.3,0.8-1.8c0.4-0.5,0.8-0.7,1.3-0.7c0,0,0.1,0,0.1,0c0.4,0,0.8,0.2,1.2,0.5c0.5,0.4,0.8,0.9,1.1,1.6
		c0.3,0.7,0.5,1.4,0.5,2.2c0,0,0,0.1,0,0.1c0.1,0.6,0,1.2,0,1.7c0.8-0.5,1.7-1,2.7-1.4c0.2-0.1,0.4-0.1,0.6-0.2
		c0.1-0.6,0.1-1.3,0-1.9v0c-0.1-1.6-0.4-3-1-4.4c-0.6-1.4-1.3-2.4-2.3-3.1c-0.9-0.7-1.7-1-2.7-1v0c-0.1,0-0.2,0-0.2,0
		c-1.1,0.1-1.9,0.5-2.8,1.3c-0.9,0.9-1.5,1.9-1.9,3.3C237.7,176.1,237.6,177.5,237.6,179.2L237.6,179.2z"/>
	<path fill="#FFFFFF" d="M242.2,197.6L242.2,197.6L242.2,197.6c1.7,1,2.8,2.3,4.1,3.3c1.3,1,2.7,1.9,5.1,2c2.8,0.2,4.9-0.7,6.7-1.7
		c1.8-1.1,3.4-2.3,5.2-2.9l0,0l0,0c3.7-1.1,6.3-3.5,7.1-5.6c0.4-1.1,0.4-2.1-0.1-3.1c-0.5-1-1.5-1.9-3.2-2.6l0,0l0,0
		c-3.5-1.5-5.1-1.6-7.1-2.9c-3.2-2.1-5.9-2.8-8.1-2.8v0c-1.2,0-2.2,0.2-3.1,0.5c-2.7,0.9-4.5,2.9-5.6,3.9l0,0c0,0,0,0,0,0
		c-0.2,0.2-0.5,0.4-1.2,0.9c-0.7,0.5-1.7,1.3-3.2,2.4c-1.3,1-1.8,2.3-1.3,3.8S239.5,196.1,242.2,197.6z M239.1,191.7l0-0.9
		c0.4,0,0.6,0.2,0.9,0.4c0.3,0.2,0.5,0.5,0.9,0.8c0.6,0.6,1.4,1.4,2.4,2.2c1.9,1.5,4.5,3,7.8,3c3.2,0,6.5-1.6,9.3-3.2
		c1.4-0.8,2.7-1.6,3.9-2.3c1.2-0.6,2.2-1.1,3.1-1.2v0l0.1,1.2c-0.5,0-1.5,0.4-2.6,1c-1.1,0.6-2.4,1.5-3.9,2.3
		c-2.9,1.7-6.3,3.4-10,3.4c-3.6,0-6.5-1.7-8.5-3.3c-1-0.8-1.9-1.6-2.5-2.2c-0.3-0.3-0.6-0.5-0.8-0.7c-0.1-0.1-0.2-0.1-0.2-0.1
		C239.1,192,239.1,192,239.1,191.7z"/>
	<path fill="#FFFFFF" d="M453.9,449.9L453.9,449.9L453.9,449.9c0-0.8-0.1-27.9-2.8-67.6c0,0,0-0.1,0-0.2c0.1-0.8,0.1-1.5,0.1-2.3
		c0-1.3-26.2-330.7-26.2-330.7c-0.5-16.3-15.1-29.4-33.1-29.4H120.1c-17.2,0-31.4,12.1-32.9,27.5c0,0-26.3,331.4-26.3,332.7
		c0,0.7,0,1.5,0.1,2.2c0,0.2,0,0.3,0,0.3l-2.8,67.6h0c0,0.1,0,0.2,0,0.3c0,0.8,0,1.5,0.1,2.3l-0.1,0.8h0c0,0.1,0,0.2,0,0.3
		c0,21.4,17.3,38.7,38.7,38.7h318.3c21.4,0,38.7-17.3,38.7-38.7c0-0.1,0-0.2,0-0.3h0l0-0.1c0-0.1,0-0.3,0-0.8c0-0.7,0.1-1.5,0.1-2.2
		C453.9,450.1,453.9,450,453.9,449.9z M191,276.7c-0.4-2.5-0.8-5.2,0.5-7.6c0,0,0,0,0,0c0,0,0,0,0,0c1.4-2.7,3.7-3.8,5.8-4.5
		c2.1-0.7,4-1.3,5.3-2.6c1.4-1.5,2.7-3.8,4.4-5.6c0.2-0.2,0.5-0.5,0.7-0.7c-0.8-5.4,0.1-11.1,1.9-16.7c3.9-11.8,12.3-23.2,18.2-30.2
		c5-7.1,6.5-12.9,7-20.2c0.4-10-7.1-39.8,21.2-42.1c1.1-0.1,2.2-0.1,3.2-0.1l0,0c25.3,0,23.9,26.7,23.7,41
		c-0.1,9.4,5.1,15.8,10.4,22.5c4.8,5.6,11,13.8,14.5,23.3c2.9,7.7,4,16.2,1.2,24.7c0.9,0.3,1.7,0.8,2.5,1.5c0,0,0,0,0,0
		c2.1,1.8,2.7,4.5,3.3,7c0.6,2.5,1.1,4.9,2.3,6.2c0,0,0,0,0,0l0,0c3.4,3.8,4.9,6.7,4.8,9.2c-0.1,2.6-2,4.3-4.4,5.7
		c-4.7,2.8-11.7,4.9-15.9,10.1l-0.8-0.7l0.8,0.7c-4.4,5.3-9.9,8.3-15.1,8.7c-5.2,0.4-10-2-12.6-7.2c0,0,0,0,0,0
		c-0.3-0.7-0.6-1.4-0.8-2.1c-6.7,0.4-12.5-1.7-17.2-1.3c-6.9,0.4-11.2,2-15.1,2.1c-1.5,3.3-4.5,5.5-8.1,6.3c-5,1.1-11.3,0-17.5-3.2
		l0.5-0.9l-0.5,0.9c-5.8-3.1-13.1-2.8-18.5-3.9c-2.7-0.6-5.1-1.6-6.3-3.8c-1.2-2.3-1-5.4,0.7-9.9C191.8,281.5,191.4,279.2,191,276.7
		z M415.2,482.3H96.8c-15.9,0-28.7-12.9-28.7-28.7c0-15.9,12.9-28.7,28.7-28.7h318.3c15.9,0,28.7,12.9,28.7,28.7
		C443.9,469.4,431,482.3,415.2,482.3z"/>
	<path fill="#FFFFFF" d="M258.6,181.8c-0.1-0.5-0.1-1-0.1-1.6c0,0,0-0.1,0-0.1c0-1,0.2-1.9,0.6-2.8c0.4-0.9,0.8-1.5,1.4-2
		c0.6-0.5,1.1-0.7,1.7-0.7c0,0,0.1,0,0.1,0c0.7,0,1.2,0.3,1.8,0.8c0.6,0.5,0.9,1.2,1.2,2.1c0.3,0.9,0.4,1.7,0.4,2.7c0,0,0,0.1,0,0.1
		c0,1-0.2,1.9-0.6,2.8c-0.2,0.6-0.5,1.1-0.8,1.5c0.9,0.3,2,0.7,3.4,1.3c0.2,0.1,0.4,0.2,0.6,0.3c0.6-0.7,1-1.5,1.4-2.4
		c0.7-1.6,1-3.2,1-5.1c0,0,0-0.1,0-0.1c0-1.8-0.4-3.4-1.1-5c-0.7-1.6-1.7-2.8-2.9-3.7c-1.3-0.9-2.5-1.3-3.9-1.3v0c0,0,0,0-0.1,0
		c-1.5,0-2.7,0.5-4,1.4c-1.3,1-2.2,2.1-2.9,3.8c-0.7,1.6-1,3.2-1,5.1v0.1c0,0.5,0,1,0.1,1.5C256.1,180.7,257.3,181.1,258.6,181.8z"
		/>
	<path fill="#FFFFFF" d="M304.6,259.3c-0.5,0-0.9,0-1.4,0.1c-2.4,2.8-8.1,6.1-12,5.1c-3.6-0.9-5.6-5.1-5.9-9.2l0,0
		c-0.1,0.1-0.2,0.1-0.3,0.2c-2.2,1.2-3.5,3.4-4.3,6.6c-0.8,3.2-1.1,7.3-1.3,12.1v0v0c-0.2,3.7-1.9,8.3-3.1,12.7
		c-1.2,4.4-1.8,8.6-0.4,11.3l0,0l0,0c2.3,4.5,6.1,6.4,10.5,6c4.4-0.4,9.5-3.1,13.6-8c4.8-5.8,12.2-8,16.4-10.5
		c2.1-1.3,3.2-2.4,3.3-4c0.1-1.6-1-4-4.3-7.7l0,0l0,0c-1.7-1.9-2.2-4.6-2.7-7.1c-0.6-2.5-1.2-4.7-2.6-5.9l0,0l0,0
		C308.5,259.4,306.7,259.3,304.6,259.3z"/>
	<path fill="#FFFFFF" d="M291,261c3,0.8,7.4-2.3,8.5-4.3c1.2-2.6-0.2-4.4-4.7-6.4c-1.7-0.7-3.2-1.2-4.4-1.2c-1.9,0-3.2,1-3.5,3.3
		C286.5,255.7,288,260.2,291,261z"/>
	<path fill="#FFFFFF" d="M197.3,294.8c4.9,1,12.6,0.7,19.1,4.1c0,0,0,0,0,0c5.8,3.1,11.7,4,16,3.1c4.3-1,7.1-3.7,7.5-8.7l0,0l0,0
		c0.3-2.9-2-6.7-4.9-10.6s-6.3-7.5-8-10.9l0,0l0,0c-2-4.3-4-8.3-6.1-11.1c-2.1-2.9-4.3-4.6-6.8-5c-0.4-0.1-0.7-0.1-1.1-0.1l0,0
		c0,0,0,0-0.1,0c-1.9,0-3.2,0.9-4.4,2.2c-1.5,1.6-2.8,3.8-4.5,5.6l0,0l0,0c-1.8,1.8-4.2,2.4-6.1,3.1c-2,0.7-3.5,1.4-4.6,3.5l0,0l0,0
		c-0.8,1.6-0.7,3.8-0.3,6.3c0.4,2.5,1,5.1,0.2,7.5l0,0l0,0c-1.6,4.3-1.6,6.8-0.8,8.2C193.2,293.5,194.8,294.3,197.3,294.8z"/>
	<path fill="#FFFFFF" d="M225.9,258.4C225.9,258.4,225.9,258.4,225.9,258.4c5.7,3.5,9.6,7,12,10.2c2.3,3.1,3,5.9,2.3,7.8
		c-0.4,1-1.1,1.7-2.1,2.2c-0.8,0.4-1.9,0.6-3.1,0.6c0.6,0.8,1.2,1.6,1.8,2.4c0.9,1.2,1.9,2.5,2.7,3.8c11.8,8.1,25.7,5,35.8-2.2
		c1-3.4,2-6.7,2.1-9c0,0,0,0,0,0c0.2-4.8,0.5-9,1.4-12.5c0.9-3.5,2.4-6.4,5.3-7.9c0.5-0.3,0.9-0.5,1.4-0.6c0-0.3,0.1-0.6,0.1-0.9
		c0.8-5.5,5.7-5.7,11.8-3c5.9,2.7,8.1,5,7.1,8.2c0,0,0.1,0,0.1,0c0.4,0,0.8,0,1.2,0c1.2-4-1.3-6.9-8.2-10.3
		c-0.5-0.2-0.9-0.4-1.4-0.6c0.9-3.7,0.7-7.5-0.1-11.2c-1.9-7.9-7.1-14.9-11-18.4c-0.7,0-0.7,0.6,0.8,2c3.6,3.3,11.6,15.4,7.3,26.5
		c-1.2-0.3-2.4-0.5-3.4-0.4c-1.6-9.1-5.5-16.6-7.4-20.2c-3.6-6.7-9.2-20.4-11.6-29.9l0,0c-1.4,2-3.9,3.7-7,4.7c0,0,0,0,0,0
		c-1.5,0.5-3,1.7-5,2.8c-1.9,1.1-4.3,2.1-7.4,1.9c-2.7-0.2-4.4-1.1-5.8-2.3c-1.4-1.1-2.5-2.4-3.9-3.2c0,0,0,0,0,0
		c-0.5-0.3-1.6-1-1.9-1.3c-0.6,11.8-8.5,26.7-12.3,35.2c-2.6,6.2-4.1,12.8-4.3,19.2c-6.8-9.1-1.8-20.7,0.8-25.8c3-5.5,3.4-7,2.7-6.5
		c-2.7,4.4-6.9,11.3-8.5,18.5c-0.9,3.7-1,7.5,0.1,11C219.3,252.5,221.6,255.7,225.9,258.4z"/>
</g>
</svg>
