<?xml version="1.0" encoding="UTF-8" standalone="no"?>
<svg
   xmlns:dc="http://purl.org/dc/elements/1.1/"
   xmlns:cc="http://creativecommons.org/ns#"
   xmlns:rdf="http://www.w3.org/1999/02/22-rdf-syntax-ns#"
   xmlns:svg="http://www.w3.org/2000/svg"
   xmlns="http://www.w3.org/2000/svg"
   viewBox="0 0 640 640"
   height="640"
   width="640"
   xml:space="preserve"
   version="1.1"
   id="svg2"><metadata
     id="metadata8"><rdf:RDF><cc:Work
         rdf:about=""><dc:format>image/svg+xml</dc:format><dc:type
           rdf:resource="http://purl.org/dc/dcmitype/StillImage" /></cc:Work></rdf:RDF></metadata><defs
     id="defs6"><clipPath
       id="clipPath16"
       clipPathUnits="userSpaceOnUse"><path
         id="path18"
         d="M 0,512 512,512 512,0 0,0 0,512 Z" /></clipPath></defs><g
     transform="matrix(1.25,0,0,-1.25,0,640)"
     id="g10"><g
       id="g12"><g
         clip-path="url(#clipPath16)"
         id="g14"><g
           transform="translate(450.9003,128.3348)"
           id="g20"><path
             id="path22"
             style="fill:#656769;fill-opacity:1;fill-rule:nonzero;stroke:none"
             d="m 0,0 -390.301,0 c 0,-1.585 -2.748,-34.76 -2.748,-56.158 0,-21.399 17.347,-38.746 38.745,-38.746 l 318.307,0 c 21.399,0 38.746,17.347 38.746,38.746 C 2.749,-34.76 0,0 0,0" /></g><g
           transform="translate(424.7458,287.829)"
           id="g24"><path
             id="path26"
             style="fill:#3e3d3f;fill-opacity:1;fill-rule:nonzero;stroke:none"
             d="m 0,0 c -0.475,7.899 -15.093,14.24 -33.069,14.24 l -271.854,0 c -17.243,0 -31.399,-5.834 -32.945,-13.281 0,0 -26.278,-160.282 -26.278,-160.909 0,-9.333 17.106,-16.898 38.207,-16.898 l 313.886,0 c 21.102,0 38.208,7.565 38.208,16.898 C 26.155,-159.322 0,0 0,0" /></g><g
           transform="translate(414.9034,110.9222)"
           id="g28"><path
             id="path30"
             style="fill:#292827;fill-opacity:1;fill-rule:nonzero;stroke:none"
             d="m 0,0 -318.307,0 c -21.398,0 -38.745,-17.347 -38.745,-38.745 0,-21.399 17.347,-38.746 38.745,-38.746 l 318.307,0 c 21.399,0 38.745,17.347 38.745,38.746 C 38.745,-17.347 21.399,0 0,0" /></g><g
           transform="translate(212.9123,190.6581)"
           id="g32"><path
             id="path34"
             style="fill:#6bcfe8;fill-opacity:1;fill-rule:nonzero;stroke:none"
             d="m 0,0 c 0.332,-0.001 0.683,-0.017 1.058,-0.049 2.517,-0.216 4.713,-1.217 6.828,-2.848 2.115,-1.63 4.083,-3.856 6.106,-6.326 l 0.003,-0.003 0.002,-0.002 c 1.626,-1.929 5.057,-4.05 7.964,-6.214 2.908,-2.163 5.158,-4.335 4.865,-5.997 l -0.001,-0.007 -10e-4,-0.007 c -0.379,-2.835 -3.193,-4.379 -7.512,-4.939 -4.318,-0.561 -10.171,-0.002 -16.018,1.735 -10e-4,0 -0.003,0.001 -0.005,0.001 -6.468,1.947 -14.163,1.754 -19.099,2.34 -2.469,0.293 -4.079,0.734 -4.819,1.552 -0.739,0.819 -0.756,2.247 0.816,4.682 l 0.006,0.011 0.007,0.011 c 0.777,1.362 0.202,2.853 -0.176,4.252 -0.377,1.399 -0.561,2.671 0.279,3.558 l 0.004,0.004 0.004,0.004 c 1.076,1.179 2.654,1.601 4.613,2 1.959,0.4 4.282,0.713 6.117,1.758 l 0.009,0.006 0.01,0.005 c 1.695,1.017 2.969,2.292 4.46,3.196 1.258,0.764 2.517,1.269 4.414,1.277 L 0,0 Z m 46.199,62.095 c -1.028,10e-4 -2.1,-0.023 -3.217,-0.074 C 14.735,60.728 22.226,43.767 21.807,38.087 21.291,33.934 19.81,30.661 14.784,26.6 8.879,22.609 0.566,16.149 -3.373,9.425 -5.231,6.252 -6.116,3.017 -5.299,-0.044 -5.555,-0.175 -5.798,-0.311 -6.03,-0.452 c -1.734,-1.051 -3.015,-2.326 -4.442,-3.184 -1.333,-0.756 -3.233,-1.044 -5.321,-1.47 -2.089,-0.426 -4.382,-1.054 -5.774,-2.572 0,0 0,0 -0.001,0 -0.002,-0.003 -0.004,-0.005 -0.007,-0.008 -1.26,-1.338 -0.885,-2.878 -0.5,-4.305 0.384,-1.427 0.774,-2.776 0.257,-3.691 -1.653,-2.568 -1.864,-4.344 -0.7,-5.633 1.166,-1.291 3.563,-1.861 6.273,-2.183 5.42,-0.643 12.76,-0.483 18.544,-2.226 l 0.498,0.534 -0.492,-0.535 c 6.192,-1.84 12.471,-2.494 17.479,-1.844 3.632,0.472 6.58,1.701 8.094,3.592 3.918,0.011 8.217,0.954 15.103,1.169 4.672,0.214 10.508,-0.943 17.221,-0.731 0.175,-0.414 0.429,-0.812 0.777,-1.19 0.003,-0.004 0.007,-0.008 0.01,-0.012 2.603,-2.957 7.438,-4.31 12.59,-4.079 5.16,0.231 10.646,1.961 15.08,4.96 l -0.813,0.388 0.819,-0.384 c 4.227,2.913 11.242,4.121 15.894,5.716 2.326,0.797 4.213,1.795 4.359,3.246 0.146,1.449 -1.351,3.073 -4.794,5.245 l -10e-4,10e-4 c -0.001,10e-4 -0.003,0.002 -0.004,0.002 -1.131,0.727 -1.671,2.074 -2.251,3.507 -0.579,1.434 -1.226,2.979 -3.296,3.981 -0.004,0.002 -0.008,0.004 -0.012,0.006 -0.824,0.408 -1.68,0.685 -2.542,0.871 2.878,4.851 1.748,9.682 -1.157,14.047 -3.565,5.357 -9.79,10.026 -14.543,13.219 -5.321,3.815 -10.526,7.437 -10.423,12.786 0.158,8.164 1.58,23.305 -23.697,23.324 l 10e-4,0 z M 57.606,34.572 c 2.41,-5.398 8.014,-13.195 11.616,-17 1.914,-2.019 5.723,-6.309 7.369,-11.477 1.042,0.019 2.191,-0.068 3.42,-0.246 4.303,6.34 -3.648,13.168 -7.284,15.07 -1.468,0.81 -1.539,1.173 -0.811,1.155 3.945,-1.982 9.123,-5.97 11.007,-10.472 0.86,-2.052 1.043,-4.21 0.121,-6.34 0.451,-0.106 0.909,-0.222 1.373,-0.347 6.907,-1.911 9.461,-3.574 8.233,-5.842 -0.405,0.008 -0.803,0.007 -1.191,0.002 -0.036,-0.001 -0.072,-0.001 -0.108,-0.002 1,1.798 -1.215,3.125 -7.119,4.643 C 78.108,5.247 73.228,5.095 72.404,1.989 72.351,1.827 72.308,1.661 72.276,1.493 71.819,1.403 71.359,1.287 70.898,1.144 68.022,0.25 66.453,-1.373 65.58,-3.363 64.708,-5.352 64.458,-7.756 64.217,-10.458 l 0,-10e-4 c -0.147,-1.359 -1.13,-3.197 -2.127,-5.144 -10.031,-4.067 -23.954,-5.829 -35.775,-1.244 -0.801,0.721 -1.72,1.434 -2.666,2.138 -0.604,0.45 -1.224,0.896 -1.841,1.337 1.213,-10e-4 2.245,0.112 3.078,0.327 1.037,0.267 1.765,0.696 2.126,1.247 0.72,1.102 -0.003,2.656 -2.31,4.431 -2.307,1.775 -6.215,3.778 -11.956,5.78 l -0.001,0 C 8.527,-0.095 6.168,1.733 5.064,3.718 3.96,5.703 4.114,7.849 4.965,9.969 c 1.634,4.067 5.831,8.024 8.509,10.507 0.721,0.301 0.258,-0.56 -2.711,-3.693 C 8.102,13.918 3.128,7.307 9.939,2.146 c 0.182,3.673 1.725,7.418 4.315,10.922 3.774,4.861 11.666,13.292 12.293,20.011 0.323,-0.134 1.434,-0.56 1.928,-0.72 10e-4,0 0.003,0 0.004,-0.001 1.447,-0.484 2.535,-1.193 3.943,-1.836 1.411,-0.644 3.174,-1.201 5.838,-1.289 3.108,-0.103 5.478,0.445 7.419,1.076 1.938,0.629 3.487,1.327 4.954,1.599 0.002,10e-4 0.004,10e-4 0.006,10e-4 3.1,0.551 5.565,1.526 6.967,2.664 l 0,-10e-4 z m -18.689,7.666 c 2.212,0.005 4.873,-0.407 8.095,-1.584 1.979,-0.732 3.519,-0.793 7.065,-1.656 l 0.004,-10e-4 0.004,-10e-4 c 1.706,-0.398 2.708,-0.917 3.197,-1.463 0.489,-0.546 0.501,-1.138 0.092,-1.761 -0.819,-1.246 -3.434,-2.557 -7.102,-3.208 l -0.003,-10e-4 -0.004,-0.001 c -1.788,-0.33 -3.348,-1.06 -5.187,-1.657 -1.838,-0.598 -3.919,-1.08 -6.748,-0.987 -2.409,0.08 -3.848,0.545 -5.15,1.139 -1.302,0.595 -2.437,1.342 -4.098,1.897 l -0.004,10e-4 -0.004,0.001 c -2.676,0.86 -4.137,1.854 -4.595,2.716 -0.459,0.862 -0.028,1.598 1.299,2.163 1.493,0.636 2.529,1.069 3.22,1.357 0.686,0.286 0.972,0.393 1.19,0.512 0.001,10e-4 0.002,0.002 0.004,0.002 l 0.001,10e-4 c 1.121,0.604 2.909,1.703 5.604,2.23 0.927,0.182 1.962,0.299 3.12,0.301 z m -8.928,6.396 c 0.952,-10e-4 1.803,-0.182 2.684,-0.582 0.955,-0.433 1.677,-0.988 2.281,-1.769 0.605,-0.781 0.928,-1.563 1.018,-2.485 l 0,-0.007 c 0.043,-0.388 0.038,-0.752 -0.016,-1.105 -0.188,-0.03 -0.373,-0.063 -0.553,-0.099 -1.026,-0.2 -1.93,-0.474 -2.718,-0.77 0.077,0.31 0.088,0.624 0.029,0.974 -0.007,0.019 -0.007,0.035 -0.007,0.054 -0.082,0.465 -0.254,0.856 -0.543,1.25 -0.309,0.41 -0.653,0.7 -1.106,0.922 -0.411,0.202 -0.8,0.295 -1.227,0.293 -0.044,0 -0.089,-0.002 -0.134,-0.004 -0.481,-0.023 -0.88,-0.156 -1.258,-0.418 -0.378,-0.261 -0.625,-0.586 -0.804,-1.015 -0.179,-0.43 -0.227,-0.852 -0.151,-1.336 0,-0.02 0.007,-0.035 0.007,-0.055 0.082,-0.469 0.247,-0.859 0.543,-1.254 0.302,-0.406 0.653,-0.695 1.106,-0.918 0.076,-0.037 0.151,-0.071 0.226,-0.101 -0.472,-0.206 -0.697,-0.301 -1.084,-0.463 -0.248,-0.103 -0.543,-0.226 -0.886,-0.37 -0.749,0.399 -1.333,0.9 -1.843,1.559 -0.605,0.781 -0.928,1.563 -1.024,2.485 l 0,0.007 c -0.09,0.922 0.068,1.715 0.515,2.536 0.447,0.82 1.045,1.414 1.911,1.902 0.866,0.488 1.738,0.734 2.79,0.766 0.082,0.002 0.164,0.003 0.244,0.003 z M 54.382,37.04 C 53.427,37.008 52.428,36.728 51.264,36.359 50.1,35.99 48.792,35.517 47.373,35.052 c -2.836,-0.93 -6.101,-1.82 -9.346,-1.82 -3.251,0 -5.847,0.853 -7.795,1.73 -0.974,0.439 -1.777,0.881 -2.419,1.222 -0.321,0.171 -0.6,0.317 -0.86,0.431 -0.259,0.114 -0.471,0.226 -0.906,0.226 l -0.02,-0.519 c -0.032,-0.174 -0.063,-0.168 -0.051,-0.173 0.02,-0.008 0.121,-0.027 0.239,-0.079 0.191,-0.083 0.456,-0.22 0.771,-0.387 0.629,-0.335 1.465,-0.796 2.495,-1.26 2.059,-0.927 4.923,-1.879 8.546,-1.879 3.627,0 7.059,0.964 9.951,1.913 1.446,0.474 2.759,0.947 3.876,1.302 1.117,0.354 2.056,0.576 2.6,0.595 l -0.072,0.686 z m -4.761,12.477 c 1.434,0 2.659,-0.239 3.917,-0.758 1.278,-0.527 2.199,-1.187 2.942,-2.109 0.728,-0.898 1.079,-1.777 1.113,-2.82 0,-0.028 0,-0.051 0.014,-0.078 0.014,-1.071 -0.309,-1.981 -1.024,-2.911 -0.408,-0.53 -0.876,-0.975 -1.437,-1.361 -0.19,0.052 -0.388,0.102 -0.593,0.15 -1.421,0.346 -2.511,0.566 -3.42,0.745 0.33,0.225 0.604,0.492 0.845,0.826 0.364,0.503 0.543,0.996 0.577,1.582 0,0.023 0.014,0.043 0.014,0.07 0.021,0.562 -0.11,1.043 -0.398,1.535 -0.303,0.516 -0.688,0.887 -1.244,1.195 -0.557,0.309 -1.114,0.45 -1.78,0.461 -0.032,0.001 -0.063,0.001 -0.094,0.001 -0.627,-0.001 -1.171,-0.123 -1.735,-0.391 -0.591,-0.281 -1.03,-0.641 -1.395,-1.141 -0.364,-0.5 -0.543,-0.996 -0.577,-1.585 -0.007,-0.024 -0.007,-0.043 -0.007,-0.067 -0.012,-0.324 0.024,-0.621 0.112,-0.91 -1.283,0.364 -2.492,0.612 -3.627,0.765 -0.064,0.279 -0.102,0.567 -0.114,0.868 l 0,0.082 c -0.02,1.066 0.289,1.98 1.011,2.91 0.721,0.93 1.615,1.598 2.872,2.141 1.258,0.543 2.495,0.793 3.959,0.8 l 0.069,0 z M 72.225,0.176 c 0.254,-2.336 2.287,-4.718 5.883,-5.234 3.935,-0.589 9.609,1.33 12.004,2.895 0.478,0.011 0.945,0.025 1.398,0.031 2.102,0.029 3.864,-0.039 5.665,-0.935 l 0.006,-0.003 0.006,-0.003 c 1.384,-0.666 2.042,-1.925 2.612,-3.336 0.571,-1.411 1.027,-2.947 2.738,-4.042 l 0.002,-10e-4 0.003,-0.002 c 3.289,-2.074 4.346,-3.477 4.256,-4.372 -0.09,-0.895 -1.23,-1.559 -3.335,-2.281 -4.209,-1.442 -11.666,-2.697 -16.429,-5.976 -4.136,-2.798 -9.18,-4.334 -13.621,-4.534 -4.442,-0.199 -8.274,0.849 -10.533,3.426 l -0.005,0.006 -0.005,0.006 c -1.402,1.515 -0.818,3.907 0.363,6.429 1.18,2.523 2.877,5.113 3.104,7.218 l 0,0.003 0,0.004 c 0.24,2.697 0.505,5.052 1.303,6.87 0.797,1.817 2.052,3.048 4.276,3.74 0.104,0.032 0.207,0.063 0.309,0.091 z m 5.07,3.491 c 1.256,0.003 2.777,-0.235 4.442,-0.658 4.481,-1.176 5.883,-2.184 4.659,-3.664 -1.03,-1.117 -5.443,-2.895 -8.467,-2.426 -3.085,0.453 -4.591,2.981 -4.089,4.891 0.269,1.297 1.56,1.852 3.455,1.857 z" /></g><g
           transform="translate(451.1503,216.5848)"
           id="g36"><path
             id="path38"
             style="fill:#656769;fill-opacity:1;fill-rule:nonzero;stroke:none"
             d="m 0,0 -390.301,0 c 0,-1.585 -2.748,-34.76 -2.748,-56.158 0,-21.399 17.347,-38.746 38.745,-38.746 l 318.307,0 c 21.399,0 38.746,17.347 38.746,38.746 C 2.749,-34.76 0,0 0,0" /></g><g
           transform="translate(424.9958,376.079)"
           id="g40"><path
             id="path42"
             style="fill:#3e3d3f;fill-opacity:1;fill-rule:nonzero;stroke:none"
             d="m 0,0 c -0.475,7.899 -15.093,14.24 -33.069,14.24 l -271.854,0 c -17.243,0 -31.399,-5.834 -32.945,-13.281 0,0 -26.278,-160.282 -26.278,-160.909 0,-9.333 17.106,-16.898 38.207,-16.898 l 313.886,0 c 21.102,0 38.208,7.565 38.208,16.898 C 26.155,-159.322 0,0 0,0" /></g><g
           transform="translate(415.1534,199.1722)"
           id="g44"><path
             id="path46"
             style="fill:#292827;fill-opacity:1;fill-rule:nonzero;stroke:none"
             d="m 0,0 -318.307,0 c -21.398,0 -38.745,-17.347 -38.745,-38.745 0,-21.399 17.347,-38.746 38.745,-38.746 l 318.307,0 c 21.399,0 38.745,17.347 38.745,38.746 C 38.745,-17.347 21.399,0 0,0" /></g><g
           transform="translate(213.1623,278.9081)"
           id="g48"><path
             id="path50"
             style="fill:#6bcfe8;fill-opacity:1;fill-rule:nonzero;stroke:none"
             d="m 0,0 c 0.332,-0.001 0.683,-0.017 1.058,-0.049 2.517,-0.216 4.713,-1.217 6.828,-2.848 2.115,-1.63 4.083,-3.856 6.106,-6.326 l 0.003,-0.003 0.002,-0.002 c 1.626,-1.929 5.057,-4.05 7.964,-6.214 2.908,-2.163 5.158,-4.335 4.865,-5.997 l -0.001,-0.007 -10e-4,-0.007 c -0.379,-2.835 -3.193,-4.379 -7.512,-4.939 -4.318,-0.561 -10.171,-0.002 -16.018,1.735 -10e-4,0 -0.003,0.001 -0.005,0.001 -6.468,1.947 -14.163,1.754 -19.099,2.34 -2.469,0.293 -4.079,0.734 -4.819,1.552 -0.739,0.819 -0.756,2.247 0.816,4.682 l 0.006,0.011 0.007,0.011 c 0.777,1.362 0.202,2.853 -0.176,4.252 -0.377,1.399 -0.561,2.671 0.279,3.558 l 0.004,0.004 0.004,0.004 c 1.076,1.179 2.654,1.601 4.613,2 1.959,0.4 4.282,0.713 6.117,1.758 l 0.009,0.006 0.01,0.005 c 1.695,1.017 2.969,2.292 4.46,3.196 1.258,0.764 2.517,1.269 4.414,1.277 L 0,0 Z m 46.199,62.095 c -1.028,10e-4 -2.1,-0.023 -3.217,-0.074 C 14.735,60.728 22.226,43.767 21.807,38.087 21.291,33.934 19.81,30.661 14.784,26.6 8.879,22.609 0.566,16.149 -3.373,9.425 -5.231,6.252 -6.116,3.017 -5.299,-0.044 -5.555,-0.175 -5.798,-0.311 -6.03,-0.452 c -1.734,-1.051 -3.015,-2.326 -4.442,-3.184 -1.333,-0.756 -3.233,-1.044 -5.321,-1.47 -2.089,-0.426 -4.382,-1.054 -5.774,-2.572 0,0 0,0 -0.001,0 -0.002,-0.003 -0.004,-0.005 -0.007,-0.008 -1.26,-1.338 -0.885,-2.878 -0.5,-4.305 0.384,-1.427 0.774,-2.776 0.257,-3.691 -1.653,-2.568 -1.864,-4.344 -0.7,-5.633 1.166,-1.291 3.563,-1.861 6.273,-2.183 5.42,-0.643 12.76,-0.483 18.544,-2.226 l 0.498,0.534 -0.492,-0.535 c 6.192,-1.84 12.471,-2.494 17.479,-1.844 3.632,0.472 6.58,1.701 8.094,3.592 3.918,0.011 8.217,0.954 15.103,1.169 4.672,0.214 10.508,-0.943 17.221,-0.731 0.175,-0.414 0.429,-0.812 0.777,-1.19 0.003,-0.004 0.007,-0.008 0.01,-0.012 2.603,-2.957 7.438,-4.31 12.59,-4.079 5.16,0.231 10.646,1.961 15.08,4.96 l -0.813,0.388 0.819,-0.384 c 4.227,2.913 11.242,4.121 15.894,5.716 2.326,0.797 4.213,1.795 4.359,3.246 0.146,1.449 -1.351,3.073 -4.794,5.245 l -10e-4,10e-4 c -0.001,10e-4 -0.003,0.002 -0.004,0.002 -1.131,0.727 -1.671,2.073 -2.251,3.507 -0.579,1.433 -1.226,2.979 -3.296,3.981 -0.004,0.002 -0.008,0.004 -0.012,0.006 -0.824,0.408 -1.68,0.685 -2.542,0.871 2.878,4.851 1.748,9.682 -1.157,14.047 -3.565,5.357 -9.79,10.026 -14.543,13.219 -5.321,3.815 -10.526,7.437 -10.423,12.786 0.158,8.164 1.58,23.305 -23.697,23.324 l 10e-4,0 z M 57.606,34.572 c 2.41,-5.398 8.014,-13.195 11.616,-17 1.914,-2.019 5.723,-6.309 7.369,-11.477 1.042,0.019 2.191,-0.068 3.42,-0.246 4.303,6.34 -3.648,13.168 -7.284,15.07 -1.468,0.81 -1.539,1.173 -0.811,1.155 3.945,-1.982 9.123,-5.97 11.007,-10.472 0.86,-2.052 1.043,-4.21 0.121,-6.34 0.451,-0.106 0.909,-0.222 1.373,-0.347 6.907,-1.911 9.461,-3.574 8.233,-5.842 -0.405,0.008 -0.803,0.007 -1.191,0.002 -0.036,-0.001 -0.072,-0.001 -0.108,-0.002 1,1.798 -1.215,3.125 -7.119,4.643 C 78.108,5.247 73.228,5.095 72.404,1.989 72.351,1.827 72.308,1.661 72.276,1.493 71.819,1.403 71.359,1.287 70.898,1.144 68.022,0.25 66.453,-1.373 65.58,-3.363 64.708,-5.352 64.458,-7.756 64.217,-10.458 l 0,-10e-4 c -0.147,-1.359 -1.13,-3.197 -2.127,-5.144 -10.031,-4.067 -23.954,-5.829 -35.775,-1.244 -0.801,0.721 -1.72,1.434 -2.666,2.138 -0.604,0.45 -1.224,0.896 -1.841,1.337 1.213,-10e-4 2.245,0.112 3.078,0.327 1.037,0.267 1.765,0.696 2.126,1.247 0.72,1.102 -0.003,2.656 -2.31,4.431 -2.307,1.775 -6.215,3.778 -11.956,5.78 l -0.001,0 C 8.527,-0.095 6.168,1.733 5.064,3.718 3.96,5.703 4.114,7.849 4.965,9.969 c 1.634,4.067 5.831,8.024 8.509,10.507 0.721,0.301 0.258,-0.56 -2.711,-3.693 C 8.102,13.918 3.128,7.307 9.939,2.146 c 0.182,3.673 1.725,7.418 4.315,10.922 3.774,4.861 11.666,13.292 12.293,20.011 0.323,-0.134 1.434,-0.56 1.928,-0.72 10e-4,0 0.003,0 0.004,-0.001 1.447,-0.484 2.535,-1.193 3.943,-1.836 1.411,-0.644 3.174,-1.201 5.838,-1.289 3.108,-0.103 5.478,0.445 7.419,1.076 1.938,0.629 3.487,1.327 4.954,1.599 0.002,10e-4 0.004,10e-4 0.006,10e-4 3.1,0.551 5.565,1.526 6.967,2.664 l 0,-10e-4 z m -18.689,7.666 c 2.212,0.005 4.873,-0.407 8.095,-1.584 1.979,-0.732 3.519,-0.793 7.065,-1.656 l 0.004,-10e-4 0.004,-10e-4 c 1.706,-0.398 2.708,-0.917 3.197,-1.463 0.489,-0.546 0.501,-1.138 0.092,-1.761 -0.819,-1.246 -3.434,-2.557 -7.102,-3.208 l -0.003,-10e-4 -0.004,-0.001 c -1.788,-0.33 -3.348,-1.06 -5.187,-1.657 -1.838,-0.598 -3.919,-1.08 -6.748,-0.987 -2.409,0.08 -3.848,0.545 -5.15,1.139 -1.302,0.595 -2.437,1.342 -4.098,1.897 l -0.004,10e-4 -0.004,0.001 c -2.676,0.86 -4.137,1.854 -4.595,2.716 -0.459,0.862 -0.028,1.598 1.299,2.163 1.493,0.636 2.529,1.069 3.22,1.357 0.686,0.286 0.972,0.393 1.19,0.512 0.001,10e-4 0.002,0.002 0.004,0.002 l 0.001,10e-4 c 1.121,0.604 2.909,1.703 5.604,2.23 0.927,0.182 1.962,0.299 3.12,0.301 z m -8.928,6.396 c 0.952,-10e-4 1.803,-0.182 2.684,-0.582 0.955,-0.433 1.677,-0.988 2.281,-1.769 0.605,-0.781 0.928,-1.563 1.018,-2.485 l 0,-0.007 c 0.043,-0.388 0.038,-0.752 -0.016,-1.105 -0.188,-0.03 -0.373,-0.063 -0.553,-0.099 -1.026,-0.2 -1.93,-0.474 -2.718,-0.77 0.077,0.31 0.088,0.624 0.029,0.974 -0.007,0.019 -0.007,0.035 -0.007,0.054 -0.082,0.465 -0.254,0.856 -0.543,1.25 -0.309,0.41 -0.653,0.7 -1.106,0.922 -0.411,0.202 -0.8,0.295 -1.227,0.293 -0.044,0 -0.089,-0.002 -0.134,-0.004 -0.481,-0.023 -0.88,-0.156 -1.258,-0.418 -0.378,-0.261 -0.625,-0.586 -0.804,-1.015 -0.179,-0.43 -0.227,-0.852 -0.151,-1.336 0,-0.02 0.007,-0.035 0.007,-0.055 0.082,-0.469 0.247,-0.859 0.543,-1.254 0.302,-0.406 0.653,-0.695 1.106,-0.918 0.076,-0.037 0.151,-0.071 0.226,-0.101 -0.472,-0.206 -0.697,-0.301 -1.084,-0.463 -0.248,-0.103 -0.543,-0.226 -0.886,-0.37 -0.749,0.399 -1.333,0.9 -1.843,1.559 -0.605,0.781 -0.928,1.563 -1.024,2.485 l 0,0.007 c -0.09,0.922 0.068,1.715 0.515,2.536 0.447,0.82 1.045,1.414 1.911,1.902 0.866,0.488 1.738,0.734 2.79,0.765 0.082,0.003 0.164,0.004 0.244,0.004 z M 54.382,37.04 C 53.427,37.008 52.428,36.728 51.264,36.359 50.1,35.99 48.792,35.517 47.373,35.052 c -2.836,-0.93 -6.101,-1.82 -9.346,-1.82 -3.251,0 -5.847,0.853 -7.795,1.73 -0.974,0.439 -1.777,0.881 -2.419,1.222 -0.321,0.171 -0.6,0.317 -0.86,0.431 -0.259,0.113 -0.471,0.226 -0.906,0.226 l -0.02,-0.519 c -0.032,-0.174 -0.063,-0.168 -0.051,-0.173 0.02,-0.008 0.121,-0.027 0.239,-0.079 0.191,-0.083 0.456,-0.22 0.771,-0.387 0.629,-0.335 1.465,-0.796 2.495,-1.26 2.059,-0.927 4.923,-1.879 8.546,-1.879 3.627,0 7.059,0.964 9.951,1.913 1.446,0.474 2.759,0.947 3.876,1.302 1.117,0.354 2.056,0.576 2.6,0.595 l -0.072,0.686 z m -4.761,12.477 c 1.434,0 2.659,-0.238 3.917,-0.758 1.278,-0.527 2.199,-1.187 2.942,-2.109 0.728,-0.898 1.079,-1.777 1.113,-2.82 0,-0.028 0,-0.051 0.014,-0.078 0.014,-1.071 -0.309,-1.981 -1.024,-2.911 -0.408,-0.53 -0.876,-0.975 -1.437,-1.361 -0.19,0.052 -0.388,0.102 -0.593,0.15 -1.421,0.346 -2.511,0.566 -3.42,0.745 0.33,0.225 0.604,0.492 0.845,0.826 0.364,0.503 0.543,0.996 0.577,1.582 0,0.023 0.014,0.043 0.014,0.07 0.021,0.562 -0.11,1.043 -0.398,1.535 -0.303,0.516 -0.688,0.887 -1.244,1.195 -0.557,0.309 -1.114,0.45 -1.78,0.461 -0.032,0.001 -0.063,0.001 -0.094,0.001 -0.627,-0.001 -1.171,-0.123 -1.735,-0.391 -0.591,-0.281 -1.03,-0.641 -1.395,-1.141 -0.364,-0.5 -0.543,-0.996 -0.577,-1.585 -0.007,-0.024 -0.007,-0.043 -0.007,-0.067 -0.012,-0.324 0.024,-0.621 0.112,-0.91 -1.283,0.364 -2.492,0.612 -3.627,0.765 -0.064,0.279 -0.102,0.567 -0.114,0.868 l 0,0.082 c -0.02,1.066 0.289,1.98 1.011,2.91 0.721,0.93 1.615,1.598 2.872,2.141 1.258,0.543 2.495,0.793 3.959,0.8 l 0.069,0 z M 72.225,0.176 c 0.254,-2.336 2.287,-4.718 5.883,-5.234 3.935,-0.589 9.609,1.33 12.004,2.895 0.478,0.011 0.945,0.025 1.398,0.031 2.102,0.029 3.864,-0.039 5.665,-0.935 l 0.006,-0.003 0.006,-0.003 c 1.384,-0.666 2.042,-1.925 2.612,-3.336 0.571,-1.411 1.027,-2.947 2.738,-4.042 l 0.002,-10e-4 0.003,-0.002 c 3.289,-2.074 4.346,-3.477 4.256,-4.372 -0.09,-0.895 -1.23,-1.559 -3.335,-2.281 -4.209,-1.442 -11.666,-2.697 -16.429,-5.976 -4.136,-2.798 -9.18,-4.334 -13.621,-4.534 -4.442,-0.199 -8.274,0.849 -10.533,3.426 l -0.005,0.006 -0.005,0.006 c -1.402,1.515 -0.818,3.907 0.363,6.429 1.18,2.523 2.877,5.113 3.104,7.218 l 0,0.003 0,0.004 c 0.24,2.697 0.505,5.052 1.303,6.87 0.797,1.817 2.052,3.048 4.276,3.74 0.104,0.032 0.207,0.063 0.309,0.091 z m 5.07,3.491 c 1.256,0.003 2.777,-0.235 4.442,-0.658 4.481,-1.176 5.883,-2.184 4.659,-3.664 -1.03,-1.117 -5.443,-2.895 -8.467,-2.426 -3.085,0.453 -4.591,2.981 -4.089,4.891 0.269,1.297 1.56,1.852 3.455,1.857" /></g><g
           transform="translate(451.4003,304.8348)"
           id="g52"><path
             id="path54"
             style="fill:#656769;fill-opacity:1;fill-rule:nonzero;stroke:none"
             d="m 0,0 -390.301,0 c 0,-1.585 -2.748,-34.76 -2.748,-56.158 0,-21.399 17.347,-38.746 38.745,-38.746 l 318.307,0 c 21.399,0 38.746,17.347 38.746,38.746 C 2.749,-34.76 0,0 0,0" /></g><g
           transform="translate(425.2458,464.329)"
           id="g56"><path
             id="path58"
             style="fill:#3e3d3f;fill-opacity:1;fill-rule:nonzero;stroke:none"
             d="m 0,0 c -0.475,7.899 -15.093,14.24 -33.069,14.24 l -271.854,0 c -17.243,0 -31.399,-5.834 -32.945,-13.281 0,0 -26.278,-160.282 -26.278,-160.909 0,-9.333 17.106,-16.898 38.207,-16.898 l 313.886,0 c 21.102,0 38.208,7.565 38.208,16.898 C 26.155,-159.322 0,0 0,0" /></g><g
           transform="translate(415.4034,287.4222)"
           id="g60"><path
             id="path62"
             style="fill:#292827;fill-opacity:1;fill-rule:nonzero;stroke:none"
             d="m 0,0 -318.307,0 c -21.398,0 -38.745,-17.347 -38.745,-38.745 0,-21.399 17.347,-38.746 38.745,-38.746 l 318.307,0 c 21.399,0 38.745,17.347 38.745,38.746 C 38.745,-17.347 21.399,0 0,0" /></g><g
           transform="translate(213.4123,367.1581)"
           id="g64"><path
             id="path66"
             style="fill:#6bcfe8;fill-opacity:1;fill-rule:nonzero;stroke:none"
             d="m 0,0 c 0.332,-0.001 0.683,-0.017 1.058,-0.049 2.517,-0.216 4.713,-1.217 6.828,-2.848 2.115,-1.63 4.083,-3.856 6.106,-6.326 l 0.003,-0.003 0.002,-0.002 c 1.626,-1.929 5.057,-4.05 7.964,-6.214 2.908,-2.163 5.158,-4.335 4.865,-5.997 l -0.001,-0.007 -10e-4,-0.007 c -0.379,-2.835 -3.193,-4.379 -7.512,-4.939 -4.318,-0.561 -10.171,-0.002 -16.017,1.735 -0.002,0 -0.004,0.001 -0.006,0.001 -6.468,1.947 -14.163,1.754 -19.099,2.34 -2.469,0.293 -4.079,0.734 -4.819,1.552 -0.739,0.819 -0.756,2.247 0.816,4.682 l 0.007,0.011 0.006,0.011 c 0.777,1.362 0.202,2.853 -0.176,4.252 -0.377,1.399 -0.561,2.671 0.279,3.558 l 0.004,0.004 0.004,0.004 c 1.076,1.179 2.654,1.601 4.613,2 1.959,0.4 4.282,0.713 6.117,1.758 l 0.009,0.006 0.01,0.005 c 1.695,1.017 2.969,2.292 4.46,3.196 1.258,0.764 2.517,1.269 4.414,1.277 L 0,0 Z m 46.199,62.095 c -1.028,10e-4 -2.1,-0.023 -3.217,-0.074 C 14.735,60.728 22.226,43.767 21.807,38.087 21.291,33.934 19.81,30.661 14.784,26.6 8.879,22.609 0.566,16.149 -3.373,9.425 -5.231,6.252 -6.116,3.017 -5.299,-0.044 -5.555,-0.175 -5.798,-0.311 -6.03,-0.452 c -1.734,-1.051 -3.014,-2.326 -4.442,-3.184 -1.333,-0.756 -3.233,-1.044 -5.321,-1.47 -2.089,-0.426 -4.382,-1.054 -5.774,-2.572 0,0 0,0 -0.001,0 -0.002,-0.003 -0.004,-0.005 -0.007,-0.008 -1.26,-1.338 -0.885,-2.878 -0.5,-4.305 0.384,-1.427 0.774,-2.776 0.257,-3.691 -1.653,-2.568 -1.864,-4.344 -0.7,-5.633 1.166,-1.291 3.563,-1.861 6.273,-2.183 5.42,-0.643 12.76,-0.483 18.544,-2.226 l 0.498,0.534 -0.492,-0.535 c 6.192,-1.84 12.471,-2.494 17.479,-1.844 3.632,0.472 6.58,1.701 8.094,3.592 3.918,0.011 8.217,0.954 15.103,1.169 4.672,0.214 10.508,-0.943 17.221,-0.731 0.175,-0.414 0.429,-0.812 0.777,-1.19 0.003,-0.004 0.007,-0.008 0.01,-0.012 2.603,-2.957 7.438,-4.31 12.59,-4.079 5.16,0.231 10.646,1.961 15.08,4.96 l -0.813,0.388 0.819,-0.384 c 4.227,2.913 11.242,4.121 15.894,5.716 2.326,0.797 4.213,1.795 4.359,3.246 0.146,1.449 -1.351,3.073 -4.794,5.245 l -10e-4,10e-4 c -0.001,10e-4 -0.003,0.002 -0.004,0.002 -1.131,0.727 -1.671,2.073 -2.251,3.507 -0.579,1.433 -1.226,2.979 -3.296,3.981 -0.004,0.002 -0.008,0.004 -0.012,0.006 -0.824,0.408 -1.68,0.685 -2.542,0.871 2.878,4.851 1.748,9.682 -1.157,14.047 -3.565,5.357 -9.79,10.026 -14.543,13.219 -5.321,3.815 -10.526,7.437 -10.423,12.786 0.158,8.164 1.58,23.305 -23.697,23.324 l 10e-4,0 z M 57.606,34.572 c 2.41,-5.398 8.014,-13.195 11.616,-17 1.914,-2.019 5.723,-6.309 7.369,-11.477 1.042,0.019 2.191,-0.068 3.42,-0.246 4.303,6.34 -3.648,13.168 -7.284,15.07 -1.468,0.81 -1.539,1.173 -0.811,1.155 3.945,-1.982 9.123,-5.97 11.007,-10.472 0.86,-2.052 1.043,-4.21 0.121,-6.34 0.451,-0.106 0.909,-0.222 1.373,-0.347 6.907,-1.911 9.461,-3.574 8.233,-5.842 -0.405,0.008 -0.803,0.007 -1.191,0.002 -0.036,-0.001 -0.072,-0.001 -0.108,-0.002 1,1.798 -1.215,3.125 -7.119,4.643 C 78.108,5.247 73.228,5.095 72.404,1.989 72.351,1.827 72.308,1.661 72.276,1.493 71.819,1.403 71.359,1.287 70.898,1.144 68.022,0.25 66.453,-1.373 65.58,-3.363 64.708,-5.352 64.458,-7.756 64.217,-10.458 l 0,-10e-4 c -0.147,-1.359 -1.13,-3.197 -2.127,-5.144 -10.031,-4.067 -23.954,-5.829 -35.775,-1.244 -0.801,0.721 -1.72,1.434 -2.666,2.138 -0.604,0.45 -1.224,0.896 -1.841,1.337 1.213,-10e-4 2.245,0.112 3.078,0.327 1.037,0.267 1.765,0.696 2.126,1.247 0.72,1.102 -0.003,2.656 -2.31,4.431 -2.307,1.775 -6.215,3.778 -11.956,5.78 l -0.001,0 C 8.527,-0.095 6.168,1.733 5.064,3.718 3.96,5.703 4.114,7.849 4.965,9.969 c 1.634,4.067 5.831,8.024 8.509,10.507 0.721,0.301 0.258,-0.56 -2.711,-3.693 C 8.102,13.918 3.128,7.307 9.939,2.146 c 0.182,3.673 1.725,7.418 4.315,10.922 3.774,4.861 11.666,13.292 12.293,20.011 0.323,-0.134 1.434,-0.56 1.928,-0.72 10e-4,0 0.003,0 0.004,-0.001 1.447,-0.484 2.535,-1.193 3.943,-1.836 1.411,-0.644 3.174,-1.201 5.838,-1.289 3.108,-0.103 5.478,0.445 7.419,1.076 1.938,0.629 3.487,1.327 4.954,1.599 0.002,10e-4 0.004,10e-4 0.006,10e-4 3.1,0.551 5.565,1.526 6.967,2.664 l 0,-10e-4 z m -18.689,7.666 c 2.212,0.005 4.873,-0.407 8.095,-1.584 1.979,-0.732 3.519,-0.793 7.065,-1.656 l 0.004,-10e-4 0.004,-10e-4 c 1.706,-0.398 2.708,-0.917 3.197,-1.463 0.489,-0.546 0.501,-1.138 0.092,-1.761 -0.819,-1.246 -3.433,-2.557 -7.102,-3.208 l -0.003,-10e-4 -0.004,-0.001 c -1.788,-0.33 -3.348,-1.06 -5.187,-1.657 -1.838,-0.598 -3.919,-1.08 -6.748,-0.987 -2.409,0.08 -3.848,0.545 -5.15,1.139 -1.302,0.595 -2.437,1.342 -4.098,1.897 l -0.004,10e-4 -0.004,0.001 c -2.676,0.86 -4.137,1.854 -4.595,2.716 -0.459,0.862 -0.028,1.598 1.299,2.163 1.493,0.636 2.529,1.069 3.22,1.357 0.686,0.286 0.972,0.393 1.19,0.512 0.001,10e-4 0.003,0.002 0.004,0.002 l 0.001,10e-4 c 1.121,0.604 2.909,1.703 5.604,2.23 0.927,0.182 1.962,0.299 3.12,0.301 z m -8.928,6.396 c 0.952,-10e-4 1.803,-0.182 2.684,-0.582 0.955,-0.433 1.677,-0.988 2.281,-1.769 0.605,-0.781 0.928,-1.563 1.018,-2.485 l 0,-0.007 c 0.043,-0.388 0.038,-0.752 -0.016,-1.105 -0.188,-0.03 -0.373,-0.063 -0.553,-0.099 -1.026,-0.2 -1.93,-0.474 -2.718,-0.77 0.077,0.31 0.088,0.624 0.029,0.974 -0.007,0.019 -0.007,0.035 -0.007,0.054 -0.082,0.465 -0.254,0.856 -0.543,1.25 -0.309,0.41 -0.653,0.7 -1.106,0.922 -0.411,0.202 -0.8,0.295 -1.227,0.293 -0.044,0 -0.089,-0.002 -0.134,-0.004 -0.481,-0.023 -0.88,-0.156 -1.258,-0.418 -0.378,-0.261 -0.625,-0.586 -0.804,-1.015 -0.179,-0.43 -0.227,-0.852 -0.151,-1.336 0,-0.02 0.007,-0.035 0.007,-0.055 0.082,-0.469 0.247,-0.859 0.543,-1.254 0.302,-0.406 0.653,-0.695 1.106,-0.918 0.076,-0.037 0.151,-0.071 0.226,-0.101 -0.472,-0.206 -0.697,-0.301 -1.084,-0.463 -0.248,-0.103 -0.543,-0.226 -0.886,-0.37 -0.749,0.399 -1.333,0.9 -1.843,1.559 -0.605,0.781 -0.928,1.563 -1.024,2.485 l 0,0.007 c -0.09,0.922 0.068,1.715 0.515,2.536 0.447,0.82 1.045,1.414 1.911,1.902 0.866,0.488 1.738,0.734 2.79,0.765 0.082,0.003 0.164,0.004 0.244,0.004 z M 54.382,37.04 C 53.427,37.008 52.428,36.728 51.264,36.359 50.1,35.99 48.792,35.517 47.373,35.052 c -2.836,-0.93 -6.101,-1.82 -9.346,-1.82 -3.251,0 -5.847,0.853 -7.795,1.73 -0.974,0.439 -1.777,0.881 -2.419,1.222 -0.321,0.171 -0.6,0.317 -0.86,0.431 -0.259,0.113 -0.471,0.226 -0.906,0.226 l -0.02,-0.519 c -0.032,-0.174 -0.063,-0.168 -0.051,-0.173 0.02,-0.008 0.121,-0.027 0.239,-0.079 0.191,-0.083 0.456,-0.22 0.771,-0.387 0.629,-0.335 1.465,-0.796 2.495,-1.26 2.059,-0.927 4.923,-1.879 8.546,-1.879 3.627,0 7.059,0.964 9.951,1.913 1.446,0.474 2.759,0.947 3.876,1.302 1.117,0.354 2.056,0.576 2.6,0.595 l -0.072,0.686 z m -4.761,12.477 c 1.434,0 2.659,-0.238 3.917,-0.758 1.279,-0.527 2.199,-1.187 2.942,-2.109 0.728,-0.898 1.079,-1.777 1.113,-2.82 0,-0.028 0,-0.051 0.014,-0.078 0.014,-1.071 -0.309,-1.981 -1.024,-2.911 -0.408,-0.53 -0.876,-0.975 -1.437,-1.361 -0.19,0.052 -0.388,0.102 -0.593,0.15 -1.421,0.346 -2.511,0.566 -3.42,0.745 0.33,0.225 0.604,0.492 0.845,0.826 0.364,0.503 0.543,0.996 0.577,1.582 0,0.023 0.014,0.043 0.014,0.07 0.021,0.562 -0.11,1.043 -0.398,1.535 -0.303,0.516 -0.688,0.887 -1.244,1.195 -0.557,0.309 -1.114,0.45 -1.78,0.461 -0.032,0.001 -0.063,0.001 -0.094,0.001 -0.627,-0.001 -1.171,-0.123 -1.735,-0.391 -0.591,-0.281 -1.03,-0.641 -1.395,-1.141 -0.364,-0.5 -0.543,-0.996 -0.577,-1.585 -0.007,-0.024 -0.007,-0.043 -0.007,-0.067 -0.012,-0.324 0.024,-0.621 0.112,-0.91 -1.283,0.364 -2.492,0.612 -3.627,0.765 -0.064,0.279 -0.102,0.567 -0.114,0.868 l 0,0.082 c -0.02,1.066 0.289,1.98 1.011,2.91 0.721,0.93 1.615,1.598 2.872,2.141 1.258,0.543 2.495,0.793 3.959,0.8 l 0.069,0 z M 72.225,0.176 c 0.254,-2.336 2.287,-4.718 5.883,-5.234 3.935,-0.589 9.609,1.33 12.004,2.895 0.478,0.011 0.945,0.025 1.398,0.031 2.102,0.029 3.864,-0.039 5.665,-0.935 l 0.006,-0.003 0.006,-0.003 c 1.384,-0.666 2.042,-1.925 2.612,-3.336 0.571,-1.411 1.027,-2.947 2.738,-4.042 l 0.003,-10e-4 0.002,-0.002 c 3.289,-2.074 4.346,-3.477 4.256,-4.372 -0.09,-0.895 -1.23,-1.559 -3.335,-2.281 -4.209,-1.442 -11.666,-2.697 -16.429,-5.976 -4.136,-2.798 -9.18,-4.334 -13.621,-4.534 -4.442,-0.199 -8.274,0.849 -10.533,3.426 l -0.005,0.006 -0.005,0.006 c -1.402,1.515 -0.818,3.907 0.363,6.429 1.18,2.523 2.877,5.113 3.104,7.218 l 0,0.003 0,0.004 c 0.24,2.697 0.505,5.052 1.303,6.87 0.797,1.817 2.052,3.048 4.276,3.74 0.104,0.032 0.207,0.063 0.309,0.091 z m 5.07,3.491 c 1.256,0.003 2.777,-0.235 4.442,-0.658 4.481,-1.176 5.883,-2.184 4.659,-3.664 -1.03,-1.117 -5.443,-2.895 -8.467,-2.426 -3.085,0.453 -4.591,2.981 -4.089,4.891 0.269,1.297 1.56,1.852 3.455,1.857" /></g></g></g></g></svg>