<?xml version="1.0" encoding="utf-8"?>
<!-- Generator: Adobe Illustrator 22.0.1, SVG Export Plug-In . SVG Version: 6.00 Build 0)  -->
<svg version="1.1" id="Layer_2_1_" xmlns="http://www.w3.org/2000/svg" xmlns:xlink="http://www.w3.org/1999/xlink" x="0px" y="0px"
	 viewBox="0 0 512 512" style="enable-background:new 0 0 512 512;" xml:space="preserve">
<style type="text/css">
	.st0{fill:#BEBEBE;}
	.st1{opacity:0.5;}
</style>
<g>
	<g>
		<path class="st0" d="M256,408.6c-21.4,0-38.7,17.4-38.7,38.7S234.6,486,256,486s38.7-17.4,38.7-38.7S277.4,408.6,256,408.6z
			 M256,480.7c-18.4,0-33.4-15-33.4-33.4s15-33.4,33.4-33.4s33.4,15,33.4,33.4S274.4,480.7,256,480.7z"/>
		<path class="st0" d="M128.5,153.5c-21.4,0-38.7,17.4-38.7,38.7c0,21.4,17.4,38.7,38.7,38.7s38.7-17.4,38.7-38.7
			S149.8,153.5,128.5,153.5z M128.5,225.6c-18.4,0-33.4-15-33.4-33.4s15-33.4,33.4-33.4s33.4,15,33.4,33.4S146.9,225.6,128.5,225.6z
			"/>
		<path class="st0" d="M256,153.5c-21.4,0-38.7,17.4-38.7,38.7c0,21.4,17.4,38.7,38.7,38.7c21.4,0,38.7-17.4,38.7-38.7
			S277.4,153.5,256,153.5z M256,225.6c-18.4,0-33.4-15-33.4-33.4s15-33.4,33.4-33.4s33.4,15,33.4,33.4S274.4,225.6,256,225.6z"/>
		<path class="st0" d="M383.5,153.5c-21.4,0-38.7,17.4-38.7,38.7c0,21.4,17.4,38.7,38.7,38.7c21.4,0,38.7-17.4,38.7-38.7
			S404.9,153.5,383.5,153.5z M383.5,225.6c-18.4,0-33.4-15-33.4-33.4s15-33.4,33.4-33.4s33.4,15,33.4,33.4S401.9,225.6,383.5,225.6z
			"/>
		<path class="st0" d="M128.5,281c-21.4,0-38.7,17.4-38.7,38.7s17.4,38.7,38.7,38.7s38.7-17.4,38.7-38.7S149.8,281,128.5,281z
			 M128.5,353.1c-18.4,0-33.4-15-33.4-33.4s15-33.4,33.4-33.4s33.4,15,33.4,33.4S146.9,353.1,128.5,353.1z"/>
		<path class="st0" d="M256,281c-21.4,0-38.7,17.4-38.7,38.7s17.4,38.7,38.7,38.7c21.4,0,38.7-17.4,38.7-38.7S277.4,281,256,281z
			 M256,353.1c-18.4,0-33.4-15-33.4-33.4s15-33.4,33.4-33.4s33.4,15,33.4,33.4S274.4,353.1,256,353.1z"/>
		<path class="st0" d="M383.5,281c-21.4,0-38.7,17.4-38.7,38.7s17.4,38.7,38.7,38.7c21.4,0,38.7-17.4,38.7-38.7S404.9,281,383.5,281
			z M383.5,353.1c-18.4,0-33.4-15-33.4-33.4s15-33.4,33.4-33.4s33.4,15,33.4,33.4S401.9,353.1,383.5,353.1z"/>
		<path class="st0" d="M128.5,26c-21.4,0-38.7,17.4-38.7,38.7s17.4,38.7,38.7,38.7s38.7-17.4,38.7-38.7S149.8,26,128.5,26z
			 M128.5,98.1c-18.4,0-33.4-15-33.4-33.4s15-33.4,33.4-33.4s33.4,15,33.4,33.4S146.9,98.1,128.5,98.1z"/>
		<path class="st0" d="M256,26c-21.4,0-38.7,17.4-38.7,38.7s17.4,38.7,38.7,38.7c21.4,0,38.7-17.4,38.7-38.7S277.4,26,256,26z
			 M256,98.1c-18.4,0-33.4-15-33.4-33.4s15-33.4,33.4-33.4s33.4,15,33.4,33.4S274.4,98.1,256,98.1z"/>
		<path class="st0" d="M383.5,103.4c21.4,0,38.7-17.4,38.7-38.7S404.9,26,383.5,26s-38.7,17.4-38.7,38.7S362.2,103.4,383.5,103.4z
			 M383.5,31.3c18.4,0,33.4,15,33.4,33.4s-15,33.4-33.4,33.4s-33.4-15-33.4-33.4S365.1,31.3,383.5,31.3z"/>
	</g>
	<g class="st1">
		<circle class="st0" cx="383.5" cy="319.8" r="33.4"/>
		<circle class="st0" cx="256" cy="192.2" r="33.4"/>
		<circle class="st0" cx="128.5" cy="64.7" r="33.4"/>
		<circle class="st0" cx="256" cy="319.8" r="33.4"/>
		<circle class="st0" cx="256" cy="447.3" r="33.4"/>
		<circle class="st0" cx="256" cy="64.7" r="33.4"/>
		<circle class="st0" cx="128.5" cy="319.8" r="33.4"/>
		<circle class="st0" cx="383.5" cy="64.7" r="33.4"/>
		
			<ellipse transform="matrix(7.088903e-02 -0.9975 0.9975 7.088903e-02 -72.3257 306.7518)" class="st0" cx="128.5" cy="192.2" rx="33.4" ry="33.4"/>
		<circle class="st0" cx="383.5" cy="192.2" r="33.4"/>
	</g>
</g>
</svg>
