<?xml version="1.0" encoding="utf-8"?>
<!-- Generator: Adobe Illustrator 18.0.0, SVG Export Plug-In . SVG Version: 6.00 Build 0)  -->
<!DOCTYPE svg PUBLIC "-//W3C//DTD SVG 1.1//EN" "http://www.w3.org/Graphics/SVG/1.1/DTD/svg11.dtd">
<svg version="1.1" id="Layer_1" xmlns="http://www.w3.org/2000/svg" xmlns:xlink="http://www.w3.org/1999/xlink" x="0px" y="0px"
	 viewBox="0 0 512 512" enable-background="new 0 0 512 512" xml:space="preserve">
<path fill="#FFFFFF" d="M381.5,149.5C381.5,80.2,325.3,24,256,24S130.5,80.2,130.5,149.5c0,0.8,0,1.5,0,2.3h0v214.4h0
	C132,434.3,187.6,489,256,489s124-54.7,125.5-122.8h0V151.8h0C381.5,151,381.5,150.3,381.5,149.5z M255.8,131.5
	c-9.8,0-17.7-7.9-17.7-17.7s7.9-17.7,17.7-17.7c9.8,0,17.7,7.9,17.7,17.7S265.6,131.5,255.8,131.5z"/>
</svg>
