<?xml version="1.0" encoding="utf-8"?>
<!-- Generator: Adobe Illustrator 17.0.0, SVG Export Plug-In . SVG Version: 6.00 Build 0)  -->
<!DOCTYPE svg PUBLIC "-//W3C//DTD SVG 1.1//EN" "http://www.w3.org/Graphics/SVG/1.1/DTD/svg11.dtd">
<svg version="1.1" id="Layer_1" xmlns="http://www.w3.org/2000/svg" xmlns:xlink="http://www.w3.org/1999/xlink" x="0px" y="0px"
	 width="512px" height="512px" viewBox="0 0 512 512" enable-background="new 0 0 512 512" xml:space="preserve">
<path fill="#E5E6E8" d="M483.224,403.224c0,44.183-35.817,80-80,80H108.776c-44.183,0-80-35.817-80-80V108.776
	c0-44.183,35.817-80,80-80h294.448c44.183,0,80,35.817,80,80V403.224z"/>
<g>
	<path d="M326.211,284.473c-3.991,8.848-5.904,12.796-11.041,20.616c-7.172,10.917-17.277,24.513-29.8,24.628
		c-11.132,0.103-13.988-7.244-29.09-7.161c-15.103,0.083-18.256,7.29-29.387,7.188c-12.523-0.116-22.101-12.392-29.272-23.309
		c-20.054-30.526-22.149-66.353-9.782-85.397c8.79-13.536,22.653-21.458,35.69-21.458c13.274,0,21.619,7.28,32.594,7.28
		c10.646,0,17.132-7.291,32.48-7.291c11.598,0,23.889,6.315,32.65,17.238C292.555,232.532,297.217,273.516,326.211,284.473z"/>
	<g>
		<path d="M276.96,187.374c5.574-7.157,9.81-17.265,8.274-27.595c-9.107,0.627-19.762,6.424-25.983,13.978
			c-5.647,6.858-10.309,17.031-8.492,26.917C260.701,200.98,270.988,195.042,276.96,187.374z"/>
	</g>
</g>
</svg>
