<?xml version="1.0" encoding="utf-8"?>
<!-- Generator: Adobe Illustrator 18.0.0, SVG Export Plug-In . SVG Version: 6.00 Build 0)  -->
<!DOCTYPE svg PUBLIC "-//W3C//DTD SVG 1.1//EN" "http://www.w3.org/Graphics/SVG/1.1/DTD/svg11.dtd">
<svg version="1.1" id="Layer_1" xmlns="http://www.w3.org/2000/svg" xmlns:xlink="http://www.w3.org/1999/xlink" x="0px" y="0px"
	 viewBox="0 0 512 512" enable-background="new 0 0 512 512" xml:space="preserve">
<g>
	<path fill="#FFFFFF" d="M410.8,446.8H101.2c-4,0-7.2,3.2-7.2,7.2s3.2,7.2,7.2,7.2h309.7c4,0,7.2-3.2,7.2-7.2
		S414.8,446.8,410.8,446.8z"/>
</g>
<path fill="#FFFFFF" d="M453.9,449.9L453.9,449.9L453.9,449.9c0-0.8-0.1-27.9-2.8-67.6c0,0,0-0.1,0-0.2c0.1-0.8,0.1-1.5,0.1-2.3
	c0-1.3-26.2-330.7-26.2-330.7c-0.5-16.3-15.1-29.4-33.1-29.4H120.1c-17.2,0-31.4,12.1-32.9,27.5c0,0-26.3,331.4-26.3,332.7
	c0,0.7,0,1.5,0.1,2.2c0,0.2,0,0.3,0,0.3l-2.8,67.6h0c0,0.1,0,0.2,0,0.3c0,0.8,0,1.5,0.1,2.3l-0.1,0.8h0c0,0.1,0,0.2,0,0.3
	c0,21.4,17.3,38.7,38.7,38.7h318.3c21.4,0,38.7-17.3,38.7-38.7c0-0.1,0-0.2,0-0.3h0l0-0.1c0-0.1,0-0.3,0-0.8c0-0.7,0.1-1.5,0.1-2.2
	C453.9,450.1,453.9,450,453.9,449.9z M229.8,194.4c5.6,0,10.2,4.6,10.2,10.2c0,3.9-2.3,7.5-5.8,9.2c0,2.3,0,6.7,0,13.6
	c0,1.5,0.6,3.1,1.7,4.4l15.8,14.9v-84.3h-5.7c-0.5,0-1-0.3-1.3-0.7c-0.3-0.5-0.3-1,0-1.5l10.1-17.4c0.3-0.5,0.7-0.7,1.3-0.7
	c0.5,0,1,0.3,1.3,0.7l10.1,17.4c0.3,0.5,0.3,1,0,1.5c-0.3,0.5-0.7,0.7-1.3,0.7h-5.7v62.5l15.8-14.9c1-1.3,1.6-2.9,1.7-4.4
	c0-6.7,0-10.6,0-12.6h-4.4c-0.8,0-1.5-0.7-1.5-1.5V174c0-0.8,0.7-1.5,1.5-1.5h17.4c0.8,0,1.5,0.7,1.5,1.5v17.5
	c0,0.8-0.7,1.5-1.5,1.5h-4.4l0,12.4c0,4.6-2.5,9-5,11.5c0,0,0,0.1-0.1,0.1v0c0,0,0,0,0,0c0,0,0,0,0,0c0,0,0,0,0,0c0,0,0,0,0,0
	c-0.2,0.2-18.1,17.1-19.4,18.3c-1,1.3-1.6,2.9-1.7,4.4v30.7c6.8,1.9,11.7,8.2,11.7,15.4c0,8.8-7.2,16-16,16c-8.8,0-16-7.2-16-16
	c0-7.2,4.8-13.5,11.7-15.4v-8.9c0-1.5-0.6-3.1-1.7-4.4c-1.3-1.3-19.1-18.1-19.4-18.3c0,0-0.1-0.1-0.1-0.1c-2.4-2.6-5-6.9-5-11.6
	l0-13.4c-3.5-1.7-5.8-5.2-5.8-9.2C219.6,198.9,224.2,194.4,229.8,194.4z M415.2,482.3H96.8c-15.9,0-28.7-12.9-28.7-28.7
	c0-15.9,12.9-28.7,28.7-28.7h318.3c15.9,0,28.7,12.9,28.7,28.7C443.9,469.4,431,482.3,415.2,482.3z"/>
</svg>
