<?xml version="1.0" encoding="utf-8"?>
<!-- Generator: Adobe Illustrator 22.0.1, SVG Export Plug-In . SVG Version: 6.00 Build 0)  -->
<svg version="1.1" id="Layer_1" xmlns="http://www.w3.org/2000/svg" xmlns:xlink="http://www.w3.org/1999/xlink" x="0px" y="0px"
	 viewBox="0 0 512 512" style="enable-background:new 0 0 512 512;" xml:space="preserve">
<style type="text/css">
	.st0{fill:#E0E0E0;}
</style>
<path class="st0" d="M256,26C129,26,26,129,26,256s103,230,230,230s230-103,230-230S383,26,256,26z M154.2,224.1
	c0.1-0.1,0.3-0.2,0.4-0.3C154.5,223.9,154.3,224,154.2,224.1z M217.4,306.2c0-0.1,0.1-0.1,0.1-0.1L217.4,306.2z M256,356.2
	l-17.5-22.7c0.1,0,0.1,0,0.1,0c0.1-0.1,0.3-0.2,0.5-0.3c0.5-0.4,1.1-0.7,1.6-1c0,0,0,0,0,0c0,0,0,0,0,0c0.3-0.1,0.5-0.3,0.8-0.4
	c0,0,0,0,0,0c0,0,0,0,0,0c0.5-0.2,0.9-0.5,1.4-0.7c0,0,0,0,0,0c0,0,0,0,0,0c0.3-0.2,0.6-0.3,0.9-0.4c0,0,0,0,0,0c0,0,0,0,0,0
	c0.5-0.2,0.9-0.4,1.4-0.5c0,0,0,0,0,0c0,0,0,0,0,0c0.4-0.1,0.7-0.2,1-0.3c0.5-0.1,0.9-0.3,1.4-0.4c0.4-0.1,0.7-0.2,1-0.3
	c0.5-0.1,1-0.2,1.5-0.3c0.3-0.1,0.6-0.2,0.9-0.2c0.6-0.1,1.1-0.1,1.7-0.2c-0.6,0.1-1.1,0.1-1.7,0.2c0.6-0.1,1.1-0.1,1.7-0.2
	c0.3,0,0.5-0.1,0.8-0.1c0,0,0,0,0,0c0,0,0,0,0,0c0.8-0.1,1.7-0.1,2.5-0.1h0l0,0c0.4,0,0.9,0,1.3,0c0.4,0,0.8,0,1.2,0.1c0,0,0,0,0,0
	c0,0,0,0,0,0c0.3,0,0.5,0.1,0.8,0.1c0,0,0.1,0,0.1,0c0.5,0.1,1,0.1,1.5,0.2c0,0,0.1,0,0.1,0c0.3,0.1,0.6,0.1,0.9,0.2
	c0.5,0.1,1,0.2,1.5,0.3c0.4,0.1,0.7,0.2,1,0.3c0.5,0.1,0.9,0.2,1.4,0.4c0.4,0.1,0.7,0.2,1,0.3c0.5,0.1,0.9,0.3,1.4,0.5
	c0.3,0.1,0.6,0.3,0.9,0.4c0.5,0.2,0.9,0.4,1.4,0.7c0.3,0.1,0.5,0.3,0.8,0.4c0.6,0.3,1.1,0.6,1.6,0.9c0.2,0.1,0.4,0.2,0.6,0.4
	L256,356.2z M246.2,329.9c0.5-0.2,0.9-0.3,1.4-0.4C247.1,329.6,246.7,329.7,246.2,329.9z M261.9,328.9c0.5,0.1,1,0.2,1.5,0.3
	C262.9,329.1,262.4,329,261.9,328.9z M264.4,329.4c0.5,0.1,0.9,0.3,1.4,0.4C265.3,329.7,264.9,329.6,264.4,329.4z M276.5,329.6
	l-0.1-0.1c-0.6-0.5-1.3-0.9-2-1.3c-0.2-0.1-0.3-0.1-0.4-0.2c-0.7-0.4-1.4-0.8-2.1-1.1c-0.1,0-0.2-0.1-0.3-0.1
	c-0.8-0.4-1.5-0.7-2.3-1c-0.7-0.3-1.5-0.6-2.3-0.8c-0.1,0-0.2-0.1-0.3-0.1c-0.8-0.2-1.5-0.4-2.3-0.6c-0.1,0-0.3-0.1-0.4-0.1
	c-0.8-0.1-1.5-0.3-2.3-0.4c-0.1-0.1-0.3-0.1-0.4-0.1c-0.8-0.1-1.6-0.2-2.4-0.3c-0.1,0-0.2,0-0.3,0c-0.9-0.1-1.7-0.1-2.6-0.1
	c-0.9,0-1.8,0-2.6,0.1c-0.1,0-0.2,0-0.3,0c-0.8,0.1-1.6,0.2-2.4,0.3c-0.1,0.1-0.3,0.1-0.4,0.1c-0.8,0.1-1.5,0.2-2.3,0.4
	c-0.1,0-0.3,0.1-0.4,0.1c-0.8,0.2-1.5,0.4-2.3,0.6c-0.1,0-0.2,0.1-0.3,0.1c-0.8,0.2-1.5,0.5-2.3,0.8s-1.5,0.6-2.3,1
	c-0.1,0-0.2,0.1-0.3,0.1c-0.7,0.3-1.4,0.7-2.1,1.1c-0.2,0.1-0.3,0.1-0.4,0.2c-0.7,0.4-1.2,0.8-1.9,1.2l0.1,0.1c-0.1,0-0.2,0-0.2,0
	c0,0-0.1,0-0.1,0c0,0,0,0,0.1,0c0,0,0.1-0.1,0.1-0.1l-17.9-23.3l0.1-0.1c0.2-0.2,0.5-0.3,0.7-0.5c0.5-0.3,1-0.7,1.5-1
	c0.3-0.1,0.6-0.3,0.9-0.5c0.5-0.3,0.9-0.6,1.4-0.9c0.3-0.1,0.6-0.3,0.9-0.5c0.5-0.3,0.9-0.6,1.4-0.8c0.3-0.2,0.7-0.3,1-0.5
	c0.4-0.2,0.8-0.5,1.3-0.7c0.3-0.2,0.7-0.3,1-0.5c0.4-0.2,0.8-0.4,1.3-0.6c0.4-0.2,0.7-0.3,1.1-0.5c0.4-0.2,0.8-0.4,1.3-0.6
	c0.4-0.1,0.7-0.3,1.1-0.4c0.5-0.2,0.9-0.3,1.4-0.5c0.3-0.1,0.7-0.3,1.1-0.4c0.1,0,0.3-0.1,0.4-0.1c0.1,0,0.1,0,0.2,0
	c0.3-0.1,0.6-0.2,0.9-0.2c0.3-0.1,0.7-0.2,1.1-0.3c0.5-0.2,0.9-0.3,1.4-0.4c0.3-0.1,0.7-0.2,1.1-0.3c0.4-0.1,0.9-0.2,1.4-0.3
	c0.4,0,0.8-0.1,1.2-0.2c0.5-0.1,1-0.2,1.5-0.3c0.3-0.1,0.7-0.1,1.1-0.2c0.5-0.1,1-0.1,1.5-0.2c0.4-0.1,0.7-0.2,1.1-0.2
	c0.5-0.1,1.1-0.1,1.6-0.2c0.4,0,0.7-0.1,1.1-0.1c0.6,0,1.2-0.1,1.8-0.1c0.3-0.1,0.6-0.1,0.9-0.1c0.9-0.1,1.8-0.1,2.7-0.1
	c0.9,0,1.8,0.1,2.7,0.1c0.3,0.1,0.6,0.1,0.9,0.1c0.6,0,1.2,0.1,1.8,0.1c0.4,0,0.7,0.1,1.1,0.1c0.5,0.1,1.1,0.1,1.6,0.2
	c0.4,0.1,0.7,0.1,1.1,0.2c0.5,0.1,1,0.1,1.5,0.2c0.3,0.1,0.7,0.1,1.1,0.2c0.1,0,0.1,0,0.2,0c0.2,0,0.5,0.1,0.7,0.1
	c0.2,0,0.4,0.1,0.6,0.1c0.3,0,0.7,0.1,1.1,0.2c0.4,0.1,0.9,0.2,1.4,0.3c0.3,0.1,0.7,0.2,1.1,0.3c0.2,0,0.3,0.1,0.4,0.1
	c0.1,0,0.2,0.1,0.3,0.1c0.2,0.1,0.4,0.1,0.6,0.2c0.3,0.1,0.7,0.2,1.1,0.3c0.5,0.1,0.9,0.2,1.4,0.4c0.4,0.1,0.7,0.3,1.1,0.4
	c0.5,0.2,0.9,0.3,1.4,0.5c0.4,0.1,0.7,0.3,1.1,0.4c0.4,0.2,0.9,0.4,1.3,0.6c0.4,0.2,0.7,0.3,1.1,0.5c0.4,0.2,0.9,0.4,1.3,0.6
	c0.3,0.2,0.7,0.3,1,0.5c0.5,0.2,0.9,0.5,1.3,0.7c0.3,0.1,0.7,0.3,1,0.5c0.4,0.3,0.9,0.5,1.3,0.8c0.4,0.2,0.7,0.4,1,0.6
	c0.2,0.1,0.4,0.2,0.6,0.3c-0.2-0.1-0.3-0.2-0.5-0.3c0.5,0.2,0.9,0.5,1.4,0.8c-0.2-0.1-0.4-0.2-0.6-0.3c0.2,0.1,0.3,0.2,0.5,0.3
	c0.3,0.2,0.6,0.4,0.9,0.6c0.4,0.3,0.9,0.7,1.4,1c0.3,0.1,0.5,0.3,0.8,0.5l0.1,0.1L276.5,329.6z M218.3,305.6c0.5-0.4,1-0.7,1.5-1
	C219.3,304.9,218.8,305.3,218.3,305.6z M220.6,304c0.5-0.3,0.9-0.6,1.4-0.9C221.5,303.4,221.1,303.7,220.6,304z M223,302.6
	c0.4-0.3,0.9-0.5,1.4-0.8C223.9,302.1,223.5,302.3,223,302.6z M225.3,301.3c0.4-0.2,0.9-0.5,1.3-0.7
	C226.2,300.8,225.8,301.1,225.3,301.3z M227.7,300.1c0.4-0.2,0.9-0.4,1.3-0.6C228.6,299.7,228.2,299.9,227.7,300.1z M230.1,299
	c0.4-0.2,0.9-0.4,1.3-0.6C231,298.7,230.6,298.8,230.1,299z M232.6,298c0.5-0.2,0.9-0.3,1.4-0.5C233.5,297.7,233,297.9,232.6,298z
	 M237.6,296.4c0.5-0.2,0.9-0.3,1.4-0.4C238.5,296.1,238.1,296.3,237.6,296.4z M240.2,295.7c0.4-0.1,0.9-0.2,1.4-0.3
	C241.2,295.5,240.7,295.6,240.2,295.7z M242.7,295.1c0.5-0.1,1-0.2,1.5-0.3C243.7,294.9,243.2,295,242.7,295.1z M245.3,294.7
	c0.5-0.1,1.1-0.2,1.5-0.2C246.3,294.6,245.8,294.6,245.3,294.7z M248,294.3c0.5-0.1,1-0.1,1.6-0.2
	C249.1,294.2,248.5,294.2,248,294.3z M250.6,294c0.6,0,1.2-0.1,1.8-0.1C251.8,293.9,251.2,294,250.6,294z M265.1,294.4
	c0.5,0.1,1,0.1,1.5,0.2C266.2,294.6,265.6,294.5,265.1,294.4z M287.7,301.8c0.5,0.2,0.9,0.5,1.3,0.8
	C288.6,302.3,288.1,302.1,287.7,301.8z M292.3,304.6c0.5,0.3,1,0.6,1.4,1C293.2,305.2,292.7,304.9,292.3,304.6z M294.5,306.1
	c0,0,0.1,0,0.1,0.1L294.5,306.1z M297.2,302.2c-0.1,0-0.1-0.1-0.2-0.1c-0.4-0.2-0.7-0.5-1.1-0.7c-0.4-0.3-0.9-0.6-1.3-0.9
	c-0.4-0.2-0.7-0.5-1.1-0.7c-0.4-0.3-0.9-0.5-1.3-0.8c-0.3-0.3-0.7-0.5-1.1-0.7c-0.4-0.3-0.8-0.6-1.3-0.8c-0.4-0.2-0.8-0.4-1.2-0.6
	c-0.5-0.2-0.9-0.5-1.4-0.7c-0.4-0.2-0.8-0.4-1.2-0.6c-0.5-0.2-0.9-0.4-1.4-0.6c-0.4-0.2-0.8-0.3-1.2-0.5c-0.5-0.2-0.9-0.4-1.4-0.6
	c-0.4-0.2-0.8-0.3-1.2-0.5c-0.4-0.2-0.9-0.3-1.4-0.5c-0.4-0.1-0.8-0.3-1.2-0.4c-0.5-0.2-1-0.3-1.5-0.5c-0.4-0.2-0.8-0.3-1.2-0.4
	c-0.5-0.1-1-0.3-1.5-0.4c-0.5-0.1-0.9-0.2-1.3-0.3c-0.5-0.1-1-0.2-1.5-0.3c-0.5-0.1-0.9-0.2-1.3-0.3c-0.6-0.1-1.1-0.2-1.6-0.3
	c-0.4-0.1-0.8-0.1-1.2-0.2c-0.5-0.1-1.1-0.1-1.6-0.2c-0.4-0.1-0.8-0.2-1.2-0.2c-0.6-0.1-1.1-0.1-1.7-0.2c-0.3,0-0.7-0.1-1.1-0.1
	c-0.6,0-1.3-0.1-1.9-0.1c-0.4-0.1-0.7-0.1-1-0.1c-1-0.1-1.9-0.1-2.9-0.1s-1.9,0.1-2.9,0.1c-0.4,0.1-0.7,0.1-1,0.1
	c-0.6,0-1.3,0-1.9,0.1c-0.3,0-0.7,0.1-1.1,0.1c-0.6,0.1-1.1,0.1-1.7,0.2c-0.4,0.1-0.8,0.1-1.2,0.2c-0.5,0-1.1,0.1-1.6,0.2
	c-0.4,0-0.8,0.1-1.2,0.2c-0.6,0.1-1.1,0.2-1.6,0.3c-0.4,0.1-0.8,0.2-1.2,0.3c-0.5,0.1-1,0.2-1.5,0.3s-0.9,0.2-1.3,0.3
	c-0.5,0.1-1,0.3-1.5,0.4c-0.4,0.1-0.8,0.3-1.2,0.4c-0.5,0.2-1,0.3-1.5,0.5c-0.4,0.1-0.8,0.3-1.2,0.4c-0.4,0.1-0.9,0.3-1.4,0.5
	c-0.4,0.2-0.8,0.3-1.2,0.5c-0.5,0.2-0.9,0.4-1.4,0.6c-0.4,0.1-0.8,0.3-1.2,0.5c-0.5,0.2-0.9,0.4-1.4,0.6c-0.4,0.2-0.8,0.4-1.2,0.6
	c-0.5,0.2-0.9,0.5-1.4,0.7c-0.4,0.2-0.8,0.4-1.2,0.6c-0.4,0.3-0.9,0.5-1.3,0.8c-0.3,0.3-0.7,0.5-1.1,0.7c-0.4,0.2-0.9,0.5-1.3,0.8
	c-0.4,0.2-0.7,0.5-1.1,0.7c-0.4,0.3-0.9,0.6-1.3,0.9c-0.4,0.2-0.7,0.4-1.1,0.7c0,0-0.1,0.1-0.5,0.2l-18-23.4
	c0.2-0.1,0.5-0.3,0.7-0.5c0.5-0.4,1.1-0.7,1.6-1.1c0.6-0.4,1.2-0.8,1.8-1.2c0.5-0.3,1.1-0.7,1.6-1c0.7-0.4,1.3-0.8,1.9-1.2
	c0.1,0,0.1-0.1,0.2-0.1c-0.6,0.4-1.1,0.8-1.8,1.1c0.6-0.4,1.2-0.8,1.9-1.2c0.4-0.3,0.9-0.6,1.3-0.8c0.6-0.4,1.3-0.8,1.9-1.1
	s1.1-0.6,1.7-0.9c0.6-0.3,1.3-0.7,1.9-1c0.6-0.3,1.1-0.5,1.7-0.8c0.7-0.3,1.3-0.6,2-0.9c0.6-0.3,1.1-0.6,1.7-0.8
	c0.3-0.1,0.6-0.2,0.8-0.3c0.3-0.1,0.6-0.3,0.9-0.4c0.1,0,0.2-0.1,0.2-0.1c0.5-0.2,1.1-0.5,1.7-0.7c0.3-0.1,0.7-0.2,1-0.4
	c0.4-0.2,0.9-0.3,1.3-0.4c0,0,0,0,0,0c0.5-0.2,1-0.3,1.5-0.5c0.4-0.2,0.8-0.3,1.2-0.4c0.4-0.1,0.8-0.3,1.2-0.4
	c-0.1,0-0.1,0.1-0.2,0.1c0.6-0.1,1.1-0.3,1.7-0.5c0.7-0.2,1.4-0.4,2.1-0.6c0.6-0.2,1.2-0.4,1.8-0.5c0.8-0.2,1.5-0.3,2.2-0.5
	c0.6-0.1,1.2-0.3,1.8-0.4c0.7-0.1,1.5-0.3,2.2-0.4c0.6-0.1,1.2-0.2,1.8-0.3c0.8-0.1,1.5-0.2,2.3-0.3c0.6,0,1.1-0.1,1.7-0.2
	c0.8,0,1.6-0.1,2.4-0.2c0.5-0.1,1.1-0.2,1.6-0.2c0.9-0.1,1.8-0.2,2.7-0.2c0.5,0,0.9-0.1,1.4-0.1c1.3-0.1,2.8-0.1,4.1-0.1
	c1.3,0,2.7,0,4.1,0.1c0.5,0,0.9,0.1,1.4,0.1c0.9,0.1,1.8,0.1,2.7,0.2c0.5,0.1,1.1,0.1,1.6,0.2c0.8,0,1.6,0.1,2.4,0.2
	c0.6,0,1.1,0.1,1.7,0.2c0.8,0.1,1.5,0.2,2.3,0.3c0.6,0.1,1.2,0.2,1.8,0.3c0.7,0.1,1.5,0.3,2.2,0.4c0.6,0.1,1.2,0.3,1.8,0.4
	c0.8,0.2,1.5,0.3,2.2,0.5c0.6,0.2,1.2,0.3,1.8,0.5c0.7,0.2,1.4,0.4,2.1,0.6c0.6,0.1,1.2,0.3,1.8,0.5c0.7,0.3,1.4,0.5,2.1,0.7
	c0.6,0.2,1.2,0.4,1.8,0.6c0.6,0.2,1.3,0.4,2,0.7c0.6,0.2,1.2,0.5,1.8,0.7c0.7,0.2,1.3,0.5,2,0.8c0.5,0.3,1.1,0.5,1.7,0.8
	c0.7,0.3,1.4,0.6,2,0.9c0.6,0.2,1.1,0.5,1.7,0.8c0.6,0.3,1.3,0.7,1.9,1c0.6,0.3,1.1,0.6,1.7,0.9c0.6,0.4,1.3,0.7,1.9,1.1
	c0.5,0.3,1.1,0.7,1.6,1c0.6,0.3,1.2,0.7,1.8,1.1c0.5,0.3,1.1,0.6,1.6,1c0.6,0.4,1.2,0.8,1.8,1.2c0.6,0.4,1.1,0.7,1.6,1.1
	c0.2,0.1,0.5,0.3,0.7,0.5L297.2,302.2z M227.8,263.3c0.7-0.2,1.4-0.4,2.1-0.6C229.2,262.9,228.5,263.1,227.8,263.3z M231.7,262.2
	c0.7-0.2,1.4-0.3,2.2-0.5C233.2,261.9,232.4,262,231.7,262.2z M235.7,261.3c0.7-0.2,1.5-0.3,2.2-0.4
	C237.1,261.1,236.4,261.2,235.7,261.3z M239.7,260.6c0.7-0.1,1.5-0.2,2.3-0.3C241.2,260.4,240.5,260.5,239.7,260.6z M243.7,260
	c0.8-0.1,1.6-0.2,2.4-0.2C245.3,259.9,244.5,259.9,243.7,260z M247.8,259.6c0.9-0.1,1.8-0.1,2.7-0.2
	C249.6,259.5,248.7,259.6,247.8,259.6z M251.9,259.4c1.3-0.1,2.7-0.1,4.1-0.1c1.4,0,2.8,0,4.1,0.1c-1.3-0.1-2.7-0.1-4.1-0.1
	C254.7,259.3,253.3,259.3,251.9,259.4z M261.5,259.5c0.9,0,1.8,0.1,2.7,0.2C263.3,259.6,262.4,259.5,261.5,259.5z M265.9,259.8
	c0.8,0.1,1.6,0.1,2.4,0.2C267.5,260,266.7,259.9,265.9,259.8z M270,260.3c0.8,0.1,1.6,0.2,2.3,0.3
	C271.5,260.5,270.8,260.4,270,260.3z M274.1,260.9c0.7,0.1,1.5,0.3,2.2,0.4C275.6,261.2,274.9,261.1,274.1,260.9z M278.1,261.7
	c0.8,0.2,1.5,0.3,2.2,0.5C279.5,262,278.8,261.9,278.1,261.7z M282.1,262.7c0.7,0.2,1.4,0.4,2.1,0.6
	C283.5,263.1,282.8,262.9,282.1,262.7z M286,263.8c0.7,0.2,1.4,0.4,2.1,0.7C287.4,264.2,286.7,264,286,263.8z M289.8,265.1
	c0.7,0.2,1.4,0.5,2,0.7C291.2,265.6,290.5,265.3,289.8,265.1z M293.6,266.5c0.7,0.3,1.3,0.5,2,0.8
	C294.9,267.1,294.3,266.8,293.6,266.5z M297.3,268.1c0.7,0.3,1.3,0.6,2,0.9C298.6,268.7,298,268.4,297.3,268.1z M301,269.8
	c0.6,0.3,1.3,0.6,1.9,1C302.3,270.5,301.6,270.2,301,269.8z M304.6,271.7c0.6,0.3,1.3,0.7,1.9,1.1
	C305.8,272.4,305.2,272.1,304.6,271.7z M308.1,273.8c0.6,0.3,1.2,0.7,1.8,1.1C309.3,274.6,308.7,274.2,308.1,273.8z M311.6,276
	c0.6,0.4,1.2,0.8,1.8,1.2C312.8,276.8,312.2,276.4,311.6,276z M315,278.3c0.2,0.2,0.5,0.3,0.7,0.5
	C315.4,278.6,315.2,278.5,315,278.3z M318.8,274.9c-0.3-0.2-0.5-0.4-0.8-0.6c-0.6-0.4-1.1-0.8-1.7-1.2c-0.6-0.5-1.3-0.9-1.9-1.3
	c-0.6-0.4-1.1-0.7-1.7-1.1c-0.6-0.4-1.3-0.8-1.9-1.2c-0.5-0.3-1.1-0.7-1.7-1c-0.7-0.4-1.3-0.7-2-1.1c-0.6-0.4-1.2-0.7-1.8-1
	c-0.7-0.3-1.3-0.7-2-1c-0.6-0.3-1.2-0.6-1.8-0.9c-0.6-0.3-1.3-0.6-2-0.9c-0.6-0.3-1.2-0.5-1.8-0.8c-0.7-0.3-1.4-0.6-2.1-0.9
	c-0.7-0.2-1.3-0.5-1.9-0.7c-0.7-0.3-1.4-0.5-2.1-0.8c-0.6-0.3-1.3-0.5-1.9-0.7c-0.8-0.3-1.5-0.5-2.2-0.7c-0.6-0.2-1.3-0.4-1.9-0.6
	c-0.7-0.2-1.5-0.4-2.2-0.6c-0.6-0.2-1.3-0.3-1.9-0.5c-0.8-0.2-1.5-0.3-2.3-0.5c-0.6-0.1-1.3-0.3-1.9-0.4c-0.7-0.1-1.5-0.3-2.3-0.4
	c-0.7-0.1-1.3-0.2-1.9-0.3c-0.8-0.1-1.6-0.2-2.4-0.3c-0.6-0.1-1.2-0.2-1.8-0.3c-0.9-0.1-1.7-0.2-2.6-0.3c-0.6-0.1-1.1-0.2-1.7-0.2
	c-1-0.1-1.9-0.1-2.9-0.2c-0.4,0-0.9-0.1-1.4-0.1c-1.4-0.1-2.8-0.1-4.3-0.1c-1.4,0-2.9,0-4.3,0.1c-0.4,0-0.9,0.1-1.4,0.1
	c-1,0.1-1.9,0.1-2.9,0.2c-0.6,0.1-1.1,0.1-1.7,0.2c-0.9,0.1-1.7,0.2-2.6,0.3c-0.6,0.1-1.2,0.2-1.8,0.3c-0.8,0.1-1.6,0.2-2.4,0.3
	c-0.7,0.1-1.3,0.2-1.9,0.3c-0.7,0.1-1.5,0.2-2.3,0.4c-0.7,0.1-1.3,0.3-1.9,0.4c-0.8,0.1-1.5,0.3-2.3,0.5c-0.7,0.2-1.3,0.3-1.9,0.5
	c-0.7,0.2-1.5,0.4-2.2,0.6s-1.3,0.4-1.9,0.6c-0.8,0.2-1.5,0.5-2.2,0.7c-0.7,0.3-1.3,0.5-1.9,0.7c-0.7,0.3-1.4,0.5-2.1,0.8
	c-0.6,0.2-1.2,0.5-1.8,0.7c-0.7,0.3-1.4,0.6-2.1,0.9c-0.6,0.3-1.2,0.5-1.8,0.8c-0.7,0.3-1.4,0.6-2.1,0.9c-0.6,0.3-1.2,0.6-1.8,0.9
	c-0.7,0.3-1.3,0.6-2,1c-0.6,0.4-1.2,0.7-1.8,1c-0.7,0.3-1.3,0.7-2,1.1c-0.6,0.3-1.1,0.7-1.7,1c-0.6,0.4-1.3,0.8-1.9,1.2
	c-0.6,0.4-1.1,0.7-1.7,1.1c-0.6,0.4-1.3,0.9-1.9,1.3c-0.5,0.4-1.1,0.8-1.6,1.2c-0.3,0.2-0.6,0.3-1,0.6l-18-23.4
	c0-0.1,0.1-0.1,0.1-0.1c1.3-1.1,2.7-2,4.1-3c0.2,0,0.3-0.1,0.4-0.2c1.4-0.9,2.8-1.8,4.2-2.7c0.1-0.1,0.3-0.2,0.4-0.3
	c1.4-0.9,2.8-1.7,4.2-2.5c0.2-0.1,0.3-0.2,0.5-0.3c1.4-0.8,2.8-1.6,4.2-2.3c0.2-0.1,0.4-0.2,0.6-0.3c1.4-0.7,2.9-1.4,4.3-2.1
	c0.2-0.1,0.4-0.2,0.6-0.3c1.4-0.6,2.9-1.3,4.3-1.9c0.2-0.1,0.4-0.2,0.6-0.3c1.5-0.6,2.9-1.1,4.4-1.7c0,0,0,0,0,0
	c0.1-0.1,0.3-0.1,0.4-0.2c0.1,0,0.1,0,0.2,0c0,0,0,0,0,0c1.4-0.6,2.9-1.1,4.4-1.6c0.1-0.1,0.2-0.1,0.4-0.1c0,0,0,0,0.1,0
	c0.1,0,0.1,0,0.2-0.1c1.5-0.5,3-1,4.5-1.4c0.2-0.1,0.4-0.1,0.6-0.2c1.5-0.4,3.1-0.8,4.6-1.2c0.2,0,0.3-0.1,0.5-0.1c0,0,0,0,0.1,0
	c0,0,0,0,0.1,0c1.6-0.3,3.1-0.7,4.7-1c0.2,0,0.4-0.1,0.6-0.1c1.6-0.4,3.2-0.6,4.8-0.9c0.2,0,0.3-0.1,0.5-0.1
	c1.6-0.3,3.3-0.5,4.9-0.7c0,0,0.1,0,0.1,0c0.1,0,0.3-0.1,0.4,0c1.7-0.2,3.2-0.4,4.9-0.5c0.1,0,0.2,0,0.3,0c1.7-0.1,3.5-0.2,5.2-0.3
	c0.1,0,0.1,0,0.2,0c1.8-0.1,3.6-0.1,5.4-0.1s3.6,0,5.4,0.1c0.1,0,0.1,0,0.2,0c1.8,0.1,3.5,0.2,5.2,0.3c0.1,0,0.2,0,0.3,0
	c1.7,0.1,3.3,0.3,5,0.5c0.1,0,0.3,0,0.4,0c1.7,0.2,3.3,0.4,4.9,0.7c0.2,0,0.3,0.1,0.5,0.1c1.6,0.3,3.2,0.6,4.8,0.9
	c0.2,0,0.4,0.1,0.6,0.1c1.6,0.3,3.2,0.6,4.7,1c0.2,0,0.4,0,0.6,0.1c1.6,0.4,3.1,0.8,4.6,1.2c0.2,0.1,0.4,0.1,0.6,0.2
	c1.5,0.4,3,0.9,4.5,1.4c0,0,0,0,0,0c0,0,0,0,0,0c0.3,0,0.5,0.1,0.7,0.2h0c1.5,0.5,2.9,1.1,4.4,1.6c0.3,0,0.5,0.1,0.7,0.2
	c1.5,0.5,3,1.1,4.4,1.7c0.2,0.1,0.4,0.2,0.6,0.3c1.4,0.6,2.9,1.2,4.3,1.9c0.2,0.1,0.4,0.2,0.6,0.3c1.4,0.7,2.8,1.4,4.2,2.1
	c0.2,0.1,0.4,0.2,0.6,0.3c1.4,0.7,2.8,1.5,4.2,2.3c0.2,0.1,0.3,0.2,0.5,0.3c1.4,0.8,2.8,1.6,4.2,2.5c0,0,0,0,0,0c0,0,0,0,0,0
	c0.2,0.1,0.3,0.2,0.5,0.3c0,0,0,0,0,0c0,0,0,0,0,0c1.4,0.9,2.7,1.8,4.1,2.7c0,0,0,0,0,0c0,0,0,0,0,0c0.1,0.1,0.3,0.2,0.4,0.3
	c0,0,0,0,0,0c0,0,0,0,0,0c1.4,0.9,2.7,1.9,4.1,2.9c0,0.1,0.1,0.1,0.1,0.1L318.8,274.9z M228.7,227.5c0.2,0,0.4-0.1,0.6-0.1
	C229.1,227.4,228.9,227.5,228.7,227.5z M234.1,226.5c0.2,0,0.3-0.1,0.5-0.1C234.4,226.5,234.3,226.5,234.1,226.5z M245,225.2
	c0.1,0,0.2,0,0.3,0C245.2,225.2,245.1,225.2,245,225.2z M250.5,224.9c0.1,0,0.1,0,0.2,0C250.6,224.9,250.6,224.9,250.5,224.9z
	 M261.4,224.9c0.1,0,0.1,0,0.2,0C261.5,224.9,261.5,224.9,261.4,224.9z M266.7,225.2c0.1,0,0.2,0,0.3,0
	C266.9,225.2,266.8,225.2,266.7,225.2z M272.1,225.7c0.1,0,0.3,0,0.4,0C272.4,225.8,272.2,225.7,272.1,225.7z M277.4,226.5
	c0.2,0,0.3,0,0.5,0.1C277.7,226.6,277.6,226.5,277.4,226.5z M282.7,227.4c0.2,0,0.4,0.1,0.6,0.1
	C283.1,227.5,282.9,227.4,282.7,227.4z M287.9,228.5c0.2,0,0.4,0.1,0.6,0.1C288.3,228.6,288.1,228.6,287.9,228.5z M293.1,229.9
	c0.2,0.1,0.4,0.1,0.6,0.2C293.5,230,293.3,230,293.1,229.9z M303.3,233.2c0.2,0.1,0.5,0.2,0.7,0.2
	C303.7,233.4,303.5,233.3,303.3,233.2z M313.3,237.4c0.2,0.1,0.4,0.2,0.6,0.3C313.7,237.6,313.5,237.5,313.3,237.4z M318.1,239.8
	c0.2,0.1,0.4,0.2,0.6,0.3C318.5,240,318.3,239.9,318.1,239.8z M322.9,242.4c0.2,0.1,0.3,0.2,0.5,0.3
	C323.2,242.6,323.1,242.5,322.9,242.4z M336.7,251.4C336.7,251.4,336.8,251.4,336.7,251.4C336.8,251.4,336.7,251.4,336.7,251.4z
	 M339.7,247.6l-0.1-0.1c-1.4-1-2.8-2-4.2-3c-0.2-0.1-0.3-0.2-0.5-0.3c-1.4-1-2.8-1.9-4.2-2.8c-0.1-0.1-0.3-0.2-0.5-0.3
	c-1.5-0.9-2.9-1.8-4.3-2.6c-0.2-0.2-0.4-0.3-0.6-0.4c-1.4-0.9-2.9-1.6-4.3-2.4c-0.3-0.1-0.5-0.2-0.7-0.3c-1.4-0.8-2.8-1.5-4.3-2.2
	c-0.2-0.1-0.5-0.2-0.7-0.3c-1.4-0.7-2.9-1.4-4.4-2c-0.2-0.1-0.5-0.2-0.7-0.3c-1.5-0.6-3-1.2-4.5-1.8c-0.2-0.1-0.5-0.2-0.7-0.3
	c-1.6-0.6-3.1-1.1-4.6-1.6c-0.2,0-0.5-0.1-0.7-0.2c-1.5-0.5-3-1-4.6-1.4c-0.2-0.1-0.5-0.1-0.7-0.2c-1.5-0.5-3.1-0.9-4.7-1.3
	c-0.3-0.1-0.5-0.1-0.7-0.2c-1.6-0.4-3.2-0.8-4.8-1.1c-0.2,0-0.4-0.1-0.6-0.1c-1.6-0.3-3.2-0.6-4.9-0.9c-0.1,0-0.3-0.1-0.5-0.1
	c-1.7-0.3-3.4-0.5-5.1-0.7c-0.2-0.1-0.3-0.1-0.5-0.1c-1.7-0.2-3.5-0.4-5.2-0.5c-0.1,0-0.2,0-0.3,0c-1.8-0.1-3.6-0.2-5.4-0.3
	c-0.1,0-0.1,0-0.2,0c-1.9-0.1-3.7-0.1-5.6-0.1c-1.9,0-3.8,0-5.6,0.1c-0.1,0-0.1,0-0.2,0c-1.8,0.1-3.6,0.2-5.4,0.3
	c-0.1,0-0.2,0-0.3,0c-1.7,0.1-3.5,0.3-5.2,0.5c-0.2,0.1-0.3,0.1-0.5,0.1c-1.7,0.2-3.4,0.4-5.1,0.7c-0.1,0-0.3,0.1-0.5,0.1
	c-1.6,0.3-3.3,0.6-4.9,0.9c-0.2,0-0.4,0.1-0.6,0.1c-1.6,0.4-3.2,0.7-4.8,1.1c-0.3,0.1-0.5,0.1-0.7,0.2c-1.6,0.4-3.1,0.9-4.7,1.3
	c-0.2,0.1-0.5,0.1-0.7,0.2c-1.5,0.4-3.1,0.9-4.6,1.4c-0.2,0-0.5,0.1-0.7,0.2c-1.6,0.5-3.1,1-4.6,1.6c-0.2,0.1-0.5,0.2-0.7,0.3
	c-1.5,0.6-3,1.2-4.5,1.8c-0.2,0.1-0.5,0.2-0.7,0.3c-1.5,0.7-2.9,1.3-4.4,2c-0.3,0.1-0.5,0.2-0.7,0.3c-1.5,0.7-3,1.5-4.4,2.2
	c-0.2,0.1-0.4,0.2-0.6,0.3c-1.4,0.8-2.9,1.6-4.3,2.4c-0.2,0.1-0.4,0.2-0.6,0.3c-1.5,0.9-2.9,1.7-4.3,2.6c-0.2,0.1-0.3,0.2-0.5,0.3
	c-1.4,0.9-2.8,1.8-4.2,2.8c-0.1,0.1-0.2,0.2-0.4,0.3c-1.3,1-2.7,1.9-4,2.9l0.2,0.3c-0.5-0.1-0.4-0.2-0.4-0.2c0.1,0,0.1-0.1,0.2-0.1
	l-17.8-23.1c0.1-0.1,0.3-0.2,0.4-0.3c0.5-0.3,0.9-0.7,1.4-1c0.4-0.3,0.9-0.7,1.4-1c0.5-0.3,0.9-0.7,1.4-1c0.4-0.3,0.9-0.7,1.4-1
	c0.4-0.4,0.9-0.7,1.4-1c0.4-0.4,0.9-0.7,1.4-1c0.5-0.3,1-0.6,1.5-0.9s1-0.6,1.5-0.9c0.5-0.3,1-0.6,1.5-0.9s1-0.6,1.5-0.9
	c0.5-0.3,1-0.6,1.5-0.9s1-0.6,1.5-0.9c0.5-0.3,1-0.6,1.5-0.9s1-0.5,1.5-0.8c0.5-0.3,1-0.5,1.5-0.8c0.5-0.3,1-0.5,1.5-0.8
	s1-0.5,1.5-0.8s1-0.5,1.5-0.8c0.6-0.3,1.1-0.5,1.6-0.8c0.5-0.2,1-0.5,1.5-0.7c0.5-0.2,1.1-0.5,1.6-0.7s1-0.5,1.5-0.7
	s1.1-0.5,1.6-0.7c0.6-0.3,1.1-0.5,1.6-0.7c0.5-0.3,1.1-0.5,1.6-0.7s1.1-0.4,1.6-0.6s1.1-0.4,1.6-0.6s1.1-0.4,1.6-0.6
	s1.1-0.4,1.6-0.6s1.1-0.4,1.6-0.6s1.1-0.5,1.6-0.6c0.5-0.1,1.1-0.3,1.6-0.5s1.1-0.3,1.6-0.5s1.1-0.3,1.6-0.5s1.1-0.3,1.6-0.5
	c0.6-0.2,1.1-0.3,1.7-0.5c0.5-0.2,1.1-0.4,1.6-0.5c0.1,0,0.2-0.1,0.4-0.1c0.1,0,0.2-0.1,0.4-0.1c0.3-0.1,0.6-0.2,1-0.2
	c0.5-0.1,1.1-0.3,1.6-0.4c0.6-0.1,1.1-0.3,1.7-0.4c0.5-0.1,1.1-0.3,1.6-0.4c0.6-0.2,1.1-0.3,1.7-0.4c0.5-0.1,1.1-0.2,1.6-0.3
	c0.5-0.1,1.1-0.2,1.7-0.3c0.5-0.1,1.1-0.2,1.6-0.3c0.6-0.1,1.2-0.2,1.8-0.3c0.5-0.1,1.1-0.2,1.6-0.3c0.6-0.1,1.2-0.2,1.8-0.3
	c0.5,0,1.1-0.1,1.6-0.2c0.6,0,1.2-0.1,1.8-0.2c0.5-0.1,1.1-0.1,1.6-0.2c0.7-0.1,1.3-0.1,1.9-0.2c0.5-0.1,1.1-0.1,1.6-0.2
	c0.6-0.1,1.3-0.1,1.9-0.2c0.6,0,1.1-0.1,1.6-0.1c0.7,0,1.3-0.1,2-0.1c0.5,0,1-0.1,1.5-0.1c0.7,0,1.4-0.1,2.1-0.1
	c0.5-0.1,0.9-0.1,1.4-0.1c0.8-0.1,1.5-0.1,2.3-0.1c0.4,0,0.8,0,1.2,0c1.2,0,2.3,0,3.5,0s2.3,0,3.5,0c0.4,0,0.8,0,1.2,0
	c0.8,0.1,1.5,0.1,2.3,0.1c0.5,0,0.9,0.1,1.4,0.1c0.7,0,1.4,0.1,2.1,0.1c0.5,0,1,0.1,1.5,0.1c0.7,0,1.3,0,2,0.1
	c0.6,0,1.1,0.1,1.6,0.1c0.1,0,0.3,0,0.5,0c0.2,0,0.3,0,0.5,0c0.3,0,0.7,0.1,1,0.1c0.5,0.1,1.1,0.1,1.6,0.2c0.6,0.1,1.2,0.1,1.8,0.2
	c0.5,0.1,1.1,0.1,1.6,0.2c0.6,0,1.2,0.1,1.8,0.2c0.5,0,1.1,0.1,1.6,0.2c0.6,0.1,1.2,0.2,1.8,0.3c0.5,0.1,1.1,0.2,1.6,0.3
	c0.6,0.1,1.2,0.2,1.8,0.3c0.5,0.1,1.1,0.2,1.6,0.3c0.5,0.1,1.1,0.2,1.7,0.3c0.5,0.2,1.1,0.3,1.6,0.4c0.1,0,0.1,0,0.2,0.1
	c0.4,0.1,0.8,0.2,1.2,0.3c0.1,0,0.2,0,0.3,0.1c0.5,0.1,1.1,0.3,1.6,0.4c0.6,0.1,1.1,0.3,1.7,0.4c0.5,0.1,1.1,0.3,1.6,0.4
	c0.6,0.1,1.1,0.2,1.7,0.4c0.5,0.2,1.1,0.3,1.6,0.5c0.6,0.1,1.1,0.3,1.7,0.5c0.5,0.2,1.1,0.3,1.6,0.5s1.1,0.3,1.6,0.5
	c0.5,0.1,1.1,0.3,1.6,0.5c0.5,0.1,1.1,0.3,1.6,0.5s1.1,0.4,1.6,0.6s1.1,0.4,1.6,0.6s1.1,0.4,1.6,0.6s1.1,0.4,1.6,0.6
	s1.1,0.4,1.6,0.6s1.1,0.4,1.6,0.6c0.5,0.3,1.1,0.5,1.6,0.7c0.5,0.3,1.1,0.5,1.6,0.7c0.6,0.2,1.1,0.5,1.6,0.7
	c0.6,0.2,1.1,0.5,1.6,0.7c0.6,0.2,1.1,0.5,1.6,0.7c0.6,0.2,1.1,0.5,1.6,0.7c0.5,0.2,1,0.4,1.5,0.7c0,0,0,0,0,0
	c0.5,0.2,1,0.5,1.5,0.8c0,0,0,0,0,0c0.5,0.3,1,0.5,1.5,0.8s1,0.5,1.5,0.8s1,0.5,1.5,0.8c0.5,0.2,1,0.5,1.5,0.8
	c0.5,0.2,1,0.5,1.5,0.8s1,0.6,1.5,0.9s1,0.6,1.5,0.9s1,0.6,1.5,0.9c0.4,0.3,0.9,0.6,1.4,0.9c0.5,0.4,1,0.7,1.5,1s0.9,0.6,1.4,0.9
	c0.5,0.3,1,0.7,1.5,1s0.9,0.6,1.4,0.9s1,0.7,1.5,1c0.5,0.4,0.9,0.7,1.4,1c0.5,0.4,1,0.7,1.5,1.1c0.4,0.3,0.9,0.7,1.3,1
	c0.1,0.1,0.3,0.2,0.4,0.3L339.7,247.6z M156,222.8c0.5-0.4,0.9-0.7,1.4-1C156.9,222.1,156.5,222.5,156,222.8z M158.8,220.8
	c0.5-0.4,1-0.7,1.4-1C159.8,220.1,159.3,220.5,158.8,220.8z M161.7,218.8c0.5-0.3,1-0.6,1.4-1C162.7,218.2,162.2,218.5,161.7,218.8z
	 M164.6,216.9c0.5-0.3,1-0.6,1.5-0.9C165.6,216.3,165.1,216.6,164.6,216.9z M167.6,215.1c0.4-0.3,0.9-0.6,1.5-0.9
	C168.6,214.5,168.1,214.8,167.6,215.1z M170.5,213.3c0.5-0.3,1-0.6,1.5-0.9C171.5,212.7,171,213,170.5,213.3z M173.5,211.6
	c0.5-0.3,1-0.6,1.5-0.8C174.5,211,174,211.3,173.5,211.6z M176.6,209.9c0.5-0.3,1-0.5,1.5-0.8C177.6,209.4,177.1,209.6,176.6,209.9z
	 M179.6,208.3c0.5-0.3,1-0.5,1.5-0.8C180.6,207.8,180.1,208.1,179.6,208.3z M182.7,206.8c0.5-0.2,1-0.5,1.5-0.7
	C183.7,206.3,183.2,206.6,182.7,206.8z M185.8,205.4c0.5-0.3,1-0.5,1.5-0.7C186.8,204.9,186.3,205.2,185.8,205.4z M188.9,204
	c0.5-0.2,1.1-0.5,1.6-0.7C189.9,203.6,189.4,203.8,188.9,204z M192.1,202.7c0.5-0.3,1-0.5,1.6-0.6
	C193.2,202.3,192.6,202.5,192.1,202.7z M195.3,201.4c0.5-0.2,1-0.4,1.6-0.6C196.4,201,195.8,201.2,195.3,201.4z M198.5,200.2
	c0.5-0.2,1-0.4,1.6-0.6C199.6,199.8,199,200,198.5,200.2z M201.7,199.1c0.5-0.2,1.1-0.4,1.6-0.5
	C202.8,198.7,202.2,198.9,201.7,199.1z M205,198c0.5-0.2,1.1-0.3,1.6-0.5C206,197.7,205.5,197.9,205,198z M208.2,197
	c0.6-0.2,1.1-0.3,1.7-0.5C209.3,196.7,208.8,196.9,208.2,197z M221.5,193.7c0.6-0.1,1.2-0.2,1.7-0.3
	C222.7,193.5,222.1,193.6,221.5,193.7z M224.9,193.1c0.6-0.1,1.2-0.2,1.8-0.3C226.1,192.9,225.5,193,224.9,193.1z M228.3,192.5
	c0.6-0.1,1.2-0.2,1.8-0.3C229.5,192.3,228.9,192.4,228.3,192.5z M231.7,192c0.6-0.1,1.2-0.2,1.8-0.2
	C232.9,191.8,232.3,191.9,231.7,192z M235.1,191.5c0.6-0.1,1.2-0.1,1.9-0.2C236.4,191.4,235.7,191.5,235.1,191.5z M238.6,191.1
	c0.6-0.1,1.3-0.1,1.9-0.2C239.8,191,239.2,191.1,238.6,191.1z M242,190.8c0.7-0.1,1.3-0.1,2-0.1C243.3,190.7,242.7,190.8,242,190.8z
	 M245.5,190.6c0.7-0.1,1.4-0.1,2.1-0.1C246.9,190.5,246.2,190.6,245.5,190.6z M249,190.4c0.8,0,1.5,0,2.3-0.1
	C250.5,190.4,249.8,190.4,249,190.4z M252.5,190.3c1.2,0,2.3,0,3.5,0s2.3,0,3.5,0c-1.2,0-2.3,0-3.5,0S253.7,190.3,252.5,190.3z
	 M260.7,190.3c0.8,0,1.5,0,2.3,0.1C262.2,190.4,261.5,190.4,260.7,190.3z M264.4,190.5c0.7,0,1.4,0,2.1,0.1
	C265.8,190.6,265.1,190.5,264.4,190.5z M268,190.7c0.7,0,1.3,0.1,2,0.1C269.3,190.8,268.7,190.7,268,190.7z M275,191.3
	c0.6,0.1,1.2,0.1,1.8,0.2C276.3,191.5,275.6,191.4,275,191.3z M278.5,191.7c0.6,0.1,1.2,0.2,1.8,0.2
	C279.7,191.9,279.1,191.8,278.5,191.7z M295.5,194.8c0.6,0.1,1.1,0.3,1.7,0.4C296.6,195.1,296,195,295.5,194.8z M305.4,197.5
	c0.5,0.2,1.1,0.3,1.6,0.5C306.5,197.9,306,197.7,305.4,197.5z M308.7,198.5c0.5,0.2,1.1,0.4,1.6,0.5
	C309.8,198.9,309.2,198.7,308.7,198.5z M311.9,199.6c0.6,0.2,1.1,0.4,1.6,0.6C313,200,312.4,199.8,311.9,199.6z M315.1,200.8
	c0.6,0.2,1.1,0.4,1.6,0.6C316.2,201.2,315.6,201,315.1,200.8z M318.3,202c0.6,0.2,1.1,0.4,1.6,0.6
	C319.4,202.4,318.8,202.2,318.3,202z M321.5,203.3c0.5,0.2,1.1,0.4,1.6,0.7C322.6,203.8,322,203.5,321.5,203.3z M324.7,204.7
	c0.5,0.2,1,0.4,1.6,0.7C325.7,205.2,325.2,204.9,324.7,204.7z M327.8,206.1c0.5,0.2,1,0.5,1.6,0.7
	C328.8,206.6,328.3,206.3,327.8,206.1z M333.9,209.1c0.5,0.3,1,0.5,1.5,0.8C335,209.7,334.4,209.4,333.9,209.1z M337,210.7
	c0.5,0.3,1,0.6,1.5,0.8C338,211.3,337.5,211,337,210.7z M340,212.4c0.5,0.3,1,0.6,1.5,0.9C341,213,340.5,212.7,340,212.4z
	 M343,214.1c0.5,0.3,1,0.6,1.5,0.9C344,214.8,343.5,214.5,343,214.1z M345.9,216c0.5,0.3,1,0.6,1.5,1
	C346.9,216.6,346.4,216.3,345.9,216z M348.8,217.8c0.5,0.3,1,0.7,1.5,1C349.8,218.5,349.3,218.1,348.8,217.8z M351.7,219.8
	c0.5,0.3,1,0.6,1.5,1C352.7,220.5,352.2,220.1,351.7,219.8z M354.6,221.7c0.5,0.4,1,0.7,1.5,1.1
	C355.6,222.5,355.1,222.1,354.6,221.7z M357.4,223.8c0.1,0.1,0.3,0.2,0.4,0.3C357.7,224,357.5,223.9,357.4,223.8z M360.4,219.7
	c-0.2-0.1-0.3-0.2-0.5-0.3c-0.5-0.3-0.9-0.7-1.4-1c-0.5-0.4-1-0.7-1.5-1.1c-0.5-0.4-0.9-0.7-1.4-1c-0.6-0.4-1.1-0.7-1.6-1.1
	c-0.5-0.3-0.9-0.6-1.4-0.9c-0.6-0.3-1.1-0.7-1.6-1s-0.9-0.6-1.4-0.9c-0.5-0.3-1.1-0.7-1.6-1c-0.4-0.3-0.9-0.6-1.4-0.9
	c-0.5-0.4-1.1-0.7-1.6-1s-1-0.6-1.5-0.9s-1.1-0.6-1.6-0.9s-1-0.5-1.5-0.8s-1.1-0.6-1.6-0.9c-0.5-0.3-1-0.5-1.5-0.8s-1-0.6-1.6-0.9
	c-0.5-0.3-1-0.5-1.5-0.8c-0.6-0.2-1.1-0.5-1.7-0.8c-0.5-0.2-1-0.5-1.5-0.7c-0.6-0.3-1.1-0.5-1.7-0.8c-0.5-0.2-1-0.5-1.5-0.7
	c-0.6-0.3-1.1-0.5-1.7-0.8c-0.5-0.3-1-0.5-1.5-0.7c-0.6-0.2-1.1-0.5-1.7-0.7c-0.6-0.2-1.1-0.4-1.6-0.6c-0.6-0.2-1.1-0.5-1.7-0.7
	c-0.6-0.2-1.1-0.4-1.6-0.6s-1.1-0.4-1.7-0.6c-0.5-0.2-1.1-0.4-1.6-0.6s-1.1-0.4-1.7-0.6c-0.5-0.1-1.1-0.3-1.6-0.5
	c-0.6-0.2-1.2-0.4-1.8-0.6c-0.5-0.2-1.1-0.3-1.6-0.5c-0.6-0.1-1.2-0.3-1.8-0.5c-0.5-0.2-1.1-0.3-1.6-0.5c-0.6-0.2-1.2-0.3-1.8-0.5
	c-0.5-0.1-1.1-0.3-1.6-0.4c-0.6-0.2-1.2-0.3-1.8-0.5c-0.5-0.1-1.1-0.3-1.6-0.4c-0.6-0.1-1.2-0.3-1.8-0.4c-0.5-0.1-1.1-0.3-1.6-0.4
	c-0.6-0.1-1.2-0.3-1.8-0.4c-0.5-0.1-1.1-0.2-1.6-0.3c-0.6-0.2-1.2-0.3-1.8-0.4c-0.5-0.1-1.1-0.2-1.6-0.3c-0.7-0.1-1.3-0.2-1.9-0.3
	c-0.5-0.1-1.1-0.2-1.6-0.3c-0.6-0.1-1.3-0.2-1.9-0.3c-0.5,0-1.1-0.1-1.6-0.2c-0.6-0.1-1.3-0.2-1.9-0.3c-0.5-0.1-1.1-0.1-1.6-0.2
	c-0.6-0.1-1.3-0.1-1.9-0.2c-0.5-0.1-1.1-0.1-1.6-0.2c-0.7-0.1-1.3-0.1-2-0.2c-0.5,0-1.1-0.1-1.6-0.1c-0.6,0-1.3-0.1-2-0.1
	c-0.5,0-1-0.1-1.5-0.1c-0.7,0-1.4-0.1-2.1-0.1c-0.4-0.1-0.9-0.1-1.4-0.1c-0.8-0.1-1.6-0.1-2.4-0.1c-0.4,0-0.8,0-1.2,0
	c-1.2,0-2.4,0-3.6,0s-2.4,0-3.6,0c-0.4,0-0.8,0-1.2,0c-0.8,0-1.6,0.1-2.4,0.1c-0.4,0-0.9,0.1-1.4,0.1c-0.7,0-1.4,0.1-2.1,0.1
	c-0.5,0-1,0.1-1.5,0.1c-0.6,0-1.3,0-2,0.1c-0.5,0-1.1,0.1-1.6,0.1c-0.7,0.1-1.3,0.1-2,0.2c-0.5,0.1-1.1,0.1-1.6,0.2
	c-0.6,0.1-1.3,0.1-1.9,0.2c-0.5,0.1-1.1,0.1-1.6,0.2c-0.6,0.1-1.3,0.2-1.9,0.3c-0.5,0-1.1,0.1-1.6,0.2c-0.7,0.1-1.3,0.2-1.9,0.3
	c-0.6,0.1-1.1,0.2-1.7,0.3c-0.6,0.1-1.2,0.2-1.8,0.3c-0.6,0.1-1.1,0.2-1.7,0.3c-0.6,0.2-1.2,0.3-1.8,0.4c-0.6,0.2-1.1,0.3-1.7,0.4
	c-0.6,0.1-1.2,0.3-1.8,0.4c-0.6,0.1-1.1,0.3-1.7,0.4c-0.6,0.1-1.2,0.3-1.8,0.4c-0.5,0.1-1.1,0.3-1.6,0.4c-0.6,0.2-1.2,0.3-1.8,0.5
	c-0.5,0.2-1.1,0.3-1.6,0.5c-0.6,0.2-1.2,0.3-1.8,0.5c-0.5,0.2-1.1,0.3-1.6,0.5c-0.5,0.1-1.1,0.3-1.7,0.5c-0.5,0.1-1.1,0.3-1.6,0.5
	c-0.6,0.2-1.1,0.4-1.7,0.6c-0.5,0.2-1.1,0.4-1.6,0.6c-0.6,0.2-1.1,0.4-1.7,0.6c-0.5,0.2-1.1,0.4-1.6,0.6c-0.6,0.2-1.1,0.4-1.7,0.6
	c-0.5,0.2-1.1,0.4-1.6,0.6c-0.6,0.3-1.1,0.5-1.7,0.7c-0.5,0.3-1.1,0.5-1.6,0.7c-0.6,0.2-1.1,0.5-1.7,0.7c-0.6,0.2-1.1,0.5-1.6,0.7
	c-0.6,0.2-1.1,0.4-1.7,0.7c-0.6,0.2-1.1,0.5-1.6,0.7c-0.5,0.3-1.1,0.5-1.6,0.8c-0.5,0.2-1,0.4-1.5,0.7s-1.1,0.5-1.6,0.8
	c-0.5,0.3-1,0.5-1.5,0.8c-0.5,0.3-1.1,0.6-1.6,0.9s-1,0.5-1.5,0.8s-1.1,0.6-1.6,0.9c-0.5,0.2-1,0.5-1.5,0.8s-1.1,0.6-1.6,0.9
	c-0.5,0.3-1,0.6-1.5,0.9c-0.5,0.4-1.1,0.7-1.6,1c-0.4,0.3-0.9,0.6-1.4,0.9c-0.5,0.3-1.1,0.7-1.6,1c-0.5,0.3-0.9,0.6-1.4,0.9
	c-0.5,0.4-1.1,0.7-1.6,1.1c-0.5,0.3-0.9,0.6-1.4,0.9c-0.5,0.4-1.1,0.7-1.6,1.1c-0.5,0.4-0.9,0.7-1.4,1c-0.6,0.3-1.1,0.7-1.6,1.1
	c-0.4,0.3-0.9,0.7-1.3,1c-0.2,0.2-0.3,0.3-0.5,0.4l-18-23.4c35.7-26.8,78.1-41,122.9-41s87.2,14.2,122.9,41L360.4,219.7z"/>
</svg>
