<?xml version="1.0" encoding="utf-8"?>
<!-- Generator: Adobe Illustrator 22.0.1, SVG Export Plug-In . SVG Version: 6.00 Build 0)  -->
<svg version="1.1" id="Layer_1" xmlns="http://www.w3.org/2000/svg" xmlns:xlink="http://www.w3.org/1999/xlink" x="0px" y="0px"
	 viewBox="0 0 512 512" style="enable-background:new 0 0 512 512;" xml:space="preserve">
<style type="text/css">
	.st0{fill:#BEBEBE;}
</style>
<g id="g280" transform="translate(320.8075,305.7507)">
	<path id="path282" class="st0" d="M107.2-181.8V35.4c0,8.9-7.2,16.1-16.1,16.1H52.5c-8.9,0-16.1,7.2-16.1,16.1v23.9v14.7
		c0,8.9-7.2,16.1-16.1,16.1H-150c-8.9,0-16.1-7.2-16.1-16.1V91.5V67.6c0-8.9-7.2-16.1-16.1-16.1h-38.6c-8.9,0-16.1-7.2-16.1-16.1
		v-217.2v-23.9c0-8.9,7.2-16.1,16.1-16.1H91.1c8.9,0,16.1,7.2,16.1,16.1V-181.8z M115-283.8h-359.6c-29.9,0-54.2,24.3-54.2,54.2V130
		c0,29.9,24.3,54.2,54.2,54.2H115c29.9,0,54.2-24.3,54.2-54.2v-359.6C169.2-259.5,144.9-283.8,115-283.8"/>
</g>
</svg>
